M48
;Layer_Color=9474304
;FILE_FORMAT=2:4
INCH,LZ
;TYPE=PLATED
T1F00S00C0.0079
T2F00S00C0.0098
T6F00S00C0.0276
T7F00S00C0.0310
T9F00S00C0.0319
T10F00S00C0.0354
T11F00S00C0.0394
T12F00S00C0.0400
T13F00S00C0.0410
T14F00S00C0.0429
T15F00S00C0.0512
T16F00S00C0.0630
T17F00S00C0.0728
T18F00S00C0.1280
T19F00S00C0.1299
T20F00S00C0.1661
;TYPE=NON_PLATED
T21F00S00C0.0256
T22F00S00C0.0300
%
T01
X100876Y011575
X101426Y013566
X10251Y012986
X100829Y012302
X100531Y011392
X099389Y011879
X099209Y010201
X098782Y009973
X096788Y008728
X093431Y008741
X093241Y008906
X093287Y011041
X093741Y010797
X09278Y011305
X092689Y012331
X09263Y013561
X093024Y013568
X092195Y01341
X091825
X08998Y013527
X089991Y012852
X089737Y012331
X090213Y011924
X089208Y011789
X088877Y01121
X08763Y012331
X087178Y012784
X088369Y013707
X090935Y010322
X094796Y012331
X095249Y012784
X096972Y01217
X097635Y012667
X09838Y012839
X100262Y013333
X07692Y012986
X075835Y013566
X074672Y013332
X075238Y012301
X075285Y011575
X074941Y011392
X073799Y011879
X073619Y010201
X073192Y009972
X071197Y008728
X071382Y012169
X072044Y012667
X072789Y012839
X069658Y012784
X069205Y012331
X067099Y012331
X067189Y011305
X067697Y011041
X068151Y010797
X06784Y008741
X06765Y008906
X065345Y010322
X064622Y011924
X064146Y012331
X064401Y012852
X06439Y013527
X062778Y013707
X061587Y012784
X06204Y012331
X063617Y011789
X063286Y01121
X066235Y013409
X066604
X067039Y013561
X067433Y013568
X034793Y012532
X034805Y012034
X034845Y011517
X034058
X034451Y012304
X033664
Y010729
X034451
X032877
X032089
X031302
X030514
X029727
X02894
X028152
X027754Y010408
X024879Y010415
X024215Y010729
X023034Y011517
X026971Y013091
X028546
X029333
X030121
X030514Y012304
X031302
X032089
X029727
X02894
X021853
X021066
X021459Y011517
X020672
X021066Y010729
X021853
X02264
X020278
X019491
X018703
X017916
X017129
X016341
X016735Y011517
X017522
X017129Y012304
X016341
X016735Y013091
X017522
X017641Y013629
X018118
X018595
X019072
X019549
X020027
X020504
X020981
X021458
X02251Y013715
X019885Y013091
X019097
X01831
X018703Y012304
X019491
X019097Y011517
X01516
X014373
X014607Y011891
X014766Y012304
Y010729
X01461Y010406
X013979Y010729
X013158Y012165
X012707Y012641
X012274Y012646
X011809
X01114Y012371
X010477Y011721
Y011481
Y011241
Y011001
X010237
X009997
X009235
X008995
Y011241
Y011481
Y011721
Y011961
X009235
Y012201
X008861Y012461
X008388
X007916
X007443
X007207Y012934
X00768
X008152
X008625
X009463Y013017
X00974
X009897Y012707
X009907Y011884
X010251
X008625Y011989
X008152
X007672Y011747
X00734Y01137
X007443Y013406
X007916
X012798Y013091
X013585
X015948
X015463Y01363
X006971Y013406
X006499
X006026
X00579Y013879
Y015296
X006262
X006735
X006026Y015769
X00579Y016241
Y017186
X006262
X006735
X005711Y017816
X005318
X005514Y01821
X005318Y018603
X005711
X005908Y018997
X006302
X006696
X007089
X005514
X005554Y02002
X006026
X006499
X006262Y020493
X00579
X005268Y020386
Y020626
X005294Y021
Y022
Y0225
X005317Y023328
X005294Y024
Y0245
Y025
X006026Y024745
X006499
X006971
X006735Y024272
X006262
X006026Y0238
X006262Y023328
X006026Y022855
X006262Y022383
X006026Y02191
X006262Y021438
X006971Y02191
Y022855
Y0238
X006735Y026162
X006971Y026635
X006499
X006291Y028004
X006735Y028052
X006971Y028524
X00651Y029161
X005294Y026
X005081Y02002
X004609
X007207Y020493
X00768
X008152
X008625
X009097
X009569
X010042
X010278Y02002
X010751
X011695
X01198Y020278
X012208Y020149
X012436Y019978
X012718
X013
X013283
X013565
Y021473
X013283
X013
X012718
X012436
X012216Y021354
X011987Y021225
X012133Y022374
X012557
X013558Y022552
X014798Y022651
X014796Y021905
X014853Y023519
X014576Y02352
X014225Y023516
X013956
X013958Y024204
X014229
X014552Y024189
X01451Y025143
X014229Y024886
X013958
X015047Y02508
X015039Y025535
X015063Y025871
X015332
X015325Y026142
X015056
X014787
X014794Y025871
X01452Y025808
X014226Y02678
X012932Y026987
X011995Y026991
X012001Y026502
X011987Y025
X012301Y024798
Y023688
X010514Y023328
X010278Y022855
X009806
X009569Y023328
X00916Y023091
X008438
X008077Y02273
X008799
Y023452
X008077
X008438Y023814
X007715
Y023091
X007207Y023328
Y024272
X008077Y024175
X008799
X00916Y023814
X009569Y024272
X009806Y024745
X010278
X010514Y024272
Y022383
X010751Y020965
X009806Y02002
X009333
X008861
X008388
X007916
X007877Y018997
X00827
X008664
X009058
X009255Y018603
X009648
X009451Y01821
X010042Y018131
X010278Y017658
X009806
X009569Y017186
X010042
X010514
X010751Y016713
X011223
X011695
X012168
X011932Y016241
X011459
X010987
X010514
X010042
X009569
X009806Y016713
X010278
Y015769
X010751
X011223
X011695
X012168
X011937Y014403
X011185Y01447
X010829Y013879
X009255
X009097Y015296
X009569
X010042
X009806Y015769
X009333
Y016713
X009097Y017186
X008625
X008152
X00768
X007207
X007443Y016713
X007916
X00768Y016241
X007916Y015769
X007443
X007207Y015296
X00768
X008152
X008625
X00768Y013879
X00768Y017816
X007286
X007483Y01821
X007286Y018603
X00768
X007483Y018997
X007207Y022383
X007916Y024745
X008388
X007207Y026162
Y028052
Y028997
X009791Y028004
X010151Y027934
X010391
X0104Y026832
X01016
X011661Y028372
Y028612
Y028852
X011901Y028372
X012141
X013141
X013381
X013621
Y028612
Y028852
X019242Y028215
X018661Y026757
X018515Y025505
X018272
X017965Y025489
X017723
X0172Y02531
X01685Y025521
X016607Y02423
X016606Y02381
X016435Y023607
X017304Y023403
Y023053
X01749Y022307
X017732
X017685Y022016
X017443
Y021774
X0172
X017757Y021116
X018184Y021117
X018607Y021114
X019013Y021465
X01942Y022029
X020452Y021993
X02028Y021334
X020289Y021033
X020631Y021037
X020555Y023126
X02025Y023579
X020465Y023914
X019686Y023986
X018968Y023534
Y023141
Y022747
X018574
Y023141
Y023534
X018181
Y023141
Y022747
X016355Y022534
Y022292
X016327Y020785
X017517Y020443
X018428Y020495
X018577Y019233
Y018913
Y018593
Y018273
Y017953
X018897
X019217
X019537
Y018273
Y018593
Y018913
Y019233
X01831Y019076
Y018131
X017837
X018073Y017658
X018061Y015753
X017584
X01729Y01573
Y016017
Y016304
X017004
X016319Y016416
Y016837
X015888
Y016416
X015458
Y016837
Y017257
Y017677
Y018098
X015027Y018308
Y017887
Y017467
Y017047
X014597Y016837
X014166Y017047
X013736Y016837
X013305Y017047
X013979Y013879
X01682Y01377
X017129Y013879
X017004Y015443
X01729
X018538Y015753
X019015
X019493
X01997
X020447
X020924
X020873Y015219
X02116
X021447
X021734
Y014953
Y014666
X022021
X02251Y014289
Y014002
X020504Y014106
X020587Y014646
Y014933
X020199Y018131
X016828Y019165
Y019645
X017128Y019548
X015618Y019645
Y019165
X01773Y024769
X017972
X018267Y024793
X018509
X022333Y024071
Y023641
X02164Y022808
X021339
X022773Y022228
X023188Y022235
X023577Y022042
X023927Y022033
X024157Y021933
X02418Y021654
X023727Y021283
X023731Y021048
X023735Y020742
X023739Y020452
X023973Y020455
X024208Y020459
X024853Y020342
X024836Y020652
Y020873
X025666Y020816
X025985Y021196
X026384Y021164
X026371Y020745
X027547Y020763
Y019893
X028027Y019894
X028368Y019891
X028877Y019893
X028926Y020762
X029515Y020822
X0305Y020821
X031087Y020833
X031791Y02074
X031696Y021753
X030908
X030121
X029333
X028546
X027759
X026971
X026184
X026577Y02254
X027365
X028152
X02894
X029727
X030514
X030908Y023328
X030121
X029333
X028546
X027759
X026971
X026184
X025198Y023238
X025189Y023631
X025107Y023953
Y024283
X025127Y02461
X025077Y024923
X025253Y025164
X025426Y02571
X025107Y025921
Y026251
X025104Y026577
X025105Y02737
X025106Y027757
X02579Y027265
X026577
X027365
X028152
X02894
X029727
X030514
X030517Y028223
X030827Y028236
X031137Y028233
X031807Y028213
X032068Y028219
X032537Y027473
X032502Y027184
X032547Y026853
X032551Y026575
X032556Y026194
X03256Y025797
X032253Y025787
X032264Y025411
X032356Y025132
X032528Y02489
X032524Y024569
X032409Y024291
X032217Y024023
X032563Y023823
Y022642
Y022248
X032324Y022444
X032562Y021657
X033867Y021801
X034136Y0218
X033867Y022108
Y022417
X033558
X033953Y023573
X033758Y023768
X033867Y024248
X033558
X033867Y024557
Y024864
Y025173
X033558
X034348Y025973
Y026369
X034348Y026762
X034276Y02717
X034336Y027511
X03407
X033803
X033485Y02738
X033444Y027053
X033428Y027847
Y028165
X033762Y028615
X034143Y02861
X037738Y028325
Y0279
X038343Y027621
X038329Y028597
X037338Y027008
X036936Y027123
X037993Y025547
X037934Y024454
X038323Y024221
X038277Y023876
Y023643
Y023409
X038338Y023027
X0377Y022572
X0373Y022573
X037957Y022293
X037747Y020873
X037447Y020853
X038187Y020873
Y020571
X037999Y019476
X037981Y019021
X038221Y018427
X036772Y020535
X036619Y020945
X036489Y021348
X036549Y023001
X0373Y023759
X0377Y023758
X037051Y024455
X030908Y024902
X030121
X029333
X028546
X027759
X026971
X026184
X026577Y02569
X027365
X028152
X02894
X029727
X030514
X030908Y026477
X030121
X029333
X028546
X027759
X026971
X026184
X026185Y028223
X026719Y028066
X026995
X027177Y028253
X027547Y028193
X027887Y028063
X028206Y028081
X02847Y028236
X028798Y028247
X029159Y028199
X029518
X029919Y028268
X030187Y028123
X030113Y029149
X030507
X029717Y029153
X029277Y029123
X029097Y029323
X028117Y029343
X027747Y029273
X026427Y029129
X026167Y029163
X025677Y029123
X025374Y029122
X023318Y028109
X023322Y027431
X02379Y027168
Y026784
X024091Y026612
X024175Y026977
X02372Y026272
X023708Y025937
X023332Y025634
X023336Y02497
X023828Y024826
X024148Y024641
X02372Y024303
X023708Y023968
X024056Y022744
X025153Y022873
X025107Y022053
X025085Y021573
X025148Y019901
X025796Y019501
X025794Y019251
X026724Y019353
X026729Y019788
X02673Y018881
X027626Y019035
Y0193
X028373Y018719
X028695Y01873
X029335Y018975
X029739Y018979
X030049Y019575
X030597Y019863
X030857Y019843
X031117Y019533
X031567Y019453
X031856Y019451
X031525Y018864
Y018563
Y018263
X032317Y018233
Y017932
Y017632
X032617
X032918
X03339Y018803
X033392Y01904
X033246Y019724
X033421Y019917
X033664Y015454
X034059Y015275
X034081Y014789
X034066Y014334
X034441Y013967
X032877Y013879
X032089
X031302
X030514
X029727
X030121Y014666
X030908
X031696
X032483
X032877Y015454
X034441Y015694
X036628Y015311
X036663Y014856
X036635Y01437
X028167Y014748
X027891Y014471
X027614Y014195
X027337Y013918
X026346Y014162
X024501Y014189
Y014609
X024291Y014819
Y014399
X024081Y014189
Y014609
X02366
X02336Y014679
Y014392
X023073
Y014679
X023064Y01555
Y015825
X023339
Y01555
X024291Y01566
X024501Y01587
Y01545
X024291Y01524
X024501Y015029
X02387Y014399
X02366Y014189
X023426Y016565
X023152
X026369Y016587
X026377Y016252
X026644Y015844
X026911
X027179
X028163Y016381
X027934Y017041
X027662
X027415Y01729
X026823Y017546
X025998Y017126
X0299Y017326
X029891Y017627
X030242Y01733
X030146Y018248
X030514Y024115
X029727
X02894
X028152
X027365
X026577
X023014Y02127
X023018Y021036
X038492Y021197
Y021591
X038886
Y021985
X038492
X039279
Y021591
Y021197
X038886
X03959Y020878
X039828
Y020601
X03959
X039637Y019523
X040243Y019593
X040497
X040751
X041005
X040243Y019847
Y020101
X040162Y019045
X039918Y018455
X039087Y018412
X039092Y019273
X038717Y019493
X039012Y022709
X039897Y022873
X040226
X039897Y022543
X039962Y023356
X039961Y023771
X041167Y023183
X041487Y023123
X041808Y023393
X042077
X042429Y023359
X042706Y023357
X043471Y02334
X043664Y023676
X043481Y024149
X043507Y024523
X043664Y025002
X043481Y025475
X043185Y02571
X042916
X042647
X04264Y02598
X042909
X043177
X043503Y025995
X043011Y026437
X042562Y026501
Y026782
X043011Y026975
X043279Y027244
X043548Y027513
X044086
Y026975
Y026437
X043817Y027244
X043808Y027855
X044346
Y028393
X045003Y028052
X045475
X045947
X04642
X04327Y027855
X043002Y028124
Y028661
Y029199
X043539
X042315Y028572
Y028291
X041904Y027851
X041622
X041798Y027268
X042079
X041457Y026797
Y026515
X041329Y025544
X042373Y025646
X042362Y024982
X042625Y024739
X042887Y024883
X042892Y025374
X042082Y024725
X041811
Y024043
X042082
X042405Y024028
X043146Y023979
X043407Y022748
Y022472
X043664Y022317
X04354Y02202
X043559Y021645
X043396Y020836
X04383
Y020402
X043613Y020619
X043396Y020402
X043422Y020054
Y0198
Y019546
X043168
X042914
X042074Y021318
X042109Y021906
X042163Y022196
X042548Y022496
X041492Y022
X04124Y021322
X040337Y021493
X044525Y022312
Y023671
Y024998
X043011Y027513
X040864Y027768
X040277Y027585
X039931Y027448
X040229Y027133
X040652Y027007
X039157Y027585
X039517Y028063
X039616Y028707
Y029089
X039234
X039998
X038607Y028593
X044072Y015275
X044066Y01478
X044079Y014334
X046266Y013951
X046647Y01437
X046626Y014856
X04664Y015311
X046266Y015678
X061512Y015812
X06205Y015808
X062516Y015823
X062978Y015783
X063264Y015794
X063681Y016107
X063771Y016839
X063428Y016847
X062959Y016901
X062534Y016891
X062043Y016959
Y016413
X061487Y016472
X061182Y017613
X06118Y018084
X061587Y017843
Y019949
X06204Y020402
X063319Y021043
X063338Y021394
X06301Y021965
X063315Y02254
X063389Y023603
X063195Y024582
X063678Y024543
X063958Y025124
X064743Y02516
X064802Y025647
X065529Y025249
X066485Y025249
X066491Y025574
X066495Y024852
X066482Y024514
X066479Y024142
X066089
X065772Y024153
X065351Y02372
X065319Y023152
X064431Y023061
X066732Y023038
X066639Y022755
X066809Y023682
X066945Y024868
X068002Y024852
X068262
X068757Y024903
X069035
X068887Y023691
X068577Y023691
X068861Y023394
X069327Y023544
X069335Y022954
X069026Y022883
X068887Y022598
X068581
X06725Y021365
Y020913
X067099Y020402
X066954Y01916
X066859Y018792
X06774Y018406
X068325Y018373
X068006Y01778
X068021Y017515
X067698Y017541
Y017221
X068003Y017113
X068644Y017141
X06915Y017216
X068472Y016604
X068285Y016255
X068046Y016451
X068247Y015641
X068345Y015333
X068286Y015083
X068546Y015133
X068683Y01564
X069292Y015662
X068003Y014263
X067748Y014233
X066377Y014386
X066001Y014295
X065835Y014528
X065458Y014978
X065131Y015007
X065019Y015304
X064953Y015677
X064432Y01598
X064122Y016843
X065048Y016808
X065055Y018788
X065795Y01922
X064146Y020402
X060222Y020626
X061403Y022047
X062274Y023367
X062182Y023854
X062979Y024957
X063308Y02602
X06365Y026062
X063646Y026318
X064307Y026626
Y026935
Y027244
Y027553
X064708
X065053Y027556
X066176Y02749
X066535Y027505
Y02685
X066164
X065416Y026411
X067506Y025781
X068298Y026316
X068864Y026339
X069184
X069441
X069516Y027351
X069256
X068857Y028273
X068873Y028921
X069584
X069205Y020402
X064727Y014697
X064962Y014267
X063995Y014279
X063955Y013847
X063238Y014313
X061167Y014263
X061165Y014735
X061587Y01489
X060919Y025509
X062098Y02598
X069705Y02634
X069979Y026339
X070377
X070123Y025223
X070112Y024852
X070974Y025019
X071917Y025474
X072137Y025675
X071976Y025884
X07235
Y02547
X073167Y024347
X073422Y024374
X07332Y02413
X073059Y023861
X07185Y023863
X071868Y023251
X072125Y022589
X072112Y022212
X072126Y021098
X071903Y020201
X073355Y020496
X074851Y020542
X075187Y020563
X075121Y020983
X076431Y02102
X07626Y021736
X076191Y020227
X076546Y019475
X076271Y019074
X07664Y018478
X076748Y018131
X07705Y018143
X077402Y018142
X07811Y018353
X078191Y019193
X078085Y020224
X078134Y020599
X078085Y021729
X07813Y022102
X075065Y024107
X07478Y024149
X074421Y024139
X074214Y024309
X074136Y024004
X074302Y025107
X074734Y025401
X075411Y026634
X07072Y027401
X070486Y027655
X070201Y027585
X069687Y02758
X069666Y02712
X070596Y027932
X071118Y027869
X070625Y023564
X070333Y022956
X06974Y022939
X069658Y019949
X070106Y019802
X069658Y017843
X070478Y017543
X071166Y017254
X072044Y017073
X073267Y016906
X07379Y015727
X074289Y015212
X073679Y014824
X073092Y014076
X072576Y014081
X072493Y013818
X075436Y014397
X075235Y015331
X07585Y015947
X075635Y016413
X075823Y016602
X076174Y017075
X076418Y016869
X07643Y016259
X077297Y016141
X077566Y016069
X077835Y015997
X077494Y0158
X077638Y016338
X077614Y017103
X078726Y01733
X078934Y01704
X07845Y015916
X078367Y015414
X078091Y015288
X077771Y015104
X077056Y014988
X076577Y014642
X076211Y01375
X077665Y01387
X077974Y014038
X07882Y014435
X076756Y017785
X075285Y019536
X074244Y018591
X072814Y018523
X07283Y018792
X070104Y016745
X070632Y016174
X070623Y015778
X069658Y01489
X086755Y014735
X086757Y014263
X087178Y01489
X087102Y015812
X08764Y015808
X088106Y015823
X088568Y015783
X088855Y015794
X089271Y016107
X089362Y016839
X089019Y016847
X08855Y016901
X088125Y016891
X087633Y016959
Y016414
X087077Y016472
X086772Y017613
X08677Y018085
X087178Y017843
Y019949
X08763Y020402
X088909Y021043
X088929Y021394
X0886Y021965
X088905Y02254
X08898Y023603
X088786Y024583
X089269Y024543
X089549Y025124
X090334Y02516
X090393Y025647
X091119Y025249
X092075Y025249
X092082Y025574
X092086Y024852
X092072Y024514
X09207Y024142
X09168
X091363Y024153
X090942Y02372
X09091Y023152
X090022Y023061
X092323Y023038
X09223Y022755
X092399Y023683
X092535Y024868
X093593Y024852
X093853
X094347Y024903
X094625
X095702Y024852
X095713Y025223
X096565Y025019
X097507Y025474
X097727Y025675
X097567Y025885
X097941
Y02547
X098757Y024347
X099013Y024374
X09891Y02413
X09865Y023861
X09744Y023863
X097459Y023251
X097716Y022589
X097702Y022212
X097717Y021098
X097494Y020201
X098946Y020496
X100442Y020542
X100777Y020563
X100712Y020983
X100656Y024107
X10037Y024149
X100012Y024139
X099804Y024309
X099726Y024004
X099892Y025107
X100325Y025401
X095967Y026339
X095569
X095296Y02634
X095032Y026339
X094774
X094454
X093888Y026316
X093096Y025781
X092125Y02685
X091755
X091766Y027491
X092125Y027505
X090643Y027556
X090298Y027553
X089897
Y027244
Y026935
Y026626
X089236Y026318
X08924Y026062
X088898Y02602
X087688Y025981
X08651Y025509
X088569Y024958
X087773Y023854
X087865Y023368
X086994Y022047
X085812Y020626
X089737Y020402
X090645Y018789
X091386Y01922
X092545Y01916
X09245Y018792
X093331Y018406
X093916Y018373
X093596Y01778
X093611Y017515
X093289Y017541
Y017221
X093593Y017113
X094235Y017141
X094741Y017216
X095249Y017843
X096068Y017543
X096756Y017254
X097635Y017073
X098857Y016907
X099381Y015728
X099879Y015212
X09927Y014824
X098682Y014076
X098166Y014081
X098084Y013818
X096214Y015778
X096223Y016174
X095695Y016745
X094063Y016604
X093875Y016255
X093637Y016451
X093838Y015641
X093935Y015333
X093877Y015083
X094137Y015133
X094274Y01564
X094882Y015662
X095249Y01489
X093593Y014263
X093338Y014233
X091968Y014386
X091591Y014296
X091426Y014529
X091049Y014978
X090721Y015007
X09061Y015304
X090543Y015677
X090023Y01598
X089713Y016843
X090638Y016808
X090317Y014697
X090553Y014267
X089585Y014279
X089546Y013847
X088828Y014313
X092689Y020402
X09284Y020913
Y021365
X094172Y022598
X094477
X094616Y022883
X094925Y022954
X09533Y022939
X095924Y022956
X096215Y023565
X094918Y023544
X094477Y023692
X094168Y023691
X094451Y023394
X094796Y020402
X095249Y019949
X095696Y019802
X09842Y018792
X098405Y018523
X099835Y018591
X100825Y015331
X09631Y027401
X096076Y027655
X095791Y027585
X095278Y02758
X095107Y027351
X094846
X095257Y02712
X096187Y027932
X096708Y027869
X095174Y028921
X094464
X094447Y028274
X091007Y026411
X101002Y026635
X10185Y021737
X102022Y02102
X101782Y020227
X102136Y019475
X101862Y019074
X10223Y018478
X102338Y018131
X10264Y018143
X102993Y018142
X103701Y018353
X103782Y019193
X103675Y020224
X103725Y020599
X103675Y021729
X103721Y022102
X104316Y01733
X104524Y01704
X103205Y017103
X103229Y016338
X103157Y016069
X103425Y015997
X103085Y0158
X102888Y016141
X10202Y016259
X102008Y016869
X101764Y017075
X101414Y016603
X101226Y016413
X101441Y015947
X101027Y014397
X102168Y014642
X102647Y014988
X103362Y015104
X103681Y015288
X103958Y015414
X10404Y015916
X104411Y014436
X103565Y014038
X103255Y01387
X101802Y01375
X102346Y017785
X100875Y019536
X10107Y043774
X10139Y043951
X101398Y044498
X101385Y04494
X102469Y044908
X102274Y044712
X102087Y044518
X102388Y044331
Y044055
X102028Y043858
X100709Y044567
X096383Y044209
X095515Y04446
X094255
X093649Y044055
X094257Y042795
Y041684
X095517
Y042795
Y040072
Y038961
X094257
Y040072
X090884Y044455
X089033Y04458
X088346Y044528
X088364Y04494
X087687Y044695
X087361Y044528
Y044251
X087795Y04386
X088072
X088356Y044016
X088709Y043797
X078726Y043753
X078934Y043463
X077614Y043526
X077638Y042761
X077566Y042492
X077835Y04242
X077494Y042223
X077297Y042564
X07643Y042681
X076418Y043292
X076174Y043497
X075823Y043025
X075635Y042835
X07585Y042369
X075235Y041754
X074289Y041634
X073679Y041246
X07379Y04215
X073267Y043329
X072044Y043495
X071166Y043676
X070478Y043966
X069658Y044265
X070104Y043168
X070632Y042596
X070623Y042201
X069658Y041313
Y039206
X071382Y038592
X072044Y03909
X072789Y039261
X072493Y040241
X072576Y040504
X073092Y040498
X074672Y039755
X075835Y039989
X076211Y040173
X076577Y041064
X077056Y04141
X077771Y041526
X078091Y04171
X078367Y041837
X07845Y042339
X07882Y040858
X077974Y04046
X077665Y040293
X07692Y039409
X075238Y038724
X075285Y037998
X074941Y037815
X073799Y038301
X073619Y036623
X073192Y036395
X071197Y035151
X075436Y04082
X076756Y044207
X076748Y044554
X07705Y044565
X077402Y044564
X07811Y044776
X07664Y044901
X072814Y044945
X068325Y044795
X06774Y044829
X068006Y044203
X068021Y043938
X067698Y043964
Y043644
X068003Y043536
X068644Y043563
X06915Y043639
X068472Y043026
X068285Y042678
X068046Y042874
X068247Y042064
X068345Y041755
X068286Y041505
X068546Y041555
X068683Y042062
X069292Y042084
X068003Y040686
X067748Y040656
X067433Y03999
X067039Y039984
X066604Y039832
X066235
X066377Y040809
X066001Y040718
X065835Y040951
X065458Y041401
X065131Y041429
X065019Y041727
X064953Y042099
X064432Y042403
X063681Y04253
X063264Y042216
X062978Y042206
X062516Y042245
X06205Y042231
X061512Y042235
X061487Y042895
X062043Y042836
Y043381
X062534Y043313
X062959Y043323
X063428Y04327
X063771Y043261
X064122Y043266
X065048Y043231
X064727Y04112
X064962Y04069
X063995Y040701
X063955Y040269
X06439Y039949
X064401Y039275
X064146Y038754
X064622Y038346
X063617Y038211
X063286Y037633
X06204Y038754
X061587Y039206
X061167Y040686
X061165Y041158
X061587Y041313
X063238Y040736
X062778Y040129
X061587Y044265
X061182Y044035
X06118Y044507
X067099Y038754
X067189Y037728
X067697Y037463
X068151Y037219
X06784Y035164
X06765Y035328
X065345Y036745
X069205Y038754
X04654Y03713
X046271
X045921Y037126
X045643Y037128
X045944Y036457
X046267Y036442
X046538
Y03576
X046267
X045987Y035503
X04545Y035567
X045457Y035111
X045433Y034775
X045702
X04571Y034505
X045441
X045172
X045165Y034775
X045331Y034138
X0456Y034144
X045943Y033772
X045013Y033752
Y032612
X045357Y032243
X045626Y032249
X045943Y032632
X045976Y034839
X043408Y038683
X042346Y038333
X042326Y037664
X041803Y038143
X04171Y03888
X041316
Y039274
X04171
X041513Y039077
X041448Y040076
X041013Y039983
X040581Y039452
X040577Y038673
X04092Y038487
X039733Y038445
X039733Y038871
X03975Y039288
X039281Y040165
X039283Y040513
X039016Y041926
Y042223
Y042519
Y042816
X038758Y042643
X039013Y043353
X03997Y043223
Y042943
Y042663
X04028Y042993
X04056Y042984
X04085Y042574
X041433Y042993
X040836Y043576
Y043969
X040285
Y043576
X040007Y044554
X040868Y044802
X041886Y044811
Y044486
X042212
X04275Y044494
X043249Y044495
X043743Y044523
X044269Y044608
X044543
Y044293
X044471Y043935
X045413
X044857Y043203
X04449Y042909
X044451Y042405
X045083Y042643
X04636Y042539
X04642Y041503
X04634Y04115
X045734Y041351
X04519Y041153
Y040893
X044456Y040695
X043861Y040833
Y041183
X043209Y041201
X04317Y040061
X043819Y04021
X04258Y040323
X041813Y040373
X042159Y039896
X042373Y039523
X041843Y041613
X042399Y042693
X042945Y042649
X043293Y042651
X043497Y043447
X04295Y043456
X042343Y043273
X039389Y0382
X03902Y038188
X039717Y030163
X039616Y029471
X032944Y030032
X03252Y030031
X031933
X031178Y029623
X030843Y029635
X029297Y029523
X028201Y02974
X027737Y029593
X02763Y029899
X028045Y030802
X028437Y030795
X028429Y032043
Y032341
Y03264
X029187Y032786
X029595Y032787
X030015Y032786
X030423Y032787
X030831Y032786
X031239
X031696Y032814
X031966
X032289Y032799
X032313Y03213
X032591Y032129
X031962Y032126
Y031857
X031693
Y032126
X031495Y033794
X032247Y033753
X032784Y033689
X032776Y034145
X0328Y034481
X033069
X033062Y034752
X032793
X032524
X032531Y034481
X032257Y034417
X031717Y034733
X031552Y034946
Y035222
X031237Y035323
X031205Y034828
Y034552
X030257Y03467
Y035104
X029824
Y03467
X028877Y034552
Y034828
X02853Y034946
Y035222
X028849Y035334
X029067Y035673
X029339
X030073Y036109
X030269Y036304
X030142Y036605
X029947Y0368
X029498Y036792
X029227
X028955
X028262Y036219
Y035947
X02821Y035624
X028188Y034397
X027827
X02855
X029252Y034144
X0292Y033768
X028555Y033435
X028194
X027832
X0269Y03378
X026976Y03403
X026699
X026528Y03278
X02612
X025713Y032781
X025305Y03278
X024734Y033566
X024613Y033781
X024859
X024804Y034144
X024451Y034552
Y034828
X023806Y034805
X023535Y03458
Y034288
X0229Y034726
X023095Y034948
Y035225
X022884Y035379
X024347Y035673
X024618
X02489
X025376Y035104
X025809
Y03467
X025376
X025654Y036112
X02593Y036102
X026294Y035673
X026566
X026838
X027099Y036604
Y036876
X027477Y037347
X027754
X02763Y038143
X028173Y038333
X028408Y037642
X029235Y038683
X028996Y040061
X029646Y04021
X029688Y040833
Y041183
X029036Y041201
X028406Y040323
X02764Y040373
X027274Y040076
X02684Y039983
X026407Y039452
Y038673
X026746Y038487
X027143Y03888
Y039274
X027537
Y03888
X02734Y039077
X0282Y039523
X027986Y039896
X02767Y041613
X028226Y042693
X028772Y042649
X02912Y042651
X029324Y043447
X028777Y043456
X02817Y043273
X02726Y042993
X026387Y042984
X026107Y042993
X025797Y042943
Y043223
Y042663
X026677Y042574
X026662Y043576
Y043969
X026111
Y043576
X025834Y044554
X026695Y044802
X027714Y04481
Y044485
X028039
X028577Y044494
X029076Y044495
X02957Y044523
X030095Y044608
X03037
Y044293
X030297Y043935
X03124
X030687Y043189
X030317Y042909
X030277Y042405
X03091Y042643
X032187Y042539
X032883Y042663
Y042943
Y043223
X033193Y042993
X033473Y042984
X033763Y042574
X034344Y042996
X033749Y043576
Y043969
X033198
Y043576
X032954Y044557
X03367Y044596
X034801Y044485
X035126
X035074Y044083
X035313Y043455
X035863Y043456
X03641Y043447
X036472Y042979
X036206Y042651
X035858Y042649
X035313Y042693
X035264Y04237
X035621Y041651
X035723Y040981
X035356Y041074
X035353Y040323
X035692Y040318
X035057Y039989
X036185Y039429
X036437Y038878
X03639Y038528
X03711Y038188
X037477Y038204
X03829Y038528
X038337Y038878
X037965Y039462
X037416Y040165
Y040515
X038214Y040979
X036348
X036859Y042105
X037193Y042669
X036676Y044519
X036163Y044495
X035663Y044494
X034801Y04481
X034373Y041845
X032609Y041287
Y040955
X032277
Y041287
X03225Y041585
X031561Y041351
X031458Y040758
Y040426
X031016Y040893
Y041153
X030283Y040695
X031576Y03952
X031584Y039064
X031572Y038798
X031838
X032103Y038792
X032101Y03855
X032886Y038721
X031307Y038798
X032097Y039743
X033066Y040431
X031819Y036219
Y035947
X031864Y035665
X031015Y035673
X030743
X030855Y036792
X031127
X030584
X026193Y036821
X025804Y037245
Y037522
X025559Y038445
X02556Y038871
X025577Y039288
X025108Y040165
X02511Y040513
X024041Y040979
X023242Y040515
Y040165
X023792Y039462
X024164Y038878
X024116Y038528
X024847Y038188
X025216Y0382
X024992Y036821
X024085Y036876
Y036604
X023303Y038204
X022937Y038188
X02302Y042669
X024584Y042643
X024843Y042519
Y042223
Y041926
Y042816
X02484Y043353
X024143Y033595
X026944Y03278
X027421Y032366
X027439Y03173
X027165
X027713
X026369Y029974
X026037Y029963
Y029696
Y029429
X026664Y029382
X024988Y029424
X024993Y029805
X033202Y032682
X034818Y032562
X036526Y034513
X022216Y038528
X022264Y038878
X021524Y039561
X021519Y040318
X02118Y040323
X021182Y041074
X021549Y040981
X022175Y040979
X021448Y041651
X021091Y04237
X02114Y042693
X021685Y042649
X022033Y042651
X022299Y042979
X022237Y043447
X02169Y043456
X02114Y043455
X020901Y044083
X020952Y044486
X020626
Y044811
X02149Y044494
X021989Y044495
X022503Y044519
X022686Y042105
X0202Y041845
X020171Y042996
X0193Y042984
X01902Y042993
X01871Y042943
Y043223
Y042663
X018014Y042539
X018067Y041584
X018104Y041291
Y04096
X018435
Y041291
X017387Y041351
X017285Y040762
Y04043
X016843Y040893
Y041153
X016109Y040695
X015514Y040833
Y041183
X014863Y041201
X014823Y040061
X015473Y04021
X014233Y040323
X013467Y040373
X013101Y040076
X012667Y039983
X012234Y039452
Y038673
X012573Y038487
X01297Y03888
Y039274
X013364
Y03888
X013167Y039077
X013457Y038143
X013999Y038333
X01398Y037664
X013903Y036473
X014253
X013177Y036308
X013182Y036055
X012149Y036301
X0119Y036475
Y036121
X011472Y036099
X011161Y036011
Y036251
Y035771
X011117Y035493
Y035253
Y035013
X011357Y034433
X01143Y033915
X011425Y033547
X011393Y032662
X011127Y03163
X010887
X010647
X010503Y031336
X011388Y031346
Y031107
Y030866
X010847Y030073
X010677Y029909
X009259Y029839
X009016Y029925
Y029685
Y029445
Y030165
Y030405
Y030645
Y030885
X009375Y030498
X009258Y031813
Y032253
X009633Y032738
X009982Y033151
X009947Y033491
X009949Y033794
X010248
X010367Y034063
X009949Y034351
X009947Y034673
X009949Y034975
X010248
X008087Y033733
X007617Y032972
X007267
X007207Y031832
X008395Y032693
X007795Y036252
X008043Y038528
X008091Y038878
X007932Y039377
X007346Y040318
X007376Y040981
X008002Y040979
X007275Y041651
X007512Y042649
X00786Y042651
X008126Y042979
X008064Y043447
X007517Y043456
X007317Y044494
X007816Y044495
X00833Y044519
X008847Y042669
X008512Y042105
X009069Y040515
Y040165
X009618Y039462
X009991Y038878
X009943Y038528
X010674Y038188
X011043Y0382
X011386Y038445
X011387Y038871
X011404Y039288
X010935Y040165
X010937Y040513
X009868Y040979
X01067Y041926
Y042223
Y042519
Y042816
X010411Y042643
X010667Y043353
X011624Y043223
Y042943
Y042663
X011934Y042993
X012214Y042984
X012504Y042574
X013087Y042993
X012489Y043576
Y043969
X011938
Y043576
X01166Y044554
X012524Y044804
X01354Y044811
Y044486
X013865
X014404Y044494
X014903Y044495
X015397Y044523
X015922Y044608
X016197
Y044293
X016124Y043935
X017067
X016513Y043189
X016144Y042909
X016104Y042405
X016737Y042643
X014946Y042651
X014599Y042649
X014053Y042693
X013997Y043273
X014604Y043456
X01515Y043447
X013497Y041613
X013813Y039896
X014027Y039523
X015062Y038683
X017134Y038803
X017399
X017665
X01793Y038796
X017928Y038554
X018726Y038721
X017411Y039068
X017403Y039524
X017924Y039747
X018893Y040431
X020077Y039983
X01959Y042574
X019576Y043576
Y043969
X019025
Y043576
X018781Y044557
X019497Y044596
X017786Y034977
Y034619
Y034226
Y033827
X016307Y034658
Y034918
X015721Y035038
X015354Y035962
X014362Y035085
X014923Y033443
X015793
X016068Y0331
X016307Y032753
Y032493
X016494Y03124
Y030969
X016479Y030646
X01581Y030622
X015808Y030345
X015806Y030973
Y031242
X017176Y03124
Y030969
X017433Y030689
X017369Y030151
X017825Y030159
X018161Y030135
Y030404
X018432Y030411
Y030143
Y029874
X018161Y029866
X018097Y030678
X014758Y030473
X014887Y029734
X01453Y029797
X01401Y029588
X013756Y029582
X013788Y030329
X013907Y030583
X014005Y031544
Y031778
X014398
Y031544
X013525Y03153
X01306Y031697
X012784
X012437Y031623
X012789Y03028
X012719Y029549
X012483
X00913Y038204
X008764Y038188
X00651Y037564
X006026Y037028
X005554
X005081
X004609
X004373Y037501
Y036556
X004845
X005317
X00579
X005081Y036083
X004609
X00492Y035732
X004373Y035611
X005317Y034666
X00579
X006026Y034194
X005554
X005081
X005317Y033721
X00579
X006292Y033504
X006262Y032776
X006512Y032264
X004951Y033046
X004968Y03001
X006735Y029942
X006886Y029631
X006457Y034942
X006324Y03573
X005554Y038918
X005081
X004609
X004373Y039391
Y040335
X00472Y040431
X004609Y040808
Y041753
X004537Y042663
Y042943
Y043223
X004847Y042993
X005127Y042984
X005417Y042574
X00579Y04317
X005998Y042996
X005403Y043576
Y043969
X004851
Y043576
X004607Y044557
X004287Y044881
X005324Y044596
X006453Y044486
X006779
X006728Y044083
X006966Y043455
X006966Y042693
X006917Y04237
X007009Y041074
X007007Y040323
X005904Y039983
X006027Y041845
X006453Y044811
Y045136
X006485Y045786
X006085Y046212
X005662Y046211
X005788Y046982
Y047282
Y047583
X006088
Y047282
X005967Y048113
X006297Y048153
X006456Y047925
X006733
X005747Y047933
X004887Y047883
X004882Y048152
X004606
X004587Y047883
Y047583
X004887
X004587Y047282
X004287
Y046982
Y046682
Y046382
Y046082
Y045782
Y045481
Y045181
X004607Y045043
X005253Y045212
X005247Y045543
X004895Y046438
X004626Y046432
X004287Y047583
Y047883
Y048183
Y048483
Y048783
Y049083
X005107Y049014
X005017Y049323
X005277Y049673
X005557Y049683
X00581Y049688
X006161Y049673
X006437
X006827Y049693
X007097
X006693Y050353
X006749Y050691
Y050967
X006102Y050353
X00508Y050237
Y04996
X006102Y049014
X007604Y049052
Y049352
X007427Y049673
X007567Y050323
X007716Y048152
X007993
X008285Y04816
X008616Y048193
X008897
X009178
X00905Y047054
X008459Y04676
X008204Y046598
X007927
X008315Y045529
X008636Y045066
X008966Y045329
X009243
X009522Y045325
X009799
X011014Y045382
Y045659
X011417Y046044
X011713Y046432
X011982Y046438
X01275Y04621
X013173Y046212
X013573Y045785
X01354Y045136
X012305Y045209
X0123Y04554
X01166Y04504
X011585Y047073
X01133
X010247
X010277Y046723
X010369Y046406
X010789
X01086Y048192
X010579
X009999Y048754
Y049036
X012824Y049014
X012734Y049323
X012994Y049673
X013287Y049678
X013526Y049688
X013877Y049673
X014154
X014547Y049693
X014827
X015144Y049673
X01532Y049352
Y049052
X015433Y048152
X015709
X015927Y048336
X014449Y047925
X014173
X01401Y048149
X013684Y048113
X013457Y047933
X012599Y048152
X012322
X012173Y047889
X012797Y04996
Y050237
X013819Y050353
X014409
X014649Y050493
X014465Y050691
Y050967
X015284Y050323
X016322Y050382
Y050663
X016855Y049827
X017137
X017166Y051732
X016884
X016322Y052311
Y052592
X018389Y05269
Y052379
X018701
X020513Y050237
Y04996
X02071Y049673
X02099Y049683
X021243Y049688
X021594Y049673
X021871
X02226Y049693
X02253
X022368Y050482
X022126Y050353
X022182Y050691
Y050967
X021535Y050353
Y049014
X02054
X02045Y049323
X020315Y048152
X020039
X019765Y048156
X02118Y047933
X0214Y048113
X02173Y048153
X021889Y047925
X022166
X0221Y046598
X022377
X02223Y046349
X022488Y045529
X020658Y045786
X020626Y045136
X019426Y045212
X01942Y045543
X019835Y046211
X020258Y046212
X019068Y046438
X018799Y046432
X018504Y046044
X018017Y045583
X017843Y045066
X01878Y045043
X018672Y047073
X018417
X017334
X017364Y046723
X017455Y046406
X017876
X01625Y04614
X016304Y045084
X016609Y045325
X016885
X015722Y045066
X015402Y045529
X015139Y046347
X015014Y046598
X01529
X013819Y049014
X011024Y052379
X010712
Y05269
X010097Y052763
X009785
X009941Y052563
X009163Y04614
X023336
X023416Y045329
X02314
X023695Y045325
X023972
X025163Y045382
Y045659
X025591Y046044
X025886Y046432
X026155Y046438
X026923Y04621
X027346Y046212
X027746Y045785
X027714Y045135
X026479Y045209
X026473Y04554
X025833Y04504
X025758Y047073
X025503
X02442
X02445Y046723
X024542Y046406
X024963
X023223Y047054
X023149Y048152
X023426
X023646Y048299
X023037Y049053
Y049353
X02286Y049673
X023Y050323
X024018Y050299
Y05058
X024376Y051462
X024657
X025212Y051995
Y052276
X026305Y051462
X026586
X027141Y051995
Y052276
X025947Y05058
Y050299
X02648Y049744
X026762
X02823Y04996
Y050237
X028427Y049673
X02872Y049679
X028959Y049688
X029311Y049673
X029587
X02998Y049693
X03026
X030577Y049673
X030754Y049353
Y049053
X030866Y048152
X031142
X031424Y04815
X031507Y047073
X031537Y046723
X031628Y046406
X032049
X032972Y046432
X033242Y046438
X032677Y046044
X03219Y045583
X032016Y045066
X032953Y045043
X033599Y045212
X033593Y045543
X034009Y046211
X034432Y046212
X034832Y045786
X034801Y045135
X036982Y045066
X037313Y045329
X037589
X037869Y045325
X038145
X037509Y04614
X037367Y047153
X037322Y047925
X037599
X037163Y048153
X036833Y048113
X036613Y047933
X035749Y048163
X035472
X035206
X035974Y049014
X035883Y049323
X036143Y049673
X036423Y049683
X036676Y049688
X037027Y049673
X037304
X037693Y049693
X037963
X038293Y049673
X037797Y050503
X037615Y050691
Y050967
X037559Y050353
X036968
X035946Y050237
Y04996
X034859Y050432
Y050713
X034326Y049877
X034044
X034138Y051779
X03442
X034982Y052358
Y052639
X032792Y05269
Y052379
X03248
X030717Y050323
X030077Y050493
X029842Y050353
X029898Y050691
Y050967
X029252Y050353
Y049014
X028257
X028167Y049323
X028032Y048152
X027755
X027474
X02889Y047933
X029117Y048113
X029443Y048149
X029606Y047925
X029882
X029463Y046598
X029187
X029326Y046368
X029575Y045529
X029896Y045066
X030427Y045073
X030782Y045325
X031058
X030423Y04614
X03259Y047073
X032845
X036273Y046598
X03655
X036409Y046361
X036662Y045529
X036968Y049014
X024833Y049744
X024551
X022809Y045066
X039386Y045382
Y045659
X039764Y046044
X040059Y046432
X040328Y046438
X041096Y04621
X041519Y046212
X041879Y046389
X04221
X042542
X042873
Y046721
X04336Y046598
X043637
X043502Y046354
X043868Y046389
X044199
X044596Y04614
X044106Y045628
X043748Y045529
X043536Y045726
X043205
X042873
Y046058
X042542
X04221
X041919Y045785
X042542Y045726
X041886Y045136
X040652Y045209
X040646Y04554
X040006Y04504
X039931Y047073
X039677
X038593
X038623Y046723
X038715Y046406
X039136
X039144Y048149
X038859Y048152
X038582
X03847Y049052
Y049352
X038433Y050323
X040157Y052379
X040469
Y05269
X041281Y052763
X041593
X041437Y052563
X041182Y049086
Y048804
X040602Y048242
X040321
X041964Y048243
X042246
X042527
X042915Y048135
X043189Y048152
X043465
X044323Y047933
X04455Y048113
X044876Y048149
X045039Y047925
X045315
X04549Y048179
X046299Y048152
X046575
X046855
X046931Y047078
X046693
X04568Y047073
X04571Y046723
X045802Y046406
X046222
X046363Y045583
X046189Y045066
X045232Y045325
X044955
X044953Y045063
X044069Y045066
X044294Y047422
X044766
X044685Y049014
X044744Y049673
X04502
X045413Y049693
X045693
X04601Y049673
X046187Y049352
Y049052
X04615Y050323
X045276Y050353
X045332Y050691
Y050967
X045313Y05127
X044685Y050353
X044392Y049688
X044153Y049678
X04386Y049673
X043663Y04996
Y050237
X0436Y049323
X04369Y049014
X041932Y047422
X060222Y047049
X06204Y046824
X061587Y046372
X061403Y048469
X06301Y048387
X063315Y048962
X063389Y050025
X063195Y051005
X063678Y050966
X063958Y051547
X064743Y051582
X064802Y052069
X065529Y051671
X066485Y051672
X066491Y051997
X066495Y051275
X066482Y050937
X066479Y050564
X066089
X065772Y050575
X065351Y050142
X065319Y049575
X064431Y049483
X066732Y049461
X066639Y049177
X066809Y050105
X066945Y05129
X068002Y051275
X068262
X068757Y051326
X069035
X068887Y050114
X068577Y050114
X068861Y049817
X069327Y049967
X069335Y049377
X069026Y049305
X068887Y049021
X068581
X06725Y047787
Y047335
X067099Y046824
X066954Y045583
X066859Y045214
X065795Y045643
X065055Y045211
X064146Y046824
X063319Y047465
X063338Y047817
X062274Y04979
X062182Y050276
X062979Y05138
X063308Y052442
X06365Y052485
X063646Y05274
X064307Y053048
Y053357
Y053667
Y053976
X064708
X065053Y053979
X066176Y053913
X066535Y053927
Y053272
X066164
X065416Y052833
X067506Y052204
X068298Y052739
X068864Y052761
X069184
X069441
X069516Y053773
X069256
X068857Y054696
X068873Y055344
X069584
X069205Y046824
X062098Y052403
X060919Y051931
X070123Y051646
X070112Y051275
X070974Y051441
X071917Y051896
X072137Y052097
X071976Y052307
X07235
Y051893
X073167Y050769
X073422Y050797
X07332Y050553
X073059Y050284
X07185Y050285
X071868Y049673
X072125Y049012
X072112Y048635
X072126Y047521
X071903Y046624
X073355Y046919
X074851Y046964
X075187Y046986
X075121Y047406
X076431Y047443
X07626Y048159
X076191Y046649
X076546Y045897
X076271Y045497
X075285Y045959
X074244Y045013
X07283Y045214
X070106Y046225
X069658Y046372
X06974Y049362
X070333Y049378
X070625Y049987
X070377Y052761
X069979
X069705Y052762
X069666Y053542
X069687Y054003
X070201Y054007
X070486Y054077
X070596Y054354
X071118Y054291
X07072Y053823
X075411Y053057
X074734Y051823
X074302Y05153
X074214Y050732
X074421Y050562
X07478Y050571
X075065Y05053
X074136Y050426
X07813Y048525
X078085Y048152
X078134Y047021
X078085Y046647
X078191Y045616
X087361Y045826
Y046103
X087746Y046299
X087677Y045679
X087475Y045445
X08728Y04525
X088364Y045217
X088353Y045621
X088359Y046207
X088679Y046384
X089045Y045591
X094255Y045571
X095515
X095937Y04618
X09626Y046496
X095504Y047131
Y048242
X094244
Y047131
X093649Y04658
X094257Y049854
Y050965
X095517
Y049854
X099884Y045488
X099689Y045293
X100716Y045577
X101407Y04564
X101385Y045217
X102114Y045374
X102388Y045629
Y045906
X101954Y046298
X101677
X101388Y046152
X10104Y046361
T02
X090385Y010619
X090543Y010892
X064952Y010892
X064795Y010619
X066007Y015529
X066558
X067109
Y016081
Y016632
X066557
X066007
Y016081
X066558
X067837Y022735
X067837Y023128
X067443
X067837Y023522
X068231Y023128
X093034Y023128
X093428
X093428Y022735
Y023522
X093821Y023128
X0927Y016632
Y016081
Y01553
X092149
X091597
Y016081
Y016632
X092148
X092149Y016081
X064795Y037041
X064952Y037314
X066007Y041952
X066558
X067109
Y042503
Y043054
X066557
X066007
Y042503
X066558
X067837Y049157
X067837Y049551
X067443
X067837Y049944
X068231Y049551
T06
X019275Y020312
Y021021
X019591Y025988
X018882
X020841Y025965
X021549
X06056Y022175
Y021466
X061778Y021168
X062486Y021168
X086151Y021466
Y022175
X087368Y021168
X088077Y021168
X024757Y033138
X024048
X06056Y047889
Y048598
X061778Y04759
X062486Y04759
T07
X094874Y039072
Y040072
Y041795
Y042795
X094872Y044571
Y045571
X094874Y047242
Y048242
Y049965
Y050965
T09
X038586Y032413
Y033413
Y034413
Y035413
Y036413
X040586
Y035413
Y034413
Y033413
Y032413
X042167
Y033413
Y034413
Y035413
Y036413
X044167
Y035413
Y034413
Y033413
Y032413
T10
X038604Y016643
X039604
X040604
X041604
X042104Y017643
X041104
X040104
X039104
T11
X045169Y020122
X046169
Y021122
X045169
Y022122
X046169
Y023122
X045169
Y024122
X046169
Y025122
X045169
Y026122
X046169
Y027122
X045169
X02Y031345
X019
Y032345
X02
Y033345
X019
Y034345
X02
Y035345
X019
T12
X072409Y016413
Y017413
X073409
X073409Y016413
X074409
Y017413
X098Y017413
Y016413
X099
X1
Y017413
X099Y017413
X074409Y042835
X073409
X072409
Y043835
X073409
X074409Y043835
T13
X038864Y012813
X041844Y012143
X042844Y012813
X037864Y012135
T14
X099248Y041004
X09018Y049343
T15
X018166Y011861
X020135
T16
X023338Y010823
X037254Y015336
X034774Y019017
X043455Y015336
X060363Y019472
X085954Y019472
X008041Y030899
X018504Y049803
X032677
X060363Y045895
T17
X006572Y01443
Y016281
Y018131
X008473
Y016281
Y01443
T18
X038104Y014135
X042604
T19
X094874Y009122
X069284Y009122
X045276Y011811
X005906
X045276Y017717
X06076Y023888
X077808Y023886
X086351Y023888
X103398Y023886
X069284Y035545
X045276Y029528
X009843Y051181
X041339
X06076Y050311
X077808Y050309
T20
X022924Y018608
X034735Y030419
T21
X070701Y026248
X096292Y026248
X101324Y043661
X015433Y049606
X007716
X02315Y049606
X030866
X038583Y049606
X046299
X070701Y052671
X088425Y046496
T22
X091764Y009008
X092197Y008758
X09263Y008508
X093063Y008258
X093496Y008008
X067906Y008008
X067473Y008258
X06704Y008508
X066607Y008758
X066174Y009008
X093875Y029586
X094375
X094874
X095374
X095875
X070284Y029586
X069784
X069284
X068784
X068284
X067906Y034431
X067473Y034681
X06704Y034931
X066607Y035181
X066174Y035431
X068284Y056009
X068784
X069284
X069784
X070284
M30
