G04*
G04 #@! TF.GenerationSoftware,Altium Limited,Altium Designer,21.2.2 (38)*
G04*
G04 Layer_Color=255*
%FSLAX25Y25*%
%MOIN*%
G70*
G04*
G04 #@! TF.SameCoordinates,0448F7F8-B58B-4B03-AB27-B3033358FA6D*
G04*
G04*
G04 #@! TF.FilePolarity,Positive*
G04*
G01*
G75*
%ADD10C,0.03937*%
%ADD27R,0.19291X0.06299*%
G04:AMPARAMS|DCode=65|XSize=35mil|YSize=34mil|CornerRadius=5.95mil|HoleSize=0mil|Usage=FLASHONLY|Rotation=90.000|XOffset=0mil|YOffset=0mil|HoleType=Round|Shape=RoundedRectangle|*
%AMROUNDEDRECTD65*
21,1,0.03500,0.02210,0,0,90.0*
21,1,0.02310,0.03400,0,0,90.0*
1,1,0.01190,0.01105,0.01155*
1,1,0.01190,0.01105,-0.01155*
1,1,0.01190,-0.01105,-0.01155*
1,1,0.01190,-0.01105,0.01155*
%
%ADD65ROUNDEDRECTD65*%
G04:AMPARAMS|DCode=67|XSize=35mil|YSize=34mil|CornerRadius=5.95mil|HoleSize=0mil|Usage=FLASHONLY|Rotation=180.000|XOffset=0mil|YOffset=0mil|HoleType=Round|Shape=RoundedRectangle|*
%AMROUNDEDRECTD67*
21,1,0.03500,0.02210,0,0,180.0*
21,1,0.02310,0.03400,0,0,180.0*
1,1,0.01190,-0.01155,0.01105*
1,1,0.01190,0.01155,0.01105*
1,1,0.01190,0.01155,-0.01105*
1,1,0.01190,-0.01155,-0.01105*
%
%ADD67ROUNDEDRECTD67*%
%ADD163O,0.03740X0.02559*%
%ADD164O,0.03150X0.05512*%
%ADD165C,0.02559*%
%ADD166C,0.09449*%
%ADD167C,0.06299*%
%ADD168R,0.06299X0.06299*%
%ADD169C,0.04331*%
%ADD170C,0.24410*%
%ADD172O,0.05512X0.03150*%
%ADD173O,0.02559X0.03740*%
%ADD174C,0.06000*%
%ADD175R,0.06500X0.06500*%
%ADD176C,0.06500*%
%ADD177C,0.11024*%
%ADD178R,0.11024X0.11024*%
%ADD179C,0.08300*%
%ADD180C,0.14800*%
%ADD181C,0.06100*%
%ADD182C,0.05500*%
%ADD184O,0.07874X0.19685*%
%ADD185O,0.19685X0.07874*%
%ADD186C,0.07087*%
%ADD187R,0.07087X0.07087*%
G04:AMPARAMS|DCode=188|XSize=35.43mil|YSize=62.99mil|CornerRadius=17.72mil|HoleSize=0mil|Usage=FLASHONLY|Rotation=360.000|XOffset=0mil|YOffset=0mil|HoleType=Round|Shape=RoundedRectangle|*
%AMROUNDEDRECTD188*
21,1,0.03543,0.02756,0,0,360.0*
21,1,0.00000,0.06299,0,0,360.0*
1,1,0.03543,0.00000,-0.01378*
1,1,0.03543,0.00000,-0.01378*
1,1,0.03543,0.00000,0.01378*
1,1,0.03543,0.00000,0.01378*
%
%ADD188ROUNDEDRECTD188*%
%ADD189C,0.05945*%
%ADD190R,0.05945X0.05945*%
%ADD191C,0.07284*%
%ADD192R,0.07284X0.07284*%
D10*
X619657Y333228D02*
D03*
X908991Y39591D02*
D03*
X1013670Y577132D02*
D03*
X441945Y77250D02*
D03*
X243033Y558286D02*
D03*
X91607Y45326D02*
D03*
X963312Y134531D02*
D03*
X1019776Y256017D02*
D03*
X936441Y213272D02*
D03*
X707406Y134530D02*
D03*
X763870Y256015D02*
D03*
X680536Y213270D02*
D03*
X707406Y398756D02*
D03*
X763870Y520241D02*
D03*
X680536Y477496D02*
D03*
X884262Y498700D02*
D03*
X982712Y394357D02*
D03*
X1034628Y498709D02*
D03*
X186070Y512325D02*
D03*
X83270Y351625D02*
D03*
X358442Y108449D02*
D03*
D27*
X856156Y144706D02*
D03*
Y178249D02*
D03*
X600251Y144705D02*
D03*
Y178248D02*
D03*
Y408930D02*
D03*
Y442473D02*
D03*
D65*
X948197Y282736D02*
D03*
Y288636D02*
D03*
X692292Y282735D02*
D03*
Y288635D02*
D03*
Y546960D02*
D03*
Y552860D02*
D03*
D67*
X420279Y526903D02*
D03*
X426179D02*
D03*
X93501D02*
D03*
X87601D02*
D03*
X110239D02*
D03*
X116139D02*
D03*
X401572D02*
D03*
X395672D02*
D03*
X324800D02*
D03*
X318900D02*
D03*
X187011D02*
D03*
X192911D02*
D03*
D163*
X934572Y262484D02*
D03*
X678666Y262483D02*
D03*
Y526708D02*
D03*
X434646Y496062D02*
D03*
X280315Y496063D02*
D03*
X125984Y496062D02*
D03*
X357480Y496062D02*
D03*
X203149Y496063D02*
D03*
X48818Y496062D02*
D03*
D164*
X965005Y267406D02*
D03*
X932485D02*
D03*
X931068Y290831D02*
D03*
X966422D02*
D03*
X709099Y267404D02*
D03*
X676580D02*
D03*
X675162Y290829D02*
D03*
X710517D02*
D03*
X709099Y531630D02*
D03*
X676580D02*
D03*
X675162Y555055D02*
D03*
X710517D02*
D03*
X465079Y500984D02*
D03*
X432559D02*
D03*
X431142Y524409D02*
D03*
X466496D02*
D03*
X310748Y500985D02*
D03*
X278228D02*
D03*
X276811Y524410D02*
D03*
X312165D02*
D03*
X156417Y500983D02*
D03*
X123897D02*
D03*
X122480Y524408D02*
D03*
X157834D02*
D03*
X387913Y500984D02*
D03*
X355394D02*
D03*
X353976Y524409D02*
D03*
X389331D02*
D03*
X233582Y500985D02*
D03*
X201063D02*
D03*
X199645Y524410D02*
D03*
X235000D02*
D03*
X79251Y500983D02*
D03*
X46732D02*
D03*
X45314Y524408D02*
D03*
X80669D02*
D03*
D165*
X962918Y262484D02*
D03*
X707013Y262483D02*
D03*
Y526708D02*
D03*
X1013236Y436614D02*
D03*
X884252Y464961D02*
D03*
X462992Y496062D02*
D03*
X308661Y496063D02*
D03*
X154330Y496062D02*
D03*
X385827Y496062D02*
D03*
X231496Y496063D02*
D03*
X77165Y496062D02*
D03*
D166*
X859540Y194724D02*
D03*
X603635Y194722D02*
D03*
Y458948D02*
D03*
X233382Y108235D02*
D03*
X347743Y190174D02*
D03*
X326772Y498032D02*
D03*
X185039D02*
D03*
X80413Y308988D02*
D03*
D167*
X989997Y164130D02*
D03*
X999997D02*
D03*
X979997D02*
D03*
X989997Y174130D02*
D03*
X979997D02*
D03*
X734092Y164128D02*
D03*
X744092D02*
D03*
X724092D02*
D03*
X734092Y174128D02*
D03*
X724092D02*
D03*
X734092Y428354D02*
D03*
X744092D02*
D03*
X724092D02*
D03*
X734092Y438354D02*
D03*
X724092D02*
D03*
D168*
X999997Y174130D02*
D03*
X744092Y174128D02*
D03*
Y438354D02*
D03*
D169*
X861509Y221751D02*
D03*
Y214665D02*
D03*
X873681Y211677D02*
D03*
X880767Y211677D02*
D03*
X605603Y221750D02*
D03*
Y214664D02*
D03*
X617775Y211676D02*
D03*
X624862Y211676D02*
D03*
X605603Y485976D02*
D03*
Y478889D02*
D03*
X617775Y475901D02*
D03*
X624862Y475901D02*
D03*
X247568Y331380D02*
D03*
X240482D02*
D03*
X208406Y259654D02*
D03*
X215492D02*
D03*
X188819Y259877D02*
D03*
X195906D02*
D03*
X192754Y210210D02*
D03*
Y203123D02*
D03*
D170*
X863509Y238885D02*
D03*
X948745Y91224D02*
D03*
X1033981Y238862D02*
D03*
X607603Y238883D02*
D03*
X692839Y91223D02*
D03*
X778076Y238861D02*
D03*
X607603Y503109D02*
D03*
X692839Y355449D02*
D03*
X778076Y503086D02*
D03*
X229237Y186080D02*
D03*
X347347Y304190D02*
D03*
X452756Y177165D02*
D03*
Y295276D02*
D03*
X413386Y511811D02*
D03*
X98425D02*
D03*
X452756Y118110D02*
D03*
X59055D02*
D03*
D172*
X1041583Y433110D02*
D03*
Y468465D02*
D03*
X1018157Y467047D02*
D03*
Y434528D02*
D03*
X855906Y468465D02*
D03*
Y433110D02*
D03*
X879331Y434528D02*
D03*
Y467047D02*
D03*
D173*
X1013236Y464961D02*
D03*
X884252Y436614D02*
D03*
D174*
X901800Y493428D02*
D03*
X992479Y410042D02*
D03*
D175*
X948720Y445709D02*
D03*
X948744Y499648D02*
D03*
Y472416D02*
D03*
Y427953D02*
D03*
Y400721D02*
D03*
D176*
X948720Y455709D02*
D03*
X948744Y509648D02*
D03*
Y482416D02*
D03*
Y417953D02*
D03*
Y390721D02*
D03*
D177*
X84732Y144304D02*
D03*
Y162808D02*
D03*
Y181312D02*
D03*
X65716Y162808D02*
D03*
Y181312D02*
D03*
D178*
Y144304D02*
D03*
D179*
X434546Y153361D02*
D03*
X372538D02*
D03*
D180*
X426042Y141353D02*
D03*
X381042D02*
D03*
D181*
X428443Y128125D02*
D03*
X418443Y121432D02*
D03*
X388640Y128125D02*
D03*
X378640Y121353D02*
D03*
D182*
X421042Y176432D02*
D03*
X411042D02*
D03*
X401042D02*
D03*
X391042D02*
D03*
X416042Y166432D02*
D03*
X406042D02*
D03*
X396042D02*
D03*
X386042D02*
D03*
D184*
X334568Y141514D02*
D03*
D185*
X315670Y128719D02*
D03*
Y153325D02*
D03*
D186*
X461693Y271220D02*
D03*
X451693Y201220D02*
D03*
X461693D02*
D03*
X451693Y211221D02*
D03*
X461693D02*
D03*
X451693Y221220D02*
D03*
X461693D02*
D03*
X451693Y231221D02*
D03*
X461693D02*
D03*
X451693Y241220D02*
D03*
X461693D02*
D03*
X451693Y251220D02*
D03*
X461693D02*
D03*
X451693Y261221D02*
D03*
X461693D02*
D03*
X199995Y353452D02*
D03*
X189995Y313452D02*
D03*
X199995D02*
D03*
X189995Y323452D02*
D03*
X199995D02*
D03*
X189995Y333452D02*
D03*
X199995D02*
D03*
X189995Y343452D02*
D03*
X199995D02*
D03*
D187*
X451693Y271220D02*
D03*
X189995Y353452D02*
D03*
D188*
X110354Y104125D02*
D03*
X84370D02*
D03*
D189*
X441670Y354134D02*
D03*
Y364134D02*
D03*
X421670D02*
D03*
X441670Y344134D02*
D03*
Y334134D02*
D03*
X421670Y354134D02*
D03*
Y344134D02*
D03*
Y334134D02*
D03*
Y324134D02*
D03*
X405860Y354134D02*
D03*
Y364134D02*
D03*
X385859D02*
D03*
X405860Y344134D02*
D03*
Y334134D02*
D03*
X385859Y354134D02*
D03*
Y344134D02*
D03*
Y334134D02*
D03*
Y324134D02*
D03*
D190*
X441670D02*
D03*
X405860D02*
D03*
D191*
X201346Y118608D02*
D03*
D192*
X181661D02*
D03*
M02*
