G04*
G04 #@! TF.GenerationSoftware,Altium Limited,Altium Designer,21.2.2 (38)*
G04*
G04 Layer_Color=16711935*
%FSLAX25Y25*%
%MOIN*%
G70*
G04*
G04 #@! TF.SameCoordinates,0448F7F8-B58B-4B03-AB27-B3033358FA6D*
G04*
G04*
G04 #@! TF.FilePolarity,Positive*
G04*
G01*
G75*
%ADD19C,0.01000*%
G36*
X707839Y560086D02*
X704340Y556586D01*
X681340D01*
X677340Y560586D01*
Y565586D01*
X707839D01*
Y560086D01*
D02*
G37*
G36*
X682107Y346588D02*
X683571Y341124D01*
X681071Y336794D01*
X654658Y352044D01*
X657408Y356807D01*
X662189Y358088D01*
X682107Y346588D01*
D02*
G37*
G36*
X963745Y295862D02*
X960245Y292362D01*
X937245D01*
X933245Y296362D01*
Y301362D01*
X963745D01*
Y295862D01*
D02*
G37*
G36*
X707839Y295861D02*
X704340Y292361D01*
X681340D01*
X677340Y296361D01*
Y301361D01*
X707839D01*
Y295861D01*
D02*
G37*
G36*
X938013Y82364D02*
X939477Y76900D01*
X936977Y72570D01*
X910563Y87819D01*
X913313Y92583D01*
X918094Y93864D01*
X938013Y82364D01*
D02*
G37*
G36*
X682107Y82363D02*
X683571Y76898D01*
X681071Y72568D01*
X654658Y87818D01*
X657408Y92581D01*
X662189Y93862D01*
X682107Y82363D01*
D02*
G37*
D19*
X39604Y98467D02*
Y310468D01*
M02*
