G04*
G04 #@! TF.GenerationSoftware,Altium Limited,Altium Designer,21.2.2 (38)*
G04*
G04 Layer_Color=255*
%FSLAX25Y25*%
%MOIN*%
G70*
G04*
G04 #@! TF.SameCoordinates,0448F7F8-B58B-4B03-AB27-B3033358FA6D*
G04*
G04*
G04 #@! TF.FilePolarity,Positive*
G04*
G01*
G75*
%ADD10C,0.03937*%
%ADD25R,0.01181X0.02756*%
%ADD26R,0.22047X0.05906*%
%ADD27R,0.19291X0.06299*%
G04:AMPARAMS|DCode=28|XSize=20mil|YSize=20mil|CornerRadius=6mil|HoleSize=0mil|Usage=FLASHONLY|Rotation=60.000|XOffset=0mil|YOffset=0mil|HoleType=Round|Shape=RoundedRectangle|*
%AMROUNDEDRECTD28*
21,1,0.02000,0.00800,0,0,60.0*
21,1,0.00800,0.02000,0,0,60.0*
1,1,0.01200,0.00546,0.00146*
1,1,0.01200,0.00146,-0.00546*
1,1,0.01200,-0.00546,-0.00146*
1,1,0.01200,-0.00146,0.00546*
%
%ADD28ROUNDEDRECTD28*%
%ADD29R,0.10236X0.10236*%
G04:AMPARAMS|DCode=30|XSize=9.84mil|YSize=23.62mil|CornerRadius=0.98mil|HoleSize=0mil|Usage=FLASHONLY|Rotation=270.000|XOffset=0mil|YOffset=0mil|HoleType=Round|Shape=RoundedRectangle|*
%AMROUNDEDRECTD30*
21,1,0.00984,0.02165,0,0,270.0*
21,1,0.00787,0.02362,0,0,270.0*
1,1,0.00197,-0.01083,-0.00394*
1,1,0.00197,-0.01083,0.00394*
1,1,0.00197,0.01083,0.00394*
1,1,0.00197,0.01083,-0.00394*
%
%ADD30ROUNDEDRECTD30*%
G04:AMPARAMS|DCode=31|XSize=9.84mil|YSize=23.62mil|CornerRadius=0.98mil|HoleSize=0mil|Usage=FLASHONLY|Rotation=360.000|XOffset=0mil|YOffset=0mil|HoleType=Round|Shape=RoundedRectangle|*
%AMROUNDEDRECTD31*
21,1,0.00984,0.02165,0,0,360.0*
21,1,0.00787,0.02362,0,0,360.0*
1,1,0.00197,0.00394,-0.01083*
1,1,0.00197,-0.00394,-0.01083*
1,1,0.00197,-0.00394,0.01083*
1,1,0.00197,0.00394,0.01083*
%
%ADD31ROUNDEDRECTD31*%
G04:AMPARAMS|DCode=32|XSize=71mil|YSize=47mil|CornerRadius=7.99mil|HoleSize=0mil|Usage=FLASHONLY|Rotation=270.000|XOffset=0mil|YOffset=0mil|HoleType=Round|Shape=RoundedRectangle|*
%AMROUNDEDRECTD32*
21,1,0.07100,0.03102,0,0,270.0*
21,1,0.05502,0.04700,0,0,270.0*
1,1,0.01598,-0.01551,-0.02751*
1,1,0.01598,-0.01551,0.02751*
1,1,0.01598,0.01551,0.02751*
1,1,0.01598,0.01551,-0.02751*
%
%ADD32ROUNDEDRECTD32*%
G04:AMPARAMS|DCode=33|XSize=11.81mil|YSize=17.72mil|CornerRadius=1.18mil|HoleSize=0mil|Usage=FLASHONLY|Rotation=300.000|XOffset=0mil|YOffset=0mil|HoleType=Round|Shape=RoundedRectangle|*
%AMROUNDEDRECTD33*
21,1,0.01181,0.01535,0,0,300.0*
21,1,0.00945,0.01772,0,0,300.0*
1,1,0.00236,-0.00429,-0.00793*
1,1,0.00236,-0.00901,0.00025*
1,1,0.00236,0.00429,0.00793*
1,1,0.00236,0.00901,-0.00025*
%
%ADD33ROUNDEDRECTD33*%
G04:AMPARAMS|DCode=34|XSize=62.99mil|YSize=39.37mil|CornerRadius=1.97mil|HoleSize=0mil|Usage=FLASHONLY|Rotation=300.000|XOffset=0mil|YOffset=0mil|HoleType=Round|Shape=RoundedRectangle|*
%AMROUNDEDRECTD34*
21,1,0.06299,0.03543,0,0,300.0*
21,1,0.05906,0.03937,0,0,300.0*
1,1,0.00394,-0.00058,-0.03443*
1,1,0.00394,-0.03011,0.01671*
1,1,0.00394,0.00058,0.03443*
1,1,0.00394,0.03011,-0.01671*
%
%ADD34ROUNDEDRECTD34*%
G04:AMPARAMS|DCode=35|XSize=15.75mil|YSize=12.8mil|CornerRadius=0mil|HoleSize=0mil|Usage=FLASHONLY|Rotation=150.000|XOffset=0mil|YOffset=0mil|HoleType=Round|Shape=Rectangle|*
%AMROTATEDRECTD35*
4,1,4,0.01002,0.00160,0.00362,-0.00948,-0.01002,-0.00160,-0.00362,0.00948,0.01002,0.00160,0.0*
%
%ADD35ROTATEDRECTD35*%

G04:AMPARAMS|DCode=36|XSize=13.78mil|YSize=14.76mil|CornerRadius=0mil|HoleSize=0mil|Usage=FLASHONLY|Rotation=240.000|XOffset=0mil|YOffset=0mil|HoleType=Round|Shape=Rectangle|*
%AMROTATEDRECTD36*
4,1,4,-0.00295,0.00966,0.00984,0.00228,0.00295,-0.00966,-0.00984,-0.00228,-0.00295,0.00966,0.0*
%
%ADD36ROTATEDRECTD36*%

G04:AMPARAMS|DCode=37|XSize=15.75mil|YSize=82.68mil|CornerRadius=0mil|HoleSize=0mil|Usage=FLASHONLY|Rotation=240.000|XOffset=0mil|YOffset=0mil|HoleType=Round|Shape=Rectangle|*
%AMROTATEDRECTD37*
4,1,4,-0.03186,0.02749,0.03974,-0.01385,0.03186,-0.02749,-0.03974,0.01385,-0.03186,0.02749,0.0*
%
%ADD37ROTATEDRECTD37*%

G04:AMPARAMS|DCode=38|XSize=20mil|YSize=20mil|CornerRadius=6mil|HoleSize=0mil|Usage=FLASHONLY|Rotation=270.000|XOffset=0mil|YOffset=0mil|HoleType=Round|Shape=RoundedRectangle|*
%AMROUNDEDRECTD38*
21,1,0.02000,0.00800,0,0,270.0*
21,1,0.00800,0.02000,0,0,270.0*
1,1,0.01200,-0.00400,-0.00400*
1,1,0.01200,-0.00400,0.00400*
1,1,0.01200,0.00400,0.00400*
1,1,0.01200,0.00400,-0.00400*
%
%ADD38ROUNDEDRECTD38*%
G04:AMPARAMS|DCode=39|XSize=20mil|YSize=20mil|CornerRadius=6mil|HoleSize=0mil|Usage=FLASHONLY|Rotation=180.000|XOffset=0mil|YOffset=0mil|HoleType=Round|Shape=RoundedRectangle|*
%AMROUNDEDRECTD39*
21,1,0.02000,0.00800,0,0,180.0*
21,1,0.00800,0.02000,0,0,180.0*
1,1,0.01200,-0.00400,0.00400*
1,1,0.01200,0.00400,0.00400*
1,1,0.01200,0.00400,-0.00400*
1,1,0.01200,-0.00400,-0.00400*
%
%ADD39ROUNDEDRECTD39*%
%ADD40R,0.12992X0.03937*%
%ADD41R,0.03937X0.12992*%
%ADD42R,0.11417X0.03937*%
%ADD43R,0.03937X0.11417*%
G04:AMPARAMS|DCode=44|XSize=31.5mil|YSize=35.43mil|CornerRadius=0mil|HoleSize=0mil|Usage=FLASHONLY|Rotation=120.000|XOffset=0mil|YOffset=0mil|HoleType=Round|Shape=Rectangle|*
%AMROTATEDRECTD44*
4,1,4,0.02322,-0.00478,-0.00747,-0.02250,-0.02322,0.00478,0.00747,0.02250,0.02322,-0.00478,0.0*
%
%ADD44ROTATEDRECTD44*%

G04:AMPARAMS|DCode=45|XSize=55mil|YSize=43mil|CornerRadius=7.96mil|HoleSize=0mil|Usage=FLASHONLY|Rotation=360.000|XOffset=0mil|YOffset=0mil|HoleType=Round|Shape=RoundedRectangle|*
%AMROUNDEDRECTD45*
21,1,0.05500,0.02709,0,0,360.0*
21,1,0.03909,0.04300,0,0,360.0*
1,1,0.01591,0.01955,-0.01355*
1,1,0.01591,-0.01955,-0.01355*
1,1,0.01591,-0.01955,0.01355*
1,1,0.01591,0.01955,0.01355*
%
%ADD45ROUNDEDRECTD45*%
G04:AMPARAMS|DCode=46|XSize=25.59mil|YSize=68.9mil|CornerRadius=3.84mil|HoleSize=0mil|Usage=FLASHONLY|Rotation=240.000|XOffset=0mil|YOffset=0mil|HoleType=Round|Shape=RoundedRectangle|*
%AMROUNDEDRECTD46*
21,1,0.02559,0.06122,0,0,240.0*
21,1,0.01791,0.06890,0,0,240.0*
1,1,0.00768,-0.03099,0.00755*
1,1,0.00768,-0.02203,0.02306*
1,1,0.00768,0.03099,-0.00755*
1,1,0.00768,0.02203,-0.02306*
%
%ADD46ROUNDEDRECTD46*%
G04:AMPARAMS|DCode=47|XSize=35mil|YSize=34mil|CornerRadius=5.95mil|HoleSize=0mil|Usage=FLASHONLY|Rotation=300.000|XOffset=0mil|YOffset=0mil|HoleType=Round|Shape=RoundedRectangle|*
%AMROUNDEDRECTD47*
21,1,0.03500,0.02210,0,0,300.0*
21,1,0.02310,0.03400,0,0,300.0*
1,1,0.01190,-0.00380,-0.01553*
1,1,0.01190,-0.01535,0.00448*
1,1,0.01190,0.00380,0.01553*
1,1,0.01190,0.01535,-0.00448*
%
%ADD47ROUNDEDRECTD47*%
G04:AMPARAMS|DCode=48|XSize=11.81mil|YSize=57.09mil|CornerRadius=1.77mil|HoleSize=0mil|Usage=FLASHONLY|Rotation=270.000|XOffset=0mil|YOffset=0mil|HoleType=Round|Shape=RoundedRectangle|*
%AMROUNDEDRECTD48*
21,1,0.01181,0.05354,0,0,270.0*
21,1,0.00827,0.05709,0,0,270.0*
1,1,0.00354,-0.02677,-0.00413*
1,1,0.00354,-0.02677,0.00413*
1,1,0.00354,0.02677,0.00413*
1,1,0.00354,0.02677,-0.00413*
%
%ADD48ROUNDEDRECTD48*%
G04:AMPARAMS|DCode=49|XSize=13.78mil|YSize=53.15mil|CornerRadius=1.38mil|HoleSize=0mil|Usage=FLASHONLY|Rotation=30.000|XOffset=0mil|YOffset=0mil|HoleType=Round|Shape=RoundedRectangle|*
%AMROUNDEDRECTD49*
21,1,0.01378,0.05039,0,0,30.0*
21,1,0.01102,0.05315,0,0,30.0*
1,1,0.00276,0.01737,-0.01907*
1,1,0.00276,0.00783,-0.02458*
1,1,0.00276,-0.01737,0.01907*
1,1,0.00276,-0.00783,0.02458*
%
%ADD49ROUNDEDRECTD49*%
G04:AMPARAMS|DCode=50|XSize=20mil|YSize=20mil|CornerRadius=6mil|HoleSize=0mil|Usage=FLASHONLY|Rotation=300.000|XOffset=0mil|YOffset=0mil|HoleType=Round|Shape=RoundedRectangle|*
%AMROUNDEDRECTD50*
21,1,0.02000,0.00800,0,0,300.0*
21,1,0.00800,0.02000,0,0,300.0*
1,1,0.01200,-0.00146,-0.00546*
1,1,0.01200,-0.00546,0.00146*
1,1,0.01200,0.00146,0.00546*
1,1,0.01200,0.00546,-0.00146*
%
%ADD50ROUNDEDRECTD50*%
G04:AMPARAMS|DCode=51|XSize=11.81mil|YSize=29.53mil|CornerRadius=1.18mil|HoleSize=0mil|Usage=FLASHONLY|Rotation=30.000|XOffset=0mil|YOffset=0mil|HoleType=Round|Shape=RoundedRectangle|*
%AMROUNDEDRECTD51*
21,1,0.01181,0.02717,0,0,30.0*
21,1,0.00945,0.02953,0,0,30.0*
1,1,0.00236,0.01088,-0.00940*
1,1,0.00236,0.00270,-0.01413*
1,1,0.00236,-0.01088,0.00940*
1,1,0.00236,-0.00270,0.01413*
%
%ADD51ROUNDEDRECTD51*%
G04:AMPARAMS|DCode=52|XSize=15.75mil|YSize=31.5mil|CornerRadius=1.58mil|HoleSize=0mil|Usage=FLASHONLY|Rotation=30.000|XOffset=0mil|YOffset=0mil|HoleType=Round|Shape=RoundedRectangle|*
%AMROUNDEDRECTD52*
21,1,0.01575,0.02835,0,0,30.0*
21,1,0.01260,0.03150,0,0,30.0*
1,1,0.00315,0.01254,-0.00913*
1,1,0.00315,0.00163,-0.01542*
1,1,0.00315,-0.01254,0.00913*
1,1,0.00315,-0.00163,0.01542*
%
%ADD52ROUNDEDRECTD52*%
G04:AMPARAMS|DCode=53|XSize=35mil|YSize=34mil|CornerRadius=5.95mil|HoleSize=0mil|Usage=FLASHONLY|Rotation=30.000|XOffset=0mil|YOffset=0mil|HoleType=Round|Shape=RoundedRectangle|*
%AMROUNDEDRECTD53*
21,1,0.03500,0.02210,0,0,30.0*
21,1,0.02310,0.03400,0,0,30.0*
1,1,0.01190,0.01553,-0.00380*
1,1,0.01190,-0.00448,-0.01535*
1,1,0.01190,-0.01553,0.00380*
1,1,0.01190,0.00448,0.01535*
%
%ADD53ROUNDEDRECTD53*%
G04:AMPARAMS|DCode=54|XSize=11.02mil|YSize=27.56mil|CornerRadius=0.55mil|HoleSize=0mil|Usage=FLASHONLY|Rotation=30.000|XOffset=0mil|YOffset=0mil|HoleType=Round|Shape=RoundedRectangle|*
%AMROUNDEDRECTD54*
21,1,0.01102,0.02646,0,0,30.0*
21,1,0.00992,0.02756,0,0,30.0*
1,1,0.00110,0.01091,-0.00898*
1,1,0.00110,0.00232,-0.01394*
1,1,0.00110,-0.01091,0.00898*
1,1,0.00110,-0.00232,0.01394*
%
%ADD54ROUNDEDRECTD54*%
%ADD55P,0.09465X4X165.0*%
G04:AMPARAMS|DCode=56|XSize=11.02mil|YSize=27.56mil|CornerRadius=0.55mil|HoleSize=0mil|Usage=FLASHONLY|Rotation=300.000|XOffset=0mil|YOffset=0mil|HoleType=Round|Shape=RoundedRectangle|*
%AMROUNDEDRECTD56*
21,1,0.01102,0.02646,0,0,300.0*
21,1,0.00992,0.02756,0,0,300.0*
1,1,0.00110,-0.00898,-0.01091*
1,1,0.00110,-0.01394,-0.00232*
1,1,0.00110,0.00898,0.01091*
1,1,0.00110,0.01394,0.00232*
%
%ADD56ROUNDEDRECTD56*%
G04:AMPARAMS|DCode=57|XSize=20mil|YSize=20mil|CornerRadius=6mil|HoleSize=0mil|Usage=FLASHONLY|Rotation=150.000|XOffset=0mil|YOffset=0mil|HoleType=Round|Shape=RoundedRectangle|*
%AMROUNDEDRECTD57*
21,1,0.02000,0.00800,0,0,150.0*
21,1,0.00800,0.02000,0,0,150.0*
1,1,0.01200,-0.00146,0.00546*
1,1,0.01200,0.00546,0.00146*
1,1,0.01200,0.00146,-0.00546*
1,1,0.01200,-0.00546,-0.00146*
%
%ADD57ROUNDEDRECTD57*%
%ADD58P,0.04454X4X195.0*%
G04:AMPARAMS|DCode=59|XSize=20mil|YSize=20mil|CornerRadius=6mil|HoleSize=0mil|Usage=FLASHONLY|Rotation=210.000|XOffset=0mil|YOffset=0mil|HoleType=Round|Shape=RoundedRectangle|*
%AMROUNDEDRECTD59*
21,1,0.02000,0.00800,0,0,210.0*
21,1,0.00800,0.02000,0,0,210.0*
1,1,0.01200,-0.00546,0.00146*
1,1,0.01200,0.00146,0.00546*
1,1,0.01200,0.00546,-0.00146*
1,1,0.01200,-0.00146,-0.00546*
%
%ADD59ROUNDEDRECTD59*%
G04:AMPARAMS|DCode=60|XSize=55mil|YSize=43mil|CornerRadius=7.96mil|HoleSize=0mil|Usage=FLASHONLY|Rotation=270.000|XOffset=0mil|YOffset=0mil|HoleType=Round|Shape=RoundedRectangle|*
%AMROUNDEDRECTD60*
21,1,0.05500,0.02709,0,0,270.0*
21,1,0.03909,0.04300,0,0,270.0*
1,1,0.01591,-0.01355,-0.01955*
1,1,0.01591,-0.01355,0.01955*
1,1,0.01591,0.01355,0.01955*
1,1,0.01591,0.01355,-0.01955*
%
%ADD60ROUNDEDRECTD60*%
G04:AMPARAMS|DCode=61|XSize=27.56mil|YSize=13.78mil|CornerRadius=1.38mil|HoleSize=0mil|Usage=FLASHONLY|Rotation=300.000|XOffset=0mil|YOffset=0mil|HoleType=Round|Shape=RoundedRectangle|*
%AMROUNDEDRECTD61*
21,1,0.02756,0.01102,0,0,300.0*
21,1,0.02480,0.01378,0,0,300.0*
1,1,0.00276,0.00143,-0.01350*
1,1,0.00276,-0.01097,0.00798*
1,1,0.00276,-0.00143,0.01350*
1,1,0.00276,0.01097,-0.00798*
%
%ADD61ROUNDEDRECTD61*%
G04:AMPARAMS|DCode=62|XSize=23.62mil|YSize=25.59mil|CornerRadius=2.36mil|HoleSize=0mil|Usage=FLASHONLY|Rotation=300.000|XOffset=0mil|YOffset=0mil|HoleType=Round|Shape=RoundedRectangle|*
%AMROUNDEDRECTD62*
21,1,0.02362,0.02087,0,0,300.0*
21,1,0.01890,0.02559,0,0,300.0*
1,1,0.00472,-0.00431,-0.01340*
1,1,0.00472,-0.01376,0.00297*
1,1,0.00472,0.00431,0.01340*
1,1,0.00472,0.01376,-0.00297*
%
%ADD62ROUNDEDRECTD62*%
%ADD63R,0.01575X0.01280*%
%ADD64R,0.01575X0.00787*%
G04:AMPARAMS|DCode=65|XSize=35mil|YSize=34mil|CornerRadius=5.95mil|HoleSize=0mil|Usage=FLASHONLY|Rotation=90.000|XOffset=0mil|YOffset=0mil|HoleType=Round|Shape=RoundedRectangle|*
%AMROUNDEDRECTD65*
21,1,0.03500,0.02210,0,0,90.0*
21,1,0.02310,0.03400,0,0,90.0*
1,1,0.01190,0.01105,0.01155*
1,1,0.01190,0.01105,-0.01155*
1,1,0.01190,-0.01105,-0.01155*
1,1,0.01190,-0.01105,0.01155*
%
%ADD65ROUNDEDRECTD65*%
G04:AMPARAMS|DCode=66|XSize=21.65mil|YSize=39.37mil|CornerRadius=2.17mil|HoleSize=0mil|Usage=FLASHONLY|Rotation=90.000|XOffset=0mil|YOffset=0mil|HoleType=Round|Shape=RoundedRectangle|*
%AMROUNDEDRECTD66*
21,1,0.02165,0.03504,0,0,90.0*
21,1,0.01732,0.03937,0,0,90.0*
1,1,0.00433,0.01752,0.00866*
1,1,0.00433,0.01752,-0.00866*
1,1,0.00433,-0.01752,-0.00866*
1,1,0.00433,-0.01752,0.00866*
%
%ADD66ROUNDEDRECTD66*%
G04:AMPARAMS|DCode=67|XSize=35mil|YSize=34mil|CornerRadius=5.95mil|HoleSize=0mil|Usage=FLASHONLY|Rotation=180.000|XOffset=0mil|YOffset=0mil|HoleType=Round|Shape=RoundedRectangle|*
%AMROUNDEDRECTD67*
21,1,0.03500,0.02210,0,0,180.0*
21,1,0.02310,0.03400,0,0,180.0*
1,1,0.01190,-0.01155,0.01105*
1,1,0.01190,0.01155,0.01105*
1,1,0.01190,0.01155,-0.01105*
1,1,0.01190,-0.01155,-0.01105*
%
%ADD67ROUNDEDRECTD67*%
G04:AMPARAMS|DCode=68|XSize=23.62mil|YSize=62.99mil|CornerRadius=2.36mil|HoleSize=0mil|Usage=FLASHONLY|Rotation=90.000|XOffset=0mil|YOffset=0mil|HoleType=Round|Shape=RoundedRectangle|*
%AMROUNDEDRECTD68*
21,1,0.02362,0.05827,0,0,90.0*
21,1,0.01890,0.06299,0,0,90.0*
1,1,0.00472,0.02913,0.00945*
1,1,0.00472,0.02913,-0.00945*
1,1,0.00472,-0.02913,-0.00945*
1,1,0.00472,-0.02913,0.00945*
%
%ADD68ROUNDEDRECTD68*%
G04:AMPARAMS|DCode=69|XSize=15.75mil|YSize=35.43mil|CornerRadius=0.79mil|HoleSize=0mil|Usage=FLASHONLY|Rotation=270.000|XOffset=0mil|YOffset=0mil|HoleType=Round|Shape=RoundedRectangle|*
%AMROUNDEDRECTD69*
21,1,0.01575,0.03386,0,0,270.0*
21,1,0.01417,0.03543,0,0,270.0*
1,1,0.00158,-0.01693,-0.00709*
1,1,0.00158,-0.01693,0.00709*
1,1,0.00158,0.01693,0.00709*
1,1,0.00158,0.01693,-0.00709*
%
%ADD69ROUNDEDRECTD69*%
G04:AMPARAMS|DCode=70|XSize=25.59mil|YSize=68.9mil|CornerRadius=3.84mil|HoleSize=0mil|Usage=FLASHONLY|Rotation=270.000|XOffset=0mil|YOffset=0mil|HoleType=Round|Shape=RoundedRectangle|*
%AMROUNDEDRECTD70*
21,1,0.02559,0.06122,0,0,270.0*
21,1,0.01791,0.06890,0,0,270.0*
1,1,0.00768,-0.03061,-0.00896*
1,1,0.00768,-0.03061,0.00896*
1,1,0.00768,0.03061,0.00896*
1,1,0.00768,0.03061,-0.00896*
%
%ADD70ROUNDEDRECTD70*%
G04:AMPARAMS|DCode=71|XSize=7.87mil|YSize=22.24mil|CornerRadius=1.18mil|HoleSize=0mil|Usage=FLASHONLY|Rotation=360.000|XOffset=0mil|YOffset=0mil|HoleType=Round|Shape=RoundedRectangle|*
%AMROUNDEDRECTD71*
21,1,0.00787,0.01988,0,0,360.0*
21,1,0.00551,0.02224,0,0,360.0*
1,1,0.00236,0.00276,-0.00994*
1,1,0.00236,-0.00276,-0.00994*
1,1,0.00236,-0.00276,0.00994*
1,1,0.00236,0.00276,0.00994*
%
%ADD71ROUNDEDRECTD71*%
G04:AMPARAMS|DCode=72|XSize=15.75mil|YSize=22.24mil|CornerRadius=1.26mil|HoleSize=0mil|Usage=FLASHONLY|Rotation=360.000|XOffset=0mil|YOffset=0mil|HoleType=Round|Shape=RoundedRectangle|*
%AMROUNDEDRECTD72*
21,1,0.01575,0.01972,0,0,360.0*
21,1,0.01323,0.02224,0,0,360.0*
1,1,0.00252,0.00661,-0.00986*
1,1,0.00252,-0.00661,-0.00986*
1,1,0.00252,-0.00661,0.00986*
1,1,0.00252,0.00661,0.00986*
%
%ADD72ROUNDEDRECTD72*%
G04:AMPARAMS|DCode=73|XSize=7.87mil|YSize=22.24mil|CornerRadius=1.18mil|HoleSize=0mil|Usage=FLASHONLY|Rotation=90.000|XOffset=0mil|YOffset=0mil|HoleType=Round|Shape=RoundedRectangle|*
%AMROUNDEDRECTD73*
21,1,0.00787,0.01988,0,0,90.0*
21,1,0.00551,0.02224,0,0,90.0*
1,1,0.00236,0.00994,0.00276*
1,1,0.00236,0.00994,-0.00276*
1,1,0.00236,-0.00994,-0.00276*
1,1,0.00236,-0.00994,0.00276*
%
%ADD73ROUNDEDRECTD73*%
G04:AMPARAMS|DCode=74|XSize=15.75mil|YSize=22.24mil|CornerRadius=1.26mil|HoleSize=0mil|Usage=FLASHONLY|Rotation=90.000|XOffset=0mil|YOffset=0mil|HoleType=Round|Shape=RoundedRectangle|*
%AMROUNDEDRECTD74*
21,1,0.01575,0.01972,0,0,90.0*
21,1,0.01323,0.02224,0,0,90.0*
1,1,0.00252,0.00986,0.00661*
1,1,0.00252,0.00986,-0.00661*
1,1,0.00252,-0.00986,-0.00661*
1,1,0.00252,-0.00986,0.00661*
%
%ADD74ROUNDEDRECTD74*%
G04:AMPARAMS|DCode=75|XSize=88.98mil|YSize=85.04mil|CornerRadius=21.26mil|HoleSize=0mil|Usage=FLASHONLY|Rotation=180.000|XOffset=0mil|YOffset=0mil|HoleType=Round|Shape=RoundedRectangle|*
%AMROUNDEDRECTD75*
21,1,0.08898,0.04252,0,0,180.0*
21,1,0.04646,0.08504,0,0,180.0*
1,1,0.04252,-0.02323,0.02126*
1,1,0.04252,0.02323,0.02126*
1,1,0.04252,0.02323,-0.02126*
1,1,0.04252,-0.02323,-0.02126*
%
%ADD75ROUNDEDRECTD75*%
%ADD76P,0.04454X4X255.0*%
G04:AMPARAMS|DCode=77|XSize=55mil|YSize=43mil|CornerRadius=7.96mil|HoleSize=0mil|Usage=FLASHONLY|Rotation=150.000|XOffset=0mil|YOffset=0mil|HoleType=Round|Shape=RoundedRectangle|*
%AMROUNDEDRECTD77*
21,1,0.05500,0.02709,0,0,150.0*
21,1,0.03909,0.04300,0,0,150.0*
1,1,0.01591,-0.01015,0.02150*
1,1,0.01591,0.02370,0.00196*
1,1,0.01591,0.01015,-0.02150*
1,1,0.01591,-0.02370,-0.00196*
%
%ADD77ROUNDEDRECTD77*%
G04:AMPARAMS|DCode=78|XSize=17.72mil|YSize=59.06mil|CornerRadius=1.77mil|HoleSize=0mil|Usage=FLASHONLY|Rotation=360.000|XOffset=0mil|YOffset=0mil|HoleType=Round|Shape=RoundedRectangle|*
%AMROUNDEDRECTD78*
21,1,0.01772,0.05551,0,0,360.0*
21,1,0.01417,0.05906,0,0,360.0*
1,1,0.00354,0.00709,-0.02776*
1,1,0.00354,-0.00709,-0.02776*
1,1,0.00354,-0.00709,0.02776*
1,1,0.00354,0.00709,0.02776*
%
%ADD78ROUNDEDRECTD78*%
G04:AMPARAMS|DCode=79|XSize=25.59mil|YSize=68.9mil|CornerRadius=3.84mil|HoleSize=0mil|Usage=FLASHONLY|Rotation=360.000|XOffset=0mil|YOffset=0mil|HoleType=Round|Shape=RoundedRectangle|*
%AMROUNDEDRECTD79*
21,1,0.02559,0.06122,0,0,360.0*
21,1,0.01791,0.06890,0,0,360.0*
1,1,0.00768,0.00896,-0.03061*
1,1,0.00768,-0.00896,-0.03061*
1,1,0.00768,-0.00896,0.03061*
1,1,0.00768,0.00896,0.03061*
%
%ADD79ROUNDEDRECTD79*%
G04:AMPARAMS|DCode=80|XSize=31.5mil|YSize=11.81mil|CornerRadius=1.18mil|HoleSize=0mil|Usage=FLASHONLY|Rotation=90.000|XOffset=0mil|YOffset=0mil|HoleType=Round|Shape=RoundedRectangle|*
%AMROUNDEDRECTD80*
21,1,0.03150,0.00945,0,0,90.0*
21,1,0.02913,0.01181,0,0,90.0*
1,1,0.00236,0.00472,0.01457*
1,1,0.00236,0.00472,-0.01457*
1,1,0.00236,-0.00472,-0.01457*
1,1,0.00236,-0.00472,0.01457*
%
%ADD80ROUNDEDRECTD80*%
G04:AMPARAMS|DCode=81|XSize=37.4mil|YSize=8.66mil|CornerRadius=0.87mil|HoleSize=0mil|Usage=FLASHONLY|Rotation=270.000|XOffset=0mil|YOffset=0mil|HoleType=Round|Shape=RoundedRectangle|*
%AMROUNDEDRECTD81*
21,1,0.03740,0.00693,0,0,270.0*
21,1,0.03567,0.00866,0,0,270.0*
1,1,0.00173,-0.00347,-0.01784*
1,1,0.00173,-0.00347,0.01784*
1,1,0.00173,0.00347,0.01784*
1,1,0.00173,0.00347,-0.01784*
%
%ADD81ROUNDEDRECTD81*%
G04:AMPARAMS|DCode=82|XSize=37.4mil|YSize=8.66mil|CornerRadius=0.87mil|HoleSize=0mil|Usage=FLASHONLY|Rotation=360.000|XOffset=0mil|YOffset=0mil|HoleType=Round|Shape=RoundedRectangle|*
%AMROUNDEDRECTD82*
21,1,0.03740,0.00693,0,0,360.0*
21,1,0.03567,0.00866,0,0,360.0*
1,1,0.00173,0.01784,-0.00347*
1,1,0.00173,-0.01784,-0.00347*
1,1,0.00173,-0.01784,0.00347*
1,1,0.00173,0.01784,0.00347*
%
%ADD82ROUNDEDRECTD82*%
%ADD83R,0.16535X0.16535*%
%ADD91R,0.02756X0.01181*%
%ADD92R,0.17717X0.09961*%
G04:AMPARAMS|DCode=93|XSize=31.5mil|YSize=15.75mil|CornerRadius=1.58mil|HoleSize=0mil|Usage=FLASHONLY|Rotation=270.000|XOffset=0mil|YOffset=0mil|HoleType=Round|Shape=RoundedRectangle|*
%AMROUNDEDRECTD93*
21,1,0.03150,0.01260,0,0,270.0*
21,1,0.02835,0.01575,0,0,270.0*
1,1,0.00315,-0.00630,-0.01417*
1,1,0.00315,-0.00630,0.01417*
1,1,0.00315,0.00630,0.01417*
1,1,0.00315,0.00630,-0.01417*
%
%ADD93ROUNDEDRECTD93*%
%ADD94R,0.05906X0.04331*%
%ADD95R,0.03150X0.03543*%
G04:AMPARAMS|DCode=96|XSize=52.36mil|YSize=52.36mil|CornerRadius=0mil|HoleSize=0mil|Usage=FLASHONLY|Rotation=360.000|XOffset=0mil|YOffset=0mil|HoleType=Round|Shape=RoundedRectangle|*
%AMROUNDEDRECTD96*
21,1,0.05236,0.05236,0,0,360.0*
21,1,0.05236,0.05236,0,0,360.0*
1,1,0.00000,0.02618,-0.02618*
1,1,0.00000,-0.02618,-0.02618*
1,1,0.00000,-0.02618,0.02618*
1,1,0.00000,0.02618,0.02618*
%
%ADD96ROUNDEDRECTD96*%
G04:AMPARAMS|DCode=97|XSize=35.43mil|YSize=78.74mil|CornerRadius=3.54mil|HoleSize=0mil|Usage=FLASHONLY|Rotation=270.000|XOffset=0mil|YOffset=0mil|HoleType=Round|Shape=RoundedRectangle|*
%AMROUNDEDRECTD97*
21,1,0.03543,0.07165,0,0,270.0*
21,1,0.02835,0.07874,0,0,270.0*
1,1,0.00709,-0.03583,-0.01417*
1,1,0.00709,-0.03583,0.01417*
1,1,0.00709,0.03583,0.01417*
1,1,0.00709,0.03583,-0.01417*
%
%ADD97ROUNDEDRECTD97*%
G04:AMPARAMS|DCode=98|XSize=78.74mil|YSize=35.43mil|CornerRadius=3.54mil|HoleSize=0mil|Usage=FLASHONLY|Rotation=180.000|XOffset=0mil|YOffset=0mil|HoleType=Round|Shape=RoundedRectangle|*
%AMROUNDEDRECTD98*
21,1,0.07874,0.02835,0,0,180.0*
21,1,0.07165,0.03543,0,0,180.0*
1,1,0.00709,-0.03583,0.01417*
1,1,0.00709,0.03583,0.01417*
1,1,0.00709,0.03583,-0.01417*
1,1,0.00709,-0.03583,-0.01417*
%
%ADD98ROUNDEDRECTD98*%
G04:AMPARAMS|DCode=99|XSize=78.74mil|YSize=35.43mil|CornerRadius=3.54mil|HoleSize=0mil|Usage=FLASHONLY|Rotation=270.000|XOffset=0mil|YOffset=0mil|HoleType=Round|Shape=RoundedRectangle|*
%AMROUNDEDRECTD99*
21,1,0.07874,0.02835,0,0,270.0*
21,1,0.07165,0.03543,0,0,270.0*
1,1,0.00709,-0.01417,-0.03583*
1,1,0.00709,-0.01417,0.03583*
1,1,0.00709,0.01417,0.03583*
1,1,0.00709,0.01417,-0.03583*
%
%ADD99ROUNDEDRECTD99*%
%ADD100R,0.02165X0.03150*%
G04:AMPARAMS|DCode=101|XSize=43.31mil|YSize=47.24mil|CornerRadius=4.33mil|HoleSize=0mil|Usage=FLASHONLY|Rotation=315.000|XOffset=0mil|YOffset=0mil|HoleType=Round|Shape=RoundedRectangle|*
%AMROUNDEDRECTD101*
21,1,0.04331,0.03858,0,0,315.0*
21,1,0.03465,0.04724,0,0,315.0*
1,1,0.00866,-0.00139,-0.02589*
1,1,0.00866,-0.02589,-0.00139*
1,1,0.00866,0.00139,0.02589*
1,1,0.00866,0.02589,0.00139*
%
%ADD101ROUNDEDRECTD101*%
G04:AMPARAMS|DCode=102|XSize=25.59mil|YSize=33.47mil|CornerRadius=1.28mil|HoleSize=0mil|Usage=FLASHONLY|Rotation=270.000|XOffset=0mil|YOffset=0mil|HoleType=Round|Shape=RoundedRectangle|*
%AMROUNDEDRECTD102*
21,1,0.02559,0.03091,0,0,270.0*
21,1,0.02303,0.03347,0,0,270.0*
1,1,0.00256,-0.01545,-0.01152*
1,1,0.00256,-0.01545,0.01152*
1,1,0.00256,0.01545,0.01152*
1,1,0.00256,0.01545,-0.01152*
%
%ADD102ROUNDEDRECTD102*%
G04:AMPARAMS|DCode=103|XSize=43.31mil|YSize=51.18mil|CornerRadius=2.17mil|HoleSize=0mil|Usage=FLASHONLY|Rotation=180.000|XOffset=0mil|YOffset=0mil|HoleType=Round|Shape=RoundedRectangle|*
%AMROUNDEDRECTD103*
21,1,0.04331,0.04685,0,0,180.0*
21,1,0.03898,0.05118,0,0,180.0*
1,1,0.00433,-0.01949,0.02343*
1,1,0.00433,0.01949,0.02343*
1,1,0.00433,0.01949,-0.02343*
1,1,0.00433,-0.01949,-0.02343*
%
%ADD103ROUNDEDRECTD103*%
G04:AMPARAMS|DCode=104|XSize=70.87mil|YSize=39.37mil|CornerRadius=3.94mil|HoleSize=0mil|Usage=FLASHONLY|Rotation=180.000|XOffset=0mil|YOffset=0mil|HoleType=Round|Shape=RoundedRectangle|*
%AMROUNDEDRECTD104*
21,1,0.07087,0.03150,0,0,180.0*
21,1,0.06299,0.03937,0,0,180.0*
1,1,0.00787,-0.03150,0.01575*
1,1,0.00787,0.03150,0.01575*
1,1,0.00787,0.03150,-0.01575*
1,1,0.00787,-0.03150,-0.01575*
%
%ADD104ROUNDEDRECTD104*%
%ADD105R,0.02559X0.03347*%
G04:AMPARAMS|DCode=106|XSize=96.46mil|YSize=96.46mil|CornerRadius=4.82mil|HoleSize=0mil|Usage=FLASHONLY|Rotation=180.000|XOffset=0mil|YOffset=0mil|HoleType=Round|Shape=RoundedRectangle|*
%AMROUNDEDRECTD106*
21,1,0.09646,0.08681,0,0,180.0*
21,1,0.08681,0.09646,0,0,180.0*
1,1,0.00965,-0.04341,0.04341*
1,1,0.00965,0.04341,0.04341*
1,1,0.00965,0.04341,-0.04341*
1,1,0.00965,-0.04341,-0.04341*
%
%ADD106ROUNDEDRECTD106*%
G04:AMPARAMS|DCode=107|XSize=23.62mil|YSize=9.45mil|CornerRadius=0.47mil|HoleSize=0mil|Usage=FLASHONLY|Rotation=270.000|XOffset=0mil|YOffset=0mil|HoleType=Round|Shape=RoundedRectangle|*
%AMROUNDEDRECTD107*
21,1,0.02362,0.00850,0,0,270.0*
21,1,0.02268,0.00945,0,0,270.0*
1,1,0.00094,-0.00425,-0.01134*
1,1,0.00094,-0.00425,0.01134*
1,1,0.00094,0.00425,0.01134*
1,1,0.00094,0.00425,-0.01134*
%
%ADD107ROUNDEDRECTD107*%
G04:AMPARAMS|DCode=108|XSize=23.62mil|YSize=9.45mil|CornerRadius=0.47mil|HoleSize=0mil|Usage=FLASHONLY|Rotation=180.000|XOffset=0mil|YOffset=0mil|HoleType=Round|Shape=RoundedRectangle|*
%AMROUNDEDRECTD108*
21,1,0.02362,0.00850,0,0,180.0*
21,1,0.02268,0.00945,0,0,180.0*
1,1,0.00094,-0.01134,0.00425*
1,1,0.00094,0.01134,0.00425*
1,1,0.00094,0.01134,-0.00425*
1,1,0.00094,-0.01134,-0.00425*
%
%ADD108ROUNDEDRECTD108*%
G04:AMPARAMS|DCode=109|XSize=31.5mil|YSize=15.75mil|CornerRadius=1.58mil|HoleSize=0mil|Usage=FLASHONLY|Rotation=360.000|XOffset=0mil|YOffset=0mil|HoleType=Round|Shape=RoundedRectangle|*
%AMROUNDEDRECTD109*
21,1,0.03150,0.01260,0,0,360.0*
21,1,0.02835,0.01575,0,0,360.0*
1,1,0.00315,0.01417,-0.00630*
1,1,0.00315,-0.01417,-0.00630*
1,1,0.00315,-0.01417,0.00630*
1,1,0.00315,0.01417,0.00630*
%
%ADD109ROUNDEDRECTD109*%
G04:AMPARAMS|DCode=110|XSize=70.87mil|YSize=102.36mil|CornerRadius=3.54mil|HoleSize=0mil|Usage=FLASHONLY|Rotation=90.000|XOffset=0mil|YOffset=0mil|HoleType=Round|Shape=RoundedRectangle|*
%AMROUNDEDRECTD110*
21,1,0.07087,0.09528,0,0,90.0*
21,1,0.06378,0.10236,0,0,90.0*
1,1,0.00709,0.04764,0.03189*
1,1,0.00709,0.04764,-0.03189*
1,1,0.00709,-0.04764,-0.03189*
1,1,0.00709,-0.04764,0.03189*
%
%ADD110ROUNDEDRECTD110*%
G04:AMPARAMS|DCode=111|XSize=11.81mil|YSize=21.26mil|CornerRadius=1.18mil|HoleSize=0mil|Usage=FLASHONLY|Rotation=180.000|XOffset=0mil|YOffset=0mil|HoleType=Round|Shape=RoundedRectangle|*
%AMROUNDEDRECTD111*
21,1,0.01181,0.01890,0,0,180.0*
21,1,0.00945,0.02126,0,0,180.0*
1,1,0.00236,-0.00472,0.00945*
1,1,0.00236,0.00472,0.00945*
1,1,0.00236,0.00472,-0.00945*
1,1,0.00236,-0.00472,-0.00945*
%
%ADD111ROUNDEDRECTD111*%
G04:AMPARAMS|DCode=112|XSize=16.54mil|YSize=23.62mil|CornerRadius=1.65mil|HoleSize=0mil|Usage=FLASHONLY|Rotation=270.000|XOffset=0mil|YOffset=0mil|HoleType=Round|Shape=RoundedRectangle|*
%AMROUNDEDRECTD112*
21,1,0.01654,0.02032,0,0,270.0*
21,1,0.01323,0.02362,0,0,270.0*
1,1,0.00331,-0.01016,-0.00661*
1,1,0.00331,-0.01016,0.00661*
1,1,0.00331,0.01016,0.00661*
1,1,0.00331,0.01016,-0.00661*
%
%ADD112ROUNDEDRECTD112*%
G04:AMPARAMS|DCode=113|XSize=16.54mil|YSize=23.62mil|CornerRadius=1.65mil|HoleSize=0mil|Usage=FLASHONLY|Rotation=360.000|XOffset=0mil|YOffset=0mil|HoleType=Round|Shape=RoundedRectangle|*
%AMROUNDEDRECTD113*
21,1,0.01654,0.02032,0,0,360.0*
21,1,0.01323,0.02362,0,0,360.0*
1,1,0.00331,0.00661,-0.01016*
1,1,0.00331,-0.00661,-0.01016*
1,1,0.00331,-0.00661,0.01016*
1,1,0.00331,0.00661,0.01016*
%
%ADD113ROUNDEDRECTD113*%
%ADD114R,0.07874X0.04724*%
%ADD115R,0.00984X0.01968*%
G04:AMPARAMS|DCode=116|XSize=15.75mil|YSize=31.5mil|CornerRadius=1.58mil|HoleSize=0mil|Usage=FLASHONLY|Rotation=360.000|XOffset=0mil|YOffset=0mil|HoleType=Round|Shape=RoundedRectangle|*
%AMROUNDEDRECTD116*
21,1,0.01575,0.02835,0,0,360.0*
21,1,0.01260,0.03150,0,0,360.0*
1,1,0.00315,0.00630,-0.01417*
1,1,0.00315,-0.00630,-0.01417*
1,1,0.00315,-0.00630,0.01417*
1,1,0.00315,0.00630,0.01417*
%
%ADD116ROUNDEDRECTD116*%
G04:AMPARAMS|DCode=117|XSize=13.78mil|YSize=53.15mil|CornerRadius=1.38mil|HoleSize=0mil|Usage=FLASHONLY|Rotation=180.000|XOffset=0mil|YOffset=0mil|HoleType=Round|Shape=RoundedRectangle|*
%AMROUNDEDRECTD117*
21,1,0.01378,0.05039,0,0,180.0*
21,1,0.01102,0.05315,0,0,180.0*
1,1,0.00276,-0.00551,0.02520*
1,1,0.00276,0.00551,0.02520*
1,1,0.00276,0.00551,-0.02520*
1,1,0.00276,-0.00551,-0.02520*
%
%ADD117ROUNDEDRECTD117*%
G04:AMPARAMS|DCode=118|XSize=11.02mil|YSize=27.56mil|CornerRadius=0.55mil|HoleSize=0mil|Usage=FLASHONLY|Rotation=180.000|XOffset=0mil|YOffset=0mil|HoleType=Round|Shape=RoundedRectangle|*
%AMROUNDEDRECTD118*
21,1,0.01102,0.02646,0,0,180.0*
21,1,0.00992,0.02756,0,0,180.0*
1,1,0.00110,-0.00496,0.01323*
1,1,0.00110,0.00496,0.01323*
1,1,0.00110,0.00496,-0.01323*
1,1,0.00110,-0.00496,-0.01323*
%
%ADD118ROUNDEDRECTD118*%
%ADD119R,0.06693X0.06693*%
G04:AMPARAMS|DCode=120|XSize=11.02mil|YSize=27.56mil|CornerRadius=0.55mil|HoleSize=0mil|Usage=FLASHONLY|Rotation=90.000|XOffset=0mil|YOffset=0mil|HoleType=Round|Shape=RoundedRectangle|*
%AMROUNDEDRECTD120*
21,1,0.01102,0.02646,0,0,90.0*
21,1,0.00992,0.02756,0,0,90.0*
1,1,0.00110,0.01323,0.00496*
1,1,0.00110,0.01323,-0.00496*
1,1,0.00110,-0.01323,-0.00496*
1,1,0.00110,-0.01323,0.00496*
%
%ADD120ROUNDEDRECTD120*%
%ADD121R,0.04134X0.02362*%
%ADD122R,0.12600X0.12600*%
G04:AMPARAMS|DCode=123|XSize=9.84mil|YSize=31.5mil|CornerRadius=2.46mil|HoleSize=0mil|Usage=FLASHONLY|Rotation=90.000|XOffset=0mil|YOffset=0mil|HoleType=Round|Shape=RoundedRectangle|*
%AMROUNDEDRECTD123*
21,1,0.00984,0.02657,0,0,90.0*
21,1,0.00492,0.03150,0,0,90.0*
1,1,0.00492,0.01329,0.00246*
1,1,0.00492,0.01329,-0.00246*
1,1,0.00492,-0.01329,-0.00246*
1,1,0.00492,-0.01329,0.00246*
%
%ADD123ROUNDEDRECTD123*%
G04:AMPARAMS|DCode=124|XSize=9.84mil|YSize=31.5mil|CornerRadius=2.46mil|HoleSize=0mil|Usage=FLASHONLY|Rotation=180.000|XOffset=0mil|YOffset=0mil|HoleType=Round|Shape=RoundedRectangle|*
%AMROUNDEDRECTD124*
21,1,0.00984,0.02657,0,0,180.0*
21,1,0.00492,0.03150,0,0,180.0*
1,1,0.00492,-0.00246,0.01329*
1,1,0.00492,0.00246,0.01329*
1,1,0.00492,0.00246,-0.01329*
1,1,0.00492,-0.00246,-0.01329*
%
%ADD124ROUNDEDRECTD124*%
%ADD125R,0.10039X0.10039*%
%ADD126O,0.03150X0.00984*%
%ADD127O,0.00984X0.03150*%
G04:AMPARAMS|DCode=128|XSize=61.42mil|YSize=11.02mil|CornerRadius=1.38mil|HoleSize=0mil|Usage=FLASHONLY|Rotation=180.000|XOffset=0mil|YOffset=0mil|HoleType=Round|Shape=RoundedRectangle|*
%AMROUNDEDRECTD128*
21,1,0.06142,0.00827,0,0,180.0*
21,1,0.05866,0.01102,0,0,180.0*
1,1,0.00276,-0.02933,0.00413*
1,1,0.00276,0.02933,0.00413*
1,1,0.00276,0.02933,-0.00413*
1,1,0.00276,-0.02933,-0.00413*
%
%ADD128ROUNDEDRECTD128*%
G04:AMPARAMS|DCode=129|XSize=61.42mil|YSize=11.02mil|CornerRadius=1.38mil|HoleSize=0mil|Usage=FLASHONLY|Rotation=270.000|XOffset=0mil|YOffset=0mil|HoleType=Round|Shape=RoundedRectangle|*
%AMROUNDEDRECTD129*
21,1,0.06142,0.00827,0,0,270.0*
21,1,0.05866,0.01102,0,0,270.0*
1,1,0.00276,-0.00413,-0.02933*
1,1,0.00276,-0.00413,0.02933*
1,1,0.00276,0.00413,0.02933*
1,1,0.00276,0.00413,-0.02933*
%
%ADD129ROUNDEDRECTD129*%
G04:AMPARAMS|DCode=130|XSize=9.84mil|YSize=33.47mil|CornerRadius=2.46mil|HoleSize=0mil|Usage=FLASHONLY|Rotation=360.000|XOffset=0mil|YOffset=0mil|HoleType=Round|Shape=RoundedRectangle|*
%AMROUNDEDRECTD130*
21,1,0.00984,0.02854,0,0,360.0*
21,1,0.00492,0.03347,0,0,360.0*
1,1,0.00492,0.00246,-0.01427*
1,1,0.00492,-0.00246,-0.01427*
1,1,0.00492,-0.00246,0.01427*
1,1,0.00492,0.00246,0.01427*
%
%ADD130ROUNDEDRECTD130*%
G04:AMPARAMS|DCode=131|XSize=9.84mil|YSize=33.47mil|CornerRadius=2.46mil|HoleSize=0mil|Usage=FLASHONLY|Rotation=90.000|XOffset=0mil|YOffset=0mil|HoleType=Round|Shape=RoundedRectangle|*
%AMROUNDEDRECTD131*
21,1,0.00984,0.02854,0,0,90.0*
21,1,0.00492,0.03347,0,0,90.0*
1,1,0.00492,0.01427,0.00246*
1,1,0.00492,0.01427,-0.00246*
1,1,0.00492,-0.01427,-0.00246*
1,1,0.00492,-0.01427,0.00246*
%
%ADD131ROUNDEDRECTD131*%
%ADD132R,0.02264X0.01378*%
%ADD133R,0.01378X0.02264*%
%ADD134R,0.02953X0.01378*%
%ADD135R,0.01378X0.02953*%
G04:AMPARAMS|DCode=136|XSize=11.81mil|YSize=53.15mil|CornerRadius=2.95mil|HoleSize=0mil|Usage=FLASHONLY|Rotation=180.000|XOffset=0mil|YOffset=0mil|HoleType=Round|Shape=RoundedRectangle|*
%AMROUNDEDRECTD136*
21,1,0.01181,0.04724,0,0,180.0*
21,1,0.00591,0.05315,0,0,180.0*
1,1,0.00591,-0.00295,0.02362*
1,1,0.00591,0.00295,0.02362*
1,1,0.00591,0.00295,-0.02362*
1,1,0.00591,-0.00295,-0.02362*
%
%ADD136ROUNDEDRECTD136*%
G04:AMPARAMS|DCode=137|XSize=11.81mil|YSize=53.15mil|CornerRadius=2.95mil|HoleSize=0mil|Usage=FLASHONLY|Rotation=90.000|XOffset=0mil|YOffset=0mil|HoleType=Round|Shape=RoundedRectangle|*
%AMROUNDEDRECTD137*
21,1,0.01181,0.04724,0,0,90.0*
21,1,0.00591,0.05315,0,0,90.0*
1,1,0.00591,0.02362,0.00295*
1,1,0.00591,0.02362,-0.00295*
1,1,0.00591,-0.02362,-0.00295*
1,1,0.00591,-0.02362,0.00295*
%
%ADD137ROUNDEDRECTD137*%
G04:AMPARAMS|DCode=138|XSize=23.62mil|YSize=25.59mil|CornerRadius=2.36mil|HoleSize=0mil|Usage=FLASHONLY|Rotation=270.000|XOffset=0mil|YOffset=0mil|HoleType=Round|Shape=RoundedRectangle|*
%AMROUNDEDRECTD138*
21,1,0.02362,0.02087,0,0,270.0*
21,1,0.01890,0.02559,0,0,270.0*
1,1,0.00472,-0.01043,-0.00945*
1,1,0.00472,-0.01043,0.00945*
1,1,0.00472,0.01043,0.00945*
1,1,0.00472,0.01043,-0.00945*
%
%ADD138ROUNDEDRECTD138*%
G04:AMPARAMS|DCode=139|XSize=27.56mil|YSize=13.78mil|CornerRadius=1.38mil|HoleSize=0mil|Usage=FLASHONLY|Rotation=90.000|XOffset=0mil|YOffset=0mil|HoleType=Round|Shape=RoundedRectangle|*
%AMROUNDEDRECTD139*
21,1,0.02756,0.01102,0,0,90.0*
21,1,0.02480,0.01378,0,0,90.0*
1,1,0.00276,0.00551,0.01240*
1,1,0.00276,0.00551,-0.01240*
1,1,0.00276,-0.00551,-0.01240*
1,1,0.00276,-0.00551,0.01240*
%
%ADD139ROUNDEDRECTD139*%
%ADD140R,0.03543X0.03150*%
%ADD141R,0.02201X0.02850*%
%ADD142R,0.16700X0.15000*%
G04:AMPARAMS|DCode=143|XSize=85.83mil|YSize=63.78mil|CornerRadius=15.95mil|HoleSize=0mil|Usage=FLASHONLY|Rotation=270.000|XOffset=0mil|YOffset=0mil|HoleType=Round|Shape=RoundedRectangle|*
%AMROUNDEDRECTD143*
21,1,0.08583,0.03189,0,0,270.0*
21,1,0.05394,0.06378,0,0,270.0*
1,1,0.03189,-0.01595,-0.02697*
1,1,0.03189,-0.01595,0.02697*
1,1,0.03189,0.01595,0.02697*
1,1,0.03189,0.01595,-0.02697*
%
%ADD143ROUNDEDRECTD143*%
%ADD144R,0.03150X0.03150*%
G04:AMPARAMS|DCode=145|XSize=88.98mil|YSize=85.04mil|CornerRadius=21.26mil|HoleSize=0mil|Usage=FLASHONLY|Rotation=270.000|XOffset=0mil|YOffset=0mil|HoleType=Round|Shape=RoundedRectangle|*
%AMROUNDEDRECTD145*
21,1,0.08898,0.04252,0,0,270.0*
21,1,0.04646,0.08504,0,0,270.0*
1,1,0.04252,-0.02126,-0.02323*
1,1,0.04252,-0.02126,0.02323*
1,1,0.04252,0.02126,0.02323*
1,1,0.04252,0.02126,-0.02323*
%
%ADD145ROUNDEDRECTD145*%
%ADD146R,0.02559X0.02362*%
%ADD147R,0.02362X0.02756*%
%ADD148R,0.06378X0.12638*%
G04:AMPARAMS|DCode=149|XSize=71mil|YSize=47mil|CornerRadius=7.99mil|HoleSize=0mil|Usage=FLASHONLY|Rotation=180.000|XOffset=0mil|YOffset=0mil|HoleType=Round|Shape=RoundedRectangle|*
%AMROUNDEDRECTD149*
21,1,0.07100,0.03102,0,0,180.0*
21,1,0.05502,0.04700,0,0,180.0*
1,1,0.01598,-0.02751,0.01551*
1,1,0.01598,0.02751,0.01551*
1,1,0.01598,0.02751,-0.01551*
1,1,0.01598,-0.02751,-0.01551*
%
%ADD149ROUNDEDRECTD149*%
G04:AMPARAMS|DCode=150|XSize=20mil|YSize=20mil|CornerRadius=6mil|HoleSize=0mil|Usage=FLASHONLY|Rotation=45.000|XOffset=0mil|YOffset=0mil|HoleType=Round|Shape=RoundedRectangle|*
%AMROUNDEDRECTD150*
21,1,0.02000,0.00800,0,0,45.0*
21,1,0.00800,0.02000,0,0,45.0*
1,1,0.01200,0.00566,0.00000*
1,1,0.01200,0.00000,-0.00566*
1,1,0.01200,-0.00566,0.00000*
1,1,0.01200,0.00000,0.00566*
%
%ADD150ROUNDEDRECTD150*%
G04:AMPARAMS|DCode=151|XSize=20mil|YSize=20mil|CornerRadius=6mil|HoleSize=0mil|Usage=FLASHONLY|Rotation=135.000|XOffset=0mil|YOffset=0mil|HoleType=Round|Shape=RoundedRectangle|*
%AMROUNDEDRECTD151*
21,1,0.02000,0.00800,0,0,135.0*
21,1,0.00800,0.02000,0,0,135.0*
1,1,0.01200,0.00000,0.00566*
1,1,0.01200,0.00566,0.00000*
1,1,0.01200,0.00000,-0.00566*
1,1,0.01200,-0.00566,0.00000*
%
%ADD151ROUNDEDRECTD151*%
G04:AMPARAMS|DCode=152|XSize=62.99mil|YSize=137.8mil|CornerRadius=7.87mil|HoleSize=0mil|Usage=FLASHONLY|Rotation=360.000|XOffset=0mil|YOffset=0mil|HoleType=Round|Shape=RoundedRectangle|*
%AMROUNDEDRECTD152*
21,1,0.06299,0.12205,0,0,360.0*
21,1,0.04724,0.13780,0,0,360.0*
1,1,0.01575,0.02362,-0.06102*
1,1,0.01575,-0.02362,-0.06102*
1,1,0.01575,-0.02362,0.06102*
1,1,0.01575,0.02362,0.06102*
%
%ADD152ROUNDEDRECTD152*%
G04:AMPARAMS|DCode=153|XSize=27.56mil|YSize=13.78mil|CornerRadius=1.38mil|HoleSize=0mil|Usage=FLASHONLY|Rotation=360.000|XOffset=0mil|YOffset=0mil|HoleType=Round|Shape=RoundedRectangle|*
%AMROUNDEDRECTD153*
21,1,0.02756,0.01102,0,0,360.0*
21,1,0.02480,0.01378,0,0,360.0*
1,1,0.00276,0.01240,-0.00551*
1,1,0.00276,-0.01240,-0.00551*
1,1,0.00276,-0.01240,0.00551*
1,1,0.00276,0.01240,0.00551*
%
%ADD153ROUNDEDRECTD153*%
G04:AMPARAMS|DCode=154|XSize=23.62mil|YSize=25.59mil|CornerRadius=2.36mil|HoleSize=0mil|Usage=FLASHONLY|Rotation=360.000|XOffset=0mil|YOffset=0mil|HoleType=Round|Shape=RoundedRectangle|*
%AMROUNDEDRECTD154*
21,1,0.02362,0.02087,0,0,360.0*
21,1,0.01890,0.02559,0,0,360.0*
1,1,0.00472,0.00945,-0.01043*
1,1,0.00472,-0.00945,-0.01043*
1,1,0.00472,-0.00945,0.01043*
1,1,0.00472,0.00945,0.01043*
%
%ADD154ROUNDEDRECTD154*%
G04:AMPARAMS|DCode=155|XSize=21.65mil|YSize=39.37mil|CornerRadius=2.17mil|HoleSize=0mil|Usage=FLASHONLY|Rotation=360.000|XOffset=0mil|YOffset=0mil|HoleType=Round|Shape=RoundedRectangle|*
%AMROUNDEDRECTD155*
21,1,0.02165,0.03504,0,0,360.0*
21,1,0.01732,0.03937,0,0,360.0*
1,1,0.00433,0.00866,-0.01752*
1,1,0.00433,-0.00866,-0.01752*
1,1,0.00433,-0.00866,0.01752*
1,1,0.00433,0.00866,0.01752*
%
%ADD155ROUNDEDRECTD155*%
G04:AMPARAMS|DCode=156|XSize=62.99mil|YSize=137.8mil|CornerRadius=7.87mil|HoleSize=0mil|Usage=FLASHONLY|Rotation=270.000|XOffset=0mil|YOffset=0mil|HoleType=Round|Shape=RoundedRectangle|*
%AMROUNDEDRECTD156*
21,1,0.06299,0.12205,0,0,270.0*
21,1,0.04724,0.13780,0,0,270.0*
1,1,0.01575,-0.06102,-0.02362*
1,1,0.01575,-0.06102,0.02362*
1,1,0.01575,0.06102,0.02362*
1,1,0.01575,0.06102,-0.02362*
%
%ADD156ROUNDEDRECTD156*%
G04:AMPARAMS|DCode=157|XSize=15.75mil|YSize=53.15mil|CornerRadius=3.94mil|HoleSize=0mil|Usage=FLASHONLY|Rotation=360.000|XOffset=0mil|YOffset=0mil|HoleType=Round|Shape=RoundedRectangle|*
%AMROUNDEDRECTD157*
21,1,0.01575,0.04528,0,0,360.0*
21,1,0.00787,0.05315,0,0,360.0*
1,1,0.00787,0.00394,-0.02264*
1,1,0.00787,-0.00394,-0.02264*
1,1,0.00787,-0.00394,0.02264*
1,1,0.00787,0.00394,0.02264*
%
%ADD157ROUNDEDRECTD157*%
%ADD158R,0.07480X0.06102*%
%ADD159R,0.06299X0.05512*%
%ADD163O,0.03740X0.02559*%
%ADD164O,0.03150X0.05512*%
%ADD165C,0.02559*%
%ADD166C,0.09449*%
%ADD167C,0.06299*%
%ADD168R,0.06299X0.06299*%
%ADD169C,0.04331*%
%ADD170C,0.24410*%
%ADD172O,0.05512X0.03150*%
%ADD173O,0.02559X0.03740*%
%ADD174C,0.06000*%
%ADD175R,0.06500X0.06500*%
%ADD176C,0.06500*%
%ADD177C,0.11024*%
%ADD178R,0.11024X0.11024*%
%ADD179C,0.08300*%
%ADD180C,0.14800*%
%ADD181C,0.06100*%
%ADD182C,0.05500*%
%ADD183R,0.05500X0.05500*%
%ADD184O,0.07874X0.19685*%
%ADD185O,0.19685X0.07874*%
%ADD186C,0.07087*%
%ADD187R,0.07087X0.07087*%
G04:AMPARAMS|DCode=188|XSize=35.43mil|YSize=62.99mil|CornerRadius=17.72mil|HoleSize=0mil|Usage=FLASHONLY|Rotation=360.000|XOffset=0mil|YOffset=0mil|HoleType=Round|Shape=RoundedRectangle|*
%AMROUNDEDRECTD188*
21,1,0.03543,0.02756,0,0,360.0*
21,1,0.00000,0.06299,0,0,360.0*
1,1,0.03543,0.00000,-0.01378*
1,1,0.03543,0.00000,-0.01378*
1,1,0.03543,0.00000,0.01378*
1,1,0.03543,0.00000,0.01378*
%
%ADD188ROUNDEDRECTD188*%
%ADD189C,0.05945*%
%ADD190R,0.05945X0.05945*%
%ADD191C,0.07284*%
%ADD192R,0.07284X0.07284*%
D10*
X619657Y333228D02*
D03*
X908991Y39591D02*
D03*
X1013670Y577132D02*
D03*
X441945Y77250D02*
D03*
X243033Y558286D02*
D03*
X91607Y45326D02*
D03*
X963312Y134531D02*
D03*
X993997Y153447D02*
D03*
X1002254Y154235D02*
D03*
X897146Y233681D02*
D03*
X1022192Y171033D02*
D03*
X1014140Y170630D02*
D03*
X1019776Y256017D02*
D03*
X936441Y213272D02*
D03*
X978588Y123311D02*
D03*
X966672Y113388D02*
D03*
X972651Y118451D02*
D03*
X707406Y134530D02*
D03*
X738092Y153446D02*
D03*
X746348Y154233D02*
D03*
X641240Y233680D02*
D03*
X766287Y171032D02*
D03*
X758234Y170628D02*
D03*
X763870Y256015D02*
D03*
X680536Y213270D02*
D03*
X722682Y123310D02*
D03*
X710767Y113386D02*
D03*
X716745Y118449D02*
D03*
X707406Y398756D02*
D03*
X738092Y417671D02*
D03*
X746348Y418459D02*
D03*
X641240Y497905D02*
D03*
X766287Y435257D02*
D03*
X758234Y434854D02*
D03*
X763870Y520241D02*
D03*
X680536Y477496D02*
D03*
X722682Y387535D02*
D03*
X710767Y377612D02*
D03*
X716745Y382675D02*
D03*
X884262Y498700D02*
D03*
X982712Y394357D02*
D03*
X1034628Y498709D02*
D03*
X77881Y367606D02*
D03*
X440689Y196153D02*
D03*
X140570Y196325D02*
D03*
X464997Y341986D02*
D03*
X325442Y312078D02*
D03*
X403535Y470544D02*
D03*
X261802D02*
D03*
X120070D02*
D03*
X332668D02*
D03*
X190936D02*
D03*
X49204D02*
D03*
X150170Y133782D02*
D03*
Y148753D02*
D03*
Y118810D02*
D03*
Y163725D02*
D03*
Y103838D02*
D03*
X186070Y512325D02*
D03*
X83270Y351625D02*
D03*
X358442Y108449D02*
D03*
D25*
X948745Y266579D02*
D03*
X940871Y266579D02*
D03*
X956619Y266579D02*
D03*
X938902Y266579D02*
D03*
X946776Y266579D02*
D03*
X944808Y266579D02*
D03*
X942840Y266579D02*
D03*
X954651Y266579D02*
D03*
X952682D02*
D03*
X950714D02*
D03*
X960556Y266579D02*
D03*
X958588D02*
D03*
X939887Y259886D02*
D03*
X937918D02*
D03*
X947761Y259886D02*
D03*
X941855Y259886D02*
D03*
X943824D02*
D03*
X945792Y259886D02*
D03*
X949729D02*
D03*
X951698Y259886D02*
D03*
X953666D02*
D03*
X955635Y259886D02*
D03*
X959572Y259886D02*
D03*
X957603Y259886D02*
D03*
X692839Y266578D02*
D03*
X684966Y266578D02*
D03*
X700714Y266578D02*
D03*
X682997Y266578D02*
D03*
X690871Y266578D02*
D03*
X688903Y266578D02*
D03*
X686934Y266578D02*
D03*
X698745Y266578D02*
D03*
X696776D02*
D03*
X694808D02*
D03*
X704650Y266578D02*
D03*
X702682D02*
D03*
X683981Y259885D02*
D03*
X682013D02*
D03*
X691855Y259885D02*
D03*
X685950Y259885D02*
D03*
X687918D02*
D03*
X689887Y259885D02*
D03*
X693824D02*
D03*
X695792Y259885D02*
D03*
X697761D02*
D03*
X699729Y259885D02*
D03*
X703666Y259885D02*
D03*
X701698Y259885D02*
D03*
X692839Y530803D02*
D03*
X684966Y530803D02*
D03*
X700714Y530803D02*
D03*
X682997Y530803D02*
D03*
X690871Y530803D02*
D03*
X688903Y530803D02*
D03*
X686934Y530803D02*
D03*
X698745Y530803D02*
D03*
X696776D02*
D03*
X694808D02*
D03*
X704650Y530803D02*
D03*
X702682D02*
D03*
X683981Y524110D02*
D03*
X682013D02*
D03*
X691855Y524110D02*
D03*
X685950Y524110D02*
D03*
X687918D02*
D03*
X689887Y524110D02*
D03*
X693824D02*
D03*
X695792Y524110D02*
D03*
X697761D02*
D03*
X699729Y524110D02*
D03*
X703666Y524110D02*
D03*
X701698Y524110D02*
D03*
X448819Y500157D02*
D03*
X440945D02*
D03*
X456693D02*
D03*
X438976D02*
D03*
X446850D02*
D03*
X444882D02*
D03*
X442913D02*
D03*
X454725D02*
D03*
X452756D02*
D03*
X450787D02*
D03*
X460630D02*
D03*
X458662D02*
D03*
X439961Y493464D02*
D03*
X437992D02*
D03*
X447835D02*
D03*
X441929D02*
D03*
X443898D02*
D03*
X445866D02*
D03*
X449803D02*
D03*
X451772D02*
D03*
X453740D02*
D03*
X455709D02*
D03*
X459646D02*
D03*
X457677D02*
D03*
X294488Y500158D02*
D03*
X286614D02*
D03*
X302362D02*
D03*
X284646D02*
D03*
X292519D02*
D03*
X290551D02*
D03*
X288582D02*
D03*
X300394D02*
D03*
X298425D02*
D03*
X296457D02*
D03*
X306299D02*
D03*
X304330D02*
D03*
X285630Y493465D02*
D03*
X283661D02*
D03*
X293504D02*
D03*
X287598D02*
D03*
X289567D02*
D03*
X291535D02*
D03*
X295472D02*
D03*
X297441D02*
D03*
X299409D02*
D03*
X301378D02*
D03*
X305315D02*
D03*
X303346D02*
D03*
X140157Y500156D02*
D03*
X132283D02*
D03*
X148031D02*
D03*
X130314D02*
D03*
X138189D02*
D03*
X136220D02*
D03*
X134251D02*
D03*
X146063D02*
D03*
X144094D02*
D03*
X142125D02*
D03*
X151968D02*
D03*
X149999D02*
D03*
X131299Y493464D02*
D03*
X129330D02*
D03*
X139173D02*
D03*
X133267D02*
D03*
X135236D02*
D03*
X137204D02*
D03*
X141141D02*
D03*
X143110D02*
D03*
X145078D02*
D03*
X147047D02*
D03*
X150984D02*
D03*
X149015D02*
D03*
X371654Y500157D02*
D03*
X363779D02*
D03*
X379527D02*
D03*
X361811D02*
D03*
X369685D02*
D03*
X367717D02*
D03*
X365748D02*
D03*
X377559D02*
D03*
X375590D02*
D03*
X373622D02*
D03*
X383465D02*
D03*
X381496D02*
D03*
X362795Y493464D02*
D03*
X360827D02*
D03*
X370669D02*
D03*
X364764D02*
D03*
X366732D02*
D03*
X368701D02*
D03*
X372638D02*
D03*
X374606D02*
D03*
X376575D02*
D03*
X378543D02*
D03*
X382480D02*
D03*
X380512D02*
D03*
X217322Y500158D02*
D03*
X209449D02*
D03*
X225197D02*
D03*
X207480D02*
D03*
X215354D02*
D03*
X213386D02*
D03*
X211417D02*
D03*
X223228D02*
D03*
X221259D02*
D03*
X219291D02*
D03*
X229134D02*
D03*
X227165D02*
D03*
X208464Y493465D02*
D03*
X206496D02*
D03*
X216338D02*
D03*
X210433D02*
D03*
X212401D02*
D03*
X214370D02*
D03*
X218307D02*
D03*
X220275D02*
D03*
X222244D02*
D03*
X224212D02*
D03*
X228149D02*
D03*
X226181D02*
D03*
X62991Y500156D02*
D03*
X55117D02*
D03*
X70865D02*
D03*
X53149D02*
D03*
X61023D02*
D03*
X59054D02*
D03*
X57086D02*
D03*
X68897D02*
D03*
X66928D02*
D03*
X64960D02*
D03*
X74803D02*
D03*
X72834D02*
D03*
X54133Y493464D02*
D03*
X52165D02*
D03*
X62007D02*
D03*
X56102D02*
D03*
X58070D02*
D03*
X60039D02*
D03*
X63976D02*
D03*
X65944D02*
D03*
X67913D02*
D03*
X69881D02*
D03*
X73818D02*
D03*
X71850D02*
D03*
D26*
X857534Y161478D02*
D03*
X601629Y161476D02*
D03*
Y425702D02*
D03*
D27*
X856156Y144706D02*
D03*
Y178249D02*
D03*
X600251Y144705D02*
D03*
Y178248D02*
D03*
Y408930D02*
D03*
Y442473D02*
D03*
D28*
X936500Y244132D02*
D03*
X939531Y242382D02*
D03*
X680594Y244130D02*
D03*
X683625Y242380D02*
D03*
X680594Y508356D02*
D03*
X683625Y506606D02*
D03*
D29*
X934276Y231283D02*
D03*
X678371Y231282D02*
D03*
Y495508D02*
D03*
D30*
X941757Y234236D02*
D03*
X941757Y232268D02*
D03*
Y230299D02*
D03*
X941757Y228331D02*
D03*
X926796D02*
D03*
Y230299D02*
D03*
Y232268D02*
D03*
Y234236D02*
D03*
X685851Y234235D02*
D03*
X685851Y232266D02*
D03*
Y230298D02*
D03*
X685851Y228329D02*
D03*
X670891D02*
D03*
Y230298D02*
D03*
Y232266D02*
D03*
Y234235D02*
D03*
X685851Y498460D02*
D03*
X685851Y496492D02*
D03*
Y494523D02*
D03*
X685851Y492555D02*
D03*
X670891D02*
D03*
Y494523D02*
D03*
Y496492D02*
D03*
Y498460D02*
D03*
D31*
X937229Y223803D02*
D03*
X935261D02*
D03*
X933292D02*
D03*
X931324D02*
D03*
Y238764D02*
D03*
X933292D02*
D03*
X935261D02*
D03*
X937229D02*
D03*
X681324Y223802D02*
D03*
X679355D02*
D03*
X677387D02*
D03*
X675418D02*
D03*
Y238762D02*
D03*
X677387D02*
D03*
X679355D02*
D03*
X681324D02*
D03*
Y488027D02*
D03*
X679355D02*
D03*
X677387D02*
D03*
X675418D02*
D03*
Y502988D02*
D03*
X677387D02*
D03*
X679355D02*
D03*
X681324D02*
D03*
D32*
X955899Y159762D02*
D03*
X967299D02*
D03*
X894547Y268809D02*
D03*
X905947D02*
D03*
X883462Y132020D02*
D03*
X894862D02*
D03*
X699994Y159761D02*
D03*
X711394D02*
D03*
X638641Y268808D02*
D03*
X650041D02*
D03*
X627556Y132018D02*
D03*
X638956D02*
D03*
X699994Y423986D02*
D03*
X711394D02*
D03*
X638641Y533033D02*
D03*
X650041D02*
D03*
X627556Y396244D02*
D03*
X638956D02*
D03*
X231570Y138625D02*
D03*
X220170D02*
D03*
X231570Y129320D02*
D03*
X220170D02*
D03*
D33*
X891378Y247404D02*
D03*
X890099Y249620D02*
D03*
X888819Y251836D02*
D03*
X884730Y243565D02*
D03*
X883450Y245782D02*
D03*
X882171Y247998D02*
D03*
X635473Y247403D02*
D03*
X634193Y249619D02*
D03*
X632914Y251835D02*
D03*
X628824Y243564D02*
D03*
X627545Y245780D02*
D03*
X626265Y247996D02*
D03*
X635473Y511628D02*
D03*
X634193Y513844D02*
D03*
X632914Y516060D02*
D03*
X628824Y507790D02*
D03*
X627545Y510006D02*
D03*
X626265Y512222D02*
D03*
D34*
X886775Y247701D02*
D03*
X630869Y247700D02*
D03*
Y511925D02*
D03*
D35*
X904640Y107554D02*
D03*
X648734Y107553D02*
D03*
Y371778D02*
D03*
D36*
X907836Y105709D02*
D03*
X906754Y103833D02*
D03*
X908919Y107584D02*
D03*
X900361Y107524D02*
D03*
X902526Y111275D02*
D03*
X901443Y109399D02*
D03*
X904640Y107554D02*
D03*
X651931Y105707D02*
D03*
X650848Y103832D02*
D03*
X653014Y107582D02*
D03*
X644455Y107523D02*
D03*
X646621Y111273D02*
D03*
X645538Y109398D02*
D03*
X648734Y107553D02*
D03*
X651931Y369933D02*
D03*
X650848Y368057D02*
D03*
X653014Y371808D02*
D03*
X644455Y371748D02*
D03*
X646621Y375499D02*
D03*
X645538Y373624D02*
D03*
X648734Y371778D02*
D03*
D37*
X907101Y111816D02*
D03*
X902179Y103292D02*
D03*
X651195Y111815D02*
D03*
X646274Y103291D02*
D03*
X651195Y376040D02*
D03*
X646274Y367516D02*
D03*
D38*
X992544Y145542D02*
D03*
X996044D02*
D03*
X922305Y209129D02*
D03*
X925805D02*
D03*
X922306Y213646D02*
D03*
X925806D02*
D03*
X1035481Y178429D02*
D03*
X1031981D02*
D03*
X932582Y242898D02*
D03*
X929082D02*
D03*
X1004339Y198770D02*
D03*
X1007839D02*
D03*
X1004371Y202830D02*
D03*
X1007871D02*
D03*
X993814Y238053D02*
D03*
X990314D02*
D03*
X1003645Y238272D02*
D03*
X1000145D02*
D03*
X865227Y206426D02*
D03*
X861727D02*
D03*
X961576Y172358D02*
D03*
X965076Y172358D02*
D03*
X974981Y199445D02*
D03*
X971481Y199445D02*
D03*
X902513Y180119D02*
D03*
X906013D02*
D03*
X903600Y168243D02*
D03*
X900100Y168243D02*
D03*
X901976Y158031D02*
D03*
X898476D02*
D03*
X894484Y158047D02*
D03*
X890984D02*
D03*
X895643Y153985D02*
D03*
X899143D02*
D03*
X895643Y149972D02*
D03*
X899143Y149972D02*
D03*
X891826Y153926D02*
D03*
X888326D02*
D03*
X891826Y149943D02*
D03*
X888326Y149943D02*
D03*
X895643Y145960D02*
D03*
X899143D02*
D03*
X891826D02*
D03*
X888326D02*
D03*
X887234Y161858D02*
D03*
X883735D02*
D03*
X887234Y166024D02*
D03*
X883735D02*
D03*
X913092Y142486D02*
D03*
X909592D02*
D03*
X909746Y146624D02*
D03*
X906246D02*
D03*
X914871Y178347D02*
D03*
X918371Y178347D02*
D03*
X909952Y184690D02*
D03*
X906452D02*
D03*
X938882Y159704D02*
D03*
X942382D02*
D03*
X736638Y145540D02*
D03*
X740138D02*
D03*
X666399Y209127D02*
D03*
X669899D02*
D03*
X666400Y213644D02*
D03*
X669900D02*
D03*
X779576Y178428D02*
D03*
X776076D02*
D03*
X676676Y242896D02*
D03*
X673176D02*
D03*
X748434Y198769D02*
D03*
X751934D02*
D03*
X748465Y202829D02*
D03*
X751965D02*
D03*
X737909Y238052D02*
D03*
X734409D02*
D03*
X747739Y238270D02*
D03*
X744239D02*
D03*
X609322Y206425D02*
D03*
X605822D02*
D03*
X705670Y172357D02*
D03*
X709170Y172357D02*
D03*
X719075Y199443D02*
D03*
X715575Y199443D02*
D03*
X646607Y180118D02*
D03*
X650107D02*
D03*
X647694Y168242D02*
D03*
X644194Y168242D02*
D03*
X646070Y158030D02*
D03*
X642570D02*
D03*
X638578Y158045D02*
D03*
X635078D02*
D03*
X639738Y153983D02*
D03*
X643238D02*
D03*
X639738Y149971D02*
D03*
X643238Y149971D02*
D03*
X635921Y153925D02*
D03*
X632421D02*
D03*
X635921Y149942D02*
D03*
X632421Y149942D02*
D03*
X639738Y145959D02*
D03*
X643238D02*
D03*
X635921D02*
D03*
X632421D02*
D03*
X631329Y161857D02*
D03*
X627829D02*
D03*
X631329Y166023D02*
D03*
X627829D02*
D03*
X657187Y142485D02*
D03*
X653687D02*
D03*
X653840Y146623D02*
D03*
X650340D02*
D03*
X658966Y178346D02*
D03*
X662466Y178346D02*
D03*
X654046Y184689D02*
D03*
X650547D02*
D03*
X682977Y159703D02*
D03*
X686477D02*
D03*
X736638Y409766D02*
D03*
X740138D02*
D03*
X666399Y473353D02*
D03*
X669899D02*
D03*
X666400Y477870D02*
D03*
X669900D02*
D03*
X779576Y442653D02*
D03*
X776076D02*
D03*
X676676Y507122D02*
D03*
X673176D02*
D03*
X748434Y462994D02*
D03*
X751934D02*
D03*
X748465Y467054D02*
D03*
X751965D02*
D03*
X737909Y502278D02*
D03*
X734409D02*
D03*
X747739Y502496D02*
D03*
X744239D02*
D03*
X609322Y470650D02*
D03*
X605822D02*
D03*
X705670Y436582D02*
D03*
X709170Y436582D02*
D03*
X719075Y463669D02*
D03*
X715575Y463669D02*
D03*
X646607Y444343D02*
D03*
X650107D02*
D03*
X647694Y432467D02*
D03*
X644194Y432467D02*
D03*
X646070Y422255D02*
D03*
X642570D02*
D03*
X638578Y422271D02*
D03*
X635078D02*
D03*
X639738Y418209D02*
D03*
X643238D02*
D03*
X639738Y414196D02*
D03*
X643238Y414196D02*
D03*
X635921Y418151D02*
D03*
X632421D02*
D03*
X635921Y414167D02*
D03*
X632421Y414167D02*
D03*
X639738Y410184D02*
D03*
X643238D02*
D03*
X635921D02*
D03*
X632421D02*
D03*
X631329Y426083D02*
D03*
X627829D02*
D03*
X631329Y430248D02*
D03*
X627829D02*
D03*
X657187Y406710D02*
D03*
X653687D02*
D03*
X653840Y410849D02*
D03*
X650340D02*
D03*
X658966Y442571D02*
D03*
X662466Y442571D02*
D03*
X654046Y448914D02*
D03*
X650547D02*
D03*
X682977Y423928D02*
D03*
X686477D02*
D03*
X409628Y217625D02*
D03*
X406128D02*
D03*
X199631Y227325D02*
D03*
X203131D02*
D03*
X405528Y237713D02*
D03*
X402028D02*
D03*
X393690Y237733D02*
D03*
X397190D02*
D03*
X402790Y278273D02*
D03*
X399290D02*
D03*
X343464Y427573D02*
D03*
X339964D02*
D03*
X201732D02*
D03*
X198232D02*
D03*
X60000D02*
D03*
X56500D02*
D03*
X263464Y168840D02*
D03*
X259964D02*
D03*
X256279Y126924D02*
D03*
X252779D02*
D03*
X452576Y456162D02*
D03*
X449076D02*
D03*
X310844D02*
D03*
X307344D02*
D03*
X169112D02*
D03*
X165612D02*
D03*
X414330Y427573D02*
D03*
X410830D02*
D03*
X272598D02*
D03*
X269098D02*
D03*
X130866D02*
D03*
X127366D02*
D03*
X153541Y362186D02*
D03*
X150041D02*
D03*
X166163Y298958D02*
D03*
X169663D02*
D03*
X425812Y400590D02*
D03*
X429313D02*
D03*
X284080D02*
D03*
X287580D02*
D03*
X142348D02*
D03*
X145848D02*
D03*
X434091Y380272D02*
D03*
X437591D02*
D03*
X292359D02*
D03*
X295859D02*
D03*
X150627D02*
D03*
X154127D02*
D03*
X225754Y240688D02*
D03*
X229254D02*
D03*
X456136Y450698D02*
D03*
X459636D02*
D03*
X314404D02*
D03*
X317904D02*
D03*
X172671D02*
D03*
X176172D02*
D03*
X229254Y236389D02*
D03*
X225754D02*
D03*
X328864Y380662D02*
D03*
X332364D02*
D03*
X187261Y380667D02*
D03*
X190761D02*
D03*
X45505Y380696D02*
D03*
X49005D02*
D03*
X425812Y379009D02*
D03*
X429313D02*
D03*
X284080D02*
D03*
X287580D02*
D03*
X142348D02*
D03*
X145848D02*
D03*
X429320Y383325D02*
D03*
X425820D02*
D03*
X287588D02*
D03*
X284088D02*
D03*
X145856D02*
D03*
X142356D02*
D03*
X434091Y384454D02*
D03*
X437591D02*
D03*
X292359D02*
D03*
X295859D02*
D03*
X150627D02*
D03*
X154127D02*
D03*
X403188Y392847D02*
D03*
X399688D02*
D03*
X261456D02*
D03*
X257956D02*
D03*
X119724D02*
D03*
X116224D02*
D03*
X403215Y397143D02*
D03*
X399715D02*
D03*
X261483D02*
D03*
X257983D02*
D03*
X119750D02*
D03*
X116250D02*
D03*
X399688Y384446D02*
D03*
X403188D02*
D03*
X257956D02*
D03*
X261456D02*
D03*
X116224D02*
D03*
X119724D02*
D03*
X429320Y387641D02*
D03*
X425820D02*
D03*
X287588D02*
D03*
X284088D02*
D03*
X145856D02*
D03*
X142356D02*
D03*
X372762Y449505D02*
D03*
X376262D02*
D03*
X231029D02*
D03*
X234529D02*
D03*
X89297D02*
D03*
X92797D02*
D03*
X382662Y449484D02*
D03*
X386162D02*
D03*
X240929D02*
D03*
X244429D02*
D03*
X99197D02*
D03*
X102697D02*
D03*
X429320Y391958D02*
D03*
X425820D02*
D03*
X287588D02*
D03*
X284088D02*
D03*
X145856D02*
D03*
X142356D02*
D03*
X429320Y396274D02*
D03*
X425820D02*
D03*
X287588D02*
D03*
X284088D02*
D03*
X145856D02*
D03*
X142356D02*
D03*
X403196Y388713D02*
D03*
X399696D02*
D03*
X261463D02*
D03*
X257963D02*
D03*
X119731D02*
D03*
X116231D02*
D03*
X381818Y456125D02*
D03*
X378318D02*
D03*
X240086D02*
D03*
X236586D02*
D03*
X98354D02*
D03*
X94854D02*
D03*
X276419Y330720D02*
D03*
X279919D02*
D03*
X171793Y334169D02*
D03*
X175293D02*
D03*
X328917Y384979D02*
D03*
X332417D02*
D03*
X187313Y384983D02*
D03*
X190813D02*
D03*
X45558Y385012D02*
D03*
X49058D02*
D03*
X418322Y213203D02*
D03*
X414822D02*
D03*
X406120Y213225D02*
D03*
X409620D02*
D03*
X124703Y292193D02*
D03*
X128203D02*
D03*
X90020Y318125D02*
D03*
X86520D02*
D03*
X90020Y322528D02*
D03*
X86520D02*
D03*
X86510Y326930D02*
D03*
X90010D02*
D03*
X145299Y300536D02*
D03*
X148800D02*
D03*
X98899Y327382D02*
D03*
X102399D02*
D03*
X308715Y172348D02*
D03*
X305215D02*
D03*
X123240Y259292D02*
D03*
X126740D02*
D03*
X171793Y349774D02*
D03*
X175293D02*
D03*
X123259Y269867D02*
D03*
X126759D02*
D03*
X402036Y233583D02*
D03*
X405536D02*
D03*
X171793Y346195D02*
D03*
X175293D02*
D03*
X171793Y342256D02*
D03*
X175293D02*
D03*
X171793Y338274D02*
D03*
X175293D02*
D03*
X171807Y330122D02*
D03*
X175307D02*
D03*
X397198Y233583D02*
D03*
X393698D02*
D03*
X363643Y120316D02*
D03*
X367143D02*
D03*
X363520Y125293D02*
D03*
X367020D02*
D03*
X123138Y255088D02*
D03*
X126638D02*
D03*
X365465Y227591D02*
D03*
X368966D02*
D03*
X123240Y263496D02*
D03*
X126740D02*
D03*
X59669Y304877D02*
D03*
X56169D02*
D03*
X171807Y325752D02*
D03*
X175307D02*
D03*
X171984Y242284D02*
D03*
X168484D02*
D03*
X256279Y113215D02*
D03*
X252779D02*
D03*
X171707Y321264D02*
D03*
X175207D02*
D03*
X171806Y316936D02*
D03*
X175306D02*
D03*
X212909Y208891D02*
D03*
X209409D02*
D03*
X383351Y278978D02*
D03*
X379851D02*
D03*
X383351Y283205D02*
D03*
X379851D02*
D03*
X252771Y108645D02*
D03*
X256272D02*
D03*
X220346Y161023D02*
D03*
X216846D02*
D03*
X256279Y117784D02*
D03*
X252779D02*
D03*
X236913Y149272D02*
D03*
X240413D02*
D03*
X213105Y156640D02*
D03*
X216605D02*
D03*
X402021Y241856D02*
D03*
X405521D02*
D03*
X397215D02*
D03*
X393715D02*
D03*
X171984Y250684D02*
D03*
X168484D02*
D03*
X168476Y246484D02*
D03*
X171976D02*
D03*
X236913Y153573D02*
D03*
X240413D02*
D03*
X107920Y126125D02*
D03*
X111420D02*
D03*
Y130725D02*
D03*
X107920D02*
D03*
X165785Y137717D02*
D03*
X162285D02*
D03*
X256279Y104075D02*
D03*
X252779D02*
D03*
X111520Y135325D02*
D03*
X108020D02*
D03*
X59503Y335058D02*
D03*
X56003D02*
D03*
X256279Y122354D02*
D03*
X252779D02*
D03*
X252873Y140633D02*
D03*
X256373D02*
D03*
X252873Y136064D02*
D03*
X256373D02*
D03*
X252873Y131494D02*
D03*
X256373D02*
D03*
X395092Y278273D02*
D03*
X391592D02*
D03*
X335813Y427628D02*
D03*
X332313D02*
D03*
X194080D02*
D03*
X190580D02*
D03*
X52348D02*
D03*
X48848D02*
D03*
X177194Y298950D02*
D03*
X173694D02*
D03*
X356943Y400797D02*
D03*
X353443D02*
D03*
X215210D02*
D03*
X211710D02*
D03*
X73478D02*
D03*
X69978D02*
D03*
X406679Y427628D02*
D03*
X403179D02*
D03*
X264946D02*
D03*
X261446D02*
D03*
X123214D02*
D03*
X119714D02*
D03*
X429377Y424577D02*
D03*
X432877D02*
D03*
X287644D02*
D03*
X291144D02*
D03*
X145912D02*
D03*
X149412D02*
D03*
X421579Y401334D02*
D03*
X418079D02*
D03*
X279847D02*
D03*
X276347D02*
D03*
X138115D02*
D03*
X134615D02*
D03*
X358585Y424125D02*
D03*
X362085D02*
D03*
X216852D02*
D03*
X220353D02*
D03*
X75120D02*
D03*
X78620D02*
D03*
X316220Y356625D02*
D03*
X312720D02*
D03*
X284520Y356225D02*
D03*
X288020D02*
D03*
X287755Y330720D02*
D03*
X284255D02*
D03*
X72665Y327158D02*
D03*
X76165D02*
D03*
X131920Y304825D02*
D03*
X135420D02*
D03*
X121720Y304325D02*
D03*
X125220D02*
D03*
X274150Y175443D02*
D03*
X270650D02*
D03*
X139031Y362168D02*
D03*
X142531D02*
D03*
X141520Y304725D02*
D03*
X145020D02*
D03*
X418405Y217582D02*
D03*
X414905D02*
D03*
X128680Y362156D02*
D03*
X125180D02*
D03*
X377950Y206106D02*
D03*
X374450D02*
D03*
X203134Y231284D02*
D03*
X199634D02*
D03*
X168479Y238084D02*
D03*
X171978D02*
D03*
X193712Y217523D02*
D03*
X190212D02*
D03*
X181943Y245008D02*
D03*
X185443D02*
D03*
X385795Y230246D02*
D03*
X389295D02*
D03*
X235746Y218000D02*
D03*
X239246D02*
D03*
X340337Y271719D02*
D03*
X336837D02*
D03*
X240494Y157759D02*
D03*
X236995D02*
D03*
X253658Y298090D02*
D03*
X257158D02*
D03*
X257181Y293953D02*
D03*
X253680D02*
D03*
X284220Y293425D02*
D03*
X287720D02*
D03*
X311711Y293362D02*
D03*
X308211D02*
D03*
X314520Y197725D02*
D03*
X318020D02*
D03*
X288098Y196144D02*
D03*
X284598D02*
D03*
X277011Y196162D02*
D03*
X280511D02*
D03*
X261215Y193585D02*
D03*
X264715D02*
D03*
X330068Y198692D02*
D03*
X326569D02*
D03*
X264765Y197785D02*
D03*
X261265D02*
D03*
X329385Y448125D02*
D03*
X332885D02*
D03*
X119949Y448098D02*
D03*
X116449D02*
D03*
X258182D02*
D03*
X261682D02*
D03*
X399914D02*
D03*
X403414D02*
D03*
X366942Y271250D02*
D03*
X363442D02*
D03*
X45920Y448125D02*
D03*
X49420D02*
D03*
X187653D02*
D03*
X191153D02*
D03*
X240129Y255114D02*
D03*
X236629D02*
D03*
X340313Y267649D02*
D03*
X336812D02*
D03*
X239984Y279866D02*
D03*
X236484D02*
D03*
X240020Y275525D02*
D03*
X236520D02*
D03*
X236670Y250925D02*
D03*
X240170D02*
D03*
X340320Y259763D02*
D03*
X336820D02*
D03*
Y263725D02*
D03*
X340320D02*
D03*
X399876Y271346D02*
D03*
X396376D02*
D03*
X96253Y397700D02*
D03*
X99752D02*
D03*
X237985D02*
D03*
X241485D02*
D03*
X379717D02*
D03*
X383217D02*
D03*
X82203D02*
D03*
X78702D02*
D03*
X223935D02*
D03*
X220435D02*
D03*
X365667D02*
D03*
X362167D02*
D03*
D39*
X908851Y261530D02*
D03*
Y258031D02*
D03*
X964380Y87442D02*
D03*
Y90942D02*
D03*
X1017474Y213001D02*
D03*
Y209501D02*
D03*
X1017975Y199015D02*
D03*
X1017975Y195515D02*
D03*
X981459Y185228D02*
D03*
Y188728D02*
D03*
X977665Y185228D02*
D03*
Y188728D02*
D03*
X1027973Y174654D02*
D03*
Y178154D02*
D03*
X1017666Y162634D02*
D03*
Y166134D02*
D03*
X1019826Y180803D02*
D03*
Y184302D02*
D03*
X951342Y231994D02*
D03*
Y235494D02*
D03*
X946995Y231963D02*
D03*
Y235463D02*
D03*
X1040351Y220638D02*
D03*
X1040351Y217138D02*
D03*
X1040091Y205770D02*
D03*
X1040091Y202270D02*
D03*
X999298Y200096D02*
D03*
X999298Y203596D02*
D03*
X994371Y200299D02*
D03*
Y203799D02*
D03*
X979844Y225917D02*
D03*
Y222417D02*
D03*
X983873Y225917D02*
D03*
Y222417D02*
D03*
X944907Y216738D02*
D03*
Y220238D02*
D03*
X867424Y215797D02*
D03*
Y219297D02*
D03*
X886584Y210436D02*
D03*
Y213936D02*
D03*
X922170Y224766D02*
D03*
Y221266D02*
D03*
X956946Y173483D02*
D03*
X956946Y169983D02*
D03*
X914856Y185725D02*
D03*
X914856Y182225D02*
D03*
X906034Y172442D02*
D03*
Y175942D02*
D03*
X901997Y175942D02*
D03*
Y172442D02*
D03*
X938914Y175224D02*
D03*
Y178724D02*
D03*
X930449Y138876D02*
D03*
X930449Y142376D02*
D03*
X922299Y137126D02*
D03*
Y140626D02*
D03*
X899067Y138502D02*
D03*
Y142001D02*
D03*
X891749Y138470D02*
D03*
Y141970D02*
D03*
X902998Y153985D02*
D03*
Y150485D02*
D03*
X930173Y183941D02*
D03*
X930173Y180441D02*
D03*
X918688Y182257D02*
D03*
Y185757D02*
D03*
X910006Y177243D02*
D03*
Y180744D02*
D03*
X911232Y188516D02*
D03*
Y192016D02*
D03*
X922283Y180405D02*
D03*
Y183905D02*
D03*
X926283Y180405D02*
D03*
Y183905D02*
D03*
X928054Y191385D02*
D03*
Y187885D02*
D03*
X938914Y171307D02*
D03*
Y167807D02*
D03*
X918479Y137070D02*
D03*
Y140570D02*
D03*
X926381Y142376D02*
D03*
Y138876D02*
D03*
X942807Y163898D02*
D03*
X942807Y167398D02*
D03*
X652945Y261529D02*
D03*
Y258029D02*
D03*
X708474Y87441D02*
D03*
Y90941D02*
D03*
X761569Y213000D02*
D03*
Y209500D02*
D03*
X762070Y199014D02*
D03*
X762070Y195514D02*
D03*
X725554Y185227D02*
D03*
Y188727D02*
D03*
X721759Y185227D02*
D03*
Y188727D02*
D03*
X772067Y174653D02*
D03*
Y178153D02*
D03*
X761760Y162633D02*
D03*
Y166133D02*
D03*
X763921Y180801D02*
D03*
Y184301D02*
D03*
X695436Y231993D02*
D03*
Y235493D02*
D03*
X691089Y231961D02*
D03*
Y235461D02*
D03*
X784445Y220637D02*
D03*
X784445Y217137D02*
D03*
X784186Y205768D02*
D03*
X784186Y202269D02*
D03*
X743393Y200094D02*
D03*
X743393Y203594D02*
D03*
X738465Y200298D02*
D03*
Y203798D02*
D03*
X723939Y225916D02*
D03*
Y222416D02*
D03*
X727968Y225916D02*
D03*
Y222416D02*
D03*
X689001Y216737D02*
D03*
Y220237D02*
D03*
X611518Y215796D02*
D03*
Y219296D02*
D03*
X630679Y210434D02*
D03*
Y213934D02*
D03*
X666265Y224764D02*
D03*
Y221265D02*
D03*
X701040Y173482D02*
D03*
X701040Y169982D02*
D03*
X658950Y185724D02*
D03*
X658950Y182224D02*
D03*
X650129Y172440D02*
D03*
Y175940D02*
D03*
X646092Y175940D02*
D03*
Y172440D02*
D03*
X683008Y175223D02*
D03*
Y178723D02*
D03*
X674543Y138874D02*
D03*
X674543Y142374D02*
D03*
X666393Y137124D02*
D03*
Y140624D02*
D03*
X643161Y138500D02*
D03*
Y142000D02*
D03*
X635844Y138469D02*
D03*
Y141969D02*
D03*
X647092Y153983D02*
D03*
Y150483D02*
D03*
X674267Y183940D02*
D03*
X674267Y180439D02*
D03*
X662783Y182256D02*
D03*
Y185756D02*
D03*
X654100Y177242D02*
D03*
Y180742D02*
D03*
X655327Y188515D02*
D03*
Y192015D02*
D03*
X666377Y180403D02*
D03*
Y183904D02*
D03*
X670377Y180403D02*
D03*
Y183904D02*
D03*
X672149Y191384D02*
D03*
Y187884D02*
D03*
X683008Y171306D02*
D03*
Y167806D02*
D03*
X662573Y137069D02*
D03*
Y140569D02*
D03*
X670476Y142374D02*
D03*
Y138874D02*
D03*
X686902Y163897D02*
D03*
X686902Y167397D02*
D03*
X652945Y525755D02*
D03*
Y522255D02*
D03*
X708474Y351666D02*
D03*
Y355166D02*
D03*
X761569Y477225D02*
D03*
Y473725D02*
D03*
X762070Y463239D02*
D03*
X762070Y459739D02*
D03*
X725554Y449453D02*
D03*
Y452953D02*
D03*
X721759Y449453D02*
D03*
Y452952D02*
D03*
X772067Y438878D02*
D03*
Y442379D02*
D03*
X761760Y426858D02*
D03*
Y430358D02*
D03*
X763921Y445027D02*
D03*
Y448527D02*
D03*
X695436Y496218D02*
D03*
Y499718D02*
D03*
X691089Y496187D02*
D03*
Y499687D02*
D03*
X784445Y484862D02*
D03*
X784445Y481362D02*
D03*
X784186Y469994D02*
D03*
X784186Y466494D02*
D03*
X743393Y464320D02*
D03*
X743393Y467820D02*
D03*
X738465Y464523D02*
D03*
Y468023D02*
D03*
X723939Y490141D02*
D03*
Y486641D02*
D03*
X727968Y490141D02*
D03*
Y486641D02*
D03*
X689001Y480962D02*
D03*
Y484462D02*
D03*
X611518Y480021D02*
D03*
Y483521D02*
D03*
X630679Y474660D02*
D03*
Y478160D02*
D03*
X666265Y488990D02*
D03*
Y485490D02*
D03*
X701040Y437707D02*
D03*
X701040Y434207D02*
D03*
X658950Y449950D02*
D03*
X658950Y446450D02*
D03*
X650129Y436666D02*
D03*
Y440166D02*
D03*
X646092Y440166D02*
D03*
Y436666D02*
D03*
X683008Y439448D02*
D03*
Y442948D02*
D03*
X674543Y403100D02*
D03*
X674543Y406600D02*
D03*
X666393Y401350D02*
D03*
Y404850D02*
D03*
X643161Y402726D02*
D03*
Y406226D02*
D03*
X635844Y402694D02*
D03*
Y406194D02*
D03*
X647092Y418209D02*
D03*
Y414709D02*
D03*
X674267Y448165D02*
D03*
X674267Y444665D02*
D03*
X662783Y446481D02*
D03*
Y449981D02*
D03*
X654100Y441468D02*
D03*
Y444968D02*
D03*
X655327Y452740D02*
D03*
Y456240D02*
D03*
X666377Y444629D02*
D03*
Y448129D02*
D03*
X670377Y444629D02*
D03*
Y448129D02*
D03*
X672149Y455609D02*
D03*
Y452109D02*
D03*
X683008Y435532D02*
D03*
Y432032D02*
D03*
X662573Y401294D02*
D03*
Y404794D02*
D03*
X670476Y406600D02*
D03*
Y403100D02*
D03*
X686902Y428122D02*
D03*
X686902Y431622D02*
D03*
X912053Y444382D02*
D03*
Y440882D02*
D03*
X962597Y461892D02*
D03*
Y458392D02*
D03*
X330370Y332875D02*
D03*
Y329375D02*
D03*
X313200Y391696D02*
D03*
Y395196D02*
D03*
X171468Y391739D02*
D03*
Y395239D02*
D03*
X361535Y388775D02*
D03*
Y385275D02*
D03*
X380535Y388775D02*
D03*
Y385275D02*
D03*
X219802Y388775D02*
D03*
Y385275D02*
D03*
X238843Y388726D02*
D03*
Y385226D02*
D03*
X78070Y388775D02*
D03*
Y385275D02*
D03*
X97070Y388775D02*
D03*
Y385275D02*
D03*
X312389Y337937D02*
D03*
Y341437D02*
D03*
X269440Y330365D02*
D03*
Y333865D02*
D03*
X272050Y301549D02*
D03*
Y305048D02*
D03*
X276296Y305056D02*
D03*
Y301556D02*
D03*
X280543Y301549D02*
D03*
Y305048D02*
D03*
X272050Y293850D02*
D03*
Y297350D02*
D03*
X186087Y217056D02*
D03*
Y213556D02*
D03*
X231864Y219926D02*
D03*
Y216426D02*
D03*
X227708Y219859D02*
D03*
Y216359D02*
D03*
X297402Y196207D02*
D03*
Y192707D02*
D03*
X293370Y196175D02*
D03*
Y192675D02*
D03*
X319323Y293690D02*
D03*
Y297190D02*
D03*
X325192Y293690D02*
D03*
Y297190D02*
D03*
X329418Y293690D02*
D03*
Y297190D02*
D03*
X376976Y219799D02*
D03*
Y223300D02*
D03*
Y231666D02*
D03*
Y235166D02*
D03*
X372933Y244534D02*
D03*
Y241034D02*
D03*
X408659Y280097D02*
D03*
Y283597D02*
D03*
X432291Y315065D02*
D03*
Y311565D02*
D03*
X402119Y315065D02*
D03*
Y311565D02*
D03*
X436602Y315065D02*
D03*
Y311565D02*
D03*
X406429Y315065D02*
D03*
Y311565D02*
D03*
X427981Y315065D02*
D03*
Y311565D02*
D03*
X397809Y315065D02*
D03*
Y311565D02*
D03*
X423671Y315065D02*
D03*
Y311565D02*
D03*
X393498Y315065D02*
D03*
Y311565D02*
D03*
X410740Y315065D02*
D03*
Y311565D02*
D03*
X380568Y315065D02*
D03*
Y311565D02*
D03*
X415050Y315065D02*
D03*
Y311565D02*
D03*
X384878Y315065D02*
D03*
Y311565D02*
D03*
X419360Y315065D02*
D03*
Y311565D02*
D03*
X389188Y315065D02*
D03*
Y311565D02*
D03*
X121372Y240678D02*
D03*
Y244178D02*
D03*
X322261Y193212D02*
D03*
Y196712D02*
D03*
X408944Y270054D02*
D03*
Y266554D02*
D03*
X153024Y243265D02*
D03*
Y246765D02*
D03*
X421633Y434552D02*
D03*
Y438052D02*
D03*
X279900Y434552D02*
D03*
Y438052D02*
D03*
X138168Y434552D02*
D03*
Y438052D02*
D03*
X437331Y437973D02*
D03*
Y434473D02*
D03*
X295599Y437973D02*
D03*
Y434473D02*
D03*
X153866Y437973D02*
D03*
Y434473D02*
D03*
X375796Y270060D02*
D03*
Y266560D02*
D03*
X421633Y430427D02*
D03*
Y426927D02*
D03*
X279901Y430427D02*
D03*
Y426927D02*
D03*
X138169Y430427D02*
D03*
Y426927D02*
D03*
X431338Y246055D02*
D03*
Y242555D02*
D03*
X461043Y415000D02*
D03*
Y411500D02*
D03*
X319310Y415000D02*
D03*
Y411500D02*
D03*
X177578Y415000D02*
D03*
Y411500D02*
D03*
X350766Y434552D02*
D03*
Y438052D02*
D03*
X209034Y434552D02*
D03*
Y438052D02*
D03*
X67302Y434552D02*
D03*
Y438052D02*
D03*
X366465Y437973D02*
D03*
Y434473D02*
D03*
X224732Y437973D02*
D03*
Y434473D02*
D03*
X83000Y437973D02*
D03*
Y434473D02*
D03*
X350767Y430427D02*
D03*
Y426927D02*
D03*
X209035Y430427D02*
D03*
Y426927D02*
D03*
X67303Y430427D02*
D03*
Y426927D02*
D03*
X137998Y225502D02*
D03*
Y229002D02*
D03*
X125547Y221320D02*
D03*
Y217820D02*
D03*
X265342Y330365D02*
D03*
Y333865D02*
D03*
X261245Y330365D02*
D03*
Y333865D02*
D03*
X257147Y333873D02*
D03*
Y330373D02*
D03*
X253050Y330365D02*
D03*
Y333865D02*
D03*
X312389Y330425D02*
D03*
Y333925D02*
D03*
X308309Y330425D02*
D03*
Y333925D02*
D03*
X295950Y333933D02*
D03*
Y330433D02*
D03*
X304229Y333933D02*
D03*
Y330433D02*
D03*
X291870Y330425D02*
D03*
Y333925D02*
D03*
X300149Y330425D02*
D03*
Y333925D02*
D03*
X376920Y241056D02*
D03*
Y244556D02*
D03*
X372979Y223307D02*
D03*
Y219807D02*
D03*
X89937Y331166D02*
D03*
Y334666D02*
D03*
X64554Y343502D02*
D03*
Y347002D02*
D03*
X114762Y301456D02*
D03*
Y304956D02*
D03*
X423063Y228482D02*
D03*
Y224982D02*
D03*
X372979Y235173D02*
D03*
Y231673D02*
D03*
X207070Y239121D02*
D03*
Y235621D02*
D03*
X398956Y197185D02*
D03*
Y200685D02*
D03*
X368982Y223333D02*
D03*
Y219832D02*
D03*
Y235173D02*
D03*
Y231673D02*
D03*
X389484Y200633D02*
D03*
Y197133D02*
D03*
X394220Y200633D02*
D03*
Y197133D02*
D03*
X380013Y200677D02*
D03*
Y197177D02*
D03*
X384749Y200633D02*
D03*
Y197133D02*
D03*
X65078Y285688D02*
D03*
Y289188D02*
D03*
X166440Y230543D02*
D03*
Y234043D02*
D03*
X177594Y213582D02*
D03*
Y217082D02*
D03*
X237054Y162085D02*
D03*
Y165585D02*
D03*
X177596Y204965D02*
D03*
Y208465D02*
D03*
X65099Y316722D02*
D03*
Y320222D02*
D03*
X181856Y208473D02*
D03*
Y204973D02*
D03*
X162262Y230543D02*
D03*
Y234043D02*
D03*
X181855Y217090D02*
D03*
Y213590D02*
D03*
X376517Y401650D02*
D03*
Y405150D02*
D03*
X234785Y401650D02*
D03*
Y405150D02*
D03*
X93053Y401650D02*
D03*
Y405150D02*
D03*
X153033Y254296D02*
D03*
Y250796D02*
D03*
X436246Y408334D02*
D03*
Y411834D02*
D03*
X294514Y408334D02*
D03*
Y411834D02*
D03*
X152782Y408334D02*
D03*
Y411834D02*
D03*
X243432Y337736D02*
D03*
Y341236D02*
D03*
X431338Y253719D02*
D03*
Y250219D02*
D03*
X460219Y470575D02*
D03*
Y467075D02*
D03*
X318486Y470575D02*
D03*
Y467075D02*
D03*
X176754Y470575D02*
D03*
Y467075D02*
D03*
X464446Y467085D02*
D03*
Y470585D02*
D03*
X322713Y467085D02*
D03*
Y470585D02*
D03*
X180981Y467085D02*
D03*
Y470585D02*
D03*
X416902Y454675D02*
D03*
Y458175D02*
D03*
X275170Y454675D02*
D03*
Y458175D02*
D03*
X133438Y454675D02*
D03*
Y458175D02*
D03*
X392546Y422780D02*
D03*
Y419280D02*
D03*
X250814Y422780D02*
D03*
Y419280D02*
D03*
X109081Y422780D02*
D03*
Y419280D02*
D03*
X395217Y401650D02*
D03*
Y405150D02*
D03*
X253485Y401650D02*
D03*
Y405150D02*
D03*
X111752Y401650D02*
D03*
Y405150D02*
D03*
X346035Y454675D02*
D03*
Y458175D02*
D03*
X204303Y454675D02*
D03*
Y458175D02*
D03*
X62570Y454675D02*
D03*
Y458175D02*
D03*
X442344Y439347D02*
D03*
Y442847D02*
D03*
X300612Y439347D02*
D03*
Y442847D02*
D03*
X158880Y439347D02*
D03*
Y442847D02*
D03*
X389353Y470575D02*
D03*
Y467075D02*
D03*
X247620Y470575D02*
D03*
Y467075D02*
D03*
X105888Y470575D02*
D03*
Y467075D02*
D03*
X393580Y467085D02*
D03*
Y470585D02*
D03*
X251847Y467085D02*
D03*
Y470585D02*
D03*
X110115Y467085D02*
D03*
Y470585D02*
D03*
X262555Y364704D02*
D03*
Y361204D02*
D03*
X249761Y364704D02*
D03*
Y361204D02*
D03*
X309643Y364511D02*
D03*
Y361012D02*
D03*
X305541Y360912D02*
D03*
Y364412D02*
D03*
X290703Y364511D02*
D03*
Y361012D02*
D03*
X121309Y221320D02*
D03*
Y217820D02*
D03*
X330404Y340394D02*
D03*
Y336894D02*
D03*
X271793Y323677D02*
D03*
Y320177D02*
D03*
X294825Y360912D02*
D03*
Y364412D02*
D03*
X288080Y341236D02*
D03*
Y337736D02*
D03*
X283891D02*
D03*
Y341236D02*
D03*
X279725Y337736D02*
D03*
Y341236D02*
D03*
X102381Y335008D02*
D03*
Y331507D02*
D03*
X278761Y163896D02*
D03*
Y167396D02*
D03*
X102470Y316858D02*
D03*
Y313358D02*
D03*
X102840Y347050D02*
D03*
Y343550D02*
D03*
X125572Y244478D02*
D03*
Y247978D02*
D03*
Y240378D02*
D03*
Y236878D02*
D03*
X121381Y205802D02*
D03*
Y209302D02*
D03*
X159770Y346875D02*
D03*
Y350375D02*
D03*
X401570Y225175D02*
D03*
Y221675D02*
D03*
X159870Y324875D02*
D03*
Y328375D02*
D03*
X401570Y208175D02*
D03*
Y204675D02*
D03*
X202103Y219948D02*
D03*
Y216448D02*
D03*
X199552Y239221D02*
D03*
Y235721D02*
D03*
X172073Y220281D02*
D03*
Y223781D02*
D03*
X170617Y230545D02*
D03*
Y234045D02*
D03*
X399198Y186966D02*
D03*
Y190466D02*
D03*
X382229Y186691D02*
D03*
Y190191D02*
D03*
X263670Y297354D02*
D03*
Y293853D02*
D03*
X451931Y352168D02*
D03*
Y355667D02*
D03*
X240066Y207856D02*
D03*
Y211356D02*
D03*
X341301Y282403D02*
D03*
Y278903D02*
D03*
X245235Y207227D02*
D03*
Y203727D02*
D03*
X239942Y239570D02*
D03*
Y243070D02*
D03*
X240171Y259122D02*
D03*
Y262622D02*
D03*
X337332Y278850D02*
D03*
Y282350D02*
D03*
X335512Y248584D02*
D03*
Y245083D02*
D03*
X335710Y221092D02*
D03*
Y217592D02*
D03*
X299001Y182533D02*
D03*
Y179033D02*
D03*
X303548Y192707D02*
D03*
Y196207D02*
D03*
D40*
X947958Y204020D02*
D03*
Y123311D02*
D03*
X876304D02*
D03*
Y204020D02*
D03*
X692052Y204018D02*
D03*
Y123310D02*
D03*
X620399D02*
D03*
Y204018D02*
D03*
X692052Y468244D02*
D03*
Y387535D02*
D03*
X620399D02*
D03*
Y468244D02*
D03*
D41*
X952485Y199492D02*
D03*
Y127839D02*
D03*
X871776D02*
D03*
Y199492D02*
D03*
X696580Y199491D02*
D03*
Y127837D02*
D03*
X615871D02*
D03*
Y199491D02*
D03*
X696580Y463716D02*
D03*
Y392063D02*
D03*
X615871D02*
D03*
Y463716D02*
D03*
D42*
X926895Y204020D02*
D03*
X926895Y123311D02*
D03*
X897367Y123311D02*
D03*
X897367Y204020D02*
D03*
X670989Y204018D02*
D03*
X670989Y123310D02*
D03*
X641462Y123310D02*
D03*
X641462Y204018D02*
D03*
X670989Y468244D02*
D03*
X670989Y387535D02*
D03*
X641462Y387535D02*
D03*
X641462Y468244D02*
D03*
D43*
X952485Y178429D02*
D03*
X952485Y148902D02*
D03*
X871776Y148902D02*
D03*
X871776Y178429D02*
D03*
X696580Y178428D02*
D03*
X696580Y148900D02*
D03*
X615871Y148900D02*
D03*
X615871Y178428D02*
D03*
X696580Y442653D02*
D03*
X696580Y413126D02*
D03*
X615871Y413126D02*
D03*
X615871Y442653D02*
D03*
D44*
X966064Y97711D02*
D03*
X969804Y91232D02*
D03*
X974753Y98408D02*
D03*
X710158Y97709D02*
D03*
X713899Y91231D02*
D03*
X718848Y98407D02*
D03*
X710158Y361935D02*
D03*
X713899Y355456D02*
D03*
X718848Y362633D02*
D03*
D45*
X915379Y253236D02*
D03*
Y246536D02*
D03*
X944844Y177055D02*
D03*
Y183755D02*
D03*
X948194Y167751D02*
D03*
Y161051D02*
D03*
X659473Y253235D02*
D03*
Y246535D02*
D03*
X688939Y177053D02*
D03*
Y183754D02*
D03*
X692289Y167749D02*
D03*
Y161049D02*
D03*
X659473Y517460D02*
D03*
Y510760D02*
D03*
X688939Y441279D02*
D03*
Y447979D02*
D03*
X692289Y431975D02*
D03*
Y425275D02*
D03*
X328191Y187965D02*
D03*
Y181265D02*
D03*
X331200Y460578D02*
D03*
Y453878D02*
D03*
X189468Y460578D02*
D03*
Y453878D02*
D03*
X47736Y460578D02*
D03*
Y453878D02*
D03*
X402066Y460578D02*
D03*
Y453878D02*
D03*
X260334Y460578D02*
D03*
Y453878D02*
D03*
X118602Y460578D02*
D03*
Y453878D02*
D03*
X133568Y203666D02*
D03*
Y210366D02*
D03*
X429145Y199502D02*
D03*
Y206202D02*
D03*
X407470Y206075D02*
D03*
Y199375D02*
D03*
X387546Y242257D02*
D03*
Y235557D02*
D03*
X212689Y141364D02*
D03*
Y148064D02*
D03*
D46*
X986449Y279235D02*
D03*
X983949Y274905D02*
D03*
X981449Y270575D02*
D03*
X978949Y266245D02*
D03*
X1005542Y268212D02*
D03*
X1003043Y263881D02*
D03*
X1000543Y259551D02*
D03*
X998042Y255221D02*
D03*
X730544Y279234D02*
D03*
X728044Y274904D02*
D03*
X725543Y270574D02*
D03*
X723043Y266244D02*
D03*
X749637Y268210D02*
D03*
X747137Y263880D02*
D03*
X744637Y259550D02*
D03*
X742137Y255220D02*
D03*
X730544Y543459D02*
D03*
X728044Y539129D02*
D03*
X725543Y534799D02*
D03*
X723043Y530469D02*
D03*
X749637Y532436D02*
D03*
X747137Y528106D02*
D03*
X744637Y523775D02*
D03*
X742137Y519445D02*
D03*
D47*
X1008305Y129606D02*
D03*
X1011255Y124496D02*
D03*
X1002487Y140083D02*
D03*
X1005437Y134974D02*
D03*
X877968Y245617D02*
D03*
X880918Y240507D02*
D03*
X752399Y129605D02*
D03*
X755349Y124495D02*
D03*
X746581Y140082D02*
D03*
X749531Y134973D02*
D03*
X622063Y245615D02*
D03*
X625013Y240506D02*
D03*
X752399Y393830D02*
D03*
X755349Y388721D02*
D03*
X746581Y404307D02*
D03*
X749531Y399198D02*
D03*
X622063Y509841D02*
D03*
X625013Y504731D02*
D03*
D48*
X988472Y193437D02*
D03*
Y191469D02*
D03*
Y189500D02*
D03*
Y187532D02*
D03*
Y185563D02*
D03*
X1005794Y193437D02*
D03*
Y191469D02*
D03*
Y189500D02*
D03*
Y187532D02*
D03*
Y185563D02*
D03*
X1026599Y191421D02*
D03*
Y189453D02*
D03*
Y187484D02*
D03*
Y185516D02*
D03*
X1026599Y183547D02*
D03*
X1043922Y191421D02*
D03*
Y189453D02*
D03*
Y187484D02*
D03*
Y185516D02*
D03*
Y183547D02*
D03*
X732566Y193436D02*
D03*
Y191467D02*
D03*
Y189499D02*
D03*
Y187531D02*
D03*
Y185562D02*
D03*
X749889Y193436D02*
D03*
Y191467D02*
D03*
Y189499D02*
D03*
Y187531D02*
D03*
Y185562D02*
D03*
X770694Y191420D02*
D03*
Y189452D02*
D03*
Y187483D02*
D03*
Y185514D02*
D03*
X770694Y183546D02*
D03*
X788017Y191420D02*
D03*
Y189452D02*
D03*
Y187483D02*
D03*
Y185514D02*
D03*
Y183546D02*
D03*
X732566Y457661D02*
D03*
Y455693D02*
D03*
Y453724D02*
D03*
Y451756D02*
D03*
Y449787D02*
D03*
X749889Y457661D02*
D03*
Y455693D02*
D03*
Y453724D02*
D03*
Y451756D02*
D03*
Y449787D02*
D03*
X770694Y455645D02*
D03*
Y453677D02*
D03*
Y451708D02*
D03*
Y449740D02*
D03*
X770694Y447771D02*
D03*
X788017Y455645D02*
D03*
Y453677D02*
D03*
Y451708D02*
D03*
Y449740D02*
D03*
Y447771D02*
D03*
D49*
X986023Y134760D02*
D03*
X983807Y133481D02*
D03*
X992672Y138599D02*
D03*
X990455Y137319D02*
D03*
X988239Y136040D02*
D03*
X981591Y132201D02*
D03*
X994888Y139878D02*
D03*
X997539Y114814D02*
D03*
X995323Y113535D02*
D03*
X1004187Y118653D02*
D03*
X1001971Y117374D02*
D03*
X993106Y112255D02*
D03*
X999755Y116094D02*
D03*
X1006404Y119933D02*
D03*
X730118Y134759D02*
D03*
X727901Y133480D02*
D03*
X736766Y138598D02*
D03*
X734550Y137318D02*
D03*
X732334Y136039D02*
D03*
X725685Y132200D02*
D03*
X738982Y139877D02*
D03*
X741633Y114813D02*
D03*
X739417Y113534D02*
D03*
X748282Y118652D02*
D03*
X746066Y117372D02*
D03*
X737201Y112254D02*
D03*
X743849Y116093D02*
D03*
X750498Y119931D02*
D03*
X730118Y398985D02*
D03*
X727901Y397705D02*
D03*
X736766Y402823D02*
D03*
X734550Y401544D02*
D03*
X732334Y400264D02*
D03*
X725685Y396425D02*
D03*
X738982Y404103D02*
D03*
X741633Y379039D02*
D03*
X739417Y377759D02*
D03*
X748282Y382877D02*
D03*
X746066Y381598D02*
D03*
X737201Y376480D02*
D03*
X743849Y380318D02*
D03*
X750498Y384157D02*
D03*
D50*
X1007418Y111116D02*
D03*
X1010449Y112866D02*
D03*
X1015971Y133326D02*
D03*
X1019002Y135076D02*
D03*
X1018148Y129719D02*
D03*
X1021179Y131470D02*
D03*
X1044108Y141007D02*
D03*
X1041077Y139257D02*
D03*
X1037482Y137142D02*
D03*
X1034451Y135392D02*
D03*
X1030750Y133105D02*
D03*
X1027719Y131355D02*
D03*
X1039930Y167214D02*
D03*
X1042961Y168964D02*
D03*
X1037818Y170788D02*
D03*
X1040849Y172538D02*
D03*
X884114Y236884D02*
D03*
X881083Y235134D02*
D03*
X975238Y109541D02*
D03*
X972207Y107791D02*
D03*
X751513Y111115D02*
D03*
X754544Y112865D02*
D03*
X760065Y133325D02*
D03*
X763096Y135075D02*
D03*
X762243Y129718D02*
D03*
X765274Y131468D02*
D03*
X788203Y141006D02*
D03*
X785172Y139256D02*
D03*
X781576Y137141D02*
D03*
X778545Y135391D02*
D03*
X774844Y133104D02*
D03*
X771813Y131354D02*
D03*
X784025Y167213D02*
D03*
X787056Y168963D02*
D03*
X781913Y170786D02*
D03*
X784944Y172537D02*
D03*
X628209Y236882D02*
D03*
X625178Y235133D02*
D03*
X719333Y109540D02*
D03*
X716301Y107790D02*
D03*
X751513Y375340D02*
D03*
X754544Y377090D02*
D03*
X760065Y397550D02*
D03*
X763096Y399300D02*
D03*
X762243Y393944D02*
D03*
X765274Y395694D02*
D03*
X788203Y405231D02*
D03*
X785172Y403481D02*
D03*
X781576Y401367D02*
D03*
X778545Y399617D02*
D03*
X774844Y397329D02*
D03*
X771813Y395579D02*
D03*
X784025Y431438D02*
D03*
X787056Y433188D02*
D03*
X781913Y435012D02*
D03*
X784944Y436762D02*
D03*
X628209Y501108D02*
D03*
X625178Y499358D02*
D03*
X719333Y373766D02*
D03*
X716301Y372016D02*
D03*
D51*
X1010860Y137040D02*
D03*
X1012565Y138025D02*
D03*
X1014270Y139009D02*
D03*
X1015975Y139993D02*
D03*
X1004561Y147951D02*
D03*
X1006266Y148935D02*
D03*
X1007971Y149919D02*
D03*
X1009676Y150904D02*
D03*
X754955Y137039D02*
D03*
X756660Y138023D02*
D03*
X758364Y139008D02*
D03*
X760069Y139992D02*
D03*
X748656Y147950D02*
D03*
X750360Y148934D02*
D03*
X752065Y149918D02*
D03*
X753770Y150902D02*
D03*
X754955Y401265D02*
D03*
X756660Y402249D02*
D03*
X758364Y403233D02*
D03*
X760069Y404217D02*
D03*
X748656Y412175D02*
D03*
X750360Y413159D02*
D03*
X752065Y414144D02*
D03*
X753770Y415128D02*
D03*
D52*
X1022239Y150341D02*
D03*
X1014067Y154261D02*
D03*
X1017807Y147782D02*
D03*
X1020023Y149062D02*
D03*
X1016283Y155540D02*
D03*
X1018499Y156819D02*
D03*
X766334Y150340D02*
D03*
X758161Y154259D02*
D03*
X761901Y147781D02*
D03*
X764118Y149061D02*
D03*
X760377Y155539D02*
D03*
X762594Y156818D02*
D03*
X766334Y414566D02*
D03*
X758161Y418485D02*
D03*
X761901Y412007D02*
D03*
X764118Y413286D02*
D03*
X760377Y419764D02*
D03*
X762594Y421044D02*
D03*
D53*
X1021692Y142817D02*
D03*
X1026802Y145767D02*
D03*
X1036048Y147789D02*
D03*
X1041158Y150739D02*
D03*
X893351Y241982D02*
D03*
X888242Y239032D02*
D03*
X765787Y142815D02*
D03*
X770896Y145765D02*
D03*
X780142Y147788D02*
D03*
X785252Y150738D02*
D03*
X637446Y241981D02*
D03*
X632336Y239031D02*
D03*
X765787Y407041D02*
D03*
X770896Y409991D02*
D03*
X780142Y412013D02*
D03*
X785252Y414963D02*
D03*
X637446Y506206D02*
D03*
X632336Y503256D02*
D03*
D54*
X1031072Y167453D02*
D03*
X1029367Y166469D02*
D03*
X1032060Y153931D02*
D03*
X1033765Y154915D02*
D03*
X1035470Y155900D02*
D03*
X1037174Y156884D02*
D03*
X1027662Y165485D02*
D03*
X1025958Y164501D02*
D03*
X775166Y167452D02*
D03*
X773462Y166468D02*
D03*
X776154Y153930D02*
D03*
X777859Y154914D02*
D03*
X779564Y155898D02*
D03*
X781269Y156883D02*
D03*
X771757Y165484D02*
D03*
X770052Y164499D02*
D03*
X775166Y431678D02*
D03*
X773462Y430693D02*
D03*
X776154Y418155D02*
D03*
X777859Y419139D02*
D03*
X779564Y420124D02*
D03*
X781269Y421108D02*
D03*
X771757Y429709D02*
D03*
X770052Y428725D02*
D03*
D55*
X1031566Y160692D02*
D03*
X775660Y160691D02*
D03*
Y424916D02*
D03*
D56*
X1038327Y161186D02*
D03*
X1037343Y162891D02*
D03*
X1036359Y164596D02*
D03*
X1035374Y166301D02*
D03*
X1024805Y160198D02*
D03*
X1025789Y158493D02*
D03*
X1026773Y156789D02*
D03*
X1027757Y155084D02*
D03*
X782422Y161185D02*
D03*
X781437Y162890D02*
D03*
X780453Y164595D02*
D03*
X779469Y166299D02*
D03*
X768899Y160197D02*
D03*
X769883Y158492D02*
D03*
X770868Y156787D02*
D03*
X771852Y155083D02*
D03*
X782422Y425410D02*
D03*
X781437Y427115D02*
D03*
X780453Y428820D02*
D03*
X779469Y430525D02*
D03*
X768899Y424422D02*
D03*
X769883Y422718D02*
D03*
X770868Y421013D02*
D03*
X771852Y419308D02*
D03*
D57*
X931198Y103773D02*
D03*
X932948Y106804D02*
D03*
X935741Y101333D02*
D03*
X937491Y104365D02*
D03*
X926124Y106417D02*
D03*
X927874Y109448D02*
D03*
X1013130Y264720D02*
D03*
X1011380Y261689D02*
D03*
X1000970Y248281D02*
D03*
X1002720Y251312D02*
D03*
X1004527Y246176D02*
D03*
X1006277Y249207D02*
D03*
X675292Y103772D02*
D03*
X677042Y106803D02*
D03*
X679835Y101332D02*
D03*
X681585Y104363D02*
D03*
X670219Y106416D02*
D03*
X671969Y109447D02*
D03*
X757225Y264719D02*
D03*
X755475Y261688D02*
D03*
X745064Y248280D02*
D03*
X746814Y251311D02*
D03*
X748622Y246175D02*
D03*
X750372Y249205D02*
D03*
X675292Y367997D02*
D03*
X677042Y371028D02*
D03*
X679835Y365558D02*
D03*
X681585Y368589D02*
D03*
X670219Y370641D02*
D03*
X671969Y373672D02*
D03*
X757225Y528944D02*
D03*
X755475Y525913D02*
D03*
X745064Y512505D02*
D03*
X746814Y515536D02*
D03*
X748622Y510400D02*
D03*
X750372Y513431D02*
D03*
D58*
X920630Y96600D02*
D03*
X923878Y102225D02*
D03*
X929949Y91227D02*
D03*
X933197Y96853D02*
D03*
X925471Y93910D02*
D03*
X928719Y99536D02*
D03*
X664724Y96598D02*
D03*
X667973Y102224D02*
D03*
X674044Y91226D02*
D03*
X677292Y96852D02*
D03*
X669565Y93909D02*
D03*
X672813Y99535D02*
D03*
X664724Y360824D02*
D03*
X667973Y366449D02*
D03*
X674044Y355451D02*
D03*
X677292Y361077D02*
D03*
X669565Y358135D02*
D03*
X672813Y363760D02*
D03*
D59*
X869164Y253126D02*
D03*
X867414Y256157D02*
D03*
X892165Y254806D02*
D03*
X890415Y257838D02*
D03*
X983126Y117769D02*
D03*
X984876Y114738D02*
D03*
X980338Y111740D02*
D03*
X978588Y114771D02*
D03*
X613259Y253125D02*
D03*
X611509Y256156D02*
D03*
X636260Y254805D02*
D03*
X634510Y257836D02*
D03*
X727220Y117768D02*
D03*
X728970Y114736D02*
D03*
X724432Y111739D02*
D03*
X722682Y114770D02*
D03*
X613259Y517350D02*
D03*
X611509Y520381D02*
D03*
X636260Y519031D02*
D03*
X634510Y522062D02*
D03*
X727220Y381993D02*
D03*
X728970Y378962D02*
D03*
X724432Y375964D02*
D03*
X722682Y378995D02*
D03*
D60*
X903450Y260349D02*
D03*
X896750D02*
D03*
X912008Y136376D02*
D03*
X905308D02*
D03*
X647544Y260348D02*
D03*
X640844D02*
D03*
X656102Y136374D02*
D03*
X649402D02*
D03*
X647544Y524573D02*
D03*
X640844D02*
D03*
X656102Y400600D02*
D03*
X649402D02*
D03*
X414920Y205525D02*
D03*
X421620D02*
D03*
D61*
X884783Y260442D02*
D03*
X873020Y253651D02*
D03*
X628878Y260441D02*
D03*
X617115Y253649D02*
D03*
X628878Y524666D02*
D03*
X617115Y517875D02*
D03*
D62*
X885945Y257249D02*
D03*
X875205Y251048D02*
D03*
X871859Y256844D02*
D03*
X882599Y263045D02*
D03*
X630040Y257247D02*
D03*
X619300Y251047D02*
D03*
X615953Y256843D02*
D03*
X626693Y263044D02*
D03*
X630040Y521473D02*
D03*
X619300Y515272D02*
D03*
X615953Y521068D02*
D03*
X626693Y527269D02*
D03*
D63*
X908061Y249916D02*
D03*
X898612Y253558D02*
D03*
Y249916D02*
D03*
X908061Y253558D02*
D03*
X906388Y245143D02*
D03*
X900285D02*
D03*
X903336Y251599D02*
D03*
X652155Y249915D02*
D03*
X642706Y253557D02*
D03*
Y249915D02*
D03*
X652155Y253557D02*
D03*
X650482Y245141D02*
D03*
X644380D02*
D03*
X647431Y251598D02*
D03*
X652155Y514141D02*
D03*
X642706Y517782D02*
D03*
Y514140D02*
D03*
X652155Y517782D02*
D03*
X650482Y509367D02*
D03*
X644380D02*
D03*
X647431Y515823D02*
D03*
D64*
X898612Y251737D02*
D03*
X908061Y251737D02*
D03*
X642706Y251736D02*
D03*
X652155Y251736D02*
D03*
X642706Y515961D02*
D03*
X652155Y515961D02*
D03*
D65*
X956661Y232469D02*
D03*
Y238369D02*
D03*
X700756Y232468D02*
D03*
Y238368D02*
D03*
Y496693D02*
D03*
Y502593D02*
D03*
X76694Y107917D02*
D03*
Y113817D02*
D03*
X132888Y293371D02*
D03*
Y287471D02*
D03*
X119937Y293371D02*
D03*
Y287471D02*
D03*
X393433Y433992D02*
D03*
Y428092D02*
D03*
X251701Y433992D02*
D03*
Y428092D02*
D03*
X109969Y433992D02*
D03*
Y428092D02*
D03*
X409610Y255579D02*
D03*
Y261479D02*
D03*
X376525Y255511D02*
D03*
Y261411D02*
D03*
X161698Y304728D02*
D03*
Y310628D02*
D03*
X267235Y367927D02*
D03*
Y362027D02*
D03*
X244670Y367975D02*
D03*
Y362075D02*
D03*
X412002Y458275D02*
D03*
Y452375D02*
D03*
X270270Y458275D02*
D03*
Y452375D02*
D03*
X128538Y458275D02*
D03*
Y452375D02*
D03*
X341135Y458275D02*
D03*
Y452375D02*
D03*
X199402Y458275D02*
D03*
Y452375D02*
D03*
X57670Y458275D02*
D03*
Y452375D02*
D03*
X238512Y338435D02*
D03*
Y344335D02*
D03*
X314547Y367580D02*
D03*
Y361680D02*
D03*
X285925Y367580D02*
D03*
Y361680D02*
D03*
X274710Y338435D02*
D03*
Y344335D02*
D03*
X107693Y353362D02*
D03*
Y359262D02*
D03*
X126435Y203680D02*
D03*
Y209580D02*
D03*
X406570Y222575D02*
D03*
Y228475D02*
D03*
X167242Y224409D02*
D03*
Y218509D02*
D03*
X233670Y205475D02*
D03*
Y211375D02*
D03*
X345977Y284625D02*
D03*
Y278725D02*
D03*
D66*
X1023368Y213551D02*
D03*
X1023368Y217291D02*
D03*
Y221032D02*
D03*
X1033605Y213551D02*
D03*
Y221032D02*
D03*
X1023368Y198504D02*
D03*
X1023368Y202245D02*
D03*
X1023368Y205985D02*
D03*
X1033605Y198504D02*
D03*
Y205985D02*
D03*
X767463Y213550D02*
D03*
X767463Y217290D02*
D03*
Y221030D02*
D03*
X777699Y213550D02*
D03*
Y221030D02*
D03*
X767463Y198503D02*
D03*
X767463Y202243D02*
D03*
X767463Y205983D02*
D03*
X777699Y198503D02*
D03*
Y205983D02*
D03*
X767463Y477775D02*
D03*
X767463Y481516D02*
D03*
Y485256D02*
D03*
X777699Y477775D02*
D03*
Y485256D02*
D03*
X767463Y462729D02*
D03*
X767463Y466469D02*
D03*
X767463Y470209D02*
D03*
X777699Y462729D02*
D03*
Y470209D02*
D03*
X404383Y408585D02*
D03*
Y416065D02*
D03*
X414619Y408585D02*
D03*
Y412325D02*
D03*
Y416065D02*
D03*
X262650Y408585D02*
D03*
Y416065D02*
D03*
X272887Y408585D02*
D03*
Y412325D02*
D03*
Y416065D02*
D03*
X120918Y408585D02*
D03*
Y416065D02*
D03*
X131154Y408585D02*
D03*
Y412325D02*
D03*
Y416065D02*
D03*
X333517Y408585D02*
D03*
Y416065D02*
D03*
X343753Y408585D02*
D03*
Y412325D02*
D03*
Y416065D02*
D03*
X191784Y408585D02*
D03*
Y416065D02*
D03*
X202021Y408585D02*
D03*
Y412325D02*
D03*
Y416065D02*
D03*
X50052Y408585D02*
D03*
Y416065D02*
D03*
X60288Y408585D02*
D03*
Y412325D02*
D03*
Y416065D02*
D03*
D67*
X918919Y231677D02*
D03*
X913019D02*
D03*
X913019Y237287D02*
D03*
X918919D02*
D03*
X970535Y238568D02*
D03*
X964635D02*
D03*
X964634Y232661D02*
D03*
X970534D02*
D03*
X968036Y167621D02*
D03*
X962136Y167621D02*
D03*
X663014Y231676D02*
D03*
X657114D02*
D03*
X657114Y237286D02*
D03*
X663014D02*
D03*
X714630Y238567D02*
D03*
X708730D02*
D03*
X708729Y232660D02*
D03*
X714629D02*
D03*
X712131Y167619D02*
D03*
X706231Y167619D02*
D03*
X663014Y495901D02*
D03*
X657114D02*
D03*
X657114Y501511D02*
D03*
X663014D02*
D03*
X714630Y502792D02*
D03*
X708730D02*
D03*
X708729Y496886D02*
D03*
X714629D02*
D03*
X712131Y431845D02*
D03*
X706231Y431845D02*
D03*
X317913Y406406D02*
D03*
X323813D02*
D03*
X176364Y406157D02*
D03*
X182264D02*
D03*
X338964Y422573D02*
D03*
X333064D02*
D03*
X197232D02*
D03*
X191332D02*
D03*
X55500D02*
D03*
X49600D02*
D03*
X147160Y238588D02*
D03*
X141260D02*
D03*
X426056Y237115D02*
D03*
X420156D02*
D03*
X285670Y298625D02*
D03*
X291570D02*
D03*
X324139Y324778D02*
D03*
X318239D02*
D03*
X458046Y367649D02*
D03*
X463946D02*
D03*
X409831Y422573D02*
D03*
X403931D02*
D03*
X268098D02*
D03*
X262198D02*
D03*
X126366D02*
D03*
X120466D02*
D03*
X52628Y357372D02*
D03*
X58529D02*
D03*
X123620Y367125D02*
D03*
X129520D02*
D03*
X166715Y207735D02*
D03*
X172615D02*
D03*
X138620Y299925D02*
D03*
X132720D02*
D03*
X125692Y299137D02*
D03*
X119792D02*
D03*
X53200Y300058D02*
D03*
X59100D02*
D03*
X178497Y251486D02*
D03*
X184397D02*
D03*
X231346Y161623D02*
D03*
X225446D02*
D03*
X258188Y188757D02*
D03*
X264088D02*
D03*
X251253Y302973D02*
D03*
X257153D02*
D03*
X285612Y191146D02*
D03*
X279712D02*
D03*
X333068Y193892D02*
D03*
X327168D02*
D03*
X52993Y330200D02*
D03*
X58893D02*
D03*
D68*
X951107Y225981D02*
D03*
Y220982D02*
D03*
Y215982D02*
D03*
Y210981D02*
D03*
X972367Y225981D02*
D03*
Y220982D02*
D03*
Y215982D02*
D03*
Y210981D02*
D03*
X695202Y225980D02*
D03*
Y220980D02*
D03*
Y215980D02*
D03*
Y210980D02*
D03*
X716462Y225980D02*
D03*
Y220980D02*
D03*
Y215980D02*
D03*
Y210980D02*
D03*
X695202Y490206D02*
D03*
Y485206D02*
D03*
Y480206D02*
D03*
Y475206D02*
D03*
X716462Y490206D02*
D03*
Y485206D02*
D03*
Y480206D02*
D03*
Y475206D02*
D03*
D69*
X881829Y218707D02*
D03*
X881829Y221266D02*
D03*
X881829Y223825D02*
D03*
X873167D02*
D03*
X873167Y221266D02*
D03*
X873167Y218707D02*
D03*
X625923Y218706D02*
D03*
X625923Y221265D02*
D03*
X625923Y223823D02*
D03*
X617262D02*
D03*
X617262Y221265D02*
D03*
X617262Y218706D02*
D03*
X625923Y482931D02*
D03*
X625923Y485490D02*
D03*
X625923Y488049D02*
D03*
X617262D02*
D03*
X617262Y485490D02*
D03*
X617262Y482931D02*
D03*
D70*
X916265Y210476D02*
D03*
Y215476D02*
D03*
X916265Y220476D02*
D03*
X916265Y225476D02*
D03*
X894217Y210476D02*
D03*
X894217Y215476D02*
D03*
X894217Y220476D02*
D03*
Y225476D02*
D03*
X660359Y210475D02*
D03*
Y215475D02*
D03*
X660359Y220475D02*
D03*
X660359Y225475D02*
D03*
X638312Y210475D02*
D03*
X638312Y215475D02*
D03*
X638312Y220475D02*
D03*
Y225475D02*
D03*
X660359Y474700D02*
D03*
Y479701D02*
D03*
X660359Y484700D02*
D03*
X660359Y489701D02*
D03*
X638312Y474700D02*
D03*
X638312Y479701D02*
D03*
X638312Y484700D02*
D03*
Y489701D02*
D03*
D71*
X927037Y251787D02*
D03*
X929005D02*
D03*
X932942D02*
D03*
X934911D02*
D03*
X927037Y255075D02*
D03*
X929005D02*
D03*
X932942D02*
D03*
X934911D02*
D03*
X939517Y251751D02*
D03*
X941485Y251751D02*
D03*
X945422Y251751D02*
D03*
X947391D02*
D03*
X939517Y255039D02*
D03*
X941485D02*
D03*
X945422D02*
D03*
X947391D02*
D03*
X671131Y251786D02*
D03*
X673100D02*
D03*
X677037D02*
D03*
X679005D02*
D03*
X671131Y255073D02*
D03*
X673100D02*
D03*
X677037D02*
D03*
X679005D02*
D03*
X683611Y251750D02*
D03*
X685580Y251750D02*
D03*
X689517Y251750D02*
D03*
X691485D02*
D03*
X683611Y255038D02*
D03*
X685580D02*
D03*
X689517D02*
D03*
X691485D02*
D03*
X671131Y516011D02*
D03*
X673100D02*
D03*
X677037D02*
D03*
X679005D02*
D03*
X671131Y519299D02*
D03*
X673100D02*
D03*
X677037D02*
D03*
X679005D02*
D03*
X683611Y515976D02*
D03*
X685580Y515976D02*
D03*
X689517Y515976D02*
D03*
X691485D02*
D03*
X683611Y519263D02*
D03*
X685580D02*
D03*
X689517D02*
D03*
X691485D02*
D03*
X465354Y487470D02*
D03*
X463386D02*
D03*
X459449D02*
D03*
X457480D02*
D03*
X465354Y484183D02*
D03*
X463386D02*
D03*
X459449D02*
D03*
X457480D02*
D03*
X311024Y487470D02*
D03*
X309055D02*
D03*
X305118D02*
D03*
X303150D02*
D03*
X311024Y484183D02*
D03*
X309055D02*
D03*
X305118D02*
D03*
X303150D02*
D03*
X156693Y487470D02*
D03*
X154725D02*
D03*
X150787D02*
D03*
X148819D02*
D03*
X156693Y484183D02*
D03*
X154725D02*
D03*
X150787D02*
D03*
X148819D02*
D03*
X440158Y487470D02*
D03*
X438189D02*
D03*
X434252D02*
D03*
X432284D02*
D03*
X440158Y484183D02*
D03*
X438189D02*
D03*
X434252D02*
D03*
X432284D02*
D03*
X285827Y487470D02*
D03*
X283858D02*
D03*
X279921D02*
D03*
X277953D02*
D03*
X285827Y484183D02*
D03*
X283858D02*
D03*
X279921D02*
D03*
X277953D02*
D03*
X131496Y487470D02*
D03*
X129528D02*
D03*
X125591D02*
D03*
X123622D02*
D03*
X131496Y484183D02*
D03*
X129528D02*
D03*
X125591D02*
D03*
X123622D02*
D03*
X452756Y487470D02*
D03*
X450787D02*
D03*
X446850D02*
D03*
X444882D02*
D03*
X452756Y484183D02*
D03*
X450787D02*
D03*
X446850D02*
D03*
X444882D02*
D03*
X298425Y487470D02*
D03*
X296457D02*
D03*
X292520D02*
D03*
X290551D02*
D03*
X298425Y484183D02*
D03*
X296457D02*
D03*
X292520D02*
D03*
X290551D02*
D03*
X144095Y487470D02*
D03*
X142126D02*
D03*
X138189D02*
D03*
X136221D02*
D03*
X144095Y484183D02*
D03*
X142126D02*
D03*
X138189D02*
D03*
X136221D02*
D03*
X386959Y186780D02*
D03*
X388927D02*
D03*
X392864D02*
D03*
X394833D02*
D03*
X386959Y190067D02*
D03*
X388927D02*
D03*
X392864D02*
D03*
X394833D02*
D03*
X362992Y487470D02*
D03*
X361024D02*
D03*
X357087D02*
D03*
X355118D02*
D03*
X362992Y484183D02*
D03*
X361024D02*
D03*
X357087D02*
D03*
X355118D02*
D03*
X208662Y487470D02*
D03*
X206693D02*
D03*
X202756D02*
D03*
X200787D02*
D03*
X208662Y484183D02*
D03*
X206693D02*
D03*
X202756D02*
D03*
X200787D02*
D03*
X54331Y487470D02*
D03*
X52362D02*
D03*
X48425D02*
D03*
X46457D02*
D03*
X54331Y484183D02*
D03*
X52362D02*
D03*
X48425D02*
D03*
X46457D02*
D03*
X375591Y487470D02*
D03*
X373622D02*
D03*
X369685D02*
D03*
X367717D02*
D03*
X375591Y484183D02*
D03*
X373622D02*
D03*
X369685D02*
D03*
X367717D02*
D03*
X221260Y487470D02*
D03*
X219291D02*
D03*
X215354D02*
D03*
X213386D02*
D03*
X221260Y484183D02*
D03*
X219291D02*
D03*
X215354D02*
D03*
X213386D02*
D03*
X66928Y487470D02*
D03*
X64960D02*
D03*
X61023D02*
D03*
X59054D02*
D03*
X66928Y484183D02*
D03*
X64960D02*
D03*
X61023D02*
D03*
X59054D02*
D03*
X388189Y487470D02*
D03*
X386221D02*
D03*
X382284D02*
D03*
X380315D02*
D03*
X388189Y484183D02*
D03*
X386221D02*
D03*
X382284D02*
D03*
X380315D02*
D03*
X233858Y487470D02*
D03*
X231890D02*
D03*
X227953D02*
D03*
X225984D02*
D03*
X233858Y484183D02*
D03*
X231890D02*
D03*
X227953D02*
D03*
X225984D02*
D03*
X79528Y487470D02*
D03*
X77559D02*
D03*
X73622D02*
D03*
X71654D02*
D03*
X79528Y484183D02*
D03*
X77559D02*
D03*
X73622D02*
D03*
X71654D02*
D03*
X102939Y124713D02*
D03*
X100970D02*
D03*
X97033D02*
D03*
X95065D02*
D03*
X102939Y121425D02*
D03*
X100970D02*
D03*
X97033D02*
D03*
X95065D02*
D03*
D72*
X930974Y251787D02*
D03*
Y255075D02*
D03*
X943454Y251751D02*
D03*
X943454Y255039D02*
D03*
X675068Y251786D02*
D03*
Y255073D02*
D03*
X687548Y251750D02*
D03*
X687548Y255038D02*
D03*
X675068Y516011D02*
D03*
Y519299D02*
D03*
X687548Y515976D02*
D03*
X687548Y519263D02*
D03*
X461417Y487470D02*
D03*
Y484183D02*
D03*
X307087Y487470D02*
D03*
Y484183D02*
D03*
X152756Y487470D02*
D03*
Y484183D02*
D03*
X436221Y487470D02*
D03*
Y484183D02*
D03*
X281890Y487470D02*
D03*
Y484183D02*
D03*
X127559Y487470D02*
D03*
Y484183D02*
D03*
X448819Y487470D02*
D03*
Y484183D02*
D03*
X294488Y487470D02*
D03*
Y484183D02*
D03*
X140158Y487470D02*
D03*
Y484183D02*
D03*
X390896Y186780D02*
D03*
Y190067D02*
D03*
X359055Y487470D02*
D03*
Y484183D02*
D03*
X204725Y487470D02*
D03*
Y484183D02*
D03*
X50394Y487470D02*
D03*
Y484183D02*
D03*
X371654Y487470D02*
D03*
Y484183D02*
D03*
X217323Y487470D02*
D03*
Y484183D02*
D03*
X62991Y487470D02*
D03*
Y484183D02*
D03*
X384252Y487470D02*
D03*
Y484183D02*
D03*
X229921Y487470D02*
D03*
Y484183D02*
D03*
X75591Y487470D02*
D03*
Y484183D02*
D03*
X99002Y124713D02*
D03*
Y121425D02*
D03*
D73*
X962978Y248237D02*
D03*
Y250205D02*
D03*
Y254142D02*
D03*
Y256111D02*
D03*
X959691Y248237D02*
D03*
Y250205D02*
D03*
Y254142D02*
D03*
Y256111D02*
D03*
X970067Y282542D02*
D03*
X970067Y280574D02*
D03*
X970067Y276637D02*
D03*
Y274668D02*
D03*
X973354Y282542D02*
D03*
Y280574D02*
D03*
X973354Y276637D02*
D03*
Y274668D02*
D03*
X707073Y248236D02*
D03*
Y250204D02*
D03*
Y254141D02*
D03*
Y256110D02*
D03*
X703785Y248236D02*
D03*
Y250204D02*
D03*
Y254141D02*
D03*
Y256110D02*
D03*
X714161Y282541D02*
D03*
X714161Y280572D02*
D03*
X714161Y276635D02*
D03*
Y274667D02*
D03*
X717449Y282541D02*
D03*
Y280572D02*
D03*
X717449Y276635D02*
D03*
Y274667D02*
D03*
X707073Y512461D02*
D03*
Y514430D02*
D03*
Y518366D02*
D03*
Y520335D02*
D03*
X703785Y512461D02*
D03*
Y514430D02*
D03*
Y518366D02*
D03*
Y520335D02*
D03*
X714161Y546766D02*
D03*
X714161Y544798D02*
D03*
X714161Y540861D02*
D03*
Y538892D02*
D03*
X717449Y546766D02*
D03*
Y544798D02*
D03*
X717449Y540861D02*
D03*
Y538892D02*
D03*
X439301Y253937D02*
D03*
Y251969D02*
D03*
Y248031D02*
D03*
Y246063D02*
D03*
X442589Y253937D02*
D03*
Y251969D02*
D03*
Y248031D02*
D03*
Y246063D02*
D03*
X439301Y240675D02*
D03*
Y238707D02*
D03*
Y234770D02*
D03*
Y232801D02*
D03*
X442589Y240675D02*
D03*
Y238707D02*
D03*
Y234770D02*
D03*
Y232801D02*
D03*
Y219211D02*
D03*
Y221179D02*
D03*
Y225116D02*
D03*
Y227085D02*
D03*
X439301Y219211D02*
D03*
Y221179D02*
D03*
Y225116D02*
D03*
Y227085D02*
D03*
D74*
X962978Y252174D02*
D03*
X959691Y252174D02*
D03*
X970067Y278605D02*
D03*
X973354D02*
D03*
X707073Y252173D02*
D03*
X703785Y252173D02*
D03*
X714161Y278604D02*
D03*
X717449D02*
D03*
X707073Y516398D02*
D03*
X703785Y516398D02*
D03*
X714161Y542829D02*
D03*
X717449D02*
D03*
X439301Y250000D02*
D03*
X442589D02*
D03*
X439301Y236738D02*
D03*
X442589D02*
D03*
Y223148D02*
D03*
X439301D02*
D03*
D75*
X919471Y262287D02*
D03*
X919471Y281579D02*
D03*
X663566Y262286D02*
D03*
X663566Y281577D02*
D03*
X663566Y526511D02*
D03*
X663566Y545803D02*
D03*
X169291Y504134D02*
D03*
Y523425D02*
D03*
X342520Y504134D02*
D03*
Y523425D02*
D03*
X162270Y174880D02*
D03*
Y194171D02*
D03*
D76*
X987261Y110680D02*
D03*
X990509Y105054D02*
D03*
X981492Y99988D02*
D03*
X978244Y105613D02*
D03*
X986184Y102343D02*
D03*
X982936Y107969D02*
D03*
X731355Y110679D02*
D03*
X734603Y105053D02*
D03*
X725587Y99986D02*
D03*
X722338Y105612D02*
D03*
X730278Y102342D02*
D03*
X727030Y107968D02*
D03*
X731355Y374904D02*
D03*
X734603Y369278D02*
D03*
X725587Y364212D02*
D03*
X722338Y369838D02*
D03*
X730278Y366568D02*
D03*
X727030Y372193D02*
D03*
D77*
X914956Y104945D02*
D03*
X911606Y99143D02*
D03*
X893968Y109483D02*
D03*
X897318Y115285D02*
D03*
X659051Y104944D02*
D03*
X655701Y99142D02*
D03*
X638063Y109482D02*
D03*
X641413Y115284D02*
D03*
X659051Y369169D02*
D03*
X655701Y363367D02*
D03*
X638063Y373707D02*
D03*
X641413Y379509D02*
D03*
D78*
X958208Y179996D02*
D03*
X960767D02*
D03*
X963326Y179996D02*
D03*
X965885D02*
D03*
X958208Y202830D02*
D03*
X960767Y202830D02*
D03*
X963326D02*
D03*
X965885D02*
D03*
X702302Y179994D02*
D03*
X704861D02*
D03*
X707420Y179994D02*
D03*
X709979D02*
D03*
X702302Y202829D02*
D03*
X704861Y202829D02*
D03*
X707420D02*
D03*
X709979D02*
D03*
X702302Y444220D02*
D03*
X704861D02*
D03*
X707420Y444220D02*
D03*
X709979D02*
D03*
X702302Y467054D02*
D03*
X704861Y467054D02*
D03*
X707420D02*
D03*
X709979D02*
D03*
D79*
X989371Y210022D02*
D03*
X994371D02*
D03*
X999371Y210022D02*
D03*
X1004371Y210022D02*
D03*
X989371Y232070D02*
D03*
X994371Y232070D02*
D03*
X999371Y232070D02*
D03*
X1004371D02*
D03*
X733465Y210021D02*
D03*
X738465D02*
D03*
X743465Y210021D02*
D03*
X748465Y210021D02*
D03*
X733465Y232068D02*
D03*
X738465Y232068D02*
D03*
X743465Y232068D02*
D03*
X748465D02*
D03*
X733465Y474247D02*
D03*
X738465D02*
D03*
X743465Y474247D02*
D03*
X748465Y474247D02*
D03*
X733465Y496294D02*
D03*
X738465Y496294D02*
D03*
X743465Y496294D02*
D03*
X748465D02*
D03*
X422483Y450403D02*
D03*
X427483D02*
D03*
X432483D02*
D03*
X437483D02*
D03*
X422483Y472450D02*
D03*
X427483D02*
D03*
X432483D02*
D03*
X437483D02*
D03*
X280751Y450403D02*
D03*
X285751D02*
D03*
X290751D02*
D03*
X295751D02*
D03*
X280751Y472450D02*
D03*
X285751D02*
D03*
X290751D02*
D03*
X295751D02*
D03*
X139019Y450403D02*
D03*
X144019D02*
D03*
X149019D02*
D03*
X154019D02*
D03*
X139019Y472450D02*
D03*
X144019D02*
D03*
X149019D02*
D03*
X154019D02*
D03*
X371929Y421030D02*
D03*
X376929D02*
D03*
X381929D02*
D03*
X386929D02*
D03*
X371929Y443077D02*
D03*
X376929D02*
D03*
X381929D02*
D03*
X386929D02*
D03*
X230196Y421030D02*
D03*
X235196D02*
D03*
X240196D02*
D03*
X245196D02*
D03*
X230196Y443077D02*
D03*
X235196D02*
D03*
X240196D02*
D03*
X245196D02*
D03*
X88464Y421030D02*
D03*
X93464D02*
D03*
X98464D02*
D03*
X103464D02*
D03*
X88464Y443077D02*
D03*
X93464D02*
D03*
X98464D02*
D03*
X103464D02*
D03*
X351617Y450403D02*
D03*
X356617D02*
D03*
X361617D02*
D03*
X366617D02*
D03*
X351617Y472450D02*
D03*
X356617D02*
D03*
X361617D02*
D03*
X366617D02*
D03*
X209885Y450403D02*
D03*
X214885D02*
D03*
X219885D02*
D03*
X224885D02*
D03*
X209885Y472450D02*
D03*
X214885D02*
D03*
X219885D02*
D03*
X224885D02*
D03*
X68153Y450403D02*
D03*
X73153D02*
D03*
X78153D02*
D03*
X83153D02*
D03*
X68153Y472450D02*
D03*
X73153D02*
D03*
X78153D02*
D03*
X83153D02*
D03*
D80*
X873774Y166694D02*
D03*
X876333D02*
D03*
X878893D02*
D03*
Y161576D02*
D03*
X876333D02*
D03*
X873774D02*
D03*
X617869Y166693D02*
D03*
X620428D02*
D03*
X622987D02*
D03*
Y161575D02*
D03*
X620428D02*
D03*
X617869D02*
D03*
Y430918D02*
D03*
X620428D02*
D03*
X622987D02*
D03*
Y425800D02*
D03*
X620428D02*
D03*
X617869D02*
D03*
D81*
X930148Y172225D02*
D03*
X928573D02*
D03*
X926998D02*
D03*
X925423D02*
D03*
X923849D02*
D03*
X922274D02*
D03*
X920699D02*
D03*
X919124D02*
D03*
X917549D02*
D03*
X915975D02*
D03*
X914400D02*
D03*
X912825D02*
D03*
Y149390D02*
D03*
X914400D02*
D03*
X915975D02*
D03*
X917549D02*
D03*
X919124D02*
D03*
X920699D02*
D03*
X922274D02*
D03*
X923849D02*
D03*
X925423D02*
D03*
X926998D02*
D03*
X928573D02*
D03*
X930148D02*
D03*
X674242Y172224D02*
D03*
X672668D02*
D03*
X671093D02*
D03*
X669518D02*
D03*
X667943D02*
D03*
X666368D02*
D03*
X664793D02*
D03*
X663219D02*
D03*
X661644D02*
D03*
X660069D02*
D03*
X658494D02*
D03*
X656919D02*
D03*
Y149389D02*
D03*
X658494D02*
D03*
X660069D02*
D03*
X661644D02*
D03*
X663219D02*
D03*
X664793D02*
D03*
X666368D02*
D03*
X667943D02*
D03*
X669518D02*
D03*
X671093D02*
D03*
X672668D02*
D03*
X674242D02*
D03*
Y436449D02*
D03*
X672668D02*
D03*
X671093D02*
D03*
X669518D02*
D03*
X667943D02*
D03*
X666368D02*
D03*
X664793D02*
D03*
X663219D02*
D03*
X661644D02*
D03*
X660069D02*
D03*
X658494D02*
D03*
X656919D02*
D03*
Y413614D02*
D03*
X658494D02*
D03*
X660069D02*
D03*
X661644D02*
D03*
X663219D02*
D03*
X664793D02*
D03*
X666368D02*
D03*
X667943D02*
D03*
X669518D02*
D03*
X671093D02*
D03*
X672668D02*
D03*
X674242D02*
D03*
D82*
X910069Y169469D02*
D03*
Y167894D02*
D03*
Y166319D02*
D03*
Y164745D02*
D03*
Y163170D02*
D03*
Y161595D02*
D03*
Y160020D02*
D03*
Y158445D02*
D03*
Y156870D02*
D03*
Y155296D02*
D03*
Y153721D02*
D03*
Y152146D02*
D03*
X932904D02*
D03*
Y153721D02*
D03*
Y155296D02*
D03*
Y156870D02*
D03*
Y158445D02*
D03*
Y160020D02*
D03*
Y161595D02*
D03*
Y163170D02*
D03*
Y164745D02*
D03*
Y166319D02*
D03*
Y167894D02*
D03*
Y169469D02*
D03*
X654164Y169468D02*
D03*
Y167893D02*
D03*
Y166318D02*
D03*
Y164743D02*
D03*
Y163169D02*
D03*
Y161594D02*
D03*
Y160019D02*
D03*
Y158444D02*
D03*
Y156869D02*
D03*
Y155295D02*
D03*
Y153720D02*
D03*
Y152145D02*
D03*
X676998D02*
D03*
Y153720D02*
D03*
Y155295D02*
D03*
Y156869D02*
D03*
Y158444D02*
D03*
Y160019D02*
D03*
Y161594D02*
D03*
Y163169D02*
D03*
Y164743D02*
D03*
Y166318D02*
D03*
Y167893D02*
D03*
Y169468D02*
D03*
X654164Y433693D02*
D03*
Y432118D02*
D03*
Y430544D02*
D03*
Y428969D02*
D03*
Y427394D02*
D03*
Y425819D02*
D03*
Y424244D02*
D03*
Y422670D02*
D03*
Y421095D02*
D03*
Y419520D02*
D03*
Y417945D02*
D03*
Y416370D02*
D03*
X676998D02*
D03*
Y417945D02*
D03*
Y419520D02*
D03*
Y421095D02*
D03*
Y422670D02*
D03*
Y424244D02*
D03*
Y425819D02*
D03*
Y427394D02*
D03*
Y428969D02*
D03*
Y430544D02*
D03*
Y432118D02*
D03*
Y433693D02*
D03*
D83*
X921486Y160808D02*
D03*
X665581Y160806D02*
D03*
Y425032D02*
D03*
D91*
X1010638Y441929D02*
D03*
Y439961D02*
D03*
Y443898D02*
D03*
Y445866D02*
D03*
Y447835D02*
D03*
Y449803D02*
D03*
Y453740D02*
D03*
Y455709D02*
D03*
Y457677D02*
D03*
Y451772D02*
D03*
Y461614D02*
D03*
Y459646D02*
D03*
X1017331Y440945D02*
D03*
Y438976D02*
D03*
Y448819D02*
D03*
Y446850D02*
D03*
Y444882D02*
D03*
Y456693D02*
D03*
Y454724D02*
D03*
Y452756D02*
D03*
Y460630D02*
D03*
Y442913D02*
D03*
Y458661D02*
D03*
Y450787D02*
D03*
X886850Y459646D02*
D03*
Y461614D02*
D03*
Y457677D02*
D03*
Y455709D02*
D03*
Y453740D02*
D03*
Y451772D02*
D03*
Y447835D02*
D03*
Y445866D02*
D03*
Y443898D02*
D03*
Y449803D02*
D03*
Y439961D02*
D03*
Y441929D02*
D03*
X880157Y460630D02*
D03*
Y462598D02*
D03*
Y452756D02*
D03*
Y454724D02*
D03*
Y456693D02*
D03*
Y444882D02*
D03*
Y446850D02*
D03*
Y448819D02*
D03*
Y440945D02*
D03*
Y458661D02*
D03*
Y442913D02*
D03*
Y450787D02*
D03*
D92*
X975313Y440185D02*
D03*
Y462802D02*
D03*
X925132Y465802D02*
D03*
Y440185D02*
D03*
D93*
X323623Y400685D02*
D03*
X321064D02*
D03*
X318505D02*
D03*
Y391236D02*
D03*
X321064D02*
D03*
X323623D02*
D03*
X181891Y400728D02*
D03*
X179332D02*
D03*
X176773D02*
D03*
Y391279D02*
D03*
X179332D02*
D03*
X181891D02*
D03*
X142610Y245306D02*
D03*
X145169D02*
D03*
X147728D02*
D03*
Y254755D02*
D03*
X145169D02*
D03*
X142610D02*
D03*
X421139Y243693D02*
D03*
X423698D02*
D03*
X426257D02*
D03*
Y253142D02*
D03*
X423698D02*
D03*
X421139D02*
D03*
X319981Y331405D02*
D03*
X322540D02*
D03*
X325099D02*
D03*
Y340854D02*
D03*
X322540D02*
D03*
X319981D02*
D03*
X462354Y361157D02*
D03*
X459795D02*
D03*
X457236D02*
D03*
Y351708D02*
D03*
X459795D02*
D03*
X462354D02*
D03*
D94*
X373040Y335021D02*
D03*
Y345021D02*
D03*
X338001Y335021D02*
D03*
Y345021D02*
D03*
X151319Y282060D02*
D03*
Y272059D02*
D03*
X186358Y282060D02*
D03*
Y272059D02*
D03*
D95*
X192649Y393189D02*
D03*
X188909Y401063D02*
D03*
X196390D02*
D03*
X449065Y401932D02*
D03*
X441584D02*
D03*
X445325Y394058D02*
D03*
X307332Y401932D02*
D03*
X299852D02*
D03*
X303592Y394058D02*
D03*
X165600Y401932D02*
D03*
X158120D02*
D03*
X161860Y394058D02*
D03*
X338122Y401063D02*
D03*
X330642D02*
D03*
X334382Y393189D02*
D03*
X54657Y401063D02*
D03*
X47177D02*
D03*
X50917Y393189D02*
D03*
X104349Y141186D02*
D03*
X111829D02*
D03*
X108089Y149060D02*
D03*
D96*
X91602Y227299D02*
D03*
X84377D02*
D03*
X91602Y241747D02*
D03*
X84377D02*
D03*
X77153D02*
D03*
X84377Y234523D02*
D03*
X77153Y227299D02*
D03*
Y234523D02*
D03*
X91602D02*
D03*
D97*
X113905Y204996D02*
D03*
D98*
Y209996D02*
D03*
Y214996D02*
D03*
Y219996D02*
D03*
Y224996D02*
D03*
Y229996D02*
D03*
Y234996D02*
D03*
Y239996D02*
D03*
Y244995D02*
D03*
Y249995D02*
D03*
Y254995D02*
D03*
Y259996D02*
D03*
Y264996D02*
D03*
Y269995D02*
D03*
X46976D02*
D03*
Y264996D02*
D03*
Y259996D02*
D03*
Y254995D02*
D03*
Y249995D02*
D03*
Y244995D02*
D03*
Y239996D02*
D03*
Y234996D02*
D03*
Y229995D02*
D03*
Y224995D02*
D03*
Y219995D02*
D03*
Y214996D02*
D03*
Y209996D02*
D03*
Y204995D02*
D03*
D99*
X72940Y273933D02*
D03*
X57940D02*
D03*
X67940D02*
D03*
X82940D02*
D03*
X97940D02*
D03*
X92940D02*
D03*
X62940D02*
D03*
X77940D02*
D03*
X87940D02*
D03*
X102940D02*
D03*
D100*
X374775Y388250D02*
D03*
X367295D02*
D03*
X374775Y378801D02*
D03*
X371035D02*
D03*
X367295D02*
D03*
X393875Y388250D02*
D03*
X386395D02*
D03*
X393875Y378801D02*
D03*
X390135D02*
D03*
X386395D02*
D03*
X233043Y388250D02*
D03*
X225562D02*
D03*
X233043Y378801D02*
D03*
X229302D02*
D03*
X225562D02*
D03*
X252143Y388250D02*
D03*
X244662D02*
D03*
X252143Y378801D02*
D03*
X248402D02*
D03*
X244662D02*
D03*
X91310Y388250D02*
D03*
X83830D02*
D03*
X91310Y378801D02*
D03*
X87570D02*
D03*
X83830D02*
D03*
X110410Y388250D02*
D03*
X102930D02*
D03*
X110410Y378801D02*
D03*
X106670D02*
D03*
X102930D02*
D03*
D101*
X95860Y301184D02*
D03*
X99758Y297287D02*
D03*
X100593Y305917D02*
D03*
X104490Y302019D02*
D03*
D102*
X276687Y326476D02*
D03*
X280820D02*
D03*
Y320177D02*
D03*
X276687D02*
D03*
D103*
X311274Y177795D02*
D03*
Y186850D02*
D03*
X303793D02*
D03*
Y177795D02*
D03*
X215161Y214866D02*
D03*
Y223921D02*
D03*
X207681D02*
D03*
Y214866D02*
D03*
D104*
X132670Y237405D02*
D03*
Y247445D02*
D03*
D105*
X412022Y228576D02*
D03*
Y222474D02*
D03*
X418518D02*
D03*
Y228576D02*
D03*
D106*
X396157Y290889D02*
D03*
D107*
X391236Y283408D02*
D03*
X401079D02*
D03*
X393205D02*
D03*
X395173D02*
D03*
X399110D02*
D03*
X397142D02*
D03*
Y298369D02*
D03*
X399110D02*
D03*
X395173D02*
D03*
X393205D02*
D03*
X401079D02*
D03*
X391236D02*
D03*
D108*
X403638Y289904D02*
D03*
Y287936D02*
D03*
Y291873D02*
D03*
Y293842D02*
D03*
Y285967D02*
D03*
Y295810D02*
D03*
X388677D02*
D03*
Y285967D02*
D03*
Y293842D02*
D03*
Y291873D02*
D03*
Y287936D02*
D03*
Y289904D02*
D03*
D109*
X168204Y309372D02*
D03*
Y306813D02*
D03*
Y304254D02*
D03*
X177653D02*
D03*
Y306813D02*
D03*
Y309372D02*
D03*
D110*
X334735Y437725D02*
D03*
X193002D02*
D03*
X51270D02*
D03*
X405601D02*
D03*
X263869D02*
D03*
X122136D02*
D03*
D111*
X338672Y443178D02*
D03*
X336703D02*
D03*
X334735D02*
D03*
X332766D02*
D03*
X330798D02*
D03*
Y432272D02*
D03*
X332766D02*
D03*
X334735D02*
D03*
X336703D02*
D03*
X338672D02*
D03*
X196940Y443178D02*
D03*
X194971D02*
D03*
X193002D02*
D03*
X191034D02*
D03*
X189066D02*
D03*
Y432272D02*
D03*
X191034D02*
D03*
X193002D02*
D03*
X194971D02*
D03*
X196940D02*
D03*
X55207Y443178D02*
D03*
X53239D02*
D03*
X51270D02*
D03*
X49302D02*
D03*
X47333D02*
D03*
Y432272D02*
D03*
X49302D02*
D03*
X51270D02*
D03*
X53239D02*
D03*
X55207D02*
D03*
X409538Y443178D02*
D03*
X407569D02*
D03*
X405601D02*
D03*
X403632D02*
D03*
X401664D02*
D03*
Y432272D02*
D03*
X403632D02*
D03*
X405601D02*
D03*
X407569D02*
D03*
X409538D02*
D03*
X267806Y443178D02*
D03*
X265837D02*
D03*
X263869D02*
D03*
X261900D02*
D03*
X259932D02*
D03*
Y432272D02*
D03*
X261900D02*
D03*
X263869D02*
D03*
X265837D02*
D03*
X267806D02*
D03*
X126073Y443178D02*
D03*
X124105D02*
D03*
X122136D02*
D03*
X120168D02*
D03*
X118199D02*
D03*
Y432272D02*
D03*
X120168D02*
D03*
X122136D02*
D03*
X124105D02*
D03*
X126073D02*
D03*
D112*
X449214Y408978D02*
D03*
Y411537D02*
D03*
Y414096D02*
D03*
X441734D02*
D03*
Y411537D02*
D03*
Y408978D02*
D03*
X307482D02*
D03*
Y411537D02*
D03*
Y414096D02*
D03*
X300002D02*
D03*
Y411537D02*
D03*
Y408978D02*
D03*
X165750D02*
D03*
Y411537D02*
D03*
Y414096D02*
D03*
X158269D02*
D03*
Y411537D02*
D03*
Y408978D02*
D03*
D113*
X356151Y413548D02*
D03*
X353592D02*
D03*
X351033D02*
D03*
Y406068D02*
D03*
X353592D02*
D03*
X356151D02*
D03*
X214419Y413548D02*
D03*
X211859D02*
D03*
X209300D02*
D03*
Y406068D02*
D03*
X211859D02*
D03*
X214419D02*
D03*
X72686Y413548D02*
D03*
X70127D02*
D03*
X67568D02*
D03*
Y406068D02*
D03*
X70127D02*
D03*
X72686D02*
D03*
D114*
X450931Y465948D02*
D03*
X309198D02*
D03*
X167466D02*
D03*
X380065D02*
D03*
X238332D02*
D03*
X96600D02*
D03*
D115*
X453883Y470475D02*
D03*
X451915D02*
D03*
X449946D02*
D03*
X447978D02*
D03*
X453883Y461420D02*
D03*
X451915D02*
D03*
X449946D02*
D03*
X447978D02*
D03*
X312151Y470475D02*
D03*
X310183D02*
D03*
X308214D02*
D03*
X306246D02*
D03*
X312151Y461420D02*
D03*
X310183D02*
D03*
X308214D02*
D03*
X306246D02*
D03*
X170419Y470475D02*
D03*
X168450D02*
D03*
X166482D02*
D03*
X164513D02*
D03*
X170419Y461420D02*
D03*
X168450D02*
D03*
X166482D02*
D03*
X164513D02*
D03*
X383017Y470475D02*
D03*
X381049D02*
D03*
X379080D02*
D03*
X377112D02*
D03*
X383017Y461420D02*
D03*
X381049D02*
D03*
X379080D02*
D03*
X377112D02*
D03*
X241285Y470475D02*
D03*
X239317D02*
D03*
X237348D02*
D03*
X235380D02*
D03*
X241285Y461420D02*
D03*
X239317D02*
D03*
X237348D02*
D03*
X235380D02*
D03*
X99553Y470475D02*
D03*
X97584D02*
D03*
X95616D02*
D03*
X93647D02*
D03*
X99553Y461420D02*
D03*
X97584D02*
D03*
X95616D02*
D03*
X93647D02*
D03*
D116*
X432093Y437581D02*
D03*
X429534D02*
D03*
X426975D02*
D03*
Y429707D02*
D03*
X429534D02*
D03*
X432093D02*
D03*
X290361Y437581D02*
D03*
X287802D02*
D03*
X285243D02*
D03*
Y429707D02*
D03*
X287802D02*
D03*
X290361D02*
D03*
X148629Y437581D02*
D03*
X146070D02*
D03*
X143511D02*
D03*
Y429707D02*
D03*
X146070D02*
D03*
X148629D02*
D03*
X361227Y437581D02*
D03*
X358668D02*
D03*
X356109D02*
D03*
Y429707D02*
D03*
X358668D02*
D03*
X361227D02*
D03*
X219495Y437581D02*
D03*
X216936D02*
D03*
X214377D02*
D03*
Y429707D02*
D03*
X216936D02*
D03*
X219495D02*
D03*
X77763Y437581D02*
D03*
X75204D02*
D03*
X72644D02*
D03*
Y429707D02*
D03*
X75204D02*
D03*
X77763D02*
D03*
D117*
X448247Y444290D02*
D03*
X455925D02*
D03*
X463602D02*
D03*
X453366D02*
D03*
X450807D02*
D03*
X461043D02*
D03*
X458484D02*
D03*
X448247Y421259D02*
D03*
X463602D02*
D03*
X455925D02*
D03*
X453366D02*
D03*
X450807D02*
D03*
X461043D02*
D03*
X458484D02*
D03*
X306515Y444290D02*
D03*
X314192D02*
D03*
X321870D02*
D03*
X311633D02*
D03*
X309074D02*
D03*
X319310D02*
D03*
X316752D02*
D03*
X306515Y421259D02*
D03*
X321870D02*
D03*
X314192D02*
D03*
X311633D02*
D03*
X309074D02*
D03*
X319310D02*
D03*
X316752D02*
D03*
X164783Y444290D02*
D03*
X172460D02*
D03*
X180137D02*
D03*
X169901D02*
D03*
X167342D02*
D03*
X177578D02*
D03*
X175019D02*
D03*
X164783Y421259D02*
D03*
X180137D02*
D03*
X172460D02*
D03*
X169901D02*
D03*
X167342D02*
D03*
X177578D02*
D03*
X175019D02*
D03*
D118*
X412180Y384670D02*
D03*
X414148D02*
D03*
X418085Y396875D02*
D03*
X416117D02*
D03*
X414148D02*
D03*
X412180D02*
D03*
X416117Y384670D02*
D03*
X418085D02*
D03*
X270447D02*
D03*
X272416D02*
D03*
X276353Y396875D02*
D03*
X274384D02*
D03*
X272416D02*
D03*
X270447D02*
D03*
X274384Y384670D02*
D03*
X276353D02*
D03*
X128715D02*
D03*
X130684D02*
D03*
X134621Y396875D02*
D03*
X132652D02*
D03*
X130684D02*
D03*
X128715D02*
D03*
X132652Y384670D02*
D03*
X134621D02*
D03*
D119*
X415132Y390772D02*
D03*
X273400D02*
D03*
X131668D02*
D03*
D120*
X409030Y393725D02*
D03*
Y391757D02*
D03*
Y389788D02*
D03*
Y387820D02*
D03*
X421235D02*
D03*
Y389788D02*
D03*
Y391757D02*
D03*
Y393725D02*
D03*
X267298D02*
D03*
Y391757D02*
D03*
Y389788D02*
D03*
Y387820D02*
D03*
X279503D02*
D03*
Y389788D02*
D03*
Y391757D02*
D03*
Y393725D02*
D03*
X125566D02*
D03*
Y391757D02*
D03*
Y389788D02*
D03*
Y387820D02*
D03*
X137770D02*
D03*
Y389788D02*
D03*
Y391757D02*
D03*
Y393725D02*
D03*
D121*
X73370Y332699D02*
D03*
Y336439D02*
D03*
Y340179D02*
D03*
X84591D02*
D03*
Y336439D02*
D03*
Y332699D02*
D03*
D122*
X185743Y231408D02*
D03*
D123*
X195193Y237408D02*
D03*
Y235408D02*
D03*
Y233408D02*
D03*
Y231408D02*
D03*
Y229408D02*
D03*
Y227408D02*
D03*
Y225408D02*
D03*
X176293D02*
D03*
Y227408D02*
D03*
Y229408D02*
D03*
Y231408D02*
D03*
Y233408D02*
D03*
Y235408D02*
D03*
Y237408D02*
D03*
D124*
X191743Y221958D02*
D03*
X189743D02*
D03*
X187743D02*
D03*
X185743D02*
D03*
X183743D02*
D03*
X181743D02*
D03*
X179743D02*
D03*
Y240858D02*
D03*
X181743D02*
D03*
X183743D02*
D03*
X185743D02*
D03*
X187743D02*
D03*
X189743D02*
D03*
X191743D02*
D03*
D125*
X255921Y348870D02*
D03*
X300409D02*
D03*
X388855Y215909D02*
D03*
D126*
X248244Y347886D02*
D03*
Y345917D02*
D03*
Y343949D02*
D03*
Y353791D02*
D03*
Y351823D02*
D03*
Y349854D02*
D03*
X263599Y343949D02*
D03*
Y345917D02*
D03*
Y347886D02*
D03*
Y349854D02*
D03*
Y351823D02*
D03*
Y353791D02*
D03*
X292732Y347886D02*
D03*
Y345917D02*
D03*
Y343949D02*
D03*
Y353791D02*
D03*
Y351823D02*
D03*
Y349854D02*
D03*
X308086Y343949D02*
D03*
Y345917D02*
D03*
Y347886D02*
D03*
Y349854D02*
D03*
Y351823D02*
D03*
Y353791D02*
D03*
D127*
X254937Y356547D02*
D03*
X252969D02*
D03*
X251000D02*
D03*
X260843D02*
D03*
X258874D02*
D03*
X256906D02*
D03*
X251000Y341193D02*
D03*
X252969D02*
D03*
X254937D02*
D03*
X256906D02*
D03*
X258874D02*
D03*
X260843D02*
D03*
X299425Y356547D02*
D03*
X297456D02*
D03*
X295488D02*
D03*
X305330D02*
D03*
X303362D02*
D03*
X301393D02*
D03*
X295488Y341193D02*
D03*
X297456D02*
D03*
X299425D02*
D03*
X301393D02*
D03*
X303362D02*
D03*
X305330D02*
D03*
D128*
X153549Y324616D02*
D03*
Y322648D02*
D03*
Y320679D02*
D03*
Y318710D02*
D03*
Y332490D02*
D03*
Y330521D02*
D03*
Y328553D02*
D03*
Y326585D02*
D03*
Y340364D02*
D03*
Y338396D02*
D03*
Y336427D02*
D03*
Y334459D02*
D03*
Y348238D02*
D03*
Y346270D02*
D03*
Y344301D02*
D03*
Y342333D02*
D03*
X108825Y318710D02*
D03*
Y320679D02*
D03*
Y322648D02*
D03*
Y324616D02*
D03*
Y326585D02*
D03*
Y328553D02*
D03*
Y330521D02*
D03*
Y332490D02*
D03*
Y334459D02*
D03*
Y336427D02*
D03*
Y338396D02*
D03*
Y340364D02*
D03*
Y342333D02*
D03*
Y344301D02*
D03*
Y346270D02*
D03*
Y348238D02*
D03*
D129*
X140045Y355837D02*
D03*
X142014D02*
D03*
X143982D02*
D03*
X145951D02*
D03*
X132171D02*
D03*
X134140D02*
D03*
X136108D02*
D03*
X138077D02*
D03*
X124297D02*
D03*
X126266D02*
D03*
X128234D02*
D03*
X130203D02*
D03*
X116423D02*
D03*
X118392D02*
D03*
X120360D02*
D03*
X122329D02*
D03*
X145951Y311112D02*
D03*
X143982D02*
D03*
X142014D02*
D03*
X140045D02*
D03*
X138077D02*
D03*
X136108D02*
D03*
X134140D02*
D03*
X132171D02*
D03*
X130203D02*
D03*
X128234D02*
D03*
X126266D02*
D03*
X124297D02*
D03*
X122329D02*
D03*
X120360D02*
D03*
X118392D02*
D03*
X116423D02*
D03*
D130*
X393777Y208159D02*
D03*
X391808D02*
D03*
X389840D02*
D03*
X387871D02*
D03*
X385903D02*
D03*
X383934D02*
D03*
Y223659D02*
D03*
X385903D02*
D03*
X387871D02*
D03*
X389840D02*
D03*
X391808D02*
D03*
X393777D02*
D03*
D131*
X381105Y210987D02*
D03*
Y212956D02*
D03*
Y214924D02*
D03*
Y216893D02*
D03*
Y218862D02*
D03*
Y220830D02*
D03*
X396605D02*
D03*
Y218862D02*
D03*
Y216893D02*
D03*
Y214924D02*
D03*
Y212956D02*
D03*
Y210987D02*
D03*
D132*
X267605Y167752D02*
D03*
Y165784D02*
D03*
Y163815D02*
D03*
X274790Y163815D02*
D03*
Y165783D02*
D03*
Y167752D02*
D03*
D133*
X268244Y170361D02*
D03*
X274150D02*
D03*
X272181D02*
D03*
X270213D02*
D03*
X274150Y161206D02*
D03*
X268245D02*
D03*
X270214D02*
D03*
X272182D02*
D03*
D134*
X230526Y149924D02*
D03*
Y152483D02*
D03*
X220684Y149924D02*
D03*
Y152483D02*
D03*
D135*
X228164Y156125D02*
D03*
X225605D02*
D03*
X223046D02*
D03*
X228164Y146282D02*
D03*
X225605D02*
D03*
X223046D02*
D03*
D136*
X255812Y286966D02*
D03*
X263686D02*
D03*
X271560D02*
D03*
X305024D02*
D03*
X312898D02*
D03*
X320772D02*
D03*
X253843D02*
D03*
X257780D02*
D03*
X259749D02*
D03*
X261717D02*
D03*
X265654D02*
D03*
X267623D02*
D03*
X269591D02*
D03*
X273528D02*
D03*
X275497D02*
D03*
X277465D02*
D03*
X279434D02*
D03*
X281402D02*
D03*
X283371D02*
D03*
X285339D02*
D03*
X287308D02*
D03*
X289276D02*
D03*
X291245D02*
D03*
X293213D02*
D03*
X295182D02*
D03*
X297150D02*
D03*
X299119D02*
D03*
X301087D02*
D03*
X303056D02*
D03*
X306993D02*
D03*
X308961D02*
D03*
X310930D02*
D03*
X314867D02*
D03*
X316835D02*
D03*
X318804D02*
D03*
X322741D02*
D03*
X255812Y203304D02*
D03*
X271560D02*
D03*
X263686D02*
D03*
X320772D02*
D03*
X312898D02*
D03*
X305024D02*
D03*
X253843D02*
D03*
X261717D02*
D03*
X259749D02*
D03*
X257780D02*
D03*
X269591D02*
D03*
X267623D02*
D03*
X265654D02*
D03*
X279434D02*
D03*
X277465D02*
D03*
X275497D02*
D03*
X273528D02*
D03*
X287308D02*
D03*
X285339D02*
D03*
X283371D02*
D03*
X281402D02*
D03*
X295182D02*
D03*
X293213D02*
D03*
X291245D02*
D03*
X289276D02*
D03*
X303056D02*
D03*
X301087D02*
D03*
X299119D02*
D03*
X297150D02*
D03*
X310930D02*
D03*
X308961D02*
D03*
X306993D02*
D03*
X318804D02*
D03*
X316835D02*
D03*
X314867D02*
D03*
X322741D02*
D03*
D137*
X246461Y277615D02*
D03*
X330123D02*
D03*
X246461Y261867D02*
D03*
Y269741D02*
D03*
X330123D02*
D03*
Y261867D02*
D03*
X246461Y212655D02*
D03*
Y220529D02*
D03*
Y228403D02*
D03*
X330123D02*
D03*
Y220529D02*
D03*
Y212655D02*
D03*
X246461Y279584D02*
D03*
X330123D02*
D03*
X246461Y271710D02*
D03*
Y273678D02*
D03*
Y275647D02*
D03*
X330123D02*
D03*
Y273678D02*
D03*
Y271710D02*
D03*
X246461Y263836D02*
D03*
Y265804D02*
D03*
Y267773D02*
D03*
X330123D02*
D03*
Y265804D02*
D03*
Y263836D02*
D03*
X246461Y253993D02*
D03*
Y255962D02*
D03*
Y257930D02*
D03*
Y259899D02*
D03*
X330123D02*
D03*
Y257930D02*
D03*
Y255962D02*
D03*
Y253993D02*
D03*
X246461Y246119D02*
D03*
Y248088D02*
D03*
Y250056D02*
D03*
Y252025D02*
D03*
X330123D02*
D03*
Y250056D02*
D03*
Y248088D02*
D03*
Y246119D02*
D03*
X246461Y238245D02*
D03*
Y240214D02*
D03*
Y242182D02*
D03*
Y244151D02*
D03*
X330123D02*
D03*
Y242182D02*
D03*
Y240214D02*
D03*
Y238245D02*
D03*
X246461Y230371D02*
D03*
Y232340D02*
D03*
Y234308D02*
D03*
Y236277D02*
D03*
X330123D02*
D03*
Y234308D02*
D03*
Y232340D02*
D03*
Y230371D02*
D03*
X246461Y222497D02*
D03*
Y224466D02*
D03*
Y226434D02*
D03*
X330123D02*
D03*
Y224466D02*
D03*
Y222497D02*
D03*
X246461Y214623D02*
D03*
Y216592D02*
D03*
Y218560D02*
D03*
X330123D02*
D03*
Y216592D02*
D03*
Y214623D02*
D03*
X246461Y210686D02*
D03*
X330123D02*
D03*
D138*
X48262Y317341D02*
D03*
X60663D02*
D03*
Y324034D02*
D03*
X48262D02*
D03*
X47766Y344842D02*
D03*
X60168D02*
D03*
Y351535D02*
D03*
X47766D02*
D03*
X48446Y287224D02*
D03*
X60848D02*
D03*
Y293917D02*
D03*
X48446D02*
D03*
D139*
X61254Y320687D02*
D03*
X47671D02*
D03*
X60758Y348188D02*
D03*
X47176D02*
D03*
X61438Y290571D02*
D03*
X47855D02*
D03*
D140*
X152060Y219011D02*
D03*
Y226492D02*
D03*
X144186Y222751D02*
D03*
X152060Y204421D02*
D03*
Y211901D02*
D03*
X144186Y208161D02*
D03*
D141*
X165970Y165999D02*
D03*
X169710Y158251D02*
D03*
X162230D02*
D03*
D142*
X114831Y180425D02*
D03*
X139910D02*
D03*
D143*
X436360Y266646D02*
D03*
X419745D02*
D03*
D144*
X266875Y134997D02*
D03*
X273371D02*
D03*
X266862Y116445D02*
D03*
X273358D02*
D03*
X266862Y122629D02*
D03*
X273358D02*
D03*
X266862Y128813D02*
D03*
X273358D02*
D03*
X442610Y380272D02*
D03*
X449106D02*
D03*
X300877D02*
D03*
X307373D02*
D03*
X159145D02*
D03*
X165641D02*
D03*
X442687Y385425D02*
D03*
X449183D02*
D03*
X300954D02*
D03*
X307451D02*
D03*
X159222D02*
D03*
X165718D02*
D03*
X337422Y385825D02*
D03*
X343918D02*
D03*
X195690D02*
D03*
X202186D02*
D03*
X53958D02*
D03*
X60454D02*
D03*
X337422Y380575D02*
D03*
X343918D02*
D03*
X195690D02*
D03*
X202186D02*
D03*
X53958D02*
D03*
X60454D02*
D03*
X266862Y110261D02*
D03*
X273358D02*
D03*
X266862Y104076D02*
D03*
X273358D02*
D03*
D145*
X425000Y487992D02*
D03*
X405709D02*
D03*
X265546Y520685D02*
D03*
X246254D02*
D03*
X246250Y503307D02*
D03*
X265541D02*
D03*
X86811Y487992D02*
D03*
X106103D02*
D03*
X436558Y284551D02*
D03*
X417267D02*
D03*
D146*
X142242Y259869D02*
D03*
X138699D02*
D03*
Y265381D02*
D03*
X142242D02*
D03*
X266755Y147139D02*
D03*
X270298D02*
D03*
Y141627D02*
D03*
X266755D02*
D03*
D147*
X119379Y141212D02*
D03*
X126860D02*
D03*
X123120Y149086D02*
D03*
X162230Y143375D02*
D03*
X169710D02*
D03*
X165970Y151249D02*
D03*
D148*
X190620Y166896D02*
D03*
Y187368D02*
D03*
D149*
X197898Y152139D02*
D03*
Y140739D02*
D03*
X188259Y152236D02*
D03*
Y140836D02*
D03*
X178559Y152236D02*
D03*
Y140836D02*
D03*
X454787Y337635D02*
D03*
Y326235D02*
D03*
D150*
X95570Y293025D02*
D03*
X93095Y295500D02*
D03*
D151*
X96909Y310160D02*
D03*
X94434Y307685D02*
D03*
D152*
X445722Y148225D02*
D03*
X461470D02*
D03*
X361344D02*
D03*
X345596D02*
D03*
D153*
X366773Y267737D02*
D03*
Y254154D02*
D03*
X399832Y267713D02*
D03*
Y254130D02*
D03*
D154*
X370120Y267146D02*
D03*
Y254745D02*
D03*
X363427D02*
D03*
Y267146D02*
D03*
X403179Y267123D02*
D03*
Y254721D02*
D03*
X396486D02*
D03*
Y267123D02*
D03*
D155*
X106193Y402982D02*
D03*
X98712D02*
D03*
X106193Y413218D02*
D03*
X102453D02*
D03*
X98712D02*
D03*
X247925Y402982D02*
D03*
X240445D02*
D03*
X247925Y413218D02*
D03*
X244185D02*
D03*
X240445D02*
D03*
X389657Y402982D02*
D03*
X382177D02*
D03*
X389657Y413218D02*
D03*
X385917D02*
D03*
X382177D02*
D03*
X87534Y402982D02*
D03*
X80054D02*
D03*
X87534Y413218D02*
D03*
X83794D02*
D03*
X80054D02*
D03*
X229266Y402982D02*
D03*
X221786D02*
D03*
X229266Y413218D02*
D03*
X225526D02*
D03*
X221786D02*
D03*
X370999Y402982D02*
D03*
X363518D02*
D03*
X370999Y413218D02*
D03*
X367258D02*
D03*
X363518D02*
D03*
D156*
X122743Y121441D02*
D03*
Y105693D02*
D03*
D157*
X92244Y114657D02*
D03*
X94803D02*
D03*
X97362D02*
D03*
X99921D02*
D03*
X102480D02*
D03*
D158*
X102087Y104125D02*
D03*
X92638D02*
D03*
D159*
X109961Y113771D02*
D03*
X84764D02*
D03*
D163*
X934572Y262484D02*
D03*
X678666Y262483D02*
D03*
Y526708D02*
D03*
X434646Y496062D02*
D03*
X280315Y496063D02*
D03*
X125984Y496062D02*
D03*
X357480Y496062D02*
D03*
X203149Y496063D02*
D03*
X48818Y496062D02*
D03*
D164*
X965005Y267406D02*
D03*
X932485D02*
D03*
X931068Y290831D02*
D03*
X966422D02*
D03*
X709099Y267404D02*
D03*
X676580D02*
D03*
X675162Y290829D02*
D03*
X710517D02*
D03*
X709099Y531630D02*
D03*
X676580D02*
D03*
X675162Y555055D02*
D03*
X710517D02*
D03*
X465079Y500984D02*
D03*
X432559D02*
D03*
X431142Y524409D02*
D03*
X466496D02*
D03*
X310748Y500985D02*
D03*
X278228D02*
D03*
X276811Y524410D02*
D03*
X312165D02*
D03*
X156417Y500983D02*
D03*
X123897D02*
D03*
X122480Y524408D02*
D03*
X157834D02*
D03*
X387913Y500984D02*
D03*
X355394D02*
D03*
X353976Y524409D02*
D03*
X389331D02*
D03*
X233582Y500985D02*
D03*
X201063D02*
D03*
X199645Y524410D02*
D03*
X235000D02*
D03*
X79251Y500983D02*
D03*
X46732D02*
D03*
X45314Y524408D02*
D03*
X80669D02*
D03*
D165*
X962918Y262484D02*
D03*
X707013Y262483D02*
D03*
Y526708D02*
D03*
X1013236Y436614D02*
D03*
X884252Y464961D02*
D03*
X462992Y496062D02*
D03*
X308661Y496063D02*
D03*
X154330Y496062D02*
D03*
X385827Y496062D02*
D03*
X231496Y496063D02*
D03*
X77165Y496062D02*
D03*
D166*
X859540Y194724D02*
D03*
X603635Y194722D02*
D03*
Y458948D02*
D03*
X233382Y108235D02*
D03*
X347743Y190174D02*
D03*
X326772Y498032D02*
D03*
X185039D02*
D03*
X80413Y308988D02*
D03*
D167*
X989997Y164130D02*
D03*
X999997D02*
D03*
X979997D02*
D03*
X989997Y174130D02*
D03*
X979997D02*
D03*
X734092Y164128D02*
D03*
X744092D02*
D03*
X724092D02*
D03*
X734092Y174128D02*
D03*
X724092D02*
D03*
X734092Y428354D02*
D03*
X744092D02*
D03*
X724092D02*
D03*
X734092Y438354D02*
D03*
X724092D02*
D03*
D168*
X999997Y174130D02*
D03*
X744092Y174128D02*
D03*
Y438354D02*
D03*
D169*
X861509Y221751D02*
D03*
Y214665D02*
D03*
X873681Y211677D02*
D03*
X880767Y211677D02*
D03*
X605603Y221750D02*
D03*
Y214664D02*
D03*
X617775Y211676D02*
D03*
X624862Y211676D02*
D03*
X605603Y485976D02*
D03*
Y478889D02*
D03*
X617775Y475901D02*
D03*
X624862Y475901D02*
D03*
X247568Y331380D02*
D03*
X240482D02*
D03*
X208406Y259654D02*
D03*
X215492D02*
D03*
X188819Y259877D02*
D03*
X195906D02*
D03*
X192754Y210210D02*
D03*
Y203123D02*
D03*
D170*
X863509Y238885D02*
D03*
X948745Y91224D02*
D03*
X1033981Y238862D02*
D03*
X607603Y238883D02*
D03*
X692839Y91223D02*
D03*
X778076Y238861D02*
D03*
X607603Y503109D02*
D03*
X692839Y355449D02*
D03*
X778076Y503086D02*
D03*
X229237Y186080D02*
D03*
X347347Y304190D02*
D03*
X452756Y177165D02*
D03*
Y295276D02*
D03*
X413386Y511811D02*
D03*
X98425D02*
D03*
X452756Y118110D02*
D03*
X59055D02*
D03*
D172*
X1041583Y433110D02*
D03*
Y468465D02*
D03*
X1018157Y467047D02*
D03*
Y434528D02*
D03*
X855906Y468465D02*
D03*
Y433110D02*
D03*
X879331Y434528D02*
D03*
Y467047D02*
D03*
D173*
X1013236Y464961D02*
D03*
X884252Y436614D02*
D03*
D174*
X901800Y493428D02*
D03*
X992479Y410042D02*
D03*
D175*
X948720Y445709D02*
D03*
X948744Y499648D02*
D03*
Y472416D02*
D03*
Y427953D02*
D03*
Y400721D02*
D03*
D176*
X948720Y455709D02*
D03*
X948744Y509648D02*
D03*
Y482416D02*
D03*
Y417953D02*
D03*
Y390721D02*
D03*
D177*
X84732Y144304D02*
D03*
Y162808D02*
D03*
Y181312D02*
D03*
X65716Y162808D02*
D03*
Y181312D02*
D03*
D178*
Y144304D02*
D03*
D179*
X434546Y153361D02*
D03*
X372538D02*
D03*
D180*
X426042Y141353D02*
D03*
X381042D02*
D03*
D181*
X428443Y128125D02*
D03*
X418443Y121432D02*
D03*
X388640Y128125D02*
D03*
X378640Y121353D02*
D03*
D182*
X421042Y176432D02*
D03*
X411042D02*
D03*
X401042D02*
D03*
X391042D02*
D03*
X416042Y166432D02*
D03*
X406042D02*
D03*
X396042D02*
D03*
D183*
X386042D02*
D03*
D184*
X334568Y141514D02*
D03*
D185*
X315670Y128719D02*
D03*
Y153325D02*
D03*
D186*
X461693Y271220D02*
D03*
X451693Y201220D02*
D03*
X461693D02*
D03*
X451693Y211221D02*
D03*
X461693D02*
D03*
X451693Y221220D02*
D03*
X461693D02*
D03*
X451693Y231221D02*
D03*
X461693D02*
D03*
X451693Y241220D02*
D03*
X461693D02*
D03*
X451693Y251220D02*
D03*
X461693D02*
D03*
X451693Y261221D02*
D03*
X461693D02*
D03*
X199995Y353452D02*
D03*
X189995Y313452D02*
D03*
X199995D02*
D03*
X189995Y323452D02*
D03*
X199995D02*
D03*
X189995Y333452D02*
D03*
X199995D02*
D03*
X189995Y343452D02*
D03*
X199995D02*
D03*
D187*
X451693Y271220D02*
D03*
X189995Y353452D02*
D03*
D188*
X110354Y104125D02*
D03*
X84370D02*
D03*
D189*
X441670Y354134D02*
D03*
Y364134D02*
D03*
X421670D02*
D03*
X441670Y344134D02*
D03*
Y334134D02*
D03*
X421670Y354134D02*
D03*
Y344134D02*
D03*
Y334134D02*
D03*
Y324134D02*
D03*
X405860Y354134D02*
D03*
Y364134D02*
D03*
X385859D02*
D03*
X405860Y344134D02*
D03*
Y334134D02*
D03*
X385859Y354134D02*
D03*
Y344134D02*
D03*
Y334134D02*
D03*
Y324134D02*
D03*
D190*
X441670D02*
D03*
X405860D02*
D03*
D191*
X201346Y118608D02*
D03*
D192*
X181661D02*
D03*
M02*
