G04*
G04 #@! TF.GenerationSoftware,Altium Limited,Altium Designer,21.2.2 (38)*
G04*
G04 Layer_Color=16711935*
%FSLAX25Y25*%
%MOIN*%
G70*
G04*
G04 #@! TF.SameCoordinates,0448F7F8-B58B-4B03-AB27-B3033358FA6D*
G04*
G04*
G04 #@! TF.FilePolarity,Positive*
G04*
G01*
G75*
%ADD11C,0.02000*%
%ADD19C,0.01000*%
%ADD547C,0.00079*%
D11*
X1675248Y355020D02*
Y345023D01*
X1680247D01*
X1681913Y346689D01*
Y348355D01*
X1680247Y350022D01*
X1675248D01*
X1680247D01*
X1681913Y351688D01*
Y353354D01*
X1680247Y355020D01*
X1675248D01*
X1690244D02*
X1686911D01*
X1685245Y353354D01*
Y346689D01*
X1686911Y345023D01*
X1690244D01*
X1691910Y346689D01*
Y353354D01*
X1690244Y355020D01*
X1695242Y345023D02*
Y351688D01*
X1698574Y355020D01*
X1701906Y351688D01*
Y345023D01*
Y350022D01*
X1695242D01*
X1705239Y345023D02*
Y355020D01*
X1710237D01*
X1711903Y353354D01*
Y350022D01*
X1710237Y348355D01*
X1705239D01*
X1708571D02*
X1711903Y345023D01*
X1715235Y355020D02*
Y345023D01*
X1720234D01*
X1721900Y346689D01*
Y353354D01*
X1720234Y355020D01*
X1715235D01*
X1740227D02*
X1736895D01*
X1735229Y353354D01*
Y346689D01*
X1736895Y345023D01*
X1740227D01*
X1741893Y346689D01*
Y353354D01*
X1740227Y355020D01*
X1745226D02*
Y346689D01*
X1746892Y345023D01*
X1750224D01*
X1751890Y346689D01*
Y355020D01*
X1755223D02*
X1761887D01*
X1758555D01*
Y345023D01*
X1765219Y355020D02*
Y345023D01*
X1771884D01*
X1775216Y355020D02*
X1778548D01*
X1776882D01*
Y345023D01*
X1775216D01*
X1778548D01*
X1783547D02*
Y355020D01*
X1790211Y345023D01*
Y355020D01*
X1800208D02*
X1793543D01*
Y345023D01*
X1800208D01*
X1793543Y350022D02*
X1796876D01*
D19*
X846457Y519685D02*
X1051031D01*
X846457Y381890D02*
Y519685D01*
Y381890D02*
X1051031D01*
Y519685D01*
X472441Y531496D02*
X472441Y98425D01*
X39370Y531496D02*
X472441D01*
X39370D02*
X39370Y98425D01*
X472441D01*
D547*
X948745Y71539D02*
X1051031Y130595D01*
Y248705D01*
X968430Y296395D01*
X929060D01*
X846458Y248704D02*
X929060Y296395D01*
X846458Y130595D02*
Y248705D01*
X948745Y71539D02*
X846458Y130595D01*
X692839Y71538D02*
X795126Y130593D01*
Y248704D01*
X712525Y296393D01*
X673154D01*
X590552Y248703D02*
X673154Y296393D01*
X590552Y130593D02*
Y248704D01*
X692839Y71538D02*
X590552Y130594D01*
X692839Y335764D02*
X795126Y394819D01*
Y512929D01*
X712525Y560619D01*
X673154D01*
X590552Y512928D02*
X673154Y560619D01*
X590552Y394819D02*
Y512929D01*
X692839Y335764D02*
X590552Y394819D01*
M02*
