M48
;Layer_Color=9474304
;FILE_FORMAT=2:5
INCH,LZ
;TYPE=PLATED
T1F00S00C0.00787
T2F00S00C0.00984
T6F00S00C0.02756
T7F00S00C0.03100
T9F00S00C0.03189
T10F00S00C0.03543
T11F00S00C0.03937
T12F00S00C0.04000
T13F00S00C0.04100
T14F00S00C0.04291
T15F00S00C0.05118
T16F00S00C0.06299
T17F00S00C0.06300
T18F00S00C0.07283
T19F00S00C0.12800
T20F00S00C0.12992
T21F00S00C0.16614
;TYPE=NON_PLATED
T22F00S00C0.02559
T23F00S00C0.03000
%
T01
X1008759Y0115753
X1014258Y0135664
X1025103Y0129861
X100829Y0123015
X1005315Y0113925
X0993895Y0118789
X0992093Y010201
X0987824Y0099726
X0967879Y0087282
X0934308Y0087411
X0932407Y0089059
X0932872Y0110409
X0937415Y0107969
X0927798Y0113053
X0926895Y0123311
X0926297Y0135615
X0930237Y0135679
X092195Y0134095
X0918253
X0899803Y0135268
X0899913Y0128525
X0897367Y0123311
X0902127Y0119238
X0892076Y0117889
X0888768Y0112102
X0876304Y0123311
X0871776Y0127839
X0883687Y013707
X0909353Y0103225
X0947958Y0123311
X0952485Y0127839
X0969721Y0121696
X0976345Y0126672
X0983799Y0128388
X1002621Y0133326
X0769198Y012986
X0758353Y0135662
X0746715Y0133325
X0752385Y0123014
X0752853Y0115752
X0749409Y0113924
X0737989Y0118788
X0736188Y0102009
X0731918Y0099724
X0711974Y0087281
X0713815Y0121695
X072044Y0126671
X0727894Y0128386
X069658Y0127837
X0692052Y012331
X0670989Y012331
X0671893Y0113051
X0676967Y0110408
X0681509Y0107968
X0678402Y008741
X0676501Y0089058
X0653448Y0103224
X0646221Y0119237
X0641462Y012331
X0644007Y0128523
X0643897Y0135266
X0627782Y0137069
X0615871Y0127837
X0620399Y012331
X0636171Y0117888
X0632863Y0112101
X0662348Y0134094
X0666044
X0670392Y0135614
X0674331Y0135678
X034793Y0125318
X0348053Y0120342
X0348451Y0115166
X0340578
X0344514Y012304
X0336641
Y0107292
X0344514
X0328766
X0320892
X0313018
X0305144
X029727
X0289396
X0281522
X0277538Y0104076
X0248788Y0104152
X0242152Y0107292
X0230341Y0115166
X0269711Y0130915
X0285459
X0293333
X0301207
X0305144Y012304
X0313018
X0320892
X029727
X0289396
X021853
X0210656
X0214593Y0115166
X0206719
X0210656Y0107292
X021853
X0226404
X0202782
X0194908
X0187034
X017916
X0171286
X0163412
X0167349Y0115166
X0175223
X0171286Y012304
X0163412
X0167349Y0130915
X0175223
X0176405Y013629
X0181177
X0185949
X0190721
X0195493
X0200265
X0205037
X0209809
X0214581
X0225095Y013715
X0198845Y0130915
X0190971
X0183097
X0187034Y012304
X0194908
X0190971Y0115166
X0151601
X0143727
X0146068Y0118912
X0147664Y012304
Y0107292
X0146098Y010406
X013979Y0107292
X0131578Y0121647
X0127066Y0126413
X0122741Y012646
X0118088
X01114Y0123706
X010477Y0117206
Y0114806
Y0112406
Y0110006
X010237
X009997
X0092355
X0089955
Y0112406
Y0114806
Y0117206
Y0119606
X0092355
Y0122006
X0088608Y0124614
X0083884
X0079159
X0074435
X0072072Y0129339
X0076797
X0081521
X0086246
X0094635Y0130167
X00974
X0098968Y0127071
X0099068Y0118837
X0102506
X0086246Y011989
X0081521
X0076715Y0117475
X00734Y0113699
X0074435Y0134063
X0079159
X0127979Y0130915
X0135853
X0159475
X0154631Y0136299
X006971Y0134063
X0064986
X0060261
X0057899Y0138788
Y0152961
X0062624
X0067348
X0060261Y0157685
X0057899Y016241
Y0171859
X0062624
X0067348
X0057113Y0178159
X0053176
X0055144Y0182096
X0053176Y0186033
X0057113
X0059081Y018997
X0063018
X0066955
X0070892
X0055144
X0055537Y0200205
X0060261
X0064986
X0062624Y0204929
X0057899
X0052676Y0203855
Y0206255
X0052944Y0209996
Y0219995
Y0224995
X0053175Y0233276
X0052944Y0239996
Y0244995
Y0249995
X0060261Y0247449
X0064986
X006971
X0067348Y0242725
X0062624
X0060261Y0238
X0062624Y0233276
X0060261Y0228552
X0062624Y0223827
X0060261Y0219103
X0062624Y0214378
X006971Y0219103
Y0228552
Y0238
X0067348Y0261622
X006971Y0266347
X0064986
X0062912Y0280042
X0067348Y028052
X006971Y0285244
X0065098Y0291607
X0052944Y0259996
X0050813Y0200205
X0046088
X0072072Y0204929
X0076797
X0081521
X0086246
X009097
X0095695
X0100419
X0102781Y0200205
X0107506
X0116954
X0119797Y020278
X0122084Y020149
X0124358Y019978
X0127181
X0130003
X0132825
X0135648
Y0214725
X0132825
X0130003
X0127181
X0124358
X012216Y0213539
X0119873Y0212249
X0121328Y0223739
X0125567
X0135579Y0225522
X014798Y022651
X0147962Y0219048
X0148534Y0235187
X0145758Y0235202
X0142253Y0235159
X0139564
X0139585Y0242044
X0142292
X0145522Y0241893
X0145096Y0251432
X0142292Y0248862
X0139585
X0150469Y0250796
X015039Y0255352
X015063Y0258709
X0153319
X0153246Y0261417
X0150558
X0147869
X0147942Y0258709
X0145202Y0258075
X0142262Y02678
X0129323Y0269867
X0119947Y0269912
X0120014Y0265023
X0119873Y0249995
X0123008Y0247978
Y0236878
X0105143Y0233276
X0102781Y0228552
X0098057
X0095695Y0233276
X0091602Y0230911
X0084377
X0080765Y0227299
X0087989
Y0234523
X0080765
X0084377Y0238135
X0077153
Y0230911
X0072072Y0233276
Y0242725
X0080765Y0241747
X0087989
X0091602Y0238135
X0095695Y0242725
X0098057Y0247449
X0102781
X0105143Y0242725
Y0223827
X0107506Y0209654
X0098057Y0200205
X0093332
X0088608
X0083884
X0079159
X0078766Y018997
X0082703
X008664
X0090577
X0092546Y0186033
X0096483
X0094514Y0182096
X0100419Y0181307
X0102781Y0176583
X0098057
X0095695Y0171859
X0100419
X0105143
X0107506Y0167134
X011223
X0116954
X0121679
X0119316Y016241
X0114592
X0109868
X0105143
X0100419
X0095695
X0098057Y0167134
X0102781
Y0157685
X0107506
X011223
X0116954
X0121679
X011937Y0144025
X0111855Y0144705
X0108294Y0138789
X0092546
X009097Y0152961
X0095695
X0100419
X0098057Y0157685
X0093332
Y0167134
X009097Y0171859
X0086246
X0081521
X0076797
X0072072
X0074435Y0167134
X0079159
X0076797Y016241
X0079159Y0157685
X0074435
X0072072Y0152961
X0076797
X0081521
X0086246
X0076797Y0138788
X0076798Y0178159
X0072861
X0074829Y0182096
X0072861Y0186033
X0076798
X0074829Y018997
X0072072Y0223827
X0079159Y0247449
X0083884
X0072072Y0261622
Y028052
Y0289969
X0097912Y0280042
X0101509Y0279339
X010391
X0104Y0268319
X01016
X0116612Y0283721
Y0286121
Y0288521
X0119012Y0283721
X0121412
X0131412
X0133812
X0136212
Y0286121
Y0288521
X0192419Y0282155
X0186613Y0267574
X0185147Y0255045
X0182723
X0179652Y025489
X0177228
X0172004Y0253103
X01685Y0255208
X0166065Y0242304
X0166059Y0238104
X0164353Y0236069
X0173036Y0234026
Y0230526
X0174898Y0223075
X0177322
X0176853Y0220163
X0174429
Y0217739
X0172005
X0177574Y0211163
X0181835Y0211171
X0186067Y0211137
X0190126Y0214653
X0194197Y0220289
X0204522Y0219928
X02028Y0213345
X0202886Y0210327
X020631Y021037
X0205553Y0231264
X0202497Y0235791
X0204651Y0239141
X0196861Y0239862
X018968Y0235345
Y0231408
Y0227471
X0185743
Y0231408
Y0235345
X0181806
Y0231408
Y0227471
X0163546Y0225343
Y0222919
X0163272Y0207854
X017517Y0204425
X0184275Y0204953
X018577Y0192325
Y0189125
Y0185925
Y0182725
Y0179525
X018897
X019217
X019537
Y0182725
Y0185925
Y0189125
Y0192325
X0183096Y0190756
Y0181307
X0178372
X0180734Y0176583
X018061Y0157525
X0175838
X0172903Y01573
Y0160168
Y0163036
X0170035
X0163188Y0164163
Y0168366
X0158883
Y0164163
X0154577
Y0168366
Y017257
Y0176773
Y0180977
X0150272Y0183078
Y0178875
Y0174671
Y0170468
X0145967Y0168366
X0141662Y0170468
X0137356Y0168366
X0133051Y0170468
X013979Y0138789
X0168204Y0137697
X0171286Y0138789
X0170035Y0154432
X0172903
X0185382Y0157525
X0190154
X0194926
X0199698
X020447
X0209242
X0208734Y0152195
X0211602
X021447
X0217338
Y0149525
Y0146657
X0220206
X0225095Y0142886
Y0140018
X0205037Y0141062
X0205866Y0146459
Y0149327
X0201994Y0181307
X0168279Y0191645
Y0196445
X0171285Y0195481
X0156178Y0196445
Y0191645
X0177298Y0247686
X0179722
X018267Y0247925
X0185094
X0223335Y0240708
Y0236409
X0216398Y0228083
X0213394
X0227728Y0222278
X0231884Y0222345
X0235765Y022042
X023927Y0220325
X024157Y0219325
X0241802Y0216545
X023727Y0212825
X0237308Y021048
X0237351Y0207421
X0237387Y0204516
X0239733Y0204553
X0242078Y0204591
X024853Y0203423
X0248363Y0206521
Y0208726
X0256663Y0208161
X025985Y0211964
X0263843Y021164
X0263708Y0207448
X027547Y0207625
Y0198925
X0280265Y0198937
X0283677Y019891
X028877Y0198925
X0289259Y0207616
X0295145Y0208221
X0304997Y0208212
X031087Y0208325
X0317911Y0207399
X0316955Y0217529
X0309081
X0301207
X0293333
X0285459
X0277585
X0269711
X0261837
X0265774Y0225403
X0273648
X0281522
X0289396
X029727
X0305144
X0309081Y0233277
X0301207
X0293333
X0285459
X0277585
X0269711
X0261837
X025198Y0232382
X025189Y0236312
X025107Y0239525
Y0242825
X0251266Y0246095
X025077Y0249225
X025253Y0251645
X0254257Y0257097
X025107Y025921
Y026251
X0251038Y0265767
X0251054Y0273699
X0251055Y0277574
X02579Y0272647
X0265774
X0273648
X0281522
X0289396
X029727
X0305144
X030517Y0282225
X0308273Y0282357
X031137Y0282325
X031807Y0282125
X0320679Y0282192
X032537Y0274725
X0325018Y0271837
X032547Y0268525
X0325509Y0265746
X0325562Y0261938
X0325597Y0257974
X0322533Y0257868
X0322635Y025411
X0323565Y0251318
X0325282Y0248901
X0325244Y0245692
X0324091Y0242906
X032217Y0240225
X0325629Y0238233
Y0226422
Y0222485
X0323245Y0224437
X0325617Y0216567
X033867Y0218012
X0341359Y0218002
X033867Y0221077
Y0224166
X0335581
X0339535Y0235726
X0337579Y0237682
X033867Y0242482
X0335581
X033867Y0245571
Y0248636
Y0251725
X0335581
X0343483Y0259729
Y0263692
X0343476Y0267616
X0342756Y0271699
X0343364Y0275108
X0340695
X0338027
X0334845Y0273802
X0334437Y0270529
X0334281Y0278472
Y0281653
X0337616Y0286146
X034143Y0286097
X0377382Y028325
Y0279004
X0383429Y0276213
X0383286Y028597
X0373377Y0270079
X0369361Y027123
X0379933Y0255472
X0379339Y0244537
X0383226Y0242205
X038277Y0238759
Y0236425
Y0234091
X0383376Y0230265
X0376996Y0225719
X0372999Y0225726
X037957Y0222925
X037747Y0208725
X037447Y0208525
X038187Y0208725
Y0205712
X0379993Y0194758
X037981Y0190211
X038221Y0184272
X036772Y0205347
X0366192Y0209451
X0364885Y0213481
X0365485Y023001
X0372999Y0237592
X0376996Y0237585
X0370514Y0244554
X0309081Y0249025
X0301207
X0293333
X0285459
X0277585
X0269711
X0261837
X0265774Y0256899
X0273648
X0281522
X0289396
X029727
X0305144
X0309081Y0264773
X0301207
X0293333
X0285459
X0277585
X0269711
X0261837
X026185Y0282234
X0267188Y0280659
X0269953
X027177Y0282525
X027547Y0281925
X027887Y0280625
X0282059Y0280815
X0284696Y0282357
X0287985Y0282467
X0291593Y0281994
X0295183
X0299188Y0282682
X030187Y0281225
X0301131Y0291492
X0305068
X029717Y0291525
X029277Y0291225
X029097Y0293225
X028117Y0293425
X027747Y0292725
X0264267Y0291292
X026167Y0291625
X025677Y0291225
X0253742Y0291224
X0233178Y0281089
X0233223Y0274311
X0237901Y0271684
Y0267839
X0240913Y0266118
X0241746Y0269775
X0237197Y0262716
X0237078Y0259366
X0233323Y0256337
X0233364Y0249702
X0238277Y0248263
X0241477Y0246413
X0237197Y0243031
X0237078Y0239681
X0240562Y0227438
X0251527Y0228727
X025107Y0220525
X0250852Y0215734
X0251478Y0199006
X0257962Y0195012
X0257943Y0192507
X0267237Y0193528
X0267295Y0197877
X0267298Y0188811
X0276256Y0190349
Y0193
X0283734Y0187191
X028695Y01873
X0293347Y0189745
X0297391Y0189788
X0300489Y0195745
X030597Y0198625
X030857Y0198425
X031117Y0195325
X031567Y0194525
X0318556Y0194508
X0315254Y0188636
Y0185633
Y0182629
X032317Y0182325
Y0179322
Y0176318
X0326174
X0329177
X0333904Y0188027
X0333918Y0190404
X0332463Y019724
X0334213Y0199165
X0336641Y0154537
X0340593Y0152747
X0340811Y0147887
X0340664Y0143343
X0344406Y0139671
X0328766Y0138789
X0320892
X0313018
X0305144
X029727
X0301207Y0146663
X0309081
X0316955
X0324829
X0328766Y0154537
X0344406Y0156943
X0366277Y0153108
X0366629Y0148564
X0366347Y0143703
X0281674Y014748
X0278906Y0144713
X0276139Y0141945
X0273371Y0139178
X0263464Y0141624
X024501Y0141886
Y014609
X0242908Y0148191
Y0143988
X0240806Y0141886
Y014609
X0236603
X0233601Y0146791
Y0143923
X0230733
Y0146791
X0230643Y0155505
Y0158247
X0233386
Y0155505
X0242908Y0156599
X024501Y01587
Y0154497
X0242908Y0152395
X024501Y0150293
X0238704Y0143988
X0236603Y0141886
X0234261Y0165647
X0231518
X0263694Y0165872
X0263766Y0162524
X0266436Y0158443
X0269114
X0271793
X0281633Y0163815
X0279337Y0170411
X0276618
X027415Y0172902
X0268231Y0175463
X0259984Y0171259
X0298999Y0173257
X0298913Y0176274
X0302422Y01733
X0301464Y0182478
X0305144Y0241151
X029727
X0289396
X0281522
X0273648
X0265774
X0230141Y0212701
X0230178Y0210355
X0384918Y0211972
Y0215909
X0388855
Y0219846
X0384918
X0392792
Y0215909
Y0211972
X0388855
X0395896Y0208781
X0398277
Y0206007
X0395896
X039637Y0195225
X040243Y0195925
X040497
X040751
X041005
X040243Y0198465
Y0201005
X0401617Y0190446
X0399179Y0184547
X0390872Y0184122
X0390919Y0192725
X038717Y0194925
X0390116Y0227087
X039897Y0228725
X0402262
X039897Y0225433
X0399617Y0233563
X0399609Y0237713
X041167Y0231825
X0414868Y023123
X0418081Y0233927
X042077
X0424286Y0233589
X0427063Y0233573
X0434709Y0233401
X0436643Y0236762
X0434805Y024149
X043507Y0245225
X0436643Y0250024
X0434805Y0254752
X0431847Y0257095
X0429158
X042647
X0426398Y0259803
X0429086
X0431774
X0435033Y0259955
X0430105Y0264372
X0425625Y0265005
Y0267819
X0430105Y0269748
X0432793Y0272437
X0435482Y0275125
X0440859
Y0269748
Y0264372
X043817Y0272437
X043808Y0278549
X0443457
Y0283925
X0450025Y028052
X045475
X0459474
X0464198
X0432704Y0278549
X0430015Y0281237
Y0286614
Y0291991
X0435392
X0423147Y0285724
Y0282911
X0419036Y0278515
X0416223
X0417976Y0272682
X0420789
X0414566Y0267965
Y0265152
X0413294Y0255436
X042373Y0256462
X0423625Y0249819
X042625Y0247394
X042887Y0248827
X0428919Y0253738
X0420821Y0247248
X0418113
Y0240431
X0420821
X0424051Y0240279
X0431455Y0239788
X0434066Y0227483
Y0224718
X0436643Y0223171
X0435403Y0220202
X0435591Y0216447
X043396Y020836
X0438305
Y0204015
X0436132Y0206188
X043396Y0204015
X0434215Y0200543
Y0198003
Y0195463
X0431675
X0429135
X0420741Y0213183
X0421087Y0219061
X0421629Y0221963
X0425482Y0224962
X0414925Y0220001
X0412402Y0213223
X040337Y0214925
X0445247Y0223124
Y0236715
Y0249976
X0430105Y0275125
X0408639Y0277678
X040277Y0275853
X0399306Y0274481
X0402295Y0271327
X0406524Y0270073
X0391572Y0275853
X039517Y0280625
X0396157Y028707
Y0290889
X0392339
X0399977
X038607Y0285925
X0440719Y0152747
X0440659Y0147797
X044079Y0143343
X0462661Y0139507
X0466473Y0143703
X0466255Y0148564
X0466403Y0153108
X0462661Y015678
X0615116Y0158122
X0620498Y0158081
X0625158Y0158225
X0629777Y0157833
X0632643Y0157937
X0636808Y0161071
X063771Y0168385
X0634285Y0168473
X0629591Y0169009
X0625344Y0168906
X0620428Y0169588
Y0164134
X0614869Y016472
X0611818Y0176127
X0611797Y0180844
X0615871Y0178428
Y0199491
X0620399Y0204018
X0633185Y0210425
X0633383Y0213944
X0630099Y0219647
X0633147Y0225396
X0633893Y0236027
X0631952Y0245824
X0636781Y0245431
X0639581Y0251243
X0647431Y0251598
X0648024Y0256466
X0655286Y0252486
X0664847Y0252493
X066491Y025574
X0664951Y0248524
X0664818Y0245143
X0664793Y0241416
X066089
X0657721Y0241526
X0653513Y0237198
X0653191Y0231523
X0644311Y0230609
X0667322Y023038
X0666393Y0227547
X0668087Y0236824
X0669446Y0248676
X0680021Y0248524
X0682621
X0687567Y0249033
X0690346
X0688865Y0236914
X0685771Y023691
X0688607Y0233942
X0693274Y0235442
X0693346Y022954
X0690255Y0228829
X0688865Y022598
X0685811
X0672496Y0213645
Y0209128
X0670989Y0204018
X0669543Y0191601
X066859Y0187917
X0677404Y0184061
X0683254Y0183726
X0680056Y0177801
X0680209Y0175151
X067698Y0175413
Y0172213
X0680028Y017113
X0686442Y0171406
X0691503Y0172161
X0684721Y0166035
X0682849Y0162551
X0680462Y0164513
X0682472Y015641
X0683446Y0153329
X068286Y0150828
X0685461Y015133
X0686834Y0156399
X0692919Y0156617
X0680028Y0142631
X0677477Y0142332
X0663771Y014386
X0660007Y0142954
X0658353Y0145285
X0654582Y0149783
X0651309Y0150068
X0650192Y0153043
X0649527Y0156767
X064432Y0159801
X0641221Y0168431
X0650479Y016808
X0650547Y0187884
X065795Y0192202
X0641462Y0204018
X0602216Y020626
X0614035Y0220468
X0622745Y0233674
X062182Y0238539
X0629786Y0249575
X0633077Y0260197
X0636499Y0260623
X0636458Y0263178
X0643068Y0266257
Y0269349
Y027244
Y0275531
X0647076
X0650529Y027556
X0661756Y0274904
X0665349Y0275046
Y0268497
X0661644
X0654164Y0264108
X0675059Y0257811
X0682976Y0263161
X0688636Y0263388
X0691838
X0694414
X0695162Y0273507
X0692555
X0688565Y0282735
X0688732Y0289211
X0695836
X0692052Y0204018
X0647266Y0146972
X064962Y0142671
X0639947Y0142787
X0639551Y0138469
X0632377Y014313
X0611668Y0142633
X0611648Y014735
X0615871Y01489
X0609192Y0255089
X0620976Y0259804
X0697053Y0263397
X0699789Y0263388
X0703766
X0701227Y0252232
X0701118Y0248524
X070974Y0250185
X0719169Y0254738
X0721365Y0256745
X0719762Y0258844
X0723501
Y0254701
X0731667Y024347
X0734221Y0243741
X0733196Y0241303
X0730594Y0238611
X0718499Y0238626
X0718681Y0232508
X0721252Y022589
X0721115Y0222122
X0721265Y021098
X071903Y0202012
X073355Y020496
X0748514Y0205417
X0751866Y0205633
X0751214Y0209831
X0764313Y0210204
X0762598Y0217364
X0761914Y0202269
X0765459Y0194748
X076271Y0190743
X0766397Y0184782
X0767477Y0181311
X0770498Y0181429
X0774021Y0181419
X0781105Y018353
X0781913Y0191931
X0780849Y0202243
X0781344Y0205986
X0780849Y021729
X07813Y022102
X0750653Y0241074
X0747798Y0241488
X0744211Y0241391
X0742137Y0243093
X0741355Y0240039
X0743016Y0251073
X0747343Y0254007
X0754111Y0266345
X0707197Y0274008
X0704858Y0276548
X0702009Y0275849
X069687Y02758
X0696664Y0271198
X070596Y0279317
X0711175Y0278687
X0706248Y0235645
X0703333Y0229557
X0697398Y022939
X069658Y0199491
X0701058Y0198021
X069658Y0178428
X0704776Y0175431
X0711657Y0172537
X072044Y0170728
X0732666Y0169065
X07379Y0157275
X0742888Y0152118
X0736792Y0148236
X0730919Y0140759
X0725756Y0140812
X0724933Y0138181
X0754362Y0143971
X0752347Y0153312
X0758503Y0159467
X075635Y0164128
X0758234Y0166025
X0761739Y0170747
X0764176Y0168694
X0764299Y0162588
X0772971Y0161411
X077566Y0160691
X0778349Y015997
X077494Y0158002
X0776381Y016338
X0776143Y0171032
X0787256Y0173302
X0789336Y0170401
X0784495Y0159161
X0783672Y0154141
X0780907Y0152875
X0777714Y0151038
X0770564Y0149878
X0765773Y0146415
X0762114Y0137503
X0776646Y0138702
X0779742Y0140376
X0788203Y0144354
X0767558Y0177847
X0752849Y0195362
X0742445Y0185906
X0728141Y0185227
X0728296Y0187917
X070104Y0167452
X070632Y0161737
X0706231Y015778
X069658Y01489
X0867553Y0147351
X0867574Y0142634
X0871776Y0148902
X0871022Y0158123
X0876404Y0158082
X0881064Y0158226
X0885682Y0157835
X0888549Y0157938
X0892714Y0161072
X0893615Y0168386
X089019Y0168475
X0885497Y016901
X0881249Y0168907
X0876333Y0169589
Y0164135
X0870774Y0164722
X0867723Y0176129
X0867703Y0180846
X0871776Y0178429
Y0199492
X0876304Y020402
X0889091Y0210427
X0889289Y0213945
X0886004Y0219648
X0889053Y0225397
X0889799Y0236028
X0887857Y0245826
X0892687Y0245432
X0895487Y0251245
X0903336Y0251599
X090393Y0256467
X0911192Y0252488
X0920752Y0252494
X0920815Y0255741
X0920857Y0248525
X0920724Y0245145
X0920699Y0241418
X0916796
X0913626Y0241528
X0909418Y0237199
X0909097Y0231524
X0900217Y023061
X0923228Y0230381
X0922298Y0227548
X0923993Y0236826
X0925352Y0248677
X0935927Y0248525
X0938527
X0943472Y0249035
X0946251
X0957023Y0248525
X0957133Y0252234
X0965645Y0250186
X0975074Y025474
X0977271Y0256746
X0975667Y0258845
X0979407
Y0254703
X0987573Y0243471
X0990127Y0243742
X0989101Y0241304
X0986499Y0238612
X0974405Y0238627
X0974587Y0232509
X0977157Y0225891
X0977021Y0222123
X097717Y0210981
X0974936Y0202014
X0989456Y0204961
X1004419Y0205418
X1007771Y0205634
X100712Y0209832
X1006559Y0241075
X1003703Y0241489
X1000117Y0241392
X0998042Y0243094
X0997261Y024004
X0998922Y0251074
X1003249Y0254008
X0959672Y0263389
X0955695
X0952958Y0263398
X0950319Y0263389
X0947744
X0944542
X0938881Y0263162
X0930965Y0257812
X0921255Y0268498
X0917549
X0917661Y0274905
X0921255Y0275047
X0906434Y0275562
X0902982Y0275532
X0898973
Y0272441
Y026935
Y0266259
X0892364Y026318
X0892404Y0260624
X0888982Y0260198
X0876881Y0259805
X0865097Y025509
X0885692Y0249576
X0877725Y023854
X087865Y0233675
X086994Y0220469
X0858121Y0206261
X0897367Y020402
X0906452Y0187885
X0913855Y0192203
X0925448Y0191602
X0924495Y0187918
X093331Y0184062
X093916Y0183727
X0935962Y0177802
X0936115Y0175152
X0932886Y0175414
Y0172214
X0935934Y0171132
X0942347Y0171407
X0947408Y0172163
X0952485Y0178429
X0960682Y0175432
X0967562Y0172538
X0976345Y0170729
X0988571Y0169066
X0993805Y0157276
X0998794Y015212
X0992698Y0148237
X0986824Y0140761
X0981661Y0140813
X0980839Y0138182
X0962136Y0157781
X0962226Y0161738
X0956946Y0167453
X0940626Y0166036
X0938754Y0162552
X0936368Y0164514
X0938377Y0156412
X0939351Y015333
X0938766Y0150829
X0941367Y0151331
X094274Y01564
X0948825Y0156618
X0952485Y0148902
X0935934Y0142633
X0933383Y0142333
X0919677Y0143861
X0915912Y0142955
X0914258Y0145286
X0910488Y0149784
X0907215Y0150069
X0906097Y0153044
X0905433Y0156768
X0900226Y0159803
X0897126Y0168432
X0906385Y0168081
X0903171Y0146973
X0905525Y0142673
X0895852Y0142789
X0895456Y013847
X0888282Y0143132
X0926895Y020402
X0928401Y0209129
Y0213646
X0941717Y0225981
X0944771
X0946161Y022883
X0949252Y0229541
X0953303Y0229391
X0959238Y0229558
X0962153Y0235646
X0949179Y0235444
X0944771Y0236915
X0941677Y0236912
X0944512Y0233943
X0947958Y020402
X0952485Y0199492
X0956963Y0198022
X0984202Y0187918
X0984047Y0185228
X0998351Y0185907
X1008253Y0153313
X0963102Y0274009
X0960764Y0276549
X0957914Y027585
X0952775Y0275801
X0951068Y0273508
X0948461
X0952569Y0271199
X0961866Y0279318
X0967081Y0278688
X0951741Y0289212
X0944638
X0944471Y0282736
X0910069Y026411
X1010016Y0266346
X1018504Y0217366
X1020219Y0210205
X101782Y020227
X1021365Y0194749
X1018616Y0190745
X1022302Y0184783
X1023383Y0181312
X1026404Y018143
X1029926Y018142
X103701Y0183532
X1037818Y0191933
X1036754Y0202245
X1037249Y0205987
X1036754Y0217291
X1037206Y0221021
X1043161Y0173304
X1045242Y0170402
X1032048Y0171033
X1032286Y0163381
X1031566Y0160692
X1034255Y0159972
X1030845Y0158003
X1028877Y0161413
X1020204Y016259
X1020082Y0168695
X1017644Y0170748
X101414Y0166026
X1012255Y016413
X1014408Y0159468
X1010268Y0143972
X1021678Y0146417
X102647Y0149879
X1033619Y0151039
X1036812Y0152876
X1039577Y0154142
X1040401Y0159163
X1044108Y0144355
X1035647Y0140377
X1032551Y0138704
X1018019Y0137504
X1023464Y0177848
X1008754Y0195363
X1010698Y043774
X10139Y0439509
X1013976Y044498
X1013851Y0449405
X1024691Y0449076
X1022735Y044712
X1020866Y0445177
X1023881Y0443312
Y0440547
X1020276Y0438583
X1007087Y0445669
X0963833Y0442095
X0955147Y04446
X0942548
X0936487Y0440547
X0942572Y0427953
Y0416845
X095517
Y0427953
Y0400721
Y0389613
X0942572
Y0400721
X0908839Y0444547
X0890326Y0445803
X0883465Y0445276
X0883637Y0449405
X087687Y0446949
X0873608Y044528
Y0442515
X0877945Y0438598
X0880716
X0883563Y0440158
X0887089Y0437966
X0787256Y0437528
X0789336Y0434626
X0776143Y0435257
X0776381Y0427605
X077566Y0424916
X0778349Y0424196
X077494Y0422227
X0772971Y0425637
X0764299Y0426814
X0764176Y0432919
X0761739Y0434972
X0758234Y043025
X075635Y0428354
X0758503Y0423692
X0752347Y0417537
X0742888Y0416344
X0736792Y0412461
X07379Y04215
X0732666Y043329
X072044Y0434953
X0711657Y0436762
X0704776Y0439656
X069658Y0442653
X070104Y0431678
X070632Y0425962
X0706231Y0422005
X069658Y0413126
Y0392063
X0713815Y038592
X072044Y0390897
X0727894Y0392612
X0724933Y0402406
X0725756Y0405037
X0730919Y0404985
X0746715Y039755
X0758353Y0399888
X0762114Y0401728
X0765773Y0410641
X0770564Y0414103
X0777714Y0415263
X0780907Y04171
X0783672Y0418366
X0784495Y0423387
X0788203Y0408579
X0779742Y0404601
X0776646Y0402928
X0769198Y0394085
X0752385Y0387239
X0752853Y0379977
X0749409Y0378149
X0737989Y0383013
X0736188Y0366234
X0731918Y036395
X0711974Y0351507
X0754362Y0408196
X0767558Y0442072
X0767477Y0445537
X0770498Y0445654
X0774021Y0445645
X0781105Y0447756
X0766397Y0449008
X0728141Y0449453
X0683254Y0447951
X0677404Y0448286
X0680056Y0442027
X0680209Y0439376
X067698Y0439638
Y0436438
X0680028Y0435356
X0686442Y0435631
X0691503Y0436387
X0684721Y0430261
X0682849Y0426777
X0680462Y0428738
X0682472Y0420636
X0683446Y0417554
X068286Y0415053
X0685461Y0415555
X0686834Y0420624
X0692919Y0420842
X0680028Y0406857
X0677477Y0406558
X0674331Y0399903
X0670392Y0399839
X0666044Y039832
X0662348
X0663771Y0408085
X0660007Y040718
X0658353Y040951
X0654582Y0414008
X0651309Y0414293
X0650192Y0417268
X0649527Y0420993
X064432Y0424027
X0636808Y0425296
X0632643Y0422162
X0629777Y0422059
X0625158Y042245
X0620498Y0422306
X0615116Y0422347
X0614869Y0428946
X0620428Y0428359
Y0433813
X0625344Y0433132
X0629591Y0433235
X0634285Y0432699
X063771Y0432611
X0641221Y0432656
X0650479Y0432305
X0647266Y0411197
X064962Y0406897
X0639947Y0407013
X0639551Y0402694
X0643897Y0399492
X0644007Y0392749
X0641462Y0387535
X0646221Y0383462
X0636171Y0382113
X0632863Y0376326
X0620399Y0387535
X0615871Y0392063
X0611668Y0406858
X0611648Y0411575
X0615871Y0413126
X0632377Y0407356
X0627782Y0401294
X0615871Y0442653
X0611818Y0440353
X0611797Y044507
X0670989Y0387535
X0671893Y0377277
X0676967Y0374633
X0681509Y0372193
X0678402Y0351636
X0676501Y0353283
X0653448Y0367449
X0692052Y0387535
X0465401Y0371304
X0462711
X0459206Y0371261
X045643Y0371276
X0459442Y036457
X0462672Y0364419
X046538
Y0357601
X0462672
X0459868Y0355031
X0454495Y0355667
X0454574Y0351111
X0454334Y0347754
X0457022
X0457095Y0345046
X0454407
X0451718
X0451646Y0347754
X045331Y0341377
X0456002Y0341439
X0459426Y033772
X0450126Y033752
Y032612
X0453571Y032243
X0456263Y0322492
X0459426Y032632
X0459762Y0348388
X043408Y0386826
X0423459Y0383325
X0423263Y0376642
X0418035Y0381425
X0417101Y0388804
X0413164
Y0392741
X0417101
X0415132Y0390772
X0414476Y0400764
X0410135Y0399825
X0405806Y039452
X040577Y0386725
X0409197Y0384867
X0397327Y0384446
X0397334Y0388713
X0397501Y0392882
X0392814Y040165
X0392833Y0405128
X0390162Y0419258
Y0422226
Y0425194
Y0428162
X0387575Y0426434
X0390135Y0433525
X0399701Y0432225
Y0429425
Y0426625
X0402801Y0429925
X0405601Y0429837
X0408501Y0425737
X041433Y0429935
X0408357Y0435757
Y0439694
X0402845
Y0435757
X0400068Y0445542
X0408682Y044802
X0418863Y0448108
Y0444855
X0422116
X04275Y0444938
X0432492Y0444946
X0437435Y0445225
X0442687Y0446083
X0445435
Y0442925
X0444706Y0439347
X0454135
X044857Y0432025
X0444901Y0429086
X0444506Y0424053
X0450835Y0426425
X0463602Y0425389
X0464202Y0415025
X0463404Y04115
X0457338Y0413509
X0451896Y0411525
Y0408925
X0444558Y0406952
X0438608Y0408334
Y0411834
X0432093Y0412013
X0431696Y0400612
X0438195Y0402097
X0425795Y0403225
X0418135Y0403725
X0421591Y0398961
X0423735Y0395225
X0418435Y0416125
X0423995Y0426927
X0429451Y0426487
X0432929Y0426509
X0434969Y0434473
X0429501Y0434564
X0423435Y0432725
X039389Y0381998
X0390204Y0381882
X039717Y0301625
X0396157Y0294708
X0329442Y0300318
X0325204Y0300306
X0319335
X0311779Y029623
X0308428Y0296349
X029297Y0295225
X0282008Y0297395
X027737Y0295925
X0276296Y0298992
X0280455Y0308019
X0284367Y0307951
X0284291Y0320428
Y0323412
Y0326396
X029187Y0327861
X029595Y0327869
X0300149Y0327861
X0304229Y0327869
X0308309Y0327861
X0312389
X0316956Y0328143
X0319663
X0322894Y0327992
X0323129Y0321301
X0325905Y0321286
X0319624Y0321258
Y0318569
X0316935
Y0321258
X0314953Y0337937
X0322468Y0337531
X032784Y0336894
X0327761Y0341451
X0328001Y0344808
X033069
X0330617Y0347516
X0327929
X032524
X0325313Y0344808
X0322573Y0344174
X031717Y0347325
X0315517Y0349456
Y0352221
X031237Y0353225
X0312047Y0348284
Y0345519
X0302574Y0346705
Y0351035
X0298244
Y0346705
X0288771Y0345519
Y0348284
X0285301Y0349456
Y0352221
X0288487Y0353338
X029067Y0356725
X0293386
X0300733Y0361086
X0302689Y0363042
X0301421Y0366049
X0299466Y0368004
X0294981Y0367922
X0292265
X0289549
X0282624Y036219
Y0359474
X0282101Y0356245
X0281883Y0343971
X027827
X0285497
X0292524Y0341441
X0291998Y033768
X0285551Y0334347
X0281937
X0278324
X0268997Y0337798
X0269757Y0340304
X0266991
X0265281Y0327802
X0261204
X0257127Y0327809
X025305Y0327802
X0247343Y0335662
X0246125Y0337806
X0248594
X0248036Y0341441
X0244506Y0345519
Y0348284
X0238056Y0348049
X0235353Y0345804
Y0342881
X0228999Y034726
X0230947Y0349484
Y035225
X0228837Y035379
X0243466Y0356725
X0246182
X0248899
X0253756Y0351035
X0258087
Y0346705
X0253756
X0256538Y0361121
X0259301Y0361017
X0262944Y0356725
X026566
X0268376
X0270993Y0366039
Y0368755
X0274775Y0373471
X027754
X0276303Y0381425
X0281726Y0383325
X0284078Y0376424
X0292348Y0386826
X0289964Y0400612
X0296462Y0402097
X0296876Y0408334
Y0411834
X0290361Y0412013
X0284063Y0403225
X0276402Y0403725
X0272743Y0400764
X0268403Y0399825
X0264074Y039452
Y0386725
X0267464Y0384867
X0271432Y0388804
Y0392741
X0275369
Y0388804
X02734Y0390772
X0282002Y0395225
X0279858Y0398961
X0276702Y0416125
X0282263Y0426927
X0287719Y0426487
X0291196Y0426509
X0293237Y0434473
X0287769Y0434564
X0281702Y0432725
X0272598Y0429935
X0263869Y0429837
X0261069Y0429925
X0257969Y0429425
Y0432225
Y0426625
X0266769Y0425737
X0266624Y0435757
Y0439694
X0261113
Y0435757
X0258335Y0445542
X026695Y044802
X0277139Y04481
Y0444847
X0280392
X0285768Y0444938
X0290759Y0444946
X0295703Y0445225
X0300954Y0446083
X0303702
Y0442925
X0302974Y0439347
X0312403
X0306867Y0431888
X0303169Y0429086
X0302774Y0424053
X0309103Y0426425
X032187Y0425389
X0328835Y0426625
Y0429425
Y0432225
X0331935Y0429925
X0334735Y0429837
X0337635Y0425737
X0343442Y0429957
X0337491Y0435757
Y0439694
X0331979
Y0435757
X0329538Y044557
X0336703Y0445959
X0348005Y0444847
X0351258
X0350744Y0440826
X0353128Y0434552
X0358635Y0434564
X0364103Y0434473
X0364723Y042979
X0362063Y0426509
X0358585Y0426487
X0353129Y0426927
X0352639Y0423695
X0356212Y0416509
X0357225Y0409808
X0353557Y0410741
X0353535Y0403225
X035692Y0403181
X0350574Y0399891
X0361853Y0394292
X0364373Y0388775
X0363896Y0385275
X0371104Y0381882
X0374767Y0382045
X0382896Y0385275
X0383373Y0388775
X0379647Y0394619
X0374155Y040165
Y040515
X0382143Y0409788
X0363484
X0368588Y0421047
X0371931Y0426691
X0366763Y0445193
X0361626Y0444946
X0356634Y0444938
X0348005Y04481
X0343731Y0418449
X0326085Y0412867
Y0409552
X032277
Y0412867
X0322495Y0415853
X0315606Y0413509
X0314581Y0407576
Y0404261
X0310164Y0408925
Y0411525
X0302825Y0406952
X0315764Y0395196
X0315843Y0390639
X0315724Y0387983
X0318378
X0321031Y0387916
X0321011Y0385497
X0328864Y0387206
X031307Y0387983
X032097Y0397425
X0330664Y040431
X0318194Y036219
Y0359474
X0318639Y0356645
X0310148Y0356725
X0307432
X0308553Y0367922
X0311269
X0305837
X0261928Y0368214
X0258043Y0372454
Y0375219
X0255594Y0384446
X0255602Y0388713
X0255768Y0392882
X0251082Y040165
X0251101Y0405128
X0240411Y0409788
X0232423Y040515
Y040165
X0237915Y0394619
X0241641Y0388775
X0241164Y0385275
X0248472Y0381882
X0252158Y0381998
X0249918Y0368214
X0240853Y0368755
Y0366039
X0233035Y0382045
X0229372Y0381882
X0230199Y0426691
X0245843Y0426434
X024843Y0425194
Y0422226
Y0419258
Y0428162
X0248403Y0433525
X0241431Y0335955
X026944Y0327802
X0274212Y0323657
X0274391Y0317296
X0271649
X0277133
X026369Y0299744
X026037Y0299625
Y0296956
Y0294288
X0266641Y0293825
X0249884Y0294237
X0249933Y0298051
X0332024Y0326823
X0348185Y0325616
X036526Y0345134
X0222164Y0385275
X0222641Y0388775
X0215236Y0395607
X0215188Y0403181
X0211803Y0403225
X0211825Y0410741
X0215493Y0409808
X0221752Y0409788
X021448Y0416509
X0210907Y0423695
X0211396Y0426927
X0216852Y0426487
X022033Y0426509
X0222991Y042979
X0222371Y0434473
X0216902Y0434564
X0211396Y0434552
X0209012Y0440826
X0209517Y0444855
X0206265
Y0448108
X0214902Y0444938
X0219893Y0444946
X0225031Y0445193
X0226856Y0421047
X0201998Y0418449
X020171Y0429957
X0193002Y0429837
X0190202Y0429925
X0187102Y0429425
Y0432225
Y0426625
X0180137Y0425389
X0180667Y041584
X0181038Y0412911
Y0409596
X0184353
Y0412911
X0173874Y0413509
X0172849Y0407619
Y0404304
X0168432Y0408925
Y0411525
X0161093Y0406952
X0155143Y0408334
Y0411834
X0148629Y0412013
X0148232Y0400612
X015473Y0402097
X0142331Y0403225
X013467Y0403725
X0131011Y0400764
X012667Y0399825
X0122342Y039452
Y0386725
X0125732Y0384867
X0129699Y0388804
Y0392741
X0133636
Y0388804
X0131668Y0390772
X013457Y0381425
X0139994Y0383325
X0139798Y0376642
X0139031Y0364732
X0142531
X0131773Y0363083
X0131816Y0360549
X0121488Y0363013
X0119004Y0364754
Y0361213
X0114716Y0360991
X0111606Y0360107
Y0362507
Y0357707
X011117Y0354925
Y0352525
Y0350125
X011357Y0344325
X01143Y0339147
X011425Y0335472
X011393Y0326623
X0111266Y0316303
X0108866
X0106466
X0105034Y0313358
X0113877Y0313465
Y0311065
Y0308665
X010847Y0300725
X0106766Y0299094
X0092588Y0298393
X0090164Y0299255
Y0296855
Y0294455
Y0301655
Y0304055
Y0306455
Y0308855
X0093748Y0304983
X0092584Y0318125
Y0322528
X0096335Y0327382
X0099817Y0331507
X009947Y0334914
X009949Y0337936
X0102481
X010367Y0340625
X009949Y0343511
X009947Y0346725
X009949Y0349747
X0102481
X008087Y0337325
X0076165Y0329722
X0072665
X0072072Y0318315
X0083946Y032693
X0077954Y0362523
X0080432Y0385275
X0080909Y0388775
X0079323Y0393773
X0073456Y0403181
X0073761Y0409808
X008002Y0409788
X0072748Y0416509
X007512Y0426487
X0078598Y0426509
X0081259Y042979
X0080638Y0434473
X007517Y0434564
X0073169Y0444938
X0078161Y0444946
X0083298Y0445193
X0088467Y0426691
X0085123Y0421047
X0090691Y040515
Y040165
X0096183Y0394619
X0099909Y0388775
X0099432Y0385275
X010674Y0381882
X0110426Y0381998
X0113862Y0384446
X011387Y0388713
X0114036Y0392882
X010935Y040165
X0109369Y0405128
X0098679Y0409788
X0106698Y0419258
Y0422226
Y0425194
Y0428162
X010411Y0426434
X010667Y0433525
X0116236Y0432225
Y0429425
Y0426625
X0119336Y0429925
X0122136Y0429837
X0125036Y0425737
X0130866Y0429935
X0124892Y0435757
Y0439694
X011938
Y0435757
X0116603Y0445542
X012524Y0448042
X0135398Y0448108
Y0444855
X0138651
X0144035Y0444938
X0149027Y0444946
X015397Y0445225
X0159222Y0446083
X016197
Y0442925
X0161241Y0439347
X017067
X0165135Y0431888
X0161436Y0429086
X0161042Y0424053
X016737Y0426425
X0149464Y0426509
X0145986Y0426487
X014053Y0426927
X013997Y0432725
X0146036Y0434564
X0151505Y0434473
X013497Y0416125
X0138126Y0398961
X014027Y0395225
X0150616Y0386826
X0171338Y0388026
X0173992
X0176646
X0179299Y0387959
X0179279Y038554
X0187261Y0387211
X0174111Y0390683
X0174032Y0395239
X0179238Y0397468
X0188932Y040431
X0200772Y0399825
X0195903Y0425737
X0195758Y0435757
Y0439694
X0190247
Y0435757
X0187806Y044557
X0194971Y0445959
X0177857Y0349774
Y0346195
Y0342256
Y0338274
X016307Y0346579
Y0349179
X0157206Y0350375
X0153541Y0359623
X0143615Y0350855
X0149228Y0334432
X0157928
X0160679Y0331003
X016307Y0327525
Y0324925
X0164942Y0312398
Y030969
X0164791Y030646
X01581Y0306225
X0158085Y0303448
X0158058Y030973
Y0312419
X017176Y0312398
Y030969
X017433Y0306886
X0173694Y0301514
X017825Y0301592
X0181607Y0301353
Y0304041
X0184315Y0304113
Y0301425
Y0298737
X0181607Y0298664
X0180973Y0306781
X0147584Y0304725
X0148869Y0297336
X0145299Y0297972
X0140102Y029588
X0137557Y0295821
X0137883Y0303287
X013907Y0305825
X0140045Y0315444
Y0317776
X0143982
Y0315444
X013525Y0315301
X0130601Y0316973
X0127836
X012437Y0316225
X0127895Y0302803
X0127186Y0295491
X012483
X0091303Y0382045
X008764Y0381882
X0065104Y0375645
X0060261Y0370284
X0055537
X0050813
X0046088
X0043726Y0375008
Y0365559
X004845
X0053175
X0057899
X0050813Y0360835
X0046088
X0049195Y0357322
X0043726Y0356111
X0053175Y0346662
X0057899
X0060261Y0341937
X0055537
X0050813
X0053175Y0337213
X0057899
X0062924Y0335044
X0062624Y0327764
X0065119Y0322641
X0049511Y0330462
X0049683Y0300103
X0067348Y0299418
X0068859Y0296311
X0064574Y0349421
X0063241Y0357303
X0055537Y0389181
X0050813
X0046088
X0043726Y0393906
Y0403355
X0047199Y040431
X0046088Y0408079
Y0417528
X004537Y0426625
Y0429425
Y0432225
X004847Y0429925
X005127Y0429837
X005417Y0425737
X0057899Y0431701
X0059978Y0429957
X0054026Y0435757
Y0439694
X0048514
Y0435757
X0046074Y044557
X0042869Y0448811
X0053239Y0445959
X0064532Y0444855
X0067785
X006728Y0440826
X0069664Y0434552
X0069664Y0426927
X0069174Y0423695
X0070092Y0410741
X007007Y0403225
X0059039Y0399825
X0060266Y0418449
X0064532Y0448108
Y0451361
X0064853Y045786
X0060851Y0462124
X0056621Y0462106
X0057876Y0469822
Y0472824
Y0475825
X0060878
Y0472824
X005967Y0481125
X0062967Y0481525
X0064561Y0479249
X0067327
X005747Y0479325
X0048872Y0478827
X0048824Y0481516
X0046058
X004587Y0478827
Y0475825
X0048872
X004587Y0472824
X0042869
Y0469822
Y046682
Y0463819
Y0460817
Y0457816
Y0454814
Y0451813
X004607Y0450425
X0052526Y0452116
X005247Y0455425
X0048951Y0464382
X0046259Y046432
X0042869Y0475825
Y0478827
Y0481828
Y048483
Y0487831
Y0490833
X0051073Y0490138
X005017Y0493225
X005277Y0496725
X005557Y0496825
X0058096Y0496875
X0061609Y0496725
X0064374
X006827Y0496925
X007097
X0066928Y0503532
X0067488Y0506907
Y0509672
X0061023Y0503532
X0050802Y0502369
Y0499598
X0061023Y0490138
X0076039Y0490524
Y0493524
X007427Y0496725
X007567Y0503225
X0077161Y0481516
X0079926
X0082849Y0481598
X0086157Y0481925
X008897
X0091783
X0090498Y0470542
X0084592Y04676
X0082035Y0465979
X007927
X0083152Y0455294
X0086357Y0450657
X0089664Y0453294
X009243
X0095221Y0453249
X0097987
X0110137Y0453823
Y0456588
X0114174Y0460444
X0117125Y046432
X0119817Y0464382
X0127495Y0462098
X0131726Y0462116
X0135727Y0457852
X0135398Y0451361
X0123055Y0452088
X0122999Y0455398
X0116599Y0450398
X0115849Y0470725
X0113302
X010247
X010277Y0467225
X0103687Y0464061
X0107894
X01086Y0481924
X0105787
X0099993Y0487544
Y0490357
X0128239Y0490138
X0127336Y0493225
X0129936Y0496725
X0132866Y0496784
X0135262Y0496875
X0138774Y0496725
X014154
X014547Y0496925
X014827
X0151436Y0496725
X0153205Y0493524
Y0490524
X0154326Y0481516
X0157092
X0159267Y0483361
X0144492Y0479249
X0141727
X0140097Y0481488
X0136837Y0481125
X013457Y0479325
X0125989Y0481516
X0123224
X0121726Y0478889
X0127967Y0499598
Y0502369
X0138188Y0503532
X0144094
X0146494Y0504934
X0144653Y0506907
Y0509672
X0152836Y0503225
X0163224Y0503818
Y0506632
X0168554Y0498267
X0171367
X0171657Y0517316
X0168843
X0163224Y052311
Y0525923
X0183894Y0526903
Y0523786
X0187011
X0205133Y050237
Y0499599
X0207101Y0496727
X0209901Y0496827
X0212427Y0496877
X021594Y0496727
X0218705
X0222601Y0496927
X0225301
X0223676Y0504823
X0221259Y0503534
X0221818Y0506908
Y0509674
X0215354Y0503534
Y0490139
X0205404
X0204501Y0493227
X0203155Y0481517
X0200389
X0197651Y0481564
X0211801Y0479327
X0214001Y0481127
X0217299Y0481527
X0218892Y047925
X0221658
X0221002Y0465979
X0223767
X0222305Y0463489
X0224884Y0455294
X0206585Y045786
X0206265Y0451361
X0194258Y0452116
X0194202Y0455425
X0198353Y0462106
X0202584Y0462124
X0190683Y0464382
X0187991Y046432
X018504Y0460444
X018017Y0455825
X0178426Y0450657
X0187803Y0450425
X0186716Y0470725
X0184168
X0173336
X0173636Y0467225
X0174553Y0464061
X017876
X0162496Y0461395
X016304Y0450837
X0166087Y0453249
X0168853
X0157224Y0450657
X0154018Y0455294
X015139Y0463472
X0150136Y0465979
X0152901
X0138188Y0490138
X0110239Y0523786
X0107122
Y0526903
X010097Y0527625
X0097853
X0099412Y0525625
X009163Y0461395
X0233362
X0234162Y0453294
X0231397
X0236953Y0453249
X0239719
X0251631Y0453823
Y0456588
X0255906Y0460444
X0258858Y046432
X0261549Y0464382
X0269228Y0462098
X0273458Y0462116
X0277459Y0457852
X0277139Y0451352
X0264787Y0452088
X0264732Y0455398
X0258332Y0450398
X0257582Y0470725
X0255035
X0244202
X0244502Y0467225
X0245419Y0464061
X0249626
X023223Y0470542
X0231492Y0481517
X0234257
X0236455Y0482994
X023037Y0490525
Y0493525
X0228601Y0496727
X0230001Y0503227
X0240182Y0502991
Y0505804
X0243757Y0514617
X024657
X0252121Y0519948
Y0522761
X0263048Y0514617
X0265861
X0271413Y0519948
Y0522761
X0259473Y0505804
Y0502991
X0264804Y049744
X0267617
X0282298Y0499599
Y050237
X0284267Y0496727
X0287197Y0496785
X0289593Y0496877
X0293105Y0496727
X0295871
X0299801Y0496927
X0302601
X0305767Y0496727
X0307536Y0493525
Y0490525
X0308657Y0481517
X0311423
X0314243Y0481499
X0315069Y0470725
X0315369Y0467225
X0316285Y0464061
X0320492
X0329724Y046432
X0332415Y0464382
X0326772Y0460444
X0321902Y0455825
X0320158Y0450657
X0329535Y0450425
X033599Y0452116
X0335935Y0455425
X0340085Y0462106
X0344316Y0462124
X0348317Y045786
X0348005Y0451352
X0369822Y0450657
X0373129Y0453294
X0375894
X0378686Y0453249
X0381451
X0375094Y0461395
X037367Y0471525
X0373223Y0479249
X0375989
X037163Y0481526
X0368332Y0481126
X0366132Y0479326
X0357485Y0481625
X035472
X0352057
X0359735Y0490138
X0358832Y0493226
X0361432Y0496726
X0364232Y0496826
X0366758Y0496876
X0370271Y0496726
X0373036
X0376932Y0496926
X0379632
X0382932Y0496726
X037797Y0505025
X037615Y0506907
Y0509672
X037559Y0503533
X0369685
X0359464Y0502369
Y0499598
X0348587Y0504319
Y0507132
X0343256Y0498767
X0340443
X0341383Y0517786
X0344196
X0349816Y0523579
Y0526393
X0327918Y0526903
Y0523786
X03248
X0307167Y0503227
X030077Y0504925
X0298425Y0503534
X0298984Y0506908
Y0509674
X0292519Y0503534
Y0490139
X028257
X0281667Y0493227
X028032Y0481517
X0277555
X0274741
X0288901Y0479327
X0291168Y0481127
X0294428Y0481489
X0296058Y047925
X0298823
X0294634Y0465979
X0291868
X0293255Y0463682
X029575Y0455294
X0298956Y0450657
X030427Y0450725
X030782Y0453249
X0310585
X0304228Y0461395
X0325901Y0470725
X0328448
X0362735Y0465979
X03655
X0364086Y0463605
X0366616Y0455294
X0369685Y0490138
X0248326Y049744
X0245512
X022809Y0450657
X0393861Y0453823
Y0456588
X0397639Y0460444
X040059Y046432
X0403282Y0464382
X041096Y0462098
X041519Y0462116
X0418789Y0463892
X0422104
X0425419
X0428734
Y0467207
X0433601Y0465979
X0436366
X0435022Y0463543
X0438679Y0463892
X0441994
X0445961Y0461395
X0441055Y0456284
X0437483Y0455294
X0435364Y0457262
X0432049
X0428734
Y0460576
X0425419
X0422104
X0419192Y0457852
X0425419Y0457262
X0418863Y0451361
X0406519Y0452088
X0406464Y0455398
X0400064Y0450398
X0399314Y0470725
X0396767
X0385935
X0386235Y0467225
X0387151Y0464061
X0391358
X0391442Y0481487
X0388588Y0481516
X0385823
X0384701Y0490524
Y0493524
X0384332Y0503226
X0401572Y0523786
X0404689
Y0526903
X041281Y0527625
X0415927
X0414368Y0525625
X0411817Y0490858
Y0488045
X0406024Y0482425
X040321
X0419643Y0482425
X0422457
X042527
X0429147Y0481349
X0431886Y0481516
X0434651
X0443232Y0479326
X0445499Y0481126
X0448759Y0481488
X0450389Y0479249
X0453154
X0454896Y0481791
X0462988Y0481516
X0465754
X0468555
X0469313Y0470784
X0466926
X0456801Y0470725
X0457101Y0467225
X0458017Y0464061
X0462224
X0463635Y0455825
X0461891Y0450657
X0452317Y0453249
X0449552
X0449535Y0450625
X0440688Y0450657
X0442939Y0474221
X0447663
X044685Y0490138
X0447436Y0496726
X0450202
X0454132Y0496926
X0456932
X0460098Y0496726
X0461867Y0493524
Y0490524
X0461498Y0503226
X0452756Y0503533
X0453315Y0506907
Y0509672
X0453134Y0512696
X044685Y0503533
X0443924Y0496876
X0441528Y0496784
X0438598Y0496726
X0436629Y0499598
Y0502369
X0435998Y0493226
X0436901Y0490138
X0419317Y0474221
X0602216Y0470485
X0620399Y0468244
X0615871Y0463716
X0614035Y0484693
X0630099Y0483872
X0633147Y0489621
X0633893Y0500252
X0631952Y051005
X0636781Y0509656
X0639581Y0515469
X0647431Y0515823
X0648024Y0520691
X0655286Y0516712
X0664847Y0516718
X066491Y0519965
X0664951Y0512749
X0664818Y0509369
X0664793Y0505642
X066089
X0657721Y0505752
X0653513Y0501423
X0653191Y0495749
X0644311Y0494834
X0667322Y0494605
X0666393Y0491772
X0668087Y050105
X0669446Y0512901
X0680021Y0512749
X0682621
X0687567Y0513259
X0690346
X0688865Y050114
X0685771Y0501136
X0688607Y0498167
X0693274Y0499668
X0693346Y0493765
X0690255Y0493055
X0688865Y0490206
X0685811
X0672496Y047787
Y0473353
X0670989Y0468244
X0669543Y0455826
X066859Y0452142
X065795Y0456427
X0650547Y0452109
X0641462Y0468244
X0633185Y0474651
X0633383Y0478169
X0622745Y0497899
X062182Y0502764
X0629786Y05138
X0633077Y0524422
X0636499Y0524848
X0636458Y0527404
X0643068Y0530483
Y0533574
Y0536665
Y0539756
X0647076
X0650529Y0539786
X0661756Y0539129
X0665349Y0539271
Y0532722
X0661644
X0654164Y0528334
X0675059Y0522036
X0682976Y0527386
X0688636Y0527613
X0691838
X0694414
X0695162Y0537732
X0692555
X0688565Y054696
X0688732Y0553436
X0695836
X0692052Y0468244
X0620976Y0524029
X0609192Y0519314
X0701227Y0516458
X0701118Y0512749
X070974Y051441
X0719169Y0518964
X0721365Y052097
X0719762Y052307
X0723501
Y0518927
X0731667Y0507695
X0734221Y0507966
X0733196Y0505529
X0730594Y0502836
X0718499Y0502851
X0718681Y0496734
X0721252Y0490115
X0721115Y0486347
X0721265Y0475206
X071903Y0466238
X073355Y0469185
X0748514Y0469642
X0751866Y0469858
X0751214Y0474056
X0764313Y0474429
X0762598Y048159
X0761914Y0466494
X0765459Y0458973
X076271Y0454969
X0752849Y0459588
X0742445Y0450132
X0728296Y0452142
X0701058Y0462246
X069658Y0463716
X0697398Y0493615
X0703333Y0493782
X0706248Y049987
X0703766Y0527613
X0699789
X0697053Y0527622
X0696664Y0535424
X069687Y0540025
X0702009Y0540074
X0704858Y0540773
X070596Y0543542
X0711175Y0542912
X0707197Y0538233
X0754111Y053057
X0747343Y0518232
X0743016Y0515298
X0742137Y0507319
X0744211Y0505616
X0747798Y0505713
X0750653Y0505299
X0741355Y0504264
X07813Y0485246
X0780849Y0481516
X0781344Y0470211
X0780849Y0466469
X0781913Y0456157
X0873608Y0458263
Y0461028
X0877461Y0462992
X0876772Y0456791
X0874753Y0454455
X0872797Y0452499
X0883637Y045217
X0883526Y045621
X0883589Y0462066
X088679Y0463835
X0890453Y0455905
X0942548Y0455709
X0955147
X0959372Y0461795
X0962597Y0464961
X0955043Y0471308
Y0482416
X0942445
Y0471308
X0936487Y0465802
X0942572Y049854
Y0509648
X095517
Y049854
X0998841Y0454882
X0996885Y0452927
X1007162Y0455772
X1014075Y0456398
X1013851Y045217
X1021137Y045374
X1023881Y0456294
Y045906
X1019543Y0462977
X1016772
X1013878Y0461516
X10104Y0463609
T02
X0903852Y010619
X0905427Y0108918
X0649522Y0108916
X0647947Y0106189
X0660069Y0155295
X0665581
X0671093
Y0160806
Y0166318
X0665575
X0660069
Y0160806
X0665581
X0678371Y0227345
X0678371Y0231282
X0674434
X0678371Y0235219
X0682308Y0231282
X093034Y0231283
X0934276
X0934276Y0227346
Y0235221
X0938214Y0231283
X0926998Y0166319
Y0160808
Y0155296
X0921486
X0915975
Y0160808
Y0166319
X092148
X0921486Y0160808
X0647947Y0370414
X0649522Y0373142
X0660069Y041952
X0665581
X0671093
Y0425032
Y0430544
X0665575
X0660069
Y0425032
X0665581
X0678371Y0491571
X0678371Y0495508
X0674434
X0678371Y0499445
X0682308Y0495508
T06
X0192754Y0203123
Y021021
X0195906Y0259877
X0188819
X0208406Y0259654
X0215492
X0605603Y022175
Y0214664
X0617775Y0211676
X0624862Y0211676
X0861509Y0214665
Y0221751
X0873681Y0211677
X0880767Y0211677
X0247568Y033138
X0240482
X0605603Y0478889
Y0485976
X0617775Y0475901
X0624862Y0475901
T07
X0948744Y0390721
Y0400721
Y0417953
Y0427953
X094872Y0445709
Y0455709
X0948744Y0472416
Y0482416
Y0499648
Y0509648
T09
X0385859Y0324134
Y0334134
Y0344134
Y0354134
Y0364134
X040586
Y0354134
Y0344134
Y0334134
Y0324134
X042167
Y0334134
Y0344134
Y0354134
Y0364134
X044167
Y0354134
Y0344134
Y0334134
Y0324134
T10
X0386042Y0166432
X0396042
X0406042
X0416042
X0421042Y0176432
X0411042
X0401042
X0391042
T11
X0451693Y020122
X0461693
Y0211221
X0451693
Y022122
X0461693
Y0231221
X0451693
Y024122
X0461693
Y025122
X0451693
Y0261221
X0461693
Y027122
X0451693
X0199995Y0313452
X0189995
Y0323452
X0199995
Y0333452
X0189995
Y0343452
X0199995
Y0353452
X0189995
T12
X0724092Y0164128
Y0174128
X0734092
X0734092Y0164128
X0744092
Y0174128
X0979997Y017413
Y016413
X0989997
X0999997
Y017413
X0989997Y017413
X0744092Y0428354
X0734092
X0724092
Y0438354
X0734092
X0744092Y0438354
T13
X038864Y0128125
X0418443Y0121432
X0428443Y0128125
X037864Y0121353
T14
X0992479Y0410042
X09018Y0493428
T15
X0181661Y0118608
X0201346
T16
X0233382Y0108235
X0347743Y0190174
X0603635Y0194722
X085954Y0194724
X0080413Y0308988
X0185039Y0498032
X0326772
X0603635Y0458948
T17
X0372538Y0153361
X0434546
T18
X0065716Y0144304
Y0162808
Y0181312
X0084732
Y0162808
Y0144304
T19
X0381042Y0141353
X0426042
T20
X0948745Y0091224
X0692839Y0091223
X0452756Y011811
X0059055
X0452756Y0177165
X0607603Y0238883
X0778076Y0238861
X0863509Y0238885
X1033981Y0238862
X0692839Y0355449
X0452756Y0295276
X0098425Y0511811
X0413386
X0607603Y0503109
X0778076Y0503086
T21
X0229237Y018608
X0347347Y030419
T22
X0707013Y0262483
X0962918Y0262484
X1013236Y0436614
X015433Y0496062
X0077165
X0231496Y0496063
X0308661
X0385827Y0496062
X0462992
X0707013Y0526708
X0884252Y0464961
T23
X0917643Y0090083
X0921973Y0087583
X0926303Y0085083
X0930634Y0082583
X0934964Y0080083
X0679058Y0080081
X0674728Y0082581
X0670398Y0085081
X0666068Y0087581
X0661738Y0090081
X0938745Y0295862
X0943745
X0948745
X0953745
X0958745
X070284Y0295861
X0697839
X0692839
X068784
X0682839
X0679058Y0344307
X0674728Y0346807
X0670398Y0349307
X0666068Y0351807
X0661738Y0354307
X0682839Y0560086
X068784
X0692839
X0697839
X070284
M30
