G04*
G04 #@! TF.GenerationSoftware,Altium Limited,Altium Designer,21.2.2 (38)*
G04*
G04 Layer_Color=16711935*
%FSLAX25Y25*%
%MOIN*%
G70*
G04*
G04 #@! TF.SameCoordinates,0448F7F8-B58B-4B03-AB27-B3033358FA6D*
G04*
G04*
G04 #@! TF.FilePolarity,Negative*
G04*
G01*
G75*
%ADD11C,0.02000*%
%ADD171C,0.01968*%
%ADD182C,0.05500*%
%ADD378R,0.09350X0.09350*%
%ADD381R,0.16437X0.09350*%
%ADD382C,0.11811*%
%ADD385R,0.19843X0.06850*%
G04:AMPARAMS|DCode=422|XSize=38.94mil|YSize=37.94mil|CornerRadius=7.92mil|HoleSize=0mil|Usage=FLASHONLY|Rotation=90.000|XOffset=0mil|YOffset=0mil|HoleType=Round|Shape=RoundedRectangle|*
%AMROUNDEDRECTD422*
21,1,0.03894,0.02210,0,0,90.0*
21,1,0.02310,0.03794,0,0,90.0*
1,1,0.01584,0.01105,0.01155*
1,1,0.01584,0.01105,-0.01155*
1,1,0.01584,-0.01105,-0.01155*
1,1,0.01584,-0.01105,0.01155*
%
%ADD422ROUNDEDRECTD422*%
G04:AMPARAMS|DCode=424|XSize=38.94mil|YSize=37.94mil|CornerRadius=7.92mil|HoleSize=0mil|Usage=FLASHONLY|Rotation=180.000|XOffset=0mil|YOffset=0mil|HoleType=Round|Shape=RoundedRectangle|*
%AMROUNDEDRECTD424*
21,1,0.03894,0.02210,0,0,180.0*
21,1,0.02310,0.03794,0,0,180.0*
1,1,0.01584,-0.01155,0.01105*
1,1,0.01584,0.01155,0.01105*
1,1,0.01584,0.01155,-0.01105*
1,1,0.01584,-0.01155,-0.01105*
%
%ADD424ROUNDEDRECTD424*%
%ADD509C,0.03800*%
%ADD510O,0.04291X0.03110*%
%ADD511O,0.03701X0.06063*%
%ADD512C,0.03110*%
%ADD513C,0.10000*%
%ADD514C,0.06850*%
%ADD515R,0.06850X0.06850*%
%ADD516C,0.04882*%
%ADD517C,0.24961*%
%ADD518O,0.06063X0.03701*%
%ADD519O,0.03110X0.04291*%
%ADD520C,0.06800*%
%ADD521R,0.07051X0.07051*%
%ADD522C,0.07051*%
%ADD523C,0.11575*%
%ADD524R,0.11575X0.11575*%
%ADD525C,0.08851*%
%ADD526C,0.15351*%
%ADD527C,0.06651*%
%ADD528O,0.08425X0.20236*%
%ADD529O,0.20236X0.08425*%
%ADD530C,0.07638*%
%ADD531R,0.07638X0.07638*%
G04:AMPARAMS|DCode=532|XSize=39.37mil|YSize=66.93mil|CornerRadius=19.68mil|HoleSize=0mil|Usage=FLASHONLY|Rotation=360.000|XOffset=0mil|YOffset=0mil|HoleType=Round|Shape=RoundedRectangle|*
%AMROUNDEDRECTD532*
21,1,0.03937,0.02756,0,0,360.0*
21,1,0.00000,0.06693,0,0,360.0*
1,1,0.03937,0.00000,-0.01378*
1,1,0.03937,0.00000,-0.01378*
1,1,0.03937,0.00000,0.01378*
1,1,0.03937,0.00000,0.01378*
%
%ADD532ROUNDEDRECTD532*%
%ADD533C,0.06496*%
%ADD534R,0.06496X0.06496*%
%ADD535C,0.07835*%
%ADD536R,0.07835X0.07835*%
%ADD538C,0.02368*%
%ADD539C,0.02362*%
%ADD540R,0.09350X0.09350*%
D11*
X1675248Y414505D02*
Y404508D01*
X1680247D01*
X1681913Y406174D01*
Y407840D01*
X1680247Y409506D01*
X1675248D01*
X1680247D01*
X1681913Y411172D01*
Y412839D01*
X1680247Y414505D01*
X1675248D01*
X1690244D02*
X1686911D01*
X1685245Y412839D01*
Y406174D01*
X1686911Y404508D01*
X1690244D01*
X1691910Y406174D01*
Y412839D01*
X1690244Y414505D01*
X1695242D02*
X1701906D01*
X1698574D01*
Y404508D01*
X1705239Y414505D02*
X1711903D01*
X1708571D01*
Y404508D01*
X1720234Y414505D02*
X1716902D01*
X1715235Y412839D01*
Y406174D01*
X1716902Y404508D01*
X1720234D01*
X1721900Y406174D01*
Y412839D01*
X1720234Y414505D01*
X1725232Y404508D02*
Y414505D01*
X1728564Y411172D01*
X1731897Y414505D01*
Y404508D01*
X1751890Y412839D02*
X1750224Y414505D01*
X1746892D01*
X1745226Y412839D01*
Y411172D01*
X1746892Y409506D01*
X1750224D01*
X1751890Y407840D01*
Y406174D01*
X1750224Y404508D01*
X1746892D01*
X1745226Y406174D01*
X1760221Y414505D02*
X1756889D01*
X1755223Y412839D01*
Y406174D01*
X1756889Y404508D01*
X1760221D01*
X1761887Y406174D01*
Y412839D01*
X1760221Y414505D01*
X1765219D02*
Y404508D01*
X1771884D01*
X1775216Y414505D02*
Y404508D01*
X1780214D01*
X1781881Y406174D01*
Y412839D01*
X1780214Y414505D01*
X1775216D01*
X1791877D02*
X1785213D01*
Y404508D01*
X1791877D01*
X1785213Y409506D02*
X1788545D01*
X1795210Y404508D02*
Y414505D01*
X1800208D01*
X1801874Y412839D01*
Y409506D01*
X1800208Y407840D01*
X1795210D01*
X1798542D02*
X1801874Y404508D01*
X1805206D02*
Y414505D01*
X1808539Y411172D01*
X1811871Y414505D01*
Y404508D01*
X1815203D02*
Y411172D01*
X1818535Y414505D01*
X1821868Y411172D01*
Y404508D01*
Y409506D01*
X1815203D01*
X1831864Y412839D02*
X1830198Y414505D01*
X1826866D01*
X1825200Y412839D01*
Y411172D01*
X1826866Y409506D01*
X1830198D01*
X1831864Y407840D01*
Y406174D01*
X1830198Y404508D01*
X1826866D01*
X1825200Y406174D01*
X1835197Y414505D02*
Y404508D01*
Y407840D01*
X1841861Y414505D01*
X1836863Y409506D01*
X1841861Y404508D01*
D171*
X388855Y215909D02*
D03*
Y219846D02*
D03*
X384918D02*
D03*
Y215909D02*
D03*
Y211972D02*
D03*
X388855D02*
D03*
X392792D02*
D03*
Y215909D02*
D03*
Y219846D02*
D03*
D182*
X421042Y176432D02*
D03*
X411042D02*
D03*
X401042D02*
D03*
X391042D02*
D03*
X416042Y166432D02*
D03*
X406042D02*
D03*
X396042D02*
D03*
X386042D02*
D03*
D378*
X336852Y10943D02*
D03*
X327993Y10943D02*
D03*
X310277Y10874D02*
D03*
X354568Y10943D02*
D03*
X345710Y10943D02*
D03*
X319135D02*
D03*
D381*
X297875D02*
D03*
D382*
X619657Y333228D02*
D03*
X908991Y39591D02*
D03*
X1013670Y577132D02*
D03*
X441945Y77250D02*
D03*
X243033Y558286D02*
D03*
X91607Y45326D02*
D03*
X963312Y134531D02*
D03*
X1019776Y256017D02*
D03*
X936441Y213272D02*
D03*
X707406Y134530D02*
D03*
X763870Y256015D02*
D03*
X680536Y213270D02*
D03*
X707406Y398756D02*
D03*
X763870Y520241D02*
D03*
X680536Y477496D02*
D03*
X884262Y498700D02*
D03*
X982712Y394357D02*
D03*
X1034628Y498709D02*
D03*
X186070Y512325D02*
D03*
X83270Y351625D02*
D03*
X358442Y108449D02*
D03*
D385*
X856156Y144706D02*
D03*
Y178249D02*
D03*
X600251Y144705D02*
D03*
Y178248D02*
D03*
Y408930D02*
D03*
Y442473D02*
D03*
D422*
X948197Y282736D02*
D03*
Y288636D02*
D03*
X692292Y282735D02*
D03*
Y288635D02*
D03*
Y546960D02*
D03*
Y552860D02*
D03*
D424*
X420279Y526903D02*
D03*
X426179D02*
D03*
X93501D02*
D03*
X87601D02*
D03*
X110239D02*
D03*
X116139D02*
D03*
X401572D02*
D03*
X395672D02*
D03*
X324800D02*
D03*
X318900D02*
D03*
X187011D02*
D03*
X192911D02*
D03*
D509*
X921973Y87583D02*
D03*
X917643Y90083D02*
D03*
X934964Y80083D02*
D03*
X930634Y82583D02*
D03*
X926303Y85083D02*
D03*
X953745Y295862D02*
D03*
X958745D02*
D03*
X938745D02*
D03*
X943745D02*
D03*
X948745D02*
D03*
X666068Y87581D02*
D03*
X661738Y90081D02*
D03*
X679058Y80081D02*
D03*
X674728Y82581D02*
D03*
X670398Y85081D02*
D03*
X697839Y295861D02*
D03*
X702840D02*
D03*
X682839D02*
D03*
X687840D02*
D03*
X692839D02*
D03*
X666068Y351807D02*
D03*
X661738Y354307D02*
D03*
X679058Y344307D02*
D03*
X674728Y346807D02*
D03*
X670398Y349307D02*
D03*
X697839Y560086D02*
D03*
X702840D02*
D03*
X682839D02*
D03*
X687840D02*
D03*
X692839D02*
D03*
D510*
X934572Y262484D02*
D03*
X678666Y262483D02*
D03*
Y526708D02*
D03*
X434646Y496062D02*
D03*
X280315Y496063D02*
D03*
X125984Y496062D02*
D03*
X357480Y496062D02*
D03*
X203149Y496063D02*
D03*
X48818Y496062D02*
D03*
D511*
X965005Y267406D02*
D03*
X932485D02*
D03*
X931068Y290831D02*
D03*
X966422D02*
D03*
X709099Y267404D02*
D03*
X676580D02*
D03*
X675162Y290829D02*
D03*
X710517D02*
D03*
X709099Y531630D02*
D03*
X676580D02*
D03*
X675162Y555055D02*
D03*
X710517D02*
D03*
X465079Y500984D02*
D03*
X432559D02*
D03*
X431142Y524409D02*
D03*
X466496D02*
D03*
X310748Y500985D02*
D03*
X278228D02*
D03*
X276811Y524410D02*
D03*
X312165D02*
D03*
X156417Y500983D02*
D03*
X123897D02*
D03*
X122480Y524408D02*
D03*
X157834D02*
D03*
X387913Y500984D02*
D03*
X355394D02*
D03*
X353976Y524409D02*
D03*
X389331D02*
D03*
X233582Y500985D02*
D03*
X201063D02*
D03*
X199645Y524410D02*
D03*
X235000D02*
D03*
X79251Y500983D02*
D03*
X46732D02*
D03*
X45314Y524408D02*
D03*
X80669D02*
D03*
D512*
X962918Y262484D02*
D03*
X707013Y262483D02*
D03*
Y526708D02*
D03*
X1013236Y436614D02*
D03*
X884252Y464961D02*
D03*
X462992Y496062D02*
D03*
X308661Y496063D02*
D03*
X154330Y496062D02*
D03*
X385827Y496062D02*
D03*
X231496Y496063D02*
D03*
X77165Y496062D02*
D03*
D513*
X859540Y194724D02*
D03*
X603635Y194722D02*
D03*
Y458948D02*
D03*
X233382Y108235D02*
D03*
X347743Y190174D02*
D03*
X326772Y498032D02*
D03*
X185039D02*
D03*
X80413Y308988D02*
D03*
D514*
X989997Y164130D02*
D03*
X999997D02*
D03*
X979997D02*
D03*
X989997Y174130D02*
D03*
X979997D02*
D03*
X734092Y164128D02*
D03*
X744092D02*
D03*
X724092D02*
D03*
X734092Y174128D02*
D03*
X724092D02*
D03*
X734092Y428354D02*
D03*
X744092D02*
D03*
X724092D02*
D03*
X734092Y438354D02*
D03*
X724092D02*
D03*
D515*
X999997Y174130D02*
D03*
X744092Y174128D02*
D03*
Y438354D02*
D03*
D516*
X861509Y221751D02*
D03*
Y214665D02*
D03*
X873681Y211677D02*
D03*
X880767Y211677D02*
D03*
X605603Y221750D02*
D03*
Y214664D02*
D03*
X617775Y211676D02*
D03*
X624862Y211676D02*
D03*
X605603Y485976D02*
D03*
Y478889D02*
D03*
X617775Y475901D02*
D03*
X624862Y475901D02*
D03*
X247568Y331380D02*
D03*
X240482D02*
D03*
X208406Y259654D02*
D03*
X215492D02*
D03*
X188819Y259877D02*
D03*
X195906D02*
D03*
X192754Y210210D02*
D03*
Y203123D02*
D03*
D517*
X863509Y238885D02*
D03*
X948745Y91224D02*
D03*
X1033981Y238862D02*
D03*
X607603Y238883D02*
D03*
X692839Y91223D02*
D03*
X778076Y238861D02*
D03*
X607603Y503109D02*
D03*
X692839Y355449D02*
D03*
X778076Y503086D02*
D03*
X229237Y186080D02*
D03*
X347347Y304190D02*
D03*
X452756Y177165D02*
D03*
Y295276D02*
D03*
X413386Y511811D02*
D03*
X98425D02*
D03*
X452756Y118110D02*
D03*
X59055D02*
D03*
D518*
X1041583Y433110D02*
D03*
Y468465D02*
D03*
X1018157Y467047D02*
D03*
Y434528D02*
D03*
X855906Y468465D02*
D03*
Y433110D02*
D03*
X879331Y434528D02*
D03*
Y467047D02*
D03*
D519*
X1013236Y464961D02*
D03*
X884252Y436614D02*
D03*
D520*
X901800Y493428D02*
D03*
X992479Y410042D02*
D03*
D521*
X948720Y445709D02*
D03*
X948744Y499648D02*
D03*
Y472416D02*
D03*
Y427953D02*
D03*
Y400721D02*
D03*
D522*
X948720Y455709D02*
D03*
X948744Y509648D02*
D03*
Y482416D02*
D03*
Y417953D02*
D03*
Y390721D02*
D03*
D523*
X84732Y144304D02*
D03*
Y162808D02*
D03*
Y181312D02*
D03*
X65716Y162808D02*
D03*
Y181312D02*
D03*
D524*
Y144304D02*
D03*
D525*
X434546Y153361D02*
D03*
X372538D02*
D03*
D526*
X426042Y141353D02*
D03*
X381042D02*
D03*
D527*
X428443Y128125D02*
D03*
X418443Y121432D02*
D03*
X388640Y128125D02*
D03*
X378640Y121353D02*
D03*
D528*
X334568Y141514D02*
D03*
D529*
X315670Y128719D02*
D03*
Y153325D02*
D03*
D530*
X461693Y271220D02*
D03*
X451693Y201220D02*
D03*
X461693D02*
D03*
X451693Y211221D02*
D03*
X461693D02*
D03*
X451693Y221220D02*
D03*
X461693D02*
D03*
X451693Y231221D02*
D03*
X461693D02*
D03*
X451693Y241220D02*
D03*
X461693D02*
D03*
X451693Y251220D02*
D03*
X461693D02*
D03*
X451693Y261221D02*
D03*
X461693D02*
D03*
X199995Y353452D02*
D03*
X189995Y313452D02*
D03*
X199995D02*
D03*
X189995Y323452D02*
D03*
X199995D02*
D03*
X189995Y333452D02*
D03*
X199995D02*
D03*
X189995Y343452D02*
D03*
X199995D02*
D03*
D531*
X451693Y271220D02*
D03*
X189995Y353452D02*
D03*
D532*
X110354Y104125D02*
D03*
X84370D02*
D03*
D533*
X441670Y354134D02*
D03*
Y364134D02*
D03*
X421670D02*
D03*
X441670Y344134D02*
D03*
Y334134D02*
D03*
X421670Y354134D02*
D03*
Y344134D02*
D03*
Y334134D02*
D03*
Y324134D02*
D03*
X405860Y354134D02*
D03*
Y364134D02*
D03*
X385859D02*
D03*
X405860Y344134D02*
D03*
Y334134D02*
D03*
X385859Y354134D02*
D03*
Y344134D02*
D03*
Y334134D02*
D03*
Y324134D02*
D03*
D534*
X441670D02*
D03*
X405860D02*
D03*
D535*
X201346Y118608D02*
D03*
D536*
X181661D02*
D03*
D538*
X331979Y435757D02*
D03*
X337491D02*
D03*
X331979Y439694D02*
D03*
X337491D02*
D03*
X190247Y435757D02*
D03*
X195758D02*
D03*
X190247Y439694D02*
D03*
X195758D02*
D03*
X48514Y435757D02*
D03*
X54026D02*
D03*
X48514Y439694D02*
D03*
X54026D02*
D03*
X402845Y435757D02*
D03*
X408357D02*
D03*
X402845Y439694D02*
D03*
X408357D02*
D03*
X261113Y435757D02*
D03*
X266624D02*
D03*
X261113Y439694D02*
D03*
X266624D02*
D03*
X119380Y435757D02*
D03*
X124892D02*
D03*
X119380Y439694D02*
D03*
X124892D02*
D03*
D539*
X253756Y351035D02*
D03*
X258087D02*
D03*
X253756Y346705D02*
D03*
X258087D02*
D03*
X298244Y351035D02*
D03*
X302574D02*
D03*
X298244Y346705D02*
D03*
X302574D02*
D03*
D540*
X363426Y10943D02*
D03*
M02*
