M48
;Layer_Color=9474304
;FILE_FORMAT=2:5
INCH,LZ
;TYPE=PLATED
T3F00S00C0.01968
T4F00S00C0.01968
T5F00S00C0.02559
T8F00S00C0.03150
;TYPE=NON_PLATED
%
G90
G05
T03
G00X008437Y0105503
M15
G01Y0102747
M16
G00X0110354Y0102747
M15
G01Y0105503
M16
T04
G00X067658Y0268585
M15
G01Y0266223
M16
G00X0675162Y0292011
M15
G01Y0289648
M16
G00X0710517Y0292011
M15
G01Y0289648
M16
G00X0709099Y0268585
M15
G01Y0266223
M16
G00X0932485Y0268587
M15
G01Y0266224
M16
G00X0931068Y0292012
M15
G01Y028965
M16
G00X0966422Y0292012
M15
G01Y028965
M16
G00X0965005Y0268587
M15
G01Y0266224
M16
G00X1019339Y0434528
M15
G01X1016976
M16
G00X1042764Y043311
M15
G01X1040402
M16
G00X087815Y0434528
M15
G01X0880512
M16
G00X0854724Y043311
M15
G01X0857087
M16
G00X0046732Y0502164
M15
G01Y0499802
M16
G00X0045314Y052559
M15
G01Y0523227
M16
G00X0080669Y052559
M15
G01Y0523227
M16
G00X0079251Y0502164
M15
G01Y0499802
M16
G00X0123897Y0502164
M15
G01Y0499802
M16
G00X012248Y052559
M15
G01Y0523227
M16
G00X0157834Y052559
M15
G01Y0523227
M16
G00X0156417Y0502164
M15
G01Y0499802
M16
G00X0201063Y0502166
M15
G01Y0499804
M16
G00X0199645Y0525591
M15
G01Y0523229
M16
G00X0235Y0525591
M15
G01Y0523229
M16
G00X0233582Y0502166
M15
G01Y0499804
M16
G00X0278228Y0502166
M15
G01Y0499804
M16
G00X0276811Y0525591
M15
G01Y0523229
M16
G00X0312165Y0525591
M15
G01Y0523229
M16
G00X0310748Y0502166
M15
G01Y0499804
M16
G00X0355394Y0502165
M15
G01Y0499803
M16
G00X0353976Y052559
M15
G01Y0523228
M16
G00X0389331Y052559
M15
G01Y0523228
M16
G00X0387913Y0502165
M15
G01Y0499803
M16
G00X0432559Y0502165
M15
G01Y0499803
M16
G00X0431142Y052559
M15
G01Y0523228
M16
G00X0466496Y052559
M15
G01Y0523228
M16
G00X0465079Y0502165
M15
G01Y0499803
M16
G00X067658Y0532811
M15
G01Y0530449
M16
G00X0675162Y0556236
M15
G01Y0553874
M16
G00X0710517Y0556236
M15
G01Y0553874
M16
G00X0709099Y0532811
M15
G01Y0530449
M16
G00X0854724Y0468465
M15
G01X0857087
M16
G00X087815Y0467047
M15
G01X0880512
M16
G00X1019339Y0467047
M15
G01X1016976
M16
G00X1042764Y0468465
M15
G01X1040402
M16
T05
G00X0678076Y0262483
M15
G01X0679257
M16
G00X0933981Y0262484
M15
G01X0935162
M16
G00X0884252Y0436024
M15
G01Y0437205
M16
G00X0048228Y0496062
M15
G01X0049409
M16
G00X0125393Y0496062
M15
G01X0126574
M16
G00X0202559Y0496063
M15
G01X020374
M16
G00X0279724Y0496063
M15
G01X0280905
M16
G00X035689Y0496062
M15
G01X0358071
M16
G00X0434055Y0496062
M15
G01X0435236
M16
G00X0678076Y0526708
M15
G01X0679257
M16
G00X1013236Y0465551
M15
G01Y046437
M16
T08
G00X0309765Y0128719
M15
G01X0321576
M16
G00X0334568Y0135609
M15
G01Y014742
M16
G00X0309765Y0153325
M15
G01X0321576
M16
M17
M30
