G04*
G04 #@! TF.GenerationSoftware,Altium Limited,Altium Designer,21.2.2 (38)*
G04*
G04 Layer_Color=32768*
%FSLAX25Y25*%
%MOIN*%
G70*
G04*
G04 #@! TF.SameCoordinates,0448F7F8-B58B-4B03-AB27-B3033358FA6D*
G04*
G04*
G04 #@! TF.FilePolarity,Positive*
G04*
G01*
G75*
%ADD11C,0.02000*%
%ADD285C,0.01181*%
%ADD545C,0.10000*%
D11*
X1675248Y311330D02*
Y321326D01*
X1680247D01*
X1681913Y319660D01*
Y316328D01*
X1680247Y314662D01*
X1675248D01*
X1678581D02*
X1681913Y311330D01*
X1690244Y321326D02*
X1686911D01*
X1685245Y319660D01*
Y312996D01*
X1686911Y311330D01*
X1690244D01*
X1691910Y312996D01*
Y319660D01*
X1690244Y321326D01*
X1695242D02*
Y312996D01*
X1696908Y311330D01*
X1700240D01*
X1701906Y312996D01*
Y321326D01*
X1705239D02*
X1711903D01*
X1708571D01*
Y311330D01*
X1721900Y321326D02*
X1715235D01*
Y311330D01*
X1721900D01*
X1715235Y316328D02*
X1718568D01*
X1735229Y321326D02*
X1741893D01*
X1738561D01*
Y311330D01*
X1750224Y321326D02*
X1746892D01*
X1745226Y319660D01*
Y312996D01*
X1746892Y311330D01*
X1750224D01*
X1751890Y312996D01*
Y319660D01*
X1750224Y321326D01*
X1760221D02*
X1756889D01*
X1755223Y319660D01*
Y312996D01*
X1756889Y311330D01*
X1760221D01*
X1761887Y312996D01*
Y319660D01*
X1760221Y321326D01*
X1765219D02*
Y311330D01*
X1771884D01*
X1785213D02*
Y321326D01*
X1790211D01*
X1791877Y319660D01*
Y316328D01*
X1790211Y314662D01*
X1785213D01*
X1795210Y311330D02*
Y317994D01*
X1798542Y321326D01*
X1801874Y317994D01*
Y311330D01*
Y316328D01*
X1795210D01*
X1805206Y321326D02*
X1811871D01*
X1808539D01*
Y311330D01*
X1815203Y321326D02*
Y311330D01*
Y316328D01*
X1821868D01*
Y321326D01*
Y311330D01*
D285*
X-69652Y41554D02*
X-67028D01*
X-68340D01*
Y49425D01*
X-69652Y48113D01*
X-63092D02*
X-61781Y49425D01*
X-59157D01*
X-57845Y48113D01*
Y42866D01*
X-59157Y41554D01*
X-61781D01*
X-63092Y42866D01*
Y48113D01*
X-55221D02*
X-53909Y49425D01*
X-51285D01*
X-49973Y48113D01*
Y42866D01*
X-51285Y41554D01*
X-53909D01*
X-55221Y42866D01*
Y48113D01*
X-39478Y41554D02*
Y49425D01*
X-36854Y46801D01*
X-34231Y49425D01*
Y41554D01*
X-31607Y49425D02*
X-28983D01*
X-30295D01*
Y41554D01*
X-31607D01*
X-28983D01*
X-25047Y49425D02*
Y41554D01*
X-19799D01*
X-67028Y29273D02*
Y37145D01*
X-63092D01*
X-61781Y35833D01*
Y33209D01*
X-63092Y31897D01*
X-67028D01*
X-64404D02*
X-61781Y29273D01*
X-55221Y37145D02*
X-57845D01*
X-59157Y35833D01*
Y30585D01*
X-57845Y29273D01*
X-55221D01*
X-53909Y30585D01*
Y35833D01*
X-55221Y37145D01*
X-51285D02*
Y30585D01*
X-49973Y29273D01*
X-47350D01*
X-46038Y30585D01*
Y37145D01*
X-43414D02*
X-38166D01*
X-40790D01*
Y29273D01*
X-30295Y37145D02*
X-35542D01*
Y29273D01*
X-30295D01*
X-35542Y33209D02*
X-32919D01*
X-27671Y29273D02*
Y37145D01*
X-23735D01*
X-22423Y35833D01*
Y33209D01*
X-23735Y31897D01*
X-27671D01*
X-25047D02*
X-22423Y29273D01*
X1126570Y586724D02*
X1129194D01*
X1127882D01*
Y594596D01*
X1126570Y593284D01*
X1133129D02*
X1134441Y594596D01*
X1137065D01*
X1138377Y593284D01*
Y588036D01*
X1137065Y586724D01*
X1134441D01*
X1133129Y588036D01*
Y593284D01*
X1141001D02*
X1142313Y594596D01*
X1144936D01*
X1146248Y593284D01*
Y588036D01*
X1144936Y586724D01*
X1142313D01*
X1141001Y588036D01*
Y593284D01*
X1156744Y586724D02*
Y594596D01*
X1159368Y591972D01*
X1161991Y594596D01*
Y586724D01*
X1164615Y594596D02*
X1167239D01*
X1165927D01*
Y586724D01*
X1164615D01*
X1167239D01*
X1171175Y594596D02*
Y586724D01*
X1176422D01*
X1129194Y574444D02*
Y582315D01*
X1133129D01*
X1134441Y581004D01*
Y578380D01*
X1133129Y577068D01*
X1129194D01*
X1131817D02*
X1134441Y574444D01*
X1141001Y582315D02*
X1138377D01*
X1137065Y581004D01*
Y575756D01*
X1138377Y574444D01*
X1141001D01*
X1142313Y575756D01*
Y581004D01*
X1141001Y582315D01*
X1144936D02*
Y575756D01*
X1146248Y574444D01*
X1148872D01*
X1150184Y575756D01*
Y582315D01*
X1152808D02*
X1158056D01*
X1155432D01*
Y574444D01*
X1165927Y582315D02*
X1160680D01*
Y574444D01*
X1165927D01*
X1160680Y578380D02*
X1163303D01*
X1168551Y574444D02*
Y582315D01*
X1172487D01*
X1173799Y581004D01*
Y578380D01*
X1172487Y577068D01*
X1168551D01*
X1171175D02*
X1173799Y574444D01*
X-65736Y596248D02*
X-63112D01*
X-64424D01*
Y604120D01*
X-65736Y602808D01*
X-59176D02*
X-57864Y604120D01*
X-55240D01*
X-53929Y602808D01*
Y597560D01*
X-55240Y596248D01*
X-57864D01*
X-59176Y597560D01*
Y602808D01*
X-51305D02*
X-49993Y604120D01*
X-47369D01*
X-46057Y602808D01*
Y597560D01*
X-47369Y596248D01*
X-49993D01*
X-51305Y597560D01*
Y602808D01*
X-35562Y596248D02*
Y604120D01*
X-32938Y601496D01*
X-30314Y604120D01*
Y596248D01*
X-27690Y604120D02*
X-25067D01*
X-26378D01*
Y596248D01*
X-27690D01*
X-25067D01*
X-21131Y604120D02*
Y596248D01*
X-15883D01*
X-63112Y583968D02*
Y591839D01*
X-59176D01*
X-57864Y590527D01*
Y587903D01*
X-59176Y586591D01*
X-63112D01*
X-60488D02*
X-57864Y583968D01*
X-51305Y591839D02*
X-53929D01*
X-55240Y590527D01*
Y585280D01*
X-53929Y583968D01*
X-51305D01*
X-49993Y585280D01*
Y590527D01*
X-51305Y591839D01*
X-47369D02*
Y585280D01*
X-46057Y583968D01*
X-43433D01*
X-42121Y585280D01*
Y591839D01*
X-39498D02*
X-34250D01*
X-36874D01*
Y583968D01*
X-26378Y591839D02*
X-31626D01*
Y583968D01*
X-26378D01*
X-31626Y587903D02*
X-29002D01*
X-23755Y583968D02*
Y591839D01*
X-19819D01*
X-18507Y590527D01*
Y587903D01*
X-19819Y586591D01*
X-23755D01*
X-21131D02*
X-18507Y583968D01*
X1128201Y29398D02*
X1130824D01*
X1129512D01*
Y37269D01*
X1128201Y35958D01*
X1134760D02*
X1136072Y37269D01*
X1138696D01*
X1140008Y35958D01*
Y30710D01*
X1138696Y29398D01*
X1136072D01*
X1134760Y30710D01*
Y35958D01*
X1142632D02*
X1143943Y37269D01*
X1146567D01*
X1147879Y35958D01*
Y30710D01*
X1146567Y29398D01*
X1143943D01*
X1142632Y30710D01*
Y35958D01*
X1158375Y29398D02*
Y37269D01*
X1160998Y34646D01*
X1163622Y37269D01*
Y29398D01*
X1166246Y37269D02*
X1168870D01*
X1167558D01*
Y29398D01*
X1166246D01*
X1168870D01*
X1172806Y37269D02*
Y29398D01*
X1178053D01*
X1130824Y17118D02*
Y24989D01*
X1134760D01*
X1136072Y23677D01*
Y21053D01*
X1134760Y19741D01*
X1130824D01*
X1133448D02*
X1136072Y17118D01*
X1142632Y24989D02*
X1140008D01*
X1138696Y23677D01*
Y18429D01*
X1140008Y17118D01*
X1142632D01*
X1143943Y18429D01*
Y23677D01*
X1142632Y24989D01*
X1146567D02*
Y18429D01*
X1147879Y17118D01*
X1150503D01*
X1151815Y18429D01*
Y24989D01*
X1154439D02*
X1159686D01*
X1157063D01*
Y17118D01*
X1167558Y24989D02*
X1162310D01*
Y17118D01*
X1167558D01*
X1162310Y21053D02*
X1164934D01*
X1170182Y17118D02*
Y24989D01*
X1174117D01*
X1175429Y23677D01*
Y21053D01*
X1174117Y19741D01*
X1170182D01*
X1172806D02*
X1175429Y17118D01*
D545*
X531496Y78740D02*
Y551181D01*
X280000Y0D02*
X375000D01*
X843958Y253035D02*
G03*
X841457Y248705I2500J-4330D01*
G01*
X843958Y253035D02*
G03*
X841457Y248705I2500J-4330D01*
G01*
X929060Y301395D02*
G03*
X926560Y300725I0J-5000D01*
G01*
X929060Y301395D02*
G03*
X926560Y300725I0J-5000D01*
G01*
X970930Y300725D02*
G03*
X968430Y301395I-2500J-4330D01*
G01*
X970935Y300722D02*
G03*
X968430Y301395I-2505J-4327D01*
G01*
X1056032Y248705D02*
G03*
X1053527Y253038I-5000J0D01*
G01*
X1056032Y248705D02*
G03*
X1053532Y253035I-5000J0D01*
G01*
X841458Y130595D02*
G03*
X843958Y126265I5000J0D01*
G01*
X841458Y130595D02*
G03*
X843963Y126262I5000J0D01*
G01*
X946240Y67212D02*
G03*
X951245Y67209I2505J4327D01*
G01*
X1053532Y126264D02*
G03*
X1056032Y130595I-2500J4330D01*
G01*
X946245Y67209D02*
G03*
X951250Y67212I2500J4330D01*
G01*
X1053527Y126261D02*
G03*
X1056032Y130595I-2495J4333D01*
G01*
X912724Y86562D02*
X843963Y126262D01*
X946240Y67212D02*
X934375Y74062D01*
X946245Y67209D02*
X946240Y67212D01*
X843963Y126262D02*
X843958Y126265D01*
X969217Y301224D02*
X961245Y301224D01*
X936245Y301224D02*
X928273Y301224D01*
X843958Y253035D02*
X926560Y300725D01*
X970935Y300722D02*
X970930Y300725D01*
X1053527Y253038D02*
X970935Y300722D01*
X1053532Y253035D02*
X1053527Y253038D01*
X951245Y67209D02*
X951250Y67212D01*
X1053527Y126261D01*
X1053532Y126264D01*
X588052Y253034D02*
G03*
X585552Y248704I2500J-4330D01*
G01*
X588052Y253034D02*
G03*
X585552Y248704I2500J-4330D01*
G01*
X673154Y301394D02*
G03*
X670654Y300724I0J-5000D01*
G01*
X673154Y301394D02*
G03*
X670654Y300724I0J-5000D01*
G01*
X715025Y300724D02*
G03*
X712525Y301394I-2500J-4330D01*
G01*
X715029Y300721D02*
G03*
X712525Y301394I-2505J-4327D01*
G01*
X800126Y248704D02*
G03*
X797621Y253036I-5000J0D01*
G01*
X800126Y248704D02*
G03*
X797626Y253034I-5000J0D01*
G01*
X585552Y130594D02*
G03*
X588052Y126263I5000J0D01*
G01*
X585552Y130594D02*
G03*
X588057Y126261I5000J0D01*
G01*
X690335Y67211D02*
G03*
X695340Y67208I2505J4327D01*
G01*
X797626Y126263D02*
G03*
X800126Y130593I-2500J4330D01*
G01*
X690340Y67208D02*
G03*
X695344Y67211I2500J4330D01*
G01*
X797621Y126260D02*
G03*
X800126Y130593I-2495J4333D01*
G01*
X656819Y86561D02*
X588057Y126261D01*
X690335Y67211D02*
X678469Y74061D01*
X690340Y67208D02*
X690335Y67211D01*
X588057Y126261D02*
X588052Y126263D01*
X713312Y301223D02*
X705339Y301223D01*
X680339Y301223D02*
X672367Y301223D01*
X588052Y253034D02*
X670654Y300724D01*
X715029Y300721D02*
X715025Y300724D01*
X797621Y253036D02*
X715029Y300721D01*
X797626Y253034D02*
X797621Y253036D01*
X695340Y67208D02*
X695344Y67211D01*
X797621Y126260D01*
X797626Y126263D01*
X588052Y517259D02*
G03*
X585552Y512929I2500J-4330D01*
G01*
X588052Y517259D02*
G03*
X585552Y512929I2500J-4330D01*
G01*
X673154Y565619D02*
G03*
X670654Y564949I0J-5000D01*
G01*
X673154Y565619D02*
G03*
X670654Y564949I0J-5000D01*
G01*
X715025Y564949D02*
G03*
X712525Y565619I-2500J-4330D01*
G01*
X715029Y564946D02*
G03*
X712525Y565619I-2505J-4327D01*
G01*
X800126Y512929D02*
G03*
X797621Y517262I-5000J0D01*
G01*
X800126Y512929D02*
G03*
X797626Y517259I-5000J0D01*
G01*
X585552Y394819D02*
G03*
X588052Y390489I5000J0D01*
G01*
X585552Y394819D02*
G03*
X588057Y390486I5000J0D01*
G01*
X690335Y331436D02*
G03*
X695340Y331433I2505J4327D01*
G01*
X797626Y390488D02*
G03*
X800126Y394819I-2500J4330D01*
G01*
X690340Y331433D02*
G03*
X695344Y331436I2500J4330D01*
G01*
X797621Y390486D02*
G03*
X800126Y394819I-2495J4333D01*
G01*
X656819Y350787D02*
X588057Y390486D01*
X690335Y331436D02*
X678469Y338287D01*
X690340Y331433D02*
X690335Y331436D01*
X588057Y390486D02*
X588052Y390489D01*
X713312Y565449D02*
X705339Y565449D01*
X680339Y565449D02*
X672367Y565449D01*
X588052Y517259D02*
X670654Y564949D01*
X715029Y564946D02*
X715025Y564949D01*
X797621Y517262D02*
X715029Y564946D01*
X797626Y517259D02*
X797621Y517262D01*
X695340Y331433D02*
X695344Y331436D01*
X797621Y390486D01*
X797626Y390488D01*
X1051031Y376890D02*
G03*
X1056032Y381890I0J5000D01*
G01*
X1051031Y376890D02*
G03*
X1056032Y381890I0J5000D01*
G01*
Y519685D02*
G03*
X1051031Y524685I-5000J0D01*
G01*
X1056032Y519685D02*
G03*
X1051031Y524685I-5000J0D01*
G01*
X846457D02*
G03*
X841457Y519685I0J-5000D01*
G01*
X846457Y524685D02*
G03*
X841457Y519685I0J-5000D01*
G01*
Y381890D02*
G03*
X846457Y376890I5000J0D01*
G01*
X841457Y381890D02*
G03*
X846457Y376890I5000J0D01*
G01*
Y524685D02*
X1051031D01*
X846457Y376890D02*
X1051031D01*
X34370Y98425D02*
G03*
X39370Y93425I5000J0D01*
G01*
X477441Y531496D02*
G03*
X472441Y536496I-5000J0D01*
G01*
X472441Y93425D02*
G03*
X477441Y98425I0J5000D01*
G01*
X472441Y93425D02*
G03*
X477441Y98425I0J5000D01*
G01*
X39370Y536496D02*
G03*
X34370Y531496I0J-5000D01*
G01*
X39370Y536496D02*
G03*
X34370Y531496I0J-5000D01*
G01*
X39370Y536496D02*
X472441D01*
X39370Y93425D02*
X472441D01*
M02*
