G04*
G04 #@! TF.GenerationSoftware,Altium Limited,Altium Designer,21.2.2 (38)*
G04*
G04 Layer_Color=8388736*
%FSLAX25Y25*%
%MOIN*%
G70*
G04*
G04 #@! TF.SameCoordinates,0448F7F8-B58B-4B03-AB27-B3033358FA6D*
G04*
G04*
G04 #@! TF.FilePolarity,Positive*
G04*
G01*
G75*
%ADD11C,0.02000*%
%ADD546C,0.00197*%
D11*
X1675248Y328176D02*
Y338173D01*
X1680247D01*
X1681913Y336507D01*
Y333175D01*
X1680247Y331509D01*
X1675248D01*
X1685245Y328176D02*
Y334841D01*
X1688577Y338173D01*
X1691910Y334841D01*
Y328176D01*
Y333175D01*
X1685245D01*
X1695242Y328176D02*
Y338173D01*
X1701906Y328176D01*
Y338173D01*
X1711903D02*
X1705239D01*
Y328176D01*
X1711903D01*
X1705239Y333175D02*
X1708571D01*
X1715235Y338173D02*
Y328176D01*
X1721900D01*
X1740227Y338173D02*
X1736895D01*
X1735229Y336507D01*
Y329842D01*
X1736895Y328176D01*
X1740227D01*
X1741893Y329842D01*
Y336507D01*
X1740227Y338173D01*
X1745226D02*
Y329842D01*
X1746892Y328176D01*
X1750224D01*
X1751890Y329842D01*
Y338173D01*
X1755223D02*
X1761887D01*
X1758555D01*
Y328176D01*
X1765219Y338173D02*
Y328176D01*
X1771884D01*
X1775216Y338173D02*
X1778548D01*
X1776882D01*
Y328176D01*
X1775216D01*
X1778548D01*
X1783547D02*
Y338173D01*
X1790211Y328176D01*
Y338173D01*
X1800208D02*
X1793543D01*
Y328176D01*
X1800208D01*
X1793543Y333175D02*
X1796876D01*
D546*
X-0Y610236D02*
X1102362D01*
Y0D02*
Y610236D01*
X-0Y0D02*
X1102362D01*
X-0D02*
X-0Y610236D01*
M02*
