M48
;Layer_Color=9474304
;FILE_FORMAT=2:4
INCH,LZ
;TYPE=PLATED
T3F00S00C0.0079
T4F00S00C0.0106
T5F00S00C0.0197
%
T03
X000866Y000709
X000827Y000965
X001161Y002795
X001791Y003602
X002146Y003878
X002843Y004275
X003258Y004065
X00312Y00373
X00313Y002894
X003396Y002126
X003669Y002059
X003553Y001703
X00373Y001526
X00439Y001565
X004665Y001555
X005344Y001417
X005423Y002549
Y002943
Y003337
X005409Y003752
X004988Y003736
X005007Y003356
Y002963
Y002569
X00459Y002549
X004264Y002602
X004173Y002943
Y003337
Y00373
X004547Y00372
X00459Y003337
Y002943
X003317Y00186
X002392Y002126
X002736Y005679
X003012Y005807
X00315Y006122
X003504Y005857
X003491Y006463
X003002Y006772
X00315Y00748
X002756
Y007874
X00315
Y008268
Y008622
X002953Y00878
X002756Y008622
Y008268
X002559Y00878
X003346
X003543Y008622
Y008268
Y007874
X003937
Y008268
Y008622
X004134Y00878
X00374
X00437Y008622
Y008258
Y007874
Y00748
X00438Y007146
X005118Y007136
Y00748
X005512
Y007874
X005138
Y008258
Y008622
X005315Y00878
X005512Y008622
Y008268
X005906
Y008622
X006102Y00878
X006299Y008622
Y008268
X006693
Y008622
X006496Y00878
X00689
X007087Y008622
Y008268
Y007874
X006693
X006299
X005906
Y00748
X006299
X006693
X007087
X006545Y006171
X006535Y005787
X006409Y005398
X006014Y005463
X005683Y005502
Y005797
X00565Y006043
X005632Y006313
X00538Y006372
X005142Y006368
X005122Y006776
X005071Y005915
X004439
X006043Y005817
X006063Y006211
X00589Y005173
X006004Y004929
X005581Y004852
X005461Y005128
X003937Y00748
X003543
X005709Y00878
X001486Y005748
T04
X002411Y000354
X002756
X006801Y00251
T05
X0Y000453
Y000846
Y00124
Y001634
Y002028
Y002421
Y002815
Y003209
Y003602
Y003996
Y00439
Y004783
Y005177
Y005571
Y005965
Y006358
Y006752
X00753
Y006358
Y005965
Y005571
Y005177
Y004783
Y00439
Y003996
Y003602
Y003209
Y002815
Y002421
Y002028
Y001634
Y00124
Y000846
Y000453
M30
