M48
;Layer_Color=9474304
;FILE_FORMAT=2:4
INCH,LZ
;TYPE=PLATED
T1F00S00C0.0039
T2F00S00C0.0059
%
T01
X001299Y001102
X004075Y000705
X004256Y000882
X004724Y000839
X004632Y004518
X00252Y00502
X001742Y005256
X001585
X001427
Y005413
X001427Y005571
X001585
X001585Y005413
X001742
Y005728
X001742Y005886
X0019Y005886
X002057Y005886
X002057Y006043
X0019Y006043
Y006201
X002057
Y006358
X0019
X001742
X001585
Y006201
X001742Y006201
X001742Y006043
X001585
X001427Y006043
X00127Y006043
X001112
Y006201
X00127
X001427
X001427Y006358
X00127Y005886
X001112
Y005728
Y005571
X00127
Y005728
Y005413
X0019Y005728
T02
X000433Y000246
Y000443
X000659Y000433
Y000246
X000972Y000256
Y000429
X00062Y000728
X000433
X000453Y000945
X00063Y000955
X00061Y001191
X000433Y001181
Y001496
X00061Y001506
X000484Y001713
X00063Y001886
X000876Y001969
X000925Y002343
X000681Y002342
X000423Y002638
X000443Y002815
X00063Y002874
X000626Y003315
X000476Y003217
X000453Y00378
X00062Y00377
X00061Y003986
X000443
X0006Y00438
X000591Y004636
X000423
Y004823
X0006Y004833
X00061Y005039
X000413Y00503
X000541Y005226
X000551Y005443
Y005689
X000669Y005965
Y006211
X000837Y006299
X00085Y00647
X001618Y006882
X001846Y006878
X00178Y006724
X001996
X002087Y006878
X002579Y00689
Y006728
X002854Y006654
X002815Y006467
X002844Y00688
X003199
X003169Y006663
X003376Y006772
X003533Y00686
Y006673
X00376Y006683
Y00687
X004035
X004026Y006673
X004252
Y00686
X00438Y006256
X004104
X004181Y005996
X004291Y005236
X004055
Y00503
X004045Y004823
X004055Y004616
X004291
X004281Y004823
X0045Y00487
X00448Y005079
X003829Y005167
X003819Y004803
X003421Y004264
X003031Y004258
X003075Y004026
X003425Y00373
X003287Y003268
X003317Y002776
X00311Y002697
X003071Y00252
X002475
X002579Y002717
Y002126
X002776
X002677Y00189
X002776Y001614
X002992Y001654
X002146Y002008
X00189Y001949
X001693
X001496
X00124Y002205
X001235Y002598
X001693Y002657
X00189Y002608
X001978Y002894
X002146
X001782Y002884
X001811Y003179
X001969Y003504
X002047Y003671
X002224Y003465
X002421Y003661
X002362Y003898
X002244Y004114
X002589Y00437
X002968Y004626
X002313Y00502
X001751Y004691
X001169Y004732
X00126Y004262
X000837Y005157
X002539Y005717
X002815Y005876
X003278Y005758
X003435Y005364
X00436Y004144
X005817Y004626
X005988Y004571
X006142Y004646
X006417
X006624Y004596
X00689Y004469
X007106Y004478
X007116Y004724
X006909Y004715
X0069Y00499
X006772Y004882
X006476Y004951
X007116Y00497
X007087Y005246
Y005443
X0069Y005453
X00689Y005256
X0069Y005738
X007087
Y005984
X0069
Y00627
X007087
X007077Y006526
X00689
X00676Y006677
X006756Y006874
X006535Y00687
Y006685
X006969Y006772
X005512Y006858
Y006683
X005354Y006681
X005323Y006874
X005659Y005187
X00573Y005037
X006417Y003789
X006762Y004016
X0069Y003937
X007083Y004039
X007077Y004222
X0069Y004232
Y003622
Y003346
Y00312
X007077Y00313
X007037Y002825
X007244
X006831
X006693Y002717
X006683Y002933
X006673Y00313
X006587Y002512
X006594Y002156
X006772Y002146
X006969Y002205
X007067Y002451
X007077Y00189
X00689
Y001594
X007067
X007077Y00123
X006909Y00124
X0069Y000915
X007067Y000906
Y000561
X00689
X006722Y000433
Y000256
X006457Y000246
X006437Y000423
X006112
X006122Y000246
X005797Y000266
Y000423
X005472
Y000266
X004409Y000236
X00439Y000423
X003986Y000433
X003996Y000256
X003533Y000246
Y000423
X00311Y000433
X00312Y000246
X002067
Y000423
X001949Y000758
Y000945
X001762
Y000758
X001722Y001309
X001545
X001378
X001392Y002972
X002815Y003071
X00282Y003465
X004193Y001839
X004358Y001835
X004516Y001839
X005059Y001752
X00526Y001752
X005059Y001516
X004852
X004537Y001043
X004504Y000831
X005955Y001407
X005994Y001929
X005758Y001781
X006663Y001791
X006634Y000886
X006614Y000679
X006427Y001073
X007077Y000246
M30
