M48
;Layer_Color=9474304
;FILE_FORMAT=2:4
INCH,LZ
;TYPE=PLATED
T2F00S00C0.0059
%
T02
X000787Y001181
Y001575
Y001969
X001181
X001122Y002343
X000787Y002362
Y002756
Y00315
X001122Y003169
X001181Y003543
X000787
X001181Y003937
Y004724
X000787
Y004331
Y005118
X001181
Y005512
X000787
Y005906
X001181
Y006299
X000787
X001575
X001969
Y005906
Y005512
X001575
Y005118
X002362Y006299
X002756
X00248Y003957
X00252Y003425
X002067Y002421
X001831
X001969Y001575
Y001181
Y000787
X002362
Y001181
X002756
Y000787
X00315
X005118
X005906
Y001181
X006299
Y000787
X006693
Y001181
X006299Y001575
M30
