M48
;Layer_Color=9474304
;FILE_FORMAT=2:4
INCH,LZ
;TYPE=PLATED
T2F00S00C0.0059
%
T02
X000945Y001112
X000856Y001427
X001043Y001978
X001319Y002362
X001526Y002658
X001782Y002884
X002146Y002894
X002382Y002913
X002579Y002717
X002589Y003209
X002982Y003091
X003312Y003469
X003287Y004516
X002805Y004724
X001922Y004616
X001496Y004852
X00159Y005257
X001742Y005256
X001584Y005413
X001427Y005414
X001269Y005571
Y005728
X001279Y005876
X001269Y006043
Y006201
X001427
X001584Y006191
X001742Y006201
X001899Y006201
X0019Y006358
X001742
X002057
X0019Y006043
X001742Y006043
X001595Y005916
X00191Y005886
X00213Y005898
X001949Y005571
X001112Y006043
Y006201
X001063Y006467
X001102Y006624
X00123Y006506
X00124Y006752
X000846Y006466
X001053Y004409
X001291Y003329
X001435Y003423
X002096Y003337
X001909Y003819
X002244Y004114
X003819Y004803
X003829Y005167
X004291Y005236
X004478Y005317
X004508Y005551
Y005758
X00473Y005142
X004732Y004941
X004734Y004724
X004744Y004222
X004843Y004045
X00503Y004035
X005217
X005394Y004045
X005413Y004272
Y004547
Y004941
X006043Y004242
Y003839
X006053Y003533
X006063Y00313
X006043Y002766
X006063Y002372
X006053Y00188
X006063Y001565
X005856Y001368
X005089Y001309
X005089Y001742
X004516Y001839
X004354Y001835
X004193Y001841
X003937Y00172
X003415Y001516
X003258Y001388
X002894Y001969
X002776Y002352
X003488Y002358
X002205Y001585
X001801Y001811
X003346Y000344
X00373
X006807Y001689
X006762Y003179
X007067Y003425
X006555Y004715
X004291Y004616
M30
