M48
;Layer_Color=9474304
;FILE_FORMAT=2:4
INCH,LZ
;TYPE=PLATED
T3F00S00C0.0197
T4F00S00C0.0197
T5F00S00C0.0256
T8F00S00C0.0315
;TYPE=NON_PLATED
%
G90
G05
T03
G00X008437Y01055
M15
G01Y010275
M16
G00X011035Y010275
M15
G01Y01055
M16
T04
G00X071595Y026859
M15
G01Y026622
M16
G00X071453Y029201
M15
G01Y028965
M16
G00X074989Y029201
M15
G01Y028965
M16
G00X074847Y026859
M15
G01Y026622
M16
G00X102319Y026685
M15
G01Y026449
M16
G00X102177Y029028
M15
G01Y028791
M16
G00X105712Y029028
M15
G01Y028791
M16
G00X105571Y026685
M15
G01Y026449
M16
G00X111004Y040697
M15
G01X110768
M16
G00X113346Y040555
M15
G01X11311
M16
G00X113346Y044091
M15
G01X11311
M16
G00X111004Y043949
M15
G01X110768
M16
G00X096885Y043949
M15
G01X097121
M16
G00X094543Y044091
M15
G01X094779
M16
G00X094543Y040555
M15
G01X094779
M16
G00X096885Y040697
M15
G01X097121
M16
G00X004673Y050216
M15
G01Y04998
M16
G00X004531Y052559
M15
G01Y052323
M16
G00X008067Y052559
M15
G01Y052323
M16
G00X007925Y050216
M15
G01Y04998
M16
G00X01239Y050216
M15
G01Y04998
M16
G00X012248Y052559
M15
G01Y052323
M16
G00X015783Y052559
M15
G01Y052323
M16
G00X015642Y050216
M15
G01Y04998
M16
G00X020106Y050217
M15
G01Y04998
M16
G00X019965Y052559
M15
G01Y052323
M16
G00X0235Y052559
M15
G01Y052323
M16
G00X023358Y050217
M15
G01Y04998
M16
G00X027823Y050217
M15
G01Y04998
M16
G00X027681Y052559
M15
G01Y052323
M16
G00X031217Y052559
M15
G01Y052323
M16
G00X031075Y050217
M15
G01Y04998
M16
G00X035539Y050216
M15
G01Y04998
M16
G00X035398Y052559
M15
G01Y052323
M16
G00X038933Y052559
M15
G01Y052323
M16
G00X038791Y050216
M15
G01Y04998
M16
G00X043256Y050216
M15
G01Y04998
M16
G00X043114Y052559
M15
G01Y052323
M16
G00X04665Y052559
M15
G01Y052323
M16
G00X046508Y050216
M15
G01Y04998
M16
G00X071595Y050368
M15
G01Y050131
M16
G00X071453Y05271
M15
G01Y052474
M16
G00X074989Y05271
M15
G01Y052474
M16
G00X074847Y050368
M15
G01Y050131
M16
T05
G00X071745Y026248
M15
G01X071863
M16
G00X102468Y026075
M15
G01X102586
M16
G00X110394Y043799
M15
G01Y043681
M16
G00X097495Y040846
M15
G01Y040965
M16
G00X004823Y049606
M15
G01X004941
M16
G00X012539Y049606
M15
G01X012657
M16
G00X020256Y049606
M15
G01X020374
M16
G00X027972Y049606
M15
G01X028091
M16
G00X035689Y049606
M15
G01X035807
M16
G00X043406Y049606
M15
G01X043524
M16
G00X071745Y049757
M15
G01X071863
M16
T08
G00X030976Y012872
M15
G01X032158
M16
G00X033457Y013561
M15
G01Y014742
M16
G00X030976Y015333
M15
G01X032158
M16
M17
M30
