G04*
G04 #@! TF.GenerationSoftware,Altium Limited,Altium Designer,20.1.11 (218)*
G04*
G04 Layer_Color=128*
%FSLAX24Y24*%
%MOIN*%
G70*
G04*
G04 #@! TF.SameCoordinates,32D8FB58-9F7D-435F-B0ED-68F847CCC549*
G04*
G04*
G04 #@! TF.FilePolarity,Positive*
G04*
G01*
G75*
%ADD11C,0.0200*%
%ADD24C,0.0050*%
%ADD109C,0.0100*%
%ADD276C,0.0236*%
%ADD278C,0.0157*%
%ADD285C,0.0394*%
%ADD357R,0.1909X0.0610*%
G36*
X42170Y4156D02*
X42150D01*
X42112Y4148D01*
X42076Y4134D01*
X42044Y4112D01*
X42017Y4085D01*
X41995Y4052D01*
X41980Y4017D01*
X41973Y3979D01*
Y3959D01*
Y3940D01*
X41980Y3902D01*
X41995Y3866D01*
X42017Y3834D01*
X42044Y3806D01*
X42076Y3785D01*
X42112Y3770D01*
X42150Y3762D01*
X42170D01*
X42189D01*
X42227Y3770D01*
X42263Y3785D01*
X42295Y3806D01*
X42322Y3834D01*
X42344Y3866D01*
X42359Y3902D01*
X42366Y3940D01*
Y3959D01*
Y3979D01*
X42359Y4017D01*
X42344Y4052D01*
X42322Y4085D01*
X42295Y4112D01*
X42263Y4134D01*
X42227Y4148D01*
X42189Y4156D01*
X42170D01*
D01*
D02*
G37*
G36*
X9198D02*
X9178D01*
X9140Y4148D01*
X9104Y4134D01*
X9072Y4112D01*
X9045Y4085D01*
X9023Y4052D01*
X9008Y4017D01*
X9001Y3979D01*
Y3959D01*
Y3940D01*
X9008Y3902D01*
X9023Y3866D01*
X9045Y3834D01*
X9072Y3806D01*
X9104Y3785D01*
X9140Y3770D01*
X9178Y3762D01*
X9198D01*
X9217D01*
X9255Y3770D01*
X9291Y3785D01*
X9323Y3806D01*
X9351Y3834D01*
X9372Y3866D01*
X9387Y3902D01*
X9395Y3940D01*
Y3959D01*
Y3979D01*
X9387Y4017D01*
X9372Y4052D01*
X9351Y4085D01*
X9323Y4112D01*
X9291Y4134D01*
X9255Y4148D01*
X9217Y4156D01*
X9198D01*
D01*
D02*
G37*
G36*
X24231Y57640D02*
X24212D01*
X24174Y57632D01*
X24138Y57617D01*
X24106Y57596D01*
X24078Y57568D01*
X24057Y57536D01*
X24042Y57500D01*
X24034Y57462D01*
Y57443D01*
Y57424D01*
X24042Y57385D01*
X24057Y57350D01*
X24078Y57317D01*
X24106Y57290D01*
X24138Y57268D01*
X24174Y57254D01*
X24212Y57246D01*
X24231D01*
X24251D01*
X24289Y57254D01*
X24325Y57268D01*
X24357Y57290D01*
X24384Y57317D01*
X24406Y57350D01*
X24421Y57385D01*
X24428Y57424D01*
Y57443D01*
Y57462D01*
X24421Y57500D01*
X24406Y57536D01*
X24384Y57568D01*
X24357Y57596D01*
X24325Y57617D01*
X24289Y57632D01*
X24251Y57640D01*
X24231D01*
D01*
D02*
G37*
G36*
X88931Y4156D02*
X88911D01*
X88873Y4148D01*
X88837Y4134D01*
X88805Y4112D01*
X88778Y4085D01*
X88756Y4052D01*
X88741Y4017D01*
X88734Y3979D01*
Y3959D01*
Y3940D01*
X88741Y3902D01*
X88756Y3866D01*
X88778Y3834D01*
X88805Y3806D01*
X88837Y3785D01*
X88873Y3770D01*
X88911Y3762D01*
X88931D01*
X88950D01*
X88988Y3770D01*
X89024Y3785D01*
X89056Y3806D01*
X89084Y3834D01*
X89105Y3866D01*
X89120Y3902D01*
X89127Y3940D01*
Y3959D01*
Y3979D01*
X89120Y4017D01*
X89105Y4052D01*
X89084Y4085D01*
X89056Y4112D01*
X89024Y4134D01*
X88988Y4148D01*
X88950Y4156D01*
X88931D01*
D01*
D02*
G37*
G36*
X69616Y57640D02*
X69597D01*
X69559Y57632D01*
X69523Y57617D01*
X69491Y57596D01*
X69463Y57568D01*
X69442Y57536D01*
X69427Y57500D01*
X69419Y57462D01*
Y57443D01*
Y57424D01*
X69427Y57385D01*
X69442Y57350D01*
X69463Y57317D01*
X69491Y57290D01*
X69523Y57268D01*
X69559Y57254D01*
X69597Y57246D01*
X69616D01*
X69636D01*
X69674Y57254D01*
X69709Y57268D01*
X69742Y57290D01*
X69769Y57317D01*
X69791Y57350D01*
X69806Y57385D01*
X69813Y57424D01*
Y57443D01*
Y57462D01*
X69806Y57500D01*
X69791Y57536D01*
X69769Y57568D01*
X69742Y57596D01*
X69709Y57617D01*
X69674Y57632D01*
X69636Y57640D01*
X69616D01*
D01*
D02*
G37*
G36*
X108557D02*
X108538D01*
X108500Y57632D01*
X108464Y57617D01*
X108432Y57596D01*
X108404Y57568D01*
X108383Y57536D01*
X108368Y57500D01*
X108360Y57462D01*
Y57443D01*
Y57424D01*
X108368Y57385D01*
X108383Y57350D01*
X108404Y57317D01*
X108432Y57290D01*
X108464Y57268D01*
X108500Y57254D01*
X108538Y57246D01*
X108557D01*
X108576D01*
X108614Y57254D01*
X108650Y57268D01*
X108682Y57290D01*
X108710Y57317D01*
X108731Y57350D01*
X108746Y57385D01*
X108754Y57424D01*
Y57443D01*
Y57462D01*
X108746Y57500D01*
X108731Y57536D01*
X108710Y57568D01*
X108682Y57596D01*
X108650Y57617D01*
X108614Y57632D01*
X108576Y57640D01*
X108557D01*
D01*
D02*
G37*
D11*
X143041Y16225D02*
Y15225D01*
X143541D01*
X143708Y15392D01*
Y15558D01*
X143541Y15725D01*
X143041D01*
X143541D01*
X143708Y15892D01*
Y16058D01*
X143541Y16225D01*
X143041D01*
X144541D02*
X144207D01*
X144041Y16058D01*
Y15392D01*
X144207Y15225D01*
X144541D01*
X144707Y15392D01*
Y16058D01*
X144541Y16225D01*
X145040D02*
X145707D01*
X145374D01*
Y15225D01*
X146040Y16225D02*
X146707D01*
X146373D01*
Y15225D01*
X147540Y16225D02*
X147206D01*
X147040Y16058D01*
Y15392D01*
X147206Y15225D01*
X147540D01*
X147706Y15392D01*
Y16058D01*
X147540Y16225D01*
X148039Y15225D02*
Y16225D01*
X148373Y15892D01*
X148706Y16225D01*
Y15225D01*
X150039D02*
Y16225D01*
X150539D01*
X150705Y16058D01*
Y15725D01*
X150539Y15558D01*
X150039D01*
X151039Y15225D02*
Y15892D01*
X151372Y16225D01*
X151705Y15892D01*
Y15225D01*
Y15725D01*
X151039D01*
X152705Y16058D02*
X152538Y16225D01*
X152205D01*
X152038Y16058D01*
Y15892D01*
X152205Y15725D01*
X152538D01*
X152705Y15558D01*
Y15392D01*
X152538Y15225D01*
X152205D01*
X152038Y15392D01*
X153038Y16225D02*
X153704D01*
X153371D01*
Y15225D01*
X154704Y16225D02*
X154038D01*
Y15225D01*
X154704D01*
X154038Y15725D02*
X154371D01*
X155037Y15225D02*
Y16225D01*
X155370Y15892D01*
X155704Y16225D01*
Y15225D01*
X156037D02*
Y15892D01*
X156370Y16225D01*
X156703Y15892D01*
Y15225D01*
Y15725D01*
X156037D01*
X157703Y16058D02*
X157536Y16225D01*
X157203D01*
X157037Y16058D01*
Y15892D01*
X157203Y15725D01*
X157536D01*
X157703Y15558D01*
Y15392D01*
X157536Y15225D01*
X157203D01*
X157037Y15392D01*
X158036Y16225D02*
Y15225D01*
Y15558D01*
X158703Y16225D01*
X158203Y15725D01*
X158703Y15225D01*
D24*
X108017Y57493D02*
X108237Y57403D01*
X108027Y57273D02*
X108237Y57403D01*
X107387Y57333D02*
X108237Y57403D01*
X69076Y57493D02*
X69296Y57403D01*
X69086Y57273D02*
X69296Y57403D01*
X68446Y57333D02*
X69296Y57403D01*
X88391Y4009D02*
X88611Y3919D01*
X88401Y3789D02*
X88611Y3919D01*
X87761Y3849D02*
X88611Y3919D01*
X41630Y4009D02*
X41850Y3919D01*
X41640Y3789D02*
X41850Y3919D01*
X41000Y3849D02*
X41850Y3919D01*
X23061Y57333D02*
X23911Y57403D01*
X23701Y57273D02*
X23911Y57403D01*
X23691Y57493D02*
X23911Y57403D01*
X8028Y3849D02*
X8878Y3919D01*
X8668Y3789D02*
X8878Y3919D01*
X8658Y4009D02*
X8878Y3919D01*
X7123Y4419D02*
X7173Y4469D01*
X7273D01*
X7323Y4419D01*
Y4369D01*
X7273Y4319D01*
X7173D01*
X7123Y4269D01*
Y4219D01*
X7173Y4169D01*
X7273D01*
X7323Y4219D01*
X7023Y4469D02*
X6823D01*
X6923D01*
Y4169D01*
X6523Y4469D02*
X6723D01*
Y4169D01*
X6523D01*
X6723Y4319D02*
X6623D01*
X6423Y4169D02*
Y4469D01*
X6223Y4169D01*
Y4469D01*
X5923Y4419D02*
X5973Y4469D01*
X6073D01*
X6123Y4419D01*
Y4219D01*
X6073Y4169D01*
X5973D01*
X5923Y4219D01*
X5823Y4469D02*
X5723D01*
X5773D01*
Y4169D01*
X5823D01*
X5723D01*
X5573Y4469D02*
Y4169D01*
X5374D01*
X7248Y3989D02*
X7448D01*
Y3839D01*
X7348D01*
X7448D01*
Y3689D01*
X7148Y3989D02*
X7048D01*
X7098D01*
Y3689D01*
X7148D01*
X7048D01*
X6898Y3989D02*
Y3689D01*
X6748D01*
X6698Y3739D01*
Y3939D01*
X6748Y3989D01*
X6898D01*
X6598D02*
Y3739D01*
X6548Y3689D01*
X6448D01*
X6398Y3739D01*
Y3989D01*
X6098Y3939D02*
X6148Y3989D01*
X6248D01*
X6298Y3939D01*
Y3739D01*
X6248Y3689D01*
X6148D01*
X6098Y3739D01*
X5998Y3989D02*
X5898D01*
X5948D01*
Y3689D01*
X5998D01*
X5898D01*
X5748D02*
Y3889D01*
X5648Y3989D01*
X5548Y3889D01*
Y3689D01*
Y3839D01*
X5748D01*
X5448Y3989D02*
Y3689D01*
X5249D01*
X7948Y3509D02*
Y3209D01*
Y3359D01*
X7748D01*
Y3509D01*
Y3209D01*
X7648D02*
Y3409D01*
X7548Y3509D01*
X7448Y3409D01*
Y3209D01*
Y3359D01*
X7648D01*
X7348Y3509D02*
Y3209D01*
X7148D01*
X6848Y3509D02*
X7048D01*
Y3359D01*
X6948D01*
X7048D01*
Y3209D01*
X6748Y3359D02*
X6548D01*
X6248Y3509D02*
X6448D01*
Y3209D01*
X6248D01*
X6448Y3359D02*
X6348D01*
X6148Y3509D02*
X5948D01*
X6048D01*
Y3209D01*
X5648Y3459D02*
X5698Y3509D01*
X5798D01*
X5848Y3459D01*
Y3259D01*
X5798Y3209D01*
X5698D01*
X5648Y3259D01*
X5548Y3509D02*
Y3209D01*
Y3359D01*
X5349D01*
Y3509D01*
Y3209D01*
X5049Y3509D02*
X5249D01*
Y3209D01*
X5049D01*
X5249Y3359D02*
X5149D01*
X4949Y3509D02*
Y3209D01*
X4799D01*
X4749Y3259D01*
Y3459D01*
X4799Y3509D01*
X4949D01*
X86856Y4419D02*
X86906Y4469D01*
X87006D01*
X87056Y4419D01*
Y4369D01*
X87006Y4319D01*
X86906D01*
X86856Y4269D01*
Y4219D01*
X86906Y4169D01*
X87006D01*
X87056Y4219D01*
X86756Y4469D02*
X86556D01*
X86656D01*
Y4169D01*
X86256Y4469D02*
X86456D01*
Y4169D01*
X86256D01*
X86456Y4319D02*
X86356D01*
X86156Y4169D02*
Y4469D01*
X85956Y4169D01*
Y4469D01*
X85656Y4419D02*
X85706Y4469D01*
X85806D01*
X85856Y4419D01*
Y4219D01*
X85806Y4169D01*
X85706D01*
X85656Y4219D01*
X85556Y4469D02*
X85456D01*
X85506D01*
Y4169D01*
X85556D01*
X85456D01*
X85306Y4469D02*
Y4169D01*
X85106D01*
X86981Y3989D02*
X87181D01*
Y3839D01*
X87081D01*
X87181D01*
Y3689D01*
X86881Y3989D02*
X86781D01*
X86831D01*
Y3689D01*
X86881D01*
X86781D01*
X86631Y3989D02*
Y3689D01*
X86481D01*
X86431Y3739D01*
Y3939D01*
X86481Y3989D01*
X86631D01*
X86331D02*
Y3739D01*
X86281Y3689D01*
X86181D01*
X86131Y3739D01*
Y3989D01*
X85831Y3939D02*
X85881Y3989D01*
X85981D01*
X86031Y3939D01*
Y3739D01*
X85981Y3689D01*
X85881D01*
X85831Y3739D01*
X85731Y3989D02*
X85631D01*
X85681D01*
Y3689D01*
X85731D01*
X85631D01*
X85481D02*
Y3889D01*
X85381Y3989D01*
X85281Y3889D01*
Y3689D01*
Y3839D01*
X85481D01*
X85181Y3989D02*
Y3689D01*
X84981D01*
X87681Y3509D02*
Y3209D01*
Y3359D01*
X87481D01*
Y3509D01*
Y3209D01*
X87381D02*
Y3409D01*
X87281Y3509D01*
X87181Y3409D01*
Y3209D01*
Y3359D01*
X87381D01*
X87081Y3509D02*
Y3209D01*
X86881D01*
X86581Y3509D02*
X86781D01*
Y3359D01*
X86681D01*
X86781D01*
Y3209D01*
X86481Y3359D02*
X86281D01*
X85981Y3509D02*
X86181D01*
Y3209D01*
X85981D01*
X86181Y3359D02*
X86081D01*
X85881Y3509D02*
X85681D01*
X85781D01*
Y3209D01*
X85381Y3459D02*
X85431Y3509D01*
X85531D01*
X85581Y3459D01*
Y3259D01*
X85531Y3209D01*
X85431D01*
X85381Y3259D01*
X85281Y3509D02*
Y3209D01*
Y3359D01*
X85081D01*
Y3509D01*
Y3209D01*
X84782Y3509D02*
X84981D01*
Y3209D01*
X84782D01*
X84981Y3359D02*
X84882D01*
X84682Y3509D02*
Y3209D01*
X84532D01*
X84482Y3259D01*
Y3459D01*
X84532Y3509D01*
X84682D01*
X40095Y4419D02*
X40145Y4469D01*
X40245D01*
X40295Y4419D01*
Y4369D01*
X40245Y4319D01*
X40145D01*
X40095Y4269D01*
Y4219D01*
X40145Y4169D01*
X40245D01*
X40295Y4219D01*
X39995Y4469D02*
X39795D01*
X39895D01*
Y4169D01*
X39495Y4469D02*
X39695D01*
Y4169D01*
X39495D01*
X39695Y4319D02*
X39595D01*
X39395Y4169D02*
Y4469D01*
X39195Y4169D01*
Y4469D01*
X38895Y4419D02*
X38945Y4469D01*
X39045D01*
X39095Y4419D01*
Y4219D01*
X39045Y4169D01*
X38945D01*
X38895Y4219D01*
X38795Y4469D02*
X38695D01*
X38745D01*
Y4169D01*
X38795D01*
X38695D01*
X38545Y4469D02*
Y4169D01*
X38345D01*
X40220Y3989D02*
X40420D01*
Y3839D01*
X40320D01*
X40420D01*
Y3689D01*
X40120Y3989D02*
X40020D01*
X40070D01*
Y3689D01*
X40120D01*
X40020D01*
X39870Y3989D02*
Y3689D01*
X39720D01*
X39670Y3739D01*
Y3939D01*
X39720Y3989D01*
X39870D01*
X39570D02*
Y3739D01*
X39520Y3689D01*
X39420D01*
X39370Y3739D01*
Y3989D01*
X39070Y3939D02*
X39120Y3989D01*
X39220D01*
X39270Y3939D01*
Y3739D01*
X39220Y3689D01*
X39120D01*
X39070Y3739D01*
X38970Y3989D02*
X38870D01*
X38920D01*
Y3689D01*
X38970D01*
X38870D01*
X38720D02*
Y3889D01*
X38620Y3989D01*
X38520Y3889D01*
Y3689D01*
Y3839D01*
X38720D01*
X38420Y3989D02*
Y3689D01*
X38220D01*
X40920Y3509D02*
Y3209D01*
Y3359D01*
X40720D01*
Y3509D01*
Y3209D01*
X40620D02*
Y3409D01*
X40520Y3509D01*
X40420Y3409D01*
Y3209D01*
Y3359D01*
X40620D01*
X40320Y3509D02*
Y3209D01*
X40120D01*
X39820Y3509D02*
X40020D01*
Y3359D01*
X39920D01*
X40020D01*
Y3209D01*
X39720Y3359D02*
X39520D01*
X39220Y3509D02*
X39420D01*
Y3209D01*
X39220D01*
X39420Y3359D02*
X39320D01*
X39120Y3509D02*
X38920D01*
X39020D01*
Y3209D01*
X38620Y3459D02*
X38670Y3509D01*
X38770D01*
X38820Y3459D01*
Y3259D01*
X38770Y3209D01*
X38670D01*
X38620Y3259D01*
X38520Y3509D02*
Y3209D01*
Y3359D01*
X38320D01*
Y3509D01*
Y3209D01*
X38020Y3509D02*
X38220D01*
Y3209D01*
X38020D01*
X38220Y3359D02*
X38120D01*
X37920Y3509D02*
Y3209D01*
X37771D01*
X37721Y3259D01*
Y3459D01*
X37771Y3509D01*
X37920D01*
X22157Y57903D02*
X22207Y57953D01*
X22307D01*
X22357Y57903D01*
Y57853D01*
X22307Y57803D01*
X22207D01*
X22157Y57753D01*
Y57703D01*
X22207Y57653D01*
X22307D01*
X22357Y57703D01*
X22057Y57953D02*
X21857D01*
X21957D01*
Y57653D01*
X21557Y57953D02*
X21757D01*
Y57653D01*
X21557D01*
X21757Y57803D02*
X21657D01*
X21457Y57653D02*
Y57953D01*
X21257Y57653D01*
Y57953D01*
X20957Y57903D02*
X21007Y57953D01*
X21107D01*
X21157Y57903D01*
Y57703D01*
X21107Y57653D01*
X21007D01*
X20957Y57703D01*
X20857Y57953D02*
X20757D01*
X20807D01*
Y57653D01*
X20857D01*
X20757D01*
X20607Y57953D02*
Y57653D01*
X20407D01*
X22282Y57473D02*
X22481D01*
Y57323D01*
X22381D01*
X22481D01*
Y57173D01*
X22182Y57473D02*
X22082D01*
X22132D01*
Y57173D01*
X22182D01*
X22082D01*
X21932Y57473D02*
Y57173D01*
X21782D01*
X21732Y57223D01*
Y57423D01*
X21782Y57473D01*
X21932D01*
X21632D02*
Y57223D01*
X21582Y57173D01*
X21482D01*
X21432Y57223D01*
Y57473D01*
X21132Y57423D02*
X21182Y57473D01*
X21282D01*
X21332Y57423D01*
Y57223D01*
X21282Y57173D01*
X21182D01*
X21132Y57223D01*
X21032Y57473D02*
X20932D01*
X20982D01*
Y57173D01*
X21032D01*
X20932D01*
X20782D02*
Y57373D01*
X20682Y57473D01*
X20582Y57373D01*
Y57173D01*
Y57323D01*
X20782D01*
X20482Y57473D02*
Y57173D01*
X20282D01*
X22981Y56993D02*
Y56693D01*
Y56843D01*
X22781D01*
Y56993D01*
Y56693D01*
X22681D02*
Y56893D01*
X22581Y56993D01*
X22481Y56893D01*
Y56693D01*
Y56843D01*
X22681D01*
X22381Y56993D02*
Y56693D01*
X22182D01*
X21882Y56993D02*
X22082D01*
Y56843D01*
X21982D01*
X22082D01*
Y56693D01*
X21782Y56843D02*
X21582D01*
X21282Y56993D02*
X21482D01*
Y56693D01*
X21282D01*
X21482Y56843D02*
X21382D01*
X21182Y56993D02*
X20982D01*
X21082D01*
Y56693D01*
X20682Y56943D02*
X20732Y56993D01*
X20832D01*
X20882Y56943D01*
Y56743D01*
X20832Y56693D01*
X20732D01*
X20682Y56743D01*
X20582Y56993D02*
Y56693D01*
Y56843D01*
X20382D01*
Y56993D01*
Y56693D01*
X20082Y56993D02*
X20282D01*
Y56693D01*
X20082D01*
X20282Y56843D02*
X20182D01*
X19982Y56993D02*
Y56693D01*
X19832D01*
X19782Y56743D01*
Y56943D01*
X19832Y56993D01*
X19982D01*
X106482Y57903D02*
X106532Y57953D01*
X106632D01*
X106682Y57903D01*
Y57853D01*
X106632Y57803D01*
X106532D01*
X106482Y57753D01*
Y57703D01*
X106532Y57653D01*
X106632D01*
X106682Y57703D01*
X106382Y57953D02*
X106182D01*
X106282D01*
Y57653D01*
X105882Y57953D02*
X106082D01*
Y57653D01*
X105882D01*
X106082Y57803D02*
X105982D01*
X105783Y57653D02*
Y57953D01*
X105583Y57653D01*
Y57953D01*
X105283Y57903D02*
X105333Y57953D01*
X105433D01*
X105483Y57903D01*
Y57703D01*
X105433Y57653D01*
X105333D01*
X105283Y57703D01*
X105183Y57953D02*
X105083D01*
X105133D01*
Y57653D01*
X105183D01*
X105083D01*
X104933Y57953D02*
Y57653D01*
X104733D01*
X106607Y57473D02*
X106807D01*
Y57323D01*
X106707D01*
X106807D01*
Y57173D01*
X106507Y57473D02*
X106407D01*
X106457D01*
Y57173D01*
X106507D01*
X106407D01*
X106257Y57473D02*
Y57173D01*
X106107D01*
X106057Y57223D01*
Y57423D01*
X106107Y57473D01*
X106257D01*
X105957D02*
Y57223D01*
X105907Y57173D01*
X105808D01*
X105758Y57223D01*
Y57473D01*
X105458Y57423D02*
X105508Y57473D01*
X105608D01*
X105658Y57423D01*
Y57223D01*
X105608Y57173D01*
X105508D01*
X105458Y57223D01*
X105358Y57473D02*
X105258D01*
X105308D01*
Y57173D01*
X105358D01*
X105258D01*
X105108D02*
Y57373D01*
X105008Y57473D01*
X104908Y57373D01*
Y57173D01*
Y57323D01*
X105108D01*
X104808Y57473D02*
Y57173D01*
X104608D01*
X107307Y56993D02*
Y56693D01*
Y56843D01*
X107107D01*
Y56993D01*
Y56693D01*
X107007D02*
Y56893D01*
X106907Y56993D01*
X106807Y56893D01*
Y56693D01*
Y56843D01*
X107007D01*
X106707Y56993D02*
Y56693D01*
X106507D01*
X106207Y56993D02*
X106407D01*
Y56843D01*
X106307D01*
X106407D01*
Y56693D01*
X106107Y56843D02*
X105907D01*
X105608Y56993D02*
X105808D01*
Y56693D01*
X105608D01*
X105808Y56843D02*
X105708D01*
X105508Y56993D02*
X105308D01*
X105408D01*
Y56693D01*
X105008Y56943D02*
X105058Y56993D01*
X105158D01*
X105208Y56943D01*
Y56743D01*
X105158Y56693D01*
X105058D01*
X105008Y56743D01*
X104908Y56993D02*
Y56693D01*
Y56843D01*
X104708D01*
Y56993D01*
Y56693D01*
X104408Y56993D02*
X104608D01*
Y56693D01*
X104408D01*
X104608Y56843D02*
X104508D01*
X104308Y56993D02*
Y56693D01*
X104158D01*
X104108Y56743D01*
Y56943D01*
X104158Y56993D01*
X104308D01*
X67542Y57903D02*
X67592Y57953D01*
X67691D01*
X67741Y57903D01*
Y57853D01*
X67691Y57803D01*
X67592D01*
X67542Y57753D01*
Y57703D01*
X67592Y57653D01*
X67691D01*
X67741Y57703D01*
X67442Y57953D02*
X67242D01*
X67342D01*
Y57653D01*
X66942Y57953D02*
X67142D01*
Y57653D01*
X66942D01*
X67142Y57803D02*
X67042D01*
X66842Y57653D02*
Y57953D01*
X66642Y57653D01*
Y57953D01*
X66342Y57903D02*
X66392Y57953D01*
X66492D01*
X66542Y57903D01*
Y57703D01*
X66492Y57653D01*
X66392D01*
X66342Y57703D01*
X66242Y57953D02*
X66142D01*
X66192D01*
Y57653D01*
X66242D01*
X66142D01*
X65992Y57953D02*
Y57653D01*
X65792D01*
X67666Y57473D02*
X67866D01*
Y57323D01*
X67766D01*
X67866D01*
Y57173D01*
X67567Y57473D02*
X67467D01*
X67517D01*
Y57173D01*
X67567D01*
X67467D01*
X67317Y57473D02*
Y57173D01*
X67167D01*
X67117Y57223D01*
Y57423D01*
X67167Y57473D01*
X67317D01*
X67017D02*
Y57223D01*
X66967Y57173D01*
X66867D01*
X66817Y57223D01*
Y57473D01*
X66517Y57423D02*
X66567Y57473D01*
X66667D01*
X66717Y57423D01*
Y57223D01*
X66667Y57173D01*
X66567D01*
X66517Y57223D01*
X66417Y57473D02*
X66317D01*
X66367D01*
Y57173D01*
X66417D01*
X66317D01*
X66167D02*
Y57373D01*
X66067Y57473D01*
X65967Y57373D01*
Y57173D01*
Y57323D01*
X66167D01*
X65867Y57473D02*
Y57173D01*
X65667D01*
X68366Y56993D02*
Y56693D01*
Y56843D01*
X68166D01*
Y56993D01*
Y56693D01*
X68066D02*
Y56893D01*
X67966Y56993D01*
X67866Y56893D01*
Y56693D01*
Y56843D01*
X68066D01*
X67766Y56993D02*
Y56693D01*
X67567D01*
X67267Y56993D02*
X67467D01*
Y56843D01*
X67367D01*
X67467D01*
Y56693D01*
X67167Y56843D02*
X66967D01*
X66667Y56993D02*
X66867D01*
Y56693D01*
X66667D01*
X66867Y56843D02*
X66767D01*
X66567Y56993D02*
X66367D01*
X66467D01*
Y56693D01*
X66067Y56943D02*
X66117Y56993D01*
X66217D01*
X66267Y56943D01*
Y56743D01*
X66217Y56693D01*
X66117D01*
X66067Y56743D01*
X65967Y56993D02*
Y56693D01*
Y56843D01*
X65767D01*
Y56993D01*
Y56693D01*
X65467Y56993D02*
X65667D01*
Y56693D01*
X65467D01*
X65667Y56843D02*
X65567D01*
X65367Y56993D02*
Y56693D01*
X65217D01*
X65167Y56743D01*
Y56943D01*
X65217Y56993D01*
X65367D01*
D109*
X36510Y111853D02*
X36313Y112050D01*
X35920D01*
X35723Y111853D01*
Y111657D01*
X35920Y111460D01*
X36116D01*
X35920D01*
X35723Y111263D01*
Y111066D01*
X35920Y110869D01*
X36313D01*
X36510Y111066D01*
X34542Y112050D02*
X35329D01*
Y111460D01*
X34936Y111657D01*
X34739D01*
X34542Y111460D01*
Y111066D01*
X34739Y110869D01*
X35132D01*
X35329Y111066D01*
X33558Y110869D02*
Y112050D01*
X34148Y111460D01*
X33361D01*
X31787Y110869D02*
Y112050D01*
X31393Y111657D01*
X31000Y112050D01*
Y110869D01*
X30606D02*
Y112050D01*
X30213Y111657D01*
X29819Y112050D01*
Y110869D01*
X103441Y21304D02*
X104622D01*
X104031Y20713D01*
Y21500D01*
X104425Y21894D02*
X104622Y22091D01*
Y22484D01*
X104425Y22681D01*
X104228D01*
X104031Y22484D01*
Y22288D01*
Y22484D01*
X103834Y22681D01*
X103638D01*
X103441Y22484D01*
Y22091D01*
X103638Y21894D01*
X104425Y23075D02*
X104622Y23272D01*
Y23665D01*
X104425Y23862D01*
X104228D01*
X104031Y23665D01*
X103834Y23862D01*
X103638D01*
X103441Y23665D01*
Y23272D01*
X103638Y23075D01*
X103834D01*
X104031Y23272D01*
X104228Y23075D01*
X104425D01*
X104031Y23272D02*
Y23665D01*
X103441Y25436D02*
X104622D01*
X104228Y25830D01*
X104622Y26223D01*
X103441D01*
Y26617D02*
X104622D01*
X104228Y27011D01*
X104622Y27404D01*
X103441D01*
D276*
X-9591Y-59013D02*
Y-60587D01*
X-10378D01*
X-10640Y-60325D01*
Y-60063D01*
X-10378Y-59800D01*
X-9591D01*
X-10378D01*
X-10640Y-59538D01*
Y-59276D01*
X-10378Y-59013D01*
X-9591D01*
X-11952D02*
X-11428D01*
X-11165Y-59276D01*
Y-60325D01*
X-11428Y-60587D01*
X-11952D01*
X-12215Y-60325D01*
Y-59276D01*
X-11952Y-59013D01*
X-12739D02*
X-13789D01*
X-13264D01*
Y-60587D01*
X-14314Y-59013D02*
X-15363D01*
X-14839D01*
Y-60587D01*
X-16675Y-59013D02*
X-16150D01*
X-15888Y-59276D01*
Y-60325D01*
X-16150Y-60587D01*
X-16675D01*
X-16938Y-60325D01*
Y-59276D01*
X-16675Y-59013D01*
X-17462Y-60587D02*
Y-59013D01*
X-17987Y-59538D01*
X-18512Y-59013D01*
Y-60587D01*
D278*
X83757Y-59194D02*
Y-59981D01*
Y-59587D01*
X83232D01*
Y-59194D01*
Y-59981D01*
X82970D02*
X82707D01*
X82838D01*
Y-59456D01*
X82970D01*
X82314D02*
X82051Y-59981D01*
X81789Y-59456D01*
X81133Y-59981D02*
X81395D01*
X81526Y-59850D01*
Y-59587D01*
X81395Y-59456D01*
X81133D01*
X81002Y-59587D01*
Y-59719D01*
X81526D01*
X80739Y-59194D02*
Y-59981D01*
X80346D01*
X80215Y-59850D01*
Y-59719D01*
X80346Y-59587D01*
X80739D01*
X80346D01*
X80215Y-59456D01*
Y-59325D01*
X80346Y-59194D01*
X80739D01*
X79821Y-59981D02*
X79559D01*
X79427Y-59850D01*
Y-59587D01*
X79559Y-59456D01*
X79821D01*
X79952Y-59587D01*
Y-59850D01*
X79821Y-59981D01*
X79034Y-59456D02*
X78771D01*
X78640Y-59587D01*
Y-59981D01*
X79034D01*
X79165Y-59850D01*
X79034Y-59719D01*
X78640D01*
X78378Y-59456D02*
Y-59981D01*
Y-59719D01*
X78247Y-59587D01*
X78116Y-59456D01*
X77984D01*
X77066Y-59194D02*
Y-59981D01*
X77460D01*
X77591Y-59850D01*
Y-59587D01*
X77460Y-59456D01*
X77066D01*
X63332Y-60954D02*
X63070D01*
X63201D01*
Y-60167D01*
X63332Y-60298D01*
X62676Y-60954D02*
Y-60823D01*
X62545D01*
Y-60954D01*
X62676D01*
X62021Y-60298D02*
X61889Y-60167D01*
X61627D01*
X61496Y-60298D01*
Y-60823D01*
X61627Y-60954D01*
X61889D01*
X62021Y-60823D01*
Y-60298D01*
X61233D02*
X61102Y-60167D01*
X60840D01*
X60709Y-60298D01*
Y-60823D01*
X60840Y-60954D01*
X61102D01*
X61233Y-60823D01*
Y-60298D01*
X60446D02*
X60315Y-60167D01*
X60053D01*
X59921Y-60298D01*
Y-60823D01*
X60053Y-60954D01*
X60315D01*
X60446Y-60823D01*
Y-60298D01*
X64518Y-59128D02*
Y-58341D01*
X64124D01*
X63993Y-58472D01*
Y-58735D01*
X64124Y-58866D01*
X64518D01*
X64255D02*
X63993Y-59128D01*
X63337D02*
X63599D01*
X63731Y-58997D01*
Y-58735D01*
X63599Y-58604D01*
X63337D01*
X63206Y-58735D01*
Y-58866D01*
X63731D01*
X62944Y-58604D02*
X62681Y-59128D01*
X62419Y-58604D01*
X62156Y-59128D02*
X61894D01*
X62025D01*
Y-58604D01*
X62156D01*
X61500Y-59128D02*
X61107D01*
X60976Y-58997D01*
X61107Y-58866D01*
X61369D01*
X61500Y-58735D01*
X61369Y-58604D01*
X60976D01*
X60713Y-59128D02*
X60451D01*
X60582D01*
Y-58604D01*
X60713D01*
X59926Y-59128D02*
X59664D01*
X59533Y-58997D01*
Y-58735D01*
X59664Y-58604D01*
X59926D01*
X60057Y-58735D01*
Y-58997D01*
X59926Y-59128D01*
X59270D02*
Y-58604D01*
X58877D01*
X58745Y-58735D01*
Y-59128D01*
D285*
X64629Y-66169D02*
X65055Y-65742D01*
X65908D01*
X66334Y-66169D01*
Y-66595D01*
X65908Y-67022D01*
X65055D01*
X64629Y-67448D01*
Y-67874D01*
X65055Y-68301D01*
X65908D01*
X66334Y-67874D01*
X63776Y-65742D02*
X62070D01*
X62923D01*
Y-68301D01*
X59512Y-65742D02*
X61218D01*
Y-68301D01*
X59512D01*
X61218Y-67022D02*
X60365D01*
X58659Y-68301D02*
Y-65742D01*
X56954Y-68301D01*
Y-65742D01*
X54396Y-66169D02*
X54822Y-65742D01*
X55675D01*
X56101Y-66169D01*
Y-67874D01*
X55675Y-68301D01*
X54822D01*
X54396Y-67874D01*
X53543Y-65742D02*
X52690D01*
X53117D01*
Y-68301D01*
X53543D01*
X52690D01*
X51411Y-65742D02*
Y-68301D01*
X49706D01*
X46295Y-65742D02*
X44589D01*
X45442D01*
Y-68301D01*
X43736Y-65742D02*
Y-68301D01*
Y-67022D01*
X42031D01*
Y-65742D01*
Y-68301D01*
X41178Y-65742D02*
X40325D01*
X40752D01*
Y-68301D01*
X41178D01*
X40325D01*
X37341Y-66169D02*
X37767Y-65742D01*
X38620D01*
X39046Y-66169D01*
Y-67874D01*
X38620Y-68301D01*
X37767D01*
X37341Y-67874D01*
X36488Y-65742D02*
Y-68301D01*
Y-67448D01*
X34783Y-65742D01*
X36062Y-67022D01*
X34783Y-68301D01*
X33930D02*
Y-65742D01*
X32224Y-68301D01*
Y-65742D01*
X29666D02*
X31372D01*
Y-68301D01*
X29666D01*
X31372Y-67022D02*
X30519D01*
X27108Y-66169D02*
X27534Y-65742D01*
X28387D01*
X28813Y-66169D01*
Y-66595D01*
X28387Y-67022D01*
X27534D01*
X27108Y-67448D01*
Y-67874D01*
X27534Y-68301D01*
X28387D01*
X28813Y-67874D01*
X24550Y-66169D02*
X24976Y-65742D01*
X25829D01*
X26255Y-66169D01*
Y-66595D01*
X25829Y-67022D01*
X24976D01*
X24550Y-67448D01*
Y-67874D01*
X24976Y-68301D01*
X25829D01*
X26255Y-67874D01*
X21139Y-67022D02*
X19433D01*
X15066Y-66413D02*
X14639Y-65987D01*
X13787D01*
X13360Y-66413D01*
Y-68118D01*
X13787Y-68545D01*
X14639D01*
X15066Y-68118D01*
Y-66413D01*
X12507Y-68545D02*
Y-68118D01*
X12081D01*
Y-68545D01*
X12507D01*
X10376D02*
X9523D01*
X9949D01*
Y-65987D01*
X10376Y-66413D01*
X5686Y-68545D02*
Y-65987D01*
X4833Y-66839D01*
X3980Y-65987D01*
Y-68545D01*
X3127D02*
Y-65987D01*
X2275Y-66839D01*
X1422Y-65987D01*
Y-68545D01*
D357*
X94686Y17651D02*
D03*
Y14297D02*
D03*
X63962Y17825D02*
D03*
Y14470D02*
D03*
Y41334D02*
D03*
Y37980D02*
D03*
M02*
