G04*
G04 #@! TF.GenerationSoftware,Altium Limited,Altium Designer,20.1.11 (218)*
G04*
G04 Layer_Color=16711935*
%FSLAX24Y24*%
%MOIN*%
G70*
G04*
G04 #@! TF.SameCoordinates,32D8FB58-9F7D-435F-B0ED-68F847CCC549*
G04*
G04*
G04 #@! TF.FilePolarity,Negative*
G04*
G01*
G75*
%ADD11C,0.0200*%
%ADD167C,0.0197*%
%ADD173C,0.0550*%
%ADD377R,0.0935X0.0935*%
%ADD380R,0.1644X0.0935*%
%ADD381C,0.1181*%
%ADD475R,0.1984X0.0685*%
%ADD507O,0.0606X0.0370*%
%ADD508C,0.0311*%
%ADD509O,0.0311X0.0429*%
%ADD510C,0.0680*%
%ADD511R,0.0705X0.0705*%
%ADD512C,0.0705*%
%ADD513C,0.0488*%
%ADD514C,0.2496*%
%ADD515C,0.0885*%
%ADD516C,0.1535*%
%ADD517C,0.0665*%
%ADD518O,0.0429X0.0311*%
%ADD519O,0.0370X0.0606*%
%ADD520C,0.2024*%
%ADD521C,0.1157*%
%ADD522R,0.1157X0.1157*%
%ADD523O,0.0843X0.2024*%
%ADD524O,0.2024X0.0843*%
%ADD525C,0.1000*%
%ADD526C,0.0764*%
%ADD527R,0.0764X0.0764*%
G04:AMPARAMS|DCode=528|XSize=39.4mil|YSize=66.9mil|CornerRadius=19.7mil|HoleSize=0mil|Usage=FLASHONLY|Rotation=360.000|XOffset=0mil|YOffset=0mil|HoleType=Round|Shape=RoundedRectangle|*
%AMROUNDEDRECTD528*
21,1,0.0394,0.0276,0,0,360.0*
21,1,0.0000,0.0669,0,0,360.0*
1,1,0.0394,0.0000,-0.0138*
1,1,0.0394,0.0000,-0.0138*
1,1,0.0394,0.0000,0.0138*
1,1,0.0394,0.0000,0.0138*
%
%ADD528ROUNDEDRECTD528*%
%ADD529C,0.0650*%
%ADD530R,0.0650X0.0650*%
%ADD531C,0.0783*%
%ADD532R,0.0783X0.0783*%
%ADD534C,0.0237*%
%ADD535C,0.0236*%
%ADD536C,0.0685*%
%ADD537R,0.0685X0.0685*%
%ADD538R,0.0935X0.0935*%
%ADD539C,0.0252*%
D11*
X143041Y42335D02*
Y41336D01*
X143541D01*
X143708Y41502D01*
Y41669D01*
X143541Y41836D01*
X143041D01*
X143541D01*
X143708Y42002D01*
Y42169D01*
X143541Y42335D01*
X143041D01*
X144541D02*
X144207D01*
X144041Y42169D01*
Y41502D01*
X144207Y41336D01*
X144541D01*
X144707Y41502D01*
Y42169D01*
X144541Y42335D01*
X145040D02*
X145707D01*
X145374D01*
Y41336D01*
X146040Y42335D02*
X146707D01*
X146373D01*
Y41336D01*
X147540Y42335D02*
X147206D01*
X147040Y42169D01*
Y41502D01*
X147206Y41336D01*
X147540D01*
X147706Y41502D01*
Y42169D01*
X147540Y42335D01*
X148039Y41336D02*
Y42335D01*
X148373Y42002D01*
X148706Y42335D01*
Y41336D01*
X150705Y42169D02*
X150539Y42335D01*
X150205D01*
X150039Y42169D01*
Y42002D01*
X150205Y41836D01*
X150539D01*
X150705Y41669D01*
Y41502D01*
X150539Y41336D01*
X150205D01*
X150039Y41502D01*
X151538Y42335D02*
X151205D01*
X151039Y42169D01*
Y41502D01*
X151205Y41336D01*
X151538D01*
X151705Y41502D01*
Y42169D01*
X151538Y42335D01*
X152038D02*
Y41336D01*
X152705D01*
X153038Y42335D02*
Y41336D01*
X153538D01*
X153704Y41502D01*
Y42169D01*
X153538Y42335D01*
X153038D01*
X154704D02*
X154038D01*
Y41336D01*
X154704D01*
X154038Y41836D02*
X154371D01*
X155037Y41336D02*
Y42335D01*
X155537D01*
X155704Y42169D01*
Y41836D01*
X155537Y41669D01*
X155037D01*
X155370D02*
X155704Y41336D01*
X156037D02*
Y42335D01*
X156370Y42002D01*
X156703Y42335D01*
Y41336D01*
X157037D02*
Y42002D01*
X157370Y42335D01*
X157703Y42002D01*
Y41336D01*
Y41836D01*
X157037D01*
X158703Y42169D02*
X158536Y42335D01*
X158203D01*
X158036Y42169D01*
Y42002D01*
X158203Y41836D01*
X158536D01*
X158703Y41669D01*
Y41502D01*
X158536Y41336D01*
X158203D01*
X158036Y41502D01*
X159036Y42335D02*
Y41336D01*
Y41669D01*
X159702Y42335D01*
X159203Y41836D01*
X159702Y41336D01*
D167*
X38886Y21591D02*
D03*
Y21985D02*
D03*
X38492D02*
D03*
Y21591D02*
D03*
Y21197D02*
D03*
X38886D02*
D03*
X39279D02*
D03*
Y21591D02*
D03*
Y21985D02*
D03*
D173*
X42104Y17643D02*
D03*
X41104D02*
D03*
X40104D02*
D03*
X39104D02*
D03*
X41604Y16643D02*
D03*
X40604D02*
D03*
X39604D02*
D03*
X38604D02*
D03*
D377*
X33685Y1094D02*
D03*
X32799Y1094D02*
D03*
X31028Y1087D02*
D03*
X35457Y1094D02*
D03*
X34571Y1094D02*
D03*
X31913D02*
D03*
D380*
X29788D02*
D03*
D381*
X108557Y57443D02*
D03*
X69616D02*
D03*
X88931Y3959D02*
D03*
X42170D02*
D03*
X24231Y57443D02*
D03*
X9198Y3959D02*
D03*
X18607Y51233D02*
D03*
X8680Y35161D02*
D03*
X35844Y10845D02*
D03*
X105401Y13280D02*
D03*
X110952Y25406D02*
D03*
X102714Y21154D02*
D03*
X74678Y13453D02*
D03*
X80229Y25579D02*
D03*
X71991Y21327D02*
D03*
X74678Y36962D02*
D03*
X80229Y49088D02*
D03*
X71991Y44836D02*
D03*
D475*
X94686Y17651D02*
D03*
Y14297D02*
D03*
X63962Y17825D02*
D03*
Y14470D02*
D03*
Y41334D02*
D03*
Y37980D02*
D03*
D507*
X113228Y40555D02*
D03*
Y44091D02*
D03*
X110886Y43949D02*
D03*
Y40697D02*
D03*
X94661Y44091D02*
D03*
Y40555D02*
D03*
X97003Y40697D02*
D03*
Y43949D02*
D03*
D508*
X110394Y40906D02*
D03*
X97495Y43740D02*
D03*
X46299Y49606D02*
D03*
X30866Y49606D02*
D03*
X15433Y49606D02*
D03*
X38583Y49606D02*
D03*
X23150Y49606D02*
D03*
X7716Y49606D02*
D03*
X105362Y26075D02*
D03*
X74638Y26248D02*
D03*
Y49757D02*
D03*
D509*
X110394Y43740D02*
D03*
X97495Y40906D02*
D03*
D510*
X99250Y46587D02*
D03*
X108318Y38248D02*
D03*
D511*
X103942Y41815D02*
D03*
X103944Y47209D02*
D03*
Y44486D02*
D03*
Y40039D02*
D03*
Y37316D02*
D03*
D512*
X103942Y42815D02*
D03*
X103944Y48209D02*
D03*
Y45486D02*
D03*
Y39039D02*
D03*
Y36316D02*
D03*
D513*
X24757Y33138D02*
D03*
X24048D02*
D03*
X20841Y25965D02*
D03*
X21549D02*
D03*
X18882Y25988D02*
D03*
X19591D02*
D03*
X19275Y21021D02*
D03*
Y20312D02*
D03*
X95221Y22002D02*
D03*
Y21293D02*
D03*
X96438Y20994D02*
D03*
X97147Y20994D02*
D03*
X64497Y22175D02*
D03*
Y21466D02*
D03*
X65715Y21168D02*
D03*
X66423Y21168D02*
D03*
X64497Y45684D02*
D03*
Y44976D02*
D03*
X65715Y44677D02*
D03*
X66423Y44677D02*
D03*
D514*
X41339Y51181D02*
D03*
X9843D02*
D03*
X45276Y11811D02*
D03*
X5906D02*
D03*
X45276Y17717D02*
D03*
Y29528D02*
D03*
X95421Y23715D02*
D03*
X103945Y8949D02*
D03*
X112468Y23713D02*
D03*
X64697Y23888D02*
D03*
X73221Y9122D02*
D03*
X81745Y23886D02*
D03*
X64697Y47397D02*
D03*
X73221Y32631D02*
D03*
X81745Y47395D02*
D03*
D515*
X43455Y15336D02*
D03*
X37254D02*
D03*
D516*
X42604Y14135D02*
D03*
X38104D02*
D03*
D517*
X42844Y12813D02*
D03*
X41844Y12143D02*
D03*
X38864Y12813D02*
D03*
X37864Y12135D02*
D03*
D518*
X43465Y49606D02*
D03*
X28031Y49606D02*
D03*
X12598Y49606D02*
D03*
X35748Y49606D02*
D03*
X20315Y49606D02*
D03*
X4882Y49606D02*
D03*
X102527Y26075D02*
D03*
X71804Y26248D02*
D03*
Y49757D02*
D03*
D519*
X46508Y50098D02*
D03*
X43256D02*
D03*
X43114Y52441D02*
D03*
X46650D02*
D03*
X31075Y50098D02*
D03*
X27823D02*
D03*
X27681Y52441D02*
D03*
X31217D02*
D03*
X15642Y50098D02*
D03*
X12390D02*
D03*
X12248Y52441D02*
D03*
X15783D02*
D03*
X38791Y50098D02*
D03*
X35539D02*
D03*
X35398Y52441D02*
D03*
X38933D02*
D03*
X23358Y50098D02*
D03*
X20106D02*
D03*
X19965Y52441D02*
D03*
X23500D02*
D03*
X7925Y50098D02*
D03*
X4673D02*
D03*
X4531Y52441D02*
D03*
X8067D02*
D03*
X105712Y28910D02*
D03*
X102177D02*
D03*
X102319Y26567D02*
D03*
X105571D02*
D03*
X74989Y29083D02*
D03*
X71453D02*
D03*
X71595Y26740D02*
D03*
X74847D02*
D03*
X74989Y52592D02*
D03*
X71453D02*
D03*
X71595Y50250D02*
D03*
X74847D02*
D03*
D520*
X34735Y30419D02*
D03*
X22924Y18608D02*
D03*
D521*
X6572Y18131D02*
D03*
Y16281D02*
D03*
X8473Y18131D02*
D03*
Y16281D02*
D03*
Y14430D02*
D03*
D522*
X6572D02*
D03*
D523*
X33457Y14151D02*
D03*
D524*
X31567Y12872D02*
D03*
Y15333D02*
D03*
D525*
X34774Y19017D02*
D03*
X32677Y49803D02*
D03*
X18504D02*
D03*
X8041Y30899D02*
D03*
X95024Y19299D02*
D03*
X64300Y19472D02*
D03*
Y42981D02*
D03*
D526*
X46169Y27122D02*
D03*
X45169Y20122D02*
D03*
X46169D02*
D03*
X45169Y21122D02*
D03*
X46169D02*
D03*
X45169Y22122D02*
D03*
X46169D02*
D03*
X45169Y23122D02*
D03*
X46169D02*
D03*
X45169Y24122D02*
D03*
X46169D02*
D03*
X45169Y25122D02*
D03*
X46169D02*
D03*
X45169Y26122D02*
D03*
X46169D02*
D03*
X20000Y35345D02*
D03*
X19000Y31345D02*
D03*
X20000D02*
D03*
X19000Y32345D02*
D03*
X20000D02*
D03*
X19000Y33345D02*
D03*
X20000D02*
D03*
X19000Y34345D02*
D03*
X20000D02*
D03*
D527*
X45169Y27122D02*
D03*
X19000Y35345D02*
D03*
D528*
X11035Y10413D02*
D03*
X8437D02*
D03*
D529*
X44167Y35413D02*
D03*
Y36413D02*
D03*
X42167D02*
D03*
X44167Y34413D02*
D03*
Y33413D02*
D03*
X42167Y35413D02*
D03*
Y34413D02*
D03*
Y33413D02*
D03*
Y32413D02*
D03*
X40586Y35413D02*
D03*
Y36413D02*
D03*
X38586D02*
D03*
X40586Y34413D02*
D03*
Y33413D02*
D03*
X38586Y35413D02*
D03*
Y34413D02*
D03*
Y33413D02*
D03*
Y32413D02*
D03*
D530*
X44167D02*
D03*
X40586D02*
D03*
D531*
X20135Y11861D02*
D03*
D532*
X18166D02*
D03*
D534*
X33198Y43576D02*
D03*
X33749D02*
D03*
X33198Y43969D02*
D03*
X33749D02*
D03*
X19025Y43576D02*
D03*
X19576D02*
D03*
X19025Y43969D02*
D03*
X19576D02*
D03*
X4851Y43576D02*
D03*
X5403D02*
D03*
X4851Y43969D02*
D03*
X5403D02*
D03*
X40285Y43576D02*
D03*
X40836D02*
D03*
X40285Y43969D02*
D03*
X40836D02*
D03*
X26111Y43576D02*
D03*
X26662D02*
D03*
X26111Y43969D02*
D03*
X26662D02*
D03*
X11938Y43576D02*
D03*
X12489D02*
D03*
X11938Y43969D02*
D03*
X12489D02*
D03*
D535*
X25376Y35104D02*
D03*
X25809D02*
D03*
X25376Y34670D02*
D03*
X25809D02*
D03*
X29824Y35104D02*
D03*
X30257D02*
D03*
X29824Y34670D02*
D03*
X30257D02*
D03*
D536*
X108070Y16239D02*
D03*
X109070D02*
D03*
X107070D02*
D03*
X108070Y17239D02*
D03*
X107070D02*
D03*
X77346Y16413D02*
D03*
X78346D02*
D03*
X76346D02*
D03*
X77346Y17413D02*
D03*
X76346D02*
D03*
X77346Y39922D02*
D03*
X78346D02*
D03*
X76346D02*
D03*
X77346Y40922D02*
D03*
X76346D02*
D03*
D537*
X109070Y17239D02*
D03*
X78346Y17413D02*
D03*
Y40922D02*
D03*
D538*
X36343Y1094D02*
D03*
D539*
X109899Y12128D02*
D03*
X79175Y12301D02*
D03*
Y35811D02*
D03*
M02*
