G04*
G04 #@! TF.GenerationSoftware,Altium Limited,Altium Designer,20.1.11 (218)*
G04*
G04 Layer_Color=8388736*
%FSLAX24Y24*%
%MOIN*%
G70*
G04*
G04 #@! TF.SameCoordinates,32D8FB58-9F7D-435F-B0ED-68F847CCC549*
G04*
G04*
G04 #@! TF.FilePolarity,Positive*
G04*
G01*
G75*
%ADD11C,0.0200*%
%ADD545C,0.0020*%
D11*
X143041Y33703D02*
Y34702D01*
X143541D01*
X143708Y34536D01*
Y34202D01*
X143541Y34036D01*
X143041D01*
X144041Y33703D02*
Y34369D01*
X144374Y34702D01*
X144707Y34369D01*
Y33703D01*
Y34202D01*
X144041D01*
X145040Y33703D02*
Y34702D01*
X145707Y33703D01*
Y34702D01*
X146707D02*
X146040D01*
Y33703D01*
X146707D01*
X146040Y34202D02*
X146373D01*
X147040Y34702D02*
Y33703D01*
X147706D01*
X149539Y34702D02*
X149206D01*
X149039Y34536D01*
Y33869D01*
X149206Y33703D01*
X149539D01*
X149706Y33869D01*
Y34536D01*
X149539Y34702D01*
X150039D02*
Y33869D01*
X150205Y33703D01*
X150539D01*
X150705Y33869D01*
Y34702D01*
X151039D02*
X151705D01*
X151372D01*
Y33703D01*
X152038Y34702D02*
Y33703D01*
X152705D01*
X153038Y34702D02*
X153371D01*
X153204D01*
Y33703D01*
X153038D01*
X153371D01*
X153871D02*
Y34702D01*
X154537Y33703D01*
Y34702D01*
X155537D02*
X154871D01*
Y33703D01*
X155537D01*
X154871Y34202D02*
X155204D01*
D545*
X-0Y61024D02*
X118110D01*
X118110Y0D02*
Y61024D01*
X-0Y0D02*
X118110D01*
X-0D02*
X-0Y61024D01*
M02*
