G04*
G04 #@! TF.GenerationSoftware,Altium Limited,Altium Designer,20.1.11 (218)*
G04*
G04 Layer_Color=32896*
%FSLAX24Y24*%
%MOIN*%
G70*
G04*
G04 #@! TF.SameCoordinates,32D8FB58-9F7D-435F-B0ED-68F847CCC549*
G04*
G04*
G04 #@! TF.FilePolarity,Positive*
G04*
G01*
G75*
%ADD11C,0.0200*%
%ADD24C,0.0050*%
%ADD282C,0.0118*%
D11*
X143041Y30333D02*
Y31333D01*
X143541D01*
X143708Y31166D01*
Y30833D01*
X143541Y30666D01*
X143041D01*
X144041Y30333D02*
Y31000D01*
X144374Y31333D01*
X144707Y31000D01*
Y30333D01*
Y30833D01*
X144041D01*
X145040Y30333D02*
Y31333D01*
X145707Y30333D01*
Y31333D01*
X146707D02*
X146040D01*
Y30333D01*
X146707D01*
X146040Y30833D02*
X146373D01*
X147040Y31333D02*
Y30333D01*
X147706D01*
X149039Y31333D02*
Y30666D01*
X149372Y30333D01*
X149706Y30666D01*
Y31333D01*
X150039Y30833D02*
X150705D01*
X151705Y31166D02*
X151538Y31333D01*
X151205D01*
X151039Y31166D01*
Y30500D01*
X151205Y30333D01*
X151538D01*
X151705Y30500D01*
Y30833D01*
X151372D01*
X152038Y30333D02*
Y31333D01*
X152538D01*
X152705Y31166D01*
Y30833D01*
X152538Y30666D01*
X152038D01*
X152371D02*
X152705Y30333D01*
X153538Y31333D02*
X153204D01*
X153038Y31166D01*
Y30500D01*
X153204Y30333D01*
X153538D01*
X153704Y30500D01*
Y31166D01*
X153538Y31333D01*
X154537D02*
X154204D01*
X154038Y31166D01*
Y30500D01*
X154204Y30333D01*
X154537D01*
X154704Y30500D01*
Y31166D01*
X154537Y31333D01*
X155037D02*
Y30666D01*
X155370Y30333D01*
X155704Y30666D01*
Y31333D01*
X156703D02*
X156037D01*
Y30333D01*
X156703D01*
X156037Y30833D02*
X156370D01*
D24*
X62992Y-1969D02*
Y64961D01*
X47244Y-1969D02*
Y64961D01*
X53150Y-1969D02*
Y64961D01*
X114173Y-1969D02*
Y64961D01*
X93716Y-1969D02*
Y64961D01*
X83450Y-1969D02*
Y64961D01*
X3937Y-1969D02*
Y64961D01*
D282*
X59846Y-2553D02*
Y-3077D01*
X60108Y-3340D01*
X60371Y-3077D01*
Y-2553D01*
X60633Y-2946D02*
X61158D01*
X61945Y-2684D02*
X61814Y-2553D01*
X61551D01*
X61420Y-2684D01*
Y-3209D01*
X61551Y-3340D01*
X61814D01*
X61945Y-3209D01*
Y-2946D01*
X61683D01*
X62207Y-3340D02*
Y-2553D01*
X62601D01*
X62732Y-2684D01*
Y-2946D01*
X62601Y-3077D01*
X62207D01*
X62470D02*
X62732Y-3340D01*
X63388Y-2553D02*
X63126D01*
X62994Y-2684D01*
Y-3209D01*
X63126Y-3340D01*
X63388D01*
X63519Y-3209D01*
Y-2684D01*
X63388Y-2553D01*
X64175D02*
X63913D01*
X63782Y-2684D01*
Y-3209D01*
X63913Y-3340D01*
X64175D01*
X64306Y-3209D01*
Y-2684D01*
X64175Y-2553D01*
X64569D02*
Y-3077D01*
X64831Y-3340D01*
X65094Y-3077D01*
Y-2553D01*
X65881D02*
X65356D01*
Y-3340D01*
X65881D01*
X65356Y-2946D02*
X65618D01*
X43187Y-2400D02*
Y-2924D01*
X43449Y-3187D01*
X43711Y-2924D01*
Y-2400D01*
X43974Y-2793D02*
X44498D01*
X45286Y-2531D02*
X45154Y-2400D01*
X44892D01*
X44761Y-2531D01*
Y-3056D01*
X44892Y-3187D01*
X45154D01*
X45286Y-3056D01*
Y-2793D01*
X45023D01*
X45548Y-3187D02*
Y-2400D01*
X45942D01*
X46073Y-2531D01*
Y-2793D01*
X45942Y-2924D01*
X45548D01*
X45810D02*
X46073Y-3187D01*
X46729Y-2400D02*
X46466D01*
X46335Y-2531D01*
Y-3056D01*
X46466Y-3187D01*
X46729D01*
X46860Y-3056D01*
Y-2531D01*
X46729Y-2400D01*
X47516D02*
X47253D01*
X47122Y-2531D01*
Y-3056D01*
X47253Y-3187D01*
X47516D01*
X47647Y-3056D01*
Y-2531D01*
X47516Y-2400D01*
X47909D02*
Y-2924D01*
X48172Y-3187D01*
X48434Y-2924D01*
Y-2400D01*
X49221D02*
X48697D01*
Y-3187D01*
X49221D01*
X48697Y-2793D02*
X48959D01*
X50003Y-2553D02*
Y-3077D01*
X50266Y-3340D01*
X50528Y-3077D01*
Y-2553D01*
X50791Y-2946D02*
X51315D01*
X52102Y-2684D02*
X51971Y-2553D01*
X51709D01*
X51578Y-2684D01*
Y-3209D01*
X51709Y-3340D01*
X51971D01*
X52102Y-3209D01*
Y-2946D01*
X51840D01*
X52365Y-3340D02*
Y-2553D01*
X52758D01*
X52890Y-2684D01*
Y-2946D01*
X52758Y-3077D01*
X52365D01*
X52627D02*
X52890Y-3340D01*
X53546Y-2553D02*
X53283D01*
X53152Y-2684D01*
Y-3209D01*
X53283Y-3340D01*
X53546D01*
X53677Y-3209D01*
Y-2684D01*
X53546Y-2553D01*
X54333D02*
X54070D01*
X53939Y-2684D01*
Y-3209D01*
X54070Y-3340D01*
X54333D01*
X54464Y-3209D01*
Y-2684D01*
X54333Y-2553D01*
X54726D02*
Y-3077D01*
X54989Y-3340D01*
X55251Y-3077D01*
Y-2553D01*
X56038D02*
X55513D01*
Y-3340D01*
X56038D01*
X55513Y-2946D02*
X55776D01*
X111027Y-2553D02*
Y-3077D01*
X111289Y-3340D01*
X111552Y-3077D01*
Y-2553D01*
X111814Y-2946D02*
X112339D01*
X113126Y-2684D02*
X112995Y-2553D01*
X112732D01*
X112601Y-2684D01*
Y-3209D01*
X112732Y-3340D01*
X112995D01*
X113126Y-3209D01*
Y-2946D01*
X112864D01*
X113388Y-3340D02*
Y-2553D01*
X113782D01*
X113913Y-2684D01*
Y-2946D01*
X113782Y-3077D01*
X113388D01*
X113651D02*
X113913Y-3340D01*
X114569Y-2553D02*
X114307D01*
X114176Y-2684D01*
Y-3209D01*
X114307Y-3340D01*
X114569D01*
X114700Y-3209D01*
Y-2684D01*
X114569Y-2553D01*
X115356D02*
X115094D01*
X114963Y-2684D01*
Y-3209D01*
X115094Y-3340D01*
X115356D01*
X115487Y-3209D01*
Y-2684D01*
X115356Y-2553D01*
X115750D02*
Y-3077D01*
X116012Y-3340D01*
X116275Y-3077D01*
Y-2553D01*
X117062D02*
X116537D01*
Y-3340D01*
X117062D01*
X116537Y-2946D02*
X116799D01*
X90569Y-2553D02*
Y-3077D01*
X90832Y-3340D01*
X91094Y-3077D01*
Y-2553D01*
X91357Y-2946D02*
X91881D01*
X92669Y-2684D02*
X92537Y-2553D01*
X92275D01*
X92144Y-2684D01*
Y-3209D01*
X92275Y-3340D01*
X92537D01*
X92669Y-3209D01*
Y-2946D01*
X92406D01*
X92931Y-3340D02*
Y-2553D01*
X93325D01*
X93456Y-2684D01*
Y-2946D01*
X93325Y-3077D01*
X92931D01*
X93193D02*
X93456Y-3340D01*
X94112Y-2553D02*
X93849D01*
X93718Y-2684D01*
Y-3209D01*
X93849Y-3340D01*
X94112D01*
X94243Y-3209D01*
Y-2684D01*
X94112Y-2553D01*
X94899D02*
X94636D01*
X94505Y-2684D01*
Y-3209D01*
X94636Y-3340D01*
X94899D01*
X95030Y-3209D01*
Y-2684D01*
X94899Y-2553D01*
X95292D02*
Y-3077D01*
X95555Y-3340D01*
X95817Y-3077D01*
Y-2553D01*
X96604D02*
X96080D01*
Y-3340D01*
X96604D01*
X96080Y-2946D02*
X96342D01*
X80303Y-2553D02*
Y-3077D01*
X80566Y-3340D01*
X80828Y-3077D01*
Y-2553D01*
X81090Y-2946D02*
X81615D01*
X82402Y-2684D02*
X82271Y-2553D01*
X82009D01*
X81878Y-2684D01*
Y-3209D01*
X82009Y-3340D01*
X82271D01*
X82402Y-3209D01*
Y-2946D01*
X82140D01*
X82665Y-3340D02*
Y-2553D01*
X83058D01*
X83190Y-2684D01*
Y-2946D01*
X83058Y-3077D01*
X82665D01*
X82927D02*
X83190Y-3340D01*
X83846Y-2553D02*
X83583D01*
X83452Y-2684D01*
Y-3209D01*
X83583Y-3340D01*
X83846D01*
X83977Y-3209D01*
Y-2684D01*
X83846Y-2553D01*
X84633D02*
X84370D01*
X84239Y-2684D01*
Y-3209D01*
X84370Y-3340D01*
X84633D01*
X84764Y-3209D01*
Y-2684D01*
X84633Y-2553D01*
X85026D02*
Y-3077D01*
X85289Y-3340D01*
X85551Y-3077D01*
Y-2553D01*
X86338D02*
X85813D01*
Y-3340D01*
X86338D01*
X85813Y-2946D02*
X86076D01*
X629Y-2676D02*
Y-3200D01*
X891Y-3463D01*
X1154Y-3200D01*
Y-2676D01*
X1416Y-3069D02*
X1941D01*
X2728Y-2807D02*
X2597Y-2676D01*
X2335D01*
X2203Y-2807D01*
Y-3332D01*
X2335Y-3463D01*
X2597D01*
X2728Y-3332D01*
Y-3069D01*
X2466D01*
X2990Y-3463D02*
Y-2676D01*
X3384D01*
X3515Y-2807D01*
Y-3069D01*
X3384Y-3200D01*
X2990D01*
X3253D02*
X3515Y-3463D01*
X4171Y-2676D02*
X3909D01*
X3778Y-2807D01*
Y-3332D01*
X3909Y-3463D01*
X4171D01*
X4302Y-3332D01*
Y-2807D01*
X4171Y-2676D01*
X4958D02*
X4696D01*
X4565Y-2807D01*
Y-3332D01*
X4696Y-3463D01*
X4958D01*
X5090Y-3332D01*
Y-2807D01*
X4958Y-2676D01*
X5352D02*
Y-3200D01*
X5614Y-3463D01*
X5877Y-3200D01*
Y-2676D01*
X6664D02*
X6139D01*
Y-3463D01*
X6664D01*
X6139Y-3069D02*
X6401D01*
M02*
