G04*
G04 #@! TF.GenerationSoftware,Altium Limited,Altium Designer,20.1.11 (218)*
G04*
G04 Layer_Color=32768*
%FSLAX24Y24*%
%MOIN*%
G70*
G04*
G04 #@! TF.SameCoordinates,32D8FB58-9F7D-435F-B0ED-68F847CCC549*
G04*
G04*
G04 #@! TF.FilePolarity,Positive*
G04*
G01*
G75*
%ADD11C,0.0200*%
%ADD282C,0.0118*%
%ADD544C,0.1000*%
D11*
X143041Y32018D02*
Y33018D01*
X143541D01*
X143708Y32851D01*
Y32518D01*
X143541Y32351D01*
X143041D01*
X143374D02*
X143708Y32018D01*
X144541Y33018D02*
X144207D01*
X144041Y32851D01*
Y32185D01*
X144207Y32018D01*
X144541D01*
X144707Y32185D01*
Y32851D01*
X144541Y33018D01*
X145040D02*
Y32185D01*
X145207Y32018D01*
X145540D01*
X145707Y32185D01*
Y33018D01*
X146040D02*
X146707D01*
X146373D01*
Y32018D01*
X147706Y33018D02*
X147040D01*
Y32018D01*
X147706D01*
X147040Y32518D02*
X147373D01*
X149039Y33018D02*
X149706D01*
X149372D01*
Y32018D01*
X150539Y33018D02*
X150205D01*
X150039Y32851D01*
Y32185D01*
X150205Y32018D01*
X150539D01*
X150705Y32185D01*
Y32851D01*
X150539Y33018D01*
X151538D02*
X151205D01*
X151039Y32851D01*
Y32185D01*
X151205Y32018D01*
X151538D01*
X151705Y32185D01*
Y32851D01*
X151538Y33018D01*
X152038D02*
Y32018D01*
X152705D01*
X154038D02*
Y33018D01*
X154537D01*
X154704Y32851D01*
Y32518D01*
X154537Y32351D01*
X154038D01*
X155037Y32018D02*
Y32684D01*
X155370Y33018D01*
X155704Y32684D01*
Y32018D01*
Y32518D01*
X155037D01*
X156037Y33018D02*
X156703D01*
X156370D01*
Y32018D01*
X157037Y33018D02*
Y32018D01*
Y32518D01*
X157703D01*
Y33018D01*
Y32018D01*
D282*
X-6965Y4155D02*
X-6703D01*
X-6834D01*
Y4943D01*
X-6965Y4811D01*
X-6309D02*
X-6178Y4943D01*
X-5916D01*
X-5784Y4811D01*
Y4287D01*
X-5916Y4155D01*
X-6178D01*
X-6309Y4287D01*
Y4811D01*
X-5522D02*
X-5391Y4943D01*
X-5129D01*
X-4997Y4811D01*
Y4287D01*
X-5129Y4155D01*
X-5391D01*
X-5522Y4287D01*
Y4811D01*
X-3948Y4155D02*
Y4943D01*
X-3685Y4680D01*
X-3423Y4943D01*
Y4155D01*
X-3161Y4943D02*
X-2898D01*
X-3029D01*
Y4155D01*
X-3161D01*
X-2898D01*
X-2505Y4943D02*
Y4155D01*
X-1980D01*
X-6703Y2927D02*
Y3714D01*
X-6309D01*
X-6178Y3583D01*
Y3321D01*
X-6309Y3190D01*
X-6703D01*
X-6440D02*
X-6178Y2927D01*
X-5522Y3714D02*
X-5784D01*
X-5916Y3583D01*
Y3059D01*
X-5784Y2927D01*
X-5522D01*
X-5391Y3059D01*
Y3583D01*
X-5522Y3714D01*
X-5129D02*
Y3059D01*
X-4997Y2927D01*
X-4735D01*
X-4604Y3059D01*
Y3714D01*
X-4341D02*
X-3817D01*
X-4079D01*
Y2927D01*
X-3029Y3714D02*
X-3554D01*
Y2927D01*
X-3029D01*
X-3554Y3321D02*
X-3292D01*
X-2767Y2927D02*
Y3714D01*
X-2374D01*
X-2242Y3583D01*
Y3321D01*
X-2374Y3190D01*
X-2767D01*
X-2505D02*
X-2242Y2927D01*
X119106Y58853D02*
X119368D01*
X119237D01*
Y59640D01*
X119106Y59509D01*
X119761D02*
X119893Y59640D01*
X120155D01*
X120286Y59509D01*
Y58984D01*
X120155Y58853D01*
X119893D01*
X119761Y58984D01*
Y59509D01*
X120549D02*
X120680Y59640D01*
X120942D01*
X121073Y59509D01*
Y58984D01*
X120942Y58853D01*
X120680D01*
X120549Y58984D01*
Y59509D01*
X122123Y58853D02*
Y59640D01*
X122385Y59378D01*
X122648Y59640D01*
Y58853D01*
X122910Y59640D02*
X123172D01*
X123041D01*
Y58853D01*
X122910D01*
X123172D01*
X123566Y59640D02*
Y58853D01*
X124091D01*
X119368Y57625D02*
Y58412D01*
X119761D01*
X119893Y58281D01*
Y58019D01*
X119761Y57888D01*
X119368D01*
X119630D02*
X119893Y57625D01*
X120549Y58412D02*
X120286D01*
X120155Y58281D01*
Y57756D01*
X120286Y57625D01*
X120549D01*
X120680Y57756D01*
Y58281D01*
X120549Y58412D01*
X120942D02*
Y57756D01*
X121073Y57625D01*
X121336D01*
X121467Y57756D01*
Y58412D01*
X121729D02*
X122254D01*
X121992D01*
Y57625D01*
X123041Y58412D02*
X122516D01*
Y57625D01*
X123041D01*
X122516Y58019D02*
X122779D01*
X123304Y57625D02*
Y58412D01*
X123697D01*
X123828Y58281D01*
Y58019D01*
X123697Y57888D01*
X123304D01*
X123566D02*
X123828Y57625D01*
X119269Y3121D02*
X119531D01*
X119400D01*
Y3908D01*
X119269Y3777D01*
X119925D02*
X120056Y3908D01*
X120318D01*
X120449Y3777D01*
Y3252D01*
X120318Y3121D01*
X120056D01*
X119925Y3252D01*
Y3777D01*
X120712D02*
X120843Y3908D01*
X121105D01*
X121236Y3777D01*
Y3252D01*
X121105Y3121D01*
X120843D01*
X120712Y3252D01*
Y3777D01*
X122286Y3121D02*
Y3908D01*
X122548Y3645D01*
X122811Y3908D01*
Y3121D01*
X123073Y3908D02*
X123336D01*
X123204D01*
Y3121D01*
X123073D01*
X123336D01*
X123729Y3908D02*
Y3121D01*
X124254D01*
X119531Y1893D02*
Y2680D01*
X119925D01*
X120056Y2548D01*
Y2286D01*
X119925Y2155D01*
X119531D01*
X119793D02*
X120056Y1893D01*
X120712Y2680D02*
X120449D01*
X120318Y2548D01*
Y2024D01*
X120449Y1893D01*
X120712D01*
X120843Y2024D01*
Y2548D01*
X120712Y2680D01*
X121105D02*
Y2024D01*
X121236Y1893D01*
X121499D01*
X121630Y2024D01*
Y2680D01*
X121892D02*
X122417D01*
X122155D01*
Y1893D01*
X123204Y2680D02*
X122680D01*
Y1893D01*
X123204D01*
X122680Y2286D02*
X122942D01*
X123467Y1893D02*
Y2680D01*
X123860D01*
X123991Y2548D01*
Y2286D01*
X123860Y2155D01*
X123467D01*
X123729D02*
X123991Y1893D01*
X-6574Y59625D02*
X-6311D01*
X-6442D01*
Y60412D01*
X-6574Y60281D01*
X-5918D02*
X-5786Y60412D01*
X-5524D01*
X-5393Y60281D01*
Y59756D01*
X-5524Y59625D01*
X-5786D01*
X-5918Y59756D01*
Y60281D01*
X-5130D02*
X-4999Y60412D01*
X-4737D01*
X-4606Y60281D01*
Y59756D01*
X-4737Y59625D01*
X-4999D01*
X-5130Y59756D01*
Y60281D01*
X-3556Y59625D02*
Y60412D01*
X-3294Y60150D01*
X-3031Y60412D01*
Y59625D01*
X-2769Y60412D02*
X-2507D01*
X-2638D01*
Y59625D01*
X-2769D01*
X-2507D01*
X-2113Y60412D02*
Y59625D01*
X-1588D01*
X-6311Y58397D02*
Y59184D01*
X-5918D01*
X-5786Y59053D01*
Y58790D01*
X-5918Y58659D01*
X-6311D01*
X-6049D02*
X-5786Y58397D01*
X-5130Y59184D02*
X-5393D01*
X-5524Y59053D01*
Y58528D01*
X-5393Y58397D01*
X-5130D01*
X-4999Y58528D01*
Y59053D01*
X-5130Y59184D01*
X-4737D02*
Y58528D01*
X-4606Y58397D01*
X-4343D01*
X-4212Y58528D01*
Y59184D01*
X-3950D02*
X-3425D01*
X-3687D01*
Y58397D01*
X-2638Y59184D02*
X-3163D01*
Y58397D01*
X-2638D01*
X-3163Y58790D02*
X-2900D01*
X-2375Y58397D02*
Y59184D01*
X-1982D01*
X-1851Y59053D01*
Y58790D01*
X-1982Y58659D01*
X-2375D01*
X-2113D02*
X-1851Y58397D01*
D544*
X53150Y7874D02*
Y55118D01*
X28000Y0D02*
X37500D01*
X114673Y49213D02*
G03*
X114173Y49713I-500J0D01*
G01*
X114673Y49213D02*
G03*
X114173Y49713I-500J0D01*
G01*
Y34933D02*
G03*
X114673Y35433I0J500D01*
G01*
X114173Y34933D02*
G03*
X114673Y35433I0J500D01*
G01*
X93716Y49713D02*
G03*
X93216Y49213I0J-500D01*
G01*
X93716Y49713D02*
G03*
X93216Y49213I0J-500D01*
G01*
Y35433D02*
G03*
X93716Y34933I500J0D01*
G01*
X93216Y35433D02*
G03*
X93716Y34933I500J0D01*
G01*
Y49713D02*
X114173D01*
X93716Y34933D02*
X114173D01*
X3437Y9843D02*
G03*
X3937Y9343I500J0D01*
G01*
X47744Y53150D02*
G03*
X47244Y53650I-500J0D01*
G01*
X47244Y9343D02*
G03*
X47744Y9843I0J500D01*
G01*
X47244Y9343D02*
G03*
X47744Y9843I0J500D01*
G01*
X3937Y53650D02*
G03*
X3437Y53150I0J-500D01*
G01*
X3937Y53650D02*
G03*
X3437Y53150I0J-500D01*
G01*
X47744Y45276D02*
X47744Y17717D01*
X3437D02*
Y45276D01*
X3937Y53650D02*
X47244D01*
X3937Y9343D02*
X47244D01*
X93466Y25130D02*
G03*
X93216Y24697I250J-433D01*
G01*
X93466Y25130D02*
G03*
X93216Y24697I250J-433D01*
G01*
X101976Y29966D02*
G03*
X101726Y29899I0J-500D01*
G01*
X101976Y29966D02*
G03*
X101726Y29899I0J-500D01*
G01*
X106163Y29899D02*
G03*
X105913Y29966I-250J-433D01*
G01*
X106164Y29899D02*
G03*
X105913Y29966I-250J-433D01*
G01*
X114673Y24697D02*
G03*
X114423Y25130I-500J0D01*
G01*
X114673Y24697D02*
G03*
X114423Y25130I-500J0D01*
G01*
X93216Y12886D02*
G03*
X93466Y12453I500J0D01*
G01*
X93216Y12886D02*
G03*
X93466Y12453I500J0D01*
G01*
X103694Y6548D02*
G03*
X104195Y6547I250J433D01*
G01*
X114423Y12453D02*
G03*
X114673Y12886I-250J433D01*
G01*
X103695Y6547D02*
G03*
X104195Y6548I250J433D01*
G01*
X114423Y12453D02*
G03*
X114673Y12886I-250J433D01*
G01*
X88012Y17920D02*
X93216Y17920D01*
X93216Y14100D02*
X88012D01*
X93216D02*
Y17920D01*
Y12886D02*
Y14100D01*
X88012D02*
X88012Y17848D01*
X93466Y25130D02*
X101726Y29899D01*
X105913Y29966D02*
X101976D01*
X106164Y29899D02*
X106163Y29899D01*
X114423Y25130D02*
X106164Y29899D01*
X114423Y25130D02*
X114423Y25130D01*
X93466Y12453D02*
X93466Y12453D01*
X103694Y6548D02*
X93466Y12453D01*
X103695Y6547D02*
X103694Y6548D01*
X104195Y6547D02*
X104195Y6548D01*
X114423Y12453D01*
X114423Y12453D01*
X62742Y25303D02*
G03*
X62492Y24870I250J-433D01*
G01*
X62742Y25303D02*
G03*
X62492Y24870I250J-433D01*
G01*
X71252Y30139D02*
G03*
X71002Y30072I0J-500D01*
G01*
X71252Y30139D02*
G03*
X71002Y30072I0J-500D01*
G01*
X75439Y30072D02*
G03*
X75189Y30139I-250J-433D01*
G01*
X75440Y30072D02*
G03*
X75189Y30139I-250J-433D01*
G01*
X83950Y24870D02*
G03*
X83699Y25304I-500J0D01*
G01*
X83950Y24870D02*
G03*
X83700Y25303I-500J0D01*
G01*
X62492Y13059D02*
G03*
X62742Y12626I500J0D01*
G01*
X62492Y13059D02*
G03*
X62743Y12626I500J0D01*
G01*
X72970Y6721D02*
G03*
X73471Y6721I250J433D01*
G01*
X83700Y12626D02*
G03*
X83950Y13059I-250J433D01*
G01*
X72971Y6721D02*
G03*
X73471Y6721I250J433D01*
G01*
X83699Y12626D02*
G03*
X83950Y13059I-250J433D01*
G01*
X57289Y18093D02*
X62492Y18093D01*
X62492Y14274D02*
X57289D01*
X62492D02*
Y18093D01*
Y13059D02*
Y14274D01*
X57289D02*
X57289Y18022D01*
X62742Y25303D02*
X71002Y30072D01*
X75189Y30139D02*
X71252D01*
X75440Y30072D02*
X75439Y30072D01*
X83699Y25304D02*
X75440Y30072D01*
X83700Y25303D02*
X83699Y25304D01*
X62743Y12626D02*
X62742Y12626D01*
X72970Y6721D02*
X62743Y12626D01*
X72971Y6721D02*
X72970Y6721D01*
X73471Y6721D02*
X73471Y6721D01*
X83699Y12626D01*
X83700Y12626D01*
X62742Y48813D02*
G03*
X62492Y48380I250J-433D01*
G01*
X62742Y48813D02*
G03*
X62492Y48380I250J-433D01*
G01*
X71252Y53649D02*
G03*
X71002Y53582I0J-500D01*
G01*
X71252Y53649D02*
G03*
X71002Y53582I0J-500D01*
G01*
X75439Y53582D02*
G03*
X75189Y53649I-250J-433D01*
G01*
X75440Y53581D02*
G03*
X75189Y53649I-250J-433D01*
G01*
X83950Y48380D02*
G03*
X83699Y48813I-500J0D01*
G01*
X83950Y48380D02*
G03*
X83700Y48813I-500J0D01*
G01*
X62492Y36569D02*
G03*
X62742Y36135I500J0D01*
G01*
X62492Y36569D02*
G03*
X62743Y36135I500J0D01*
G01*
X72970Y30230D02*
G03*
X73471Y30230I250J433D01*
G01*
X83700Y36135D02*
G03*
X83950Y36568I-250J433D01*
G01*
X72971Y30230D02*
G03*
X73471Y30230I250J433D01*
G01*
X83699Y36135D02*
G03*
X83950Y36568I-250J433D01*
G01*
X57289Y41602D02*
X62492Y41602D01*
X62492Y37783D02*
X57289D01*
X62492D02*
Y41602D01*
Y36569D02*
Y37783D01*
X57289D02*
X57289Y41531D01*
X62742Y48813D02*
X71002Y53582D01*
X75189Y53649D02*
X71252D01*
X75440Y53581D02*
X75439Y53582D01*
X83699Y48813D02*
X75440Y53581D01*
X83700Y48813D02*
X83699Y48813D01*
X62743Y36135D02*
X62742Y36135D01*
X72970Y30230D02*
X62743Y36135D01*
X72971Y30230D02*
X72970Y30230D01*
X73471Y30230D02*
X73471Y30230D01*
X83699Y36135D01*
X83700Y36135D01*
M02*
