%FSLAX24Y24*%
%MOIN*%
G70*
G01*
G75*
G04 Layer_Color=127485*
%ADD10C,0.0197*%
%ADD11C,0.0276*%
%ADD12R,0.0315X0.0276*%
%ADD13R,0.0295X0.0591*%
%ADD14R,0.0315X0.0118*%
%ADD15R,0.0394X0.0709*%
%ADD16R,0.0177X0.0098*%
%ADD17R,0.0177X0.0138*%
G04:AMPARAMS|DCode=18|XSize=59.1mil|YSize=17.7mil|CornerRadius=0mil|HoleSize=0mil|Usage=FLASHONLY|Rotation=90.000|XOffset=0mil|YOffset=0mil|HoleType=Round|Shape=RoundedRectangle|*
%AMROUNDEDRECTD18*
21,1,0.0591,0.0177,0,0,90.0*
21,1,0.0591,0.0177,0,0,90.0*
1,1,0.0000,0.0089,0.0295*
1,1,0.0000,0.0089,-0.0295*
1,1,0.0000,-0.0089,-0.0295*
1,1,0.0000,-0.0089,0.0295*
%
%ADD18ROUNDEDRECTD18*%
%ADD19R,0.0118X0.0315*%
%ADD20R,0.0472X0.0787*%
%ADD21R,0.0354X0.0157*%
%ADD22R,0.0189X0.0197*%
%ADD23R,0.0039X0.0039*%
%ADD24R,0.0246X0.1496*%
%ADD25R,0.0246X0.1043*%
%ADD26R,0.1232X0.0246*%
%ADD27R,0.1496X0.0246*%
%ADD28R,0.0177X0.0197*%
%ADD29R,0.0118X0.0118*%
G04:AMPARAMS|DCode=30|XSize=11.8mil|YSize=11.8mil|CornerRadius=0.3mil|HoleSize=0mil|Usage=FLASHONLY|Rotation=270.000|XOffset=0mil|YOffset=0mil|HoleType=Round|Shape=RoundedRectangle|*
%AMROUNDEDRECTD30*
21,1,0.0118,0.0112,0,0,270.0*
21,1,0.0112,0.0118,0,0,270.0*
1,1,0.0006,-0.0056,-0.0056*
1,1,0.0006,-0.0056,0.0056*
1,1,0.0006,0.0056,0.0056*
1,1,0.0006,0.0056,-0.0056*
%
%ADD30ROUNDEDRECTD30*%
%ADD31R,0.1654X0.1654*%
%ADD32R,0.0374X0.0079*%
%ADD33R,0.0079X0.0374*%
G04:AMPARAMS|DCode=34|XSize=39.4mil|YSize=23.6mil|CornerRadius=0.6mil|HoleSize=0mil|Usage=FLASHONLY|Rotation=270.000|XOffset=0mil|YOffset=0mil|HoleType=Round|Shape=RoundedRectangle|*
%AMROUNDEDRECTD34*
21,1,0.0394,0.0224,0,0,270.0*
21,1,0.0382,0.0236,0,0,270.0*
1,1,0.0012,-0.0112,-0.0191*
1,1,0.0012,-0.0112,0.0191*
1,1,0.0012,0.0112,0.0191*
1,1,0.0012,0.0112,-0.0191*
%
%ADD34ROUNDEDRECTD34*%
%ADD35R,0.0118X0.0118*%
%ADD36R,0.0630X0.0315*%
G04:AMPARAMS|DCode=37|XSize=25.2mil|YSize=24mil|CornerRadius=0.6mil|HoleSize=0mil|Usage=FLASHONLY|Rotation=90.000|XOffset=0mil|YOffset=0mil|HoleType=Round|Shape=RoundedRectangle|*
%AMROUNDEDRECTD37*
21,1,0.0252,0.0228,0,0,90.0*
21,1,0.0240,0.0240,0,0,90.0*
1,1,0.0012,0.0114,0.0120*
1,1,0.0012,0.0114,-0.0120*
1,1,0.0012,-0.0114,-0.0120*
1,1,0.0012,-0.0114,0.0120*
%
%ADD37ROUNDEDRECTD37*%
%ADD38R,0.0138X0.0226*%
%ADD39R,0.0226X0.0138*%
%ADD40R,0.0138X0.0148*%
%ADD41R,0.0148X0.0138*%
%ADD42C,0.0354*%
%ADD43R,0.0138X0.0236*%
%ADD44R,0.0295X0.0197*%
%ADD45R,0.0390X0.0430*%
G04:AMPARAMS|DCode=46|XSize=31.5mil|YSize=31.5mil|CornerRadius=0.8mil|HoleSize=0mil|Usage=FLASHONLY|Rotation=180.000|XOffset=0mil|YOffset=0mil|HoleType=Round|Shape=RoundedRectangle|*
%AMROUNDEDRECTD46*
21,1,0.0315,0.0299,0,0,180.0*
21,1,0.0299,0.0315,0,0,180.0*
1,1,0.0016,-0.0150,0.0150*
1,1,0.0016,0.0150,0.0150*
1,1,0.0016,0.0150,-0.0150*
1,1,0.0016,-0.0150,-0.0150*
%
%ADD46ROUNDEDRECTD46*%
G04:AMPARAMS|DCode=47|XSize=19.7mil|YSize=19.7mil|CornerRadius=0.5mil|HoleSize=0mil|Usage=FLASHONLY|Rotation=0.000|XOffset=0mil|YOffset=0mil|HoleType=Round|Shape=RoundedRectangle|*
%AMROUNDEDRECTD47*
21,1,0.0197,0.0187,0,0,0.0*
21,1,0.0187,0.0197,0,0,0.0*
1,1,0.0010,0.0094,-0.0094*
1,1,0.0010,-0.0094,-0.0094*
1,1,0.0010,-0.0094,0.0094*
1,1,0.0010,0.0094,0.0094*
%
%ADD47ROUNDEDRECTD47*%
G04:AMPARAMS|DCode=48|XSize=11.8mil|YSize=11.8mil|CornerRadius=0.3mil|HoleSize=0mil|Usage=FLASHONLY|Rotation=180.000|XOffset=0mil|YOffset=0mil|HoleType=Round|Shape=RoundedRectangle|*
%AMROUNDEDRECTD48*
21,1,0.0118,0.0112,0,0,180.0*
21,1,0.0112,0.0118,0,0,180.0*
1,1,0.0006,-0.0056,0.0056*
1,1,0.0006,0.0056,0.0056*
1,1,0.0006,0.0056,-0.0056*
1,1,0.0006,-0.0056,-0.0056*
%
%ADD48ROUNDEDRECTD48*%
%ADD49R,0.1909X0.1909*%
%ADD50C,0.0108*%
G04:AMPARAMS|DCode=51|XSize=35.4mil|YSize=31.5mil|CornerRadius=0.2mil|HoleSize=0mil|Usage=FLASHONLY|Rotation=180.000|XOffset=0mil|YOffset=0mil|HoleType=Round|Shape=RoundedRectangle|*
%AMROUNDEDRECTD51*
21,1,0.0354,0.0312,0,0,180.0*
21,1,0.0351,0.0315,0,0,180.0*
1,1,0.0003,-0.0176,0.0156*
1,1,0.0003,0.0176,0.0156*
1,1,0.0003,0.0176,-0.0156*
1,1,0.0003,-0.0176,-0.0156*
%
%ADD51ROUNDEDRECTD51*%
G04:AMPARAMS|DCode=52|XSize=19.7mil|YSize=19.7mil|CornerRadius=0.5mil|HoleSize=0mil|Usage=FLASHONLY|Rotation=270.000|XOffset=0mil|YOffset=0mil|HoleType=Round|Shape=RoundedRectangle|*
%AMROUNDEDRECTD52*
21,1,0.0197,0.0187,0,0,270.0*
21,1,0.0187,0.0197,0,0,270.0*
1,1,0.0010,-0.0094,-0.0094*
1,1,0.0010,-0.0094,0.0094*
1,1,0.0010,0.0094,0.0094*
1,1,0.0010,0.0094,-0.0094*
%
%ADD52ROUNDEDRECTD52*%
%ADD53R,0.0197X0.0177*%
G04:AMPARAMS|DCode=54|XSize=31.5mil|YSize=31.5mil|CornerRadius=0.8mil|HoleSize=0mil|Usage=FLASHONLY|Rotation=270.000|XOffset=0mil|YOffset=0mil|HoleType=Round|Shape=RoundedRectangle|*
%AMROUNDEDRECTD54*
21,1,0.0315,0.0299,0,0,270.0*
21,1,0.0299,0.0315,0,0,270.0*
1,1,0.0016,-0.0150,-0.0150*
1,1,0.0016,-0.0150,0.0150*
1,1,0.0016,0.0150,0.0150*
1,1,0.0016,0.0150,-0.0150*
%
%ADD54ROUNDEDRECTD54*%
%ADD55C,0.0472*%
%ADD56C,0.0039*%
%ADD57C,0.0079*%
%ADD58C,0.0060*%
%ADD59C,0.0157*%
%ADD60C,0.0200*%
%ADD61C,0.0118*%
%ADD62C,0.0120*%
%ADD63C,0.0150*%
%ADD64C,0.0059*%
%ADD65C,0.0060*%
%ADD66C,0.0030*%
%ADD67C,0.0080*%
%ADD68C,0.0276*%
%ADD69C,0.0070*%
%ADD70C,0.0100*%
%ADD71C,0.0110*%
%ADD72C,0.0068*%
%ADD73C,0.0130*%
%ADD74C,0.0055*%
%ADD75C,0.0177*%
%ADD76R,0.0433X0.0699*%
%ADD77R,0.0226X0.0157*%
%ADD78R,0.0650X0.0551*%
%ADD79R,0.0512X0.0394*%
%ADD80R,0.0630X0.0433*%
%ADD81R,0.0492X0.0482*%
%ADD82R,0.0364X0.0502*%
%ADD83R,0.0236X0.0404*%
%ADD84R,0.0130X0.0424*%
%ADD85R,0.0185X0.0433*%
%ADD86C,0.0315*%
%ADD87C,0.0276*%
%ADD88C,0.0157*%
%ADD89C,0.0240*%
%ADD90C,0.0200*%
%ADD91C,0.0180*%
%ADD92C,0.0177*%
%ADD93R,0.0315X0.0246*%
%ADD94R,0.0315X0.0384*%
%ADD95R,0.0315X0.0463*%
%ADD96R,0.0315X0.0472*%
%ADD97R,0.0315X0.0394*%
%ADD98R,0.0315X0.0492*%
%ADD99R,0.0295X0.0443*%
%ADD100C,0.0300*%
%ADD101R,0.0315X0.0551*%
%ADD102C,0.0300*%
%ADD103C,0.0286*%
%ADD104C,0.0098*%
%ADD105C,0.0040*%
%ADD106C,0.0070*%
%ADD107C,0.0071*%
%ADD108C,0.0003*%
G36*
X20419Y3574D02*
X20420Y3573D01*
X20421Y3571D01*
X20421Y3568D01*
X20425Y3561D01*
X20429Y3551D01*
X20435Y3538D01*
X20443Y3524D01*
X20453Y3509D01*
X20465Y3493D01*
X20466Y3492D01*
X20467Y3491D01*
X20469Y3489D01*
X20472Y3486D01*
X20479Y3478D01*
X20488Y3469D01*
X20500Y3459D01*
X20515Y3448D01*
X20530Y3439D01*
X20547Y3432D01*
Y3353D01*
X20039D01*
Y3450D01*
X20405D01*
X20404Y3451D01*
X20402Y3452D01*
X20400Y3455D01*
X20397Y3459D01*
X20392Y3465D01*
X20388Y3470D01*
X20383Y3478D01*
X20377Y3486D01*
X20371Y3494D01*
X20365Y3504D01*
X20359Y3514D01*
X20353Y3525D01*
X20342Y3548D01*
X20332Y3575D01*
X20419D01*
Y3574D01*
D02*
G37*
G36*
X20544Y6369D02*
Y6368D01*
Y6366D01*
Y6363D01*
Y6359D01*
Y6353D01*
X20543Y6347D01*
X20542Y6333D01*
X20542Y6318D01*
X20539Y6302D01*
X20537Y6286D01*
X20534Y6273D01*
Y6272D01*
X20533Y6270D01*
X20532Y6268D01*
X20531Y6265D01*
X20528Y6257D01*
X20523Y6246D01*
X20516Y6235D01*
X20508Y6222D01*
X20499Y6209D01*
X20487Y6197D01*
Y6196D01*
X20486Y6195D01*
X20481Y6192D01*
X20474Y6186D01*
X20464Y6179D01*
X20453Y6171D01*
X20439Y6163D01*
X20423Y6155D01*
X20405Y6149D01*
X20405D01*
X20403Y6148D01*
X20400Y6147D01*
X20397Y6146D01*
X20392Y6145D01*
X20386Y6144D01*
X20380Y6142D01*
X20373Y6140D01*
X20364Y6138D01*
X20355Y6137D01*
X20346Y6136D01*
X20335Y6135D01*
X20312Y6133D01*
X20287Y6132D01*
X20276D01*
X20270Y6133D01*
X20265D01*
X20257Y6133D01*
X20249Y6134D01*
X20233Y6136D01*
X20215Y6138D01*
X20197Y6143D01*
X20179Y6148D01*
X20179D01*
X20177Y6149D01*
X20174Y6150D01*
X20170Y6152D01*
X20165Y6153D01*
X20160Y6156D01*
X20147Y6162D01*
X20133Y6169D01*
X20118Y6179D01*
X20104Y6190D01*
X20090Y6202D01*
X20088Y6203D01*
X20085Y6207D01*
X20081Y6213D01*
X20075Y6221D01*
X20069Y6231D01*
X20062Y6243D01*
X20055Y6257D01*
X20050Y6273D01*
Y6274D01*
X20049Y6275D01*
Y6277D01*
X20048Y6279D01*
X20047Y6287D01*
X20044Y6297D01*
X20042Y6310D01*
X20041Y6325D01*
X20040Y6343D01*
X20039Y6363D01*
Y6554D01*
X20544D01*
Y6369D01*
D02*
G37*
G36*
Y7513D02*
X20204Y7304D01*
X20544D01*
Y7210D01*
X20039D01*
Y7312D01*
X20372Y7517D01*
X20039D01*
Y7611D01*
X20544D01*
Y7513D01*
D02*
G37*
G36*
X20301Y7123D02*
X20308D01*
X20315Y7122D01*
X20324Y7121D01*
X20333Y7120D01*
X20354Y7118D01*
X20375Y7114D01*
X20397Y7108D01*
X20418Y7101D01*
X20418D01*
X20419Y7100D01*
X20421Y7099D01*
X20424Y7098D01*
X20432Y7093D01*
X20441Y7088D01*
X20452Y7082D01*
X20463Y7074D01*
X20475Y7064D01*
X20487Y7054D01*
X20488Y7053D01*
X20488Y7053D01*
X20492Y7049D01*
X20498Y7042D01*
X20504Y7034D01*
X20512Y7025D01*
X20520Y7014D01*
X20527Y7002D01*
X20533Y6988D01*
Y6988D01*
X20534Y6986D01*
X20535Y6983D01*
X20536Y6980D01*
X20538Y6975D01*
X20539Y6970D01*
X20541Y6964D01*
X20543Y6957D01*
X20547Y6941D01*
X20550Y6923D01*
X20553Y6902D01*
X20553Y6880D01*
Y6878D01*
Y6875D01*
X20553Y6869D01*
Y6862D01*
X20551Y6852D01*
X20550Y6841D01*
X20547Y6829D01*
X20545Y6816D01*
X20541Y6802D01*
X20537Y6787D01*
X20531Y6773D01*
X20524Y6757D01*
X20516Y6743D01*
X20507Y6728D01*
X20496Y6714D01*
X20483Y6701D01*
X20483Y6701D01*
X20480Y6698D01*
X20476Y6695D01*
X20471Y6691D01*
X20464Y6686D01*
X20455Y6680D01*
X20445Y6674D01*
X20433Y6668D01*
X20421Y6661D01*
X20406Y6655D01*
X20390Y6650D01*
X20373Y6644D01*
X20354Y6640D01*
X20335Y6637D01*
X20313Y6635D01*
X20291Y6634D01*
X20286D01*
X20279Y6635D01*
X20270D01*
X20260Y6636D01*
X20249Y6638D01*
X20235Y6640D01*
X20221Y6642D01*
X20206Y6646D01*
X20190Y6650D01*
X20174Y6656D01*
X20157Y6663D01*
X20142Y6670D01*
X20127Y6679D01*
X20112Y6690D01*
X20098Y6701D01*
X20098Y6702D01*
X20096Y6704D01*
X20092Y6708D01*
X20087Y6714D01*
X20082Y6720D01*
X20077Y6728D01*
X20071Y6738D01*
X20064Y6748D01*
X20058Y6760D01*
X20052Y6773D01*
X20046Y6788D01*
X20041Y6804D01*
X20036Y6821D01*
X20033Y6839D01*
X20031Y6858D01*
X20030Y6878D01*
Y6880D01*
Y6884D01*
X20031Y6889D01*
X20031Y6897D01*
X20032Y6906D01*
X20034Y6917D01*
X20036Y6929D01*
X20039Y6943D01*
X20042Y6957D01*
X20047Y6971D01*
X20052Y6986D01*
X20059Y7001D01*
X20066Y7016D01*
X20076Y7030D01*
X20086Y7044D01*
X20098Y7057D01*
X20099Y7058D01*
X20101Y7060D01*
X20106Y7063D01*
X20111Y7067D01*
X20118Y7072D01*
X20127Y7078D01*
X20136Y7084D01*
X20148Y7090D01*
X20160Y7096D01*
X20175Y7102D01*
X20190Y7108D01*
X20207Y7113D01*
X20225Y7118D01*
X20245Y7120D01*
X20266Y7123D01*
X20288Y7123D01*
X20295D01*
X20301Y7123D01*
D02*
G37*
G36*
X20544Y5671D02*
X20459D01*
Y5943D01*
X20347D01*
Y5690D01*
X20262D01*
Y5943D01*
X20125D01*
Y5662D01*
X20039D01*
Y6045D01*
X20544D01*
Y5671D01*
D02*
G37*
G36*
Y5155D02*
Y5154D01*
Y5152D01*
Y5149D01*
Y5145D01*
Y5139D01*
X20543Y5133D01*
X20542Y5119D01*
X20542Y5104D01*
X20539Y5088D01*
X20537Y5073D01*
X20534Y5059D01*
Y5058D01*
X20533Y5057D01*
X20532Y5054D01*
X20531Y5052D01*
X20528Y5043D01*
X20523Y5033D01*
X20516Y5021D01*
X20508Y5008D01*
X20499Y4995D01*
X20487Y4983D01*
Y4982D01*
X20486Y4982D01*
X20481Y4978D01*
X20474Y4972D01*
X20464Y4966D01*
X20453Y4958D01*
X20439Y4949D01*
X20423Y4941D01*
X20405Y4935D01*
X20405D01*
X20403Y4934D01*
X20400Y4933D01*
X20397Y4932D01*
X20392Y4931D01*
X20386Y4930D01*
X20380Y4928D01*
X20373Y4926D01*
X20364Y4925D01*
X20355Y4923D01*
X20346Y4922D01*
X20335Y4921D01*
X20312Y4919D01*
X20287Y4918D01*
X20276D01*
X20270Y4919D01*
X20265D01*
X20257Y4920D01*
X20249Y4920D01*
X20233Y4922D01*
X20215Y4925D01*
X20197Y4929D01*
X20179Y4934D01*
X20179D01*
X20177Y4935D01*
X20174Y4936D01*
X20170Y4938D01*
X20165Y4939D01*
X20160Y4942D01*
X20147Y4948D01*
X20133Y4955D01*
X20118Y4965D01*
X20104Y4976D01*
X20090Y4988D01*
X20088Y4990D01*
X20085Y4993D01*
X20081Y4999D01*
X20075Y5007D01*
X20069Y5017D01*
X20062Y5029D01*
X20055Y5044D01*
X20050Y5060D01*
Y5060D01*
X20049Y5061D01*
Y5063D01*
X20048Y5065D01*
X20047Y5073D01*
X20044Y5084D01*
X20042Y5096D01*
X20041Y5111D01*
X20040Y5130D01*
X20039Y5149D01*
Y5340D01*
X20544D01*
Y5155D01*
D02*
G37*
G36*
Y4777D02*
X20197Y4701D01*
X20544Y4609D01*
Y4487D01*
X20191Y4399D01*
X20544Y4322D01*
Y4219D01*
X20039Y4341D01*
Y4451D01*
X20416Y4550D01*
X20039Y4651D01*
Y4761D01*
X20544Y4881D01*
Y4777D01*
D02*
G37*
G36*
X20271Y5397D02*
X20174D01*
Y5587D01*
X20271D01*
Y5397D01*
D02*
G37*
G36*
X20544Y4015D02*
X20199Y3925D01*
X20544Y3835D01*
Y3682D01*
X20039D01*
Y3776D01*
X20436Y3777D01*
X20039Y3876D01*
Y3974D01*
X20436Y4073D01*
X20039D01*
Y4167D01*
X20544D01*
Y4015D01*
D02*
G37*
G36*
X20312Y2815D02*
X20324Y2814D01*
X20338Y2813D01*
X20352Y2811D01*
X20368Y2810D01*
X20385Y2807D01*
X20402Y2804D01*
X20419Y2800D01*
X20436Y2795D01*
X20452Y2789D01*
X20467Y2783D01*
X20482Y2776D01*
X20494Y2767D01*
X20495Y2766D01*
X20496Y2765D01*
X20499Y2762D01*
X20502Y2759D01*
X20507Y2755D01*
X20511Y2750D01*
X20515Y2744D01*
X20521Y2737D01*
X20526Y2729D01*
X20530Y2721D01*
X20534Y2711D01*
X20539Y2701D01*
X20542Y2690D01*
X20545Y2678D01*
X20546Y2666D01*
X20547Y2652D01*
Y2652D01*
Y2649D01*
Y2645D01*
X20546Y2640D01*
X20545Y2634D01*
X20544Y2627D01*
X20542Y2620D01*
X20540Y2611D01*
X20537Y2601D01*
X20534Y2593D01*
X20530Y2583D01*
X20525Y2574D01*
X20518Y2564D01*
X20512Y2555D01*
X20504Y2546D01*
X20494Y2538D01*
X20494Y2537D01*
X20491Y2536D01*
X20488Y2534D01*
X20483Y2530D01*
X20475Y2526D01*
X20467Y2522D01*
X20457Y2518D01*
X20445Y2513D01*
X20432Y2509D01*
X20416Y2504D01*
X20399Y2500D01*
X20381Y2496D01*
X20360Y2493D01*
X20338Y2491D01*
X20314Y2489D01*
X20288Y2488D01*
X20274D01*
X20265Y2489D01*
X20253Y2490D01*
X20239Y2491D01*
X20225Y2493D01*
X20208Y2494D01*
X20192Y2497D01*
X20174Y2501D01*
X20157Y2504D01*
X20141Y2510D01*
X20124Y2515D01*
X20109Y2522D01*
X20094Y2529D01*
X20082Y2538D01*
X20081Y2539D01*
X20079Y2540D01*
X20077Y2542D01*
X20074Y2545D01*
X20070Y2550D01*
X20066Y2555D01*
X20061Y2561D01*
X20056Y2568D01*
X20051Y2576D01*
X20046Y2584D01*
X20042Y2593D01*
X20038Y2604D01*
X20035Y2614D01*
X20032Y2627D01*
X20031Y2639D01*
X20030Y2652D01*
Y2653D01*
Y2655D01*
X20031Y2660D01*
Y2665D01*
X20031Y2671D01*
X20033Y2678D01*
X20034Y2686D01*
X20037Y2695D01*
X20040Y2704D01*
X20044Y2714D01*
X20048Y2724D01*
X20054Y2733D01*
X20060Y2744D01*
X20068Y2753D01*
X20076Y2762D01*
X20086Y2771D01*
X20087Y2772D01*
X20089Y2773D01*
X20093Y2776D01*
X20097Y2778D01*
X20104Y2781D01*
X20112Y2785D01*
X20122Y2789D01*
X20133Y2793D01*
X20146Y2797D01*
X20160Y2802D01*
X20177Y2805D01*
X20195Y2808D01*
X20216Y2811D01*
X20238Y2814D01*
X20262Y2815D01*
X20289Y2816D01*
X20303D01*
X20312Y2815D01*
D02*
G37*
G36*
X20544Y9227D02*
Y9226D01*
Y9224D01*
Y9221D01*
Y9216D01*
Y9210D01*
X20543Y9205D01*
X20542Y9191D01*
X20542Y9175D01*
X20539Y9159D01*
X20537Y9144D01*
X20534Y9130D01*
Y9130D01*
X20533Y9128D01*
X20532Y9126D01*
X20531Y9123D01*
X20528Y9114D01*
X20523Y9104D01*
X20516Y9092D01*
X20508Y9079D01*
X20499Y9067D01*
X20487Y9054D01*
Y9054D01*
X20486Y9053D01*
X20481Y9049D01*
X20474Y9044D01*
X20464Y9037D01*
X20453Y9029D01*
X20439Y9021D01*
X20423Y9013D01*
X20405Y9006D01*
X20405D01*
X20403Y9006D01*
X20400Y9005D01*
X20397Y9003D01*
X20392Y9003D01*
X20386Y9001D01*
X20380Y9000D01*
X20373Y8998D01*
X20364Y8996D01*
X20355Y8995D01*
X20346Y8993D01*
X20335Y8993D01*
X20312Y8990D01*
X20287Y8990D01*
X20276D01*
X20270Y8990D01*
X20265D01*
X20257Y8991D01*
X20249Y8992D01*
X20233Y8993D01*
X20215Y8996D01*
X20197Y9001D01*
X20179Y9006D01*
X20179D01*
X20177Y9006D01*
X20174Y9008D01*
X20170Y9009D01*
X20165Y9011D01*
X20160Y9014D01*
X20147Y9019D01*
X20133Y9027D01*
X20118Y9036D01*
X20104Y9047D01*
X20090Y9060D01*
X20088Y9061D01*
X20085Y9065D01*
X20081Y9071D01*
X20075Y9079D01*
X20069Y9089D01*
X20062Y9100D01*
X20055Y9115D01*
X20050Y9131D01*
Y9132D01*
X20049Y9132D01*
Y9135D01*
X20048Y9137D01*
X20047Y9145D01*
X20044Y9155D01*
X20042Y9167D01*
X20041Y9183D01*
X20040Y9201D01*
X20039Y9221D01*
Y9412D01*
X20544D01*
Y9227D01*
D02*
G37*
G36*
X20044Y2435D02*
X20048Y2434D01*
X20052Y2434D01*
X20058Y2433D01*
X20071Y2430D01*
X20085Y2426D01*
X20101Y2420D01*
X20119Y2413D01*
X20136Y2403D01*
X20136D01*
X20138Y2402D01*
X20141Y2400D01*
X20144Y2397D01*
X20149Y2394D01*
X20154Y2390D01*
X20160Y2385D01*
X20168Y2379D01*
X20176Y2372D01*
X20185Y2364D01*
X20195Y2356D01*
X20206Y2345D01*
X20217Y2335D01*
X20230Y2322D01*
X20243Y2309D01*
X20257Y2294D01*
X20257Y2294D01*
X20260Y2292D01*
X20262Y2289D01*
X20267Y2284D01*
X20271Y2278D01*
X20277Y2273D01*
X20290Y2259D01*
X20304Y2246D01*
X20318Y2233D01*
X20324Y2227D01*
X20330Y2222D01*
X20335Y2217D01*
X20340Y2214D01*
X20341Y2214D01*
X20345Y2211D01*
X20351Y2208D01*
X20359Y2204D01*
X20367Y2200D01*
X20378Y2197D01*
X20388Y2195D01*
X20399Y2194D01*
X20404D01*
X20410Y2195D01*
X20418Y2196D01*
X20426Y2198D01*
X20434Y2201D01*
X20442Y2206D01*
X20449Y2211D01*
X20450Y2212D01*
X20452Y2214D01*
X20455Y2219D01*
X20458Y2224D01*
X20461Y2231D01*
X20464Y2239D01*
X20466Y2249D01*
X20467Y2259D01*
Y2261D01*
Y2265D01*
X20466Y2270D01*
X20464Y2277D01*
X20462Y2285D01*
X20459Y2293D01*
X20454Y2301D01*
X20448Y2308D01*
X20448Y2309D01*
X20445Y2311D01*
X20440Y2314D01*
X20434Y2317D01*
X20426Y2321D01*
X20415Y2324D01*
X20402Y2327D01*
X20388Y2328D01*
X20397Y2424D01*
X20398D01*
X20401Y2423D01*
X20405D01*
X20410Y2422D01*
X20417Y2421D01*
X20424Y2419D01*
X20432Y2417D01*
X20442Y2415D01*
X20460Y2407D01*
X20479Y2399D01*
X20488Y2393D01*
X20497Y2386D01*
X20504Y2379D01*
X20512Y2371D01*
X20512Y2370D01*
X20513Y2369D01*
X20515Y2367D01*
X20518Y2363D01*
X20520Y2359D01*
X20523Y2353D01*
X20526Y2347D01*
X20529Y2340D01*
X20533Y2332D01*
X20536Y2323D01*
X20542Y2304D01*
X20545Y2281D01*
X20546Y2270D01*
X20547Y2257D01*
Y2257D01*
Y2254D01*
Y2250D01*
X20546Y2245D01*
X20545Y2238D01*
X20545Y2231D01*
X20543Y2223D01*
X20542Y2214D01*
X20537Y2195D01*
X20529Y2176D01*
X20525Y2166D01*
X20520Y2157D01*
X20513Y2148D01*
X20506Y2140D01*
X20505Y2139D01*
X20504Y2138D01*
X20502Y2136D01*
X20499Y2133D01*
X20495Y2130D01*
X20490Y2126D01*
X20485Y2122D01*
X20478Y2118D01*
X20464Y2111D01*
X20447Y2103D01*
X20437Y2101D01*
X20427Y2099D01*
X20416Y2098D01*
X20405Y2097D01*
X20399D01*
X20393Y2098D01*
X20385Y2098D01*
X20375Y2100D01*
X20364Y2102D01*
X20352Y2105D01*
X20340Y2109D01*
X20339Y2110D01*
X20335Y2111D01*
X20329Y2114D01*
X20321Y2119D01*
X20311Y2124D01*
X20300Y2130D01*
X20289Y2138D01*
X20276Y2148D01*
X20276Y2149D01*
X20272Y2152D01*
X20267Y2156D01*
X20260Y2163D01*
X20251Y2171D01*
X20239Y2182D01*
X20227Y2195D01*
X20211Y2211D01*
X20211Y2212D01*
X20210Y2214D01*
X20208Y2216D01*
X20205Y2219D01*
X20198Y2227D01*
X20189Y2236D01*
X20179Y2246D01*
X20170Y2255D01*
X20162Y2264D01*
X20158Y2267D01*
X20155Y2270D01*
X20155Y2270D01*
X20153Y2272D01*
X20150Y2274D01*
X20147Y2277D01*
X20139Y2284D01*
X20129Y2289D01*
Y2097D01*
X20039D01*
Y2436D01*
X20042D01*
X20044Y2435D01*
D02*
G37*
G36*
X20544Y9719D02*
Y9718D01*
Y9714D01*
Y9710D01*
Y9704D01*
Y9696D01*
X20543Y9688D01*
Y9679D01*
Y9669D01*
X20542Y9649D01*
X20540Y9628D01*
X20539Y9619D01*
X20539Y9611D01*
X20537Y9603D01*
X20536Y9598D01*
Y9597D01*
X20535Y9595D01*
X20534Y9593D01*
X20534Y9590D01*
X20530Y9582D01*
X20526Y9572D01*
X20519Y9561D01*
X20510Y9549D01*
X20499Y9537D01*
X20486Y9525D01*
X20486D01*
X20485Y9524D01*
X20483Y9522D01*
X20480Y9521D01*
X20475Y9518D01*
X20471Y9516D01*
X20466Y9513D01*
X20460Y9510D01*
X20445Y9505D01*
X20429Y9500D01*
X20410Y9497D01*
X20389Y9496D01*
X20381D01*
X20377Y9496D01*
X20372D01*
X20362Y9498D01*
X20349Y9500D01*
X20335Y9503D01*
X20322Y9507D01*
X20310Y9513D01*
X20308Y9514D01*
X20305Y9516D01*
X20299Y9520D01*
X20292Y9525D01*
X20284Y9531D01*
X20276Y9539D01*
X20268Y9547D01*
X20260Y9556D01*
X20260Y9557D01*
X20257Y9560D01*
X20254Y9566D01*
X20251Y9572D01*
X20246Y9580D01*
X20243Y9589D01*
X20239Y9598D01*
X20236Y9609D01*
Y9609D01*
Y9610D01*
X20235Y9612D01*
Y9615D01*
X20235Y9619D01*
X20234Y9624D01*
X20233Y9629D01*
Y9635D01*
X20233Y9642D01*
X20232Y9650D01*
X20231Y9659D01*
X20230Y9668D01*
Y9679D01*
X20230Y9689D01*
Y9701D01*
Y9713D01*
Y9780D01*
X20039D01*
Y9882D01*
X20544D01*
Y9719D01*
D02*
G37*
G36*
X20301Y8923D02*
X20308D01*
X20315Y8923D01*
X20324Y8922D01*
X20333Y8921D01*
X20354Y8918D01*
X20375Y8915D01*
X20397Y8909D01*
X20418Y8901D01*
X20418D01*
X20419Y8901D01*
X20421Y8899D01*
X20424Y8898D01*
X20432Y8894D01*
X20441Y8889D01*
X20452Y8882D01*
X20463Y8874D01*
X20475Y8865D01*
X20487Y8855D01*
X20488Y8854D01*
X20488Y8853D01*
X20492Y8850D01*
X20498Y8843D01*
X20504Y8835D01*
X20512Y8826D01*
X20520Y8815D01*
X20527Y8802D01*
X20533Y8789D01*
Y8788D01*
X20534Y8787D01*
X20535Y8784D01*
X20536Y8780D01*
X20538Y8776D01*
X20539Y8771D01*
X20541Y8764D01*
X20543Y8758D01*
X20547Y8742D01*
X20550Y8724D01*
X20553Y8702D01*
X20553Y8680D01*
Y8679D01*
Y8675D01*
X20553Y8670D01*
Y8662D01*
X20551Y8653D01*
X20550Y8642D01*
X20547Y8629D01*
X20545Y8616D01*
X20541Y8602D01*
X20537Y8588D01*
X20531Y8573D01*
X20524Y8558D01*
X20516Y8543D01*
X20507Y8529D01*
X20496Y8515D01*
X20483Y8502D01*
X20483Y8501D01*
X20480Y8499D01*
X20476Y8495D01*
X20471Y8492D01*
X20464Y8487D01*
X20455Y8481D01*
X20445Y8475D01*
X20433Y8468D01*
X20421Y8462D01*
X20406Y8456D01*
X20390Y8450D01*
X20373Y8445D01*
X20354Y8441D01*
X20335Y8438D01*
X20313Y8436D01*
X20291Y8435D01*
X20286D01*
X20279Y8436D01*
X20270D01*
X20260Y8437D01*
X20249Y8438D01*
X20235Y8441D01*
X20221Y8443D01*
X20206Y8446D01*
X20190Y8451D01*
X20174Y8457D01*
X20157Y8463D01*
X20142Y8471D01*
X20127Y8480D01*
X20112Y8490D01*
X20098Y8502D01*
X20098Y8503D01*
X20096Y8505D01*
X20092Y8508D01*
X20087Y8514D01*
X20082Y8521D01*
X20077Y8529D01*
X20071Y8538D01*
X20064Y8549D01*
X20058Y8561D01*
X20052Y8574D01*
X20046Y8589D01*
X20041Y8605D01*
X20036Y8621D01*
X20033Y8640D01*
X20031Y8659D01*
X20030Y8679D01*
Y8680D01*
Y8684D01*
X20031Y8690D01*
X20031Y8697D01*
X20032Y8707D01*
X20034Y8718D01*
X20036Y8730D01*
X20039Y8743D01*
X20042Y8758D01*
X20047Y8772D01*
X20052Y8787D01*
X20059Y8802D01*
X20066Y8817D01*
X20076Y8831D01*
X20086Y8845D01*
X20098Y8858D01*
X20099Y8858D01*
X20101Y8861D01*
X20106Y8863D01*
X20111Y8868D01*
X20118Y8873D01*
X20127Y8879D01*
X20136Y8885D01*
X20148Y8890D01*
X20160Y8897D01*
X20175Y8903D01*
X20190Y8909D01*
X20207Y8914D01*
X20225Y8918D01*
X20245Y8921D01*
X20266Y8923D01*
X20288Y8924D01*
X20295D01*
X20301Y8923D01*
D02*
G37*
G36*
X20544Y8211D02*
Y8103D01*
X20039Y7900D01*
Y8011D01*
X20154Y8054D01*
Y8257D01*
X20039Y8299D01*
Y8406D01*
X20544Y8211D01*
D02*
G37*
G36*
X20271Y7668D02*
X20174D01*
Y7858D01*
X20271D01*
Y7668D01*
D02*
G37*
G36*
X20312Y3207D02*
X20324Y3206D01*
X20338Y3205D01*
X20352Y3204D01*
X20368Y3202D01*
X20385Y3199D01*
X20402Y3196D01*
X20419Y3192D01*
X20436Y3187D01*
X20452Y3182D01*
X20467Y3175D01*
X20482Y3168D01*
X20494Y3159D01*
X20495Y3158D01*
X20496Y3157D01*
X20499Y3155D01*
X20502Y3151D01*
X20507Y3147D01*
X20511Y3142D01*
X20515Y3136D01*
X20521Y3129D01*
X20526Y3121D01*
X20530Y3113D01*
X20534Y3104D01*
X20539Y3093D01*
X20542Y3083D01*
X20545Y3070D01*
X20546Y3058D01*
X20547Y3045D01*
Y3044D01*
Y3042D01*
Y3037D01*
X20546Y3032D01*
X20545Y3026D01*
X20544Y3019D01*
X20542Y3012D01*
X20540Y3003D01*
X20537Y2994D01*
X20534Y2985D01*
X20530Y2975D01*
X20525Y2966D01*
X20518Y2956D01*
X20512Y2947D01*
X20504Y2938D01*
X20494Y2930D01*
X20494Y2929D01*
X20491Y2928D01*
X20488Y2926D01*
X20483Y2922D01*
X20475Y2918D01*
X20467Y2914D01*
X20457Y2910D01*
X20445Y2905D01*
X20432Y2901D01*
X20416Y2896D01*
X20399Y2892D01*
X20381Y2889D01*
X20360Y2885D01*
X20338Y2883D01*
X20314Y2881D01*
X20288Y2881D01*
X20274D01*
X20265Y2881D01*
X20253Y2882D01*
X20239Y2883D01*
X20225Y2885D01*
X20208Y2886D01*
X20192Y2889D01*
X20174Y2893D01*
X20157Y2897D01*
X20141Y2902D01*
X20124Y2907D01*
X20109Y2914D01*
X20094Y2921D01*
X20082Y2930D01*
X20081Y2931D01*
X20079Y2932D01*
X20077Y2935D01*
X20074Y2937D01*
X20070Y2942D01*
X20066Y2947D01*
X20061Y2953D01*
X20056Y2960D01*
X20051Y2968D01*
X20046Y2976D01*
X20042Y2986D01*
X20038Y2996D01*
X20035Y3007D01*
X20032Y3019D01*
X20031Y3031D01*
X20030Y3045D01*
Y3045D01*
Y3048D01*
X20031Y3052D01*
Y3057D01*
X20031Y3063D01*
X20033Y3070D01*
X20034Y3078D01*
X20037Y3087D01*
X20040Y3096D01*
X20044Y3106D01*
X20048Y3116D01*
X20054Y3126D01*
X20060Y3136D01*
X20068Y3145D01*
X20076Y3155D01*
X20086Y3163D01*
X20087Y3164D01*
X20089Y3166D01*
X20093Y3168D01*
X20097Y3170D01*
X20104Y3174D01*
X20112Y3177D01*
X20122Y3182D01*
X20133Y3185D01*
X20146Y3190D01*
X20160Y3194D01*
X20177Y3198D01*
X20195Y3201D01*
X20216Y3204D01*
X20238Y3206D01*
X20262Y3207D01*
X20289Y3208D01*
X20303D01*
X20312Y3207D01*
D02*
G37*
%LPC*%
G36*
X20304Y2714D02*
X20266D01*
X20258Y2713D01*
X20249D01*
X20239Y2712D01*
X20219Y2711D01*
X20198Y2710D01*
X20189Y2709D01*
X20180Y2708D01*
X20172Y2706D01*
X20165Y2705D01*
X20163Y2704D01*
X20160Y2703D01*
X20154Y2701D01*
X20147Y2699D01*
X20140Y2695D01*
X20133Y2692D01*
X20126Y2687D01*
X20121Y2683D01*
X20120Y2682D01*
X20120Y2681D01*
X20117Y2678D01*
X20116Y2674D01*
X20114Y2670D01*
X20112Y2665D01*
X20111Y2659D01*
X20110Y2652D01*
Y2652D01*
Y2649D01*
X20111Y2646D01*
X20112Y2642D01*
X20113Y2637D01*
X20114Y2632D01*
X20117Y2627D01*
X20121Y2622D01*
X20122Y2621D01*
X20123Y2620D01*
X20126Y2617D01*
X20131Y2614D01*
X20136Y2611D01*
X20143Y2607D01*
X20151Y2604D01*
X20161Y2601D01*
X20162D01*
X20163Y2600D01*
X20165D01*
X20168Y2599D01*
X20173Y2598D01*
X20178Y2598D01*
X20184Y2596D01*
X20191Y2596D01*
X20199Y2595D01*
X20208Y2593D01*
X20219Y2593D01*
X20230Y2592D01*
X20243Y2591D01*
X20257D01*
X20272Y2590D01*
X20310D01*
X20318Y2591D01*
X20327D01*
X20337Y2592D01*
X20357Y2593D01*
X20377Y2594D01*
X20386Y2596D01*
X20396Y2597D01*
X20404Y2598D01*
X20410Y2600D01*
X20411D01*
X20412Y2601D01*
X20416Y2601D01*
X20421Y2604D01*
X20429Y2606D01*
X20436Y2609D01*
X20443Y2613D01*
X20450Y2617D01*
X20455Y2622D01*
X20456Y2623D01*
X20457Y2624D01*
X20459Y2627D01*
X20461Y2631D01*
X20463Y2635D01*
X20465Y2640D01*
X20466Y2646D01*
X20467Y2652D01*
Y2653D01*
Y2655D01*
X20466Y2659D01*
X20465Y2663D01*
X20464Y2668D01*
X20461Y2673D01*
X20459Y2679D01*
X20455Y2684D01*
X20454Y2684D01*
X20453Y2686D01*
X20450Y2688D01*
X20446Y2691D01*
X20440Y2695D01*
X20434Y2698D01*
X20425Y2701D01*
X20415Y2704D01*
X20414D01*
X20413Y2705D01*
X20410D01*
X20408Y2706D01*
X20403Y2706D01*
X20398Y2707D01*
X20392Y2708D01*
X20385Y2709D01*
X20376Y2710D01*
X20367Y2711D01*
X20356Y2711D01*
X20346Y2712D01*
X20332Y2713D01*
X20319D01*
X20304Y2714D01*
D02*
G37*
G36*
Y3106D02*
X20266D01*
X20258Y3105D01*
X20249D01*
X20239Y3104D01*
X20219Y3104D01*
X20198Y3102D01*
X20189Y3101D01*
X20180Y3100D01*
X20172Y3099D01*
X20165Y3097D01*
X20163Y3096D01*
X20160Y3096D01*
X20154Y3093D01*
X20147Y3091D01*
X20140Y3088D01*
X20133Y3084D01*
X20126Y3080D01*
X20121Y3075D01*
X20120Y3074D01*
X20120Y3073D01*
X20117Y3070D01*
X20116Y3066D01*
X20114Y3062D01*
X20112Y3057D01*
X20111Y3051D01*
X20110Y3045D01*
Y3044D01*
Y3042D01*
X20111Y3038D01*
X20112Y3034D01*
X20113Y3029D01*
X20114Y3024D01*
X20117Y3019D01*
X20121Y3014D01*
X20122Y3013D01*
X20123Y3012D01*
X20126Y3009D01*
X20131Y3006D01*
X20136Y3003D01*
X20143Y2999D01*
X20151Y2996D01*
X20161Y2993D01*
X20162D01*
X20163Y2992D01*
X20165D01*
X20168Y2991D01*
X20173Y2991D01*
X20178Y2990D01*
X20184Y2988D01*
X20191Y2988D01*
X20199Y2987D01*
X20208Y2986D01*
X20219Y2985D01*
X20230Y2984D01*
X20243Y2983D01*
X20257D01*
X20272Y2983D01*
X20310D01*
X20318Y2983D01*
X20327D01*
X20337Y2984D01*
X20357Y2985D01*
X20377Y2986D01*
X20386Y2988D01*
X20396Y2989D01*
X20404Y2991D01*
X20410Y2992D01*
X20411D01*
X20412Y2993D01*
X20416Y2994D01*
X20421Y2996D01*
X20429Y2998D01*
X20436Y3002D01*
X20443Y3005D01*
X20450Y3010D01*
X20455Y3014D01*
X20456Y3015D01*
X20457Y3016D01*
X20459Y3019D01*
X20461Y3023D01*
X20463Y3027D01*
X20465Y3032D01*
X20466Y3038D01*
X20467Y3045D01*
Y3045D01*
Y3048D01*
X20466Y3051D01*
X20465Y3055D01*
X20464Y3060D01*
X20461Y3065D01*
X20459Y3071D01*
X20455Y3076D01*
X20454Y3077D01*
X20453Y3078D01*
X20450Y3080D01*
X20446Y3083D01*
X20440Y3087D01*
X20434Y3090D01*
X20425Y3093D01*
X20415Y3096D01*
X20414D01*
X20413Y3097D01*
X20410D01*
X20408Y3098D01*
X20403Y3099D01*
X20398Y3099D01*
X20392Y3100D01*
X20385Y3101D01*
X20376Y3102D01*
X20367Y3103D01*
X20356Y3104D01*
X20346Y3104D01*
X20332Y3105D01*
X20319D01*
X20304Y3106D01*
D02*
G37*
G36*
X20292Y8819D02*
X20284D01*
X20278Y8818D01*
X20270Y8818D01*
X20262Y8817D01*
X20253Y8815D01*
X20243Y8814D01*
X20222Y8810D01*
X20200Y8802D01*
X20190Y8798D01*
X20179Y8793D01*
X20170Y8786D01*
X20161Y8780D01*
X20160Y8779D01*
X20159Y8777D01*
X20157Y8775D01*
X20155Y8772D01*
X20151Y8769D01*
X20147Y8764D01*
X20143Y8759D01*
X20139Y8752D01*
X20131Y8738D01*
X20124Y8721D01*
X20121Y8711D01*
X20119Y8701D01*
X20117Y8690D01*
X20117Y8679D01*
Y8678D01*
Y8676D01*
Y8673D01*
X20117Y8669D01*
X20118Y8664D01*
X20119Y8658D01*
X20122Y8644D01*
X20128Y8628D01*
X20131Y8620D01*
X20135Y8611D01*
X20140Y8603D01*
X20146Y8594D01*
X20152Y8586D01*
X20160Y8579D01*
X20161Y8578D01*
X20163Y8578D01*
X20165Y8576D01*
X20168Y8573D01*
X20174Y8570D01*
X20179Y8567D01*
X20186Y8563D01*
X20194Y8559D01*
X20203Y8556D01*
X20212Y8552D01*
X20223Y8549D01*
X20235Y8546D01*
X20248Y8543D01*
X20262Y8541D01*
X20277Y8541D01*
X20293Y8540D01*
X20301D01*
X20308Y8541D01*
X20315Y8541D01*
X20323Y8542D01*
X20332Y8543D01*
X20342Y8545D01*
X20363Y8549D01*
X20385Y8556D01*
X20396Y8560D01*
X20405Y8565D01*
X20415Y8572D01*
X20424Y8578D01*
X20424Y8579D01*
X20426Y8580D01*
X20427Y8582D01*
X20430Y8585D01*
X20434Y8589D01*
X20437Y8594D01*
X20441Y8599D01*
X20445Y8605D01*
X20449Y8612D01*
X20453Y8620D01*
X20460Y8637D01*
X20463Y8646D01*
X20464Y8656D01*
X20466Y8667D01*
X20467Y8679D01*
Y8680D01*
Y8682D01*
Y8685D01*
X20466Y8689D01*
X20465Y8695D01*
X20464Y8701D01*
X20461Y8715D01*
X20456Y8732D01*
X20453Y8740D01*
X20448Y8749D01*
X20443Y8757D01*
X20437Y8766D01*
X20431Y8774D01*
X20423Y8781D01*
X20422Y8782D01*
X20421Y8783D01*
X20418Y8785D01*
X20415Y8787D01*
X20410Y8790D01*
X20405Y8793D01*
X20398Y8796D01*
X20390Y8800D01*
X20381Y8804D01*
X20372Y8807D01*
X20361Y8810D01*
X20349Y8813D01*
X20336Y8815D01*
X20322Y8818D01*
X20308Y8818D01*
X20292Y8819D01*
D02*
G37*
G36*
X20459Y9310D02*
X20125D01*
Y9235D01*
Y9234D01*
Y9232D01*
Y9230D01*
Y9227D01*
Y9220D01*
X20125Y9210D01*
Y9200D01*
X20127Y9190D01*
X20128Y9181D01*
X20129Y9173D01*
Y9171D01*
X20131Y9168D01*
X20132Y9164D01*
X20134Y9158D01*
X20137Y9151D01*
X20141Y9145D01*
X20145Y9138D01*
X20150Y9132D01*
X20151Y9131D01*
X20153Y9129D01*
X20157Y9126D01*
X20162Y9122D01*
X20168Y9119D01*
X20176Y9114D01*
X20187Y9110D01*
X20198Y9106D01*
X20199D01*
X20200Y9105D01*
X20202D01*
X20205Y9104D01*
X20208Y9103D01*
X20212Y9102D01*
X20223Y9100D01*
X20236Y9098D01*
X20252Y9096D01*
X20270Y9095D01*
X20291Y9095D01*
X20305D01*
X20311Y9095D01*
X20324Y9096D01*
X20338Y9097D01*
X20354Y9099D01*
X20367Y9102D01*
X20381Y9106D01*
X20381D01*
X20382Y9106D01*
X20386Y9108D01*
X20391Y9110D01*
X20399Y9113D01*
X20406Y9117D01*
X20414Y9122D01*
X20422Y9128D01*
X20429Y9135D01*
X20430Y9135D01*
X20432Y9138D01*
X20435Y9142D01*
X20439Y9147D01*
X20443Y9154D01*
X20447Y9162D01*
X20451Y9171D01*
X20453Y9181D01*
Y9182D01*
X20454Y9186D01*
X20455Y9192D01*
X20456Y9200D01*
Y9205D01*
X20457Y9211D01*
Y9218D01*
X20458Y9225D01*
Y9234D01*
X20459Y9243D01*
Y9253D01*
Y9264D01*
Y9310D01*
D02*
G37*
G36*
Y9780D02*
X20315D01*
Y9724D01*
Y9724D01*
Y9722D01*
Y9719D01*
Y9715D01*
Y9710D01*
X20316Y9705D01*
Y9692D01*
X20316Y9679D01*
X20318Y9665D01*
X20320Y9654D01*
X20321Y9649D01*
X20322Y9644D01*
X20323Y9644D01*
X20324Y9641D01*
X20326Y9637D01*
X20328Y9633D01*
X20332Y9627D01*
X20336Y9622D01*
X20341Y9617D01*
X20347Y9612D01*
X20348Y9611D01*
X20350Y9610D01*
X20354Y9609D01*
X20359Y9606D01*
X20364Y9604D01*
X20371Y9602D01*
X20378Y9601D01*
X20386Y9600D01*
X20391D01*
X20396Y9601D01*
X20402Y9603D01*
X20410Y9605D01*
X20418Y9608D01*
X20425Y9611D01*
X20432Y9617D01*
X20433Y9618D01*
X20435Y9620D01*
X20438Y9624D01*
X20442Y9628D01*
X20446Y9634D01*
X20450Y9641D01*
X20453Y9649D01*
X20455Y9658D01*
Y9659D01*
X20456Y9662D01*
X20456Y9667D01*
X20457Y9674D01*
Y9684D01*
X20458Y9690D01*
Y9697D01*
X20459Y9704D01*
Y9712D01*
Y9721D01*
Y9731D01*
Y9780D01*
D02*
G37*
G36*
X20239Y8226D02*
Y8087D01*
X20426Y8158D01*
X20239Y8226D01*
D02*
G37*
G36*
X20459Y5238D02*
X20125D01*
Y5163D01*
Y5162D01*
Y5161D01*
Y5159D01*
Y5156D01*
Y5148D01*
X20125Y5139D01*
Y5129D01*
X20127Y5119D01*
X20128Y5109D01*
X20129Y5101D01*
Y5100D01*
X20131Y5097D01*
X20132Y5092D01*
X20134Y5087D01*
X20137Y5080D01*
X20141Y5073D01*
X20145Y5067D01*
X20150Y5060D01*
X20151Y5060D01*
X20153Y5057D01*
X20157Y5054D01*
X20162Y5051D01*
X20168Y5047D01*
X20176Y5042D01*
X20187Y5038D01*
X20198Y5034D01*
X20199D01*
X20200Y5033D01*
X20202D01*
X20205Y5033D01*
X20208Y5031D01*
X20212Y5030D01*
X20223Y5028D01*
X20236Y5027D01*
X20252Y5025D01*
X20270Y5024D01*
X20291Y5023D01*
X20305D01*
X20311Y5024D01*
X20324Y5025D01*
X20338Y5026D01*
X20354Y5027D01*
X20367Y5030D01*
X20381Y5034D01*
X20381D01*
X20382Y5035D01*
X20386Y5036D01*
X20391Y5038D01*
X20399Y5041D01*
X20406Y5046D01*
X20414Y5051D01*
X20422Y5057D01*
X20429Y5063D01*
X20430Y5064D01*
X20432Y5066D01*
X20435Y5070D01*
X20439Y5076D01*
X20443Y5083D01*
X20447Y5091D01*
X20451Y5100D01*
X20453Y5110D01*
Y5111D01*
X20454Y5114D01*
X20455Y5120D01*
X20456Y5128D01*
Y5133D01*
X20457Y5140D01*
Y5146D01*
X20458Y5154D01*
Y5162D01*
X20459Y5172D01*
Y5182D01*
Y5193D01*
Y5238D01*
D02*
G37*
G36*
Y6452D02*
X20125D01*
Y6377D01*
Y6376D01*
Y6375D01*
Y6372D01*
Y6370D01*
Y6362D01*
X20125Y6353D01*
Y6343D01*
X20127Y6332D01*
X20128Y6323D01*
X20129Y6315D01*
Y6313D01*
X20131Y6311D01*
X20132Y6306D01*
X20134Y6300D01*
X20137Y6294D01*
X20141Y6287D01*
X20145Y6281D01*
X20150Y6274D01*
X20151Y6273D01*
X20153Y6271D01*
X20157Y6268D01*
X20162Y6265D01*
X20168Y6261D01*
X20176Y6256D01*
X20187Y6252D01*
X20198Y6248D01*
X20199D01*
X20200Y6247D01*
X20202D01*
X20205Y6246D01*
X20208Y6245D01*
X20212Y6244D01*
X20223Y6242D01*
X20236Y6241D01*
X20252Y6238D01*
X20270Y6238D01*
X20291Y6237D01*
X20305D01*
X20311Y6238D01*
X20324Y6238D01*
X20338Y6240D01*
X20354Y6241D01*
X20367Y6244D01*
X20381Y6248D01*
X20381D01*
X20382Y6249D01*
X20386Y6250D01*
X20391Y6252D01*
X20399Y6255D01*
X20406Y6259D01*
X20414Y6265D01*
X20422Y6270D01*
X20429Y6277D01*
X20430Y6278D01*
X20432Y6280D01*
X20435Y6284D01*
X20439Y6289D01*
X20443Y6297D01*
X20447Y6305D01*
X20451Y6313D01*
X20453Y6324D01*
Y6324D01*
X20454Y6328D01*
X20455Y6334D01*
X20456Y6342D01*
Y6347D01*
X20457Y6354D01*
Y6360D01*
X20458Y6367D01*
Y6376D01*
X20459Y6386D01*
Y6396D01*
Y6407D01*
Y6452D01*
D02*
G37*
G36*
X20292Y7018D02*
X20284D01*
X20278Y7018D01*
X20270Y7017D01*
X20262Y7016D01*
X20253Y7015D01*
X20243Y7013D01*
X20222Y7009D01*
X20200Y7002D01*
X20190Y6997D01*
X20179Y6992D01*
X20170Y6986D01*
X20161Y6979D01*
X20160Y6978D01*
X20159Y6977D01*
X20157Y6975D01*
X20155Y6972D01*
X20151Y6968D01*
X20147Y6963D01*
X20143Y6958D01*
X20139Y6951D01*
X20131Y6937D01*
X20124Y6920D01*
X20121Y6910D01*
X20119Y6900D01*
X20117Y6889D01*
X20117Y6878D01*
Y6878D01*
Y6875D01*
Y6873D01*
X20117Y6868D01*
X20118Y6863D01*
X20119Y6857D01*
X20122Y6843D01*
X20128Y6827D01*
X20131Y6819D01*
X20135Y6811D01*
X20140Y6803D01*
X20146Y6794D01*
X20152Y6786D01*
X20160Y6779D01*
X20161Y6778D01*
X20163Y6777D01*
X20165Y6775D01*
X20168Y6773D01*
X20174Y6769D01*
X20179Y6766D01*
X20186Y6762D01*
X20194Y6759D01*
X20203Y6755D01*
X20212Y6752D01*
X20223Y6748D01*
X20235Y6745D01*
X20248Y6743D01*
X20262Y6741D01*
X20277Y6740D01*
X20293Y6739D01*
X20301D01*
X20308Y6740D01*
X20315Y6741D01*
X20323Y6741D01*
X20332Y6742D01*
X20342Y6744D01*
X20363Y6749D01*
X20385Y6755D01*
X20396Y6760D01*
X20405Y6765D01*
X20415Y6771D01*
X20424Y6778D01*
X20424Y6779D01*
X20426Y6779D01*
X20427Y6781D01*
X20430Y6784D01*
X20434Y6789D01*
X20437Y6793D01*
X20441Y6798D01*
X20445Y6805D01*
X20449Y6811D01*
X20453Y6819D01*
X20460Y6836D01*
X20463Y6846D01*
X20464Y6856D01*
X20466Y6867D01*
X20467Y6878D01*
Y6879D01*
Y6881D01*
Y6884D01*
X20466Y6889D01*
X20465Y6894D01*
X20464Y6900D01*
X20461Y6915D01*
X20456Y6931D01*
X20453Y6940D01*
X20448Y6948D01*
X20443Y6956D01*
X20437Y6965D01*
X20431Y6973D01*
X20423Y6980D01*
X20422Y6981D01*
X20421Y6982D01*
X20418Y6984D01*
X20415Y6986D01*
X20410Y6989D01*
X20405Y6992D01*
X20398Y6996D01*
X20390Y6999D01*
X20381Y7003D01*
X20372Y7007D01*
X20361Y7010D01*
X20349Y7013D01*
X20336Y7015D01*
X20322Y7017D01*
X20308Y7018D01*
X20292Y7018D01*
D02*
G37*
%LPD*%
D56*
X11432Y14050D02*
G03*
X11432Y14050I-20J0D01*
G01*
D57*
X1713Y2426D02*
G03*
X1713Y2426I-39J0D01*
G01*
X956Y2972D02*
G03*
X956Y2972I-11J0D01*
G01*
X1339Y13150D02*
X1457D01*
X2008D02*
X2126D01*
X1339Y12441D02*
X1457D01*
X2008D02*
X2126D01*
X472Y12756D02*
Y12835D01*
X1024Y12756D02*
Y12835D01*
X1732Y4931D02*
Y5128D01*
X1083Y4931D02*
Y5128D01*
X11535Y14764D02*
Y15157D01*
X12087Y14764D02*
Y15157D01*
X5866Y12008D02*
Y12136D01*
X5866Y14577D02*
Y14843D01*
X6142D01*
X5866Y12008D02*
X5984D01*
X8593D02*
X8701D01*
X8553Y14843D02*
X8701D01*
Y14715D02*
Y14843D01*
Y12008D02*
Y12146D01*
X12470Y14734D02*
Y14944D01*
X12575Y15049D01*
X12680Y14944D01*
Y14734D01*
Y14892D01*
X12470D01*
X12995Y14734D02*
X12785D01*
X12995Y14944D01*
Y14997D01*
X12943Y15049D01*
X12838D01*
X12785Y14997D01*
X2008Y15630D02*
Y15315D01*
X2165D01*
X2218Y15367D01*
Y15577D01*
X2165Y15630D01*
X2008D01*
X2533Y15315D02*
X2323D01*
X2533Y15525D01*
Y15577D01*
X2480Y15630D01*
X2375D01*
X2323Y15577D01*
D69*
X4094Y4272D02*
Y6043D01*
X2756Y4272D02*
Y6043D01*
X2559Y7189D02*
X3504D01*
X2559Y8087D02*
X3504D01*
X6073Y2355D02*
X6166Y2262D01*
X8223Y2174D02*
X8354D01*
Y2305D01*
Y4405D02*
Y4536D01*
X8223D02*
X8354D01*
X5992D02*
X6123D01*
X5992Y4405D02*
Y4536D01*
X5984Y10066D02*
Y10197D01*
X6115D01*
X8215D02*
X8346D01*
Y10066D02*
Y10197D01*
Y7835D02*
Y7966D01*
X8215Y7835D02*
X8346D01*
X6065Y8016D02*
X6158Y7923D01*
X463Y5181D02*
X649Y4902D01*
Y5181D02*
X463Y4902D01*
X742Y5135D02*
X789Y5181D01*
X882D01*
X929Y5135D01*
Y5088D01*
X882Y5042D01*
X836D01*
X882D01*
X929Y4995D01*
Y4948D01*
X882Y4902D01*
X789D01*
X742Y4948D01*
X8425Y15792D02*
X8612Y15512D01*
Y15792D02*
X8425Y15512D01*
X8705D02*
X8798D01*
X8752D01*
Y15792D01*
X8705Y15745D01*
X5283Y4180D02*
Y3947D01*
X5330Y3900D01*
X5423D01*
X5470Y3947D01*
Y4180D01*
X5563Y4133D02*
X5610Y4180D01*
X5703D01*
X5750Y4133D01*
Y4087D01*
X5703Y4040D01*
X5657D01*
X5703D01*
X5750Y3993D01*
Y3947D01*
X5703Y3900D01*
X5610D01*
X5563Y3947D01*
X3652Y15339D02*
X3838Y15059D01*
Y15339D02*
X3652Y15059D01*
X4118D02*
X3931D01*
X4118Y15246D01*
Y15292D01*
X4071Y15339D01*
X3978D01*
X3931Y15292D01*
X3839Y8174D02*
Y7940D01*
X3885Y7894D01*
X3979D01*
X4025Y7940D01*
Y8174D01*
X4118Y7894D02*
X4212D01*
X4165D01*
Y8174D01*
X4118Y8127D01*
X4352Y7894D02*
X4445D01*
X4398D01*
Y8174D01*
X4352Y8127D01*
X3002Y9994D02*
Y9761D01*
X3049Y9715D01*
X3142D01*
X3189Y9761D01*
Y9994D01*
X3282Y9761D02*
X3329Y9715D01*
X3422D01*
X3468Y9761D01*
Y9948D01*
X3422Y9994D01*
X3329D01*
X3282Y9948D01*
Y9901D01*
X3329Y9855D01*
X3468D01*
X1063Y880D02*
Y647D01*
X1110Y600D01*
X1203D01*
X1250Y647D01*
Y880D01*
X1343D02*
X1530D01*
Y834D01*
X1343Y647D01*
Y600D01*
X5148Y13725D02*
Y13492D01*
X5194Y13445D01*
X5288D01*
X5334Y13492D01*
Y13725D01*
X5614D02*
X5521Y13678D01*
X5428Y13585D01*
Y13492D01*
X5474Y13445D01*
X5567D01*
X5614Y13492D01*
Y13538D01*
X5567Y13585D01*
X5428D01*
X1506Y4266D02*
Y4033D01*
X1553Y3986D01*
X1646D01*
X1693Y4033D01*
Y4266D01*
X1926Y3986D02*
Y4266D01*
X1786Y4126D01*
X1972D01*
X2411Y13557D02*
Y13324D01*
X2458Y13278D01*
X2551D01*
X2598Y13324D01*
Y13557D01*
X2878Y13278D02*
X2691D01*
X2878Y13464D01*
Y13511D01*
X2831Y13557D01*
X2738D01*
X2691Y13511D01*
X8674Y3709D02*
X8861D01*
X8768D01*
Y3429D01*
X9141D02*
X8954D01*
X9141Y3616D01*
Y3662D01*
X9094Y3709D01*
X9001D01*
X8954Y3662D01*
X3228Y2061D02*
Y1828D01*
X3275Y1781D01*
X3368D01*
X3415Y1828D01*
Y2061D01*
X3695D02*
X3508D01*
Y1921D01*
X3602Y1968D01*
X3648D01*
X3695Y1921D01*
Y1828D01*
X3648Y1781D01*
X3555D01*
X3508Y1828D01*
X8725Y9361D02*
X8912D01*
X8819D01*
Y9081D01*
X9005D02*
X9099D01*
X9052D01*
Y9361D01*
X9005Y9314D01*
X5355Y9931D02*
Y9697D01*
X5402Y9651D01*
X5495D01*
X5542Y9697D01*
Y9931D01*
X5635Y9651D02*
X5729D01*
X5682D01*
Y9931D01*
X5635Y9884D01*
X4193Y5211D02*
Y4978D01*
X4240Y4931D01*
X4333D01*
X4380Y4978D01*
Y5211D01*
X4473Y5164D02*
X4519Y5211D01*
X4613D01*
X4659Y5164D01*
Y5118D01*
X4613Y5071D01*
X4659Y5024D01*
Y4978D01*
X4613Y4931D01*
X4519D01*
X4473Y4978D01*
Y5024D01*
X4519Y5071D01*
X4473Y5118D01*
Y5164D01*
X4519Y5071D02*
X4613D01*
X2421Y6742D02*
Y7022D01*
X2561D01*
X2608Y6975D01*
Y6882D01*
X2561Y6835D01*
X2421D01*
X8720Y4320D02*
X8533D01*
X8720Y4507D01*
Y4553D01*
X8673Y4600D01*
X8580D01*
X8533Y4553D01*
X8953Y4320D02*
Y4600D01*
X8813Y4460D01*
X9000D01*
X5613Y4803D02*
X5660Y4850D01*
X5753D01*
X5800Y4803D01*
Y4757D01*
X5753Y4710D01*
X5707D01*
X5753D01*
X5800Y4663D01*
Y4617D01*
X5753Y4570D01*
X5660D01*
X5613Y4617D01*
X6080Y4850D02*
X5987Y4803D01*
X5893Y4710D01*
Y4617D01*
X5940Y4570D01*
X6033D01*
X6080Y4617D01*
Y4663D01*
X6033Y4710D01*
X5893D01*
X6920Y4570D02*
X7013D01*
X7246D01*
X6966D01*
X6920Y4663D01*
X5605Y10464D02*
X5652Y10511D01*
X5745D01*
X5792Y10464D01*
Y10417D01*
X5745Y10371D01*
X5699D01*
X5745D01*
X5792Y10324D01*
Y10277D01*
X5745Y10231D01*
X5652D01*
X5605Y10277D01*
X6072Y10511D02*
X5979Y10464D01*
X5885Y10371D01*
Y10277D01*
X5932Y10231D01*
X6025D01*
X6072Y10277D01*
Y10324D01*
X6025Y10371D01*
X5885D01*
X6912Y10231D02*
X7005D01*
X7238D01*
X6958D01*
X6912Y10324D01*
X8898Y9970D02*
Y9783D01*
X8711Y9970D01*
X8664D01*
X8618Y9923D01*
Y9830D01*
X8664Y9783D01*
X8898Y10203D02*
X8618D01*
X8758Y10063D01*
Y10250D01*
D70*
X1299Y13307D02*
G03*
X1299Y13307I-39J0D01*
G01*
X2323Y1260D02*
G03*
X2323Y1260I-39J0D01*
G01*
X935Y5374D02*
G03*
X935Y5374I-20J0D01*
G01*
D100*
X4183Y8819D02*
G03*
X4183Y8819I-10J0D01*
G01*
X9943Y3780D02*
G03*
X9943Y3780I-10J0D01*
G01*
X2372Y8287D02*
G03*
X2372Y8287I-10J0D01*
G01*
X6033Y2155D02*
G03*
X6033Y2155I-10J0D01*
G01*
X6025Y7816D02*
G03*
X6025Y7816I-10J0D01*
G01*
X9935Y9441D02*
G03*
X9935Y9441I-10J0D01*
G01*
D103*
X2726Y4035D02*
G03*
X2726Y4035I-10J0D01*
G01*
D104*
X5748Y14715D02*
G03*
X5748Y14715I-49J0D01*
G01*
D105*
X3858Y14882D02*
X4331D01*
X3858Y14252D02*
X4331D01*
X8858Y15236D02*
Y15315D01*
X9961Y15236D02*
Y15315D01*
X9331Y15709D02*
X9488D01*
X9331Y14843D02*
X9488D01*
D106*
X2717Y9582D02*
X3661D01*
X2717Y8646D02*
X3661D01*
X1579Y6742D02*
Y8081D01*
X2279Y6742D02*
Y8081D01*
X11780Y3460D02*
Y4660D01*
X10607Y3454D02*
X11780D01*
X10607Y3460D02*
Y4660D01*
Y4666D02*
X11780D01*
X1432Y13201D02*
X2269D01*
Y13649D01*
X1432D02*
X2269D01*
X1432Y13201D02*
Y13649D01*
X9449Y6604D02*
Y7726D01*
X10079Y6604D02*
Y7726D01*
X5140Y6700D02*
Y7822D01*
X5770Y6700D02*
Y7822D01*
X9862Y11398D02*
Y12520D01*
X10492Y11398D02*
Y12520D01*
X5758Y1014D02*
Y2136D01*
X5128Y1014D02*
Y2136D01*
X10599Y10327D02*
X11772D01*
X10599Y9121D02*
Y10321D01*
Y9115D02*
X11772D01*
Y9121D02*
Y10321D01*
D107*
X9254Y2512D02*
Y3568D01*
Y2512D02*
X10113D01*
Y3568D01*
X9254D02*
X10113D01*
X4748Y5988D02*
Y11383D01*
Y5988D02*
X10522D01*
Y11383D01*
X4748D02*
X10522D01*
X9246Y9228D02*
X10104D01*
Y8173D02*
Y9228D01*
X9246Y8173D02*
X10104D01*
X9246D02*
Y9228D01*
X4756Y327D02*
Y5723D01*
Y327D02*
X10530D01*
Y5723D01*
X4756D02*
X10530D01*
D108*
X20696Y9289D02*
Y9294D01*
X20699Y9286D02*
Y9296D01*
X20701Y9284D02*
Y9299D01*
X20704Y9281D02*
Y9301D01*
X20706Y9279D02*
Y9304D01*
X20709Y9276D02*
Y9306D01*
X20711Y9274D02*
Y9309D01*
X20714Y9271D02*
Y9311D01*
X20716Y9269D02*
Y9314D01*
X20719Y9266D02*
Y9316D01*
X20721Y9264D02*
Y9319D01*
X20724Y9261D02*
Y9321D01*
X20726Y9259D02*
Y9324D01*
X20729Y9256D02*
Y9326D01*
X20731Y9254D02*
Y9329D01*
X20734Y9251D02*
Y9331D01*
X20736Y9249D02*
Y9334D01*
X20739Y9246D02*
Y9336D01*
X20741Y9244D02*
Y9339D01*
X20744Y9241D02*
Y9341D01*
X20746Y9239D02*
Y9344D01*
X20749Y9236D02*
Y9346D01*
X20751Y9234D02*
Y9349D01*
X20754Y9231D02*
Y9351D01*
X20756Y9229D02*
Y9354D01*
X20759Y9226D02*
Y9356D01*
X20761Y9224D02*
Y9359D01*
X20764Y9221D02*
Y9361D01*
X20766Y9219D02*
Y9364D01*
X20769Y9216D02*
Y9366D01*
X20771Y9214D02*
Y9369D01*
X20774Y9211D02*
Y9371D01*
X20776Y9209D02*
Y9374D01*
X20779Y9206D02*
Y9376D01*
X20781Y9204D02*
Y9379D01*
X20784Y9201D02*
Y9381D01*
X20786Y9199D02*
Y9384D01*
X20789Y9196D02*
Y9386D01*
X20791Y9194D02*
Y9389D01*
X20794Y9191D02*
Y9391D01*
X20796Y9189D02*
Y9394D01*
X20799Y9186D02*
Y9396D01*
X20801Y9184D02*
Y9399D01*
X20804Y9181D02*
Y9401D01*
X20806Y9179D02*
Y9404D01*
X20809Y9176D02*
Y9406D01*
X20811Y9174D02*
Y9409D01*
X20814Y9171D02*
Y9411D01*
X20816Y9169D02*
Y9414D01*
X20819Y9166D02*
Y9416D01*
X20821Y9164D02*
Y9419D01*
X20824Y9161D02*
Y9421D01*
X20826Y9159D02*
Y9424D01*
X20829Y9156D02*
Y9426D01*
X20831Y9154D02*
Y9429D01*
X20834Y9151D02*
Y9431D01*
X20836Y9149D02*
Y9434D01*
X20839Y9146D02*
Y9436D01*
X20841Y9144D02*
Y9439D01*
X20844Y9141D02*
Y9441D01*
X20846Y9139D02*
Y9444D01*
X20849Y9136D02*
Y9446D01*
X20851Y9134D02*
Y9449D01*
X20854Y9131D02*
Y9291D01*
Y9294D02*
Y9451D01*
X20856Y9129D02*
Y9289D01*
Y9296D02*
Y9454D01*
X20859Y9126D02*
Y9286D01*
Y9299D02*
Y9456D01*
X20861Y9124D02*
Y9284D01*
Y9301D02*
Y9459D01*
X20864Y9121D02*
Y9281D01*
Y9304D02*
Y9461D01*
X20866Y9119D02*
Y9279D01*
Y9306D02*
Y9464D01*
X20869Y9116D02*
Y9276D01*
Y9309D02*
Y9466D01*
X20871Y9114D02*
Y9274D01*
Y9311D02*
Y9469D01*
X20874Y9111D02*
Y9271D01*
Y9314D02*
Y9471D01*
X20876Y9109D02*
Y9269D01*
Y9316D02*
Y9474D01*
X20879Y9106D02*
Y9266D01*
Y9319D02*
Y9476D01*
X20881Y9104D02*
Y9264D01*
Y9321D02*
Y9479D01*
X20884Y9101D02*
Y9261D01*
Y9324D02*
Y9481D01*
X20886Y9099D02*
Y9259D01*
Y9326D02*
Y9484D01*
X20889Y9096D02*
Y9256D01*
Y9329D02*
Y9486D01*
X20891Y9094D02*
Y9254D01*
Y9331D02*
Y9489D01*
X20894Y9091D02*
Y9251D01*
Y9334D02*
Y9491D01*
X20896Y9089D02*
Y9249D01*
Y9336D02*
Y9494D01*
X20899Y9086D02*
Y9246D01*
Y9339D02*
Y9496D01*
X20901Y9084D02*
Y9244D01*
Y9341D02*
Y9499D01*
X20904Y9081D02*
Y9241D01*
Y9344D02*
Y9501D01*
X20906Y9079D02*
Y9239D01*
Y9346D02*
Y9504D01*
X20909Y9076D02*
Y9236D01*
Y9349D02*
Y9506D01*
X20911Y9074D02*
Y9234D01*
Y9351D02*
Y9509D01*
X20914Y9071D02*
Y9231D01*
Y9354D02*
Y9511D01*
X20916Y9069D02*
Y9229D01*
Y9356D02*
Y9514D01*
X20919Y9066D02*
Y9226D01*
Y9359D02*
Y9516D01*
X20921Y9064D02*
Y9224D01*
Y9361D02*
Y9519D01*
X20924Y9061D02*
Y9221D01*
Y9364D02*
Y9521D01*
X20926Y9059D02*
Y9219D01*
Y9366D02*
Y9524D01*
X20929Y9056D02*
Y9216D01*
Y9369D02*
Y9526D01*
X20931Y9054D02*
Y9214D01*
Y9371D02*
Y9529D01*
X20934Y9051D02*
Y9211D01*
Y9374D02*
Y9531D01*
X20936Y9049D02*
Y9209D01*
Y9376D02*
Y9534D01*
X20939Y9046D02*
Y9206D01*
Y9379D02*
Y9536D01*
X20941Y9044D02*
Y9204D01*
Y9381D02*
Y9539D01*
X20944Y9041D02*
Y9201D01*
Y9384D02*
Y9541D01*
X20946Y9039D02*
Y9199D01*
Y9386D02*
Y9544D01*
X20949Y9036D02*
Y9196D01*
Y9389D02*
Y9546D01*
X20951Y9034D02*
Y9194D01*
Y9391D02*
Y9549D01*
X20954Y9031D02*
Y9191D01*
Y9394D02*
Y9551D01*
X20956Y9029D02*
Y9189D01*
Y9396D02*
Y9554D01*
X20959Y9026D02*
Y9186D01*
Y9399D02*
Y9556D01*
X20961Y9024D02*
Y9184D01*
Y9401D02*
Y9559D01*
X20964Y9021D02*
Y9181D01*
Y9404D02*
Y9561D01*
X20966Y9019D02*
Y9179D01*
Y9406D02*
Y9564D01*
X20969Y9016D02*
Y9176D01*
Y9409D02*
Y9566D01*
X20971Y9014D02*
Y9174D01*
Y9411D02*
Y9569D01*
X20974Y9011D02*
Y9171D01*
Y9414D02*
Y9571D01*
X20976Y9009D02*
Y9169D01*
Y9416D02*
Y9574D01*
X20979Y9006D02*
Y9166D01*
Y9419D02*
Y9576D01*
X20981Y9004D02*
Y9164D01*
Y9421D02*
Y9579D01*
X20984Y9001D02*
Y9161D01*
Y9424D02*
Y9581D01*
X20986Y8999D02*
Y9159D01*
Y9426D02*
Y9584D01*
X20989Y8996D02*
Y9156D01*
Y9429D02*
Y9586D01*
X20991Y8994D02*
Y9154D01*
Y9431D02*
Y9589D01*
X20994Y8991D02*
Y9151D01*
Y9434D02*
Y9591D01*
X20996Y8989D02*
Y9149D01*
Y9436D02*
Y9594D01*
X20999Y8986D02*
Y9146D01*
Y9439D02*
Y9596D01*
X21001Y8984D02*
Y9144D01*
Y9441D02*
Y9599D01*
X21004Y8981D02*
Y9141D01*
Y9444D02*
Y9601D01*
X21006Y8979D02*
Y9139D01*
Y9446D02*
Y9604D01*
X21009Y8976D02*
Y9136D01*
Y9449D02*
Y9606D01*
X21011Y8974D02*
Y9134D01*
Y9291D02*
Y9294D01*
Y9451D02*
Y9609D01*
X21014Y8971D02*
Y9131D01*
Y9289D02*
Y9296D01*
Y9454D02*
Y9611D01*
X21016Y8969D02*
Y9129D01*
Y9286D02*
Y9299D01*
Y9456D02*
Y9614D01*
X21019Y8966D02*
Y9126D01*
Y9284D02*
Y9301D01*
Y9459D02*
Y9616D01*
X21021Y8964D02*
Y9124D01*
Y9281D02*
Y9304D01*
Y9461D02*
Y9619D01*
X21024Y8961D02*
Y9121D01*
Y9279D02*
Y9306D01*
Y9464D02*
Y9621D01*
X21026Y8959D02*
Y9119D01*
Y9276D02*
Y9309D01*
Y9466D02*
Y9624D01*
X21029Y8956D02*
Y9116D01*
Y9274D02*
Y9311D01*
Y9469D02*
Y9626D01*
X21031Y8954D02*
Y9114D01*
Y9271D02*
Y9314D01*
Y9471D02*
Y9629D01*
X21034Y8951D02*
Y9111D01*
Y9269D02*
Y9316D01*
Y9474D02*
Y9631D01*
X21036Y8949D02*
Y9109D01*
Y9266D02*
Y9319D01*
Y9476D02*
Y9634D01*
X21039Y8946D02*
Y9106D01*
Y9264D02*
Y9321D01*
Y9479D02*
Y9636D01*
X21041Y8944D02*
Y9104D01*
Y9261D02*
Y9324D01*
Y9481D02*
Y9639D01*
X21044Y8941D02*
Y9101D01*
Y9259D02*
Y9326D01*
Y9484D02*
Y9641D01*
X21046Y8939D02*
Y9099D01*
Y9256D02*
Y9329D01*
Y9486D02*
Y9644D01*
X21049Y8936D02*
Y9096D01*
Y9254D02*
Y9331D01*
Y9489D02*
Y9646D01*
X21051Y8934D02*
Y9094D01*
Y9251D02*
Y9334D01*
Y9491D02*
Y9649D01*
X21054Y8931D02*
Y9091D01*
Y9249D02*
Y9336D01*
Y9494D02*
Y9651D01*
X21056Y8929D02*
Y9089D01*
Y9246D02*
Y9339D01*
Y9496D02*
Y9654D01*
X21059Y8926D02*
Y9086D01*
Y9244D02*
Y9341D01*
Y9499D02*
Y9656D01*
X21061Y8924D02*
Y9084D01*
Y9241D02*
Y9344D01*
Y9501D02*
Y9659D01*
X21064Y8921D02*
Y9081D01*
Y9239D02*
Y9346D01*
Y9504D02*
Y9661D01*
X21066Y8919D02*
Y9079D01*
Y9236D02*
Y9349D01*
Y9506D02*
Y9664D01*
X21069Y8916D02*
Y9076D01*
Y9234D02*
Y9351D01*
Y9509D02*
Y9666D01*
X21071Y8914D02*
Y9074D01*
Y9231D02*
Y9354D01*
Y9511D02*
Y9669D01*
X21074Y8911D02*
Y9071D01*
Y9229D02*
Y9356D01*
Y9514D02*
Y9671D01*
X21076Y8909D02*
Y9069D01*
Y9226D02*
Y9359D01*
Y9516D02*
Y9674D01*
X21079Y8906D02*
Y9066D01*
Y9224D02*
Y9361D01*
Y9519D02*
Y9676D01*
X21081Y8904D02*
Y9064D01*
Y9221D02*
Y9364D01*
Y9521D02*
Y9679D01*
X21084Y8901D02*
Y9061D01*
Y9219D02*
Y9366D01*
Y9524D02*
Y9681D01*
X21086Y8899D02*
Y9059D01*
Y9216D02*
Y9369D01*
Y9526D02*
Y9684D01*
X21089Y8896D02*
Y9056D01*
Y9214D02*
Y9371D01*
Y9529D02*
Y9686D01*
X21091Y8894D02*
Y9054D01*
Y9211D02*
Y9374D01*
Y9531D02*
Y9689D01*
X21094Y8891D02*
Y9051D01*
Y9209D02*
Y9376D01*
Y9534D02*
Y9691D01*
X21096Y8889D02*
Y9049D01*
Y9206D02*
Y9379D01*
Y9536D02*
Y9694D01*
X21099Y8886D02*
Y9046D01*
Y9204D02*
Y9381D01*
Y9539D02*
Y9696D01*
X21101Y8884D02*
Y9044D01*
Y9201D02*
Y9384D01*
Y9541D02*
Y9699D01*
X21104Y8881D02*
Y9041D01*
Y9199D02*
Y9386D01*
Y9544D02*
Y9701D01*
X21106Y8879D02*
Y9039D01*
Y9196D02*
Y9389D01*
Y9546D02*
Y9704D01*
X21109Y8876D02*
Y9036D01*
Y9194D02*
Y9391D01*
Y9549D02*
Y9706D01*
X21111Y8874D02*
Y9034D01*
Y9191D02*
Y9394D01*
Y9551D02*
Y9709D01*
X21114Y8871D02*
Y9031D01*
Y9189D02*
Y9396D01*
Y9554D02*
Y9711D01*
X21116Y8869D02*
Y9029D01*
Y9186D02*
Y9399D01*
Y9556D02*
Y9714D01*
X21119Y8866D02*
Y9026D01*
Y9184D02*
Y9401D01*
Y9559D02*
Y9716D01*
X21121Y8864D02*
Y9024D01*
Y9181D02*
Y9404D01*
Y9561D02*
Y9719D01*
X21124Y8861D02*
Y9021D01*
Y9179D02*
Y9406D01*
Y9564D02*
Y9721D01*
X21126Y8859D02*
Y9019D01*
Y9176D02*
Y9409D01*
Y9566D02*
Y9724D01*
X21129Y8856D02*
Y9016D01*
Y9174D02*
Y9411D01*
Y9569D02*
Y9726D01*
X21131Y8854D02*
Y9014D01*
Y9171D02*
Y9414D01*
Y9571D02*
Y9729D01*
X21134Y8851D02*
Y9011D01*
Y9169D02*
Y9416D01*
Y9574D02*
Y9731D01*
X21136Y8849D02*
Y9009D01*
Y9166D02*
Y9419D01*
Y9576D02*
Y9734D01*
X21139Y4644D02*
Y4709D01*
Y5569D02*
Y5621D01*
Y6684D02*
Y6741D01*
Y7126D02*
Y7201D01*
Y7621D02*
Y7694D01*
Y8846D02*
Y9006D01*
Y9164D02*
Y9421D01*
Y9579D02*
Y9736D01*
X21141Y4626D02*
Y4726D01*
Y5556D02*
Y5634D01*
Y6671D02*
Y6754D01*
Y7109D02*
Y7216D01*
Y7604D02*
Y7709D01*
Y8844D02*
Y9004D01*
Y9161D02*
Y9424D01*
Y9581D02*
Y9739D01*
X21144Y4614D02*
Y4736D01*
Y5546D02*
Y5644D01*
Y6664D02*
Y6764D01*
Y7099D02*
Y7229D01*
Y7594D02*
Y7719D01*
Y8841D02*
Y9001D01*
Y9159D02*
Y9426D01*
Y9584D02*
Y9741D01*
X21146Y4604D02*
Y4746D01*
Y5539D02*
Y5651D01*
Y6656D02*
Y6771D01*
Y7089D02*
Y7239D01*
Y7584D02*
Y7729D01*
Y8839D02*
Y8999D01*
Y9156D02*
Y9429D01*
Y9586D02*
Y9741D01*
X21149Y4596D02*
Y4754D01*
Y5081D02*
Y5136D01*
Y5374D02*
Y5459D01*
Y5534D02*
Y5659D01*
Y5944D02*
Y5996D01*
Y6189D02*
Y6241D01*
Y6491D02*
Y6576D01*
Y6649D02*
Y6779D01*
Y7081D02*
Y7246D01*
Y7576D02*
Y7736D01*
Y8166D02*
Y8366D01*
Y8836D02*
Y8996D01*
Y9154D02*
Y9431D01*
Y9589D02*
Y9744D01*
X21151Y4589D02*
Y4761D01*
Y5081D02*
Y5136D01*
Y5374D02*
Y5459D01*
Y5526D02*
Y5664D01*
Y5941D02*
Y5996D01*
Y6186D02*
Y6241D01*
Y6491D02*
Y6576D01*
Y6644D02*
Y6784D01*
Y7074D02*
Y7254D01*
Y7569D02*
Y7744D01*
Y8141D02*
Y8366D01*
Y8834D02*
Y8994D01*
Y9151D02*
Y9434D01*
Y9591D02*
Y9746D01*
X21154Y4584D02*
Y4766D01*
Y5079D02*
Y5139D01*
Y5374D02*
Y5459D01*
Y5521D02*
Y5671D01*
Y5941D02*
Y5999D01*
Y6186D02*
Y6244D01*
Y6491D02*
Y6576D01*
Y6639D02*
Y6789D01*
Y7066D02*
Y7261D01*
Y7564D02*
Y7749D01*
Y8124D02*
Y8366D01*
Y8831D02*
Y8991D01*
Y9149D02*
Y9436D01*
Y9594D02*
Y9749D01*
X21156Y4579D02*
Y4774D01*
Y5079D02*
Y5139D01*
Y5374D02*
Y5459D01*
Y5516D02*
Y5676D01*
Y5939D02*
Y5999D01*
Y6186D02*
Y6244D01*
Y6491D02*
Y6576D01*
Y6634D02*
Y6794D01*
Y7061D02*
Y7266D01*
Y7559D02*
Y7756D01*
Y8111D02*
Y8366D01*
Y8829D02*
Y8989D01*
Y9146D02*
Y9439D01*
Y9596D02*
Y9751D01*
X21159Y4571D02*
Y4779D01*
Y5076D02*
Y5141D01*
Y5374D02*
Y5459D01*
Y5514D02*
Y5681D01*
Y5939D02*
Y5999D01*
Y6184D02*
Y6244D01*
Y6491D02*
Y6576D01*
Y6629D02*
Y6799D01*
Y7056D02*
Y7271D01*
Y7554D02*
Y7761D01*
Y8101D02*
Y8366D01*
Y8826D02*
Y8986D01*
Y9144D02*
Y9441D01*
Y9599D02*
Y9754D01*
X21161Y4569D02*
Y4784D01*
Y5076D02*
Y5141D01*
Y5374D02*
Y5459D01*
Y5509D02*
Y5684D01*
Y5939D02*
Y6001D01*
Y6184D02*
Y6246D01*
Y6491D02*
Y6576D01*
Y6626D02*
Y6804D01*
Y7051D02*
Y7276D01*
Y7549D02*
Y7766D01*
Y8094D02*
Y8366D01*
Y8824D02*
Y8984D01*
Y9141D02*
Y9444D01*
Y9601D02*
Y9754D01*
X21164Y4564D02*
Y4786D01*
Y5074D02*
Y5144D01*
Y5374D02*
Y5459D01*
Y5504D02*
Y5689D01*
Y5936D02*
Y6001D01*
Y6184D02*
Y6246D01*
Y6491D02*
Y6576D01*
Y6621D02*
Y6806D01*
Y7046D02*
Y7281D01*
Y7544D02*
Y7769D01*
Y8086D02*
Y8366D01*
Y8821D02*
Y8981D01*
Y9139D02*
Y9446D01*
Y9604D02*
Y9756D01*
X21166Y4559D02*
Y4791D01*
Y5074D02*
Y5144D01*
Y5374D02*
Y5459D01*
Y5501D02*
Y5691D01*
Y5936D02*
Y6004D01*
Y6181D02*
Y6249D01*
Y6491D02*
Y6576D01*
Y6619D02*
Y6811D01*
Y7041D02*
Y7286D01*
Y7539D02*
Y7774D01*
Y8081D02*
Y8366D01*
Y8819D02*
Y8979D01*
Y9136D02*
Y9449D01*
Y9606D02*
Y9759D01*
X21169Y4554D02*
Y4796D01*
Y5074D02*
Y5146D01*
Y5374D02*
Y5459D01*
Y5499D02*
Y5696D01*
Y5936D02*
Y6004D01*
Y6181D02*
Y6249D01*
Y6491D02*
Y6576D01*
Y6614D02*
Y6814D01*
Y7036D02*
Y7291D01*
Y7536D02*
Y7779D01*
Y8076D02*
Y8366D01*
Y8816D02*
Y8976D01*
Y9134D02*
Y9451D01*
Y9609D02*
Y9761D01*
X21171Y4551D02*
Y4799D01*
Y5071D02*
Y5146D01*
Y5374D02*
Y5459D01*
Y5494D02*
Y5699D01*
Y5934D02*
Y6004D01*
Y6179D02*
Y6249D01*
Y6491D02*
Y6576D01*
Y6611D02*
Y6816D01*
Y7034D02*
Y7294D01*
Y7531D02*
Y7781D01*
Y8069D02*
Y8366D01*
Y8814D02*
Y8974D01*
Y9131D02*
Y9289D01*
Y9294D02*
Y9454D01*
Y9611D02*
Y9761D01*
X21174Y4546D02*
Y4804D01*
Y5071D02*
Y5146D01*
Y5374D02*
Y5459D01*
Y5491D02*
Y5704D01*
Y5934D02*
Y6006D01*
Y6179D02*
Y6251D01*
Y6491D02*
Y6576D01*
Y6609D02*
Y6821D01*
Y7029D02*
Y7299D01*
Y7529D02*
Y7786D01*
Y8066D02*
Y8366D01*
Y8811D02*
Y8971D01*
Y9129D02*
Y9286D01*
Y9296D02*
Y9456D01*
Y9614D02*
Y9764D01*
X21176Y4544D02*
Y4806D01*
Y5069D02*
Y5149D01*
Y5374D02*
Y5459D01*
Y5489D02*
Y5706D01*
Y5934D02*
Y6006D01*
Y6179D02*
Y6251D01*
Y6491D02*
Y6576D01*
Y6604D02*
Y6824D01*
Y7026D02*
Y7301D01*
Y7524D02*
Y7789D01*
Y8061D02*
Y8366D01*
Y8809D02*
Y8969D01*
Y9126D02*
Y9284D01*
Y9299D02*
Y9459D01*
Y9616D02*
Y9766D01*
X21179Y4541D02*
Y4811D01*
Y5069D02*
Y5149D01*
Y5374D02*
Y5459D01*
Y5484D02*
Y5709D01*
Y5931D02*
Y6006D01*
Y6176D02*
Y6251D01*
Y6491D02*
Y6576D01*
Y6601D02*
Y6826D01*
Y7021D02*
Y7304D01*
Y7521D02*
Y7791D01*
Y8056D02*
Y8366D01*
Y8806D02*
Y8966D01*
Y9124D02*
Y9281D01*
Y9301D02*
Y9461D01*
Y9619D02*
Y9769D01*
X21181Y4539D02*
Y4814D01*
Y5069D02*
Y5151D01*
Y5374D02*
Y5459D01*
Y5481D02*
Y5711D01*
Y5931D02*
Y6009D01*
Y6176D02*
Y6254D01*
Y6491D02*
Y6576D01*
Y6599D02*
Y6829D01*
Y7019D02*
Y7309D01*
Y7519D02*
Y7794D01*
Y8054D02*
Y8366D01*
Y8804D02*
Y8964D01*
Y9121D02*
Y9279D01*
Y9304D02*
Y9464D01*
Y9621D02*
Y9769D01*
X21184Y4534D02*
Y4816D01*
Y5066D02*
Y5151D01*
Y5374D02*
Y5459D01*
Y5479D02*
Y5714D01*
Y5929D02*
Y6009D01*
Y6174D02*
Y6254D01*
Y6491D02*
Y6576D01*
Y6596D02*
Y6834D01*
Y7016D02*
Y7311D01*
Y7516D02*
Y7799D01*
Y8049D02*
Y8366D01*
Y8801D02*
Y8961D01*
Y9119D02*
Y9276D01*
Y9306D02*
Y9466D01*
Y9624D02*
Y9771D01*
X21186Y4531D02*
Y4819D01*
Y5066D02*
Y5151D01*
Y5374D02*
Y5459D01*
Y5476D02*
Y5716D01*
Y5929D02*
Y6011D01*
Y6174D02*
Y6254D01*
Y6491D02*
Y6576D01*
Y6594D02*
Y6836D01*
Y7014D02*
Y7314D01*
Y7514D02*
Y7801D01*
Y8044D02*
Y8366D01*
Y8799D02*
Y8959D01*
Y9116D02*
Y9274D01*
Y9309D02*
Y9469D01*
Y9626D02*
Y9774D01*
X21189Y4529D02*
Y4821D01*
Y5064D02*
Y5154D01*
Y5374D02*
Y5459D01*
Y5474D02*
Y5719D01*
Y5929D02*
Y6011D01*
Y6174D02*
Y6256D01*
Y6491D02*
Y6576D01*
Y6591D02*
Y6839D01*
Y7009D02*
Y7316D01*
Y7509D02*
Y7804D01*
Y8041D02*
Y8366D01*
Y8796D02*
Y8956D01*
Y9114D02*
Y9271D01*
Y9311D02*
Y9471D01*
Y9629D02*
Y9776D01*
X21191Y4526D02*
Y4824D01*
Y5064D02*
Y5154D01*
Y5374D02*
Y5459D01*
Y5471D02*
Y5721D01*
Y5926D02*
Y6011D01*
Y6171D02*
Y6256D01*
Y6491D02*
Y6576D01*
Y6589D02*
Y6841D01*
Y7006D02*
Y7319D01*
Y7506D02*
Y7806D01*
Y8039D02*
Y8366D01*
Y8794D02*
Y8954D01*
Y9111D02*
Y9269D01*
Y9314D02*
Y9474D01*
Y9631D02*
Y9776D01*
X21194Y4524D02*
Y4826D01*
Y5061D02*
Y5156D01*
Y5374D02*
Y5459D01*
Y5469D02*
Y5724D01*
Y5926D02*
Y6014D01*
Y6171D02*
Y6259D01*
Y6491D02*
Y6576D01*
Y6586D02*
Y6844D01*
Y7004D02*
Y7321D01*
Y7504D02*
Y7809D01*
Y8036D02*
Y8366D01*
Y8791D02*
Y8951D01*
Y9109D02*
Y9266D01*
Y9316D02*
Y9476D01*
Y9634D02*
Y9779D01*
X21196Y4521D02*
Y4829D01*
Y5061D02*
Y5156D01*
Y5374D02*
Y5459D01*
Y5466D02*
Y5726D01*
Y5926D02*
Y6014D01*
Y6171D02*
Y6259D01*
Y6491D02*
Y6576D01*
Y6584D02*
Y6846D01*
Y7001D02*
Y7324D01*
Y7501D02*
Y7811D01*
Y8031D02*
Y8366D01*
Y8789D02*
Y8949D01*
Y9106D02*
Y9264D01*
Y9319D02*
Y9479D01*
Y9636D02*
Y9781D01*
X21199Y4519D02*
Y4831D01*
Y5061D02*
Y5159D01*
Y5374D02*
Y5459D01*
Y5464D02*
Y5729D01*
Y5924D02*
Y6016D01*
Y6169D02*
Y6259D01*
Y6491D02*
Y6576D01*
Y6581D02*
Y6846D01*
Y6999D02*
Y7326D01*
Y7499D02*
Y7814D01*
Y8029D02*
Y8366D01*
Y8786D02*
Y8946D01*
Y9104D02*
Y9261D01*
Y9321D02*
Y9481D01*
Y9639D02*
Y9781D01*
X21201Y4516D02*
Y4834D01*
Y5059D02*
Y5159D01*
Y5374D02*
Y5459D01*
Y5461D02*
Y5731D01*
Y5924D02*
Y6016D01*
Y6169D02*
Y6261D01*
Y6491D02*
Y6849D01*
Y6996D02*
Y7329D01*
Y7499D02*
Y7816D01*
Y8026D02*
Y8366D01*
Y8784D02*
Y8944D01*
Y9101D02*
Y9259D01*
Y9324D02*
Y9484D01*
Y9641D02*
Y9784D01*
X21204Y4514D02*
Y4836D01*
Y5059D02*
Y5159D01*
Y5374D02*
Y5734D01*
Y5924D02*
Y6016D01*
Y6166D02*
Y6261D01*
Y6491D02*
Y6851D01*
Y6994D02*
Y7331D01*
Y7496D02*
Y7819D01*
Y8024D02*
Y8366D01*
Y8781D02*
Y8941D01*
Y9099D02*
Y9256D01*
Y9326D02*
Y9486D01*
Y9644D02*
Y9786D01*
X21206Y4511D02*
Y4839D01*
Y5056D02*
Y5161D01*
Y5374D02*
Y5736D01*
Y5921D02*
Y6019D01*
Y6166D02*
Y6261D01*
Y6491D02*
Y6854D01*
Y6991D02*
Y7334D01*
Y7494D02*
Y7821D01*
Y8021D02*
Y8366D01*
Y8779D02*
Y8939D01*
Y9096D02*
Y9254D01*
Y9329D02*
Y9489D01*
Y9646D02*
Y9786D01*
X21209Y4511D02*
Y4841D01*
Y5056D02*
Y5161D01*
Y5374D02*
Y5739D01*
Y5921D02*
Y6019D01*
Y6166D02*
Y6264D01*
Y6491D02*
Y6856D01*
Y6991D02*
Y7336D01*
Y7491D02*
Y7646D01*
Y7671D02*
Y7824D01*
Y8019D02*
Y8366D01*
Y8776D02*
Y8936D01*
Y9094D02*
Y9251D01*
Y9331D02*
Y9491D01*
Y9649D02*
Y9789D01*
X21211Y4509D02*
Y4651D01*
Y4706D02*
Y4844D01*
Y5054D02*
Y5164D01*
Y5374D02*
Y5741D01*
Y5919D02*
Y6019D01*
Y6164D02*
Y6264D01*
Y6491D02*
Y6859D01*
Y6989D02*
Y7339D01*
Y7489D02*
Y7629D01*
Y7691D02*
Y7824D01*
Y8016D02*
Y8366D01*
Y8774D02*
Y8934D01*
Y9091D02*
Y9249D01*
Y9334D02*
Y9494D01*
Y9651D02*
Y9791D01*
X21214Y4506D02*
Y4639D01*
Y4719D02*
Y4846D01*
Y5054D02*
Y5164D01*
Y5374D02*
Y5561D01*
Y5594D02*
Y5741D01*
Y5919D02*
Y6021D01*
Y6164D02*
Y6264D01*
Y6491D02*
Y6671D01*
Y6714D02*
Y6859D01*
Y6991D02*
Y7139D01*
Y7189D02*
Y7341D01*
Y7489D02*
Y7616D01*
Y7701D02*
Y7826D01*
Y8014D02*
Y8366D01*
Y8771D02*
Y8931D01*
Y9089D02*
Y9246D01*
Y9336D02*
Y9496D01*
Y9651D02*
Y9791D01*
X21216Y4509D02*
Y4631D01*
Y4726D02*
Y4846D01*
Y5051D02*
Y5166D01*
Y5374D02*
Y5546D01*
Y5606D02*
Y5744D01*
Y5919D02*
Y6021D01*
Y6161D02*
Y6266D01*
Y6491D02*
Y6661D01*
Y6726D02*
Y6861D01*
Y6996D02*
Y7124D01*
Y7204D02*
Y7341D01*
Y7491D02*
Y7609D01*
Y7709D02*
Y7829D01*
Y8011D02*
Y8366D01*
Y8769D02*
Y8929D01*
Y9086D02*
Y9244D01*
Y9339D02*
Y9499D01*
Y9654D02*
Y9794D01*
X21219Y4514D02*
Y4624D01*
Y4734D02*
Y4849D01*
Y5051D02*
Y5166D01*
Y5374D02*
Y5536D01*
Y5614D02*
Y5746D01*
Y5916D02*
Y6024D01*
Y6161D02*
Y6266D01*
Y6491D02*
Y6651D01*
Y6734D02*
Y6864D01*
Y6999D02*
Y7114D01*
Y7211D02*
Y7344D01*
Y7496D02*
Y7604D01*
Y7716D02*
Y7831D01*
Y8009D02*
Y8366D01*
Y8769D02*
Y8926D01*
Y9084D02*
Y9241D01*
Y9341D02*
Y9501D01*
Y9656D02*
Y9796D01*
X21221Y4519D02*
Y4616D01*
Y4739D02*
Y4851D01*
Y5051D02*
Y5166D01*
Y5374D02*
Y5529D01*
Y5621D02*
Y5749D01*
Y5916D02*
Y6024D01*
Y6161D02*
Y6266D01*
Y6491D02*
Y6646D01*
Y6741D02*
Y6866D01*
Y7001D02*
Y7106D01*
Y7219D02*
Y7346D01*
Y7501D02*
Y7596D01*
Y7721D02*
Y7831D01*
Y8006D02*
Y8366D01*
Y8771D02*
Y8924D01*
Y9081D02*
Y9239D01*
Y9344D02*
Y9504D01*
Y9659D02*
Y9796D01*
X21224Y4526D02*
Y4611D01*
Y4744D02*
Y4854D01*
Y5049D02*
Y5169D01*
Y5374D02*
Y5524D01*
Y5626D02*
Y5749D01*
Y5916D02*
Y6024D01*
Y6159D02*
Y6269D01*
Y6491D02*
Y6641D01*
Y6746D02*
Y6866D01*
Y7006D02*
Y7101D01*
Y7226D02*
Y7349D01*
Y7509D02*
Y7591D01*
Y7726D02*
Y7834D01*
Y8004D02*
Y8366D01*
Y8774D02*
Y8921D01*
Y9079D02*
Y9236D01*
Y9346D02*
Y9506D01*
Y9661D02*
Y9799D01*
X21226Y4531D02*
Y4606D01*
Y4749D02*
Y4854D01*
Y5049D02*
Y5169D01*
Y5374D02*
Y5519D01*
Y5631D02*
Y5751D01*
Y5914D02*
Y6026D01*
Y6159D02*
Y6269D01*
Y6491D02*
Y6636D01*
Y6751D02*
Y6869D01*
Y7009D02*
Y7096D01*
Y7231D02*
Y7349D01*
Y7514D02*
Y7586D01*
Y7731D02*
Y7836D01*
Y8001D02*
Y8366D01*
Y8776D02*
Y8919D01*
Y9076D02*
Y9234D01*
Y9349D02*
Y9509D01*
Y9664D02*
Y9799D01*
X21229Y4536D02*
Y4604D01*
Y4751D02*
Y4856D01*
Y5046D02*
Y5171D01*
Y5374D02*
Y5514D01*
Y5636D02*
Y5751D01*
Y5914D02*
Y6026D01*
Y6159D02*
Y6271D01*
Y6491D02*
Y6631D01*
Y6756D02*
Y6869D01*
Y7014D02*
Y7091D01*
Y7236D02*
Y7351D01*
Y7519D02*
Y7584D01*
Y7734D02*
Y7836D01*
Y7999D02*
Y8366D01*
Y8779D02*
Y8916D01*
Y9074D02*
Y9231D01*
Y9351D02*
Y9511D01*
Y9664D02*
Y9801D01*
X21231Y4541D02*
Y4599D01*
Y4756D02*
Y4856D01*
Y5046D02*
Y5171D01*
Y5374D02*
Y5511D01*
Y5641D02*
Y5754D01*
Y5914D02*
Y6026D01*
Y6156D02*
Y6271D01*
Y6491D02*
Y6626D01*
Y6759D02*
Y6871D01*
Y7016D02*
Y7086D01*
Y7239D02*
Y7354D01*
Y7524D02*
Y7579D01*
Y7739D02*
Y7839D01*
Y7999D02*
Y8199D01*
Y8279D02*
Y8366D01*
Y8781D02*
Y8914D01*
Y9071D02*
Y9229D01*
Y9354D02*
Y9514D01*
Y9666D02*
Y9804D01*
X21234Y4546D02*
Y4594D01*
Y4759D02*
Y4859D01*
Y5046D02*
Y5174D01*
Y5374D02*
Y5506D01*
Y5644D02*
Y5756D01*
Y5911D02*
Y6029D01*
Y6156D02*
Y6271D01*
Y6491D02*
Y6624D01*
Y6764D02*
Y6874D01*
Y7021D02*
Y7081D01*
Y7244D02*
Y7354D01*
Y7529D02*
Y7574D01*
Y7741D02*
Y7841D01*
Y7996D02*
Y8166D01*
Y8279D02*
Y8366D01*
Y8784D02*
Y8911D01*
Y9069D02*
Y9226D01*
Y9356D02*
Y9516D01*
Y9669D02*
Y9804D01*
X21236Y4551D02*
Y4591D01*
Y4761D02*
Y4861D01*
Y5044D02*
Y5174D01*
Y5374D02*
Y5504D01*
Y5649D02*
Y5756D01*
Y5911D02*
Y6029D01*
Y6154D02*
Y6274D01*
Y6491D02*
Y6619D01*
Y6766D02*
Y6874D01*
Y7024D02*
Y7079D01*
Y7249D02*
Y7356D01*
Y7534D02*
Y7571D01*
Y7744D02*
Y7841D01*
Y7994D02*
Y8149D01*
Y8279D02*
Y8366D01*
Y8786D02*
Y8909D01*
Y9066D02*
Y9224D01*
Y9359D02*
Y9519D01*
Y9671D02*
Y9806D01*
X21239Y4556D02*
Y4589D01*
Y4766D02*
Y4861D01*
Y5044D02*
Y5174D01*
Y5374D02*
Y5501D01*
Y5651D02*
Y5759D01*
Y5909D02*
Y6031D01*
Y6154D02*
Y6274D01*
Y6491D02*
Y6616D01*
Y6769D02*
Y6876D01*
Y7029D02*
Y7074D01*
Y7251D02*
Y7359D01*
Y7539D02*
Y7569D01*
Y7746D02*
Y7844D01*
Y7991D02*
Y8139D01*
Y8279D02*
Y8366D01*
Y8789D02*
Y8906D01*
Y9064D02*
Y9221D01*
Y9361D02*
Y9521D01*
Y9674D02*
Y9806D01*
X21241Y4561D02*
Y4584D01*
Y4769D02*
Y4864D01*
Y5041D02*
Y5176D01*
Y5374D02*
Y5496D01*
Y5654D02*
Y5759D01*
Y5909D02*
Y6031D01*
Y6154D02*
Y6274D01*
Y6491D02*
Y6614D01*
Y6771D02*
Y6876D01*
Y7031D02*
Y7071D01*
Y7254D02*
Y7359D01*
Y7544D02*
Y7564D01*
Y7751D02*
Y7844D01*
Y7991D02*
Y8129D01*
Y8279D02*
Y8366D01*
Y8791D02*
Y8904D01*
Y9061D02*
Y9219D01*
Y9364D02*
Y9524D01*
Y9674D02*
Y9809D01*
X21244Y4566D02*
Y4581D01*
Y4771D02*
Y4864D01*
Y5041D02*
Y5176D01*
Y5374D02*
Y5494D01*
Y5656D02*
Y5761D01*
Y5909D02*
Y6031D01*
Y6151D02*
Y6276D01*
Y6491D02*
Y6611D01*
Y6774D02*
Y6879D01*
Y7036D02*
Y7069D01*
Y7256D02*
Y7361D01*
Y7549D02*
Y7561D01*
Y7754D02*
Y7846D01*
Y7989D02*
Y8121D01*
Y8279D02*
Y8366D01*
Y8794D02*
Y8901D01*
Y9059D02*
Y9216D01*
Y9366D02*
Y9526D01*
Y9676D02*
Y9809D01*
X21246Y4574D02*
Y4579D01*
Y4774D02*
Y4866D01*
Y5039D02*
Y5179D01*
Y5374D02*
Y5491D01*
Y5659D02*
Y5761D01*
Y5906D02*
Y6034D01*
Y6151D02*
Y6276D01*
Y6491D02*
Y6609D01*
Y6776D02*
Y6879D01*
Y7039D02*
Y7064D01*
Y7259D02*
Y7361D01*
Y7556D02*
Y7559D01*
Y7756D02*
Y7846D01*
Y7986D02*
Y8116D01*
Y8279D02*
Y8366D01*
Y8796D02*
Y8899D01*
Y9056D02*
Y9214D01*
Y9369D02*
Y9529D01*
Y9679D02*
Y9811D01*
X21249Y4776D02*
Y4866D01*
Y5039D02*
Y5179D01*
Y5374D02*
Y5489D01*
Y5661D02*
Y5764D01*
Y5906D02*
Y6034D01*
Y6149D02*
Y6276D01*
Y6491D02*
Y6606D01*
Y6779D02*
Y6881D01*
Y7041D02*
Y7061D01*
Y7264D02*
Y7364D01*
Y7756D02*
Y7849D01*
Y7986D02*
Y8111D01*
Y8279D02*
Y8366D01*
Y8799D02*
Y8896D01*
Y9054D02*
Y9211D01*
Y9371D02*
Y9531D01*
Y9681D02*
Y9814D01*
X21251Y4779D02*
Y4869D01*
Y5039D02*
Y5181D01*
Y5374D02*
Y5486D01*
Y5664D02*
Y5764D01*
Y5906D02*
Y6034D01*
Y6149D02*
Y6279D01*
Y6491D02*
Y6604D01*
Y6781D02*
Y6881D01*
Y7046D02*
Y7059D01*
Y7266D02*
Y7364D01*
Y7759D02*
Y7849D01*
Y7984D02*
Y8106D01*
Y8279D02*
Y8366D01*
Y8801D02*
Y8894D01*
Y9051D02*
Y9209D01*
Y9374D02*
Y9534D01*
Y9681D02*
Y9814D01*
X21254Y4779D02*
Y4869D01*
Y5036D02*
Y5181D01*
Y5374D02*
Y5484D01*
Y5666D02*
Y5766D01*
Y5904D02*
Y6036D01*
Y6149D02*
Y6279D01*
Y6491D02*
Y6601D01*
Y6784D02*
Y6884D01*
Y7049D02*
Y7056D01*
Y7266D02*
Y7366D01*
Y7761D02*
Y7851D01*
Y7984D02*
Y8101D01*
Y8279D02*
Y8366D01*
Y8804D02*
Y8891D01*
Y9049D02*
Y9206D01*
Y9376D02*
Y9536D01*
Y9684D02*
Y9816D01*
X21256Y4781D02*
Y4871D01*
Y5036D02*
Y5181D01*
Y5374D02*
Y5481D01*
Y5669D02*
Y5766D01*
Y5904D02*
Y6036D01*
Y6146D02*
Y6281D01*
Y6491D02*
Y6599D01*
Y6786D02*
Y6884D01*
Y7269D02*
Y7366D01*
Y7764D02*
Y7851D01*
Y7981D02*
Y8099D01*
Y8279D02*
Y8366D01*
Y8806D02*
Y8889D01*
Y9046D02*
Y9204D01*
Y9379D02*
Y9539D01*
Y9686D02*
Y9816D01*
X21259Y4784D02*
Y4871D01*
Y5034D02*
Y5184D01*
Y5374D02*
Y5481D01*
Y5671D02*
Y5769D01*
Y5904D02*
Y6039D01*
Y6146D02*
Y6281D01*
Y6491D02*
Y6596D01*
Y6789D02*
Y6886D01*
Y7271D02*
Y7369D01*
Y7766D02*
Y7854D01*
Y7979D02*
Y8094D01*
Y8279D02*
Y8366D01*
Y8809D02*
Y8886D01*
Y9044D02*
Y9201D01*
Y9381D02*
Y9541D01*
Y9686D02*
Y9819D01*
X21261Y4786D02*
Y4871D01*
Y5034D02*
Y5184D01*
Y5374D02*
Y5479D01*
Y5671D02*
Y5769D01*
Y5901D02*
Y6039D01*
Y6146D02*
Y6281D01*
Y6491D02*
Y6596D01*
Y6791D02*
Y6886D01*
Y7274D02*
Y7369D01*
Y7766D02*
Y7854D01*
Y7979D02*
Y8091D01*
Y8279D02*
Y8366D01*
Y8811D02*
Y8884D01*
Y9041D02*
Y9199D01*
Y9384D02*
Y9544D01*
Y9689D02*
Y9819D01*
X21264Y4786D02*
Y4874D01*
Y5031D02*
Y5186D01*
Y5374D02*
Y5476D01*
Y5674D02*
Y5769D01*
Y5901D02*
Y6039D01*
Y6144D02*
Y6284D01*
Y6491D02*
Y6594D01*
Y6791D02*
Y6886D01*
Y7276D02*
Y7371D01*
Y7769D02*
Y7854D01*
Y7976D02*
Y8089D01*
Y8279D02*
Y8366D01*
Y8814D02*
Y8881D01*
Y9039D02*
Y9196D01*
Y9386D02*
Y9546D01*
Y9691D02*
Y9821D01*
X21266Y4789D02*
Y4874D01*
Y5031D02*
Y5186D01*
Y5374D02*
Y5474D01*
Y5676D02*
Y5771D01*
Y5899D02*
Y6041D01*
Y6144D02*
Y6284D01*
Y6491D02*
Y6591D01*
Y6794D02*
Y6889D01*
Y7279D02*
Y7371D01*
Y7771D02*
Y7856D01*
Y7976D02*
Y8086D01*
Y8279D02*
Y8366D01*
Y8816D02*
Y8879D01*
Y9036D02*
Y9194D01*
Y9389D02*
Y9549D01*
Y9694D02*
Y9821D01*
X21269Y4791D02*
Y4876D01*
Y5029D02*
Y5189D01*
Y5374D02*
Y5474D01*
Y5679D02*
Y5771D01*
Y5899D02*
Y6041D01*
Y6141D02*
Y6284D01*
Y6491D02*
Y6591D01*
Y6796D02*
Y6889D01*
Y7279D02*
Y7371D01*
Y7771D02*
Y7856D01*
Y7974D02*
Y8081D01*
Y8279D02*
Y8366D01*
Y8819D02*
Y8876D01*
Y9034D02*
Y9191D01*
Y9391D02*
Y9551D01*
Y9694D02*
Y9824D01*
X21271Y4791D02*
Y4876D01*
Y5029D02*
Y5189D01*
Y5374D02*
Y5471D01*
Y5679D02*
Y5771D01*
Y5899D02*
Y6041D01*
Y6141D02*
Y6286D01*
Y6491D02*
Y6589D01*
Y6796D02*
Y6889D01*
Y7281D02*
Y7374D01*
Y7774D02*
Y7859D01*
Y7974D02*
Y8079D01*
Y8279D02*
Y8366D01*
Y8821D02*
Y8874D01*
Y9031D02*
Y9189D01*
Y9394D02*
Y9554D01*
Y9696D02*
Y9824D01*
X21274Y4794D02*
Y4876D01*
Y5029D02*
Y5189D01*
Y5374D02*
Y5471D01*
Y5681D02*
Y5774D01*
Y5896D02*
Y6044D01*
Y6141D02*
Y6286D01*
Y6491D02*
Y6586D01*
Y6799D02*
Y6891D01*
Y7281D02*
Y7374D01*
Y7774D02*
Y7859D01*
Y7971D02*
Y8076D01*
Y8279D02*
Y8366D01*
Y8824D02*
Y8871D01*
Y9029D02*
Y9186D01*
Y9396D02*
Y9556D01*
Y9696D02*
Y9826D01*
X21276Y4794D02*
Y4879D01*
Y5026D02*
Y5191D01*
Y5374D02*
Y5469D01*
Y5681D02*
Y5774D01*
Y5896D02*
Y6044D01*
Y6139D02*
Y6286D01*
Y6491D02*
Y6586D01*
Y6801D02*
Y6891D01*
Y7284D02*
Y7374D01*
Y7776D02*
Y7859D01*
Y7971D02*
Y8076D01*
Y8279D02*
Y8366D01*
Y8826D02*
Y8869D01*
Y9026D02*
Y9184D01*
Y9399D02*
Y9559D01*
Y9699D02*
Y9826D01*
X21279Y4796D02*
Y4879D01*
Y5026D02*
Y5191D01*
Y5374D02*
Y5469D01*
Y5684D02*
Y5774D01*
Y5896D02*
Y6046D01*
Y6139D02*
Y6289D01*
Y6491D02*
Y6584D01*
Y6801D02*
Y6891D01*
Y7286D02*
Y7376D01*
Y7776D02*
Y7859D01*
Y7969D02*
Y8074D01*
Y8279D02*
Y8366D01*
Y8829D02*
Y8866D01*
Y9024D02*
Y9181D01*
Y9401D02*
Y9561D01*
Y9701D02*
Y9829D01*
X21281Y4796D02*
Y4879D01*
Y5024D02*
Y5194D01*
Y5374D02*
Y5466D01*
Y5684D02*
Y5776D01*
Y5894D02*
Y6046D01*
Y6136D02*
Y6289D01*
Y6491D02*
Y6584D01*
Y6804D02*
Y6894D01*
Y7286D02*
Y7376D01*
Y7779D02*
Y7861D01*
Y7969D02*
Y8071D01*
Y8279D02*
Y8366D01*
Y8831D02*
Y8864D01*
Y9021D02*
Y9179D01*
Y9404D02*
Y9561D01*
Y9701D02*
Y9829D01*
X21284Y4796D02*
Y4879D01*
Y5024D02*
Y5194D01*
Y5374D02*
Y5466D01*
Y5686D02*
Y5776D01*
Y5894D02*
Y6046D01*
Y6136D02*
Y6289D01*
Y6491D02*
Y6581D01*
Y6804D02*
Y6894D01*
Y7289D02*
Y7376D01*
Y7779D02*
Y7861D01*
Y7966D02*
Y8069D01*
Y8279D02*
Y8366D01*
Y8834D02*
Y8861D01*
Y9019D02*
Y9176D01*
Y9406D02*
Y9564D01*
Y9704D02*
Y9831D01*
X21286Y4799D02*
Y4881D01*
Y5021D02*
Y5106D01*
Y5109D02*
Y5196D01*
Y5374D02*
Y5464D01*
Y5686D02*
Y5776D01*
Y5894D02*
Y6049D01*
Y6136D02*
Y6291D01*
Y6491D02*
Y6581D01*
Y6804D02*
Y6894D01*
Y7289D02*
Y7379D01*
Y7779D02*
Y7861D01*
Y7966D02*
Y8066D01*
Y8279D02*
Y8366D01*
Y8836D02*
Y8859D01*
Y9016D02*
Y9174D01*
Y9409D02*
Y9566D01*
Y9704D02*
Y9831D01*
X21289Y4799D02*
Y4881D01*
Y5021D02*
Y5106D01*
Y5111D02*
Y5196D01*
Y5374D02*
Y5464D01*
Y5689D02*
Y5776D01*
Y5891D02*
Y6049D01*
Y6134D02*
Y6291D01*
Y6491D02*
Y6581D01*
Y6806D02*
Y6894D01*
Y7289D02*
Y7379D01*
Y7781D02*
Y7861D01*
Y7964D02*
Y8066D01*
Y8279D02*
Y8366D01*
Y8839D02*
Y8856D01*
Y9014D02*
Y9171D01*
Y9411D02*
Y9569D01*
Y9706D02*
Y9831D01*
X21291Y4801D02*
Y4881D01*
Y5021D02*
Y5104D01*
Y5111D02*
Y5196D01*
Y5374D02*
Y5461D01*
Y5689D02*
Y5779D01*
Y5891D02*
Y6049D01*
Y6134D02*
Y6211D01*
Y6214D02*
Y6294D01*
Y6491D02*
Y6579D01*
Y6806D02*
Y6896D01*
Y7291D02*
Y7379D01*
Y7781D02*
Y7864D01*
Y7964D02*
Y8064D01*
Y8279D02*
Y8366D01*
Y8841D02*
Y8854D01*
Y9011D02*
Y9169D01*
Y9414D02*
Y9571D01*
Y9709D02*
Y9834D01*
X21294Y4801D02*
Y4881D01*
Y5019D02*
Y5104D01*
Y5114D02*
Y5199D01*
Y5374D02*
Y5461D01*
Y5691D02*
Y5779D01*
Y5891D02*
Y5969D01*
Y5971D02*
Y6051D01*
Y6134D02*
Y6209D01*
Y6214D02*
Y6294D01*
Y6491D02*
Y6579D01*
Y6809D02*
Y6896D01*
Y7291D02*
Y7379D01*
Y7784D02*
Y7864D01*
Y7964D02*
Y8061D01*
Y8279D02*
Y8366D01*
Y8844D02*
Y8851D01*
Y9009D02*
Y9166D01*
Y9416D02*
Y9574D01*
Y9709D02*
Y9834D01*
X21296Y4801D02*
Y4884D01*
Y5019D02*
Y5101D01*
Y5114D02*
Y5199D01*
Y5374D02*
Y5461D01*
Y5691D02*
Y5779D01*
Y5889D02*
Y5969D01*
Y5974D02*
Y6051D01*
Y6131D02*
Y6209D01*
Y6214D02*
Y6294D01*
Y6491D02*
Y6576D01*
Y6809D02*
Y6896D01*
Y7294D02*
Y7381D01*
Y7784D02*
Y7864D01*
Y7961D02*
Y8059D01*
Y8279D02*
Y8366D01*
Y9006D02*
Y9164D01*
Y9419D02*
Y9576D01*
Y9711D02*
Y9836D01*
X21299Y4801D02*
Y4884D01*
Y5016D02*
Y5101D01*
Y5116D02*
Y5201D01*
Y5374D02*
Y5459D01*
Y5691D02*
Y5779D01*
Y5889D02*
Y5969D01*
Y5974D02*
Y6054D01*
Y6131D02*
Y6209D01*
Y6216D02*
Y6296D01*
Y6491D02*
Y6576D01*
Y6809D02*
Y6896D01*
Y7294D02*
Y7381D01*
Y7784D02*
Y7864D01*
Y7961D02*
Y8059D01*
Y8279D02*
Y8366D01*
Y9004D02*
Y9161D01*
Y9421D02*
Y9576D01*
Y9711D02*
Y9836D01*
X21301Y4804D02*
Y4884D01*
Y5016D02*
Y5101D01*
Y5116D02*
Y5201D01*
Y5374D02*
Y5459D01*
Y5694D02*
Y5779D01*
Y5886D02*
Y5966D01*
Y5976D02*
Y6054D01*
Y6129D02*
Y6206D01*
Y6216D02*
Y6296D01*
Y6491D02*
Y6576D01*
Y6811D02*
Y6896D01*
Y7294D02*
Y7381D01*
Y7784D02*
Y7864D01*
Y7961D02*
Y8056D01*
Y8279D02*
Y8366D01*
Y9001D02*
Y9159D01*
Y9424D02*
Y9579D01*
Y9714D02*
Y9839D01*
X21304Y4804D02*
Y4884D01*
Y5014D02*
Y5099D01*
Y5116D02*
Y5204D01*
Y5374D02*
Y5459D01*
Y5694D02*
Y5779D01*
Y5886D02*
Y5966D01*
Y5976D02*
Y6054D01*
Y6129D02*
Y6206D01*
Y6219D02*
Y6296D01*
Y6491D02*
Y6576D01*
Y6811D02*
Y6896D01*
Y7296D02*
Y7381D01*
Y7786D02*
Y7866D01*
Y7959D02*
Y8056D01*
Y8279D02*
Y8366D01*
Y8999D02*
Y9156D01*
Y9426D02*
Y9581D01*
Y9714D02*
Y9839D01*
X21306Y4804D02*
Y4884D01*
Y5014D02*
Y5099D01*
Y5119D02*
Y5204D01*
Y5374D02*
Y5456D01*
Y5694D02*
Y5781D01*
Y5886D02*
Y5966D01*
Y5976D02*
Y6056D01*
Y6129D02*
Y6206D01*
Y6219D02*
Y6299D01*
Y6491D02*
Y6574D01*
Y6811D02*
Y6899D01*
Y7296D02*
Y7381D01*
Y7786D02*
Y7866D01*
Y7959D02*
Y8054D01*
Y8279D02*
Y8366D01*
Y8996D02*
Y9154D01*
Y9429D02*
Y9584D01*
Y9716D02*
Y9839D01*
X21309Y4804D02*
Y4884D01*
Y5014D02*
Y5096D01*
Y5119D02*
Y5204D01*
Y5374D02*
Y5456D01*
Y5694D02*
Y5781D01*
Y5884D02*
Y5964D01*
Y5979D02*
Y6056D01*
Y6126D02*
Y6204D01*
Y6219D02*
Y6299D01*
Y6491D02*
Y6574D01*
Y6811D02*
Y6899D01*
Y7296D02*
Y7384D01*
Y7786D02*
Y7866D01*
Y7956D02*
Y8054D01*
Y8279D02*
Y8366D01*
Y8994D02*
Y9151D01*
Y9431D02*
Y9586D01*
Y9716D02*
Y9841D01*
X21311Y4806D02*
Y4886D01*
Y5011D02*
Y5096D01*
Y5121D02*
Y5206D01*
Y5374D02*
Y5456D01*
Y5696D02*
Y5781D01*
Y5884D02*
Y5964D01*
Y5979D02*
Y6059D01*
Y6126D02*
Y6204D01*
Y6221D02*
Y6299D01*
Y6491D02*
Y6574D01*
Y6814D02*
Y6899D01*
Y7296D02*
Y7384D01*
Y7786D02*
Y7866D01*
Y7956D02*
Y8051D01*
Y8279D02*
Y8366D01*
Y8991D02*
Y9149D01*
Y9434D02*
Y9586D01*
Y9719D02*
Y9841D01*
X21314Y4806D02*
Y4886D01*
Y5011D02*
Y5094D01*
Y5121D02*
Y5206D01*
Y5374D02*
Y5456D01*
Y5696D02*
Y5781D01*
Y5884D02*
Y5964D01*
Y5979D02*
Y6059D01*
Y6124D02*
Y6201D01*
Y6221D02*
Y6301D01*
Y6491D02*
Y6574D01*
Y6814D02*
Y6899D01*
Y7296D02*
Y7384D01*
Y7786D02*
Y7866D01*
Y7956D02*
Y8051D01*
Y8279D02*
Y8366D01*
Y8989D02*
Y9146D01*
Y9436D02*
Y9589D01*
Y9721D02*
Y9844D01*
X21316Y4806D02*
Y4886D01*
Y5009D02*
Y5094D01*
Y5124D02*
Y5209D01*
Y5374D02*
Y5456D01*
Y5696D02*
Y5781D01*
Y5881D02*
Y5961D01*
Y5981D02*
Y6059D01*
Y6124D02*
Y6201D01*
Y6221D02*
Y6301D01*
Y6491D02*
Y6574D01*
Y6814D02*
Y6899D01*
Y7299D02*
Y7384D01*
Y7789D02*
Y7866D01*
Y7956D02*
Y8049D01*
Y8279D02*
Y8366D01*
Y8986D02*
Y9144D01*
Y9439D02*
Y9591D01*
Y9721D02*
Y9844D01*
X21319Y4806D02*
Y4886D01*
Y5009D02*
Y5094D01*
Y5124D02*
Y5209D01*
Y5374D02*
Y5454D01*
Y5696D02*
Y5781D01*
Y5881D02*
Y5961D01*
Y5981D02*
Y6061D01*
Y6124D02*
Y6201D01*
Y6224D02*
Y6304D01*
Y6491D02*
Y6571D01*
Y6814D02*
Y6899D01*
Y7299D02*
Y7384D01*
Y7789D02*
Y7866D01*
Y7954D02*
Y8049D01*
Y8279D02*
Y8366D01*
Y8984D02*
Y9141D01*
Y9441D02*
Y9594D01*
Y9724D02*
Y9844D01*
X21321Y4806D02*
Y4886D01*
Y5006D02*
Y5091D01*
Y5124D02*
Y5211D01*
Y5374D02*
Y5454D01*
Y5696D02*
Y5781D01*
Y5881D02*
Y5961D01*
Y5984D02*
Y6061D01*
Y6121D02*
Y6199D01*
Y6224D02*
Y6304D01*
Y6491D02*
Y6571D01*
Y6814D02*
Y6899D01*
Y7299D02*
Y7384D01*
Y7789D02*
Y7869D01*
Y7954D02*
Y8046D01*
Y8279D02*
Y8366D01*
Y8981D02*
Y9139D01*
Y9444D02*
Y9594D01*
Y9724D02*
Y9846D01*
X21324Y4806D02*
Y4886D01*
Y5006D02*
Y5091D01*
Y5126D02*
Y5211D01*
Y5374D02*
Y5454D01*
Y5696D02*
Y5781D01*
Y5879D02*
Y5959D01*
Y5984D02*
Y6061D01*
Y6121D02*
Y6199D01*
Y6224D02*
Y6304D01*
Y6491D02*
Y6571D01*
Y6816D02*
Y6899D01*
Y7299D02*
Y7384D01*
Y7789D02*
Y7869D01*
Y7954D02*
Y8046D01*
Y8279D02*
Y8366D01*
Y8979D02*
Y9136D01*
Y9446D02*
Y9596D01*
Y9724D02*
Y9846D01*
X21326Y4471D02*
Y4886D01*
Y5006D02*
Y5089D01*
Y5126D02*
Y5211D01*
Y5374D02*
Y5454D01*
Y5699D02*
Y5781D01*
Y5879D02*
Y5959D01*
Y5984D02*
Y6064D01*
Y6121D02*
Y6196D01*
Y6226D02*
Y6306D01*
Y6491D02*
Y6571D01*
Y6816D02*
Y6899D01*
Y7299D02*
Y7384D01*
Y7454D02*
Y7869D01*
Y7951D02*
Y8044D01*
Y8279D02*
Y8366D01*
Y8976D02*
Y9134D01*
Y9449D02*
Y9599D01*
Y9726D02*
Y9849D01*
X21329Y4471D02*
Y4886D01*
Y5004D02*
Y5089D01*
Y5129D02*
Y5214D01*
Y5374D02*
Y5454D01*
Y5699D02*
Y5784D01*
Y5876D02*
Y5956D01*
Y5986D02*
Y6064D01*
Y6119D02*
Y6196D01*
Y6226D02*
Y6306D01*
Y6491D02*
Y6571D01*
Y6816D02*
Y6901D01*
Y7299D02*
Y7386D01*
Y7454D02*
Y7869D01*
Y7951D02*
Y8044D01*
Y8279D02*
Y8366D01*
Y8974D02*
Y9131D01*
Y9291D02*
Y9294D01*
Y9451D02*
Y9599D01*
Y9726D02*
Y9849D01*
X21331Y4471D02*
Y4886D01*
Y5004D02*
Y5086D01*
Y5129D02*
Y5214D01*
Y5374D02*
Y5454D01*
Y5699D02*
Y5784D01*
Y5876D02*
Y5956D01*
Y5986D02*
Y6066D01*
Y6119D02*
Y6196D01*
Y6226D02*
Y6306D01*
Y6491D02*
Y6571D01*
Y6816D02*
Y6901D01*
Y7299D02*
Y7386D01*
Y7454D02*
Y7869D01*
Y7951D02*
Y8044D01*
Y8279D02*
Y8366D01*
Y8971D02*
Y9129D01*
Y9289D02*
Y9296D01*
Y9454D02*
Y9601D01*
Y9729D02*
Y9849D01*
X21334Y4471D02*
Y4886D01*
Y5001D02*
Y5086D01*
Y5131D02*
Y5216D01*
Y5374D02*
Y5454D01*
Y5699D02*
Y5784D01*
Y5876D02*
Y5956D01*
Y5986D02*
Y6066D01*
Y6116D02*
Y6194D01*
Y6229D02*
Y6309D01*
Y6491D02*
Y6571D01*
Y6816D02*
Y6901D01*
Y7299D02*
Y7386D01*
Y7454D02*
Y7869D01*
Y7951D02*
Y8041D01*
Y8279D02*
Y8366D01*
Y8969D02*
Y9126D01*
Y9286D02*
Y9299D01*
Y9456D02*
Y9604D01*
Y9729D02*
Y9851D01*
X21336Y4471D02*
Y4886D01*
Y5001D02*
Y5086D01*
Y5131D02*
Y5216D01*
Y5374D02*
Y5454D01*
Y5699D02*
Y5784D01*
Y5874D02*
Y5954D01*
Y5989D02*
Y6066D01*
Y6116D02*
Y6194D01*
Y6229D02*
Y6309D01*
Y6491D02*
Y6571D01*
Y6816D02*
Y6901D01*
Y7299D02*
Y7386D01*
Y7454D02*
Y7869D01*
Y7949D02*
Y8041D01*
Y8279D02*
Y8366D01*
Y8966D02*
Y9124D01*
Y9284D02*
Y9301D01*
Y9459D02*
Y9604D01*
Y9731D02*
Y9851D01*
X21339Y4471D02*
Y4886D01*
Y4999D02*
Y5084D01*
Y5131D02*
Y5219D01*
Y5374D02*
Y5454D01*
Y5699D02*
Y5784D01*
Y5874D02*
Y5954D01*
Y5989D02*
Y6069D01*
Y6116D02*
Y6194D01*
Y6231D02*
Y6309D01*
Y6491D02*
Y6571D01*
Y6816D02*
Y6901D01*
Y7299D02*
Y7386D01*
Y7454D02*
Y7869D01*
Y7949D02*
Y8041D01*
Y8279D02*
Y8366D01*
Y8964D02*
Y9121D01*
Y9281D02*
Y9304D01*
Y9461D02*
Y9606D01*
Y9731D02*
Y9851D01*
X21341Y4471D02*
Y4886D01*
Y4999D02*
Y5084D01*
Y5134D02*
Y5219D01*
Y5374D02*
Y5454D01*
Y5699D02*
Y5784D01*
Y5874D02*
Y5954D01*
Y5991D02*
Y6069D01*
Y6114D02*
Y6191D01*
Y6231D02*
Y6311D01*
Y6491D02*
Y6571D01*
Y6816D02*
Y6901D01*
Y7299D02*
Y7386D01*
Y7454D02*
Y7869D01*
Y7949D02*
Y8039D01*
Y8279D02*
Y8366D01*
Y8961D02*
Y9119D01*
Y9279D02*
Y9306D01*
Y9464D02*
Y9606D01*
Y9734D02*
Y9854D01*
X21344Y4471D02*
Y4886D01*
Y4999D02*
Y5081D01*
Y5134D02*
Y5219D01*
Y5374D02*
Y5454D01*
Y5699D02*
Y5784D01*
Y5871D02*
Y5951D01*
Y5991D02*
Y6069D01*
Y6114D02*
Y6191D01*
Y6231D02*
Y6311D01*
Y6491D02*
Y6571D01*
Y6816D02*
Y6901D01*
Y7299D02*
Y7386D01*
Y7454D02*
Y7869D01*
Y7949D02*
Y8039D01*
Y8279D02*
Y8366D01*
Y8959D02*
Y9116D01*
Y9276D02*
Y9309D01*
Y9466D02*
Y9609D01*
Y9734D02*
Y9854D01*
X21346Y4471D02*
Y4886D01*
Y4996D02*
Y5081D01*
Y5136D02*
Y5221D01*
Y5374D02*
Y5454D01*
Y5699D02*
Y5784D01*
Y5871D02*
Y5951D01*
Y5991D02*
Y6071D01*
Y6111D02*
Y6189D01*
Y6234D02*
Y6311D01*
Y6491D02*
Y6571D01*
Y6816D02*
Y6901D01*
Y7299D02*
Y7386D01*
Y7454D02*
Y7869D01*
Y7949D02*
Y8039D01*
Y8279D02*
Y8366D01*
Y8956D02*
Y9114D01*
Y9274D02*
Y9311D01*
Y9469D02*
Y9611D01*
Y9734D02*
Y9854D01*
X21349Y4471D02*
Y4886D01*
Y4996D02*
Y5079D01*
Y5136D02*
Y5221D01*
Y5374D02*
Y5454D01*
Y5699D02*
Y5784D01*
Y5871D02*
Y5951D01*
Y5994D02*
Y6071D01*
Y6111D02*
Y6189D01*
Y6234D02*
Y6314D01*
Y6491D02*
Y6571D01*
Y6816D02*
Y6901D01*
Y7299D02*
Y7386D01*
Y7454D02*
Y7869D01*
Y7946D02*
Y8036D01*
Y8279D02*
Y8366D01*
Y8954D02*
Y9111D01*
Y9271D02*
Y9314D01*
Y9471D02*
Y9611D01*
Y9736D02*
Y9856D01*
X21351Y4471D02*
Y4886D01*
Y4994D02*
Y5079D01*
Y5139D02*
Y5224D01*
Y5374D02*
Y5454D01*
Y5699D02*
Y5784D01*
Y5869D02*
Y5949D01*
Y5994D02*
Y6074D01*
Y6111D02*
Y6189D01*
Y6234D02*
Y6314D01*
Y6491D02*
Y6571D01*
Y6816D02*
Y6901D01*
Y7299D02*
Y7386D01*
Y7454D02*
Y7869D01*
Y7946D02*
Y8036D01*
Y8279D02*
Y8366D01*
Y8951D02*
Y9109D01*
Y9269D02*
Y9316D01*
Y9474D02*
Y9614D01*
Y9736D02*
Y9856D01*
X21354Y4471D02*
Y4886D01*
Y4994D02*
Y5079D01*
Y5139D02*
Y5224D01*
Y5374D02*
Y5454D01*
Y5699D02*
Y5784D01*
Y5869D02*
Y5949D01*
Y5994D02*
Y6074D01*
Y6109D02*
Y6186D01*
Y6236D02*
Y6316D01*
Y6491D02*
Y6571D01*
Y6816D02*
Y6901D01*
Y7299D02*
Y7386D01*
Y7454D02*
Y7869D01*
Y7946D02*
Y8036D01*
Y8279D02*
Y8366D01*
Y8949D02*
Y9106D01*
Y9266D02*
Y9319D01*
Y9476D02*
Y9614D01*
Y9739D02*
Y9856D01*
X21356Y4474D02*
Y4886D01*
Y4991D02*
Y5076D01*
Y5139D02*
Y5224D01*
Y5374D02*
Y5454D01*
Y5699D02*
Y5784D01*
Y5866D02*
Y5949D01*
Y5996D02*
Y6074D01*
Y6109D02*
Y6186D01*
Y6236D02*
Y6316D01*
Y6491D02*
Y6571D01*
Y6816D02*
Y6901D01*
Y7299D02*
Y7386D01*
Y7454D02*
Y7869D01*
Y7946D02*
Y8036D01*
Y8279D02*
Y8366D01*
Y8946D02*
Y9104D01*
Y9264D02*
Y9321D01*
Y9479D02*
Y9616D01*
Y9739D02*
Y9859D01*
X21359Y4474D02*
Y4886D01*
Y4991D02*
Y5076D01*
Y5141D02*
Y5226D01*
Y5374D02*
Y5454D01*
Y5699D02*
Y5784D01*
Y5866D02*
Y5946D01*
Y5996D02*
Y6076D01*
Y6109D02*
Y6186D01*
Y6236D02*
Y6316D01*
Y6491D02*
Y6571D01*
Y6816D02*
Y6901D01*
Y7299D02*
Y7384D01*
Y7454D02*
Y7869D01*
Y7946D02*
Y8036D01*
Y8279D02*
Y8366D01*
Y8944D02*
Y9101D01*
Y9261D02*
Y9324D01*
Y9481D02*
Y9616D01*
Y9739D02*
Y9859D01*
X21361Y4474D02*
Y4886D01*
Y4991D02*
Y5074D01*
Y5141D02*
Y5226D01*
Y5374D02*
Y5454D01*
Y5699D02*
Y5784D01*
Y5866D02*
Y5946D01*
Y5999D02*
Y6076D01*
Y6106D02*
Y6184D01*
Y6239D02*
Y6319D01*
Y6491D02*
Y6571D01*
Y6816D02*
Y6899D01*
Y7299D02*
Y7384D01*
Y7454D02*
Y7869D01*
Y7946D02*
Y8034D01*
Y8279D02*
Y8366D01*
Y8941D02*
Y9099D01*
Y9259D02*
Y9326D01*
Y9484D02*
Y9619D01*
Y9741D02*
Y9859D01*
X21364Y4474D02*
Y4886D01*
Y4989D02*
Y5074D01*
Y5144D02*
Y5229D01*
Y5374D02*
Y5454D01*
Y5699D02*
Y5781D01*
Y5864D02*
Y5944D01*
Y5999D02*
Y6076D01*
Y6106D02*
Y6184D01*
Y6239D02*
Y6319D01*
Y6491D02*
Y6571D01*
Y6816D02*
Y6899D01*
Y7299D02*
Y7384D01*
Y7454D02*
Y7866D01*
Y7944D02*
Y8034D01*
Y8279D02*
Y8366D01*
Y8939D02*
Y9096D01*
Y9256D02*
Y9329D01*
Y9486D02*
Y9619D01*
Y9741D02*
Y9859D01*
X21366Y4474D02*
Y4886D01*
Y4989D02*
Y5071D01*
Y5144D02*
Y5229D01*
Y5374D02*
Y5454D01*
Y5696D02*
Y5781D01*
Y5864D02*
Y5944D01*
Y5999D02*
Y6079D01*
Y6104D02*
Y6181D01*
Y6239D02*
Y6319D01*
Y6491D02*
Y6571D01*
Y6814D02*
Y6899D01*
Y7299D02*
Y7384D01*
Y7454D02*
Y7866D01*
Y7944D02*
Y8034D01*
Y8279D02*
Y8366D01*
Y8936D02*
Y9094D01*
Y9254D02*
Y9331D01*
Y9489D02*
Y9621D01*
Y9744D02*
Y9861D01*
X21369Y4474D02*
Y4886D01*
Y4986D02*
Y5071D01*
Y5144D02*
Y5231D01*
Y5374D02*
Y5454D01*
Y5696D02*
Y5781D01*
Y5864D02*
Y5944D01*
Y6001D02*
Y6079D01*
Y6104D02*
Y6181D01*
Y6241D02*
Y6321D01*
Y6491D02*
Y6571D01*
Y6814D02*
Y6899D01*
Y7296D02*
Y7384D01*
Y7454D02*
Y7866D01*
Y7944D02*
Y8034D01*
Y8279D02*
Y8366D01*
Y8934D02*
Y9091D01*
Y9251D02*
Y9334D01*
Y9489D02*
Y9621D01*
Y9744D02*
Y9861D01*
X21371Y4474D02*
Y4886D01*
Y4986D02*
Y5071D01*
Y5146D02*
Y5231D01*
Y5374D02*
Y5454D01*
Y5696D02*
Y5781D01*
Y5861D02*
Y5941D01*
Y6001D02*
Y6081D01*
Y6104D02*
Y6181D01*
Y6241D02*
Y6321D01*
Y6491D02*
Y6571D01*
Y6814D02*
Y6899D01*
Y7296D02*
Y7384D01*
Y7456D02*
Y7866D01*
Y7944D02*
Y8034D01*
Y8279D02*
Y8366D01*
Y8931D02*
Y9089D01*
Y9249D02*
Y9336D01*
Y9491D02*
Y9624D01*
Y9744D02*
Y9861D01*
X21374Y4474D02*
Y4886D01*
Y4984D02*
Y5069D01*
Y5146D02*
Y5231D01*
Y5374D02*
Y5456D01*
Y5696D02*
Y5781D01*
Y5861D02*
Y5941D01*
Y6001D02*
Y6081D01*
Y6101D02*
Y6179D01*
Y6244D02*
Y6321D01*
Y6491D02*
Y6574D01*
Y6814D02*
Y6899D01*
Y7296D02*
Y7384D01*
Y7456D02*
Y7866D01*
Y7944D02*
Y8034D01*
Y8279D02*
Y8366D01*
Y8929D02*
Y9086D01*
Y9246D02*
Y9339D01*
Y9494D02*
Y9624D01*
Y9746D02*
Y9864D01*
X21376Y4474D02*
Y4884D01*
Y4984D02*
Y5069D01*
Y5149D02*
Y5234D01*
Y5374D02*
Y5456D01*
Y5696D02*
Y5781D01*
Y5861D02*
Y5941D01*
Y6004D02*
Y6081D01*
Y6101D02*
Y6179D01*
Y6244D02*
Y6324D01*
Y6491D02*
Y6574D01*
Y6814D02*
Y6899D01*
Y7296D02*
Y7384D01*
Y7456D02*
Y7866D01*
Y7944D02*
Y8031D01*
Y8279D02*
Y8366D01*
Y8926D02*
Y9084D01*
Y9244D02*
Y9341D01*
Y9496D02*
Y9626D01*
Y9746D02*
Y9864D01*
X21379Y4476D02*
Y4884D01*
Y4984D02*
Y5066D01*
Y5149D02*
Y5234D01*
Y5374D02*
Y5456D01*
Y5696D02*
Y5781D01*
Y5859D02*
Y5939D01*
Y6004D02*
Y6084D01*
Y6099D02*
Y6176D01*
Y6244D02*
Y6324D01*
Y6491D02*
Y6574D01*
Y6814D02*
Y6899D01*
Y7296D02*
Y7384D01*
Y7456D02*
Y7866D01*
Y7944D02*
Y8031D01*
Y8279D02*
Y8366D01*
Y8924D02*
Y9081D01*
Y9241D02*
Y9344D01*
Y9499D02*
Y9626D01*
Y9746D02*
Y9864D01*
X21381Y4476D02*
Y4884D01*
Y4981D02*
Y5066D01*
Y5151D02*
Y5236D01*
Y5374D02*
Y5456D01*
Y5694D02*
Y5781D01*
Y5859D02*
Y5939D01*
Y6006D02*
Y6084D01*
Y6099D02*
Y6176D01*
Y6246D02*
Y6326D01*
Y6491D02*
Y6574D01*
Y6811D02*
Y6899D01*
Y7294D02*
Y7381D01*
Y7456D02*
Y7866D01*
Y7944D02*
Y8031D01*
Y8279D02*
Y8366D01*
Y8921D02*
Y9079D01*
Y9239D02*
Y9346D01*
Y9499D02*
Y9629D01*
Y9749D02*
Y9864D01*
X21384Y4476D02*
Y4884D01*
Y4981D02*
Y5064D01*
Y5151D02*
Y5236D01*
Y5374D02*
Y5456D01*
Y5694D02*
Y5781D01*
Y5856D02*
Y5939D01*
Y6006D02*
Y6084D01*
Y6099D02*
Y6176D01*
Y6246D02*
Y6326D01*
Y6491D02*
Y6574D01*
Y6811D02*
Y6896D01*
Y7294D02*
Y7381D01*
Y7456D02*
Y7864D01*
Y7944D02*
Y8031D01*
Y8279D02*
Y8366D01*
Y8919D02*
Y9076D01*
Y9236D02*
Y9349D01*
Y9501D02*
Y9629D01*
Y9749D02*
Y9866D01*
X21386Y4476D02*
Y4884D01*
Y4979D02*
Y5064D01*
Y5151D02*
Y5239D01*
Y5374D02*
Y5459D01*
Y5694D02*
Y5779D01*
Y5856D02*
Y5936D01*
Y6006D02*
Y6086D01*
Y6096D02*
Y6174D01*
Y6246D02*
Y6326D01*
Y6491D02*
Y6576D01*
Y6811D02*
Y6896D01*
Y7294D02*
Y7381D01*
Y7459D02*
Y7784D01*
Y7786D02*
Y7864D01*
Y7944D02*
Y8031D01*
Y8279D02*
Y8366D01*
Y8916D02*
Y9074D01*
Y9234D02*
Y9351D01*
Y9504D02*
Y9631D01*
Y9749D02*
Y9866D01*
X21389Y4476D02*
Y4554D01*
Y4806D02*
Y4884D01*
Y4979D02*
Y5064D01*
Y5154D02*
Y5239D01*
Y5374D02*
Y5459D01*
Y5694D02*
Y5779D01*
Y5856D02*
Y5936D01*
Y6009D02*
Y6086D01*
Y6096D02*
Y6174D01*
Y6249D02*
Y6329D01*
Y6491D02*
Y6576D01*
Y6811D02*
Y6896D01*
Y7291D02*
Y7381D01*
Y7459D02*
Y7534D01*
Y7786D02*
Y7864D01*
Y7944D02*
Y8031D01*
Y8279D02*
Y8366D01*
Y8914D02*
Y9071D01*
Y9231D02*
Y9354D01*
Y9504D02*
Y9631D01*
Y9751D02*
Y9866D01*
X21391Y4476D02*
Y4554D01*
Y4804D02*
Y4881D01*
Y4976D02*
Y5061D01*
Y5154D02*
Y5239D01*
Y5374D02*
Y5459D01*
Y5691D02*
Y5779D01*
Y5854D02*
Y5936D01*
Y6009D02*
Y6089D01*
Y6096D02*
Y6174D01*
Y6249D02*
Y6329D01*
Y6491D02*
Y6576D01*
Y6809D02*
Y6896D01*
Y7291D02*
Y7379D01*
Y7459D02*
Y7536D01*
Y7786D02*
Y7864D01*
Y7941D02*
Y8031D01*
Y8279D02*
Y8366D01*
Y8911D02*
Y9069D01*
Y9229D02*
Y9356D01*
Y9506D02*
Y9631D01*
Y9751D02*
Y9866D01*
X21394Y4479D02*
Y4554D01*
Y4804D02*
Y4881D01*
Y4976D02*
Y5061D01*
Y5156D02*
Y5241D01*
Y5374D02*
Y5461D01*
Y5691D02*
Y5779D01*
Y5854D02*
Y5934D01*
Y6009D02*
Y6089D01*
Y6094D02*
Y6171D01*
Y6249D02*
Y6329D01*
Y6491D02*
Y6576D01*
Y6809D02*
Y6896D01*
Y7291D02*
Y7379D01*
Y7459D02*
Y7536D01*
Y7784D02*
Y7864D01*
Y7941D02*
Y8031D01*
Y8279D02*
Y8366D01*
Y8909D02*
Y9066D01*
Y9226D02*
Y9359D01*
Y9509D02*
Y9634D01*
Y9751D02*
Y9869D01*
X21396Y4479D02*
Y4556D01*
Y4801D02*
Y4881D01*
Y4976D02*
Y5059D01*
Y5156D02*
Y5241D01*
Y5374D02*
Y5461D01*
Y5691D02*
Y5779D01*
Y5854D02*
Y5934D01*
Y6011D02*
Y6089D01*
Y6094D02*
Y6171D01*
Y6251D02*
Y6331D01*
Y6491D02*
Y6579D01*
Y6809D02*
Y6896D01*
Y7289D02*
Y7379D01*
Y7459D02*
Y7536D01*
Y7784D02*
Y7861D01*
Y7941D02*
Y8031D01*
Y8279D02*
Y8366D01*
Y8906D02*
Y9064D01*
Y9224D02*
Y9361D01*
Y9509D02*
Y9634D01*
Y9754D02*
Y9869D01*
X21399Y4479D02*
Y4556D01*
Y4801D02*
Y4881D01*
Y4974D02*
Y5059D01*
Y5159D02*
Y5244D01*
Y5374D02*
Y5461D01*
Y5689D02*
Y5779D01*
Y5851D02*
Y5931D01*
Y6011D02*
Y6169D01*
Y6251D02*
Y6331D01*
Y6491D02*
Y6579D01*
Y6806D02*
Y6894D01*
Y7289D02*
Y7379D01*
Y7461D02*
Y7539D01*
Y7781D02*
Y7861D01*
Y7941D02*
Y8031D01*
Y8279D02*
Y8366D01*
Y8904D02*
Y9061D01*
Y9221D02*
Y9364D01*
Y9511D02*
Y9636D01*
Y9754D02*
Y9869D01*
X21401Y4479D02*
Y4556D01*
Y4801D02*
Y4881D01*
Y4974D02*
Y5056D01*
Y5159D02*
Y5244D01*
Y5374D02*
Y5464D01*
Y5689D02*
Y5776D01*
Y5851D02*
Y5931D01*
Y6014D02*
Y6169D01*
Y6251D02*
Y6331D01*
Y6491D02*
Y6581D01*
Y6806D02*
Y6894D01*
Y7286D02*
Y7376D01*
Y7461D02*
Y7539D01*
Y7781D02*
Y7861D01*
Y7941D02*
Y8031D01*
Y8279D02*
Y8366D01*
Y8901D02*
Y9059D01*
Y9219D02*
Y9366D01*
Y9514D02*
Y9636D01*
Y9754D02*
Y9869D01*
X21404Y4481D02*
Y4559D01*
Y4799D02*
Y4879D01*
Y4971D02*
Y5056D01*
Y5159D02*
Y5246D01*
Y5374D02*
Y5464D01*
Y5686D02*
Y5776D01*
Y5851D02*
Y5931D01*
Y6014D02*
Y6169D01*
Y6254D02*
Y6334D01*
Y6491D02*
Y6581D01*
Y6804D02*
Y6894D01*
Y7286D02*
Y7376D01*
Y7461D02*
Y7539D01*
Y7779D02*
Y7861D01*
Y7941D02*
Y8031D01*
Y8279D02*
Y8366D01*
Y8899D02*
Y9056D01*
Y9216D02*
Y9369D01*
Y9514D02*
Y9636D01*
Y9754D02*
Y9869D01*
X21406Y4481D02*
Y4559D01*
Y4799D02*
Y4879D01*
Y4971D02*
Y5056D01*
Y5161D02*
Y5246D01*
Y5374D02*
Y5464D01*
Y5686D02*
Y5776D01*
Y5849D02*
Y5929D01*
Y6014D02*
Y6166D01*
Y6254D02*
Y6334D01*
Y6491D02*
Y6584D01*
Y6804D02*
Y6894D01*
Y7284D02*
Y7376D01*
Y7461D02*
Y7541D01*
Y7779D02*
Y7859D01*
Y7941D02*
Y8031D01*
Y8279D02*
Y8366D01*
Y8896D02*
Y9054D01*
Y9214D02*
Y9371D01*
Y9516D02*
Y9639D01*
Y9756D02*
Y9871D01*
X21409Y4481D02*
Y4559D01*
Y4796D02*
Y4879D01*
Y4969D02*
Y5054D01*
Y5161D02*
Y5246D01*
Y5374D02*
Y5466D01*
Y5686D02*
Y5776D01*
Y5849D02*
Y5929D01*
Y6016D02*
Y6166D01*
Y6256D02*
Y6334D01*
Y6491D02*
Y6584D01*
Y6801D02*
Y6894D01*
Y7284D02*
Y7374D01*
Y7464D02*
Y7541D01*
Y7776D02*
Y7859D01*
Y7941D02*
Y8031D01*
Y8279D02*
Y8366D01*
Y8894D02*
Y9051D01*
Y9211D02*
Y9374D01*
Y9516D02*
Y9639D01*
Y9756D02*
Y9871D01*
X21411Y4481D02*
Y4561D01*
Y4796D02*
Y4876D01*
Y4969D02*
Y5054D01*
Y5164D02*
Y5249D01*
Y5374D02*
Y5466D01*
Y5684D02*
Y5774D01*
Y5846D02*
Y5929D01*
Y6016D02*
Y6166D01*
Y6256D02*
Y6336D01*
Y6491D02*
Y6586D01*
Y6801D02*
Y6891D01*
Y7281D02*
Y7374D01*
Y7464D02*
Y7541D01*
Y7776D02*
Y7859D01*
Y7941D02*
Y8031D01*
Y8279D02*
Y8366D01*
Y8891D02*
Y9049D01*
Y9209D02*
Y9376D01*
Y9519D02*
Y9639D01*
Y9756D02*
Y9871D01*
X21414Y4484D02*
Y4561D01*
Y4794D02*
Y4876D01*
Y4969D02*
Y5051D01*
Y5164D02*
Y5249D01*
Y5374D02*
Y5469D01*
Y5684D02*
Y5774D01*
Y5846D02*
Y5926D01*
Y6019D02*
Y6164D01*
Y6256D02*
Y6336D01*
Y6491D02*
Y6586D01*
Y6799D02*
Y6891D01*
Y7279D02*
Y7374D01*
Y7464D02*
Y7544D01*
Y7774D02*
Y7856D01*
Y7941D02*
Y8031D01*
Y8279D02*
Y8366D01*
Y8889D02*
Y9046D01*
Y9206D02*
Y9379D01*
Y9519D02*
Y9641D01*
Y9756D02*
Y9871D01*
X21416Y4484D02*
Y4564D01*
Y4791D02*
Y4876D01*
Y4966D02*
Y5051D01*
Y5166D02*
Y5251D01*
Y5374D02*
Y5471D01*
Y5681D02*
Y5774D01*
Y5846D02*
Y5926D01*
Y6019D02*
Y6164D01*
Y6259D02*
Y6339D01*
Y6491D02*
Y6589D01*
Y6799D02*
Y6891D01*
Y7279D02*
Y7371D01*
Y7466D02*
Y7544D01*
Y7774D02*
Y7856D01*
Y7941D02*
Y8031D01*
Y8279D02*
Y8366D01*
Y8886D02*
Y9044D01*
Y9204D02*
Y9381D01*
Y9521D02*
Y9641D01*
Y9759D02*
Y9874D01*
X21419Y4484D02*
Y4564D01*
Y4791D02*
Y4874D01*
Y4966D02*
Y5049D01*
Y5166D02*
Y5251D01*
Y5374D02*
Y5471D01*
Y5679D02*
Y5771D01*
Y5844D02*
Y5926D01*
Y6019D02*
Y6161D01*
Y6259D02*
Y6339D01*
Y6491D02*
Y6589D01*
Y6796D02*
Y6889D01*
Y7276D02*
Y7371D01*
Y7466D02*
Y7546D01*
Y7771D02*
Y7856D01*
Y7941D02*
Y8031D01*
Y8279D02*
Y8366D01*
Y8884D02*
Y9041D01*
Y9201D02*
Y9384D01*
Y9521D02*
Y9641D01*
Y9759D02*
Y9874D01*
X21421Y4486D02*
Y4566D01*
Y4789D02*
Y4874D01*
Y4964D02*
Y5049D01*
Y5166D02*
Y5254D01*
Y5374D02*
Y5474D01*
Y5679D02*
Y5771D01*
Y5844D02*
Y5924D01*
Y6021D02*
Y6161D01*
Y6259D02*
Y6339D01*
Y6491D02*
Y6591D01*
Y6796D02*
Y6889D01*
Y7274D02*
Y7371D01*
Y7466D02*
Y7546D01*
Y7771D02*
Y7856D01*
Y7941D02*
Y8031D01*
Y8279D02*
Y8366D01*
Y8881D02*
Y9039D01*
Y9199D02*
Y9386D01*
Y9524D02*
Y9644D01*
Y9759D02*
Y9874D01*
X21424Y4486D02*
Y4566D01*
Y4789D02*
Y4874D01*
Y4964D02*
Y5049D01*
Y5169D02*
Y5254D01*
Y5374D02*
Y5474D01*
Y5676D02*
Y5771D01*
Y5844D02*
Y5924D01*
Y6021D02*
Y6161D01*
Y6261D02*
Y6341D01*
Y6491D02*
Y6594D01*
Y6794D02*
Y6889D01*
Y7274D02*
Y7369D01*
Y7469D02*
Y7549D01*
Y7769D02*
Y7854D01*
Y7941D02*
Y8031D01*
Y8279D02*
Y8366D01*
Y8879D02*
Y9036D01*
Y9196D02*
Y9389D01*
Y9524D02*
Y9644D01*
Y9759D02*
Y9874D01*
X21426Y4486D02*
Y4569D01*
Y4786D02*
Y4871D01*
Y4961D02*
Y5046D01*
Y5169D02*
Y5254D01*
Y5374D02*
Y5476D01*
Y5674D02*
Y5771D01*
Y5841D02*
Y5921D01*
Y6021D02*
Y6159D01*
Y6261D02*
Y6341D01*
Y6491D02*
Y6594D01*
Y6791D02*
Y6886D01*
Y7271D02*
Y7369D01*
Y7469D02*
Y7551D01*
Y7766D02*
Y7854D01*
Y7941D02*
Y8031D01*
Y8279D02*
Y8366D01*
Y8876D02*
Y9034D01*
Y9194D02*
Y9391D01*
Y9526D02*
Y9644D01*
Y9761D02*
Y9874D01*
X21429Y4489D02*
Y4571D01*
Y4784D02*
Y4871D01*
Y4961D02*
Y5046D01*
Y5171D02*
Y5256D01*
Y5374D02*
Y5479D01*
Y5674D02*
Y5769D01*
Y5841D02*
Y5921D01*
Y6024D02*
Y6159D01*
Y6261D02*
Y6341D01*
Y6491D02*
Y6596D01*
Y6789D02*
Y6886D01*
Y7269D02*
Y7366D01*
Y7469D02*
Y7551D01*
Y7766D02*
Y7851D01*
Y7941D02*
Y8031D01*
Y8279D02*
Y8366D01*
Y8874D02*
Y9031D01*
Y9191D02*
Y9394D01*
Y9526D02*
Y9646D01*
Y9761D02*
Y9874D01*
X21431Y4489D02*
Y4571D01*
Y4784D02*
Y4871D01*
Y4959D02*
Y5044D01*
Y5171D02*
Y5256D01*
Y5374D02*
Y5481D01*
Y5671D02*
Y5769D01*
Y5841D02*
Y5921D01*
Y6024D02*
Y6156D01*
Y6264D02*
Y6344D01*
Y6491D02*
Y6599D01*
Y6789D02*
Y6886D01*
Y7266D02*
Y7366D01*
Y7471D02*
Y7554D01*
Y7764D02*
Y7851D01*
Y7944D02*
Y8031D01*
Y8279D02*
Y8366D01*
Y8871D02*
Y9029D01*
Y9189D02*
Y9396D01*
Y9529D02*
Y9646D01*
Y9761D02*
Y9876D01*
X21434Y4491D02*
Y4574D01*
Y4781D02*
Y4869D01*
Y4959D02*
Y5044D01*
Y5174D02*
Y5259D01*
Y5374D02*
Y5481D01*
Y5669D02*
Y5766D01*
Y5839D02*
Y5919D01*
Y6026D02*
Y6156D01*
Y6264D02*
Y6344D01*
Y6491D02*
Y6601D01*
Y6786D02*
Y6884D01*
Y7049D02*
Y7056D01*
Y7264D02*
Y7364D01*
Y7471D02*
Y7556D01*
Y7761D02*
Y7849D01*
Y7944D02*
Y8031D01*
Y8279D02*
Y8366D01*
Y8869D02*
Y9026D01*
Y9186D02*
Y9399D01*
Y9529D02*
Y9646D01*
Y9761D02*
Y9876D01*
X21436Y4491D02*
Y4576D01*
Y4779D02*
Y4869D01*
Y4959D02*
Y5041D01*
Y5174D02*
Y5259D01*
Y5374D02*
Y5484D01*
Y5666D02*
Y5766D01*
Y5839D02*
Y5919D01*
Y6026D02*
Y6156D01*
Y6264D02*
Y6344D01*
Y6491D02*
Y6601D01*
Y6784D02*
Y6884D01*
Y7046D02*
Y7059D01*
Y7261D02*
Y7364D01*
Y7474D02*
Y7556D01*
Y7761D02*
Y7849D01*
Y7944D02*
Y8031D01*
Y8279D02*
Y8366D01*
Y8866D02*
Y9024D01*
Y9184D02*
Y9401D01*
Y9529D02*
Y9646D01*
Y9761D02*
Y9876D01*
X21439Y4494D02*
Y4579D01*
Y4779D02*
Y4866D01*
Y4956D02*
Y5041D01*
Y5174D02*
Y5261D01*
Y5374D02*
Y5486D01*
Y5664D02*
Y5766D01*
Y5839D02*
Y5919D01*
Y6026D02*
Y6154D01*
Y6266D02*
Y6346D01*
Y6491D02*
Y6604D01*
Y6781D02*
Y6881D01*
Y7041D02*
Y7061D01*
Y7259D02*
Y7361D01*
Y7474D02*
Y7559D01*
Y7759D02*
Y7849D01*
Y7944D02*
Y8031D01*
Y8279D02*
Y8366D01*
Y8864D02*
Y9021D01*
Y9181D02*
Y9401D01*
Y9531D02*
Y9649D01*
Y9764D02*
Y9876D01*
X21441Y4494D02*
Y4579D01*
Y4776D02*
Y4866D01*
Y4956D02*
Y5041D01*
Y5176D02*
Y5261D01*
Y5374D02*
Y5489D01*
Y5661D02*
Y5764D01*
Y5836D02*
Y5916D01*
Y6029D02*
Y6154D01*
Y6266D02*
Y6346D01*
Y6491D02*
Y6606D01*
Y6779D02*
Y6881D01*
Y7036D02*
Y7064D01*
Y7256D02*
Y7361D01*
Y7476D02*
Y7561D01*
Y7756D02*
Y7846D01*
Y7944D02*
Y8031D01*
Y8279D02*
Y8366D01*
Y8861D02*
Y9019D01*
Y9179D02*
Y9404D01*
Y9531D02*
Y9649D01*
Y9764D02*
Y9876D01*
X21444Y4496D02*
Y4581D01*
Y4774D02*
Y4864D01*
Y4954D02*
Y5039D01*
Y5176D02*
Y5261D01*
Y5374D02*
Y5491D01*
Y5659D02*
Y5764D01*
Y5836D02*
Y5916D01*
Y6029D02*
Y6154D01*
Y6269D02*
Y6346D01*
Y6491D02*
Y6609D01*
Y6776D02*
Y6879D01*
Y7031D02*
Y7066D01*
Y7254D02*
Y7359D01*
Y7476D02*
Y7564D01*
Y7754D02*
Y7846D01*
Y7944D02*
Y8031D01*
Y8279D02*
Y8366D01*
Y8859D02*
Y9016D01*
Y9179D02*
Y9406D01*
Y9531D02*
Y9649D01*
Y9764D02*
Y9876D01*
X21446Y4496D02*
Y4586D01*
Y4771D02*
Y4864D01*
Y4954D02*
Y5039D01*
Y5179D02*
Y5264D01*
Y5374D02*
Y5494D01*
Y5656D02*
Y5761D01*
Y5834D02*
Y5916D01*
Y6029D02*
Y6151D01*
Y6269D02*
Y6349D01*
Y6491D02*
Y6611D01*
Y6774D02*
Y6879D01*
Y7026D02*
Y7071D01*
Y7251D02*
Y7359D01*
Y7479D02*
Y7566D01*
Y7751D02*
Y7844D01*
Y7944D02*
Y8031D01*
Y8279D02*
Y8366D01*
Y8856D02*
Y9014D01*
Y9176D02*
Y9409D01*
Y9534D02*
Y9649D01*
Y9764D02*
Y9879D01*
X21449Y4499D02*
Y4586D01*
Y4769D02*
Y4861D01*
Y4951D02*
Y5036D01*
Y5179D02*
Y5264D01*
Y5374D02*
Y5496D01*
Y5654D02*
Y5761D01*
Y5834D02*
Y5914D01*
Y6031D02*
Y6151D01*
Y6269D02*
Y6349D01*
Y6491D02*
Y6616D01*
Y6771D02*
Y6879D01*
Y7024D02*
Y7074D01*
Y7246D02*
Y7356D01*
Y7479D02*
Y7569D01*
Y7749D02*
Y7844D01*
Y7944D02*
Y8034D01*
Y8279D02*
Y8366D01*
Y8854D02*
Y9011D01*
Y9174D02*
Y9409D01*
Y9534D02*
Y9651D01*
Y9764D02*
Y9879D01*
X21451Y4499D02*
Y4591D01*
Y4766D02*
Y4861D01*
Y4951D02*
Y5036D01*
Y5181D02*
Y5266D01*
Y5374D02*
Y5501D01*
Y5651D02*
Y5759D01*
Y5834D02*
Y5914D01*
Y6031D02*
Y6149D01*
Y6271D02*
Y6351D01*
Y6491D02*
Y6619D01*
Y6769D02*
Y6876D01*
Y7019D02*
Y7076D01*
Y7244D02*
Y7356D01*
Y7481D02*
Y7571D01*
Y7746D02*
Y7841D01*
Y7944D02*
Y8034D01*
Y8279D02*
Y8366D01*
Y8851D02*
Y9009D01*
Y9171D02*
Y9411D01*
Y9536D02*
Y9651D01*
Y9766D02*
Y9879D01*
X21454Y4501D02*
Y4594D01*
Y4764D02*
Y4859D01*
Y4951D02*
Y5034D01*
Y5181D02*
Y5266D01*
Y5374D02*
Y5504D01*
Y5649D02*
Y5759D01*
Y5831D02*
Y5914D01*
Y6034D02*
Y6149D01*
Y6271D02*
Y6351D01*
Y6491D02*
Y6621D01*
Y6764D02*
Y6876D01*
Y7014D02*
Y7081D01*
Y7239D02*
Y7354D01*
Y7481D02*
Y7574D01*
Y7744D02*
Y7839D01*
Y7944D02*
Y8034D01*
Y8279D02*
Y8366D01*
Y8849D02*
Y9006D01*
Y9171D02*
Y9414D01*
Y9536D02*
Y9651D01*
Y9766D02*
Y9879D01*
X21456Y4501D02*
Y4596D01*
Y4759D02*
Y4856D01*
Y4949D02*
Y5034D01*
Y5181D02*
Y5269D01*
Y5374D02*
Y5506D01*
Y5644D02*
Y5756D01*
Y5831D02*
Y5911D01*
Y6034D02*
Y6149D01*
Y6271D02*
Y6351D01*
Y6491D02*
Y6624D01*
Y6761D02*
Y6874D01*
Y7009D02*
Y7084D01*
Y7236D02*
Y7351D01*
Y7484D02*
Y7579D01*
Y7741D02*
Y7839D01*
Y7944D02*
Y8034D01*
Y8279D02*
Y8366D01*
Y8846D02*
Y9004D01*
Y9169D02*
Y9414D01*
Y9536D02*
Y9651D01*
Y9766D02*
Y9879D01*
X21459Y4504D02*
Y4599D01*
Y4756D02*
Y4856D01*
Y4949D02*
Y5031D01*
Y5184D02*
Y5269D01*
Y5374D02*
Y5511D01*
Y5641D02*
Y5756D01*
Y5831D02*
Y5911D01*
Y6034D02*
Y6146D01*
Y6274D02*
Y6354D01*
Y6491D02*
Y6629D01*
Y6756D02*
Y6871D01*
Y7004D02*
Y7089D01*
Y7231D02*
Y7351D01*
Y7484D02*
Y7581D01*
Y7736D02*
Y7836D01*
Y7946D02*
Y8034D01*
Y8279D02*
Y8366D01*
Y8844D02*
Y9001D01*
Y9169D02*
Y9416D01*
Y9536D02*
Y9651D01*
Y9766D02*
Y9879D01*
X21461Y4504D02*
Y4604D01*
Y4754D02*
Y4854D01*
Y4946D02*
Y5031D01*
Y5184D02*
Y5269D01*
Y5374D02*
Y5516D01*
Y5636D02*
Y5754D01*
Y5829D02*
Y5909D01*
Y6036D02*
Y6146D01*
Y6274D02*
Y6354D01*
Y6491D02*
Y6634D01*
Y6754D02*
Y6871D01*
Y6999D02*
Y7094D01*
Y7226D02*
Y7349D01*
Y7486D02*
Y7586D01*
Y7734D02*
Y7834D01*
Y7946D02*
Y8034D01*
Y8279D02*
Y8366D01*
Y8841D02*
Y8999D01*
Y9166D02*
Y9419D01*
Y9539D02*
Y9654D01*
Y9766D02*
Y9879D01*
X21464Y4506D02*
Y4606D01*
Y4749D02*
Y4854D01*
Y4946D02*
Y5031D01*
Y5186D02*
Y5271D01*
Y5374D02*
Y5519D01*
Y5631D02*
Y5751D01*
Y5829D02*
Y5909D01*
Y6036D02*
Y6146D01*
Y6274D02*
Y6354D01*
Y6491D02*
Y6639D01*
Y6749D02*
Y6869D01*
Y6996D02*
Y7099D01*
Y7219D02*
Y7346D01*
Y7489D02*
Y7589D01*
Y7729D02*
Y7834D01*
Y7946D02*
Y8034D01*
Y8279D02*
Y8366D01*
Y8839D02*
Y8996D01*
Y9166D02*
Y9419D01*
Y9539D02*
Y9654D01*
Y9766D02*
Y9879D01*
X21466Y4509D02*
Y4611D01*
Y4744D02*
Y4851D01*
Y4944D02*
Y5029D01*
Y5186D02*
Y5271D01*
Y5374D02*
Y5526D01*
Y5626D02*
Y5751D01*
Y5829D02*
Y5909D01*
Y6036D02*
Y6144D01*
Y6276D02*
Y6356D01*
Y6491D02*
Y6644D01*
Y6744D02*
Y6866D01*
Y6991D02*
Y7106D01*
Y7214D02*
Y7344D01*
Y7489D02*
Y7594D01*
Y7724D02*
Y7831D01*
Y7946D02*
Y8036D01*
Y8279D02*
Y8366D01*
Y8836D02*
Y8994D01*
Y9164D02*
Y9421D01*
Y9539D02*
Y9654D01*
Y9766D02*
Y9881D01*
X21469Y4509D02*
Y4616D01*
Y4739D02*
Y4849D01*
Y4944D02*
Y5029D01*
Y5189D02*
Y5274D01*
Y5374D02*
Y5531D01*
Y5621D02*
Y5749D01*
Y5826D02*
Y5906D01*
Y6039D02*
Y6144D01*
Y6276D02*
Y6356D01*
Y6491D02*
Y6649D01*
Y6736D02*
Y6866D01*
Y6986D02*
Y7114D01*
Y7204D02*
Y7344D01*
Y7491D02*
Y7599D01*
Y7719D02*
Y7829D01*
Y7946D02*
Y8036D01*
Y8279D02*
Y8366D01*
Y8834D02*
Y8991D01*
Y9164D02*
Y9421D01*
Y9541D02*
Y9654D01*
Y9769D02*
Y9881D01*
X21471Y4511D02*
Y4621D01*
Y4734D02*
Y4846D01*
Y4944D02*
Y5026D01*
Y5189D02*
Y5274D01*
Y5374D02*
Y5539D01*
Y5614D02*
Y5746D01*
Y5826D02*
Y5906D01*
Y6039D02*
Y6141D01*
Y6276D02*
Y6356D01*
Y6491D02*
Y6659D01*
Y6729D02*
Y6864D01*
Y6984D02*
Y7124D01*
Y7194D02*
Y7341D01*
Y7494D02*
Y7604D01*
Y7714D02*
Y7829D01*
Y7946D02*
Y8036D01*
Y8279D02*
Y8366D01*
Y8831D02*
Y8989D01*
Y9161D02*
Y9424D01*
Y9541D02*
Y9654D01*
Y9769D02*
Y9881D01*
X21474Y4514D02*
Y4626D01*
Y4729D02*
Y4846D01*
Y4941D02*
Y5026D01*
Y5189D02*
Y5276D01*
Y5374D02*
Y5549D01*
Y5604D02*
Y5746D01*
Y5824D02*
Y5906D01*
Y6041D02*
Y6141D01*
Y6279D02*
Y6359D01*
Y6491D02*
Y6669D01*
Y6719D02*
Y6864D01*
Y6986D02*
Y7141D01*
Y7176D02*
Y7339D01*
Y7496D02*
Y7609D01*
Y7709D02*
Y7826D01*
Y7949D02*
Y8036D01*
Y8279D02*
Y8366D01*
Y8829D02*
Y8986D01*
Y9161D02*
Y9424D01*
Y9541D02*
Y9656D01*
Y9769D02*
Y9881D01*
X21476Y4516D02*
Y4634D01*
Y4721D02*
Y4844D01*
Y4941D02*
Y5024D01*
Y5191D02*
Y5276D01*
Y5374D02*
Y5566D01*
Y5586D02*
Y5744D01*
Y5824D02*
Y5904D01*
Y6041D02*
Y6141D01*
Y6279D02*
Y6359D01*
Y6491D02*
Y6861D01*
Y6989D02*
Y7336D01*
Y7496D02*
Y7616D01*
Y7701D02*
Y7824D01*
Y7949D02*
Y8039D01*
Y8279D02*
Y8366D01*
Y8826D02*
Y8984D01*
Y9159D02*
Y9424D01*
Y9541D02*
Y9656D01*
Y9769D02*
Y9881D01*
X21479Y4516D02*
Y4644D01*
Y4711D02*
Y4841D01*
Y4939D02*
Y5024D01*
Y5191D02*
Y5276D01*
Y5374D02*
Y5741D01*
Y5824D02*
Y5904D01*
Y6041D02*
Y6139D01*
Y6279D02*
Y6361D01*
Y6491D02*
Y6859D01*
Y6991D02*
Y7334D01*
Y7499D02*
Y7626D01*
Y7691D02*
Y7821D01*
Y7949D02*
Y8039D01*
Y8279D02*
Y8366D01*
Y8824D02*
Y8981D01*
Y9159D02*
Y9426D01*
Y9541D02*
Y9656D01*
Y9769D02*
Y9881D01*
X21481Y4519D02*
Y4656D01*
Y4699D02*
Y4839D01*
Y4939D02*
Y5024D01*
Y5194D02*
Y5279D01*
Y5374D02*
Y5741D01*
Y5821D02*
Y5904D01*
Y6044D02*
Y6139D01*
Y6281D02*
Y6361D01*
Y6491D02*
Y6856D01*
Y6991D02*
Y7331D01*
Y7501D02*
Y7641D01*
Y7676D02*
Y7819D01*
Y7949D02*
Y8039D01*
Y8279D02*
Y8366D01*
Y8821D02*
Y8979D01*
Y9156D02*
Y9426D01*
Y9544D02*
Y9656D01*
Y9769D02*
Y9881D01*
X21484Y4521D02*
Y4836D01*
Y4936D02*
Y5021D01*
Y5194D02*
Y5279D01*
Y5374D02*
Y5739D01*
Y5821D02*
Y5901D01*
Y6044D02*
Y6139D01*
Y6281D02*
Y6361D01*
Y6491D02*
Y6854D01*
Y6994D02*
Y7331D01*
Y7504D02*
Y7819D01*
Y7949D02*
Y8039D01*
Y8279D02*
Y8366D01*
Y8819D02*
Y8976D01*
Y9156D02*
Y9429D01*
Y9544D02*
Y9656D01*
Y9769D02*
Y9881D01*
X21486Y4524D02*
Y4834D01*
Y4936D02*
Y5021D01*
Y5196D02*
Y5281D01*
Y5374D02*
Y5459D01*
Y5461D02*
Y5736D01*
Y5821D02*
Y5901D01*
Y6044D02*
Y6136D01*
Y6284D02*
Y6364D01*
Y6491D02*
Y6576D01*
Y6579D02*
Y6854D01*
Y6996D02*
Y7329D01*
Y7506D02*
Y7816D01*
Y7951D02*
Y8041D01*
Y8279D02*
Y8366D01*
Y8816D02*
Y8974D01*
Y9156D02*
Y9429D01*
Y9544D02*
Y9656D01*
Y9769D02*
Y9881D01*
X21489Y4526D02*
Y4834D01*
Y4936D02*
Y5019D01*
Y5196D02*
Y5281D01*
Y5374D02*
Y5459D01*
Y5464D02*
Y5734D01*
Y5819D02*
Y5901D01*
Y6046D02*
Y6136D01*
Y6284D02*
Y6364D01*
Y6491D02*
Y6576D01*
Y6581D02*
Y6851D01*
Y6999D02*
Y7326D01*
Y7509D02*
Y7814D01*
Y7951D02*
Y8041D01*
Y8279D02*
Y8366D01*
Y8814D02*
Y8971D01*
Y9154D02*
Y9429D01*
Y9544D02*
Y9656D01*
Y9769D02*
Y9881D01*
X21491Y4529D02*
Y4831D01*
Y4934D02*
Y5019D01*
Y5196D02*
Y5284D01*
Y5374D02*
Y5459D01*
Y5466D02*
Y5731D01*
Y5819D02*
Y5899D01*
Y6046D02*
Y6134D01*
Y6284D02*
Y6364D01*
Y6491D02*
Y6576D01*
Y6584D02*
Y6849D01*
Y7001D02*
Y7321D01*
Y7511D02*
Y7811D01*
Y7951D02*
Y8041D01*
Y8279D02*
Y8366D01*
Y8811D02*
Y8969D01*
Y9154D02*
Y9429D01*
Y9544D02*
Y9656D01*
Y9769D02*
Y9881D01*
X21494Y4531D02*
Y4829D01*
Y4934D02*
Y5016D01*
Y5199D02*
Y5284D01*
Y5374D02*
Y5459D01*
Y5469D02*
Y5729D01*
Y5819D02*
Y5899D01*
Y6049D02*
Y6134D01*
Y6286D02*
Y6366D01*
Y6491D02*
Y6576D01*
Y6586D02*
Y6846D01*
Y7004D02*
Y7319D01*
Y7514D02*
Y7809D01*
Y7951D02*
Y8044D01*
Y8279D02*
Y8366D01*
Y8809D02*
Y8966D01*
Y9154D02*
Y9431D01*
Y9544D02*
Y9659D01*
Y9771D02*
Y9881D01*
X21496Y4534D02*
Y4826D01*
Y4931D02*
Y5016D01*
Y5199D02*
Y5284D01*
Y5374D02*
Y5459D01*
Y5471D02*
Y5726D01*
Y5816D02*
Y5896D01*
Y6049D02*
Y6134D01*
Y6286D02*
Y6366D01*
Y6491D02*
Y6576D01*
Y6589D02*
Y6844D01*
Y7006D02*
Y7316D01*
Y7516D02*
Y7806D01*
Y7951D02*
Y8044D01*
Y8279D02*
Y8366D01*
Y8806D02*
Y8964D01*
Y9154D02*
Y9431D01*
Y9546D02*
Y9659D01*
Y9771D02*
Y9884D01*
X21499Y4536D02*
Y4824D01*
Y4931D02*
Y5016D01*
Y5201D02*
Y5286D01*
Y5374D02*
Y5459D01*
Y5474D02*
Y5724D01*
Y5816D02*
Y5896D01*
Y6049D02*
Y6131D01*
Y6286D02*
Y6366D01*
Y6491D02*
Y6576D01*
Y6591D02*
Y6841D01*
Y7009D02*
Y7314D01*
Y7519D02*
Y7804D01*
Y7954D02*
Y8044D01*
Y8279D02*
Y8366D01*
Y8804D02*
Y8961D01*
Y9151D02*
Y9431D01*
Y9546D02*
Y9659D01*
Y9771D02*
Y9884D01*
X21501Y4539D02*
Y4821D01*
Y4929D02*
Y5014D01*
Y5201D02*
Y5286D01*
Y5374D02*
Y5459D01*
Y5476D02*
Y5721D01*
Y5814D02*
Y5896D01*
Y6051D02*
Y6131D01*
Y6289D02*
Y6369D01*
Y6491D02*
Y6576D01*
Y6594D02*
Y6839D01*
Y7014D02*
Y7311D01*
Y7521D02*
Y7801D01*
Y7954D02*
Y8046D01*
Y8279D02*
Y8366D01*
Y8801D02*
Y8959D01*
Y9151D02*
Y9431D01*
Y9546D02*
Y9659D01*
Y9771D02*
Y9884D01*
X21504Y4541D02*
Y4816D01*
Y4929D02*
Y5014D01*
Y5204D02*
Y5289D01*
Y5374D02*
Y5459D01*
Y5479D02*
Y5719D01*
Y5814D02*
Y5894D01*
Y6051D02*
Y6129D01*
Y6289D02*
Y6369D01*
Y6491D02*
Y6576D01*
Y6596D02*
Y6836D01*
Y7016D02*
Y7309D01*
Y7524D02*
Y7799D01*
Y7954D02*
Y8046D01*
Y8279D02*
Y8366D01*
Y8799D02*
Y8956D01*
Y9151D02*
Y9434D01*
Y9546D02*
Y9659D01*
Y9771D02*
Y9884D01*
X21506Y4544D02*
Y4814D01*
Y4929D02*
Y5011D01*
Y5204D02*
Y5289D01*
Y5374D02*
Y5459D01*
Y5481D02*
Y5716D01*
Y5814D02*
Y5894D01*
Y6051D02*
Y6129D01*
Y6289D02*
Y6369D01*
Y6491D02*
Y6576D01*
Y6599D02*
Y6834D01*
Y7019D02*
Y7304D01*
Y7526D02*
Y7794D01*
Y7956D02*
Y8049D01*
Y8279D02*
Y8366D01*
Y8796D02*
Y8954D01*
Y9151D02*
Y9434D01*
Y9546D02*
Y9659D01*
Y9771D02*
Y9884D01*
X21509Y4549D02*
Y4811D01*
Y4926D02*
Y5011D01*
Y5204D02*
Y5291D01*
Y5374D02*
Y5459D01*
Y5484D02*
Y5714D01*
Y5811D02*
Y5894D01*
Y6054D02*
Y6129D01*
Y6291D02*
Y6371D01*
Y6491D02*
Y6576D01*
Y6601D02*
Y6831D01*
Y7021D02*
Y7301D01*
Y7529D02*
Y7791D01*
Y7956D02*
Y8049D01*
Y8279D02*
Y8366D01*
Y8794D02*
Y8951D01*
Y9151D02*
Y9434D01*
Y9546D02*
Y9659D01*
Y9771D02*
Y9884D01*
X21511Y4551D02*
Y4809D01*
Y4926D02*
Y5009D01*
Y5206D02*
Y5291D01*
Y5374D02*
Y5459D01*
Y5486D02*
Y5711D01*
Y5811D02*
Y5891D01*
Y6054D02*
Y6126D01*
Y6291D02*
Y6371D01*
Y6491D02*
Y6576D01*
Y6604D02*
Y6829D01*
Y7026D02*
Y7296D01*
Y7534D02*
Y7789D01*
Y7956D02*
Y8051D01*
Y8279D02*
Y8366D01*
Y8791D02*
Y8949D01*
Y9151D02*
Y9434D01*
Y9546D02*
Y9659D01*
Y9771D02*
Y9884D01*
X21514Y4554D02*
Y4806D01*
Y4924D02*
Y5009D01*
Y5206D02*
Y5291D01*
Y5374D02*
Y5459D01*
Y5489D02*
Y5709D01*
Y5811D02*
Y5891D01*
Y6056D02*
Y6126D01*
Y6291D02*
Y6374D01*
Y6491D02*
Y6576D01*
Y6609D02*
Y6824D01*
Y7029D02*
Y7294D01*
Y7536D02*
Y7786D01*
Y7956D02*
Y8051D01*
Y8279D02*
Y8366D01*
Y8789D02*
Y8946D01*
Y9149D02*
Y9434D01*
Y9546D02*
Y9659D01*
Y9771D02*
Y9884D01*
X21516Y4556D02*
Y4801D01*
Y4924D02*
Y5009D01*
Y5209D02*
Y5294D01*
Y5374D02*
Y5459D01*
Y5494D02*
Y5706D01*
Y5809D02*
Y5891D01*
Y6056D02*
Y6126D01*
Y6294D02*
Y6374D01*
Y6491D02*
Y6576D01*
Y6611D02*
Y6821D01*
Y7034D02*
Y7291D01*
Y7539D02*
Y7781D01*
Y7959D02*
Y8054D01*
Y8279D02*
Y8366D01*
Y8786D02*
Y8944D01*
Y9149D02*
Y9434D01*
Y9546D02*
Y9659D01*
Y9771D02*
Y9884D01*
X21519Y4561D02*
Y4799D01*
Y4921D02*
Y5006D01*
Y5209D02*
Y5294D01*
Y5374D02*
Y5459D01*
Y5496D02*
Y5701D01*
Y5809D02*
Y5889D01*
Y6056D02*
Y6124D01*
Y6294D02*
Y6374D01*
Y6491D02*
Y6576D01*
Y6614D02*
Y6819D01*
Y7036D02*
Y7286D01*
Y7544D02*
Y7779D01*
Y7959D02*
Y8054D01*
Y8279D02*
Y8366D01*
Y8784D02*
Y8941D01*
Y9149D02*
Y9434D01*
Y9546D02*
Y9659D01*
Y9771D02*
Y9884D01*
X21521Y4564D02*
Y4794D01*
Y4921D02*
Y5006D01*
Y5211D02*
Y5296D01*
Y5374D02*
Y5459D01*
Y5499D02*
Y5699D01*
Y5809D02*
Y5889D01*
Y6059D02*
Y6124D01*
Y6296D02*
Y6376D01*
Y6491D02*
Y6576D01*
Y6619D02*
Y6816D01*
Y7041D02*
Y7281D01*
Y7546D02*
Y7774D01*
Y7959D02*
Y8056D01*
Y8279D02*
Y8366D01*
Y8781D02*
Y8939D01*
Y9149D02*
Y9434D01*
Y9546D02*
Y9659D01*
Y9771D02*
Y9884D01*
X21524Y4569D02*
Y4791D01*
Y4921D02*
Y5004D01*
Y5211D02*
Y5296D01*
Y5374D02*
Y5459D01*
Y5504D02*
Y5694D01*
Y5806D02*
Y5889D01*
Y6059D02*
Y6121D01*
Y6296D02*
Y6376D01*
Y6491D02*
Y6576D01*
Y6621D02*
Y6811D01*
Y7046D02*
Y7276D01*
Y7551D02*
Y7771D01*
Y7961D02*
Y8056D01*
Y8279D02*
Y8366D01*
Y8779D02*
Y8936D01*
Y9149D02*
Y9436D01*
Y9546D02*
Y9659D01*
Y9771D02*
Y9884D01*
X21526Y4574D02*
Y4786D01*
Y4919D02*
Y5004D01*
Y5211D02*
Y5296D01*
Y5374D02*
Y5459D01*
Y5506D02*
Y5691D01*
Y5806D02*
Y5886D01*
Y6059D02*
Y6121D01*
Y6296D02*
Y6376D01*
Y6491D02*
Y6576D01*
Y6626D02*
Y6806D01*
Y7049D02*
Y7271D01*
Y7556D02*
Y7766D01*
Y7961D02*
Y8059D01*
Y8279D02*
Y8366D01*
Y8776D02*
Y8934D01*
Y9149D02*
Y9436D01*
Y9546D02*
Y9659D01*
Y9771D02*
Y9884D01*
X21529Y4579D02*
Y4781D01*
Y4919D02*
Y5001D01*
Y5214D02*
Y5299D01*
Y5374D02*
Y5459D01*
Y5511D02*
Y5686D01*
Y5804D02*
Y5886D01*
Y6061D02*
Y6121D01*
Y6299D02*
Y6379D01*
Y6491D02*
Y6576D01*
Y6629D02*
Y6804D01*
Y7054D02*
Y7266D01*
Y7561D02*
Y7761D01*
Y7964D02*
Y8061D01*
Y8279D02*
Y8366D01*
Y8774D02*
Y8931D01*
Y9149D02*
Y9436D01*
Y9546D02*
Y9659D01*
Y9771D02*
Y9884D01*
X21531Y4584D02*
Y4776D01*
Y4916D02*
Y5001D01*
Y5214D02*
Y5299D01*
Y5374D02*
Y5459D01*
Y5516D02*
Y5684D01*
Y5804D02*
Y5884D01*
Y6061D02*
Y6119D01*
Y6299D02*
Y6379D01*
Y6491D02*
Y6576D01*
Y6634D02*
Y6799D01*
Y7061D02*
Y7261D01*
Y7566D02*
Y7756D01*
Y7964D02*
Y8061D01*
Y8279D02*
Y8366D01*
Y8771D02*
Y8929D01*
Y9149D02*
Y9436D01*
Y9546D02*
Y9659D01*
Y9771D02*
Y9884D01*
X21534Y4589D02*
Y4771D01*
Y4916D02*
Y5001D01*
Y5216D02*
Y5301D01*
Y5374D02*
Y5459D01*
Y5521D02*
Y5679D01*
Y5804D02*
Y5884D01*
Y6064D02*
Y6119D01*
Y6299D02*
Y6379D01*
Y6491D02*
Y6576D01*
Y6639D02*
Y6794D01*
Y7066D02*
Y7256D01*
Y7571D02*
Y7751D01*
Y7964D02*
Y8064D01*
Y8279D02*
Y8366D01*
Y8769D02*
Y8926D01*
Y9149D02*
Y9436D01*
Y9546D02*
Y9659D01*
Y9771D02*
Y9884D01*
X21536Y4594D02*
Y4766D01*
Y4914D02*
Y4999D01*
Y5216D02*
Y5301D01*
Y5374D02*
Y5459D01*
Y5526D02*
Y5674D01*
Y5801D02*
Y5884D01*
Y6064D02*
Y6119D01*
Y6301D02*
Y6381D01*
Y6491D02*
Y6576D01*
Y6644D02*
Y6789D01*
Y7071D02*
Y7249D01*
Y7576D02*
Y7746D01*
Y7966D02*
Y8066D01*
Y8279D02*
Y8366D01*
Y8766D02*
Y8924D01*
Y9149D02*
Y9436D01*
Y9546D02*
Y9659D01*
Y9771D02*
Y9884D01*
X21539Y4601D02*
Y4761D01*
Y4914D02*
Y4999D01*
Y5219D02*
Y5304D01*
Y5374D02*
Y5459D01*
Y5531D02*
Y5666D01*
Y5801D02*
Y5881D01*
Y6064D02*
Y6116D01*
Y6301D02*
Y6381D01*
Y6491D02*
Y6576D01*
Y6649D02*
Y6784D01*
Y7079D02*
Y7244D01*
Y7584D02*
Y7739D01*
Y7966D02*
Y8066D01*
Y8279D02*
Y8366D01*
Y8764D02*
Y8921D01*
Y9149D02*
Y9434D01*
Y9546D02*
Y9659D01*
Y9771D02*
Y9884D01*
X21541Y4609D02*
Y4754D01*
Y4911D02*
Y4996D01*
Y5219D02*
Y5304D01*
Y5374D02*
Y5459D01*
Y5536D02*
Y5661D01*
Y5801D02*
Y5881D01*
Y6066D02*
Y6116D01*
Y6301D02*
Y6381D01*
Y6491D02*
Y6574D01*
Y6656D02*
Y6776D01*
Y7086D02*
Y7236D01*
Y7591D02*
Y7734D01*
Y7969D02*
Y8069D01*
Y8279D02*
Y8366D01*
Y8761D02*
Y8919D01*
Y9149D02*
Y9434D01*
Y9546D02*
Y9659D01*
Y9771D02*
Y9884D01*
X21544Y4616D02*
Y4746D01*
Y5544D02*
Y5654D01*
Y6664D02*
Y6769D01*
Y7096D02*
Y7226D01*
Y7599D02*
Y7724D01*
Y7969D02*
Y8071D01*
Y8279D02*
Y8366D01*
Y8759D02*
Y8916D01*
Y9149D02*
Y9434D01*
Y9546D02*
Y9659D01*
Y9771D02*
Y9884D01*
X21546Y4626D02*
Y4736D01*
Y5551D02*
Y5646D01*
Y6671D02*
Y6761D01*
Y7106D02*
Y7214D01*
Y7611D02*
Y7714D01*
Y7971D02*
Y8074D01*
Y8279D02*
Y8366D01*
Y8756D02*
Y8914D01*
Y9149D02*
Y9434D01*
Y9546D02*
Y9659D01*
Y9771D02*
Y9884D01*
X21549Y4639D02*
Y4724D01*
Y5561D02*
Y5636D01*
Y6684D02*
Y6749D01*
Y7119D02*
Y7201D01*
Y7624D02*
Y7701D01*
Y7971D02*
Y8076D01*
Y8279D02*
Y8366D01*
Y8754D02*
Y8911D01*
Y9151D02*
Y9434D01*
Y9546D02*
Y9659D01*
Y9771D02*
Y9884D01*
X21551Y4659D02*
Y4706D01*
Y5579D02*
Y5619D01*
Y6701D02*
Y6729D01*
Y7144D02*
Y7171D01*
Y7174D02*
Y7176D01*
Y7646D02*
Y7679D01*
Y7974D02*
Y8076D01*
Y8279D02*
Y8366D01*
Y8751D02*
Y8909D01*
Y9151D02*
Y9434D01*
Y9546D02*
Y9659D01*
Y9771D02*
Y9884D01*
X21554Y7974D02*
Y8079D01*
Y8279D02*
Y8366D01*
Y8749D02*
Y8906D01*
Y9151D02*
Y9434D01*
Y9546D02*
Y9659D01*
Y9771D02*
Y9884D01*
X21556Y7976D02*
Y8081D01*
Y8279D02*
Y8366D01*
Y8746D02*
Y8904D01*
Y9151D02*
Y9434D01*
Y9546D02*
Y9659D01*
Y9771D02*
Y9884D01*
X21559Y7976D02*
Y8084D01*
Y8279D02*
Y8366D01*
Y8744D02*
Y8901D01*
Y9151D02*
Y9431D01*
Y9546D02*
Y9659D01*
Y9771D02*
Y9884D01*
X21561Y7979D02*
Y8089D01*
Y8279D02*
Y8366D01*
Y8741D02*
Y8899D01*
Y9151D02*
Y9431D01*
Y9546D02*
Y9659D01*
Y9771D02*
Y9884D01*
X21564Y7979D02*
Y8091D01*
Y8279D02*
Y8366D01*
Y8739D02*
Y8896D01*
Y9154D02*
Y9431D01*
Y9546D02*
Y9659D01*
Y9771D02*
Y9884D01*
X21566Y7981D02*
Y8094D01*
Y8279D02*
Y8366D01*
Y8736D02*
Y8894D01*
Y9154D02*
Y9431D01*
Y9544D02*
Y9656D01*
Y9771D02*
Y9881D01*
X21569Y7981D02*
Y8096D01*
Y8279D02*
Y8366D01*
Y8734D02*
Y8891D01*
Y9154D02*
Y9429D01*
Y9544D02*
Y9656D01*
Y9769D02*
Y9881D01*
X21571Y7984D02*
Y8101D01*
Y8279D02*
Y8366D01*
Y8731D02*
Y8889D01*
Y9154D02*
Y9429D01*
Y9544D02*
Y9656D01*
Y9769D02*
Y9881D01*
X21574Y7984D02*
Y8104D01*
Y8279D02*
Y8366D01*
Y8729D02*
Y8886D01*
Y9156D02*
Y9429D01*
Y9544D02*
Y9656D01*
Y9769D02*
Y9881D01*
X21576Y7986D02*
Y8109D01*
Y8279D02*
Y8366D01*
Y8726D02*
Y8884D01*
Y9156D02*
Y9429D01*
Y9544D02*
Y9656D01*
Y9769D02*
Y9881D01*
X21579Y7989D02*
Y8111D01*
Y8279D02*
Y8366D01*
Y8724D02*
Y8881D01*
Y9156D02*
Y9426D01*
Y9544D02*
Y9656D01*
Y9769D02*
Y9881D01*
X21581Y7989D02*
Y8116D01*
Y8279D02*
Y8366D01*
Y8721D02*
Y8879D01*
Y9039D02*
Y9041D01*
Y9159D02*
Y9426D01*
Y9541D02*
Y9656D01*
Y9769D02*
Y9881D01*
X21584Y7991D02*
Y8121D01*
Y8279D02*
Y8366D01*
Y8719D02*
Y8876D01*
Y9036D02*
Y9041D01*
Y9159D02*
Y9424D01*
Y9541D02*
Y9656D01*
Y9769D02*
Y9881D01*
X21586Y7994D02*
Y8129D01*
Y8279D02*
Y8366D01*
Y8716D02*
Y8874D01*
Y9034D02*
Y9044D01*
Y9161D02*
Y9424D01*
Y9541D02*
Y9654D01*
Y9769D02*
Y9881D01*
X21589Y7994D02*
Y8134D01*
Y8279D02*
Y8366D01*
Y8714D02*
Y8871D01*
Y9031D02*
Y9044D01*
Y9161D02*
Y9424D01*
Y9541D02*
Y9654D01*
Y9769D02*
Y9881D01*
X21591Y7996D02*
Y8141D01*
Y8279D02*
Y8366D01*
Y8711D02*
Y8869D01*
Y9029D02*
Y9044D01*
Y9164D02*
Y9421D01*
Y9541D02*
Y9654D01*
Y9769D02*
Y9881D01*
X21594Y7999D02*
Y8149D01*
Y8279D02*
Y8366D01*
Y8709D02*
Y8866D01*
Y9026D02*
Y9044D01*
Y9164D02*
Y9421D01*
Y9539D02*
Y9654D01*
Y9766D02*
Y9881D01*
X21596Y8001D02*
Y8159D01*
Y8279D02*
Y8366D01*
Y8706D02*
Y8864D01*
Y9024D02*
Y9046D01*
Y9166D02*
Y9419D01*
Y9539D02*
Y9654D01*
Y9766D02*
Y9879D01*
X21599Y8001D02*
Y8171D01*
Y8279D02*
Y8366D01*
Y8704D02*
Y8861D01*
Y9021D02*
Y9046D01*
Y9166D02*
Y9419D01*
Y9539D02*
Y9654D01*
Y9766D02*
Y9879D01*
X21601Y8004D02*
Y8186D01*
Y8279D02*
Y8366D01*
Y8701D02*
Y8859D01*
Y9019D02*
Y9046D01*
Y9169D02*
Y9416D01*
Y9536D02*
Y9651D01*
Y9766D02*
Y9879D01*
X21604Y8006D02*
Y8216D01*
Y8279D02*
Y8366D01*
Y8699D02*
Y8856D01*
Y9016D02*
Y9046D01*
Y9169D02*
Y9414D01*
Y9536D02*
Y9651D01*
Y9766D02*
Y9879D01*
X21606Y8009D02*
Y8366D01*
Y8696D02*
Y8854D01*
Y9014D02*
Y9049D01*
Y9171D02*
Y9414D01*
Y9536D02*
Y9651D01*
Y9766D02*
Y9879D01*
X21609Y8011D02*
Y8366D01*
Y8694D02*
Y8851D01*
Y9011D02*
Y9049D01*
Y9171D02*
Y9411D01*
Y9534D02*
Y9651D01*
Y9764D02*
Y9879D01*
X21611Y8014D02*
Y8366D01*
Y8691D02*
Y8849D01*
Y9009D02*
Y9049D01*
Y9174D02*
Y9409D01*
Y9534D02*
Y9651D01*
Y9764D02*
Y9879D01*
X21614Y8014D02*
Y8366D01*
Y8689D02*
Y8846D01*
Y9006D02*
Y9051D01*
Y9176D02*
Y9409D01*
Y9534D02*
Y9649D01*
Y9764D02*
Y9879D01*
X21616Y8016D02*
Y8366D01*
Y8686D02*
Y8844D01*
Y9004D02*
Y9051D01*
Y9179D02*
Y9406D01*
Y9534D02*
Y9649D01*
Y9764D02*
Y9876D01*
X21619Y8019D02*
Y8366D01*
Y8684D02*
Y8841D01*
Y9001D02*
Y9051D01*
Y9179D02*
Y9404D01*
Y9531D02*
Y9649D01*
Y9764D02*
Y9876D01*
X21621Y8021D02*
Y8366D01*
Y8681D02*
Y8839D01*
Y8999D02*
Y9054D01*
Y9181D02*
Y9404D01*
Y9531D02*
Y9649D01*
Y9764D02*
Y9876D01*
X21624Y8024D02*
Y8366D01*
Y8679D02*
Y8836D01*
Y8996D02*
Y9054D01*
Y9184D02*
Y9401D01*
Y9529D02*
Y9646D01*
Y9761D02*
Y9876D01*
X21626Y8026D02*
Y8366D01*
Y8676D02*
Y8834D01*
Y8994D02*
Y9056D01*
Y9186D02*
Y9399D01*
Y9529D02*
Y9646D01*
Y9761D02*
Y9876D01*
X21629Y8029D02*
Y8366D01*
Y8674D02*
Y8831D01*
Y8991D02*
Y9056D01*
Y9189D02*
Y9396D01*
Y9529D02*
Y9646D01*
Y9761D02*
Y9876D01*
X21631Y8034D02*
Y8366D01*
Y8671D02*
Y8829D01*
Y8989D02*
Y9059D01*
Y9191D02*
Y9394D01*
Y9526D02*
Y9646D01*
Y9761D02*
Y9874D01*
X21634Y8036D02*
Y8366D01*
Y8669D02*
Y8826D01*
Y8986D02*
Y9059D01*
Y9194D02*
Y9391D01*
Y9526D02*
Y9644D01*
Y9761D02*
Y9874D01*
X21636Y8039D02*
Y8366D01*
Y8666D02*
Y8824D01*
Y8984D02*
Y9059D01*
Y9196D02*
Y9389D01*
Y9524D02*
Y9644D01*
Y9759D02*
Y9874D01*
X21639Y8041D02*
Y8366D01*
Y8664D02*
Y8821D01*
Y8981D02*
Y9061D01*
Y9199D02*
Y9386D01*
Y9524D02*
Y9644D01*
Y9759D02*
Y9874D01*
X21641Y8046D02*
Y8366D01*
Y8661D02*
Y8819D01*
Y8979D02*
Y9061D01*
Y9201D02*
Y9381D01*
Y9521D02*
Y9641D01*
Y9759D02*
Y9874D01*
X21644Y8049D02*
Y8366D01*
Y8659D02*
Y8816D01*
Y8976D02*
Y9064D01*
Y9206D02*
Y9379D01*
Y9521D02*
Y9641D01*
Y9759D02*
Y9874D01*
X21646Y8051D02*
Y8366D01*
Y8656D02*
Y8814D01*
Y8974D02*
Y9064D01*
Y9209D02*
Y9376D01*
Y9519D02*
Y9641D01*
Y9756D02*
Y9871D01*
X21649Y8056D02*
Y8366D01*
Y8654D02*
Y8811D01*
Y8971D02*
Y9066D01*
Y9211D02*
Y9371D01*
Y9519D02*
Y9639D01*
Y9756D02*
Y9871D01*
X21651Y8061D02*
Y8366D01*
Y8651D02*
Y8809D01*
Y8969D02*
Y9066D01*
Y9216D02*
Y9369D01*
Y9516D02*
Y9639D01*
Y9756D02*
Y9871D01*
X21654Y8064D02*
Y8366D01*
Y8649D02*
Y8806D01*
Y8966D02*
Y9069D01*
Y9219D02*
Y9364D01*
Y9516D02*
Y9639D01*
Y9756D02*
Y9871D01*
X21656Y8069D02*
Y8366D01*
Y8646D02*
Y8804D01*
Y8964D02*
Y9071D01*
Y9224D02*
Y9359D01*
Y9514D02*
Y9636D01*
Y9754D02*
Y9869D01*
X21659Y8074D02*
Y8366D01*
Y8644D02*
Y8801D01*
Y8961D02*
Y9071D01*
Y9229D02*
Y9354D01*
Y9514D02*
Y9636D01*
Y9754D02*
Y9869D01*
X21661Y8079D02*
Y8366D01*
Y8641D02*
Y8799D01*
Y8959D02*
Y9074D01*
Y9234D02*
Y9349D01*
Y9511D02*
Y9636D01*
Y9754D02*
Y9869D01*
X21664Y8084D02*
Y8366D01*
Y8639D02*
Y8796D01*
Y8956D02*
Y9074D01*
Y9241D02*
Y9344D01*
Y9509D02*
Y9634D01*
Y9754D02*
Y9869D01*
X21666Y8091D02*
Y8366D01*
Y8636D02*
Y8794D01*
Y8954D02*
Y9076D01*
Y9249D02*
Y9336D01*
Y9509D02*
Y9634D01*
Y9751D02*
Y9869D01*
X21669Y8099D02*
Y8366D01*
Y8634D02*
Y8791D01*
Y8951D02*
Y9079D01*
Y9256D02*
Y9329D01*
Y9506D02*
Y9631D01*
Y9751D02*
Y9866D01*
X21671Y8106D02*
Y8366D01*
Y8631D02*
Y8789D01*
Y8954D02*
Y9079D01*
Y9269D02*
Y9316D01*
Y9504D02*
Y9631D01*
Y9751D02*
Y9866D01*
X21674Y8116D02*
Y8366D01*
Y8634D02*
Y8786D01*
Y8954D02*
Y9081D01*
Y9504D02*
Y9631D01*
Y9749D02*
Y9866D01*
X21676Y8124D02*
Y8366D01*
Y8636D02*
Y8784D01*
Y8956D02*
Y9084D01*
Y9501D02*
Y9629D01*
Y9749D02*
Y9866D01*
X21679Y8136D02*
Y8366D01*
Y8639D02*
Y8781D01*
Y8956D02*
Y9084D01*
Y9499D02*
Y9629D01*
Y9749D02*
Y9864D01*
X21681Y8151D02*
Y8366D01*
Y8641D02*
Y8779D01*
Y8956D02*
Y9086D01*
Y9499D02*
Y9626D01*
Y9746D02*
Y9864D01*
X21684Y8171D02*
Y8366D01*
Y8644D02*
Y8776D01*
Y8959D02*
Y9089D01*
Y9496D02*
Y9626D01*
Y9746D02*
Y9864D01*
X21686Y8201D02*
Y8366D01*
Y8646D02*
Y8774D01*
Y8959D02*
Y9091D01*
Y9494D02*
Y9624D01*
Y9746D02*
Y9864D01*
X21689Y8649D02*
Y8771D01*
Y8961D02*
Y9091D01*
Y9491D02*
Y9624D01*
Y9744D02*
Y9861D01*
X21691Y8651D02*
Y8769D01*
Y8961D02*
Y9094D01*
Y9489D02*
Y9621D01*
Y9744D02*
Y9861D01*
X21694Y8654D02*
Y8766D01*
Y8964D02*
Y9096D01*
Y9489D02*
Y9621D01*
Y9744D02*
Y9861D01*
X21696Y8656D02*
Y8764D01*
Y8964D02*
Y9099D01*
Y9486D02*
Y9619D01*
Y9741D02*
Y9859D01*
X21699Y8659D02*
Y8761D01*
Y8966D02*
Y9101D01*
Y9484D02*
Y9619D01*
Y9741D02*
Y9859D01*
X21701Y8661D02*
Y8759D01*
Y8966D02*
Y9104D01*
Y9481D02*
Y9616D01*
Y9739D02*
Y9859D01*
X21704Y8664D02*
Y8756D01*
Y8969D02*
Y9106D01*
Y9479D02*
Y9616D01*
Y9739D02*
Y9859D01*
X21706Y8666D02*
Y8754D01*
Y8969D02*
Y9106D01*
Y9476D02*
Y9614D01*
Y9739D02*
Y9856D01*
X21709Y8669D02*
Y8751D01*
Y8971D02*
Y9109D01*
Y9474D02*
Y9614D01*
Y9736D02*
Y9856D01*
X21711Y8671D02*
Y8749D01*
Y8971D02*
Y9111D01*
Y9471D02*
Y9611D01*
Y9736D02*
Y9856D01*
X21714Y8674D02*
Y8746D01*
Y8974D02*
Y9114D01*
Y9469D02*
Y9611D01*
Y9736D02*
Y9854D01*
X21716Y8676D02*
Y8744D01*
Y8976D02*
Y9116D01*
Y9466D02*
Y9609D01*
Y9734D02*
Y9854D01*
X21719Y8679D02*
Y8741D01*
Y8976D02*
Y9121D01*
Y9464D02*
Y9606D01*
Y9734D02*
Y9854D01*
X21721Y8681D02*
Y8739D01*
Y8979D02*
Y9124D01*
Y9461D02*
Y9606D01*
Y9731D02*
Y9851D01*
X21724Y8684D02*
Y8736D01*
Y8979D02*
Y9126D01*
Y9459D02*
Y9604D01*
Y9731D02*
Y9851D01*
X21726Y8686D02*
Y8734D01*
Y8981D02*
Y9129D01*
Y9456D02*
Y9604D01*
Y9729D02*
Y9851D01*
X21729Y8689D02*
Y8731D01*
Y8984D02*
Y9131D01*
Y9451D02*
Y9601D01*
Y9729D02*
Y9849D01*
X21731Y8691D02*
Y8729D01*
Y8984D02*
Y9136D01*
Y9449D02*
Y9599D01*
Y9726D02*
Y9849D01*
X21734Y8694D02*
Y8726D01*
Y8986D02*
Y9139D01*
Y9446D02*
Y9599D01*
Y9726D02*
Y9849D01*
X21736Y8696D02*
Y8724D01*
Y8989D02*
Y9141D01*
Y9444D02*
Y9596D01*
Y9724D02*
Y9846D01*
X21739Y8699D02*
Y8721D01*
Y8989D02*
Y9146D01*
Y9439D02*
Y9594D01*
Y9724D02*
Y9846D01*
X21741Y8701D02*
Y8719D01*
Y8991D02*
Y9149D01*
Y9436D02*
Y9594D01*
Y9724D02*
Y9844D01*
X21744Y8704D02*
Y8716D01*
Y8994D02*
Y9151D01*
Y9431D02*
Y9591D01*
Y9721D02*
Y9844D01*
X21746Y8706D02*
Y8714D01*
Y8994D02*
Y9156D01*
Y9429D02*
Y9589D01*
Y9721D02*
Y9844D01*
X21749Y8709D02*
Y8711D01*
Y8996D02*
Y9161D01*
Y9424D02*
Y9586D01*
Y9719D02*
Y9841D01*
X21751Y8999D02*
Y9164D01*
Y9419D02*
Y9586D01*
Y9716D02*
Y9841D01*
X21754Y8866D02*
Y8869D01*
Y9001D02*
Y9169D01*
Y9416D02*
Y9584D01*
Y9716D02*
Y9839D01*
X21756Y8864D02*
Y8869D01*
Y9004D02*
Y9174D01*
Y9411D02*
Y9581D01*
Y9714D02*
Y9839D01*
X21759Y8861D02*
Y8871D01*
Y9004D02*
Y9179D01*
Y9406D02*
Y9579D01*
Y9714D02*
Y9839D01*
X21761Y8859D02*
Y8871D01*
Y9006D02*
Y9184D01*
Y9401D02*
Y9579D01*
Y9711D02*
Y9836D01*
X21764Y8856D02*
Y8874D01*
Y9009D02*
Y9189D01*
Y9396D02*
Y9576D01*
Y9711D02*
Y9836D01*
X21766Y8854D02*
Y8874D01*
Y9011D02*
Y9194D01*
Y9389D02*
Y9574D01*
Y9709D02*
Y9834D01*
X21769Y8851D02*
Y8876D01*
Y9014D02*
Y9201D01*
Y9384D02*
Y9571D01*
Y9709D02*
Y9834D01*
X21771Y8849D02*
Y8879D01*
Y9014D02*
Y9209D01*
Y9376D02*
Y9569D01*
Y9706D02*
Y9831D01*
X21774Y8846D02*
Y8879D01*
Y9016D02*
Y9216D01*
Y9369D02*
Y9566D01*
Y9704D02*
Y9831D01*
X21776Y8844D02*
Y8881D01*
Y9019D02*
Y9224D01*
Y9359D02*
Y9564D01*
Y9704D02*
Y9831D01*
X21779Y8841D02*
Y8881D01*
Y9021D02*
Y9234D01*
Y9349D02*
Y9561D01*
Y9701D02*
Y9829D01*
X21781Y8839D02*
Y8884D01*
Y9024D02*
Y9246D01*
Y9339D02*
Y9561D01*
Y9701D02*
Y9829D01*
X21784Y8836D02*
Y8886D01*
Y9026D02*
Y9261D01*
Y9321D02*
Y9559D01*
Y9699D02*
Y9826D01*
X21786Y8834D02*
Y8886D01*
Y9029D02*
Y9556D01*
Y9696D02*
Y9826D01*
X21789Y8831D02*
Y8889D01*
Y9031D02*
Y9554D01*
Y9696D02*
Y9824D01*
X21791Y8829D02*
Y8891D01*
Y9034D02*
Y9551D01*
Y9694D02*
Y9824D01*
X21794Y8826D02*
Y8891D01*
Y9036D02*
Y9549D01*
Y9694D02*
Y9821D01*
X21796Y8824D02*
Y8894D01*
Y9039D02*
Y9546D01*
Y9691D02*
Y9821D01*
X21799Y8821D02*
Y8896D01*
Y9041D02*
Y9544D01*
Y9689D02*
Y9819D01*
X21801Y8819D02*
Y8896D01*
Y9044D02*
Y9539D01*
Y9686D02*
Y9819D01*
X21804Y8816D02*
Y8899D01*
Y9046D02*
Y9536D01*
Y9686D02*
Y9816D01*
X21806Y8814D02*
Y8901D01*
Y9049D02*
Y9534D01*
Y9684D02*
Y9816D01*
X21809Y8811D02*
Y8901D01*
Y9054D02*
Y9531D01*
Y9681D02*
Y9814D01*
X21811Y8809D02*
Y8904D01*
Y9056D02*
Y9529D01*
Y9681D02*
Y9814D01*
X21814Y8806D02*
Y8906D01*
Y9059D02*
Y9526D01*
Y9679D02*
Y9811D01*
X21816Y8804D02*
Y8909D01*
Y9061D02*
Y9521D01*
Y9676D02*
Y9809D01*
X21819Y8801D02*
Y8909D01*
Y9064D02*
Y9519D01*
Y9674D02*
Y9809D01*
X21821Y8799D02*
Y8911D01*
Y9069D02*
Y9516D01*
Y9674D02*
Y9806D01*
X21824Y8796D02*
Y8914D01*
Y9071D02*
Y9514D01*
Y9671D02*
Y9806D01*
X21826Y8794D02*
Y8916D01*
Y9074D02*
Y9509D01*
Y9669D02*
Y9804D01*
X21829Y8791D02*
Y8916D01*
Y9079D02*
Y9506D01*
Y9666D02*
Y9804D01*
X21831Y8789D02*
Y8919D01*
Y9081D02*
Y9501D01*
Y9664D02*
Y9801D01*
X21834Y8786D02*
Y8921D01*
Y9086D02*
Y9499D01*
Y9664D02*
Y9799D01*
X21836Y8786D02*
Y8924D01*
Y9089D02*
Y9494D01*
Y9661D02*
Y9799D01*
X21839Y8786D02*
Y8926D01*
Y9094D02*
Y9491D01*
Y9659D02*
Y9796D01*
X21841Y8789D02*
Y8926D01*
Y9096D02*
Y9486D01*
Y9656D02*
Y9796D01*
X21844Y8791D02*
Y8929D01*
Y9101D02*
Y9484D01*
Y9654D02*
Y9794D01*
X21846Y8791D02*
Y8931D01*
Y9104D02*
Y9479D01*
Y9651D02*
Y9791D01*
X21849Y8794D02*
Y8934D01*
Y9109D02*
Y9476D01*
Y9651D02*
Y9791D01*
X21851Y8796D02*
Y8936D01*
Y9114D02*
Y9471D01*
Y9649D02*
Y9789D01*
X21854Y8796D02*
Y8939D01*
Y9119D02*
Y9466D01*
Y9646D02*
Y9786D01*
X21856Y8799D02*
Y8941D01*
Y9124D02*
Y9461D01*
Y9644D02*
Y9786D01*
X21859Y8799D02*
Y8944D01*
Y9129D02*
Y9456D01*
Y9641D02*
Y9784D01*
X21861Y8801D02*
Y8946D01*
Y9134D02*
Y9451D01*
Y9639D02*
Y9781D01*
X21864Y8804D02*
Y8949D01*
Y9139D02*
Y9446D01*
Y9636D02*
Y9781D01*
X21866Y8806D02*
Y8951D01*
Y9144D02*
Y9441D01*
Y9634D02*
Y9779D01*
X21869Y8806D02*
Y8954D01*
Y9149D02*
Y9434D01*
Y9631D02*
Y9776D01*
X21871Y8809D02*
Y8956D01*
Y9156D02*
Y9429D01*
Y9629D02*
Y9776D01*
X21874Y8811D02*
Y8959D01*
Y9164D02*
Y9421D01*
Y9626D02*
Y9774D01*
X21876Y8811D02*
Y8961D01*
Y9169D02*
Y9414D01*
Y9624D02*
Y9771D01*
X21879Y8814D02*
Y8964D01*
Y9176D02*
Y9406D01*
Y9621D02*
Y9771D01*
X21881Y8816D02*
Y8966D01*
Y9184D02*
Y9399D01*
Y9619D02*
Y9769D01*
X21884Y8819D02*
Y8969D01*
Y9194D02*
Y9391D01*
Y9616D02*
Y9766D01*
X21886Y8819D02*
Y8971D01*
Y9204D02*
Y9381D01*
Y9614D02*
Y9764D01*
X21889Y8821D02*
Y8974D01*
Y9214D02*
Y9371D01*
Y9611D02*
Y9761D01*
X21891Y8824D02*
Y8976D01*
Y9226D02*
Y9359D01*
Y9606D02*
Y9761D01*
X21894Y8826D02*
Y8979D01*
Y9241D02*
Y9344D01*
Y9604D02*
Y9759D01*
X21896Y8826D02*
Y8984D01*
Y9264D02*
Y9321D01*
Y9601D02*
Y9756D01*
X21899Y8829D02*
Y8986D01*
Y9599D02*
Y9754D01*
X21901Y8831D02*
Y8989D01*
Y9596D02*
Y9754D01*
X21904Y8834D02*
Y8991D01*
Y9591D02*
Y9751D01*
X21906Y8836D02*
Y8994D01*
Y9589D02*
Y9749D01*
X21909Y8839D02*
Y8999D01*
Y9586D02*
Y9746D01*
X21911Y8839D02*
Y9001D01*
Y9584D02*
Y9744D01*
X21914Y8841D02*
Y9004D01*
Y9579D02*
Y9741D01*
X21916Y8844D02*
Y9009D01*
Y9576D02*
Y9741D01*
X21919Y8846D02*
Y9011D01*
Y9574D02*
Y9739D01*
X21921Y8849D02*
Y9016D01*
Y9569D02*
Y9736D01*
X21924Y8851D02*
Y9019D01*
Y9566D02*
Y9734D01*
X21926Y8854D02*
Y9021D01*
Y9561D02*
Y9731D01*
X21929Y8856D02*
Y9026D01*
Y9559D02*
Y9729D01*
X21931Y8856D02*
Y9029D01*
Y9554D02*
Y9726D01*
X21934Y8859D02*
Y9034D01*
Y9551D02*
Y9724D01*
X21936Y8861D02*
Y9036D01*
Y9546D02*
Y9721D01*
X21939Y8864D02*
Y9041D01*
Y9544D02*
Y9719D01*
X21941Y8866D02*
Y9046D01*
Y9539D02*
Y9716D01*
X21944Y8869D02*
Y9049D01*
Y9534D02*
Y9714D01*
X21946Y8871D02*
Y9054D01*
Y9531D02*
Y9711D01*
X21949Y8874D02*
Y9059D01*
Y9526D02*
Y9709D01*
X21951Y8876D02*
Y9064D01*
Y9521D02*
Y9706D01*
X21954Y8879D02*
Y9069D01*
Y9516D02*
Y9704D01*
X21956Y8881D02*
Y9071D01*
Y9511D02*
Y9701D01*
X21959Y8884D02*
Y9076D01*
Y9506D02*
Y9699D01*
X21961Y8886D02*
Y9081D01*
Y9501D02*
Y9696D01*
X21964Y8889D02*
Y9086D01*
Y9496D02*
Y9694D01*
X21966Y8891D02*
Y9094D01*
Y9491D02*
Y9691D01*
X21969Y8896D02*
Y9099D01*
Y9486D02*
Y9689D01*
X21971Y8899D02*
Y9104D01*
Y9479D02*
Y9686D01*
X21974Y8901D02*
Y9111D01*
Y9474D02*
Y9684D01*
X21976Y8904D02*
Y9116D01*
Y9469D02*
Y9681D01*
X21979Y8906D02*
Y9124D01*
Y9461D02*
Y9679D01*
X21981Y8909D02*
Y9129D01*
Y9454D02*
Y9674D01*
X21984Y8911D02*
Y9136D01*
Y9446D02*
Y9671D01*
X21986Y8916D02*
Y9144D01*
Y9439D02*
Y9669D01*
X21989Y8919D02*
Y9151D01*
Y9431D02*
Y9666D01*
X21991Y8921D02*
Y9161D01*
Y9424D02*
Y9664D01*
X21994Y8924D02*
Y9169D01*
Y9414D02*
Y9659D01*
X21996Y8929D02*
Y9181D01*
Y9404D02*
Y9656D01*
X21999Y8931D02*
Y9191D01*
Y9394D02*
Y9654D01*
X22001Y8934D02*
Y9204D01*
Y9381D02*
Y9649D01*
X22004Y8939D02*
Y9219D01*
Y9366D02*
Y9646D01*
X22006Y8941D02*
Y9236D01*
Y9349D02*
Y9644D01*
X22009Y8944D02*
Y9266D01*
Y9319D02*
Y9639D01*
X22011Y8949D02*
Y9636D01*
X22014Y8951D02*
Y9634D01*
X22016Y8954D02*
Y9629D01*
X22019Y8959D02*
Y9626D01*
X22021Y8961D02*
Y9621D01*
X22024Y8966D02*
Y9619D01*
X22026Y8969D02*
Y9614D01*
X22029Y8974D02*
Y9611D01*
X22031Y8979D02*
Y9606D01*
X22034Y8981D02*
Y9604D01*
X22036Y8986D02*
Y9599D01*
X22039Y8989D02*
Y9594D01*
X22041Y8994D02*
Y9589D01*
X22044Y8999D02*
Y9586D01*
X22046Y9004D02*
Y9581D01*
X22049Y9006D02*
Y9576D01*
X22051Y9011D02*
Y9571D01*
X22054Y9016D02*
Y9566D01*
X22056Y9021D02*
Y9564D01*
X22059Y9026D02*
Y9559D01*
X22061Y9031D02*
Y9554D01*
X22064Y9036D02*
Y9546D01*
X22066Y9041D02*
Y9541D01*
X22069Y9046D02*
Y9536D01*
X22071Y9054D02*
Y9531D01*
X22074Y9059D02*
Y9526D01*
X22076Y9064D02*
Y9519D01*
X22079Y9071D02*
Y9514D01*
X22081Y9076D02*
Y9506D01*
X22084Y9084D02*
Y9501D01*
X22086Y9091D02*
Y9494D01*
X22089Y9096D02*
Y9486D01*
X22091Y9104D02*
Y9479D01*
X22094Y9114D02*
Y9471D01*
X22096Y9121D02*
Y9464D01*
X22099Y9129D02*
Y9456D01*
X22101Y9139D02*
Y9446D01*
X22104Y9149D02*
Y9436D01*
X22106Y9159D02*
Y9426D01*
X22109Y9169D02*
Y9414D01*
X22111Y9181D02*
Y9401D01*
X22114Y9196D02*
Y9389D01*
X22116Y9214D02*
Y9371D01*
X22119Y9236D02*
Y9349D01*
X22121Y9274D02*
Y9309D01*
M02*
