%FSLAX24Y24*%
%MOIN*%
G70*
G01*
G75*
G04 Layer_Color=8388736*
%ADD10C,0.0197*%
%ADD11C,0.0276*%
%ADD12R,0.0315X0.0276*%
%ADD13R,0.0295X0.0591*%
%ADD14R,0.0315X0.0118*%
%ADD15R,0.0394X0.0709*%
%ADD16R,0.0177X0.0098*%
%ADD17R,0.0177X0.0138*%
G04:AMPARAMS|DCode=18|XSize=59.1mil|YSize=17.7mil|CornerRadius=0mil|HoleSize=0mil|Usage=FLASHONLY|Rotation=90.000|XOffset=0mil|YOffset=0mil|HoleType=Round|Shape=RoundedRectangle|*
%AMROUNDEDRECTD18*
21,1,0.0591,0.0177,0,0,90.0*
21,1,0.0591,0.0177,0,0,90.0*
1,1,0.0000,0.0089,0.0295*
1,1,0.0000,0.0089,-0.0295*
1,1,0.0000,-0.0089,-0.0295*
1,1,0.0000,-0.0089,0.0295*
%
%ADD18ROUNDEDRECTD18*%
%ADD19R,0.0118X0.0315*%
%ADD20R,0.0472X0.0787*%
%ADD21R,0.0354X0.0157*%
%ADD22R,0.0189X0.0197*%
%ADD23R,0.0039X0.0039*%
%ADD24R,0.0246X0.1496*%
%ADD25R,0.0246X0.1043*%
%ADD26R,0.1232X0.0246*%
%ADD27R,0.1496X0.0246*%
%ADD28R,0.0177X0.0197*%
%ADD29R,0.0118X0.0118*%
G04:AMPARAMS|DCode=30|XSize=11.8mil|YSize=11.8mil|CornerRadius=0.3mil|HoleSize=0mil|Usage=FLASHONLY|Rotation=270.000|XOffset=0mil|YOffset=0mil|HoleType=Round|Shape=RoundedRectangle|*
%AMROUNDEDRECTD30*
21,1,0.0118,0.0112,0,0,270.0*
21,1,0.0112,0.0118,0,0,270.0*
1,1,0.0006,-0.0056,-0.0056*
1,1,0.0006,-0.0056,0.0056*
1,1,0.0006,0.0056,0.0056*
1,1,0.0006,0.0056,-0.0056*
%
%ADD30ROUNDEDRECTD30*%
%ADD31R,0.1654X0.1654*%
%ADD32R,0.0374X0.0079*%
%ADD33R,0.0079X0.0374*%
G04:AMPARAMS|DCode=34|XSize=39.4mil|YSize=23.6mil|CornerRadius=0.6mil|HoleSize=0mil|Usage=FLASHONLY|Rotation=270.000|XOffset=0mil|YOffset=0mil|HoleType=Round|Shape=RoundedRectangle|*
%AMROUNDEDRECTD34*
21,1,0.0394,0.0224,0,0,270.0*
21,1,0.0382,0.0236,0,0,270.0*
1,1,0.0012,-0.0112,-0.0191*
1,1,0.0012,-0.0112,0.0191*
1,1,0.0012,0.0112,0.0191*
1,1,0.0012,0.0112,-0.0191*
%
%ADD34ROUNDEDRECTD34*%
%ADD35R,0.0118X0.0118*%
%ADD36R,0.0630X0.0315*%
G04:AMPARAMS|DCode=37|XSize=25.2mil|YSize=24mil|CornerRadius=0.6mil|HoleSize=0mil|Usage=FLASHONLY|Rotation=90.000|XOffset=0mil|YOffset=0mil|HoleType=Round|Shape=RoundedRectangle|*
%AMROUNDEDRECTD37*
21,1,0.0252,0.0228,0,0,90.0*
21,1,0.0240,0.0240,0,0,90.0*
1,1,0.0012,0.0114,0.0120*
1,1,0.0012,0.0114,-0.0120*
1,1,0.0012,-0.0114,-0.0120*
1,1,0.0012,-0.0114,0.0120*
%
%ADD37ROUNDEDRECTD37*%
%ADD38R,0.0138X0.0226*%
%ADD39R,0.0226X0.0138*%
%ADD40R,0.0138X0.0148*%
%ADD41R,0.0148X0.0138*%
%ADD42C,0.0354*%
%ADD43R,0.0138X0.0236*%
%ADD44R,0.0295X0.0197*%
%ADD45R,0.0390X0.0430*%
G04:AMPARAMS|DCode=46|XSize=31.5mil|YSize=31.5mil|CornerRadius=0.8mil|HoleSize=0mil|Usage=FLASHONLY|Rotation=180.000|XOffset=0mil|YOffset=0mil|HoleType=Round|Shape=RoundedRectangle|*
%AMROUNDEDRECTD46*
21,1,0.0315,0.0299,0,0,180.0*
21,1,0.0299,0.0315,0,0,180.0*
1,1,0.0016,-0.0150,0.0150*
1,1,0.0016,0.0150,0.0150*
1,1,0.0016,0.0150,-0.0150*
1,1,0.0016,-0.0150,-0.0150*
%
%ADD46ROUNDEDRECTD46*%
G04:AMPARAMS|DCode=47|XSize=19.7mil|YSize=19.7mil|CornerRadius=0.5mil|HoleSize=0mil|Usage=FLASHONLY|Rotation=0.000|XOffset=0mil|YOffset=0mil|HoleType=Round|Shape=RoundedRectangle|*
%AMROUNDEDRECTD47*
21,1,0.0197,0.0187,0,0,0.0*
21,1,0.0187,0.0197,0,0,0.0*
1,1,0.0010,0.0094,-0.0094*
1,1,0.0010,-0.0094,-0.0094*
1,1,0.0010,-0.0094,0.0094*
1,1,0.0010,0.0094,0.0094*
%
%ADD47ROUNDEDRECTD47*%
G04:AMPARAMS|DCode=48|XSize=11.8mil|YSize=11.8mil|CornerRadius=0.3mil|HoleSize=0mil|Usage=FLASHONLY|Rotation=180.000|XOffset=0mil|YOffset=0mil|HoleType=Round|Shape=RoundedRectangle|*
%AMROUNDEDRECTD48*
21,1,0.0118,0.0112,0,0,180.0*
21,1,0.0112,0.0118,0,0,180.0*
1,1,0.0006,-0.0056,0.0056*
1,1,0.0006,0.0056,0.0056*
1,1,0.0006,0.0056,-0.0056*
1,1,0.0006,-0.0056,-0.0056*
%
%ADD48ROUNDEDRECTD48*%
%ADD49R,0.1909X0.1909*%
%ADD50C,0.0108*%
G04:AMPARAMS|DCode=51|XSize=35.4mil|YSize=31.5mil|CornerRadius=0.2mil|HoleSize=0mil|Usage=FLASHONLY|Rotation=180.000|XOffset=0mil|YOffset=0mil|HoleType=Round|Shape=RoundedRectangle|*
%AMROUNDEDRECTD51*
21,1,0.0354,0.0312,0,0,180.0*
21,1,0.0351,0.0315,0,0,180.0*
1,1,0.0003,-0.0176,0.0156*
1,1,0.0003,0.0176,0.0156*
1,1,0.0003,0.0176,-0.0156*
1,1,0.0003,-0.0176,-0.0156*
%
%ADD51ROUNDEDRECTD51*%
G04:AMPARAMS|DCode=52|XSize=19.7mil|YSize=19.7mil|CornerRadius=0.5mil|HoleSize=0mil|Usage=FLASHONLY|Rotation=270.000|XOffset=0mil|YOffset=0mil|HoleType=Round|Shape=RoundedRectangle|*
%AMROUNDEDRECTD52*
21,1,0.0197,0.0187,0,0,270.0*
21,1,0.0187,0.0197,0,0,270.0*
1,1,0.0010,-0.0094,-0.0094*
1,1,0.0010,-0.0094,0.0094*
1,1,0.0010,0.0094,0.0094*
1,1,0.0010,0.0094,-0.0094*
%
%ADD52ROUNDEDRECTD52*%
%ADD53R,0.0197X0.0177*%
G04:AMPARAMS|DCode=54|XSize=31.5mil|YSize=31.5mil|CornerRadius=0.8mil|HoleSize=0mil|Usage=FLASHONLY|Rotation=270.000|XOffset=0mil|YOffset=0mil|HoleType=Round|Shape=RoundedRectangle|*
%AMROUNDEDRECTD54*
21,1,0.0315,0.0299,0,0,270.0*
21,1,0.0299,0.0315,0,0,270.0*
1,1,0.0016,-0.0150,-0.0150*
1,1,0.0016,-0.0150,0.0150*
1,1,0.0016,0.0150,0.0150*
1,1,0.0016,0.0150,-0.0150*
%
%ADD54ROUNDEDRECTD54*%
%ADD55C,0.0472*%
%ADD56C,0.0039*%
%ADD57C,0.0079*%
%ADD58C,0.0060*%
%ADD59C,0.0157*%
%ADD60C,0.0200*%
%ADD61C,0.0118*%
%ADD62C,0.0120*%
%ADD63C,0.0150*%
%ADD64C,0.0059*%
%ADD65C,0.0060*%
%ADD66C,0.0030*%
%ADD67C,0.0080*%
%ADD68C,0.0276*%
%ADD69C,0.0070*%
%ADD70C,0.0100*%
%ADD71C,0.0110*%
%ADD72C,0.0068*%
%ADD73C,0.0130*%
%ADD74C,0.0055*%
%ADD75C,0.0177*%
%ADD76R,0.0433X0.0699*%
%ADD77R,0.0226X0.0157*%
%ADD78R,0.0650X0.0551*%
%ADD79R,0.0512X0.0394*%
%ADD80R,0.0630X0.0433*%
%ADD81R,0.0492X0.0482*%
%ADD82R,0.0364X0.0502*%
%ADD83R,0.0236X0.0404*%
%ADD84R,0.0130X0.0424*%
%ADD85R,0.0185X0.0433*%
%ADD86C,0.0315*%
%ADD87C,0.0276*%
%ADD88C,0.0157*%
%ADD89C,0.0240*%
%ADD90C,0.0200*%
%ADD91C,0.0180*%
%ADD92C,0.0177*%
%ADD93R,0.0315X0.0246*%
%ADD94R,0.0315X0.0384*%
%ADD95R,0.0315X0.0463*%
%ADD96R,0.0315X0.0472*%
%ADD97R,0.0315X0.0394*%
%ADD98R,0.0315X0.0492*%
%ADD99R,0.0295X0.0443*%
%ADD100C,0.0300*%
%ADD101R,0.0315X0.0551*%
%ADD102C,0.0300*%
%ADD103C,0.0286*%
%ADD104C,0.0098*%
%ADD105C,0.0040*%
%ADD106C,0.0070*%
%ADD107C,0.0071*%
%ADD108C,0.0003*%
%ADD109R,0.0197X0.0039*%
%ADD110R,0.0157X0.0157*%
%ADD111R,0.0197X0.0118*%
%ADD112R,0.0118X0.0157*%
%ADD113R,0.0146X0.0067*%
%ADD114R,0.0146X0.0106*%
%ADD115R,0.0106X0.0195*%
%ADD116R,0.0195X0.0106*%
%ADD117R,0.0106X0.0116*%
%ADD118R,0.0116X0.0106*%
%ADD119C,0.0118*%
%ADD120R,0.0365X0.0326*%
%ADD121R,0.0345X0.0641*%
%ADD122R,0.0365X0.0168*%
%ADD123R,0.0444X0.0759*%
%ADD124R,0.0227X0.0148*%
%ADD125R,0.0227X0.0188*%
G04:AMPARAMS|DCode=126|XSize=64.1mil|YSize=22.7mil|CornerRadius=0mil|HoleSize=0mil|Usage=FLASHONLY|Rotation=90.000|XOffset=0mil|YOffset=0mil|HoleType=Round|Shape=RoundedRectangle|*
%AMROUNDEDRECTD126*
21,1,0.0641,0.0227,0,0,90.0*
21,1,0.0641,0.0227,0,0,90.0*
1,1,0.0000,0.0114,0.0320*
1,1,0.0000,0.0114,-0.0320*
1,1,0.0000,-0.0114,-0.0320*
1,1,0.0000,-0.0114,0.0320*
%
%ADD126ROUNDEDRECTD126*%
%ADD127R,0.0168X0.0365*%
%ADD128R,0.0522X0.0837*%
%ADD129R,0.0394X0.0197*%
%ADD130R,0.0239X0.0247*%
%ADD131R,0.0089X0.0089*%
%ADD132R,0.0296X0.1546*%
%ADD133R,0.0296X0.1093*%
%ADD134R,0.1282X0.0296*%
%ADD135R,0.1546X0.0296*%
%ADD136R,0.0227X0.0247*%
%ADD137R,0.0168X0.0168*%
G04:AMPARAMS|DCode=138|XSize=15mil|YSize=15mil|CornerRadius=1.9mil|HoleSize=0mil|Usage=FLASHONLY|Rotation=270.000|XOffset=0mil|YOffset=0mil|HoleType=Round|Shape=RoundedRectangle|*
%AMROUNDEDRECTD138*
21,1,0.0150,0.0112,0,0,270.0*
21,1,0.0112,0.0150,0,0,270.0*
1,1,0.0037,-0.0056,-0.0056*
1,1,0.0037,-0.0056,0.0056*
1,1,0.0037,0.0056,0.0056*
1,1,0.0037,0.0056,-0.0056*
%
%ADD138ROUNDEDRECTD138*%
%ADD139R,0.1704X0.1704*%
%ADD140R,0.0424X0.0129*%
%ADD141R,0.0129X0.0424*%
G04:AMPARAMS|DCode=142|XSize=44.4mil|YSize=28.6mil|CornerRadius=3.1mil|HoleSize=0mil|Usage=FLASHONLY|Rotation=270.000|XOffset=0mil|YOffset=0mil|HoleType=Round|Shape=RoundedRectangle|*
%AMROUNDEDRECTD142*
21,1,0.0444,0.0224,0,0,270.0*
21,1,0.0382,0.0286,0,0,270.0*
1,1,0.0062,-0.0112,-0.0191*
1,1,0.0062,-0.0112,0.0191*
1,1,0.0062,0.0112,0.0191*
1,1,0.0062,0.0112,-0.0191*
%
%ADD142ROUNDEDRECTD142*%
%ADD143R,0.0168X0.0168*%
%ADD144R,0.0680X0.0365*%
G04:AMPARAMS|DCode=145|XSize=30.2mil|YSize=29mil|CornerRadius=3.1mil|HoleSize=0mil|Usage=FLASHONLY|Rotation=90.000|XOffset=0mil|YOffset=0mil|HoleType=Round|Shape=RoundedRectangle|*
%AMROUNDEDRECTD145*
21,1,0.0302,0.0228,0,0,90.0*
21,1,0.0240,0.0290,0,0,90.0*
1,1,0.0062,0.0114,0.0120*
1,1,0.0062,0.0114,-0.0120*
1,1,0.0062,-0.0114,-0.0120*
1,1,0.0062,-0.0114,0.0120*
%
%ADD145ROUNDEDRECTD145*%
%ADD146R,0.0217X0.0305*%
%ADD147R,0.0305X0.0217*%
%ADD148R,0.0217X0.0226*%
%ADD149R,0.0226X0.0217*%
%ADD150C,0.0748*%
%ADD151R,0.0345X0.0247*%
%ADD152R,0.0440X0.0480*%
G04:AMPARAMS|DCode=153|XSize=24.7mil|YSize=24.7mil|CornerRadius=3mil|HoleSize=0mil|Usage=FLASHONLY|Rotation=0.000|XOffset=0mil|YOffset=0mil|HoleType=Round|Shape=RoundedRectangle|*
%AMROUNDEDRECTD153*
21,1,0.0247,0.0187,0,0,0.0*
21,1,0.0187,0.0247,0,0,0.0*
1,1,0.0060,0.0094,-0.0094*
1,1,0.0060,-0.0094,-0.0094*
1,1,0.0060,-0.0094,0.0094*
1,1,0.0060,0.0094,0.0094*
%
%ADD153ROUNDEDRECTD153*%
G04:AMPARAMS|DCode=154|XSize=16.8mil|YSize=16.8mil|CornerRadius=2.8mil|HoleSize=0mil|Usage=FLASHONLY|Rotation=180.000|XOffset=0mil|YOffset=0mil|HoleType=Round|Shape=RoundedRectangle|*
%AMROUNDEDRECTD154*
21,1,0.0168,0.0112,0,0,180.0*
21,1,0.0112,0.0168,0,0,180.0*
1,1,0.0056,-0.0056,0.0056*
1,1,0.0056,0.0056,0.0056*
1,1,0.0056,0.0056,-0.0056*
1,1,0.0056,-0.0056,-0.0056*
%
%ADD154ROUNDEDRECTD154*%
%ADD155R,0.1949X0.1949*%
%ADD156C,0.0148*%
G04:AMPARAMS|DCode=157|XSize=40.4mil|YSize=36.5mil|CornerRadius=2.7mil|HoleSize=0mil|Usage=FLASHONLY|Rotation=180.000|XOffset=0mil|YOffset=0mil|HoleType=Round|Shape=RoundedRectangle|*
%AMROUNDEDRECTD157*
21,1,0.0404,0.0312,0,0,180.0*
21,1,0.0351,0.0365,0,0,180.0*
1,1,0.0053,-0.0176,0.0156*
1,1,0.0053,0.0176,0.0156*
1,1,0.0053,0.0176,-0.0156*
1,1,0.0053,-0.0176,-0.0156*
%
%ADD157ROUNDEDRECTD157*%
G04:AMPARAMS|DCode=158|XSize=36.5mil|YSize=36.5mil|CornerRadius=3.3mil|HoleSize=0mil|Usage=FLASHONLY|Rotation=0.000|XOffset=0mil|YOffset=0mil|HoleType=Round|Shape=RoundedRectangle|*
%AMROUNDEDRECTD158*
21,1,0.0365,0.0299,0,0,0.0*
21,1,0.0299,0.0365,0,0,0.0*
1,1,0.0066,0.0150,-0.0150*
1,1,0.0066,-0.0150,-0.0150*
1,1,0.0066,-0.0150,0.0150*
1,1,0.0066,0.0150,0.0150*
%
%ADD158ROUNDEDRECTD158*%
G04:AMPARAMS|DCode=159|XSize=15mil|YSize=15mil|CornerRadius=1.9mil|HoleSize=0mil|Usage=FLASHONLY|Rotation=0.000|XOffset=0mil|YOffset=0mil|HoleType=Round|Shape=RoundedRectangle|*
%AMROUNDEDRECTD159*
21,1,0.0150,0.0112,0,0,0.0*
21,1,0.0112,0.0150,0,0,0.0*
1,1,0.0037,0.0056,-0.0056*
1,1,0.0037,-0.0056,-0.0056*
1,1,0.0037,-0.0056,0.0056*
1,1,0.0037,0.0056,0.0056*
%
%ADD159ROUNDEDRECTD159*%
G04:AMPARAMS|DCode=160|XSize=24.7mil|YSize=24.7mil|CornerRadius=3mil|HoleSize=0mil|Usage=FLASHONLY|Rotation=270.000|XOffset=0mil|YOffset=0mil|HoleType=Round|Shape=RoundedRectangle|*
%AMROUNDEDRECTD160*
21,1,0.0247,0.0187,0,0,270.0*
21,1,0.0187,0.0247,0,0,270.0*
1,1,0.0060,-0.0094,-0.0094*
1,1,0.0060,-0.0094,0.0094*
1,1,0.0060,0.0094,0.0094*
1,1,0.0060,0.0094,-0.0094*
%
%ADD160ROUNDEDRECTD160*%
G04:AMPARAMS|DCode=161|XSize=16.8mil|YSize=16.8mil|CornerRadius=2.8mil|HoleSize=0mil|Usage=FLASHONLY|Rotation=270.000|XOffset=0mil|YOffset=0mil|HoleType=Round|Shape=RoundedRectangle|*
%AMROUNDEDRECTD161*
21,1,0.0168,0.0112,0,0,270.0*
21,1,0.0112,0.0168,0,0,270.0*
1,1,0.0056,-0.0056,-0.0056*
1,1,0.0056,-0.0056,0.0056*
1,1,0.0056,0.0056,0.0056*
1,1,0.0056,0.0056,-0.0056*
%
%ADD161ROUNDEDRECTD161*%
%ADD162R,0.0247X0.0227*%
G04:AMPARAMS|DCode=163|XSize=36.5mil|YSize=36.5mil|CornerRadius=3.3mil|HoleSize=0mil|Usage=FLASHONLY|Rotation=270.000|XOffset=0mil|YOffset=0mil|HoleType=Round|Shape=RoundedRectangle|*
%AMROUNDEDRECTD163*
21,1,0.0365,0.0299,0,0,270.0*
21,1,0.0299,0.0365,0,0,270.0*
1,1,0.0066,-0.0150,-0.0150*
1,1,0.0066,-0.0150,0.0150*
1,1,0.0066,0.0150,0.0150*
1,1,0.0066,0.0150,-0.0150*
%
%ADD163ROUNDEDRECTD163*%
%ADD164C,0.0522*%
%ADD165C,0.0365*%
%ADD166C,0.0326*%
G36*
X10175Y4565D02*
X10613D01*
Y3767D01*
X10181D01*
Y3560D01*
X9607D01*
X9604Y4035D01*
X9613Y4103D01*
X9640Y4167D01*
X9682Y4222D01*
X9737Y4264D01*
X9800Y4290D01*
X9869Y4299D01*
Y4297D01*
X10064Y4298D01*
X10091Y4303D01*
X10114Y4318D01*
X10129Y4341D01*
X10135Y4368D01*
X10133D01*
X10130Y4523D01*
X10143Y4555D01*
X10175Y4568D01*
Y4565D01*
D02*
G37*
G36*
X11666Y4288D02*
X10839D01*
X10721Y4406D01*
Y4552D01*
X11016D01*
X11016Y4454D01*
X11371D01*
Y4552D01*
X11666Y4552D01*
Y4288D01*
D02*
G37*
G36*
X12577Y4633D02*
X12764Y4576D01*
X12937Y4484D01*
X13088Y4359D01*
X13516Y3925D01*
X13513Y3921D01*
X13665Y3796D01*
X13839Y3704D01*
X14027Y3646D01*
X14223Y3627D01*
X14921Y3632D01*
Y3629D01*
X15052Y3642D01*
X15177Y3680D01*
X15293Y3741D01*
X15394Y3824D01*
X15849Y4284D01*
X15845Y4287D01*
X15998Y4412D01*
X16171Y4505D01*
X16360Y4562D01*
X16556Y4582D01*
X17470Y4577D01*
Y4581D01*
X17599Y4564D01*
X17719Y4515D01*
X17821Y4436D01*
X17900Y4333D01*
X17950Y4213D01*
X17967Y4085D01*
X17963Y4035D01*
X17967D01*
X17950Y3904D01*
X17899Y3782D01*
X17819Y3677D01*
X17714Y3597D01*
X17592Y3546D01*
X17461Y3529D01*
X17058Y3533D01*
Y3538D01*
X16862Y3519D01*
X16673Y3462D01*
X16500Y3369D01*
X16347Y3244D01*
X16002Y2891D01*
X16005Y2888D01*
X15853Y2763D01*
X15679Y2670D01*
X15490Y2613D01*
X15294Y2594D01*
X13692Y2598D01*
Y2594D01*
X13496Y2613D01*
X13307Y2670D01*
X13134Y2763D01*
X12981Y2888D01*
X12430Y3446D01*
X12431Y3447D01*
X12408Y3462D01*
X12382Y3467D01*
Y3466D01*
X11783D01*
Y4647D01*
X12382D01*
Y4652D01*
X12577Y4633D01*
D02*
G37*
G36*
X11666Y3568D02*
X11371Y3568D01*
Y3666D01*
X11016D01*
X11016Y3568D01*
X10721D01*
Y3714D01*
X10839Y3832D01*
X11666D01*
Y3568D01*
D02*
G37*
G36*
X11658Y9949D02*
X10831D01*
X10713Y10067D01*
Y10213D01*
X11008D01*
X11008Y10114D01*
X11363D01*
Y10213D01*
X11658Y10213D01*
Y9949D01*
D02*
G37*
G36*
X17602Y12756D02*
X17728Y12718D01*
X17844Y12656D01*
X17946Y12572D01*
X18030Y12470D01*
X18092Y12354D01*
X18130Y12228D01*
X18143Y12096D01*
X18140Y12077D01*
X18143D01*
X18130Y11946D01*
X18092Y11819D01*
X18030Y11703D01*
X17946Y11601D01*
X17844Y11518D01*
X17728Y11455D01*
X17602Y11417D01*
X17470Y11404D01*
X16644Y11407D01*
X13386Y9449D01*
X13349Y9412D01*
X13352Y9409D01*
X13200Y9284D01*
X13026Y9191D01*
X12838Y9134D01*
X12642Y9114D01*
X12195Y9119D01*
X11772D01*
Y10300D01*
X12195D01*
X16112Y12667D01*
X16110Y12669D01*
X16180Y12723D01*
X16262Y12757D01*
X16350Y12769D01*
X17470Y12766D01*
Y12769D01*
X17602Y12756D01*
D02*
G37*
G36*
X11658Y9229D02*
X11363Y9229D01*
Y9327D01*
X11008D01*
X11008Y9229D01*
X10713D01*
Y9374D01*
X10831Y9492D01*
X11658D01*
Y9229D01*
D02*
G37*
G36*
X10170Y10243D02*
X10598D01*
Y9445D01*
X10176D01*
Y9248D01*
X9611D01*
X9609Y9713D01*
X9618Y9781D01*
X9644Y9845D01*
X9686Y9899D01*
X9741Y9941D01*
X9805Y9968D01*
X9873Y9977D01*
Y9975D01*
X10059Y9975D01*
X10086Y9981D01*
X10109Y9996D01*
X10124Y10019D01*
X10129Y10046D01*
X10128D01*
X10124Y10201D01*
X10138Y10233D01*
X10170Y10246D01*
Y10243D01*
D02*
G37*
D43*
X1250Y15669D02*
D03*
X1506D02*
D03*
D45*
X9764Y7500D02*
D03*
X5443Y1240D02*
D03*
D46*
X1998Y12106D02*
D03*
X1407D02*
D03*
D54*
X2500Y12333D02*
D03*
Y12923D02*
D03*
D70*
X42185Y2386D02*
X42451D01*
X42318D01*
Y1986D01*
X42784Y2386D02*
X42651D01*
X42584Y2319D01*
Y2053D01*
X42651Y1986D01*
X42784D01*
X42851Y2053D01*
Y2319D01*
X42784Y2386D01*
X42984Y1986D02*
Y2386D01*
X43184D01*
X43251Y2319D01*
Y2186D01*
X43184Y2119D01*
X42984D01*
X43784Y1986D02*
Y2386D01*
X43917Y2253D01*
X44051Y2386D01*
Y1986D01*
X44184D02*
Y2253D01*
X44317Y2386D01*
X44450Y2253D01*
Y1986D01*
Y2186D01*
X44184D01*
X44850Y2319D02*
X44784Y2386D01*
X44650D01*
X44584Y2319D01*
Y2253D01*
X44650Y2186D01*
X44784D01*
X44850Y2119D01*
Y2053D01*
X44784Y1986D01*
X44650D01*
X44584Y2053D01*
X44984Y2386D02*
Y1986D01*
Y2119D01*
X45250Y2386D01*
X45050Y2186D01*
X45250Y1986D01*
D120*
X3543Y16024D02*
D03*
X8268Y118D02*
D03*
X5906Y16024D02*
D03*
X4331D02*
D03*
X7874Y118D02*
D03*
X7480D02*
D03*
X7087D02*
D03*
X6693D02*
D03*
X9843D02*
D03*
X9449D02*
D03*
X9055D02*
D03*
X8661D02*
D03*
X1969D02*
D03*
X2362D02*
D03*
X1575D02*
D03*
X9055Y16024D02*
D03*
X8661D02*
D03*
X8268D02*
D03*
X7874D02*
D03*
X1181Y118D02*
D03*
X787D02*
D03*
X1969Y16024D02*
D03*
X3150D02*
D03*
X3543Y118D02*
D03*
X10236D02*
D03*
Y16024D02*
D03*
X5118Y118D02*
D03*
X1575Y16024D02*
D03*
X5118D02*
D03*
X5512D02*
D03*
X3937D02*
D03*
X6693D02*
D03*
X6299D02*
D03*
X3150Y118D02*
D03*
X4724D02*
D03*
X3937D02*
D03*
X5512D02*
D03*
X4331D02*
D03*
X9449Y16024D02*
D03*
X9843D02*
D03*
X6299Y118D02*
D03*
X5906D02*
D03*
X7087Y16024D02*
D03*
X7480D02*
D03*
X394Y118D02*
D03*
Y16024D02*
D03*
X787D02*
D03*
X2362D02*
D03*
X4724D02*
D03*
X2756D02*
D03*
X2756Y118D02*
D03*
X1181Y16024D02*
D03*
D121*
X3622Y14567D02*
D03*
X4587D02*
D03*
D122*
X3799Y8819D02*
D03*
Y9016D02*
D03*
Y9213D02*
D03*
Y9409D02*
D03*
X2579D02*
D03*
Y9213D02*
D03*
Y9016D02*
D03*
Y8819D02*
D03*
D123*
X1732Y12795D02*
D03*
D124*
X2116Y12598D02*
D03*
Y12795D02*
D03*
Y12992D02*
D03*
X1348Y12598D02*
D03*
Y12795D02*
D03*
D125*
Y13012D02*
D03*
D126*
X3041Y6299D02*
D03*
X3297D02*
D03*
X3553D02*
D03*
X3809D02*
D03*
Y4016D02*
D03*
X3553D02*
D03*
X3297D02*
D03*
X3041D02*
D03*
D127*
X9427Y2784D02*
D03*
X9683D02*
D03*
X9939D02*
D03*
X9427Y3296D02*
D03*
X9683D02*
D03*
X9939D02*
D03*
X9931Y8957D02*
D03*
X9675D02*
D03*
X9419D02*
D03*
X9931Y8445D02*
D03*
X9675D02*
D03*
X9419D02*
D03*
D128*
X1929Y7963D02*
D03*
Y6860D02*
D03*
D129*
X2598Y7638D02*
D03*
X3465Y7894D02*
D03*
X3465Y7382D02*
D03*
X2598Y7894D02*
D03*
X2598Y7382D02*
D03*
X3465Y7638D02*
D03*
D130*
X11571Y4060D02*
D03*
X10815D02*
D03*
X10807Y9721D02*
D03*
X11563D02*
D03*
D131*
X11193Y3760D02*
D03*
Y4360D02*
D03*
X11185Y10021D02*
D03*
Y9421D02*
D03*
D132*
X10285Y8693D02*
D03*
X4986Y8686D02*
D03*
X10293Y3032D02*
D03*
X4994Y3025D02*
D03*
D133*
X4986Y10745D02*
D03*
Y6627D02*
D03*
X10285D02*
D03*
Y10745D02*
D03*
X4994Y5084D02*
D03*
Y966D02*
D03*
X10293D02*
D03*
Y5084D02*
D03*
D134*
X5482Y11146D02*
D03*
Y6225D02*
D03*
X9789D02*
D03*
Y11146D02*
D03*
X5490Y5486D02*
D03*
Y564D02*
D03*
X9797D02*
D03*
Y5486D02*
D03*
D135*
X7635Y11146D02*
D03*
Y6225D02*
D03*
X7643Y5486D02*
D03*
Y564D02*
D03*
D136*
X1650Y13425D02*
D03*
X2050D02*
D03*
X1444Y5955D02*
D03*
X1844D02*
D03*
X2389Y11673D02*
D03*
X2789D02*
D03*
D137*
X8636Y1962D02*
D03*
X8872D02*
D03*
X9021Y2910D02*
D03*
X8785D02*
D03*
Y3170D02*
D03*
X9021D02*
D03*
X9013Y8571D02*
D03*
X8777D02*
D03*
Y8831D02*
D03*
X9013D02*
D03*
X5297Y9188D02*
D03*
X5533D02*
D03*
X6683Y10856D02*
D03*
X6447D02*
D03*
X5573Y8011D02*
D03*
X5337D02*
D03*
X5533Y8888D02*
D03*
X5297D02*
D03*
X7827Y6961D02*
D03*
X8063D02*
D03*
X9011Y8188D02*
D03*
X8774D02*
D03*
X7827Y6691D02*
D03*
X8063D02*
D03*
X8017Y7491D02*
D03*
X8253D02*
D03*
X9197Y10221D02*
D03*
X9433D02*
D03*
Y10541D02*
D03*
X9197D02*
D03*
Y10861D02*
D03*
X9433D02*
D03*
X9473Y9481D02*
D03*
X9237D02*
D03*
Y9781D02*
D03*
X9473D02*
D03*
X10013Y10111D02*
D03*
X9777D02*
D03*
X5572Y8388D02*
D03*
X5335D02*
D03*
X5541Y3530D02*
D03*
X5305D02*
D03*
X6454Y5178D02*
D03*
X6690D02*
D03*
X5335Y2350D02*
D03*
X5572D02*
D03*
X7730Y5178D02*
D03*
X7493D02*
D03*
X5305Y3230D02*
D03*
X5541D02*
D03*
X8045Y1328D02*
D03*
X7809D02*
D03*
X8783Y2528D02*
D03*
X9019D02*
D03*
X8045Y1060D02*
D03*
X7809D02*
D03*
X8302Y1840D02*
D03*
X8065D02*
D03*
X9452Y4550D02*
D03*
X9215D02*
D03*
Y4870D02*
D03*
X9452D02*
D03*
Y5190D02*
D03*
X9215D02*
D03*
X9245Y3830D02*
D03*
X9481D02*
D03*
Y4130D02*
D03*
X9245D02*
D03*
X9795Y4450D02*
D03*
X10031D02*
D03*
X5345Y2750D02*
D03*
X5581D02*
D03*
X8763Y7601D02*
D03*
X8527D02*
D03*
D138*
X1174Y5890D02*
D03*
Y5665D02*
D03*
X2402Y4967D02*
D03*
Y5191D02*
D03*
Y4258D02*
D03*
Y4482D02*
D03*
D139*
X7173Y3355D02*
D03*
X7165Y9016D02*
D03*
D140*
X8315Y2489D02*
D03*
X8315Y2646D02*
D03*
X8315Y2804D02*
D03*
Y3276D02*
D03*
Y3434D02*
D03*
Y3591D02*
D03*
Y3749D02*
D03*
Y3906D02*
D03*
Y4064D02*
D03*
Y4221D02*
D03*
X6032Y4221D02*
D03*
Y4064D02*
D03*
Y3906D02*
D03*
Y3749D02*
D03*
Y3591D02*
D03*
Y3434D02*
D03*
Y3276D02*
D03*
Y3119D02*
D03*
Y2961D02*
D03*
Y2804D02*
D03*
Y2646D02*
D03*
Y2489D02*
D03*
X8315Y3119D02*
D03*
X8315Y2961D02*
D03*
X8307Y8622D02*
D03*
X8307Y8780D02*
D03*
X6024Y8150D02*
D03*
Y8307D02*
D03*
Y8465D02*
D03*
Y8622D02*
D03*
Y8780D02*
D03*
Y8937D02*
D03*
Y9094D02*
D03*
Y9252D02*
D03*
Y9409D02*
D03*
Y9567D02*
D03*
Y9724D02*
D03*
Y9882D02*
D03*
X8307Y9882D02*
D03*
Y9724D02*
D03*
Y9567D02*
D03*
Y9409D02*
D03*
Y9252D02*
D03*
Y9094D02*
D03*
Y8937D02*
D03*
Y8465D02*
D03*
X8307Y8307D02*
D03*
X8307Y8150D02*
D03*
D141*
X6307Y4497D02*
D03*
X6465D02*
D03*
X6622D02*
D03*
X6780D02*
D03*
X6937D02*
D03*
X7095D02*
D03*
X7252D02*
D03*
X7410D02*
D03*
X7567D02*
D03*
X7725D02*
D03*
X7882D02*
D03*
X8040D02*
D03*
Y2213D02*
D03*
X7882D02*
D03*
X7725D02*
D03*
X7567D02*
D03*
X7410D02*
D03*
X7252D02*
D03*
X7095D02*
D03*
X6937D02*
D03*
X6780D02*
D03*
X6622D02*
D03*
X6465D02*
D03*
X6307D02*
D03*
X6299Y7874D02*
D03*
X6457D02*
D03*
X6614D02*
D03*
X6772D02*
D03*
X6929D02*
D03*
X7087D02*
D03*
X7244D02*
D03*
X7402D02*
D03*
X7559D02*
D03*
X7717D02*
D03*
X7874D02*
D03*
X8031D02*
D03*
Y10157D02*
D03*
X7874D02*
D03*
X7717D02*
D03*
X7559D02*
D03*
X7402D02*
D03*
X7244D02*
D03*
X7087D02*
D03*
X6929D02*
D03*
X6772D02*
D03*
X6614D02*
D03*
X6457D02*
D03*
X6299D02*
D03*
D142*
X4990Y14911D02*
D03*
X5482D02*
D03*
D143*
X9449Y13898D02*
D03*
X9685D02*
D03*
X8033Y4852D02*
D03*
Y5088D02*
D03*
X8565Y6723D02*
D03*
Y6959D02*
D03*
X8815Y7319D02*
D03*
Y7083D02*
D03*
X8315Y6723D02*
D03*
Y6959D02*
D03*
X7065Y7109D02*
D03*
Y6873D02*
D03*
X7325D02*
D03*
Y7109D02*
D03*
X7953Y10935D02*
D03*
Y10699D02*
D03*
X8484Y10728D02*
D03*
Y10492D02*
D03*
X8189Y10728D02*
D03*
Y10492D02*
D03*
X8563Y1299D02*
D03*
Y1063D02*
D03*
X8813Y1432D02*
D03*
Y1668D02*
D03*
X8313Y1299D02*
D03*
Y1063D02*
D03*
X7063Y1209D02*
D03*
Y1446D02*
D03*
X7313D02*
D03*
Y1209D02*
D03*
X8363Y4852D02*
D03*
Y5088D02*
D03*
X6803Y7106D02*
D03*
Y6870D02*
D03*
X7575Y6873D02*
D03*
Y7109D02*
D03*
X6811Y1209D02*
D03*
Y1446D02*
D03*
X7563D02*
D03*
Y1209D02*
D03*
D144*
X748Y12520D02*
D03*
Y13071D02*
D03*
X11811Y14291D02*
D03*
Y15630D02*
D03*
D145*
X5089Y15354D02*
D03*
X5463D02*
D03*
D146*
X1673Y2151D02*
D03*
X1476D02*
D03*
X1280D02*
D03*
X1083D02*
D03*
X1673Y1235D02*
D03*
X1476D02*
D03*
X1280D02*
D03*
X1083D02*
D03*
D147*
X1019Y1693D02*
D03*
Y1496D02*
D03*
Y1890D02*
D03*
X1737Y1496D02*
D03*
Y1890D02*
D03*
Y1693D02*
D03*
D148*
X945Y3184D02*
D03*
X1142Y3184D02*
D03*
X1339D02*
D03*
X1535D02*
D03*
Y3784D02*
D03*
X1339D02*
D03*
X1142D02*
D03*
X945D02*
D03*
X2500Y1471D02*
D03*
X2697D02*
D03*
Y2072D02*
D03*
X2500D02*
D03*
D149*
X1540Y3386D02*
D03*
Y3583D02*
D03*
X940D02*
D03*
Y3386D02*
D03*
X2899Y1575D02*
D03*
Y1772D02*
D03*
Y1969D02*
D03*
X2298D02*
D03*
Y1772D02*
D03*
Y1575D02*
D03*
D150*
X21654Y1181D02*
D03*
X354Y14961D02*
D03*
D151*
X1634Y5364D02*
D03*
Y4695D02*
D03*
X1181D02*
D03*
Y5364D02*
D03*
D152*
X9764Y6831D02*
D03*
X5455Y7595D02*
D03*
Y6926D02*
D03*
X10177Y12293D02*
D03*
Y11624D02*
D03*
X5443Y1909D02*
D03*
D153*
X2402Y4724D02*
D03*
X2008D02*
D03*
X7323Y10837D02*
D03*
X7717D02*
D03*
X8937Y6614D02*
D03*
X9331D02*
D03*
X5906Y15157D02*
D03*
X6299D02*
D03*
X1844Y5659D02*
D03*
X1450D02*
D03*
D154*
X2717Y2392D02*
D03*
X2953D02*
D03*
X7441Y11506D02*
D03*
X7205D02*
D03*
X4252Y4281D02*
D03*
X4488D02*
D03*
Y4006D02*
D03*
X4252D02*
D03*
X1781Y3386D02*
D03*
X2018D02*
D03*
X1220Y2559D02*
D03*
X1457D02*
D03*
X8228Y15315D02*
D03*
X8465D02*
D03*
X4409Y15079D02*
D03*
X4646D02*
D03*
X5630Y14262D02*
D03*
X5394D02*
D03*
X9094Y14724D02*
D03*
X9331D02*
D03*
X9173Y14134D02*
D03*
X8937D02*
D03*
X1211Y11732D02*
D03*
X974D02*
D03*
X8465Y15079D02*
D03*
X8228D02*
D03*
X8937Y12165D02*
D03*
X9173D02*
D03*
X3701Y6811D02*
D03*
X3465D02*
D03*
X8937Y11929D02*
D03*
X9173D02*
D03*
Y13307D02*
D03*
X8937D02*
D03*
X7205Y11722D02*
D03*
X7441D02*
D03*
X9173Y14370D02*
D03*
X8937D02*
D03*
X5630Y14498D02*
D03*
X5394D02*
D03*
D155*
X7283Y13425D02*
D03*
D156*
X8366Y12146D02*
D03*
X8169D02*
D03*
X7972D02*
D03*
X7776D02*
D03*
X7579D02*
D03*
X7382D02*
D03*
X7185D02*
D03*
X6988D02*
D03*
X6791D02*
D03*
X6594D02*
D03*
X6398D02*
D03*
X6201D02*
D03*
X8563Y12343D02*
D03*
X8071D02*
D03*
X7874D02*
D03*
X7677D02*
D03*
X7480D02*
D03*
X7283D02*
D03*
X7087D02*
D03*
X6890D02*
D03*
X6496D02*
D03*
X6201Y12441D02*
D03*
X8563Y12539D02*
D03*
X8366Y12638D02*
D03*
X6201D02*
D03*
X8563Y12736D02*
D03*
X6004D02*
D03*
X8366Y12835D02*
D03*
X8563Y12933D02*
D03*
X6004D02*
D03*
X8366Y13032D02*
D03*
X6201D02*
D03*
X8563Y13130D02*
D03*
X6004D02*
D03*
X8366Y13228D02*
D03*
X6201D02*
D03*
X8563Y13327D02*
D03*
X6004D02*
D03*
X6201Y13425D02*
D03*
X8563Y13524D02*
D03*
X6004D02*
D03*
X6201Y13622D02*
D03*
X8563Y13720D02*
D03*
X6004D02*
D03*
X8366Y13819D02*
D03*
X6201D02*
D03*
X6004Y13917D02*
D03*
X8366Y14016D02*
D03*
X6201D02*
D03*
X8563Y14114D02*
D03*
X6201Y14213D02*
D03*
X6004Y14311D02*
D03*
X8366Y14213D02*
D03*
X8563Y14508D02*
D03*
X7874D02*
D03*
X7677D02*
D03*
X7480D02*
D03*
X7283D02*
D03*
X7087D02*
D03*
X6890D02*
D03*
X6693D02*
D03*
X6496D02*
D03*
X6299D02*
D03*
X6004D02*
D03*
X8366Y14705D02*
D03*
X7972D02*
D03*
X7776D02*
D03*
X7579D02*
D03*
X7382D02*
D03*
X7185D02*
D03*
X6988D02*
D03*
X6791D02*
D03*
X8169D02*
D03*
D157*
X9734Y15522D02*
D03*
X9085D02*
D03*
Y15030D02*
D03*
X9734D02*
D03*
D158*
X5148Y12687D02*
D03*
X4557D02*
D03*
X5423Y12175D02*
D03*
X4833D02*
D03*
X9705Y14567D02*
D03*
X10295D02*
D03*
D159*
X1502Y15394D02*
D03*
X1726D02*
D03*
X2614Y8415D02*
D03*
X2839D02*
D03*
X3008Y3583D02*
D03*
X3232D02*
D03*
X2998Y3356D02*
D03*
X3222D02*
D03*
X3234Y8415D02*
D03*
X3459D02*
D03*
X1896Y10354D02*
D03*
X2120D02*
D03*
X1856Y6201D02*
D03*
X2081D02*
D03*
X1896Y10620D02*
D03*
X2120D02*
D03*
D160*
X9134Y1575D02*
D03*
Y1969D02*
D03*
X9055Y7638D02*
D03*
Y7244D02*
D03*
X5985Y7468D02*
D03*
Y7074D02*
D03*
X6415Y6814D02*
D03*
Y7208D02*
D03*
X5973Y1423D02*
D03*
Y1817D02*
D03*
X6411Y1574D02*
D03*
Y1181D02*
D03*
D161*
X1142Y4016D02*
D03*
Y4252D02*
D03*
X906D02*
D03*
Y4016D02*
D03*
X3297Y14478D02*
D03*
Y14715D02*
D03*
X5551Y12520D02*
D03*
Y12756D02*
D03*
X10118Y15276D02*
D03*
Y15512D02*
D03*
X10039Y13898D02*
D03*
Y13661D02*
D03*
X9094Y13583D02*
D03*
Y13819D02*
D03*
X2756Y6811D02*
D03*
Y6575D02*
D03*
X7795Y15276D02*
D03*
Y15039D02*
D03*
X2264Y9055D02*
D03*
Y8819D02*
D03*
X3819Y7638D02*
D03*
Y7402D02*
D03*
X709Y2165D02*
D03*
Y1929D02*
D03*
D162*
X2087Y11296D02*
D03*
Y11696D02*
D03*
X1270Y11148D02*
D03*
Y11548D02*
D03*
X1703D02*
D03*
Y11148D02*
D03*
X8789Y10889D02*
D03*
Y10489D02*
D03*
X9903Y10438D02*
D03*
Y10838D02*
D03*
X8761Y5228D02*
D03*
Y4828D02*
D03*
X9911Y4778D02*
D03*
Y5178D02*
D03*
D163*
X3976Y12028D02*
D03*
Y12618D02*
D03*
D164*
X0Y-2756D02*
D03*
X21860Y21181D02*
D03*
X0Y35827D02*
D03*
X48819Y-2756D02*
D03*
D165*
X3543Y16142D02*
D03*
X8268Y0D02*
D03*
X5906Y16142D02*
D03*
X4331D02*
D03*
X7874Y0D02*
D03*
X7480D02*
D03*
X7087D02*
D03*
X6693D02*
D03*
X9843D02*
D03*
X9449D02*
D03*
X9055D02*
D03*
X8661D02*
D03*
X1969D02*
D03*
X2362D02*
D03*
X1575D02*
D03*
X9055Y16142D02*
D03*
X8661D02*
D03*
X8268D02*
D03*
X7874D02*
D03*
X1181Y0D02*
D03*
X787D02*
D03*
X1969Y16142D02*
D03*
X3150D02*
D03*
X3543Y0D02*
D03*
X10236D02*
D03*
Y16142D02*
D03*
X5118Y0D02*
D03*
X1575Y16142D02*
D03*
X5118D02*
D03*
X5512D02*
D03*
X3937D02*
D03*
X6693D02*
D03*
X6299D02*
D03*
X3150Y0D02*
D03*
X4724D02*
D03*
X3937D02*
D03*
X5512D02*
D03*
X4331D02*
D03*
X9449Y16142D02*
D03*
X9843D02*
D03*
X6299Y0D02*
D03*
X5906D02*
D03*
X7087Y16142D02*
D03*
X7480D02*
D03*
X394Y0D02*
D03*
Y16142D02*
D03*
X787D02*
D03*
X2362D02*
D03*
X4724D02*
D03*
X2756D02*
D03*
X2756Y0D02*
D03*
X1181Y16142D02*
D03*
D166*
X17421Y4057D02*
D03*
X17421Y12087D02*
D03*
M02*
