M48
;Layer_Color=9474304
;FILE_FORMAT=2:4
INCH,LZ
;TYPE=PLATED
T1F00S00C0.0118
T2F00S00C0.0276
T3F00S00C0.0315
T4F00S00C0.0394
T5F00S00C0.0400
T6F00S00C0.0551
T7F00S00C0.0630
T8F00S00C0.0780
T9F00S00C0.1299
%
T01
X018747Y000661
X01868Y00128
X018711Y001851
X018714Y002483
X01883Y00417
X019574Y003884
X017764Y004649
X009296Y003278
X00906Y003041
X008824Y003278
X008587Y003041
X009532
X009812Y005931
X009151Y00596
X008795
X009542Y007602
Y007958
X010129Y008592
X010485
X010498Y007013
X010142
X011605Y00683
Y006474
X012963Y013616
Y013972
Y014615
Y014971
X010738Y015411
X01059Y01464
X010152Y013623
X00855Y01287
X006803Y014007
X006823Y014625
X006977Y015363
X005665Y01324
X005012Y011823
X01028Y015915
X015847Y01635
Y014151
X017386Y015655
X018134Y015421
X018145Y017629
X018849Y012059
Y011587
Y011114
X018613Y011351
Y011823
X018837Y008365
X019827Y008559
X018837Y007169
X01702Y00722
X01703Y00833
X021471Y007209
X021551Y006073
X021195
X022334Y006237
X023267Y006259
X023254Y007244
X011888Y022516
T02
X005967Y017823
X007967
X009677
X011677
X010677Y016823
X006967
T03
X01613Y019061
Y022053
T04
X014594Y001086
X015594
Y003086
X014594
X013594
X011594
Y001086
X013594
T05
X0224Y006974
Y00797
Y00897
Y00997
X00821Y021992
X00721
T06
X001165Y004921
X003165
Y009055
X001165
Y014567
X003165
Y018701
X001165
X020457
X022457
Y014567
X020457
T07
X017283Y011526
X004192Y02173
T08
X00663Y001048
Y003883
Y007486
Y01032
T09
X021654Y001969
X001969
X021654Y021654
X001969
M30
