G04*
G04 #@! TF.GenerationSoftware,Altium Limited,Altium Designer,20.1.11 (218)*
G04*
G04 Layer_Color=65535*
%FSLAX24Y24*%
%MOIN*%
G70*
G04*
G04 #@! TF.SameCoordinates,CE7CCB8B-9279-4727-9A7C-73EE909CC9FE*
G04*
G04*
G04 #@! TF.FilePolarity,Positive*
G04*
G01*
G75*
%ADD10C,0.0098*%
%ADD11C,0.0050*%
%ADD12C,0.0060*%
%ADD13C,0.0079*%
%ADD14C,0.0100*%
%ADD15C,0.0070*%
%ADD16C,0.0070*%
%ADD17C,0.0080*%
%ADD18R,0.0251X0.0211*%
%ADD19R,0.0251X0.0211*%
D10*
X6908Y22691D02*
G03*
X6908Y22691I-49J0D01*
G01*
X11623Y21453D02*
G03*
X11623Y21453I-16J0D01*
G01*
X18906Y8837D02*
G03*
X18906Y8837I-49J0D01*
G01*
X16231Y17415D02*
G03*
X16231Y17415I-16J0D01*
G01*
Y15216D02*
G03*
X16231Y15216I-16J0D01*
G01*
X8148Y12167D02*
G03*
X8148Y12167I-49J0D01*
G01*
X18911Y3454D02*
G03*
X18911Y3454I-49J0D01*
G01*
X21589Y8746D02*
G03*
X21589Y8746I-49J0D01*
G01*
X15257Y8410D02*
G03*
X15257Y8410I-49J0D01*
G01*
X23148Y10321D02*
G03*
X23148Y10321I-49J0D01*
G01*
X12359Y4672D02*
G03*
X12359Y4672I-49J0D01*
G01*
X10908Y5573D02*
G03*
X10908Y5573I-16J0D01*
G01*
D11*
X18552Y20557D02*
G03*
X18552Y20557I-2421J0D01*
G01*
X17943Y11526D02*
G03*
X17943Y11526I-660J0D01*
G01*
X4852Y21730D02*
G03*
X4852Y21730I-660J0D01*
G01*
X7941Y20830D02*
Y21303D01*
X6878D02*
X7941D01*
X6878Y20830D02*
Y21303D01*
Y20830D02*
X7941D01*
X16012Y17919D02*
X16249D01*
X16130Y17801D02*
Y18037D01*
X6205Y12025D02*
Y12160D01*
X5358D02*
X6205D01*
X5358Y12025D02*
Y12160D01*
Y11490D02*
Y11625D01*
Y11490D02*
X6205D01*
Y11625D01*
X18070Y16757D02*
X18205D01*
Y17603D01*
X18070D02*
X18205D01*
X17535D02*
X17670D01*
X17535Y16757D02*
Y17603D01*
Y16757D02*
X17670D01*
X18058Y14548D02*
X18193D01*
Y15395D01*
X18058D02*
X18193D01*
X17523D02*
X17658D01*
X17523Y14548D02*
Y15395D01*
Y14548D02*
X17658D01*
X16788Y8404D02*
X18757D01*
X16788Y7144D02*
X18757D01*
Y8404D01*
X16788Y7144D02*
Y8404D01*
X19846Y15217D02*
X23067D01*
X19846Y13917D02*
Y15217D01*
Y13917D02*
X23067D01*
Y15217D01*
X3776Y4272D02*
Y5571D01*
X555Y4272D02*
X3776D01*
X555D02*
Y5571D01*
X3776D01*
X555Y15217D02*
X3776D01*
X555Y13917D02*
Y15217D01*
Y13917D02*
X3776D01*
Y15217D01*
X18912Y909D02*
X19975D01*
Y437D02*
Y909D01*
X18912Y437D02*
X19975D01*
X18912D02*
Y909D01*
X12026Y16414D02*
Y19259D01*
X9327Y16414D02*
X12026D01*
X9327Y19259D02*
X12026D01*
X9327Y16414D02*
Y19259D01*
X10637Y20121D02*
X11708D01*
X10637D02*
Y20593D01*
X11708D01*
Y20121D02*
Y20593D01*
X10804Y22792D02*
X11252D01*
X10804Y22442D02*
Y22792D01*
Y21492D02*
Y21841D01*
Y21492D02*
X11252D01*
X11469Y22014D02*
Y22270D01*
X11708Y20786D02*
Y21258D01*
X10645D02*
X11708D01*
X10645Y20786D02*
Y21258D01*
Y20786D02*
X11708D01*
X18369Y5245D02*
Y5717D01*
Y5245D02*
X19432D01*
Y5717D01*
X18369D02*
X19432D01*
X17758Y5245D02*
Y5717D01*
X16695D02*
X17758D01*
X16695Y5245D02*
Y5717D01*
Y5245D02*
X17758D01*
Y9845D02*
Y10317D01*
X16695D02*
X17758D01*
X16695Y9845D02*
Y10317D01*
Y9845D02*
X17758D01*
X19445Y6350D02*
Y7422D01*
X18973Y6350D02*
X19445D01*
X18973D02*
Y7422D01*
X19445D01*
X18973Y8137D02*
Y9208D01*
X19445D01*
Y8137D02*
Y9208D01*
X18973Y8137D02*
X19445D01*
X18382Y9845D02*
Y10317D01*
Y9845D02*
X19445D01*
Y10317D01*
X18382D02*
X19445D01*
X11122Y3607D02*
X17146D01*
X11122Y564D02*
X17146D01*
X11122D02*
Y3607D01*
X17146Y564D02*
Y3607D01*
X10539Y1680D02*
X10717Y1857D01*
X10362D02*
X10539Y1680D01*
X10717Y1513D02*
Y2024D01*
X10362Y1513D02*
Y2024D01*
X19900Y2247D02*
Y2719D01*
X18837D02*
X19900D01*
X18837Y2247D02*
Y2719D01*
Y2247D02*
X19900D01*
X18846Y1627D02*
Y2100D01*
Y1627D02*
X19909D01*
Y2100D01*
X18846D02*
X19909D01*
X16568Y16076D02*
X17017D01*
Y16425D01*
Y17027D02*
Y17376D01*
X16568D02*
X17017D01*
X16352Y16598D02*
Y16854D01*
X16568Y13877D02*
X17017D01*
Y14226D01*
Y14827D02*
Y15177D01*
X16568D02*
X17017D01*
X16352Y14399D02*
Y14655D01*
X9325Y4527D02*
Y5758D01*
X8635Y4527D02*
X9325D01*
X8635D02*
Y5758D01*
X9325D01*
X11032Y4527D02*
Y5590D01*
X11505D01*
Y4527D02*
Y5590D01*
X11032Y4527D02*
X11505D01*
X8375Y11536D02*
Y12008D01*
X7312D02*
X8375D01*
X7312Y11536D02*
Y12008D01*
Y11536D02*
X8375D01*
X3776Y18051D02*
Y19350D01*
X555Y18051D02*
X3776D01*
X555D02*
Y19350D01*
X3776D01*
X5424Y13116D02*
X6496D01*
Y12644D02*
Y13116D01*
X5424Y12644D02*
X6496D01*
X5424D02*
Y13116D01*
X8317Y16414D02*
Y19259D01*
X5617Y16414D02*
X8317D01*
X5617Y19259D02*
X8317D01*
X5617Y16414D02*
Y19259D01*
X18711Y3273D02*
Y4344D01*
X18238Y3273D02*
X18711D01*
X18238D02*
Y4344D01*
X18711D01*
X17419Y4480D02*
X18109D01*
X17419Y3248D02*
Y4480D01*
Y3248D02*
X18109D01*
Y4480D01*
X20290Y7931D02*
X20868D01*
X20290D02*
Y8270D01*
Y9211D02*
X20868D01*
X20290Y8871D02*
Y9211D01*
X9327Y14243D02*
X10390D01*
Y13771D02*
Y14243D01*
X9327Y13771D02*
X10390D01*
X9327D02*
Y14243D01*
Y14389D02*
X10390D01*
X9327D02*
Y14862D01*
X10390D01*
Y14389D02*
Y14862D01*
X10555Y15025D02*
Y15715D01*
X9324D02*
X10555D01*
X9324Y15025D02*
Y15715D01*
Y15025D02*
X10555D01*
X5617Y13771D02*
Y14243D01*
Y13771D02*
X6680D01*
Y14243D01*
X5617D02*
X6680D01*
Y14389D02*
Y14862D01*
X5617D02*
X6680D01*
X5617Y14389D02*
Y14862D01*
Y14389D02*
X6680D01*
X6845Y15025D02*
Y15715D01*
X5614D02*
X6845D01*
X5614Y15025D02*
Y15715D01*
Y15025D02*
X6845D01*
X15009Y8367D02*
Y11911D01*
X9970Y8367D02*
Y11911D01*
X10915Y12855D02*
X14064D01*
X10915Y7422D02*
X14064D01*
X11794Y6235D02*
Y7086D01*
Y6235D02*
X13545D01*
Y7086D01*
X11794D02*
X13545D01*
X3776Y8406D02*
Y9705D01*
X555Y8406D02*
X3776D01*
X555D02*
Y9705D01*
X3776D01*
X19846Y19350D02*
X23067D01*
X19846Y18051D02*
Y19350D01*
Y18051D02*
X23067D01*
Y19350D01*
X19529Y12192D02*
Y12431D01*
X21498Y12192D02*
Y12431D01*
X19529Y10777D02*
Y11016D01*
X21498Y10777D02*
Y11016D01*
X19529Y12431D02*
X21498D01*
X19529Y10777D02*
X21498D01*
X12369Y4981D02*
Y5374D01*
X12706D01*
X13654Y4985D02*
Y5379D01*
X13316D02*
X13654D01*
X12130Y4527D02*
Y5590D01*
X11658Y4527D02*
X12130D01*
X11658D02*
Y5590D01*
X12130D01*
X10074Y5435D02*
X10330D01*
X10852Y4770D02*
Y5218D01*
X10503Y4770D02*
X10852D01*
X9552D02*
X9902D01*
X9552D02*
Y5218D01*
X8425Y760D02*
X8676D01*
Y971D01*
X8465D02*
X8676D01*
X9828D02*
X10039D01*
X9828Y760D02*
Y971D01*
X8425Y2616D02*
X8676D01*
X9828Y760D02*
X10079D01*
X9828Y2616D02*
X10079D01*
X8425Y760D02*
Y2616D01*
X10079Y760D02*
Y2616D01*
X9252Y1528D02*
X9518Y1794D01*
X8986D02*
X9252Y1528D01*
X13201Y14369D02*
Y15220D01*
Y14369D02*
X14951D01*
Y15220D01*
X13201D02*
X14951D01*
X13200Y13371D02*
Y14221D01*
Y13371D02*
X14951D01*
Y14221D01*
X13200D02*
X14951D01*
X5210Y10360D02*
X5870D01*
X5210Y7446D02*
X5870D01*
X7390Y10360D02*
X8050D01*
X7390Y7446D02*
X8050D01*
Y10360D01*
X5210Y7446D02*
Y10360D01*
Y3922D02*
X5870D01*
X5210Y1009D02*
X5870D01*
X7390Y3922D02*
X8050D01*
X7390Y1009D02*
X8050D01*
Y3922D01*
X5210Y1009D02*
Y3922D01*
X16113Y15417D02*
X17176D01*
X16113D02*
Y15889D01*
X17176D01*
Y15417D02*
Y15889D01*
D12*
X10759Y2158D02*
G03*
X10759Y2158I-20J0D01*
G01*
X20911Y5921D02*
X23489D01*
X20911Y4740D02*
Y5921D01*
Y4740D02*
X23489D01*
Y5921D01*
X6902Y20334D02*
Y20654D01*
X7062D01*
X7116Y20601D01*
Y20494D01*
X7062Y20441D01*
X6902D01*
X7009D02*
X7116Y20334D01*
X7435D02*
X7222D01*
X7435Y20548D01*
Y20601D01*
X7382Y20654D01*
X7275D01*
X7222Y20601D01*
X7542D02*
X7595Y20654D01*
X7702D01*
X7755Y20601D01*
Y20548D01*
X7702Y20494D01*
X7649D01*
X7702D01*
X7755Y20441D01*
Y20388D01*
X7702Y20334D01*
X7595D01*
X7542Y20388D01*
X8319Y21347D02*
X8212D01*
X8266D01*
Y21081D01*
X8212Y21027D01*
X8159D01*
X8106Y21081D01*
X8426Y21294D02*
X8479Y21347D01*
X8586D01*
X8639Y21294D01*
Y21241D01*
X8586Y21187D01*
X8639Y21134D01*
Y21081D01*
X8586Y21027D01*
X8479D01*
X8426Y21081D01*
Y21134D01*
X8479Y21187D01*
X8426Y21241D01*
Y21294D01*
X8479Y21187D02*
X8586D01*
X17551Y18386D02*
Y18066D01*
X17711D01*
X17764Y18119D01*
Y18333D01*
X17711Y18386D01*
X17551D01*
X17871Y18119D02*
X17924Y18066D01*
X18031D01*
X18084Y18119D01*
Y18333D01*
X18031Y18386D01*
X17924D01*
X17871Y18333D01*
Y18279D01*
X17924Y18226D01*
X18084D01*
X17544Y16178D02*
Y15858D01*
X17704D01*
X17757Y15911D01*
Y16125D01*
X17704Y16178D01*
X17544D01*
X17864D02*
X18077D01*
Y16125D01*
X17864Y15911D01*
Y15858D01*
X4414Y11990D02*
Y11670D01*
X4574D01*
X4627Y11724D01*
Y11937D01*
X4574Y11990D01*
X4414D01*
X4734Y11937D02*
X4787Y11990D01*
X4894D01*
X4947Y11937D01*
Y11884D01*
X4894Y11830D01*
X4947Y11777D01*
Y11724D01*
X4894Y11670D01*
X4787D01*
X4734Y11724D01*
Y11777D01*
X4787Y11830D01*
X4734Y11884D01*
Y11937D01*
X4787Y11830D02*
X4894D01*
X20160Y5832D02*
X20106Y5885D01*
X20000D01*
X19946Y5832D01*
Y5619D01*
X20000Y5565D01*
X20106D01*
X20160Y5619D01*
X20266Y5565D02*
X20373D01*
X20320D01*
Y5885D01*
X20266Y5832D01*
X20533Y5565D02*
X20639D01*
X20586D01*
Y5885D01*
X20533Y5832D01*
X8759Y6300D02*
X8705Y6354D01*
X8599D01*
X8545Y6300D01*
Y6087D01*
X8599Y6034D01*
X8705D01*
X8759Y6087D01*
X8865Y6034D02*
X8972D01*
X8919D01*
Y6354D01*
X8865Y6300D01*
X9132D02*
X9185Y6354D01*
X9292D01*
X9345Y6300D01*
Y6087D01*
X9292Y6034D01*
X9185D01*
X9132Y6087D01*
Y6300D01*
X10528Y3618D02*
Y3299D01*
Y3405D01*
X10742Y3618D01*
X10582Y3459D01*
X10742Y3299D01*
X10848D02*
X10955D01*
X10902D01*
Y3618D01*
X10848Y3565D01*
X19679Y9637D02*
Y9317D01*
X19839D01*
X19893Y9370D01*
Y9584D01*
X19839Y9637D01*
X19679D01*
X20159Y9317D02*
Y9637D01*
X19999Y9477D01*
X20213D01*
X10328Y2888D02*
Y2568D01*
X10488D01*
X10542Y2621D01*
Y2834D01*
X10488Y2888D01*
X10328D01*
X10861D02*
X10648D01*
Y2728D01*
X10755Y2781D01*
X10808D01*
X10861Y2728D01*
Y2621D01*
X10808Y2568D01*
X10701D01*
X10648Y2621D01*
X9891Y6048D02*
Y6262D01*
X9837Y6315D01*
X9731D01*
X9677Y6262D01*
Y6048D01*
X9731Y5995D01*
X9837D01*
X9784Y6102D02*
X9891Y5995D01*
X9837D02*
X9891Y6048D01*
X10157Y5995D02*
Y6315D01*
X9997Y6155D01*
X10211D01*
X12636Y5850D02*
Y6063D01*
X12583Y6116D01*
X12476D01*
X12423Y6063D01*
Y5850D01*
X12476Y5797D01*
X12583D01*
X12530Y5903D02*
X12636Y5797D01*
X12583D02*
X12636Y5850D01*
X12743Y5797D02*
X12850D01*
X12796D01*
Y6116D01*
X12743Y6063D01*
X11058Y15492D02*
X11004Y15545D01*
X10898D01*
X10844Y15492D01*
Y15278D01*
X10898Y15225D01*
X11004D01*
X11058Y15278D01*
X11377Y15545D02*
X11164D01*
Y15385D01*
X11271Y15438D01*
X11324D01*
X11377Y15385D01*
Y15278D01*
X11324Y15225D01*
X11217D01*
X11164Y15278D01*
X7265Y15518D02*
X7212Y15572D01*
X7105D01*
X7052Y15518D01*
Y15305D01*
X7105Y15252D01*
X7212D01*
X7265Y15305D01*
X7532Y15252D02*
Y15572D01*
X7372Y15412D01*
X7585D01*
X18022Y1456D02*
Y1136D01*
X18182D01*
X18235Y1190D01*
Y1403D01*
X18182Y1456D01*
X18022D01*
X18555Y1136D02*
X18342D01*
X18555Y1350D01*
Y1403D01*
X18502Y1456D01*
X18395D01*
X18342Y1403D01*
X12759Y13590D02*
X12706Y13537D01*
Y13430D01*
X12759Y13377D01*
X12973D01*
X13026Y13430D01*
Y13537D01*
X12973Y13590D01*
X13026Y13910D02*
Y13697D01*
X12813Y13910D01*
X12759D01*
X12706Y13857D01*
Y13750D01*
X12759Y13697D01*
X17962Y525D02*
Y845D01*
X18122D01*
X18175Y791D01*
Y685D01*
X18122Y631D01*
X17962D01*
X18068D02*
X18175Y525D01*
X18282D02*
X18388D01*
X18335D01*
Y845D01*
X18282Y791D01*
X18762Y845D02*
X18548D01*
Y685D01*
X18655Y738D01*
X18708D01*
X18762Y685D01*
Y578D01*
X18708Y525D01*
X18602D01*
X18548Y578D01*
X5313Y4413D02*
X5100D01*
Y4253D01*
X5206D01*
X5100D01*
Y4093D01*
X5420Y4413D02*
Y4093D01*
Y4253D01*
X5633D01*
Y4413D01*
Y4093D01*
X5953D02*
X5739D01*
X5953Y4306D01*
Y4360D01*
X5899Y4413D01*
X5793D01*
X5739Y4360D01*
X5366Y7165D02*
X5153D01*
Y7005D01*
X5260D01*
X5153D01*
Y6845D01*
X5473Y7165D02*
Y6845D01*
Y7005D01*
X5686D01*
Y7165D01*
Y6845D01*
X5793D02*
X5899D01*
X5846D01*
Y7165D01*
X5793Y7112D01*
X5136Y5696D02*
Y5483D01*
X5296D01*
Y5590D01*
Y5483D01*
X5456D01*
Y5803D02*
Y5910D01*
Y5856D01*
X5136D01*
X5189Y5803D01*
X746Y20003D02*
X640D01*
X693D01*
Y19737D01*
X640Y19683D01*
X587D01*
X533Y19737D01*
X1066Y20003D02*
X960Y19950D01*
X853Y19843D01*
Y19737D01*
X906Y19683D01*
X1013D01*
X1066Y19737D01*
Y19790D01*
X1013Y19843D01*
X853D01*
X769Y13691D02*
X663D01*
X716D01*
Y13425D01*
X663Y13371D01*
X609D01*
X556Y13425D01*
X1089Y13691D02*
X876D01*
Y13531D01*
X982Y13585D01*
X1036D01*
X1089Y13531D01*
Y13425D01*
X1036Y13371D01*
X929D01*
X876Y13425D01*
X20105Y13749D02*
X19998D01*
X20051D01*
Y13482D01*
X19998Y13429D01*
X19945D01*
X19891Y13482D01*
X20211Y13695D02*
X20265Y13749D01*
X20371D01*
X20425Y13695D01*
Y13642D01*
X20371Y13589D01*
X20318D01*
X20371D01*
X20425Y13535D01*
Y13482D01*
X20371Y13429D01*
X20265D01*
X20211Y13482D01*
X754Y4037D02*
X647D01*
X700D01*
Y3770D01*
X647Y3717D01*
X594D01*
X541Y3770D01*
X1020Y3717D02*
Y4037D01*
X860Y3877D01*
X1074D01*
X746Y10363D02*
X640D01*
X693D01*
Y10097D01*
X640Y10043D01*
X587D01*
X533Y10097D01*
X1066Y10043D02*
X853D01*
X1066Y10257D01*
Y10310D01*
X1013Y10363D01*
X906D01*
X853Y10310D01*
X20046Y20003D02*
X19940D01*
X19993D01*
Y19737D01*
X19940Y19683D01*
X19886D01*
X19833Y19737D01*
X20153Y19683D02*
X20260D01*
X20206D01*
Y20003D01*
X20153Y19950D01*
X8591Y13530D02*
Y13263D01*
X8644Y13210D01*
X8751D01*
X8804Y13263D01*
Y13530D01*
X9124Y13210D02*
X8911D01*
X9124Y13423D01*
Y13476D01*
X9071Y13530D01*
X8964D01*
X8911Y13476D01*
X19698Y5300D02*
Y5034D01*
X19751Y4981D01*
X19857D01*
X19911Y5034D01*
Y5300D01*
X20017Y5247D02*
X20071Y5300D01*
X20177D01*
X20231Y5247D01*
Y5194D01*
X20177Y5141D01*
X20124D01*
X20177D01*
X20231Y5087D01*
Y5034D01*
X20177Y4981D01*
X20071D01*
X20017Y5034D01*
X10471Y13431D02*
Y13165D01*
X10524Y13111D01*
X10631D01*
X10684Y13165D01*
Y13431D01*
X10790Y13111D02*
X10897D01*
X10844D01*
Y13431D01*
X10790Y13378D01*
X16620Y12833D02*
X16833D01*
X16726D01*
Y12513D01*
X16939D02*
Y12833D01*
X17099D01*
X17153Y12780D01*
Y12673D01*
X17099Y12620D01*
X16939D01*
X17473Y12513D02*
X17259D01*
X17473Y12726D01*
Y12780D01*
X17419Y12833D01*
X17313D01*
X17259Y12780D01*
X3522Y23034D02*
X3735D01*
X3628D01*
Y22714D01*
X3842D02*
Y23034D01*
X4002D01*
X4055Y22981D01*
Y22874D01*
X4002Y22821D01*
X3842D01*
X4162Y22714D02*
X4268D01*
X4215D01*
Y23034D01*
X4162Y22981D01*
X7072Y15911D02*
Y16230D01*
X7232D01*
X7285Y16177D01*
Y16070D01*
X7232Y16017D01*
X7072D01*
X7178D02*
X7285Y15911D01*
X7392D02*
X7498D01*
X7445D01*
Y16230D01*
X7392Y16177D01*
X7872Y15911D02*
X7658D01*
X7872Y16124D01*
Y16177D01*
X7818Y16230D01*
X7712D01*
X7658Y16177D01*
X10872Y15921D02*
Y16241D01*
X11032D01*
X11085Y16188D01*
Y16081D01*
X11032Y16028D01*
X10872D01*
X10979D02*
X11085Y15921D01*
X11192D02*
X11299D01*
X11245D01*
Y16241D01*
X11192Y16188D01*
X11459Y15921D02*
X11565D01*
X11512D01*
Y16241D01*
X11459Y16188D01*
X17911Y22871D02*
Y22551D01*
X18124D01*
X18444Y22818D02*
X18391Y22871D01*
X18284D01*
X18231Y22818D01*
Y22764D01*
X18284Y22711D01*
X18391D01*
X18444Y22658D01*
Y22604D01*
X18391Y22551D01*
X18284D01*
X18231Y22604D01*
X18551Y22551D02*
X18658D01*
X18604D01*
Y22871D01*
X18551Y22818D01*
X16229Y7274D02*
Y7381D01*
Y7327D01*
X16549D01*
Y7274D01*
Y7381D01*
X16283Y7754D02*
X16229Y7701D01*
Y7594D01*
X16283Y7541D01*
X16336D01*
X16389Y7594D01*
Y7701D01*
X16443Y7754D01*
X16496D01*
X16549Y7701D01*
Y7594D01*
X16496Y7541D01*
X16229Y8021D02*
Y7914D01*
X16283Y7861D01*
X16496D01*
X16549Y7914D01*
Y8021D01*
X16496Y8074D01*
X16283D01*
X16229Y8021D01*
X16549Y8180D02*
Y8287D01*
Y8234D01*
X16229D01*
X16283Y8180D01*
X17888Y1762D02*
Y2082D01*
X18048D01*
X18101Y2029D01*
Y1922D01*
X18048Y1869D01*
X17888D01*
X17995D02*
X18101Y1762D01*
X18421D02*
X18208D01*
X18421Y1976D01*
Y2029D01*
X18368Y2082D01*
X18261D01*
X18208Y2029D01*
X18528Y1762D02*
X18634D01*
X18581D01*
Y2082D01*
X18528Y2029D01*
X17825Y2323D02*
Y2643D01*
X17985D01*
X18038Y2590D01*
Y2483D01*
X17985Y2430D01*
X17825D01*
X17932D02*
X18038Y2323D01*
X18358D02*
X18145D01*
X18358Y2536D01*
Y2590D01*
X18305Y2643D01*
X18198D01*
X18145Y2590D01*
X18465D02*
X18518Y2643D01*
X18625D01*
X18678Y2590D01*
Y2376D01*
X18625Y2323D01*
X18518D01*
X18465Y2376D01*
Y2590D01*
X18321Y5852D02*
Y6172D01*
X18481D01*
X18534Y6119D01*
Y6012D01*
X18481Y5959D01*
X18321D01*
X18428D02*
X18534Y5852D01*
X18641D02*
X18747D01*
X18694D01*
Y6172D01*
X18641Y6119D01*
X18907Y5906D02*
X18961Y5852D01*
X19067D01*
X19121Y5906D01*
Y6119D01*
X19067Y6172D01*
X18961D01*
X18907Y6119D01*
Y6066D01*
X18961Y6012D01*
X19121D01*
X16672Y5885D02*
Y6205D01*
X16832D01*
X16885Y6152D01*
Y6045D01*
X16832Y5992D01*
X16672D01*
X16779D02*
X16885Y5885D01*
X16992D02*
X17098D01*
X17045D01*
Y6205D01*
X16992Y6152D01*
X17258D02*
X17312Y6205D01*
X17418D01*
X17472Y6152D01*
Y6098D01*
X17418Y6045D01*
X17472Y5992D01*
Y5938D01*
X17418Y5885D01*
X17312D01*
X17258Y5938D01*
Y5992D01*
X17312Y6045D01*
X17258Y6098D01*
Y6152D01*
X17312Y6045D02*
X17418D01*
X16672Y9378D02*
Y9698D01*
X16832D01*
X16885Y9644D01*
Y9538D01*
X16832Y9484D01*
X16672D01*
X16779D02*
X16885Y9378D01*
X16992D02*
X17098D01*
X17045D01*
Y9698D01*
X16992Y9644D01*
X17258Y9698D02*
X17472D01*
Y9644D01*
X17258Y9431D01*
Y9378D01*
X18405D02*
Y9698D01*
X18565D01*
X18618Y9644D01*
Y9538D01*
X18565Y9484D01*
X18405D01*
X18511D02*
X18618Y9378D01*
X18725D02*
X18831D01*
X18778D01*
Y9698D01*
X18725Y9644D01*
X19205Y9698D02*
X19098Y9644D01*
X18991Y9538D01*
Y9431D01*
X19045Y9378D01*
X19151D01*
X19205Y9431D01*
Y9484D01*
X19151Y9538D01*
X18991D01*
X9617Y20202D02*
Y20522D01*
X9777D01*
X9830Y20469D01*
Y20362D01*
X9777Y20309D01*
X9617D01*
X9724D02*
X9830Y20202D01*
X9937D02*
X10044D01*
X9990D01*
Y20522D01*
X9937Y20469D01*
X10204D02*
X10257Y20522D01*
X10364D01*
X10417Y20469D01*
Y20255D01*
X10364Y20202D01*
X10257D01*
X10204Y20255D01*
Y20469D01*
X10847Y14501D02*
Y14821D01*
X11007D01*
X11060Y14768D01*
Y14661D01*
X11007Y14608D01*
X10847D01*
X10953D02*
X11060Y14501D01*
X11167D02*
X11273D01*
X11220D01*
Y14821D01*
X11167Y14768D01*
X11593Y14501D02*
Y14821D01*
X11433Y14661D01*
X11647D01*
X7055Y14479D02*
Y14798D01*
X7215D01*
X7268Y14745D01*
Y14638D01*
X7215Y14585D01*
X7055D01*
X7161D02*
X7268Y14479D01*
X7375D02*
X7481D01*
X7428D01*
Y14798D01*
X7375Y14745D01*
X7641D02*
X7695Y14798D01*
X7801D01*
X7854Y14745D01*
Y14692D01*
X7801Y14638D01*
X7748D01*
X7801D01*
X7854Y14585D01*
Y14532D01*
X7801Y14479D01*
X7695D01*
X7641Y14532D01*
X9901Y20898D02*
Y21218D01*
X10060D01*
X10114Y21165D01*
Y21058D01*
X10060Y21005D01*
X9901D01*
X10007D02*
X10114Y20898D01*
X10220Y21218D02*
X10434D01*
Y21165D01*
X10220Y20952D01*
Y20898D01*
X6595Y11612D02*
Y11932D01*
X6755D01*
X6808Y11879D01*
Y11772D01*
X6755Y11719D01*
X6595D01*
X6702D02*
X6808Y11612D01*
X7128Y11932D02*
X7021Y11879D01*
X6915Y11772D01*
Y11665D01*
X6968Y11612D01*
X7075D01*
X7128Y11665D01*
Y11719D01*
X7075Y11772D01*
X6915D01*
X10847Y13890D02*
Y14209D01*
X11007D01*
X11060Y14156D01*
Y14050D01*
X11007Y13996D01*
X10847D01*
X10953D02*
X11060Y13890D01*
X11167Y13943D02*
X11220Y13890D01*
X11327D01*
X11380Y13943D01*
Y14156D01*
X11327Y14209D01*
X11220D01*
X11167Y14156D01*
Y14103D01*
X11220Y14050D01*
X11380D01*
X7055Y13860D02*
Y14180D01*
X7215D01*
X7268Y14127D01*
Y14020D01*
X7215Y13967D01*
X7055D01*
X7161D02*
X7268Y13860D01*
X7375Y14127D02*
X7428Y14180D01*
X7535D01*
X7588Y14127D01*
Y14073D01*
X7535Y14020D01*
X7588Y13967D01*
Y13914D01*
X7535Y13860D01*
X7428D01*
X7375Y13914D01*
Y13967D01*
X7428Y14020D01*
X7375Y14073D01*
Y14127D01*
X7428Y14020D02*
X7535D01*
X15260Y15503D02*
Y15823D01*
X15420D01*
X15474Y15770D01*
Y15663D01*
X15420Y15610D01*
X15260D01*
X15367D02*
X15474Y15503D01*
X15794Y15823D02*
X15580D01*
Y15663D01*
X15687Y15717D01*
X15740D01*
X15794Y15663D01*
Y15557D01*
X15740Y15503D01*
X15634D01*
X15580Y15557D01*
X12976Y14406D02*
X12656D01*
Y14566D01*
X12710Y14620D01*
X12816D01*
X12870Y14566D01*
Y14406D01*
Y14513D02*
X12976Y14620D01*
X12710Y14726D02*
X12656Y14780D01*
Y14886D01*
X12710Y14940D01*
X12763D01*
X12816Y14886D01*
Y14833D01*
Y14886D01*
X12870Y14940D01*
X12923D01*
X12976Y14886D01*
Y14780D01*
X12923Y14726D01*
X11002Y5735D02*
Y6055D01*
X11162D01*
X11215Y6002D01*
Y5895D01*
X11162Y5842D01*
X11002D01*
X11108D02*
X11215Y5735D01*
X11535D02*
X11322D01*
X11535Y5949D01*
Y6002D01*
X11482Y6055D01*
X11375D01*
X11322Y6002D01*
X11745Y5733D02*
Y6053D01*
X11905D01*
X11958Y6000D01*
Y5893D01*
X11905Y5840D01*
X11745D01*
X11851D02*
X11958Y5733D01*
X12065D02*
X12171D01*
X12118D01*
Y6053D01*
X12065Y6000D01*
X10202Y21718D02*
X9989D01*
X9935Y21665D01*
Y21558D01*
X9989Y21505D01*
X10202D01*
X10255Y21558D01*
Y21665D01*
X10149Y21611D02*
X10255Y21718D01*
Y21665D02*
X10202Y21718D01*
X9935Y22038D02*
Y21825D01*
X10095D01*
X10042Y21931D01*
Y21984D01*
X10095Y22038D01*
X10202D01*
X10255Y21984D01*
Y21878D01*
X10202Y21825D01*
X15466Y14908D02*
Y15122D01*
X15413Y15175D01*
X15306D01*
X15253Y15122D01*
Y14908D01*
X15306Y14855D01*
X15413D01*
X15360Y14962D02*
X15466Y14855D01*
X15413D02*
X15466Y14908D01*
X15573Y15122D02*
X15626Y15175D01*
X15733D01*
X15786Y15122D01*
Y15068D01*
X15733Y15015D01*
X15680D01*
X15733D01*
X15786Y14962D01*
Y14908D01*
X15733Y14855D01*
X15626D01*
X15573Y14908D01*
X15488Y16249D02*
Y16462D01*
X15435Y16515D01*
X15328D01*
X15275Y16462D01*
Y16249D01*
X15328Y16195D01*
X15435D01*
X15382Y16302D02*
X15488Y16195D01*
X15435D02*
X15488Y16249D01*
X15808Y16195D02*
X15595D01*
X15808Y16409D01*
Y16462D01*
X15755Y16515D01*
X15648D01*
X15595Y16462D01*
X22171Y375D02*
Y695D01*
X22278Y588D01*
X22384Y695D01*
Y375D01*
X22491Y695D02*
X22704D01*
X22598D01*
Y375D01*
X22811Y695D02*
Y375D01*
Y535D01*
X23024D01*
Y695D01*
Y375D01*
X23291D02*
Y695D01*
X23131Y535D01*
X23344D01*
X3004Y518D02*
Y838D01*
X3110Y732D01*
X3217Y838D01*
Y518D01*
X3323Y838D02*
X3537D01*
X3430D01*
Y518D01*
X3643Y838D02*
Y518D01*
Y678D01*
X3857D01*
Y838D01*
Y518D01*
X3963Y785D02*
X4017Y838D01*
X4123D01*
X4176Y785D01*
Y732D01*
X4123Y678D01*
X4070D01*
X4123D01*
X4176Y625D01*
Y572D01*
X4123Y518D01*
X4017D01*
X3963Y572D01*
X19306Y22839D02*
Y23159D01*
X19413Y23052D01*
X19519Y23159D01*
Y22839D01*
X19626Y23159D02*
X19839D01*
X19732D01*
Y22839D01*
X19946Y23159D02*
Y22839D01*
Y22999D01*
X20159D01*
Y23159D01*
Y22839D01*
X20479D02*
X20266D01*
X20479Y23052D01*
Y23105D01*
X20426Y23159D01*
X20319D01*
X20266Y23105D01*
X250Y22989D02*
Y23309D01*
X357Y23202D01*
X464Y23309D01*
Y22989D01*
X570Y23309D02*
X784D01*
X677D01*
Y22989D01*
X890Y23309D02*
Y22989D01*
Y23149D01*
X1104D01*
Y23309D01*
Y22989D01*
X1210D02*
X1317D01*
X1263D01*
Y23309D01*
X1210Y23255D01*
X23099Y6731D02*
Y6624D01*
Y6678D01*
X23366D01*
X23419Y6624D01*
Y6571D01*
X23366Y6518D01*
X23099Y6838D02*
Y7051D01*
X23152D01*
X23366Y6838D01*
X23419D01*
X19575Y12946D02*
Y12626D01*
X19735D01*
X19788Y12680D01*
Y12893D01*
X19735Y12946D01*
X19575D01*
X19895Y12893D02*
X19948Y12946D01*
X20055D01*
X20108Y12893D01*
Y12840D01*
X20055Y12786D01*
X20001D01*
X20055D01*
X20108Y12733D01*
Y12680D01*
X20055Y12626D01*
X19948D01*
X19895Y12680D01*
X8232Y3164D02*
Y2845D01*
X8392D01*
X8445Y2898D01*
Y3111D01*
X8392Y3164D01*
X8232D01*
X8552Y2845D02*
X8658D01*
X8605D01*
Y3164D01*
X8552Y3111D01*
X17691Y4865D02*
X17637Y4918D01*
X17531D01*
X17477Y4865D01*
Y4652D01*
X17531Y4598D01*
X17637D01*
X17691Y4652D01*
X17797D02*
X17850Y4598D01*
X17957D01*
X18010Y4652D01*
Y4865D01*
X17957Y4918D01*
X17850D01*
X17797Y4865D01*
Y4812D01*
X17850Y4758D01*
X18010D01*
X18343Y4691D02*
X18290Y4638D01*
Y4531D01*
X18343Y4478D01*
X18556D01*
X18610Y4531D01*
Y4638D01*
X18556Y4691D01*
X18343Y4798D02*
X18290Y4851D01*
Y4957D01*
X18343Y5011D01*
X18396D01*
X18450Y4957D01*
X18503Y5011D01*
X18556D01*
X18610Y4957D01*
Y4851D01*
X18556Y4798D01*
X18503D01*
X18450Y4851D01*
X18396Y4798D01*
X18343D01*
X18450Y4851D02*
Y4957D01*
X19652Y6518D02*
X19598Y6464D01*
Y6358D01*
X19652Y6304D01*
X19865D01*
X19918Y6358D01*
Y6464D01*
X19865Y6518D01*
X19598Y6624D02*
Y6838D01*
X19652D01*
X19865Y6624D01*
X19918D01*
X19198Y7881D02*
X19145Y7934D01*
X19038D01*
X18985Y7881D01*
Y7667D01*
X19038Y7614D01*
X19145D01*
X19198Y7667D01*
X19518Y7934D02*
X19411Y7881D01*
X19305Y7774D01*
Y7667D01*
X19358Y7614D01*
X19465D01*
X19518Y7667D01*
Y7721D01*
X19465Y7774D01*
X19305D01*
X11459Y6932D02*
X11406Y6985D01*
X11299D01*
X11246Y6932D01*
Y6719D01*
X11299Y6666D01*
X11406D01*
X11459Y6719D01*
X11566Y6666D02*
X11673D01*
X11619D01*
Y6985D01*
X11566Y6932D01*
X5612Y13577D02*
X5558Y13631D01*
X5452D01*
X5398Y13577D01*
Y13364D01*
X5452Y13311D01*
X5558D01*
X5612Y13364D01*
X5718Y13577D02*
X5772Y13631D01*
X5878D01*
X5932Y13577D01*
Y13524D01*
X5878Y13471D01*
X5825D01*
X5878D01*
X5932Y13417D01*
Y13364D01*
X5878Y13311D01*
X5772D01*
X5718Y13364D01*
D13*
X6609Y6477D02*
G03*
X6609Y6477I-79J0D01*
G01*
X7024Y6078D02*
G03*
X6630Y6472I-394J0D01*
G01*
X6630Y5684D02*
G03*
X7024Y6078I0J394D01*
G01*
X6809Y4892D02*
G03*
X6809Y4892I-79J0D01*
G01*
X6237Y5291D02*
G03*
X6630Y4897I394J0D01*
G01*
X6630Y5684D02*
G03*
X6237Y5291I0J-394D01*
G01*
X5610Y6674D02*
X7650D01*
X5610Y4694D02*
X7650D01*
Y6674D01*
X5610Y4694D02*
Y6674D01*
X7370Y12265D02*
X7764D01*
X7370Y13486D02*
X7764D01*
Y12265D02*
Y13486D01*
X7370Y12265D02*
Y13486D01*
X18930Y3848D02*
Y4123D01*
X20210Y3848D02*
Y4123D01*
X18930Y3848D02*
X20210D01*
X18930Y4123D02*
X20210D01*
D14*
X8710Y21992D02*
Y22492D01*
X6710D02*
X8710D01*
X6710Y21492D02*
Y22492D01*
Y21492D02*
X8710D01*
Y21992D01*
X21900Y10470D02*
X22900D01*
Y6470D02*
Y10470D01*
X21900Y6470D02*
X22900D01*
X21900D02*
Y10470D01*
X679Y7302D02*
Y6902D01*
X879Y6702D01*
X1079Y6902D01*
Y7302D01*
X1279D02*
Y6702D01*
X1579D01*
X1679Y6802D01*
Y6902D01*
X1579Y7002D01*
X1279D01*
X1579D01*
X1679Y7102D01*
Y7202D01*
X1579Y7302D01*
X1279D01*
X1879Y6702D02*
Y7102D01*
X2079Y7302D01*
X2278Y7102D01*
Y6702D01*
Y7002D01*
X1879D01*
X2478Y7302D02*
X2878D01*
X2678D01*
Y6702D01*
X19515Y16320D02*
Y16920D01*
X19815D01*
X19915Y16820D01*
Y16620D01*
X19815Y16520D01*
X19515D01*
X19715D02*
X19915Y16320D01*
X20115Y16920D02*
Y16320D01*
X20515D01*
X20715Y16920D02*
Y16820D01*
X20915Y16620D01*
X21115Y16820D01*
Y16920D01*
X20915Y16620D02*
Y16320D01*
X21915Y16920D02*
Y16320D01*
X22315D01*
X22914Y16820D02*
X22814Y16920D01*
X22614D01*
X22514Y16820D01*
Y16720D01*
X22614Y16620D01*
X22814D01*
X22914Y16520D01*
Y16420D01*
X22814Y16320D01*
X22614D01*
X22514Y16420D01*
X948Y16949D02*
Y16349D01*
X1247D01*
X1347Y16449D01*
Y16549D01*
X1247Y16649D01*
X948D01*
X1247D01*
X1347Y16749D01*
Y16849D01*
X1247Y16949D01*
X948D01*
X1547Y16749D02*
Y16449D01*
X1647Y16349D01*
X1947D01*
Y16749D01*
X2247Y16849D02*
Y16749D01*
X2147D01*
X2347D01*
X2247D01*
Y16449D01*
X2347Y16349D01*
X2747Y16849D02*
Y16749D01*
X2647D01*
X2847D01*
X2747D01*
Y16449D01*
X2847Y16349D01*
X3247D02*
X3447D01*
X3547Y16449D01*
Y16649D01*
X3447Y16749D01*
X3247D01*
X3147Y16649D01*
Y16449D01*
X3247Y16349D01*
X3747D02*
Y16749D01*
X4047D01*
X4147Y16649D01*
Y16349D01*
D15*
X19385Y1085D02*
X19483D01*
X19385Y1459D02*
X19483D01*
D16*
X18863Y1125D02*
Y1420D01*
X21012Y7722D02*
X20954Y7780D01*
X20837D01*
X20779Y7722D01*
Y7663D01*
X20837Y7605D01*
X20954D01*
X21012Y7547D01*
Y7488D01*
X20954Y7430D01*
X20837D01*
X20779Y7488D01*
X21362Y7722D02*
X21304Y7780D01*
X21187D01*
X21129Y7722D01*
Y7488D01*
X21187Y7430D01*
X21304D01*
X21362Y7488D01*
X21479Y7780D02*
Y7430D01*
X21712D01*
X21012Y9641D02*
X20954Y9699D01*
X20837D01*
X20779Y9641D01*
Y9583D01*
X20837Y9524D01*
X20954D01*
X21012Y9466D01*
Y9408D01*
X20954Y9350D01*
X20837D01*
X20779Y9408D01*
X21129Y9699D02*
Y9350D01*
X21304D01*
X21362Y9408D01*
Y9641D01*
X21304Y9699D01*
X21129D01*
X21479Y9350D02*
Y9583D01*
X21595Y9699D01*
X21712Y9583D01*
Y9350D01*
Y9524D01*
X21479D01*
X21012Y6835D02*
X20954Y6893D01*
X20837D01*
X20779Y6835D01*
Y6602D01*
X20837Y6544D01*
X20954D01*
X21012Y6602D01*
Y6719D01*
X20895D01*
X21129Y6544D02*
Y6893D01*
X21362Y6544D01*
Y6893D01*
X21479D02*
Y6544D01*
X21654D01*
X21712Y6602D01*
Y6835D01*
X21654Y6893D01*
X21479D01*
X20779Y10492D02*
Y10259D01*
X20895Y10142D01*
X21012Y10259D01*
Y10492D01*
X21362Y10434D02*
X21304Y10492D01*
X21187D01*
X21129Y10434D01*
Y10201D01*
X21187Y10142D01*
X21304D01*
X21362Y10201D01*
X21712Y10434D02*
X21654Y10492D01*
X21537D01*
X21479Y10434D01*
Y10201D01*
X21537Y10142D01*
X21654D01*
X21712Y10201D01*
D17*
X8688Y16089D02*
X8621Y16023D01*
Y15889D01*
X8688Y15823D01*
X8954D01*
X9021Y15889D01*
Y16023D01*
X8954Y16089D01*
X8621Y16222D02*
X9021D01*
X8888Y16356D01*
X9021Y16489D01*
X8621D01*
X8888Y17022D02*
Y17289D01*
X8754Y17022D02*
Y17289D01*
X8621Y17822D02*
X8888D01*
X9021Y17955D01*
X8888Y18089D01*
X8621D01*
Y18222D02*
Y18488D01*
Y18355D01*
X9021D01*
X8621Y18622D02*
X9021D01*
X8821D01*
Y18888D01*
X8621D01*
X9021D01*
X8821Y19022D02*
Y19288D01*
X9402Y19893D02*
Y19493D01*
X9602D01*
X9668Y19560D01*
Y19827D01*
X9602Y19893D01*
X9402D01*
X9802Y19493D02*
X9935D01*
X9868D01*
Y19760D01*
X9802D01*
X10135Y19493D02*
X10335D01*
X10402Y19560D01*
X10335Y19627D01*
X10202D01*
X10135Y19693D01*
X10202Y19760D01*
X10402D01*
X10601D02*
X10735D01*
X10801Y19693D01*
Y19493D01*
X10601D01*
X10535Y19560D01*
X10601Y19627D01*
X10801D01*
X10935Y19893D02*
Y19493D01*
X11135D01*
X11201Y19560D01*
Y19627D01*
Y19693D01*
X11135Y19760D01*
X10935D01*
X11335Y19493D02*
X11468D01*
X11401D01*
Y19893D01*
X11335D01*
X11868Y19493D02*
X11734D01*
X11668Y19560D01*
Y19693D01*
X11734Y19760D01*
X11868D01*
X11934Y19693D01*
Y19627D01*
X11668D01*
X12367Y18360D02*
Y18094D01*
X12500Y17960D01*
X12634Y18094D01*
Y18360D01*
X12834Y17960D02*
X12967D01*
X13034Y18027D01*
Y18160D01*
X12967Y18227D01*
X12834D01*
X12767Y18160D01*
Y18027D01*
X12834Y17960D01*
X13167D02*
X13300D01*
X13234D01*
Y18360D01*
X13167D01*
X13567Y18294D02*
Y18227D01*
X13500D01*
X13633D01*
X13567D01*
Y18027D01*
X13633Y17960D01*
X13900Y18227D02*
X14033D01*
X14100Y18160D01*
Y17960D01*
X13900D01*
X13833Y18027D01*
X13900Y18094D01*
X14100D01*
X14367Y17827D02*
X14433D01*
X14500Y17894D01*
Y18227D01*
X14300D01*
X14233Y18160D01*
Y18027D01*
X14300Y17960D01*
X14500D01*
X14833D02*
X14700D01*
X14633Y18027D01*
Y18160D01*
X14700Y18227D01*
X14833D01*
X14900Y18160D01*
Y18094D01*
X14633D01*
X12367Y17555D02*
X12634D01*
X12500D01*
Y17155D01*
X12767Y17555D02*
Y17155D01*
Y17355D01*
X12834Y17422D01*
X12967D01*
X13034Y17355D01*
Y17155D01*
X13167Y17422D02*
Y17155D01*
Y17289D01*
X13234Y17355D01*
X13300Y17422D01*
X13367D01*
X13767Y17155D02*
X13633D01*
X13567Y17222D01*
Y17355D01*
X13633Y17422D01*
X13767D01*
X13833Y17355D01*
Y17289D01*
X13567D01*
X13967Y17155D02*
X14167D01*
X14233Y17222D01*
X14167Y17289D01*
X14033D01*
X13967Y17355D01*
X14033Y17422D01*
X14233D01*
X14367Y17555D02*
Y17155D01*
Y17355D01*
X14433Y17422D01*
X14566D01*
X14633Y17355D01*
Y17155D01*
X14833D02*
X14966D01*
X15033Y17222D01*
Y17355D01*
X14966Y17422D01*
X14833D01*
X14766Y17355D01*
Y17222D01*
X14833Y17155D01*
X15166D02*
X15300D01*
X15233D01*
Y17555D01*
X15166D01*
X15766D02*
Y17155D01*
X15566D01*
X15500Y17222D01*
Y17355D01*
X15566Y17422D01*
X15766D01*
X12634Y16817D02*
X12567Y16883D01*
X12434D01*
X12367Y16817D01*
Y16550D01*
X12434Y16483D01*
X12567D01*
X12634Y16550D01*
X12834Y16483D02*
X12967D01*
X13034Y16550D01*
Y16683D01*
X12967Y16750D01*
X12834D01*
X12767Y16683D01*
Y16550D01*
X12834Y16483D01*
X13167D02*
Y16750D01*
X13367D01*
X13434Y16683D01*
Y16483D01*
X13633Y16817D02*
Y16750D01*
X13567D01*
X13700D01*
X13633D01*
Y16550D01*
X13700Y16483D01*
X13900Y16750D02*
Y16483D01*
Y16617D01*
X13967Y16683D01*
X14033Y16750D01*
X14100D01*
X14367Y16483D02*
X14500D01*
X14566Y16550D01*
Y16683D01*
X14500Y16750D01*
X14367D01*
X14300Y16683D01*
Y16550D01*
X14367Y16483D01*
X14700D02*
X14833D01*
X14766D01*
Y16883D01*
X14700D01*
X5714Y19906D02*
Y19506D01*
X5914D01*
X5981Y19573D01*
Y19640D01*
X5914Y19706D01*
X5714D01*
X5914D01*
X5981Y19773D01*
Y19840D01*
X5914Y19906D01*
X5714D01*
X6114Y19773D02*
Y19573D01*
X6181Y19506D01*
X6381D01*
Y19773D01*
X6514D02*
X6780D01*
X6514Y19506D01*
X6780D01*
X6914Y19773D02*
X7180D01*
X6914Y19506D01*
X7180D01*
X7514D02*
X7380D01*
X7314Y19573D01*
Y19706D01*
X7380Y19773D01*
X7514D01*
X7580Y19706D01*
Y19640D01*
X7314D01*
X7714Y19773D02*
Y19506D01*
Y19640D01*
X7780Y19706D01*
X7847Y19773D01*
X7913D01*
X6659Y23302D02*
X6392D01*
Y22902D01*
X6659D01*
X6392Y23102D02*
X6526D01*
X6792Y23169D02*
X7059Y22902D01*
X6925Y23035D01*
X7059Y23169D01*
X6792Y22902D01*
X7259Y23235D02*
Y23169D01*
X7192D01*
X7325D01*
X7259D01*
Y22969D01*
X7325Y22902D01*
X7925Y23302D02*
Y22902D01*
X8192D01*
X8592Y23302D02*
X8325D01*
Y22902D01*
X8592D01*
X8325Y23102D02*
X8458D01*
X8725Y23302D02*
Y22902D01*
X8925D01*
X8991Y22969D01*
Y23235D01*
X8925Y23302D01*
X8725D01*
X6221Y21464D02*
Y21731D01*
X6087Y21598D02*
X6354D01*
X6021Y22131D02*
Y21864D01*
X6221D01*
X6154Y21997D01*
Y22064D01*
X6221Y22131D01*
X6354D01*
X6421Y22064D01*
Y21931D01*
X6354Y21864D01*
X6021Y22264D02*
X6287D01*
X6421Y22397D01*
X6287Y22531D01*
X6021D01*
X1194Y17827D02*
X1127Y17894D01*
X994D01*
X928Y17827D01*
Y17560D01*
X994Y17494D01*
X1127D01*
X1194Y17560D01*
Y17694D01*
X1061D01*
X1327Y17494D02*
Y17894D01*
X1594Y17494D01*
Y17894D01*
X1727D02*
Y17494D01*
X1927D01*
X1994Y17560D01*
Y17827D01*
X1927Y17894D01*
X1727D01*
X9090Y21757D02*
X9024Y21690D01*
Y21557D01*
X9090Y21490D01*
X9357D01*
X9423Y21557D01*
Y21690D01*
X9357Y21757D01*
X9224D01*
Y21624D01*
X9423Y21890D02*
X9024D01*
X9423Y22157D01*
X9024D01*
Y22290D02*
X9423D01*
Y22490D01*
X9357Y22557D01*
X9090D01*
X9024Y22490D01*
Y22290D01*
X21206Y17494D02*
Y17894D01*
X21406D01*
X21473Y17827D01*
Y17694D01*
X21406Y17627D01*
X21206D01*
X21339D02*
X21473Y17494D01*
X21606Y17894D02*
Y17494D01*
X21873D01*
X22006Y17894D02*
Y17827D01*
X22139Y17694D01*
X22273Y17827D01*
Y17894D01*
X22139Y17694D02*
Y17494D01*
X22806D02*
X22939D01*
X22872D01*
Y17894D01*
X22806Y17827D01*
X21073Y15404D02*
Y15804D01*
X21273D01*
X21339Y15737D01*
Y15604D01*
X21273Y15537D01*
X21073D01*
X21206D02*
X21339Y15404D01*
X21473Y15804D02*
Y15404D01*
X21739D01*
X21873Y15804D02*
Y15737D01*
X22006Y15604D01*
X22139Y15737D01*
Y15804D01*
X22006Y15604D02*
Y15404D01*
X22939D02*
X22672D01*
X22939Y15671D01*
Y15737D01*
X22872Y15804D01*
X22739D01*
X22672Y15737D01*
X1194D02*
X1127Y15804D01*
X994D01*
X928Y15737D01*
Y15471D01*
X994Y15404D01*
X1127D01*
X1194Y15471D01*
X1327Y15804D02*
X1594D01*
X1461D01*
Y15404D01*
X1727D02*
Y15804D01*
X1927D01*
X1994Y15737D01*
Y15604D01*
X1927Y15537D01*
X1727D01*
X1861D02*
X1994Y15404D01*
X2127Y15804D02*
Y15404D01*
X2394D01*
X659Y8246D02*
Y7980D01*
X792Y7846D01*
X926Y7980D01*
Y8246D01*
X1059Y8046D02*
X1325D01*
X1192Y8180D02*
Y7913D01*
X659Y6157D02*
Y5890D01*
X792Y5757D01*
X926Y5890D01*
Y6157D01*
X1059Y5957D02*
X1325D01*
D18*
X8551Y866D02*
D03*
D19*
X9954Y866D02*
D03*
M02*
