G04*
G04 #@! TF.GenerationSoftware,Altium Limited,Altium Designer,21.2.2 (38)*
G04*
G04 Layer_Color=8388736*
%FSLAX44Y44*%
%MOMM*%
G71*
G04*
G04 #@! TF.SameCoordinates,7EED97F9-7E78-47C0-A540-625CDB9FC899*
G04*
G04*
G04 #@! TF.FilePolarity,Negative*
G04*
G01*
G75*
%ADD16R,0.7800X0.3800*%
%ADD17R,1.1400X0.3700*%
%ADD18C,3.0000*%
%ADD19O,0.7900X1.0900*%
%ADD20O,1.5400X0.9400*%
%ADD21C,0.7900*%
%ADD22C,0.8900*%
%ADD23O,0.9900X1.8400*%
%ADD24O,1.1400X2.1400*%
%ADD25O,1.2400X2.3400*%
D16*
X173627Y71892D02*
D03*
X173627Y91892D02*
D03*
X173627Y51892D02*
D03*
X173627Y96892D02*
D03*
X173627Y76892D02*
D03*
X173627Y81892D02*
D03*
X173627Y86892D02*
D03*
Y56892D02*
D03*
Y61892D02*
D03*
Y66892D02*
D03*
Y41892D02*
D03*
Y46892D02*
D03*
X156627Y94392D02*
D03*
Y99392D02*
D03*
Y74392D02*
D03*
Y89392D02*
D03*
Y84392D02*
D03*
Y79392D02*
D03*
Y69392D02*
D03*
Y64392D02*
D03*
X156627Y59392D02*
D03*
X156627Y54392D02*
D03*
Y44392D02*
D03*
Y49392D02*
D03*
D17*
X53484Y100802D02*
D03*
Y95802D02*
D03*
Y90802D02*
D03*
X53484Y85802D02*
D03*
X53484Y80802D02*
D03*
Y75802D02*
D03*
X53484Y70802D02*
D03*
X53484Y65802D02*
D03*
Y60802D02*
D03*
X53484Y55802D02*
D03*
X53484Y50802D02*
D03*
X53484Y45802D02*
D03*
X72984Y45802D02*
D03*
X72984Y50802D02*
D03*
Y55802D02*
D03*
X72984Y60802D02*
D03*
X72984Y65802D02*
D03*
Y70802D02*
D03*
X72984Y75802D02*
D03*
Y80802D02*
D03*
Y85802D02*
D03*
Y90802D02*
D03*
Y95802D02*
D03*
X72984Y100802D02*
D03*
D18*
X111327Y117441D02*
D03*
X21562Y122763D02*
D03*
X23311Y22313D02*
D03*
D19*
X163227Y107892D02*
D03*
D20*
X175727Y30592D02*
D03*
Y113192D02*
D03*
X235227Y116792D02*
D03*
Y26992D02*
D03*
D21*
X163227Y35892D02*
D03*
D22*
X54034Y111402D02*
D03*
X72534Y35202D02*
D03*
D23*
X63234Y33202D02*
D03*
X63234Y113402D02*
D03*
D24*
X35234Y55802D02*
D03*
Y90802D02*
D03*
D25*
X91234Y73302D02*
D03*
M02*
