G04*
G04 #@! TF.GenerationSoftware,Altium Limited,Altium Designer,21.2.2 (38)*
G04*
G04 Layer_Physical_Order=1*
G04 Layer_Color=255*
%FSLAX44Y44*%
%MOMM*%
G71*
G04*
G04 #@! TF.SameCoordinates,7EED97F9-7E78-47C0-A540-625CDB9FC899*
G04*
G04*
G04 #@! TF.FilePolarity,Positive*
G04*
G01*
G75*
%ADD12C,0.2540*%
%ADD26C,0.1410*%
%ADD27R,0.7000X0.3000*%
%ADD28R,1.0500X0.2800*%
%ADD29C,1.0000*%
%ADD30C,0.3048*%
%ADD31C,0.2159*%
%ADD32O,0.6500X0.9500*%
%ADD33O,1.4000X0.8000*%
%ADD34C,0.6500*%
%ADD35C,0.7500*%
%ADD36O,0.8500X1.7000*%
%ADD37O,1.0000X2.0000*%
%ADD38O,1.1000X2.2000*%
%ADD39C,0.5000*%
D12*
X91629Y34277D02*
X105501D01*
X123715D01*
X119666Y20112D02*
X198182D01*
X105501Y34277D02*
X119666Y20112D01*
X123715Y34277D02*
X125015D01*
X156857Y84162D02*
X160061D01*
X160151Y84071D02*
X168013D01*
X160061Y84162D02*
X160151Y84071D01*
X168013D02*
X169962Y82122D01*
X156627Y84392D02*
X156857Y84162D01*
X169962Y82122D02*
X173907D01*
X117018Y84392D02*
X156627D01*
X110386Y91024D02*
X117018Y84392D01*
X87226Y91024D02*
X110386D01*
X72984Y85802D02*
X82004D01*
X87226Y91024D01*
X53484Y85802D02*
X72984D01*
X53484Y85802D02*
X53484Y85802D01*
X166266Y56571D02*
X173306D01*
X163766Y59071D02*
X166266Y56571D01*
X156947Y59071D02*
X163766D01*
X173306Y56571D02*
X173627Y56892D01*
X125015Y34277D02*
X149810Y59071D01*
X156306D01*
X178608Y82172D02*
X181367Y84931D01*
X59101Y19849D02*
X77201D01*
X91629Y34277D01*
X43099Y57793D02*
X46109Y60802D01*
X173907Y82172D02*
X178608D01*
X43099Y35850D02*
X59101Y19849D01*
X196692Y84931D02*
X204906Y76717D01*
X198182Y20112D02*
X204906Y26836D01*
X43099Y35850D02*
Y57793D01*
X72664Y60482D02*
X72984Y60802D01*
X181367Y84931D02*
X196692D01*
X53805Y60482D02*
X72664D01*
X156306Y59071D02*
X156627Y59392D01*
X53484Y60802D02*
X53805Y60482D01*
X204906Y26836D02*
Y76717D01*
X46109Y60802D02*
X53484D01*
X156627Y59392D02*
X156947Y59071D01*
D26*
X105974Y59123D02*
G03*
X105974Y55328I1893J-1897D01*
G01*
X111645Y47655D02*
G03*
X111643Y47653I952J-943D01*
G01*
X129911Y52466D02*
G03*
X129909Y52463I945J-950D01*
G01*
X105974Y55328D02*
G03*
X105975Y55328I945J950D01*
G01*
X112714Y65863D02*
G03*
X112713Y65862I950J-945D01*
G01*
X136644Y59217D02*
G03*
X136653Y59208I956J939D01*
G01*
Y59208D02*
G03*
X136650Y59205I948J-948D01*
G01*
X116513Y65859D02*
G03*
X112714Y65863I-1902J-1889D01*
G01*
X129909Y52463D02*
G03*
X129906Y52466I-948J-948D01*
G01*
X108794Y44804D02*
G03*
X108788Y44798I945J-950D01*
G01*
X132824Y68834D02*
G03*
X132823Y63037I2885J-2899D01*
G01*
X116515Y65857D02*
G03*
X116513Y65859I-956J-939D01*
G01*
X105975Y59124D02*
G03*
X105974Y59123I945J-950D01*
G01*
X111645Y47655D02*
G03*
X111645Y49658I-993J1001D01*
G01*
X111643Y49660D02*
G03*
X111645Y49658I954J941D01*
G01*
X107867Y57226D02*
G03*
X107870Y57228I-948J948D01*
G01*
X110684Y42903D02*
G03*
X110689Y42909I-945J950D01*
G01*
X138541Y61110D02*
G03*
X138539Y61112I-941J-954D01*
G01*
X134718Y64933D02*
G03*
X134716Y64935I-953J-942D01*
G01*
X134712Y66931D02*
G03*
X134714Y66934I-946J949D01*
G01*
X114611Y63970D02*
G03*
X114620Y63961I948J948D01*
G01*
X131806Y50570D02*
G03*
X131806Y50571I-950J945D01*
G01*
X138546Y57311D02*
G03*
X138541Y61110I-1893J1897D01*
G01*
X128011Y50570D02*
G03*
X131806Y50570I1897J1893D01*
G01*
X134712Y66931D02*
G03*
X134716Y64935I998J-996D01*
G01*
X128011Y50571D02*
G03*
X128011Y50570I950J945D01*
G01*
X107870Y57223D02*
G03*
X107867Y57226I-950J-945D01*
G01*
X113539Y45758D02*
G03*
X113539Y51554I-2886J2898D01*
G01*
X134717Y66937D02*
G03*
X134714Y66934I993J-1001D01*
G01*
X138545Y57310D02*
G03*
X138546Y57311I-945J950D01*
G01*
X134717Y66937D02*
G03*
X134719Y66939I-952J943D01*
G01*
X114609Y63967D02*
G03*
X114611Y63970I-945J950D01*
G01*
X108309Y86282D02*
X114468Y80123D01*
X137362Y80634D02*
X146013D01*
X114468Y80123D02*
X136851D01*
X137362Y80634D01*
X146013D02*
X147255Y79392D01*
X80075Y92681D02*
X83175Y95781D01*
X78713Y92681D02*
X80075D01*
X83175Y95781D02*
X119450D01*
X82065Y98461D02*
X118339D01*
X72984Y95802D02*
X72991Y95795D01*
X76834Y90802D02*
X78713Y92681D01*
X72991Y95795D02*
X79399D01*
X82065Y98461D01*
X72984Y90802D02*
X76834D01*
X119450Y95781D02*
X152340Y128671D01*
X118339Y98461D02*
X151230Y131352D01*
X197877Y121599D02*
Y127399D01*
Y97921D02*
Y121599D01*
X86714Y86282D02*
X108309D01*
X81234Y80802D02*
X86714Y86282D01*
X138212Y40052D02*
X139439Y38825D01*
X137290Y40052D02*
X138212D01*
X147755Y39102D02*
Y46836D01*
X149171Y53883D02*
X156118D01*
X143773Y48486D02*
X149171Y53883D01*
X143773Y40751D02*
Y48486D01*
X147755Y46836D02*
X150820Y49901D01*
X156118D01*
X156118Y53883D02*
X156627Y54392D01*
X136278Y33607D02*
X137249D01*
X156118Y49901D02*
X156627Y49392D01*
X141847Y38825D02*
X143773Y40751D01*
X139439Y38825D02*
X141847D01*
X137249Y33607D02*
X138485Y34843D01*
X143496D02*
X147755Y39102D01*
X138485Y34843D02*
X143496D01*
X53484Y50802D02*
X57334D01*
X53484Y55802D02*
X53792Y55495D01*
X63719D01*
X63179Y49124D02*
X63628Y48676D01*
X57334Y50802D02*
X59013Y49124D01*
X63179D01*
X63719Y55495D02*
X64026Y55187D01*
X132823Y63037D02*
X136644Y59216D01*
X108794Y44804D02*
X111643Y47653D01*
X107096Y43604D02*
X107594D01*
X105975Y55328D02*
X111643Y49660D01*
X116515Y65857D02*
X129906Y52466D01*
X105975Y59124D02*
X112713Y65862D01*
X132824Y68834D02*
X134264Y70274D01*
X107594Y43604D02*
X108788Y44798D01*
X129911Y52466D02*
X136650Y59205D01*
X109240Y41460D02*
X110684Y42903D01*
X131806Y50571D02*
X138545Y57310D01*
X134718Y64933D02*
X138539Y61112D01*
X114620Y63961D02*
X128011Y50571D01*
X107870Y57223D02*
X113539Y51554D01*
X134719Y66939D02*
X136159Y68379D01*
X110689Y42909D02*
X113539Y45758D01*
X107870Y57228D02*
X114609Y63967D01*
X195197Y99031D02*
Y101817D01*
X190756D02*
X195197D01*
X190756D02*
Y111355D01*
X195197D01*
Y121599D01*
X103391Y43604D02*
X104516D01*
X103391D02*
Y50272D01*
X93853D02*
X103391D01*
X93853Y43604D02*
Y50272D01*
X93148Y43604D02*
X93853D01*
X80999Y51962D02*
X92037Y40924D01*
X82109Y54642D02*
X93148Y43604D01*
X72984Y50802D02*
X76834D01*
X72984Y55802D02*
X76834D01*
Y50802D02*
X77994Y51962D01*
X76834Y55802D02*
X77994Y54642D01*
Y51962D02*
X80999D01*
X77994Y54642D02*
X82109D01*
X92037Y40924D02*
X108705D01*
X104516Y43604D02*
X107096D01*
X108705Y40924D02*
X109240Y41460D01*
X40436Y72116D02*
X40589Y71962D01*
X43719Y76890D02*
Y77753D01*
X40589Y71962D02*
X48474D01*
X43719Y76890D02*
X45967Y74642D01*
X48474D01*
X49634Y75802D01*
X48474Y71962D02*
X49634Y70802D01*
X49634Y75802D02*
X53484D01*
X49634Y70802D02*
X53484D01*
X63206Y79680D02*
X63368D01*
X63206Y73156D02*
X63893Y72469D01*
X63368Y79680D02*
X66550Y76497D01*
X63893Y72469D02*
X67467D01*
X69134Y70802D01*
X66550Y76497D02*
X72289D01*
X69134Y70802D02*
X72984D01*
X72289Y76497D02*
X72984Y75802D01*
X53484Y90802D02*
X53608Y90926D01*
X53484Y95802D02*
X57334D01*
X53608Y90926D02*
X59588D01*
X57334Y95802D02*
X59213Y97681D01*
X59447D01*
X63456Y101691D01*
X59588Y90926D02*
X63825Y95163D01*
X63456Y101691D02*
X63627D01*
X72984Y80802D02*
X81234D01*
X134264Y70274D02*
X138323Y74334D01*
X136159Y68379D02*
X139434Y71653D01*
X138323Y74334D02*
X141629D01*
X139434Y71653D02*
X140602D01*
X142854Y69401D01*
X141629Y74334D02*
X143709Y76413D01*
X142854Y69401D02*
X143223D01*
X143709Y76413D02*
X144265D01*
X139517Y92908D02*
X140489D01*
X142477Y94896D01*
X145541Y90401D02*
X146045Y89896D01*
X142477Y94896D02*
X150356D01*
X164390Y68515D02*
X164562D01*
X156627Y69392D02*
X158627D01*
X162242Y70664D02*
X164390Y68515D01*
X158627Y69392D02*
X159899Y70664D01*
X162242D01*
X160248Y73344D02*
X162836D01*
X159995Y73597D02*
X160248Y73344D01*
X157422Y73597D02*
X159995D01*
X178847Y45351D02*
X179819D01*
X178102Y46097D02*
X178847Y45351D01*
X173627Y51892D02*
X173637Y51881D01*
X173627Y46892D02*
X175627D01*
X173627Y71892D02*
X175627D01*
X173627Y66892D02*
X175627D01*
Y46892D02*
X176422Y46097D01*
X175627Y71892D02*
X176787Y70732D01*
X175627Y66892D02*
X176787Y68052D01*
X176422Y46097D02*
X178102D01*
X173637Y51881D02*
X182120D01*
X176787Y70732D02*
X179923D01*
X176787Y68052D02*
X183383D01*
X179923Y70732D02*
X183212Y74021D01*
X182120Y51881D02*
X182131Y51871D01*
X183383Y68052D02*
X183425Y68010D01*
X156627Y74392D02*
X157422Y73597D01*
X162836Y73344D02*
X164471Y74979D01*
X165443D01*
X147255Y79392D02*
X156308D01*
X156122Y89896D02*
X156627Y89392D01*
X146045Y89896D02*
X156122D01*
X150861Y94392D02*
X156627D01*
X150356Y94896D02*
X150861Y94392D01*
X152340Y128671D02*
X154353D01*
X192814D01*
X151230Y131352D02*
X193924D01*
X183212Y74021D02*
Y74530D01*
X173627Y86892D02*
X175627D01*
X173627Y91892D02*
X175627D01*
X176787Y90732D01*
X175627Y86892D02*
X176787Y88052D01*
X176787Y90732D02*
X186898D01*
X176787Y88052D02*
X188008D01*
X186898Y90732D02*
X195197Y99031D01*
X188008Y88052D02*
X197877Y97921D01*
X192814Y128671D02*
X193857Y127629D01*
X194005Y127480D01*
X195197Y126288D01*
Y121599D02*
Y126288D01*
X193924Y131352D02*
X197877Y127399D01*
D27*
X173627Y71892D02*
D03*
X173627Y91892D02*
D03*
X173627Y51892D02*
D03*
X173627Y96892D02*
D03*
X173627Y76892D02*
D03*
X173627Y81892D02*
D03*
X173627Y86892D02*
D03*
Y56892D02*
D03*
Y61892D02*
D03*
Y66892D02*
D03*
Y41892D02*
D03*
Y46892D02*
D03*
X156627Y94392D02*
D03*
Y99392D02*
D03*
Y74392D02*
D03*
Y89392D02*
D03*
Y84392D02*
D03*
Y79392D02*
D03*
Y69392D02*
D03*
Y64392D02*
D03*
X156627Y59392D02*
D03*
X156627Y54392D02*
D03*
Y44392D02*
D03*
Y49392D02*
D03*
D28*
X53484Y100802D02*
D03*
Y95802D02*
D03*
Y90802D02*
D03*
X53484Y85802D02*
D03*
X53484Y80802D02*
D03*
Y75802D02*
D03*
X53484Y70802D02*
D03*
X53484Y65802D02*
D03*
Y60802D02*
D03*
X53484Y55802D02*
D03*
X53484Y50802D02*
D03*
X53484Y45802D02*
D03*
X72984Y45802D02*
D03*
X72984Y50802D02*
D03*
Y55802D02*
D03*
X72984Y60802D02*
D03*
X72984Y65802D02*
D03*
Y70802D02*
D03*
X72984Y75802D02*
D03*
Y80802D02*
D03*
Y85802D02*
D03*
Y90802D02*
D03*
Y95802D02*
D03*
X72984Y100802D02*
D03*
D29*
X111327Y117441D02*
D03*
X21562Y122763D02*
D03*
X23311Y22313D02*
D03*
D30*
X156627Y44392D02*
X156651Y44416D01*
X159529D02*
X159596Y44482D01*
X164608D02*
X167175Y41916D01*
X156651Y44416D02*
X159529D01*
X159596Y44482D02*
X164608D01*
X105289Y68865D02*
X105663Y69239D01*
X102024Y59762D02*
X105289Y63028D01*
Y68865D01*
X163620Y24052D02*
X181436D01*
X141478Y27851D02*
X159821D01*
X163620Y24052D01*
X53484Y45802D02*
X56958D01*
X57082Y45678D01*
Y42205D02*
X62503Y36784D01*
X63966D02*
X69387Y42205D01*
X62503Y36784D02*
X63966D01*
X57082Y42205D02*
Y45678D01*
X69387Y45678D02*
X69511Y45802D01*
X72984D01*
X69387Y42205D02*
Y45678D01*
X78728Y65678D02*
X84644Y59762D01*
X102024D01*
X44021Y90860D02*
X44394Y90487D01*
Y84650D02*
Y90487D01*
Y84650D02*
X48118Y80926D01*
X53360D01*
X53484Y80802D01*
X53484Y100802D02*
X53484Y100802D01*
X72984Y65802D02*
X73108Y65678D01*
X78728D01*
X72984Y100802D02*
X72984Y100802D01*
X156603Y64416D02*
X156627Y64392D01*
X153011Y64416D02*
X156603D01*
X149634Y67793D02*
X153011Y64416D01*
X149545Y67793D02*
X149634D01*
X181436Y24052D02*
X199301Y41917D01*
X173603Y41916D02*
X173627Y41892D01*
X167175Y41916D02*
X173603D01*
X199301Y41917D02*
Y73028D01*
X171675Y96892D02*
X173627D01*
X168714Y99853D02*
X171675Y96892D01*
X156627Y99392D02*
X156651Y99416D01*
X162622D01*
X163059Y99853D01*
X168714D01*
X192759Y79570D02*
X199301Y73028D01*
X173627Y76892D02*
X173651Y76916D01*
X178470D01*
X181125Y79570D01*
X192759D01*
D31*
X53484Y65802D02*
X53805Y66123D01*
X62885D01*
X63397Y66635D01*
X173627Y61892D02*
X174047Y61471D01*
X177197D01*
X177541Y61127D01*
X182920D01*
X183280Y61487D01*
D32*
X163227Y107892D02*
D03*
D33*
X175727Y30592D02*
D03*
Y113192D02*
D03*
X235227Y116792D02*
D03*
Y26992D02*
D03*
D34*
X163227Y35892D02*
D03*
D35*
X54034Y111402D02*
D03*
X72534Y35202D02*
D03*
D36*
X63234Y33202D02*
D03*
X63234Y113402D02*
D03*
D37*
X35234Y55802D02*
D03*
Y90802D02*
D03*
D38*
X91234Y73302D02*
D03*
D39*
X133749Y75747D02*
D03*
X164929Y51017D02*
D03*
X187469Y56534D02*
D03*
X189841Y42846D02*
D03*
X105663Y69239D02*
D03*
X34527Y73456D02*
D03*
X132823Y28187D02*
D03*
X133686Y89839D02*
D03*
X137290Y40052D02*
D03*
X136278Y33607D02*
D03*
X141478Y27851D02*
D03*
X63628Y48676D02*
D03*
X64026Y55187D02*
D03*
X40436Y72116D02*
D03*
X43719Y77753D02*
D03*
X44021Y90860D02*
D03*
X63206Y79680D02*
D03*
Y73156D02*
D03*
X63397Y66635D02*
D03*
X63627Y101691D02*
D03*
X63825Y95163D02*
D03*
X179819Y45351D02*
D03*
X182131Y51871D02*
D03*
X183280Y61487D02*
D03*
X149545Y67793D02*
D03*
X183425Y68010D02*
D03*
X164562Y68515D02*
D03*
X143223Y69401D02*
D03*
X183212Y74530D02*
D03*
X165443Y74979D02*
D03*
X144265Y76413D02*
D03*
X145541Y90401D02*
D03*
X139517Y92908D02*
D03*
M02*
