G04*
G04 #@! TF.GenerationSoftware,Altium Limited,Altium Designer,21.2.2 (38)*
G04*
G04 Layer_Color=128*
%FSLAX44Y44*%
%MOMM*%
G71*
G04*
G04 #@! TF.SameCoordinates,300F5DA4-18CA-4FB4-85BA-B83ED97E3C69*
G04*
G04*
G04 #@! TF.FilePolarity,Positive*
G04*
G01*
G75*
%ADD13C,0.5080*%
D13*
X420179Y-261574D02*
Y-286966D01*
X432875D01*
X437107Y-282734D01*
Y-278502D01*
X432875Y-274270D01*
X420179D01*
X432875D01*
X437107Y-270038D01*
Y-265806D01*
X432875Y-261574D01*
X420179D01*
X458267D02*
X449803D01*
X445571Y-265806D01*
Y-282734D01*
X449803Y-286966D01*
X458267D01*
X462499Y-282734D01*
Y-265806D01*
X458267Y-261574D01*
X470963D02*
X487891D01*
X479427D01*
Y-286966D01*
X496354Y-261574D02*
X513282D01*
X504818D01*
Y-286966D01*
X534442Y-261574D02*
X525978D01*
X521746Y-265806D01*
Y-282734D01*
X525978Y-286966D01*
X534442D01*
X538674Y-282734D01*
Y-265806D01*
X534442Y-261574D01*
X547138Y-286966D02*
Y-261574D01*
X555602Y-270038D01*
X564066Y-261574D01*
Y-286966D01*
X597922D02*
Y-261574D01*
X610618D01*
X614850Y-265806D01*
Y-274270D01*
X610618Y-278502D01*
X597922D01*
X623313Y-286966D02*
Y-270038D01*
X631777Y-261574D01*
X640241Y-270038D01*
Y-286966D01*
Y-274270D01*
X623313D01*
X665633Y-265806D02*
X661401Y-261574D01*
X652937D01*
X648705Y-265806D01*
Y-270038D01*
X652937Y-274270D01*
X661401D01*
X665633Y-278502D01*
Y-282734D01*
X661401Y-286966D01*
X652937D01*
X648705Y-282734D01*
X674097Y-261574D02*
X691025D01*
X682561D01*
Y-286966D01*
X716417Y-261574D02*
X699489D01*
Y-286966D01*
X716417D01*
X699489Y-274270D02*
X707953D01*
X724881Y-286966D02*
Y-261574D01*
X733345Y-270038D01*
X741808Y-261574D01*
Y-286966D01*
X750273D02*
Y-270038D01*
X758736Y-261574D01*
X767200Y-270038D01*
Y-286966D01*
Y-274270D01*
X750273D01*
X792592Y-265806D02*
X788360Y-261574D01*
X779896D01*
X775664Y-265806D01*
Y-270038D01*
X779896Y-274270D01*
X788360D01*
X792592Y-278502D01*
Y-282734D01*
X788360Y-286966D01*
X779896D01*
X775664Y-282734D01*
X801056Y-261574D02*
Y-286966D01*
Y-278502D01*
X817984Y-261574D01*
X805288Y-274270D01*
X817984Y-286966D01*
M02*
