G04*
G04 #@! TF.GenerationSoftware,Altium Limited,Altium Designer,21.2.2 (38)*
G04*
G04 Layer_Color=128*
%FSLAX44Y44*%
%MOMM*%
G71*
G04*
G04 #@! TF.SameCoordinates,80088197-9D36-4DC1-8D3F-1B36901E71C6*
G04*
G04*
G04 #@! TF.FilePolarity,Positive*
G04*
G01*
G75*
%ADD52C,0.0508*%
D52*
X88730Y73300D02*
X93730D01*
X91230Y70800D02*
Y75800D01*
X60730Y113400D02*
X65730D01*
X63230Y110900D02*
Y115900D01*
X32730Y90800D02*
X37730D01*
X35230Y88300D02*
Y93300D01*
X32730Y55800D02*
X37730D01*
X35230Y53300D02*
Y58300D01*
X60730Y33200D02*
X65730D01*
X63230Y30700D02*
Y35700D01*
X68780Y35200D02*
X76280D01*
X72530Y31450D02*
Y38950D01*
X50280Y111400D02*
X57780D01*
X54030Y107650D02*
Y115150D01*
X232727Y26992D02*
X237727D01*
X235227Y24492D02*
Y29492D01*
X159977Y35892D02*
X166477D01*
X163227Y32642D02*
Y39142D01*
X232727Y116792D02*
X237727D01*
X235227Y114292D02*
Y119292D01*
X173227Y113192D02*
X178227D01*
X175727Y110692D02*
Y115692D01*
X173227Y30592D02*
X178227D01*
X175727Y28092D02*
Y33092D01*
X159977Y107892D02*
X166477D01*
X163227Y104642D02*
Y111142D01*
X183051Y66028D02*
X185051D01*
X184051Y65028D02*
Y67028D01*
X62206Y73156D02*
X64206D01*
X63206Y72156D02*
Y74156D01*
X43261Y75338D02*
X45261D01*
X44261Y74338D02*
Y76338D01*
X185256Y72168D02*
X187256D01*
X186256Y71168D02*
Y73168D01*
X62206Y79680D02*
X64206D01*
X63206Y78680D02*
Y80680D01*
X39978Y69701D02*
X41978D01*
X40978Y68701D02*
Y70701D01*
X164752Y74929D02*
X166752D01*
X165752Y73930D02*
Y75929D01*
X163562Y68515D02*
X165562D01*
X164562Y67515D02*
Y69515D01*
X186171Y116229D02*
X188171D01*
X187171Y115229D02*
Y117229D01*
X193498Y125467D02*
X195498D01*
X194498Y124467D02*
Y126467D01*
X193599Y118628D02*
X195599D01*
X194599Y117627D02*
Y119628D01*
X185234Y128623D02*
X187234D01*
X186234Y127623D02*
Y129623D01*
X176341Y128623D02*
X178341D01*
X177341Y127623D02*
Y129623D01*
X191408Y133340D02*
X193408D01*
X192408Y132340D02*
Y134340D01*
X147682Y69020D02*
X149682D01*
X148682Y68020D02*
Y70020D01*
X137110Y63726D02*
X139110D01*
X138110Y62726D02*
Y64726D01*
X163148Y52089D02*
X165147D01*
X164147Y51089D02*
Y53089D01*
X105733Y56504D02*
X107733D01*
X106733Y55504D02*
Y57504D01*
X104922Y63181D02*
X106922D01*
X105922Y62181D02*
Y64181D01*
X180518Y134883D02*
X182518D01*
X181518Y133883D02*
Y135883D01*
X140033Y28296D02*
X142033D01*
X141033Y27296D02*
Y29296D01*
X61936Y98811D02*
X63936D01*
X62936Y97811D02*
Y99811D01*
X62134Y92283D02*
X64134D01*
X63134Y91284D02*
Y93284D01*
X133432Y89285D02*
X135432D01*
X134432Y88285D02*
Y90285D01*
X181855Y59614D02*
X183855D01*
X182855Y58614D02*
Y60614D01*
X181364Y52961D02*
X183364D01*
X182364Y51961D02*
Y53961D01*
X135278Y33607D02*
X137278D01*
X136278Y32607D02*
Y34607D01*
X181378Y45285D02*
X183378D01*
X182378Y44285D02*
Y46285D01*
X127249Y91976D02*
X129249D01*
X128249Y90976D02*
Y92976D01*
X136290Y40052D02*
X138290D01*
X137290Y39052D02*
Y41052D01*
X139730Y69996D02*
X141730D01*
X140730Y68996D02*
Y70996D01*
X138549Y76413D02*
X140549D01*
X139549Y75413D02*
Y77413D01*
X120965Y90225D02*
X122964D01*
X121965Y89225D02*
Y91225D01*
X188450Y57622D02*
X190450D01*
X189450Y56622D02*
Y58622D01*
X188841Y42846D02*
X190840D01*
X189841Y41846D02*
Y43846D01*
X33337Y76303D02*
X35337D01*
X34337Y75303D02*
Y77303D01*
X131266Y27919D02*
X133266D01*
X132266Y26919D02*
Y28919D01*
X62628Y48676D02*
X64628D01*
X63628Y47676D02*
Y49676D01*
X63026Y55187D02*
X65026D01*
X64026Y54187D02*
Y56187D01*
X43021Y90860D02*
X45021D01*
X44021Y89860D02*
Y91860D01*
X62397Y66635D02*
X64397D01*
X63397Y65635D02*
Y67635D01*
M02*
