G04*
G04 #@! TF.GenerationSoftware,Altium Limited,Altium Designer,21.2.2 (38)*
G04*
G04 Layer_Physical_Order=4*
G04 Layer_Color=16711680*
%FSLAX44Y44*%
%MOMM*%
G71*
G04*
G04 #@! TF.SameCoordinates,7EED97F9-7E78-47C0-A540-625CDB9FC899*
G04*
G04*
G04 #@! TF.FilePolarity,Positive*
G04*
G01*
G75*
%ADD29C,1.0000*%
%ADD30C,0.3048*%
%ADD31C,0.2159*%
%ADD32O,0.6500X0.9500*%
%ADD33O,1.4000X0.8000*%
%ADD34C,0.6500*%
%ADD35C,0.7500*%
%ADD36O,0.8500X1.7000*%
%ADD37O,1.0000X2.0000*%
%ADD38O,1.1000X2.2000*%
%ADD39C,0.5000*%
%ADD49C,0.1414*%
D29*
X111327Y117441D02*
D03*
X21562Y122763D02*
D03*
X23311Y22313D02*
D03*
D30*
X105663Y69127D02*
Y69239D01*
Y69127D02*
X123315Y51474D01*
X144375Y37372D02*
Y43160D01*
X141851Y34848D02*
X144375Y37372D01*
X141478Y27851D02*
X141851Y28224D01*
Y34848D01*
X132471Y63472D02*
X144697D01*
X149017Y67793D02*
X149545D01*
X144697Y63472D02*
X149017Y67793D01*
X126603Y69340D02*
X132471Y63472D01*
X123770Y69340D02*
X126603D01*
X101154Y91956D02*
X123770Y69340D01*
X76063Y91956D02*
X101154D01*
X123315Y51474D02*
X136060D01*
X144375Y43160D01*
X55599Y90123D02*
X74230D01*
X44021Y90860D02*
X54862D01*
X55599Y90123D01*
X74230D02*
X76063Y91956D01*
D31*
X142666Y22540D02*
X151839Y31713D01*
Y32064D02*
X161013Y41237D01*
X161363D02*
X170161Y50035D01*
X161013Y41237D02*
X161363D01*
X54878Y22540D02*
X142666D01*
X151839Y31713D02*
Y32064D01*
X170161Y50035D02*
X172188D01*
X53613Y23804D02*
X54878Y22540D01*
X183280Y61127D02*
Y61487D01*
X172188Y50035D02*
X183280Y61127D01*
X53613Y23804D02*
Y56851D01*
X63397Y66635D01*
D32*
X163227Y107892D02*
D03*
D33*
X175727Y30592D02*
D03*
Y113192D02*
D03*
X235227Y116792D02*
D03*
Y26992D02*
D03*
D34*
X163227Y35892D02*
D03*
D35*
X54034Y111402D02*
D03*
X72534Y35202D02*
D03*
D36*
X63234Y33202D02*
D03*
X63234Y113402D02*
D03*
D37*
X35234Y55802D02*
D03*
Y90802D02*
D03*
D38*
X91234Y73302D02*
D03*
D39*
X133749Y75747D02*
D03*
X164929Y51017D02*
D03*
X187469Y56534D02*
D03*
X189841Y42846D02*
D03*
X105663Y69239D02*
D03*
X34527Y73456D02*
D03*
X132823Y28187D02*
D03*
X133686Y89839D02*
D03*
X137290Y40052D02*
D03*
X136278Y33607D02*
D03*
X141478Y27851D02*
D03*
X63628Y48676D02*
D03*
X64026Y55187D02*
D03*
X40436Y72116D02*
D03*
X43719Y77753D02*
D03*
X44021Y90860D02*
D03*
X63206Y79680D02*
D03*
Y73156D02*
D03*
X63397Y66635D02*
D03*
X63627Y101691D02*
D03*
X63825Y95163D02*
D03*
X179819Y45351D02*
D03*
X182131Y51871D02*
D03*
X183280Y61487D02*
D03*
X149545Y67793D02*
D03*
X183425Y68010D02*
D03*
X164562Y68515D02*
D03*
X143223Y69401D02*
D03*
X183212Y74530D02*
D03*
X165443Y74979D02*
D03*
X144265Y76413D02*
D03*
X145541Y90401D02*
D03*
X139517Y92908D02*
D03*
D49*
X136612Y39374D02*
X137290Y40052D01*
X134164Y39374D02*
X136612D01*
X105605Y36297D02*
X133770D01*
X90649Y51253D02*
X105605Y36297D01*
X136278Y33607D02*
Y33789D01*
X133770Y38981D02*
X134164Y39374D01*
X133770Y36297D02*
X136278Y33789D01*
X119466Y38981D02*
X133770D01*
X90649Y53937D02*
X104509D01*
X119466Y38981D01*
X69075Y53937D02*
X90649D01*
X64713Y54501D02*
X68511D01*
X64598Y48676D02*
X67176Y51253D01*
X63628Y48676D02*
X64598D01*
X67176Y51253D02*
X69480D01*
X64026Y55187D02*
X64713Y54501D01*
X68511D02*
X69075Y53937D01*
X89271Y51253D02*
X90649D01*
X89271Y50512D02*
Y51253D01*
X79729Y50512D02*
X89271D01*
X79729D02*
Y51253D01*
X69480D02*
X79729D01*
X170417Y60886D02*
X174124D01*
X170417Y56810D02*
Y60886D01*
X160875Y56810D02*
X170417D01*
X160875D02*
Y60886D01*
X150627D02*
X160875D01*
X196165Y50724D02*
Y53758D01*
X191498D02*
X196165D01*
X191498D02*
Y63300D01*
X196165D01*
Y73548D01*
X198849D02*
Y78188D01*
X66446Y97131D02*
X176111D01*
X177222Y99814D02*
X198849Y78188D01*
Y49613D02*
Y73548D01*
X154769Y99814D02*
X177222D01*
X176111Y97131D02*
X196165Y77077D01*
Y73548D02*
Y77077D01*
X143223Y69401D02*
Y70302D01*
X145110Y72190D01*
X143869Y94701D02*
X167271D01*
X142762Y93594D02*
X143869Y94701D01*
X140204Y93594D02*
X142762D01*
X169671Y85180D02*
Y92301D01*
X167271Y94701D02*
X169671Y92301D01*
X156681Y72190D02*
X169671Y85180D01*
X145110Y72190D02*
X156681D01*
X139517Y92908D02*
X140204Y93594D01*
X166159Y92017D02*
X166987Y91189D01*
X148127Y92017D02*
X166159D01*
X146511Y90401D02*
X148127Y92017D01*
X145541Y90401D02*
X146511D01*
X166987Y86291D02*
Y91189D01*
X155569Y74874D02*
X166987Y86291D01*
X146774Y74874D02*
X155569D01*
X145235Y76413D02*
X146774Y74874D01*
X144265Y76413D02*
X145235D01*
X182959Y73684D02*
X183011Y73736D01*
X170229Y72890D02*
X179174Y81835D01*
X165492Y68515D02*
X167183Y70206D01*
X180285Y79151D02*
X185126D01*
X184761Y73736D02*
X185834Y72664D01*
X191345Y72380D02*
Y76728D01*
X171341Y70206D02*
X180285Y79151D01*
X188661Y73492D02*
Y75616D01*
X179174Y81835D02*
X186238D01*
X165975Y74979D02*
X168064Y72890D01*
X165443Y74979D02*
X165975D01*
X183425Y68010D02*
X184076D01*
X167183Y70206D02*
X171341D01*
X164562Y68515D02*
X165492D01*
X186046Y69980D02*
X188945D01*
X168064Y72890D02*
X170229D01*
X188945Y69980D02*
X191345Y72380D01*
X183011Y73736D02*
X184761D01*
X186238Y81835D02*
X191345Y76728D01*
X185126Y79151D02*
X188661Y75616D01*
X185834Y72664D02*
X187833D01*
X188661Y73492D01*
X184076Y68010D02*
X186046Y69980D01*
X185478Y47212D02*
X196448D01*
X195337Y49896D02*
X196165Y50724D01*
X196448Y47212D02*
X198849Y49613D01*
X187458Y49896D02*
X195337D01*
X66248Y99814D02*
X154769D01*
X63627Y101691D02*
X64372D01*
X66248Y99814D01*
X64479Y95163D02*
X66446Y97131D01*
X145195Y59249D02*
X149515Y63570D01*
X146306Y56566D02*
X150627Y60886D01*
X149515Y63570D02*
X173013D01*
X127888Y59249D02*
X145195D01*
X126777Y56566D02*
X146306D01*
X98429Y88709D02*
X127888Y59249D01*
X97317Y86025D02*
X126777Y56566D01*
X174124Y60886D02*
X177088Y63849D01*
X88243Y86025D02*
X97317D01*
X87131Y88709D02*
X98429D01*
X186169Y51185D02*
X187458Y49896D01*
X179819Y45351D02*
X180505Y46037D01*
X182131Y51871D02*
X182817Y51185D01*
X184303Y46037D02*
X185478Y47212D01*
X180505Y46037D02*
X184303D01*
X182817Y51185D02*
X186169D01*
X63825Y95163D02*
X64479D01*
X180804Y69876D02*
X183048Y67632D01*
X177088Y68159D02*
X178804Y69876D01*
X177088Y63849D02*
Y68159D01*
X174404Y69271D02*
X177693Y72560D01*
X173013Y63570D02*
X174404Y64961D01*
X181716Y73684D02*
X182959D01*
X180591Y72560D02*
X181716Y73684D01*
X183212Y73431D02*
Y74530D01*
X178804Y69876D02*
X180804D01*
X174404Y64961D02*
Y69271D01*
X177693Y72560D02*
X180591D01*
X87122Y84905D02*
X88243Y86025D01*
X84050Y84905D02*
X87122D01*
X74221Y75076D02*
X84050Y84905D01*
X49218Y82050D02*
X56192Y75076D01*
X60585D01*
X65828Y75076D02*
X74221D01*
X44785Y82050D02*
X49218D01*
X43957Y77991D02*
Y81222D01*
X44785Y82050D01*
X43719Y77753D02*
X43957Y77991D01*
X63907Y73156D02*
X65828Y75076D01*
X63206Y73156D02*
X63907D01*
X60585Y75076D02*
X62505Y73156D01*
X63206D01*
X86010Y87588D02*
X87131Y88709D01*
X73110Y77760D02*
X82938Y87588D01*
X86010D01*
X63907Y79680D02*
X65828Y77760D01*
X63206Y79680D02*
X63907D01*
X65828Y77760D02*
X73110D01*
X43674Y84734D02*
X50329D01*
X57304Y77760D01*
X39496Y80556D02*
X43674Y84734D01*
X62505Y79680D02*
X63206D01*
X60585Y77760D02*
X62505Y79680D01*
X57304Y77760D02*
X60585D01*
X39496Y76004D02*
X39750Y75750D01*
Y72802D02*
Y75750D01*
X39496Y76004D02*
Y80556D01*
X39750Y72802D02*
X40436Y72116D01*
M02*
