G04*
G04 #@! TF.GenerationSoftware,Altium Limited,Altium Designer,21.2.2 (38)*
G04*
G04 Layer_Color=16711935*
%FSLAX44Y44*%
%MOMM*%
G71*
G04*
G04 #@! TF.SameCoordinates,300F5DA4-18CA-4FB4-85BA-B83ED97E3C69*
G04*
G04*
G04 #@! TF.FilePolarity,Negative*
G04*
G01*
G75*
%ADD13C,0.5080*%
%ADD18C,3.0000*%
%ADD19O,1.2000X2.3000*%
%ADD20O,0.8500X1.8000*%
%ADD21O,1.1000X2.1000*%
%ADD22C,0.7500*%
%ADD23O,1.5400X0.9400*%
%ADD24C,0.7900*%
%ADD25O,0.7900X1.0900*%
D13*
X420179Y418135D02*
Y392744D01*
X432875D01*
X437107Y396976D01*
Y401208D01*
X432875Y405439D01*
X420179D01*
X432875D01*
X437107Y409672D01*
Y413903D01*
X432875Y418135D01*
X420179D01*
X458267D02*
X449803D01*
X445571Y413903D01*
Y396976D01*
X449803Y392744D01*
X458267D01*
X462499Y396976D01*
Y413903D01*
X458267Y418135D01*
X470963D02*
X487891D01*
X479427D01*
Y392744D01*
X496354Y418135D02*
X513282D01*
X504818D01*
Y392744D01*
X534442Y418135D02*
X525978D01*
X521746Y413903D01*
Y396976D01*
X525978Y392744D01*
X534442D01*
X538674Y396976D01*
Y413903D01*
X534442Y418135D01*
X547138Y392744D02*
Y418135D01*
X555602Y409672D01*
X564066Y418135D01*
Y392744D01*
X614850Y413903D02*
X610618Y418135D01*
X602154D01*
X597922Y413903D01*
Y409672D01*
X602154Y405439D01*
X610618D01*
X614850Y401208D01*
Y396976D01*
X610618Y392744D01*
X602154D01*
X597922Y396976D01*
X636009Y418135D02*
X627546D01*
X623313Y413903D01*
Y396976D01*
X627546Y392744D01*
X636009D01*
X640241Y396976D01*
Y413903D01*
X636009Y418135D01*
X648705D02*
Y392744D01*
X665633D01*
X674097Y418135D02*
Y392744D01*
X686793D01*
X691025Y396976D01*
Y413903D01*
X686793Y418135D01*
X674097D01*
X716417D02*
X699489D01*
Y392744D01*
X716417D01*
X699489Y405439D02*
X707953D01*
X724881Y392744D02*
Y418135D01*
X737577D01*
X741808Y413903D01*
Y405439D01*
X737577Y401208D01*
X724881D01*
X733345D02*
X741808Y392744D01*
X750273D02*
Y418135D01*
X758736Y409672D01*
X767200Y418135D01*
Y392744D01*
X775664D02*
Y409672D01*
X784128Y418135D01*
X792592Y409672D01*
Y392744D01*
Y405439D01*
X775664D01*
X817984Y413903D02*
X813752Y418135D01*
X805288D01*
X801056Y413903D01*
Y409672D01*
X805288Y405439D01*
X813752D01*
X817984Y401208D01*
Y396976D01*
X813752Y392744D01*
X805288D01*
X801056Y396976D01*
X826448Y418135D02*
Y392744D01*
Y401208D01*
X843376Y418135D01*
X830680Y405439D01*
X843376Y392744D01*
D18*
X111327Y117441D02*
D03*
X21562Y122763D02*
D03*
X23311Y22313D02*
D03*
D19*
X91230Y73300D02*
D03*
D20*
X63230Y113400D02*
D03*
Y33200D02*
D03*
D21*
X35230Y90800D02*
D03*
Y55800D02*
D03*
D22*
X72530Y35200D02*
D03*
X54030Y111400D02*
D03*
D23*
X235227Y26992D02*
D03*
Y116792D02*
D03*
X175727Y113192D02*
D03*
Y30592D02*
D03*
D24*
X163227Y35892D02*
D03*
D25*
X163227Y107892D02*
D03*
M02*
