M48
;Layer_Color=9474304
;FILE_FORMAT=4:4
METRIC,LZ
;TYPE=PLATED
T2F00S00C0.5000
T3F00S00C0.6500
;TYPE=NON_PLATED
%
G90
G05
T02
G00X0003523Y000508
M15
G01Y000608
M16
G00X0003523Y000858
M15
G01Y000958
M16
G00X0006323Y001119
M15
G01Y001149
M16
G00X0009123Y000668
M15
G01Y000798
M16
G00X0006323Y000317
M15
G01Y000347
M16
G00X00178727Y00030592
M15
G01X00172727
M16
G00X00238227Y00026992
M15
G01X00232227
M16
G00X00238227Y00116792
M15
G01X00232227
M16
G00X00178727Y00113192
M15
G01X00172727
M16
T03
G00X00163227Y00109392
M15
G01Y00106392
M16
M17
M30
