G04*
G04 #@! TF.GenerationSoftware,Altium Limited,Altium Designer,21.2.2 (38)*
G04*
G04 Layer_Color=8388736*
%FSLAX44Y44*%
%MOMM*%
G71*
G04*
G04 #@! TF.SameCoordinates,80088197-9D36-4DC1-8D3F-1B36901E71C6*
G04*
G04*
G04 #@! TF.FilePolarity,Negative*
G04*
G01*
G75*
%ADD13C,0.5080*%
%ADD16R,1.1400X0.3700*%
%ADD17R,0.7800X0.3800*%
%ADD18C,3.0000*%
%ADD19O,1.2000X2.3000*%
%ADD20O,0.8500X1.8000*%
%ADD21O,1.1000X2.1000*%
%ADD22C,0.7500*%
%ADD23O,1.5400X0.9400*%
%ADD24C,0.7900*%
%ADD25O,0.7900X1.0900*%
D13*
X420179Y709811D02*
X437107D01*
X428643D01*
Y684420D01*
X458267Y709811D02*
X449803D01*
X445571Y705580D01*
Y688652D01*
X449803Y684420D01*
X458267D01*
X462499Y688652D01*
Y705580D01*
X458267Y709811D01*
X470963Y684420D02*
Y709811D01*
X483659D01*
X487891Y705580D01*
Y697116D01*
X483659Y692884D01*
X470963D01*
X538674Y705580D02*
X534442Y709811D01*
X525978D01*
X521746Y705580D01*
Y701348D01*
X525978Y697116D01*
X534442D01*
X538674Y692884D01*
Y688652D01*
X534442Y684420D01*
X525978D01*
X521746Y688652D01*
X559834Y709811D02*
X551370D01*
X547138Y705580D01*
Y688652D01*
X551370Y684420D01*
X559834D01*
X564066Y688652D01*
Y705580D01*
X559834Y709811D01*
X572530D02*
Y684420D01*
X589458D01*
X597922Y709811D02*
Y684420D01*
X610618D01*
X614850Y688652D01*
Y705580D01*
X610618Y709811D01*
X597922D01*
X640241D02*
X623313D01*
Y684420D01*
X640241D01*
X623313Y697116D02*
X631777D01*
X648705Y684420D02*
Y709811D01*
X661401D01*
X665633Y705580D01*
Y697116D01*
X661401Y692884D01*
X648705D01*
X657169D02*
X665633Y684420D01*
X674097D02*
Y709811D01*
X682561Y701348D01*
X691025Y709811D01*
Y684420D01*
X699489D02*
Y701348D01*
X707953Y709811D01*
X716417Y701348D01*
Y684420D01*
Y697116D01*
X699489D01*
X741808Y705580D02*
X737577Y709811D01*
X729113D01*
X724881Y705580D01*
Y701348D01*
X729113Y697116D01*
X737577D01*
X741808Y692884D01*
Y688652D01*
X737577Y684420D01*
X729113D01*
X724881Y688652D01*
X750273Y709811D02*
Y684420D01*
Y692884D01*
X767200Y709811D01*
X754504Y697116D01*
X767200Y684420D01*
D16*
X72980Y100800D02*
D03*
Y95800D02*
D03*
Y90800D02*
D03*
Y85800D02*
D03*
Y80800D02*
D03*
Y75800D02*
D03*
Y70800D02*
D03*
Y65800D02*
D03*
Y60800D02*
D03*
Y55800D02*
D03*
Y50800D02*
D03*
Y45800D02*
D03*
X53480D02*
D03*
Y50800D02*
D03*
Y55800D02*
D03*
Y60800D02*
D03*
Y65800D02*
D03*
Y70800D02*
D03*
Y75800D02*
D03*
Y80800D02*
D03*
Y85800D02*
D03*
Y90800D02*
D03*
Y95800D02*
D03*
Y100800D02*
D03*
D17*
X156627Y49392D02*
D03*
Y44392D02*
D03*
Y54392D02*
D03*
X156627Y59392D02*
D03*
X156627Y64392D02*
D03*
Y69392D02*
D03*
Y79392D02*
D03*
Y84392D02*
D03*
Y89392D02*
D03*
Y74392D02*
D03*
Y99392D02*
D03*
Y94392D02*
D03*
X173627Y46892D02*
D03*
Y41892D02*
D03*
Y66892D02*
D03*
Y61892D02*
D03*
Y56892D02*
D03*
Y86892D02*
D03*
X173627Y81892D02*
D03*
X173627Y76892D02*
D03*
X173627Y96892D02*
D03*
X173627Y51892D02*
D03*
X173627Y91892D02*
D03*
X173627Y71892D02*
D03*
D18*
X111327Y117441D02*
D03*
X21562Y122763D02*
D03*
X23311Y22313D02*
D03*
D19*
X91230Y73300D02*
D03*
D20*
X63230Y113400D02*
D03*
Y33200D02*
D03*
D21*
X35230Y90800D02*
D03*
Y55800D02*
D03*
D22*
X72530Y35200D02*
D03*
X54030Y111400D02*
D03*
D23*
X235227Y26992D02*
D03*
Y116792D02*
D03*
X175727Y113192D02*
D03*
Y30592D02*
D03*
D24*
X163227Y35892D02*
D03*
D25*
X163227Y107892D02*
D03*
M02*
