G04*
G04 #@! TF.GenerationSoftware,Altium Limited,Altium Designer,21.2.2 (38)*
G04*
G04 Layer_Physical_Order=3*
G04 Layer_Color=128*
%FSLAX44Y44*%
%MOMM*%
G71*
G04*
G04 #@! TF.SameCoordinates,7EED97F9-7E78-47C0-A540-625CDB9FC899*
G04*
G04*
G04 #@! TF.FilePolarity,Negative*
G04*
G01*
G75*
%ADD40C,1.0160*%
%ADD41O,0.9548X1.2548*%
%AMTHOVALD42*
21,1,0.6000,2.0240,0,0,180.0*
1,1,2.0240,0.3000,0.0000*
1,1,2.0240,-0.3000,0.0000*
21,0,0.6000,1.5160,0,0,180.0*
1,0,1.5160,0.3000,0.0000*
1,0,1.5160,-0.3000,0.0000*
4,0,4,0.2102,0.0898,0.9258,0.8054,1.1054,0.6258,0.3898,-0.0898,0.2102,0.0898,0.0*
4,0,4,-0.3898,0.0898,-1.1054,-0.6258,-0.9258,-0.8054,-0.2102,-0.0898,-0.3898,0.0898,0.0*
4,0,4,0.3898,0.0898,1.1054,-0.6258,0.9258,-0.8054,0.2102,-0.0898,0.3898,0.0898,0.0*
4,0,4,-0.2102,0.0898,-0.9258,0.8054,-1.1054,0.6258,-0.3898,-0.0898,-0.2102,0.0898,0.0*
%
%ADD42THOVALD42*%

%ADD43C,0.9548*%
%ADD44C,1.0548*%
%AMTHOVALD45*
21,1,0.3000,2.0240,0,0,90.0*
1,1,2.0240,0.0000,-0.1500*
1,1,2.0240,0.0000,0.1500*
21,0,0.3000,1.5160,0,0,90.0*
1,0,1.5160,0.0000,-0.1500*
1,0,1.5160,0.0000,0.1500*
4,0,4,0.0898,-0.0602,0.8054,-0.7758,0.6258,-0.9554,-0.0898,-0.2398,0.0898,-0.0602,0.0*
4,0,4,0.0898,0.2398,-0.6258,0.9554,-0.8054,0.7758,-0.0898,0.0602,0.0898,0.2398,0.0*
4,0,4,0.0898,-0.2398,-0.6258,-0.9554,-0.8054,-0.7758,-0.0898,-0.0602,0.0898,-0.2398,0.0*
4,0,4,0.0898,0.0602,0.8054,0.7758,0.6258,0.9554,-0.0898,0.2398,0.0898,0.0602,0.0*
%
%ADD45THOVALD45*%

%AMTHOVALD46*
21,1,1.0000,2.0240,0,0,90.0*
1,1,2.0240,0.0000,-0.5000*
1,1,2.0240,0.0000,0.5000*
21,0,1.0000,1.5160,0,0,90.0*
1,0,1.5160,0.0000,-0.5000*
1,0,1.5160,0.0000,0.5000*
4,0,4,0.0898,-0.4102,0.8054,-1.1258,0.6258,-1.3054,-0.0898,-0.5898,0.0898,-0.4102,0.0*
4,0,4,0.0898,0.5898,-0.6258,1.3054,-0.8054,1.1258,-0.0898,0.4102,0.0898,0.5898,0.0*
4,0,4,0.0898,-0.5898,-0.6258,-1.3054,-0.8054,-1.1258,-0.0898,-0.4102,0.0898,-0.5898,0.0*
4,0,4,0.0898,0.4102,0.8054,1.1258,0.6258,1.3054,-0.0898,0.5898,0.0898,0.4102,0.0*
%
%ADD46THOVALD46*%

%AMTHOVALD47*
21,1,1.3000,2.0240,0,0,90.0*
1,1,2.0240,0.0000,-0.6500*
1,1,2.0240,0.0000,0.6500*
21,0,1.3000,1.5160,0,0,90.0*
1,0,1.5160,0.0000,-0.6500*
1,0,1.5160,0.0000,0.6500*
4,0,4,0.0898,-0.5602,0.8054,-1.2758,0.6258,-1.4554,-0.0898,-0.7398,0.0898,-0.5602,0.0*
4,0,4,0.0898,0.7398,-0.6258,1.4554,-0.8054,1.2758,-0.0898,0.5602,0.0898,0.7398,0.0*
4,0,4,0.0898,-0.7398,-0.6258,-1.4554,-0.8054,-1.2758,-0.0898,-0.5602,0.0898,-0.7398,0.0*
4,0,4,0.0898,0.5602,0.8054,1.2758,0.6258,1.4554,-0.0898,0.7398,0.0898,0.5602,0.0*
%
%ADD47THOVALD47*%

%ADD48C,0.5048*%
D40*
X0Y0D02*
X250000D01*
Y150000D01*
X0D02*
X250000D01*
X0Y0D02*
Y150000D01*
D41*
X163227Y107892D02*
D03*
D42*
X175727Y30592D02*
D03*
Y113192D02*
D03*
X235227Y116792D02*
D03*
Y26992D02*
D03*
D43*
X163227Y35892D02*
D03*
D44*
X54034Y111402D02*
D03*
X72534Y35202D02*
D03*
D45*
X63234Y33202D02*
D03*
X63234Y113402D02*
D03*
D46*
X35234Y55802D02*
D03*
Y90802D02*
D03*
D47*
X91234Y73302D02*
D03*
D48*
X105663Y69239D02*
D03*
X137290Y40052D02*
D03*
X136278Y33607D02*
D03*
X141478Y27851D02*
D03*
X63628Y48676D02*
D03*
X64026Y55187D02*
D03*
X40436Y72116D02*
D03*
X43719Y77753D02*
D03*
X44021Y90860D02*
D03*
X63206Y79680D02*
D03*
Y73156D02*
D03*
X63397Y66635D02*
D03*
X63627Y101691D02*
D03*
X63825Y95163D02*
D03*
X179819Y45351D02*
D03*
X182131Y51871D02*
D03*
X183280Y61487D02*
D03*
X149545Y67793D02*
D03*
X183425Y68010D02*
D03*
X164562Y68515D02*
D03*
X143223Y69401D02*
D03*
X183212Y74530D02*
D03*
X165443Y74979D02*
D03*
X144265Y76413D02*
D03*
X145541Y90401D02*
D03*
X139517Y92908D02*
D03*
M02*
