G04*
G04 #@! TF.GenerationSoftware,Altium Limited,Altium Designer,21.6.4 (81)*
G04*
G04 Layer_Color=32896*
%FSLAX44Y44*%
%MOMM*%
G71*
G04*
G04 #@! TF.SameCoordinates,818ED15A-6BB5-422D-9A4C-114945B1836D*
G04*
G04*
G04 #@! TF.FilePolarity,Positive*
G04*
G01*
G75*
%ADD11C,0.1270*%
%ADD12C,0.2540*%
%ADD13C,0.5080*%
%ADD49C,0.2032*%
%ADD50C,0.2286*%
D11*
X94817Y100931D02*
Y133951D01*
X127837Y100931D02*
Y133951D01*
X94817Y100931D02*
X127837D01*
X94817Y133951D02*
X127837D01*
X5052Y106253D02*
Y139273D01*
X38072Y106253D02*
Y139273D01*
X5052Y106253D02*
X38072D01*
X5052Y139273D02*
X38072D01*
X6801Y5803D02*
Y38823D01*
X39821Y5803D02*
Y38823D01*
X6801Y5803D02*
X39821D01*
X6801Y38823D02*
X39821D01*
D12*
X135104Y126067D02*
Y131145D01*
X138912D01*
Y128606D01*
Y131145D01*
X142721D01*
X135104Y123528D02*
Y120989D01*
Y122258D01*
X142721D01*
Y123528D01*
Y120989D01*
X135104Y117180D02*
X142721D01*
Y113371D01*
X141452Y112101D01*
X136373D01*
X135104Y113371D01*
Y117180D01*
X142721Y104484D02*
Y109562D01*
X137643Y104484D01*
X136373D01*
X135104Y105753D01*
Y108293D01*
X136373Y109562D01*
X62316Y138446D02*
X67394D01*
Y134637D01*
X64855D01*
X67394D01*
Y130829D01*
X59776Y138446D02*
X57237D01*
X58507D01*
Y130829D01*
X59776D01*
X57237D01*
X53428Y138446D02*
Y130829D01*
X49620D01*
X48350Y132098D01*
Y137177D01*
X49620Y138446D01*
X53428D01*
X45811Y130829D02*
X43272D01*
X44541D01*
Y138446D01*
X45811Y137177D01*
X64715Y15597D02*
X69794D01*
Y11788D01*
X67255D01*
X69794D01*
Y7980D01*
X62176Y15597D02*
X59637D01*
X60907D01*
Y7980D01*
X62176D01*
X59637D01*
X55828Y15597D02*
Y7980D01*
X52019D01*
X50750Y9249D01*
Y14327D01*
X52019Y15597D01*
X55828D01*
X48211Y14327D02*
X46941Y15597D01*
X44402D01*
X43132Y14327D01*
Y13058D01*
X44402Y11788D01*
X45671D01*
X44402D01*
X43132Y10519D01*
Y9249D01*
X44402Y7980D01*
X46941D01*
X48211Y9249D01*
D13*
X420179Y361493D02*
Y336101D01*
X432875D01*
X437107Y340333D01*
Y344565D01*
X432875Y348797D01*
X420179D01*
X432875D01*
X437107Y353029D01*
Y357261D01*
X432875Y361493D01*
X420179D01*
X458267D02*
X449803D01*
X445571Y357261D01*
Y340333D01*
X449803Y336101D01*
X458267D01*
X462499Y340333D01*
Y357261D01*
X458267Y361493D01*
X470963D02*
X487891D01*
X479427D01*
Y336101D01*
X496354Y361493D02*
X513282D01*
X504818D01*
Y336101D01*
X534442Y361493D02*
X525978D01*
X521746Y357261D01*
Y340333D01*
X525978Y336101D01*
X534442D01*
X538674Y340333D01*
Y357261D01*
X534442Y361493D01*
X547138Y336101D02*
Y361493D01*
X555602Y353029D01*
X564066Y361493D01*
Y336101D01*
X614850Y357261D02*
X610618Y361493D01*
X602154D01*
X597922Y357261D01*
Y353029D01*
X602154Y348797D01*
X610618D01*
X614850Y344565D01*
Y340333D01*
X610618Y336101D01*
X602154D01*
X597922Y340333D01*
X623313Y361493D02*
X631777D01*
X627546D01*
Y336101D01*
X623313D01*
X631777D01*
X644473Y361493D02*
Y336101D01*
X661401D01*
X669865Y361493D02*
Y336101D01*
Y344565D01*
X686793Y361493D01*
X674097Y348797D01*
X686793Y336101D01*
X712185Y357261D02*
X707953Y361493D01*
X699489D01*
X695257Y357261D01*
Y353029D01*
X699489Y348797D01*
X707953D01*
X712185Y344565D01*
Y340333D01*
X707953Y336101D01*
X699489D01*
X695257Y340333D01*
X737577Y357261D02*
X733345Y361493D01*
X724881D01*
X720649Y357261D01*
Y340333D01*
X724881Y336101D01*
X733345D01*
X737577Y340333D01*
X746040Y336101D02*
Y361493D01*
X758736D01*
X762968Y357261D01*
Y348797D01*
X758736Y344565D01*
X746040D01*
X754504D02*
X762968Y336101D01*
X788360Y361493D02*
X771432D01*
Y336101D01*
X788360D01*
X771432Y348797D02*
X779896D01*
X813752Y361493D02*
X796824D01*
Y336101D01*
X813752D01*
X796824Y348797D02*
X805288D01*
X822216Y336101D02*
Y361493D01*
X839144Y336101D01*
Y361493D01*
D49*
X210530Y96711D02*
Y87570D01*
X205959D01*
X204436Y89093D01*
Y95187D01*
X205959Y96711D01*
X210530D01*
X196818Y87570D02*
X199865D01*
X201389Y89093D01*
Y92140D01*
X199865Y93664D01*
X196818D01*
X195295Y92140D01*
Y90617D01*
X201389D01*
X192248Y87570D02*
X187677D01*
X186154Y89093D01*
X187677Y90617D01*
X190724D01*
X192248Y92140D01*
X190724Y93664D01*
X186154D01*
X183106Y87570D02*
X180060D01*
X181583D01*
Y93664D01*
X183106D01*
X172442Y84523D02*
X170919D01*
X169395Y86046D01*
Y93664D01*
X173965D01*
X175489Y92140D01*
Y89093D01*
X173965Y87570D01*
X169395D01*
X166348D02*
Y93664D01*
X161777D01*
X160254Y92140D01*
Y87570D01*
X152636D02*
X155683D01*
X157207Y89093D01*
Y92140D01*
X155683Y93664D01*
X152636D01*
X151113Y92140D01*
Y90617D01*
X157207D01*
X141972Y96711D02*
Y87570D01*
X146542D01*
X148066Y89093D01*
Y92140D01*
X146542Y93664D01*
X141972D01*
X129784Y96711D02*
Y87570D01*
X125213D01*
X123690Y89093D01*
Y90617D01*
Y92140D01*
X125213Y93664D01*
X129784D01*
X120643D02*
Y89093D01*
X119119Y87570D01*
X114549D01*
Y86046D01*
X116072Y84523D01*
X117596D01*
X114549Y87570D02*
Y93664D01*
X111502D02*
X109978D01*
Y92140D01*
X111502D01*
Y93664D01*
Y89093D02*
X109978D01*
Y87570D01*
X111502D01*
Y89093D01*
X236429Y68677D02*
Y77818D01*
X231859D01*
X230335Y76294D01*
Y73247D01*
X231859Y71724D01*
X236429D01*
X227288Y77818D02*
Y68677D01*
Y73247D01*
X225765Y74771D01*
X222718D01*
X221194Y73247D01*
Y68677D01*
X218147D02*
X215100D01*
X216624D01*
Y74771D01*
X218147D01*
X210530Y68677D02*
X207483D01*
X209006D01*
Y77818D01*
X210530D01*
X202912Y68677D02*
X199865D01*
X201389D01*
Y74771D01*
X202912D01*
X195295Y65630D02*
Y74771D01*
X190724D01*
X189201Y73247D01*
Y70200D01*
X190724Y68677D01*
X195295D01*
X186154Y65630D02*
Y74771D01*
X181583D01*
X180060Y73247D01*
Y70200D01*
X181583Y68677D01*
X186154D01*
X172442D02*
X175489D01*
X177013Y70200D01*
Y73247D01*
X175489Y74771D01*
X172442D01*
X170919Y73247D01*
Y71724D01*
X177013D01*
X158730Y68677D02*
Y74771D01*
X155683Y77818D01*
X152636Y74771D01*
Y68677D01*
Y73247D01*
X158730D01*
X149589Y74771D02*
Y68677D01*
Y71724D01*
X148066Y73247D01*
X146542Y74771D01*
X145019D01*
X140448Y68677D02*
X135878D01*
X134354Y70200D01*
X135878Y71724D01*
X138925D01*
X140448Y73247D01*
X138925Y74771D01*
X134354D01*
X126737Y68677D02*
X129784D01*
X131307Y70200D01*
Y73247D01*
X129784Y74771D01*
X126737D01*
X125213Y73247D01*
Y71724D01*
X131307D01*
X122166Y68677D02*
Y74771D01*
X117596D01*
X116072Y73247D01*
Y68677D01*
X111502Y74771D02*
X108455D01*
X106931Y73247D01*
Y68677D01*
X111502D01*
X113025Y70200D01*
X111502Y71724D01*
X106931D01*
X103884Y74771D02*
Y70200D01*
X102361Y68677D01*
X97790D01*
Y74771D01*
X94743Y68677D02*
X91696D01*
X93219D01*
Y77818D01*
X94743D01*
X85602Y76294D02*
Y74771D01*
X87126D01*
X84079D01*
X85602D01*
Y70200D01*
X84079Y68677D01*
X208244Y58925D02*
Y49784D01*
Y54354D01*
X202150D01*
Y58925D01*
Y49784D01*
X199103Y55878D02*
Y51307D01*
X197580Y49784D01*
X193009D01*
Y55878D01*
X189962Y58925D02*
Y49784D01*
X185392D01*
X183868Y51307D01*
Y52831D01*
Y54354D01*
X185392Y55878D01*
X189962D01*
X176251Y49784D02*
X179298D01*
X180821Y51307D01*
Y54354D01*
X179298Y55878D01*
X176251D01*
X174727Y54354D01*
Y52831D01*
X180821D01*
X171680Y55878D02*
Y49784D01*
Y52831D01*
X170157Y54354D01*
X168633Y55878D01*
X167110D01*
X161016Y57401D02*
Y55878D01*
X162539D01*
X159492D01*
X161016D01*
Y51307D01*
X159492Y49784D01*
X145781Y58925D02*
Y49784D01*
X141210D01*
X139686Y51307D01*
Y57401D01*
X141210Y58925D01*
X145781D01*
X136639Y55878D02*
Y51307D01*
X135116Y49784D01*
X130546D01*
Y55878D01*
X127498Y58925D02*
Y49784D01*
X122928D01*
X121404Y51307D01*
Y52831D01*
Y54354D01*
X122928Y55878D01*
X127498D01*
X113787Y49784D02*
X116834D01*
X118357Y51307D01*
Y54354D01*
X116834Y55878D01*
X113787D01*
X112263Y54354D01*
Y52831D01*
X118357D01*
X241762Y43079D02*
Y33938D01*
X235668D01*
X231097D02*
X228050D01*
X226527Y35461D01*
Y38508D01*
X228050Y40032D01*
X231097D01*
X232621Y38508D01*
Y35461D01*
X231097Y33938D01*
X223479Y40032D02*
Y35461D01*
X221956Y33938D01*
X217386D01*
Y40032D01*
X214338Y33938D02*
X211291D01*
X212815D01*
Y40032D01*
X214338D01*
X206721Y33938D02*
X202150D01*
X200627Y35461D01*
X202150Y36985D01*
X205197D01*
X206721Y38508D01*
X205197Y40032D01*
X200627D01*
X197580Y38508D02*
X191486D01*
X188439Y43079D02*
Y33938D01*
X183868D01*
X182345Y35461D01*
Y41555D01*
X183868Y43079D01*
X188439D01*
X177774Y40032D02*
X174727D01*
X173204Y38508D01*
Y33938D01*
X177774D01*
X179298Y35461D01*
X177774Y36985D01*
X173204D01*
X170157Y33938D02*
Y40032D01*
X165586D01*
X164063Y38508D01*
Y33938D01*
X161016D02*
X157969D01*
X159492D01*
Y40032D01*
X161016D01*
X148828Y33938D02*
X151875D01*
X153398Y35461D01*
Y38508D01*
X151875Y40032D01*
X148828D01*
X147304Y38508D01*
Y36985D01*
X153398D01*
X144257Y33938D02*
X141210D01*
X142733D01*
Y43079D01*
X144257D01*
X121404Y41555D02*
X122928Y43079D01*
X125975D01*
X127498Y41555D01*
Y35461D01*
X125975Y33938D01*
X122928D01*
X121404Y35461D01*
Y38508D01*
X124451D01*
X116834Y40032D02*
X113787D01*
X112263Y38508D01*
Y33938D01*
X116834D01*
X118357Y35461D01*
X116834Y36985D01*
X112263D01*
X109216Y40032D02*
Y35461D01*
X107693Y33938D01*
X103122D01*
Y40032D01*
X100075Y33938D02*
X97028D01*
X98552D01*
Y43079D01*
X100075D01*
X92458Y33938D02*
X89411D01*
X90934D01*
Y40032D01*
X92458D01*
X84840Y33938D02*
Y40032D01*
X80270D01*
X78746Y38508D01*
Y33938D01*
D50*
X243797Y128076D02*
Y138232D01*
X238719D01*
X237026Y136540D01*
Y133154D01*
X238719Y131461D01*
X243797D01*
X240411D02*
X237026Y128076D01*
X228562D02*
X231948D01*
X233640Y129768D01*
Y133154D01*
X231948Y134847D01*
X228562D01*
X226869Y133154D01*
Y131461D01*
X233640D01*
X223484Y134847D02*
X220098Y128076D01*
X216712Y134847D01*
X203170Y128076D02*
X199785D01*
X201477D01*
Y138232D01*
X203170Y136540D01*
X194706Y128076D02*
Y129768D01*
X193013D01*
Y128076D01*
X194706D01*
X186242Y136540D02*
X184550Y138232D01*
X181164D01*
X179471Y136540D01*
Y129768D01*
X181164Y128076D01*
X184550D01*
X186242Y129768D01*
Y136540D01*
X176086D02*
X174393Y138232D01*
X171007D01*
X169314Y136540D01*
Y129768D01*
X171007Y128076D01*
X174393D01*
X176086Y129768D01*
Y136540D01*
X165929D02*
X164236Y138232D01*
X160851D01*
X159158Y136540D01*
Y129768D01*
X160851Y128076D01*
X164236D01*
X165929Y129768D01*
Y136540D01*
M02*
