G04*
G04 #@! TF.GenerationSoftware,Altium Limited,Altium Designer,21.2.2 (38)*
G04*
G04 Layer_Color=65535*
%FSLAX44Y44*%
%MOMM*%
G71*
G04*
G04 #@! TF.SameCoordinates,7EED97F9-7E78-47C0-A540-625CDB9FC899*
G04*
G04*
G04 #@! TF.FilePolarity,Positive*
G04*
G01*
G75*
%ADD10C,0.2000*%
%ADD11C,0.1270*%
%ADD12C,0.2540*%
%ADD13C,0.1778*%
D10*
X42834Y107402D02*
G03*
X42834Y107402I-1000J0D01*
G01*
X49234Y30002D02*
X53734Y30002D01*
X49234Y30002D02*
X49234Y40902D01*
X49234Y105702D02*
Y116602D01*
X53734Y116602D01*
X72734Y116602D02*
X77234Y116602D01*
Y105702D02*
Y116602D01*
X77234Y30002D02*
Y40902D01*
X72734Y30002D02*
X77234Y30002D01*
D11*
X154127Y104892D02*
X154127Y117892D01*
X165227D01*
X154127Y25892D02*
X165227D01*
X154127Y38892D02*
X154127Y25892D01*
X187227D02*
X223227D01*
X187227Y117892D02*
X223227D01*
X94817Y133951D02*
X127837D01*
X94817Y100931D02*
Y133951D01*
X127837Y100931D02*
Y133951D01*
X94817Y100931D02*
X127837D01*
X5052Y139273D02*
X38072D01*
X5052Y106253D02*
Y139273D01*
X38072Y106253D02*
Y139273D01*
X5052Y106253D02*
X38072D01*
X6801Y38823D02*
X39821D01*
X6801Y5803D02*
Y38823D01*
X39821Y5803D02*
Y38823D01*
X6801Y5803D02*
X39821D01*
X71264Y42172D02*
X63647D01*
Y45981D01*
X64916Y47251D01*
X67456D01*
X68725Y45981D01*
Y42172D01*
X71264Y49790D02*
X63647D01*
Y53599D01*
X64916Y54868D01*
X67456D01*
X68725Y53599D01*
Y49790D01*
Y52329D02*
X71264Y54868D01*
X63647Y62486D02*
Y57407D01*
X71264D01*
Y62486D01*
X67456Y57407D02*
Y59946D01*
X63647Y65025D02*
X71264D01*
Y70103D01*
X63647Y72642D02*
Y75182D01*
Y73912D01*
X71264D01*
Y72642D01*
Y75182D01*
Y78990D02*
X63647D01*
X66186Y81530D01*
X63647Y84069D01*
X71264D01*
X63647Y86608D02*
Y89147D01*
Y87878D01*
X71264D01*
Y86608D01*
Y89147D01*
Y92956D02*
X63647D01*
X71264Y98034D01*
X63647D01*
X71264Y100573D02*
X66186D01*
X63647Y103112D01*
X66186Y105652D01*
X71264D01*
X67456D01*
Y100573D01*
X71264Y108191D02*
X63647D01*
Y112000D01*
X64916Y113269D01*
X67456D01*
X68725Y112000D01*
Y108191D01*
Y110730D02*
X71264Y113269D01*
X63647Y115808D02*
X64916D01*
X67456Y118348D01*
X64916Y120887D01*
X63647D01*
X67456Y118348D02*
X71264D01*
D12*
X208765Y141713D02*
X203687D01*
X206226D01*
Y129017D01*
X203687Y126478D01*
X201147D01*
X198608Y129017D01*
X224000Y126478D02*
X213843D01*
X224000Y136634D01*
Y139173D01*
X221461Y141713D01*
X216383D01*
X213843Y139173D01*
X60613Y143397D02*
X55535D01*
X58074D01*
Y130701D01*
X55535Y128162D01*
X52996D01*
X50456Y130701D01*
X65691Y128162D02*
X70770D01*
X68231D01*
Y143397D01*
X65691Y140858D01*
D13*
X49202Y13762D02*
X45478D01*
Y10969D01*
X47340D01*
X45478D01*
Y8176D01*
X51064Y13762D02*
X52926D01*
X51995D01*
Y8176D01*
X51064D01*
X52926D01*
X55719Y13762D02*
Y8176D01*
X58512D01*
X59443Y9107D01*
Y12831D01*
X58512Y13762D01*
X55719D01*
X61305Y12831D02*
X62236Y13762D01*
X64098D01*
X65029Y12831D01*
Y11900D01*
X64098Y10969D01*
X63167D01*
X64098D01*
X65029Y10038D01*
Y9107D01*
X64098Y8176D01*
X62236D01*
X61305Y9107D01*
X98119Y143133D02*
X94395D01*
Y140340D01*
X96257D01*
X94395D01*
Y137547D01*
X99981Y143133D02*
X101843D01*
X100912D01*
Y137547D01*
X99981D01*
X101843D01*
X104636Y143133D02*
Y137547D01*
X107429D01*
X108360Y138478D01*
Y142202D01*
X107429Y143133D01*
X104636D01*
X113947Y137547D02*
X110222D01*
X113947Y141271D01*
Y142202D01*
X113015Y143133D01*
X111153D01*
X110222Y142202D01*
X10622Y102431D02*
X6898D01*
Y99638D01*
X8760D01*
X6898D01*
Y96845D01*
X12484Y102431D02*
X14346D01*
X13415D01*
Y96845D01*
X12484D01*
X14346D01*
X17139Y102431D02*
Y96845D01*
X19933D01*
X20863Y97776D01*
Y101500D01*
X19933Y102431D01*
X17139D01*
X22726Y96845D02*
X24588D01*
X23657D01*
Y102431D01*
X22726Y101500D01*
M02*
