G04*
G04 #@! TF.GenerationSoftware,Altium Limited,Altium Designer,21.2.2 (38)*
G04*
G04 Layer_Color=32896*
%FSLAX44Y44*%
%MOMM*%
G71*
G04*
G04 #@! TF.SameCoordinates,7EED97F9-7E78-47C0-A540-625CDB9FC899*
G04*
G04*
G04 #@! TF.FilePolarity,Positive*
G04*
G01*
G75*
%ADD11C,0.1270*%
%ADD13C,0.1778*%
D11*
X94817Y100931D02*
Y133951D01*
X127837Y100931D02*
Y133951D01*
X94817Y100931D02*
X127837D01*
X94817Y133951D02*
X127837D01*
X5052Y106253D02*
Y139273D01*
X38072Y106253D02*
Y139273D01*
X5052Y106253D02*
X38072D01*
X5052Y139273D02*
X38072D01*
X6801Y5803D02*
Y38823D01*
X39821Y5803D02*
Y38823D01*
X6801Y5803D02*
X39821D01*
X6801Y38823D02*
X39821D01*
D13*
X149961Y133750D02*
X153346D01*
Y131210D01*
X151654D01*
X153346D01*
Y128671D01*
X148268Y133750D02*
X146575D01*
X147422D01*
Y128671D01*
X148268D01*
X146575D01*
X144036Y133750D02*
Y128671D01*
X141497D01*
X140651Y129518D01*
Y132903D01*
X141497Y133750D01*
X144036D01*
X135572Y128671D02*
X138958D01*
X135572Y132057D01*
Y132903D01*
X136419Y133750D01*
X138111D01*
X138958Y132903D01*
X58880Y138609D02*
X62604D01*
Y135816D01*
X60742D01*
X62604D01*
Y133023D01*
X57018Y138609D02*
X55156D01*
X56087D01*
Y133023D01*
X57018D01*
X55156D01*
X52363Y138609D02*
Y133023D01*
X49570D01*
X48639Y133954D01*
Y137678D01*
X49570Y138609D01*
X52363D01*
X46777Y133023D02*
X44915D01*
X45846D01*
Y138609D01*
X46777Y137678D01*
X61484Y13339D02*
X65208D01*
Y10546D01*
X63346D01*
X65208D01*
Y7753D01*
X59622Y13339D02*
X57759D01*
X58691D01*
Y7753D01*
X59622D01*
X57759D01*
X54967Y13339D02*
Y7753D01*
X52173D01*
X51242Y8684D01*
Y12408D01*
X52173Y13339D01*
X54967D01*
X49380Y12408D02*
X48449Y13339D01*
X46587D01*
X45656Y12408D01*
Y11477D01*
X46587Y10546D01*
X47518D01*
X46587D01*
X45656Y9615D01*
Y8684D01*
X46587Y7753D01*
X48449D01*
X49380Y8684D01*
M02*
