G04*
G04 #@! TF.GenerationSoftware,Altium Limited,Altium Designer,21.6.4 (81)*
G04*
G04 Layer_Color=16711935*
%FSLAX44Y44*%
%MOMM*%
G71*
G04*
G04 #@! TF.SameCoordinates,818ED15A-6BB5-422D-9A4C-114945B1836D*
G04*
G04*
G04 #@! TF.FilePolarity,Positive*
G04*
G01*
G75*
%ADD12C,0.2540*%
%ADD13C,0.5080*%
D12*
X0Y150000D02*
X250000D01*
X0Y0D02*
Y150000D01*
X250000Y0D02*
Y150000D01*
X0Y0D02*
X250000D01*
D13*
X420179Y304851D02*
Y279459D01*
X432875D01*
X437107Y283691D01*
Y287923D01*
X432875Y292155D01*
X420179D01*
X432875D01*
X437107Y296387D01*
Y300619D01*
X432875Y304851D01*
X420179D01*
X458267D02*
X449803D01*
X445571Y300619D01*
Y283691D01*
X449803Y279459D01*
X458267D01*
X462499Y283691D01*
Y300619D01*
X458267Y304851D01*
X470963Y279459D02*
Y296387D01*
X479427Y304851D01*
X487891Y296387D01*
Y279459D01*
Y292155D01*
X470963D01*
X496354Y279459D02*
Y304851D01*
X509050D01*
X513282Y300619D01*
Y292155D01*
X509050Y287923D01*
X496354D01*
X504818D02*
X513282Y279459D01*
X521746Y304851D02*
Y279459D01*
X534442D01*
X538674Y283691D01*
Y300619D01*
X534442Y304851D01*
X521746D01*
X585226D02*
X576762D01*
X572530Y300619D01*
Y283691D01*
X576762Y279459D01*
X585226D01*
X589458Y283691D01*
Y300619D01*
X585226Y304851D01*
X597922D02*
Y283691D01*
X602154Y279459D01*
X610618D01*
X614850Y283691D01*
Y304851D01*
X623313D02*
X640241D01*
X631777D01*
Y279459D01*
X648705Y304851D02*
Y279459D01*
X665633D01*
X674097Y304851D02*
X682561D01*
X678329D01*
Y279459D01*
X674097D01*
X682561D01*
X695257D02*
Y304851D01*
X712185Y279459D01*
Y304851D01*
X737577D02*
X720649D01*
Y279459D01*
X737577D01*
X720649Y292155D02*
X729113D01*
M02*
