G04*
G04 #@! TF.GenerationSoftware,Altium Limited,Altium Designer,21.2.2 (38)*
G04*
G04 Layer_Physical_Order=3*
G04 Layer_Color=128*
%FSLAX44Y44*%
%MOMM*%
G71*
G04*
G04 #@! TF.SameCoordinates,80088197-9D36-4DC1-8D3F-1B36901E71C6*
G04*
G04*
G04 #@! TF.FilePolarity,Negative*
G04*
G01*
G75*
%ADD13C,0.5080*%
%ADD39C,1.0160*%
%AMTHOVALD40*
21,1,1.3000,2.0240,0,0,90.0*
1,1,2.0240,0.0000,-0.6500*
1,1,2.0240,0.0000,0.6500*
21,0,1.3000,1.5160,0,0,90.0*
1,0,1.5160,0.0000,-0.6500*
1,0,1.5160,0.0000,0.6500*
4,0,4,0.0898,-0.5602,0.8054,-1.2758,0.6258,-1.4554,-0.0898,-0.7398,0.0898,-0.5602,0.0*
4,0,4,0.0898,0.7398,-0.6258,1.4554,-0.8054,1.2758,-0.0898,0.5602,0.0898,0.7398,0.0*
4,0,4,0.0898,-0.7398,-0.6258,-1.4554,-0.8054,-1.2758,-0.0898,-0.5602,0.0898,-0.7398,0.0*
4,0,4,0.0898,0.5602,0.8054,1.2758,0.6258,1.4554,-0.0898,0.7398,0.0898,0.5602,0.0*
%
%ADD40THOVALD40*%

%AMTHOVALD41*
21,1,0.3000,2.0240,0,0,90.0*
1,1,2.0240,0.0000,-0.1500*
1,1,2.0240,0.0000,0.1500*
21,0,0.3000,1.5160,0,0,90.0*
1,0,1.5160,0.0000,-0.1500*
1,0,1.5160,0.0000,0.1500*
4,0,4,0.0898,-0.0602,0.8054,-0.7758,0.6258,-0.9554,-0.0898,-0.2398,0.0898,-0.0602,0.0*
4,0,4,0.0898,0.2398,-0.6258,0.9554,-0.8054,0.7758,-0.0898,0.0602,0.0898,0.2398,0.0*
4,0,4,0.0898,-0.2398,-0.6258,-0.9554,-0.8054,-0.7758,-0.0898,-0.0602,0.0898,-0.2398,0.0*
4,0,4,0.0898,0.0602,0.8054,0.7758,0.6258,0.9554,-0.0898,0.2398,0.0898,0.0602,0.0*
%
%ADD41THOVALD41*%

%AMTHOVALD42*
21,1,1.0000,2.0240,0,0,90.0*
1,1,2.0240,0.0000,-0.5000*
1,1,2.0240,0.0000,0.5000*
21,0,1.0000,1.5160,0,0,90.0*
1,0,1.5160,0.0000,-0.5000*
1,0,1.5160,0.0000,0.5000*
4,0,4,0.0898,-0.4102,0.8054,-1.1258,0.6258,-1.3054,-0.0898,-0.5898,0.0898,-0.4102,0.0*
4,0,4,0.0898,0.5898,-0.6258,1.3054,-0.8054,1.1258,-0.0898,0.4102,0.0898,0.5898,0.0*
4,0,4,0.0898,-0.5898,-0.6258,-1.3054,-0.8054,-1.1258,-0.0898,-0.4102,0.0898,-0.5898,0.0*
4,0,4,0.0898,0.4102,0.8054,1.1258,0.6258,1.3054,-0.0898,0.5898,0.0898,0.4102,0.0*
%
%ADD42THOVALD42*%

%ADD43C,1.0548*%
%AMTHOVALD44*
21,1,0.6000,2.0240,0,0,180.0*
1,1,2.0240,0.3000,0.0000*
1,1,2.0240,-0.3000,0.0000*
21,0,0.6000,1.5160,0,0,180.0*
1,0,1.5160,0.3000,0.0000*
1,0,1.5160,-0.3000,0.0000*
4,0,4,0.2102,0.0898,0.9258,0.8054,1.1054,0.6258,0.3898,-0.0898,0.2102,0.0898,0.0*
4,0,4,-0.3898,0.0898,-1.1054,-0.6258,-0.9258,-0.8054,-0.2102,-0.0898,-0.3898,0.0898,0.0*
4,0,4,0.3898,0.0898,1.1054,-0.6258,0.9258,-0.8054,0.2102,-0.0898,0.3898,0.0898,0.0*
4,0,4,-0.2102,0.0898,-0.9258,0.8054,-1.1054,0.6258,-0.3898,-0.0898,-0.2102,0.0898,0.0*
%
%ADD44THOVALD44*%

%ADD45C,0.9548*%
%ADD46O,0.9548X1.2548*%
%ADD47C,0.5048*%
D13*
X420179Y531420D02*
Y506029D01*
X437107D01*
X445571D02*
Y522956D01*
X454035Y531420D01*
X462499Y522956D01*
Y506029D01*
Y518724D01*
X445571D01*
X470963Y531420D02*
Y527188D01*
X479427Y518724D01*
X487891Y527188D01*
Y531420D01*
X479427Y518724D02*
Y506029D01*
X513282Y531420D02*
X496354D01*
Y506029D01*
X513282D01*
X496354Y518724D02*
X504818D01*
X521746Y506029D02*
Y531420D01*
X534442D01*
X538674Y527188D01*
Y518724D01*
X534442Y514492D01*
X521746D01*
X530210D02*
X538674Y506029D01*
X589458D02*
X572530D01*
X589458Y522956D01*
Y527188D01*
X585226Y531420D01*
X576762D01*
X572530Y527188D01*
X597922Y522956D02*
X602154D01*
Y518724D01*
X597922D01*
Y522956D01*
Y510260D02*
X602154D01*
Y506029D01*
X597922D01*
Y510260D01*
X661401Y527188D02*
X657169Y531420D01*
X648705D01*
X644473Y527188D01*
Y510260D01*
X648705Y506029D01*
X657169D01*
X661401Y510260D01*
Y518724D01*
X652937D01*
X669865Y506029D02*
Y531420D01*
X686793Y506029D01*
Y531420D01*
X695257D02*
Y506029D01*
X707953D01*
X712185Y510260D01*
Y527188D01*
X707953Y531420D01*
X695257D01*
X720649Y501796D02*
X737577D01*
X762968Y506029D02*
X746040D01*
X762968Y522956D01*
Y527188D01*
X758736Y531420D01*
X750273D01*
X746040Y527188D01*
D39*
X0Y0D02*
X250000D01*
Y150000D01*
X0D02*
X250000D01*
X0Y0D02*
Y150000D01*
D40*
X91230Y73300D02*
D03*
D41*
X63230Y113400D02*
D03*
Y33200D02*
D03*
D42*
X35230Y90800D02*
D03*
Y55800D02*
D03*
D43*
X72530Y35200D02*
D03*
X54030Y111400D02*
D03*
D44*
X235227Y26992D02*
D03*
Y116792D02*
D03*
X175727Y113192D02*
D03*
Y30592D02*
D03*
D45*
X163227Y35892D02*
D03*
D46*
X163227Y107892D02*
D03*
D47*
X184051Y66028D02*
D03*
X63206Y73156D02*
D03*
X44261Y75338D02*
D03*
X186256Y72168D02*
D03*
X63206Y79680D02*
D03*
X40978Y69701D02*
D03*
X165752Y74929D02*
D03*
X164562Y68515D02*
D03*
X194498Y125467D02*
D03*
X194599Y118628D02*
D03*
X186234Y128623D02*
D03*
X177341D02*
D03*
X138110Y63726D02*
D03*
X105922Y63181D02*
D03*
X141033Y28296D02*
D03*
X62936Y98811D02*
D03*
X63134Y92283D02*
D03*
X134432Y89285D02*
D03*
X182855Y59614D02*
D03*
X182364Y52961D02*
D03*
X136278Y33607D02*
D03*
X182378Y45285D02*
D03*
X128249Y91976D02*
D03*
X137290Y40052D02*
D03*
X140730Y69996D02*
D03*
X139549Y76413D02*
D03*
X63628Y48676D02*
D03*
X64026Y55187D02*
D03*
X44021Y90860D02*
D03*
X63397Y66635D02*
D03*
M02*
