G04*
G04 #@! TF.GenerationSoftware,Altium Limited,Altium Designer,21.6.4 (81)*
G04*
G04 Layer_Physical_Order=1*
G04 Layer_Color=255*
%FSLAX44Y44*%
%MOMM*%
G71*
G04*
G04 #@! TF.SameCoordinates,818ED15A-6BB5-422D-9A4C-114945B1836D*
G04*
G04*
G04 #@! TF.FilePolarity,Positive*
G04*
G01*
G75*
%ADD13C,0.5080*%
%ADD22C,0.7500*%
%ADD26C,0.1410*%
%ADD27R,1.0500X0.2800*%
%ADD28R,0.7000X0.3000*%
%ADD29C,1.0000*%
%ADD30C,0.2159*%
%ADD31C,0.3048*%
%ADD32O,1.1000X2.2000*%
%ADD33O,0.7500X1.7000*%
%ADD34O,1.0000X2.0000*%
%ADD35O,1.4000X0.8000*%
%ADD36C,0.6500*%
%ADD37O,0.6500X0.9500*%
%ADD38C,0.5000*%
D13*
X420179Y653169D02*
Y627777D01*
X437107D01*
X445571D02*
Y644705D01*
X454035Y653169D01*
X462499Y644705D01*
Y627777D01*
Y640473D01*
X445571D01*
X470963Y653169D02*
Y648937D01*
X479427Y640473D01*
X487891Y648937D01*
Y653169D01*
X479427Y640473D02*
Y627777D01*
X513282Y653169D02*
X496354D01*
Y627777D01*
X513282D01*
X496354Y640473D02*
X504818D01*
X521746Y627777D02*
Y653169D01*
X534442D01*
X538674Y648937D01*
Y640473D01*
X534442Y636241D01*
X521746D01*
X530210D02*
X538674Y627777D01*
X572530D02*
X580994D01*
X576762D01*
Y653169D01*
X572530Y648937D01*
X593690Y644705D02*
X597922D01*
Y640473D01*
X593690D01*
Y644705D01*
Y632009D02*
X597922D01*
Y627777D01*
X593690D01*
Y632009D01*
X640241Y653169D02*
X657169D01*
X648705D01*
Y627777D01*
X678329Y653169D02*
X669865D01*
X665633Y648937D01*
Y632009D01*
X669865Y627777D01*
X678329D01*
X682561Y632009D01*
Y648937D01*
X678329Y653169D01*
X691025Y627777D02*
Y653169D01*
X703721D01*
X707953Y648937D01*
Y640473D01*
X703721Y636241D01*
X691025D01*
D22*
X72530Y35200D02*
D03*
X54030Y111400D02*
D03*
D26*
X190532Y104498D02*
G03*
X192527Y104498I997J997D01*
G01*
X186768Y108262D02*
G03*
X185419Y108262I-674J-674D01*
G01*
X180024Y102866D02*
G03*
X180024Y101518I674J-675D01*
G01*
X183788Y95759D02*
G03*
X183788Y97753I-997J997D01*
G01*
X135341Y67561D02*
G03*
X135346Y67566I-945J950D01*
G01*
X126304Y64320D02*
G03*
X132100Y64320I2898J2886D01*
G01*
X120247Y70377D02*
G03*
X120256Y70368I948J948D01*
G01*
X120244Y70374D02*
G03*
X120247Y70377I-945J950D01*
G01*
X113503Y63632D02*
G03*
X113505Y63635I-948J948D01*
G01*
X113505Y63630D02*
G03*
X113503Y63632I-950J-945D01*
G01*
X119559Y51778D02*
G03*
X119560Y57575I-2885J2899D01*
G01*
X133451Y69461D02*
G03*
X133446Y69456I945J-950D01*
G01*
X130206Y66216D02*
G03*
X130204Y66213I941J-954D01*
G01*
X128202Y66213D02*
G03*
X130204Y66213I1001J993D01*
G01*
X128202Y66213D02*
G03*
X128200Y66214I-944J-951D01*
G01*
X122151Y72263D02*
G03*
X122149Y72265I-956J-939D01*
G01*
D02*
G03*
X118350Y72270I-1902J-1889D01*
G01*
D02*
G03*
X118349Y72269I950J-945D01*
G01*
X111610Y65530D02*
G03*
X111609Y65530I945J-950D01*
G01*
D02*
G03*
X111609Y61735I1893J-1897D01*
G01*
D02*
G03*
X111610Y61734I945J950D01*
G01*
X117664Y55681D02*
G03*
X117666Y55679I954J941D01*
G01*
X117671Y53682D02*
G03*
X117666Y55679I-998J996D01*
G01*
X117671Y53682D02*
G03*
X117669Y53679I946J-949D01*
G01*
X117666Y53676D02*
G03*
X117669Y53679I-993J1001D01*
G01*
X117666Y53676D02*
G03*
X117664Y53674I952J-943D01*
G01*
X53252Y75570D02*
X53484Y75802D01*
X72289Y71497D02*
X72984Y70802D01*
X69134D02*
X72984D01*
X72289Y76497D02*
X72984Y75802D01*
X52934Y70251D02*
X53484Y70802D01*
X164781Y74929D02*
X165752D01*
X163195Y73344D02*
X164781Y74929D01*
X159995Y73597D02*
X160248Y73344D01*
X163195D01*
X156627Y74392D02*
X157422Y73597D01*
X159995D01*
X183454Y66028D02*
X184051D01*
X175627Y66892D02*
X176787Y68052D01*
X181430D01*
X183454Y66028D01*
X173627Y66892D02*
X175627D01*
X44493Y75570D02*
X53252D01*
X44261Y75338D02*
X44493Y75570D01*
X64178Y73156D02*
X65836Y71497D01*
X72289D01*
X63206Y73156D02*
X64178D01*
X160038Y70524D02*
X161582D01*
X159899Y70664D02*
X160038Y70524D01*
X158627Y69392D02*
X159899Y70664D01*
X163591Y68515D02*
X164562D01*
X156627Y69392D02*
X158627D01*
X161582Y70524D02*
X163591Y68515D01*
X185285Y72168D02*
X186256D01*
X173627Y71892D02*
X175627D01*
X176787Y70732D01*
X183849D02*
X185285Y72168D01*
X176787Y70732D02*
X183849D01*
X63368Y79680D02*
X66550Y76497D01*
X63206Y79680D02*
X63368D01*
X66550Y76497D02*
X72289D01*
X41529Y70251D02*
X52934D01*
X40978Y69701D02*
X41529Y70251D01*
X192527Y104498D02*
X198276Y110247D01*
X186768Y108262D02*
X190532Y104498D01*
X180024Y102866D02*
X185419Y108262D01*
X180024Y101518D02*
X183788Y97753D01*
X183788Y97753D02*
X183788Y97753D01*
X183290Y95261D02*
X183788Y95759D01*
X198276Y110247D02*
X200040Y112011D01*
X179390Y91361D02*
X183290Y95261D01*
X199214Y120078D02*
X200040Y119252D01*
X200845Y124017D02*
X203979Y120884D01*
X195470Y125467D02*
X196920Y124017D01*
X203979Y110379D02*
Y120884D01*
X196920Y124017D02*
X200845D01*
X173627Y91892D02*
X174157Y91361D01*
X195570Y118628D02*
X197021Y120078D01*
X200040Y112011D02*
Y119252D01*
X181022Y87423D02*
X203979Y110379D01*
X194599Y118628D02*
X195570D01*
X174157Y87423D02*
X181022D01*
X174157Y91361D02*
X179390D01*
X194498Y125467D02*
X195470D01*
X197021Y120078D02*
X199214D01*
X173627Y86892D02*
X174157Y87423D01*
X146073Y124391D02*
X160806D01*
X177341Y128623D02*
X178195D01*
X180447Y125203D02*
Y126371D01*
X183127D02*
X185380Y128623D01*
X161916Y127071D02*
X164979Y124008D01*
X163869Y121328D02*
X180363D01*
X118358Y100466D02*
X144963Y127071D01*
X160806Y124391D02*
X163869Y121328D01*
X144963Y127071D02*
X161916D01*
X180363Y121328D02*
X183127Y124093D01*
X164979Y124008D02*
X179252D01*
X180447Y125203D01*
X183127Y124093D02*
Y126371D01*
X185380Y128623D02*
X186234D01*
X119468Y97786D02*
X146073Y124391D01*
X178195Y128623D02*
X180447Y126371D01*
X86717Y97786D02*
X119468D01*
X114730Y50740D02*
X116224Y52234D01*
X107594Y43604D02*
X114730Y50740D01*
X103994Y43604D02*
X107594D01*
X103994D02*
Y52454D01*
X94456D02*
X103994D01*
X94456Y43604D02*
Y52454D01*
X93751Y43604D02*
X94456D01*
X93148D02*
X93751D01*
X82109Y54642D02*
X93148Y43604D01*
X136790Y69009D02*
X137777Y69996D01*
X134895Y70905D02*
X136117Y72126D01*
X135346Y67566D02*
X136790Y69009D01*
X132100Y64320D02*
X135341Y67561D01*
X120256Y70368D02*
X126304Y64320D01*
X113505Y63635D02*
X120244Y70374D01*
X113505Y63630D02*
X119560Y57575D01*
X118119Y50339D02*
X119559Y51778D01*
X133451Y69461D02*
X134895Y70905D01*
X130206Y66216D02*
X133446Y69456D01*
X122151Y72263D02*
X128200Y66214D01*
X111610Y65530D02*
X118349Y72269D01*
X111610Y61734D02*
X117664Y55681D01*
X116224Y52234D02*
X117664Y53674D01*
X108705Y40924D02*
X118119Y50339D01*
X80893Y91962D02*
X86717Y97786D01*
X77994Y91962D02*
X80893D01*
X76834Y90802D02*
X77994Y91962D01*
X72984Y90802D02*
X76834D01*
Y95802D02*
X77994Y94642D01*
X72984Y95802D02*
X76834D01*
X85606Y100466D02*
X118358D01*
X79783Y94642D02*
X85606Y100466D01*
X77994Y94642D02*
X79783D01*
X108309Y86282D02*
X113582Y81009D01*
X145638D01*
X147255Y79392D01*
X62163Y92283D02*
X63134D01*
X53652Y90970D02*
X60849D01*
X53484Y95802D02*
X54179Y96497D01*
X53484Y90802D02*
X53652Y90970D01*
X59651Y96497D02*
X61965Y98811D01*
X54179Y96497D02*
X59651D01*
X60849Y90970D02*
X62163Y92283D01*
X61965Y98811D02*
X62936D01*
X134504Y89357D02*
Y92944D01*
X134432Y89285D02*
X134504Y89357D01*
X129220Y91976D02*
X131015Y93771D01*
X131452D01*
X135180Y97499D01*
X182241Y52961D02*
X182364D01*
X156118Y53883D02*
X156627Y54392D01*
X147680Y96740D02*
X147681D01*
X177248Y47783D02*
X179757D01*
X143496Y34843D02*
X147755Y39102D01*
X154627Y94392D02*
X156627D01*
X149380Y94864D02*
X151012Y93232D01*
X179743Y50463D02*
X182241Y52961D01*
X150820Y49901D02*
X156118D01*
X144535Y97562D02*
X146859D01*
X175627Y51892D02*
X177056Y50463D01*
X139439Y38825D02*
X141847D01*
X173627Y51892D02*
X175627D01*
X143773Y40751D02*
Y48486D01*
X177056Y50463D02*
X179743D01*
X156118Y49901D02*
X156627Y49392D01*
X149380Y94864D02*
Y95041D01*
X136253Y94694D02*
X145634D01*
X145697Y94756D02*
X149902Y90552D01*
X134504Y92944D02*
X136253Y94694D01*
X154627Y89392D02*
X156627D01*
X145634Y94694D02*
X145697Y94756D01*
X173627Y46892D02*
X174422Y47687D01*
X136278Y33607D02*
X137249D01*
X174422Y47687D02*
X177152D01*
X138485Y34843D02*
X143496D01*
X177152Y47687D02*
X177248Y47783D01*
X147755Y46836D02*
X150820Y49901D01*
X179757Y47783D02*
X182255Y45285D01*
X137249Y33607D02*
X138485Y34843D01*
X182255Y45285D02*
X182378D01*
X141847Y38825D02*
X143773Y40751D01*
X128249Y91976D02*
X129220D01*
X135180Y97499D02*
X144472D01*
X144535Y97562D01*
X146859D02*
X147680Y96740D01*
X147681D02*
X149380Y95041D01*
X151012Y93232D02*
X153467D01*
X154627Y94392D01*
X138212Y40052D02*
X139439Y38825D01*
X149902Y90552D02*
X153467D01*
X154627Y89392D01*
X137290Y40052D02*
X138212D01*
X143773Y48486D02*
X149171Y53883D01*
X156118D01*
X147755Y39102D02*
Y46836D01*
X61007Y50802D02*
X63133Y48676D01*
X63628D01*
X53484Y50802D02*
X61007D01*
X137777Y69996D02*
X140730D01*
X92037Y40924D02*
X108705D01*
X77994Y51962D02*
X80999D01*
X92037Y40924D01*
X76834Y50802D02*
X77994Y51962D01*
X72984Y50802D02*
X76834D01*
X136117Y72126D02*
Y72980D01*
X139549Y76413D01*
X72984Y55802D02*
X76834D01*
X77994Y54642D02*
X82109D01*
X76834Y55802D02*
X77994Y54642D01*
X86714Y86282D02*
X108309D01*
X81234Y80802D02*
X86714Y86282D01*
X53484Y55802D02*
X53792Y55495D01*
X63719D01*
X64026Y55187D01*
X72984Y80802D02*
X81234D01*
X147255Y79392D02*
X156308D01*
D27*
X72980Y100800D02*
D03*
Y95800D02*
D03*
Y90800D02*
D03*
Y85800D02*
D03*
Y80800D02*
D03*
Y75800D02*
D03*
Y70800D02*
D03*
Y65800D02*
D03*
Y60800D02*
D03*
Y55800D02*
D03*
Y50800D02*
D03*
Y45800D02*
D03*
X53480D02*
D03*
Y50800D02*
D03*
Y55800D02*
D03*
Y60800D02*
D03*
Y65800D02*
D03*
Y70800D02*
D03*
Y75800D02*
D03*
Y80800D02*
D03*
Y85800D02*
D03*
Y90800D02*
D03*
Y95800D02*
D03*
Y100800D02*
D03*
D28*
X156627Y49392D02*
D03*
Y44392D02*
D03*
Y54392D02*
D03*
X156627Y59392D02*
D03*
X156627Y64392D02*
D03*
Y69392D02*
D03*
Y79392D02*
D03*
Y84392D02*
D03*
Y89392D02*
D03*
Y74392D02*
D03*
Y99392D02*
D03*
Y94392D02*
D03*
X173627Y46892D02*
D03*
Y41892D02*
D03*
Y66892D02*
D03*
Y61892D02*
D03*
Y56892D02*
D03*
Y86892D02*
D03*
X173627Y81892D02*
D03*
X173627Y76892D02*
D03*
X173627Y96892D02*
D03*
X173627Y51892D02*
D03*
X173627Y91892D02*
D03*
X173627Y71892D02*
D03*
D29*
X111327Y117441D02*
D03*
X21562Y122763D02*
D03*
X23311Y22313D02*
D03*
D30*
X187379Y89049D02*
X199084D01*
X180642Y82312D02*
X187379Y89049D01*
X84275Y91024D02*
X110386D01*
X73305Y86123D02*
X79373D01*
X84275Y91024D01*
X72984Y85802D02*
X73305Y86123D01*
X181140Y61809D02*
X182855Y60094D01*
Y59614D02*
Y60094D01*
X173710Y61809D02*
X181140D01*
X199084Y89049D02*
X204906Y83227D01*
Y26836D02*
Y83227D01*
X196555Y18485D02*
X204906Y26836D01*
X121293Y18485D02*
X196555D01*
X113032Y26746D02*
X121293Y18485D01*
X113032Y26746D02*
X120562Y34277D01*
X123835D01*
X148630Y59071D02*
X156306D01*
X156627Y59392D01*
X173306Y56571D02*
X173627Y56892D01*
X174707Y82172D02*
X174847Y82312D01*
X156947Y59071D02*
X163766D01*
X123835Y34277D02*
X148630Y59071D01*
X163766D02*
X166266Y56571D01*
X156627Y59392D02*
X156947Y59071D01*
X174847Y82312D02*
X180642D01*
X166266Y56571D02*
X173306D01*
X156627Y84392D02*
X156857Y84162D01*
X160061D01*
X160151Y84071D01*
X168013D01*
X169962Y82122D01*
X173907D01*
X173627Y61892D02*
X173710Y61809D01*
X84098Y26746D02*
X113032D01*
X77201Y19849D02*
X84098Y26746D01*
X117018Y84392D02*
X156627D01*
X110386Y91024D02*
X117018Y84392D01*
X53484Y85802D02*
X72984D01*
X53484Y85802D02*
X53484Y85802D01*
X59101Y19849D02*
X77201D01*
X43099Y57793D02*
X46109Y60802D01*
X43099Y35850D02*
X59101Y19849D01*
X43099Y35850D02*
Y57793D01*
X72664Y60482D02*
X72984Y60802D01*
X53805Y60482D02*
X72664D01*
X53484Y60802D02*
X53805Y60482D01*
X46109Y60802D02*
X53484D01*
Y65802D02*
X53805Y66123D01*
X62885D01*
X63397Y66635D01*
D31*
X190494Y85175D02*
X197170D01*
X182210Y76892D02*
X190494Y85175D01*
X173627Y76892D02*
X182210D01*
X44394Y82712D02*
X46180Y80926D01*
X44394Y82712D02*
Y90487D01*
X48686Y80924D02*
X49754D01*
X48684Y80926D02*
X48686Y80924D01*
X46180Y80926D02*
X48684D01*
X153724Y64368D02*
X156603D01*
X156627Y64392D01*
X138638Y63726D02*
X139304Y63060D01*
X145375D02*
X146040Y63726D01*
X138110Y63726D02*
X138638D01*
X139304Y63060D02*
X145375D01*
X153082Y63726D02*
X153724Y64368D01*
X146040Y63726D02*
X153082D01*
X84900Y59506D02*
X94757D01*
X98431Y63181D01*
X105922D01*
X78728Y65678D02*
X84900Y59506D01*
X164147Y44085D02*
Y52089D01*
X149184Y28296D02*
X149629Y27851D01*
X141033Y28296D02*
X149184D01*
X149629Y27851D02*
X159821D01*
X199301Y41334D02*
Y83045D01*
X197170Y85175D02*
X199301Y83045D01*
X165314Y22358D02*
X180326D01*
X199301Y41334D01*
X159821Y27851D02*
X165314Y22358D01*
X173482Y110947D02*
X175727Y113192D01*
X156651Y99416D02*
X162622D01*
X168714Y99853D02*
X173482Y104620D01*
X162622Y99416D02*
X163059Y99853D01*
X156627Y99392D02*
X156651Y99416D01*
X156627Y44392D02*
X163841D01*
X164147Y44085D01*
X168714Y99853D02*
X171675Y96892D01*
X173627D01*
X163059Y99853D02*
X168714D01*
X173482Y104620D02*
Y110947D01*
X164147Y44085D02*
X166341Y41892D01*
X173627D01*
X45734Y102588D02*
Y120500D01*
X47520Y100802D02*
X53484D01*
X45734Y102588D02*
X47520Y100802D01*
X45734Y120500D02*
X47520Y122285D01*
X57126D01*
X63234Y116177D01*
Y113402D02*
X71199D01*
X72984Y111617D01*
Y100802D02*
Y111617D01*
X63234Y113402D02*
Y116177D01*
X53484Y45802D02*
X56958D01*
X57082Y45678D01*
Y42205D02*
X62503Y36784D01*
X63966D02*
X69387Y42205D01*
X62503Y36784D02*
X63966D01*
X57082Y42205D02*
Y45678D01*
X69387Y45678D02*
X69511Y45802D01*
X72984D01*
X69387Y42205D02*
Y45678D01*
X44021Y90860D02*
X44394Y90487D01*
X72984Y65802D02*
X73108Y65678D01*
X78728D01*
X72984Y100802D02*
X72984Y100802D01*
D32*
X91230Y73300D02*
D03*
D33*
X63230Y113400D02*
D03*
Y33200D02*
D03*
D34*
X35230Y90800D02*
D03*
Y55800D02*
D03*
D35*
X235227Y26992D02*
D03*
Y116792D02*
D03*
X175727Y113192D02*
D03*
Y30592D02*
D03*
D36*
X163227Y35892D02*
D03*
D37*
X163227Y107892D02*
D03*
D38*
X184051Y66028D02*
D03*
X63206Y73156D02*
D03*
X44261Y75338D02*
D03*
X186256Y72168D02*
D03*
X63206Y79680D02*
D03*
X40978Y69701D02*
D03*
X165752Y74929D02*
D03*
X164562Y68515D02*
D03*
X187171Y116229D02*
D03*
X194498Y125467D02*
D03*
X194599Y118628D02*
D03*
X186234Y128623D02*
D03*
X177341D02*
D03*
X192408Y133340D02*
D03*
X148682Y69020D02*
D03*
X138110Y63726D02*
D03*
X164147Y52089D02*
D03*
X106733Y56504D02*
D03*
X105922Y63181D02*
D03*
X181518Y134883D02*
D03*
X141033Y28296D02*
D03*
X62936Y98811D02*
D03*
X63134Y92283D02*
D03*
X134432Y89285D02*
D03*
X182855Y59614D02*
D03*
X182364Y52961D02*
D03*
X136278Y33607D02*
D03*
X182378Y45285D02*
D03*
X128249Y91976D02*
D03*
X137290Y40052D02*
D03*
X140730Y69996D02*
D03*
X139549Y76413D02*
D03*
X121965Y90225D02*
D03*
X189450Y57622D02*
D03*
X189841Y42846D02*
D03*
X34337Y76303D02*
D03*
X132266Y27919D02*
D03*
X63628Y48676D02*
D03*
X64026Y55187D02*
D03*
X44021Y90860D02*
D03*
X63397Y66635D02*
D03*
M02*
