M48
;Layer_Color=9474304
;FILE_FORMAT=4:4
METRIC,LZ
;TYPE=PLATED
T1F00S00C0.2000
;TYPE=NON_PLATED
T4F00S00C0.6500
T5F00S00C0.7500
%
T01
X00034337Y00076303
X00044261Y00075338
X00040978Y00069701
X00044021Y0009086
X00063134Y00092283
X00062936Y00098811
X00063206Y0007968
Y00073156
X00063397Y00066635
X00064026Y00055187
X00063628Y00048676
X00106733Y00056504
X00105922Y00063181
X0013811Y00063726
X0014073Y00069996
X00139549Y00076413
X00148682Y0006902
X00164562Y00068515
X00165752Y00074929
X00186256Y00072168
X00184051Y00066028
X00182855Y00059614
X00182364Y00052961
X00182378Y00045285
X00189841Y00042846
X0018945Y00057622
X00164147Y00052089
X0013729Y00040052
X00136278Y00033607
X00132266Y00027919
X00141033Y00028296
X00134432Y00089285
X00128249Y00091976
X00121965Y00090225
X00187171Y00116229
X00194599Y00118628
X00194498Y00125467
X00192408Y0013334
X00186234Y00128623
X00177341
X00181518Y00134883
T04
X00163227Y00035892
T05
X0007253Y000352
X0005403Y001114
M30
