G04*
G04 #@! TF.GenerationSoftware,Altium Limited,Altium Designer,21.2.2 (38)*
G04*
G04 Layer_Color=8421504*
%FSLAX44Y44*%
%MOMM*%
G71*
G04*
G04 #@! TF.SameCoordinates,7EED97F9-7E78-47C0-A540-625CDB9FC899*
G04*
G04*
G04 #@! TF.FilePolarity,Positive*
G04*
G01*
G75*
%ADD14R,0.6500X0.2500*%
%ADD15R,1.0000X0.2300*%
D14*
X173627Y71892D02*
D03*
X173627Y91892D02*
D03*
X173627Y51892D02*
D03*
X173627Y96892D02*
D03*
X173627Y76892D02*
D03*
X173627Y81892D02*
D03*
X173627Y86892D02*
D03*
Y56892D02*
D03*
Y61892D02*
D03*
Y66892D02*
D03*
Y41892D02*
D03*
Y46892D02*
D03*
X156627Y94392D02*
D03*
Y99392D02*
D03*
Y74392D02*
D03*
Y89392D02*
D03*
Y84392D02*
D03*
Y79392D02*
D03*
Y69392D02*
D03*
Y64392D02*
D03*
X156627Y59392D02*
D03*
X156627Y54392D02*
D03*
Y44392D02*
D03*
Y49392D02*
D03*
D15*
X53484Y100802D02*
D03*
Y95802D02*
D03*
Y90802D02*
D03*
X53484Y85802D02*
D03*
X53484Y80802D02*
D03*
Y75802D02*
D03*
X53484Y70802D02*
D03*
X53484Y65802D02*
D03*
Y60802D02*
D03*
X53484Y55802D02*
D03*
X53484Y50802D02*
D03*
X53484Y45802D02*
D03*
X72984Y45802D02*
D03*
X72984Y50802D02*
D03*
Y55802D02*
D03*
X72984Y60802D02*
D03*
X72984Y65802D02*
D03*
Y70802D02*
D03*
X72984Y75802D02*
D03*
Y80802D02*
D03*
Y85802D02*
D03*
Y90802D02*
D03*
Y95802D02*
D03*
X72984Y100802D02*
D03*
M02*
