G04*
G04 #@! TF.GenerationSoftware,Altium Limited,Altium Designer,21.6.4 (81)*
G04*
G04 Layer_Color=1265191*
%FSLAX44Y44*%
%MOMM*%
G71*
G04*
G04 #@! TF.SameCoordinates,818ED15A-6BB5-422D-9A4C-114945B1836D*
G04*
G04*
G04 #@! TF.FilePolarity,Positive*
G04*
G01*
G75*
%ADD11C,0.1270*%
%ADD13C,0.5080*%
D11*
X93547Y135221D02*
X129107D01*
X93547Y99661D02*
X129107D01*
X106247Y117441D02*
X116407D01*
X111327Y112361D02*
Y122521D01*
X129107Y99661D02*
Y135221D01*
X93547Y99661D02*
Y135221D01*
X3782Y140543D02*
X39342D01*
X3782Y104983D02*
X39342D01*
X16482Y122763D02*
X26642D01*
X21562Y117683D02*
Y127843D01*
X39342Y104983D02*
Y140543D01*
X3782Y104983D02*
Y140543D01*
X5531Y40093D02*
X41091D01*
X5531Y4533D02*
X41091D01*
X18231Y22313D02*
X28391D01*
X23311Y17233D02*
Y27393D01*
X41091Y4533D02*
Y40093D01*
X5531Y4533D02*
Y40093D01*
D13*
X420179Y-374859D02*
Y-400250D01*
X432875D01*
X437107Y-396018D01*
Y-391786D01*
X432875Y-387555D01*
X420179D01*
X432875D01*
X437107Y-383323D01*
Y-379091D01*
X432875Y-374859D01*
X420179D01*
X458267D02*
X449803D01*
X445571Y-379091D01*
Y-396018D01*
X449803Y-400250D01*
X458267D01*
X462499Y-396018D01*
Y-379091D01*
X458267Y-374859D01*
X470963D02*
X487891D01*
X479427D01*
Y-400250D01*
X496354Y-374859D02*
X513282D01*
X504818D01*
Y-400250D01*
X534442Y-374859D02*
X525978D01*
X521746Y-379091D01*
Y-396018D01*
X525978Y-400250D01*
X534442D01*
X538674Y-396018D01*
Y-379091D01*
X534442Y-374859D01*
X547138Y-400250D02*
Y-374859D01*
X555602Y-383323D01*
X564066Y-374859D01*
Y-400250D01*
X614850Y-379091D02*
X610618Y-374859D01*
X602154D01*
X597922Y-379091D01*
Y-396018D01*
X602154Y-400250D01*
X610618D01*
X614850Y-396018D01*
X636009Y-374859D02*
X627546D01*
X623313Y-379091D01*
Y-396018D01*
X627546Y-400250D01*
X636009D01*
X640241Y-396018D01*
Y-379091D01*
X636009Y-374859D01*
X648705D02*
Y-396018D01*
X652937Y-400250D01*
X661401D01*
X665633Y-396018D01*
Y-374859D01*
X674097Y-400250D02*
Y-374859D01*
X686793D01*
X691025Y-379091D01*
Y-387555D01*
X686793Y-391786D01*
X674097D01*
X682561D02*
X691025Y-400250D01*
X699489Y-374859D02*
X716417D01*
X707953D01*
Y-400250D01*
X724881Y-374859D02*
Y-379091D01*
X733345Y-387555D01*
X741808Y-379091D01*
Y-374859D01*
X733345Y-387555D02*
Y-400250D01*
X750273D02*
Y-383323D01*
X758736Y-374859D01*
X767200Y-383323D01*
Y-400250D01*
Y-387555D01*
X750273D01*
X775664Y-400250D02*
Y-374859D01*
X788360D01*
X792592Y-379091D01*
Y-387555D01*
X788360Y-391786D01*
X775664D01*
X784128D02*
X792592Y-400250D01*
X801056Y-374859D02*
Y-400250D01*
X813752D01*
X817984Y-396018D01*
Y-379091D01*
X813752Y-374859D01*
X801056D01*
M02*
