G04*
G04 #@! TF.GenerationSoftware,Altium Limited,Altium Designer,21.6.4 (81)*
G04*
G04 Layer_Physical_Order=4*
G04 Layer_Color=16711680*
%FSLAX44Y44*%
%MOMM*%
G71*
G04*
G04 #@! TF.SameCoordinates,818ED15A-6BB5-422D-9A4C-114945B1836D*
G04*
G04*
G04 #@! TF.FilePolarity,Positive*
G04*
G01*
G75*
%ADD13C,0.5080*%
%ADD22C,0.7500*%
%ADD29C,1.0000*%
%ADD30C,0.2159*%
%ADD31C,0.3048*%
%ADD32O,1.1000X2.2000*%
%ADD33O,0.7500X1.7000*%
%ADD34O,1.0000X2.0000*%
%ADD35O,1.4000X0.8000*%
%ADD36C,0.6500*%
%ADD37O,0.6500X0.9500*%
%ADD38C,0.5000*%
%ADD48C,0.1414*%
D13*
X420179Y474778D02*
Y449386D01*
X437107D01*
X445571D02*
Y466314D01*
X454035Y474778D01*
X462499Y466314D01*
Y449386D01*
Y462082D01*
X445571D01*
X470963Y474778D02*
Y470546D01*
X479427Y462082D01*
X487891Y470546D01*
Y474778D01*
X479427Y462082D02*
Y449386D01*
X513282Y474778D02*
X496354D01*
Y449386D01*
X513282D01*
X496354Y462082D02*
X504818D01*
X521746Y449386D02*
Y474778D01*
X534442D01*
X538674Y470546D01*
Y462082D01*
X534442Y457850D01*
X521746D01*
X530210D02*
X538674Y449386D01*
X585226D02*
Y474778D01*
X572530Y462082D01*
X589458D01*
X597922Y466314D02*
X602154D01*
Y462082D01*
X597922D01*
Y466314D01*
Y453618D02*
X602154D01*
Y449386D01*
X597922D01*
Y453618D01*
X644473Y474778D02*
Y449386D01*
X657169D01*
X661401Y453618D01*
Y457850D01*
X657169Y462082D01*
X644473D01*
X657169D01*
X661401Y466314D01*
Y470546D01*
X657169Y474778D01*
X644473D01*
X682561D02*
X674097D01*
X669865Y470546D01*
Y453618D01*
X674097Y449386D01*
X682561D01*
X686793Y453618D01*
Y470546D01*
X682561Y474778D01*
X695257D02*
X712185D01*
X703721D01*
Y449386D01*
X720649Y474778D02*
X737577D01*
X729113D01*
Y449386D01*
X758736Y474778D02*
X750273D01*
X746040Y470546D01*
Y453618D01*
X750273Y449386D01*
X758736D01*
X762968Y453618D01*
Y470546D01*
X758736Y474778D01*
X771432Y449386D02*
Y474778D01*
X779896Y466314D01*
X788360Y474778D01*
Y449386D01*
D22*
X72530Y35200D02*
D03*
X54030Y111400D02*
D03*
D29*
X111327Y117441D02*
D03*
X21562Y122763D02*
D03*
X23311Y22313D02*
D03*
D30*
X177442Y58026D02*
X180498D01*
X160907Y41491D02*
X160907D01*
X177442Y58026D01*
X157627Y38211D02*
X160907Y41491D01*
X140336Y20740D02*
X157627Y38032D01*
Y38211D01*
X54878Y20740D02*
X140336D01*
X180498Y58026D02*
X182086Y59614D01*
X182855D01*
X53613Y22005D02*
X54878Y20740D01*
X53613Y22005D02*
Y56851D01*
X63397Y66635D01*
D31*
X137737Y64100D02*
X138110Y63726D01*
X126603Y69340D02*
X131844Y64100D01*
X137737D01*
X126917Y51474D02*
X136060D01*
X115210Y63181D02*
X126917Y51474D01*
X105922Y63181D02*
X115210D01*
X141406Y31249D02*
X141672Y31514D01*
X141406Y28669D02*
Y31249D01*
X141033Y28296D02*
X141406Y28669D01*
X71097Y86989D02*
X77389Y93282D01*
X58733Y86989D02*
X71097D01*
X54862Y90860D02*
X58733Y86989D01*
X83126Y95671D02*
X97439D01*
X77389Y93282D02*
X80738D01*
X83126Y95671D01*
X97439D02*
X123770Y69340D01*
X141672Y31514D02*
Y34669D01*
X144375Y37372D01*
Y43160D01*
X123770Y69340D02*
X126603D01*
X136060Y51474D02*
X144375Y43160D01*
X44021Y90860D02*
X54862D01*
D32*
X91230Y73300D02*
D03*
D33*
X63230Y113400D02*
D03*
Y33200D02*
D03*
D34*
X35230Y90800D02*
D03*
Y55800D02*
D03*
D35*
X235227Y26992D02*
D03*
Y116792D02*
D03*
X175727Y113192D02*
D03*
Y30592D02*
D03*
D36*
X163227Y35892D02*
D03*
D37*
X163227Y107892D02*
D03*
D38*
X184051Y66028D02*
D03*
X63206Y73156D02*
D03*
X44261Y75338D02*
D03*
X186256Y72168D02*
D03*
X63206Y79680D02*
D03*
X40978Y69701D02*
D03*
X165752Y74929D02*
D03*
X164562Y68515D02*
D03*
X187171Y116229D02*
D03*
X194498Y125467D02*
D03*
X194599Y118628D02*
D03*
X186234Y128623D02*
D03*
X177341D02*
D03*
X192408Y133340D02*
D03*
X148682Y69020D02*
D03*
X138110Y63726D02*
D03*
X164147Y52089D02*
D03*
X106733Y56504D02*
D03*
X105922Y63181D02*
D03*
X181518Y134883D02*
D03*
X141033Y28296D02*
D03*
X62936Y98811D02*
D03*
X63134Y92283D02*
D03*
X134432Y89285D02*
D03*
X182855Y59614D02*
D03*
X182364Y52961D02*
D03*
X136278Y33607D02*
D03*
X182378Y45285D02*
D03*
X128249Y91976D02*
D03*
X137290Y40052D02*
D03*
X140730Y69996D02*
D03*
X139549Y76413D02*
D03*
X121965Y90225D02*
D03*
X189450Y57622D02*
D03*
X189841Y42846D02*
D03*
X34337Y76303D02*
D03*
X132266Y27919D02*
D03*
X63628Y48676D02*
D03*
X64026Y55187D02*
D03*
X44021Y90860D02*
D03*
X63397Y66635D02*
D03*
D48*
X84142Y55351D02*
G03*
X85555Y53937I1414J0D01*
G01*
X84142Y55351D02*
G03*
X83188Y56305I-954J0D01*
G01*
X75554D02*
G03*
X74600Y55351I0J-954D01*
G01*
X73186Y53937D02*
G03*
X74600Y55351I0J1414D01*
G01*
X201998Y54534D02*
G03*
X200584Y55947I-1414J0D01*
G01*
X196192Y56902D02*
G03*
X197147Y55947I954J0D01*
G01*
Y65489D02*
G03*
X196192Y64535I0J-954D01*
G01*
X200584Y65489D02*
G03*
X201998Y66903I0J1414D01*
G01*
X85555Y53937D02*
X88278D01*
X84142Y55351D02*
Y55351D01*
X75554Y56305D02*
X83188D01*
X74600Y55351D02*
Y55351D01*
X72479Y53937D02*
X73186D01*
X88278D02*
X93013D01*
X69075D02*
X72479D01*
X68511Y54501D02*
X69075Y53937D01*
X64713Y54501D02*
X68511D01*
X64026Y55187D02*
X64713Y54501D01*
X93013Y53937D02*
X107970Y38981D01*
X134164Y39374D02*
X136612D01*
X107970Y38981D02*
X133770D01*
X134164Y39374D01*
X136612D02*
X137290Y40052D01*
X67176Y51253D02*
X69480D01*
X90649D01*
X201542Y51873D02*
X201998Y52329D01*
Y54534D01*
X197147Y55947D02*
X200584D01*
X196192Y56902D02*
Y64535D01*
X197147Y65489D02*
X200584D01*
X201998Y66903D02*
Y76553D01*
X201399Y77152D02*
X201998Y76553D01*
X201169Y51501D02*
X201542Y51873D01*
X181207Y97343D02*
X201399Y77152D01*
X184494Y84883D02*
X195663Y73715D01*
X179046Y84883D02*
X184494D01*
X43053Y79959D02*
X48465D01*
X60585Y75076D02*
X62469Y73192D01*
X58095Y75076D02*
X60585D01*
X58095Y74846D02*
Y75076D01*
X53634Y74846D02*
X58095D01*
X53634D02*
Y75732D01*
X49172D02*
X53634D01*
X49172D02*
Y79959D01*
X48465D02*
X49172D01*
X62469Y73192D02*
X62505Y73156D01*
X63206D01*
X185606Y87567D02*
X198346Y74826D01*
X177934Y87567D02*
X185606D01*
X172916Y82549D02*
X177934Y87567D01*
X172916Y75559D02*
Y82549D01*
X198346Y71432D02*
Y74826D01*
X179230Y68622D02*
X181430D01*
X194259Y67344D02*
X198346Y71432D01*
X185022Y66028D02*
X186338Y67344D01*
X181430Y68622D02*
X184025Y66028D01*
X186338Y67344D02*
X194259D01*
X184051Y66028D02*
X185022D01*
X184025D02*
X184051D01*
X167173Y56566D02*
X179230Y68622D01*
X83005Y86802D02*
X96540D01*
X70612Y74409D02*
X83005Y86802D01*
X66999Y74628D02*
X67217Y74409D01*
X70612D01*
X65649Y74628D02*
X66999D01*
X42225Y77960D02*
X44261Y75924D01*
X42225Y79131D02*
X43053Y79959D01*
X42225Y77960D02*
Y79131D01*
X44261Y75338D02*
Y75924D01*
X96540Y86802D02*
X126777Y56566D01*
X167173D01*
X64177Y73156D02*
X65649Y74628D01*
X63206Y73156D02*
X64177D01*
X195663Y72544D02*
Y73715D01*
X186256Y72168D02*
X186737D01*
X185570Y71482D02*
X186256Y72168D01*
X183811Y71482D02*
X185570D01*
X178118Y71306D02*
X183635D01*
X183811Y71482D01*
X186737Y72168D02*
X188877Y70028D01*
X193147D02*
X195663Y72544D01*
X188877Y70028D02*
X193147D01*
X166061Y59249D02*
X178118Y71306D01*
X81893Y89486D02*
X97651D01*
X69500Y77093D02*
X81893Y89486D01*
X63907Y79680D02*
X66276Y77312D01*
X68110D02*
X68329Y77093D01*
X69500D01*
X66276Y77312D02*
X68110D01*
X50509Y82643D02*
X55392Y77760D01*
X60585D02*
X62505Y79680D01*
X41942Y82643D02*
X50509D01*
X39541Y80243D02*
X41942Y82643D01*
X63206Y79680D02*
X63907D01*
X62505D02*
X63206D01*
X55392Y77760D02*
X60585D01*
X97651Y89486D02*
X127888Y59249D01*
X166061D01*
X39541Y73727D02*
X40292Y72976D01*
Y70387D02*
Y72976D01*
X39541Y73727D02*
Y80243D01*
X40292Y70387D02*
X40978Y69701D01*
X170141Y72784D02*
X172916Y75559D01*
X165752Y74929D02*
X166228D01*
X164562Y68515D02*
X165532D01*
X167118Y70100D01*
X171252D01*
X168373Y72784D02*
X170141D01*
X171252Y70100D02*
X175600Y74448D01*
X166228Y74929D02*
X168373Y72784D01*
X175600Y74448D02*
Y81437D01*
X179046Y84883D01*
X170866Y86375D02*
Y91228D01*
X157988Y73497D02*
X170866Y86375D01*
X156877Y76181D02*
X168182Y87486D01*
X167434Y94659D02*
X170866Y91228D01*
X168182Y87486D02*
Y90116D01*
X131903Y94659D02*
X167434D01*
X137053Y91976D02*
X166323D01*
X168182Y90116D01*
X146828Y73497D02*
X157988D01*
X145716Y76181D02*
X156877D01*
X182319Y100027D02*
X202840Y79505D01*
X104441Y100027D02*
X182319D01*
X202840Y79505D02*
X204681Y77664D01*
X103330Y97343D02*
X181207D01*
X191877Y123389D02*
X193955Y125467D01*
X194498D01*
X183821Y120705D02*
X191978D01*
X184933Y123389D02*
X191877D01*
X194056Y118628D02*
X194599D01*
X191978Y120705D02*
X194056Y118628D01*
X180445Y124081D02*
Y126364D01*
X178187Y128623D02*
X180445Y126364D01*
X183129Y125193D02*
Y126364D01*
X180445Y124081D02*
X183821Y120705D01*
X185388Y128623D02*
X186234D01*
X183129Y125193D02*
X184933Y123389D01*
X177341Y128623D02*
X178187D01*
X183129Y126364D02*
X185388Y128623D01*
X144359Y74824D02*
X145716Y76181D01*
X145471Y72140D02*
X146828Y73497D01*
X142109Y74824D02*
X144359D01*
X143351Y72140D02*
X145471D01*
X70017Y94251D02*
X72896Y97131D01*
X65756Y94251D02*
X70017D01*
X62936Y98811D02*
X63681D01*
X65558Y96935D01*
X71785Y99814D02*
X78524D01*
X65558Y96935D02*
X68905D01*
X79636Y97131D02*
X81676Y99171D01*
X68905Y96935D02*
X71785Y99814D01*
X63788Y92283D02*
X65756Y94251D01*
X72896Y97131D02*
X79636D01*
X63134Y92283D02*
X63788D01*
X101501Y99171D02*
X103330Y97343D01*
X78524Y99814D02*
X80565Y101855D01*
X102613D01*
X81676Y99171D02*
X101501D01*
X102613Y101855D02*
X104441Y100027D01*
X134432Y89354D02*
X137053Y91976D01*
X129219Y91976D02*
X131903Y94659D01*
X134432Y89285D02*
Y89354D01*
X128249Y91976D02*
X129219D01*
X140520Y76413D02*
X142109Y74824D01*
X140730Y69996D02*
X141207D01*
X143351Y72140D01*
X139549Y76413D02*
X140520D01*
X204681Y51217D02*
Y77664D01*
X190035Y48817D02*
X202281D01*
X188924Y51501D02*
X201169D01*
X202281Y48817D02*
X204681Y51217D01*
X186492Y50240D02*
X187664D01*
X185620Y47557D02*
X188775D01*
X187664Y50240D02*
X188924Y51501D01*
X188775Y47557D02*
X190035Y48817D01*
X184359Y51501D02*
X185232D01*
X183348Y45285D02*
X185620Y47557D01*
X185232Y51501D02*
X186492Y50240D01*
X182378Y45285D02*
X183348D01*
X105605Y36297D02*
X133770D01*
X90649Y51253D02*
X105605Y36297D01*
X136278Y33607D02*
Y33789D01*
X133770Y36297D02*
X136278Y33789D01*
X64598Y48676D02*
X67176Y51253D01*
X63628Y48676D02*
X64598D01*
M02*
