G04*
G04 #@! TF.GenerationSoftware,Altium Limited,Altium Designer,20.1.11 (218)*
G04*
G04 Layer_Color=128*
%FSLAX24Y24*%
%MOIN*%
G70*
G04*
G04 #@! TF.SameCoordinates,CE7CCB8B-9279-4727-9A7C-73EE909CC9FE*
G04*
G04*
G04 #@! TF.FilePolarity,Positive*
G04*
G01*
G75*
%ADD100C,0.0020*%
D100*
X8010Y21992D02*
X8410D01*
X8210Y21792D02*
Y22192D01*
X7010Y21992D02*
X7410D01*
X7210Y21792D02*
Y22192D01*
X15973Y19061D02*
X16288D01*
X16130Y18903D02*
Y19218D01*
X15973Y22053D02*
X16288D01*
X16130Y21896D02*
Y22211D01*
X1319Y21654D02*
X2618D01*
X1969Y21004D02*
Y22303D01*
X21004Y21654D02*
X22303D01*
X21654Y21004D02*
Y22303D01*
X22181Y14567D02*
X22732D01*
X22457Y14291D02*
Y14843D01*
X20181Y14567D02*
X20732D01*
X20457Y14291D02*
Y14843D01*
X890Y4921D02*
X1441D01*
X1165Y4646D02*
Y5197D01*
X2890Y4921D02*
X3441D01*
X3165Y4646D02*
Y5197D01*
X2890Y14567D02*
X3441D01*
X3165Y14291D02*
Y14843D01*
X890Y14567D02*
X1441D01*
X1165Y14291D02*
Y14843D01*
X9539Y17823D02*
X9814D01*
X9677Y17686D02*
Y17961D01*
X11539Y17823D02*
X11814D01*
X11677Y17686D02*
Y17961D01*
X10539Y16823D02*
X10814D01*
X10677Y16686D02*
Y16961D01*
X16968Y11526D02*
X17598D01*
X17283Y11211D02*
Y11841D01*
X11398Y3086D02*
X11791D01*
X11594Y2889D02*
Y3283D01*
X13398Y3086D02*
X13791D01*
X13594Y2889D02*
Y3283D01*
X14398Y3086D02*
X14791D01*
X14594Y2889D02*
Y3283D01*
X15398Y3086D02*
X15791D01*
X15594Y2889D02*
Y3283D01*
X15398Y1086D02*
X15791D01*
X15594Y889D02*
Y1283D01*
X14398Y1086D02*
X14791D01*
X14594Y889D02*
Y1283D01*
X13398Y1086D02*
X13791D01*
X13594Y889D02*
Y1283D01*
X11398Y1086D02*
X11791D01*
X11594Y889D02*
Y1283D01*
X890Y18701D02*
X1441D01*
X1165Y18425D02*
Y18976D01*
X2890Y18701D02*
X3441D01*
X3165Y18425D02*
Y18976D01*
X5829Y17823D02*
X6105D01*
X5967Y17686D02*
Y17961D01*
X7829Y17823D02*
X8105D01*
X7967Y17686D02*
Y17961D01*
X6829Y16823D02*
X7105D01*
X6967Y16686D02*
Y16961D01*
X21004Y1969D02*
X22303D01*
X21654Y1319D02*
Y2618D01*
X890Y9055D02*
X1441D01*
X1165Y8780D02*
Y9331D01*
X2890Y9055D02*
X3441D01*
X3165Y8780D02*
Y9331D01*
X22181Y18701D02*
X22732D01*
X22457Y18425D02*
Y18976D01*
X20181Y18701D02*
X20732D01*
X20457Y18425D02*
Y18976D01*
X22200Y9970D02*
X22600D01*
X22400Y9770D02*
Y10170D01*
X22200Y8970D02*
X22600D01*
X22400Y8770D02*
Y9170D01*
X22200Y7970D02*
X22600D01*
X22400Y7770D02*
Y8170D01*
X22200Y6974D02*
X22600D01*
X22400Y6774D02*
Y7174D01*
X1319Y1969D02*
X2618D01*
X1969Y1319D02*
Y2618D01*
X6241Y10320D02*
X7020D01*
X6630Y9930D02*
Y10710D01*
X6241Y7486D02*
X7020D01*
X6630Y7096D02*
Y7875D01*
X6241Y3883D02*
X7020D01*
X6630Y3493D02*
Y4273D01*
X6241Y1048D02*
X7020D01*
X6630Y659D02*
Y1438D01*
X3877Y21730D02*
X4507D01*
X4192Y21415D02*
Y22045D01*
X18621Y1280D02*
X18739D01*
X18680Y1221D02*
Y1339D01*
X17704Y4649D02*
X17823D01*
X17764Y4590D02*
Y4708D01*
X10531Y14640D02*
X10649D01*
X10590Y14581D02*
Y14699D01*
X18771Y4170D02*
X18889D01*
X18830Y4111D02*
Y4229D01*
X4953Y11823D02*
X5071D01*
X5012Y11764D02*
Y11882D01*
X18086Y17629D02*
X18204D01*
X18145Y17570D02*
Y17688D01*
X18075Y15421D02*
X18193D01*
X18134Y15362D02*
Y15480D01*
X10221Y15915D02*
X10339D01*
X10280Y15856D02*
Y15974D01*
X23208Y6259D02*
X23326D01*
X23267Y6200D02*
Y6318D01*
X22275Y6237D02*
X22393D01*
X22334Y6178D02*
Y6296D01*
X23195Y7244D02*
X23313D01*
X23254Y7185D02*
Y7303D01*
X21412Y7209D02*
X21530D01*
X21471Y7150D02*
Y7268D01*
X21136Y6073D02*
X21254D01*
X21195Y6014D02*
Y6132D01*
X21492Y6073D02*
X21610D01*
X21551Y6014D02*
Y6132D01*
X9237Y3278D02*
X9355D01*
X9296Y3219D02*
Y3337D01*
X9001Y3041D02*
X9119D01*
X9060Y2982D02*
Y3100D01*
X8765Y3278D02*
X8883D01*
X8824Y3219D02*
Y3337D01*
X9473Y3041D02*
X9591D01*
X9532Y2982D02*
Y3100D01*
X8528Y3041D02*
X8647D01*
X8587Y2982D02*
Y3100D01*
X10070Y8592D02*
X10189D01*
X10129Y8533D02*
Y8651D01*
X10426Y8592D02*
X10544D01*
X10485Y8533D02*
Y8651D01*
X10438Y7013D02*
X10557D01*
X10498Y6954D02*
Y7072D01*
X10083Y7013D02*
X10201D01*
X10142Y6954D02*
Y7072D01*
X9483Y7958D02*
X9601D01*
X9542Y7899D02*
Y8017D01*
X9483Y7602D02*
X9601D01*
X9542Y7543D02*
Y7661D01*
X11546Y6830D02*
X11664D01*
X11605Y6771D02*
Y6889D01*
X11546Y6474D02*
X11664D01*
X11605Y6415D02*
Y6533D01*
X9753Y5931D02*
X9871D01*
X9812Y5872D02*
Y5990D01*
X8736Y5960D02*
X8854D01*
X8795Y5901D02*
Y6019D01*
X9092Y5960D02*
X9210D01*
X9151Y5901D02*
Y6019D01*
X12904Y14971D02*
X13022D01*
X12963Y14912D02*
Y15030D01*
X12904Y13972D02*
X13022D01*
X12963Y13913D02*
Y14031D01*
X12904Y13616D02*
X13022D01*
X12963Y13557D02*
Y13676D01*
X12904Y14615D02*
X13022D01*
X12963Y14556D02*
Y14674D01*
X18688Y661D02*
X18806D01*
X18747Y602D02*
Y720D01*
X15788Y16350D02*
X15906D01*
X15847Y16291D02*
Y16409D01*
X16961Y7220D02*
X17079D01*
X17020Y7161D02*
Y7279D01*
X11829Y22516D02*
X11947D01*
X11888Y22457D02*
Y22575D01*
X8491Y12870D02*
X8609D01*
X8550Y12811D02*
Y12929D01*
X10093Y13623D02*
X10211D01*
X10152Y13563D02*
Y13682D01*
X10679Y15411D02*
X10797D01*
X10738Y15352D02*
Y15470D01*
X6744Y14007D02*
X6862D01*
X6803Y13948D02*
Y14066D01*
X6918Y15363D02*
X7036D01*
X6977Y15304D02*
Y15422D01*
X6764Y14625D02*
X6882D01*
X6823Y14566D02*
Y14684D01*
X5606Y13240D02*
X5724D01*
X5665Y13181D02*
Y13299D01*
X16971Y8330D02*
X17089D01*
X17030Y8271D02*
Y8389D01*
X17327Y15655D02*
X17445D01*
X17386Y15596D02*
Y15714D01*
X15788Y14151D02*
X15906D01*
X15847Y14092D02*
Y14210D01*
X18790Y11114D02*
X18908D01*
X18849Y11055D02*
Y11174D01*
X18790Y12059D02*
X18908D01*
X18849Y12000D02*
Y12118D01*
X18554Y11351D02*
X18672D01*
X18613Y11292D02*
Y11410D01*
X18790Y11587D02*
X18908D01*
X18849Y11528D02*
Y11646D01*
X18554Y11823D02*
X18672D01*
X18613Y11764D02*
Y11882D01*
X19514Y3884D02*
X19633D01*
X19574Y3825D02*
Y3943D01*
X18655Y2483D02*
X18773D01*
X18714Y2424D02*
Y2542D01*
X18778Y7169D02*
X18896D01*
X18837Y7110D02*
Y7228D01*
X19768Y8559D02*
X19886D01*
X19827Y8500D02*
Y8618D01*
X18778Y8365D02*
X18896D01*
X18837Y8306D02*
Y8425D01*
X18652Y1851D02*
X18770D01*
X18711Y1792D02*
Y1910D01*
M02*
