G04*
G04 #@! TF.GenerationSoftware,Altium Limited,Altium Designer,20.1.11 (218)*
G04*
G04 Layer_Color=65535*
%FSLAX24Y24*%
%MOIN*%
G70*
G04*
G04 #@! TF.SameCoordinates,522EB564-B50E-41CF-8AB2-68DE8166EB9C*
G04*
G04*
G04 #@! TF.FilePolarity,Positive*
G04*
G01*
G75*
%ADD10C,0.0039*%
%ADD11C,0.0100*%
%ADD12C,0.0098*%
%ADD13C,0.0050*%
%ADD14C,0.0197*%
%ADD15C,0.0079*%
%ADD16C,0.0236*%
%ADD17C,0.0060*%
%ADD18C,0.0080*%
%ADD19C,0.0070*%
%ADD20C,0.0070*%
%ADD21C,0.0059*%
%ADD22C,0.0071*%
%ADD23C,0.0047*%
%ADD24R,0.0251X0.0236*%
%ADD25R,0.0262X0.0236*%
%ADD26R,0.0236X0.0251*%
%ADD27R,0.0236X0.0262*%
%ADD28R,0.2756X0.1969*%
D10*
X4857Y5369D02*
G03*
X4857Y5369I-20J0D01*
G01*
X9651Y21901D02*
G03*
X9651Y21901I-20J0D01*
G01*
X14199Y40295D02*
G03*
X14199Y40295I-20J0D01*
G01*
X14209Y6229D02*
G03*
X14209Y6229I-20J0D01*
G01*
X20099D02*
G03*
X20099Y6229I-20J0D01*
G01*
X17976Y9869D02*
G03*
X17976Y9869I-79J0D01*
G01*
X14199Y3955D02*
X14356D01*
X14199D02*
Y4113D01*
X16718Y3955D02*
Y4113D01*
X16561Y3955D02*
X16718D01*
X16561Y6475D02*
X16718D01*
Y6318D02*
Y6475D01*
X14199Y6318D02*
Y6475D01*
X14356D01*
X13921Y9216D02*
Y10068D01*
Y9216D02*
X14857D01*
X14962Y9112D01*
Y8692D02*
Y9112D01*
Y8692D02*
X15076Y8577D01*
Y8480D02*
Y8577D01*
X15273Y9386D02*
X15471D01*
Y9583D01*
X14431Y9386D02*
X14629D01*
X14431D02*
Y9583D01*
Y10606D02*
X14629D01*
X14431Y10409D02*
Y10606D01*
X15273D02*
X15471D01*
Y10409D02*
Y10606D01*
X20090Y6475D02*
X20247D01*
X20090Y6318D02*
Y6475D01*
X22609Y6318D02*
Y6475D01*
X22452D02*
X22609D01*
X22452Y3955D02*
X22609D01*
Y4113D01*
X20090Y3955D02*
Y4113D01*
Y3955D02*
X20247D01*
X20341Y2707D02*
X20559Y2924D01*
X20070Y7494D02*
Y7559D01*
X20418Y7565D02*
X20506Y7477D01*
X18561Y7565D02*
X20418D01*
X18465Y7661D02*
X18561Y7565D01*
X18465Y7661D02*
Y8324D01*
X20341Y2280D02*
Y2707D01*
X19563Y1502D02*
X20341Y2280D01*
X18791Y1502D02*
X19563D01*
X14624Y2670D02*
Y2845D01*
X14159Y2204D02*
X14624Y2670D01*
X12987Y2204D02*
X14159D01*
X12945Y2163D02*
X12987Y2204D01*
X14864Y2072D02*
X15455D01*
X14864Y2859D02*
X15455D01*
X20736Y2851D02*
X21326D01*
X20736Y2063D02*
X21326D01*
D11*
X14428Y40306D02*
G03*
X14428Y40306I-39J0D01*
G01*
X5770Y28216D02*
G03*
X5770Y28216I-50J0D01*
G01*
X15338Y1921D02*
G03*
X15338Y1921I-14J0D01*
G01*
X11870Y35666D02*
G03*
X11870Y35666I-50J0D01*
G01*
X21210Y1912D02*
G03*
X21210Y1912I-14J0D01*
G01*
X6860Y33900D02*
X7360D01*
Y31900D02*
Y33900D01*
X6360Y31900D02*
X7360D01*
X6360D02*
Y33900D01*
X6860D01*
X7343Y29810D02*
X7961D01*
X7964Y24026D02*
Y30780D01*
X8296Y31111D01*
X7964Y24026D02*
X8296Y23694D01*
X7160Y25316D02*
Y28516D01*
X5960Y25316D02*
X7160D01*
X5960D02*
Y28516D01*
X7160D01*
X11521Y34883D02*
Y36083D01*
X8321D02*
X11521D01*
X8321Y34883D02*
Y36083D01*
Y34883D02*
X11521D01*
X15849Y32333D02*
X17818D01*
X15849Y29774D02*
Y32333D01*
Y29774D02*
X17818D01*
Y32333D01*
X4618Y39224D02*
X4218D01*
Y38924D01*
X4418Y39024D01*
X4518D01*
X4618Y38924D01*
Y38724D01*
X4518Y38624D01*
X4318D01*
X4218Y38724D01*
X4818Y39224D02*
Y38824D01*
X5018Y38624D01*
X5218Y38824D01*
Y39224D01*
X10080Y40135D02*
X10480D01*
X4908Y40214D02*
X5308D01*
X5108Y40414D02*
Y40014D01*
D12*
X6004Y3652D02*
G03*
X6004Y3652I-49J0D01*
G01*
X6210Y32049D02*
G03*
X6210Y32049I-49J0D01*
G01*
X18398Y35155D02*
G03*
X18398Y35155I-49J0D01*
G01*
X16073Y7913D02*
G03*
X16073Y7913I-20J0D01*
G01*
X20985Y10540D02*
G03*
X20985Y10540I-27J0D01*
G01*
X11631Y32936D02*
G03*
X11631Y32936I-49J0D01*
G01*
X18536Y31006D02*
G03*
X18536Y31006I-49J0D01*
G01*
X11598Y32347D02*
G03*
X11598Y32347I-49J0D01*
G01*
X10523Y34075D02*
G03*
X10523Y34075I-49J0D01*
G01*
X8250Y32984D02*
G03*
X8250Y32984I-49J0D01*
G01*
X8576Y32663D02*
G03*
X8576Y32663I-49J0D01*
G01*
D13*
X10436Y26171D02*
G03*
X10436Y26171I-20J0D01*
G01*
X11624Y30443D02*
G03*
X11624Y30443I-20J0D01*
G01*
X19203Y23071D02*
G03*
X19203Y23071I-394J0D01*
G01*
X19216Y24258D02*
G03*
X19216Y24258I-394J0D01*
G01*
X20387Y39081D02*
G03*
X20387Y39081I-660J0D01*
G01*
X8986Y29071D02*
G03*
X8986Y29071I-394J0D01*
G01*
Y27493D02*
G03*
X8986Y27493I-394J0D01*
G01*
Y25914D02*
G03*
X8986Y25914I-394J0D01*
G01*
Y24336D02*
G03*
X8986Y24336I-394J0D01*
G01*
X16189Y25813D02*
G03*
X16189Y25813I-20J0D01*
G01*
X17776Y9417D02*
G03*
X17776Y9417I-24J0D01*
G01*
X8986Y30650D02*
G03*
X8986Y30650I-394J0D01*
G01*
X16720Y27483D02*
G03*
X16720Y27483I-660J0D01*
G01*
X21403Y23622D02*
G03*
X21403Y23622I-660J0D01*
G01*
X18128Y28679D02*
G03*
X18128Y28679I-660J0D01*
G01*
X20943D02*
G03*
X20943Y28679I-660J0D01*
G01*
X19536Y27483D02*
G03*
X19536Y27483I-660J0D01*
G01*
X21246Y32292D02*
G03*
X21246Y32292I-394J0D01*
G01*
X19396D02*
G03*
X19396Y32292I-394J0D01*
G01*
X13174Y35483D02*
G03*
X13174Y35483I-394J0D01*
G01*
X7149D02*
G03*
X7149Y35483I-394J0D01*
G01*
X13423Y31272D02*
G03*
X13423Y31272I-394J0D01*
G01*
X2392Y1228D02*
G03*
X2392Y1228I-660J0D01*
G01*
X26916Y1273D02*
G03*
X26916Y1273I-660J0D01*
G01*
X25681Y4125D02*
X26981D01*
X25681Y2825D02*
Y4125D01*
X26981Y2825D02*
Y4125D01*
X25681Y2825D02*
X26981D01*
X19687Y37055D02*
X20987D01*
X19687Y35755D02*
Y37055D01*
X20987Y35755D02*
Y37055D01*
X19687Y35755D02*
X20987D01*
X951Y4201D02*
X2251D01*
X951Y2901D02*
Y4201D01*
X2251Y2901D02*
Y4201D01*
X951Y2901D02*
X2251D01*
X4550Y3861D02*
X4724Y4067D01*
X4344Y4034D02*
X4550Y3861D01*
X4339Y5382D02*
X4513Y5589D01*
X4720Y5416D01*
X3677Y4593D02*
X3884Y4420D01*
X3677Y4593D02*
X3851Y4800D01*
X5179Y5030D02*
X5386Y4856D01*
X5212Y4650D02*
X5386Y4856D01*
X20991Y3003D02*
Y3672D01*
X20656Y3003D02*
Y3672D01*
X20991D01*
X20656Y3003D02*
X20991D01*
X21407Y3002D02*
Y3671D01*
X21073Y3002D02*
Y3671D01*
X21407D01*
X21073Y3002D02*
X21407D01*
X9775Y21901D02*
X10200D01*
X9775Y20796D02*
X10200D01*
X23134Y4076D02*
Y4411D01*
X23804Y4076D02*
Y4411D01*
X23134D02*
X23804D01*
X23134Y4076D02*
X23804D01*
X14179Y39726D02*
Y40151D01*
X13074Y39726D02*
Y40151D01*
X12106Y40468D02*
Y40882D01*
Y41866D02*
Y42358D01*
X15492Y40468D02*
Y42358D01*
X12106D02*
X15492D01*
X12106Y40882D02*
Y41866D01*
Y40468D02*
X15492D01*
X8268Y1417D02*
X8937D01*
Y2638D01*
X8268D02*
X8937D01*
X8268Y1417D02*
Y2638D01*
X11791Y3603D02*
Y3938D01*
X11122Y3603D02*
Y3938D01*
Y3603D02*
X11791D01*
X11122Y3938D02*
X11791D01*
X10057Y5021D02*
X10726D01*
X10057Y5356D02*
X10726D01*
Y5021D02*
Y5356D01*
X10057Y5021D02*
Y5356D01*
X7854Y2451D02*
Y3120D01*
X8189Y2451D02*
Y3120D01*
X7854Y2451D02*
X8189D01*
X7854Y3120D02*
X8189D01*
X7381Y2456D02*
Y3125D01*
X7046Y2456D02*
Y3125D01*
X7381D01*
X7046Y2456D02*
X7381D01*
X7451Y2451D02*
Y3120D01*
X7785Y2451D02*
Y3120D01*
X7451Y2451D02*
X7785D01*
X7451Y3120D02*
X7785D01*
X11213Y27174D02*
X11409D01*
Y26978D02*
Y27174D01*
X10131D02*
X10328D01*
X10131Y26978D02*
Y27174D01*
Y26211D02*
X10328D01*
X10131D02*
Y26408D01*
X11213Y26211D02*
X11409D01*
Y26408D01*
X5933Y1834D02*
X6986D01*
X5561Y1462D02*
X5933Y1834D01*
X6986D02*
X7333Y1487D01*
Y259D02*
Y1487D01*
X5561Y259D02*
X7333D01*
X5561D02*
Y1462D01*
X5026Y2642D02*
X5696D01*
X5026Y2976D02*
X5696D01*
Y2642D02*
Y2976D01*
X5026Y2642D02*
Y2976D01*
Y3787D02*
X5696D01*
X5026Y3453D02*
X5696D01*
X5026D02*
Y3787D01*
X5696Y3453D02*
Y3787D01*
Y3047D02*
Y3382D01*
X5026Y3047D02*
Y3382D01*
Y3047D02*
X5696D01*
X5026Y3382D02*
X5696D01*
X11144Y15100D02*
Y15769D01*
X10809Y15100D02*
Y15769D01*
X11144D01*
X10809Y15100D02*
X11144D01*
X10686Y15102D02*
Y15771D01*
X10352Y15102D02*
Y15771D01*
X10686D01*
X10352Y15102D02*
X10686D01*
X11177Y13724D02*
Y14393D01*
X10843Y13724D02*
Y14393D01*
X11177D01*
X10843Y13724D02*
X11177D01*
X11708Y12178D02*
Y12847D01*
X11373Y12178D02*
Y12847D01*
X11708D01*
X11373Y12178D02*
X11708D01*
X10724Y13733D02*
Y14402D01*
X10389Y13733D02*
Y14402D01*
X10724D01*
X10389Y13733D02*
X10724D01*
X11827Y12569D02*
Y13238D01*
X12161Y12569D02*
Y13238D01*
X11827Y12569D02*
X12161D01*
X11827Y13238D02*
X12161D01*
X9244Y23107D02*
Y23511D01*
X6644D02*
X9244D01*
X6644Y23107D02*
Y23511D01*
Y18399D02*
Y18803D01*
Y18399D02*
X9244D01*
Y18803D01*
X11735Y9403D02*
Y10073D01*
X11400Y9403D02*
Y10073D01*
X11735D01*
X11400Y9403D02*
X11735D01*
X15425Y6834D02*
X15759D01*
X15425Y7504D02*
X15759D01*
X15425Y6834D02*
Y7504D01*
X15759Y6834D02*
Y7504D01*
X15350Y6834D02*
Y7504D01*
X15015Y6834D02*
Y7504D01*
X15350D01*
X15015Y6834D02*
X15350D01*
X14038Y6798D02*
X14373D01*
X14038Y7468D02*
X14373D01*
X14038Y6798D02*
Y7468D01*
X14373Y6798D02*
Y7468D01*
X14782Y6798D02*
Y7468D01*
X14448Y6798D02*
Y7468D01*
X14782D01*
X14448Y6798D02*
X14782D01*
X15479Y8631D02*
Y9300D01*
X15144Y8631D02*
Y9300D01*
X15479D01*
X15144Y8631D02*
X15479D01*
X10349Y29266D02*
Y29463D01*
Y29266D02*
X10546D01*
X10349D02*
Y29463D01*
Y29266D02*
X10546D01*
X10349Y30149D02*
Y30346D01*
X10546D01*
X11703Y29264D02*
Y29460D01*
X11703Y30152D02*
Y30349D01*
X10609Y28257D02*
X11830D01*
X10609D02*
Y28926D01*
X11830D01*
Y28257D02*
Y28926D01*
X10236Y25876D02*
X11457D01*
Y25207D02*
Y25876D01*
X10236Y25207D02*
X11457D01*
X10236D02*
Y25876D01*
X11153Y22391D02*
X11487D01*
X11153Y21722D02*
X11487D01*
Y22391D01*
X11153Y21722D02*
Y22391D01*
X11851Y10451D02*
X12186D01*
X11851Y9782D02*
X12186D01*
Y10451D01*
X11851Y9782D02*
Y10451D01*
X12021Y29484D02*
Y30704D01*
X12691D01*
Y29484D02*
Y30704D01*
X12021Y29484D02*
X12691D01*
X6874Y13969D02*
Y14217D01*
Y13969D02*
X9014D01*
Y14207D01*
X6874Y17921D02*
Y18169D01*
X9014D01*
Y17931D02*
Y18169D01*
X13636Y21327D02*
Y21397D01*
X14996Y21327D02*
Y21397D01*
X13636Y21327D02*
X14996D01*
X14996Y22477D02*
Y22547D01*
X13636Y22477D02*
Y22547D01*
X13636D02*
X14996D01*
X12738Y22076D02*
Y22411D01*
X13408Y22076D02*
Y22411D01*
X12738D02*
X13408D01*
X12738Y22076D02*
X13408D01*
X12742Y22478D02*
X13411D01*
X12742Y22812D02*
X13411D01*
Y22478D02*
Y22812D01*
X12742Y22478D02*
Y22812D01*
X13109Y22869D02*
Y23204D01*
X13778Y22869D02*
Y23204D01*
X13109D02*
X13778D01*
X13109Y22869D02*
X13778D01*
X15183Y22148D02*
X15517D01*
X15183Y22817D02*
X15517D01*
X15183Y22148D02*
Y22817D01*
X15517Y22148D02*
Y22817D01*
X13347Y21056D02*
Y21725D01*
X13013Y21056D02*
Y21725D01*
X13347D01*
X13013Y21056D02*
X13347D01*
X11578Y23672D02*
X12247D01*
X11578Y24007D02*
X12247D01*
Y23672D02*
Y24007D01*
X11578Y23672D02*
Y24007D01*
X16805Y18302D02*
X17475D01*
X16805Y17968D02*
X17475D01*
X16805D02*
Y18302D01*
X17475Y17968D02*
Y18302D01*
X16813Y18698D02*
X17482D01*
X16813Y18363D02*
X17482D01*
X16813D02*
Y18698D01*
X17482Y18363D02*
Y18698D01*
X18001Y18771D02*
Y19440D01*
X16780D02*
X18001D01*
X16780Y18771D02*
Y19440D01*
Y18771D02*
X18001D01*
X17702Y24712D02*
Y25381D01*
X18037Y24712D02*
Y25381D01*
X17702Y24712D02*
X18037D01*
X17702Y25381D02*
X18037D01*
X8709Y6563D02*
Y6897D01*
X8040Y6563D02*
Y6897D01*
Y6563D02*
X8709D01*
X8040Y6897D02*
X8709D01*
X16013Y8445D02*
X17333D01*
X16013Y9902D02*
X17333D01*
Y8445D02*
Y9902D01*
X16013Y8445D02*
Y9902D01*
X3909Y5049D02*
X4339Y5562D01*
X3653Y5265D02*
X4083Y5777D01*
X4339Y5562D01*
X3653Y5265D02*
X3909Y5049D01*
X15212Y14028D02*
X15547D01*
X15212Y13359D02*
X15547D01*
Y14028D01*
X15212Y13359D02*
Y14028D01*
X20673Y6798D02*
Y7468D01*
X20339Y6798D02*
Y7468D01*
X20673D01*
X20339Y6798D02*
X20673D01*
X16675Y3461D02*
X17009D01*
X16675Y2792D02*
X17009D01*
Y3461D01*
X16675Y2792D02*
Y3461D01*
X16269Y2044D02*
X16604D01*
X16269Y2714D02*
X16604D01*
X16269Y2044D02*
Y2714D01*
X16604Y2044D02*
Y2714D01*
X17417Y2048D02*
Y2717D01*
X17082Y2048D02*
Y2717D01*
X17417D01*
X17082Y2048D02*
X17417D01*
X17507Y2857D02*
X18570D01*
X17507D02*
Y3329D01*
X18570D01*
Y2857D02*
Y3329D01*
X16195Y2044D02*
Y2714D01*
X15860Y2044D02*
Y2714D01*
X16195D01*
X15860Y2044D02*
X16195D01*
X15860Y2789D02*
Y3458D01*
X16195Y2789D02*
Y3458D01*
X15860Y2789D02*
X16195D01*
X15860Y3458D02*
X16195D01*
X16675Y2043D02*
X17009D01*
X16675Y2712D02*
X17009D01*
X16675Y2043D02*
Y2712D01*
X17009Y2043D02*
Y2712D01*
X17503Y2280D02*
X18566D01*
X17503D02*
Y2753D01*
X18566D01*
Y2280D02*
Y2753D01*
X17505Y211D02*
X18607D01*
Y2180D01*
X17505D02*
X18607D01*
X17505Y211D02*
Y2180D01*
X7673Y10963D02*
Y12223D01*
X9641Y10963D02*
Y12223D01*
X7673Y10963D02*
X9641D01*
X7673Y12223D02*
X9641D01*
X8889Y9742D02*
Y10077D01*
X9558Y9742D02*
Y10077D01*
X8889D02*
X9558D01*
X8889Y9742D02*
X9558D01*
X9574Y8994D02*
Y9663D01*
X9239Y8994D02*
Y9663D01*
X9574D01*
X9239Y8994D02*
X9574D01*
X9163Y6673D02*
Y7343D01*
X9498Y6673D02*
Y7343D01*
X9163Y6673D02*
X9498D01*
X9163Y7343D02*
X9498D01*
X5864Y2826D02*
X6198D01*
X5864Y3495D02*
X6198D01*
X5864Y2826D02*
Y3495D01*
X6198Y2826D02*
Y3495D01*
X5332Y6463D02*
Y6798D01*
X4662Y6463D02*
Y6798D01*
Y6463D02*
X5332D01*
X4662Y6798D02*
X5332D01*
X5709Y7291D02*
X6043D01*
X5709Y6622D02*
X6043D01*
Y7291D01*
X5709Y6622D02*
Y7291D01*
X5038Y5503D02*
Y6173D01*
X5372Y5503D02*
Y6173D01*
X5038Y5503D02*
X5372D01*
X5038Y6173D02*
X5372D01*
X16815Y26544D02*
X17484D01*
X16815Y26209D02*
X17484D01*
X16815D02*
Y26544D01*
X17484Y26209D02*
Y26544D01*
X16076Y26209D02*
X16745D01*
X16076Y26544D02*
X16745D01*
Y26209D02*
Y26544D01*
X16076Y26209D02*
Y26544D01*
X16268Y25016D02*
Y25084D01*
Y25016D02*
X16465D01*
X17488D02*
Y25084D01*
X17291Y25016D02*
X17488D01*
Y25951D02*
Y26019D01*
X17291D02*
X17488D01*
X16268Y25951D02*
Y26019D01*
X16465D01*
X16521Y24457D02*
X17190D01*
X16521Y24792D02*
X17190D01*
Y24457D02*
Y24792D01*
X16521Y24457D02*
Y24792D01*
X16535Y35069D02*
X17205D01*
X16535Y35404D02*
X17205D01*
Y35069D02*
Y35404D01*
X16535Y35069D02*
Y35404D01*
X9502Y3684D02*
X9506Y3277D01*
X10297Y3692D02*
X10302Y3284D01*
X8600Y4128D02*
X8935D01*
X8600Y3459D02*
X8935D01*
Y4128D01*
X8600Y3459D02*
Y4128D01*
X9368Y3109D02*
Y3778D01*
X9033Y3109D02*
Y3778D01*
X9368D01*
X9033Y3109D02*
X9368D01*
X8935Y2759D02*
Y3428D01*
X8600Y2759D02*
Y3428D01*
X8935D01*
X8600Y2759D02*
X8935D01*
X11890Y1229D02*
Y2589D01*
X11820Y2589D02*
X11890D01*
X11820Y1229D02*
X11890D01*
X10670Y1229D02*
Y2589D01*
Y1229D02*
X10740D01*
X10670Y2589D02*
X10740D01*
X11464Y322D02*
Y991D01*
X11799Y322D02*
Y991D01*
X11464Y322D02*
X11799D01*
X11464Y991D02*
X11799D01*
X10627Y933D02*
X11297D01*
X10627Y598D02*
X11297D01*
X10627D02*
Y933D01*
X11297Y598D02*
Y933D01*
X8709Y6948D02*
Y7282D01*
X8040Y6948D02*
Y7282D01*
Y6948D02*
X8709D01*
X8040Y7282D02*
X8709D01*
X7723Y3251D02*
Y3585D01*
X7054Y3251D02*
Y3585D01*
Y3251D02*
X7723D01*
X7054Y3585D02*
X7723D01*
X18664Y4685D02*
X19333D01*
X18664Y4350D02*
X19333D01*
X18664D02*
Y4685D01*
X19333Y4350D02*
Y4685D01*
Y4753D02*
Y5087D01*
X18664Y4753D02*
Y5087D01*
Y4753D02*
X19333D01*
X18664Y5087D02*
X19333D01*
X19409Y5156D02*
Y5490D01*
X18740Y5156D02*
Y5490D01*
Y5156D02*
X19409D01*
X18740Y5490D02*
X19409D01*
Y5554D02*
Y5889D01*
X18740Y5554D02*
Y5889D01*
Y5554D02*
X19409D01*
X18740Y5889D02*
X19409D01*
X18747Y5962D02*
X19416D01*
X18747Y6296D02*
X19416D01*
Y5962D02*
Y6296D01*
X18747Y5962D02*
Y6296D01*
X18752Y6378D02*
Y6712D01*
X19422Y6378D02*
Y6712D01*
X18752D02*
X19422D01*
X18752Y6378D02*
X19422D01*
X19905Y13329D02*
Y13998D01*
X20239Y13329D02*
Y13998D01*
X19905Y13329D02*
X20239D01*
X19905Y13998D02*
X20239D01*
X19225Y13339D02*
Y14008D01*
X19560Y13339D02*
Y14008D01*
X19225Y13339D02*
X19560D01*
X19225Y14008D02*
X19560D01*
X18577Y13339D02*
Y14008D01*
X18912Y13339D02*
Y14008D01*
X18577Y13339D02*
X18912D01*
X18577Y14008D02*
X18912D01*
X17887Y13346D02*
Y14016D01*
X18222Y13346D02*
Y14016D01*
X17887Y13346D02*
X18222D01*
X17887Y14016D02*
X18222D01*
X17240Y14016D02*
X17574D01*
X17240Y13346D02*
X17574D01*
Y14016D01*
X17240Y13346D02*
Y14016D01*
X16573Y13353D02*
Y14023D01*
X16908Y13353D02*
Y14023D01*
X16573Y13353D02*
X16908D01*
X16573Y14023D02*
X16908D01*
X15911Y13368D02*
Y14037D01*
X16245Y13368D02*
Y14037D01*
X15911Y13368D02*
X16245D01*
X15911Y14037D02*
X16245D01*
X19850Y12047D02*
Y12382D01*
X19181Y12047D02*
Y12382D01*
Y12047D02*
X19850D01*
X19181Y12382D02*
X19850D01*
X19825Y10951D02*
Y11286D01*
X19155Y10951D02*
Y11286D01*
Y10951D02*
X19825D01*
X19155Y11286D02*
X19825D01*
X17417Y11218D02*
X18087D01*
X17417Y11553D02*
X18087D01*
Y11218D02*
Y11553D01*
X17417Y11218D02*
Y11553D01*
X17752Y9677D02*
X18672D01*
X17752Y10387D02*
X18672D01*
X17752Y9677D02*
Y10387D01*
X18672Y9677D02*
Y10387D01*
X16679Y11125D02*
X17348D01*
X16679Y10790D02*
X17348D01*
X16679D02*
Y11125D01*
X17348Y10790D02*
Y11125D01*
X16679Y11553D02*
X17348D01*
X16679Y11218D02*
X17348D01*
X16679D02*
Y11553D01*
X17348Y11218D02*
Y11553D01*
X16720Y11654D02*
X17940D01*
X16720D02*
Y12323D01*
X17940D01*
Y11654D02*
Y12323D01*
X15139Y12215D02*
X15474D01*
X15139Y11545D02*
X15474D01*
Y12215D01*
X15139Y11545D02*
Y12215D01*
X14779Y12294D02*
X15448D01*
X14779Y12628D02*
X15448D01*
Y12294D02*
Y12628D01*
X14779Y12294D02*
Y12628D01*
X14797Y11123D02*
X15466D01*
X14797Y11457D02*
X15466D01*
Y11123D02*
Y11457D01*
X14797Y11123D02*
Y11457D01*
Y10707D02*
X15466D01*
X14797Y11042D02*
X15466D01*
Y10707D02*
Y11042D01*
X14797Y10707D02*
Y11042D01*
X15555Y9661D02*
Y10330D01*
X15889Y9661D02*
Y10330D01*
X15555Y9661D02*
X15889D01*
X15555Y10330D02*
X15889D01*
Y8631D02*
Y9300D01*
X15555Y8631D02*
Y9300D01*
X15889D01*
X15555Y8631D02*
X15889D01*
X12843Y8951D02*
X14812D01*
Y7849D02*
Y8951D01*
X12843Y7849D02*
X14812D01*
X12843D02*
Y8951D01*
X15238Y8232D02*
X15907D01*
X15238Y8567D02*
X15907D01*
Y8232D02*
Y8567D01*
X15238Y8232D02*
Y8567D01*
X15234Y7825D02*
X15903D01*
X15234Y8159D02*
X15903D01*
Y7825D02*
Y8159D01*
X15234Y7825D02*
Y8159D01*
X16063Y7254D02*
Y7589D01*
X16732Y7254D02*
Y7589D01*
X16063D02*
X16732D01*
X16063Y7254D02*
X16732D01*
X18987Y4283D02*
X19322D01*
X18987Y3614D02*
X19322D01*
Y4283D01*
X18987Y3614D02*
Y4283D01*
X19401Y4333D02*
X19735D01*
X19401Y3664D02*
X19735D01*
Y4333D01*
X19401Y3664D02*
Y4333D01*
Y5067D02*
X19735D01*
X19401Y4397D02*
X19735D01*
Y5067D01*
X19401Y4397D02*
Y5067D01*
X19464Y3551D02*
X20133D01*
X19464Y3216D02*
X20133D01*
X19464D02*
Y3551D01*
X20133Y3216D02*
Y3551D01*
X18733D02*
X19402D01*
X18733Y3216D02*
X19402D01*
X18733D02*
Y3551D01*
X19402Y3216D02*
Y3551D01*
X19393Y2475D02*
X19727D01*
X19393Y3145D02*
X19727D01*
X19393Y2475D02*
Y3145D01*
X19727Y2475D02*
Y3145D01*
X19795Y2475D02*
X20130D01*
X19795Y3145D02*
X20130D01*
X19795Y2475D02*
Y3145D01*
X20130Y2475D02*
Y3145D01*
X20206Y3744D02*
X20540D01*
X20206Y3075D02*
X20540D01*
Y3744D01*
X20206Y3075D02*
Y3744D01*
X19683Y253D02*
Y1457D01*
Y253D02*
X21455D01*
Y1482D01*
X21108Y1828D02*
X21455Y1482D01*
X19683Y1457D02*
X20055Y1828D01*
X21108D01*
X21777Y3509D02*
X22112D01*
X21777Y2839D02*
X22112D01*
Y3509D01*
X21777Y2839D02*
Y3509D01*
X23298Y2086D02*
Y2755D01*
X22964Y2086D02*
Y2755D01*
X23298D01*
X22964Y2086D02*
X23298D01*
X22569D02*
X22903D01*
X22569Y2755D02*
X22903D01*
X22569Y2086D02*
Y2755D01*
X22903Y2086D02*
Y2755D01*
X22502Y2086D02*
Y2755D01*
X22167Y2086D02*
Y2755D01*
X22502D01*
X22167Y2086D02*
X22502D01*
X21780D02*
X22115D01*
X21780Y2755D02*
X22115D01*
X21780Y2086D02*
Y2755D01*
X22115Y2086D02*
Y2755D01*
X22165Y2838D02*
Y3507D01*
X22499Y2838D02*
Y3507D01*
X22165Y2838D02*
X22499D01*
X22165Y3507D02*
X22499D01*
X22566Y2839D02*
Y3509D01*
X22900Y2839D02*
Y3509D01*
X22566Y2839D02*
X22900D01*
X22566Y3509D02*
X22900D01*
X22961Y3505D02*
X23296D01*
X22961Y2836D02*
X23296D01*
Y3505D01*
X22961Y2836D02*
Y3505D01*
X23381Y197D02*
Y2165D01*
X24484D01*
Y197D02*
Y2165D01*
X23381Y197D02*
X24484D01*
X24441Y2262D02*
Y2734D01*
X23378D02*
X24441D01*
X23378Y2262D02*
Y2734D01*
Y2262D02*
X24441D01*
X24445Y2845D02*
Y3317D01*
X23382D02*
X24445D01*
X23382Y2845D02*
Y3317D01*
Y2845D02*
X24445D01*
X22965Y3612D02*
Y3947D01*
X23634Y3612D02*
Y3947D01*
X22965D02*
X23634D01*
X22965Y3612D02*
X23634D01*
X23124Y4477D02*
Y4811D01*
X23793Y4477D02*
Y4811D01*
X23124D02*
X23793D01*
X23124Y4477D02*
X23793D01*
X23085Y4881D02*
Y5215D01*
X23754Y4881D02*
Y5215D01*
X23085D02*
X23754D01*
X23085Y4881D02*
X23754D01*
X23090Y5362D02*
Y5697D01*
X23759Y5362D02*
Y5697D01*
X23090D02*
X23759D01*
X23090Y5362D02*
X23759D01*
X20018Y9992D02*
X20958D01*
X20018Y10228D02*
X20958D01*
X20018Y9992D02*
Y10228D01*
X20958Y9992D02*
Y10228D01*
X21312Y6875D02*
X21647D01*
X21312Y7544D02*
X21647D01*
X21312Y6875D02*
Y7544D01*
X21647Y6875D02*
Y7544D01*
X20903Y6874D02*
X21238D01*
X20903Y7543D02*
X21238D01*
X20903Y6874D02*
Y7543D01*
X21238Y6874D02*
Y7543D01*
X20326Y8891D02*
Y9225D01*
X20996Y8891D02*
Y9225D01*
X20326D02*
X20996D01*
X20326Y8891D02*
X20996D01*
X18642Y8793D02*
X20610D01*
Y7691D02*
Y8793D01*
X18642Y7691D02*
X20610D01*
X18642D02*
Y8793D01*
X19929Y6798D02*
X20264D01*
X19929Y7468D02*
X20264D01*
X19929Y6798D02*
Y7468D01*
X20264Y6798D02*
Y7468D01*
X16870Y7589D02*
X17539D01*
X16870Y7254D02*
X17539D01*
X16870D02*
Y7589D01*
X17539Y7254D02*
Y7589D01*
X17358Y4949D02*
Y5284D01*
X18027Y4949D02*
Y5284D01*
X17358D02*
X18027D01*
X17358Y4949D02*
X18027D01*
X17243Y5361D02*
Y5696D01*
X17912Y5361D02*
Y5696D01*
X17243D02*
X17912D01*
X17243Y5361D02*
X17912D01*
X17314Y4521D02*
Y4856D01*
X17984Y4521D02*
Y4856D01*
X17314D02*
X17984D01*
X17314Y4521D02*
X17984D01*
X17291Y4111D02*
Y4445D01*
X17961Y4111D02*
Y4445D01*
X17291D02*
X17961D01*
X17291Y4111D02*
X17961D01*
X17062Y3717D02*
Y4052D01*
X17731Y3717D02*
Y4052D01*
X17062D02*
X17731D01*
X17062Y3717D02*
X17731D01*
X17084Y3464D02*
X17418D01*
X17084Y2794D02*
X17418D01*
Y3464D01*
X17084Y2794D02*
Y3464D01*
X16267Y2793D02*
Y3462D01*
X16602Y2793D02*
Y3462D01*
X16267Y2793D02*
X16602D01*
X16267Y3462D02*
X16602D01*
X13538Y4345D02*
Y5014D01*
X13873Y4345D02*
Y5014D01*
X13538Y4345D02*
X13873D01*
X13538Y5014D02*
X13873D01*
X11122Y3200D02*
Y3534D01*
X11791Y3200D02*
Y3534D01*
X11122D02*
X11791D01*
X11122Y3200D02*
X11791D01*
X14778Y2991D02*
X15113D01*
X14778Y3660D02*
X15113D01*
X14778Y2991D02*
Y3660D01*
X15113Y2991D02*
Y3660D01*
X13820Y2457D02*
X14155D01*
X13820Y3126D02*
X14155D01*
X13820Y2457D02*
Y3126D01*
X14155Y2457D02*
Y3126D01*
X13799Y259D02*
Y1462D01*
Y259D02*
X15571D01*
Y1487D01*
X15224Y1834D02*
X15571Y1487D01*
X13799Y1462D02*
X14171Y1834D01*
X15224D01*
X13418Y2462D02*
X13753D01*
X13418Y3131D02*
X13753D01*
X13418Y2462D02*
Y3131D01*
X13753Y2462D02*
Y3131D01*
X13476Y3532D02*
X14145D01*
X13476Y3198D02*
X14145D01*
X13476D02*
Y3532D01*
X14145Y3198D02*
Y3532D01*
X13402Y3198D02*
Y3532D01*
X12733Y3198D02*
Y3532D01*
Y3198D02*
X13402D01*
X12733Y3532D02*
X13402D01*
X13131Y4275D02*
X13465D01*
X13131Y3606D02*
X13465D01*
Y4275D01*
X13131Y3606D02*
Y4275D01*
X13464Y4350D02*
Y4684D01*
X12794Y4350D02*
Y4684D01*
Y4350D02*
X13464D01*
X12794Y4684D02*
X13464D01*
X13464Y4739D02*
Y5073D01*
X12795Y4739D02*
Y5073D01*
Y4739D02*
X13464D01*
X12795Y5073D02*
X13464D01*
X12844Y5473D02*
X13514D01*
X12844Y5138D02*
X13514D01*
X12844D02*
Y5473D01*
X13514Y5138D02*
Y5473D01*
X13507Y5532D02*
Y5867D01*
X12838Y5532D02*
Y5867D01*
Y5532D02*
X13507D01*
X12838Y5867D02*
X13507D01*
X12844Y6336D02*
Y6671D01*
X13514Y6336D02*
Y6671D01*
X12844D02*
X13514D01*
X12844Y6336D02*
X13514D01*
X12591Y33648D02*
X12921D01*
Y33254D02*
Y33648D01*
X11660Y33645D02*
X11989D01*
X11660Y33251D02*
Y33645D01*
X12069Y26379D02*
X12738D01*
X12069Y26714D02*
X12738D01*
Y26379D02*
Y26714D01*
X12069Y26379D02*
Y26714D01*
X9970Y27500D02*
X11033D01*
X9970D02*
Y27972D01*
X11033D01*
Y27500D02*
Y27972D01*
X12982Y25030D02*
Y25359D01*
X12549Y25030D02*
X12982D01*
Y25960D02*
Y26290D01*
X12549D02*
X12982D01*
X12873Y27149D02*
X13542D01*
X12873Y27484D02*
X13542D01*
Y27149D02*
Y27484D01*
X12873Y27149D02*
Y27484D01*
Y28077D02*
X13542D01*
X12873Y28412D02*
X13542D01*
Y28077D02*
Y28412D01*
X12873Y28077D02*
Y28412D01*
Y29341D02*
X13542D01*
X12873Y29006D02*
X13542D01*
X12873D02*
Y29341D01*
X13542Y29006D02*
Y29341D01*
X5728Y42136D02*
X9778D01*
X5728Y38476D02*
Y42136D01*
Y38476D02*
X9778D01*
Y42136D01*
X15211Y39345D02*
X15477Y39080D01*
X14946D02*
X15211Y39345D01*
X14385Y38258D02*
Y40113D01*
X16038Y38258D02*
Y40113D01*
X14385Y38258D02*
X14635D01*
X14385Y40113D02*
X14635D01*
X15788Y38258D02*
X16038D01*
X14635Y39902D02*
Y40113D01*
X14424Y39902D02*
X14635D01*
X15788D02*
X15999D01*
X15788D02*
Y40113D01*
X16038D01*
X20267Y31102D02*
Y31437D01*
X19598Y31102D02*
Y31437D01*
Y31102D02*
X20267D01*
X19598Y31437D02*
X20267D01*
X16428Y34459D02*
Y35522D01*
X15955Y34459D02*
X16428D01*
X15955D02*
Y35522D01*
X16428D01*
X13462Y33535D02*
Y34205D01*
X13796Y33535D02*
Y34205D01*
X13462Y33535D02*
X13796D01*
X13462Y34205D02*
X13796D01*
X14383Y33535D02*
Y34205D01*
X14717Y33535D02*
Y34205D01*
X14383Y33535D02*
X14717D01*
X14383Y34205D02*
X14717D01*
X15172Y33978D02*
X15842D01*
X15172Y34313D02*
X15842D01*
Y33978D02*
Y34313D01*
X15172Y33978D02*
Y34313D01*
X15171Y33515D02*
X15841D01*
X15171Y33849D02*
X15841D01*
Y33515D02*
Y33849D01*
X15171Y33515D02*
Y33849D01*
X4622Y5703D02*
Y6372D01*
X4957Y5703D02*
Y6372D01*
X4622Y5703D02*
X4957D01*
X4622Y6372D02*
X4957D01*
X13538Y3612D02*
Y4281D01*
X13873Y3612D02*
Y4281D01*
X13538Y3612D02*
X13873D01*
X13538Y4281D02*
X13873D01*
X12842Y5934D02*
X13511D01*
X12842Y6269D02*
X13511D01*
Y5934D02*
Y6269D01*
X12842Y5934D02*
Y6269D01*
X9714Y5021D02*
Y5356D01*
X9045Y5021D02*
Y5356D01*
Y5021D02*
X9714D01*
X9045Y5356D02*
X9714D01*
X3662Y4044D02*
X4174Y3613D01*
X3877Y4300D02*
X4390Y3870D01*
X4174Y3613D02*
X4390Y3870D01*
X3662Y4044D02*
X3877Y4300D01*
X6270Y2475D02*
X6605D01*
X6270Y3145D02*
X6605D01*
X6270Y2475D02*
Y3145D01*
X6605Y2475D02*
Y3145D01*
X6286Y3596D02*
X6955D01*
X6286Y3261D02*
X6955D01*
X6286D02*
Y3596D01*
X6955Y3261D02*
Y3596D01*
X6270Y2410D02*
X6940D01*
X6270Y2075D02*
X6940D01*
X6270D02*
Y2410D01*
X6940Y2075D02*
Y2410D01*
X11122Y2802D02*
Y3137D01*
X11791Y2802D02*
Y3137D01*
X11122D02*
X11791D01*
X11122Y2802D02*
X11791D01*
X10204Y31639D02*
X10542D01*
X10204D02*
Y32033D01*
X11152Y31644D02*
X11490D01*
Y32038D01*
X11181Y32731D02*
Y33068D01*
X10787Y32731D02*
X11181D01*
X11176Y33679D02*
Y34016D01*
X10783D02*
X11176D01*
X11766Y32179D02*
X12435D01*
X11766Y32514D02*
X12435D01*
Y32179D02*
Y32514D01*
X11766Y32179D02*
Y32514D01*
X10042Y32825D02*
Y33494D01*
X9707Y32825D02*
Y33494D01*
X10042D01*
X9707Y32825D02*
X10042D01*
X15172Y34771D02*
X15842D01*
X15172Y34437D02*
X15842D01*
X15172D02*
Y34771D01*
X15842Y34437D02*
Y34771D01*
X9207Y33691D02*
X9545D01*
Y33298D02*
Y33691D01*
X8260Y33687D02*
X8597D01*
X8260Y33293D02*
Y33687D01*
X7763Y31819D02*
Y32488D01*
X8098Y31819D02*
Y32488D01*
X7763Y31819D02*
X8098D01*
X7763Y32488D02*
X8098D01*
X8842Y32584D02*
X9236D01*
Y32255D02*
Y32584D01*
X8845Y31324D02*
X9239D01*
Y31653D01*
X7422Y37420D02*
X7688Y37686D01*
X7422Y37420D02*
X7688Y37154D01*
X6654Y36593D02*
X8510D01*
X6654Y38247D02*
X8510D01*
Y36593D02*
Y36844D01*
X6654Y36593D02*
Y36844D01*
X8510Y37996D02*
Y38247D01*
X6654Y36844D02*
X6866D01*
Y36633D02*
Y36844D01*
Y37996D02*
Y38207D01*
X6654Y37996D02*
X6866D01*
X6654D02*
Y38247D01*
X15610Y40793D02*
Y41856D01*
X16082D01*
Y40793D02*
Y41856D01*
X15610Y40793D02*
X16082D01*
X15180Y2991D02*
X15515D01*
X15180Y3661D02*
X15515D01*
X15180Y2991D02*
Y3661D01*
X15515Y2991D02*
Y3661D01*
X14299Y2984D02*
Y3653D01*
X14634Y2984D02*
Y3653D01*
X14299Y2984D02*
X14634D01*
X14299Y3653D02*
X14634D01*
X20647Y25192D02*
X20597Y25242D01*
X20497D01*
X20447Y25192D01*
Y24992D01*
X20497Y24942D01*
X20597D01*
X20647Y24992D01*
Y25092D01*
X20547D01*
X20747Y24942D02*
Y25242D01*
X20947Y24942D01*
Y25242D01*
X21047D02*
Y24942D01*
X21197D01*
X21247Y24992D01*
Y25192D01*
X21197Y25242D01*
X21047D01*
X20747Y24762D02*
X20947D01*
X20847D01*
Y24462D01*
X21047D02*
Y24762D01*
X21197D01*
X21247Y24712D01*
Y24612D01*
X21197Y24562D01*
X21047D01*
X19772Y25644D02*
X19722Y25594D01*
Y25494D01*
X19772Y25444D01*
X19822D01*
X19872Y25494D01*
Y25594D01*
X19922Y25644D01*
X19972D01*
X20022Y25594D01*
Y25494D01*
X19972Y25444D01*
X19772Y25944D02*
X19722Y25894D01*
Y25794D01*
X19772Y25744D01*
X19972D01*
X20022Y25794D01*
Y25894D01*
X19972Y25944D01*
X19722Y26044D02*
X20022D01*
Y26244D01*
X19620Y27050D02*
X19820D01*
X19720D01*
Y26751D01*
X19920Y26951D02*
X20120Y26751D01*
X20020Y26851D01*
X20120Y26951D01*
X19920Y26751D01*
X5801Y29891D02*
Y30191D01*
X5951D01*
X6001Y30141D01*
Y30041D01*
X5951Y29991D01*
X5801D01*
X6251Y30191D02*
X6151D01*
X6101Y30141D01*
Y29941D01*
X6151Y29891D01*
X6251D01*
X6301Y29941D01*
Y30141D01*
X6251Y30191D01*
X6401D02*
Y29891D01*
X6501Y29991D01*
X6601Y29891D01*
Y30191D01*
X6901D02*
X6701D01*
Y29891D01*
X6901D01*
X6701Y30041D02*
X6801D01*
X7001Y29891D02*
Y30191D01*
X7151D01*
X7201Y30141D01*
Y30041D01*
X7151Y29991D01*
X7001D01*
X7101D02*
X7201Y29891D01*
X6701Y29711D02*
X6901D01*
X6801D01*
Y29411D01*
X7001D02*
Y29711D01*
X7151D01*
X7201Y29661D01*
Y29561D01*
X7151Y29511D01*
X7001D01*
X16170Y23224D02*
X16270D01*
X16220D01*
Y22924D01*
X16170D01*
X16270D01*
X16420D02*
Y23224D01*
X16520Y23124D01*
X16620Y23224D01*
Y22924D01*
X16720Y23224D02*
Y22974D01*
X16770Y22924D01*
X16870D01*
X16920Y22974D01*
Y23224D01*
X17020Y22874D02*
X17220D01*
X17320Y23224D02*
X17420D01*
X17370D01*
Y22924D01*
X17320D01*
X17420D01*
X17569D02*
Y23224D01*
X17769Y22924D01*
Y23224D01*
X17869D02*
X18069D01*
X17969D01*
Y22924D01*
X18169D02*
X18269D01*
X18219D01*
Y23224D01*
X18169Y23174D01*
X19883Y27605D02*
Y27355D01*
X19933Y27305D01*
X20033D01*
X20083Y27355D01*
Y27605D01*
X20183Y27305D02*
Y27505D01*
X20283Y27605D01*
X20383Y27505D01*
Y27305D01*
Y27455D01*
X20183D01*
X20483Y27305D02*
Y27605D01*
X20633D01*
X20683Y27555D01*
Y27455D01*
X20633Y27405D01*
X20483D01*
X20583D02*
X20683Y27305D01*
X20783Y27605D02*
X20983D01*
X20883D01*
Y27305D01*
X15837Y28533D02*
X15787Y28583D01*
X15687D01*
X15637Y28533D01*
Y28483D01*
X15687Y28433D01*
X15787D01*
X15837Y28383D01*
Y28333D01*
X15787Y28283D01*
X15687D01*
X15637Y28333D01*
X15937Y28583D02*
Y28283D01*
X16086D01*
X16136Y28333D01*
Y28533D01*
X16086Y28583D01*
X15937D01*
X16236Y28283D02*
Y28483D01*
X16336Y28583D01*
X16436Y28483D01*
Y28283D01*
Y28433D01*
X16236D01*
X16108Y24208D02*
X16208D01*
X16158D01*
Y23908D01*
X16108D01*
X16208D01*
X16358D02*
Y24208D01*
X16458Y24108D01*
X16558Y24208D01*
Y23908D01*
X16658Y24208D02*
Y23958D01*
X16708Y23908D01*
X16808D01*
X16858Y23958D01*
Y24208D01*
X16958Y23858D02*
X17158D01*
X17258Y24208D02*
X17358D01*
X17308D01*
Y23908D01*
X17258D01*
X17358D01*
X17508D02*
Y24208D01*
X17708Y23908D01*
Y24208D01*
X17808D02*
X18008D01*
X17908D01*
Y23908D01*
X18308D02*
X18108D01*
X18308Y24108D01*
Y24158D01*
X18258Y24208D01*
X18158D01*
X18108Y24158D01*
X16092Y29102D02*
X16042Y29152D01*
X15942D01*
X15892Y29102D01*
Y29052D01*
X15942Y29002D01*
X16042D01*
X16092Y28952D01*
Y28902D01*
X16042Y28852D01*
X15942D01*
X15892Y28902D01*
X16392Y29102D02*
X16342Y29152D01*
X16242D01*
X16192Y29102D01*
Y28902D01*
X16242Y28852D01*
X16342D01*
X16392Y28902D01*
X16492Y29152D02*
Y28852D01*
X16692D01*
X6211Y31652D02*
X6011D01*
Y31502D01*
X6111Y31552D01*
X6161D01*
X6211Y31502D01*
Y31402D01*
X6161Y31352D01*
X6061D01*
X6011Y31402D01*
X6311Y31652D02*
Y31452D01*
X6411Y31352D01*
X6511Y31452D01*
Y31652D01*
X6910D02*
X7110D01*
X7010D01*
Y31352D01*
X7360Y31652D02*
X7260D01*
X7210Y31602D01*
Y31402D01*
X7260Y31352D01*
X7360D01*
X7410Y31402D01*
Y31602D01*
X7360Y31652D01*
X6611Y30872D02*
Y31172D01*
X6810Y30872D01*
Y31172D01*
X6910D02*
Y30922D01*
X6960Y30872D01*
X7060D01*
X7110Y30922D01*
Y31172D01*
X7410Y31122D02*
X7360Y31172D01*
X7260D01*
X7210Y31122D01*
Y30922D01*
X7260Y30872D01*
X7360D01*
X7410Y30922D01*
X18273Y39044D02*
X18223Y39094D01*
X18123D01*
X18073Y39044D01*
Y38844D01*
X18123Y38794D01*
X18223D01*
X18273Y38844D01*
Y38944D01*
X18173D01*
X18373Y38794D02*
Y39094D01*
X18573Y38794D01*
Y39094D01*
X18673D02*
Y38794D01*
X18823D01*
X18873Y38844D01*
Y39044D01*
X18823Y39094D01*
X18673D01*
X18373Y38614D02*
X18573D01*
X18473D01*
Y38314D01*
X18673D02*
Y38614D01*
X18823D01*
X18873Y38564D01*
Y38464D01*
X18823Y38414D01*
X18673D01*
X20753Y27745D02*
Y28044D01*
X20903D01*
X20953Y27994D01*
Y27895D01*
X20903Y27845D01*
X20753D01*
X20853D02*
X20953Y27745D01*
X21053Y27945D02*
X21253Y27745D01*
X21153Y27845D01*
X21253Y27945D01*
X21053Y27745D01*
X9820Y14790D02*
X9770Y14740D01*
Y14640D01*
X9820Y14590D01*
X9870D01*
X9920Y14640D01*
Y14740D01*
X9970Y14790D01*
X10020D01*
X10070Y14740D01*
Y14640D01*
X10020Y14590D01*
X10070Y14890D02*
X9770D01*
Y15040D01*
X9820Y15090D01*
X9920D01*
X9970Y15040D01*
Y14890D01*
X9770Y15189D02*
Y15289D01*
Y15239D01*
X10070D01*
Y15189D01*
Y15289D01*
Y15739D02*
X9770D01*
X9870Y15839D01*
X9770Y15939D01*
X10070D01*
X9770Y16239D02*
Y16039D01*
X10070D01*
Y16239D01*
X9920Y16039D02*
Y16139D01*
X10070Y16339D02*
X9770D01*
X9870Y16439D01*
X9770Y16539D01*
X10070D01*
X12638Y36444D02*
Y36244D01*
X12788D01*
X12738Y36344D01*
Y36394D01*
X12788Y36444D01*
X12888D01*
X12938Y36394D01*
Y36294D01*
X12888Y36244D01*
X12638Y36544D02*
X12838D01*
X12938Y36644D01*
X12838Y36744D01*
X12638D01*
X12988Y36844D02*
Y37044D01*
X12638Y37144D02*
X12888D01*
X12938Y37194D01*
Y37294D01*
X12888Y37344D01*
X12638D01*
X12688Y37644D02*
X12638Y37594D01*
Y37494D01*
X12688Y37444D01*
X12738D01*
X12788Y37494D01*
Y37594D01*
X12838Y37644D01*
X12888D01*
X12938Y37594D01*
Y37494D01*
X12888Y37444D01*
X12638Y37744D02*
X12938D01*
Y37894D01*
X12888Y37944D01*
X12838D01*
X12788Y37894D01*
Y37744D01*
Y37894D01*
X12738Y37944D01*
X12688D01*
X12638Y37894D01*
Y37744D01*
X6238Y36306D02*
X6038D01*
Y36156D01*
X6138Y36206D01*
X6188D01*
X6238Y36156D01*
Y36056D01*
X6188Y36006D01*
X6088D01*
X6038Y36056D01*
X6338Y36306D02*
Y36106D01*
X6438Y36006D01*
X6538Y36106D01*
Y36306D01*
X7137Y36256D02*
X7087Y36306D01*
X6987D01*
X6938Y36256D01*
Y36056D01*
X6987Y36006D01*
X7087D01*
X7137Y36056D01*
X7387Y36306D02*
X7287D01*
X7237Y36256D01*
Y36056D01*
X7287Y36006D01*
X7387D01*
X7437Y36056D01*
Y36256D01*
X7387Y36306D01*
X7537Y36006D02*
Y36306D01*
X7737Y36006D01*
Y36306D01*
X7837Y36006D02*
Y36306D01*
X8037Y36006D01*
Y36306D01*
X8891Y36640D02*
X8691D01*
Y36490D01*
X8791Y36540D01*
X8841D01*
X8891Y36490D01*
Y36390D01*
X8841Y36340D01*
X8741D01*
X8691Y36390D01*
X8991Y36640D02*
Y36440D01*
X9091Y36340D01*
X9191Y36440D01*
Y36640D01*
X9791Y36590D02*
X9741Y36640D01*
X9641D01*
X9591Y36590D01*
Y36390D01*
X9641Y36340D01*
X9741D01*
X9791Y36390D01*
X9891Y36640D02*
Y36340D01*
Y36490D01*
X10091D01*
Y36640D01*
Y36340D01*
X10340Y36640D02*
X10240D01*
X10190Y36590D01*
Y36390D01*
X10240Y36340D01*
X10340D01*
X10390Y36390D01*
Y36590D01*
X10340Y36640D01*
X10490D02*
X10590D01*
X10540D01*
Y36340D01*
X10490D01*
X10590D01*
X10940Y36590D02*
X10890Y36640D01*
X10790D01*
X10740Y36590D01*
Y36390D01*
X10790Y36340D01*
X10890D01*
X10940Y36390D01*
X11240Y36640D02*
X11040D01*
Y36340D01*
X11240D01*
X11040Y36490D02*
X11140D01*
X9209Y30690D02*
Y30523D01*
X9334D01*
X9292Y30606D01*
Y30648D01*
X9334Y30690D01*
X9417D01*
X9459Y30648D01*
Y30565D01*
X9417Y30523D01*
X9209Y30773D02*
X9376D01*
X9459Y30856D01*
X9376Y30940D01*
X9209D01*
X9421Y23987D02*
Y24071D01*
Y24029D01*
X9171D01*
X9213Y23987D01*
X9171Y24196D02*
X9338D01*
X9421Y24279D01*
X9338Y24362D01*
X9171D01*
X9213Y24445D02*
X9171Y24487D01*
Y24570D01*
X9213Y24612D01*
X9255D01*
X9296Y24570D01*
X9338Y24612D01*
X9380D01*
X9421Y24570D01*
Y24487D01*
X9380Y24445D01*
X9338D01*
X9296Y24487D01*
X9255Y24445D01*
X9213D01*
X9296Y24487D02*
Y24570D01*
X6130Y24734D02*
Y25034D01*
X6330Y24734D01*
Y25034D01*
X6430D02*
Y24784D01*
X6480Y24734D01*
X6580D01*
X6630Y24784D01*
Y25034D01*
X6929Y24984D02*
X6879Y25034D01*
X6780D01*
X6730Y24984D01*
Y24784D01*
X6780Y24734D01*
X6879D01*
X6929Y24784D01*
X6137Y29093D02*
X6237D01*
X6187D01*
Y28793D01*
X6137D01*
X6237D01*
X6386D02*
Y29093D01*
X6586Y28793D01*
Y29093D01*
X6686D02*
X6886D01*
X6786D01*
Y28793D01*
X7464Y25435D02*
X7414Y25485D01*
Y25585D01*
X7464Y25635D01*
X7514D01*
X7564Y25585D01*
Y25535D01*
Y25585D01*
X7614Y25635D01*
X7664D01*
X7714Y25585D01*
Y25485D01*
X7664Y25435D01*
X7414Y25735D02*
X7614D01*
X7714Y25835D01*
X7614Y25935D01*
X7414D01*
X7464Y26034D02*
X7414Y26084D01*
Y26184D01*
X7464Y26234D01*
X7514D01*
X7564Y26184D01*
Y26134D01*
Y26184D01*
X7614Y26234D01*
X7664D01*
X7714Y26184D01*
Y26084D01*
X7664Y26034D01*
X7464Y26834D02*
X7414Y26784D01*
Y26684D01*
X7464Y26634D01*
X7664D01*
X7714Y26684D01*
Y26784D01*
X7664Y26834D01*
X7414Y26934D02*
X7714D01*
X7564D01*
Y27134D01*
X7414D01*
X7714D01*
X7414Y27384D02*
Y27284D01*
X7464Y27234D01*
X7664D01*
X7714Y27284D01*
Y27384D01*
X7664Y27434D01*
X7464D01*
X7414Y27384D01*
Y27534D02*
Y27634D01*
Y27584D01*
X7714D01*
Y27534D01*
Y27634D01*
X7464Y27984D02*
X7414Y27934D01*
Y27834D01*
X7464Y27784D01*
X7664D01*
X7714Y27834D01*
Y27934D01*
X7664Y27984D01*
X7414Y28284D02*
Y28084D01*
X7714D01*
Y28284D01*
X7564Y28084D02*
Y28184D01*
X9213Y28221D02*
X9171Y28263D01*
Y28346D01*
X9213Y28388D01*
X9255D01*
X9296Y28346D01*
Y28304D01*
Y28346D01*
X9338Y28388D01*
X9380D01*
X9421Y28346D01*
Y28263D01*
X9380Y28221D01*
X9171Y28471D02*
X9338D01*
X9421Y28554D01*
X9338Y28638D01*
X9171D01*
X9213Y28721D02*
X9171Y28763D01*
Y28846D01*
X9213Y28888D01*
X9255D01*
X9296Y28846D01*
Y28804D01*
Y28846D01*
X9338Y28888D01*
X9380D01*
X9421Y28846D01*
Y28763D01*
X9380Y28721D01*
X9463Y28971D02*
Y29137D01*
X9171Y29221D02*
Y29304D01*
Y29262D01*
X9421D01*
Y29221D01*
Y29304D01*
Y29429D02*
X9171D01*
X9421Y29596D01*
X9171D01*
Y29679D02*
Y29846D01*
Y29762D01*
X9421D01*
X9213Y27150D02*
X9171Y27192D01*
Y27275D01*
X9213Y27317D01*
X9255D01*
X9296Y27275D01*
Y27234D01*
Y27275D01*
X9338Y27317D01*
X9380D01*
X9421Y27275D01*
Y27192D01*
X9380Y27150D01*
X9171Y27400D02*
X9338D01*
X9421Y27483D01*
X9338Y27567D01*
X9171D01*
X9213Y27650D02*
X9171Y27692D01*
Y27775D01*
X9213Y27817D01*
X9255D01*
X9296Y27775D01*
Y27733D01*
Y27775D01*
X9338Y27817D01*
X9380D01*
X9421Y27775D01*
Y27692D01*
X9380Y27650D01*
X9213Y25032D02*
X9171Y25073D01*
Y25157D01*
X9213Y25198D01*
X9255D01*
X9296Y25157D01*
Y25115D01*
Y25157D01*
X9338Y25198D01*
X9380D01*
X9421Y25157D01*
Y25073D01*
X9380Y25032D01*
X9171Y25281D02*
X9338D01*
X9421Y25365D01*
X9338Y25448D01*
X9171D01*
X9213Y25531D02*
X9171Y25573D01*
Y25656D01*
X9213Y25698D01*
X9255D01*
X9296Y25656D01*
Y25615D01*
Y25656D01*
X9338Y25698D01*
X9380D01*
X9421Y25656D01*
Y25573D01*
X9380Y25531D01*
X9463Y25781D02*
Y25948D01*
X9421Y26031D02*
X9171D01*
X9421Y26198D01*
X9171D01*
Y26281D02*
X9380D01*
X9421Y26323D01*
Y26406D01*
X9380Y26448D01*
X9171D01*
X9213Y26698D02*
X9171Y26656D01*
Y26573D01*
X9213Y26531D01*
X9380D01*
X9421Y26573D01*
Y26656D01*
X9380Y26698D01*
D14*
X6447Y22965D02*
G03*
X6447Y22965I-72J0D01*
G01*
X9478Y14089D02*
G03*
X9478Y14089I-14J0D01*
G01*
X10168Y38646D02*
G03*
X10168Y38646I-50J0D01*
G01*
D15*
X14800Y10676D02*
G03*
X14800Y10676I-39J0D01*
G01*
X5896Y3907D02*
X6083D01*
X5896D02*
Y4094D01*
Y6220D02*
Y6407D01*
X6083D01*
X8209D02*
X8396D01*
Y6220D02*
Y6407D01*
X8209Y3907D02*
X8396D01*
Y4094D01*
X16715Y34761D02*
Y34899D01*
X16853D01*
X16715Y33206D02*
Y33344D01*
Y33206D02*
X16853D01*
X18270D02*
X18408D01*
Y33344D01*
Y34761D02*
Y34899D01*
X18270D02*
X18408D01*
X18900Y29707D02*
Y30966D01*
X19806Y29707D02*
Y30966D01*
X18900D02*
X19806D01*
X18900Y29707D02*
X19806D01*
X20152Y41937D02*
Y41543D01*
Y41740D01*
X20414D01*
Y41937D01*
Y41543D01*
X20808Y41871D02*
X20742Y41937D01*
X20611D01*
X20545Y41871D01*
Y41806D01*
X20611Y41740D01*
X20742D01*
X20808Y41675D01*
Y41609D01*
X20742Y41543D01*
X20611D01*
X20545Y41609D01*
X21398Y41543D02*
Y41937D01*
X21529D02*
Y41543D01*
X21332Y41806D02*
X21529D01*
X21595D01*
X21332Y41675D02*
X21595D01*
D16*
X16444Y8743D02*
G03*
X16444Y8743I-71J0D01*
G01*
D17*
X9696Y12649D02*
G03*
X9696Y12649I-30J0D01*
G01*
X18635Y37141D02*
X18462D01*
Y37011D01*
X18549D01*
X18462D01*
Y36881D01*
X18722Y37141D02*
X18809D01*
X18765D01*
Y36881D01*
X18722D01*
X18809D01*
X18939Y37141D02*
Y36881D01*
X19069D01*
X19112Y36924D01*
Y37098D01*
X19069Y37141D01*
X18939D01*
X19199Y37098D02*
X19242Y37141D01*
X19329D01*
X19372Y37098D01*
Y37054D01*
X19329Y37011D01*
X19285D01*
X19329D01*
X19372Y36968D01*
Y36924D01*
X19329Y36881D01*
X19242D01*
X19199Y36924D01*
X24726Y3861D02*
X24553D01*
Y3731D01*
X24639D01*
X24553D01*
Y3601D01*
X24813Y3861D02*
X24899D01*
X24856D01*
Y3601D01*
X24813D01*
X24899D01*
X25029Y3861D02*
Y3601D01*
X25159D01*
X25203Y3644D01*
Y3817D01*
X25159Y3861D01*
X25029D01*
X25462Y3601D02*
X25289D01*
X25462Y3774D01*
Y3817D01*
X25419Y3861D01*
X25332D01*
X25289Y3817D01*
X2674Y3196D02*
X2500D01*
Y3066D01*
X2587D01*
X2500D01*
Y2936D01*
X2760Y3196D02*
X2847D01*
X2804D01*
Y2936D01*
X2760D01*
X2847D01*
X2977Y3196D02*
Y2936D01*
X3107D01*
X3150Y2979D01*
Y3152D01*
X3107Y3196D01*
X2977D01*
X3237Y2936D02*
X3323D01*
X3280D01*
Y3196D01*
X3237Y3152D01*
D18*
X5409Y2125D02*
X6171D01*
X5058Y2475D02*
X5409Y2125D01*
X5058Y1384D02*
Y2475D01*
D19*
X10292Y23704D02*
Y23999D01*
X9665Y6693D02*
X9961D01*
X19950Y15272D02*
X20245D01*
X19271Y15268D02*
X19566D01*
X18623Y15268D02*
X18918D01*
X17933Y15275D02*
X18228D01*
X17259Y15268D02*
X17555D01*
X16593Y15268D02*
X16888D01*
X15930Y15275D02*
X16226D01*
X15232Y15272D02*
X15527D01*
X14880Y27169D02*
Y27464D01*
Y28097D02*
Y28392D01*
Y29026D02*
Y29321D01*
X13481Y32285D02*
X13777D01*
X14402Y32299D02*
X14698D01*
D20*
X10814Y24039D02*
X10912D01*
X10814Y23665D02*
X10912D01*
X10000Y7215D02*
Y7313D01*
X9626Y7215D02*
Y7313D01*
X19911Y14652D02*
Y14750D01*
X20285Y14652D02*
Y14750D01*
X19605Y14648D02*
Y14746D01*
X19231Y14648D02*
Y14746D01*
X18957Y14648D02*
Y14746D01*
X18583Y14648D02*
Y14746D01*
X18267Y14655D02*
Y14754D01*
X17893Y14655D02*
Y14754D01*
X17594Y14648D02*
Y14746D01*
X17220Y14648D02*
Y14746D01*
X16927Y14648D02*
Y14746D01*
X16553Y14648D02*
Y14746D01*
X16265Y14655D02*
Y14754D01*
X15891Y14655D02*
Y14754D01*
X15566Y14652D02*
Y14750D01*
X15192Y14652D02*
Y14750D01*
X14259Y27503D02*
X14358D01*
X14259Y27129D02*
X14358D01*
X14259Y28432D02*
X14358D01*
X14259Y28058D02*
X14358D01*
X14259Y29360D02*
X14358D01*
X14259Y28986D02*
X14358D01*
X13816Y32807D02*
Y32906D01*
X13442Y32807D02*
Y32906D01*
X14737Y32821D02*
Y32919D01*
X14363Y32821D02*
Y32919D01*
D21*
X13889Y31901D02*
X13679D01*
Y31744D01*
X13784Y31797D01*
X13837D01*
X13889Y31744D01*
Y31639D01*
X13837Y31587D01*
X13732D01*
X13679Y31639D01*
X13994Y31901D02*
Y31692D01*
X14099Y31587D01*
X14204Y31692D01*
Y31901D01*
X13679Y31067D02*
Y31382D01*
X13837D01*
X13889Y31329D01*
Y31224D01*
X13837Y31172D01*
X13679D01*
X14152Y31382D02*
X14047D01*
X13994Y31329D01*
Y31120D01*
X14047Y31067D01*
X14152D01*
X14204Y31120D01*
Y31329D01*
X14152Y31382D01*
X14309D02*
Y31067D01*
X14519D01*
X13679Y30862D02*
X13889D01*
X13784D01*
Y30547D01*
X13994D02*
Y30862D01*
X14152D01*
X14204Y30810D01*
Y30705D01*
X14152Y30652D01*
X13994D01*
X14398Y34498D02*
X14660D01*
X14713Y34551D01*
Y34656D01*
X14660Y34708D01*
X14398D01*
X14450Y35023D02*
X14398Y34971D01*
Y34866D01*
X14450Y34813D01*
X14503D01*
X14555Y34866D01*
Y34971D01*
X14608Y35023D01*
X14660D01*
X14713Y34971D01*
Y34866D01*
X14660Y34813D01*
X14398Y35128D02*
X14713D01*
Y35286D01*
X14660Y35338D01*
X14608D01*
X14555Y35286D01*
Y35128D01*
Y35286D01*
X14503Y35338D01*
X14450D01*
X14398Y35286D01*
Y35128D01*
X14713Y35758D02*
X14398D01*
Y35915D01*
X14450Y35968D01*
X14555D01*
X14608Y35915D01*
Y35758D01*
Y35863D02*
X14713Y35968D01*
X14398Y36073D02*
X14713Y36283D01*
X14398D02*
X14713Y36073D01*
X13426Y34486D02*
X13689D01*
X13741Y34539D01*
Y34644D01*
X13689Y34696D01*
X13426D01*
X13479Y35011D02*
X13426Y34958D01*
Y34853D01*
X13479Y34801D01*
X13531D01*
X13584Y34853D01*
Y34958D01*
X13636Y35011D01*
X13689D01*
X13741Y34958D01*
Y34853D01*
X13689Y34801D01*
X13426Y35116D02*
X13741D01*
Y35273D01*
X13689Y35326D01*
X13636D01*
X13584Y35273D01*
Y35116D01*
Y35273D01*
X13531Y35326D01*
X13479D01*
X13426Y35273D01*
Y35116D01*
Y35746D02*
Y35955D01*
Y35851D01*
X13741D01*
X13426Y36060D02*
X13741Y36270D01*
X13426D02*
X13741Y36060D01*
D22*
X10801Y9523D02*
X11116D01*
X11011Y9628D01*
X11116Y9733D01*
X10801D01*
Y9838D02*
Y9943D01*
Y9890D01*
X11116D01*
Y9838D01*
Y9943D01*
X10801Y10310D02*
Y10100D01*
X10959D01*
Y10205D01*
Y10100D01*
X11116D01*
X10801Y10415D02*
Y10520D01*
Y10468D01*
X11116D01*
Y10415D01*
Y10520D01*
X12623Y1158D02*
X12309D01*
Y1316D01*
X12361Y1368D01*
X12466D01*
X12519Y1316D01*
Y1158D01*
Y1263D02*
X12623Y1368D01*
X12309Y1683D02*
Y1473D01*
X12623D01*
Y1683D01*
X12466Y1473D02*
Y1578D01*
X12361Y1998D02*
X12309Y1945D01*
Y1840D01*
X12361Y1788D01*
X12414D01*
X12466Y1840D01*
Y1945D01*
X12519Y1998D01*
X12571D01*
X12623Y1945D01*
Y1840D01*
X12571Y1788D01*
X12309Y2313D02*
Y2103D01*
X12623D01*
Y2313D01*
X12466Y2103D02*
Y2208D01*
X12309Y2418D02*
Y2628D01*
Y2523D01*
X12623D01*
D23*
X19394Y1010D02*
X19361Y977D01*
Y912D01*
X19394Y879D01*
X19525D01*
X19558Y912D01*
Y977D01*
X19525Y1010D01*
X19394Y1076D02*
X19361Y1108D01*
Y1174D01*
X19394Y1207D01*
X19427D01*
X19459Y1174D01*
Y1141D01*
Y1174D01*
X19492Y1207D01*
X19525D01*
X19558Y1174D01*
Y1108D01*
X19525Y1076D01*
X19558Y1371D02*
X19361D01*
X19459Y1272D01*
Y1404D01*
X12441Y40234D02*
Y40037D01*
X12539D01*
X12572Y40070D01*
Y40201D01*
X12539Y40234D01*
X12441D01*
X12638Y40037D02*
X12703D01*
X12670D01*
Y40234D01*
X12638Y40201D01*
X12933Y40234D02*
X12867Y40201D01*
X12802Y40136D01*
Y40070D01*
X12834Y40037D01*
X12900D01*
X12933Y40070D01*
Y40103D01*
X12900Y40136D01*
X12802D01*
X11635Y40721D02*
X11569D01*
X11602D01*
Y40557D01*
X11569Y40524D01*
X11536D01*
X11504Y40557D01*
X11700Y40524D02*
X11766D01*
X11733D01*
Y40721D01*
X11700Y40688D01*
X11864D02*
X11897Y40721D01*
X11963D01*
X11996Y40688D01*
Y40557D01*
X11963Y40524D01*
X11897D01*
X11864Y40557D01*
Y40688D01*
X10059Y5468D02*
Y5664D01*
X10158D01*
X10191Y5632D01*
Y5566D01*
X10158Y5533D01*
X10059D01*
X10125D02*
X10191Y5468D01*
X10256Y5632D02*
X10289Y5664D01*
X10355D01*
X10387Y5632D01*
Y5599D01*
X10355Y5566D01*
X10322D01*
X10355D01*
X10387Y5533D01*
Y5500D01*
X10355Y5468D01*
X10289D01*
X10256Y5500D01*
X10584Y5468D02*
X10453D01*
X10584Y5599D01*
Y5632D01*
X10551Y5664D01*
X10486D01*
X10453Y5632D01*
X13358Y7053D02*
X13325Y7020D01*
Y6955D01*
X13358Y6922D01*
X13489D01*
X13522Y6955D01*
Y7020D01*
X13489Y7053D01*
X13325Y7250D02*
Y7119D01*
X13423D01*
X13390Y7184D01*
Y7217D01*
X13423Y7250D01*
X13489D01*
X13522Y7217D01*
Y7151D01*
X13489Y7119D01*
X13325Y7447D02*
X13358Y7381D01*
X13423Y7315D01*
X13489D01*
X13522Y7348D01*
Y7414D01*
X13489Y7447D01*
X13456D01*
X13423Y7414D01*
Y7315D01*
X13716Y7062D02*
X13683Y7029D01*
Y6963D01*
X13716Y6931D01*
X13847D01*
X13880Y6963D01*
Y7029D01*
X13847Y7062D01*
X13683Y7259D02*
Y7127D01*
X13782D01*
X13749Y7193D01*
Y7226D01*
X13782Y7259D01*
X13847D01*
X13880Y7226D01*
Y7160D01*
X13847Y7127D01*
X13716Y7324D02*
X13683Y7357D01*
Y7423D01*
X13716Y7455D01*
X13749D01*
X13782Y7423D01*
Y7390D01*
Y7423D01*
X13814Y7455D01*
X13847D01*
X13880Y7423D01*
Y7357D01*
X13847Y7324D01*
X16037Y6963D02*
X16004Y6996D01*
X15938D01*
X15905Y6963D01*
Y6832D01*
X15938Y6799D01*
X16004D01*
X16037Y6832D01*
X16201Y6799D02*
Y6996D01*
X16102Y6898D01*
X16233D01*
X16397Y6799D02*
Y6996D01*
X16299Y6898D01*
X16430D01*
X16677Y6953D02*
X16644Y6986D01*
X16579D01*
X16546Y6953D01*
Y6822D01*
X16579Y6789D01*
X16644D01*
X16677Y6822D01*
X16743Y6953D02*
X16776Y6986D01*
X16841D01*
X16874Y6953D01*
Y6920D01*
X16841Y6888D01*
X16808D01*
X16841D01*
X16874Y6855D01*
Y6822D01*
X16841Y6789D01*
X16776D01*
X16743Y6822D01*
X16940D02*
X16972Y6789D01*
X17038D01*
X17071Y6822D01*
Y6953D01*
X17038Y6986D01*
X16972D01*
X16940Y6953D01*
Y6920D01*
X16972Y6888D01*
X17071D01*
X11214Y21448D02*
X11411D01*
Y21349D01*
X11378Y21317D01*
X11312D01*
X11280Y21349D01*
Y21448D01*
Y21382D02*
X11214Y21317D01*
X11411Y21120D02*
Y21251D01*
X11312D01*
X11345Y21185D01*
Y21153D01*
X11312Y21120D01*
X11247D01*
X11214Y21153D01*
Y21218D01*
X11247Y21251D01*
X11214Y21054D02*
Y20989D01*
Y21021D01*
X11411D01*
X11378Y21054D01*
X11607Y11501D02*
X11411D01*
Y11599D01*
X11443Y11632D01*
X11509D01*
X11542Y11599D01*
Y11501D01*
Y11566D02*
X11607Y11632D01*
X11411Y11829D02*
X11443Y11763D01*
X11509Y11698D01*
X11575D01*
X11607Y11730D01*
Y11796D01*
X11575Y11829D01*
X11542D01*
X11509Y11796D01*
Y11698D01*
X11607Y12025D02*
Y11894D01*
X11476Y12025D01*
X11443D01*
X11411Y11993D01*
Y11927D01*
X11443Y11894D01*
X12073Y11983D02*
X11877D01*
Y12082D01*
X11909Y12114D01*
X11975D01*
X12008Y12082D01*
Y11983D01*
Y12049D02*
X12073Y12114D01*
X11877Y12311D02*
X11909Y12246D01*
X11975Y12180D01*
X12041D01*
X12073Y12213D01*
Y12278D01*
X12041Y12311D01*
X12008D01*
X11975Y12278D01*
Y12180D01*
X12073Y12377D02*
Y12442D01*
Y12410D01*
X11877D01*
X11909Y12377D01*
X10609Y15928D02*
X10412D01*
Y16026D01*
X10445Y16059D01*
X10510D01*
X10543Y16026D01*
Y15928D01*
Y15993D02*
X10609Y16059D01*
X10412Y16256D02*
X10445Y16190D01*
X10510Y16124D01*
X10576D01*
X10609Y16157D01*
Y16223D01*
X10576Y16256D01*
X10543D01*
X10510Y16223D01*
Y16124D01*
X10445Y16321D02*
X10412Y16354D01*
Y16420D01*
X10445Y16452D01*
X10576D01*
X10609Y16420D01*
Y16354D01*
X10576Y16321D01*
X10445D01*
X11095Y15917D02*
X10898D01*
Y16015D01*
X10931Y16048D01*
X10996D01*
X11029Y16015D01*
Y15917D01*
Y15982D02*
X11095Y16048D01*
X10898Y16245D02*
Y16113D01*
X10996D01*
X10963Y16179D01*
Y16212D01*
X10996Y16245D01*
X11062D01*
X11095Y16212D01*
Y16146D01*
X11062Y16113D01*
Y16310D02*
X11095Y16343D01*
Y16409D01*
X11062Y16441D01*
X10931D01*
X10898Y16409D01*
Y16343D01*
X10931Y16310D01*
X10963D01*
X10996Y16343D01*
Y16441D01*
X10653Y13067D02*
X10456D01*
Y13165D01*
X10489Y13198D01*
X10554D01*
X10587Y13165D01*
Y13067D01*
Y13132D02*
X10653Y13198D01*
X10456Y13395D02*
Y13264D01*
X10554D01*
X10522Y13329D01*
Y13362D01*
X10554Y13395D01*
X10620D01*
X10653Y13362D01*
Y13296D01*
X10620Y13264D01*
X10489Y13460D02*
X10456Y13493D01*
Y13559D01*
X10489Y13592D01*
X10522D01*
X10554Y13559D01*
X10587Y13592D01*
X10620D01*
X10653Y13559D01*
Y13493D01*
X10620Y13460D01*
X10587D01*
X10554Y13493D01*
X10522Y13460D01*
X10489D01*
X10554Y13493D02*
Y13559D01*
X11514Y13790D02*
X11318D01*
Y13889D01*
X11350Y13921D01*
X11416D01*
X11449Y13889D01*
Y13790D01*
Y13856D02*
X11514Y13921D01*
X11318Y14118D02*
Y13987D01*
X11416D01*
X11383Y14053D01*
Y14085D01*
X11416Y14118D01*
X11481D01*
X11514Y14085D01*
Y14020D01*
X11481Y13987D01*
X11318Y14184D02*
Y14315D01*
X11350D01*
X11481Y14184D01*
X11514D01*
X11673Y10239D02*
X11477D01*
Y10337D01*
X11509Y10370D01*
X11575D01*
X11608Y10337D01*
Y10239D01*
Y10305D02*
X11673Y10370D01*
X11477Y10567D02*
Y10436D01*
X11575D01*
X11542Y10501D01*
Y10534D01*
X11575Y10567D01*
X11641D01*
X11673Y10534D01*
Y10469D01*
X11641Y10436D01*
X11477Y10764D02*
X11509Y10698D01*
X11575Y10633D01*
X11641D01*
X11673Y10665D01*
Y10731D01*
X11641Y10764D01*
X11608D01*
X11575Y10731D01*
Y10633D01*
X11859Y10732D02*
Y10929D01*
X11957D01*
X11990Y10896D01*
Y10831D01*
X11957Y10798D01*
X11859D01*
X11925D02*
X11990Y10732D01*
X12187Y10929D02*
X12056D01*
Y10831D01*
X12121Y10863D01*
X12154D01*
X12187Y10831D01*
Y10765D01*
X12154Y10732D01*
X12089D01*
X12056Y10765D01*
X12384Y10929D02*
X12253D01*
Y10831D01*
X12318Y10863D01*
X12351D01*
X12384Y10831D01*
Y10765D01*
X12351Y10732D01*
X12285D01*
X12253Y10765D01*
X10582Y30829D02*
Y30665D01*
X10615Y30633D01*
X10680D01*
X10713Y30665D01*
Y30829D01*
X10779Y30633D02*
X10844D01*
X10811D01*
Y30829D01*
X10779Y30796D01*
X8144Y7560D02*
X8111Y7593D01*
X8045D01*
X8012Y7560D01*
Y7429D01*
X8045Y7396D01*
X8111D01*
X8144Y7429D01*
X8209D02*
X8242Y7396D01*
X8308D01*
X8340Y7429D01*
Y7560D01*
X8308Y7593D01*
X8242D01*
X8209Y7560D01*
Y7527D01*
X8242Y7494D01*
X8340D01*
X8406Y7560D02*
X8439Y7593D01*
X8504D01*
X8537Y7560D01*
Y7527D01*
X8504Y7494D01*
X8472D01*
X8504D01*
X8537Y7461D01*
Y7429D01*
X8504Y7396D01*
X8439D01*
X8406Y7429D01*
X5536Y6028D02*
X5700D01*
X5733Y6061D01*
Y6126D01*
X5700Y6159D01*
X5536D01*
X5700Y6225D02*
X5733Y6257D01*
Y6323D01*
X5700Y6356D01*
X5569D01*
X5536Y6323D01*
Y6257D01*
X5569Y6225D01*
X5601D01*
X5634Y6257D01*
Y6356D01*
X15206Y22948D02*
Y23145D01*
X15305D01*
X15337Y23112D01*
Y23047D01*
X15305Y23014D01*
X15206D01*
X15272D02*
X15337Y22948D01*
X15501D02*
Y23145D01*
X15403Y23047D01*
X15534D01*
X15731Y23145D02*
X15665Y23112D01*
X15600Y23047D01*
Y22981D01*
X15633Y22948D01*
X15698D01*
X15731Y22981D01*
Y23014D01*
X15698Y23047D01*
X15600D01*
X13940Y22965D02*
Y23162D01*
X14038D01*
X14071Y23129D01*
Y23064D01*
X14038Y23031D01*
X13940D01*
X14005D02*
X14071Y22965D01*
X14235D02*
Y23162D01*
X14137Y23064D01*
X14268D01*
X14465Y23162D02*
X14333D01*
Y23064D01*
X14399Y23097D01*
X14432D01*
X14465Y23064D01*
Y22998D01*
X14432Y22965D01*
X14366D01*
X14333Y22998D01*
X10582Y24349D02*
Y24152D01*
X10681D01*
X10714Y24185D01*
Y24316D01*
X10681Y24349D01*
X10582D01*
X10910Y24152D02*
X10779D01*
X10910Y24283D01*
Y24316D01*
X10878Y24349D01*
X10812D01*
X10779Y24316D01*
X10976Y24152D02*
X11041D01*
X11009D01*
Y24349D01*
X10976Y24316D01*
X17773Y18165D02*
X17740Y18198D01*
X17675D01*
X17642Y18165D01*
Y18034D01*
X17675Y18001D01*
X17740D01*
X17773Y18034D01*
X17839Y18001D02*
X17904D01*
X17872D01*
Y18198D01*
X17839Y18165D01*
X18003Y18001D02*
X18068D01*
X18036D01*
Y18198D01*
X18003Y18165D01*
X18167D02*
X18200Y18198D01*
X18265D01*
X18298Y18165D01*
Y18132D01*
X18265Y18100D01*
X18232D01*
X18265D01*
X18298Y18067D01*
Y18034D01*
X18265Y18001D01*
X18200D01*
X18167Y18034D01*
X17734Y18580D02*
X17701Y18613D01*
X17636D01*
X17603Y18580D01*
Y18449D01*
X17636Y18416D01*
X17701D01*
X17734Y18449D01*
X17800Y18416D02*
X17865D01*
X17832D01*
Y18613D01*
X17800Y18580D01*
X17964Y18416D02*
X18029D01*
X17996D01*
Y18613D01*
X17964Y18580D01*
X18259Y18416D02*
X18128D01*
X18259Y18547D01*
Y18580D01*
X18226Y18613D01*
X18160D01*
X18128Y18580D01*
X12472Y22672D02*
X12439Y22639D01*
Y22574D01*
X12472Y22541D01*
X12603D01*
X12636Y22574D01*
Y22639D01*
X12603Y22672D01*
X12636Y22738D02*
Y22803D01*
Y22771D01*
X12439D01*
X12472Y22738D01*
Y22902D02*
X12439Y22935D01*
Y23000D01*
X12472Y23033D01*
X12603D01*
X12636Y23000D01*
Y22935D01*
X12603Y22902D01*
X12472D01*
Y23099D02*
X12439Y23131D01*
Y23197D01*
X12472Y23230D01*
X12505D01*
X12538Y23197D01*
X12571Y23230D01*
X12603D01*
X12636Y23197D01*
Y23131D01*
X12603Y23099D01*
X12571D01*
X12538Y23131D01*
X12505Y23099D01*
X12472D01*
X12538Y23131D02*
Y23197D01*
X14272Y22810D02*
X14240Y22843D01*
X14174D01*
X14141Y22810D01*
Y22778D01*
X14174Y22745D01*
X14240D01*
X14272Y22712D01*
Y22679D01*
X14240Y22646D01*
X14174D01*
X14141Y22679D01*
X14338Y22810D02*
X14371Y22843D01*
X14436D01*
X14469Y22810D01*
Y22778D01*
X14436Y22745D01*
X14404D01*
X14436D01*
X14469Y22712D01*
Y22679D01*
X14436Y22646D01*
X14371D01*
X14338Y22679D01*
X11587Y24156D02*
Y24353D01*
X11685D01*
X11718Y24320D01*
Y24254D01*
X11685Y24221D01*
X11587D01*
X11653D02*
X11718Y24156D01*
X11915Y24353D02*
X11784D01*
Y24254D01*
X11849Y24287D01*
X11882D01*
X11915Y24254D01*
Y24189D01*
X11882Y24156D01*
X11817D01*
X11784Y24189D01*
X11981Y24320D02*
X12013Y24353D01*
X12079D01*
X12112Y24320D01*
Y24287D01*
X12079Y24254D01*
X12046D01*
X12079D01*
X12112Y24221D01*
Y24189D01*
X12079Y24156D01*
X12013D01*
X11981Y24189D01*
X12368Y21430D02*
Y21626D01*
X12466D01*
X12499Y21594D01*
Y21528D01*
X12466Y21495D01*
X12368D01*
X12433D02*
X12499Y21430D01*
X12663D02*
Y21626D01*
X12565Y21528D01*
X12696D01*
X12761Y21626D02*
X12893D01*
Y21594D01*
X12761Y21462D01*
Y21430D01*
X18260Y19375D02*
X18227Y19408D01*
X18162D01*
X18129Y19375D01*
Y19244D01*
X18162Y19211D01*
X18227D01*
X18260Y19244D01*
X18326Y19211D02*
X18391D01*
X18358D01*
Y19408D01*
X18326Y19375D01*
X18490Y19211D02*
X18555D01*
X18522D01*
Y19408D01*
X18490Y19375D01*
X18654Y19211D02*
X18719D01*
X18686D01*
Y19408D01*
X18654Y19375D01*
X12482Y21893D02*
X12450Y21860D01*
Y21795D01*
X12482Y21762D01*
X12614D01*
X12646Y21795D01*
Y21860D01*
X12614Y21893D01*
X12646Y21959D02*
Y22024D01*
Y21992D01*
X12450D01*
X12482Y21959D01*
Y22123D02*
X12450Y22156D01*
Y22221D01*
X12482Y22254D01*
X12614D01*
X12646Y22221D01*
Y22156D01*
X12614Y22123D01*
X12482D01*
X12450Y22320D02*
Y22451D01*
X12482D01*
X12614Y22320D01*
X12646D01*
X4200Y6157D02*
X4167Y6124D01*
Y6059D01*
X4200Y6026D01*
X4331D01*
X4364Y6059D01*
Y6124D01*
X4331Y6157D01*
X4200Y6223D02*
X4167Y6256D01*
Y6321D01*
X4200Y6354D01*
X4233D01*
X4266Y6321D01*
X4299Y6354D01*
X4331D01*
X4364Y6321D01*
Y6256D01*
X4331Y6223D01*
X4299D01*
X4266Y6256D01*
X4233Y6223D01*
X4200D01*
X4266Y6256D02*
Y6321D01*
X4331Y6420D02*
X4364Y6452D01*
Y6518D01*
X4331Y6551D01*
X4200D01*
X4167Y6518D01*
Y6452D01*
X4200Y6420D01*
X4233D01*
X4266Y6452D01*
Y6551D01*
X6732Y2789D02*
X6929D01*
Y2920D01*
X6732Y3117D02*
X6765Y3051D01*
X6831Y2986D01*
X6896D01*
X6929Y3018D01*
Y3084D01*
X6896Y3117D01*
X6864D01*
X6831Y3084D01*
Y2986D01*
X9599Y27037D02*
Y26873D01*
X9632Y26840D01*
X9697D01*
X9730Y26873D01*
Y27037D01*
X9927Y26840D02*
X9796D01*
X9927Y26971D01*
Y27004D01*
X9894Y27037D01*
X9829D01*
X9796Y27004D01*
X15353Y26208D02*
Y26405D01*
X15451D01*
X15484Y26372D01*
Y26306D01*
X15451Y26274D01*
X15353D01*
X15418D02*
X15484Y26208D01*
X15681D02*
X15550D01*
X15681Y26339D01*
Y26372D01*
X15648Y26405D01*
X15582D01*
X15550Y26372D01*
X15746D02*
X15779Y26405D01*
X15845D01*
X15878Y26372D01*
Y26339D01*
X15845Y26306D01*
X15878Y26274D01*
Y26241D01*
X15845Y26208D01*
X15779D01*
X15746Y26241D01*
Y26274D01*
X15779Y26306D01*
X15746Y26339D01*
Y26372D01*
X15779Y26306D02*
X15845D01*
X17672Y26267D02*
Y26464D01*
X17770D01*
X17803Y26431D01*
Y26366D01*
X17770Y26333D01*
X17672D01*
X17737D02*
X17803Y26267D01*
X17999D02*
X17868D01*
X17999Y26398D01*
Y26431D01*
X17967Y26464D01*
X17901D01*
X17868Y26431D01*
X18065Y26464D02*
X18196D01*
Y26431D01*
X18065Y26300D01*
Y26267D01*
X8909Y9531D02*
X9106D01*
Y9433D01*
X9073Y9400D01*
X9008D01*
X8975Y9433D01*
Y9531D01*
Y9466D02*
X8909Y9400D01*
X9073Y9335D02*
X9106Y9302D01*
Y9236D01*
X9073Y9203D01*
X9040D01*
X9008Y9236D01*
Y9269D01*
Y9236D01*
X8975Y9203D01*
X8942D01*
X8909Y9236D01*
Y9302D01*
X8942Y9335D01*
X9106Y9007D02*
Y9138D01*
X9008D01*
X9040Y9072D01*
Y9039D01*
X9008Y9007D01*
X8942D01*
X8909Y9039D01*
Y9105D01*
X8942Y9138D01*
X8330Y2995D02*
X8297Y2962D01*
Y2897D01*
X8330Y2864D01*
X8461D01*
X8494Y2897D01*
Y2962D01*
X8461Y2995D01*
X8330Y3061D02*
X8297Y3093D01*
Y3159D01*
X8330Y3192D01*
X8363D01*
X8396Y3159D01*
X8428Y3192D01*
X8461D01*
X8494Y3159D01*
Y3093D01*
X8461Y3061D01*
X8428D01*
X8396Y3093D01*
X8363Y3061D01*
X8330D01*
X8396Y3093D02*
Y3159D01*
X8297Y3389D02*
X8330Y3323D01*
X8396Y3257D01*
X8461D01*
X8494Y3290D01*
Y3356D01*
X8461Y3389D01*
X8428D01*
X8396Y3356D01*
Y3257D01*
X3883Y6387D02*
X3850Y6354D01*
Y6289D01*
X3883Y6256D01*
X4014D01*
X4047Y6289D01*
Y6354D01*
X4014Y6387D01*
Y6453D02*
X4047Y6485D01*
Y6551D01*
X4014Y6584D01*
X3883D01*
X3850Y6551D01*
Y6485D01*
X3883Y6453D01*
X3916D01*
X3948Y6485D01*
Y6584D01*
X3883Y6649D02*
X3850Y6682D01*
Y6748D01*
X3883Y6781D01*
X4014D01*
X4047Y6748D01*
Y6682D01*
X4014Y6649D01*
X3883D01*
X14330Y2157D02*
X14462D01*
X14396D01*
Y1960D01*
X14658D02*
X14527D01*
X14658Y2091D01*
Y2124D01*
X14626Y2157D01*
X14560D01*
X14527Y2124D01*
X9677Y22093D02*
X9874D01*
Y22192D01*
X9841Y22224D01*
X9710D01*
X9677Y22192D01*
Y22093D01*
X9874Y22290D02*
Y22356D01*
Y22323D01*
X9677D01*
X9710Y22290D01*
Y22454D02*
X9677Y22487D01*
Y22552D01*
X9710Y22585D01*
X9743D01*
X9775Y22552D01*
X9808Y22585D01*
X9841D01*
X9874Y22552D01*
Y22487D01*
X9841Y22454D01*
X9808D01*
X9775Y22487D01*
X9743Y22454D01*
X9710D01*
X9775Y22487D02*
Y22552D01*
X8297Y26984D02*
X8428D01*
X8363D01*
Y26788D01*
X8494D02*
Y26984D01*
X8592D01*
X8625Y26952D01*
Y26886D01*
X8592Y26853D01*
X8494D01*
X8691Y26984D02*
X8822D01*
Y26952D01*
X8691Y26820D01*
Y26788D01*
X11216Y34283D02*
Y34414D01*
X11183Y34447D01*
X11117D01*
X11085Y34414D01*
Y34283D01*
X11117Y34250D01*
X11183D01*
X11150Y34316D02*
X11216Y34250D01*
X11183D02*
X11216Y34283D01*
X11281Y34414D02*
X11314Y34447D01*
X11380D01*
X11413Y34414D01*
Y34382D01*
X11380Y34349D01*
X11347D01*
X11380D01*
X11413Y34316D01*
Y34283D01*
X11380Y34250D01*
X11314D01*
X11281Y34283D01*
X10326Y31272D02*
Y31403D01*
X10293Y31436D01*
X10227D01*
X10195Y31403D01*
Y31272D01*
X10227Y31239D01*
X10293D01*
X10260Y31305D02*
X10326Y31239D01*
X10293D02*
X10326Y31272D01*
X10523Y31239D02*
X10391D01*
X10523Y31370D01*
Y31403D01*
X10490Y31436D01*
X10424D01*
X10391Y31403D01*
X9452Y34163D02*
Y34294D01*
X9419Y34327D01*
X9354D01*
X9321Y34294D01*
Y34163D01*
X9354Y34130D01*
X9419D01*
X9386Y34196D02*
X9452Y34130D01*
X9419D02*
X9452Y34163D01*
X9518Y34130D02*
X9583D01*
X9550D01*
Y34327D01*
X9518Y34294D01*
X11761Y34478D02*
Y34281D01*
X11859D01*
X11892Y34314D01*
Y34445D01*
X11859Y34478D01*
X11761D01*
X12089Y34281D02*
X11958D01*
X12089Y34412D01*
Y34445D01*
X12056Y34478D01*
X11990D01*
X11958Y34445D01*
X9450Y31522D02*
Y31325D01*
X9549D01*
X9582Y31358D01*
Y31489D01*
X9549Y31522D01*
X9450D01*
X9647Y31325D02*
X9713D01*
X9680D01*
Y31522D01*
X9647Y31489D01*
X21595Y1719D02*
Y1850D01*
Y1785D01*
X21792D01*
Y1916D02*
Y1982D01*
Y1949D01*
X21595D01*
X21628Y1916D01*
X8041Y7714D02*
Y7911D01*
X8140D01*
X8173Y7878D01*
Y7812D01*
X8140Y7780D01*
X8041D01*
X8107D02*
X8173Y7714D01*
X8238Y7878D02*
X8271Y7911D01*
X8337D01*
X8369Y7878D01*
Y7845D01*
X8337Y7812D01*
X8304D01*
X8337D01*
X8369Y7780D01*
Y7747D01*
X8337Y7714D01*
X8271D01*
X8238Y7747D01*
X8566Y7911D02*
X8501Y7878D01*
X8435Y7812D01*
Y7747D01*
X8468Y7714D01*
X8533D01*
X8566Y7747D01*
Y7780D01*
X8533Y7812D01*
X8435D01*
X9292Y3909D02*
X9095D01*
Y4007D01*
X9128Y4040D01*
X9194D01*
X9226Y4007D01*
Y3909D01*
Y3974D02*
X9292Y4040D01*
X9128Y4106D02*
X9095Y4138D01*
Y4204D01*
X9128Y4237D01*
X9161D01*
X9194Y4204D01*
Y4171D01*
Y4204D01*
X9226Y4237D01*
X9259D01*
X9292Y4204D01*
Y4138D01*
X9259Y4106D01*
X9128Y4302D02*
X9095Y4335D01*
Y4401D01*
X9128Y4433D01*
X9161D01*
X9194Y4401D01*
Y4368D01*
Y4401D01*
X9226Y4433D01*
X9259D01*
X9292Y4401D01*
Y4335D01*
X9259Y4302D01*
X16086Y33345D02*
Y33181D01*
X16119Y33149D01*
X16184D01*
X16217Y33181D01*
Y33345D01*
X16283Y33149D02*
X16348D01*
X16316D01*
Y33345D01*
X16283Y33312D01*
X16447Y33149D02*
X16512D01*
X16480D01*
Y33345D01*
X16447Y33312D01*
X15777Y25266D02*
Y25102D01*
X15810Y25069D01*
X15875D01*
X15908Y25102D01*
Y25266D01*
X15974Y25233D02*
X16006Y25266D01*
X16072D01*
X16105Y25233D01*
Y25200D01*
X16072Y25167D01*
X16105Y25134D01*
Y25102D01*
X16072Y25069D01*
X16006D01*
X15974Y25102D01*
Y25134D01*
X16006Y25167D01*
X15974Y25200D01*
Y25233D01*
X16006Y25167D02*
X16072D01*
X7221Y10863D02*
X7385D01*
X7417Y10896D01*
Y10961D01*
X7385Y10994D01*
X7221D01*
X7417Y11060D02*
Y11125D01*
Y11093D01*
X7221D01*
X7253Y11060D01*
Y11224D02*
X7221Y11257D01*
Y11322D01*
X7253Y11355D01*
X7385D01*
X7417Y11322D01*
Y11257D01*
X7385Y11224D01*
X7253D01*
X10283Y1344D02*
X10250Y1377D01*
X10185D01*
X10152Y1344D01*
Y1311D01*
X10185Y1279D01*
X10250D01*
X10283Y1246D01*
Y1213D01*
X10250Y1180D01*
X10185D01*
X10152Y1213D01*
X10349Y1180D02*
X10414D01*
X10381D01*
Y1377D01*
X10349Y1344D01*
X9675Y18638D02*
X9609D01*
X9642D01*
Y18474D01*
X9609Y18441D01*
X9577D01*
X9544Y18474D01*
X9741Y18441D02*
X9806D01*
X9773D01*
Y18638D01*
X9741Y18605D01*
X9905Y18441D02*
X9970D01*
X9937D01*
Y18638D01*
X9905Y18605D01*
X8734Y4398D02*
X8701Y4365D01*
Y4299D01*
X8734Y4267D01*
X8865D01*
X8898Y4299D01*
Y4365D01*
X8865Y4398D01*
X8734Y4463D02*
X8701Y4496D01*
Y4562D01*
X8734Y4595D01*
X8767D01*
X8799Y4562D01*
X8832Y4595D01*
X8865D01*
X8898Y4562D01*
Y4496D01*
X8865Y4463D01*
X8832D01*
X8799Y4496D01*
X8767Y4463D01*
X8734D01*
X8799Y4496D02*
Y4562D01*
X8701Y4791D02*
Y4660D01*
X8799D01*
X8767Y4726D01*
Y4759D01*
X8799Y4791D01*
X8865D01*
X8898Y4759D01*
Y4693D01*
X8865Y4660D01*
X18772Y10372D02*
Y10208D01*
X18805Y10175D01*
X18870D01*
X18903Y10208D01*
Y10372D01*
X19100D02*
X19034Y10339D01*
X18969Y10273D01*
Y10208D01*
X19002Y10175D01*
X19067D01*
X19100Y10208D01*
Y10240D01*
X19067Y10273D01*
X18969D01*
X13579Y1672D02*
X13546Y1639D01*
Y1574D01*
X13579Y1541D01*
X13710D01*
X13743Y1574D01*
Y1639D01*
X13710Y1672D01*
X13546Y1869D02*
X13579Y1803D01*
X13645Y1738D01*
X13710D01*
X13743Y1771D01*
Y1836D01*
X13710Y1869D01*
X13677D01*
X13645Y1836D01*
Y1738D01*
X13743Y2033D02*
X13546D01*
X13645Y1935D01*
Y2066D01*
X13289Y1669D02*
X13256Y1636D01*
Y1570D01*
X13289Y1538D01*
X13420D01*
X13453Y1570D01*
Y1636D01*
X13420Y1669D01*
X13256Y1866D02*
X13289Y1800D01*
X13354Y1734D01*
X13420D01*
X13453Y1767D01*
Y1833D01*
X13420Y1866D01*
X13387D01*
X13354Y1833D01*
Y1734D01*
X13289Y1931D02*
X13256Y1964D01*
Y2030D01*
X13289Y2062D01*
X13321D01*
X13354Y2030D01*
Y1997D01*
Y2030D01*
X13387Y2062D01*
X13420D01*
X13453Y2030D01*
Y1964D01*
X13420Y1931D01*
X11989Y6579D02*
X11956Y6612D01*
X11890D01*
X11858Y6579D01*
Y6448D01*
X11890Y6415D01*
X11956D01*
X11989Y6448D01*
X12186Y6612D02*
X12120Y6579D01*
X12054Y6514D01*
Y6448D01*
X12087Y6415D01*
X12153D01*
X12186Y6448D01*
Y6481D01*
X12153Y6514D01*
X12054D01*
X12382Y6415D02*
X12251D01*
X12382Y6547D01*
Y6579D01*
X12350Y6612D01*
X12284D01*
X12251Y6579D01*
X12866Y2653D02*
X12834Y2620D01*
Y2555D01*
X12866Y2522D01*
X12998D01*
X13030Y2555D01*
Y2620D01*
X12998Y2653D01*
X12834Y2850D02*
Y2719D01*
X12932D01*
X12899Y2784D01*
Y2817D01*
X12932Y2850D01*
X12998D01*
X13030Y2817D01*
Y2752D01*
X12998Y2719D01*
X12834Y3047D02*
Y2916D01*
X12932D01*
X12899Y2981D01*
Y3014D01*
X12932Y3047D01*
X12998D01*
X13030Y3014D01*
Y2948D01*
X12998Y2916D01*
X15950Y1433D02*
X15917Y1401D01*
Y1335D01*
X15950Y1302D01*
X16081D01*
X16114Y1335D01*
Y1401D01*
X16081Y1433D01*
X15917Y1630D02*
Y1499D01*
X16015D01*
X15983Y1565D01*
Y1597D01*
X16015Y1630D01*
X16081D01*
X16114Y1597D01*
Y1532D01*
X16081Y1499D01*
X16114Y1696D02*
Y1761D01*
Y1729D01*
X15917D01*
X15950Y1696D01*
X12530Y4538D02*
X12498Y4505D01*
Y4440D01*
X12530Y4407D01*
X12662D01*
X12694Y4440D01*
Y4505D01*
X12662Y4538D01*
X12694Y4702D02*
X12498D01*
X12596Y4604D01*
Y4735D01*
X12498Y4801D02*
Y4932D01*
X12530D01*
X12662Y4801D01*
X12694D01*
X11977Y4614D02*
X11944Y4647D01*
X11879D01*
X11846Y4614D01*
Y4483D01*
X11879Y4450D01*
X11944D01*
X11977Y4483D01*
X12141Y4450D02*
Y4647D01*
X12043Y4548D01*
X12174D01*
X12371Y4647D02*
X12239D01*
Y4548D01*
X12305Y4581D01*
X12338D01*
X12371Y4548D01*
Y4483D01*
X12338Y4450D01*
X12272D01*
X12239Y4483D01*
X15959Y577D02*
X15926Y544D01*
Y478D01*
X15959Y445D01*
X16090D01*
X16123Y478D01*
Y544D01*
X16090Y577D01*
X16123Y741D02*
X15926D01*
X16024Y642D01*
Y773D01*
X15959Y839D02*
X15926Y872D01*
Y937D01*
X15959Y970D01*
X15991D01*
X16024Y937D01*
Y905D01*
Y937D01*
X16057Y970D01*
X16090D01*
X16123Y937D01*
Y872D01*
X16090Y839D01*
X19089Y1008D02*
X19056Y975D01*
Y910D01*
X19089Y877D01*
X19220D01*
X19253Y910D01*
Y975D01*
X19220Y1008D01*
X19089Y1074D02*
X19056Y1106D01*
Y1172D01*
X19089Y1205D01*
X19122D01*
X19155Y1172D01*
Y1139D01*
Y1172D01*
X19187Y1205D01*
X19220D01*
X19253Y1172D01*
Y1106D01*
X19220Y1074D01*
X19089Y1270D02*
X19056Y1303D01*
Y1369D01*
X19089Y1401D01*
X19122D01*
X19155Y1369D01*
Y1336D01*
Y1369D01*
X19187Y1401D01*
X19220D01*
X19253Y1369D01*
Y1303D01*
X19220Y1270D01*
X18205Y7093D02*
X18173Y7126D01*
X18107D01*
X18074Y7093D01*
Y6962D01*
X18107Y6929D01*
X18173D01*
X18205Y6962D01*
X18271Y7093D02*
X18304Y7126D01*
X18369D01*
X18402Y7093D01*
Y7060D01*
X18369Y7028D01*
X18337D01*
X18369D01*
X18402Y6995D01*
Y6962D01*
X18369Y6929D01*
X18304D01*
X18271Y6962D01*
X18599Y6929D02*
X18468D01*
X18599Y7060D01*
Y7093D01*
X18566Y7126D01*
X18501D01*
X18468Y7093D01*
X21920Y1453D02*
X21887Y1420D01*
Y1355D01*
X21920Y1322D01*
X22051D01*
X22084Y1355D01*
Y1420D01*
X22051Y1453D01*
X22084Y1650D02*
Y1519D01*
X21953Y1650D01*
X21920D01*
X21887Y1617D01*
Y1551D01*
X21920Y1519D01*
Y1715D02*
X21887Y1748D01*
Y1814D01*
X21920Y1847D01*
X21953D01*
X21986Y1814D01*
Y1781D01*
Y1814D01*
X22019Y1847D01*
X22051D01*
X22084Y1814D01*
Y1748D01*
X22051Y1715D01*
X19179Y1723D02*
X19146Y1691D01*
Y1625D01*
X19179Y1592D01*
X19310D01*
X19343Y1625D01*
Y1691D01*
X19310Y1723D01*
X19343Y1789D02*
Y1855D01*
Y1822D01*
X19146D01*
X19179Y1789D01*
X19310Y1953D02*
X19343Y1986D01*
Y2051D01*
X19310Y2084D01*
X19179D01*
X19146Y2051D01*
Y1986D01*
X19179Y1953D01*
X19212D01*
X19245Y1986D01*
Y2084D01*
X18390Y4611D02*
X18357Y4578D01*
Y4513D01*
X18390Y4480D01*
X18521D01*
X18554Y4513D01*
Y4578D01*
X18521Y4611D01*
X18554Y4677D02*
Y4742D01*
Y4710D01*
X18357D01*
X18390Y4677D01*
X18357Y4972D02*
X18390Y4906D01*
X18455Y4841D01*
X18521D01*
X18554Y4874D01*
Y4939D01*
X18521Y4972D01*
X18488D01*
X18455Y4939D01*
Y4841D01*
X18281Y5381D02*
X18248Y5413D01*
X18182D01*
X18150Y5381D01*
Y5249D01*
X18182Y5217D01*
X18248D01*
X18281Y5249D01*
X18346Y5217D02*
X18412D01*
X18379D01*
Y5413D01*
X18346Y5381D01*
X18642Y5413D02*
X18510D01*
Y5315D01*
X18576Y5348D01*
X18609D01*
X18642Y5315D01*
Y5249D01*
X18609Y5217D01*
X18543D01*
X18510Y5249D01*
X21883Y711D02*
X21851Y678D01*
Y613D01*
X21883Y580D01*
X22015D01*
X22047Y613D01*
Y678D01*
X22015Y711D01*
X22047Y777D02*
Y842D01*
Y809D01*
X21851D01*
X21883Y777D01*
Y941D02*
X21851Y973D01*
Y1039D01*
X21883Y1072D01*
X21916D01*
X21949Y1039D01*
Y1006D01*
Y1039D01*
X21982Y1072D01*
X22015D01*
X22047Y1039D01*
Y973D01*
X22015Y941D01*
X19398Y23942D02*
Y24073D01*
Y24008D01*
X19595D01*
Y24139D02*
X19398D01*
Y24237D01*
X19431Y24270D01*
X19496D01*
X19529Y24237D01*
Y24139D01*
X19595Y24336D02*
Y24401D01*
Y24368D01*
X19398D01*
X19431Y24336D01*
Y24500D02*
X19398Y24532D01*
Y24598D01*
X19431Y24631D01*
X19562D01*
X19595Y24598D01*
Y24532D01*
X19562Y24500D01*
X19431D01*
X19352Y22784D02*
Y22915D01*
Y22849D01*
X19549D01*
Y22981D02*
X19352D01*
Y23079D01*
X19385Y23112D01*
X19450D01*
X19483Y23079D01*
Y22981D01*
X19516Y23177D02*
X19549Y23210D01*
Y23276D01*
X19516Y23309D01*
X19385D01*
X19352Y23276D01*
Y23210D01*
X19385Y23177D01*
X19417D01*
X19450Y23210D01*
Y23309D01*
X8310Y25383D02*
X8441D01*
X8376D01*
Y25186D01*
X8507D02*
Y25383D01*
X8605D01*
X8638Y25350D01*
Y25284D01*
X8605Y25251D01*
X8507D01*
X8835Y25383D02*
X8769Y25350D01*
X8704Y25284D01*
Y25219D01*
X8736Y25186D01*
X8802D01*
X8835Y25219D01*
Y25251D01*
X8802Y25284D01*
X8704D01*
X8342Y28554D02*
X8473D01*
X8408D01*
Y28357D01*
X8539D02*
Y28554D01*
X8637D01*
X8670Y28521D01*
Y28456D01*
X8637Y28423D01*
X8539D01*
X8867Y28554D02*
X8736D01*
Y28456D01*
X8801Y28488D01*
X8834D01*
X8867Y28456D01*
Y28390D01*
X8834Y28357D01*
X8769D01*
X8736Y28390D01*
X8319Y30133D02*
X8450D01*
X8385D01*
Y29936D01*
X8516D02*
Y30133D01*
X8614D01*
X8647Y30100D01*
Y30034D01*
X8614Y30002D01*
X8516D01*
X8811Y29936D02*
Y30133D01*
X8713Y30034D01*
X8844D01*
X8365Y23807D02*
X8496D01*
X8431D01*
Y23610D01*
X8562D02*
Y23807D01*
X8660D01*
X8693Y23774D01*
Y23709D01*
X8660Y23676D01*
X8562D01*
X8759Y23774D02*
X8791Y23807D01*
X8857D01*
X8890Y23774D01*
Y23741D01*
X8857Y23709D01*
X8890Y23676D01*
Y23643D01*
X8857Y23610D01*
X8791D01*
X8759Y23643D01*
Y23676D01*
X8791Y23709D01*
X8759Y23741D01*
Y23774D01*
X8791Y23709D02*
X8857D01*
X12764Y32022D02*
X12895D01*
X12829D01*
Y31825D01*
X12961D02*
Y32022D01*
X13059D01*
X13092Y31989D01*
Y31924D01*
X13059Y31891D01*
X12961D01*
X13157Y31989D02*
X13190Y32022D01*
X13256D01*
X13289Y31989D01*
Y31956D01*
X13256Y31924D01*
X13223D01*
X13256D01*
X13289Y31891D01*
Y31858D01*
X13256Y31825D01*
X13190D01*
X13157Y31858D01*
X12566Y34861D02*
X12697D01*
X12632D01*
Y34665D01*
X12763D02*
Y34861D01*
X12861D01*
X12894Y34829D01*
Y34763D01*
X12861Y34730D01*
X12763D01*
X13091Y34665D02*
X12960D01*
X13091Y34796D01*
Y34829D01*
X13058Y34861D01*
X12992D01*
X12960Y34829D01*
X7250Y35299D02*
X7382D01*
X7316D01*
Y35102D01*
X7447D02*
Y35299D01*
X7546D01*
X7578Y35266D01*
Y35201D01*
X7546Y35168D01*
X7447D01*
X7644Y35102D02*
X7710D01*
X7677D01*
Y35299D01*
X7644Y35266D01*
X19199Y12470D02*
Y12667D01*
X19297D01*
X19330Y12634D01*
Y12569D01*
X19297Y12536D01*
X19199D01*
X19265D02*
X19330Y12470D01*
X19527D02*
X19396D01*
X19527Y12601D01*
Y12634D01*
X19494Y12667D01*
X19429D01*
X19396Y12634D01*
X19593D02*
X19625Y12667D01*
X19691D01*
X19724Y12634D01*
Y12601D01*
X19691Y12569D01*
X19658D01*
X19691D01*
X19724Y12536D01*
Y12503D01*
X19691Y12470D01*
X19625D01*
X19593Y12503D01*
X19174Y11385D02*
Y11582D01*
X19272D01*
X19305Y11549D01*
Y11483D01*
X19272Y11451D01*
X19174D01*
X19240D02*
X19305Y11385D01*
X19502D02*
X19371D01*
X19502Y11516D01*
Y11549D01*
X19469Y11582D01*
X19404D01*
X19371Y11549D01*
X19699Y11582D02*
X19633Y11549D01*
X19568Y11483D01*
Y11418D01*
X19600Y11385D01*
X19666D01*
X19699Y11418D01*
Y11451D01*
X19666Y11483D01*
X19568D01*
X13246Y9193D02*
Y9390D01*
X13345D01*
X13377Y9357D01*
Y9291D01*
X13345Y9258D01*
X13246D01*
X13312D02*
X13377Y9193D01*
X13574D02*
X13443D01*
X13574Y9324D01*
Y9357D01*
X13541Y9390D01*
X13476D01*
X13443Y9357D01*
X13738Y9193D02*
Y9390D01*
X13640Y9291D01*
X13771D01*
X13779Y9528D02*
X13582D01*
Y9626D01*
X13615Y9659D01*
X13681D01*
X13713Y9626D01*
Y9528D01*
Y9593D02*
X13779Y9659D01*
Y9856D02*
Y9724D01*
X13648Y9856D01*
X13615D01*
X13582Y9823D01*
Y9757D01*
X13615Y9724D01*
X13779Y10052D02*
Y9921D01*
X13648Y10052D01*
X13615D01*
X13582Y10020D01*
Y9954D01*
X13615Y9921D01*
X15785Y10424D02*
X15589D01*
Y10522D01*
X15621Y10555D01*
X15687D01*
X15720Y10522D01*
Y10424D01*
Y10489D02*
X15785Y10555D01*
Y10752D02*
Y10620D01*
X15654Y10752D01*
X15621D01*
X15589Y10719D01*
Y10653D01*
X15621Y10620D01*
X15589Y10948D02*
Y10817D01*
X15687D01*
X15654Y10883D01*
Y10915D01*
X15687Y10948D01*
X15753D01*
X15785Y10915D01*
Y10850D01*
X15753Y10817D01*
X15988Y34029D02*
Y34226D01*
X16087D01*
X16119Y34193D01*
Y34127D01*
X16087Y34094D01*
X15988D01*
X16054D02*
X16119Y34029D01*
X16283D02*
Y34226D01*
X16185Y34127D01*
X16316D01*
X16513Y34029D02*
X16382D01*
X16513Y34160D01*
Y34193D01*
X16480Y34226D01*
X16415D01*
X16382Y34193D01*
X14961Y34875D02*
Y35072D01*
X15059D01*
X15092Y35039D01*
Y34973D01*
X15059Y34941D01*
X14961D01*
X15026D02*
X15092Y34875D01*
X15256D02*
Y35072D01*
X15157Y34973D01*
X15289D01*
X15354Y34875D02*
X15420D01*
X15387D01*
Y35072D01*
X15354Y35039D01*
X4641Y6976D02*
Y7172D01*
X4739D01*
X4772Y7140D01*
Y7074D01*
X4739Y7041D01*
X4641D01*
X4706D02*
X4772Y6976D01*
X4837Y7140D02*
X4870Y7172D01*
X4936D01*
X4969Y7140D01*
Y7107D01*
X4936Y7074D01*
X4903D01*
X4936D01*
X4969Y7041D01*
Y7008D01*
X4936Y6976D01*
X4870D01*
X4837Y7008D01*
X5133Y6976D02*
Y7172D01*
X5034Y7074D01*
X5165D01*
X12803Y32261D02*
Y32457D01*
X12902D01*
X12934Y32425D01*
Y32359D01*
X12902Y32326D01*
X12803D01*
X12869D02*
X12934Y32261D01*
X13131Y32457D02*
X13000D01*
Y32359D01*
X13066Y32392D01*
X13098D01*
X13131Y32359D01*
Y32293D01*
X13098Y32261D01*
X13033D01*
X13000Y32293D01*
X4378Y3065D02*
Y3262D01*
X4476D01*
X4509Y3229D01*
Y3164D01*
X4476Y3131D01*
X4378D01*
X4444D02*
X4509Y3065D01*
X4575Y3229D02*
X4608Y3262D01*
X4673D01*
X4706Y3229D01*
Y3196D01*
X4673Y3164D01*
X4640D01*
X4673D01*
X4706Y3131D01*
Y3098D01*
X4673Y3065D01*
X4608D01*
X4575Y3098D01*
X4772Y3065D02*
X4837D01*
X4804D01*
Y3262D01*
X4772Y3229D01*
X12891Y26445D02*
Y26642D01*
X12989D01*
X13022Y26609D01*
Y26543D01*
X12989Y26510D01*
X12891D01*
X12957D02*
X13022Y26445D01*
X13088Y26642D02*
X13219D01*
Y26609D01*
X13088Y26478D01*
Y26445D01*
X11888Y4817D02*
Y5014D01*
X11986D01*
X12019Y4981D01*
Y4915D01*
X11986Y4883D01*
X11888D01*
X11953D02*
X12019Y4817D01*
X12085D02*
X12150D01*
X12117D01*
Y5014D01*
X12085Y4981D01*
X12249Y5014D02*
X12380D01*
Y4981D01*
X12249Y4850D01*
Y4817D01*
X18150Y5561D02*
Y5758D01*
X18248D01*
X18281Y5725D01*
Y5659D01*
X18248Y5627D01*
X18150D01*
X18215D02*
X18281Y5561D01*
X18346D02*
X18412D01*
X18379D01*
Y5758D01*
X18346Y5725D01*
X18510D02*
X18543Y5758D01*
X18609D01*
X18642Y5725D01*
Y5594D01*
X18609Y5561D01*
X18543D01*
X18510Y5594D01*
Y5725D01*
X12191Y359D02*
X11994D01*
Y458D01*
X12027Y490D01*
X12092D01*
X12125Y458D01*
Y359D01*
Y425D02*
X12191Y490D01*
X12027Y556D02*
X11994Y589D01*
Y654D01*
X12027Y687D01*
X12060D01*
X12092Y654D01*
Y622D01*
Y654D01*
X12125Y687D01*
X12158D01*
X12191Y654D01*
Y589D01*
X12158Y556D01*
X12027Y753D02*
X11994Y786D01*
Y851D01*
X12027Y884D01*
X12060D01*
X12092Y851D01*
X12125Y884D01*
X12158D01*
X12191Y851D01*
Y786D01*
X12158Y753D01*
X12125D01*
X12092Y786D01*
X12060Y753D01*
X12027D01*
X12092Y786D02*
Y851D01*
X11890Y6064D02*
Y6261D01*
X11989D01*
X12022Y6228D01*
Y6162D01*
X11989Y6130D01*
X11890D01*
X11956D02*
X12022Y6064D01*
X12218D02*
X12087D01*
X12218Y6195D01*
Y6228D01*
X12186Y6261D01*
X12120D01*
X12087Y6228D01*
X12284Y6064D02*
X12350D01*
X12317D01*
Y6261D01*
X12284Y6228D01*
X18088Y6600D02*
Y6797D01*
X18187D01*
X18219Y6764D01*
Y6699D01*
X18187Y6666D01*
X18088D01*
X18154D02*
X18219Y6600D01*
X18285D02*
X18351D01*
X18318D01*
Y6797D01*
X18285Y6764D01*
X18547Y6600D02*
Y6797D01*
X18449Y6699D01*
X18580D01*
X10503Y3643D02*
Y3840D01*
X10601D01*
X10634Y3807D01*
Y3741D01*
X10601Y3708D01*
X10503D01*
X10569D02*
X10634Y3643D01*
X10700Y3807D02*
X10733Y3840D01*
X10798D01*
X10831Y3807D01*
Y3774D01*
X10798Y3741D01*
X10765D01*
X10798D01*
X10831Y3708D01*
Y3676D01*
X10798Y3643D01*
X10733D01*
X10700Y3676D01*
X10897Y3840D02*
X11028D01*
Y3807D01*
X10897Y3676D01*
Y3643D01*
X7783Y31649D02*
X7979D01*
Y31550D01*
X7947Y31517D01*
X7881D01*
X7848Y31550D01*
Y31649D01*
Y31583D02*
X7783Y31517D01*
Y31353D02*
X7979D01*
X7881Y31452D01*
Y31321D01*
X9759Y33948D02*
X9956D01*
Y33849D01*
X9923Y33817D01*
X9858D01*
X9825Y33849D01*
Y33948D01*
Y33882D02*
X9759Y33817D01*
Y33751D02*
Y33685D01*
Y33718D01*
X9956D01*
X9923Y33751D01*
X18691Y2806D02*
Y2609D01*
X18823D01*
X18987D02*
Y2806D01*
X18888Y2707D01*
X19019D01*
X24544Y3317D02*
Y3121D01*
X24675D01*
X24872D02*
X24741D01*
X24872Y3252D01*
Y3285D01*
X24839Y3317D01*
X24774D01*
X24741Y3285D01*
X18674Y2479D02*
Y2282D01*
X18805D01*
X18871Y2446D02*
X18904Y2479D01*
X18969D01*
X19002Y2446D01*
Y2413D01*
X18969Y2381D01*
X18936D01*
X18969D01*
X19002Y2348D01*
Y2315D01*
X18969Y2282D01*
X18904D01*
X18871Y2315D01*
X24584Y2712D02*
Y2515D01*
X24716D01*
X24781D02*
X24847D01*
X24814D01*
Y2712D01*
X24781Y2679D01*
X13419Y448D02*
X13354D01*
X13387D01*
Y284D01*
X13354Y251D01*
X13321D01*
X13288Y284D01*
X13485Y415D02*
X13518Y448D01*
X13583D01*
X13616Y415D01*
Y382D01*
X13583Y349D01*
X13616Y317D01*
Y284D01*
X13583Y251D01*
X13518D01*
X13485Y284D01*
Y317D01*
X13518Y349D01*
X13485Y382D01*
Y415D01*
X13518Y349D02*
X13583D01*
X21753Y435D02*
X21687D01*
X21720D01*
Y271D01*
X21687Y238D01*
X21655D01*
X21622Y271D01*
X21819Y435D02*
X21950D01*
Y402D01*
X21819Y271D01*
Y238D01*
X15297Y15662D02*
X15494D01*
Y15761D01*
X15461Y15793D01*
X15330D01*
X15297Y15761D01*
Y15662D01*
X15494Y15859D02*
Y15925D01*
Y15892D01*
X15297D01*
X15330Y15859D01*
Y16023D02*
X15297Y16056D01*
Y16121D01*
X15330Y16154D01*
X15362D01*
X15395Y16121D01*
Y16089D01*
Y16121D01*
X15428Y16154D01*
X15461D01*
X15494Y16121D01*
Y16056D01*
X15461Y16023D01*
X17973Y15732D02*
X18169D01*
Y15830D01*
X18137Y15863D01*
X18005D01*
X17973Y15830D01*
Y15732D01*
X18137Y15928D02*
X18169Y15961D01*
Y16027D01*
X18137Y16060D01*
X18005D01*
X17973Y16027D01*
Y15961D01*
X18005Y15928D01*
X18038D01*
X18071Y15961D01*
Y16060D01*
X15966Y15662D02*
X16163D01*
Y15761D01*
X16130Y15793D01*
X15999D01*
X15966Y15761D01*
Y15662D01*
X16163Y15859D02*
Y15925D01*
Y15892D01*
X15966D01*
X15999Y15859D01*
X16163Y16154D02*
Y16023D01*
X16031Y16154D01*
X15999D01*
X15966Y16121D01*
Y16056D01*
X15999Y16023D01*
X18679Y15738D02*
X18876D01*
Y15836D01*
X18843Y15869D01*
X18712D01*
X18679Y15836D01*
Y15738D01*
X18712Y15935D02*
X18679Y15967D01*
Y16033D01*
X18712Y16066D01*
X18745D01*
X18778Y16033D01*
X18811Y16066D01*
X18843D01*
X18876Y16033D01*
Y15967D01*
X18843Y15935D01*
X18811D01*
X18778Y15967D01*
X18745Y15935D01*
X18712D01*
X18778Y15967D02*
Y16033D01*
X16641Y15682D02*
X16838D01*
Y15781D01*
X16805Y15814D01*
X16674D01*
X16641Y15781D01*
Y15682D01*
X16838Y15879D02*
Y15945D01*
Y15912D01*
X16641D01*
X16674Y15879D01*
X16838Y16043D02*
Y16109D01*
Y16076D01*
X16641D01*
X16674Y16043D01*
X19317Y15725D02*
X19514D01*
Y15824D01*
X19481Y15856D01*
X19350D01*
X19317Y15824D01*
Y15725D01*
Y15922D02*
Y16053D01*
X19350D01*
X19481Y15922D01*
X19514D01*
X17297Y15650D02*
X17494D01*
Y15748D01*
X17461Y15781D01*
X17330D01*
X17297Y15748D01*
Y15650D01*
X17494Y15846D02*
Y15912D01*
Y15879D01*
X17297D01*
X17330Y15846D01*
Y16010D02*
X17297Y16043D01*
Y16109D01*
X17330Y16142D01*
X17461D01*
X17494Y16109D01*
Y16043D01*
X17461Y16010D01*
X17330D01*
X20005Y15725D02*
X20202D01*
Y15824D01*
X20169Y15856D01*
X20038D01*
X20005Y15824D01*
Y15725D01*
Y16053D02*
X20038Y15988D01*
X20103Y15922D01*
X20169D01*
X20202Y15955D01*
Y16020D01*
X20169Y16053D01*
X20136D01*
X20103Y16020D01*
Y15922D01*
X14910Y32285D02*
X15107D01*
Y32384D01*
X15074Y32416D01*
X14943D01*
X14910Y32384D01*
Y32285D01*
X15107Y32613D02*
Y32482D01*
X14976Y32613D01*
X14943D01*
X14910Y32580D01*
Y32515D01*
X14943Y32482D01*
Y32679D02*
X14910Y32712D01*
Y32777D01*
X14943Y32810D01*
X15074D01*
X15107Y32777D01*
Y32712D01*
X15074Y32679D01*
X14943D01*
X13982Y32268D02*
X14179D01*
Y32367D01*
X14146Y32399D01*
X14015D01*
X13982Y32367D01*
Y32268D01*
X14179Y32465D02*
Y32531D01*
Y32498D01*
X13982D01*
X14015Y32465D01*
X14146Y32629D02*
X14179Y32662D01*
Y32727D01*
X14146Y32760D01*
X14015D01*
X13982Y32727D01*
Y32662D01*
X14015Y32629D01*
X14048D01*
X14081Y32662D01*
Y32760D01*
X13779Y27895D02*
Y27699D01*
X13877D01*
X13910Y27731D01*
Y27863D01*
X13877Y27895D01*
X13779D01*
X14107D02*
X13976D01*
Y27797D01*
X14041Y27830D01*
X14074D01*
X14107Y27797D01*
Y27731D01*
X14074Y27699D01*
X14008D01*
X13976Y27731D01*
X13765Y29651D02*
Y29454D01*
X13863D01*
X13896Y29487D01*
Y29618D01*
X13863Y29651D01*
X13765D01*
X14060Y29454D02*
Y29651D01*
X13962Y29552D01*
X14093D01*
X13793Y28833D02*
Y28636D01*
X13891D01*
X13924Y28669D01*
Y28800D01*
X13891Y28833D01*
X13793D01*
X13989Y28800D02*
X14022Y28833D01*
X14088D01*
X14121Y28800D01*
Y28767D01*
X14088Y28734D01*
X14055D01*
X14088D01*
X14121Y28702D01*
Y28669D01*
X14088Y28636D01*
X14022D01*
X13989Y28669D01*
X9919Y8414D02*
X9722D01*
Y8316D01*
X9755Y8283D01*
X9886D01*
X9919Y8316D01*
Y8414D01*
X9722Y8218D02*
Y8152D01*
Y8185D01*
X9919D01*
X9886Y8218D01*
X9919Y8054D02*
Y7922D01*
X9886D01*
X9755Y8054D01*
X9722D01*
X18855Y460D02*
X18822Y493D01*
X18756D01*
X18724Y460D01*
Y329D01*
X18756Y296D01*
X18822D01*
X18855Y329D01*
X18920Y296D02*
X18986D01*
X18953D01*
Y493D01*
X18920Y460D01*
X19084D02*
X19117Y493D01*
X19183D01*
X19216Y460D01*
Y329D01*
X19183Y296D01*
X19117D01*
X19084Y329D01*
Y460D01*
X19412Y493D02*
X19347Y460D01*
X19281Y395D01*
Y329D01*
X19314Y296D01*
X19380D01*
X19412Y329D01*
Y362D01*
X19380Y395D01*
X19281D01*
X12553Y7969D02*
X12520Y7937D01*
Y7871D01*
X12553Y7838D01*
X12684D01*
X12717Y7871D01*
Y7937D01*
X12684Y7969D01*
X12717Y8035D02*
Y8101D01*
Y8068D01*
X12520D01*
X12553Y8035D01*
Y8199D02*
X12520Y8232D01*
Y8297D01*
X12553Y8330D01*
X12684D01*
X12717Y8297D01*
Y8232D01*
X12684Y8199D01*
X12553D01*
X12520Y8527D02*
Y8396D01*
X12619D01*
X12586Y8461D01*
Y8494D01*
X12619Y8527D01*
X12684D01*
X12717Y8494D01*
Y8429D01*
X12684Y8396D01*
X24797Y370D02*
X24764Y403D01*
X24699D01*
X24666Y370D01*
Y239D01*
X24699Y206D01*
X24764D01*
X24797Y239D01*
X24863Y206D02*
X24928D01*
X24895D01*
Y403D01*
X24863Y370D01*
X25027D02*
X25059Y403D01*
X25125D01*
X25158Y370D01*
Y239D01*
X25125Y206D01*
X25059D01*
X25027Y239D01*
Y370D01*
X25322Y206D02*
Y403D01*
X25223Y305D01*
X25355D01*
X18769Y9077D02*
X18736Y9110D01*
X18671D01*
X18638Y9077D01*
Y8946D01*
X18671Y8913D01*
X18736D01*
X18769Y8946D01*
X18835Y8913D02*
X18900D01*
X18868D01*
Y9110D01*
X18835Y9077D01*
X18999D02*
X19032Y9110D01*
X19097D01*
X19130Y9077D01*
Y8946D01*
X19097Y8913D01*
X19032D01*
X18999Y8946D01*
Y9077D01*
X19196D02*
X19228Y9110D01*
X19294D01*
X19327Y9077D01*
Y9044D01*
X19294Y9011D01*
X19261D01*
X19294D01*
X19327Y8978D01*
Y8946D01*
X19294Y8913D01*
X19228D01*
X19196Y8946D01*
X17945Y8279D02*
X17912Y8312D01*
X17847D01*
X17814Y8279D01*
Y8148D01*
X17847Y8115D01*
X17912D01*
X17945Y8148D01*
X18142Y8115D02*
X18011D01*
X18142Y8246D01*
Y8279D01*
X18109Y8312D01*
X18044D01*
X18011Y8279D01*
X18339Y8312D02*
X18273Y8279D01*
X18207Y8213D01*
Y8148D01*
X18240Y8115D01*
X18306D01*
X18339Y8148D01*
Y8180D01*
X18306Y8213D01*
X18207D01*
X17940Y7995D02*
X17908Y8028D01*
X17842D01*
X17809Y7995D01*
Y7864D01*
X17842Y7831D01*
X17908D01*
X17940Y7864D01*
X18137Y7831D02*
X18006D01*
X18137Y7962D01*
Y7995D01*
X18104Y8028D01*
X18039D01*
X18006Y7995D01*
X18334Y8028D02*
X18203D01*
Y7929D01*
X18268Y7962D01*
X18301D01*
X18334Y7929D01*
Y7864D01*
X18301Y7831D01*
X18236D01*
X18203Y7864D01*
X20961Y7768D02*
X20928Y7736D01*
Y7670D01*
X20961Y7637D01*
X21092D01*
X21125Y7670D01*
Y7736D01*
X21092Y7768D01*
X21125Y7834D02*
Y7900D01*
Y7867D01*
X20928D01*
X20961Y7834D01*
X21125Y8096D02*
X20928D01*
X21027Y7998D01*
Y8129D01*
X21349Y7864D02*
X21316Y7831D01*
Y7765D01*
X21349Y7732D01*
X21480D01*
X21513Y7765D01*
Y7831D01*
X21480Y7864D01*
Y7929D02*
X21513Y7962D01*
Y8028D01*
X21480Y8060D01*
X21349D01*
X21316Y8028D01*
Y7962D01*
X21349Y7929D01*
X21381D01*
X21414Y7962D01*
Y8060D01*
X21234Y9060D02*
X21202Y9093D01*
X21136D01*
X21103Y9060D01*
Y8929D01*
X21136Y8896D01*
X21202D01*
X21234Y8929D01*
X21300Y9093D02*
X21431D01*
Y9060D01*
X21300Y8929D01*
Y8896D01*
X21497D02*
X21562D01*
X21530D01*
Y9093D01*
X21497Y9060D01*
X18335Y11410D02*
X18303Y11443D01*
X18237D01*
X18204Y11410D01*
Y11279D01*
X18237Y11246D01*
X18303D01*
X18335Y11279D01*
X18401Y11443D02*
X18532D01*
Y11410D01*
X18401Y11279D01*
Y11246D01*
X18598Y11410D02*
X18631Y11443D01*
X18696D01*
X18729Y11410D01*
Y11279D01*
X18696Y11246D01*
X18631D01*
X18598Y11279D01*
Y11410D01*
X17805Y7487D02*
X17772Y7520D01*
X17706D01*
X17673Y7487D01*
Y7356D01*
X17706Y7323D01*
X17772D01*
X17805Y7356D01*
X18001Y7520D02*
X17936Y7487D01*
X17870Y7421D01*
Y7356D01*
X17903Y7323D01*
X17969D01*
X18001Y7356D01*
Y7388D01*
X17969Y7421D01*
X17870D01*
X18198Y7520D02*
X18133Y7487D01*
X18067Y7421D01*
Y7356D01*
X18100Y7323D01*
X18165D01*
X18198Y7356D01*
Y7388D01*
X18165Y7421D01*
X18067D01*
X18520Y7438D02*
X18488Y7470D01*
X18422D01*
X18389Y7438D01*
Y7306D01*
X18422Y7274D01*
X18488D01*
X18520Y7306D01*
X18717Y7470D02*
X18652Y7438D01*
X18586Y7372D01*
Y7306D01*
X18619Y7274D01*
X18684D01*
X18717Y7306D01*
Y7339D01*
X18684Y7372D01*
X18586D01*
X18914Y7470D02*
X18783D01*
Y7372D01*
X18848Y7405D01*
X18881D01*
X18914Y7372D01*
Y7306D01*
X18881Y7274D01*
X18816D01*
X18783Y7306D01*
X16184Y10971D02*
X16152Y11004D01*
X16086D01*
X16053Y10971D01*
Y10840D01*
X16086Y10807D01*
X16152D01*
X16184Y10840D01*
X16381Y11004D02*
X16316Y10971D01*
X16250Y10905D01*
Y10840D01*
X16283Y10807D01*
X16348D01*
X16381Y10840D01*
Y10873D01*
X16348Y10905D01*
X16250D01*
X16447Y10840D02*
X16480Y10807D01*
X16545D01*
X16578Y10840D01*
Y10971D01*
X16545Y11004D01*
X16480D01*
X16447Y10971D01*
Y10938D01*
X16480Y10905D01*
X16578D01*
X16184Y11415D02*
X16152Y11448D01*
X16086D01*
X16053Y11415D01*
Y11284D01*
X16086Y11251D01*
X16152D01*
X16184Y11284D01*
X16381Y11448D02*
X16316Y11415D01*
X16250Y11350D01*
Y11284D01*
X16283Y11251D01*
X16348D01*
X16381Y11284D01*
Y11317D01*
X16348Y11350D01*
X16250D01*
X16447Y11415D02*
X16480Y11448D01*
X16545D01*
X16578Y11415D01*
Y11383D01*
X16545Y11350D01*
X16578Y11317D01*
Y11284D01*
X16545Y11251D01*
X16480D01*
X16447Y11284D01*
Y11317D01*
X16480Y11350D01*
X16447Y11383D01*
Y11415D01*
X16480Y11350D02*
X16545D01*
X16803Y12581D02*
X16771Y12614D01*
X16705D01*
X16672Y12581D01*
Y12450D01*
X16705Y12417D01*
X16771D01*
X16803Y12450D01*
X17000Y12614D02*
X16935Y12581D01*
X16869Y12515D01*
Y12450D01*
X16902Y12417D01*
X16967D01*
X17000Y12450D01*
Y12483D01*
X16967Y12515D01*
X16869D01*
X17066Y12614D02*
X17197D01*
Y12581D01*
X17066Y12450D01*
Y12417D01*
X14276Y10970D02*
X14243Y11003D01*
X14177D01*
X14144Y10970D01*
Y10839D01*
X14177Y10806D01*
X14243D01*
X14276Y10839D01*
X14341Y11003D02*
X14472D01*
Y10970D01*
X14341Y10839D01*
Y10806D01*
X14669Y11003D02*
X14538D01*
Y10904D01*
X14604Y10937D01*
X14636D01*
X14669Y10904D01*
Y10839D01*
X14636Y10806D01*
X14571D01*
X14538Y10839D01*
X14284Y11312D02*
X14252Y11345D01*
X14186D01*
X14153Y11312D01*
Y11181D01*
X14186Y11148D01*
X14252D01*
X14284Y11181D01*
X14350Y11345D02*
X14481D01*
Y11312D01*
X14350Y11181D01*
Y11148D01*
X14645D02*
Y11345D01*
X14547Y11247D01*
X14678D01*
X17359Y6986D02*
X17326Y7019D01*
X17260D01*
X17228Y6986D01*
Y6855D01*
X17260Y6822D01*
X17326D01*
X17359Y6855D01*
X17424Y6986D02*
X17457Y7019D01*
X17523D01*
X17556Y6986D01*
Y6953D01*
X17523Y6920D01*
X17490D01*
X17523D01*
X17556Y6888D01*
Y6855D01*
X17523Y6822D01*
X17457D01*
X17424Y6855D01*
X17621Y6986D02*
X17654Y7019D01*
X17720D01*
X17752Y6986D01*
Y6953D01*
X17720Y6920D01*
X17752Y6888D01*
Y6855D01*
X17720Y6822D01*
X17654D01*
X17621Y6855D01*
Y6888D01*
X17654Y6920D01*
X17621Y6953D01*
Y6986D01*
X17654Y6920D02*
X17720D01*
X24390Y5549D02*
X24357Y5582D01*
X24292D01*
X24259Y5549D01*
Y5418D01*
X24292Y5385D01*
X24357D01*
X24390Y5418D01*
X24456Y5549D02*
X24488Y5582D01*
X24554D01*
X24587Y5549D01*
Y5516D01*
X24554Y5484D01*
X24587Y5451D01*
Y5418D01*
X24554Y5385D01*
X24488D01*
X24456Y5418D01*
Y5451D01*
X24488Y5484D01*
X24456Y5516D01*
Y5549D01*
X24488Y5484D02*
X24554D01*
X14270Y12466D02*
X14237Y12498D01*
X14171D01*
X14139Y12466D01*
Y12334D01*
X14171Y12302D01*
X14237D01*
X14270Y12334D01*
X14335Y12498D02*
X14467D01*
Y12466D01*
X14335Y12334D01*
Y12302D01*
X14532Y12466D02*
X14565Y12498D01*
X14631D01*
X14663Y12466D01*
Y12433D01*
X14631Y12400D01*
X14598D01*
X14631D01*
X14663Y12367D01*
Y12334D01*
X14631Y12302D01*
X14565D01*
X14532Y12334D01*
X17460Y6654D02*
X17428Y6686D01*
X17362D01*
X17329Y6654D01*
Y6522D01*
X17362Y6490D01*
X17428D01*
X17460Y6522D01*
X17526Y6654D02*
X17559Y6686D01*
X17624D01*
X17657Y6654D01*
Y6621D01*
X17624Y6588D01*
X17592D01*
X17624D01*
X17657Y6555D01*
Y6522D01*
X17624Y6490D01*
X17559D01*
X17526Y6522D01*
X17854Y6686D02*
X17788Y6654D01*
X17723Y6588D01*
Y6522D01*
X17756Y6490D01*
X17821D01*
X17854Y6522D01*
Y6555D01*
X17821Y6588D01*
X17723D01*
X24357Y5052D02*
X24324Y5085D01*
X24259D01*
X24226Y5052D01*
Y4921D01*
X24259Y4888D01*
X24324D01*
X24357Y4921D01*
X24554Y5085D02*
X24488Y5052D01*
X24423Y4986D01*
Y4921D01*
X24456Y4888D01*
X24521D01*
X24554Y4921D01*
Y4954D01*
X24521Y4986D01*
X24423D01*
X18934Y31343D02*
X18901Y31376D01*
X18835D01*
X18802Y31343D01*
Y31212D01*
X18835Y31179D01*
X18901D01*
X18934Y31212D01*
X18999Y31179D02*
X19065D01*
X19032D01*
Y31376D01*
X18999Y31343D01*
X19163D02*
X19196Y31376D01*
X19262D01*
X19294Y31343D01*
Y31212D01*
X19262Y31179D01*
X19196D01*
X19163Y31212D01*
Y31343D01*
X19491Y31179D02*
X19360D01*
X19491Y31310D01*
Y31343D01*
X19458Y31376D01*
X19393D01*
X19360Y31343D01*
X17474Y6328D02*
X17442Y6361D01*
X17376D01*
X17343Y6328D01*
Y6197D01*
X17376Y6164D01*
X17442D01*
X17474Y6197D01*
X17540Y6328D02*
X17573Y6361D01*
X17638D01*
X17671Y6328D01*
Y6296D01*
X17638Y6263D01*
X17606D01*
X17638D01*
X17671Y6230D01*
Y6197D01*
X17638Y6164D01*
X17573D01*
X17540Y6197D01*
X17868Y6361D02*
X17737D01*
Y6263D01*
X17802Y6296D01*
X17835D01*
X17868Y6263D01*
Y6197D01*
X17835Y6164D01*
X17770D01*
X17737Y6197D01*
X24392Y4651D02*
X24359Y4684D01*
X24294D01*
X24261Y4651D01*
Y4520D01*
X24294Y4487D01*
X24359D01*
X24392Y4520D01*
X24589Y4684D02*
X24458D01*
Y4585D01*
X24523Y4618D01*
X24556D01*
X24589Y4585D01*
Y4520D01*
X24556Y4487D01*
X24490D01*
X24458Y4520D01*
X17481Y6020D02*
X17449Y6053D01*
X17383D01*
X17350Y6020D01*
Y5889D01*
X17383Y5856D01*
X17449D01*
X17481Y5889D01*
X17678Y6053D02*
X17547D01*
Y5955D01*
X17613Y5988D01*
X17645D01*
X17678Y5955D01*
Y5889D01*
X17645Y5856D01*
X17580D01*
X17547Y5889D01*
X17875Y5856D02*
X17744D01*
X17875Y5988D01*
Y6020D01*
X17842Y6053D01*
X17777D01*
X17744Y6020D01*
X24308Y4261D02*
X24276Y4294D01*
X24210D01*
X24177Y4261D01*
Y4130D01*
X24210Y4097D01*
X24276D01*
X24308Y4130D01*
X24505Y4097D02*
X24374D01*
X24505Y4228D01*
Y4261D01*
X24472Y4294D01*
X24407D01*
X24374Y4261D01*
X24669Y4097D02*
Y4294D01*
X24571Y4195D01*
X24702D01*
X9191Y5609D02*
X9158Y5642D01*
X9093D01*
X9060Y5609D01*
Y5478D01*
X9093Y5445D01*
X9158D01*
X9191Y5478D01*
X9257D02*
X9290Y5445D01*
X9355D01*
X9388Y5478D01*
Y5609D01*
X9355Y5642D01*
X9290D01*
X9257Y5609D01*
Y5576D01*
X9290Y5544D01*
X9388D01*
X9552Y5445D02*
Y5642D01*
X9454Y5544D01*
X9585D01*
X17888Y3555D02*
X17855Y3522D01*
Y3456D01*
X17888Y3424D01*
X18019D01*
X18052Y3456D01*
Y3522D01*
X18019Y3555D01*
X17888Y3620D02*
X17855Y3653D01*
Y3719D01*
X17888Y3752D01*
X17921D01*
X17954Y3719D01*
Y3686D01*
Y3719D01*
X17987Y3752D01*
X18019D01*
X18052Y3719D01*
Y3653D01*
X18019Y3620D01*
X17855Y3817D02*
Y3948D01*
X17888D01*
X18019Y3817D01*
X18052D01*
X24126Y3810D02*
X24093Y3843D01*
X24028D01*
X23995Y3810D01*
Y3679D01*
X24028Y3646D01*
X24093D01*
X24126Y3679D01*
X24192Y3843D02*
X24323D01*
Y3810D01*
X24192Y3679D01*
Y3646D01*
X17151Y1368D02*
X17119Y1335D01*
Y1269D01*
X17151Y1237D01*
X17282D01*
X17315Y1269D01*
Y1335D01*
X17282Y1368D01*
X17315Y1532D02*
X17119D01*
X17217Y1433D01*
Y1565D01*
X17151Y1630D02*
X17119Y1663D01*
Y1729D01*
X17151Y1761D01*
X17184D01*
X17217Y1729D01*
X17250Y1761D01*
X17282D01*
X17315Y1729D01*
Y1663D01*
X17282Y1630D01*
X17250D01*
X17217Y1663D01*
X17184Y1630D01*
X17151D01*
X17217Y1663D02*
Y1729D01*
X16755Y1368D02*
X16722Y1335D01*
Y1269D01*
X16755Y1237D01*
X16886D01*
X16919Y1269D01*
Y1335D01*
X16886Y1368D01*
X16919Y1532D02*
X16722D01*
X16821Y1433D01*
Y1565D01*
X16886Y1630D02*
X16919Y1663D01*
Y1729D01*
X16886Y1761D01*
X16755D01*
X16722Y1729D01*
Y1663D01*
X16755Y1630D01*
X16788D01*
X16821Y1663D01*
Y1761D01*
X23041Y1453D02*
X23008Y1420D01*
Y1355D01*
X23041Y1322D01*
X23172D01*
X23205Y1355D01*
Y1420D01*
X23172Y1453D01*
X23205Y1650D02*
Y1519D01*
X23074Y1650D01*
X23041D01*
X23008Y1617D01*
Y1551D01*
X23041Y1519D01*
Y1715D02*
X23008Y1748D01*
Y1814D01*
X23041Y1847D01*
X23172D01*
X23205Y1814D01*
Y1748D01*
X23172Y1715D01*
X23041D01*
X22658Y1519D02*
X22626Y1486D01*
Y1420D01*
X22658Y1387D01*
X22790D01*
X22822Y1420D01*
Y1486D01*
X22790Y1519D01*
X22822Y1715D02*
Y1584D01*
X22691Y1715D01*
X22658D01*
X22626Y1683D01*
Y1617D01*
X22658Y1584D01*
X22822Y1781D02*
Y1847D01*
Y1814D01*
X22626D01*
X22658Y1781D01*
X16731Y577D02*
X16699Y544D01*
Y478D01*
X16731Y445D01*
X16863D01*
X16895Y478D01*
Y544D01*
X16863Y577D01*
X16895Y741D02*
X16699D01*
X16797Y642D01*
Y773D01*
X16731Y839D02*
X16699Y872D01*
Y937D01*
X16731Y970D01*
X16863D01*
X16895Y937D01*
Y872D01*
X16863Y839D01*
X16731D01*
X17147Y642D02*
X17114Y609D01*
Y544D01*
X17147Y511D01*
X17278D01*
X17311Y544D01*
Y609D01*
X17278Y642D01*
X17311Y806D02*
X17114D01*
X17213Y708D01*
Y839D01*
X17311Y905D02*
Y970D01*
Y937D01*
X17114D01*
X17147Y905D01*
X23049Y711D02*
X23016Y678D01*
Y613D01*
X23049Y580D01*
X23180D01*
X23213Y613D01*
Y678D01*
X23180Y711D01*
X23213Y777D02*
Y842D01*
Y809D01*
X23016D01*
X23049Y777D01*
Y941D02*
X23016Y973D01*
Y1039D01*
X23049Y1072D01*
X23180D01*
X23213Y1039D01*
Y973D01*
X23180Y941D01*
X23049D01*
X22657Y777D02*
X22624Y744D01*
Y678D01*
X22657Y645D01*
X22788D01*
X22821Y678D01*
Y744D01*
X22788Y777D01*
X22821Y842D02*
Y908D01*
Y875D01*
X22624D01*
X22657Y842D01*
X22821Y1006D02*
Y1072D01*
Y1039D01*
X22624D01*
X22657Y1006D01*
X8356Y9997D02*
X8324Y10030D01*
X8258D01*
X8225Y9997D01*
Y9866D01*
X8258Y9833D01*
X8324D01*
X8356Y9866D01*
X8422Y9997D02*
X8455Y10030D01*
X8520D01*
X8553Y9997D01*
Y9964D01*
X8520Y9932D01*
X8553Y9899D01*
Y9866D01*
X8520Y9833D01*
X8455D01*
X8422Y9866D01*
Y9899D01*
X8455Y9932D01*
X8422Y9964D01*
Y9997D01*
X8455Y9932D02*
X8520D01*
X8619Y10030D02*
X8750D01*
Y9997D01*
X8619Y9866D01*
Y9833D01*
X6189Y6758D02*
X6156Y6725D01*
Y6660D01*
X6189Y6627D01*
X6320D01*
X6353Y6660D01*
Y6725D01*
X6320Y6758D01*
X6189Y6824D02*
X6156Y6856D01*
Y6922D01*
X6189Y6955D01*
X6222D01*
X6255Y6922D01*
X6288Y6955D01*
X6320D01*
X6353Y6922D01*
Y6856D01*
X6320Y6824D01*
X6288D01*
X6255Y6856D01*
X6222Y6824D01*
X6189D01*
X6255Y6856D02*
Y6922D01*
X6189Y7020D02*
X6156Y7053D01*
Y7119D01*
X6189Y7152D01*
X6222D01*
X6255Y7119D01*
X6288Y7152D01*
X6320D01*
X6353Y7119D01*
Y7053D01*
X6320Y7020D01*
X6288D01*
X6255Y7053D01*
X6222Y7020D01*
X6189D01*
X6255Y7053D02*
Y7119D01*
X12995Y1669D02*
X12962Y1636D01*
Y1570D01*
X12995Y1538D01*
X13126D01*
X13159Y1570D01*
Y1636D01*
X13126Y1669D01*
X13159Y1833D02*
X12962D01*
X13061Y1734D01*
Y1866D01*
X12962Y2062D02*
X12995Y1997D01*
X13061Y1931D01*
X13126D01*
X13159Y1964D01*
Y2030D01*
X13126Y2062D01*
X13094D01*
X13061Y2030D01*
Y1931D01*
X18780Y1010D02*
X18747Y977D01*
Y911D01*
X18780Y879D01*
X18911D01*
X18944Y911D01*
Y977D01*
X18911Y1010D01*
X18944Y1075D02*
Y1141D01*
Y1108D01*
X18747D01*
X18780Y1075D01*
X18747Y1239D02*
Y1371D01*
X18780D01*
X18911Y1239D01*
X18944D01*
X10634Y3019D02*
X10601Y3052D01*
X10536D01*
X10503Y3019D01*
Y2888D01*
X10536Y2855D01*
X10601D01*
X10634Y2888D01*
X10700D02*
X10733Y2855D01*
X10798D01*
X10831Y2888D01*
Y3019D01*
X10798Y3052D01*
X10733D01*
X10700Y3019D01*
Y2987D01*
X10733Y2954D01*
X10831D01*
X10897Y3052D02*
X11028D01*
Y3019D01*
X10897Y2888D01*
Y2855D01*
X4509Y2865D02*
X4476Y2898D01*
X4411D01*
X4378Y2865D01*
Y2734D01*
X4411Y2701D01*
X4476D01*
X4509Y2734D01*
X4575Y2865D02*
X4608Y2898D01*
X4673D01*
X4706Y2865D01*
Y2832D01*
X4673Y2799D01*
X4706Y2767D01*
Y2734D01*
X4673Y2701D01*
X4608D01*
X4575Y2734D01*
Y2767D01*
X4608Y2799D01*
X4575Y2832D01*
Y2865D01*
X4608Y2799D02*
X4673D01*
X4870Y2701D02*
Y2898D01*
X4772Y2799D01*
X4903D01*
X12165Y3204D02*
X12132Y3171D01*
Y3105D01*
X12165Y3073D01*
X12296D01*
X12329Y3105D01*
Y3171D01*
X12296Y3204D01*
X12132Y3401D02*
X12165Y3335D01*
X12230Y3269D01*
X12296D01*
X12329Y3302D01*
Y3368D01*
X12296Y3401D01*
X12263D01*
X12230Y3368D01*
Y3269D01*
X12329Y3466D02*
Y3532D01*
Y3499D01*
X12132D01*
X12165Y3466D01*
X18948Y3069D02*
X18915Y3101D01*
X18850D01*
X18817Y3069D01*
Y2937D01*
X18850Y2905D01*
X18915D01*
X18948Y2937D01*
X19014Y3069D02*
X19047Y3101D01*
X19112D01*
X19145Y3069D01*
Y3036D01*
X19112Y3003D01*
X19079D01*
X19112D01*
X19145Y2970D01*
Y2937D01*
X19112Y2905D01*
X19047D01*
X19014Y2937D01*
X19211Y2905D02*
X19276D01*
X19243D01*
Y3101D01*
X19211Y3069D01*
X4509Y3607D02*
X4476Y3640D01*
X4411D01*
X4378Y3607D01*
Y3476D01*
X4411Y3443D01*
X4476D01*
X4509Y3476D01*
X4575Y3607D02*
X4608Y3640D01*
X4673D01*
X4706Y3607D01*
Y3574D01*
X4673Y3541D01*
X4706Y3509D01*
Y3476D01*
X4673Y3443D01*
X4608D01*
X4575Y3476D01*
Y3509D01*
X4608Y3541D01*
X4575Y3574D01*
Y3607D01*
X4608Y3541D02*
X4673D01*
X4772Y3607D02*
X4804Y3640D01*
X4870D01*
X4903Y3607D01*
Y3574D01*
X4870Y3541D01*
X4837D01*
X4870D01*
X4903Y3509D01*
Y3476D01*
X4870Y3443D01*
X4804D01*
X4772Y3476D01*
X12579Y3822D02*
X12546Y3790D01*
Y3724D01*
X12579Y3691D01*
X12710D01*
X12743Y3724D01*
Y3790D01*
X12710Y3822D01*
X12546Y4019D02*
X12579Y3954D01*
X12645Y3888D01*
X12710D01*
X12743Y3921D01*
Y3986D01*
X12710Y4019D01*
X12678D01*
X12645Y3986D01*
Y3888D01*
X12579Y4085D02*
X12546Y4117D01*
Y4183D01*
X12579Y4216D01*
X12710D01*
X12743Y4183D01*
Y4117D01*
X12710Y4085D01*
X12579D01*
X18723Y3861D02*
X18690Y3828D01*
Y3763D01*
X18723Y3730D01*
X18854D01*
X18887Y3763D01*
Y3828D01*
X18854Y3861D01*
X18723Y3927D02*
X18690Y3960D01*
Y4025D01*
X18723Y4058D01*
X18755D01*
X18788Y4025D01*
Y3992D01*
Y4025D01*
X18821Y4058D01*
X18854D01*
X18887Y4025D01*
Y3960D01*
X18854Y3927D01*
X18723Y4124D02*
X18690Y4156D01*
Y4222D01*
X18723Y4255D01*
X18854D01*
X18887Y4222D01*
Y4156D01*
X18854Y4124D01*
X18723D01*
X16008Y24711D02*
X15975Y24744D01*
X15909D01*
X15876Y24711D01*
Y24580D01*
X15909Y24547D01*
X15975D01*
X16008Y24580D01*
X16073Y24744D02*
X16204D01*
Y24711D01*
X16073Y24580D01*
Y24547D01*
X16270Y24711D02*
X16303Y24744D01*
X16368D01*
X16401Y24711D01*
Y24679D01*
X16368Y24646D01*
X16401Y24613D01*
Y24580D01*
X16368Y24547D01*
X16303D01*
X16270Y24580D01*
Y24613D01*
X16303Y24646D01*
X16270Y24679D01*
Y24711D01*
X16303Y24646D02*
X16368D01*
X12291Y3834D02*
X12258Y3801D01*
Y3736D01*
X12291Y3703D01*
X12422D01*
X12455Y3736D01*
Y3801D01*
X12422Y3834D01*
X12258Y4031D02*
Y3900D01*
X12356D01*
X12324Y3965D01*
Y3998D01*
X12356Y4031D01*
X12422D01*
X12455Y3998D01*
Y3933D01*
X12422Y3900D01*
Y4097D02*
X12455Y4129D01*
Y4195D01*
X12422Y4228D01*
X12291D01*
X12258Y4195D01*
Y4129D01*
X12291Y4097D01*
X12324D01*
X12356Y4129D01*
Y4228D01*
X18420Y3863D02*
X18387Y3830D01*
Y3765D01*
X18420Y3732D01*
X18551D01*
X18584Y3765D01*
Y3830D01*
X18551Y3863D01*
X18584Y4060D02*
Y3929D01*
X18453Y4060D01*
X18420D01*
X18387Y4027D01*
Y3961D01*
X18420Y3929D01*
X18551Y4125D02*
X18584Y4158D01*
Y4224D01*
X18551Y4257D01*
X18420D01*
X18387Y4224D01*
Y4158D01*
X18420Y4125D01*
X18453D01*
X18486Y4158D01*
Y4257D01*
X18168Y24879D02*
X18135Y24846D01*
Y24780D01*
X18168Y24747D01*
X18299D01*
X18332Y24780D01*
Y24846D01*
X18299Y24879D01*
X18135Y24944D02*
Y25075D01*
X18168D01*
X18299Y24944D01*
X18332D01*
X18135Y25141D02*
Y25272D01*
X18168D01*
X18299Y25141D01*
X18332D01*
X5938Y2377D02*
X5906Y2344D01*
Y2279D01*
X5938Y2246D01*
X6070D01*
X6102Y2279D01*
Y2344D01*
X6070Y2377D01*
Y2443D02*
X6102Y2475D01*
Y2541D01*
X6070Y2574D01*
X5938D01*
X5906Y2541D01*
Y2475D01*
X5938Y2443D01*
X5971D01*
X6004Y2475D01*
Y2574D01*
X6102Y2639D02*
Y2705D01*
Y2672D01*
X5906D01*
X5938Y2639D01*
X11989Y5426D02*
X11956Y5459D01*
X11890D01*
X11858Y5426D01*
Y5295D01*
X11890Y5262D01*
X11956D01*
X11989Y5295D01*
X12186Y5459D02*
X12054D01*
Y5361D01*
X12120Y5393D01*
X12153D01*
X12186Y5361D01*
Y5295D01*
X12153Y5262D01*
X12087D01*
X12054Y5295D01*
X12251Y5426D02*
X12284Y5459D01*
X12350D01*
X12382Y5426D01*
Y5393D01*
X12350Y5361D01*
X12382Y5328D01*
Y5295D01*
X12350Y5262D01*
X12284D01*
X12251Y5295D01*
Y5328D01*
X12284Y5361D01*
X12251Y5393D01*
Y5426D01*
X12284Y5361D02*
X12350D01*
X18199Y6065D02*
X18166Y6098D01*
X18100D01*
X18068Y6065D01*
Y5934D01*
X18100Y5901D01*
X18166D01*
X18199Y5934D01*
X18396Y5901D02*
X18264D01*
X18396Y6033D01*
Y6065D01*
X18363Y6098D01*
X18297D01*
X18264Y6065D01*
X18461D02*
X18494Y6098D01*
X18560D01*
X18592Y6065D01*
Y6033D01*
X18560Y6000D01*
X18592Y5967D01*
Y5934D01*
X18560Y5901D01*
X18494D01*
X18461Y5934D01*
Y5967D01*
X18494Y6000D01*
X18461Y6033D01*
Y6065D01*
X18494Y6000D02*
X18560D01*
X7946Y3672D02*
X7913Y3704D01*
X7848D01*
X7815Y3672D01*
Y3541D01*
X7848Y3508D01*
X7913D01*
X7946Y3541D01*
X8012Y3672D02*
X8045Y3704D01*
X8110D01*
X8143Y3672D01*
Y3639D01*
X8110Y3606D01*
X8143Y3573D01*
Y3541D01*
X8110Y3508D01*
X8045D01*
X8012Y3541D01*
Y3573D01*
X8045Y3606D01*
X8012Y3639D01*
Y3672D01*
X8045Y3606D02*
X8110D01*
X8340Y3508D02*
X8209D01*
X8340Y3639D01*
Y3672D01*
X8307Y3704D01*
X8241D01*
X8209Y3672D01*
X11989Y5818D02*
X11956Y5851D01*
X11890D01*
X11858Y5818D01*
Y5687D01*
X11890Y5654D01*
X11956D01*
X11989Y5687D01*
X12186Y5851D02*
X12054D01*
Y5752D01*
X12120Y5785D01*
X12153D01*
X12186Y5752D01*
Y5687D01*
X12153Y5654D01*
X12087D01*
X12054Y5687D01*
X12251Y5851D02*
X12382D01*
Y5818D01*
X12251Y5687D01*
Y5654D01*
X18223Y6381D02*
X18190Y6413D01*
X18124D01*
X18091Y6381D01*
Y6249D01*
X18124Y6217D01*
X18190D01*
X18223Y6249D01*
X18419Y6217D02*
X18288D01*
X18419Y6348D01*
Y6381D01*
X18387Y6413D01*
X18321D01*
X18288Y6381D01*
X18485Y6413D02*
X18616D01*
Y6381D01*
X18485Y6249D01*
Y6217D01*
X7575Y2008D02*
X7542Y1975D01*
Y1909D01*
X7575Y1876D01*
X7706D01*
X7739Y1909D01*
Y1975D01*
X7706Y2008D01*
X7575Y2073D02*
X7542Y2106D01*
Y2172D01*
X7575Y2204D01*
X7607D01*
X7640Y2172D01*
X7673Y2204D01*
X7706D01*
X7739Y2172D01*
Y2106D01*
X7706Y2073D01*
X7673D01*
X7640Y2106D01*
X7607Y2073D01*
X7575D01*
X7640Y2106D02*
Y2172D01*
X7739Y2270D02*
Y2336D01*
Y2303D01*
X7542D01*
X7575Y2270D01*
X7931Y1962D02*
X7898Y1929D01*
Y1863D01*
X7931Y1830D01*
X8062D01*
X8095Y1863D01*
Y1929D01*
X8062Y1962D01*
X7931Y2027D02*
X7898Y2060D01*
Y2126D01*
X7931Y2158D01*
X7964D01*
X7996Y2126D01*
X8029Y2158D01*
X8062D01*
X8095Y2126D01*
Y2060D01*
X8062Y2027D01*
X8029D01*
X7996Y2060D01*
X7964Y2027D01*
X7931D01*
X7996Y2060D02*
Y2126D01*
X7931Y2224D02*
X7898Y2257D01*
Y2322D01*
X7931Y2355D01*
X8062D01*
X8095Y2322D01*
Y2257D01*
X8062Y2224D01*
X7931D01*
X14039Y10609D02*
Y10576D01*
X14105Y10511D01*
X14170Y10576D01*
Y10609D01*
X14105Y10511D02*
Y10412D01*
X14236D02*
X14301D01*
X14269D01*
Y10609D01*
X14236Y10576D01*
X3477Y5065D02*
X3451Y4830D01*
X3577Y4981D02*
X3350Y4914D01*
X3602Y4703D02*
X3501Y4788D01*
X3686Y4804D01*
X3707Y4829D01*
X3703Y4875D01*
X3653Y4917D01*
X3606Y4913D01*
X9500Y4581D02*
X9631Y4384D01*
Y4581D02*
X9500Y4384D01*
X9696D02*
X9762D01*
X9729D01*
Y4581D01*
X9696Y4548D01*
X22850Y6202D02*
X23014D01*
X23047Y6235D01*
Y6301D01*
X23014Y6333D01*
X22850D01*
X22883Y6399D02*
X22850Y6432D01*
Y6497D01*
X22883Y6530D01*
X22916D01*
X22949Y6497D01*
Y6465D01*
Y6497D01*
X22981Y6530D01*
X23014D01*
X23047Y6497D01*
Y6432D01*
X23014Y6399D01*
X16928Y6261D02*
X17092D01*
X17125Y6294D01*
Y6359D01*
X17092Y6392D01*
X16928D01*
X17125Y6556D02*
X16928D01*
X17027Y6458D01*
Y6589D01*
X21086Y10216D02*
Y10052D01*
X21119Y10019D01*
X21184D01*
X21217Y10052D01*
Y10216D01*
X21283D02*
X21414D01*
Y10183D01*
X21283Y10052D01*
Y10019D01*
X4393Y1789D02*
X4590D01*
Y1920D01*
X4393Y1986D02*
Y2117D01*
X4426D01*
X4557Y1986D01*
X4590D01*
X9280Y13780D02*
X9215D01*
X9247D01*
Y13616D01*
X9215Y13584D01*
X9182D01*
X9149Y13616D01*
X9346Y13584D02*
X9411D01*
X9378D01*
Y13780D01*
X9346Y13748D01*
X9641Y13584D02*
X9510D01*
X9641Y13715D01*
Y13748D01*
X9608Y13780D01*
X9542D01*
X9510Y13748D01*
X5214Y42020D02*
X5149D01*
X5182D01*
Y41856D01*
X5149Y41823D01*
X5116D01*
X5083Y41856D01*
X5280D02*
X5313Y41823D01*
X5378D01*
X5411Y41856D01*
Y41987D01*
X5378Y42020D01*
X5313D01*
X5280Y41987D01*
Y41954D01*
X5313Y41922D01*
X5411D01*
X4515Y2429D02*
X4482Y2462D01*
X4416D01*
X4383Y2429D01*
Y2298D01*
X4416Y2265D01*
X4482D01*
X4515Y2298D01*
X4580D02*
X4613Y2265D01*
X4679D01*
X4711Y2298D01*
Y2429D01*
X4679Y2462D01*
X4613D01*
X4580Y2429D01*
Y2397D01*
X4613Y2364D01*
X4711D01*
X4777Y2298D02*
X4810Y2265D01*
X4875D01*
X4908Y2298D01*
Y2429D01*
X4875Y2462D01*
X4810D01*
X4777Y2429D01*
Y2397D01*
X4810Y2364D01*
X4908D01*
X3571Y5598D02*
X3525Y5594D01*
X3483Y5544D01*
X3487Y5498D01*
X3587Y5414D01*
X3633Y5418D01*
X3676Y5468D01*
X3672Y5514D01*
X3714Y5564D02*
X3760Y5568D01*
X3802Y5619D01*
X3798Y5665D01*
X3697Y5749D01*
X3651Y5745D01*
X3609Y5695D01*
X3613Y5649D01*
X3638Y5628D01*
X3684Y5632D01*
X3748Y5707D01*
X3799Y5921D02*
X3715Y5821D01*
X3790Y5757D01*
X3807Y5829D01*
X3828Y5854D01*
X3874Y5858D01*
X3924Y5816D01*
X3929Y5769D01*
X3886Y5719D01*
X3840Y5715D01*
X4459Y1577D02*
X4426Y1610D01*
X4361D01*
X4328Y1577D01*
Y1446D01*
X4361Y1413D01*
X4426D01*
X4459Y1446D01*
X4525D02*
X4557Y1413D01*
X4623D01*
X4656Y1446D01*
Y1577D01*
X4623Y1610D01*
X4557D01*
X4525Y1577D01*
Y1544D01*
X4557Y1511D01*
X4656D01*
X4721Y1577D02*
X4754Y1610D01*
X4820D01*
X4853Y1577D01*
Y1544D01*
X4820Y1511D01*
X4853Y1479D01*
Y1446D01*
X4820Y1413D01*
X4754D01*
X4721Y1446D01*
Y1479D01*
X4754Y1511D01*
X4721Y1544D01*
Y1577D01*
X4754Y1511D02*
X4820D01*
X3681Y3846D02*
X3677Y3892D01*
X3626Y3934D01*
X3580Y3930D01*
X3496Y3829D01*
X3500Y3783D01*
X3550Y3741D01*
X3596Y3745D01*
X3647Y3703D02*
X3651Y3657D01*
X3701Y3615D01*
X3747Y3619D01*
X3831Y3719D01*
X3827Y3765D01*
X3777Y3807D01*
X3731Y3803D01*
X3710Y3778D01*
X3714Y3732D01*
X3789Y3669D01*
X3877Y3467D02*
X3776Y3551D01*
X3961Y3567D01*
X3982Y3593D01*
X3978Y3639D01*
X3928Y3681D01*
X3882Y3677D01*
X14953Y7987D02*
X14921Y7954D01*
Y7888D01*
X14953Y7855D01*
X15085D01*
X15117Y7888D01*
Y7954D01*
X15085Y7987D01*
X14921Y8052D02*
Y8183D01*
X14953D01*
X15085Y8052D01*
X15117D01*
X14921Y8380D02*
X14953Y8315D01*
X15019Y8249D01*
X15085D01*
X15117Y8282D01*
Y8347D01*
X15085Y8380D01*
X15052D01*
X15019Y8347D01*
Y8249D01*
X19744Y1831D02*
X19602Y1967D01*
X19669Y2038D01*
X19716Y2039D01*
X19763Y1994D01*
X19764Y1947D01*
X19697Y1876D01*
X19742Y1924D02*
X19835Y1926D01*
X19880Y1973D02*
X19925Y2021D01*
X19902Y1997D01*
X19760Y2133D01*
X19761Y2086D01*
X20083Y2187D02*
X19993Y2092D01*
X19988Y2277D01*
X19965Y2300D01*
X19918Y2299D01*
X19873Y2252D01*
X19874Y2205D01*
X13325Y2518D02*
X13128D01*
Y2616D01*
X13161Y2649D01*
X13226D01*
X13259Y2616D01*
Y2518D01*
Y2583D02*
X13325Y2649D01*
Y2714D02*
Y2780D01*
Y2747D01*
X13128D01*
X13161Y2714D01*
X13292Y2878D02*
X13325Y2911D01*
Y2977D01*
X13292Y3010D01*
X13161D01*
X13128Y2977D01*
Y2911D01*
X13161Y2878D01*
X13193D01*
X13226Y2911D01*
Y3010D01*
X18837Y29497D02*
Y29333D01*
X18870Y29301D01*
X18936D01*
X18969Y29333D01*
Y29497D01*
X19034Y29301D02*
X19100D01*
X19067D01*
Y29497D01*
X19034Y29465D01*
X19329Y29301D02*
X19198D01*
X19329Y29432D01*
Y29465D01*
X19296Y29497D01*
X19231D01*
X19198Y29465D01*
X17464Y8858D02*
Y8694D01*
X17497Y8661D01*
X17562D01*
X17595Y8694D01*
Y8858D01*
X17792D02*
X17661D01*
Y8760D01*
X17726Y8793D01*
X17759D01*
X17792Y8760D01*
Y8694D01*
X17759Y8661D01*
X17693D01*
X17661Y8694D01*
X20121Y29709D02*
X20253D01*
X20187D01*
Y29512D01*
X20318D02*
Y29709D01*
X20417D01*
X20449Y29676D01*
Y29610D01*
X20417Y29577D01*
X20318D01*
X20646Y29512D02*
X20515D01*
X20646Y29643D01*
Y29676D01*
X20613Y29709D01*
X20548D01*
X20515Y29676D01*
X20712D02*
X20745Y29709D01*
X20810D01*
X20843Y29676D01*
Y29545D01*
X20810Y29512D01*
X20745D01*
X20712Y29545D01*
Y29676D01*
X18266Y28543D02*
X18397D01*
X18331D01*
Y28346D01*
X18462D02*
Y28543D01*
X18561D01*
X18594Y28510D01*
Y28444D01*
X18561Y28411D01*
X18462D01*
X18659Y28346D02*
X18725D01*
X18692D01*
Y28543D01*
X18659Y28510D01*
X18823Y28379D02*
X18856Y28346D01*
X18922D01*
X18954Y28379D01*
Y28510D01*
X18922Y28543D01*
X18856D01*
X18823Y28510D01*
Y28477D01*
X18856Y28444D01*
X18954D01*
X20494Y31733D02*
X20625D01*
X20559D01*
Y31537D01*
X20691D02*
Y31733D01*
X20789D01*
X20822Y31701D01*
Y31635D01*
X20789Y31602D01*
X20691D01*
X20887Y31537D02*
X20953D01*
X20920D01*
Y31733D01*
X20887Y31701D01*
X21051D02*
X21084Y31733D01*
X21150D01*
X21183Y31701D01*
Y31668D01*
X21150Y31635D01*
X21183Y31602D01*
Y31569D01*
X21150Y31537D01*
X21084D01*
X21051Y31569D01*
Y31602D01*
X21084Y31635D01*
X21051Y31668D01*
Y31701D01*
X21084Y31635D02*
X21150D01*
X18624Y31742D02*
X18755D01*
X18689D01*
Y31545D01*
X18821D02*
Y31742D01*
X18919D01*
X18952Y31709D01*
Y31644D01*
X18919Y31611D01*
X18821D01*
X19017Y31545D02*
X19083D01*
X19050D01*
Y31742D01*
X19017Y31709D01*
X19181Y31742D02*
X19313D01*
Y31709D01*
X19181Y31578D01*
Y31545D01*
X20328Y38372D02*
X20460D01*
X20394D01*
Y38175D01*
X20525D02*
Y38372D01*
X20624D01*
X20656Y38339D01*
Y38274D01*
X20624Y38241D01*
X20525D01*
X20722Y38175D02*
X20788D01*
X20755D01*
Y38372D01*
X20722Y38339D01*
X21017Y38372D02*
X20952Y38339D01*
X20886Y38274D01*
Y38208D01*
X20919Y38175D01*
X20984D01*
X21017Y38208D01*
Y38241D01*
X20984Y38274D01*
X20886D01*
X20429Y22709D02*
X20560D01*
X20494D01*
Y22512D01*
X20626D02*
Y22709D01*
X20724D01*
X20757Y22676D01*
Y22611D01*
X20724Y22578D01*
X20626D01*
X20822Y22512D02*
X20888D01*
X20855D01*
Y22709D01*
X20822Y22676D01*
X21117Y22709D02*
X20986D01*
Y22611D01*
X21052Y22644D01*
X21085D01*
X21117Y22611D01*
Y22545D01*
X21085Y22512D01*
X21019D01*
X20986Y22545D01*
X1053Y2400D02*
X1184D01*
X1119D01*
Y2203D01*
X1250D02*
Y2400D01*
X1348D01*
X1381Y2367D01*
Y2302D01*
X1348Y2269D01*
X1250D01*
X1447Y2203D02*
X1512D01*
X1480D01*
Y2400D01*
X1447Y2367D01*
X1709Y2203D02*
Y2400D01*
X1611Y2302D01*
X1742D01*
X25573Y2440D02*
X25704D01*
X25639D01*
Y2243D01*
X25770D02*
Y2440D01*
X25868D01*
X25901Y2407D01*
Y2342D01*
X25868Y2309D01*
X25770D01*
X25967Y2243D02*
X26032D01*
X26000D01*
Y2440D01*
X25967Y2407D01*
X26131D02*
X26164Y2440D01*
X26229D01*
X26262Y2407D01*
Y2375D01*
X26229Y2342D01*
X26196D01*
X26229D01*
X26262Y2309D01*
Y2276D01*
X26229Y2243D01*
X26164D01*
X26131Y2276D01*
X15043Y26796D02*
X15174D01*
X15109D01*
Y26600D01*
X15240D02*
Y26796D01*
X15338D01*
X15371Y26764D01*
Y26698D01*
X15338Y26665D01*
X15240D01*
X15437Y26600D02*
X15502D01*
X15469D01*
Y26796D01*
X15437Y26764D01*
X15732Y26600D02*
X15601D01*
X15732Y26731D01*
Y26764D01*
X15699Y26796D01*
X15633D01*
X15601Y26764D01*
X16519Y29605D02*
X16650D01*
X16584D01*
Y29408D01*
X16715D02*
Y29605D01*
X16814D01*
X16847Y29572D01*
Y29506D01*
X16814Y29473D01*
X16715D01*
X16912Y29408D02*
X16978D01*
X16945D01*
Y29605D01*
X16912Y29572D01*
X17076Y29408D02*
X17142D01*
X17109D01*
Y29605D01*
X17076Y29572D01*
X15874Y32897D02*
X15842Y32930D01*
X15776D01*
X15743Y32897D01*
Y32865D01*
X15776Y32832D01*
X15842D01*
X15874Y32799D01*
Y32766D01*
X15842Y32733D01*
X15776D01*
X15743Y32766D01*
X16071Y32733D02*
X15940D01*
X16071Y32865D01*
Y32897D01*
X16038Y32930D01*
X15973D01*
X15940Y32897D01*
X15004Y13031D02*
Y13228D01*
X15103D01*
X15136Y13195D01*
Y13129D01*
X15103Y13096D01*
X15004D01*
X15070D02*
X15136Y13031D01*
X15332D02*
X15201D01*
X15332Y13162D01*
Y13195D01*
X15299Y13228D01*
X15234D01*
X15201Y13195D01*
X15398D02*
X15431Y13228D01*
X15496D01*
X15529Y13195D01*
Y13064D01*
X15496Y13031D01*
X15431D01*
X15398Y13064D01*
Y13195D01*
X17748Y13031D02*
Y13228D01*
X17846D01*
X17879Y13195D01*
Y13129D01*
X17846Y13096D01*
X17748D01*
X17813D02*
X17879Y13031D01*
X17944D02*
X18010D01*
X17977D01*
Y13228D01*
X17944Y13195D01*
X18108D02*
X18141Y13228D01*
X18207D01*
X18240Y13195D01*
Y13162D01*
X18207Y13129D01*
X18174D01*
X18207D01*
X18240Y13096D01*
Y13064D01*
X18207Y13031D01*
X18141D01*
X18108Y13064D01*
X15744Y13031D02*
Y13228D01*
X15842D01*
X15875Y13195D01*
Y13129D01*
X15842Y13096D01*
X15744D01*
X15809D02*
X15875Y13031D01*
X15940D02*
X16006D01*
X15973D01*
Y13228D01*
X15940Y13195D01*
X16104D02*
X16137Y13228D01*
X16203D01*
X16236Y13195D01*
Y13162D01*
X16203Y13129D01*
X16236Y13096D01*
Y13064D01*
X16203Y13031D01*
X16137D01*
X16104Y13064D01*
Y13096D01*
X16137Y13129D01*
X16104Y13162D01*
Y13195D01*
X16137Y13129D02*
X16203D01*
X18533Y13031D02*
Y13228D01*
X18631D01*
X18664Y13195D01*
Y13129D01*
X18631Y13096D01*
X18533D01*
X18599D02*
X18664Y13031D01*
X18730D02*
X18795D01*
X18763D01*
Y13228D01*
X18730Y13195D01*
X18894Y13031D02*
X18959D01*
X18927D01*
Y13228D01*
X18894Y13195D01*
X16376Y13031D02*
Y13228D01*
X16475D01*
X16508Y13195D01*
Y13129D01*
X16475Y13096D01*
X16376D01*
X16442D02*
X16508Y13031D01*
X16573D02*
X16639D01*
X16606D01*
Y13228D01*
X16573Y13195D01*
X16868Y13228D02*
X16803Y13195D01*
X16737Y13129D01*
Y13064D01*
X16770Y13031D01*
X16836D01*
X16868Y13064D01*
Y13096D01*
X16836Y13129D01*
X16737D01*
X19276Y13031D02*
Y13228D01*
X19375D01*
X19407Y13195D01*
Y13129D01*
X19375Y13096D01*
X19276D01*
X19342D02*
X19407Y13031D01*
X19473Y13064D02*
X19506Y13031D01*
X19571D01*
X19604Y13064D01*
Y13195D01*
X19571Y13228D01*
X19506D01*
X19473Y13195D01*
Y13162D01*
X19506Y13129D01*
X19604D01*
X17095Y13031D02*
Y13228D01*
X17193D01*
X17226Y13195D01*
Y13129D01*
X17193Y13096D01*
X17095D01*
X17161D02*
X17226Y13031D01*
X17292D02*
X17357D01*
X17325D01*
Y13228D01*
X17292Y13195D01*
X17587Y13228D02*
X17456D01*
Y13129D01*
X17521Y13162D01*
X17554D01*
X17587Y13129D01*
Y13064D01*
X17554Y13031D01*
X17488D01*
X17456Y13064D01*
X19952Y13031D02*
Y13228D01*
X20051D01*
X20084Y13195D01*
Y13129D01*
X20051Y13096D01*
X19952D01*
X20018D02*
X20084Y13031D01*
X20149Y13195D02*
X20182Y13228D01*
X20248D01*
X20280Y13195D01*
Y13162D01*
X20248Y13129D01*
X20280Y13096D01*
Y13064D01*
X20248Y13031D01*
X20182D01*
X20149Y13064D01*
Y13096D01*
X20182Y13129D01*
X20149Y13162D01*
Y13195D01*
X20182Y13129D02*
X20248D01*
X15030Y33524D02*
X14834D01*
Y33622D01*
X14866Y33655D01*
X14932D01*
X14965Y33622D01*
Y33524D01*
Y33590D02*
X15030Y33655D01*
Y33819D02*
X14834D01*
X14932Y33721D01*
Y33852D01*
X15030Y34016D02*
X14834D01*
X14932Y33918D01*
Y34049D01*
X14203Y33577D02*
X14006D01*
Y33675D01*
X14039Y33708D01*
X14105D01*
X14137Y33675D01*
Y33577D01*
Y33642D02*
X14203Y33708D01*
Y33872D02*
X14006D01*
X14105Y33773D01*
Y33905D01*
X14039Y33970D02*
X14006Y34003D01*
Y34069D01*
X14039Y34101D01*
X14072D01*
X14105Y34069D01*
Y34036D01*
Y34069D01*
X14137Y34101D01*
X14170D01*
X14203Y34069D01*
Y34003D01*
X14170Y33970D01*
X15964Y33512D02*
Y33709D01*
X16063D01*
X16096Y33676D01*
Y33610D01*
X16063Y33578D01*
X15964D01*
X16030D02*
X16096Y33512D01*
X16260D02*
Y33709D01*
X16161Y33610D01*
X16292D01*
X16358Y33676D02*
X16391Y33709D01*
X16456D01*
X16489Y33676D01*
Y33545D01*
X16456Y33512D01*
X16391D01*
X16358Y33545D01*
Y33676D01*
X9890Y672D02*
Y869D01*
X9988D01*
X10021Y836D01*
Y771D01*
X9988Y738D01*
X9890D01*
X9955D02*
X10021Y672D01*
X10086Y836D02*
X10119Y869D01*
X10185D01*
X10217Y836D01*
Y804D01*
X10185Y771D01*
X10152D01*
X10185D01*
X10217Y738D01*
Y705D01*
X10185Y672D01*
X10119D01*
X10086Y705D01*
X10283D02*
X10316Y672D01*
X10381D01*
X10414Y705D01*
Y836D01*
X10381Y869D01*
X10316D01*
X10283Y836D01*
Y804D01*
X10316Y771D01*
X10414D01*
X16425Y40808D02*
X16229D01*
Y40906D01*
X16261Y40939D01*
X16327D01*
X16360Y40906D01*
Y40808D01*
Y40873D02*
X16425Y40939D01*
Y41136D02*
Y41005D01*
X16294Y41136D01*
X16261D01*
X16229Y41103D01*
Y41037D01*
X16261Y41005D01*
X16393Y41201D02*
X16425Y41234D01*
Y41300D01*
X16393Y41333D01*
X16261D01*
X16229Y41300D01*
Y41234D01*
X16261Y41201D01*
X16294D01*
X16327Y41234D01*
Y41333D01*
X9232Y6578D02*
X9428D01*
Y6480D01*
X9396Y6447D01*
X9330D01*
X9297Y6480D01*
Y6578D01*
Y6513D02*
X9232Y6447D01*
X9396Y6382D02*
X9428Y6349D01*
Y6283D01*
X9396Y6250D01*
X9363D01*
X9330Y6283D01*
Y6316D01*
Y6283D01*
X9297Y6250D01*
X9264D01*
X9232Y6283D01*
Y6349D01*
X9264Y6382D01*
X9396Y6185D02*
X9428Y6152D01*
Y6086D01*
X9396Y6054D01*
X9264D01*
X9232Y6086D01*
Y6152D01*
X9264Y6185D01*
X9396D01*
X12879Y27642D02*
Y27839D01*
X12978D01*
X13010Y27806D01*
Y27740D01*
X12978Y27707D01*
X12879D01*
X12945D02*
X13010Y27642D01*
X13207Y27839D02*
X13142Y27806D01*
X13076Y27740D01*
Y27675D01*
X13109Y27642D01*
X13174D01*
X13207Y27675D01*
Y27707D01*
X13174Y27740D01*
X13076D01*
X12884Y28615D02*
Y28812D01*
X12982D01*
X13015Y28779D01*
Y28713D01*
X12982Y28680D01*
X12884D01*
X12949D02*
X13015Y28615D01*
X13081Y28779D02*
X13113Y28812D01*
X13179D01*
X13212Y28779D01*
Y28746D01*
X13179Y28713D01*
X13146D01*
X13179D01*
X13212Y28680D01*
Y28648D01*
X13179Y28615D01*
X13113D01*
X13081Y28648D01*
X12879Y29501D02*
Y29697D01*
X12978D01*
X13010Y29665D01*
Y29599D01*
X12978Y29566D01*
X12879D01*
X12945D02*
X13010Y29501D01*
X13207D02*
X13076D01*
X13207Y29632D01*
Y29665D01*
X13174Y29697D01*
X13109D01*
X13076Y29665D01*
X13243Y25106D02*
Y25237D01*
X13210Y25270D01*
X13145D01*
X13112Y25237D01*
Y25106D01*
X13145Y25073D01*
X13210D01*
X13178Y25138D02*
X13243Y25073D01*
X13210D02*
X13243Y25106D01*
X13407Y25073D02*
Y25270D01*
X13309Y25171D01*
X13440D01*
X15592Y11746D02*
Y11549D01*
X15723D01*
X15920Y11746D02*
X15789D01*
Y11648D01*
X15855Y11681D01*
X15887D01*
X15920Y11648D01*
Y11582D01*
X15887Y11549D01*
X15822D01*
X15789Y11582D01*
X6522Y34655D02*
X6456D01*
X6489D01*
Y34491D01*
X6456Y34458D01*
X6423D01*
X6390Y34491D01*
X6718Y34655D02*
X6587D01*
Y34556D01*
X6653Y34589D01*
X6686D01*
X6718Y34556D01*
Y34491D01*
X6686Y34458D01*
X6620D01*
X6587Y34491D01*
X5570Y27970D02*
X5504D01*
X5537D01*
Y27806D01*
X5504Y27773D01*
X5471D01*
X5439Y27806D01*
X5734Y27773D02*
Y27970D01*
X5635Y27872D01*
X5766D01*
X5590Y28644D02*
X5525D01*
X5557D01*
Y28480D01*
X5525Y28447D01*
X5492D01*
X5459Y28480D01*
X5787Y28447D02*
X5656D01*
X5787Y28578D01*
Y28611D01*
X5754Y28644D01*
X5688D01*
X5656Y28611D01*
X5003Y463D02*
X4938D01*
X4971D01*
Y299D01*
X4938Y266D01*
X4905D01*
X4872Y299D01*
X5069Y266D02*
X5135D01*
X5102D01*
Y463D01*
X5069Y430D01*
X5233D02*
X5266Y463D01*
X5331D01*
X5364Y430D01*
Y398D01*
X5331Y365D01*
X5299D01*
X5331D01*
X5364Y332D01*
Y299D01*
X5331Y266D01*
X5266D01*
X5233Y299D01*
X8553Y34632D02*
X8487D01*
X8520D01*
Y34468D01*
X8487Y34436D01*
X8454D01*
X8421Y34468D01*
X8618Y34436D02*
X8684D01*
X8651D01*
Y34632D01*
X8618Y34600D01*
X16129Y40090D02*
Y39894D01*
X16228D01*
X16260Y39926D01*
Y40058D01*
X16228Y40090D01*
X16129D01*
X16326Y39894D02*
X16392D01*
X16359D01*
Y40090D01*
X16326Y40058D01*
X16621Y40090D02*
X16490D01*
Y39992D01*
X16556Y40025D01*
X16588D01*
X16621Y39992D01*
Y39926D01*
X16588Y39894D01*
X16523D01*
X16490Y39926D01*
X5806Y38256D02*
Y38059D01*
X5904D01*
X5937Y38092D01*
Y38223D01*
X5904Y38256D01*
X5806D01*
X6003Y38059D02*
X6068D01*
X6035D01*
Y38256D01*
X6003Y38223D01*
X6265Y38059D02*
Y38256D01*
X6167Y38157D01*
X6298D01*
X17440Y35490D02*
X17407Y35522D01*
X17341D01*
X17308Y35490D01*
Y35358D01*
X17341Y35326D01*
X17407D01*
X17440Y35358D01*
X17505Y35326D02*
X17571D01*
X17538D01*
Y35522D01*
X17505Y35490D01*
X17669D02*
X17702Y35522D01*
X17768D01*
X17800Y35490D01*
Y35358D01*
X17768Y35326D01*
X17702D01*
X17669Y35358D01*
Y35490D01*
X17866Y35326D02*
X17932D01*
X17899D01*
Y35522D01*
X17866Y35490D01*
X13267Y9652D02*
X13234Y9619D01*
Y9553D01*
X13267Y9520D01*
X13398D01*
X13431Y9553D01*
Y9619D01*
X13398Y9652D01*
X13234Y9717D02*
Y9848D01*
X13267D01*
X13398Y9717D01*
X13431D01*
Y10045D02*
Y9914D01*
X13300Y10045D01*
X13267D01*
X13234Y10012D01*
Y9947D01*
X13267Y9914D01*
X15596Y34999D02*
X15563Y34966D01*
Y34900D01*
X15596Y34868D01*
X15727D01*
X15760Y34900D01*
Y34966D01*
X15727Y34999D01*
X15760Y35064D02*
Y35130D01*
Y35097D01*
X15563D01*
X15596Y35064D01*
Y35228D02*
X15563Y35261D01*
Y35327D01*
X15596Y35360D01*
X15727D01*
X15760Y35327D01*
Y35261D01*
X15727Y35228D01*
X15596D01*
Y35425D02*
X15563Y35458D01*
Y35524D01*
X15596Y35556D01*
X15727D01*
X15760Y35524D01*
Y35458D01*
X15727Y35425D01*
X15596D01*
X10575Y3423D02*
X10542Y3456D01*
X10477D01*
X10444Y3423D01*
Y3292D01*
X10477Y3259D01*
X10542D01*
X10575Y3292D01*
X10641D02*
X10674Y3259D01*
X10739D01*
X10772Y3292D01*
Y3423D01*
X10739Y3456D01*
X10674D01*
X10641Y3423D01*
Y3390D01*
X10674Y3357D01*
X10772D01*
X10969Y3456D02*
X10903Y3423D01*
X10838Y3357D01*
Y3292D01*
X10870Y3259D01*
X10936D01*
X10969Y3292D01*
Y3324D01*
X10936Y3357D01*
X10838D01*
X9883Y25844D02*
X9850Y25877D01*
X9785D01*
X9752Y25844D01*
Y25713D01*
X9785Y25680D01*
X9850D01*
X9883Y25713D01*
X10047Y25680D02*
Y25877D01*
X9949Y25779D01*
X10080D01*
X11381Y27986D02*
X11348Y28019D01*
X11283D01*
X11250Y27986D01*
Y27855D01*
X11283Y27822D01*
X11348D01*
X11381Y27855D01*
X11447Y27986D02*
X11479Y28019D01*
X11545D01*
X11578Y27986D01*
Y27954D01*
X11545Y27921D01*
X11512D01*
X11545D01*
X11578Y27888D01*
Y27855D01*
X11545Y27822D01*
X11479D01*
X11447Y27855D01*
X16359Y1368D02*
X16326Y1335D01*
Y1269D01*
X16359Y1237D01*
X16490D01*
X16523Y1269D01*
Y1335D01*
X16490Y1368D01*
X16326Y1565D02*
Y1433D01*
X16425D01*
X16392Y1499D01*
Y1532D01*
X16425Y1565D01*
X16490D01*
X16523Y1532D01*
Y1466D01*
X16490Y1433D01*
X16359Y1630D02*
X16326Y1663D01*
Y1729D01*
X16359Y1761D01*
X16490D01*
X16523Y1729D01*
Y1663D01*
X16490Y1630D01*
X16359D01*
X22294Y1453D02*
X22261Y1420D01*
Y1355D01*
X22294Y1322D01*
X22425D01*
X22458Y1355D01*
Y1420D01*
X22425Y1453D01*
X22458Y1650D02*
Y1519D01*
X22327Y1650D01*
X22294D01*
X22261Y1617D01*
Y1551D01*
X22294Y1519D01*
X22458Y1847D02*
Y1715D01*
X22327Y1847D01*
X22294D01*
X22261Y1814D01*
Y1748D01*
X22294Y1715D01*
X16347Y577D02*
X16314Y544D01*
Y478D01*
X16347Y445D01*
X16478D01*
X16511Y478D01*
Y544D01*
X16478Y577D01*
X16511Y741D02*
X16314D01*
X16412Y642D01*
Y773D01*
X16511Y970D02*
Y839D01*
X16379Y970D01*
X16347D01*
X16314Y937D01*
Y872D01*
X16347Y839D01*
X22264Y711D02*
X22231Y678D01*
Y613D01*
X22264Y580D01*
X22395D01*
X22428Y613D01*
Y678D01*
X22395Y711D01*
X22428Y777D02*
Y842D01*
Y809D01*
X22231D01*
X22264Y777D01*
X22428Y1072D02*
Y941D01*
X22297Y1072D01*
X22264D01*
X22231Y1039D01*
Y973D01*
X22264Y941D01*
X12475Y3180D02*
X12442Y3147D01*
Y3081D01*
X12475Y3048D01*
X12606D01*
X12639Y3081D01*
Y3147D01*
X12606Y3180D01*
X12442Y3376D02*
Y3245D01*
X12540D01*
X12508Y3311D01*
Y3344D01*
X12540Y3376D01*
X12606D01*
X12639Y3344D01*
Y3278D01*
X12606Y3245D01*
X12639Y3540D02*
X12442D01*
X12540Y3442D01*
Y3573D01*
X19276Y2349D02*
X19243Y2382D01*
X19178D01*
X19145Y2349D01*
Y2218D01*
X19178Y2185D01*
X19243D01*
X19276Y2218D01*
X19342Y2185D02*
X19407D01*
X19374D01*
Y2382D01*
X19342Y2349D01*
X19506D02*
X19538Y2382D01*
X19604D01*
X19637Y2349D01*
Y2316D01*
X19604Y2283D01*
X19637Y2250D01*
Y2218D01*
X19604Y2185D01*
X19538D01*
X19506Y2218D01*
Y2250D01*
X19538Y2283D01*
X19506Y2316D01*
Y2349D01*
X19538Y2283D02*
X19604D01*
X7697Y1606D02*
X7665Y1639D01*
X7599D01*
X7566Y1606D01*
Y1475D01*
X7599Y1442D01*
X7665D01*
X7697Y1475D01*
X7763Y1639D02*
X7894D01*
Y1606D01*
X7763Y1475D01*
Y1442D01*
X7960Y1475D02*
X7993Y1442D01*
X8058D01*
X8091Y1475D01*
Y1606D01*
X8058Y1639D01*
X7993D01*
X7960Y1606D01*
Y1573D01*
X7993Y1540D01*
X8091D01*
X12100Y28495D02*
X12067Y28528D01*
X12001D01*
X11968Y28495D01*
Y28364D01*
X12001Y28331D01*
X12067D01*
X12100Y28364D01*
X12296Y28331D02*
X12165D01*
X12296Y28462D01*
Y28495D01*
X12264Y28528D01*
X12198D01*
X12165Y28495D01*
X12903Y30524D02*
X12870Y30491D01*
Y30426D01*
X12903Y30393D01*
X13034D01*
X13067Y30426D01*
Y30491D01*
X13034Y30524D01*
X13067Y30590D02*
Y30655D01*
Y30623D01*
X12870D01*
X12903Y30590D01*
D24*
X14510Y39995D02*
D03*
D25*
X15919Y39995D02*
D03*
D26*
X6773Y36719D02*
D03*
D27*
X6773Y38127D02*
D03*
D28*
X18468Y41033D02*
D03*
M02*
