M48
;Layer_Color=9474304
;FILE_FORMAT=2:4
INCH,LZ
;TYPE=PLATED
T1F00S00C0.0100
T2F00S00C0.0118
T5F00S00C0.0394
T6F00S00C0.0400
T7F00S00C0.0402
T8F00S00C0.0429
T9F00S00C0.0512
T10F00S00C0.0630
T11F00S00C0.0709
;TYPE=NON_PLATED
T12F00S00C0.1260
%
T01
X006496Y004508
Y004941
Y005374
X006949
X007362
X007795
Y004941
Y004508
X007362
X006929
Y004941
X007362
Y005807
X007795
X006929
X006496
X014079Y019402
X014801
Y020125
X015162Y020486
Y019763
X01444
Y020486
X014079Y020125
Y020847
X014801
X013718Y020486
Y019763
X017345Y033836
X017778
Y034269
X017345
X010987Y026693
X01077
X010554
T02
X01374Y000668
Y001212
X01563Y001228
Y000668
X01602Y001961
X01644
X016849
X017252
X018756Y002072
X018974Y002282
Y001855
X018766Y001604
X018735Y000771
X019538Y000664
Y001222
X018974Y002721
X018756Y002505
X018898Y003671
X017864Y00385
X017545Y003484
X016926Y0037
X016418Y003691
X016054Y003721
X016556Y004144
X016961Y004185
X017175Y004409
X016993Y004661
X017057Y005039
X017243Y005289
X018135Y005236
X018547Y005323
X018172Y004652
X018151Y004278
X01601Y004664
Y005215
X015459
Y004664
X014907
Y005215
X014695Y003701
X014466Y00285
X014587Y002466
X015732Y002465
X020459Y002458
X020373Y002985
X020625Y003715
X020798Y004664
Y005215
X021349Y005215
X021901
Y004664
X021349
X021885Y003731
X022541Y003726
X022463Y004115
X023045Y004204
X023252Y003978
X023381Y003483
X024077Y003415
X023796Y003833
X023954Y00423
Y004627
Y005048
Y00546
X02452Y005158
X024262Y004337
X022835Y004449
X023012Y004695
X022963Y00508
X023012Y005384
X023137Y001985
X022733Y001994
X022335Y001995
X021947
X021603Y002456
X02162Y001222
Y000664
X024679Y000743
X024666Y001782
Y002204
X024671Y002605
X024662Y002923
X025006Y002852
X025018Y002406
X025015Y001976
X025187Y003189
X012943Y003694
X012638Y005306
X009913Y005203
X008858Y005205
X008996Y004606
X009056Y003962
X009075Y002913
X009075Y002362
X00938
X008023Y00228
X007618Y002265
X007214
X00678Y002481
X006795Y00319
X006224Y003723
X006031Y002747
X004922Y002817
X00453Y003822
X003465Y004039
X003752Y004372
X003407Y004607
X003394Y005238
X003715Y004993
X005602Y005184
X005622Y004532
X007864Y003543
Y003238
X008169
X008411Y001272
X008793
X007392Y00122
Y00066
X005502
Y001204
X011317Y000947
X01099Y00297
Y003367
Y003771
X012638Y005699
Y006081
Y006504
X013166Y007775
X012025Y010669
X012001Y013456
X010789Y013532
X010939Y014969
X010169Y01606
X01003Y017535
X010168Y017806
X009802Y018482
X009452Y019697
X006311Y019375
Y020163
Y02095
X006229Y01756
X006207Y01656
X007904Y013174
X008411Y012102
X008904Y012103
X008819Y009902
X009407Y008815
X008865Y007115
X008856Y006729
X009825Y006593
X007798Y006825
X007512Y007241
X007567Y007743
X00743Y010229
X005496Y007139
X004792Y006946
X004406Y006228
X004394Y00574
X003652Y00562
X005591Y005778
X005682Y006365
X005999Y006437
X011978Y016258
X013638
X01533Y015431
X016074Y01547
X016744
X0174
X018067
X018778Y015487
X01942Y015475
X0201Y015473
X020557Y015829
X020778Y0169
X017402Y017747
X016901Y017763
X01674Y013182
X017411
X018015Y013188
X018911Y013196
X019402Y013221
X020059Y013185
X020023Y012148
X020332Y011975
X020512Y011011
X021017Y010936
X021202Y01121
X021235Y010396
X021225Y009749
X020837Y009303
X020501Y009319
X020145Y008964
X019849Y009702
X019794Y010112
X018973Y010525
X018909Y011381
X018445Y011161
X017915Y01104
X017554Y01103
X01757Y010684
X017534Y009803
X018824Y009405
X019136Y008933
X018848Y007037
X018543Y007215
X018547Y006504
Y006141
Y005699
X017909Y005903
X017536Y005897
X017669Y006733
X017411Y006939
X017186Y006691
X016934Y006922
X01646
X016048Y006947
X015846Y007362
X014906Y007407
X015115Y007988
X015119Y008395
X014458Y009028
X014314Y009733
X014316Y010261
X014948Y011705
Y012055
X01527Y012717
X015398Y013215
X016074Y013175
X016088Y012814
X016485Y012553
X016511Y011988
X016498Y011588
X016511Y011144
X017238Y012562
X017638Y012505
X014882Y013425
X014902Y013829
X015722Y009481
X01734Y008211
X017923Y006959
X019264Y006848
X019845Y007343
X020281Y006723
X020641Y006713
X021545Y006778
X021956Y00686
X021826Y007176
X022304Y007082
X022718Y006969
X022518Y006746
X022924Y006723
X023327Y006289
X023324Y005949
X021901Y005766
X021349
X020798
X021265Y00766
X021614Y01071
X023547Y010236
X024024Y010954
X024368Y008842
X023143Y009287
X016673Y006693
X015305Y006734
X014695Y006722
X01439Y006663
X013954Y007343
X014907Y005766
X015459
X01601
X014293Y022088
X013941Y02303
X017392Y023297
X017534Y024675
X017294Y024891
X016718Y024848
X016114Y025461
X016102Y025818
X015973Y026374
X01759Y02628
X017588Y025226
X014958Y028245
Y02917
X015904Y030357
Y031742
X01569Y033373
X015071Y033682
X015072Y034146
X01455Y034305
X015859Y035286
X016192Y035618
X016695Y035496
X01654Y03484
X01686
X017283Y035187
X017857Y035166
X018054Y03295
X016549Y033284
X016458Y033757
X019758Y031009
X02011Y03098
X020667Y030526
X019156Y030337
X018935Y029934
X01187Y02998
Y029646
X011752Y029045
X012055Y029044
X012057Y02874
Y028435
X012772Y028245
Y027316
X012903Y026546
X012333Y02565
X011604Y025671
Y025991
X011285
X010728
X010408
X010089
Y025671
Y025351
X011604
X012127Y024423
X010856Y024439
X010167Y023858
X011047Y022244
X011332Y021567
X012805Y021212
X012593Y022456
X009537Y02135
X006311Y021737
X009813Y027283
Y027589
X009813Y027892
X010128Y027303
X01063Y027362
X010945
X011171Y027598
Y027913
X011476Y027319
X011447Y029045
X011378Y030539
X009401Y030014
X009386Y029652
X008191Y031978
X012536Y032347
X012176Y032936
X013629Y034305
X013625Y039502
X013286Y040395
X00882Y03802
X008315
X00882Y03742
Y03682
X008315
X014618Y037946
Y038451
X015218Y037946
X015818
Y038451
X015211Y039208
Y039542
X016211Y04103
T05
X025296Y005053
X026296
X002296
X001296
Y006053
X002296
Y007053
Y008053
Y009053
Y010053
Y011053
Y012053
Y013053
Y014053
Y015053
Y016053
Y017053
Y018053
Y019053
Y020053
Y021053
X001296
Y020053
Y019053
Y018053
Y017053
Y016053
Y015053
Y014053
Y013053
Y012053
Y011053
Y010053
Y009053
Y008053
Y007053
X004296Y013053
X005296
Y014053
Y015053
Y016053
Y017053
Y018053
Y019053
Y020053
Y021053
X004296
Y020053
Y019053
Y018053
Y017053
Y016053
Y015053
Y014053
X022296Y014063
Y015063
X023296
Y016063
Y017063
Y018063
Y019063
Y020063
Y021063
X022296
Y020063
Y019063
Y018063
Y017063
Y016063
X023296Y014063
Y013063
X022296
X025296Y013053
X026296
Y014053
Y015053
Y016053
Y017053
Y018053
Y019053
Y020053
Y021053
X025296
Y020053
Y019053
Y018053
Y017053
Y016053
Y015053
Y014053
Y012053
X026296
Y011053
Y010053
Y009053
Y008053
Y007053
Y006053
X025296
Y007053
Y008053
Y009053
Y010053
Y011053
Y022053
X026296
Y023053
Y024053
Y025053
Y026053
Y027053
Y028053
Y029053
Y030053
Y031053
Y032053
Y033053
Y034053
Y035053
Y036053
X025296
Y035053
Y034053
Y033053
Y032053
Y031053
Y030053
Y029053
Y028053
Y027053
Y026053
Y025053
Y024053
Y023053
X023296Y023063
Y024063
Y025063
Y026063
Y027063
Y028063
Y029063
X022296
Y028063
Y027063
Y026063
Y025063
Y024063
Y023063
Y022063
X023296
Y030663
Y031663
Y032663
Y033663
Y034663
Y035663
Y036663
X022296
Y035663
Y034663
Y033663
Y032663
Y031663
Y030663
X005296Y031053
Y032053
Y033053
Y034053
Y035053
Y036053
X004296
Y035053
Y034053
Y033053
Y032053
Y031053
Y030053
X005296
Y029053
X004296
Y027053
X005296
Y026053
Y025053
Y024053
Y023053
X004296
Y024053
Y025053
Y026053
X002296
Y027053
Y028053
Y029053
Y030053
Y031053
Y032053
Y033053
Y034053
Y035053
Y036053
X001296
Y035053
Y034053
Y033053
Y032053
Y031053
Y030053
Y029053
Y028053
Y027053
Y026053
Y025053
X002296
Y024053
Y023053
Y022053
X001296
Y023053
Y024053
X004296Y022053
X005296
X002296Y037053
Y038053
Y039053
Y040053
X001296
Y039053
Y038053
Y037053
X022296Y037663
X023296
Y038663
Y039663
X022296
Y038663
X025296Y039053
Y040053
X026296
Y039053
Y038053
Y037053
X025296
Y038053
T06
X00686Y0324
Y0334
T07
X00656Y025916
Y026916
Y027916
X008921Y035483
X009921
X010921
T08
X018809Y023071
X018823Y024258
X019003Y032292
X020853
X013029Y031272
X012781Y035483
X006755
X008593Y03065
Y029071
Y027493
Y025914
Y024336
T09
X00677Y040106
X008738
T10
X026256Y001273
X001732Y001228
X016059Y027483
X017468Y028679
X018876Y027483
X020283Y028679
X020743Y023622
X019727Y039081
T11
X007944Y015063
Y017074
T12
X004796Y011663
X022796
X017296Y021163
X004296Y041663
X023296Y041163
M30
