G04*
G04 #@! TF.GenerationSoftware,Altium Limited,Altium Designer,20.1.11 (218)*
G04*
G04 Layer_Physical_Order=1*
G04 Layer_Color=255*
%FSLAX24Y24*%
%MOIN*%
G70*
G04*
G04 #@! TF.SameCoordinates,6F335AB9-D6ED-48D2-8003-4388AB504266*
G04*
G04*
G04 #@! TF.FilePolarity,Positive*
G04*
G01*
G75*
%ADD12C,0.0050*%
%ADD15C,0.0100*%
G04:AMPARAMS|DCode=27|XSize=20mil|YSize=20mil|CornerRadius=6mil|HoleSize=0mil|Usage=FLASHONLY|Rotation=330.000|XOffset=0mil|YOffset=0mil|HoleType=Round|Shape=RoundedRectangle|*
%AMROUNDEDRECTD27*
21,1,0.0200,0.0080,0,0,330.0*
21,1,0.0080,0.0200,0,0,330.0*
1,1,0.0120,0.0015,-0.0055*
1,1,0.0120,-0.0055,-0.0015*
1,1,0.0120,-0.0015,0.0055*
1,1,0.0120,0.0055,0.0015*
%
%ADD27ROUNDEDRECTD27*%
G04:AMPARAMS|DCode=28|XSize=9.8mil|YSize=23.6mil|CornerRadius=1mil|HoleSize=0mil|Usage=FLASHONLY|Rotation=180.000|XOffset=0mil|YOffset=0mil|HoleType=Round|Shape=RoundedRectangle|*
%AMROUNDEDRECTD28*
21,1,0.0098,0.0217,0,0,180.0*
21,1,0.0079,0.0236,0,0,180.0*
1,1,0.0020,-0.0039,0.0108*
1,1,0.0020,0.0039,0.0108*
1,1,0.0020,0.0039,-0.0108*
1,1,0.0020,-0.0039,-0.0108*
%
%ADD28ROUNDEDRECTD28*%
G04:AMPARAMS|DCode=29|XSize=9.8mil|YSize=23.6mil|CornerRadius=1mil|HoleSize=0mil|Usage=FLASHONLY|Rotation=270.000|XOffset=0mil|YOffset=0mil|HoleType=Round|Shape=RoundedRectangle|*
%AMROUNDEDRECTD29*
21,1,0.0098,0.0217,0,0,270.0*
21,1,0.0079,0.0236,0,0,270.0*
1,1,0.0020,-0.0108,-0.0039*
1,1,0.0020,-0.0108,0.0039*
1,1,0.0020,0.0108,0.0039*
1,1,0.0020,0.0108,-0.0039*
%
%ADD29ROUNDEDRECTD29*%
G04:AMPARAMS|DCode=30|XSize=71mil|YSize=47mil|CornerRadius=8mil|HoleSize=0mil|Usage=FLASHONLY|Rotation=180.000|XOffset=0mil|YOffset=0mil|HoleType=Round|Shape=RoundedRectangle|*
%AMROUNDEDRECTD30*
21,1,0.0710,0.0310,0,0,180.0*
21,1,0.0550,0.0470,0,0,180.0*
1,1,0.0160,-0.0275,0.0155*
1,1,0.0160,0.0275,0.0155*
1,1,0.0160,0.0275,-0.0155*
1,1,0.0160,-0.0275,-0.0155*
%
%ADD30ROUNDEDRECTD30*%
G04:AMPARAMS|DCode=31|XSize=11.8mil|YSize=17.7mil|CornerRadius=1.2mil|HoleSize=0mil|Usage=FLASHONLY|Rotation=210.000|XOffset=0mil|YOffset=0mil|HoleType=Round|Shape=RoundedRectangle|*
%AMROUNDEDRECTD31*
21,1,0.0118,0.0154,0,0,210.0*
21,1,0.0094,0.0177,0,0,210.0*
1,1,0.0024,-0.0079,0.0043*
1,1,0.0024,0.0003,0.0090*
1,1,0.0024,0.0079,-0.0043*
1,1,0.0024,-0.0003,-0.0090*
%
%ADD31ROUNDEDRECTD31*%
G04:AMPARAMS|DCode=32|XSize=20mil|YSize=20mil|CornerRadius=6mil|HoleSize=0mil|Usage=FLASHONLY|Rotation=180.000|XOffset=0mil|YOffset=0mil|HoleType=Round|Shape=RoundedRectangle|*
%AMROUNDEDRECTD32*
21,1,0.0200,0.0080,0,0,180.0*
21,1,0.0080,0.0200,0,0,180.0*
1,1,0.0120,-0.0040,0.0040*
1,1,0.0120,0.0040,0.0040*
1,1,0.0120,0.0040,-0.0040*
1,1,0.0120,-0.0040,-0.0040*
%
%ADD32ROUNDEDRECTD32*%
G04:AMPARAMS|DCode=33|XSize=20mil|YSize=20mil|CornerRadius=6mil|HoleSize=0mil|Usage=FLASHONLY|Rotation=90.000|XOffset=0mil|YOffset=0mil|HoleType=Round|Shape=RoundedRectangle|*
%AMROUNDEDRECTD33*
21,1,0.0200,0.0080,0,0,90.0*
21,1,0.0080,0.0200,0,0,90.0*
1,1,0.0120,0.0040,0.0040*
1,1,0.0120,0.0040,-0.0040*
1,1,0.0120,-0.0040,-0.0040*
1,1,0.0120,-0.0040,0.0040*
%
%ADD33ROUNDEDRECTD33*%
G04:AMPARAMS|DCode=39|XSize=55mil|YSize=43mil|CornerRadius=8mil|HoleSize=0mil|Usage=FLASHONLY|Rotation=270.000|XOffset=0mil|YOffset=0mil|HoleType=Round|Shape=RoundedRectangle|*
%AMROUNDEDRECTD39*
21,1,0.0550,0.0271,0,0,270.0*
21,1,0.0391,0.0430,0,0,270.0*
1,1,0.0159,-0.0135,-0.0195*
1,1,0.0159,-0.0135,0.0195*
1,1,0.0159,0.0135,0.0195*
1,1,0.0159,0.0135,-0.0195*
%
%ADD39ROUNDEDRECTD39*%
G04:AMPARAMS|DCode=41|XSize=35mil|YSize=34mil|CornerRadius=6mil|HoleSize=0mil|Usage=FLASHONLY|Rotation=210.000|XOffset=0mil|YOffset=0mil|HoleType=Round|Shape=RoundedRectangle|*
%AMROUNDEDRECTD41*
21,1,0.0350,0.0221,0,0,210.0*
21,1,0.0231,0.0340,0,0,210.0*
1,1,0.0119,-0.0155,0.0038*
1,1,0.0119,0.0045,0.0153*
1,1,0.0119,0.0155,-0.0038*
1,1,0.0119,-0.0045,-0.0153*
%
%ADD41ROUNDEDRECTD41*%
G04:AMPARAMS|DCode=44|XSize=20mil|YSize=20mil|CornerRadius=6mil|HoleSize=0mil|Usage=FLASHONLY|Rotation=210.000|XOffset=0mil|YOffset=0mil|HoleType=Round|Shape=RoundedRectangle|*
%AMROUNDEDRECTD44*
21,1,0.0200,0.0080,0,0,210.0*
21,1,0.0080,0.0200,0,0,210.0*
1,1,0.0120,-0.0055,0.0015*
1,1,0.0120,0.0015,0.0055*
1,1,0.0120,0.0055,-0.0015*
1,1,0.0120,-0.0015,-0.0055*
%
%ADD44ROUNDEDRECTD44*%
G04:AMPARAMS|DCode=47|XSize=35mil|YSize=34mil|CornerRadius=6mil|HoleSize=0mil|Usage=FLASHONLY|Rotation=300.000|XOffset=0mil|YOffset=0mil|HoleType=Round|Shape=RoundedRectangle|*
%AMROUNDEDRECTD47*
21,1,0.0350,0.0221,0,0,300.0*
21,1,0.0231,0.0340,0,0,300.0*
1,1,0.0119,-0.0038,-0.0155*
1,1,0.0119,-0.0153,0.0045*
1,1,0.0119,0.0038,0.0155*
1,1,0.0119,0.0153,-0.0045*
%
%ADD47ROUNDEDRECTD47*%
G04:AMPARAMS|DCode=50|XSize=20mil|YSize=20mil|CornerRadius=6mil|HoleSize=0mil|Usage=FLASHONLY|Rotation=60.000|XOffset=0mil|YOffset=0mil|HoleType=Round|Shape=RoundedRectangle|*
%AMROUNDEDRECTD50*
21,1,0.0200,0.0080,0,0,60.0*
21,1,0.0080,0.0200,0,0,60.0*
1,1,0.0120,0.0055,0.0015*
1,1,0.0120,0.0015,-0.0055*
1,1,0.0120,-0.0055,-0.0015*
1,1,0.0120,-0.0015,0.0055*
%
%ADD50ROUNDEDRECTD50*%
G04:AMPARAMS|DCode=52|XSize=20mil|YSize=20mil|CornerRadius=6mil|HoleSize=0mil|Usage=FLASHONLY|Rotation=120.000|XOffset=0mil|YOffset=0mil|HoleType=Round|Shape=RoundedRectangle|*
%AMROUNDEDRECTD52*
21,1,0.0200,0.0080,0,0,120.0*
21,1,0.0080,0.0200,0,0,120.0*
1,1,0.0120,0.0015,0.0055*
1,1,0.0120,0.0055,-0.0015*
1,1,0.0120,-0.0015,-0.0055*
1,1,0.0120,-0.0055,0.0015*
%
%ADD52ROUNDEDRECTD52*%
G04:AMPARAMS|DCode=53|XSize=55mil|YSize=43mil|CornerRadius=8mil|HoleSize=0mil|Usage=FLASHONLY|Rotation=180.000|XOffset=0mil|YOffset=0mil|HoleType=Round|Shape=RoundedRectangle|*
%AMROUNDEDRECTD53*
21,1,0.0550,0.0271,0,0,180.0*
21,1,0.0391,0.0430,0,0,180.0*
1,1,0.0159,-0.0195,0.0135*
1,1,0.0159,0.0195,0.0135*
1,1,0.0159,0.0195,-0.0135*
1,1,0.0159,-0.0195,-0.0135*
%
%ADD53ROUNDEDRECTD53*%
G04:AMPARAMS|DCode=54|XSize=27.6mil|YSize=13.8mil|CornerRadius=1.4mil|HoleSize=0mil|Usage=FLASHONLY|Rotation=210.000|XOffset=0mil|YOffset=0mil|HoleType=Round|Shape=RoundedRectangle|*
%AMROUNDEDRECTD54*
21,1,0.0276,0.0110,0,0,210.0*
21,1,0.0248,0.0138,0,0,210.0*
1,1,0.0028,-0.0135,-0.0014*
1,1,0.0028,0.0080,0.0110*
1,1,0.0028,0.0135,0.0014*
1,1,0.0028,-0.0080,-0.0110*
%
%ADD54ROUNDEDRECTD54*%
G04:AMPARAMS|DCode=55|XSize=23.6mil|YSize=25.6mil|CornerRadius=2.4mil|HoleSize=0mil|Usage=FLASHONLY|Rotation=210.000|XOffset=0mil|YOffset=0mil|HoleType=Round|Shape=RoundedRectangle|*
%AMROUNDEDRECTD55*
21,1,0.0236,0.0209,0,0,210.0*
21,1,0.0189,0.0256,0,0,210.0*
1,1,0.0047,-0.0134,0.0043*
1,1,0.0047,0.0030,0.0138*
1,1,0.0047,0.0134,-0.0043*
1,1,0.0047,-0.0030,-0.0138*
%
%ADD55ROUNDEDRECTD55*%
G04:AMPARAMS|DCode=58|XSize=35mil|YSize=34mil|CornerRadius=6mil|HoleSize=0mil|Usage=FLASHONLY|Rotation=0.000|XOffset=0mil|YOffset=0mil|HoleType=Round|Shape=RoundedRectangle|*
%AMROUNDEDRECTD58*
21,1,0.0350,0.0221,0,0,0.0*
21,1,0.0231,0.0340,0,0,0.0*
1,1,0.0119,0.0116,-0.0111*
1,1,0.0119,-0.0116,-0.0111*
1,1,0.0119,-0.0116,0.0111*
1,1,0.0119,0.0116,0.0111*
%
%ADD58ROUNDEDRECTD58*%
G04:AMPARAMS|DCode=60|XSize=35mil|YSize=34mil|CornerRadius=6mil|HoleSize=0mil|Usage=FLASHONLY|Rotation=90.000|XOffset=0mil|YOffset=0mil|HoleType=Round|Shape=RoundedRectangle|*
%AMROUNDEDRECTD60*
21,1,0.0350,0.0221,0,0,90.0*
21,1,0.0231,0.0340,0,0,90.0*
1,1,0.0119,0.0111,0.0116*
1,1,0.0119,0.0111,-0.0116*
1,1,0.0119,-0.0111,-0.0116*
1,1,0.0119,-0.0111,0.0116*
%
%ADD60ROUNDEDRECTD60*%
G04:AMPARAMS|DCode=64|XSize=7.9mil|YSize=22.2mil|CornerRadius=1.2mil|HoleSize=0mil|Usage=FLASHONLY|Rotation=270.000|XOffset=0mil|YOffset=0mil|HoleType=Round|Shape=RoundedRectangle|*
%AMROUNDEDRECTD64*
21,1,0.0079,0.0199,0,0,270.0*
21,1,0.0055,0.0222,0,0,270.0*
1,1,0.0024,-0.0099,-0.0028*
1,1,0.0024,-0.0099,0.0028*
1,1,0.0024,0.0099,0.0028*
1,1,0.0024,0.0099,-0.0028*
%
%ADD64ROUNDEDRECTD64*%
G04:AMPARAMS|DCode=65|XSize=7.9mil|YSize=22.2mil|CornerRadius=1.2mil|HoleSize=0mil|Usage=FLASHONLY|Rotation=0.000|XOffset=0mil|YOffset=0mil|HoleType=Round|Shape=RoundedRectangle|*
%AMROUNDEDRECTD65*
21,1,0.0079,0.0199,0,0,0.0*
21,1,0.0055,0.0222,0,0,0.0*
1,1,0.0024,0.0028,-0.0099*
1,1,0.0024,-0.0028,-0.0099*
1,1,0.0024,-0.0028,0.0099*
1,1,0.0024,0.0028,0.0099*
%
%ADD65ROUNDEDRECTD65*%
G04:AMPARAMS|DCode=68|XSize=55mil|YSize=43mil|CornerRadius=8mil|HoleSize=0mil|Usage=FLASHONLY|Rotation=60.000|XOffset=0mil|YOffset=0mil|HoleType=Round|Shape=RoundedRectangle|*
%AMROUNDEDRECTD68*
21,1,0.0550,0.0271,0,0,60.0*
21,1,0.0391,0.0430,0,0,60.0*
1,1,0.0159,0.0215,0.0102*
1,1,0.0159,0.0020,-0.0237*
1,1,0.0159,-0.0215,-0.0102*
1,1,0.0159,-0.0020,0.0237*
%
%ADD68ROUNDEDRECTD68*%
%ADD105P,0.0947X4X75.0*%
%ADD143C,0.0085*%
%ADD144C,0.0060*%
%ADD145C,0.0120*%
%ADD146C,0.0120*%
%ADD147C,0.0150*%
%ADD148C,0.0080*%
%ADD149C,0.0080*%
%ADD150R,0.0276X0.0118*%
%ADD151R,0.0591X0.2205*%
%ADD152R,0.0630X0.1929*%
%ADD153R,0.1024X0.1024*%
G04:AMPARAMS|DCode=154|XSize=63mil|YSize=39.4mil|CornerRadius=2mil|HoleSize=0mil|Usage=FLASHONLY|Rotation=210.000|XOffset=0mil|YOffset=0mil|HoleType=Round|Shape=RoundedRectangle|*
%AMROUNDEDRECTD154*
21,1,0.0630,0.0354,0,0,210.0*
21,1,0.0591,0.0394,0,0,210.0*
1,1,0.0039,-0.0344,0.0006*
1,1,0.0039,0.0167,0.0301*
1,1,0.0039,0.0344,-0.0006*
1,1,0.0039,-0.0167,-0.0301*
%
%ADD154ROUNDEDRECTD154*%
G04:AMPARAMS|DCode=155|XSize=15.7mil|YSize=12.8mil|CornerRadius=0mil|HoleSize=0mil|Usage=FLASHONLY|Rotation=60.000|XOffset=0mil|YOffset=0mil|HoleType=Round|Shape=Rectangle|*
%AMROTATEDRECTD155*
4,1,4,0.0016,-0.0100,-0.0095,-0.0036,-0.0016,0.0100,0.0095,0.0036,0.0016,-0.0100,0.0*
%
%ADD155ROTATEDRECTD155*%

G04:AMPARAMS|DCode=156|XSize=13.8mil|YSize=14.8mil|CornerRadius=0mil|HoleSize=0mil|Usage=FLASHONLY|Rotation=150.000|XOffset=0mil|YOffset=0mil|HoleType=Round|Shape=Rectangle|*
%AMROTATEDRECTD156*
4,1,4,0.0097,0.0029,0.0023,-0.0098,-0.0097,-0.0029,-0.0023,0.0098,0.0097,0.0029,0.0*
%
%ADD156ROTATEDRECTD156*%

G04:AMPARAMS|DCode=157|XSize=15.7mil|YSize=82.7mil|CornerRadius=0mil|HoleSize=0mil|Usage=FLASHONLY|Rotation=150.000|XOffset=0mil|YOffset=0mil|HoleType=Round|Shape=Rectangle|*
%AMROTATEDRECTD157*
4,1,4,0.0275,0.0319,-0.0139,-0.0397,-0.0275,-0.0319,0.0139,0.0397,0.0275,0.0319,0.0*
%
%ADD157ROTATEDRECTD157*%

%ADD158R,0.0394X0.1299*%
%ADD159R,0.1299X0.0394*%
%ADD160R,0.0394X0.1142*%
%ADD161R,0.1142X0.0394*%
G04:AMPARAMS|DCode=162|XSize=31.5mil|YSize=35.4mil|CornerRadius=0mil|HoleSize=0mil|Usage=FLASHONLY|Rotation=30.000|XOffset=0mil|YOffset=0mil|HoleType=Round|Shape=Rectangle|*
%AMROTATEDRECTD162*
4,1,4,-0.0048,-0.0232,-0.0225,0.0075,0.0048,0.0232,0.0225,-0.0075,-0.0048,-0.0232,0.0*
%
%ADD162ROTATEDRECTD162*%

G04:AMPARAMS|DCode=163|XSize=25.6mil|YSize=68.9mil|CornerRadius=3.8mil|HoleSize=0mil|Usage=FLASHONLY|Rotation=150.000|XOffset=0mil|YOffset=0mil|HoleType=Round|Shape=RoundedRectangle|*
%AMROUNDEDRECTD163*
21,1,0.0256,0.0612,0,0,150.0*
21,1,0.0179,0.0689,0,0,150.0*
1,1,0.0077,0.0075,0.0310*
1,1,0.0077,0.0231,0.0220*
1,1,0.0077,-0.0075,-0.0310*
1,1,0.0077,-0.0231,-0.0220*
%
%ADD163ROUNDEDRECTD163*%
G04:AMPARAMS|DCode=164|XSize=11.8mil|YSize=57.1mil|CornerRadius=1.8mil|HoleSize=0mil|Usage=FLASHONLY|Rotation=180.000|XOffset=0mil|YOffset=0mil|HoleType=Round|Shape=RoundedRectangle|*
%AMROUNDEDRECTD164*
21,1,0.0118,0.0535,0,0,180.0*
21,1,0.0083,0.0571,0,0,180.0*
1,1,0.0035,-0.0041,0.0268*
1,1,0.0035,0.0041,0.0268*
1,1,0.0035,0.0041,-0.0268*
1,1,0.0035,-0.0041,-0.0268*
%
%ADD164ROUNDEDRECTD164*%
%ADD165C,0.0394*%
G04:AMPARAMS|DCode=166|XSize=13.8mil|YSize=53.1mil|CornerRadius=1.4mil|HoleSize=0mil|Usage=FLASHONLY|Rotation=300.000|XOffset=0mil|YOffset=0mil|HoleType=Round|Shape=RoundedRectangle|*
%AMROUNDEDRECTD166*
21,1,0.0138,0.0504,0,0,300.0*
21,1,0.0110,0.0531,0,0,300.0*
1,1,0.0028,-0.0191,-0.0174*
1,1,0.0028,-0.0246,-0.0078*
1,1,0.0028,0.0191,0.0174*
1,1,0.0028,0.0246,0.0078*
%
%ADD166ROUNDEDRECTD166*%
G04:AMPARAMS|DCode=167|XSize=11.8mil|YSize=29.5mil|CornerRadius=1.2mil|HoleSize=0mil|Usage=FLASHONLY|Rotation=300.000|XOffset=0mil|YOffset=0mil|HoleType=Round|Shape=RoundedRectangle|*
%AMROUNDEDRECTD167*
21,1,0.0118,0.0272,0,0,300.0*
21,1,0.0094,0.0295,0,0,300.0*
1,1,0.0024,-0.0094,-0.0109*
1,1,0.0024,-0.0141,-0.0027*
1,1,0.0024,0.0094,0.0109*
1,1,0.0024,0.0141,0.0027*
%
%ADD167ROUNDEDRECTD167*%
G04:AMPARAMS|DCode=168|XSize=15.7mil|YSize=31.5mil|CornerRadius=1.6mil|HoleSize=0mil|Usage=FLASHONLY|Rotation=300.000|XOffset=0mil|YOffset=0mil|HoleType=Round|Shape=RoundedRectangle|*
%AMROUNDEDRECTD168*
21,1,0.0157,0.0283,0,0,300.0*
21,1,0.0126,0.0315,0,0,300.0*
1,1,0.0032,-0.0091,-0.0125*
1,1,0.0032,-0.0154,-0.0016*
1,1,0.0032,0.0091,0.0125*
1,1,0.0032,0.0154,0.0016*
%
%ADD168ROUNDEDRECTD168*%
G04:AMPARAMS|DCode=169|XSize=11mil|YSize=27.6mil|CornerRadius=0.6mil|HoleSize=0mil|Usage=FLASHONLY|Rotation=300.000|XOffset=0mil|YOffset=0mil|HoleType=Round|Shape=RoundedRectangle|*
%AMROUNDEDRECTD169*
21,1,0.0110,0.0265,0,0,300.0*
21,1,0.0099,0.0276,0,0,300.0*
1,1,0.0011,-0.0090,-0.0109*
1,1,0.0011,-0.0139,-0.0023*
1,1,0.0011,0.0090,0.0109*
1,1,0.0011,0.0139,0.0023*
%
%ADD169ROUNDEDRECTD169*%
G04:AMPARAMS|DCode=170|XSize=11mil|YSize=27.6mil|CornerRadius=0.6mil|HoleSize=0mil|Usage=FLASHONLY|Rotation=210.000|XOffset=0mil|YOffset=0mil|HoleType=Round|Shape=RoundedRectangle|*
%AMROUNDEDRECTD170*
21,1,0.0110,0.0265,0,0,210.0*
21,1,0.0099,0.0276,0,0,210.0*
1,1,0.0011,-0.0109,0.0090*
1,1,0.0011,-0.0023,0.0139*
1,1,0.0011,0.0109,-0.0090*
1,1,0.0011,0.0023,-0.0139*
%
%ADD170ROUNDEDRECTD170*%
%ADD171P,0.0445X4X105.0*%
%ADD172R,0.0128X0.0157*%
%ADD173R,0.0079X0.0157*%
G04:AMPARAMS|DCode=174|XSize=21.7mil|YSize=39.4mil|CornerRadius=2.2mil|HoleSize=0mil|Usage=FLASHONLY|Rotation=0.000|XOffset=0mil|YOffset=0mil|HoleType=Round|Shape=RoundedRectangle|*
%AMROUNDEDRECTD174*
21,1,0.0217,0.0350,0,0,0.0*
21,1,0.0173,0.0394,0,0,0.0*
1,1,0.0043,0.0087,-0.0175*
1,1,0.0043,-0.0087,-0.0175*
1,1,0.0043,-0.0087,0.0175*
1,1,0.0043,0.0087,0.0175*
%
%ADD174ROUNDEDRECTD174*%
G04:AMPARAMS|DCode=175|XSize=23.6mil|YSize=63mil|CornerRadius=2.4mil|HoleSize=0mil|Usage=FLASHONLY|Rotation=0.000|XOffset=0mil|YOffset=0mil|HoleType=Round|Shape=RoundedRectangle|*
%AMROUNDEDRECTD175*
21,1,0.0236,0.0583,0,0,0.0*
21,1,0.0189,0.0630,0,0,0.0*
1,1,0.0047,0.0094,-0.0291*
1,1,0.0047,-0.0094,-0.0291*
1,1,0.0047,-0.0094,0.0291*
1,1,0.0047,0.0094,0.0291*
%
%ADD175ROUNDEDRECTD175*%
G04:AMPARAMS|DCode=176|XSize=15.7mil|YSize=35.4mil|CornerRadius=0.8mil|HoleSize=0mil|Usage=FLASHONLY|Rotation=180.000|XOffset=0mil|YOffset=0mil|HoleType=Round|Shape=RoundedRectangle|*
%AMROUNDEDRECTD176*
21,1,0.0157,0.0339,0,0,180.0*
21,1,0.0142,0.0354,0,0,180.0*
1,1,0.0016,-0.0071,0.0169*
1,1,0.0016,0.0071,0.0169*
1,1,0.0016,0.0071,-0.0169*
1,1,0.0016,-0.0071,-0.0169*
%
%ADD176ROUNDEDRECTD176*%
G04:AMPARAMS|DCode=177|XSize=25.6mil|YSize=68.9mil|CornerRadius=3.8mil|HoleSize=0mil|Usage=FLASHONLY|Rotation=180.000|XOffset=0mil|YOffset=0mil|HoleType=Round|Shape=RoundedRectangle|*
%AMROUNDEDRECTD177*
21,1,0.0256,0.0612,0,0,180.0*
21,1,0.0179,0.0689,0,0,180.0*
1,1,0.0077,-0.0090,0.0306*
1,1,0.0077,0.0090,0.0306*
1,1,0.0077,0.0090,-0.0306*
1,1,0.0077,-0.0090,-0.0306*
%
%ADD177ROUNDEDRECTD177*%
G04:AMPARAMS|DCode=178|XSize=15.7mil|YSize=22.2mil|CornerRadius=1.3mil|HoleSize=0mil|Usage=FLASHONLY|Rotation=270.000|XOffset=0mil|YOffset=0mil|HoleType=Round|Shape=RoundedRectangle|*
%AMROUNDEDRECTD178*
21,1,0.0157,0.0197,0,0,270.0*
21,1,0.0132,0.0222,0,0,270.0*
1,1,0.0025,-0.0099,-0.0066*
1,1,0.0025,-0.0099,0.0066*
1,1,0.0025,0.0099,0.0066*
1,1,0.0025,0.0099,-0.0066*
%
%ADD178ROUNDEDRECTD178*%
G04:AMPARAMS|DCode=179|XSize=15.7mil|YSize=22.2mil|CornerRadius=1.3mil|HoleSize=0mil|Usage=FLASHONLY|Rotation=0.000|XOffset=0mil|YOffset=0mil|HoleType=Round|Shape=RoundedRectangle|*
%AMROUNDEDRECTD179*
21,1,0.0157,0.0197,0,0,0.0*
21,1,0.0132,0.0222,0,0,0.0*
1,1,0.0025,0.0066,-0.0099*
1,1,0.0025,-0.0066,-0.0099*
1,1,0.0025,-0.0066,0.0099*
1,1,0.0025,0.0066,0.0099*
%
%ADD179ROUNDEDRECTD179*%
G04:AMPARAMS|DCode=180|XSize=89mil|YSize=85mil|CornerRadius=21.3mil|HoleSize=0mil|Usage=FLASHONLY|Rotation=90.000|XOffset=0mil|YOffset=0mil|HoleType=Round|Shape=RoundedRectangle|*
%AMROUNDEDRECTD180*
21,1,0.0890,0.0425,0,0,90.0*
21,1,0.0465,0.0850,0,0,90.0*
1,1,0.0425,0.0213,0.0232*
1,1,0.0425,0.0213,-0.0232*
1,1,0.0425,-0.0213,-0.0232*
1,1,0.0425,-0.0213,0.0232*
%
%ADD180ROUNDEDRECTD180*%
%ADD181P,0.0445X4X165.0*%
G04:AMPARAMS|DCode=182|XSize=17.7mil|YSize=59.1mil|CornerRadius=1.8mil|HoleSize=0mil|Usage=FLASHONLY|Rotation=270.000|XOffset=0mil|YOffset=0mil|HoleType=Round|Shape=RoundedRectangle|*
%AMROUNDEDRECTD182*
21,1,0.0177,0.0555,0,0,270.0*
21,1,0.0142,0.0591,0,0,270.0*
1,1,0.0035,-0.0278,-0.0071*
1,1,0.0035,-0.0278,0.0071*
1,1,0.0035,0.0278,0.0071*
1,1,0.0035,0.0278,-0.0071*
%
%ADD182ROUNDEDRECTD182*%
G04:AMPARAMS|DCode=183|XSize=25.6mil|YSize=68.9mil|CornerRadius=3.8mil|HoleSize=0mil|Usage=FLASHONLY|Rotation=270.000|XOffset=0mil|YOffset=0mil|HoleType=Round|Shape=RoundedRectangle|*
%AMROUNDEDRECTD183*
21,1,0.0256,0.0612,0,0,270.0*
21,1,0.0179,0.0689,0,0,270.0*
1,1,0.0077,-0.0306,-0.0090*
1,1,0.0077,-0.0306,0.0090*
1,1,0.0077,0.0306,0.0090*
1,1,0.0077,0.0306,-0.0090*
%
%ADD183ROUNDEDRECTD183*%
G04:AMPARAMS|DCode=184|XSize=31.5mil|YSize=11.8mil|CornerRadius=1.2mil|HoleSize=0mil|Usage=FLASHONLY|Rotation=0.000|XOffset=0mil|YOffset=0mil|HoleType=Round|Shape=RoundedRectangle|*
%AMROUNDEDRECTD184*
21,1,0.0315,0.0094,0,0,0.0*
21,1,0.0291,0.0118,0,0,0.0*
1,1,0.0024,0.0146,-0.0047*
1,1,0.0024,-0.0146,-0.0047*
1,1,0.0024,-0.0146,0.0047*
1,1,0.0024,0.0146,0.0047*
%
%ADD184ROUNDEDRECTD184*%
G04:AMPARAMS|DCode=185|XSize=37.4mil|YSize=8.7mil|CornerRadius=0.9mil|HoleSize=0mil|Usage=FLASHONLY|Rotation=180.000|XOffset=0mil|YOffset=0mil|HoleType=Round|Shape=RoundedRectangle|*
%AMROUNDEDRECTD185*
21,1,0.0374,0.0069,0,0,180.0*
21,1,0.0357,0.0087,0,0,180.0*
1,1,0.0017,-0.0178,0.0035*
1,1,0.0017,0.0178,0.0035*
1,1,0.0017,0.0178,-0.0035*
1,1,0.0017,-0.0178,-0.0035*
%
%ADD185ROUNDEDRECTD185*%
G04:AMPARAMS|DCode=186|XSize=37.4mil|YSize=8.7mil|CornerRadius=0.9mil|HoleSize=0mil|Usage=FLASHONLY|Rotation=270.000|XOffset=0mil|YOffset=0mil|HoleType=Round|Shape=RoundedRectangle|*
%AMROUNDEDRECTD186*
21,1,0.0374,0.0069,0,0,270.0*
21,1,0.0357,0.0087,0,0,270.0*
1,1,0.0017,-0.0035,-0.0178*
1,1,0.0017,-0.0035,0.0178*
1,1,0.0017,0.0035,0.0178*
1,1,0.0017,0.0035,-0.0178*
%
%ADD186ROUNDEDRECTD186*%
%ADD187R,0.1654X0.1654*%
%ADD188C,0.0197*%
%ADD189C,0.0160*%
%ADD190C,0.0065*%
%ADD191C,0.0120*%
%ADD192C,0.0040*%
%ADD193C,0.0200*%
%ADD194C,0.0059*%
%ADD195O,0.0256X0.0374*%
%ADD196O,0.0551X0.0315*%
%ADD197C,0.0256*%
%ADD198C,0.0945*%
%ADD199C,0.0630*%
%ADD200R,0.0630X0.0630*%
%ADD201C,0.0433*%
%ADD202C,0.2441*%
%ADD203C,0.0197*%
G36*
X-3276Y8354D02*
X-3172D01*
Y7959D01*
X-2930D01*
Y7618D01*
X-2953D01*
X-2981Y7612D01*
X-3005Y7596D01*
X-3021Y7572D01*
X-3026Y7544D01*
Y7450D01*
X-3021Y7422D01*
X-3005Y7398D01*
X-2981Y7382D01*
X-2953Y7377D01*
X-2817D01*
X-2807Y7375D01*
X-2798Y7377D01*
X-2662D01*
X-2634Y7382D01*
X-2610Y7398D01*
X-2594Y7422D01*
X-2588Y7450D01*
Y7544D01*
X-2594Y7572D01*
X-2610Y7596D01*
X-2634Y7612D01*
X-2662Y7618D01*
X-2685D01*
Y7959D01*
X-2462D01*
Y8354D01*
X-2007D01*
X-2007Y8433D01*
X-825Y8433D01*
X-790Y8398D01*
X-790Y7959D01*
X-1887Y7958D01*
X-1887Y6361D01*
X-1922Y6326D01*
X-2219Y6326D01*
X-2233Y6367D01*
X-2235Y6376D01*
X-2210Y6414D01*
X-2200Y6461D01*
Y6541D01*
X-2210Y6588D01*
X-2236Y6628D01*
X-2240Y6630D01*
Y6865D01*
X-2150D01*
X-2122Y6870D01*
X-2098Y6886D01*
X-2082Y6910D01*
X-2077Y6938D01*
Y7032D01*
X-2082Y7061D01*
X-2098Y7084D01*
X-2122Y7100D01*
X-2150Y7106D01*
X-2286D01*
X-2296Y7108D01*
X-2362D01*
X-2371Y7106D01*
X-2441D01*
X-2469Y7100D01*
X-2493Y7084D01*
X-2509Y7061D01*
X-2514Y7032D01*
Y6938D01*
X-2509Y6910D01*
X-2493Y6886D01*
X-2485Y6881D01*
Y6630D01*
X-2489Y6628D01*
X-2516Y6588D01*
X-2525Y6541D01*
Y6461D01*
X-2516Y6414D01*
X-2490Y6376D01*
X-2492Y6367D01*
X-2506Y6326D01*
X-2635Y6326D01*
X-2650Y6367D01*
X-2652Y6376D01*
X-2626Y6414D01*
X-2617Y6461D01*
Y6541D01*
X-2626Y6588D01*
X-2653Y6628D01*
X-2657Y6630D01*
Y6866D01*
X-2634Y6870D01*
X-2610Y6886D01*
X-2594Y6910D01*
X-2588Y6938D01*
Y7032D01*
X-2594Y7061D01*
X-2610Y7084D01*
X-2634Y7100D01*
X-2662Y7106D01*
X-2771D01*
X-2780Y7108D01*
X-2807D01*
X-2817Y7106D01*
X-2953D01*
X-2981Y7100D01*
X-3005Y7084D01*
X-3021Y7061D01*
X-3026Y7032D01*
Y6938D01*
X-3021Y6910D01*
X-3005Y6886D01*
X-2981Y6870D01*
X-2953Y6865D01*
X-2901D01*
Y6630D01*
X-2906Y6628D01*
X-2932Y6588D01*
X-2941Y6541D01*
Y6461D01*
X-2932Y6414D01*
X-2907Y6376D01*
X-2908Y6367D01*
X-2923Y6326D01*
X-3390Y6326D01*
X-3390Y7958D01*
X-4801Y7958D01*
X-4836Y7994D01*
X-4836Y8447D01*
X-3276Y8447D01*
Y8354D01*
D02*
G37*
G36*
X6122Y5765D02*
X5040Y5122D01*
X4784Y5531D01*
X4797Y5580D01*
X5374Y5903D01*
X5665Y5773D01*
X6005Y5963D01*
X6122Y5765D01*
D02*
G37*
G36*
X7341Y5855D02*
X8195Y5855D01*
X8741Y4910D01*
X8712Y4860D01*
X6707Y4860D01*
X6672Y4895D01*
X6672Y4943D01*
X6357Y4942D01*
X6322Y4977D01*
X6323Y5262D01*
X6526Y5262D01*
X7112Y5848D01*
X7123Y5855D01*
X7341D01*
D02*
G37*
G36*
X-3391Y5866D02*
X-3302Y5787D01*
Y5736D01*
X-3295Y5697D01*
X-3272Y5664D01*
X-3239Y5642D01*
X-3200Y5634D01*
X-3132D01*
X-2746Y5288D01*
Y4962D01*
X-2791Y4941D01*
X-3427Y5483D01*
X-4829Y5486D01*
X-4864Y5522D01*
X-4861Y5847D01*
X-4826Y5882D01*
X-3391Y5866D01*
D02*
G37*
G36*
X-6973Y5775D02*
X-6877Y5424D01*
X-7139Y4953D01*
X-7840Y4755D01*
X-7875Y4775D01*
X-7895Y4739D01*
X-7937Y4728D01*
X-7979Y4635D01*
X-8035Y4610D01*
X-8109Y4652D01*
X-8112Y4676D01*
X-8110Y4710D01*
X-7354Y5998D01*
X-6973Y5775D01*
D02*
G37*
G36*
X-7424Y6034D02*
X-7411Y5986D01*
X-7959Y5052D01*
X-7994Y5046D01*
X-8191Y4735D01*
X-8279Y4789D01*
X-8290Y4838D01*
X-8228Y4932D01*
X-8264Y5151D01*
X-8515Y5301D01*
X-7929Y6316D01*
X-7424Y6034D01*
D02*
G37*
G36*
X-4921Y4726D02*
X-6298Y4726D01*
X-6298Y5932D01*
X-4921Y5932D01*
X-4921Y4726D01*
D02*
G37*
G36*
X6085Y4942D02*
X6083Y4937D01*
X5835Y4931D01*
X5835Y4718D01*
Y4714D01*
X5832Y4707D01*
X5827Y4702D01*
Y4695D01*
X5823Y4690D01*
X4957D01*
Y4884D01*
X5252Y5180D01*
X6085D01*
Y4942D01*
D02*
G37*
G36*
X6445Y4807D02*
Y4807D01*
X6445Y4803D01*
X6448Y4796D01*
X6454Y4790D01*
X6461Y4787D01*
X6465Y4787D01*
X6543D01*
Y4769D01*
X8675Y4769D01*
X8967Y4476D01*
X8967Y4216D01*
X8967Y4009D01*
X7527D01*
Y4231D01*
X6445D01*
Y4226D01*
X5945D01*
X5945Y4423D01*
X5945Y4423D01*
X5945Y4427D01*
X5942Y4434D01*
X5936Y4439D01*
X5929Y4442D01*
X5925Y4442D01*
X5882Y4442D01*
X5878D01*
X5871Y4445D01*
X5865Y4451D01*
X5862Y4458D01*
Y4462D01*
X5862Y4620D01*
X5862Y4620D01*
X5862Y4624D01*
X5865Y4631D01*
X5871Y4636D01*
X5878Y4639D01*
X5882Y4639D01*
X5925Y4639D01*
X5929Y4640D01*
X5936Y4643D01*
X5942Y4648D01*
X5945Y4655D01*
X5945Y4659D01*
X5945Y4856D01*
X6445D01*
Y4807D01*
D02*
G37*
G36*
X-7122Y4411D02*
X-5755D01*
Y3994D01*
X-4988D01*
X-4856Y3861D01*
X-4851Y3836D01*
X-4828Y3803D01*
X-4795Y3781D01*
X-4770Y3776D01*
X-4675Y3681D01*
Y3431D01*
X-5612D01*
X-5970Y3073D01*
X-7018Y3073D01*
X-7012Y2774D01*
X-7047Y2738D01*
X-7952Y2738D01*
X-8861Y3228D01*
X-8875Y3276D01*
X-8571Y3819D01*
X-8564Y3822D01*
X-8561Y3825D01*
X-8348Y3884D01*
X-8253Y4073D01*
X-8205Y4088D01*
X-8005Y3979D01*
X-7751Y4411D01*
X-7751Y4411D01*
X-7751Y4411D01*
X-7651Y4553D01*
X-7649Y4554D01*
X-7644Y4560D01*
X-7596D01*
X-7122Y4411D01*
D02*
G37*
G36*
X-3644Y5129D02*
X-3438Y5127D01*
X-3304Y4993D01*
Y4987D01*
X-3296Y4948D01*
X-3274Y4915D01*
X-3241Y4893D01*
X-3202Y4885D01*
X-3186D01*
X-3122Y4821D01*
X-3102Y4773D01*
X-3063Y4735D01*
X-3012Y4713D01*
X-2957D01*
X-2954Y4715D01*
X-2913Y4685D01*
X-2905Y4415D01*
X-2980Y4364D01*
X-3422Y4741D01*
X-4878Y4744D01*
X-4878Y5107D01*
X-4842Y5143D01*
X-3644Y5129D01*
D02*
G37*
G36*
X-8364Y4974D02*
X-8660Y4471D01*
X-8600Y4285D01*
X-8491Y4227D01*
X-8545Y4133D01*
X-8561Y4106D01*
X-8609Y4133D01*
X-8621Y4135D01*
X-8629Y4138D01*
X-8681Y4168D01*
X-8775Y4257D01*
X-8909Y4336D01*
X-8503Y5051D01*
X-8364Y4974D01*
D02*
G37*
G36*
X-7846Y4450D02*
X-8062Y4075D01*
X-8521Y4340D01*
X-8543Y4423D01*
X-8357Y4746D01*
X-7846Y4450D01*
D02*
G37*
G36*
X-8315Y4134D02*
X-8305Y4117D01*
X-8292Y4092D01*
X-8294Y4087D01*
X-8395Y3916D01*
X-8572Y3867D01*
X-8579Y3862D01*
X-8581D01*
X-8588Y3859D01*
X-8590Y3856D01*
X-8591Y3856D01*
X-8595Y3852D01*
X-8595Y3851D01*
X-8598Y3849D01*
X-8609Y3840D01*
X-8623Y3814D01*
X-8637Y3811D01*
X-9046Y3081D01*
X-9094Y3068D01*
X-9587Y3350D01*
X-9603Y3410D01*
X-9188Y4106D01*
X-9143Y4082D01*
X-8639Y4096D01*
X-8636Y4095D01*
X-8631Y4095D01*
X-8626Y4092D01*
X-8623Y4092D01*
X-8588Y4071D01*
X-8583Y4068D01*
X-8544Y4046D01*
X-8537Y4058D01*
X-8537Y4058D01*
X-8514Y4099D01*
X-8496Y4100D01*
X-8443Y4189D01*
X-8394Y4198D01*
X-8315Y4134D01*
D02*
G37*
G36*
X-3986Y4015D02*
X-3985D01*
X-3844Y3874D01*
Y3556D01*
X-3846Y3551D01*
X-4176Y3550D01*
X-4226Y3591D01*
Y3617D01*
X-4439Y3830D01*
Y4024D01*
X-4007D01*
X-3986Y4015D01*
D02*
G37*
G36*
X5826Y4408D02*
Y4381D01*
X5826Y4381D01*
X5832Y4375D01*
X5835Y4368D01*
Y4364D01*
X5835Y4136D01*
X6058Y4134D01*
X6058Y2563D01*
X5231D01*
X5106Y2688D01*
Y4484D01*
X5750Y4484D01*
X5826Y4408D01*
D02*
G37*
G36*
X6252Y3974D02*
X6683Y3543D01*
X6736Y3543D01*
X6738Y2583D01*
X6702Y2548D01*
X6169Y2548D01*
Y4147D01*
X6252D01*
Y3974D01*
D02*
G37*
G36*
X-1180Y1531D02*
Y1417D01*
X-1212D01*
X-1263Y1396D01*
X-1302Y1357D01*
X-1323Y1306D01*
Y1251D01*
X-1302Y1200D01*
X-1263Y1161D01*
X-1241Y1152D01*
X-1235Y1145D01*
Y1003D01*
X-1235Y1001D01*
Y943D01*
X-1227Y904D01*
X-1205Y871D01*
X-1172Y849D01*
X-1133Y841D01*
X-1053D01*
X-1024Y847D01*
X-895Y719D01*
Y208D01*
X-1066Y38D01*
X-1519D01*
Y855D01*
X-1630Y966D01*
Y1394D01*
X-1769D01*
X-1773Y1398D01*
X-1824Y1420D01*
X-1879D01*
X-1930Y1398D01*
X-1934Y1394D01*
X-2058D01*
X-2062Y1398D01*
Y1772D01*
X-1422D01*
X-1180Y1531D01*
D02*
G37*
G36*
X-2134Y1694D02*
X-2135Y1459D01*
X-2105Y1429D01*
Y1406D01*
X-2105Y1405D01*
Y1398D01*
X-2092Y1368D01*
X-2088Y1364D01*
X-2058Y1351D01*
X-1934D01*
X-1916Y1358D01*
X-1914D01*
X-1909Y1361D01*
X-1795D01*
X-1790Y1358D01*
X-1787D01*
X-1769Y1351D01*
X-1764D01*
X-1729Y1316D01*
X-1731Y1004D01*
X-1644Y917D01*
X-1644Y-51D01*
X-1730Y-137D01*
X-1733D01*
Y-140D01*
X-2293Y-701D01*
X-2296Y-702D01*
X-2442Y-702D01*
Y-1411D01*
X-2513Y-1481D01*
X-3468D01*
Y-611D01*
X-3464D01*
Y-460D01*
X-3361Y-357D01*
X-2779Y-357D01*
X-2669Y-247D01*
X-2638Y-227D01*
X-2618Y-196D01*
X-2563Y-141D01*
X-2563Y249D01*
X-2407Y405D01*
X-2007D01*
X-2007Y1003D01*
X-2046Y1042D01*
X-2050Y1062D01*
X-2072Y1095D01*
X-2105Y1117D01*
X-2126Y1121D01*
X-2212Y1208D01*
X-2217Y1694D01*
X-2176Y1736D01*
X-2134Y1694D01*
D02*
G37*
G36*
X4107Y808D02*
Y460D01*
X4173Y395D01*
X4291D01*
X4312Y345D01*
X4351Y306D01*
X4402Y285D01*
X4439D01*
X4439Y-535D01*
X4439Y-535D01*
X4439Y-535D01*
X4597Y-692D01*
Y-991D01*
X4365Y-1223D01*
X3965D01*
X3860Y-1118D01*
X3860Y108D01*
X3717Y251D01*
X3472D01*
X3472Y686D01*
X3604Y818D01*
X4098D01*
X4107Y808D01*
D02*
G37*
G36*
X-1439Y-933D02*
X-1263Y-1109D01*
X-705Y-1109D01*
X-669Y-1144D01*
Y-1259D01*
X-705Y-1294D01*
X-1296Y-1294D01*
X-1467Y-1465D01*
X-1927D01*
X-2016Y-1555D01*
X-2371D01*
X-2371Y-1056D01*
X-1823D01*
Y-729D01*
X-1724Y-630D01*
X-1439D01*
Y-933D01*
D02*
G37*
G36*
X4011Y-2826D02*
Y-3618D01*
X3491Y-3621D01*
X3469Y-3600D01*
X3469Y-2692D01*
X3603Y-2559D01*
X3745Y-2559D01*
X4011Y-2826D01*
D02*
G37*
G36*
X3398Y-3627D02*
X3376Y-3648D01*
X2856Y-3645D01*
Y-2853D01*
X2965Y-2743D01*
X3398D01*
X3398Y-3627D01*
D02*
G37*
G36*
X-6841Y-4543D02*
X-6853Y-4592D01*
X-7225Y-4807D01*
X-7651Y-5049D01*
X-7699Y-5036D01*
X-7870Y-4734D01*
X-7038Y-4238D01*
X-6841Y-4543D01*
D02*
G37*
G36*
X6835Y-4635D02*
X6848Y-4683D01*
X6495Y-5281D01*
X6286Y-5160D01*
X6100Y-5189D01*
X5750Y-5802D01*
X5702Y-5815D01*
X5440Y-5663D01*
X5428Y-5614D01*
X6230Y-4314D01*
X6835Y-4635D01*
D02*
G37*
G36*
X2349Y-5432D02*
X2384Y-5467D01*
X2384Y-5902D01*
X2241Y-6045D01*
X1791D01*
Y-5754D01*
X548D01*
Y-5432D01*
X2349Y-5432D01*
D02*
G37*
G36*
X-7073Y-5074D02*
X-6842Y-5466D01*
X-7881Y-6084D01*
X-7929Y-6071D01*
X-8144Y-5693D01*
X-7524Y-5326D01*
X-7517Y-5325D01*
X-7081Y-5073D01*
X-7073Y-5074D01*
D02*
G37*
G36*
X-4826Y-6665D02*
X-4839Y-6713D01*
X-5063Y-6844D01*
X-5169Y-6691D01*
X-5978Y-7147D01*
X-6137Y-6903D01*
X-6125Y-6854D01*
X-5074Y-6242D01*
X-4826Y-6665D01*
D02*
G37*
G36*
X-2828Y-7698D02*
X-2828Y-7698D01*
X-2826Y-7702D01*
X-2822Y-7713D01*
X-2821Y-7724D01*
X-2822Y-7734D01*
X-2824Y-7745D01*
X-2829Y-7755D01*
X-2836Y-7763D01*
X-2844Y-7770D01*
X-2853Y-7776D01*
X-2864Y-7779D01*
X-2874Y-7781D01*
X-2885Y-7780D01*
X-2896Y-7777D01*
X-2905Y-7772D01*
X-2914Y-7766D01*
X-2921Y-7758D01*
X-2924Y-7753D01*
X-2993Y-7634D01*
X-2897Y-7578D01*
X-2828Y-7698D01*
D02*
G37*
G36*
X-2487Y-7769D02*
X-2607Y-7838D01*
X-2607Y-7838D01*
X-2611Y-7841D01*
X-2622Y-7844D01*
X-2632Y-7846D01*
X-2643Y-7845D01*
X-2654Y-7842D01*
X-2663Y-7837D01*
X-2672Y-7831D01*
X-2679Y-7822D01*
X-2685Y-7813D01*
X-2688Y-7803D01*
X-2690Y-7792D01*
X-2689Y-7781D01*
X-2686Y-7771D01*
X-2681Y-7761D01*
X-2675Y-7752D01*
X-2667Y-7745D01*
X-2662Y-7742D01*
X-2542Y-7674D01*
X-2487Y-7769D01*
D02*
G37*
G36*
X-2999Y-7796D02*
X-2999Y-7796D01*
X-2996Y-7801D01*
X-2993Y-7811D01*
X-2991Y-7822D01*
X-2992Y-7833D01*
X-2995Y-7843D01*
X-3000Y-7853D01*
X-3006Y-7862D01*
X-3014Y-7869D01*
X-3024Y-7874D01*
X-3034Y-7878D01*
X-3045Y-7879D01*
X-3056Y-7878D01*
X-3066Y-7876D01*
X-3076Y-7871D01*
X-3085Y-7864D01*
X-3092Y-7856D01*
X-3094Y-7851D01*
X-3163Y-7732D01*
X-3068Y-7677D01*
X-2999Y-7796D01*
D02*
G37*
G36*
X-3169Y-7895D02*
X-3169Y-7895D01*
X-3167Y-7899D01*
X-3163Y-7910D01*
X-3162Y-7920D01*
X-3163Y-7931D01*
X-3165Y-7942D01*
X-3170Y-7951D01*
X-3177Y-7960D01*
X-3185Y-7967D01*
X-3194Y-7973D01*
X-3205Y-7976D01*
X-3215Y-7978D01*
X-3226Y-7977D01*
X-3237Y-7974D01*
X-3246Y-7969D01*
X-3255Y-7963D01*
X-3262Y-7954D01*
X-3265Y-7950D01*
X-3334Y-7830D01*
X-3238Y-7775D01*
X-3169Y-7895D01*
D02*
G37*
G36*
X-2389Y-7939D02*
X-2508Y-8008D01*
X-2508Y-8008D01*
X-2513Y-8011D01*
X-2523Y-8015D01*
X-2534Y-8016D01*
X-2545Y-8015D01*
X-2555Y-8012D01*
X-2565Y-8008D01*
X-2574Y-8001D01*
X-2581Y-7993D01*
X-2586Y-7983D01*
X-2590Y-7973D01*
X-2591Y-7962D01*
X-2590Y-7952D01*
X-2588Y-7941D01*
X-2583Y-7931D01*
X-2576Y-7923D01*
X-2568Y-7916D01*
X-2563Y-7913D01*
X-2444Y-7844D01*
X-2389Y-7939D01*
D02*
G37*
G36*
X-3340Y-7993D02*
X-3340Y-7993D01*
X-3337Y-7998D01*
X-3334Y-8008D01*
X-3332Y-8019D01*
X-3333Y-8030D01*
X-3336Y-8040D01*
X-3341Y-8050D01*
X-3347Y-8058D01*
X-3355Y-8066D01*
X-3365Y-8071D01*
X-3375Y-8075D01*
X-3386Y-8076D01*
X-3397Y-8075D01*
X-3407Y-8072D01*
X-3417Y-8068D01*
X-3426Y-8061D01*
X-3433Y-8053D01*
X-3435Y-8048D01*
X-3504Y-7929D01*
X-3409Y-7874D01*
X-3340Y-7993D01*
D02*
G37*
G36*
X-2290Y-8110D02*
X-2410Y-8179D01*
X-2410Y-8179D01*
X-2415Y-8182D01*
X-2425Y-8185D01*
X-2436Y-8186D01*
X-2446Y-8186D01*
X-2457Y-8183D01*
X-2467Y-8178D01*
X-2475Y-8172D01*
X-2482Y-8163D01*
X-2488Y-8154D01*
X-2491Y-8144D01*
X-2493Y-8133D01*
X-2492Y-8122D01*
X-2489Y-8112D01*
X-2484Y-8102D01*
X-2478Y-8093D01*
X-2470Y-8086D01*
X-2465Y-8083D01*
X-2346Y-8014D01*
X-2290Y-8110D01*
D02*
G37*
G36*
X-3443Y-8208D02*
X-3433Y-8211D01*
X-3423Y-8216D01*
X-3415Y-8222D01*
X-3407Y-8230D01*
X-3402Y-8240D01*
X-3399Y-8250D01*
X-3397Y-8261D01*
X-3398Y-8272D01*
X-3401Y-8282D01*
X-3405Y-8292D01*
X-3412Y-8300D01*
X-3420Y-8308D01*
X-3425Y-8310D01*
X-3544Y-8379D01*
X-3599Y-8284D01*
X-3480Y-8215D01*
X-3480Y-8215D01*
X-3475Y-8212D01*
X-3465Y-8209D01*
X-3454Y-8207D01*
X-3443Y-8208D01*
D02*
G37*
G36*
X-2192Y-8280D02*
X-2311Y-8349D01*
X-2311Y-8349D01*
X-2316Y-8352D01*
X-2326Y-8356D01*
X-2337Y-8357D01*
X-2348Y-8356D01*
X-2358Y-8353D01*
X-2368Y-8349D01*
X-2377Y-8342D01*
X-2384Y-8334D01*
X-2389Y-8324D01*
X-2393Y-8314D01*
X-2394Y-8303D01*
X-2394Y-8293D01*
X-2391Y-8282D01*
X-2386Y-8272D01*
X-2379Y-8264D01*
X-2371Y-8257D01*
X-2367Y-8254D01*
X-2247Y-8185D01*
X-2192Y-8280D01*
D02*
G37*
G36*
X-3345Y-8378D02*
X-3335Y-8381D01*
X-3325Y-8386D01*
X-3316Y-8393D01*
X-3309Y-8401D01*
X-3304Y-8410D01*
X-3300Y-8420D01*
X-3299Y-8431D01*
X-3299Y-8442D01*
X-3302Y-8453D01*
X-3307Y-8462D01*
X-3314Y-8471D01*
X-3322Y-8478D01*
X-3327Y-8481D01*
X-3446Y-8550D01*
X-3501Y-8454D01*
X-3382Y-8385D01*
Y-8385D01*
X-3377Y-8383D01*
X-3367Y-8379D01*
X-3356Y-8378D01*
X-3345Y-8378D01*
D02*
G37*
G36*
X-726Y-7324D02*
X-549Y-7501D01*
Y-8068D01*
X-923Y-8443D01*
X-1309Y-8443D01*
X-1344Y-8407D01*
Y-6927D01*
X-726D01*
X-726Y-7324D01*
D02*
G37*
G36*
X-3247Y-8549D02*
X-3236Y-8552D01*
X-3226Y-8557D01*
X-3218Y-8563D01*
X-3211Y-8571D01*
X-3205Y-8581D01*
X-3202Y-8591D01*
X-3200Y-8602D01*
X-3201Y-8613D01*
X-3204Y-8623D01*
X-3209Y-8633D01*
X-3215Y-8641D01*
X-3223Y-8649D01*
X-3228Y-8651D01*
X-3347Y-8720D01*
X-3403Y-8625D01*
X-3283Y-8556D01*
Y-8556D01*
X-3279Y-8553D01*
X-3268Y-8550D01*
X-3257Y-8548D01*
X-3247Y-8549D01*
D02*
G37*
G36*
X-2395Y-8489D02*
X-2384Y-8492D01*
X-2375Y-8497D01*
X-2366Y-8503D01*
X-2359Y-8511D01*
X-2356Y-8516D01*
X-2287Y-8635D01*
X-2383Y-8690D01*
X-2452Y-8571D01*
X-2452D01*
X-2454Y-8566D01*
X-2458Y-8556D01*
X-2459Y-8545D01*
X-2458Y-8535D01*
X-2456Y-8524D01*
X-2451Y-8514D01*
X-2444Y-8506D01*
X-2436Y-8499D01*
X-2427Y-8493D01*
X-2416Y-8490D01*
X-2406Y-8488D01*
X-2395Y-8489D01*
D02*
G37*
G36*
X-3148Y-8719D02*
X-3138Y-8722D01*
X-3128Y-8727D01*
X-3119Y-8734D01*
X-3112Y-8742D01*
X-3107Y-8751D01*
X-3103Y-8761D01*
X-3102Y-8772D01*
X-3103Y-8783D01*
X-3105Y-8794D01*
X-3110Y-8803D01*
X-3117Y-8812D01*
X-3125Y-8819D01*
X-3130Y-8822D01*
X-3249Y-8891D01*
X-3304Y-8795D01*
X-3185Y-8726D01*
X-3185Y-8726D01*
X-3180Y-8724D01*
X-3170Y-8720D01*
X-3159Y-8719D01*
X-3148Y-8719D01*
D02*
G37*
G36*
X-2565Y-8587D02*
X-2555Y-8590D01*
X-2545Y-8595D01*
X-2536Y-8602D01*
X-2529Y-8610D01*
X-2527Y-8614D01*
X-2458Y-8734D01*
X-2553Y-8789D01*
X-2622Y-8670D01*
X-2625Y-8665D01*
X-2628Y-8655D01*
X-2630Y-8644D01*
X-2629Y-8633D01*
X-2626Y-8622D01*
X-2621Y-8613D01*
X-2615Y-8604D01*
X-2607Y-8597D01*
X-2597Y-8592D01*
X-2587Y-8588D01*
X-2576Y-8587D01*
X-2565Y-8587D01*
D02*
G37*
G36*
X-2736Y-8686D02*
X-2725Y-8689D01*
X-2716Y-8693D01*
X-2707Y-8700D01*
X-2700Y-8708D01*
X-2697Y-8713D01*
X-2628Y-8832D01*
X-2724Y-8887D01*
X-2792Y-8768D01*
X-2792D01*
X-2795Y-8763D01*
X-2799Y-8753D01*
X-2800Y-8742D01*
X-2799Y-8731D01*
X-2797Y-8721D01*
X-2792Y-8711D01*
X-2785Y-8703D01*
X-2777Y-8695D01*
X-2768Y-8690D01*
X-2757Y-8686D01*
X-2747Y-8685D01*
X-2736Y-8686D01*
D02*
G37*
G36*
X-2906Y-8784D02*
X-2896Y-8787D01*
X-2886Y-8792D01*
X-2877Y-8798D01*
X-2870Y-8807D01*
X-2868Y-8811D01*
X-2799Y-8931D01*
X-2894Y-8986D01*
X-2963Y-8866D01*
X-2963D01*
X-2966Y-8862D01*
X-2969Y-8851D01*
X-2971Y-8841D01*
X-2970Y-8830D01*
X-2967Y-8819D01*
X-2962Y-8810D01*
X-2956Y-8801D01*
X-2948Y-8794D01*
X-2938Y-8788D01*
X-2928Y-8785D01*
X-2917Y-8784D01*
X-2906Y-8784D01*
D02*
G37*
%LPC*%
G36*
X-2150Y7618D02*
X-2441D01*
X-2469Y7612D01*
X-2493Y7596D01*
X-2509Y7572D01*
X-2514Y7544D01*
Y7450D01*
X-2509Y7422D01*
X-2493Y7398D01*
X-2469Y7382D01*
X-2441Y7377D01*
X-2150D01*
X-2122Y7382D01*
X-2098Y7398D01*
X-2082Y7422D01*
X-2077Y7450D01*
Y7544D01*
X-2082Y7572D01*
X-2098Y7596D01*
X-2122Y7612D01*
X-2150Y7618D01*
D02*
G37*
%LPD*%
D12*
X2934Y488D02*
Y492D01*
X3118Y888D02*
Y1150D01*
X2976Y746D02*
X3118Y888D01*
X2976Y717D02*
Y746D01*
Y717D02*
X3047D01*
Y617D02*
Y717D01*
X2934Y617D02*
X3047D01*
X2934Y492D02*
Y617D01*
X3118Y1150D02*
X3168Y1200D01*
X3346Y1348D02*
X3415D01*
X3298Y1300D02*
X3346Y1348D01*
X3222Y1300D02*
X3298D01*
X3126Y1300D02*
X3222D01*
X3222Y1300D01*
X3018Y1191D02*
X3126Y1300D01*
X3018Y930D02*
Y1191D01*
X2834Y746D02*
X3018Y930D01*
X2834Y488D02*
Y746D01*
X2805Y459D02*
X2834Y488D01*
X2803Y459D02*
X2805D01*
X2728Y384D02*
X2803Y459D01*
X3298Y1200D02*
X3346Y1152D01*
X3181Y1200D02*
X3298D01*
X3346Y1152D02*
X3415D01*
X3168Y1200D02*
X3181D01*
X3181Y1200D01*
X2965Y459D02*
X3040Y384D01*
X2963Y459D02*
X2965D01*
X2934Y488D02*
X2963Y459D01*
X2834Y66D02*
Y280D01*
X2833Y65D02*
X2834Y66D01*
X2833Y-207D02*
Y65D01*
X2965Y309D02*
X3040Y384D01*
X3059D01*
X2803Y309D02*
X2805D01*
X2834Y280D01*
X2933Y-207D02*
Y23D01*
X2934Y24D01*
Y280D02*
X2963Y309D01*
X2965D01*
X2804Y-236D02*
X2833Y-207D01*
X2633Y-236D02*
X2804D01*
X2962D02*
X3133D01*
X2933Y-207D02*
X2962Y-236D01*
X2934Y24D02*
Y280D01*
X2709Y384D02*
X2728D01*
X2803Y309D01*
X3387Y2339D02*
Y2549D01*
Y2339D02*
X3469D01*
Y2239D02*
Y2339D01*
X3387Y2239D02*
X3469D01*
X3387Y2114D02*
Y2239D01*
Y2549D02*
Y2553D01*
Y2003D02*
Y2114D01*
Y2553D02*
X3416Y2582D01*
X3160Y1777D02*
X3387Y2003D01*
X3416Y2582D02*
X3418D01*
X3493Y2657D01*
X3512D01*
X3287Y2045D02*
Y2553D01*
X3257Y2582D02*
X3287Y2553D01*
X3256Y2582D02*
X3257D01*
X3181Y2657D02*
X3256Y2582D01*
X3346Y1545D02*
X3415D01*
X3298Y1594D02*
X3346Y1545D01*
X3060Y1818D02*
X3287Y2045D01*
X3090Y1665D02*
X3161Y1594D01*
X3298D01*
X3060Y1694D02*
Y1818D01*
Y1694D02*
X3090Y1665D01*
X3346Y1742D02*
X3415D01*
X3160Y1736D02*
Y1777D01*
X3298Y1694D02*
X3346Y1742D01*
X3160Y1736D02*
X3202Y1694D01*
X3298D01*
X3083Y3065D02*
X3185Y2963D01*
X3083Y3065D02*
Y3248D01*
X3418Y2732D02*
X3493Y2657D01*
X3383Y2892D02*
Y2933D01*
X3412Y2963D01*
X3162Y2657D02*
X3181D01*
X3383Y2892D02*
X3387Y2888D01*
X3287Y2762D02*
Y2847D01*
X3257Y2732D02*
X3287Y2762D01*
X3256Y2732D02*
X3257D01*
X3181Y2657D02*
X3256Y2732D01*
X3416D02*
X3418D01*
X3387Y2762D02*
Y2888D01*
X3412Y2963D02*
X3481D01*
X3185Y2963D02*
X3253D01*
X3283Y2933D01*
Y2851D02*
Y2933D01*
Y2851D02*
X3287Y2847D01*
X3387Y2762D02*
X3416Y2732D01*
X3481Y2963D02*
X3583Y3065D01*
Y3248D01*
D15*
X-1446Y-8018D02*
G03*
X-1475Y-7947I-100J0D01*
G01*
X-7149Y-2645D02*
G03*
X-7120Y-2575I-71J71D01*
G01*
X-1475Y-9677D02*
G03*
X-1446Y-9606I-71J71D01*
G01*
X-3755Y-6658D02*
G03*
X-3800Y-6775I50J-86D01*
G01*
X7393Y-403D02*
X7587D01*
X7375Y-421D02*
X7393Y-403D01*
X7587D02*
X7587Y-403D01*
X7684D01*
X7693Y-394D01*
X-3160Y5426D02*
X-2795Y5060D01*
Y3954D02*
Y5060D01*
X-2966Y3871D02*
Y4481D01*
X-1500Y-7923D02*
X-1475Y-7947D01*
X-1446Y-9606D02*
Y-8018D01*
X-1475Y-7947D02*
X-1475Y-7947D01*
X4429Y423D02*
Y439D01*
X4262Y630D02*
X4319Y572D01*
Y549D02*
Y572D01*
X4262Y630D02*
Y699D01*
X4319Y549D02*
X4429Y439D01*
X5869Y-1084D02*
Y-846D01*
X5888Y-828D01*
X5859Y-1095D02*
X5869Y-1084D01*
X5939Y249D02*
X5965D01*
X6037Y322D02*
X6200D01*
X5965Y249D02*
X6037Y322D01*
X6200D02*
X6210Y332D01*
X6590D02*
X6627Y295D01*
X7024D01*
X6539Y332D02*
X6590D01*
X6990Y-5272D02*
Y-5180D01*
X6014Y-6248D02*
X6990Y-5272D01*
X-1225Y-6248D02*
X6014D01*
X-3049Y-3622D02*
X-2470Y-3043D01*
X-3049Y-5243D02*
Y-3622D01*
Y-5243D02*
X-2667Y-5625D01*
X-2352Y-6892D02*
Y-6887D01*
Y-7303D02*
Y-6892D01*
X4312Y-1589D02*
X4557Y-1344D01*
X4301Y-1589D02*
X4312D01*
X-7120Y-2575D02*
Y-2391D01*
X-7488Y-2984D02*
X-7149Y-2645D01*
X-7120Y-2391D02*
X-7104D01*
X-7676D02*
X-7120D01*
X-1703Y-9904D02*
X-1475Y-9677D01*
X-2165Y-9904D02*
X-1703D01*
X905Y-1555D02*
X963Y-1497D01*
X1279D01*
X905Y-1884D02*
Y-1555D01*
X1279Y-1497D02*
X1318Y-1458D01*
X4262Y2492D02*
X4467Y2697D01*
X4469Y2694D02*
X4757Y2983D01*
X4764D01*
X4381Y5182D02*
Y6121D01*
Y5182D02*
X4403Y5160D01*
X4381Y6121D02*
X4723Y6463D01*
X4096Y4853D02*
X4403Y5160D01*
X-2095Y-7134D02*
X-2084D01*
X-1873Y-7345D02*
X-1862D01*
X-2084Y-7134D02*
X-1873Y-7345D01*
X-1862D02*
X-1798Y-7409D01*
X-2352Y-7303D02*
X-2220Y-7435D01*
Y-7725D02*
Y-7435D01*
X-2416Y-7892D02*
X-2386D01*
X-2220Y-7725D01*
X-2362Y-6539D02*
X-1902D01*
X-2357Y-6881D02*
X-2352Y-6887D01*
X-2357Y-6881D02*
Y-6545D01*
X-2362Y-6539D02*
X-2357Y-6545D01*
X-7104Y-2391D02*
X-6811Y-2098D01*
X-6795D01*
X-7720Y-2346D02*
X-7676Y-2391D01*
X-8186Y-2346D02*
X-7720D01*
X-1500Y-7923D02*
Y-7923D01*
X-715Y-6629D02*
X-249Y-7095D01*
Y-7491D02*
X-226Y-7515D01*
Y-7776D02*
X-217Y-7785D01*
X-249Y-7491D02*
Y-7095D01*
X-226Y-7776D02*
Y-7515D01*
X-4403Y-4388D02*
X-4149D01*
X-5617Y-3506D02*
X-5147Y-3209D01*
X-792Y-9938D02*
X-276D01*
X-1104Y-9625D02*
X-792Y-9938D01*
X-217Y-9879D02*
Y-9519D01*
X-276Y-9938D02*
X-217Y-9879D01*
Y-9519D02*
X-217Y-9518D01*
X-1192Y-6629D02*
X-715D01*
X-2196Y-5625D02*
X-1192Y-6629D01*
X-2068Y-5406D02*
X-1225Y-6248D01*
X6391Y4054D02*
Y4068D01*
Y4054D02*
X6405Y4040D01*
X6420D01*
X6470Y3989D01*
X6838D01*
X3122Y-9095D02*
Y-8502D01*
X3138Y-8486D01*
X1612Y-9135D02*
X1647Y-9100D01*
X1634Y-8850D02*
X1647Y-8864D01*
Y-9100D02*
Y-8864D01*
Y-8850D02*
Y-8499D01*
X-495Y-6080D02*
X-110D01*
X-24Y-4262D02*
Y-3982D01*
Y-5994D02*
Y-5714D01*
X-461Y-4587D02*
X-349D01*
X-839Y-5736D02*
Y-4965D01*
Y-5736D02*
X-495Y-6080D01*
X-349Y-4587D02*
X-24Y-4262D01*
X-839Y-4965D02*
X-461Y-4587D01*
X-1552Y-4125D02*
X-1530D01*
X-1069Y-4587D02*
X-461D01*
X-110Y-6080D02*
X-24Y-5994D01*
Y-3982D02*
X-15Y-3973D01*
X-1530Y-4125D02*
X-1069Y-4587D01*
X-24Y-5714D02*
X-15Y-5705D01*
X-2621Y-9448D02*
X-2165Y-9904D01*
X2335Y-6873D02*
X2351Y-6857D01*
X2653D02*
X2772Y-6976D01*
X2772D01*
X2351Y-6857D02*
X2653D01*
X2764Y-7462D02*
X2768Y-7459D01*
Y-6980D01*
X2772Y-6976D01*
X-2627Y-8991D02*
X-2621Y-8997D01*
X-2676Y-8860D02*
X-2627Y-8909D01*
X-2644Y-9425D02*
X-2621Y-9448D01*
X-2627Y-8991D02*
Y-8909D01*
X-2621Y-9448D02*
Y-8997D01*
X-3800Y-6775D02*
X-3766Y-6881D01*
X-3755Y-6658D02*
X-3539Y-6532D01*
X-3766Y-6881D02*
X-3286Y-7803D01*
X-3931Y-7349D02*
X-3457Y-7901D01*
X-3283Y-6975D02*
X-2945Y-7606D01*
X-4186Y-8730D02*
X-3861Y-8487D01*
X-3572Y-8331D01*
X-7678Y-6170D02*
X-7390Y-6001D01*
X-6972Y-5766D01*
X-1552Y-3125D02*
X-1058D01*
X-4198Y3438D02*
X-4029D01*
X979Y-2624D02*
X982Y-2621D01*
X1234D02*
X1236Y-2619D01*
X1669Y8710D02*
X1678Y8702D01*
X1669Y8710D02*
Y9054D01*
X1661Y9062D02*
X1669Y9054D01*
X1678Y8352D02*
X1965Y8065D01*
X2119D01*
X2626Y7558D02*
X2906D01*
X2119Y8065D02*
X2626Y7558D01*
X4548Y6766D02*
Y6812D01*
X-1798Y-7624D02*
Y-7409D01*
Y-7624D02*
X-1500Y-7923D01*
X-442Y-3530D02*
Y-3271D01*
Y-3713D02*
Y-3530D01*
X-2667Y-5625D02*
X-2196D01*
X-2068Y-5406D02*
Y-5035D01*
X-3318Y-8884D02*
X-3277Y-8843D01*
X-3318Y-9309D02*
Y-8884D01*
Y-9309D02*
X-3202Y-9425D01*
X-2644D01*
X-1104Y-9625D02*
Y-8656D01*
X-1100Y-8652D01*
X-1122Y-8674D02*
X-1104Y-8656D01*
X4466Y2696D02*
X4469Y2694D01*
X4466Y2696D02*
X4466D01*
X4195Y2968D02*
X4466Y2696D01*
X4262Y2195D02*
Y2492D01*
X6219Y5968D02*
X6516Y5671D01*
X5377Y6416D02*
X5392Y6402D01*
X4826Y6416D02*
X5377D01*
X4780Y6463D02*
X4826Y6416D01*
X4723Y6463D02*
X4780D01*
X3629Y-2367D02*
X3633Y-2362D01*
X3629Y-2837D02*
Y-2367D01*
X3624Y-2841D02*
X3629Y-2837D01*
X3625Y-3109D02*
X3627Y-3110D01*
X3625Y-3109D02*
Y-2842D01*
X3624Y-2841D02*
X3625Y-2842D01*
X3627Y-3513D02*
Y-3110D01*
X3627Y-3110D01*
X4286Y-2194D02*
X4301Y-2179D01*
X4286Y-2584D02*
Y-2194D01*
X4557Y-1344D02*
X4652D01*
X4892Y-1584D01*
Y-1589D02*
Y-1584D01*
X-1100Y-8652D02*
X-776D01*
X-217Y-8093D01*
X-2552Y-4551D02*
Y-4125D01*
Y-4551D02*
X-2068Y-5035D01*
X-442Y-3271D02*
Y-2892D01*
Y-3713D02*
X-409Y-3746D01*
Y-3973D02*
Y-3746D01*
X-552Y-2619D02*
X67D01*
X174Y-3964D02*
Y-2725D01*
X67Y-2619D02*
X174Y-2725D01*
X-1058Y-3125D02*
X-552Y-2619D01*
X174Y-3964D02*
X182Y-3973D01*
Y-4664D02*
Y-3973D01*
X-217Y-8093D02*
Y-7786D01*
X-217Y-7785D01*
X1634Y-8486D02*
X1647Y-8499D01*
X3106Y-9111D02*
X3122Y-9095D01*
X-212Y-5058D02*
X182Y-4664D01*
X-212Y-5705D02*
Y-5058D01*
X1415Y-4563D02*
X2037D01*
X1398Y-5059D02*
X2034D01*
X5675Y3323D02*
X5689Y3337D01*
X4195Y3580D02*
X4203Y3573D01*
X4187Y3965D02*
X4195Y3957D01*
X4195Y2968D02*
Y2973D01*
X3083Y5453D02*
Y6010D01*
X3418Y6345D01*
Y6692D01*
X1948Y2294D02*
X1948Y2294D01*
Y2034D02*
Y2294D01*
Y2034D02*
X1948Y2034D01*
X979Y-2274D02*
Y-1959D01*
X905Y-1884D02*
X979Y-1959D01*
X1318Y-1714D02*
X2933D01*
X3133Y-1914D01*
Y-2362D02*
Y-1914D01*
X979Y-2624D02*
X979D01*
X-552Y3579D02*
X-286D01*
X-743Y3388D02*
X-552Y3579D01*
X-286D02*
X-113Y3751D01*
X-1721Y3602D02*
Y4271D01*
D27*
X5448Y1225D02*
D03*
X5273Y921D02*
D03*
D28*
X4459Y699D02*
D03*
X4262Y699D02*
D03*
X4065D02*
D03*
X3868Y699D02*
D03*
Y2195D02*
D03*
X4065D02*
D03*
X4262D02*
D03*
X4459D02*
D03*
D29*
X3415Y1152D02*
D03*
Y1348D02*
D03*
Y1545D02*
D03*
Y1742D02*
D03*
X4911D02*
D03*
Y1545D02*
D03*
Y1348D02*
D03*
Y1152D02*
D03*
D30*
X-2989Y-715D02*
D03*
Y-1855D02*
D03*
X7916Y5420D02*
D03*
Y4280D02*
D03*
X-5763Y6528D02*
D03*
Y5388D02*
D03*
D31*
X5775Y5737D02*
D03*
X5997Y5865D02*
D03*
X6219Y5993D02*
D03*
X5392Y6402D02*
D03*
X5613Y6529D02*
D03*
X5835Y6657D02*
D03*
D32*
X-4411Y-4380D02*
D03*
Y-4730D02*
D03*
X1948Y2644D02*
D03*
Y2294D02*
D03*
X2400Y2644D02*
D03*
Y2294D02*
D03*
X-1122Y-8674D02*
D03*
Y-8324D02*
D03*
X5325Y1616D02*
D03*
Y1966D02*
D03*
X912Y-5559D02*
D03*
Y-5909D02*
D03*
X1318Y-5563D02*
D03*
Y-5913D02*
D03*
X4840Y-4507D02*
D03*
Y-4157D02*
D03*
X4862Y-5490D02*
D03*
Y-5140D02*
D03*
X1678Y8352D02*
D03*
Y8702D02*
D03*
X-1729Y-1283D02*
D03*
X-1729Y-1633D02*
D03*
X979Y-2624D02*
D03*
X979Y-2274D02*
D03*
X-953Y4623D02*
D03*
Y4273D02*
D03*
X-2141Y4515D02*
D03*
X-2141Y4865D02*
D03*
X-3162Y4677D02*
D03*
Y5027D02*
D03*
X-3160Y5426D02*
D03*
Y5776D02*
D03*
X-3566Y5310D02*
D03*
Y4960D02*
D03*
X-3968Y5310D02*
D03*
X-3968Y4960D02*
D03*
X-3572Y5692D02*
D03*
Y6042D02*
D03*
X-3971Y5692D02*
D03*
X-3971Y6042D02*
D03*
X-4369Y5310D02*
D03*
Y4960D02*
D03*
Y5692D02*
D03*
Y6042D02*
D03*
X-2779Y6151D02*
D03*
Y6501D02*
D03*
X-2363Y6151D02*
D03*
Y6501D02*
D03*
X-4716Y3565D02*
D03*
Y3915D02*
D03*
X-4303Y3900D02*
D03*
Y4250D02*
D03*
X-1130Y3387D02*
D03*
X-1130Y3037D02*
D03*
X-496Y3879D02*
D03*
Y4229D02*
D03*
X-2995Y986D02*
D03*
Y636D02*
D03*
D33*
X7188Y3989D02*
D03*
X6838D02*
D03*
X-10221Y-1563D02*
D03*
X-9871D02*
D03*
X2335Y-6873D02*
D03*
X1985D02*
D03*
X937Y-6923D02*
D03*
X587Y-6923D02*
D03*
X-442Y-3271D02*
D03*
X-92D02*
D03*
X-442Y-2892D02*
D03*
X-92D02*
D03*
X-1500Y-7923D02*
D03*
X-1150D02*
D03*
X-2702Y-6892D02*
D03*
X-2352D02*
D03*
X-885Y-7108D02*
D03*
X-535D02*
D03*
X4234Y-260D02*
D03*
X4584D02*
D03*
X4231Y175D02*
D03*
X4581D02*
D03*
X3099Y-9161D02*
D03*
X2749Y-9161D02*
D03*
X1612Y-9135D02*
D03*
X1262Y-9135D02*
D03*
X1045Y-5055D02*
D03*
X1395Y-5055D02*
D03*
X1065Y-4563D02*
D03*
X1415D02*
D03*
X3627Y-3110D02*
D03*
X3277D02*
D03*
X3627Y-3513D02*
D03*
X3277D02*
D03*
X2709Y384D02*
D03*
X3059D02*
D03*
X2615Y8132D02*
D03*
X2965D02*
D03*
X2079Y6216D02*
D03*
X2429D02*
D03*
X3512Y2657D02*
D03*
X3162D02*
D03*
X-1617Y-820D02*
D03*
X-1967Y-820D02*
D03*
X-392Y3389D02*
D03*
X-742Y3389D02*
D03*
X-1721Y4271D02*
D03*
X-1371D02*
D03*
X-1371Y4675D02*
D03*
X-1721D02*
D03*
X-1443Y983D02*
D03*
X-1093D02*
D03*
X-5077Y1830D02*
D03*
X-4727Y1830D02*
D03*
X-5252Y2645D02*
D03*
X-4902D02*
D03*
X-5115Y4968D02*
D03*
X-4765D02*
D03*
X-5118Y5700D02*
D03*
X-4768D02*
D03*
X-3566Y4575D02*
D03*
X-3916D02*
D03*
X-571Y1857D02*
D03*
X-921Y1857D02*
D03*
X-739Y3006D02*
D03*
X-389D02*
D03*
X-1241Y3874D02*
D03*
X-891D02*
D03*
X-113Y3751D02*
D03*
X237D02*
D03*
X-924Y2646D02*
D03*
X-574D02*
D03*
X-924Y2246D02*
D03*
X-574D02*
D03*
X174Y2069D02*
D03*
X-176D02*
D03*
X-1834Y983D02*
D03*
X-2184D02*
D03*
X-5258Y3027D02*
D03*
X-4908D02*
D03*
X-4727Y2236D02*
D03*
X-5077D02*
D03*
X-2575Y594D02*
D03*
X-2225Y594D02*
D03*
D39*
X6359Y3337D02*
D03*
X5689D02*
D03*
X-1259Y390D02*
D03*
X-589D02*
D03*
X-2190Y55D02*
D03*
X-2860D02*
D03*
D41*
X-6004Y-5956D02*
D03*
X-6515Y-6251D02*
D03*
X-4957Y-5374D02*
D03*
X-5468Y-5669D02*
D03*
X5597Y7078D02*
D03*
X5086Y6783D02*
D03*
D44*
X-7853Y-5867D02*
D03*
X-7678Y-6170D02*
D03*
X-5632Y-6723D02*
D03*
X-5457Y-7026D02*
D03*
X-5993Y-6940D02*
D03*
X-5818Y-7243D02*
D03*
X-4864Y-9536D02*
D03*
X-5039Y-9233D02*
D03*
X-5251Y-8874D02*
D03*
X-5426Y-8571D02*
D03*
X-5654Y-8200D02*
D03*
X-5829Y-7897D02*
D03*
X-2244Y-9119D02*
D03*
X-2069Y-9422D02*
D03*
X-1886Y-8907D02*
D03*
X-1711Y-9210D02*
D03*
X4723Y6463D02*
D03*
X4548Y6766D02*
D03*
X-8011Y-2649D02*
D03*
X-8186Y-2346D02*
D03*
D47*
X-4683Y-7295D02*
D03*
X-4388Y-7806D02*
D03*
X-4186Y-8730D02*
D03*
X-3891Y-9241D02*
D03*
X5233Y5539D02*
D03*
X4938Y6050D02*
D03*
D50*
X-8588Y1755D02*
D03*
X-8285Y1580D02*
D03*
X-8832Y1300D02*
D03*
X-8529Y1125D02*
D03*
X-8323Y2262D02*
D03*
X-8020Y2087D02*
D03*
X7507Y-6439D02*
D03*
X7204Y-6264D02*
D03*
X5863Y-5222D02*
D03*
X6166Y-5397D02*
D03*
X5653Y-5578D02*
D03*
X5956Y-5753D02*
D03*
D52*
X6348Y7958D02*
D03*
X6651Y8133D02*
D03*
X6516Y5658D02*
D03*
X6819Y5833D02*
D03*
X-7188Y-3438D02*
D03*
X-7491Y-3613D02*
D03*
X-7791Y-3159D02*
D03*
X-7488Y-2984D02*
D03*
D53*
X7070Y4530D02*
D03*
Y5200D02*
D03*
X-5327Y3674D02*
D03*
Y4344D02*
D03*
D54*
X7079Y6396D02*
D03*
X6400Y7572D02*
D03*
D55*
X6760Y6280D02*
D03*
X6140Y7354D02*
D03*
X6719Y7689D02*
D03*
X7340Y6615D02*
D03*
D58*
X4282Y-792D02*
D03*
X4872D02*
D03*
D60*
X4203Y2983D02*
D03*
Y3573D02*
D03*
X4764Y3573D02*
D03*
Y2983D02*
D03*
X4892Y-2179D02*
D03*
Y-1589D02*
D03*
X4301Y-1589D02*
D03*
Y-2179D02*
D03*
X-2203Y-1929D02*
D03*
X-2203Y-1339D02*
D03*
D64*
X6214Y2171D02*
D03*
Y1974D02*
D03*
Y1580D02*
D03*
Y1383D02*
D03*
X6543Y2171D02*
D03*
Y1974D02*
D03*
Y1580D02*
D03*
Y1383D02*
D03*
X6210Y923D02*
D03*
X6210Y726D02*
D03*
X6210Y332D02*
D03*
Y135D02*
D03*
X6539Y923D02*
D03*
Y726D02*
D03*
Y332D02*
D03*
Y135D02*
D03*
D65*
X5859Y-1423D02*
D03*
X6056D02*
D03*
X6449D02*
D03*
X6646D02*
D03*
X5859Y-1095D02*
D03*
X6056D02*
D03*
X6449D02*
D03*
X6646D02*
D03*
X9289Y-2132D02*
D03*
X9092Y-2132D02*
D03*
X8699Y-2132D02*
D03*
X8502D02*
D03*
X9289Y-2461D02*
D03*
X9092D02*
D03*
X8699Y-2461D02*
D03*
X8502D02*
D03*
D68*
X-8470Y3379D02*
D03*
X-9051Y3714D02*
D03*
X-8017Y5478D02*
D03*
X-7436Y5143D02*
D03*
D105*
X-2896Y-8282D02*
D03*
D143*
X5487Y88D02*
G03*
X5707Y308I0J220D01*
G01*
X5260Y88D02*
G03*
X5227Y55I0J-33D01*
G01*
Y-205D02*
G03*
X5260Y-237I33J0D01*
G01*
X5707Y-457D02*
G03*
X5487Y-237I-220J0D01*
G01*
Y223D02*
G03*
X5572Y308I0J85D01*
G01*
X5260Y223D02*
G03*
X5092Y55I0J-168D01*
G01*
Y-205D02*
G03*
X5260Y-372I168J0D01*
G01*
X5572Y-457D02*
G03*
X5487Y-372I-85J0D01*
G01*
X8958Y77D02*
G03*
X9055Y-21I98J0D01*
G01*
X8958Y134D02*
G03*
X8860Y232I-98J0D01*
G01*
X8730D02*
G03*
X8633Y134I0J-98D01*
G01*
X8535Y-21D02*
G03*
X8633Y77I0J98D01*
G01*
X7884Y771D02*
G03*
X7982Y868I0J98D01*
G01*
X8079Y1100D02*
G03*
X7982Y1003I0J-98D01*
G01*
X8307D02*
G03*
X8209Y1100I-98J0D01*
G01*
X8307Y854D02*
G03*
X8404Y756I98J0D01*
G01*
X7102Y-98D02*
X7158Y-154D01*
X8190Y-174D02*
X8209Y-156D01*
X7387Y-154D02*
X7390Y-157D01*
X8142Y-174D02*
Y-174D01*
X7693Y787D02*
X7701Y779D01*
X7158Y-154D02*
X7387D01*
X7024Y98D02*
X7024Y99D01*
X7367D01*
X7024Y-98D02*
X7102D01*
X8134Y-166D02*
X8142Y-174D01*
X7709Y-180D02*
X8119D01*
X8134Y-166D01*
X8104Y-21D02*
X8279D01*
X7367Y99D02*
X7368Y100D01*
X7693Y-197D02*
X7709Y-180D01*
X7904Y-31D02*
X8094D01*
X8142Y-174D02*
X8190D01*
X8209Y-156D02*
X8279D01*
X8356Y-232D01*
X7709Y-17D02*
X7890D01*
X8356Y-232D02*
X8386D01*
X8094Y-31D02*
X8104Y-21D01*
X7693Y0D02*
X7709Y-17D01*
X7890D02*
X7904Y-31D01*
X8279Y-21D02*
X8279Y-21D01*
X8306D01*
X8356Y28D01*
X8386D01*
X5572Y-2001D02*
Y-567D01*
X5707Y-1945D02*
Y-567D01*
X5638Y904D02*
X5707Y835D01*
Y308D02*
Y835D01*
X5260Y88D02*
X5487D01*
X5227Y-205D02*
Y55D01*
X5260Y-237D02*
X5487D01*
X5707Y-567D02*
Y-457D01*
X5447Y904D02*
X5572Y779D01*
Y308D02*
Y779D01*
X5260Y223D02*
X5487D01*
X5092Y-205D02*
Y55D01*
X5260Y-372D02*
X5487D01*
X5572Y-567D02*
Y-457D01*
X5465Y1077D02*
X5638Y904D01*
X5434Y917D02*
X5447Y904D01*
X8748Y2001D02*
X8932Y1817D01*
Y750D02*
Y1817D01*
X8797Y806D02*
Y1761D01*
X7255Y1866D02*
X8692D01*
X8797Y1761D01*
X5277Y917D02*
X5434D01*
X5273Y921D02*
X5277Y917D01*
X4911Y1152D02*
X4918Y1158D01*
X5256Y938D02*
Y1069D01*
Y938D02*
X5273Y921D01*
X5150Y1175D02*
X5256Y1069D01*
X5080Y1175D02*
X5150D01*
X4918Y1158D02*
X5063D01*
X5080Y1175D01*
X5448Y1225D02*
X5465Y1208D01*
Y1077D02*
Y1208D01*
X4918Y1342D02*
X5063D01*
X5095Y1310D01*
X5206D01*
X5288Y1229D01*
X4911Y1348D02*
X4918Y1342D01*
X5444Y1229D02*
X5448Y1225D01*
X5288Y1229D02*
X5444D01*
X7007Y-706D02*
X7024Y-689D01*
X6812Y-720D02*
X6827Y-706D01*
X7007D01*
X6610Y-720D02*
X6812D01*
X6481Y-849D02*
X6610Y-720D01*
X6481Y-936D02*
Y-849D01*
X6452Y-1091D02*
Y-964D01*
X6481Y-936D01*
X6452Y-1554D02*
Y-1426D01*
Y-1554D02*
X6480Y-1581D01*
Y-1662D02*
Y-1581D01*
X6430Y-1712D02*
X6480Y-1662D01*
X6449Y-1423D02*
Y-1095D01*
Y-1423D02*
X6452Y-1426D01*
X6449Y-1095D02*
X6452Y-1091D01*
X6354Y-1712D02*
X6430D01*
X6063Y-2002D02*
X6354Y-1712D01*
X5707Y-1945D02*
X5763Y-2002D01*
X6063D01*
X6666Y-855D02*
X6812D01*
X6616Y-905D02*
X6666Y-855D01*
X6827Y-869D02*
X7007D01*
X7024Y-886D01*
X6812Y-855D02*
X6827Y-869D01*
X6616Y-999D02*
X6646Y-1029D01*
X6616Y-999D02*
Y-905D01*
X6646Y-1095D02*
Y-1029D01*
Y-1423D02*
Y-1095D01*
X6643Y-1426D02*
X6646Y-1423D01*
X6615Y-1581D02*
X6643Y-1554D01*
Y-1426D01*
X6615Y-1718D02*
Y-1581D01*
X6486Y-1847D02*
X6615Y-1718D01*
X6409Y-1847D02*
X6486D01*
X6119Y-2137D02*
X6409Y-1847D01*
X5572Y-2001D02*
X5707Y-2137D01*
X6119D01*
X7709Y607D02*
X7890D01*
X7693Y591D02*
X7709Y607D01*
X8803Y621D02*
X8932Y750D01*
X8283Y621D02*
X8803D01*
X8772Y781D02*
X8797Y806D01*
X8283Y621D02*
X8283Y621D01*
X7904Y621D02*
X8283D01*
X7890Y607D02*
X7904Y621D01*
X9345Y-21D02*
X9370Y-46D01*
X9055Y-21D02*
X9345D01*
X8958Y77D02*
Y134D01*
X8730Y232D02*
X8860D01*
X8633Y77D02*
Y134D01*
X8493Y-21D02*
X8535D01*
X9370Y-46D02*
X9651Y-326D01*
Y-1345D02*
Y-326D01*
X7701Y779D02*
X7709Y771D01*
X7884D01*
X7982Y868D02*
Y1003D01*
X8079Y1100D02*
X8209D01*
X8307Y854D02*
Y1003D01*
X8404Y756D02*
X8716Y756D01*
X8747D01*
X8772Y781D01*
X8925Y-2863D02*
X8947Y-2884D01*
X9129D01*
X8436Y-2863D02*
X8925D01*
X8093Y-3207D02*
X8436Y-2863D01*
X8416Y56D02*
X8493Y-21D01*
X9289Y-156D02*
X9516Y-382D01*
X8493Y-156D02*
X9289D01*
X5325Y1966D02*
X5432Y1859D01*
X5107Y1749D02*
X5325Y1966D01*
X5432Y1859D02*
X5757D01*
X5325Y1966D02*
Y1966D01*
X4918Y1749D02*
X5107D01*
X4911Y1742D02*
X4918Y1749D01*
X6130Y1562D02*
X6148Y1580D01*
X5757Y1859D02*
X6054Y1562D01*
X6148Y1580D02*
X6214D01*
X6054Y1562D02*
X6130D01*
X7199Y2001D02*
X8748D01*
X7006Y1808D02*
X7199Y2001D01*
X6843Y1549D02*
X7006Y1712D01*
Y1808D01*
X6673Y1577D02*
X6701Y1549D01*
X6843D01*
X6546Y1577D02*
X6673D01*
X6543Y1580D02*
X6546Y1577D01*
X5432Y1724D02*
X5701D01*
X5325Y1617D02*
X5432Y1724D01*
X5325Y1616D02*
Y1617D01*
X5319Y1610D02*
X5325Y1616D01*
X5045Y1610D02*
X5319D01*
X4980Y1545D02*
X5045Y1610D01*
X4911Y1545D02*
X4980D01*
X6211Y1387D02*
X6214Y1383D01*
X5998Y1427D02*
X6043D01*
X5701Y1724D02*
X5998Y1427D01*
X6083Y1387D02*
X6211D01*
X6043Y1427D02*
X6083Y1387D01*
X7141Y1752D02*
X7255Y1866D01*
X7141Y1656D02*
Y1752D01*
X6899Y1414D02*
X7141Y1656D01*
X6701Y1414D02*
X6899D01*
X6673Y1387D02*
X6701Y1414D01*
X6546Y1387D02*
X6673D01*
X6543Y1383D02*
X6546Y1387D01*
X6016Y854D02*
Y863D01*
X5888Y992D02*
X6016Y863D01*
X5888Y992D02*
Y1022D01*
X6145Y726D02*
X6210D01*
X6016Y854D02*
X6145Y726D01*
X5361Y-3861D02*
X5382Y-3883D01*
X5240Y-3855D02*
X5247Y-3861D01*
X5361D01*
X5091Y-3855D02*
X5240D01*
X4887Y-4110D02*
Y-4058D01*
X5091Y-3855D01*
X4840Y-4157D02*
X4887Y-4110D01*
X4840Y-4157D02*
Y-4157D01*
X4733Y-4264D02*
X4840Y-4157D01*
X4242Y-4063D02*
X4459D01*
X4544Y-4148D01*
Y-4196D02*
X4613Y-4264D01*
X4733D01*
X4544Y-4196D02*
Y-4148D01*
X6635Y756D02*
X6720D01*
X6736Y741D01*
X6792D01*
X6827Y706D01*
X6605Y726D02*
X6635Y756D01*
X7007Y706D02*
X7024Y689D01*
X6827Y706D02*
X7007D01*
X6539Y726D02*
X6605D01*
X6144Y926D02*
Y1025D01*
Y926D02*
X6147Y923D01*
X5888Y1282D02*
X6144Y1025D01*
X6147Y923D02*
X6210D01*
X5165Y-4066D02*
Y-4036D01*
X5023Y-4209D02*
X5165Y-4066D01*
X5023Y-4324D02*
Y-4209D01*
X4733Y-4399D02*
X4840Y-4507D01*
Y-4507D02*
X5023Y-4324D01*
X4594Y-4399D02*
X4733D01*
X4840Y-4507D02*
Y-4507D01*
X4544Y-4449D02*
X4594Y-4399D01*
X4544Y-4477D02*
Y-4449D01*
X4459Y-4563D02*
X4544Y-4477D01*
X4242Y-4563D02*
X4459D01*
X6776Y891D02*
X6792Y876D01*
X6698Y891D02*
X6776D01*
X7013Y876D02*
X7024Y886D01*
X6792Y876D02*
X7013D01*
X6539Y923D02*
X6542Y920D01*
X6669D02*
X6698Y891D01*
X6542Y920D02*
X6669D01*
X4860Y-5140D02*
X4862D01*
X4242Y-5063D02*
X4459D01*
X4862Y-5140D02*
Y-5140D01*
X4459Y-5063D02*
X4544Y-5148D01*
X4755Y-5245D02*
X4860Y-5140D01*
X4544Y-5195D02*
X4594Y-5245D01*
X4755D01*
X4544Y-5195D02*
Y-5148D01*
X8436Y-1436D02*
X8585D01*
X8662Y-1513D01*
X8102Y-953D02*
X8435Y-1287D01*
Y-1435D02*
Y-1287D01*
X7904Y-953D02*
X8102D01*
X8436Y-1436D02*
X8436Y-1436D01*
X8435Y-1435D02*
X8436Y-1436D01*
X8662Y-1612D02*
Y-1513D01*
X8533Y-1741D02*
X8662Y-1612D01*
X8533Y-1974D02*
Y-1741D01*
X8505Y-2002D02*
X8533Y-1974D01*
X8505Y-2129D02*
Y-2002D01*
X8502Y-2132D02*
X8505Y-2129D01*
X7890Y-968D02*
X7904Y-953D01*
X7693Y-984D02*
X7709Y-968D01*
X7890D01*
X4594Y-5380D02*
X4753D01*
X4544Y-5430D02*
X4594Y-5380D01*
X4544Y-5477D02*
Y-5430D01*
X4753Y-5380D02*
X4862Y-5490D01*
X4459Y-5563D02*
X4544Y-5477D01*
X4242Y-5563D02*
X4459D01*
X8690Y-1351D02*
Y-1202D01*
Y-1351D02*
X8797Y-1457D01*
X8158Y-818D02*
X8541Y-1201D01*
X8689D01*
X7904Y-818D02*
X8158D01*
X8690Y-1202D02*
X8690Y-1202D01*
X8689Y-1201D02*
X8690Y-1202D01*
X8797Y-1668D02*
Y-1457D01*
X8668Y-1797D02*
X8797Y-1668D01*
X8696Y-2129D02*
X8699Y-2132D01*
X8668Y-1974D02*
Y-1797D01*
Y-1974D02*
X8696Y-2002D01*
Y-2129D02*
Y-2002D01*
X7693Y-787D02*
X7709Y-804D01*
X7890D01*
X7904Y-818D01*
X4862Y-5490D02*
X4970Y-5382D01*
X5078D01*
X5184Y-5488D01*
X4862Y-5140D02*
X4970Y-5247D01*
X5090D01*
X5174Y-5163D01*
Y-5137D01*
X5184Y-5496D02*
Y-5488D01*
X9092Y-2461D02*
Y-2392D01*
X9092Y-2392D01*
X9092Y-2201D02*
X9092Y-2201D01*
X9286Y-2458D02*
X9289Y-2461D01*
X9258Y-1974D02*
X9286Y-2002D01*
X9092Y-2201D02*
Y-2132D01*
X9286Y-2129D02*
X9289Y-2132D01*
X9286Y-2129D02*
Y-2002D01*
X9286Y-2135D02*
X9289Y-2132D01*
X9258Y-1737D02*
X9651Y-1345D01*
X9258Y-1974D02*
Y-1737D01*
X8386Y56D02*
X8416D01*
X9286Y-2464D02*
X9289Y-2461D01*
X9286Y-2591D02*
Y-2464D01*
X9258Y-2619D02*
X9286Y-2591D01*
X9129Y-2884D02*
X9258Y-2756D01*
Y-2619D01*
X8093Y-3270D02*
Y-3207D01*
X9516Y-1289D02*
Y-382D01*
X9123Y-1974D02*
Y-1681D01*
X9516Y-1289D01*
X8416Y-232D02*
X8493Y-156D01*
X8386Y-232D02*
X8416D01*
X9096Y-2002D02*
X9123Y-1974D01*
X9096Y-2129D02*
Y-2002D01*
X9092Y-2132D02*
X9096Y-2129D01*
Y-2591D02*
Y-2464D01*
Y-2591D02*
X9123Y-2619D01*
Y-2700D02*
Y-2619D01*
X9074Y-2749D02*
X9123Y-2700D01*
X9092Y-2461D02*
X9096Y-2464D01*
X9003Y-2749D02*
X9074D01*
X8981Y-2728D02*
X9003Y-2749D01*
X8198Y-2728D02*
X8981D01*
X8056Y-2870D02*
X8198Y-2728D01*
X7810Y-2870D02*
X8056D01*
X7660Y-3020D02*
X7810Y-2870D01*
X7175Y-6243D02*
X7315Y-6103D01*
X7175Y-6264D02*
Y-6243D01*
X7315Y-6103D02*
Y-5538D01*
X7423Y-5430D01*
D144*
X-1247Y1917D02*
G03*
X-1265Y1960I-60J0D01*
G01*
X-1449Y2144D02*
G03*
X-1491Y2161I-42J-43D01*
G01*
X-1247Y1815D02*
G03*
X-1230Y1773I60J0D01*
G01*
X-738Y1281D02*
G03*
X-696Y1264I42J43D01*
G01*
X-352Y1247D02*
G03*
X-394Y1264I-42J-43D01*
G01*
X-138Y1008D02*
G03*
X-156Y1050I-60J0D01*
G01*
X-156Y-1331D02*
G03*
X-138Y-1289I-43J42D01*
G01*
X-505Y-1655D02*
G03*
X-462Y-1638I0J60D01*
G01*
X6055Y-1689D02*
Y-1096D01*
X-2805Y3868D02*
Y3943D01*
X-2795Y3954D01*
X8912Y2246D02*
X9193Y1965D01*
X6614Y2171D02*
X6624Y2180D01*
X6214Y2171D02*
X6614D01*
X6624Y2180D02*
Y2211D01*
X6659Y2246D02*
X8912D01*
X6624Y2211D02*
X6659Y2246D01*
X8911Y509D02*
X9193Y791D01*
Y1965D01*
X8236Y509D02*
X8911D01*
X7901Y329D02*
X8080Y509D01*
X8236D02*
X8236Y509D01*
X8080Y509D02*
X8236D01*
X6056Y-803D02*
X6268Y-591D01*
X6056Y-898D02*
X6056Y-898D01*
X6056Y-1095D02*
Y-898D01*
X6056Y-898D02*
Y-803D01*
X6877Y-363D02*
X6945Y-295D01*
X6857Y-363D02*
X6877D01*
X6816Y-404D02*
X6857Y-363D01*
X6312Y-564D02*
X6755D01*
X6945Y-295D02*
X7024D01*
X6816Y-503D02*
Y-404D01*
X6755Y-564D02*
X6816Y-503D01*
X6286Y-591D02*
X6312Y-564D01*
X6268Y-591D02*
X6286D01*
X6054Y-1690D02*
X6055Y-1689D01*
Y-1096D02*
X6056Y-1095D01*
X7860Y265D02*
X7901Y306D01*
X7836Y265D02*
X7860D01*
X7801Y229D02*
X7836Y265D01*
X7901Y306D02*
Y329D01*
X6000Y2313D02*
X6142Y2171D01*
X5903Y2339D02*
X5929Y2313D01*
X6142Y2171D02*
X6214D01*
X5929Y2313D02*
X6000D01*
X7693Y197D02*
X7772D01*
X7801Y226D01*
Y229D01*
X-3875Y-6093D02*
X-3835Y-6053D01*
X-3634Y-5951D01*
X-1729Y2161D02*
X-1491D01*
X-1247Y1815D02*
Y1917D01*
X-1449Y2144D02*
X-1265Y1960D01*
X-1230Y1773D02*
X-738Y1281D01*
X-696Y1264D02*
X-394D01*
X-138Y-1289D02*
Y1008D01*
X-352Y1247D02*
X-156Y1050D01*
X-462Y-1638D02*
X-156Y-1331D01*
X-907Y-1655D02*
X-505D01*
X-2710Y999D02*
Y1190D01*
Y999D02*
X-2575Y865D01*
Y594D02*
Y865D01*
X-3882Y998D02*
X-3643Y1237D01*
X-3632Y939D02*
X-3498Y1073D01*
Y1115D01*
X-3291Y1322D01*
X-2502Y1249D02*
Y1573D01*
X-2514Y1238D02*
X-2502Y1249D01*
X-2710Y1190D02*
X-2682Y1218D01*
Y1406D01*
X-2502Y1573D02*
X-2491Y1584D01*
X-3298Y1063D02*
X-3213D01*
X-3120Y1156D01*
X-3324Y1037D02*
X-3298Y1063D01*
X-3291Y1322D02*
Y1571D01*
X-4584Y2738D02*
X-4480D01*
X-4454Y2765D02*
X-4350D01*
X-4480Y2738D02*
X-4454Y2765D01*
X-4651Y2671D02*
X-4584Y2738D01*
X-4149Y-4388D02*
X-4141Y-4395D01*
X-4746Y3095D02*
X-4051D01*
X-4026Y3120D01*
X-4757Y3106D02*
X-4746Y3095D01*
X-4829Y3106D02*
X-4757D01*
X-3643Y1237D02*
X-3587D01*
X-3566Y4575D02*
X-3323Y4331D01*
X-3307D02*
X-3288D01*
X-3323Y4315D02*
X-3307Y4331D01*
X-3323D02*
X-3288D01*
X-3323Y4315D02*
X-3120Y4113D01*
Y3868D02*
Y4113D01*
X-3553Y4157D02*
X-3305D01*
X-3661Y4265D02*
X-3553Y4157D01*
X-3305D02*
X-3274Y4125D01*
Y3872D02*
Y4125D01*
X-2648Y1440D02*
Y1584D01*
X-2682Y1406D02*
X-2648Y1440D01*
X-2157Y4452D02*
X-2117Y4491D01*
X-5233Y-4171D02*
X-5161D01*
X-4911Y-3921D01*
Y-3830D01*
X-4889Y-3808D01*
X-4411Y-4380D02*
X-4403Y-4388D01*
X-2505Y-8774D02*
Y-8761D01*
X-2270Y-9092D02*
Y-9010D01*
Y-9092D02*
X-2244Y-9119D01*
X-2227Y-8766D02*
X-2028D01*
X-2505Y-8774D02*
X-2270Y-9010D01*
X-2330Y-8663D02*
X-2227Y-8766D01*
X-2335Y-8663D02*
X-2330D01*
X-2028Y-8766D02*
X-1886Y-8907D01*
X6516Y5658D02*
Y5671D01*
X6219Y5968D02*
Y5993D01*
X-3587Y1237D02*
X-3449Y1376D01*
X-3120Y1156D02*
Y1584D01*
X2034Y-5059D02*
X2037Y-5063D01*
X1395Y-5055D02*
X1398Y-5059D01*
X2203Y6798D02*
X2862D01*
X2906Y6754D01*
Y6692D02*
Y6754D01*
X1804Y6399D02*
X2203Y6798D01*
X176Y-704D02*
X675Y-1202D01*
X176Y-704D02*
Y-18D01*
X973Y779D01*
Y6028D02*
X1344Y6399D01*
X1804D01*
X973Y779D02*
Y6028D01*
X675Y-1202D02*
X1318D01*
X2400Y2644D02*
X2583Y2827D01*
Y3248D01*
X1948Y2644D02*
X1999Y2696D01*
Y2749D01*
X2083Y2832D01*
Y3248D01*
X-965Y-1714D02*
X-907Y-1655D01*
X-1027Y2056D02*
X-472D01*
X-1168Y2198D02*
X-1027Y2056D01*
X-1076Y1936D02*
X-1076D01*
X-969Y1905D02*
X-921Y1857D01*
X-1045Y1905D02*
X-969D01*
X-1076Y1936D02*
X-1045Y1905D01*
X-1288Y2148D02*
X-1076Y1936D01*
X-979Y4649D02*
X-953Y4623D01*
X-1371Y4675D02*
X-1345Y4649D01*
X-1371Y4271D02*
X-1370Y4272D01*
X-954D02*
X-953Y4273D01*
X-1371Y4271D02*
Y4271D01*
X-2160Y4236D02*
X-2157D01*
X-2141Y4515D02*
X-2117Y4491D01*
X-2333Y3868D02*
X-2320Y3881D01*
X-3449Y1376D02*
Y1571D01*
X-3435Y1584D01*
X-3291Y1571D02*
X-3278Y1584D01*
X-2995Y986D02*
Y1231D01*
X-2963Y1263D01*
Y1584D01*
X-4902Y2645D02*
X-4876Y2671D01*
X-4651D01*
X-4428Y2645D02*
X-4300D01*
X-4709Y2236D02*
X-4696Y2249D01*
Y2377D01*
X-4428Y2645D01*
X-4300D02*
X-4298Y2647D01*
X-4026D01*
X-4350Y2765D02*
X-4310Y2805D01*
X-4026D01*
X-4908Y3027D02*
X-4829Y3106D01*
X-3278Y3868D02*
X-3274Y3872D01*
X-1742Y2175D02*
X-1729Y2161D01*
X-1288Y2148D02*
Y2224D01*
X-1380Y2316D02*
X-1288Y2224D01*
X-1720Y2316D02*
X-1380D01*
X-1322Y2474D02*
X-1168Y2320D01*
Y2198D02*
Y2320D01*
X-1720Y2474D02*
X-1322D01*
X-1734Y2645D02*
X-1323D01*
X-1153Y2475D02*
X-1153D01*
X-1323Y2645D02*
X-1153Y2475D01*
X-1153D02*
X-924Y2246D01*
X-1720Y2789D02*
X-1094D01*
X-941Y2646D02*
X-924D01*
X-1011Y2716D02*
X-941Y2646D01*
X-1094Y2789D02*
X-1021Y2716D01*
X-1011D01*
X-1734Y2330D02*
X-1720Y2316D01*
X-472Y2056D02*
X-450Y2079D01*
X-186D01*
X-176Y2069D01*
X-1734Y2487D02*
X-1720Y2474D01*
X-1734Y2802D02*
X-1720Y2789D01*
X-1734Y2960D02*
X-1224D01*
X-1146Y3037D01*
X-1130D01*
X-755Y3022D02*
X-739Y3006D01*
X-1130Y3037D02*
X-1114Y3022D01*
X-392Y3389D02*
X-391Y3387D01*
Y3007D02*
X-389Y3006D01*
X-1130Y3387D02*
X-1129Y3388D01*
X-1734Y3117D02*
X-1401D01*
X-1130Y3387D01*
X-1400Y3874D02*
X-1241D01*
X-1448Y3826D02*
X-1400Y3874D01*
X-1734Y3432D02*
X-1720Y3445D01*
X-1525D01*
X-1448Y3522D01*
Y3826D01*
X-1734Y3590D02*
X-1721Y3602D01*
D145*
X-6790Y-3182D02*
D03*
D146*
X-6824Y-3212D02*
G03*
X-6790Y-3182I-60J104D01*
G01*
X-5422Y-4719D02*
G03*
X-5289Y-4779I105J57D01*
G01*
X-5630Y-4101D02*
G03*
X-5672Y-4261I63J-102D01*
G01*
X-2702Y-6892D02*
G03*
X-2706Y-6903I11J-11D01*
G01*
X-4864Y-9536D02*
X-4529D01*
X7247Y1001D02*
X7337D01*
X7356Y-1084D02*
X7365Y-1093D01*
X7577Y987D02*
X7579Y985D01*
X7375Y394D02*
X7693D01*
X7025Y-1084D02*
X7356D01*
X7024Y1083D02*
X7025Y1082D01*
X7386Y986D02*
X7387Y987D01*
X7484Y-591D02*
X7692D01*
X7359Y-695D02*
Y-686D01*
X7387Y987D02*
X7577D01*
X7025Y491D02*
X7278D01*
X7473Y-1180D02*
X7692D01*
X7024Y-492D02*
X7025Y-493D01*
X7166Y1082D02*
X7247Y1001D01*
X7278Y491D02*
X7375Y394D01*
X7385Y-1093D02*
X7473Y-1180D01*
X7025Y1082D02*
X7166D01*
X7365Y-1093D02*
X7385D01*
X7024Y-1083D02*
X7025Y-1084D01*
X7337Y1001D02*
X7351Y986D01*
X7024Y492D02*
X7025Y491D01*
X7692Y-1180D02*
X7693Y-1181D01*
X7380Y-695D02*
X7484Y-591D01*
X7351Y986D02*
X7386D01*
X7692Y-591D02*
X7693Y-591D01*
X7025Y-493D02*
X7166D01*
X7359Y-686D01*
X7579Y985D02*
X7615D01*
X7359Y-695D02*
X7380D01*
X7776Y-1626D02*
X7890D01*
X3868Y2195D02*
Y2486D01*
X4459Y2195D02*
Y2242D01*
X4677Y2461D02*
X4703D01*
X4069Y2199D02*
Y2548D01*
X4163Y1447D02*
Y1558D01*
X4459Y1854D01*
Y2195D01*
X3790Y2565D02*
Y2645D01*
X4459Y2242D02*
X4677Y2461D01*
X4703D02*
X4718Y2475D01*
X4065Y2195D02*
X4069Y2199D01*
Y2548D02*
X4073Y2552D01*
X3790Y2565D02*
X3868Y2486D01*
X1531Y-4071D02*
X1535Y-4067D01*
X-5763Y6528D02*
X-5752Y6517D01*
X-5269D01*
X-5258Y6506D01*
X-9150Y-2751D02*
X-8931Y-3142D01*
X-9150Y-2751D02*
X-9124Y-2601D01*
X-8966Y-3275D02*
X-8931Y-3142D01*
X-6790Y-3182D02*
X-6634Y-2984D01*
X-6790Y-3182D02*
X-6790Y-3182D01*
X-6634Y-2984D02*
X-6298Y-2760D01*
X-7160Y-3406D02*
X-6824Y-3212D01*
X-7188Y-3438D02*
X-7160Y-3406D01*
X-3325Y601D02*
X-3304D01*
X-3268Y636D01*
X-8832Y-3744D02*
X-8731D01*
X-5468Y-5669D02*
Y-5573D01*
X-5632Y-5408D02*
Y-5388D01*
Y-5408D02*
X-5468Y-5573D01*
X-4451Y-4722D02*
X-4411Y-4730D01*
X-4867Y-4637D02*
X-4452Y-4722D01*
X-4915Y-4589D02*
X-4867Y-4637D01*
X-4452Y-4722D02*
X-4451D01*
X-4977Y-4614D02*
X-4915Y-4589D01*
X-4411Y-4950D02*
Y-4730D01*
X-4792Y-5331D02*
X-4411Y-4950D01*
X-4914Y-5331D02*
X-4792D01*
X-4990Y-5407D02*
X-4914Y-5331D01*
X-5289Y-4779D02*
Y-4779D01*
X-5630Y-4101D02*
X-5559Y-4058D01*
X-5672Y-4261D02*
X-5422Y-4719D01*
X-5672Y-4261D02*
X-5672Y-4261D01*
X-7833Y4627D02*
X-7722D01*
X-7686Y4662D02*
X-7041D01*
X-7837Y4622D02*
X-7833Y4627D01*
X-7722D02*
X-7686Y4662D01*
X7425Y3868D02*
X7446D01*
X7188Y3989D02*
X7228Y3949D01*
X7343D01*
X7425Y3868D01*
X7875Y3110D02*
X7885Y3120D01*
X7264Y2927D02*
X7446Y3110D01*
X7188Y3003D02*
X7264Y2927D01*
X7446Y3110D02*
X7875D01*
X-535Y-7108D02*
X-501Y-7142D01*
Y-7341D02*
Y-7142D01*
X-414Y-7784D02*
Y-7449D01*
X-487Y-7377D02*
Y-7356D01*
X-501Y-7341D02*
X-487Y-7356D01*
Y-7377D02*
X-414Y-7449D01*
X959Y-944D02*
X1315D01*
X837Y-822D02*
X959Y-944D01*
X1315D02*
X1318Y-946D01*
X178Y-9292D02*
X228Y-9242D01*
Y-8907D01*
X-20Y-9518D02*
Y-8784D01*
X279Y-8486D02*
X885D01*
X-20Y-8784D02*
X279Y-8486D01*
X6166Y-5397D02*
X6436Y-5450D01*
X5956Y-5753D02*
X6166Y-5397D01*
X2749Y-9161D02*
X2757Y-9153D01*
Y-8809D01*
X2764Y-8801D01*
X1261Y-9133D02*
X1262Y-9135D01*
X1261Y-9133D02*
Y-8802D01*
X1259Y-8801D02*
X1261Y-8802D01*
X-4568Y-5976D02*
X-4281Y-5690D01*
X-4568Y-6152D02*
Y-5976D01*
X-4273Y-5685D02*
X-4170Y-5582D01*
X-4281Y-5690D02*
X-4273Y-5685D01*
X-10229Y-1571D02*
X-10221Y-1563D01*
X-10229Y-1905D02*
Y-1571D01*
X-10237Y-1913D02*
X-10229Y-1905D01*
X-10237Y-1913D02*
X-10077D01*
X-9885Y-2106D01*
X-9842D01*
X6819Y5833D02*
X7055Y5976D01*
X-2220Y-8233D02*
X-2089Y-8159D01*
X-1862Y-8330D01*
X-5289Y-4779D02*
X-5272Y-4775D01*
X-4977Y-4614D01*
X-5353Y-6002D02*
X-4990Y-5638D01*
Y-5407D01*
X-2896Y-8073D02*
X-2544Y-7721D01*
X-2515D01*
X-2896Y-8282D02*
Y-8073D01*
X-7897Y-3852D02*
X-7491Y-3613D01*
X-8168Y-3419D02*
X-7791Y-3159D01*
X-8404Y-2950D02*
X-8011Y-2649D01*
X-4436Y3449D02*
X-4209D01*
X-8361Y3509D02*
Y3531D01*
X7912Y4284D02*
X7916Y4280D01*
X7048Y4551D02*
X7070Y4530D01*
X7264Y2927D02*
X7439Y2752D01*
X7882D01*
X7885Y2749D01*
X8526Y3108D02*
X9012D01*
X8540Y2749D02*
X9015D01*
X9193Y2927D01*
X9012Y3108D02*
X9193Y2927D01*
X6719Y7689D02*
X7051Y7114D01*
X7340Y6615D01*
X-5563Y2651D02*
X-5259D01*
X-5411Y1828D02*
X-5079D01*
X2033Y-4067D02*
X2037Y-4063D01*
X-6515Y-6251D02*
X-6513Y-6248D01*
X-6004Y-5956D02*
X-5967Y-5994D01*
X-5788D02*
X-5779Y-6002D01*
X-5967Y-5994D02*
X-5788D01*
X-5779Y-6002D02*
X-5353D01*
X-5251Y-8874D02*
X-4927Y-8690D01*
X-5426Y-8571D02*
X-5095Y-8381D01*
X-5251Y-8874D02*
X-5039Y-9233D01*
X-5654Y-8200D02*
X-5426Y-8571D01*
X-4388Y-7806D02*
X-4366Y-7783D01*
X-3988D02*
X-3977Y-7772D01*
X3579Y5457D02*
X3583Y5453D01*
X3579Y5457D02*
Y5965D01*
X3575Y5969D02*
X3579Y5965D01*
X2429Y6216D02*
X2429Y6216D01*
Y5946D02*
X2430Y5946D01*
X-611Y-9517D02*
Y-8827D01*
X-612Y-8827D02*
X-611Y-8827D01*
Y-9517D02*
X-610Y-9518D01*
X-3891Y-9241D02*
X-3778D01*
X-3631Y-9094D02*
X-3562D01*
X-3551Y-9083D01*
X-3049Y-9166D02*
Y-9161D01*
X-2846Y-8958D01*
X4938Y6050D02*
X4978Y6090D01*
X4892Y-2179D02*
X4895Y-2182D01*
Y-2563D02*
Y-2182D01*
Y-2563D02*
X4898Y-2566D01*
X-414Y-7784D02*
X-413Y-7785D01*
X-92Y-3434D02*
Y-2892D01*
X-173Y-3546D02*
Y-3515D01*
X-92Y-3434D01*
X-212Y-3973D02*
X-211Y-3972D01*
Y-3583D01*
X-173Y-3546D01*
X228Y-7904D02*
X1897D01*
X182Y-7857D02*
X228Y-7904D01*
X1897D02*
X2390Y-8397D01*
Y-8486D02*
Y-8397D01*
X-391Y-5687D02*
Y-4977D01*
X-374Y-4961D01*
X-409Y-5705D02*
X-391Y-5687D01*
X182Y-5705D02*
Y-5187D01*
X314Y-5055D01*
X1045D01*
X379Y-4449D02*
Y-3973D01*
X492Y-4563D02*
X1065D01*
X379Y-4449D02*
X492Y-4563D01*
X6359Y3337D02*
X6387Y3308D01*
X4759Y3577D02*
X4764Y3573D01*
X4755Y3933D02*
X4759Y3928D01*
X2400Y2294D02*
X2400Y2294D01*
Y2034D02*
Y2294D01*
Y2034D02*
X2400Y2034D01*
X1181Y-374D02*
X1318Y-511D01*
X984Y-374D02*
X1181D01*
X-1380Y-455D02*
X-1250Y-325D01*
X-1721Y4271D02*
Y4675D01*
X-1345Y4649D02*
X-979D01*
X-1370Y4272D02*
X-954D01*
X-1241Y3874D02*
Y4141D01*
X-1371Y4271D02*
X-1241Y4141D01*
X-2157Y4236D02*
Y4452D01*
X-2805Y1584D02*
Y2647D01*
X-2333Y2175D01*
X-2884Y2726D02*
X-2805Y2647D01*
X-2333Y1584D02*
Y2175D01*
X-5570Y3027D02*
X-5258D01*
X-5259Y2651D02*
X-5252Y2645D01*
X-5555Y2680D02*
X-5549Y2673D01*
X-5079Y1828D02*
X-5077Y1830D01*
X-5397Y1851D02*
X-5397Y1851D01*
X-5066Y2229D02*
X-5059Y2236D01*
X-5400Y2229D02*
X-5066D01*
X-5393Y2245D02*
X-5386Y2252D01*
X-3593Y3435D02*
Y3868D01*
Y3435D02*
X-3435Y3277D01*
Y3868D01*
Y3277D02*
X-2884Y2726D01*
X-2807Y7497D02*
Y9111D01*
X-2817Y9121D02*
X-2807Y9111D01*
X-2363Y6501D02*
Y6984D01*
X-2362Y6985D01*
X-2296D01*
X-2779Y6501D02*
Y6984D01*
X-2780Y6985D02*
X-2779Y6984D01*
X-2807Y6985D02*
X-2780D01*
X-4026Y2490D02*
X-3120D01*
X-2884Y2726D01*
D147*
X-1669Y-9290D02*
G03*
X-1692Y-9239I-146J-33D01*
G01*
X-4128Y-7176D02*
G03*
X-4121Y-7168I-107J106D01*
G01*
X-4269Y-7281D02*
G03*
X-4193Y-7240I-29J147D01*
G01*
X-4298Y-7287D02*
G03*
X-4306Y-7289I29J-147D01*
G01*
X-8020Y2087D02*
X-7660Y2095D01*
X-7626Y-1727D02*
X-7353Y-1453D01*
Y2994D01*
X-8285Y1580D02*
X-7924Y1587D01*
X-8529Y1125D02*
X-8168Y1133D01*
X-7626Y-1793D02*
Y-1727D01*
X-3572Y6042D02*
X-3209D01*
X-3971D02*
X-3572D01*
X-3166Y5782D02*
Y6014D01*
Y5782D02*
X-3160Y5776D01*
X-3171Y6020D02*
X-3166Y6014D01*
X-3209Y6042D02*
X-3187Y6020D01*
X-1343Y8102D02*
X-1174Y8270D01*
X-1352Y8102D02*
X-1343D01*
X-1174Y8270D02*
Y9225D01*
X-1140Y9259D01*
X-4258Y8373D02*
X-4254Y8369D01*
Y8156D02*
Y8369D01*
X-4230Y8119D02*
Y8132D01*
X-4488Y8373D02*
X-4258D01*
X-4254Y8156D02*
X-4230Y8132D01*
X-4494Y8380D02*
X-4488Y8373D01*
X-4494Y8380D02*
Y9259D01*
X1259Y-7462D02*
X1261Y-7461D01*
Y-6909D02*
X1262Y-6907D01*
X1261Y-7461D02*
Y-6909D01*
X6255Y-1420D02*
Y-842D01*
X6252Y-1423D02*
X6255Y-1420D01*
Y-842D02*
X6258Y-839D01*
X4459Y699D02*
Y702D01*
X4459Y703D02*
X4722D01*
X4726Y707D01*
X4459Y702D02*
X4459Y703D01*
X1535Y-4067D02*
X2033D01*
X6217Y1777D02*
X6815D01*
X5939Y528D02*
X6538D01*
X6539Y529D01*
X5939Y527D02*
X5939Y528D01*
X8899Y-2457D02*
Y-1838D01*
X8904Y-1834D01*
X8896Y-2461D02*
X8899Y-2457D01*
X7507Y-6407D02*
X7661Y-6254D01*
Y-6136D01*
X7507Y-6439D02*
Y-6407D01*
X7661Y-6136D02*
X7670Y-6127D01*
X7175Y-6264D02*
X7204D01*
X6436Y-5463D02*
Y-5450D01*
X-2987Y4852D02*
X-2985D01*
X-3187Y5052D02*
X-2987Y4852D01*
X-3411Y-6754D02*
X-3338Y-6716D01*
X-3018Y-6566D01*
X-1669Y-9290D02*
X-1635Y-9442D01*
X-1692Y-9239D02*
X-1692Y-9239D01*
X-1711Y-9210D02*
X-1692Y-9239D01*
X-4128Y-7172D02*
X-4121Y-7168D01*
X-4325Y-7295D02*
X-4323Y-7293D01*
X-4128Y-7172D02*
X-4059Y-7128D01*
X-4193Y-7240D02*
X-4128Y-7176D01*
X-4323Y-7293D02*
X-4306Y-7289D01*
X-4298Y-7287D02*
X-4269Y-7281D01*
X-4551Y-7301D02*
X-4545Y-7295D01*
X-4551Y-7334D02*
Y-7301D01*
X-4545Y-7295D02*
X-4325D01*
X-4683Y-7295D02*
X-4551Y-7334D01*
X-3268Y636D02*
X-2995D01*
X-3303Y-8D02*
X-2923D01*
X4580Y171D02*
X4583Y173D01*
X4718Y311D02*
Y388D01*
X4581Y175D02*
X4718Y311D01*
Y388D02*
X4727Y397D01*
X-2352Y721D02*
X-2225Y594D01*
X-2352Y721D02*
Y803D01*
X-2361Y812D02*
X-2352Y803D01*
X5029Y6860D02*
X5086Y6783D01*
X4889Y7102D02*
X5029Y6860D01*
X5744Y6303D02*
X5805Y6197D01*
X5613Y6529D02*
X5744Y6303D01*
X4638Y5895D02*
X4848Y6016D01*
X4938Y6050D01*
X-2069Y-9422D02*
X-1925Y-9650D01*
X-8796Y-3795D02*
X-8731Y-3744D01*
X-8992Y-3908D02*
X-8796Y-3795D01*
X-8764Y-4335D02*
X-8538Y-4205D01*
X-8460Y-4176D01*
X-6126Y-3505D02*
X-5745Y-3285D01*
X-6515Y-6251D02*
Y-6146D01*
X-6654Y-6007D02*
X-6515Y-6146D01*
X-6654Y-6007D02*
Y-5964D01*
X-6663Y-5955D02*
X-6654Y-5964D01*
X-3566Y5310D02*
X-3541Y5285D01*
X-3197Y5052D02*
X-3187D01*
X-3431Y5285D02*
X-3197Y5052D01*
X-3541Y5285D02*
X-3431D01*
X-1443Y983D02*
X-1371Y911D01*
X-1446Y987D02*
X-1443Y983D01*
X-7673Y-1746D02*
X-7626Y-1793D01*
X-7739Y-1746D02*
X-7673D01*
X-9194Y-1732D02*
X-9184Y-1742D01*
X-9204Y-1722D02*
X-9194Y-1732D01*
X-7743Y-1742D02*
X-7739Y-1746D01*
X-9184Y-1742D02*
X-7743D01*
X-3971Y6042D02*
X-3971Y6042D01*
X-4369D02*
X-3971D01*
X-4652Y6046D02*
X-4650Y6044D01*
X-4371D02*
X-4369Y6042D01*
X-4650Y6044D02*
X-4371D01*
X-4686Y5289D02*
X-4676Y5300D01*
X-4379D02*
X-4369Y5310D01*
X-4676Y5300D02*
X-4379D01*
X6600Y8196D02*
X6651Y8146D01*
X6559Y8270D02*
X6600Y8229D01*
X6651Y8133D02*
Y8146D01*
X6600Y8196D02*
Y8229D01*
X4582Y-257D02*
Y-46D01*
X4579Y-43D02*
X4580Y-42D01*
Y171D01*
X4579Y-43D02*
X4582Y-46D01*
X-4268Y4537D02*
Y4557D01*
X-4259Y4566D01*
X-3925D01*
X-4303Y4250D02*
Y4502D01*
X-4268Y4537D01*
X-3925Y4566D02*
X-3916Y4575D01*
X-1446Y987D02*
Y1259D01*
X-1450Y1263D02*
Y1289D01*
Y1263D02*
X-1446Y1259D01*
X-9712Y-1722D02*
X-9204D01*
X-9871Y-1563D02*
X-9712Y-1722D01*
X587Y-7170D02*
Y-6923D01*
X510Y-7247D02*
X587Y-7170D01*
X510Y-7262D02*
Y-7247D01*
X1985Y-6873D02*
X2025Y-6913D01*
Y-7102D02*
Y-6913D01*
Y-7102D02*
X2056Y-7132D01*
Y-7147D02*
Y-7132D01*
X937Y-6923D02*
X1187D01*
X-5979Y-7636D02*
X-5829Y-7897D01*
X-5818Y-7243D02*
X-5457Y-7026D01*
X-5215Y-6927D01*
X-4483Y3449D02*
X-4436D01*
X-4585Y3551D02*
X-4483Y3449D01*
X-4600Y3551D02*
X-4585D01*
X-4614Y3565D02*
X-4600Y3551D01*
X-3187Y6020D02*
X-3171D01*
X982Y-2621D02*
X1234D01*
X7670Y-6127D02*
X7856Y-5680D01*
X912Y-5909D02*
X1592D01*
X1598Y-5903D01*
X379Y-5929D02*
Y-5705D01*
Y-5929D02*
X380Y-5930D01*
X485D01*
X556Y-6001D01*
X571D01*
X-4366Y-7783D02*
X-3988D01*
X3143Y6673D02*
X3162Y6692D01*
X3143Y6433D02*
Y6673D01*
X3000Y6290D02*
X3143Y6433D01*
X3000Y6274D02*
Y6290D01*
X2429Y5946D02*
Y6216D01*
X2078Y6216D02*
X2079Y6216D01*
X2078Y5966D02*
Y6216D01*
X2078Y5965D02*
X2078Y5966D01*
X2080Y5455D02*
X2083Y5453D01*
X2080Y5455D02*
Y5963D01*
X2078Y5965D02*
X2080Y5963D01*
X3418Y7558D02*
Y8455D01*
X3210Y8662D02*
X3418Y8455D01*
X3210Y8662D02*
Y8724D01*
X2615Y8132D02*
Y8526D01*
X2502Y8639D02*
X2615Y8526D01*
X2502Y8639D02*
Y8724D01*
X2965Y8132D02*
X3009Y8088D01*
Y7975D02*
Y8088D01*
Y7975D02*
X3082Y7901D01*
Y7881D02*
Y7901D01*
X3133Y7587D02*
X3162Y7558D01*
X3133Y7587D02*
Y7809D01*
X3082Y7860D02*
X3133Y7809D01*
X3082Y7860D02*
Y7881D01*
X-3778Y-9241D02*
X-3631Y-9094D01*
X-2706Y-7146D02*
Y-6903D01*
X6559Y8270D02*
Y8350D01*
X6544Y8365D02*
X6559Y8350D01*
X4584Y-509D02*
Y-260D01*
Y-509D02*
X4867Y-792D01*
X4872D01*
X4582Y-257D02*
X4584Y-260D01*
X1951Y-6907D02*
X1985Y-6873D01*
X885Y-7462D02*
Y-7382D01*
X837Y-7334D02*
X885Y-7382D01*
X597Y-7334D02*
X837D01*
X525Y-7262D02*
X597Y-7334D01*
X510Y-7262D02*
X525D01*
X586Y-6924D02*
X587Y-6923D01*
X2390Y-7462D02*
Y-7374D01*
X2175Y-7158D02*
X2390Y-7374D01*
X2066Y-7158D02*
X2175D01*
X2056Y-7147D02*
X2066Y-7158D01*
X4759Y3577D02*
Y3928D01*
X4195Y3580D02*
Y3957D01*
X-1236Y456D02*
X-1185D01*
X-1371Y591D02*
X-1236Y456D01*
X-1371Y591D02*
Y911D01*
X-4716Y3565D02*
X-4614D01*
X-5327Y4344D02*
X-4735D01*
X-4716Y4325D01*
Y3915D02*
Y4325D01*
X-3968Y5310D02*
X-3566D01*
X-4369D02*
X-3968D01*
X-4369Y5310D02*
X-4369Y5310D01*
D148*
X-4262Y-6154D02*
G03*
X-4285Y-6210I57J-56D01*
G01*
X-3992Y-5934D02*
G03*
X-4121Y-6012I100J-310D01*
G01*
D02*
G03*
X-4121Y-6013I229J-232D01*
G01*
X-3992Y-5934D02*
G03*
X-3973Y-5923I-15J46D01*
G01*
X-4285Y-6669D02*
G03*
X-4187Y-6906I336J0D01*
G01*
X6074Y7692D02*
G03*
X6054Y7609I56J-57D01*
G01*
X6488Y6724D02*
G03*
X6444Y6759I-68J-42D01*
G01*
X6306Y6803D02*
G03*
X6256Y6803I-25J-76D01*
G01*
X-4516Y-4008D02*
G03*
X-4492Y-3897I-44J67D01*
G01*
X-3162Y4677D02*
Y4677D01*
Y4677D02*
X-2966Y4481D01*
Y3871D02*
X-2963Y3868D01*
X-4323Y-5228D02*
X-3601Y-4506D01*
X-3590Y-4516D02*
X-3247D01*
X-3601Y-4506D02*
X-3599D01*
X-3590Y-4516D01*
X-3247D02*
X-3237Y-4506D01*
X-4262Y-6154D02*
X-4121Y-6013D01*
X-4285Y-6669D02*
Y-6210D01*
X-2333Y1132D02*
X-2184Y983D01*
X-2333Y1132D02*
Y1584D01*
X-3731Y-5092D02*
Y-5027D01*
X-3753Y-5005D02*
X-3731Y-5027D01*
Y-5092D02*
X-3541Y-5281D01*
Y-5351D02*
Y-5281D01*
X-4008Y-5752D02*
X-3607Y-5351D01*
X-3541D01*
X-4071Y-5752D02*
X-4008D01*
X-4323Y-5388D02*
Y-5228D01*
X-4966Y-6031D02*
X-4323Y-5388D01*
X-4656Y3270D02*
X-4362D01*
X-4356Y3277D02*
X-4026D01*
X-4669Y3283D02*
X-4656Y3270D01*
X-4362D02*
X-4356Y3277D01*
X-4556Y2929D02*
X-4496D01*
X-4579Y2907D02*
X-4556Y2929D01*
X-4496D02*
X-4449Y2976D01*
X-4702Y1281D02*
X-4605D01*
X-4732Y1536D02*
X-4724D01*
X-4246Y2014D01*
X-5047Y-6031D02*
X-4966D01*
X-4246Y2014D02*
X-4029D01*
X-4026Y2017D01*
X-4727Y1830D02*
X-4680Y1877D01*
Y1920D01*
X-4268Y2332D02*
X-4026D01*
X-4680Y1920D02*
X-4268Y2332D01*
X-4111Y1860D02*
X-4026D01*
X-4124Y1846D02*
X-4111Y1860D01*
X-4124Y1762D02*
Y1846D01*
X-4605Y1281D02*
X-4124Y1762D01*
X-3870Y4131D02*
X-3750Y4011D01*
X-3936Y4131D02*
X-3870D01*
X-3958Y4153D02*
X-3936Y4131D01*
X6074Y7692D02*
X6348Y7958D01*
X6074Y7692D02*
X6074Y7692D01*
X6054Y7609D02*
X6054Y7609D01*
X6140Y7354D01*
X5597Y7078D02*
X6140Y7354D01*
X5835Y6657D02*
X6256Y6803D01*
X5597Y7078D02*
X5835Y6657D01*
X6488Y6724D02*
X6488Y6724D01*
X6306Y6803D02*
X6306Y6803D01*
X6444Y6759D01*
X6488Y6724D02*
X6760Y6280D01*
X-5489Y-3728D02*
X-4884Y-3292D01*
X-5105Y-4393D02*
X-4516Y-4008D01*
X-4884Y-3292D02*
X-4492Y-3897D01*
X6209Y5013D02*
Y5261D01*
X6160Y5310D02*
X6209Y5261D01*
X6160Y5310D02*
Y5326D01*
X-5261Y-6212D02*
X-5228D01*
X-5047Y-6031D01*
X-413Y-9518D02*
Y-8839D01*
X-20Y-8445D02*
Y-7785D01*
Y-7116D01*
X-413Y-8839D02*
X-20Y-8445D01*
Y-7116D02*
X110Y-6987D01*
X-3474Y-8502D02*
X-3473D01*
X-3659Y-8686D02*
X-3474Y-8502D01*
X-3659Y-8788D02*
Y-8686D01*
X-3677Y-8807D02*
X-3659Y-8788D01*
X-2320Y4076D02*
X-2160Y4236D01*
X-2320Y3881D02*
Y4076D01*
X-4029Y2965D02*
X-4026Y2962D01*
X-4449Y2976D02*
X-4208D01*
X-4198Y2965D02*
X-4029D01*
X-4208Y2976D02*
X-4198Y2965D01*
X-3750Y3868D02*
Y4011D01*
X-1174Y3666D02*
X-709D01*
X-1328Y3512D02*
X-1174Y3666D01*
X-1328Y3473D02*
Y3512D01*
X-709Y3666D02*
X-496Y3879D01*
X-1734Y3275D02*
X-1720Y3288D01*
X-1513D01*
X-1328Y3473D01*
D149*
X6074Y7692D02*
D03*
D150*
X7693Y0D02*
D03*
X7693Y787D02*
D03*
X7693Y-787D02*
D03*
X7693Y984D02*
D03*
X7693Y197D02*
D03*
X7693Y394D02*
D03*
X7693Y591D02*
D03*
X7693Y-591D02*
D03*
Y-394D02*
D03*
Y-197D02*
D03*
X7693Y-1181D02*
D03*
Y-984D02*
D03*
X7024Y886D02*
D03*
Y1083D02*
D03*
X7024Y98D02*
D03*
X7024Y689D02*
D03*
Y492D02*
D03*
X7024Y295D02*
D03*
Y-98D02*
D03*
X7024Y-295D02*
D03*
Y-492D02*
D03*
X7024Y-689D02*
D03*
X7024Y-1083D02*
D03*
X7024Y-886D02*
D03*
D151*
X-2817Y9121D02*
D03*
D152*
X-4494Y9259D02*
D03*
X-1140D02*
D03*
D153*
X4163Y1447D02*
D03*
D154*
X5805Y6197D02*
D03*
D155*
X-8210Y4411D02*
D03*
D156*
X-8394Y4091D02*
D03*
X-8582Y4199D02*
D03*
X-8207Y3983D02*
D03*
X-8213Y4838D02*
D03*
X-7837Y4622D02*
D03*
X-8025Y4730D02*
D03*
X-8210Y4411D02*
D03*
D157*
X-7783Y4164D02*
D03*
X-8636Y4657D02*
D03*
D158*
X1437Y79D02*
D03*
X-6634D02*
D03*
Y7244D02*
D03*
X1437D02*
D03*
D159*
X984Y-374D02*
D03*
X-6181D02*
D03*
Y7697D02*
D03*
X984D02*
D03*
D160*
X1437Y2185D02*
D03*
X-6634Y2185D02*
D03*
X-6634Y5138D02*
D03*
X1437Y5138D02*
D03*
D161*
X-1122Y-374D02*
D03*
X-4075Y-374D02*
D03*
X-4075Y7697D02*
D03*
X-1122Y7697D02*
D03*
D162*
X-9194Y-1732D02*
D03*
X-9842Y-2106D02*
D03*
X-9124Y-2601D02*
D03*
D163*
X8959Y-3770D02*
D03*
X8526Y-3520D02*
D03*
X8093Y-3270D02*
D03*
X7660Y-3020D02*
D03*
X7856Y-5680D02*
D03*
X7423Y-5430D02*
D03*
X6990Y-5180D02*
D03*
X6557Y-4930D02*
D03*
D164*
X379Y-3973D02*
D03*
X182D02*
D03*
X-15D02*
D03*
X-212D02*
D03*
X-409D02*
D03*
X379Y-5705D02*
D03*
X182D02*
D03*
X-15D02*
D03*
X-212D02*
D03*
X-409D02*
D03*
X177Y-7785D02*
D03*
X-20D02*
D03*
X-217D02*
D03*
X-413D02*
D03*
X-610Y-7785D02*
D03*
X177Y-9518D02*
D03*
X-20D02*
D03*
X-217D02*
D03*
X-413D02*
D03*
X-610D02*
D03*
D165*
X-5512Y-1457D02*
D03*
X-3620Y-4525D02*
D03*
X-3541Y-5351D02*
D03*
X4403Y5160D02*
D03*
X-1862Y-7345D02*
D03*
X-1902Y-6539D02*
D03*
X6637Y-7103D02*
D03*
X2362Y1230D02*
D03*
X-6634Y-2984D02*
D03*
X-7626Y-1793D02*
D03*
X-7120Y-2391D02*
D03*
D166*
X-5489Y-3728D02*
D03*
X-5617Y-3506D02*
D03*
X-5105Y-4393D02*
D03*
X-5233Y-4171D02*
D03*
X-5361Y-3949D02*
D03*
X-5745Y-3285D02*
D03*
X-4977Y-4614D02*
D03*
X-7484Y-4879D02*
D03*
X-7611Y-4658D02*
D03*
X-7100Y-5544D02*
D03*
X-7228Y-5323D02*
D03*
X-7739Y-4436D02*
D03*
X-7356Y-5101D02*
D03*
X-6972Y-5766D02*
D03*
D167*
X-5261Y-6212D02*
D03*
X-5163Y-6382D02*
D03*
X-5064Y-6552D02*
D03*
X-4966Y-6723D02*
D03*
X-4170Y-5582D02*
D03*
X-4071Y-5752D02*
D03*
X-3973Y-5923D02*
D03*
X-3875Y-6093D02*
D03*
D168*
X-3931Y-7349D02*
D03*
X-3539Y-6532D02*
D03*
X-4187Y-6906D02*
D03*
X-4059Y-7128D02*
D03*
X-3411Y-6754D02*
D03*
X-3283Y-6975D02*
D03*
D169*
X-2220Y-8233D02*
D03*
X-2318Y-8062D02*
D03*
X-3572Y-8331D02*
D03*
X-3473Y-8502D02*
D03*
X-3375Y-8672D02*
D03*
X-3277Y-8843D02*
D03*
X-2416Y-7892D02*
D03*
X-2515Y-7721D02*
D03*
D170*
X-2846Y-8958D02*
D03*
X-2676Y-8860D02*
D03*
X-2505Y-8761D02*
D03*
X-2335Y-8663D02*
D03*
X-2945Y-7606D02*
D03*
X-3116Y-7704D02*
D03*
X-3286Y-7803D02*
D03*
X-3457Y-7901D02*
D03*
D171*
X-9305Y2812D02*
D03*
X-8742Y2487D02*
D03*
X-9842Y1880D02*
D03*
X-9280Y1555D02*
D03*
X-9574Y2327D02*
D03*
X-9011Y2003D02*
D03*
D172*
X6027Y4068D02*
D03*
X6391Y5013D02*
D03*
X6027D02*
D03*
X6391Y4068D02*
D03*
X5549Y4236D02*
D03*
Y4846D02*
D03*
X6195Y4541D02*
D03*
D173*
X6209Y5013D02*
D03*
X6209Y4068D02*
D03*
D174*
X2390Y-7462D02*
D03*
X2764Y-7462D02*
D03*
X3138D02*
D03*
X2390Y-8486D02*
D03*
X3138D02*
D03*
X885Y-7462D02*
D03*
X1259Y-7462D02*
D03*
X1634Y-7462D02*
D03*
X885Y-8486D02*
D03*
X1634D02*
D03*
D175*
X3633Y-236D02*
D03*
X3133D02*
D03*
X2633D02*
D03*
X2133D02*
D03*
X3633Y-2362D02*
D03*
X3133D02*
D03*
X2633D02*
D03*
X2133D02*
D03*
D176*
X2906Y6692D02*
D03*
X3162Y6692D02*
D03*
X3418Y6692D02*
D03*
Y7558D02*
D03*
X3162Y7558D02*
D03*
X2906Y7558D02*
D03*
D177*
X2083Y3248D02*
D03*
X2583D02*
D03*
X3083Y3248D02*
D03*
X3583Y3248D02*
D03*
X2083Y5453D02*
D03*
X2583Y5453D02*
D03*
X3083Y5453D02*
D03*
X3583D02*
D03*
D178*
X6214Y1777D02*
D03*
X6543D02*
D03*
X6210Y529D02*
D03*
X6539Y529D02*
D03*
D179*
X6252Y-1423D02*
D03*
X6252Y-1095D02*
D03*
X8896Y-2132D02*
D03*
Y-2461D02*
D03*
D180*
X7264Y2927D02*
D03*
X9193Y2927D02*
D03*
D181*
X-7897Y-3852D02*
D03*
X-8460Y-4176D02*
D03*
X-8966Y-3275D02*
D03*
X-8404Y-2950D02*
D03*
X-8731Y-3744D02*
D03*
X-8168Y-3419D02*
D03*
D182*
X-965Y-946D02*
D03*
Y-1202D02*
D03*
X-965Y-1458D02*
D03*
Y-1714D02*
D03*
X1318Y-946D02*
D03*
X1318Y-1202D02*
D03*
Y-1458D02*
D03*
Y-1714D02*
D03*
D183*
X2037Y-4063D02*
D03*
Y-4563D02*
D03*
X2037Y-5063D02*
D03*
X2037Y-5563D02*
D03*
X4242Y-4063D02*
D03*
X4242Y-4563D02*
D03*
X4242Y-5063D02*
D03*
Y-5563D02*
D03*
D184*
X-2296Y7497D02*
D03*
Y7241D02*
D03*
Y6985D02*
D03*
X-2807D02*
D03*
Y7241D02*
D03*
Y7497D02*
D03*
D185*
X-1742Y1860D02*
D03*
Y2017D02*
D03*
Y2175D02*
D03*
Y2332D02*
D03*
Y2490D02*
D03*
Y2647D02*
D03*
Y2805D02*
D03*
Y2962D02*
D03*
Y3120D02*
D03*
Y3277D02*
D03*
Y3435D02*
D03*
Y3592D02*
D03*
X-4026D02*
D03*
Y3435D02*
D03*
Y3277D02*
D03*
Y3120D02*
D03*
Y2962D02*
D03*
Y2805D02*
D03*
Y2647D02*
D03*
Y2490D02*
D03*
Y2332D02*
D03*
Y2175D02*
D03*
Y2017D02*
D03*
Y1860D02*
D03*
D186*
X-2018Y3868D02*
D03*
X-2176D02*
D03*
X-2333D02*
D03*
X-2491D02*
D03*
X-2648D02*
D03*
X-2805D02*
D03*
X-2963D02*
D03*
X-3120D02*
D03*
X-3278D02*
D03*
X-3435D02*
D03*
X-3593D02*
D03*
X-3750D02*
D03*
Y1584D02*
D03*
X-3593D02*
D03*
X-3435D02*
D03*
X-3278D02*
D03*
X-3120D02*
D03*
X-2963D02*
D03*
X-2805D02*
D03*
X-2648D02*
D03*
X-2491D02*
D03*
X-2333D02*
D03*
X-2176D02*
D03*
X-2018D02*
D03*
D187*
X-2884Y2726D02*
D03*
D188*
X-9842Y1880D02*
X-9582Y2332D01*
X-10033Y1662D02*
X-9842Y1880D01*
X-10224Y1444D02*
X-10033Y1662D01*
X-9582Y2332D02*
X-9305Y2812D01*
D189*
X-9263Y1545D02*
X-8839Y1297D01*
X-8742Y2487D02*
X-8319Y2239D01*
X-9011Y2003D02*
X-8588Y1755D01*
X-591Y391D02*
Y957D01*
Y391D02*
X-589Y390D01*
X-592Y959D02*
X-591Y957D01*
X-574Y2246D02*
X-554Y2266D01*
X-332D02*
X-173Y2425D01*
X-554Y2626D02*
X-374D01*
X-554Y2266D02*
X-332D01*
X-574Y2646D02*
X-554Y2626D01*
X-374D02*
X-173Y2425D01*
X-1113Y1003D02*
Y1196D01*
X-1185Y1268D02*
Y1278D01*
X-1113Y1003D02*
X-1093Y983D01*
X-1185Y1268D02*
X-1113Y1196D01*
X-589Y330D02*
Y390D01*
X-724Y195D02*
X-589Y330D01*
X-745Y195D02*
X-724D01*
X-496Y4229D02*
X-176D01*
X-891Y3874D02*
X-555Y4209D01*
X-516D01*
X-496Y4229D01*
X237Y3751D02*
X252Y3736D01*
Y3492D02*
Y3736D01*
Y3492D02*
X255Y3489D01*
X174Y2069D02*
X192Y2087D01*
Y2326D01*
X195Y2330D01*
X-571Y1857D02*
X-562Y1848D01*
Y1547D02*
Y1848D01*
Y1547D02*
X-559Y1543D01*
X-2141Y4865D02*
Y5138D01*
X-2122Y5157D01*
Y5162D01*
X-1114Y3022D02*
X-755D01*
X-391Y3007D02*
Y3387D01*
X-1129Y3388D02*
X-743D01*
D190*
X5859Y-1423D02*
Y-1095D01*
X6210Y332D02*
X6539D01*
X6214Y1383D02*
X6543D01*
X6214Y1580D02*
X6543D01*
X6210Y726D02*
X6539D01*
X6210Y923D02*
X6539D01*
X8502Y-2461D02*
Y-2132D01*
X8699Y-2461D02*
Y-2132D01*
X9092Y-2392D02*
Y-2201D01*
X9286Y-2458D02*
Y-2135D01*
D191*
X-2220Y-820D02*
X-1967D01*
X-2220Y-820D02*
X-2220Y-820D01*
X-2355Y812D02*
X-2184Y983D01*
X-2361Y812D02*
X-2355D01*
X-2923Y-8D02*
X-2860Y55D01*
X-2952Y-1892D02*
X-2167D01*
X-2166Y-1893D01*
X-2989Y-1855D02*
X-2952Y-1892D01*
X-2166Y-1893D02*
X-1738D01*
X-1720Y-1875D01*
Y-1642D01*
X-1967Y-820D02*
X-1967Y-820D01*
X-1729Y-1633D02*
X-1720Y-1642D01*
D192*
X-2363Y6151D02*
X-2363Y6151D01*
X-2611Y4970D02*
Y6128D01*
X-2648Y4011D02*
X-2609Y4050D01*
X-2531Y5003D02*
Y6128D01*
X-2609Y4050D02*
Y4969D01*
X-2491Y3868D02*
Y4011D01*
X-2531Y6128D02*
X-2507Y6151D01*
X-2634D02*
X-2611Y6128D01*
X-2779Y6151D02*
X-2634D01*
X-2529Y4050D02*
X-2491Y4011D01*
X-2529Y4050D02*
Y5002D01*
X-2531Y5003D02*
X-2529Y5002D01*
X-2507Y6151D02*
X-2363D01*
X-2611Y4970D02*
X-2609Y4969D01*
X-2648Y3868D02*
Y4011D01*
D193*
X4403Y7010D02*
X4548Y6766D01*
X2133Y-2842D02*
Y-2362D01*
D194*
X638Y-9918D02*
X769D01*
X704D01*
Y-9524D01*
X638Y-9590D01*
D195*
X7283Y1417D02*
D03*
D196*
X7776Y-1626D02*
D03*
Y1626D02*
D03*
X10118Y1768D02*
D03*
Y-1768D02*
D03*
D197*
X7283Y-1417D02*
D03*
D198*
X507Y8920D02*
D03*
D199*
X-2552Y-4125D02*
D03*
Y-5125D02*
D03*
Y-3125D02*
D03*
X-1552Y-4125D02*
D03*
Y-3125D02*
D03*
D200*
X-1552Y-5125D02*
D03*
D201*
X3210Y8724D02*
D03*
X2502D02*
D03*
X2203Y7506D02*
D03*
X2203Y6798D02*
D03*
D202*
X4924Y8524D02*
D03*
X-9843Y0D02*
D03*
X4921Y-8524D02*
D03*
D203*
X-10059Y1634D02*
D03*
X-10224Y1444D02*
D03*
X-7660Y2095D02*
D03*
X-7924Y1587D02*
D03*
X-8168Y1133D02*
D03*
X-4529Y-9536D02*
D03*
X9309Y427D02*
D03*
X7374Y420D02*
D03*
Y-157D02*
D03*
Y-1093D02*
D03*
X7375Y-421D02*
D03*
X7374Y100D02*
D03*
Y-695D02*
D03*
X8386Y28D02*
D03*
Y-232D02*
D03*
X7351Y986D02*
D03*
X9956Y-300D02*
D03*
Y411D02*
D03*
X1262Y-6907D02*
D03*
X3770Y1447D02*
D03*
X4163Y1841D02*
D03*
Y1053D02*
D03*
X4557Y1447D02*
D03*
X4163Y1447D02*
D03*
X3790Y2645D02*
D03*
X4718Y2475D02*
D03*
X4073Y2552D02*
D03*
X4726Y707D02*
D03*
X4429Y423D02*
D03*
X5888Y-828D02*
D03*
X1531Y-4071D02*
D03*
X5939Y249D02*
D03*
X6054Y-1690D02*
D03*
X6258Y-839D02*
D03*
X8615Y-403D02*
D03*
X8155Y-382D02*
D03*
X6816Y1778D02*
D03*
X5888Y1022D02*
D03*
X5382Y-3883D02*
D03*
X5888Y1282D02*
D03*
X5165Y-4036D02*
D03*
X5939Y527D02*
D03*
X3247Y-2828D02*
D03*
X5039Y-4852D02*
D03*
X5143Y-5781D02*
D03*
X5344Y-4930D02*
D03*
X8436Y-1436D02*
D03*
X8690Y-1202D02*
D03*
X5174Y-5137D02*
D03*
X5184Y-5496D02*
D03*
X8904Y-1834D02*
D03*
X8620Y-917D02*
D03*
X8967Y-1312D02*
D03*
X2018Y-5837D02*
D03*
X6505Y-3066D02*
D03*
X5409Y-4138D02*
D03*
X-2985Y4852D02*
D03*
X-3237Y-4506D02*
D03*
X-3018Y-6566D02*
D03*
X-2552Y-6351D02*
D03*
X-3634Y-5951D02*
D03*
X4600Y-1341D02*
D03*
X1577Y-5567D02*
D03*
X-1180Y-7472D02*
D03*
X-823Y-8118D02*
D03*
X-822Y-7766D02*
D03*
X-1635Y-9442D02*
D03*
X-4323Y-7293D02*
D03*
X-1749Y134D02*
D03*
X-1824Y640D02*
D03*
X-2220Y-820D02*
D03*
X-2791Y-1348D02*
D03*
X-3325Y601D02*
D03*
X-3303Y-8D02*
D03*
X-3187Y-1339D02*
D03*
X3991Y-1049D02*
D03*
X3974Y-456D02*
D03*
X3989Y-51D02*
D03*
X3633Y703D02*
D03*
Y397D02*
D03*
X4727Y397D02*
D03*
X-2361Y812D02*
D03*
X-2710Y999D02*
D03*
X-592Y959D02*
D03*
X-1744Y1586D02*
D03*
X-1424D02*
D03*
X4889Y7102D02*
D03*
X4638Y5895D02*
D03*
X-8992Y-3908D02*
D03*
X-8764Y-4335D02*
D03*
X-7086Y-4515D02*
D03*
X-6126Y-3505D02*
D03*
X-6663Y-5955D02*
D03*
X-5632Y-5388D02*
D03*
X8588Y4977D02*
D03*
X8279D02*
D03*
X-7755Y5998D02*
D03*
X-7041Y4662D02*
D03*
X-7176Y5667D02*
D03*
X-8642Y3939D02*
D03*
X-3882Y998D02*
D03*
X-3832Y738D02*
D03*
X-3632Y939D02*
D03*
X-173Y2425D02*
D03*
X5618Y6089D02*
D03*
X5993Y6305D02*
D03*
X7446Y3868D02*
D03*
X7885Y3120D02*
D03*
X4096Y4853D02*
D03*
X-2095Y-7134D02*
D03*
X-2362Y-6539D02*
D03*
X-3753Y-5005D02*
D03*
X-2058Y-3983D02*
D03*
X-6298Y-2760D02*
D03*
X-6795Y-2098D02*
D03*
X-4652Y6046D02*
D03*
X-4686Y5289D02*
D03*
X4896Y-3775D02*
D03*
X4579Y-43D02*
D03*
X-4268Y4557D02*
D03*
X-4436Y3449D02*
D03*
X-2514Y1238D02*
D03*
X-3324Y1037D02*
D03*
X-487Y-7356D02*
D03*
X-1185Y1278D02*
D03*
X-1450Y1263D02*
D03*
X-4579Y2907D02*
D03*
X-4669Y3283D02*
D03*
X-4702Y1281D02*
D03*
X-4732Y1536D02*
D03*
X6509Y-2633D02*
D03*
X6920Y-3066D02*
D03*
X6710Y-2853D02*
D03*
X6920Y-2692D02*
D03*
X-4141Y-4395D02*
D03*
X-8346Y4489D02*
D03*
X-8073Y4332D02*
D03*
X6284Y3755D02*
D03*
X837Y-822D02*
D03*
X6195Y4541D02*
D03*
X984Y-374D02*
D03*
X1437Y79D02*
D03*
Y2185D02*
D03*
X-1122Y-374D02*
D03*
X-6634Y79D02*
D03*
X-6181Y-374D02*
D03*
X-4075D02*
D03*
X-6634Y2185D02*
D03*
X-6181Y7697D02*
D03*
X-6634Y7244D02*
D03*
Y5138D02*
D03*
X-4075Y7697D02*
D03*
X1437Y7244D02*
D03*
X984Y7697D02*
D03*
X-1122D02*
D03*
X1437Y5138D02*
D03*
X228Y-8907D02*
D03*
X6142Y-5018D02*
D03*
X2764Y-8801D02*
D03*
X3137Y-8846D02*
D03*
X1259Y-8801D02*
D03*
X-4568Y-6152D02*
D03*
X-10237Y-1913D02*
D03*
X-5438Y4894D02*
D03*
X-6112Y4883D02*
D03*
X-3288Y4331D02*
D03*
X-3661Y4265D02*
D03*
X-5147Y-3209D02*
D03*
X-1711Y-1882D02*
D03*
X2133Y-2842D02*
D03*
X1236Y-2619D02*
D03*
X6160Y5326D02*
D03*
X8588Y4576D02*
D03*
X8591Y4231D02*
D03*
X6682Y4482D02*
D03*
X5888Y2789D02*
D03*
X5177Y2805D02*
D03*
Y3195D02*
D03*
X5188Y3512D02*
D03*
X6609Y2793D02*
D03*
X6284Y2799D02*
D03*
X7353Y5638D02*
D03*
X7097Y5634D02*
D03*
X7970Y4977D02*
D03*
X7661D02*
D03*
X8526Y3108D02*
D03*
X8540Y2749D02*
D03*
X7885D02*
D03*
X7016Y7186D02*
D03*
X5578Y5606D02*
D03*
X7670Y-6127D02*
D03*
X6436Y-5450D02*
D03*
X1598Y-5903D02*
D03*
X571Y-6001D02*
D03*
X-4889Y-3808D02*
D03*
X-4884Y-3292D02*
D03*
X-7390Y-6001D02*
D03*
X-7572Y-5657D02*
D03*
X-5979Y-7636D02*
D03*
X-5095Y-8381D02*
D03*
X-4927Y-8690D02*
D03*
X-1892Y-2760D02*
D03*
X-5215Y-6927D02*
D03*
X-5399Y-6551D02*
D03*
X-3977Y-7772D02*
D03*
X-2968Y-8551D02*
D03*
X-2627Y-8354D02*
D03*
X-2824Y-8013D02*
D03*
X-3165Y-8210D02*
D03*
X-2896Y-8282D02*
D03*
X3575Y5969D02*
D03*
X2078Y5965D02*
D03*
X2430Y5946D02*
D03*
X1661Y9062D02*
D03*
X3082Y7881D02*
D03*
X4403Y7010D02*
D03*
X110Y-6987D02*
D03*
X-612Y-8827D02*
D03*
X-3551Y-9083D02*
D03*
X-3861Y-8487D02*
D03*
X-3677Y-8807D02*
D03*
X-3049Y-9166D02*
D03*
X-2706Y-7146D02*
D03*
X-1862Y-8330D02*
D03*
X-1890Y-6890D02*
D03*
X-1925Y-9650D02*
D03*
X3918Y258D02*
D03*
X7055Y5976D02*
D03*
X6544Y8365D02*
D03*
X3624Y-2841D02*
D03*
X4286Y-2584D02*
D03*
X4898Y-2566D02*
D03*
X-834Y-7464D02*
D03*
X-173Y-3546D02*
D03*
X-442Y-3530D02*
D03*
X1634Y-8850D02*
D03*
X510Y-7262D02*
D03*
X2056Y-7147D02*
D03*
X2772Y-6976D02*
D03*
X-374Y-4961D02*
D03*
X5549Y2802D02*
D03*
X4755Y3933D02*
D03*
X4187Y3965D02*
D03*
X3000Y6274D02*
D03*
X2400Y2034D02*
D03*
X1948D02*
D03*
X-1422Y-1194D02*
D03*
X5903Y2339D02*
D03*
X-176Y4229D02*
D03*
X255Y3489D02*
D03*
X195Y2330D02*
D03*
X-559Y1543D02*
D03*
X-4702Y8117D02*
D03*
X-4230Y8119D02*
D03*
X-880Y8104D02*
D03*
X-1352Y8102D02*
D03*
X-2006Y7241D02*
D03*
X-2858Y5603D02*
D03*
X-3171Y6020D02*
D03*
X-3181Y6306D02*
D03*
X-3142Y6768D02*
D03*
X-3157Y7234D02*
D03*
X-3153Y7772D02*
D03*
X-2493Y7797D02*
D03*
X-2074Y6750D02*
D03*
X-2064Y6325D02*
D03*
X-2117Y5855D02*
D03*
X-2126Y5513D02*
D03*
X-2122Y5162D02*
D03*
X-2157Y4236D02*
D03*
X-1852Y1281D02*
D03*
X-5555Y3049D02*
D03*
Y2680D02*
D03*
X-5397Y1851D02*
D03*
X-5403Y2245D02*
D03*
X-4698Y4322D02*
D03*
X-3987Y3826D02*
D03*
X-5258Y6506D02*
D03*
X-5118Y5329D02*
D03*
X-2551Y7241D02*
D03*
X-3958Y4153D02*
D03*
X-3435Y2175D02*
D03*
Y2726D02*
D03*
Y3277D02*
D03*
X-2884D02*
D03*
X-2333D02*
D03*
Y2727D02*
D03*
Y2175D02*
D03*
X-2884D02*
D03*
Y2726D02*
D03*
M02*
