M48
;Layer_Color=9474304
;FILE_FORMAT=2:4
INCH,LZ
;TYPE=PLATED
T1F00S00C0.0079
T2F00S00C0.0098
T5F00S00C0.0276
T6F00S00C0.0400
T7F00S00C0.0630
T8F00S00C0.1299
;TYPE=NON_PLATED
T9F00S00C0.0256
T10F00S00C0.0300
%
T01
X-001635Y-009442
X-001862Y-00833
X-000823Y-008118
X-000822Y-007766
X-000834Y-007464
X-00118Y-007472
X-000487Y-007356
X00011Y-006987
X00051Y-007262
X001262Y-006907
X002056Y-007147
X002772Y-006976
X002764Y-008801
X003137Y-008846
X001634Y-00885
X001259Y-008801
X000228Y-008907
X-000612Y-008827
X-00189Y-00689
X000571Y-006001
X001598Y-005903
X001577Y-005567
X002018Y-005837
X001531Y-004071
X001236Y-002619
X002133Y-002842
X003247Y-002828
X003624Y-002841
X004286Y-002584
X004898Y-002566
X004896Y-003775
X005165Y-004036
X005409Y-004138
X005382Y-003883
X005344Y-00493
X005174Y-005137
X005184Y-005496
X005143Y-005781
X005039Y-004852
X006142Y-005018
X006436Y-00545
X00767Y-006127
X00692Y-003066
Y-002692
X00671Y-002853
X006505Y-003066
X006509Y-002633
X006054Y-00169
X005888Y-000828
X006258Y-000839
X007374Y-000695
X007375Y-000421
X007374Y-000157
Y0001
Y00042
X007351Y000986
X006816Y001778
X006609Y002793
X006284Y002799
X005888Y002789
X005549Y002802
X005177Y002805
Y003195
X005188Y003512
X004755Y003933
X004187Y003965
X004096Y004853
X004073Y002552
X00379Y002645
X004718Y002475
X005903Y002339
X005888Y001282
Y001022
X005939Y000527
Y000249
X004727Y000397
X004726Y000707
X004429Y000423
X004579Y-000043
X003989Y-000051
X003918Y000258
X003633Y000397
Y000703
X003974Y-000456
X003991Y-001049
X0046Y-001341
X007374Y-001093
X008436Y-001436
X00869Y-001202
X00862Y-000917
X008615Y-000403
X008386Y-000232
Y000028
X008155Y-000382
X008967Y-001312
X008904Y-001834
X009956Y-0003
Y000411
X009309Y000427
X00854Y002749
X008526Y003108
X007885Y00312
Y002749
X007446Y003868
X006284Y003755
X006195Y004541
X006682Y004482
X00616Y005326
X007661Y004977
X00797
X008279
X008588
Y004576
X008591Y004231
X001437Y005138
X-000176Y004229
X000255Y003489
X000195Y00233
X-000173Y002425
X-000559Y001543
X-000592Y000959
X-001185Y001278
X-00145Y001263
X-001424Y001586
X-001744
X-001852Y001281
X-001824Y00064
X-001749Y000134
X-001122Y-000374
X-001422Y-001194
X-001711Y-001882
X-001892Y-00276
X-000442Y-00353
X-000173Y-003546
X-000374Y-004961
X000837Y-000822
X000984Y-000374
X001437Y000079
Y002185
X001948Y002034
X0024
X-002514Y001238
X-00271Y000999
X-002361Y000812
X-003325Y000601
X-003324Y001037
X-003632Y000939
X-003882Y000998
X-003832Y000738
X-003303Y-000008
X-004075Y-000374
X-003187Y-001339
X-002791Y-001348
X-00222Y-00082
X-002058Y-003983
X-003237Y-004506
X-003753Y-005005
X-004141Y-004395
X-004889Y-003808
X-004884Y-003292
X-005147Y-003209
X-006126Y-003505
X-006298Y-00276
X-006795Y-002098
X-006634Y000079
X-006181Y-000374
X-005397Y001851
X-005403Y002245
X-005555Y00268
Y003049
X-004579Y002907
X-004669Y003283
X-004436Y003449
X-003987Y003826
X-003958Y004153
X-003661Y004265
X-003288Y004331
X-002985Y004852
X-002122Y005162
X-002157Y004236
X-004268Y004557
X-004698Y004322
X-004686Y005289
X-005118Y005329
X-005438Y004894
X-006112Y004883
X-006634Y005138
X-007041Y004662
X-008642Y003939
X-00766Y002095
X-007924Y001587
X-008168Y001133
X-010224Y001444
X-010059Y001634
X-010237Y-001913
X-008992Y-003908
X-008764Y-004335
X-007086Y-004515
X-007572Y-005657
X-00739Y-006001
X-006663Y-005955
X-005632Y-005388
X-005399Y-006551
X-005215Y-006927
X-004323Y-007293
X-003977Y-007772
X-003861Y-008487
X-003677Y-008807
X-003551Y-009083
X-003049Y-009166
X-002968Y-008551
X-002896Y-008282
X-003165Y-00821
X-002824Y-008013
X-002627Y-008354
X-002706Y-007146
X-002095Y-007134
X-002362Y-006539
X-002552Y-006351
X-003018Y-006566
X-003634Y-005951
X-004568Y-006152
X-005095Y-008381
X-004927Y-00869
X-004529Y-009536
X-001925Y-00965
X-005979Y-007636
X-004702Y001281
X-004732Y001536
X-006634Y002185
X-007176Y005667
X-007755Y005998
X-006634Y007244
X-006181Y007697
X-004702Y008117
X-00423Y008119
X-004075Y007697
X-003153Y007772
X-003157Y007234
X-003142Y006768
X-003181Y006306
X-003171Y00602
X-002858Y005603
X-002126Y005513
X-002117Y005855
X-002064Y006325
X-002074Y00675
X-002006Y007241
X-002551
X-002493Y007797
X-004652Y006046
X-005258Y006506
X-001122Y007697
X-001352Y008102
X-00088Y008104
X000984Y007697
X001437Y007244
X002078Y005965
X00243Y005946
X003Y006274
X003575Y005969
X004638Y005895
X005618Y006089
X005578Y005606
X005993Y006305
X007055Y005976
X007097Y005634
X007353Y005638
X007016Y007186
X006544Y008365
X004889Y007102
X004403Y00701
X003082Y007881
X001661Y009062
T02
X004163Y001053
Y001447
X00377Y001447
X004163Y001841
X004557Y001447
X-002333Y002175
X-002884
X-003435
Y002726
Y003277
X-002884
X-002333
Y002727
X-002884Y002726
X-008073Y004332
X-008346Y004489
T05
X002203Y006798
X002203Y007506
X002502Y008724
X00321
T06
X-001552Y-005125
X-001552Y-004125
Y-003125
X-002552
Y-004125
Y-005125
T07
X000507Y00892
T08
X004921Y-008524
X-009843Y0
X004924Y008524
T09
X007283Y-001417
T10
X010621Y-001
Y-0005
Y0
Y0005
Y001
X-010957Y001378
X-010707Y001811
X-010457Y002244
X-010207Y002677
X-009957Y00311
M30
