G04*
G04 #@! TF.GenerationSoftware,Altium Limited,Altium Designer,20.1.11 (218)*
G04*
G04 Layer_Color=65535*
%FSLAX24Y24*%
%MOIN*%
G70*
G04*
G04 #@! TF.SameCoordinates,6F335AB9-D6ED-48D2-8003-4388AB504266*
G04*
G04*
G04 #@! TF.FilePolarity,Positive*
G04*
G01*
G75*
%ADD10C,0.0098*%
%ADD11C,0.0039*%
%ADD12C,0.0050*%
%ADD13C,0.0236*%
%ADD14C,0.0079*%
%ADD15C,0.0100*%
%ADD16C,0.0070*%
%ADD17C,0.0070*%
%ADD18C,0.0047*%
D10*
X5335Y640D02*
G03*
X5335Y640I-49J0D01*
G01*
X6331Y-4737D02*
G03*
X6331Y-4737I-49J0D01*
G01*
X-1159Y-5830D02*
G03*
X-1159Y-5830I-49J0D01*
G01*
X-635Y-5705D02*
G03*
X-635Y-5705I-49J0D01*
G01*
X-4790Y-4853D02*
G03*
X-4790Y-4853I-49J0D01*
G01*
X-2946Y-7213D02*
G03*
X-2946Y-7213I-49J0D01*
G01*
X-3966Y-8213D02*
G03*
X-3966Y-8213I-49J0D01*
G01*
X-837Y-9518D02*
G03*
X-837Y-9518I-49J0D01*
G01*
X3502Y-7443D02*
G03*
X3502Y-7443I-49J0D01*
G01*
X1998Y-7443D02*
G03*
X1998Y-7443I-49J0D01*
G01*
X4017Y-226D02*
G03*
X4017Y-226I-49J0D01*
G01*
X2719Y6695D02*
G03*
X2719Y6695I-27J0D01*
G01*
X1797Y3278D02*
G03*
X1797Y3278I-49J0D01*
G01*
X1456Y-1950D02*
G03*
X1456Y-1950I-20J0D01*
G01*
X4262Y-5897D02*
G03*
X4262Y-5897I-49J0D01*
G01*
D11*
X5758Y5516D02*
G03*
X5758Y5516I-20J0D01*
G01*
X6754Y1225D02*
G03*
X6754Y1225I-20J0D01*
G01*
X6750Y-23D02*
G03*
X6750Y-23I-20J0D01*
G01*
X6825Y-903D02*
G03*
X6825Y-903I-20J0D01*
G01*
X8363Y-2652D02*
G03*
X8363Y-2652I-20J0D01*
G01*
X-1595Y1712D02*
G03*
X-1595Y1712I-20J0D01*
G01*
X-5179Y7861D02*
Y10223D01*
X-455Y7861D02*
Y10223D01*
X-2847Y6847D02*
X-2256D01*
X-2847Y7635D02*
X-2256D01*
X-1782Y3986D02*
X-1624D01*
Y3828D02*
Y3986D01*
X-4144Y3828D02*
Y3986D01*
X-3987D01*
X-4144Y1466D02*
X-3987D01*
X-4144D02*
Y1623D01*
X-1624Y1466D02*
Y1623D01*
X-1782Y1466D02*
X-1624D01*
D12*
X-8758Y4136D02*
G03*
X-8758Y4136I-20J0D01*
G01*
X1167Y8920D02*
G03*
X1167Y8920I-660J0D01*
G01*
X-3345Y-4525D02*
G03*
X-3345Y-4525I-276J0D01*
G01*
X-3266Y-5351D02*
G03*
X-3266Y-5351I-276J0D01*
G01*
X4679Y5160D02*
G03*
X4679Y5160I-276J0D01*
G01*
X-1586Y-7345D02*
G03*
X-1586Y-7345I-276J0D01*
G01*
X-1626Y-6539D02*
G03*
X-1626Y-6539I-276J0D01*
G01*
X6455Y5178D02*
G03*
X6455Y5178I-20J0D01*
G01*
X-6358Y-2984D02*
G03*
X-6358Y-2984I-276J0D01*
G01*
X-7351Y-1793D02*
G03*
X-7351Y-1793I-276J0D01*
G01*
X-6844Y-2391D02*
G03*
X-6844Y-2391I-276J0D01*
G01*
X6925Y1299D02*
X6925Y1811D01*
X7362D01*
X6925Y-1811D02*
X7362D01*
X6925Y-1299D02*
X6925Y-1811D01*
X8228D02*
X9646D01*
X8228Y1811D02*
X9646D01*
X5048Y867D02*
X5383Y1446D01*
X5338Y699D02*
X5673Y1279D01*
X5048Y867D02*
X5338Y699D01*
X5383Y1446D02*
X5673Y1279D01*
X-3402Y-2152D02*
X-2575D01*
Y-419D01*
X-3402D02*
X-2575D01*
X-3402Y-2152D02*
Y-419D01*
X6362Y6139D02*
X6422Y6035D01*
X6379Y6010D02*
X6422Y6035D01*
X5973Y6812D02*
X6033Y6708D01*
X5930Y6788D02*
X5973Y6812D01*
X5188Y6360D02*
X5248Y6256D01*
X5188Y6360D02*
X5231Y6384D01*
X5577Y5686D02*
X5637Y5582D01*
X5680Y5606D01*
X-7586Y4606D02*
X-7415Y4508D01*
X-7514Y4337D02*
X-7415Y4508D01*
X-8522Y5147D02*
X-8352Y5049D01*
X-8621Y4977D02*
X-8522Y5147D01*
X-9004Y4313D02*
X-8833Y4215D01*
X-9004Y4313D02*
X-8905Y4484D01*
X-8067Y3772D02*
X-7897Y3674D01*
X-7798Y3844D01*
X-4578Y-4890D02*
X-4243D01*
X-4578Y-4220D02*
X-4243D01*
X-4578Y-4890D02*
Y-4220D01*
X-4243Y-4890D02*
Y-4220D01*
X6678Y3822D02*
Y4157D01*
X7348Y3822D02*
Y4157D01*
X6678D02*
X7348D01*
X6678Y3822D02*
X7348D01*
X-8834Y-1843D02*
X-8618Y-2218D01*
X-8903Y-2382D02*
X-8618Y-2218D01*
X-9926Y-2473D02*
X-9709Y-2848D01*
X-9424Y-2683D01*
X-9711Y-1731D02*
Y-1396D01*
X-10380Y-1731D02*
Y-1396D01*
Y-1731D02*
X-9711D01*
X-10380Y-1396D02*
X-9711D01*
X1826Y-6706D02*
X2495D01*
X1826Y-7040D02*
X2495D01*
X1826D02*
Y-6706D01*
X2495Y-7040D02*
Y-6706D01*
X427Y-6756D02*
X1096Y-6756D01*
X427Y-7090D02*
X1096D01*
X427D02*
Y-6756D01*
X1096Y-7090D02*
Y-6756D01*
X1781Y2134D02*
Y2804D01*
X2115Y2134D02*
Y2804D01*
X1781Y2134D02*
X2115D01*
X1781Y2804D02*
X2115D01*
X2232Y2134D02*
Y2804D01*
X2567Y2134D02*
Y2804D01*
X2232Y2134D02*
X2567D01*
X2232Y2804D02*
X2567D01*
X5413Y3002D02*
X6634D01*
X5413D02*
Y3671D01*
X6634D01*
Y3002D02*
Y3671D01*
X-6602Y-6574D02*
X-5681Y-6042D01*
X-6838Y-6165D02*
X-6602Y-6574D01*
X-6838Y-6165D02*
X-5918Y-5633D01*
X-5681Y-6042D01*
X-5554Y-5992D02*
X-4634Y-5460D01*
X-5791Y-5583D02*
X-5554Y-5992D01*
X-5791Y-5583D02*
X-4870Y-5051D01*
X-4634Y-5460D01*
X-992Y-5675D02*
Y-2575D01*
X-3112Y-5675D02*
Y-2575D01*
Y-5675D02*
X-992Y-5675D01*
X-3112Y-2575D02*
X-992D01*
X68Y-3439D02*
Y-3104D01*
X-602Y-3439D02*
Y-3104D01*
Y-3439D02*
X68D01*
X-602Y-3104D02*
X68D01*
X68Y-3059D02*
Y-2725D01*
X-602Y-3059D02*
Y-2725D01*
Y-3059D02*
X68D01*
X-602Y-2725D02*
X68D01*
X-6162Y-2107D02*
X-4862D01*
Y-807D01*
X-6162Y-2107D02*
Y-807D01*
X-4862D01*
X-7743Y-6392D02*
X-7454Y-6225D01*
X-8078Y-5813D02*
X-7788Y-5645D01*
X-8078Y-5813D02*
X-7743Y-6392D01*
X-7788Y-5645D02*
X-7454Y-6225D01*
X-5122Y-5961D02*
X-4457Y-5577D01*
X-4679Y-6728D02*
X-4014Y-6344D01*
X-5122Y-5961D02*
X-4679Y-6728D01*
X-4457Y-5577D02*
X-4014Y-6344D01*
X-5522Y-7248D02*
X-5233Y-7080D01*
X-5857Y-6668D02*
X-5567Y-6501D01*
X-5857Y-6668D02*
X-5522Y-7248D01*
X-5567Y-6501D02*
X-5233Y-7080D01*
X-5883Y-7465D02*
X-5593Y-7298D01*
X-6218Y-6886D02*
X-5928Y-6718D01*
X-6218Y-6886D02*
X-5883Y-7465D01*
X-5928Y-6718D02*
X-5593Y-7298D01*
X-4974Y-9011D02*
X-4640Y-9591D01*
X-5264Y-9179D02*
X-4929Y-9758D01*
X-5264Y-9179D02*
X-4974Y-9011D01*
X-4929Y-9758D02*
X-4640Y-9591D01*
X-5361Y-8349D02*
X-5026Y-8928D01*
X-5650Y-8516D02*
X-5316Y-9096D01*
X-5650Y-8516D02*
X-5361Y-8349D01*
X-5316Y-9096D02*
X-5026Y-8928D01*
X-5764Y-7675D02*
X-5430Y-8255D01*
X-6054Y-7843D02*
X-5720Y-8422D01*
X-6054Y-7843D02*
X-5764Y-7675D01*
X-5720Y-8422D02*
X-5430Y-8255D01*
X-4597Y-6972D02*
X-4065Y-7892D01*
X-4475Y-8129D02*
X-4065Y-7892D01*
X-5006Y-7208D02*
X-4475Y-8129D01*
X-5006Y-7208D02*
X-4597Y-6972D01*
X-4100Y-8407D02*
X-3568Y-9328D01*
X-3977Y-9564D02*
X-3568Y-9328D01*
X-4509Y-8644D02*
X-3977Y-9564D01*
X-4509Y-8644D02*
X-4100Y-8407D01*
X-1659Y-8090D02*
X-990D01*
X-1659Y-7755D02*
X-990D01*
Y-8090D02*
Y-7755D01*
X-1659Y-8090D02*
Y-7755D01*
X-955Y-8833D02*
Y-8164D01*
X-1289Y-8833D02*
Y-8164D01*
X-955D01*
X-1289Y-8833D02*
X-955D01*
X-2468Y-9064D02*
X-2134Y-9644D01*
X-2178Y-8897D02*
X-1844Y-9476D01*
X-2134Y-9644D02*
X-1844Y-9476D01*
X-2468Y-9064D02*
X-2178Y-8897D01*
X-2861Y-7059D02*
X-2192D01*
X-2861Y-6725D02*
X-2192D01*
Y-7059D02*
Y-6725D01*
X-2861Y-7059D02*
Y-6725D01*
X-2111Y-8853D02*
X-1776Y-9432D01*
X-1821Y-8685D02*
X-1486Y-9265D01*
X-1776Y-9432D02*
X-1486Y-9265D01*
X-2111Y-8853D02*
X-1821Y-8685D01*
X-375Y-7275D02*
Y-6941D01*
X-1044Y-7275D02*
Y-6941D01*
Y-7275D02*
X-375D01*
X-1044Y-6941D02*
X-375D01*
X-8810Y1690D02*
X-8230Y1355D01*
X-8642Y1979D02*
X-8063Y1645D01*
X-8230Y1355D02*
X-8063Y1645D01*
X-8810Y1690D02*
X-8642Y1979D01*
X-9054Y1235D02*
X-8474Y901D01*
X-8886Y1525D02*
X-8307Y1191D01*
X-8474Y901D02*
X-8307Y1191D01*
X-9054Y1235D02*
X-8886Y1525D01*
X-8545Y2197D02*
X-7966Y1862D01*
X-8378Y2487D02*
X-7798Y2152D01*
X-7966Y1862D02*
X-7798Y2152D01*
X-8545Y2197D02*
X-8378Y2487D01*
X5749Y-7341D02*
X6399Y-6215D01*
X5749Y-7341D02*
X6875Y-7991D01*
X6399Y-6215D02*
X7525Y-6865D01*
X6875Y-7991D02*
X7525Y-6865D01*
X1712Y580D02*
X3012D01*
Y1880D01*
X1712Y580D02*
Y1880D01*
X3012D01*
X5157Y2126D02*
X5492D01*
X5157Y1457D02*
X5492D01*
Y2126D01*
X5157Y1457D02*
Y2126D01*
X6293Y7733D02*
X6873Y8068D01*
X6126Y8023D02*
X6705Y8358D01*
X6873Y8068D01*
X6126Y8023D02*
X6293Y7733D01*
X4615Y6137D02*
X5147Y5216D01*
X4615Y6137D02*
X5025Y6373D01*
X5556Y5453D01*
X5147Y5216D02*
X5556Y5453D01*
X4613Y6988D02*
X4948Y6408D01*
X4324Y6821D02*
X4658Y6241D01*
X4324Y6821D02*
X4613Y6988D01*
X4658Y6241D02*
X4948Y6408D01*
X6873Y6058D02*
X7041Y5768D01*
X6294Y5723D02*
X6461Y5433D01*
X7041Y5768D01*
X6294Y5723D02*
X6873Y6058D01*
X7503Y3984D02*
X8329D01*
Y5716D01*
X7503D02*
X8329D01*
X7503Y3984D02*
Y5716D01*
X6735Y4254D02*
Y5475D01*
X7405D01*
Y4254D02*
Y5475D01*
X6735Y4254D02*
X7405D01*
X4999Y6460D02*
X5920Y6991D01*
X4763Y6869D02*
X4999Y6460D01*
X4763Y6869D02*
X5683Y7401D01*
X5920Y6991D01*
X5871Y7268D02*
X6551Y6090D01*
X6551Y6090D02*
X6612Y6125D01*
X5871Y7268D02*
X5932Y7303D01*
X6928Y7878D02*
X7608Y6700D01*
X6867Y7843D02*
X6928Y7878D01*
X7547Y6665D02*
X7608Y6700D01*
X6534Y4887D02*
Y5084D01*
X6534Y3998D02*
Y4195D01*
X5180Y5081D02*
X5377D01*
X5180Y4884D02*
Y5081D01*
X5180Y4001D02*
X5377D01*
X5180D02*
Y4198D01*
Y4001D02*
X5377D01*
X5180D02*
Y4198D01*
X4045Y-555D02*
X5108D01*
Y-1028D02*
Y-555D01*
X4045Y-1028D02*
X5108D01*
X4045D02*
Y-555D01*
X4744Y-427D02*
Y-92D01*
X4075Y-427D02*
Y-92D01*
Y-427D02*
X4744D01*
X4075Y-92D02*
X4744D01*
X4741Y8D02*
Y342D01*
X4072Y8D02*
Y342D01*
Y8D02*
X4741D01*
X4072Y342D02*
X4741D01*
X2589Y-9328D02*
Y-8993D01*
X3259Y-8993D02*
X3259Y-9328D01*
X2589Y-8993D02*
X3259Y-8993D01*
X2589Y-9328D02*
X3259D01*
X1102Y-8967D02*
X1102Y-9302D01*
X1772Y-9302D02*
Y-8967D01*
X1102D02*
X1772D01*
X1102Y-9302D02*
X1772Y-9302D01*
X745Y-6069D02*
X1079D01*
X745Y-5400D02*
X1079D01*
X745Y-6069D02*
Y-5400D01*
X1079Y-6069D02*
Y-5400D01*
X1151Y-6072D02*
X1485D01*
X1151Y-5403D02*
X1485D01*
X1151Y-6072D02*
Y-5403D01*
X1485Y-6072D02*
Y-5403D01*
X885Y-5223D02*
X1554D01*
X885Y-4888D02*
X1554Y-4888D01*
X1554Y-5223D01*
X885D02*
Y-4888D01*
X905Y-4730D02*
X1575D01*
X905Y-4395D02*
X1575D01*
Y-4730D02*
Y-4395D01*
X905Y-4730D02*
Y-4395D01*
X7149Y-6039D02*
X7729Y-6373D01*
X6982Y-6329D02*
X7562Y-6663D01*
X6982Y-6329D02*
X7149Y-6039D01*
X7562Y-6663D02*
X7729Y-6373D01*
X6221Y-5622D02*
X6388Y-5332D01*
X5641Y-5288D02*
X5809Y-4998D01*
X5641Y-5288D02*
X6221Y-5622D01*
X5809Y-4998D02*
X6388Y-5332D01*
X6010Y-5978D02*
X6178Y-5688D01*
X5431Y-5643D02*
X5598Y-5354D01*
X5431Y-5643D02*
X6010Y-5978D01*
X5598Y-5354D02*
X6178Y-5688D01*
X4673Y-3997D02*
X5008D01*
X4673Y-4667D02*
X5008D01*
Y-3997D01*
X4673Y-4667D02*
Y-3997D01*
X4695Y-4980D02*
X5030D01*
X4695Y-5650D02*
X5030D01*
Y-4980D01*
X4695Y-5650D02*
Y-4980D01*
X3967Y2746D02*
Y3809D01*
X4439D01*
Y2746D02*
Y3809D01*
X3967Y2746D02*
X4439D01*
X5000D02*
Y3809D01*
X4528Y2746D02*
X5000D01*
X4528D02*
X4528Y3809D01*
X5000Y3809D01*
X4656Y-2415D02*
Y-1353D01*
X5128D01*
Y-2415D02*
Y-1353D01*
X4656Y-2415D02*
X5128D01*
X4537Y-2415D02*
Y-1352D01*
X4065Y-2415D02*
X4537D01*
X4065D02*
X4065Y-1352D01*
X4537Y-1352D01*
X3117Y-3277D02*
Y-2943D01*
X3786Y-3277D02*
Y-2943D01*
X3117D02*
X3786D01*
X3117Y-3277D02*
X3786D01*
X3117Y-3680D02*
Y-3346D01*
X3786Y-3680D02*
Y-3346D01*
X3117D02*
X3786D01*
X3117Y-3680D02*
X3786D01*
X2549Y217D02*
X3219D01*
X2549Y551D02*
X3219D01*
Y217D02*
Y551D01*
X2549Y217D02*
Y551D01*
X1845Y8192D02*
Y8861D01*
X1510Y8192D02*
Y8861D01*
X1845D01*
X1510Y8192D02*
X1845D01*
X3124Y7965D02*
Y8299D01*
X2455Y7965D02*
Y8299D01*
Y7965D02*
X3124D01*
X2455Y8299D02*
X3124D01*
X3525Y9039D02*
X3525Y8409D01*
X2187D02*
X3525D01*
X2187D02*
X2187Y9039D01*
X3525D01*
X2692Y7007D02*
Y7243D01*
X3632Y7007D02*
Y7243D01*
X2692Y7007D02*
X3632D01*
X2692Y7243D02*
X3632D01*
X2588Y6049D02*
Y6383D01*
X1919Y6049D02*
Y6383D01*
Y6049D02*
X2588D01*
X1919Y6383D02*
X2588D01*
X3002Y2825D02*
X3671D01*
X3002Y2490D02*
X3671D01*
X3002D02*
Y2825D01*
X3671Y2490D02*
Y2825D01*
X2518Y6483D02*
Y7821D01*
X1888D02*
X2518D01*
X1888Y6483D02*
Y7821D01*
Y6483D02*
X2518D01*
X6166Y2330D02*
X6591D01*
X6166Y1225D02*
X6591D01*
X6162Y1082D02*
X6587Y1082D01*
X6162Y-23D02*
X6587Y-23D01*
X5700Y-1472D02*
Y-1046D01*
X6805D02*
X6805Y-1472D01*
X9448Y-2509D02*
Y-2084D01*
X8343Y-2509D02*
Y-2084D01*
X7244Y3754D02*
X9213D01*
X7244Y2101D02*
X9213D01*
X7244Y3515D02*
Y3754D01*
X9213Y3515D02*
Y3754D01*
X7244Y2101D02*
Y2339D01*
X9213Y2101D02*
Y2339D01*
X-7713Y-3548D02*
X-7546Y-3838D01*
X-7133Y-3213D02*
X-6966Y-3503D01*
X-7713Y-3548D02*
X-7133Y-3213D01*
X-7546Y-3838D02*
X-6966Y-3503D01*
X-9456Y3562D02*
X-9122Y4141D01*
X-9456Y3562D02*
X-8399Y2951D01*
X-8065Y3531D01*
X-9122Y4141D02*
X-8065Y3531D01*
X-7365Y4715D02*
X-7031Y5295D01*
X-8088Y5905D02*
X-7031Y5295D01*
X-8422Y5325D02*
X-8088Y5905D01*
X-8422Y5325D02*
X-7365Y4715D01*
X-1896Y-1793D02*
X-1562D01*
X-1896Y-1123D02*
X-1562Y-1123D01*
X-1896Y-1793D02*
X-1896Y-1123D01*
X-1562Y-1793D02*
Y-1123D01*
X812Y-2114D02*
X1147D01*
X812Y-2783D02*
X1147Y-2783D01*
X1147Y-2114D02*
X1147Y-2783D01*
X812Y-2783D02*
X812Y-2114D01*
X-2126Y-653D02*
X-2126Y-987D01*
X-1457Y-987D02*
Y-653D01*
X-2126D02*
X-1457D01*
X-2126Y-987D02*
X-1457Y-987D01*
X-552Y-1990D02*
X905Y-1990D01*
X-552Y-670D02*
X905Y-670D01*
X-552Y-1990D02*
X-552Y-670D01*
X905Y-670D02*
X905Y-1990D01*
X-2439Y-1103D02*
X-1967Y-1103D01*
X-2439Y-1103D02*
X-2439Y-2166D01*
X-1967Y-2166D01*
Y-1103D01*
X-902Y3556D02*
X-902Y3222D01*
X-233Y3222D02*
Y3556D01*
X-902D02*
X-233D01*
X-902Y3222D02*
X-233Y3222D01*
X-1120Y4114D02*
X-786D01*
X-1120Y4783D02*
X-786D01*
X-1120Y4114D02*
Y4783D01*
X-786Y4114D02*
Y4783D01*
X-1211Y4104D02*
Y4438D01*
X-1880Y4104D02*
Y4438D01*
Y4104D02*
X-1211D01*
X-1880Y4438D02*
X-1211D01*
X-1880Y4842D02*
X-1211D01*
X-1880Y4507D02*
X-1211D01*
X-1880D02*
Y4842D01*
X-1211Y4507D02*
Y4842D01*
X-2308Y5024D02*
X-1973Y5024D01*
X-2308Y4355D02*
X-1973D01*
Y5024D01*
X-2308Y4355D02*
X-2308Y5024D01*
X-314Y55D02*
Y725D01*
X-1535D02*
X-314D01*
X-1535Y55D02*
Y725D01*
Y55D02*
X-314D01*
X-933Y1150D02*
X-933Y816D01*
X-1602D02*
Y1150D01*
Y816D02*
X-933D01*
X-1602Y1150D02*
X-933D01*
X-5237Y1662D02*
X-4568Y1662D01*
X-5237Y1997D02*
X-4568D01*
Y1662D02*
Y1997D01*
X-5237D02*
X-5237Y1662D01*
X-5412Y2477D02*
X-4743D01*
X-5412Y2812D02*
X-4743D01*
Y2477D02*
Y2812D01*
X-5412Y2477D02*
Y2812D01*
X-3329Y5187D02*
X-2995D01*
X-3329Y4517D02*
X-2995D01*
Y5187D01*
X-3329Y4517D02*
Y5187D01*
X-3328Y5936D02*
X-2993D01*
X-3328Y5267D02*
X-2993D01*
Y5936D01*
X-3328Y5267D02*
Y5936D01*
X-3734Y4801D02*
Y5470D01*
X-3399Y4801D02*
Y5470D01*
X-3734Y4801D02*
X-3399D01*
X-3734Y5470D02*
X-3399D01*
X-4135Y4801D02*
X-4135Y5470D01*
X-3800Y4801D02*
Y5470D01*
X-4135Y4801D02*
X-3800D01*
X-4135Y5470D02*
X-3800Y5470D01*
X-3740Y6202D02*
X-3405D01*
X-3740Y5532D02*
X-3405D01*
Y6202D01*
X-3740Y5532D02*
Y6202D01*
X-4138Y6202D02*
X-3803Y6202D01*
X-4138Y5532D02*
X-3803D01*
Y6202D01*
X-4138Y5532D02*
X-4138Y6202D01*
X-4536Y4801D02*
Y5470D01*
X-4202Y4801D02*
Y5470D01*
X-4536Y4801D02*
X-4202D01*
X-4536Y5470D02*
X-4202D01*
X-4536Y6202D02*
X-4202D01*
X-4536Y5532D02*
X-4202D01*
Y6202D01*
X-4536Y5532D02*
Y6202D01*
X-5662Y4619D02*
X-4993D01*
X-5662Y3398D02*
Y4619D01*
Y3398D02*
X-4993D01*
Y4619D01*
X-5274Y4801D02*
X-4605D01*
X-5274Y5135D02*
X-4605D01*
Y4801D02*
Y5135D01*
X-5274Y4801D02*
Y5135D01*
X-5278Y5532D02*
X-4608D01*
X-5278Y5867D02*
X-4608D01*
Y5532D02*
Y5867D01*
X-5278Y5532D02*
Y5867D01*
X-5350Y5092D02*
Y6824D01*
X-6176Y5092D02*
X-5350D01*
X-6176D02*
Y6824D01*
X-5350D01*
X-2946Y6661D02*
X-2612D01*
X-2946Y5991D02*
X-2612D01*
Y6661D01*
X-2946Y5991D02*
Y6661D01*
X-2530D02*
X-2195D01*
X-2530Y5991D02*
X-2195D01*
Y6661D01*
X-2530Y5991D02*
Y6661D01*
X-7846Y-3384D02*
X-7266Y-3049D01*
X-8013Y-3094D02*
X-7433Y-2760D01*
X-7266Y-3049D01*
X-8013Y-3094D02*
X-7846Y-3384D01*
X-4884Y4075D02*
X-4549D01*
X-4884Y3406D02*
X-4549D01*
Y4075D01*
X-4884Y3406D02*
Y4075D01*
X-4470Y4410D02*
X-4135D01*
X-4470Y3740D02*
X-4135D01*
Y4410D01*
X-4470Y3740D02*
Y4410D01*
X-4076Y4407D02*
Y4742D01*
X-3407Y4407D02*
Y4742D01*
X-4076D02*
X-3407D01*
X-4076Y4407D02*
X-3407D01*
X-8411Y-2292D02*
X-8121Y-2124D01*
X-8076Y-2871D02*
X-7786Y-2704D01*
X-8121Y-2124D02*
X-7786Y-2704D01*
X-8411Y-2292D02*
X-8076Y-2871D01*
X-1081Y2025D02*
X-411D01*
X-1081Y1690D02*
X-411Y1690D01*
X-1081Y2025D02*
X-1081Y1690D01*
X-411Y1690D02*
Y2025D01*
X-899Y2838D02*
X-230D01*
X-899Y3173D02*
X-230D01*
Y2838D02*
Y3173D01*
X-899Y2838D02*
Y3173D01*
X-1298Y2878D02*
X-963D01*
X-1298Y3547D02*
X-963Y3547D01*
X-1298Y2878D02*
X-1298Y3547D01*
X-963Y2878D02*
Y3547D01*
X-731Y3707D02*
Y4041D01*
X-1400Y3707D02*
Y4041D01*
Y3707D02*
X-731D01*
X-1400Y4041D02*
X-731D01*
X-663Y4389D02*
X-329D01*
X-663Y3720D02*
X-329D01*
Y4389D01*
X-663Y3720D02*
Y4389D01*
X396Y3584D02*
Y3919D01*
X-273Y3584D02*
Y3919D01*
Y3584D02*
X396D01*
X-273Y3919D02*
X396D01*
X-415Y2479D02*
Y2814D01*
X-1084Y2479D02*
Y2814D01*
Y2479D02*
X-415D01*
X-1084Y2814D02*
X-415D01*
Y2079D02*
Y2414D01*
X-1084Y2079D02*
Y2414D01*
Y2079D02*
X-415D01*
X-1084Y2414D02*
X-415D01*
X-336Y2236D02*
X333D01*
X-336Y1902D02*
X333D01*
X-336D02*
Y2236D01*
X333Y1902D02*
Y2236D01*
X-2344Y816D02*
Y1150D01*
X-1675Y816D02*
Y1150D01*
X-2344D02*
X-1675D01*
X-2344Y816D02*
X-1675D01*
X-3135Y-280D02*
Y390D01*
Y-280D02*
X-1915D01*
X-1915Y390D01*
X-3135Y390D02*
X-1915Y390D01*
X-4748Y2859D02*
Y3194D01*
X-5418Y2859D02*
Y3194D01*
Y2859D02*
X-4748D01*
X-5418Y3194D02*
X-4748D01*
X-5237Y2069D02*
Y2404D01*
X-4568Y2069D02*
Y2404D01*
X-5237D02*
X-4568D01*
X-5237Y2069D02*
X-4568D01*
X-3162Y477D02*
X-2827D01*
X-3162Y1146D02*
X-2827D01*
X-3162Y477D02*
Y1146D01*
X-2827Y477D02*
Y1146D01*
X-2065Y761D02*
X-2065Y426D01*
X-2735D02*
Y761D01*
Y426D02*
X-2065D01*
X-2735Y761D02*
X-2065Y761D01*
X-3971Y-3727D02*
Y-3527D01*
X-3904Y-3593D01*
X-3837Y-3527D01*
Y-3727D01*
X-3771Y-3527D02*
X-3704D01*
X-3737D01*
Y-3727D01*
X-3771D01*
X-3704D01*
X-3471Y-3560D02*
X-3504Y-3527D01*
X-3571D01*
X-3604Y-3560D01*
Y-3593D01*
X-3571Y-3627D01*
X-3504D01*
X-3471Y-3660D01*
Y-3693D01*
X-3504Y-3727D01*
X-3571D01*
X-3604Y-3693D01*
X-3304Y-3527D02*
X-3371D01*
X-3404Y-3560D01*
Y-3693D01*
X-3371Y-3727D01*
X-3304D01*
X-3271Y-3693D01*
Y-3560D01*
X-3304Y-3527D01*
X-653Y-4247D02*
X-853D01*
X-786Y-4180D01*
X-853Y-4114D01*
X-653D01*
X-853Y-3947D02*
Y-4014D01*
X-820Y-4047D01*
X-686D01*
X-653Y-4014D01*
Y-3947D01*
X-686Y-3914D01*
X-820D01*
X-853Y-3947D01*
X-820Y-3714D02*
X-853Y-3747D01*
Y-3814D01*
X-820Y-3847D01*
X-786D01*
X-753Y-3814D01*
Y-3747D01*
X-720Y-3714D01*
X-686D01*
X-653Y-3747D01*
Y-3814D01*
X-686Y-3847D01*
X-853Y-3647D02*
Y-3581D01*
Y-3614D01*
X-653D01*
Y-3647D01*
Y-3581D01*
X-850Y-2626D02*
X-884Y-2660D01*
Y-2726D01*
X-850Y-2760D01*
X-717D01*
X-684Y-2726D01*
Y-2660D01*
X-717Y-2626D01*
X-884Y-2560D02*
X-684D01*
Y-2426D01*
X-884Y-2360D02*
X-684D01*
X-750D01*
X-884Y-2226D01*
X-784Y-2326D01*
X-684Y-2226D01*
X-2330Y-5831D02*
X-2380Y-5781D01*
X-2480D01*
X-2530Y-5831D01*
Y-6031D01*
X-2480Y-6081D01*
X-2380D01*
X-2330Y-6031D01*
Y-5931D01*
X-2430D01*
X-2230Y-6081D02*
Y-5781D01*
X-2030Y-6081D01*
Y-5781D01*
X-1930D02*
Y-6081D01*
X-1780D01*
X-1730Y-6031D01*
Y-5831D01*
X-1780Y-5781D01*
X-1930D01*
X-3838Y-2970D02*
Y-2837D01*
X-3738D01*
X-3705Y-2871D01*
Y-2970D01*
X-3505Y-2804D02*
X-3539Y-2771D01*
X-3605D01*
X-3639Y-2804D01*
Y-2937D01*
X-3605Y-2970D01*
X-3539D01*
X-3505Y-2937D01*
X-3305Y-2804D02*
X-3339Y-2771D01*
X-3405D01*
X-3439Y-2804D01*
Y-2837D01*
X-3405Y-2871D01*
X-3339D01*
X-3305Y-2904D01*
Y-2937D01*
X-3339Y-2970D01*
X-3405D01*
X-3439Y-2937D01*
X4472Y4749D02*
X4338D01*
Y4549D01*
X4472D01*
X4338Y4649D02*
X4405D01*
X4672Y4583D02*
Y4716D01*
X4638Y4749D01*
X4572D01*
X4538Y4716D01*
Y4583D01*
X4572Y4549D01*
X4638D01*
X4605Y4616D02*
X4672Y4549D01*
X4638D02*
X4672Y4583D01*
X4399Y-3084D02*
Y-2884D01*
X4498D01*
X4532Y-2918D01*
Y-2984D01*
X4498Y-3018D01*
X4399D01*
X4732Y-2884D02*
X4598D01*
Y-3084D01*
X4732D01*
X4598Y-2984D02*
X4665D01*
X5803Y5393D02*
X5887Y5249D01*
X5932Y5237D01*
X5990Y5270D01*
X6002Y5316D01*
X5919Y5460D01*
X6192Y5387D02*
X6076Y5320D01*
X6125Y5502D01*
X6108Y5531D01*
X6063Y5543D01*
X6005Y5510D01*
X5993Y5464D01*
X8456Y3890D02*
Y4090D01*
X8556D01*
X8590Y4057D01*
Y3990D01*
X8556Y3957D01*
X8456D01*
X8523D02*
X8590Y3890D01*
X8756D02*
Y4090D01*
X8656Y3990D01*
X8790D01*
X8856Y4057D02*
X8889Y4090D01*
X8956D01*
X8989Y4057D01*
Y4024D01*
X8956Y3990D01*
X8923D01*
X8956D01*
X8989Y3957D01*
Y3924D01*
X8956Y3890D01*
X8889D01*
X8856Y3924D01*
X-10816Y-1265D02*
X-10643Y-1165D01*
X-10593Y-1251D01*
X-10605Y-1297D01*
X-10663Y-1330D01*
X-10708Y-1318D01*
X-10758Y-1231D01*
X-10725Y-1289D02*
X-10749Y-1380D01*
X-10572Y-1355D02*
X-10526Y-1367D01*
X-10493Y-1425D01*
X-10505Y-1470D01*
X-10534Y-1487D01*
X-10579Y-1475D01*
X-10596Y-1446D01*
X-10579Y-1475D01*
X-10592Y-1520D01*
X-10620Y-1537D01*
X-10666Y-1525D01*
X-10699Y-1467D01*
X-10687Y-1421D01*
X-6078Y-6403D02*
X-5995Y-6548D01*
X-5949Y-6560D01*
X-5892Y-6526D01*
X-5879Y-6481D01*
X-5963Y-6337D01*
X-5805Y-6476D02*
X-5747Y-6443D01*
X-5776Y-6460D01*
X-5876Y-6287D01*
X-5888Y-6332D01*
X-5744Y-6249D02*
X-5732Y-6203D01*
X-5674Y-6170D01*
X-5629Y-6182D01*
X-5612Y-6211D01*
X-5624Y-6257D01*
X-5579Y-6269D01*
X-5562Y-6298D01*
X-5574Y-6343D01*
X-5632Y-6377D01*
X-5677Y-6364D01*
X-5694Y-6335D01*
X-5682Y-6290D01*
X-5727Y-6278D01*
X-5744Y-6249D01*
X-5682Y-6290D02*
X-5624Y-6257D01*
X-3253Y-6025D02*
X-3397Y-6108D01*
X-3409Y-6153D01*
X-3376Y-6211D01*
X-3330Y-6223D01*
X-3186Y-6140D01*
X-3326Y-6298D02*
X-3292Y-6355D01*
X-3309Y-6327D01*
X-3136Y-6227D01*
X-3181Y-6214D01*
X-3069Y-6342D02*
X-3003Y-6457D01*
X-3032Y-6474D01*
X-3214Y-6425D01*
X-3242Y-6442D01*
X-3302Y-9540D02*
X-3218Y-9684D01*
X-3173Y-9696D01*
X-3115Y-9663D01*
X-3103Y-9618D01*
X-3186Y-9473D01*
X-3028Y-9613D02*
X-2971Y-9580D01*
X-3000Y-9596D01*
X-3100Y-9423D01*
X-3112Y-9469D01*
X-2869Y-9290D02*
X-2910Y-9352D01*
X-2934Y-9443D01*
X-2901Y-9501D01*
X-2855Y-9513D01*
X-2798Y-9480D01*
X-2785Y-9434D01*
X-2802Y-9405D01*
X-2848Y-9393D01*
X-2934Y-9443D01*
X3756Y6875D02*
X3923D01*
X3956Y6908D01*
Y6975D01*
X3923Y7008D01*
X3756D01*
X3956Y7075D02*
Y7141D01*
Y7108D01*
X3756D01*
X3790Y7075D01*
X3756Y7375D02*
Y7241D01*
X3856D01*
X3823Y7308D01*
Y7341D01*
X3856Y7375D01*
X3923D01*
X3956Y7341D01*
Y7275D01*
X3923Y7241D01*
X4605Y2631D02*
Y2464D01*
X4638Y2431D01*
X4705D01*
X4738Y2464D01*
Y2631D01*
X4805Y2431D02*
X4872D01*
X4838D01*
Y2631D01*
X4805Y2597D01*
X5072Y2431D02*
Y2631D01*
X4972Y2531D01*
X5105D01*
X1385Y3948D02*
X1552D01*
X1585Y3981D01*
Y4048D01*
X1552Y4081D01*
X1385D01*
X1585Y4148D02*
Y4214D01*
Y4181D01*
X1385D01*
X1419Y4148D01*
X1585Y4448D02*
Y4314D01*
X1452Y4448D01*
X1419D01*
X1385Y4414D01*
Y4348D01*
X1419Y4314D01*
X1518Y-2525D02*
X1685D01*
X1718Y-2492D01*
Y-2425D01*
X1685Y-2392D01*
X1518D01*
X1718Y-2325D02*
Y-2259D01*
Y-2292D01*
X1518D01*
X1552Y-2325D01*
X1718Y-2159D02*
Y-2092D01*
Y-2125D01*
X1518D01*
X1552Y-2159D01*
X690Y-4171D02*
X856D01*
X889Y-4137D01*
Y-4071D01*
X856Y-4038D01*
X690D01*
X889Y-3971D02*
Y-3904D01*
Y-3938D01*
X690D01*
X723Y-3971D01*
Y-3804D02*
X690Y-3771D01*
Y-3704D01*
X723Y-3671D01*
X856D01*
X889Y-3704D01*
Y-3771D01*
X856Y-3804D01*
X723D01*
X549Y-9224D02*
X716D01*
X749Y-9191D01*
Y-9124D01*
X716Y-9091D01*
X549D01*
X716Y-9024D02*
X749Y-8991D01*
Y-8924D01*
X716Y-8891D01*
X583D01*
X549Y-8924D01*
Y-8991D01*
X583Y-9024D01*
X616D01*
X649Y-8991D01*
Y-8891D01*
X1711Y-3275D02*
Y-3442D01*
X1745Y-3475D01*
X1811D01*
X1844Y-3442D01*
Y-3275D01*
X1911Y-3308D02*
X1944Y-3275D01*
X2011D01*
X2044Y-3308D01*
Y-3342D01*
X2011Y-3375D01*
X2044Y-3408D01*
Y-3442D01*
X2011Y-3475D01*
X1944D01*
X1911Y-3442D01*
Y-3408D01*
X1944Y-3375D01*
X1911Y-3342D01*
Y-3308D01*
X1944Y-3375D02*
X2011D01*
X6655Y-3387D02*
X6799Y-3470D01*
X6845Y-3458D01*
X6878Y-3400D01*
X6866Y-3355D01*
X6722Y-3272D01*
X6755Y-3214D02*
X6822Y-3098D01*
X6851Y-3115D01*
X6899Y-3297D01*
X6928Y-3314D01*
X-8457Y-4659D02*
X-8601Y-4742D01*
X-8614Y-4787D01*
X-8580Y-4845D01*
X-8535Y-4857D01*
X-8390Y-4774D01*
X-8291Y-4947D02*
X-8353Y-4906D01*
X-8444Y-4882D01*
X-8501Y-4915D01*
X-8514Y-4961D01*
X-8480Y-5018D01*
X-8435Y-5031D01*
X-8406Y-5014D01*
X-8394Y-4968D01*
X-8444Y-4882D01*
X3610Y-7550D02*
X3777D01*
X3810Y-7517D01*
Y-7450D01*
X3777Y-7417D01*
X3610D01*
Y-7217D02*
Y-7350D01*
X3710D01*
X3677Y-7284D01*
Y-7250D01*
X3710Y-7217D01*
X3777D01*
X3810Y-7250D01*
Y-7317D01*
X3777Y-7350D01*
X1369Y-6852D02*
Y-7018D01*
X1402Y-7052D01*
X1469D01*
X1502Y-7018D01*
Y-6852D01*
X1669Y-7052D02*
Y-6852D01*
X1569Y-6952D01*
X1702D01*
X4849Y4874D02*
X5016D01*
X5049Y4907D01*
Y4974D01*
X5016Y5007D01*
X4849D01*
X5049Y5074D02*
Y5141D01*
Y5107D01*
X4849D01*
X4883Y5074D01*
X2928Y9326D02*
X2895Y9359D01*
X2828D01*
X2795Y9326D01*
Y9292D01*
X2828Y9259D01*
X2895D01*
X2928Y9226D01*
Y9192D01*
X2895Y9159D01*
X2828D01*
X2795Y9192D01*
X2995Y9359D02*
Y9326D01*
X3062Y9259D01*
X3128Y9326D01*
Y9359D01*
X3062Y9259D02*
Y9159D01*
X3195D02*
Y9359D01*
X3328Y9159D01*
Y9359D01*
X3528Y9326D02*
X3495Y9359D01*
X3428D01*
X3395Y9326D01*
Y9192D01*
X3428Y9159D01*
X3495D01*
X3528Y9192D01*
X-3993Y-4086D02*
X-4039Y-4074D01*
X-4096Y-4107D01*
X-4108Y-4153D01*
X-4092Y-4181D01*
X-4046Y-4194D01*
X-3989Y-4160D01*
X-3943Y-4172D01*
X-3926Y-4201D01*
X-3939Y-4247D01*
X-3996Y-4280D01*
X-4042Y-4268D01*
X-3837Y-3957D02*
X-3952Y-4024D01*
X-3852Y-4197D01*
X-3737Y-4130D01*
X-3902Y-4110D02*
X-3844Y-4077D01*
X-3779Y-3924D02*
X-3679Y-4097D01*
X-3563Y-4030D01*
X-4382Y-5193D02*
X-4428Y-5181D01*
X-4486Y-5214D01*
X-4498Y-5260D01*
X-4481Y-5289D01*
X-4436Y-5301D01*
X-4378Y-5268D01*
X-4332Y-5280D01*
X-4316Y-5309D01*
X-4328Y-5354D01*
X-4386Y-5388D01*
X-4431Y-5375D01*
X-4226Y-5064D02*
X-4341Y-5131D01*
X-4241Y-5304D01*
X-4126Y-5238D01*
X-4291Y-5218D02*
X-4234Y-5184D01*
X-4168Y-5031D02*
X-4068Y-5204D01*
X-3953Y-5138D01*
X-3866Y-5088D02*
X-3966Y-4914D01*
X-3908Y-4881D02*
X-3808Y-5054D01*
X-3962Y-4989D02*
X-3875Y-4939D01*
X-3846Y-4922D01*
X-3928Y-5047D02*
X-3813Y-4980D01*
X7624Y6417D02*
X7579Y6429D01*
X7521Y6396D01*
X7509Y6351D01*
X7525Y6322D01*
X7571Y6310D01*
X7629Y6343D01*
X7674Y6331D01*
X7691Y6302D01*
X7679Y6256D01*
X7621Y6223D01*
X7575Y6235D01*
X7765Y6306D02*
X7823Y6340D01*
X7794Y6323D01*
X7694Y6496D01*
X7682Y6451D01*
X4069Y6589D02*
X4242Y6689D01*
X4292Y6603D01*
X4279Y6557D01*
X4222Y6524D01*
X4176Y6536D01*
X4126Y6623D01*
X4160Y6565D02*
X4135Y6474D01*
X4218Y6330D02*
X4392Y6430D01*
X4255Y6466D01*
X4322Y6351D01*
X4335Y6128D02*
X4268Y6243D01*
X4451Y6194D01*
X4479Y6211D01*
X4492Y6256D01*
X4458Y6314D01*
X4413Y6326D01*
X-1397Y-8819D02*
X-1597D01*
Y-8719D01*
X-1564Y-8686D01*
X-1497D01*
X-1464Y-8719D01*
Y-8819D01*
Y-8752D02*
X-1397Y-8686D01*
Y-8519D02*
X-1597D01*
X-1497Y-8619D01*
Y-8486D01*
X-1397Y-8419D02*
Y-8353D01*
Y-8386D01*
X-1597D01*
X-1564Y-8419D01*
X6319Y8222D02*
X6219Y8395D01*
X6306Y8445D01*
X6351Y8433D01*
X6384Y8375D01*
X6372Y8330D01*
X6286Y8280D01*
X6343Y8313D02*
X6434Y8289D01*
X6579Y8372D02*
X6479Y8545D01*
X6442Y8409D01*
X6558Y8475D01*
X6582Y8566D02*
X6594Y8612D01*
X6652Y8645D01*
X6697Y8633D01*
X6764Y8518D01*
X6752Y8472D01*
X6694Y8439D01*
X6649Y8451D01*
X6582Y8566D01*
X-7331Y1595D02*
X-7231Y1768D01*
X-7144Y1718D01*
X-7132Y1673D01*
X-7165Y1615D01*
X-7211Y1603D01*
X-7297Y1653D01*
X-7240Y1620D02*
X-7215Y1529D01*
X-7074Y1639D02*
X-7029Y1652D01*
X-6971Y1618D01*
X-6959Y1573D01*
X-6976Y1544D01*
X-7021Y1532D01*
X-7050Y1548D01*
X-7021Y1532D01*
X-7009Y1486D01*
X-7026Y1457D01*
X-7071Y1445D01*
X-7129Y1479D01*
X-7141Y1524D01*
X-6898Y1345D02*
X-6798Y1518D01*
X-6935Y1482D01*
X-6819Y1415D01*
X-7835Y619D02*
X-7735Y792D01*
X-7649Y742D01*
X-7637Y697D01*
X-7670Y639D01*
X-7715Y627D01*
X-7802Y677D01*
X-7744Y643D02*
X-7720Y552D01*
X-7579Y663D02*
X-7533Y676D01*
X-7476Y642D01*
X-7463Y597D01*
X-7480Y568D01*
X-7526Y556D01*
X-7554Y572D01*
X-7526Y556D01*
X-7513Y510D01*
X-7530Y481D01*
X-7576Y469D01*
X-7633Y502D01*
X-7645Y548D01*
X-7406Y563D02*
X-7360Y576D01*
X-7302Y542D01*
X-7290Y497D01*
X-7307Y468D01*
X-7352Y456D01*
X-7381Y472D01*
X-7352Y456D01*
X-7340Y410D01*
X-7357Y381D01*
X-7402Y369D01*
X-7460Y402D01*
X-7472Y448D01*
X-7572Y1058D02*
X-7472Y1231D01*
X-7386Y1181D01*
X-7373Y1135D01*
X-7407Y1078D01*
X-7452Y1065D01*
X-7539Y1115D01*
X-7481Y1082D02*
X-7457Y991D01*
X-7316Y1102D02*
X-7270Y1114D01*
X-7212Y1081D01*
X-7200Y1035D01*
X-7217Y1007D01*
X-7262Y994D01*
X-7291Y1011D01*
X-7262Y994D01*
X-7250Y949D01*
X-7267Y920D01*
X-7312Y908D01*
X-7370Y941D01*
X-7382Y987D01*
X-7110Y791D02*
X-7226Y858D01*
X-7044Y907D01*
X-7027Y935D01*
X-7039Y981D01*
X-7097Y1014D01*
X-7142Y1002D01*
X-5528Y-9443D02*
X-5355Y-9343D01*
X-5305Y-9429D01*
X-5317Y-9475D01*
X-5375Y-9508D01*
X-5421Y-9496D01*
X-5471Y-9409D01*
X-5437Y-9467D02*
X-5462Y-9558D01*
X-5284Y-9532D02*
X-5239Y-9545D01*
X-5205Y-9602D01*
X-5217Y-9648D01*
X-5246Y-9664D01*
X-5292Y-9652D01*
X-5308Y-9623D01*
X-5292Y-9652D01*
X-5304Y-9698D01*
X-5333Y-9714D01*
X-5378Y-9702D01*
X-5412Y-9645D01*
X-5400Y-9599D01*
X-5328Y-9789D02*
X-5295Y-9847D01*
X-5312Y-9818D01*
X-5139Y-9718D01*
X-5184Y-9706D01*
X-5928Y-8734D02*
X-5755Y-8634D01*
X-5705Y-8720D01*
X-5717Y-8766D01*
X-5775Y-8799D01*
X-5821Y-8787D01*
X-5871Y-8700D01*
X-5837Y-8758D02*
X-5862Y-8849D01*
X-5684Y-8823D02*
X-5638Y-8836D01*
X-5605Y-8893D01*
X-5617Y-8939D01*
X-5646Y-8956D01*
X-5692Y-8943D01*
X-5708Y-8915D01*
X-5692Y-8943D01*
X-5704Y-8989D01*
X-5733Y-9006D01*
X-5778Y-8993D01*
X-5812Y-8936D01*
X-5799Y-8890D01*
X-5584Y-8997D02*
X-5539Y-9009D01*
X-5505Y-9067D01*
X-5517Y-9112D01*
X-5633Y-9179D01*
X-5678Y-9166D01*
X-5712Y-9109D01*
X-5699Y-9063D01*
X-5584Y-8997D01*
X-6288Y-8054D02*
X-6114Y-7954D01*
X-6064Y-8041D01*
X-6077Y-8086D01*
X-6134Y-8120D01*
X-6180Y-8107D01*
X-6230Y-8021D01*
X-6196Y-8079D02*
X-6221Y-8170D01*
X-6121Y-8343D02*
X-6188Y-8227D01*
X-6005Y-8276D01*
X-5977Y-8259D01*
X-5964Y-8214D01*
X-5998Y-8156D01*
X-6043Y-8144D01*
X-6059Y-8384D02*
X-6071Y-8429D01*
X-6038Y-8487D01*
X-5992Y-8499D01*
X-5877Y-8433D01*
X-5864Y-8387D01*
X-5898Y-8329D01*
X-5943Y-8317D01*
X-5972Y-8334D01*
X-5984Y-8379D01*
X-5934Y-8466D01*
X-1584Y-9547D02*
X-1411Y-9447D01*
X-1361Y-9534D01*
X-1373Y-9579D01*
X-1431Y-9613D01*
X-1476Y-9600D01*
X-1526Y-9514D01*
X-1493Y-9572D02*
X-1517Y-9663D01*
X-1417Y-9836D02*
X-1484Y-9720D01*
X-1302Y-9769D01*
X-1273Y-9752D01*
X-1261Y-9707D01*
X-1294Y-9649D01*
X-1340Y-9637D01*
X-1240Y-9810D02*
X-1194Y-9822D01*
X-1161Y-9880D01*
X-1173Y-9926D01*
X-1202Y-9942D01*
X-1248Y-9930D01*
X-1260Y-9976D01*
X-1289Y-9992D01*
X-1334Y-9980D01*
X-1368Y-9922D01*
X-1355Y-9877D01*
X-1326Y-9860D01*
X-1281Y-9872D01*
X-1269Y-9827D01*
X-1240Y-9810D01*
X-1281Y-9872D02*
X-1248Y-9930D01*
X-2715Y-9286D02*
X-2542Y-9186D01*
X-2492Y-9273D01*
X-2504Y-9318D01*
X-2562Y-9352D01*
X-2608Y-9340D01*
X-2658Y-9253D01*
X-2624Y-9311D02*
X-2649Y-9402D01*
X-2549Y-9575D02*
X-2615Y-9459D01*
X-2433Y-9508D01*
X-2404Y-9492D01*
X-2392Y-9446D01*
X-2426Y-9388D01*
X-2471Y-9376D01*
X-2342Y-9533D02*
X-2276Y-9648D01*
X-2304Y-9665D01*
X-2486Y-9616D01*
X-2515Y-9633D01*
X-2881Y-6614D02*
Y-6414D01*
X-2781D01*
X-2748Y-6448D01*
Y-6514D01*
X-2781Y-6547D01*
X-2881D01*
X-2815D02*
X-2748Y-6614D01*
X-2548D02*
X-2681D01*
X-2548Y-6481D01*
Y-6448D01*
X-2581Y-6414D01*
X-2648D01*
X-2681Y-6448D01*
X-2348Y-6414D02*
X-2415Y-6448D01*
X-2481Y-6514D01*
Y-6581D01*
X-2448Y-6614D01*
X-2381D01*
X-2348Y-6581D01*
Y-6547D01*
X-2381Y-6514D01*
X-2481D01*
X-1150Y-7663D02*
X-1350D01*
Y-7563D01*
X-1317Y-7530D01*
X-1250D01*
X-1217Y-7563D01*
Y-7663D01*
Y-7596D02*
X-1150Y-7530D01*
Y-7330D02*
Y-7463D01*
X-1284Y-7330D01*
X-1317D01*
X-1350Y-7363D01*
Y-7430D01*
X-1317Y-7463D01*
X-1350Y-7130D02*
Y-7263D01*
X-1250D01*
X-1284Y-7197D01*
Y-7163D01*
X-1250Y-7130D01*
X-1184D01*
X-1150Y-7163D01*
Y-7230D01*
X-1184Y-7263D01*
X1403Y8954D02*
Y9154D01*
X1503D01*
X1536Y9121D01*
Y9054D01*
X1503Y9021D01*
X1403D01*
X1469D02*
X1536Y8954D01*
X1736D02*
X1603D01*
X1736Y9087D01*
Y9121D01*
X1703Y9154D01*
X1636D01*
X1603Y9121D01*
X1903Y8954D02*
Y9154D01*
X1803Y9054D01*
X1936D01*
X5462Y2210D02*
X5262D01*
Y2310D01*
X5295Y2344D01*
X5362D01*
X5395Y2310D01*
Y2210D01*
Y2277D02*
X5462Y2344D01*
Y2544D02*
Y2410D01*
X5328Y2544D01*
X5295D01*
X5262Y2510D01*
Y2444D01*
X5295Y2410D01*
X5462Y2743D02*
Y2610D01*
X5328Y2743D01*
X5295D01*
X5262Y2710D01*
Y2643D01*
X5295Y2610D01*
X5629Y642D02*
X5456Y742D01*
X5506Y828D01*
X5551Y840D01*
X5609Y807D01*
X5621Y762D01*
X5571Y675D01*
X5604Y733D02*
X5696Y757D01*
X5795Y930D02*
X5729Y815D01*
X5680Y997D01*
X5651Y1014D01*
X5606Y1001D01*
X5572Y944D01*
X5585Y898D01*
X5829Y988D02*
X5862Y1046D01*
X5845Y1017D01*
X5672Y1117D01*
X5685Y1071D01*
X2887Y2220D02*
X2687D01*
Y2320D01*
X2720Y2353D01*
X2787D01*
X2820Y2320D01*
Y2220D01*
Y2287D02*
X2887Y2353D01*
Y2553D02*
Y2420D01*
X2753Y2553D01*
X2720D01*
X2687Y2520D01*
Y2453D01*
X2720Y2420D01*
Y2620D02*
X2687Y2653D01*
Y2720D01*
X2720Y2753D01*
X2853D01*
X2887Y2720D01*
Y2653D01*
X2853Y2620D01*
X2720D01*
X1595Y2864D02*
X1395D01*
Y2964D01*
X1429Y2997D01*
X1495D01*
X1529Y2964D01*
Y2864D01*
Y2931D02*
X1595Y2997D01*
Y3064D02*
Y3131D01*
Y3097D01*
X1395D01*
X1429Y3064D01*
X1562Y3231D02*
X1595Y3264D01*
Y3331D01*
X1562Y3364D01*
X1429D01*
X1395Y3331D01*
Y3264D01*
X1429Y3231D01*
X1462D01*
X1495Y3264D01*
Y3364D01*
X3807Y2461D02*
Y2661D01*
X3907D01*
X3941Y2628D01*
Y2561D01*
X3907Y2528D01*
X3807D01*
X3874D02*
X3941Y2461D01*
X4007D02*
X4074D01*
X4041D01*
Y2661D01*
X4007Y2628D01*
X4174D02*
X4207Y2661D01*
X4274D01*
X4307Y2628D01*
Y2595D01*
X4274Y2561D01*
X4307Y2528D01*
Y2495D01*
X4274Y2461D01*
X4207D01*
X4174Y2495D01*
Y2528D01*
X4207Y2561D01*
X4174Y2595D01*
Y2628D01*
X4207Y2561D02*
X4274D01*
X3328Y224D02*
Y423D01*
X3428D01*
X3461Y390D01*
Y324D01*
X3428Y290D01*
X3328D01*
X3395D02*
X3461Y224D01*
X3528D02*
X3595D01*
X3561D01*
Y423D01*
X3528Y390D01*
X3695Y423D02*
X3828D01*
Y390D01*
X3695Y257D01*
Y224D01*
X4864Y3933D02*
X4664D01*
Y4033D01*
X4697Y4067D01*
X4764D01*
X4797Y4033D01*
Y3933D01*
Y4000D02*
X4864Y4067D01*
Y4133D02*
Y4200D01*
Y4167D01*
X4664D01*
X4697Y4133D01*
X4664Y4433D02*
X4697Y4366D01*
X4764Y4300D01*
X4830D01*
X4864Y4333D01*
Y4400D01*
X4830Y4433D01*
X4797D01*
X4764Y4400D01*
Y4300D01*
X4320Y3922D02*
X4120D01*
Y4022D01*
X4154Y4056D01*
X4220D01*
X4254Y4022D01*
Y3922D01*
Y3989D02*
X4320Y4056D01*
Y4122D02*
Y4189D01*
Y4156D01*
X4120D01*
X4154Y4122D01*
X4120Y4422D02*
Y4289D01*
X4220D01*
X4187Y4356D01*
Y4389D01*
X4220Y4422D01*
X4287D01*
X4320Y4389D01*
Y4322D01*
X4287Y4289D01*
X4675Y-2742D02*
Y-2542D01*
X4775D01*
X4809Y-2575D01*
Y-2642D01*
X4775Y-2675D01*
X4675D01*
X4742D02*
X4809Y-2742D01*
X4875D02*
X4942D01*
X4909D01*
Y-2542D01*
X4875Y-2575D01*
X5142Y-2742D02*
Y-2542D01*
X5042Y-2642D01*
X5175D01*
X4038Y-2746D02*
Y-2546D01*
X4138D01*
X4172Y-2579D01*
Y-2646D01*
X4138Y-2679D01*
X4038D01*
X4105D02*
X4172Y-2746D01*
X4238D02*
X4305D01*
X4272D01*
Y-2546D01*
X4238Y-2579D01*
X4405D02*
X4438Y-2546D01*
X4505D01*
X4538Y-2579D01*
Y-2612D01*
X4505Y-2646D01*
X4472D01*
X4505D01*
X4538Y-2679D01*
Y-2712D01*
X4505Y-2746D01*
X4438D01*
X4405Y-2712D01*
X163Y-6521D02*
Y-6321D01*
X263D01*
X297Y-6354D01*
Y-6421D01*
X263Y-6454D01*
X163D01*
X230D02*
X297Y-6521D01*
X363D02*
X430D01*
X397D01*
Y-6321D01*
X363Y-6354D01*
X663Y-6521D02*
X530D01*
X663Y-6387D01*
Y-6354D01*
X630Y-6321D01*
X563D01*
X530Y-6354D01*
X1023Y-3894D02*
Y-3694D01*
X1123D01*
X1157Y-3727D01*
Y-3794D01*
X1123Y-3827D01*
X1023D01*
X1090D02*
X1157Y-3894D01*
X1223D02*
X1290D01*
X1257D01*
Y-3694D01*
X1223Y-3727D01*
X1390Y-3894D02*
X1457D01*
X1423D01*
Y-3694D01*
X1390Y-3727D01*
X1010Y-4249D02*
Y-4049D01*
X1110D01*
X1143Y-4082D01*
Y-4149D01*
X1110Y-4182D01*
X1010D01*
X1076D02*
X1143Y-4249D01*
X1209D02*
X1276D01*
X1243D01*
Y-4049D01*
X1209Y-4082D01*
X1376D02*
X1409Y-4049D01*
X1476D01*
X1509Y-4082D01*
Y-4216D01*
X1476Y-4249D01*
X1409D01*
X1376Y-4216D01*
Y-4082D01*
X1865Y-6616D02*
Y-6416D01*
X1965D01*
X1998Y-6450D01*
Y-6516D01*
X1965Y-6550D01*
X1865D01*
X1932D02*
X1998Y-6616D01*
X2065Y-6583D02*
X2098Y-6616D01*
X2165D01*
X2198Y-6583D01*
Y-6450D01*
X2165Y-6416D01*
X2098D01*
X2065Y-6450D01*
Y-6483D01*
X2098Y-6516D01*
X2198D01*
X-4671Y-4109D02*
Y-3909D01*
X-4571D01*
X-4538Y-3942D01*
Y-4009D01*
X-4571Y-4042D01*
X-4671D01*
X-4605D02*
X-4538Y-4109D01*
X-4471Y-3942D02*
X-4438Y-3909D01*
X-4371D01*
X-4338Y-3942D01*
Y-3976D01*
X-4371Y-4009D01*
X-4338Y-4042D01*
Y-4076D01*
X-4371Y-4109D01*
X-4438D01*
X-4471Y-4076D01*
Y-4042D01*
X-4438Y-4009D01*
X-4471Y-3976D01*
Y-3942D01*
X-4438Y-4009D02*
X-4371D01*
X6634Y-6042D02*
X6734Y-5869D01*
X6820Y-5919D01*
X6833Y-5964D01*
X6799Y-6022D01*
X6754Y-6034D01*
X6667Y-5984D01*
X6725Y-6018D02*
X6749Y-6109D01*
X6907Y-5969D02*
X7022Y-6036D01*
X7006Y-6064D01*
X6824Y-6113D01*
X6807Y-6142D01*
X4875Y-3883D02*
X4675D01*
Y-3783D01*
X4709Y-3750D01*
X4775D01*
X4809Y-3783D01*
Y-3883D01*
Y-3817D02*
X4875Y-3750D01*
X4675Y-3550D02*
X4709Y-3617D01*
X4775Y-3683D01*
X4842D01*
X4875Y-3650D01*
Y-3583D01*
X4842Y-3550D01*
X4809D01*
X4775Y-3583D01*
Y-3683D01*
X4683Y-5936D02*
Y-5736D01*
X4783D01*
X4817Y-5770D01*
Y-5836D01*
X4783Y-5870D01*
X4683D01*
X4750D02*
X4817Y-5936D01*
X5017Y-5736D02*
X4883D01*
Y-5836D01*
X4950Y-5803D01*
X4983D01*
X5017Y-5836D01*
Y-5903D01*
X4983Y-5936D01*
X4917D01*
X4883Y-5903D01*
X3727Y6283D02*
X3900Y6383D01*
X3950Y6296D01*
X3938Y6251D01*
X3880Y6217D01*
X3835Y6230D01*
X3785Y6316D01*
X3942Y6176D02*
X3856Y6126D01*
X3844Y6081D01*
X3894Y5994D01*
X4009Y6061D01*
X3927Y5937D02*
X3960Y5879D01*
X3944Y5908D01*
X4117Y6008D01*
X4100Y6037D01*
X4010Y5792D02*
X4060Y5706D01*
X4106Y5694D01*
X4118Y5739D01*
X4085Y5797D01*
X4097Y5842D01*
X4142Y5830D01*
X4192Y5744D01*
X4160Y5533D02*
X4127Y5590D01*
X4139Y5636D01*
X4197Y5669D01*
X4242Y5657D01*
X4276Y5599D01*
X4263Y5554D01*
X4235Y5537D01*
X4168Y5652D01*
X-1277Y-2272D02*
X-1343D01*
X-1310D01*
Y-2439D01*
X-1343Y-2472D01*
X-1377D01*
X-1410Y-2439D01*
X-1077Y-2472D02*
X-1210D01*
X-1077Y-2339D01*
Y-2306D01*
X-1110Y-2272D01*
X-1177D01*
X-1210Y-2306D01*
X10035Y2252D02*
X9969D01*
X10002D01*
Y2085D01*
X9969Y2052D01*
X9935D01*
X9902Y2085D01*
X10102Y2052D02*
X10169D01*
X10135D01*
Y2252D01*
X10102Y2218D01*
X353Y9901D02*
X320Y9934D01*
X254D01*
X220Y9901D01*
Y9768D01*
X254Y9734D01*
X320D01*
X353Y9768D01*
Y9834D01*
X287D01*
X420Y9734D02*
Y9934D01*
X553Y9734D01*
Y9934D01*
X620D02*
Y9734D01*
X720D01*
X753Y9768D01*
Y9901D01*
X720Y9934D01*
X620D01*
X-7709Y2061D02*
X-7808Y1888D01*
X-7722Y1838D01*
X-7676Y1850D01*
X-7610Y1966D01*
X-7622Y2011D01*
X-7709Y2061D01*
X-7635Y1788D02*
X-7578Y1755D01*
X-7606Y1772D01*
X-7506Y1945D01*
X-7552Y1933D01*
X-7491Y1705D02*
X-7433Y1672D01*
X-7462Y1688D01*
X-7362Y1861D01*
X-7408Y1849D01*
X-8246Y1066D02*
X-8346Y893D01*
X-8260Y843D01*
X-8214Y855D01*
X-8148Y970D01*
X-8160Y1016D01*
X-8246Y1066D01*
X-8157Y821D02*
X-8144Y776D01*
X-8087Y743D01*
X-8041Y755D01*
X-7975Y870D01*
X-7987Y916D01*
X-8044Y949D01*
X-8090Y937D01*
X-8107Y908D01*
X-8094Y863D01*
X-8008Y813D01*
X-8017Y1552D02*
X-8117Y1378D01*
X-8030Y1328D01*
X-7985Y1341D01*
X-7918Y1456D01*
X-7930Y1502D01*
X-8017Y1552D01*
X-7944Y1278D02*
X-7886Y1245D01*
X-7915Y1262D01*
X-7815Y1435D01*
X-7861Y1423D01*
X-7716Y1339D02*
X-7671Y1352D01*
X-7613Y1318D01*
X-7601Y1273D01*
X-7667Y1157D01*
X-7713Y1145D01*
X-7771Y1178D01*
X-7783Y1224D01*
X-7716Y1339D01*
X6424Y2657D02*
Y2457D01*
X6524D01*
X6557Y2490D01*
Y2624D01*
X6524Y2657D01*
X6424D01*
X6757D02*
X6624D01*
Y2557D01*
X6691Y2590D01*
X6724D01*
X6757Y2557D01*
Y2490D01*
X6724Y2457D01*
X6657D01*
X6624Y2490D01*
X5984Y2683D02*
Y2483D01*
X6084D01*
X6118Y2516D01*
Y2650D01*
X6084Y2683D01*
X5984D01*
X6284Y2483D02*
Y2683D01*
X6184Y2583D01*
X6317D01*
X6384Y-1682D02*
Y-1882D01*
X6484D01*
X6517Y-1849D01*
Y-1716D01*
X6484Y-1682D01*
X6384D01*
X6584Y-1716D02*
X6617Y-1682D01*
X6684D01*
X6717Y-1716D01*
Y-1749D01*
X6684Y-1782D01*
X6651D01*
X6684D01*
X6717Y-1816D01*
Y-1849D01*
X6684Y-1882D01*
X6617D01*
X6584Y-1849D01*
X8003Y-2381D02*
X8203D01*
Y-2281D01*
X8169Y-2248D01*
X8036D01*
X8003Y-2281D01*
Y-2381D01*
X8203Y-2048D02*
Y-2181D01*
X8069Y-2048D01*
X8036D01*
X8003Y-2081D01*
Y-2148D01*
X8036Y-2181D01*
X9730Y2621D02*
Y2421D01*
X9830D01*
X9863Y2454D01*
Y2588D01*
X9830Y2621D01*
X9730D01*
X9930Y2421D02*
X9997D01*
X9963D01*
Y2621D01*
X9930Y2588D01*
X-1502Y-6086D02*
X-1535Y-6052D01*
X-1602D01*
X-1635Y-6086D01*
Y-6219D01*
X-1602Y-6252D01*
X-1535D01*
X-1502Y-6219D01*
X-1302Y-6086D02*
X-1335Y-6052D01*
X-1402D01*
X-1435Y-6086D01*
Y-6219D01*
X-1402Y-6252D01*
X-1335D01*
X-1302Y-6219D01*
X-1102Y-6252D02*
X-1235D01*
X-1102Y-6119D01*
Y-6086D01*
X-1135Y-6052D01*
X-1202D01*
X-1235Y-6086D01*
X-1522Y-6836D02*
X-1555Y-6803D01*
X-1622D01*
X-1655Y-6836D01*
Y-6969D01*
X-1622Y-7003D01*
X-1555D01*
X-1522Y-6969D01*
X-1322Y-6836D02*
X-1355Y-6803D01*
X-1422D01*
X-1455Y-6836D01*
Y-6969D01*
X-1422Y-7003D01*
X-1355D01*
X-1322Y-6969D01*
X-1255Y-7003D02*
X-1188D01*
X-1222D01*
Y-6803D01*
X-1255Y-6836D01*
X-6240Y-7107D02*
X-6228Y-7061D01*
X-6261Y-7004D01*
X-6307Y-6991D01*
X-6422Y-7058D01*
X-6434Y-7103D01*
X-6401Y-7161D01*
X-6356Y-7173D01*
X-6207Y-7164D02*
X-6161Y-7177D01*
X-6128Y-7234D01*
X-6140Y-7280D01*
X-6169Y-7297D01*
X-6215Y-7284D01*
X-6231Y-7256D01*
X-6215Y-7284D01*
X-6227Y-7330D01*
X-6256Y-7347D01*
X-6301Y-7334D01*
X-6334Y-7277D01*
X-6322Y-7231D01*
X-6011Y-7436D02*
X-6078Y-7321D01*
X-6165Y-7371D01*
X-6102Y-7412D01*
X-6086Y-7441D01*
X-6098Y-7486D01*
X-6156Y-7520D01*
X-6201Y-7508D01*
X-6234Y-7450D01*
X-6222Y-7404D01*
X-6483Y-7263D02*
X-6470Y-7217D01*
X-6504Y-7159D01*
X-6549Y-7147D01*
X-6665Y-7214D01*
X-6677Y-7259D01*
X-6644Y-7317D01*
X-6598Y-7329D01*
X-6449Y-7320D02*
X-6404Y-7333D01*
X-6370Y-7390D01*
X-6383Y-7436D01*
X-6411Y-7452D01*
X-6457Y-7440D01*
X-6474Y-7411D01*
X-6457Y-7440D01*
X-6469Y-7486D01*
X-6498Y-7502D01*
X-6544Y-7490D01*
X-6577Y-7433D01*
X-6565Y-7387D01*
X-6444Y-7663D02*
X-6270Y-7563D01*
X-6407Y-7527D01*
X-6340Y-7642D01*
X-5059Y-7513D02*
X-5047Y-7468D01*
X-5080Y-7410D01*
X-5126Y-7398D01*
X-5241Y-7464D01*
X-5253Y-7510D01*
X-5220Y-7568D01*
X-5175Y-7580D01*
X-5026Y-7571D02*
X-4980Y-7583D01*
X-4947Y-7641D01*
X-4959Y-7686D01*
X-4988Y-7703D01*
X-5034Y-7691D01*
X-5050Y-7662D01*
X-5034Y-7691D01*
X-5046Y-7736D01*
X-5075Y-7753D01*
X-5120Y-7741D01*
X-5154Y-7683D01*
X-5141Y-7638D01*
X-4926Y-7744D02*
X-4880Y-7756D01*
X-4847Y-7814D01*
X-4859Y-7860D01*
X-4888Y-7876D01*
X-4934Y-7864D01*
X-4950Y-7835D01*
X-4934Y-7864D01*
X-4946Y-7910D01*
X-4975Y-7926D01*
X-5020Y-7914D01*
X-5054Y-7856D01*
X-5041Y-7811D01*
X-4615Y-8358D02*
X-4661Y-8346D01*
X-4718Y-8379D01*
X-4730Y-8425D01*
X-4664Y-8540D01*
X-4618Y-8553D01*
X-4561Y-8519D01*
X-4548Y-8474D01*
X-4557Y-8325D02*
X-4545Y-8279D01*
X-4487Y-8246D01*
X-4442Y-8258D01*
X-4425Y-8287D01*
X-4437Y-8333D01*
X-4466Y-8349D01*
X-4437Y-8333D01*
X-4392Y-8345D01*
X-4375Y-8374D01*
X-4387Y-8419D01*
X-4445Y-8453D01*
X-4491Y-8440D01*
X-4185Y-8303D02*
X-4301Y-8369D01*
X-4252Y-8187D01*
X-4269Y-8158D01*
X-4314Y-8146D01*
X-4372Y-8179D01*
X-4384Y-8225D01*
X3359Y8169D02*
X3326Y8202D01*
X3259D01*
X3226Y8169D01*
Y8036D01*
X3259Y8002D01*
X3326D01*
X3359Y8036D01*
X3426Y8169D02*
X3459Y8202D01*
X3526D01*
X3559Y8169D01*
Y8135D01*
X3526Y8102D01*
X3492D01*
X3526D01*
X3559Y8069D01*
Y8036D01*
X3526Y8002D01*
X3459D01*
X3426Y8036D01*
X3626Y8002D02*
X3692D01*
X3659D01*
Y8202D01*
X3626Y8169D01*
X4965Y312D02*
X4932Y346D01*
X4865D01*
X4832Y312D01*
Y179D01*
X4865Y146D01*
X4932D01*
X4965Y179D01*
X5032Y312D02*
X5065Y346D01*
X5132D01*
X5165Y312D01*
Y279D01*
X5132Y246D01*
X5098D01*
X5132D01*
X5165Y212D01*
Y179D01*
X5132Y146D01*
X5065D01*
X5032Y179D01*
X5232Y312D02*
X5265Y346D01*
X5332D01*
X5365Y312D01*
Y179D01*
X5332Y146D01*
X5265D01*
X5232Y179D01*
Y312D01*
X4981Y-145D02*
X4948Y-111D01*
X4881D01*
X4848Y-145D01*
Y-278D01*
X4881Y-311D01*
X4948D01*
X4981Y-278D01*
X5181Y-311D02*
X5048D01*
X5181Y-178D01*
Y-145D01*
X5148Y-111D01*
X5081D01*
X5048Y-145D01*
X5248Y-278D02*
X5281Y-311D01*
X5348D01*
X5381Y-278D01*
Y-145D01*
X5348Y-111D01*
X5281D01*
X5248Y-145D01*
Y-178D01*
X5281Y-211D01*
X5381D01*
X5315Y-944D02*
X5281Y-978D01*
Y-1044D01*
X5315Y-1078D01*
X5448D01*
X5481Y-1044D01*
Y-978D01*
X5448Y-944D01*
X5481Y-745D02*
Y-878D01*
X5348Y-745D01*
X5315D01*
X5281Y-778D01*
Y-844D01*
X5315Y-878D01*
X5281Y-678D02*
Y-545D01*
X5315D01*
X5448Y-678D01*
X5481D01*
X1449Y6289D02*
X1416Y6323D01*
X1349D01*
X1316Y6289D01*
Y6156D01*
X1349Y6123D01*
X1416D01*
X1449Y6156D01*
X1649Y6123D02*
X1516D01*
X1649Y6256D01*
Y6289D01*
X1616Y6323D01*
X1549D01*
X1516Y6289D01*
X1849Y6323D02*
X1716D01*
Y6223D01*
X1783Y6256D01*
X1816D01*
X1849Y6223D01*
Y6156D01*
X1816Y6123D01*
X1749D01*
X1716Y6156D01*
X2626Y-3096D02*
X2593Y-3063D01*
X2526D01*
X2493Y-3096D01*
Y-3229D01*
X2526Y-3263D01*
X2593D01*
X2626Y-3229D01*
X2826Y-3263D02*
X2693D01*
X2826Y-3130D01*
Y-3096D01*
X2793Y-3063D01*
X2726D01*
X2693Y-3096D01*
X2893D02*
X2926Y-3063D01*
X2993D01*
X3026Y-3096D01*
Y-3130D01*
X2993Y-3163D01*
X2960D01*
X2993D01*
X3026Y-3196D01*
Y-3229D01*
X2993Y-3263D01*
X2926D01*
X2893Y-3229D01*
X2626Y-3484D02*
X2593Y-3451D01*
X2526D01*
X2493Y-3484D01*
Y-3618D01*
X2526Y-3651D01*
X2593D01*
X2626Y-3618D01*
X2826Y-3651D02*
X2693D01*
X2826Y-3518D01*
Y-3484D01*
X2793Y-3451D01*
X2726D01*
X2693Y-3484D01*
X3026Y-3651D02*
X2893D01*
X3026Y-3518D01*
Y-3484D01*
X2993Y-3451D01*
X2926D01*
X2893Y-3484D01*
X313Y-2800D02*
X280Y-2767D01*
X213D01*
X180Y-2800D01*
Y-2933D01*
X213Y-2966D01*
X280D01*
X313Y-2933D01*
X513Y-2966D02*
X380D01*
X513Y-2833D01*
Y-2800D01*
X480Y-2767D01*
X413D01*
X380Y-2800D01*
X580Y-2966D02*
X647D01*
X613D01*
Y-2767D01*
X580Y-2800D01*
X-7239Y-6460D02*
X-7284Y-6448D01*
X-7342Y-6481D01*
X-7354Y-6527D01*
X-7288Y-6642D01*
X-7242Y-6655D01*
X-7184Y-6621D01*
X-7172Y-6576D01*
X-6982Y-6505D02*
X-7098Y-6571D01*
X-7049Y-6389D01*
X-7066Y-6360D01*
X-7111Y-6348D01*
X-7169Y-6381D01*
X-7181Y-6427D01*
X-7008Y-6327D02*
X-6996Y-6282D01*
X-6938Y-6248D01*
X-6893Y-6260D01*
X-6826Y-6376D01*
X-6838Y-6421D01*
X-6896Y-6455D01*
X-6941Y-6442D01*
X-7008Y-6327D01*
X-7085Y-6725D02*
X-7130Y-6713D01*
X-7188Y-6746D01*
X-7200Y-6792D01*
X-7134Y-6907D01*
X-7088Y-6920D01*
X-7030Y-6886D01*
X-7018Y-6841D01*
X-6944Y-6836D02*
X-6886Y-6803D01*
X-6915Y-6820D01*
X-7015Y-6647D01*
X-7027Y-6692D01*
X-6816Y-6724D02*
X-6771Y-6736D01*
X-6713Y-6703D01*
X-6701Y-6658D01*
X-6767Y-6542D01*
X-6813Y-6530D01*
X-6871Y-6563D01*
X-6883Y-6609D01*
X-6866Y-6638D01*
X-6821Y-6650D01*
X-6734Y-6600D01*
X297Y-3168D02*
X263Y-3135D01*
X197D01*
X163Y-3168D01*
Y-3302D01*
X197Y-3335D01*
X263D01*
X297Y-3302D01*
X363Y-3335D02*
X430D01*
X397D01*
Y-3135D01*
X363Y-3168D01*
X530Y-3135D02*
X663D01*
Y-3168D01*
X530Y-3302D01*
Y-3335D01*
X-136Y-7050D02*
X-170Y-7016D01*
X-236D01*
X-270Y-7050D01*
Y-7183D01*
X-236Y-7216D01*
X-170D01*
X-136Y-7183D01*
X-70Y-7216D02*
X-3D01*
X-36D01*
Y-7016D01*
X-70Y-7050D01*
X230Y-7016D02*
X164Y-7050D01*
X97Y-7116D01*
Y-7183D01*
X130Y-7216D01*
X197D01*
X230Y-7183D01*
Y-7150D01*
X197Y-7116D01*
X97D01*
X1251Y-6520D02*
X1218Y-6554D01*
Y-6620D01*
X1251Y-6654D01*
X1385D01*
X1418Y-6620D01*
Y-6554D01*
X1385Y-6520D01*
X1418Y-6454D02*
Y-6387D01*
Y-6420D01*
X1218D01*
X1251Y-6454D01*
X1218Y-6154D02*
Y-6287D01*
X1318D01*
X1285Y-6221D01*
Y-6187D01*
X1318Y-6154D01*
X1385D01*
X1418Y-6187D01*
Y-6254D01*
X1385Y-6287D01*
X5354Y-5219D02*
X5308Y-5231D01*
X5275Y-5289D01*
X5287Y-5334D01*
X5403Y-5401D01*
X5448Y-5389D01*
X5481Y-5331D01*
X5469Y-5285D01*
X5531Y-5244D02*
X5565Y-5187D01*
X5548Y-5215D01*
X5375Y-5116D01*
X5387Y-5161D01*
X5665Y-5013D02*
X5492Y-4913D01*
X5528Y-5050D01*
X5595Y-4935D01*
X845Y-6537D02*
X812Y-6571D01*
Y-6637D01*
X845Y-6671D01*
X979D01*
X1012Y-6637D01*
Y-6571D01*
X979Y-6537D01*
X1012Y-6471D02*
Y-6404D01*
Y-6437D01*
X812D01*
X845Y-6471D01*
Y-6304D02*
X812Y-6271D01*
Y-6204D01*
X845Y-6171D01*
X879D01*
X912Y-6204D01*
Y-6238D01*
Y-6204D01*
X945Y-6171D01*
X979D01*
X1012Y-6204D01*
Y-6271D01*
X979Y-6304D01*
X-8129Y-5245D02*
X-8117Y-5200D01*
X-8151Y-5142D01*
X-8196Y-5130D01*
X-8311Y-5196D01*
X-8324Y-5242D01*
X-8290Y-5300D01*
X-8245Y-5312D01*
X-8240Y-5386D02*
X-8207Y-5444D01*
X-8224Y-5415D01*
X-8051Y-5315D01*
X-8096Y-5303D01*
X-8090Y-5646D02*
X-8157Y-5530D01*
X-7975Y-5579D01*
X-7946Y-5563D01*
X-7934Y-5517D01*
X-7967Y-5459D01*
X-8013Y-5447D01*
X5451Y-5816D02*
X5439Y-5771D01*
X5381Y-5737D01*
X5336Y-5750D01*
X5269Y-5865D01*
X5281Y-5911D01*
X5339Y-5944D01*
X5385Y-5932D01*
X5426Y-5994D02*
X5483Y-6027D01*
X5455Y-6011D01*
X5555Y-5837D01*
X5509Y-5850D01*
X5570Y-6077D02*
X5628Y-6111D01*
X5599Y-6094D01*
X5699Y-5921D01*
X5653Y-5933D01*
X1223Y-9451D02*
X1190Y-9418D01*
X1123D01*
X1090Y-9451D01*
Y-9584D01*
X1123Y-9618D01*
X1190D01*
X1223Y-9584D01*
X1290Y-9618D02*
X1357D01*
X1323D01*
Y-9418D01*
X1290Y-9451D01*
X1457D02*
X1490Y-9418D01*
X1556D01*
X1590Y-9451D01*
Y-9584D01*
X1556Y-9618D01*
X1490D01*
X1457Y-9584D01*
Y-9451D01*
X2726Y-9498D02*
X2693Y-9464D01*
X2626D01*
X2593Y-9498D01*
Y-9631D01*
X2626Y-9664D01*
X2693D01*
X2726Y-9631D01*
X2793D02*
X2826Y-9664D01*
X2893D01*
X2926Y-9631D01*
Y-9498D01*
X2893Y-9464D01*
X2826D01*
X2793Y-9498D01*
Y-9531D01*
X2826Y-9564D01*
X2926D01*
X-8206Y3036D02*
X-8251Y3023D01*
X-8285Y2966D01*
X-8272Y2920D01*
X-8157Y2854D01*
X-8111Y2866D01*
X-8078Y2924D01*
X-8090Y2969D01*
X-8172Y3093D02*
X-8185Y3139D01*
X-8151Y3197D01*
X-8106Y3209D01*
X-8077Y3192D01*
X-8065Y3147D01*
X-8019Y3159D01*
X-7990Y3142D01*
X-7978Y3097D01*
X-8011Y3039D01*
X-8057Y3027D01*
X-8086Y3043D01*
X-8098Y3089D01*
X-8144Y3077D01*
X-8172Y3093D01*
X-8098Y3089D02*
X-8065Y3147D01*
X-7113Y4812D02*
X-7158Y4800D01*
X-7191Y4742D01*
X-7179Y4697D01*
X-7064Y4630D01*
X-7018Y4642D01*
X-6985Y4700D01*
X-6997Y4746D01*
X-7108Y4887D02*
X-7041Y5002D01*
X-7013Y4985D01*
X-6964Y4803D01*
X-6935Y4787D01*
X7124Y6112D02*
X7079Y6124D01*
X7021Y6091D01*
X7009Y6046D01*
X7075Y5930D01*
X7121Y5918D01*
X7179Y5951D01*
X7191Y5997D01*
X7281Y6241D02*
X7240Y6179D01*
X7215Y6088D01*
X7249Y6030D01*
X7294Y6018D01*
X7352Y6051D01*
X7364Y6097D01*
X7347Y6126D01*
X7302Y6138D01*
X7215Y6088D01*
X5165Y3180D02*
X5132Y3147D01*
Y3080D01*
X5165Y3047D01*
X5298D01*
X5332Y3080D01*
Y3147D01*
X5298Y3180D01*
X5132Y3380D02*
Y3247D01*
X5232D01*
X5198Y3314D01*
Y3347D01*
X5232Y3380D01*
X5298D01*
X5332Y3347D01*
Y3280D01*
X5298Y3247D01*
X4569Y5911D02*
X4581Y5957D01*
X4547Y6014D01*
X4502Y6027D01*
X4387Y5960D01*
X4374Y5914D01*
X4408Y5857D01*
X4453Y5845D01*
X4508Y5684D02*
X4681Y5784D01*
X4544Y5820D01*
X4611Y5705D01*
X7232Y5686D02*
X7198Y5652D01*
Y5586D01*
X7232Y5552D01*
X7365D01*
X7398Y5586D01*
Y5652D01*
X7365Y5686D01*
X7232Y5752D02*
X7198Y5786D01*
Y5852D01*
X7232Y5886D01*
X7265D01*
X7298Y5852D01*
Y5819D01*
Y5852D01*
X7332Y5886D01*
X7365D01*
X7398Y5852D01*
Y5786D01*
X7365Y5752D01*
X4258Y7102D02*
X4213Y7114D01*
X4155Y7081D01*
X4143Y7035D01*
X4209Y6920D01*
X4255Y6908D01*
X4313Y6941D01*
X4325Y6986D01*
X4515Y7058D02*
X4399Y6991D01*
X4448Y7173D01*
X4431Y7202D01*
X4386Y7214D01*
X4328Y7181D01*
X4316Y7135D01*
X8544Y4865D02*
X8511Y4898D01*
X8445D01*
X8411Y4865D01*
Y4731D01*
X8445Y4698D01*
X8511D01*
X8544Y4731D01*
X8611Y4698D02*
X8678D01*
X8644D01*
Y4898D01*
X8611Y4865D01*
X5507Y-7060D02*
X5441Y-7176D01*
X5527Y-7226D01*
X5561Y-7168D01*
X5527Y-7226D01*
X5614Y-7276D01*
X5541Y-7003D02*
X5574Y-6945D01*
X5557Y-6974D01*
X5730Y-7074D01*
X5714Y-7102D01*
X5747Y-7045D01*
X5624Y-6858D02*
X5797Y-6958D01*
X5847Y-6872D01*
X5835Y-6826D01*
X5719Y-6759D01*
X5674Y-6772D01*
X5624Y-6858D01*
X5964Y-6670D02*
X5897Y-6785D01*
X5848Y-6603D01*
X5819Y-6586D01*
X5774Y-6599D01*
X5741Y-6656D01*
X5753Y-6702D01*
X1862Y8087D02*
X1829Y8120D01*
X1762D01*
X1729Y8087D01*
Y7954D01*
X1762Y7920D01*
X1829D01*
X1862Y7954D01*
X1929Y8120D02*
Y7920D01*
X2062D01*
X2129Y8120D02*
Y7920D01*
Y7987D01*
X2262Y8120D01*
X2162Y8020D01*
X2262Y7920D01*
X-6422Y8032D02*
Y8232D01*
X-6323D01*
X-6289Y8199D01*
Y8132D01*
X-6323Y8099D01*
X-6422D01*
X-6356D02*
X-6289Y8032D01*
X-6089Y8232D02*
X-6223D01*
Y8132D01*
X-6156D01*
X-6223D01*
Y8032D01*
X-6023D02*
X-5956D01*
X-5989D01*
Y8232D01*
X-6023Y8199D01*
X-564Y-2114D02*
Y-2281D01*
X-531Y-2314D01*
X-464D01*
X-431Y-2281D01*
Y-2114D01*
X-364Y-2314D02*
X-298D01*
X-331D01*
Y-2114D01*
X-364Y-2148D01*
X-198D02*
X-164Y-2114D01*
X-98D01*
X-64Y-2148D01*
Y-2181D01*
X-98Y-2214D01*
X-131D01*
X-98D01*
X-64Y-2248D01*
Y-2281D01*
X-98Y-2314D01*
X-164D01*
X-198Y-2281D01*
X-3299Y-2324D02*
X-3333Y-2291D01*
X-3399D01*
X-3433Y-2324D01*
Y-2457D01*
X-3399Y-2491D01*
X-3333D01*
X-3299Y-2457D01*
X-3133Y-2491D02*
Y-2291D01*
X-3233Y-2391D01*
X-3099D01*
X-3033Y-2324D02*
X-3000Y-2291D01*
X-2933D01*
X-2900Y-2324D01*
Y-2457D01*
X-2933Y-2491D01*
X-3000D01*
X-3033Y-2457D01*
Y-2324D01*
X-6056Y7072D02*
X-6089Y7106D01*
X-6156D01*
X-6189Y7072D01*
Y6939D01*
X-6156Y6906D01*
X-6089D01*
X-6056Y6939D01*
X-5989Y7072D02*
X-5956Y7106D01*
X-5889D01*
X-5856Y7072D01*
Y7039D01*
X-5889Y7006D01*
X-5923D01*
X-5889D01*
X-5856Y6972D01*
Y6939D01*
X-5889Y6906D01*
X-5956D01*
X-5989Y6939D01*
X-5656Y7106D02*
X-5723Y7072D01*
X-5789Y7006D01*
Y6939D01*
X-5756Y6906D01*
X-5689D01*
X-5656Y6939D01*
Y6972D01*
X-5689Y7006D01*
X-5789D01*
X-4409Y6699D02*
X-4443Y6666D01*
Y6599D01*
X-4409Y6566D01*
X-4276D01*
X-4243Y6599D01*
Y6666D01*
X-4276Y6699D01*
X-4443Y6899D02*
Y6766D01*
X-4343D01*
X-4376Y6832D01*
Y6866D01*
X-4343Y6899D01*
X-4276D01*
X-4243Y6866D01*
Y6799D01*
X-4276Y6766D01*
X-4243Y6966D02*
Y7032D01*
Y6999D01*
X-4443D01*
X-4409Y6966D01*
X-4143Y6991D02*
X-4176Y6958D01*
Y6891D01*
X-4143Y6858D01*
X-4010D01*
X-3976Y6891D01*
Y6958D01*
X-4010Y6991D01*
X-3976Y7158D02*
X-4176D01*
X-4076Y7058D01*
Y7191D01*
X-4176Y7391D02*
X-4143Y7325D01*
X-4076Y7258D01*
X-4010D01*
X-3976Y7291D01*
Y7358D01*
X-4010Y7391D01*
X-4043D01*
X-4076Y7358D01*
Y7258D01*
X-2390Y-2304D02*
X-2423Y-2271D01*
X-2490D01*
X-2523Y-2304D01*
Y-2437D01*
X-2490Y-2471D01*
X-2423D01*
X-2390Y-2437D01*
X-2190Y-2471D02*
X-2323D01*
X-2190Y-2337D01*
Y-2304D01*
X-2223Y-2271D01*
X-2290D01*
X-2323Y-2304D01*
X-2024Y-2471D02*
Y-2271D01*
X-2123Y-2371D01*
X-1990D01*
X-4593Y1246D02*
Y1079D01*
X-4559Y1046D01*
X-4493D01*
X-4459Y1079D01*
Y1246D01*
X-4393Y1046D02*
X-4326D01*
X-4359D01*
Y1246D01*
X-4393Y1213D01*
X-4226Y1079D02*
X-4193Y1046D01*
X-4126D01*
X-4093Y1079D01*
Y1213D01*
X-4126Y1246D01*
X-4193D01*
X-4226Y1213D01*
Y1179D01*
X-4193Y1146D01*
X-4093D01*
X-7214Y-1765D02*
X-7147D01*
X-7181D01*
Y-1565D01*
X-7214Y-1598D01*
X-7048Y-1565D02*
Y-1698D01*
X-6981Y-1765D01*
X-6914Y-1698D01*
Y-1565D01*
X-6848Y-1598D02*
X-6814Y-1565D01*
X-6748D01*
X-6714Y-1598D01*
Y-1632D01*
X-6748Y-1665D01*
X-6714Y-1698D01*
Y-1732D01*
X-6748Y-1765D01*
X-6814D01*
X-6848Y-1732D01*
Y-1698D01*
X-6814Y-1665D01*
X-6848Y-1632D01*
Y-1598D01*
X-6814Y-1665D02*
X-6748D01*
X-6700Y-2211D02*
X-6667Y-2178D01*
X-6600D01*
X-6567Y-2211D01*
Y-2245D01*
X-6600Y-2278D01*
X-6633D01*
X-6600D01*
X-6567Y-2311D01*
Y-2344D01*
X-6600Y-2378D01*
X-6667D01*
X-6700Y-2344D01*
X-6500Y-2178D02*
Y-2311D01*
X-6433Y-2378D01*
X-6367Y-2311D01*
Y-2178D01*
X-6300Y-2211D02*
X-6267Y-2178D01*
X-6200D01*
X-6167Y-2211D01*
Y-2245D01*
X-6200Y-2278D01*
X-6233D01*
X-6200D01*
X-6167Y-2311D01*
Y-2344D01*
X-6200Y-2378D01*
X-6267D01*
X-6300Y-2344D01*
X-6028Y-2835D02*
X-6161D01*
Y-2935D01*
X-6094Y-2902D01*
X-6061D01*
X-6028Y-2935D01*
Y-3002D01*
X-6061Y-3035D01*
X-6127D01*
X-6161Y-3002D01*
X-5961Y-2835D02*
Y-2968D01*
X-5894Y-3035D01*
X-5828Y-2968D01*
Y-2835D01*
X-1878Y7410D02*
X-1745D01*
X-1811D01*
Y7210D01*
X-1678D02*
X-1611D01*
X-1645D01*
Y7410D01*
X-1678Y7376D01*
X-5876Y1802D02*
Y2002D01*
X-5776D01*
X-5743Y1968D01*
Y1902D01*
X-5776Y1868D01*
X-5876D01*
X-5809D02*
X-5743Y1802D01*
X-5676Y1968D02*
X-5643Y2002D01*
X-5576D01*
X-5543Y1968D01*
Y1935D01*
X-5576Y1902D01*
X-5609D01*
X-5576D01*
X-5543Y1868D01*
Y1835D01*
X-5576Y1802D01*
X-5643D01*
X-5676Y1835D01*
X-5476D02*
X-5443Y1802D01*
X-5376D01*
X-5343Y1835D01*
Y1968D01*
X-5376Y2002D01*
X-5443D01*
X-5476Y1968D01*
Y1935D01*
X-5443Y1902D01*
X-5343D01*
X-6111Y2551D02*
Y2751D01*
X-6011D01*
X-5978Y2718D01*
Y2651D01*
X-6011Y2618D01*
X-6111D01*
X-6045D02*
X-5978Y2551D01*
X-5911Y2718D02*
X-5878Y2751D01*
X-5811D01*
X-5778Y2718D01*
Y2684D01*
X-5811Y2651D01*
X-5845D01*
X-5811D01*
X-5778Y2618D01*
Y2584D01*
X-5811Y2551D01*
X-5878D01*
X-5911Y2584D01*
X-5712Y2718D02*
X-5678Y2751D01*
X-5612D01*
X-5578Y2718D01*
Y2684D01*
X-5612Y2651D01*
X-5578Y2618D01*
Y2584D01*
X-5612Y2551D01*
X-5678D01*
X-5712Y2584D01*
Y2618D01*
X-5678Y2651D01*
X-5712Y2684D01*
Y2718D01*
X-5678Y2651D02*
X-5612D01*
X-1861Y5238D02*
Y5438D01*
X-1761D01*
X-1728Y5405D01*
Y5338D01*
X-1761Y5305D01*
X-1861D01*
X-1795D02*
X-1728Y5238D01*
X-1661Y5405D02*
X-1628Y5438D01*
X-1562D01*
X-1528Y5405D01*
Y5372D01*
X-1562Y5338D01*
X-1595D01*
X-1562D01*
X-1528Y5305D01*
Y5272D01*
X-1562Y5238D01*
X-1628D01*
X-1661Y5272D01*
X-1462Y5438D02*
X-1328D01*
Y5405D01*
X-1462Y5272D01*
Y5238D01*
X241Y2906D02*
Y3106D01*
X341D01*
X374Y3072D01*
Y3006D01*
X341Y2972D01*
X241D01*
X307D02*
X374Y2906D01*
X441Y3072D02*
X474Y3106D01*
X541D01*
X574Y3072D01*
Y3039D01*
X541Y3006D01*
X507D01*
X541D01*
X574Y2972D01*
Y2939D01*
X541Y2906D01*
X474D01*
X441Y2939D01*
X774Y3106D02*
X707Y3072D01*
X641Y3006D01*
Y2939D01*
X674Y2906D01*
X741D01*
X774Y2939D01*
Y2972D01*
X741Y3006D01*
X641D01*
X486Y1969D02*
Y2169D01*
X586D01*
X620Y2136D01*
Y2069D01*
X586Y2036D01*
X486D01*
X553D02*
X620Y1969D01*
X686Y2136D02*
X720Y2169D01*
X786D01*
X820Y2136D01*
Y2102D01*
X786Y2069D01*
X753D01*
X786D01*
X820Y2036D01*
Y2002D01*
X786Y1969D01*
X720D01*
X686Y2002D01*
X1020Y2169D02*
X886D01*
Y2069D01*
X953Y2102D01*
X986D01*
X1020Y2069D01*
Y2002D01*
X986Y1969D01*
X920D01*
X886Y2002D01*
X1077Y-3444D02*
X877D01*
Y-3344D01*
X910Y-3311D01*
X977D01*
X1010Y-3344D01*
Y-3444D01*
Y-3378D02*
X1077Y-3311D01*
Y-3111D02*
Y-3244D01*
X943Y-3111D01*
X910D01*
X877Y-3144D01*
Y-3211D01*
X910Y-3244D01*
Y-3044D02*
X877Y-3011D01*
Y-2944D01*
X910Y-2911D01*
X943D01*
X977Y-2944D01*
Y-2978D01*
Y-2944D01*
X1010Y-2911D01*
X1043D01*
X1077Y-2944D01*
Y-3011D01*
X1043Y-3044D01*
X-8622Y-1916D02*
X-8448Y-1816D01*
X-8398Y-1902D01*
X-8411Y-1948D01*
X-8468Y-1981D01*
X-8514Y-1969D01*
X-8564Y-1882D01*
X-8531Y-1940D02*
X-8555Y-2031D01*
X-8472Y-2175D02*
X-8299Y-2075D01*
X-8435Y-2039D01*
X-8368Y-2154D01*
X-7792Y-2481D02*
X-7619Y-2381D01*
X-7569Y-2468D01*
X-7582Y-2513D01*
X-7639Y-2546D01*
X-7685Y-2534D01*
X-7735Y-2448D01*
X-7701Y-2505D02*
X-7726Y-2596D01*
X-7626Y-2769D02*
X-7692Y-2654D01*
X-7510Y-2703D01*
X-7482Y-2686D01*
X-7469Y-2641D01*
X-7503Y-2583D01*
X-7548Y-2571D01*
X-7276Y-2849D02*
X-7103Y-2749D01*
X-7053Y-2836D01*
X-7065Y-2881D01*
X-7122Y-2915D01*
X-7168Y-2903D01*
X-7218Y-2816D01*
X-7185Y-2874D02*
X-7209Y-2965D01*
X-7176Y-3022D02*
X-7142Y-3080D01*
X-7159Y-3051D01*
X-6986Y-2951D01*
X-7031Y-2939D01*
X-8831Y-1507D02*
X-8715Y-1440D01*
X-8703Y-1395D01*
X-8736Y-1337D01*
X-8782Y-1325D01*
X-8897Y-1391D01*
X-8909Y-1437D01*
X-8876Y-1495D01*
X-8835Y-1432D02*
X-8859Y-1523D01*
X-8876Y-1495D02*
X-8831Y-1507D01*
X-8826Y-1581D02*
X-8793Y-1639D01*
X-8809Y-1610D01*
X-8636Y-1510D01*
X-8682Y-1498D01*
X-5241Y5438D02*
Y5238D01*
X-5107D01*
X-4908D02*
X-5041D01*
X-4908Y5372D01*
Y5405D01*
X-4941Y5438D01*
X-5008D01*
X-5041Y5405D01*
X-5245Y6183D02*
Y5983D01*
X-5112D01*
X-5045D02*
X-4978D01*
X-5012D01*
Y6183D01*
X-5045Y6150D01*
X-5612Y9934D02*
X-5678D01*
X-5645D01*
Y9768D01*
X-5678Y9734D01*
X-5712D01*
X-5745Y9768D01*
X-5545Y9901D02*
X-5512Y9934D01*
X-5445D01*
X-5412Y9901D01*
Y9868D01*
X-5445Y9834D01*
X-5478D01*
X-5445D01*
X-5412Y9801D01*
Y9768D01*
X-5445Y9734D01*
X-5512D01*
X-5545Y9768D01*
X1340Y960D02*
Y827D01*
X1440D01*
Y894D01*
Y827D01*
X1540D01*
X1340Y1027D02*
Y1094D01*
Y1060D01*
X1540D01*
Y1027D01*
Y1094D01*
X1340Y1194D02*
X1540D01*
Y1294D01*
X1506Y1327D01*
X1373D01*
X1340Y1294D01*
Y1194D01*
X1373Y1394D02*
X1340Y1427D01*
Y1494D01*
X1373Y1527D01*
X1406D01*
X1440Y1494D01*
Y1460D01*
Y1494D01*
X1473Y1527D01*
X1506D01*
X1540Y1494D01*
Y1427D01*
X1506Y1394D01*
X-6817Y-887D02*
X-6950D01*
Y-987D01*
X-6884D01*
X-6950D01*
Y-1087D01*
X-6750Y-887D02*
X-6684D01*
X-6717D01*
Y-1087D01*
X-6750D01*
X-6684D01*
X-6584Y-887D02*
Y-1087D01*
X-6484D01*
X-6451Y-1054D01*
Y-921D01*
X-6484Y-887D01*
X-6584D01*
X-6384Y-1087D02*
X-6317D01*
X-6351D01*
Y-887D01*
X-6384Y-921D01*
X-9354Y-3299D02*
X-9527Y-3399D01*
X-9477Y-3486D01*
X-9432Y-3498D01*
X-9316Y-3432D01*
X-9304Y-3386D01*
X-9354Y-3299D01*
X-9283Y-3489D02*
X-9237Y-3501D01*
X-9204Y-3559D01*
X-9216Y-3605D01*
X-9245Y-3621D01*
X-9291Y-3609D01*
X-9303Y-3655D01*
X-9332Y-3671D01*
X-9377Y-3659D01*
X-9411Y-3601D01*
X-9398Y-3556D01*
X-9370Y-3539D01*
X-9324Y-3551D01*
X-9312Y-3506D01*
X-9283Y-3489D01*
X-9324Y-3551D02*
X-9291Y-3609D01*
X-9108Y-3801D02*
X-9281Y-3900D01*
X-9231Y-3987D01*
X-9185Y-3999D01*
X-9070Y-3933D01*
X-9058Y-3887D01*
X-9108Y-3801D01*
X-9008Y-3974D02*
X-8941Y-4089D01*
X-8970Y-4106D01*
X-9152Y-4057D01*
X-9181Y-4074D01*
X-8844Y-4233D02*
X-9017Y-4333D01*
X-8967Y-4420D01*
X-8922Y-4432D01*
X-8806Y-4365D01*
X-8794Y-4320D01*
X-8844Y-4233D01*
X-8677Y-4522D02*
X-8739Y-4481D01*
X-8831Y-4456D01*
X-8888Y-4489D01*
X-8900Y-4535D01*
X-8867Y-4593D01*
X-8822Y-4605D01*
X-8793Y-4588D01*
X-8781Y-4543D01*
X-8831Y-4456D01*
X-1030Y5053D02*
X-1063Y5020D01*
Y4953D01*
X-1030Y4920D01*
X-896D01*
X-863Y4953D01*
Y5020D01*
X-896Y5053D01*
X-1063Y5120D02*
Y5253D01*
X-1030D01*
X-896Y5120D01*
X-863D01*
X-1030Y5320D02*
X-1063Y5353D01*
Y5420D01*
X-1030Y5453D01*
X-896D01*
X-863Y5420D01*
Y5353D01*
X-896Y5320D01*
X-1030D01*
X-68Y3061D02*
X-101Y3027D01*
Y2961D01*
X-68Y2927D01*
X65D01*
X99Y2961D01*
Y3027D01*
X65Y3061D01*
X-101Y3261D02*
X-68Y3194D01*
X-1Y3127D01*
X65D01*
X99Y3161D01*
Y3227D01*
X65Y3261D01*
X32D01*
X-1Y3227D01*
Y3127D01*
X65Y3327D02*
X99Y3361D01*
Y3427D01*
X65Y3461D01*
X-68D01*
X-101Y3427D01*
Y3361D01*
X-68Y3327D01*
X-35D01*
X-1Y3361D01*
Y3461D01*
X374Y3465D02*
X341Y3498D01*
X274D01*
X241Y3465D01*
Y3332D01*
X274Y3299D01*
X341D01*
X374Y3332D01*
X574Y3498D02*
X507Y3465D01*
X441Y3398D01*
Y3332D01*
X474Y3299D01*
X541D01*
X574Y3332D01*
Y3365D01*
X541Y3398D01*
X441D01*
X641Y3465D02*
X674Y3498D01*
X741D01*
X774Y3465D01*
Y3432D01*
X741Y3398D01*
X774Y3365D01*
Y3332D01*
X741Y3299D01*
X674D01*
X641Y3332D01*
Y3365D01*
X674Y3398D01*
X641Y3432D01*
Y3465D01*
X674Y3398D02*
X741D01*
X-1738Y5090D02*
X-1771Y5123D01*
X-1838D01*
X-1871Y5090D01*
Y4956D01*
X-1838Y4923D01*
X-1771D01*
X-1738Y4956D01*
X-1538Y5123D02*
X-1605Y5090D01*
X-1671Y5023D01*
Y4956D01*
X-1638Y4923D01*
X-1571D01*
X-1538Y4956D01*
Y4990D01*
X-1571Y5023D01*
X-1671D01*
X-1471Y5123D02*
X-1338D01*
Y5090D01*
X-1471Y4956D01*
Y4923D01*
X-6179Y3619D02*
X-6212Y3586D01*
Y3519D01*
X-6179Y3486D01*
X-6046D01*
X-6013Y3519D01*
Y3586D01*
X-6046Y3619D01*
X-6212Y3819D02*
X-6179Y3753D01*
X-6112Y3686D01*
X-6046D01*
X-6013Y3719D01*
Y3786D01*
X-6046Y3819D01*
X-6079D01*
X-6112Y3786D01*
Y3686D01*
X-6212Y4019D02*
X-6179Y3953D01*
X-6112Y3886D01*
X-6046D01*
X-6013Y3919D01*
Y3986D01*
X-6046Y4019D01*
X-6079D01*
X-6112Y3986D01*
Y3886D01*
X-148Y1781D02*
X-182Y1814D01*
X-248D01*
X-282Y1781D01*
Y1648D01*
X-248Y1614D01*
X-182D01*
X-148Y1648D01*
X52Y1814D02*
X-15Y1781D01*
X-82Y1714D01*
Y1648D01*
X-48Y1614D01*
X18D01*
X52Y1648D01*
Y1681D01*
X18Y1714D01*
X-82D01*
X252Y1814D02*
X118D01*
Y1714D01*
X185Y1748D01*
X218D01*
X252Y1714D01*
Y1648D01*
X218Y1614D01*
X152D01*
X118Y1648D01*
X-5978Y3072D02*
X-6011Y3106D01*
X-6078D01*
X-6111Y3072D01*
Y2939D01*
X-6078Y2906D01*
X-6011D01*
X-5978Y2939D01*
X-5778Y3106D02*
X-5845Y3072D01*
X-5911Y3006D01*
Y2939D01*
X-5878Y2906D01*
X-5811D01*
X-5778Y2939D01*
Y2972D01*
X-5811Y3006D01*
X-5911D01*
X-5612Y2906D02*
Y3106D01*
X-5712Y3006D01*
X-5578D01*
X-3684Y519D02*
X-3718Y553D01*
X-3784D01*
X-3818Y519D01*
Y386D01*
X-3784Y353D01*
X-3718D01*
X-3684Y386D01*
X-3484Y553D02*
X-3551Y519D01*
X-3618Y453D01*
Y386D01*
X-3584Y353D01*
X-3518D01*
X-3484Y386D01*
Y419D01*
X-3518Y453D01*
X-3618D01*
X-3418Y519D02*
X-3384Y553D01*
X-3318D01*
X-3284Y519D01*
Y486D01*
X-3318Y453D01*
X-3351D01*
X-3318D01*
X-3284Y419D01*
Y386D01*
X-3318Y353D01*
X-3384D01*
X-3418Y386D01*
X-6497Y3630D02*
X-6530Y3597D01*
Y3530D01*
X-6497Y3497D01*
X-6364D01*
X-6331Y3530D01*
Y3597D01*
X-6364Y3630D01*
X-6530Y3830D02*
X-6497Y3763D01*
X-6431Y3697D01*
X-6364D01*
X-6331Y3730D01*
Y3797D01*
X-6364Y3830D01*
X-6397D01*
X-6431Y3797D01*
Y3697D01*
X-6331Y4030D02*
Y3897D01*
X-6464Y4030D01*
X-6497D01*
X-6530Y3997D01*
Y3930D01*
X-6497Y3897D01*
X-3445Y801D02*
X-3478Y767D01*
Y701D01*
X-3445Y667D01*
X-3312D01*
X-3278Y701D01*
Y767D01*
X-3312Y801D01*
X-3478Y1001D02*
X-3445Y934D01*
X-3378Y867D01*
X-3312D01*
X-3278Y901D01*
Y967D01*
X-3312Y1001D01*
X-3345D01*
X-3378Y967D01*
Y867D01*
X-3278Y1067D02*
Y1134D01*
Y1101D01*
X-3478D01*
X-3445Y1067D01*
X-1883Y6266D02*
X-1917Y6232D01*
Y6166D01*
X-1883Y6132D01*
X-1750D01*
X-1717Y6166D01*
Y6232D01*
X-1750Y6266D01*
X-1917Y6466D02*
X-1883Y6399D01*
X-1817Y6332D01*
X-1750D01*
X-1717Y6366D01*
Y6432D01*
X-1750Y6466D01*
X-1783D01*
X-1817Y6432D01*
Y6332D01*
X-1883Y6532D02*
X-1917Y6566D01*
Y6632D01*
X-1883Y6666D01*
X-1750D01*
X-1717Y6632D01*
Y6566D01*
X-1750Y6532D01*
X-1883D01*
X-1553Y6266D02*
X-1586Y6232D01*
Y6166D01*
X-1553Y6132D01*
X-1420D01*
X-1387Y6166D01*
Y6232D01*
X-1420Y6266D01*
X-1586Y6466D02*
Y6332D01*
X-1487D01*
X-1520Y6399D01*
Y6432D01*
X-1487Y6466D01*
X-1420D01*
X-1387Y6432D01*
Y6366D01*
X-1420Y6332D01*
Y6532D02*
X-1387Y6566D01*
Y6632D01*
X-1420Y6666D01*
X-1553D01*
X-1586Y6632D01*
Y6566D01*
X-1553Y6532D01*
X-1520D01*
X-1487Y6566D01*
Y6666D01*
X-5712Y2303D02*
X-5745Y2336D01*
X-5811D01*
X-5845Y2303D01*
Y2170D01*
X-5811Y2136D01*
X-5745D01*
X-5712Y2170D01*
X-5512Y2336D02*
X-5645D01*
Y2236D01*
X-5578Y2270D01*
X-5545D01*
X-5512Y2236D01*
Y2170D01*
X-5545Y2136D01*
X-5612D01*
X-5645Y2170D01*
X-5445Y2303D02*
X-5412Y2336D01*
X-5345D01*
X-5312Y2303D01*
Y2270D01*
X-5345Y2236D01*
X-5312Y2203D01*
Y2170D01*
X-5345Y2136D01*
X-5412D01*
X-5445Y2170D01*
Y2203D01*
X-5412Y2236D01*
X-5445Y2270D01*
Y2303D01*
X-5412Y2236D02*
X-5345D01*
X-96Y4179D02*
X-130Y4212D01*
X-196D01*
X-230Y4179D01*
Y4045D01*
X-196Y4012D01*
X-130D01*
X-96Y4045D01*
X104Y4212D02*
X-30D01*
Y4112D01*
X37Y4145D01*
X70D01*
X104Y4112D01*
Y4045D01*
X70Y4012D01*
X4D01*
X-30Y4045D01*
X170Y4212D02*
X303D01*
Y4179D01*
X170Y4045D01*
Y4012D01*
X-4209Y6466D02*
X-4243Y6499D01*
X-4309D01*
X-4343Y6466D01*
Y6332D01*
X-4309Y6299D01*
X-4243D01*
X-4209Y6332D01*
X-4010Y6499D02*
X-4143D01*
Y6399D01*
X-4076Y6432D01*
X-4043D01*
X-4010Y6399D01*
Y6332D01*
X-4043Y6299D01*
X-4109D01*
X-4143Y6332D01*
X-3810Y6499D02*
X-3876Y6466D01*
X-3943Y6399D01*
Y6332D01*
X-3910Y6299D01*
X-3843D01*
X-3810Y6332D01*
Y6366D01*
X-3843Y6399D01*
X-3943D01*
X641Y3773D02*
X607Y3807D01*
X541D01*
X507Y3773D01*
Y3640D01*
X541Y3607D01*
X607D01*
X641Y3640D01*
X841Y3807D02*
X707D01*
Y3707D01*
X774Y3740D01*
X807D01*
X841Y3707D01*
Y3640D01*
X807Y3607D01*
X741D01*
X707Y3640D01*
X1041Y3807D02*
X907D01*
Y3707D01*
X974Y3740D01*
X1007D01*
X1041Y3707D01*
Y3640D01*
X1007Y3607D01*
X941D01*
X907Y3640D01*
X-3233Y6166D02*
X-3266Y6132D01*
Y6066D01*
X-3233Y6032D01*
X-3099D01*
X-3066Y6066D01*
Y6132D01*
X-3099Y6166D01*
X-3266Y6365D02*
Y6232D01*
X-3166D01*
X-3199Y6299D01*
Y6332D01*
X-3166Y6365D01*
X-3099D01*
X-3066Y6332D01*
Y6265D01*
X-3099Y6232D01*
X-3066Y6532D02*
X-3266D01*
X-3166Y6432D01*
Y6565D01*
X-3599Y7019D02*
X-3632Y6985D01*
Y6919D01*
X-3599Y6886D01*
X-3465D01*
X-3432Y6919D01*
Y6985D01*
X-3465Y7019D01*
X-3632Y7219D02*
Y7085D01*
X-3532D01*
X-3565Y7152D01*
Y7185D01*
X-3532Y7219D01*
X-3465D01*
X-3432Y7185D01*
Y7119D01*
X-3465Y7085D01*
X-3599Y7285D02*
X-3632Y7319D01*
Y7385D01*
X-3599Y7419D01*
X-3565D01*
X-3532Y7385D01*
Y7352D01*
Y7385D01*
X-3499Y7419D01*
X-3465D01*
X-3432Y7385D01*
Y7319D01*
X-3465Y7285D01*
X-3269Y6812D02*
X-3303Y6779D01*
Y6712D01*
X-3269Y6679D01*
X-3136D01*
X-3103Y6712D01*
Y6779D01*
X-3136Y6812D01*
X-3303Y7012D02*
Y6879D01*
X-3203D01*
X-3236Y6945D01*
Y6979D01*
X-3203Y7012D01*
X-3136D01*
X-3103Y6979D01*
Y6912D01*
X-3136Y6879D01*
X-3103Y7212D02*
Y7079D01*
X-3236Y7212D01*
X-3269D01*
X-3303Y7179D01*
Y7112D01*
X-3269Y7079D01*
X-3632Y6401D02*
X-3665Y6368D01*
Y6301D01*
X-3632Y6268D01*
X-3499D01*
X-3465Y6301D01*
Y6368D01*
X-3499Y6401D01*
X-3665Y6601D02*
Y6468D01*
X-3565D01*
X-3599Y6535D01*
Y6568D01*
X-3565Y6601D01*
X-3499D01*
X-3465Y6568D01*
Y6501D01*
X-3499Y6468D01*
X-3632Y6668D02*
X-3665Y6701D01*
Y6768D01*
X-3632Y6801D01*
X-3499D01*
X-3465Y6768D01*
Y6701D01*
X-3499Y6668D01*
X-3632D01*
X-695Y1032D02*
X-728Y1065D01*
X-795D01*
X-828Y1032D01*
Y899D01*
X-795Y865D01*
X-728D01*
X-695Y899D01*
X-529Y865D02*
Y1065D01*
X-629Y965D01*
X-495D01*
X-429Y899D02*
X-395Y865D01*
X-329D01*
X-295Y899D01*
Y1032D01*
X-329Y1065D01*
X-395D01*
X-429Y1032D01*
Y999D01*
X-395Y965D01*
X-295D01*
X-4764Y6266D02*
X-4798Y6232D01*
Y6166D01*
X-4764Y6132D01*
X-4631D01*
X-4598Y6166D01*
Y6232D01*
X-4631Y6266D01*
X-4598Y6432D02*
X-4798D01*
X-4698Y6332D01*
Y6466D01*
X-4764Y6532D02*
X-4798Y6566D01*
Y6632D01*
X-4764Y6666D01*
X-4731D01*
X-4698Y6632D01*
X-4664Y6666D01*
X-4631D01*
X-4598Y6632D01*
Y6566D01*
X-4631Y6532D01*
X-4664D01*
X-4698Y6566D01*
X-4731Y6532D01*
X-4764D01*
X-4698Y6566D02*
Y6632D01*
X-2154Y5240D02*
X-2188Y5207D01*
Y5140D01*
X-2154Y5107D01*
X-2021D01*
X-1988Y5140D01*
Y5207D01*
X-2021Y5240D01*
X-1988Y5407D02*
X-2188D01*
X-2088Y5307D01*
Y5440D01*
X-2188Y5507D02*
Y5640D01*
X-2154D01*
X-2021Y5507D01*
X-1988D01*
X-3398Y-177D02*
X-3431Y-210D01*
Y-277D01*
X-3398Y-310D01*
X-3265D01*
X-3232Y-277D01*
Y-210D01*
X-3265Y-177D01*
X-3232Y-10D02*
X-3431D01*
X-3331Y-110D01*
Y23D01*
X-3431Y223D02*
Y90D01*
X-3331D01*
X-3365Y157D01*
Y190D01*
X-3331Y223D01*
X-3265D01*
X-3232Y190D01*
Y123D01*
X-3265Y90D01*
X-559Y4631D02*
X-592Y4597D01*
Y4531D01*
X-559Y4497D01*
X-426D01*
X-392Y4531D01*
Y4597D01*
X-426Y4631D01*
X-392Y4797D02*
X-592D01*
X-492Y4697D01*
Y4830D01*
X-392Y4997D02*
X-592D01*
X-492Y4897D01*
Y5030D01*
X-37Y1021D02*
X-70Y1055D01*
X-137D01*
X-170Y1021D01*
Y888D01*
X-137Y855D01*
X-70D01*
X-37Y888D01*
X130Y855D02*
Y1055D01*
X30Y955D01*
X163D01*
X230Y1021D02*
X263Y1055D01*
X330D01*
X363Y1021D01*
Y988D01*
X330Y955D01*
X296D01*
X330D01*
X363Y921D01*
Y888D01*
X330Y855D01*
X263D01*
X230Y888D01*
X-4770Y6928D02*
X-4803Y6894D01*
Y6828D01*
X-4770Y6794D01*
X-4637D01*
X-4603Y6828D01*
Y6894D01*
X-4637Y6928D01*
X-4603Y7094D02*
X-4803D01*
X-4703Y6994D01*
Y7127D01*
X-4603Y7327D02*
Y7194D01*
X-4737Y7327D01*
X-4770D01*
X-4803Y7294D01*
Y7227D01*
X-4770Y7194D01*
X-5911Y4173D02*
X-5945Y4140D01*
Y4073D01*
X-5911Y4040D01*
X-5778D01*
X-5745Y4073D01*
Y4140D01*
X-5778Y4173D01*
X-5745Y4340D02*
X-5945D01*
X-5845Y4240D01*
Y4373D01*
X-5745Y4440D02*
Y4506D01*
Y4473D01*
X-5945D01*
X-5911Y4440D01*
X-39Y655D02*
X-73Y689D01*
X-139D01*
X-173Y655D01*
Y522D01*
X-139Y489D01*
X-73D01*
X-39Y522D01*
X27Y655D02*
X61Y689D01*
X127D01*
X161Y655D01*
Y622D01*
X127Y589D01*
X94D01*
X127D01*
X161Y555D01*
Y522D01*
X127Y489D01*
X61D01*
X27Y522D01*
X227D02*
X261Y489D01*
X327D01*
X360Y522D01*
Y655D01*
X327Y689D01*
X261D01*
X227Y655D01*
Y622D01*
X261Y589D01*
X360D01*
X-150Y2711D02*
X-184Y2745D01*
X-250D01*
X-284Y2711D01*
Y2578D01*
X-250Y2545D01*
X-184D01*
X-150Y2578D01*
X-84Y2711D02*
X-50Y2745D01*
X16D01*
X50Y2711D01*
Y2678D01*
X16Y2645D01*
X-17D01*
X16D01*
X50Y2611D01*
Y2578D01*
X16Y2545D01*
X-50D01*
X-84Y2578D01*
X116Y2711D02*
X150Y2745D01*
X216D01*
X250Y2711D01*
Y2678D01*
X216Y2645D01*
X250Y2611D01*
Y2578D01*
X216Y2545D01*
X150D01*
X116Y2578D01*
Y2611D01*
X150Y2645D01*
X116Y2678D01*
Y2711D01*
X150Y2645D02*
X216D01*
X515Y2486D02*
X482Y2519D01*
X415D01*
X382Y2486D01*
Y2353D01*
X415Y2320D01*
X482D01*
X515Y2353D01*
X582Y2486D02*
X615Y2519D01*
X682D01*
X715Y2486D01*
Y2453D01*
X682Y2420D01*
X649D01*
X682D01*
X715Y2386D01*
Y2353D01*
X682Y2320D01*
X615D01*
X582Y2353D01*
X782Y2519D02*
X915D01*
Y2486D01*
X782Y2353D01*
Y2320D01*
X-1664Y-2081D02*
X-1631Y-2048D01*
Y-1981D01*
X-1664Y-1948D01*
X-1797D01*
X-1831Y-1981D01*
Y-2048D01*
X-1797Y-2081D01*
X-1831Y-2281D02*
Y-2148D01*
X-1697Y-2281D01*
X-1664D01*
X-1631Y-2248D01*
Y-2181D01*
X-1664Y-2148D01*
Y-2348D02*
X-1631Y-2381D01*
Y-2448D01*
X-1664Y-2481D01*
X-1697D01*
X-1731Y-2448D01*
X-1764Y-2481D01*
X-1797D01*
X-1831Y-2448D01*
Y-2381D01*
X-1797Y-2348D01*
X-1764D01*
X-1731Y-2381D01*
X-1697Y-2348D01*
X-1664D01*
X-1731Y-2381D02*
Y-2448D01*
X-2405Y-802D02*
X-2438Y-836D01*
Y-902D01*
X-2405Y-935D01*
X-2271D01*
X-2238Y-902D01*
Y-836D01*
X-2271Y-802D01*
X-2238Y-602D02*
Y-736D01*
X-2371Y-602D01*
X-2405D01*
X-2438Y-636D01*
Y-702D01*
X-2405Y-736D01*
X-2438Y-402D02*
X-2405Y-469D01*
X-2338Y-536D01*
X-2271D01*
X-2238Y-502D01*
Y-436D01*
X-2271Y-402D01*
X-2305D01*
X-2338Y-436D01*
Y-536D01*
D13*
X7246Y-4259D02*
G03*
X7246Y-4259I-118J0D01*
G01*
X-5645Y-4886D02*
G03*
X-5645Y-4886I-118J0D01*
G01*
X3592Y-1063D02*
G03*
X3592Y-1063I-118J0D01*
G01*
X2360Y4114D02*
G03*
X2360Y4114I-118J0D01*
G01*
X677Y-1630D02*
G03*
X677Y-1630I-71J0D01*
G01*
X3494Y-5403D02*
G03*
X3494Y-5403I-118J0D01*
G01*
D14*
X-3743Y-6270D02*
G03*
X-3743Y-6270I-27J0D01*
G01*
X4665Y2313D02*
X5030D01*
X5030Y1949D02*
X5030Y2313D01*
X3297D02*
X3661D01*
X3297D02*
X3297Y1949D01*
X3297Y581D02*
Y945D01*
Y581D02*
X3661Y581D01*
X4665Y581D02*
X5030D01*
Y945D01*
X8329Y-5407D02*
X8959Y-4316D01*
X7186Y-3293D02*
X8959Y-4316D01*
X6556Y-4384D02*
X8329Y-5407D01*
X6556Y-4384D02*
X7186Y-3293D01*
X615Y-5292D02*
Y-4386D01*
X-645Y-5292D02*
Y-4386D01*
X615D01*
X-645Y-5292D02*
X615D01*
X-7491Y-4020D02*
X-6229Y-3292D01*
X-6487Y-5759D02*
X-5226Y-5030D01*
X-7491Y-4020D02*
X-6487Y-5759D01*
X-6229Y-3292D02*
X-5226Y-5030D01*
X-3604Y-7365D02*
X-3433Y-7267D01*
X-4037Y-6615D02*
X-3866Y-6517D01*
X-4037Y-6615D02*
X-3604Y-7365D01*
X-3866Y-6517D02*
X-3433Y-7267D01*
X-3144Y-9210D02*
X-2991Y-9121D01*
X-3233Y-9056D02*
X-3144Y-9210D01*
X-2121Y-8619D02*
X-1968Y-8531D01*
X-2057Y-8377D02*
X-1968Y-8531D01*
X-2647Y-7354D02*
X-2559Y-7508D01*
X-2801Y-7443D02*
X-2647Y-7354D01*
X-3823Y-8034D02*
X-3670Y-7945D01*
X-3823Y-8034D02*
X-3735Y-8187D01*
X413Y-9104D02*
Y-8199D01*
X-846Y-9104D02*
Y-8199D01*
X413D01*
X-846Y-9104D02*
X413D01*
X3414Y-8151D02*
X3414Y-7797D01*
X2124Y-7797D02*
X3414Y-7797D01*
X2124Y-8151D02*
X3414Y-8151D01*
X2124Y-7797D02*
X2124Y-8151D01*
X1909Y-8151D02*
Y-7797D01*
X620D02*
X1909D01*
X620Y-8151D02*
X1909D01*
X620D02*
Y-7797D01*
X1860Y-669D02*
X1860Y-1929D01*
X3907D01*
X1860Y-669D02*
X3907Y-669D01*
Y-1929D02*
Y-669D01*
X1809Y3720D02*
Y4980D01*
Y3720D02*
X3856Y3720D01*
X1809Y4980D02*
X3856D01*
X3856Y3720D01*
X2510Y-3789D02*
X3770Y-3789D01*
X2510Y-5836D02*
Y-3789D01*
X3770Y-5836D02*
X3770Y-3789D01*
X2510Y-5836D02*
X3770D01*
D15*
X-2703Y7786D02*
G03*
X-2703Y7786I-14J0D01*
G01*
D16*
X-9160Y2512D02*
X-9075Y2463D01*
X-8973Y2836D02*
X-8888Y2786D01*
X-9697Y1580D02*
X-9612Y1531D01*
X-9510Y1904D02*
X-9425Y1855D01*
X-9429Y2028D02*
X-9344Y1978D01*
X-9242Y2352D02*
X-9157Y2302D01*
X-8314Y-3877D02*
X-8229Y-3827D01*
X-8127Y-4201D02*
X-8042Y-4151D01*
X-8634Y-3299D02*
X-8549Y-3250D01*
X-8821Y-2975D02*
X-8736Y-2926D01*
X-8398Y-3768D02*
X-8313Y-3719D01*
X-8585Y-3444D02*
X-8500Y-3395D01*
D17*
X-9592Y2807D02*
X-9444Y3062D01*
X-10129Y1875D02*
X-9981Y2130D01*
X-9861Y2323D02*
X-9713Y2578D01*
X-8746Y-4172D02*
X-8599Y-4427D01*
X-9253Y-3270D02*
X-9105Y-3526D01*
X-9018Y-3739D02*
X-8870Y-3995D01*
D18*
X-7732Y3610D02*
X-7590Y3528D01*
X-7545Y3540D01*
X-7512Y3597D01*
X-7524Y3642D01*
X-7666Y3724D01*
X-7605Y3764D02*
X-7617Y3809D01*
X-7584Y3866D01*
X-7540Y3878D01*
X-7511Y3861D01*
X-7499Y3817D01*
X-7516Y3788D01*
X-7499Y3817D01*
X-7454Y3829D01*
X-7426Y3812D01*
X-7414Y3767D01*
X-7447Y3711D01*
X-7492Y3699D01*
M02*
