G04*
G04 #@! TF.GenerationSoftware,Altium Limited,Altium Designer,20.1.11 (218)*
G04*
G04 Layer_Physical_Order=5*
G04 Layer_Color=8388736*
%FSLAX24Y24*%
%MOIN*%
G70*
G04*
G04 #@! TF.SameCoordinates,8E8D3587-AC64-4FAB-BC23-9619E2EF9FFF*
G04*
G04*
G04 #@! TF.FilePolarity,Negative*
G04*
G01*
G75*
%ADD19C,0.0197*%
%ADD284C,0.0059*%
%ADD307C,0.0787*%
%ADD308C,0.0400*%
%ADD309R,1.0707X0.3926*%
%ADD312C,0.0848*%
%ADD314C,0.0396*%
%ADD316C,0.1419*%
G04:AMPARAMS|DCode=317|XSize=123mil|YSize=123mil|CornerRadius=0mil|HoleSize=0mil|Usage=FLASHONLY|Rotation=0.000|XOffset=0mil|YOffset=0mil|HoleType=Round|Shape=Relief|Width=19.7mil|Gap=10mil|Entries=4|*
%AMTHD317*
7,0,0,0.1230,0.1030,0.0197,45*
%
%ADD317THD317*%
%ADD318C,0.1400*%
%ADD319C,0.0530*%
G04:AMPARAMS|DCode=320|XSize=95.433mil|YSize=95.433mil|CornerRadius=0mil|HoleSize=0mil|Usage=FLASHONLY|Rotation=0.000|XOffset=0mil|YOffset=0mil|HoleType=Round|Shape=Relief|Width=19.7mil|Gap=10mil|Entries=4|*
%AMTHD320*
7,0,0,0.0954,0.0754,0.0197,45*
%
%ADD320THD320*%
%ADD321C,0.0474*%
%ADD322O,0.0494X0.0376*%
%ADD323O,0.0317X0.0553*%
%ADD324C,0.0376*%
%ADD327O,0.1616X0.0435*%
%ADD328C,0.0514*%
G04:AMPARAMS|DCode=329|XSize=99.37mil|YSize=99.37mil|CornerRadius=0mil|HoleSize=0mil|Usage=FLASHONLY|Rotation=0.000|XOffset=0mil|YOffset=0mil|HoleType=Round|Shape=Relief|Width=19.7mil|Gap=10mil|Entries=4|*
%AMTHD329*
7,0,0,0.0994,0.0794,0.0197,45*
%
%ADD329THD329*%
%ADD330O,0.0317X0.0592*%
%ADD331C,0.0439*%
%ADD332C,0.0632*%
%ADD334C,0.0199*%
%ADD337C,0.1781*%
G04:AMPARAMS|DCode=338|XSize=132.835mil|YSize=132.835mil|CornerRadius=0mil|HoleSize=0mil|Usage=FLASHONLY|Rotation=0.000|XOffset=0mil|YOffset=0mil|HoleType=Round|Shape=Relief|Width=39.4mil|Gap=10mil|Entries=4|*
%AMTHD338*
7,0,0,0.1328,0.1128,0.0394,45*
%
%ADD338THD338*%
%ADD339C,0.0750*%
%ADD340O,0.0435X0.1616*%
%AMTHOVALD341*
21,1,0.1181,0.0915,0,0,0.0*
1,1,0.0915,-0.0591,0.0000*
1,1,0.0915,0.0591,0.0000*
21,0,0.1181,0.0715,0,0,0.0*
1,0,0.0715,-0.0591,0.0000*
1,0,0.0715,0.0591,0.0000*
4,0,4,-0.0451,-0.0139,-0.0775,-0.0463,-0.1053,-0.0184,-0.0730,0.0139,-0.0451,-0.0139,0.0*
4,0,4,0.0730,-0.0139,0.1053,0.0184,0.0775,0.0463,0.0451,0.0139,0.0730,-0.0139,0.0*
4,0,4,-0.0730,-0.0139,-0.1053,0.0184,-0.0775,0.0463,-0.0451,0.0139,-0.0730,-0.0139,0.0*
4,0,4,0.0451,-0.0139,0.0775,-0.0463,0.1053,-0.0184,0.0730,0.0139,0.0451,-0.0139,0.0*
%
%ADD341THOVALD341*%

G04:AMPARAMS|DCode=342|XSize=91.89mil|YSize=91.89mil|CornerRadius=0mil|HoleSize=0mil|Usage=FLASHONLY|Rotation=0.000|XOffset=0mil|YOffset=0mil|HoleType=Round|Shape=Relief|Width=19.7mil|Gap=10mil|Entries=4|*
%AMTHD342*
7,0,0,0.0919,0.0719,0.0197,45*
%
%ADD342THD342*%
G04:AMPARAMS|DCode=343|XSize=111.181mil|YSize=111.181mil|CornerRadius=0mil|HoleSize=0mil|Usage=FLASHONLY|Rotation=0.000|XOffset=0mil|YOffset=0mil|HoleType=Round|Shape=Relief|Width=39.4mil|Gap=10mil|Entries=4|*
%AMTHD343*
7,0,0,0.1112,0.0912,0.0394,45*
%
%ADD343THD343*%
D19*
X2332Y23360D02*
Y35396D01*
Y23360D02*
X7620Y18072D01*
X10592D01*
X13621Y21101D01*
X11490Y37920D02*
X15150D01*
X13621Y26650D02*
X28305Y26650D01*
X2336Y26650D02*
X13621D01*
X35728Y32610D02*
X37272Y32610D01*
X21398Y31138D02*
X25054D01*
X35571D02*
X39228D01*
X14870Y20710D02*
X28305Y20710D01*
X32198Y11748D02*
X37773Y11748D01*
X10571Y11191D02*
X13877D01*
X10212Y4632D02*
X18507D01*
X5443Y9402D02*
X10212Y4632D01*
X30186Y35346D02*
X32760Y37920D01*
X28641Y36495D02*
X29323Y37176D01*
X35727Y36495D02*
X36409Y37177D01*
X32198Y14089D02*
X33232Y15123D01*
X16012Y35352D02*
X18580Y37920D01*
X13877Y11191D02*
X18515Y6553D01*
X2332Y35396D02*
X4856Y37920D01*
X8926Y35356D02*
X11490Y37920D01*
X41748Y37920D02*
X43090D01*
X37675Y35605D02*
X39434D01*
X38462Y15123D02*
X38912Y14673D01*
Y13862D02*
X39990Y12784D01*
X32760Y37920D02*
X36409D01*
X25790D02*
X29323D01*
X27060Y30715D02*
X31801Y30715D01*
X26160Y31614D02*
X27060Y30715D01*
X18580Y37920D02*
X22236D01*
X12887Y30715D02*
X17628Y30715D01*
X4856Y37920D02*
X8063D01*
X40810Y25662D02*
X43082D01*
X40801Y12784D02*
X43331D01*
X28641Y32610D02*
X30186Y32610D01*
X25530Y31614D02*
X26160D01*
X31801Y28590D02*
X35571Y28590D01*
X31801Y28590D02*
X35571Y28590D01*
X33232Y15123D02*
X36163D01*
X26011Y6210D02*
X31440Y6210D01*
X21554Y32610D02*
X23099Y32610D01*
X17628Y28590D02*
X21398Y28590D01*
X18981Y4159D02*
X23960D01*
X7240Y31138D02*
X10881D01*
X2338Y31138D02*
X3994Y31138D01*
X3994Y28590D02*
X7240Y28590D01*
X8024Y11191D02*
X10571D01*
X45Y9402D02*
X5443D01*
X37773Y6172D02*
Y11748D01*
X32198Y6816D02*
Y14089D01*
X18515Y4632D02*
Y6553D01*
X39434Y35605D02*
X41748Y37920D01*
X23099Y35229D02*
X25790Y37920D01*
X23960Y4159D02*
X26011Y6210D01*
X21554Y36495D02*
X22236Y37176D01*
X18507Y4632D02*
X18981Y4159D01*
X14468Y36495D02*
X15150Y37176D01*
X14468Y36495D02*
X14468Y32610D01*
X14480Y21101D02*
X14870Y20710D01*
X10571Y11191D02*
Y18019D01*
X8926Y32610D02*
Y35356D01*
X7381Y36495D02*
X8063Y37176D01*
X7381Y36495D02*
X7381Y32610D01*
X7240Y28590D02*
Y31138D01*
X43090Y37920D02*
X43307Y38137D01*
X43082Y25662D02*
X43307Y25887D01*
X39228Y31138D02*
X39703Y31614D01*
X37272Y35202D02*
X37675Y35605D01*
X13625Y21101D02*
X14480D01*
X11987Y31614D02*
X12887Y30715D01*
X10881Y31138D02*
X11357Y31614D01*
X8063Y37176D02*
Y37920D01*
X39703Y31614D02*
X40334D01*
X39990Y12784D02*
X40801D01*
X36163Y15123D02*
X38462D01*
X14468Y32610D02*
X16012Y32610D01*
X11357Y31614D02*
X11987D01*
X7381Y32610D02*
X8926Y32610D01*
X40810Y25662D02*
Y29656D01*
Y31138D01*
X38912Y13862D02*
Y14673D01*
X37272Y32610D02*
Y35202D01*
X35727Y36495D02*
X35728Y32610D01*
X35571Y28590D02*
Y31138D01*
X31801Y30715D02*
X31801Y28590D01*
X31465Y3636D02*
X31465Y0D01*
X30186Y32610D02*
Y35346D01*
X28641Y36495D02*
X28641Y32610D01*
X28305Y20710D02*
Y26650D01*
X23099Y32610D02*
Y35229D01*
X21554Y36495D02*
X21554Y32610D01*
X21398Y28590D02*
Y31138D01*
X17628Y30715D02*
X17628Y28590D01*
X16012Y32610D02*
Y35352D01*
X13621Y21101D02*
Y26650D01*
X7805Y11410D02*
Y18009D01*
X3994Y31138D02*
X3994Y28590D01*
X40334Y31614D02*
X40810Y31138D01*
X36409Y37177D02*
Y37920D01*
X29323Y37176D02*
Y37920D01*
X26636Y31138D02*
X27060Y30715D01*
X25054Y31138D02*
X25530Y31614D01*
X22236Y37176D02*
Y37920D01*
X15150Y37176D02*
Y37920D01*
X13625Y21101D02*
Y21315D01*
X7805Y11410D02*
X8024Y11191D01*
D284*
X31450Y8096D02*
X31188D01*
Y7900D01*
X31319Y7965D01*
X31384D01*
X31450Y7900D01*
Y7768D01*
X31384Y7703D01*
X31253D01*
X31188Y7768D01*
D307*
X38337Y6639D02*
X41370D01*
X32055Y6801D02*
X33775D01*
X31465Y6210D02*
X32055Y6801D01*
X33775D02*
X34366Y6210D01*
X37907D01*
X38337Y6639D01*
X31465Y3636D02*
X38907D01*
X38796D02*
X41370D01*
Y6639D01*
X31440Y3661D02*
Y6210D01*
Y3661D02*
X31465Y3636D01*
D308*
X-0Y43307D02*
X0Y0D01*
X-0Y43307D02*
X43307D01*
X43307Y0D01*
X0D02*
X43307D01*
D309*
X36410Y1955D02*
D03*
D312*
X4536Y4588D02*
D03*
Y6438D02*
D03*
X2635Y4588D02*
D03*
Y6438D02*
D03*
D314*
X20820Y23295D02*
D03*
X20111D02*
D03*
X16904Y16123D02*
D03*
X17612D02*
D03*
X14945Y16145D02*
D03*
X15654D02*
D03*
X15338Y11178D02*
D03*
Y10470D02*
D03*
D316*
X41339Y7874D02*
D03*
Y19685D02*
D03*
X37402Y41339D02*
D03*
X5906D02*
D03*
X41339Y1969D02*
D03*
X1969D02*
D03*
D317*
X39518Y5494D02*
D03*
X33317D02*
D03*
D318*
X38667Y4293D02*
D03*
X34167D02*
D03*
D319*
X38907Y2970D02*
D03*
X37907Y2301D02*
D03*
X34927Y2970D02*
D03*
X33927Y2293D02*
D03*
D320*
X35167Y7801D02*
D03*
X36667Y6801D02*
D03*
D321*
X38167Y7801D02*
D03*
X37167D02*
D03*
X36167D02*
D03*
X37667Y6801D02*
D03*
X35667D02*
D03*
X34667D02*
D03*
D322*
X39528Y39764D02*
D03*
X24094Y39764D02*
D03*
X8661Y39764D02*
D03*
X31811Y39764D02*
D03*
X16378Y39764D02*
D03*
X945Y39764D02*
D03*
D323*
X42571Y40256D02*
D03*
X39319D02*
D03*
X39177Y42598D02*
D03*
X42713D02*
D03*
X27138Y40256D02*
D03*
X23886D02*
D03*
X23744Y42598D02*
D03*
X27280D02*
D03*
X11705Y40256D02*
D03*
X8453D02*
D03*
X8311Y42598D02*
D03*
X11846D02*
D03*
X34854Y40256D02*
D03*
X31602D02*
D03*
X31461Y42598D02*
D03*
X34996D02*
D03*
X19421Y40256D02*
D03*
X16169D02*
D03*
X16028Y42598D02*
D03*
X19563D02*
D03*
X3988Y40256D02*
D03*
X736D02*
D03*
X594Y42598D02*
D03*
X4130D02*
D03*
D324*
X42362Y39764D02*
D03*
X26929Y39764D02*
D03*
X11496Y39764D02*
D03*
X34646Y39764D02*
D03*
X19213Y39764D02*
D03*
X3779Y39764D02*
D03*
D327*
X27630Y3029D02*
D03*
D328*
X42232Y17280D02*
D03*
X41232Y10280D02*
D03*
X42232D02*
D03*
X41232Y11280D02*
D03*
X42232D02*
D03*
X41232Y12280D02*
D03*
X42232D02*
D03*
X41232Y13280D02*
D03*
X42232D02*
D03*
X41232Y14280D02*
D03*
X42232D02*
D03*
X41232Y15280D02*
D03*
X42232D02*
D03*
X41232Y16280D02*
D03*
X42232D02*
D03*
X16063Y25503D02*
D03*
X15063Y21503D02*
D03*
X16063D02*
D03*
X15063Y22503D02*
D03*
X16063D02*
D03*
X15063Y23503D02*
D03*
X16063D02*
D03*
X15063Y24503D02*
D03*
X16063D02*
D03*
X15063Y25503D02*
D03*
D329*
X41232Y17280D02*
D03*
D330*
X7098Y570D02*
D03*
X4500D02*
D03*
D331*
X40230Y25571D02*
D03*
Y26571D02*
D03*
Y24571D02*
D03*
Y23571D02*
D03*
X38230Y25571D02*
D03*
Y24571D02*
D03*
Y23571D02*
D03*
Y22571D02*
D03*
X36649Y25571D02*
D03*
Y26571D02*
D03*
Y24571D02*
D03*
Y23571D02*
D03*
X34649Y25571D02*
D03*
Y24571D02*
D03*
Y23571D02*
D03*
Y22571D02*
D03*
D332*
X14229Y2018D02*
D03*
D334*
X14130Y31742D02*
D03*
X13348Y30919D02*
D03*
Y30588D02*
D03*
X13987Y29904D02*
D03*
X13466Y29681D02*
D03*
X13993Y28953D02*
D03*
X13991Y28711D02*
D03*
X31120Y30147D02*
D03*
X28164Y28707D02*
D03*
X28166Y28949D02*
D03*
X27639Y29677D02*
D03*
X28160Y29900D02*
D03*
X27521Y30584D02*
D03*
Y30915D02*
D03*
X28312Y31743D02*
D03*
X24471Y27800D02*
D03*
X32589Y24671D02*
D03*
X30881Y22719D02*
D03*
X16140Y30140D02*
D03*
X14956Y30589D02*
D03*
X27759Y11910D02*
D03*
X26577Y17422D02*
D03*
X26971Y16635D02*
D03*
X26577Y15847D02*
D03*
X26971Y15060D02*
D03*
X26577Y14273D02*
D03*
X26971Y13485D02*
D03*
X26577Y12698D02*
D03*
X26971Y11910D02*
D03*
X25790Y17422D02*
D03*
X26184Y16635D02*
D03*
X25790Y15847D02*
D03*
X26184Y15060D02*
D03*
X25790Y14273D02*
D03*
X26184Y13485D02*
D03*
X25790Y12698D02*
D03*
X26184Y11910D02*
D03*
X25003Y17422D02*
D03*
X25396Y16635D02*
D03*
X25003Y15847D02*
D03*
X25396Y15060D02*
D03*
X25003Y14273D02*
D03*
X25396Y13485D02*
D03*
X25003Y12698D02*
D03*
X25396Y11910D02*
D03*
X24215Y17422D02*
D03*
X24609Y16635D02*
D03*
X24215Y15847D02*
D03*
X24609Y15060D02*
D03*
X24215Y14273D02*
D03*
X24609Y13485D02*
D03*
X24215Y12698D02*
D03*
X24609Y11910D02*
D03*
X23428Y17422D02*
D03*
X23822Y16635D02*
D03*
X23428Y15847D02*
D03*
X23822Y15060D02*
D03*
X23428Y14273D02*
D03*
X23822Y13485D02*
D03*
X23428Y12698D02*
D03*
X23822Y11910D02*
D03*
X22640Y17422D02*
D03*
X23034Y16635D02*
D03*
X22640Y15847D02*
D03*
X23034Y15060D02*
D03*
X22640Y14273D02*
D03*
X23034Y13485D02*
D03*
X22640Y12698D02*
D03*
X23034Y11910D02*
D03*
X21853Y17422D02*
D03*
X22247Y16635D02*
D03*
Y15060D02*
D03*
Y13485D02*
D03*
Y11910D02*
D03*
X37656Y42920D02*
D03*
X37344D02*
D03*
X37500Y42720D02*
D03*
X6004D02*
D03*
X6160Y42920D02*
D03*
X5848D02*
D03*
X6775Y42536D02*
D03*
X7087D02*
D03*
X6775Y42848D02*
D03*
X14452Y42536D02*
D03*
X14764D02*
D03*
X14452Y42848D02*
D03*
X28855Y42536D02*
D03*
X28543D02*
D03*
X28855Y42848D02*
D03*
X36532D02*
D03*
X36220Y42536D02*
D03*
X36532D02*
D03*
X7723Y34712D02*
D03*
X7723Y35197D02*
D03*
X30868Y2192D02*
D03*
X30856Y2689D02*
D03*
X2387Y25888D02*
D03*
X10950Y19891D02*
D03*
X2949Y19789D02*
D03*
X42483Y18209D02*
D03*
X42010D02*
D03*
X41538D02*
D03*
X41066D02*
D03*
X4501Y13249D02*
D03*
X5223D02*
D03*
X3778D02*
D03*
Y13971D02*
D03*
X5223D02*
D03*
X4139Y12887D02*
D03*
Y14332D02*
D03*
Y13610D02*
D03*
X4862Y12887D02*
D03*
Y14332D02*
D03*
Y13610D02*
D03*
X4501Y13971D02*
D03*
X1357Y12157D02*
D03*
X2354Y18162D02*
D03*
X1357Y14157D02*
D03*
X5854Y18162D02*
D03*
X1357Y16157D02*
D03*
Y14657D02*
D03*
Y11157D02*
D03*
X8050Y15157D02*
D03*
X8064Y16660D02*
D03*
X1357Y12657D02*
D03*
Y15157D02*
D03*
X4688Y3091D02*
D03*
X4924Y2619D02*
D03*
X4688Y2146D02*
D03*
X4215Y3091D02*
D03*
X4451Y2619D02*
D03*
X4215Y2146D02*
D03*
X3743Y4036D02*
D03*
X3979Y3564D02*
D03*
X3743Y3091D02*
D03*
X3979Y2619D02*
D03*
X3506Y3564D02*
D03*
X3270Y3091D02*
D03*
X3506Y2619D02*
D03*
X3034Y3564D02*
D03*
X2562D02*
D03*
X1853Y4036D02*
D03*
X2089Y3564D02*
D03*
X8231Y6871D02*
D03*
X7995Y6398D02*
D03*
X8231Y5926D02*
D03*
X7758Y6871D02*
D03*
X7522Y6398D02*
D03*
X7758Y5926D02*
D03*
X7286Y6871D02*
D03*
X7050Y6398D02*
D03*
X7286Y5926D02*
D03*
X6577Y7343D02*
D03*
X6814Y6871D02*
D03*
X6577Y6398D02*
D03*
X6814Y5926D02*
D03*
X6105Y8288D02*
D03*
X6341Y7816D02*
D03*
X6105Y7343D02*
D03*
X6341Y6871D02*
D03*
X6105Y6398D02*
D03*
X6341Y5926D02*
D03*
X6105Y5454D02*
D03*
X5869Y7816D02*
D03*
X5632Y7343D02*
D03*
X5869Y6871D02*
D03*
X5632Y6398D02*
D03*
X5869Y5926D02*
D03*
X5632Y5454D02*
D03*
X5160Y7343D02*
D03*
X5396Y6871D02*
D03*
Y5926D02*
D03*
X5160Y5454D02*
D03*
X4688Y7343D02*
D03*
Y5454D02*
D03*
X4215Y7343D02*
D03*
Y5454D02*
D03*
X3743Y7343D02*
D03*
X3979Y6871D02*
D03*
X3743Y6398D02*
D03*
X3979Y5926D02*
D03*
X3743Y5454D02*
D03*
X3270Y7343D02*
D03*
X3506Y6871D02*
D03*
Y5926D02*
D03*
X3270Y5454D02*
D03*
X2798Y7343D02*
D03*
Y5454D02*
D03*
X2325Y7343D02*
D03*
Y5454D02*
D03*
X1853Y7343D02*
D03*
Y6398D02*
D03*
X2089Y5926D02*
D03*
X1853Y5454D02*
D03*
X36640Y28830D02*
D03*
X40920Y33360D02*
D03*
X5241Y38350D02*
D03*
X39565Y36512D02*
D03*
X32472Y36518D02*
D03*
X25389Y36526D02*
D03*
X18293Y36506D02*
D03*
X4522Y36917D02*
D03*
X11202Y36505D02*
D03*
X8236Y38046D02*
D03*
X10712Y40651D02*
D03*
X11990Y38494D02*
D03*
X18431Y40640D02*
D03*
X15828Y38314D02*
D03*
X19708Y38457D02*
D03*
X26140Y40650D02*
D03*
X23537Y38309D02*
D03*
X27487Y38307D02*
D03*
X33860Y40660D02*
D03*
X31269Y38320D02*
D03*
X35207Y38306D02*
D03*
X38027Y38400D02*
D03*
X38978Y38292D02*
D03*
X41376Y41427D02*
D03*
X42918Y38309D02*
D03*
X19869Y24962D02*
D03*
X18947Y25537D02*
D03*
X18963Y24884D02*
D03*
X22963Y23937D02*
D03*
X27780Y24890D02*
D03*
X34353Y28685D02*
D03*
X32453D02*
D03*
X33540Y28362D02*
D03*
X35452Y28357D02*
D03*
X33173Y28346D02*
D03*
X35083D02*
D03*
X18279Y28685D02*
D03*
X20179D02*
D03*
X19366Y28362D02*
D03*
X21279Y28357D02*
D03*
X19000Y28346D02*
D03*
X20910D02*
D03*
X6737D02*
D03*
X4827D02*
D03*
X7106Y28357D02*
D03*
X5193Y28362D02*
D03*
X6006Y28685D02*
D03*
X4106D02*
D03*
X5681Y29619D02*
D03*
X32248Y29587D02*
D03*
X17587Y29718D02*
D03*
X3995Y29535D02*
D03*
X35679Y18865D02*
D03*
Y19246D02*
D03*
X36061D02*
D03*
X35679Y19628D02*
D03*
X35297Y19246D02*
D03*
X29261Y33733D02*
D03*
X29812D02*
D03*
X29261Y34127D02*
D03*
X29812D02*
D03*
X15088Y33733D02*
D03*
X15639D02*
D03*
X15088Y34127D02*
D03*
X15639D02*
D03*
X914Y33733D02*
D03*
X1466D02*
D03*
X914Y34127D02*
D03*
X1466D02*
D03*
X36347Y33733D02*
D03*
X36899D02*
D03*
X36347Y34127D02*
D03*
X36899D02*
D03*
X22174Y33733D02*
D03*
X22725D02*
D03*
X22174Y34127D02*
D03*
X22725D02*
D03*
X8001Y33733D02*
D03*
X8552D02*
D03*
X8001Y34127D02*
D03*
X8552D02*
D03*
X37379Y29432D02*
D03*
Y29038D02*
D03*
X37773D02*
D03*
Y29432D02*
D03*
X37576Y29235D02*
D03*
X23206Y29432D02*
D03*
Y29038D02*
D03*
X23600D02*
D03*
Y29432D02*
D03*
X23403Y29235D02*
D03*
X9033Y29432D02*
D03*
Y29038D02*
D03*
X9427D02*
D03*
Y29432D02*
D03*
X9230Y29235D02*
D03*
X15031Y13692D02*
D03*
Y13298D02*
D03*
Y12905D02*
D03*
X14637Y13692D02*
D03*
Y13298D02*
D03*
Y12905D02*
D03*
X14244Y13692D02*
D03*
Y13298D02*
D03*
Y12905D02*
D03*
X21439Y25261D02*
D03*
X21872D02*
D03*
X21439Y24828D02*
D03*
X21872D02*
D03*
X25887Y25261D02*
D03*
X26320D02*
D03*
X25887Y24828D02*
D03*
X26320D02*
D03*
X34949Y11748D02*
D03*
Y12142D02*
D03*
X34555D02*
D03*
Y11748D02*
D03*
Y11355D02*
D03*
X34949D02*
D03*
X35342D02*
D03*
Y11748D02*
D03*
Y12142D02*
D03*
X24108Y20959D02*
D03*
X23800Y19750D02*
D03*
X23693Y20057D02*
D03*
X27558Y23951D02*
D03*
X23007Y22938D02*
D03*
X20797Y23724D02*
D03*
X20922Y23938D02*
D03*
X20206Y23753D02*
D03*
X34670Y18750D02*
D03*
X34392Y18755D02*
D03*
X36400Y11650D02*
D03*
X37303Y11480D02*
D03*
X38137Y11476D02*
D03*
X39543Y14307D02*
D03*
X37520Y16954D02*
D03*
Y16673D02*
D03*
X38611Y12654D02*
D03*
X36289Y13030D02*
D03*
X35960D02*
D03*
X37068Y9750D02*
D03*
X12669Y13968D02*
D03*
X11526Y3787D02*
D03*
X8000Y4560D02*
D03*
X6062Y39193D02*
D03*
Y38912D02*
D03*
X6923Y38350D02*
D03*
X6642D02*
D03*
X4348Y38317D02*
D03*
X16528Y14072D02*
D03*
X26660Y10020D02*
D03*
X27180Y9690D02*
D03*
X26486Y36297D02*
D03*
X26490Y35230D02*
D03*
X12367Y35241D02*
D03*
X33430Y37310D02*
D03*
X41865Y36564D02*
D03*
X21226Y35816D02*
D03*
Y35540D02*
D03*
X35449Y35816D02*
D03*
Y35540D02*
D03*
X7077D02*
D03*
Y35816D02*
D03*
X18163Y36755D02*
D03*
X18872Y35223D02*
D03*
X18052Y34652D02*
D03*
X18440Y36755D02*
D03*
X18551Y35687D02*
D03*
X17553Y34651D02*
D03*
X18566Y34677D02*
D03*
X10966Y34652D02*
D03*
X10467Y34651D02*
D03*
X11465Y35687D02*
D03*
X11353Y36755D02*
D03*
X11460Y34680D02*
D03*
X11785Y35223D02*
D03*
X11077Y36755D02*
D03*
X5322Y19997D02*
D03*
X5079Y19843D02*
D03*
Y20083D02*
D03*
X5438Y20656D02*
D03*
X5079Y20803D02*
D03*
Y20563D02*
D03*
X6740Y20067D02*
D03*
X5079Y20323D02*
D03*
Y19603D02*
D03*
Y21043D02*
D03*
X6910Y20230D02*
D03*
X10986Y23601D02*
D03*
X4150Y23890D02*
D03*
X3679Y23130D02*
D03*
X21654Y36202D02*
D03*
X20942Y573D02*
D03*
X23400Y4075D02*
D03*
X23817Y565D02*
D03*
X24230Y4906D02*
D03*
X23954Y4629D02*
D03*
X23677Y4352D02*
D03*
X5298Y2358D02*
D03*
Y2118D02*
D03*
X5058D02*
D03*
X5298Y1158D02*
D03*
X5058D02*
D03*
Y1398D02*
D03*
Y1638D02*
D03*
Y1878D02*
D03*
X6314Y2041D02*
D03*
X5970D02*
D03*
X6540Y1878D02*
D03*
Y1638D02*
D03*
Y1398D02*
D03*
X6060Y1158D02*
D03*
X6540D02*
D03*
X6300D02*
D03*
X42329Y4108D02*
D03*
X42710Y4528D02*
D03*
X42703Y5468D02*
D03*
X42688Y5014D02*
D03*
X42329Y5835D02*
D03*
X30504Y4125D02*
D03*
X30144Y4946D02*
D03*
X30129Y4492D02*
D03*
X30122Y5432D02*
D03*
X30504Y5852D02*
D03*
X11951Y6994D02*
D03*
Y6574D02*
D03*
X12382D02*
D03*
Y6994D02*
D03*
X11521Y6574D02*
D03*
Y6994D02*
D03*
X11090Y8465D02*
D03*
X11521Y8255D02*
D03*
X11090Y8045D02*
D03*
X11521Y7835D02*
D03*
X11090Y7625D02*
D03*
X11521Y7414D02*
D03*
X11090Y7204D02*
D03*
X10660Y6994D02*
D03*
X9368Y7204D02*
D03*
X10229D02*
D03*
X9799Y6994D02*
D03*
X10673Y564D02*
D03*
X5803Y3174D02*
D03*
X5526D02*
D03*
X5960Y2865D02*
D03*
X9221Y2322D02*
D03*
X8337Y2803D02*
D03*
X8770Y2799D02*
D03*
X7872Y2803D02*
D03*
X3403Y1527D02*
D03*
X3735Y1905D02*
D03*
X950Y38040D02*
D03*
X39602Y19357D02*
D03*
X39065D02*
D03*
X40409Y18550D02*
D03*
Y18012D02*
D03*
X14724Y16915D02*
D03*
X21316Y15322D02*
D03*
X21140Y15080D02*
D03*
X27870Y18370D02*
D03*
X17154Y32527D02*
D03*
X31327D02*
D03*
X29453Y8960D02*
D03*
X29484Y10074D02*
D03*
X29309Y9881D02*
D03*
X29455Y9198D02*
D03*
X23950Y18220D02*
D03*
X24269Y18239D02*
D03*
X23610Y18350D02*
D03*
X25222Y18357D02*
D03*
X25581D02*
D03*
X23240Y18410D02*
D03*
X28614Y16732D02*
D03*
X23810Y19430D02*
D03*
X25340Y19280D02*
D03*
X24264Y19897D02*
D03*
X24861Y18404D02*
D03*
X25780Y19310D02*
D03*
X25982Y18426D02*
D03*
X26250Y18280D02*
D03*
X26580Y18380D02*
D03*
X29265Y22840D02*
D03*
X26176Y19307D02*
D03*
X26570D02*
D03*
X26906Y19792D02*
D03*
X26890Y18393D02*
D03*
X27996Y20188D02*
D03*
X28583D02*
D03*
X29007Y20189D02*
D03*
X28131Y18377D02*
D03*
X28565Y17341D02*
D03*
X28600Y17630D02*
D03*
X28610Y17010D02*
D03*
X29507Y17210D02*
D03*
X22490Y19287D02*
D03*
X22727Y19540D02*
D03*
X19990Y12190D02*
D03*
X20220Y12090D02*
D03*
X21148Y11731D02*
D03*
X28619Y16351D02*
D03*
X19891Y14984D02*
D03*
X12390Y10943D02*
D03*
X15305Y18373D02*
D03*
X982Y25890D02*
D03*
X1014Y23204D02*
D03*
X2520Y25100D02*
D03*
X2575Y22422D02*
D03*
X1331Y10543D02*
D03*
Y10783D02*
D03*
X19158Y25382D02*
D03*
Y25106D02*
D03*
X27150Y10990D02*
D03*
X2980Y32527D02*
D03*
X13263Y15468D02*
D03*
X35220Y17743D02*
D03*
X12913Y15678D02*
D03*
X7203Y2528D02*
D03*
X7248Y4628D02*
D03*
X12883Y3927D02*
D03*
X6214Y18091D02*
D03*
X6454D02*
D03*
X6223Y16989D02*
D03*
X6463D02*
D03*
X34020Y12450D02*
D03*
X20119Y12901D02*
D03*
X21729Y10974D02*
D03*
X21211Y10058D02*
D03*
X21170Y12210D02*
D03*
X2355Y23662D02*
D03*
X8058Y17149D02*
D03*
X26563Y10979D02*
D03*
X25578Y10980D02*
D03*
X7535Y26257D02*
D03*
X6430Y24220D02*
D03*
X1031Y20168D02*
D03*
X2573Y19318D02*
D03*
X10861Y12808D02*
D03*
X10859Y12062D02*
D03*
X11681Y9802D02*
D03*
X21252Y13789D02*
D03*
X20243Y11812D02*
D03*
X11681Y9322D02*
D03*
X12891D02*
D03*
Y9802D02*
D03*
X17703Y12966D02*
D03*
X17402D02*
D03*
X19640Y12199D02*
D03*
X15600Y9390D02*
D03*
X14640D02*
D03*
Y9070D02*
D03*
Y8750D02*
D03*
Y8430D02*
D03*
X15600Y9070D02*
D03*
Y8750D02*
D03*
Y8430D02*
D03*
X14960Y8110D02*
D03*
X15280D02*
D03*
X15600D02*
D03*
X14640D02*
D03*
X6710Y21788D02*
D03*
X6950D02*
D03*
X7190D02*
D03*
X7451Y21024D02*
D03*
Y21264D02*
D03*
Y21504D02*
D03*
X10461Y21702D02*
D03*
Y21935D02*
D03*
X10068D02*
D03*
Y21702D02*
D03*
X10821Y20630D02*
D03*
X9588Y21688D02*
D03*
X10073Y19745D02*
D03*
X9819Y19740D02*
D03*
X9970Y20740D02*
D03*
X9851Y20486D02*
D03*
X8500Y21780D02*
D03*
X8782Y19707D02*
D03*
X8546D02*
D03*
X19215Y6722D02*
D03*
X19489D02*
D03*
X19402Y5982D02*
D03*
X19127D02*
D03*
X19402Y5708D02*
D03*
X19127D02*
D03*
X11856Y23601D02*
D03*
X7493Y24072D02*
D03*
X9123Y21855D02*
D03*
X8847D02*
D03*
X10425Y25243D02*
D03*
X7456Y22820D02*
D03*
X7488Y23705D02*
D03*
X8852Y20438D02*
D03*
X6566Y21493D02*
D03*
X5696Y22896D02*
D03*
X6045Y23308D02*
D03*
X7420Y24590D02*
D03*
X6012Y24509D02*
D03*
X11784Y25195D02*
D03*
X7224Y26168D02*
D03*
Y26408D02*
D03*
Y25928D02*
D03*
X7180Y25650D02*
D03*
Y25170D02*
D03*
Y25410D02*
D03*
X9966Y26631D02*
D03*
X10316D02*
D03*
X11417Y26120D02*
D03*
X7963Y26633D02*
D03*
X8212Y26459D02*
D03*
X7963Y26279D02*
D03*
X13849Y25135D02*
D03*
Y24777D02*
D03*
Y24383D02*
D03*
Y23985D02*
D03*
X12131Y23258D02*
D03*
X13432Y20309D02*
D03*
X13496Y20846D02*
D03*
X14160Y20836D02*
D03*
X11871Y20502D02*
D03*
X11873Y20780D02*
D03*
X12542Y20803D02*
D03*
X8995Y17144D02*
D03*
X9063Y10136D02*
D03*
X8781D02*
D03*
X8499D02*
D03*
X8271Y10307D02*
D03*
X9346Y10136D02*
D03*
X9628D02*
D03*
X8043Y10436D02*
D03*
X8196Y12531D02*
D03*
X8364Y13845D02*
D03*
Y14955D02*
D03*
X10615Y14347D02*
D03*
X10639Y13678D02*
D03*
X10916Y13676D02*
D03*
X10583Y15965D02*
D03*
X10573Y15301D02*
D03*
X11110Y15237D02*
D03*
X14491Y10653D02*
D03*
X13580Y10600D02*
D03*
X13786Y15647D02*
D03*
X14028D02*
D03*
X13793Y14926D02*
D03*
X14035D02*
D03*
X13748Y12174D02*
D03*
X13506D02*
D03*
Y11931D02*
D03*
X13263D02*
D03*
X15749Y14144D02*
D03*
X13367Y13210D02*
D03*
X13820Y11274D02*
D03*
X16618Y13284D02*
D03*
X16515Y12150D02*
D03*
X15483Y12186D02*
D03*
X23058Y18223D02*
D03*
X22782D02*
D03*
X21051Y19581D02*
D03*
X21056Y19963D02*
D03*
X29866Y17668D02*
D03*
X30133D02*
D03*
X30399D02*
D03*
X22100Y20120D02*
D03*
Y19853D02*
D03*
Y19586D02*
D03*
X22230Y19320D02*
D03*
X22432Y20132D02*
D03*
X22248Y18381D02*
D03*
X18396Y14228D02*
D03*
X21167Y16734D02*
D03*
X21168Y17527D02*
D03*
X21169Y17915D02*
D03*
X19853Y17326D02*
D03*
X20238Y17135D02*
D03*
X19853Y16941D02*
D03*
X20154Y16769D02*
D03*
X21489Y15867D02*
D03*
X19381Y18266D02*
D03*
X19385Y17589D02*
D03*
X20211Y14799D02*
D03*
X21190Y14767D02*
D03*
X19399Y15128D02*
D03*
X19395Y15791D02*
D03*
X19783Y16429D02*
D03*
X21170Y16408D02*
D03*
Y14440D02*
D03*
X19783Y14461D02*
D03*
X22048Y11354D02*
D03*
X22447Y11321D02*
D03*
X21261Y13396D02*
D03*
X21216Y13030D02*
D03*
X20271Y10617D02*
D03*
X20036Y10613D02*
D03*
X19802Y10609D02*
D03*
X19798Y10900D02*
D03*
X20916Y10500D02*
D03*
X19251Y12392D02*
D03*
X19077Y11428D02*
D03*
X19081Y11193D02*
D03*
X19794Y11205D02*
D03*
X19790Y11440D02*
D03*
X34208Y35482D02*
D03*
X33932D02*
D03*
X26845D02*
D03*
X27121D02*
D03*
X39252Y38309D02*
D03*
X22762Y24188D02*
D03*
X39528Y38309D02*
D03*
X23039Y24188D02*
D03*
X31811Y38320D02*
D03*
X31535D02*
D03*
X21867Y27679D02*
D03*
Y27403D02*
D03*
X26332Y26462D02*
D03*
X26136Y26266D02*
D03*
X8385Y38309D02*
D03*
X8662D02*
D03*
X21993Y26259D02*
D03*
X21717Y26270D02*
D03*
X24593Y25103D02*
D03*
Y25380D02*
D03*
X20035Y35482D02*
D03*
X19758D02*
D03*
X23818Y38309D02*
D03*
X23817Y27505D02*
D03*
X24095Y38309D02*
D03*
X23540Y27505D02*
D03*
X16102Y38309D02*
D03*
X16378D02*
D03*
X12948Y35482D02*
D03*
X12672D02*
D03*
X23162Y26761D02*
D03*
Y27033D02*
D03*
X22256Y26979D02*
D03*
X21055D02*
D03*
X20148Y27033D02*
D03*
Y26761D02*
D03*
X27615Y25380D02*
D03*
Y25103D02*
D03*
X41018Y35482D02*
D03*
X41295D02*
D03*
X27268Y24709D02*
D03*
Y24986D02*
D03*
X24940D02*
D03*
X5585Y35482D02*
D03*
X24940Y24709D02*
D03*
X5862Y35482D02*
D03*
X27300Y25480D02*
D03*
X21776Y22938D02*
D03*
X22591Y22938D02*
D03*
X20675Y23938D02*
D03*
X945Y38309D02*
D03*
X20514Y24709D02*
D03*
X669Y38309D02*
D03*
X20514Y24986D02*
D03*
X10528Y40848D02*
D03*
X10236Y38082D02*
D03*
X9940Y39830D02*
D03*
X10528Y41125D02*
D03*
X10512Y38082D02*
D03*
X10217Y39830D02*
D03*
X26205Y26762D02*
D03*
X26010Y26958D02*
D03*
X27927Y25822D02*
D03*
X24912Y25491D02*
D03*
X24273Y25782D02*
D03*
X23895Y23592D02*
D03*
X24257D02*
D03*
X24618D02*
D03*
X25263Y23925D02*
D03*
X25658Y22944D02*
D03*
X26486D02*
D03*
X27302Y22944D02*
D03*
X28654Y22286D02*
D03*
X28376Y22288D02*
D03*
X28352Y22957D02*
D03*
X28320Y24575D02*
D03*
X28310Y23911D02*
D03*
X28847Y23847D02*
D03*
X41512Y25724D02*
D03*
X42050Y25661D02*
D03*
X42039Y24996D02*
D03*
X23484Y22523D02*
D03*
X24492Y22499D02*
D03*
Y22797D02*
D03*
Y22200D02*
D03*
X26918Y26950D02*
D03*
X27190D02*
D03*
X26647D02*
D03*
X25561D02*
D03*
X25018D02*
D03*
X25290D02*
D03*
X22974Y6002D02*
D03*
X22707D02*
D03*
X23242D02*
D03*
X22440Y6410D02*
D03*
X22432Y6745D02*
D03*
X23997Y7199D02*
D03*
X23725D02*
D03*
X22886Y7704D02*
D03*
X34406Y17779D02*
D03*
X18573Y3872D02*
D03*
Y4159D02*
D03*
Y4446D02*
D03*
X17521Y3786D02*
D03*
X17044D02*
D03*
X16567Y4264D02*
D03*
X13704Y3786D02*
D03*
X14181D02*
D03*
X14658D02*
D03*
X15135D02*
D03*
X15612D02*
D03*
X16090D02*
D03*
X16567D02*
D03*
X27588Y8420D02*
D03*
Y9021D02*
D03*
Y8721D02*
D03*
X26112Y9732D02*
D03*
X26920Y10000D02*
D03*
X27854Y10897D02*
D03*
X27919Y9608D02*
D03*
X26209Y8405D02*
D03*
X25802Y9136D02*
D03*
X25398Y9132D02*
D03*
X24436Y8877D02*
D03*
X24758Y8888D02*
D03*
X24431Y10049D02*
D03*
X24090Y10051D02*
D03*
X21859Y9659D02*
D03*
X21857Y9408D02*
D03*
X22434Y10902D02*
D03*
X23610Y10920D02*
D03*
Y10050D02*
D03*
X35780Y20320D02*
D03*
X41689Y22407D02*
D03*
X42006Y22790D02*
D03*
X41076Y22770D02*
D03*
X41420Y22401D02*
D03*
X42007Y26614D02*
D03*
X41984Y27284D02*
D03*
X41706Y27285D02*
D03*
X38142Y17426D02*
D03*
X37861D02*
D03*
X38625Y16658D02*
D03*
Y16939D02*
D03*
X38378Y18730D02*
D03*
Y18449D02*
D03*
X37967Y18009D02*
D03*
X37685D02*
D03*
X31045Y42515D02*
D03*
Y42797D02*
D03*
X30483Y41936D02*
D03*
X30201D02*
D03*
X39065Y18819D02*
D03*
Y18281D02*
D03*
X39333Y18012D02*
D03*
X39871D02*
D03*
X35994Y17606D02*
D03*
X36292Y17290D02*
D03*
X37392Y15701D02*
D03*
X34056Y15705D02*
D03*
X32999Y17280D02*
D03*
X32552Y11506D02*
D03*
X32682Y11103D02*
D03*
X32835Y10692D02*
D03*
X29548Y17538D02*
D03*
X30199Y11958D02*
D03*
X29930Y11959D02*
D03*
X28280Y14180D02*
D03*
X28626Y13981D02*
D03*
X28387Y12601D02*
D03*
X28626Y12800D02*
D03*
Y12406D02*
D03*
X39570Y14680D02*
D03*
X29621Y14406D02*
D03*
X29930D02*
D03*
Y14715D02*
D03*
X30411Y16130D02*
D03*
Y16527D02*
D03*
X30411Y16919D02*
D03*
X28327Y15568D02*
D03*
X28623Y15955D02*
D03*
X28316Y15944D02*
D03*
X38950Y15040D02*
D03*
X28419Y15289D02*
D03*
X28591Y15048D02*
D03*
X28625Y11814D02*
D03*
X39470Y12629D02*
D03*
Y12906D02*
D03*
X28472Y14448D02*
D03*
X28587Y14727D02*
D03*
X30016Y13730D02*
D03*
X29821Y13926D02*
D03*
X30206Y18767D02*
D03*
X29825Y18772D02*
D03*
X30339Y17327D02*
D03*
X38769Y13515D02*
D03*
X38492Y13516D02*
D03*
X38436Y15804D02*
D03*
X38425Y15139D02*
D03*
X38468Y14185D02*
D03*
X38688Y14897D02*
D03*
X39566Y16153D02*
D03*
X39543Y15633D02*
D03*
X39534Y13498D02*
D03*
X34386Y14378D02*
D03*
X36024Y13929D02*
D03*
X35960Y12701D02*
D03*
X33997Y14611D02*
D03*
X33763Y13916D02*
D03*
X34401Y13184D02*
D03*
X33763Y12729D02*
D03*
X39485Y10212D02*
D03*
Y9958D02*
D03*
Y9704D02*
D03*
X39230D02*
D03*
X38977D02*
D03*
X37550Y13280D02*
D03*
X37230Y13340D02*
D03*
X37555Y12158D02*
D03*
X36814Y9750D02*
D03*
X36560D02*
D03*
X36306D02*
D03*
Y10004D02*
D03*
Y10258D02*
D03*
X36225Y9202D02*
D03*
X34044Y9179D02*
D03*
X35150Y8570D02*
D03*
X35155Y9430D02*
D03*
X33510Y11010D02*
D03*
X39603Y12178D02*
D03*
X39622Y11802D02*
D03*
X39727Y12475D02*
D03*
X40588Y12470D02*
D03*
Y13829D02*
D03*
X39727Y13834D02*
D03*
Y15160D02*
D03*
X40588Y15155D02*
D03*
X10043Y27822D02*
D03*
X38389D02*
D03*
X12800Y32800D02*
D03*
X42483Y31660D02*
D03*
X41797Y31508D02*
D03*
X13450D02*
D03*
X12576Y33346D02*
D03*
X27624Y31508D02*
D03*
X26750Y33346D02*
D03*
X27303Y34092D02*
D03*
X41553Y38337D02*
D03*
X40168Y35786D02*
D03*
X42362Y38309D02*
D03*
X42638D02*
D03*
X33090Y39830D02*
D03*
X33367D02*
D03*
X33385Y38082D02*
D03*
X33662D02*
D03*
X34922Y38309D02*
D03*
X34645D02*
D03*
X41083Y39830D02*
D03*
X40807D02*
D03*
X41378Y38082D02*
D03*
X41102D02*
D03*
X36931Y34959D02*
D03*
X22758D02*
D03*
X8587Y34962D02*
D03*
X32336Y36755D02*
D03*
X32613D02*
D03*
X35076Y33510D02*
D03*
X38406Y33430D02*
D03*
X31137Y34240D02*
D03*
X37906Y31770D02*
D03*
X29129Y30589D02*
D03*
X29016Y35200D02*
D03*
X28740Y36202D02*
D03*
X29035Y36589D02*
D03*
X29826Y32731D02*
D03*
X29662Y35369D02*
D03*
X29656Y35700D02*
D03*
X30436Y32002D02*
D03*
X31419Y31232D02*
D03*
X31376Y33613D02*
D03*
X32269Y32808D02*
D03*
X31926Y33614D02*
D03*
X33045Y35223D02*
D03*
X32725Y35687D02*
D03*
X33572Y36297D02*
D03*
X34277Y31136D02*
D03*
X35079Y32083D02*
D03*
X35199Y36564D02*
D03*
X35796Y28602D02*
D03*
X35813Y29446D02*
D03*
X36069Y35197D02*
D03*
X35827Y36202D02*
D03*
X36122Y36589D02*
D03*
X36983Y28644D02*
D03*
X36644Y29610D02*
D03*
X37076Y30140D02*
D03*
X36913Y32731D02*
D03*
X36715Y35366D02*
D03*
X36709Y35697D02*
D03*
X37511Y30234D02*
D03*
X38643Y30480D02*
D03*
X38222Y30054D02*
D03*
X39272Y31359D02*
D03*
X39356Y32808D02*
D03*
X39013Y33614D02*
D03*
X39423Y36755D02*
D03*
X39882Y30367D02*
D03*
X39924Y30991D02*
D03*
X40132Y35223D02*
D03*
X39811Y35687D02*
D03*
X41016Y35220D02*
D03*
X40659Y36297D02*
D03*
X41476Y34092D02*
D03*
X42423Y32696D02*
D03*
X42426Y35740D02*
D03*
X42285Y36564D02*
D03*
X29017Y34714D02*
D03*
X29536Y33141D02*
D03*
X29733Y34753D02*
D03*
X30407Y33153D02*
D03*
X30495Y36370D02*
D03*
X32226Y34652D02*
D03*
X32922Y32262D02*
D03*
X32739Y34677D02*
D03*
X33479Y30673D02*
D03*
X34686Y36880D02*
D03*
X35346Y30670D02*
D03*
X36070Y34712D02*
D03*
X36623Y33141D02*
D03*
X37159Y36367D02*
D03*
X37866Y28300D02*
D03*
X37496Y33151D02*
D03*
X37582Y36369D02*
D03*
X39312Y34652D02*
D03*
X39806Y34680D02*
D03*
X41773Y36880D02*
D03*
X31755Y30476D02*
D03*
X31786Y31138D02*
D03*
X30895Y35944D02*
D03*
X29305Y36596D02*
D03*
X34028Y29619D02*
D03*
X32411Y31136D02*
D03*
X33256Y32827D02*
D03*
X34778Y36564D02*
D03*
X37982Y35943D02*
D03*
X36391Y36596D02*
D03*
X40519Y30853D02*
D03*
X41253Y31310D02*
D03*
X41146Y32800D02*
D03*
X40514Y32563D02*
D03*
X40534Y34092D02*
D03*
X39700Y36755D02*
D03*
X31726Y34651D02*
D03*
X30072Y36368D02*
D03*
X32535Y33136D02*
D03*
X40553Y33066D02*
D03*
X38813Y34651D02*
D03*
X33652Y35487D02*
D03*
X33376D02*
D03*
X38309Y38400D02*
D03*
X38590D02*
D03*
X36665Y38400D02*
D03*
X36384D02*
D03*
X37245Y38962D02*
D03*
Y39243D02*
D03*
X30922Y40589D02*
D03*
Y40871D02*
D03*
X30389Y40034D02*
D03*
X30107D02*
D03*
X41394Y41125D02*
D03*
Y40848D02*
D03*
X40386Y38090D02*
D03*
X40939Y38306D02*
D03*
X40455Y39845D02*
D03*
X40216Y39836D02*
D03*
X40748Y39171D02*
D03*
Y40511D02*
D03*
X41756Y39850D02*
D03*
X40613Y38270D02*
D03*
X41476Y39850D02*
D03*
X41339Y40511D02*
D03*
X33678Y41125D02*
D03*
Y40848D02*
D03*
X33226Y38310D02*
D03*
X32676Y38090D02*
D03*
X32896Y38270D02*
D03*
X33756Y39850D02*
D03*
X34026D02*
D03*
X32486Y39840D02*
D03*
X32739Y39845D02*
D03*
X33031Y39171D02*
D03*
X33622Y40511D02*
D03*
X33031D02*
D03*
X34533Y39510D02*
D03*
Y39210D02*
D03*
X34356Y39830D02*
D03*
X34496Y40480D02*
D03*
X32009Y40394D02*
D03*
Y40117D02*
D03*
X31946Y39480D02*
D03*
X32206Y39830D02*
D03*
X32037Y39171D02*
D03*
X39726Y40394D02*
D03*
Y40117D02*
D03*
X39663Y39480D02*
D03*
X39923Y39830D02*
D03*
X39753Y39171D02*
D03*
X42213Y40480D02*
D03*
X42073Y39830D02*
D03*
X42250Y39210D02*
D03*
Y39510D02*
D03*
X26929Y38309D02*
D03*
X27205D02*
D03*
X19212D02*
D03*
X19489D02*
D03*
X17657Y39830D02*
D03*
X19203Y35487D02*
D03*
X17933Y39830D02*
D03*
X19479Y35487D02*
D03*
X17952Y38082D02*
D03*
X18229D02*
D03*
X25650Y39830D02*
D03*
X25374D02*
D03*
X25945Y38082D02*
D03*
X25669D02*
D03*
X22825Y39901D02*
D03*
X22543D02*
D03*
X22010Y40738D02*
D03*
Y40457D02*
D03*
X21275Y42434D02*
D03*
Y42152D02*
D03*
X20439Y41619D02*
D03*
X20720D02*
D03*
X22649D02*
D03*
X22368D02*
D03*
X23204Y42152D02*
D03*
Y42434D02*
D03*
X20081Y40457D02*
D03*
Y40738D02*
D03*
X20614Y39901D02*
D03*
X20896D02*
D03*
X24640Y34651D02*
D03*
X26380Y33066D02*
D03*
X18362Y33136D02*
D03*
X15898Y36368D02*
D03*
X25526Y36755D02*
D03*
X26360Y34092D02*
D03*
X26340Y32563D02*
D03*
X26973Y32800D02*
D03*
X27079Y31310D02*
D03*
X26346Y30853D02*
D03*
X22218Y36596D02*
D03*
X23809Y35943D02*
D03*
X20605Y36564D02*
D03*
X19083Y32827D02*
D03*
X18238Y31136D02*
D03*
X19854Y29619D02*
D03*
X15131Y36596D02*
D03*
X16721Y35944D02*
D03*
X17612Y31138D02*
D03*
X17582Y30476D02*
D03*
X27600Y36880D02*
D03*
X25633Y34680D02*
D03*
X25139Y34652D02*
D03*
X23409Y36369D02*
D03*
X23323Y33151D02*
D03*
X23693Y28300D02*
D03*
X22986Y36367D02*
D03*
X22450Y33141D02*
D03*
X21897Y34712D02*
D03*
X21173Y30670D02*
D03*
X20513Y36880D02*
D03*
X19305Y30673D02*
D03*
X18749Y32262D02*
D03*
X16321Y36370D02*
D03*
X16234Y33153D02*
D03*
X15560Y34753D02*
D03*
X15363Y33141D02*
D03*
X14844Y34714D02*
D03*
X28112Y36564D02*
D03*
X28253Y35740D02*
D03*
X28250Y32696D02*
D03*
X27691Y36564D02*
D03*
X25638Y35687D02*
D03*
X25959Y35223D02*
D03*
X25751Y30991D02*
D03*
X25709Y30367D02*
D03*
X25250Y36755D02*
D03*
X24840Y33614D02*
D03*
X25183Y32808D02*
D03*
X25099Y31359D02*
D03*
X24049Y30054D02*
D03*
X24469Y30480D02*
D03*
X23337Y30234D02*
D03*
X22536Y35697D02*
D03*
X22542Y35366D02*
D03*
X22740Y32731D02*
D03*
X22903Y30140D02*
D03*
X22470Y29610D02*
D03*
Y28830D02*
D03*
X22809Y28644D02*
D03*
X21949Y36589D02*
D03*
X21896Y35197D02*
D03*
X21640Y29446D02*
D03*
X21622Y28602D02*
D03*
X21026Y36564D02*
D03*
X20906Y32083D02*
D03*
X20104Y31136D02*
D03*
X19286Y37212D02*
D03*
X19399Y36297D02*
D03*
X17753Y33614D02*
D03*
X18096Y32808D02*
D03*
X17203Y33613D02*
D03*
X17245Y31232D02*
D03*
X16263Y32002D02*
D03*
X15483Y35700D02*
D03*
X15489Y35369D02*
D03*
X15653Y32731D02*
D03*
X14862Y36589D02*
D03*
X14567Y36202D02*
D03*
X14843Y35200D02*
D03*
X23733Y31770D02*
D03*
X16964Y34240D02*
D03*
X24233Y33430D02*
D03*
X20903Y33510D02*
D03*
X3667Y39510D02*
D03*
Y39210D02*
D03*
X3490Y39830D02*
D03*
X3630Y40480D02*
D03*
X11383Y39510D02*
D03*
Y39210D02*
D03*
X11207Y39830D02*
D03*
X11347Y40480D02*
D03*
X26817Y39510D02*
D03*
Y39210D02*
D03*
X26640Y39830D02*
D03*
X26780Y40480D02*
D03*
X24320Y39171D02*
D03*
X24490Y39830D02*
D03*
X24230Y39480D02*
D03*
X24293Y40117D02*
D03*
Y40395D02*
D03*
X16603Y39171D02*
D03*
X16773Y39830D02*
D03*
X16513Y39480D02*
D03*
X16576Y40117D02*
D03*
Y40395D02*
D03*
X8887Y39171D02*
D03*
X9057Y39830D02*
D03*
X8797Y39480D02*
D03*
X8860Y40117D02*
D03*
Y40394D02*
D03*
X19063Y40480D02*
D03*
X18923Y39830D02*
D03*
X19100Y39210D02*
D03*
Y39510D02*
D03*
X17598Y40511D02*
D03*
X18189D02*
D03*
X17598Y39171D02*
D03*
X17306Y39845D02*
D03*
X17053Y39840D02*
D03*
X18593Y39850D02*
D03*
X18323D02*
D03*
X17463Y38270D02*
D03*
X17243Y38090D02*
D03*
X17793Y38310D02*
D03*
X18245Y40848D02*
D03*
Y41125D02*
D03*
X25905Y40511D02*
D03*
X26043Y39850D02*
D03*
X25180Y38270D02*
D03*
X26323Y39850D02*
D03*
X25315Y40511D02*
D03*
Y39171D02*
D03*
X24783Y39836D02*
D03*
X25022Y39845D02*
D03*
X25506Y38306D02*
D03*
X24953Y38090D02*
D03*
X25961Y40848D02*
D03*
Y41125D02*
D03*
X3990Y36755D02*
D03*
X4267D02*
D03*
X3779Y38309D02*
D03*
X4056D02*
D03*
X6730Y33510D02*
D03*
X10060Y33430D02*
D03*
X2791Y34240D02*
D03*
X9560Y31770D02*
D03*
X2812Y41125D02*
D03*
X2500Y39830D02*
D03*
X2812Y40848D02*
D03*
X2224Y39830D02*
D03*
X2796Y38082D02*
D03*
X2519D02*
D03*
X2360Y38310D02*
D03*
X1810Y38090D02*
D03*
X2030Y38270D02*
D03*
X9520Y38090D02*
D03*
X5306Y35487D02*
D03*
X5029D02*
D03*
X10073Y38306D02*
D03*
X783Y30589D02*
D03*
X670Y35200D02*
D03*
X689Y36589D02*
D03*
X1480Y32731D02*
D03*
X1316Y35369D02*
D03*
X1310Y35700D02*
D03*
X1967Y30140D02*
D03*
X2090Y32002D02*
D03*
X3072Y31232D02*
D03*
X3029Y33613D02*
D03*
X3923Y32808D02*
D03*
X3580Y33614D02*
D03*
X4699Y35223D02*
D03*
X4378Y35687D02*
D03*
X5226Y36297D02*
D03*
X5113Y37212D02*
D03*
X5931Y31136D02*
D03*
X6733Y32083D02*
D03*
X6852Y36564D02*
D03*
X7449Y28602D02*
D03*
X7467Y29446D02*
D03*
X7480Y36202D02*
D03*
X7776Y36589D02*
D03*
X8636Y28644D02*
D03*
X8297Y28830D02*
D03*
Y29610D02*
D03*
X8730Y30140D02*
D03*
X8567Y32731D02*
D03*
X8368Y35366D02*
D03*
X8363Y35697D02*
D03*
X9164Y30234D02*
D03*
X10296Y30480D02*
D03*
X9876Y30054D02*
D03*
X10926Y31359D02*
D03*
X11009Y32808D02*
D03*
X10667Y33614D02*
D03*
X11536Y30367D02*
D03*
X11577Y30991D02*
D03*
X12313Y36297D02*
D03*
X13130Y34092D02*
D03*
X13518Y36564D02*
D03*
X14077Y32696D02*
D03*
X14080Y35740D02*
D03*
X13939Y36564D02*
D03*
X670Y34714D02*
D03*
X1190Y33141D02*
D03*
X1387Y34753D02*
D03*
X2061Y33153D02*
D03*
X2148Y36370D02*
D03*
X3879Y34652D02*
D03*
X4575Y32262D02*
D03*
X4393Y34677D02*
D03*
X5132Y30673D02*
D03*
X6340Y36880D02*
D03*
X7000Y30670D02*
D03*
X8277Y33141D02*
D03*
X8813Y36367D02*
D03*
X9520Y28300D02*
D03*
X9150Y33151D02*
D03*
X9236Y36369D02*
D03*
X13427Y36880D02*
D03*
X3409Y30476D02*
D03*
X3439Y31138D02*
D03*
X2548Y35944D02*
D03*
X958Y36596D02*
D03*
X4065Y31136D02*
D03*
X4910Y32827D02*
D03*
X6432Y36564D02*
D03*
X9636Y35943D02*
D03*
X8045Y36596D02*
D03*
X12172Y30853D02*
D03*
X12906Y31310D02*
D03*
X12167Y32563D02*
D03*
X12187Y34092D02*
D03*
X3380Y34651D02*
D03*
X1725Y36368D02*
D03*
X4189Y33136D02*
D03*
X12207Y33066D02*
D03*
X9589Y39845D02*
D03*
X9350Y39836D02*
D03*
X9882Y39171D02*
D03*
Y40511D02*
D03*
X10890Y39850D02*
D03*
X11772Y38309D02*
D03*
X11496D02*
D03*
X9747Y38270D02*
D03*
X10610Y39850D02*
D03*
X10472Y40511D02*
D03*
X13200Y39984D02*
D03*
X12918D02*
D03*
X12385Y40821D02*
D03*
Y40539D02*
D03*
Y42468D02*
D03*
Y42750D02*
D03*
X12947Y41889D02*
D03*
X13229D02*
D03*
X1143Y40394D02*
D03*
Y40117D02*
D03*
X1080Y39480D02*
D03*
X1340Y39830D02*
D03*
X1170Y39171D02*
D03*
X4679Y38350D02*
D03*
X4960D02*
D03*
X2890Y39850D02*
D03*
X3160D02*
D03*
X1620Y39840D02*
D03*
X1873Y39845D02*
D03*
X2165Y39171D02*
D03*
X2756Y40511D02*
D03*
X2165D02*
D03*
D337*
X18987Y8765D02*
D03*
X30798Y20576D02*
D03*
D338*
X4536Y8289D02*
D03*
X2635D02*
D03*
D339*
X19401Y981D02*
D03*
X30837Y9175D02*
D03*
X28740Y39961D02*
D03*
X14567D02*
D03*
X4104Y21056D02*
D03*
D340*
X29520Y4309D02*
D03*
D341*
X27630Y5490D02*
D03*
D342*
X38230Y26571D02*
D03*
X40230Y22571D02*
D03*
X34649Y26571D02*
D03*
X36649Y22571D02*
D03*
D343*
X16198Y2018D02*
D03*
M02*
