G04*
G04 #@! TF.GenerationSoftware,Altium Limited,Altium Designer,20.1.11 (218)*
G04*
G04 Layer_Color=8388736*
%FSLAX24Y24*%
%MOIN*%
G70*
G04*
G04 #@! TF.SameCoordinates,8E8D3587-AC64-4FAB-BC23-9619E2EF9FFF*
G04*
G04*
G04 #@! TF.FilePolarity,Negative*
G04*
G01*
G75*
G04:AMPARAMS|DCode=109|XSize=37mil|YSize=21.3mil|CornerRadius=4.3mil|HoleSize=0mil|Usage=FLASHONLY|Rotation=270.000|XOffset=0mil|YOffset=0mil|HoleType=Round|Shape=RoundedRectangle|*
%AMROUNDEDRECTD109*
21,1,0.0370,0.0126,0,0,270.0*
21,1,0.0283,0.0213,0,0,270.0*
1,1,0.0087,-0.0063,-0.0142*
1,1,0.0087,-0.0063,0.0142*
1,1,0.0087,0.0063,0.0142*
1,1,0.0087,0.0063,-0.0142*
%
%ADD109ROUNDEDRECTD109*%
%ADD110R,0.0646X0.0488*%
G04:AMPARAMS|DCode=111|XSize=23.9mil|YSize=23.9mil|CornerRadius=8mil|HoleSize=0mil|Usage=FLASHONLY|Rotation=0.000|XOffset=0mil|YOffset=0mil|HoleType=Round|Shape=RoundedRectangle|*
%AMROUNDEDRECTD111*
21,1,0.0239,0.0080,0,0,0.0*
21,1,0.0080,0.0239,0,0,0.0*
1,1,0.0159,0.0040,-0.0040*
1,1,0.0159,-0.0040,-0.0040*
1,1,0.0159,-0.0040,0.0040*
1,1,0.0159,0.0040,0.0040*
%
%ADD111ROUNDEDRECTD111*%
%ADD112R,0.0370X0.0409*%
G04:AMPARAMS|DCode=113|XSize=38.9mil|YSize=37.9mil|CornerRadius=7.9mil|HoleSize=0mil|Usage=FLASHONLY|Rotation=180.000|XOffset=0mil|YOffset=0mil|HoleType=Round|Shape=RoundedRectangle|*
%AMROUNDEDRECTD113*
21,1,0.0389,0.0221,0,0,180.0*
21,1,0.0231,0.0379,0,0,180.0*
1,1,0.0158,-0.0116,0.0111*
1,1,0.0158,0.0116,0.0111*
1,1,0.0158,0.0116,-0.0111*
1,1,0.0158,-0.0116,-0.0111*
%
%ADD113ROUNDEDRECTD113*%
G04:AMPARAMS|DCode=114|XSize=57.9mil|YSize=57.9mil|CornerRadius=0mil|HoleSize=0mil|Usage=FLASHONLY|Rotation=0.000|XOffset=0mil|YOffset=0mil|HoleType=Round|Shape=RoundedRectangle|*
%AMROUNDEDRECTD114*
21,1,0.0579,0.0579,0,0,0.0*
21,1,0.0579,0.0579,0,0,0.0*
1,1,0.0000,0.0289,-0.0289*
1,1,0.0000,-0.0289,-0.0289*
1,1,0.0000,-0.0289,0.0289*
1,1,0.0000,0.0289,0.0289*
%
%ADD114ROUNDEDRECTD114*%
G04:AMPARAMS|DCode=115|XSize=40.9mil|YSize=84.3mil|CornerRadius=6.3mil|HoleSize=0mil|Usage=FLASHONLY|Rotation=270.000|XOffset=0mil|YOffset=0mil|HoleType=Round|Shape=RoundedRectangle|*
%AMROUNDEDRECTD115*
21,1,0.0409,0.0717,0,0,270.0*
21,1,0.0283,0.0843,0,0,270.0*
1,1,0.0126,-0.0358,-0.0142*
1,1,0.0126,-0.0358,0.0142*
1,1,0.0126,0.0358,0.0142*
1,1,0.0126,0.0358,-0.0142*
%
%ADD115ROUNDEDRECTD115*%
G04:AMPARAMS|DCode=116|XSize=84.3mil|YSize=40.9mil|CornerRadius=6.3mil|HoleSize=0mil|Usage=FLASHONLY|Rotation=180.000|XOffset=0mil|YOffset=0mil|HoleType=Round|Shape=RoundedRectangle|*
%AMROUNDEDRECTD116*
21,1,0.0843,0.0283,0,0,180.0*
21,1,0.0717,0.0409,0,0,180.0*
1,1,0.0126,-0.0358,0.0142*
1,1,0.0126,0.0358,0.0142*
1,1,0.0126,0.0358,-0.0142*
1,1,0.0126,-0.0358,-0.0142*
%
%ADD116ROUNDEDRECTD116*%
G04:AMPARAMS|DCode=117|XSize=84.3mil|YSize=40.9mil|CornerRadius=6.3mil|HoleSize=0mil|Usage=FLASHONLY|Rotation=270.000|XOffset=0mil|YOffset=0mil|HoleType=Round|Shape=RoundedRectangle|*
%AMROUNDEDRECTD117*
21,1,0.0843,0.0283,0,0,270.0*
21,1,0.0717,0.0409,0,0,270.0*
1,1,0.0126,-0.0142,-0.0358*
1,1,0.0126,-0.0142,0.0358*
1,1,0.0126,0.0142,0.0358*
1,1,0.0126,0.0142,-0.0358*
%
%ADD117ROUNDEDRECTD117*%
%ADD118R,0.0272X0.0370*%
G04:AMPARAMS|DCode=119|XSize=48.8mil|YSize=52.8mil|CornerRadius=7.1mil|HoleSize=0mil|Usage=FLASHONLY|Rotation=315.000|XOffset=0mil|YOffset=0mil|HoleType=Round|Shape=RoundedRectangle|*
%AMROUNDEDRECTD119*
21,1,0.0488,0.0386,0,0,315.0*
21,1,0.0346,0.0528,0,0,315.0*
1,1,0.0142,-0.0014,-0.0259*
1,1,0.0142,-0.0259,-0.0014*
1,1,0.0142,0.0014,0.0259*
1,1,0.0142,0.0259,0.0014*
%
%ADD119ROUNDEDRECTD119*%
G04:AMPARAMS|DCode=120|XSize=28.7mil|YSize=36.6mil|CornerRadius=2.9mil|HoleSize=0mil|Usage=FLASHONLY|Rotation=270.000|XOffset=0mil|YOffset=0mil|HoleType=Round|Shape=RoundedRectangle|*
%AMROUNDEDRECTD120*
21,1,0.0287,0.0309,0,0,270.0*
21,1,0.0230,0.0366,0,0,270.0*
1,1,0.0057,-0.0155,-0.0115*
1,1,0.0057,-0.0155,0.0115*
1,1,0.0057,0.0155,0.0115*
1,1,0.0057,0.0155,-0.0115*
%
%ADD120ROUNDEDRECTD120*%
G04:AMPARAMS|DCode=121|XSize=47.2mil|YSize=55.1mil|CornerRadius=4.1mil|HoleSize=0mil|Usage=FLASHONLY|Rotation=180.000|XOffset=0mil|YOffset=0mil|HoleType=Round|Shape=RoundedRectangle|*
%AMROUNDEDRECTD121*
21,1,0.0472,0.0469,0,0,180.0*
21,1,0.0390,0.0551,0,0,180.0*
1,1,0.0083,-0.0195,0.0234*
1,1,0.0083,0.0195,0.0234*
1,1,0.0083,0.0195,-0.0234*
1,1,0.0083,-0.0195,-0.0234*
%
%ADD121ROUNDEDRECTD121*%
G04:AMPARAMS|DCode=122|XSize=76.4mil|YSize=44.9mil|CornerRadius=6.7mil|HoleSize=0mil|Usage=FLASHONLY|Rotation=180.000|XOffset=0mil|YOffset=0mil|HoleType=Round|Shape=RoundedRectangle|*
%AMROUNDEDRECTD122*
21,1,0.0764,0.0315,0,0,180.0*
21,1,0.0630,0.0449,0,0,180.0*
1,1,0.0134,-0.0315,0.0157*
1,1,0.0134,0.0315,0.0157*
1,1,0.0134,0.0315,-0.0157*
1,1,0.0134,-0.0315,-0.0157*
%
%ADD122ROUNDEDRECTD122*%
%ADD123R,0.0311X0.0390*%
G04:AMPARAMS|DCode=124|XSize=102mil|YSize=102mil|CornerRadius=7.6mil|HoleSize=0mil|Usage=FLASHONLY|Rotation=180.000|XOffset=0mil|YOffset=0mil|HoleType=Round|Shape=RoundedRectangle|*
%AMROUNDEDRECTD124*
21,1,0.1020,0.0868,0,0,180.0*
21,1,0.0868,0.1020,0,0,180.0*
1,1,0.0152,-0.0434,0.0434*
1,1,0.0152,0.0434,0.0434*
1,1,0.0152,0.0434,-0.0434*
1,1,0.0152,-0.0434,-0.0434*
%
%ADD124ROUNDEDRECTD124*%
G04:AMPARAMS|DCode=125|XSize=29.1mil|YSize=15mil|CornerRadius=3.2mil|HoleSize=0mil|Usage=FLASHONLY|Rotation=270.000|XOffset=0mil|YOffset=0mil|HoleType=Round|Shape=RoundedRectangle|*
%AMROUNDEDRECTD125*
21,1,0.0291,0.0085,0,0,270.0*
21,1,0.0227,0.0150,0,0,270.0*
1,1,0.0065,-0.0043,-0.0113*
1,1,0.0065,-0.0043,0.0113*
1,1,0.0065,0.0043,0.0113*
1,1,0.0065,0.0043,-0.0113*
%
%ADD125ROUNDEDRECTD125*%
G04:AMPARAMS|DCode=126|XSize=29.1mil|YSize=15mil|CornerRadius=3.2mil|HoleSize=0mil|Usage=FLASHONLY|Rotation=180.000|XOffset=0mil|YOffset=0mil|HoleType=Round|Shape=RoundedRectangle|*
%AMROUNDEDRECTD126*
21,1,0.0291,0.0085,0,0,180.0*
21,1,0.0227,0.0150,0,0,180.0*
1,1,0.0065,-0.0113,0.0043*
1,1,0.0065,0.0113,0.0043*
1,1,0.0065,0.0113,-0.0043*
1,1,0.0065,-0.0113,-0.0043*
%
%ADD126ROUNDEDRECTD126*%
G04:AMPARAMS|DCode=127|XSize=37mil|YSize=21.3mil|CornerRadius=4.3mil|HoleSize=0mil|Usage=FLASHONLY|Rotation=0.000|XOffset=0mil|YOffset=0mil|HoleType=Round|Shape=RoundedRectangle|*
%AMROUNDEDRECTD127*
21,1,0.0370,0.0126,0,0,0.0*
21,1,0.0283,0.0213,0,0,0.0*
1,1,0.0087,0.0142,-0.0063*
1,1,0.0087,-0.0142,-0.0063*
1,1,0.0087,-0.0142,0.0063*
1,1,0.0087,0.0142,0.0063*
%
%ADD127ROUNDEDRECTD127*%
G04:AMPARAMS|DCode=128|XSize=27.2mil|YSize=44.9mil|CornerRadius=4.9mil|HoleSize=0mil|Usage=FLASHONLY|Rotation=270.000|XOffset=0mil|YOffset=0mil|HoleType=Round|Shape=RoundedRectangle|*
%AMROUNDEDRECTD128*
21,1,0.0272,0.0350,0,0,270.0*
21,1,0.0173,0.0449,0,0,270.0*
1,1,0.0098,-0.0175,-0.0087*
1,1,0.0098,-0.0175,0.0087*
1,1,0.0098,0.0175,0.0087*
1,1,0.0098,0.0175,-0.0087*
%
%ADD128ROUNDEDRECTD128*%
G04:AMPARAMS|DCode=129|XSize=74.8mil|YSize=106.3mil|CornerRadius=5.5mil|HoleSize=0mil|Usage=FLASHONLY|Rotation=90.000|XOffset=0mil|YOffset=0mil|HoleType=Round|Shape=RoundedRectangle|*
%AMROUNDEDRECTD129*
21,1,0.0748,0.0953,0,0,90.0*
21,1,0.0638,0.1063,0,0,90.0*
1,1,0.0110,0.0476,0.0319*
1,1,0.0110,0.0476,-0.0319*
1,1,0.0110,-0.0476,-0.0319*
1,1,0.0110,-0.0476,0.0319*
%
%ADD129ROUNDEDRECTD129*%
G04:AMPARAMS|DCode=130|XSize=15.6mil|YSize=25mil|CornerRadius=3.1mil|HoleSize=0mil|Usage=FLASHONLY|Rotation=180.000|XOffset=0mil|YOffset=0mil|HoleType=Round|Shape=RoundedRectangle|*
%AMROUNDEDRECTD130*
21,1,0.0156,0.0189,0,0,180.0*
21,1,0.0094,0.0250,0,0,180.0*
1,1,0.0061,-0.0047,0.0094*
1,1,0.0061,0.0047,0.0094*
1,1,0.0061,0.0047,-0.0094*
1,1,0.0061,-0.0047,-0.0094*
%
%ADD130ROUNDEDRECTD130*%
G04:AMPARAMS|DCode=131|XSize=20.5mil|YSize=27.6mil|CornerRadius=3.6mil|HoleSize=0mil|Usage=FLASHONLY|Rotation=270.000|XOffset=0mil|YOffset=0mil|HoleType=Round|Shape=RoundedRectangle|*
%AMROUNDEDRECTD131*
21,1,0.0205,0.0203,0,0,270.0*
21,1,0.0132,0.0276,0,0,270.0*
1,1,0.0072,-0.0102,-0.0066*
1,1,0.0072,-0.0102,0.0066*
1,1,0.0072,0.0102,0.0066*
1,1,0.0072,0.0102,-0.0066*
%
%ADD131ROUNDEDRECTD131*%
G04:AMPARAMS|DCode=132|XSize=20.5mil|YSize=27.6mil|CornerRadius=3.6mil|HoleSize=0mil|Usage=FLASHONLY|Rotation=0.000|XOffset=0mil|YOffset=0mil|HoleType=Round|Shape=RoundedRectangle|*
%AMROUNDEDRECTD132*
21,1,0.0205,0.0203,0,0,0.0*
21,1,0.0132,0.0276,0,0,0.0*
1,1,0.0072,0.0066,-0.0102*
1,1,0.0072,-0.0066,-0.0102*
1,1,0.0072,-0.0066,0.0102*
1,1,0.0072,0.0066,0.0102*
%
%ADD132ROUNDEDRECTD132*%
%ADD133R,0.0843X0.0528*%
%ADD134R,0.0154X0.0252*%
G04:AMPARAMS|DCode=135|XSize=21.3mil|YSize=37mil|CornerRadius=4.3mil|HoleSize=0mil|Usage=FLASHONLY|Rotation=0.000|XOffset=0mil|YOffset=0mil|HoleType=Round|Shape=RoundedRectangle|*
%AMROUNDEDRECTD135*
21,1,0.0213,0.0283,0,0,0.0*
21,1,0.0126,0.0370,0,0,0.0*
1,1,0.0087,0.0063,-0.0142*
1,1,0.0087,-0.0063,-0.0142*
1,1,0.0087,-0.0063,0.0142*
1,1,0.0087,0.0063,0.0142*
%
%ADD135ROUNDEDRECTD135*%
G04:AMPARAMS|DCode=136|XSize=31.1mil|YSize=74.4mil|CornerRadius=6.6mil|HoleSize=0mil|Usage=FLASHONLY|Rotation=180.000|XOffset=0mil|YOffset=0mil|HoleType=Round|Shape=RoundedRectangle|*
%AMROUNDEDRECTD136*
21,1,0.0311,0.0612,0,0,180.0*
21,1,0.0179,0.0744,0,0,180.0*
1,1,0.0132,-0.0090,0.0306*
1,1,0.0132,0.0090,0.0306*
1,1,0.0132,0.0090,-0.0306*
1,1,0.0132,-0.0090,-0.0306*
%
%ADD136ROUNDEDRECTD136*%
G04:AMPARAMS|DCode=137|XSize=19.3mil|YSize=58.7mil|CornerRadius=4.1mil|HoleSize=0mil|Usage=FLASHONLY|Rotation=180.000|XOffset=0mil|YOffset=0mil|HoleType=Round|Shape=RoundedRectangle|*
%AMROUNDEDRECTD137*
21,1,0.0193,0.0504,0,0,180.0*
21,1,0.0110,0.0587,0,0,180.0*
1,1,0.0083,-0.0055,0.0252*
1,1,0.0083,0.0055,0.0252*
1,1,0.0083,0.0055,-0.0252*
1,1,0.0083,-0.0055,-0.0252*
%
%ADD137ROUNDEDRECTD137*%
G04:AMPARAMS|DCode=138|XSize=15.4mil|YSize=31.9mil|CornerRadius=2.7mil|HoleSize=0mil|Usage=FLASHONLY|Rotation=180.000|XOffset=0mil|YOffset=0mil|HoleType=Round|Shape=RoundedRectangle|*
%AMROUNDEDRECTD138*
21,1,0.0154,0.0265,0,0,180.0*
21,1,0.0099,0.0319,0,0,180.0*
1,1,0.0054,-0.0050,0.0132*
1,1,0.0054,0.0050,0.0132*
1,1,0.0054,0.0050,-0.0132*
1,1,0.0054,-0.0050,-0.0132*
%
%ADD138ROUNDEDRECTD138*%
%ADD139R,0.0669X0.0669*%
G04:AMPARAMS|DCode=140|XSize=15.4mil|YSize=31.9mil|CornerRadius=2.7mil|HoleSize=0mil|Usage=FLASHONLY|Rotation=90.000|XOffset=0mil|YOffset=0mil|HoleType=Round|Shape=RoundedRectangle|*
%AMROUNDEDRECTD140*
21,1,0.0154,0.0265,0,0,90.0*
21,1,0.0099,0.0319,0,0,90.0*
1,1,0.0054,0.0132,0.0050*
1,1,0.0054,0.0132,-0.0050*
1,1,0.0054,-0.0132,-0.0050*
1,1,0.0054,-0.0132,0.0050*
%
%ADD140ROUNDEDRECTD140*%
%ADD141R,0.0453X0.0276*%
%ADD142R,0.1315X0.1315*%
G04:AMPARAMS|DCode=143|XSize=13.8mil|YSize=35.4mil|CornerRadius=4.4mil|HoleSize=0mil|Usage=FLASHONLY|Rotation=90.000|XOffset=0mil|YOffset=0mil|HoleType=Round|Shape=RoundedRectangle|*
%AMROUNDEDRECTD143*
21,1,0.0138,0.0266,0,0,90.0*
21,1,0.0049,0.0354,0,0,90.0*
1,1,0.0089,0.0133,0.0025*
1,1,0.0089,0.0133,-0.0025*
1,1,0.0089,-0.0133,-0.0025*
1,1,0.0089,-0.0133,0.0025*
%
%ADD143ROUNDEDRECTD143*%
G04:AMPARAMS|DCode=144|XSize=13.8mil|YSize=35.4mil|CornerRadius=4.4mil|HoleSize=0mil|Usage=FLASHONLY|Rotation=180.000|XOffset=0mil|YOffset=0mil|HoleType=Round|Shape=RoundedRectangle|*
%AMROUNDEDRECTD144*
21,1,0.0138,0.0266,0,0,180.0*
21,1,0.0049,0.0354,0,0,180.0*
1,1,0.0089,-0.0025,0.0133*
1,1,0.0089,0.0025,0.0133*
1,1,0.0089,0.0025,-0.0133*
1,1,0.0089,-0.0025,-0.0133*
%
%ADD144ROUNDEDRECTD144*%
%ADD145R,0.1043X0.1043*%
%ADD146O,0.0370X0.0154*%
%ADD147O,0.0154X0.0370*%
G04:AMPARAMS|DCode=148|XSize=65.7mil|YSize=15.4mil|CornerRadius=3.5mil|HoleSize=0mil|Usage=FLASHONLY|Rotation=180.000|XOffset=0mil|YOffset=0mil|HoleType=Round|Shape=RoundedRectangle|*
%AMROUNDEDRECTD148*
21,1,0.0657,0.0083,0,0,180.0*
21,1,0.0587,0.0154,0,0,180.0*
1,1,0.0071,-0.0293,0.0041*
1,1,0.0071,0.0293,0.0041*
1,1,0.0071,0.0293,-0.0041*
1,1,0.0071,-0.0293,-0.0041*
%
%ADD148ROUNDEDRECTD148*%
G04:AMPARAMS|DCode=149|XSize=65.7mil|YSize=15.4mil|CornerRadius=3.5mil|HoleSize=0mil|Usage=FLASHONLY|Rotation=270.000|XOffset=0mil|YOffset=0mil|HoleType=Round|Shape=RoundedRectangle|*
%AMROUNDEDRECTD149*
21,1,0.0657,0.0083,0,0,270.0*
21,1,0.0587,0.0154,0,0,270.0*
1,1,0.0071,-0.0041,-0.0293*
1,1,0.0071,-0.0041,0.0293*
1,1,0.0071,0.0041,0.0293*
1,1,0.0071,0.0041,-0.0293*
%
%ADD149ROUNDEDRECTD149*%
%ADD150R,0.1004X0.1004*%
G04:AMPARAMS|DCode=151|XSize=13.8mil|YSize=37.4mil|CornerRadius=4.4mil|HoleSize=0mil|Usage=FLASHONLY|Rotation=0.000|XOffset=0mil|YOffset=0mil|HoleType=Round|Shape=RoundedRectangle|*
%AMROUNDEDRECTD151*
21,1,0.0138,0.0285,0,0,0.0*
21,1,0.0049,0.0374,0,0,0.0*
1,1,0.0089,0.0025,-0.0143*
1,1,0.0089,-0.0025,-0.0143*
1,1,0.0089,-0.0025,0.0143*
1,1,0.0089,0.0025,0.0143*
%
%ADD151ROUNDEDRECTD151*%
G04:AMPARAMS|DCode=152|XSize=13.8mil|YSize=37.4mil|CornerRadius=4.4mil|HoleSize=0mil|Usage=FLASHONLY|Rotation=90.000|XOffset=0mil|YOffset=0mil|HoleType=Round|Shape=RoundedRectangle|*
%AMROUNDEDRECTD152*
21,1,0.0138,0.0285,0,0,90.0*
21,1,0.0049,0.0374,0,0,90.0*
1,1,0.0089,0.0143,0.0025*
1,1,0.0089,0.0143,-0.0025*
1,1,0.0089,-0.0143,-0.0025*
1,1,0.0089,-0.0143,0.0025*
%
%ADD152ROUNDEDRECTD152*%
%ADD153R,0.0244X0.0156*%
%ADD154R,0.0156X0.0244*%
%ADD155R,0.0350X0.0193*%
%ADD156R,0.0193X0.0350*%
G04:AMPARAMS|DCode=157|XSize=15.6mil|YSize=56.9mil|CornerRadius=4.8mil|HoleSize=0mil|Usage=FLASHONLY|Rotation=180.000|XOffset=0mil|YOffset=0mil|HoleType=Round|Shape=RoundedRectangle|*
%AMROUNDEDRECTD157*
21,1,0.0156,0.0472,0,0,180.0*
21,1,0.0059,0.0569,0,0,180.0*
1,1,0.0097,-0.0030,0.0236*
1,1,0.0097,0.0030,0.0236*
1,1,0.0097,0.0030,-0.0236*
1,1,0.0097,-0.0030,-0.0236*
%
%ADD157ROUNDEDRECTD157*%
G04:AMPARAMS|DCode=158|XSize=15.6mil|YSize=56.9mil|CornerRadius=4.8mil|HoleSize=0mil|Usage=FLASHONLY|Rotation=90.000|XOffset=0mil|YOffset=0mil|HoleType=Round|Shape=RoundedRectangle|*
%AMROUNDEDRECTD158*
21,1,0.0156,0.0472,0,0,90.0*
21,1,0.0059,0.0569,0,0,90.0*
1,1,0.0097,0.0236,0.0030*
1,1,0.0097,0.0236,-0.0030*
1,1,0.0097,-0.0236,-0.0030*
1,1,0.0097,-0.0236,0.0030*
%
%ADD158ROUNDEDRECTD158*%
%ADD159C,0.0449*%
G04:AMPARAMS|DCode=160|XSize=27.6mil|YSize=29.5mil|CornerRadius=4.3mil|HoleSize=0mil|Usage=FLASHONLY|Rotation=270.000|XOffset=0mil|YOffset=0mil|HoleType=Round|Shape=RoundedRectangle|*
%AMROUNDEDRECTD160*
21,1,0.0276,0.0209,0,0,270.0*
21,1,0.0189,0.0295,0,0,270.0*
1,1,0.0087,-0.0104,-0.0094*
1,1,0.0087,-0.0104,0.0094*
1,1,0.0087,0.0104,0.0094*
1,1,0.0087,0.0104,-0.0094*
%
%ADD160ROUNDEDRECTD160*%
G04:AMPARAMS|DCode=161|XSize=31.5mil|YSize=17.7mil|CornerRadius=3.3mil|HoleSize=0mil|Usage=FLASHONLY|Rotation=90.000|XOffset=0mil|YOffset=0mil|HoleType=Round|Shape=RoundedRectangle|*
%AMROUNDEDRECTD161*
21,1,0.0315,0.0110,0,0,90.0*
21,1,0.0248,0.0177,0,0,90.0*
1,1,0.0067,0.0055,0.0124*
1,1,0.0067,0.0055,-0.0124*
1,1,0.0067,-0.0055,-0.0124*
1,1,0.0067,-0.0055,0.0124*
%
%ADD161ROUNDEDRECTD161*%
G04:AMPARAMS|DCode=162|XSize=23.9mil|YSize=23.9mil|CornerRadius=8mil|HoleSize=0mil|Usage=FLASHONLY|Rotation=90.000|XOffset=0mil|YOffset=0mil|HoleType=Round|Shape=RoundedRectangle|*
%AMROUNDEDRECTD162*
21,1,0.0239,0.0080,0,0,90.0*
21,1,0.0080,0.0239,0,0,90.0*
1,1,0.0159,0.0040,0.0040*
1,1,0.0159,0.0040,-0.0040*
1,1,0.0159,-0.0040,-0.0040*
1,1,0.0159,-0.0040,0.0040*
%
%ADD162ROUNDEDRECTD162*%
G04:AMPARAMS|DCode=163|XSize=38.9mil|YSize=37.9mil|CornerRadius=7.9mil|HoleSize=0mil|Usage=FLASHONLY|Rotation=270.000|XOffset=0mil|YOffset=0mil|HoleType=Round|Shape=RoundedRectangle|*
%AMROUNDEDRECTD163*
21,1,0.0389,0.0221,0,0,270.0*
21,1,0.0231,0.0379,0,0,270.0*
1,1,0.0158,-0.0111,-0.0116*
1,1,0.0158,-0.0111,0.0116*
1,1,0.0158,0.0111,0.0116*
1,1,0.0158,0.0111,-0.0116*
%
%ADD163ROUNDEDRECTD163*%
%ADD164R,0.0409X0.0370*%
%ADD165R,0.0275X0.0340*%
G04:AMPARAMS|DCode=166|XSize=58.9mil|YSize=46.9mil|CornerRadius=9.9mil|HoleSize=0mil|Usage=FLASHONLY|Rotation=270.000|XOffset=0mil|YOffset=0mil|HoleType=Round|Shape=RoundedRectangle|*
%AMROUNDEDRECTD166*
21,1,0.0589,0.0271,0,0,270.0*
21,1,0.0391,0.0469,0,0,270.0*
1,1,0.0198,-0.0135,-0.0195*
1,1,0.0198,-0.0135,0.0195*
1,1,0.0198,0.0135,0.0195*
1,1,0.0198,0.0135,-0.0195*
%
%ADD166ROUNDEDRECTD166*%
G04:AMPARAMS|DCode=167|XSize=58.9mil|YSize=46.9mil|CornerRadius=9.9mil|HoleSize=0mil|Usage=FLASHONLY|Rotation=180.000|XOffset=0mil|YOffset=0mil|HoleType=Round|Shape=RoundedRectangle|*
%AMROUNDEDRECTD167*
21,1,0.0589,0.0271,0,0,180.0*
21,1,0.0391,0.0469,0,0,180.0*
1,1,0.0198,-0.0195,0.0135*
1,1,0.0198,0.0195,0.0135*
1,1,0.0198,0.0195,-0.0135*
1,1,0.0198,-0.0195,-0.0135*
%
%ADD167ROUNDEDRECTD167*%
%ADD168R,0.0150X0.0307*%
%ADD169C,0.1181*%
%ADD170R,0.1750X0.1580*%
G04:AMPARAMS|DCode=171|XSize=11.8mil|YSize=26.2mil|CornerRadius=3.2mil|HoleSize=0mil|Usage=FLASHONLY|Rotation=90.000|XOffset=0mil|YOffset=0mil|HoleType=Round|Shape=RoundedRectangle|*
%AMROUNDEDRECTD171*
21,1,0.0118,0.0199,0,0,90.0*
21,1,0.0055,0.0262,0,0,90.0*
1,1,0.0063,0.0099,0.0028*
1,1,0.0063,0.0099,-0.0028*
1,1,0.0063,-0.0099,-0.0028*
1,1,0.0063,-0.0099,0.0028*
%
%ADD171ROUNDEDRECTD171*%
G04:AMPARAMS|DCode=172|XSize=19.7mil|YSize=26.2mil|CornerRadius=3.2mil|HoleSize=0mil|Usage=FLASHONLY|Rotation=90.000|XOffset=0mil|YOffset=0mil|HoleType=Round|Shape=RoundedRectangle|*
%AMROUNDEDRECTD172*
21,1,0.0197,0.0197,0,0,90.0*
21,1,0.0132,0.0262,0,0,90.0*
1,1,0.0065,0.0099,0.0066*
1,1,0.0065,0.0099,-0.0066*
1,1,0.0065,-0.0099,-0.0066*
1,1,0.0065,-0.0099,0.0066*
%
%ADD172ROUNDEDRECTD172*%
G04:AMPARAMS|DCode=173|XSize=91.3mil|YSize=69.3mil|CornerRadius=18.7mil|HoleSize=0mil|Usage=FLASHONLY|Rotation=270.000|XOffset=0mil|YOffset=0mil|HoleType=Round|Shape=RoundedRectangle|*
%AMROUNDEDRECTD173*
21,1,0.0913,0.0319,0,0,270.0*
21,1,0.0539,0.0693,0,0,270.0*
1,1,0.0374,-0.0159,-0.0270*
1,1,0.0374,-0.0159,0.0270*
1,1,0.0374,0.0159,0.0270*
1,1,0.0374,0.0159,-0.0270*
%
%ADD173ROUNDEDRECTD173*%
%ADD174R,0.0370X0.0370*%
G04:AMPARAMS|DCode=175|XSize=11.8mil|YSize=26.2mil|CornerRadius=3.2mil|HoleSize=0mil|Usage=FLASHONLY|Rotation=0.000|XOffset=0mil|YOffset=0mil|HoleType=Round|Shape=RoundedRectangle|*
%AMROUNDEDRECTD175*
21,1,0.0118,0.0199,0,0,0.0*
21,1,0.0055,0.0262,0,0,0.0*
1,1,0.0063,0.0028,-0.0099*
1,1,0.0063,-0.0028,-0.0099*
1,1,0.0063,-0.0028,0.0099*
1,1,0.0063,0.0028,0.0099*
%
%ADD175ROUNDEDRECTD175*%
G04:AMPARAMS|DCode=176|XSize=19.7mil|YSize=26.2mil|CornerRadius=3.2mil|HoleSize=0mil|Usage=FLASHONLY|Rotation=0.000|XOffset=0mil|YOffset=0mil|HoleType=Round|Shape=RoundedRectangle|*
%AMROUNDEDRECTD176*
21,1,0.0197,0.0197,0,0,0.0*
21,1,0.0132,0.0262,0,0,0.0*
1,1,0.0065,0.0066,-0.0099*
1,1,0.0065,-0.0066,-0.0099*
1,1,0.0065,-0.0066,0.0099*
1,1,0.0065,0.0066,0.0099*
%
%ADD176ROUNDEDRECTD176*%
G04:AMPARAMS|DCode=177|XSize=94.5mil|YSize=90.6mil|CornerRadius=24mil|HoleSize=0mil|Usage=FLASHONLY|Rotation=270.000|XOffset=0mil|YOffset=0mil|HoleType=Round|Shape=RoundedRectangle|*
%AMROUNDEDRECTD177*
21,1,0.0945,0.0425,0,0,270.0*
21,1,0.0465,0.0906,0,0,270.0*
1,1,0.0480,-0.0213,-0.0232*
1,1,0.0480,-0.0213,0.0232*
1,1,0.0480,0.0213,0.0232*
1,1,0.0480,0.0213,-0.0232*
%
%ADD177ROUNDEDRECTD177*%
G04:AMPARAMS|DCode=178|XSize=94.5mil|YSize=90.6mil|CornerRadius=24mil|HoleSize=0mil|Usage=FLASHONLY|Rotation=180.000|XOffset=0mil|YOffset=0mil|HoleType=Round|Shape=RoundedRectangle|*
%AMROUNDEDRECTD178*
21,1,0.0945,0.0425,0,0,180.0*
21,1,0.0465,0.0906,0,0,180.0*
1,1,0.0480,-0.0232,0.0213*
1,1,0.0480,0.0232,0.0213*
1,1,0.0480,0.0232,-0.0213*
1,1,0.0480,-0.0232,-0.0213*
%
%ADD178ROUNDEDRECTD178*%
%ADD179R,0.0295X0.0276*%
%ADD180R,0.0291X0.0331*%
%ADD181R,0.0693X0.1319*%
G04:AMPARAMS|DCode=182|XSize=74.9mil|YSize=50.9mil|CornerRadius=10mil|HoleSize=0mil|Usage=FLASHONLY|Rotation=90.000|XOffset=0mil|YOffset=0mil|HoleType=Round|Shape=RoundedRectangle|*
%AMROUNDEDRECTD182*
21,1,0.0749,0.0310,0,0,90.0*
21,1,0.0550,0.0509,0,0,90.0*
1,1,0.0199,0.0155,0.0275*
1,1,0.0199,0.0155,-0.0275*
1,1,0.0199,-0.0155,-0.0275*
1,1,0.0199,-0.0155,0.0275*
%
%ADD182ROUNDEDRECTD182*%
G04:AMPARAMS|DCode=183|XSize=74.9mil|YSize=50.9mil|CornerRadius=10mil|HoleSize=0mil|Usage=FLASHONLY|Rotation=180.000|XOffset=0mil|YOffset=0mil|HoleType=Round|Shape=RoundedRectangle|*
%AMROUNDEDRECTD183*
21,1,0.0749,0.0310,0,0,180.0*
21,1,0.0550,0.0509,0,0,180.0*
1,1,0.0199,-0.0275,0.0155*
1,1,0.0199,0.0275,0.0155*
1,1,0.0199,0.0275,-0.0155*
1,1,0.0199,-0.0275,-0.0155*
%
%ADD183ROUNDEDRECTD183*%
G04:AMPARAMS|DCode=184|XSize=23.9mil|YSize=23.9mil|CornerRadius=8mil|HoleSize=0mil|Usage=FLASHONLY|Rotation=45.000|XOffset=0mil|YOffset=0mil|HoleType=Round|Shape=RoundedRectangle|*
%AMROUNDEDRECTD184*
21,1,0.0239,0.0080,0,0,45.0*
21,1,0.0080,0.0239,0,0,45.0*
1,1,0.0159,0.0057,0.0000*
1,1,0.0159,0.0000,-0.0057*
1,1,0.0159,-0.0057,0.0000*
1,1,0.0159,0.0000,0.0057*
%
%ADD184ROUNDEDRECTD184*%
G04:AMPARAMS|DCode=185|XSize=23.9mil|YSize=23.9mil|CornerRadius=8mil|HoleSize=0mil|Usage=FLASHONLY|Rotation=135.000|XOffset=0mil|YOffset=0mil|HoleType=Round|Shape=RoundedRectangle|*
%AMROUNDEDRECTD185*
21,1,0.0239,0.0080,0,0,135.0*
21,1,0.0080,0.0239,0,0,135.0*
1,1,0.0159,0.0000,0.0057*
1,1,0.0159,0.0057,0.0000*
1,1,0.0159,0.0000,-0.0057*
1,1,0.0159,-0.0057,0.0000*
%
%ADD185ROUNDEDRECTD185*%
G04:AMPARAMS|DCode=186|XSize=66.9mil|YSize=141.7mil|CornerRadius=9.8mil|HoleSize=0mil|Usage=FLASHONLY|Rotation=0.000|XOffset=0mil|YOffset=0mil|HoleType=Round|Shape=RoundedRectangle|*
%AMROUNDEDRECTD186*
21,1,0.0669,0.1220,0,0,0.0*
21,1,0.0472,0.1417,0,0,0.0*
1,1,0.0197,0.0236,-0.0610*
1,1,0.0197,-0.0236,-0.0610*
1,1,0.0197,-0.0236,0.0610*
1,1,0.0197,0.0236,0.0610*
%
%ADD186ROUNDEDRECTD186*%
G04:AMPARAMS|DCode=187|XSize=31.5mil|YSize=17.7mil|CornerRadius=3.3mil|HoleSize=0mil|Usage=FLASHONLY|Rotation=0.000|XOffset=0mil|YOffset=0mil|HoleType=Round|Shape=RoundedRectangle|*
%AMROUNDEDRECTD187*
21,1,0.0315,0.0110,0,0,0.0*
21,1,0.0248,0.0177,0,0,0.0*
1,1,0.0067,0.0124,-0.0055*
1,1,0.0067,-0.0124,-0.0055*
1,1,0.0067,-0.0124,0.0055*
1,1,0.0067,0.0124,0.0055*
%
%ADD187ROUNDEDRECTD187*%
G04:AMPARAMS|DCode=188|XSize=27.6mil|YSize=29.5mil|CornerRadius=4.3mil|HoleSize=0mil|Usage=FLASHONLY|Rotation=0.000|XOffset=0mil|YOffset=0mil|HoleType=Round|Shape=RoundedRectangle|*
%AMROUNDEDRECTD188*
21,1,0.0276,0.0209,0,0,0.0*
21,1,0.0189,0.0295,0,0,0.0*
1,1,0.0087,0.0094,-0.0104*
1,1,0.0087,-0.0094,-0.0104*
1,1,0.0087,-0.0094,0.0104*
1,1,0.0087,0.0094,0.0104*
%
%ADD188ROUNDEDRECTD188*%
G04:AMPARAMS|DCode=189|XSize=27.2mil|YSize=44.9mil|CornerRadius=4.9mil|HoleSize=0mil|Usage=FLASHONLY|Rotation=0.000|XOffset=0mil|YOffset=0mil|HoleType=Round|Shape=RoundedRectangle|*
%AMROUNDEDRECTD189*
21,1,0.0272,0.0350,0,0,0.0*
21,1,0.0173,0.0449,0,0,0.0*
1,1,0.0098,0.0087,-0.0175*
1,1,0.0098,-0.0087,-0.0175*
1,1,0.0098,-0.0087,0.0175*
1,1,0.0098,0.0087,0.0175*
%
%ADD189ROUNDEDRECTD189*%
G04:AMPARAMS|DCode=190|XSize=66.9mil|YSize=141.7mil|CornerRadius=9.8mil|HoleSize=0mil|Usage=FLASHONLY|Rotation=270.000|XOffset=0mil|YOffset=0mil|HoleType=Round|Shape=RoundedRectangle|*
%AMROUNDEDRECTD190*
21,1,0.0669,0.1220,0,0,270.0*
21,1,0.0472,0.1417,0,0,270.0*
1,1,0.0197,-0.0610,-0.0236*
1,1,0.0197,-0.0610,0.0236*
1,1,0.0197,0.0610,0.0236*
1,1,0.0197,0.0610,-0.0236*
%
%ADD190ROUNDEDRECTD190*%
G04:AMPARAMS|DCode=191|XSize=19.7mil|YSize=57.1mil|CornerRadius=5.9mil|HoleSize=0mil|Usage=FLASHONLY|Rotation=0.000|XOffset=0mil|YOffset=0mil|HoleType=Round|Shape=RoundedRectangle|*
%AMROUNDEDRECTD191*
21,1,0.0197,0.0453,0,0,0.0*
21,1,0.0079,0.0571,0,0,0.0*
1,1,0.0118,0.0039,-0.0226*
1,1,0.0118,-0.0039,-0.0226*
1,1,0.0118,-0.0039,0.0226*
1,1,0.0118,0.0039,0.0226*
%
%ADD191ROUNDEDRECTD191*%
%ADD192R,0.0787X0.0650*%
%ADD193R,0.0669X0.0591*%
%ADD194C,0.2496*%
%ADD195C,0.1157*%
%ADD196R,0.1157X0.1157*%
%ADD197C,0.1000*%
%ADD198C,0.0488*%
%ADD199C,0.0885*%
%ADD200C,0.1535*%
%ADD201C,0.0665*%
%ADD202C,0.0550*%
%ADD203R,0.0550X0.0550*%
%ADD204O,0.0429X0.0311*%
%ADD205O,0.0370X0.0606*%
%ADD206C,0.0311*%
%ADD207O,0.0843X0.2024*%
%ADD208O,0.2024X0.0843*%
%ADD209C,0.0764*%
%ADD210R,0.0764X0.0764*%
G04:AMPARAMS|DCode=211|XSize=39.4mil|YSize=66.9mil|CornerRadius=19.7mil|HoleSize=0mil|Usage=FLASHONLY|Rotation=0.000|XOffset=0mil|YOffset=0mil|HoleType=Round|Shape=RoundedRectangle|*
%AMROUNDEDRECTD211*
21,1,0.0394,0.0276,0,0,0.0*
21,1,0.0000,0.0669,0,0,0.0*
1,1,0.0394,0.0000,-0.0138*
1,1,0.0394,0.0000,-0.0138*
1,1,0.0394,0.0000,0.0138*
1,1,0.0394,0.0000,0.0138*
%
%ADD211ROUNDEDRECTD211*%
%ADD212C,0.0650*%
%ADD213R,0.0650X0.0650*%
%ADD214C,0.0783*%
%ADD215R,0.0783X0.0783*%
%ADD216C,0.0079*%
%ADD217C,0.0237*%
%ADD218C,0.0236*%
%ADD219C,0.0197*%
G36*
X8940Y28839D02*
X8941Y28839D01*
X8942Y28839D01*
X8943Y28839D01*
X8944Y28839D01*
X8944Y28839D01*
X8955Y28837D01*
X8955Y28836D01*
X8956Y28836D01*
X8957Y28836D01*
X8958Y28836D01*
X8958Y28835D01*
X8959Y28835D01*
X8969Y28831D01*
X8969Y28831D01*
X8970Y28831D01*
X8971Y28830D01*
X8972Y28830D01*
X8972Y28829D01*
X8973Y28829D01*
X8982Y28823D01*
X8982Y28823D01*
X8982Y28823D01*
X8983Y28822D01*
X8984Y28821D01*
X8985Y28821D01*
X8985Y28820D01*
X8993Y28813D01*
X8993Y28812D01*
X8993Y28812D01*
X8994Y28811D01*
X8995Y28810D01*
X8995Y28810D01*
X8995Y28810D01*
X9001Y28800D01*
X9002Y28800D01*
X9002Y28800D01*
X9002Y28799D01*
X9003Y28798D01*
X9003Y28797D01*
X9003Y28797D01*
X9008Y28787D01*
X9008Y28786D01*
X9008Y28786D01*
X9008Y28785D01*
X9009Y28783D01*
X9009Y28783D01*
X9009Y28783D01*
X9011Y28772D01*
X9011Y28772D01*
X9011Y28771D01*
X9011Y28770D01*
X9011Y28769D01*
X9011Y28768D01*
X9011Y28768D01*
X9011Y28762D01*
X9011Y28624D01*
Y28624D01*
D01*
X9011Y28621D01*
X9010Y28618D01*
X9009Y28615D01*
X9007Y28612D01*
X9005Y28609D01*
X9002Y28607D01*
X8999Y28605D01*
X8996Y28604D01*
X8993Y28603D01*
X8990Y28603D01*
D01*
X8990D01*
X8879D01*
X8876Y28603D01*
X8873Y28604D01*
X8870Y28605D01*
X8867Y28607D01*
X8864Y28609D01*
X8862Y28612D01*
X8860Y28615D01*
X8859Y28618D01*
X8858Y28621D01*
X8858Y28624D01*
X8858Y28762D01*
X8858Y28762D01*
X8858Y28768D01*
X8858Y28768D01*
X8858Y28769D01*
X8858Y28770D01*
X8858Y28771D01*
X8858Y28772D01*
X8858Y28772D01*
X8860Y28783D01*
X8860Y28783D01*
X8860Y28783D01*
X8861Y28785D01*
X8861Y28786D01*
X8861Y28786D01*
X8861Y28787D01*
X8866Y28797D01*
X8866Y28797D01*
X8866Y28798D01*
X8867Y28799D01*
X8867Y28800D01*
X8867Y28800D01*
X8868Y28800D01*
X8874Y28810D01*
X8874Y28810D01*
X8874Y28810D01*
X8875Y28811D01*
X8876Y28812D01*
X8876Y28812D01*
X8876Y28813D01*
X8884Y28820D01*
X8884Y28821D01*
X8885Y28821D01*
X8886Y28822D01*
X8887Y28823D01*
X8887Y28823D01*
X8887Y28823D01*
X8896Y28829D01*
X8897Y28829D01*
X8897Y28830D01*
X8898Y28830D01*
X8899Y28831D01*
X8900Y28831D01*
X8900Y28831D01*
X8910Y28835D01*
X8910Y28835D01*
X8911Y28836D01*
X8912Y28836D01*
X8913Y28836D01*
X8914Y28836D01*
X8914Y28837D01*
X8925Y28839D01*
X8925Y28839D01*
X8926Y28839D01*
X8927Y28839D01*
X8928Y28839D01*
X8929Y28839D01*
X8929Y28839D01*
X8940Y28839D01*
X8940Y28839D01*
D02*
G37*
G36*
X8757Y29016D02*
X8763Y29016D01*
X8763Y29016D01*
X8764Y29016D01*
X8765Y29016D01*
X8766Y29016D01*
X8767Y29016D01*
X8767Y29016D01*
X8778Y29014D01*
X8778Y29014D01*
X8778Y29014D01*
X8780Y29013D01*
X8781Y29013D01*
X8781Y29013D01*
X8782Y29013D01*
X8792Y29008D01*
X8792Y29008D01*
X8793Y29008D01*
X8794Y29007D01*
X8795Y29007D01*
X8795Y29007D01*
X8796Y29006D01*
X8805Y29000D01*
X8805Y29000D01*
X8805Y29000D01*
X8806Y28999D01*
X8807Y28998D01*
X8808Y28998D01*
X8808Y28998D01*
X8816Y28990D01*
X8816Y28990D01*
X8816Y28989D01*
X8817Y28988D01*
X8818Y28987D01*
X8818Y28987D01*
X8818Y28987D01*
X8824Y28978D01*
X8824Y28977D01*
X8825Y28977D01*
X8825Y28976D01*
X8826Y28975D01*
X8826Y28974D01*
X8826Y28974D01*
X8830Y28964D01*
X8831Y28963D01*
X8831Y28963D01*
X8831Y28962D01*
X8831Y28961D01*
X8832Y28960D01*
X8832Y28960D01*
X8834Y28949D01*
X8834Y28949D01*
X8834Y28948D01*
X8834Y28947D01*
X8834Y28946D01*
X8834Y28945D01*
X8834Y28945D01*
X8834Y28934D01*
X8834Y28934D01*
X8834Y28933D01*
X8834Y28932D01*
X8834Y28931D01*
X8834Y28930D01*
X8834Y28930D01*
X8832Y28919D01*
X8832Y28919D01*
X8831Y28918D01*
X8831Y28917D01*
X8831Y28916D01*
X8831Y28915D01*
X8830Y28915D01*
X8826Y28905D01*
X8826Y28905D01*
X8826Y28904D01*
X8825Y28903D01*
X8825Y28902D01*
X8824Y28902D01*
X8824Y28901D01*
X8818Y28892D01*
X8818Y28892D01*
X8818Y28892D01*
X8817Y28891D01*
X8816Y28890D01*
X8816Y28889D01*
X8816Y28889D01*
X8808Y28881D01*
X8808Y28881D01*
X8807Y28881D01*
X8806Y28880D01*
X8805Y28879D01*
X8805Y28879D01*
X8805Y28879D01*
X8796Y28873D01*
X8795Y28872D01*
X8795Y28872D01*
X8794Y28872D01*
X8793Y28871D01*
X8792Y28871D01*
X8792Y28871D01*
X8782Y28866D01*
X8781Y28866D01*
X8781Y28866D01*
X8780Y28866D01*
X8778Y28865D01*
X8778Y28865D01*
X8778Y28865D01*
X8767Y28863D01*
X8767Y28863D01*
X8766Y28863D01*
X8765Y28863D01*
X8764Y28863D01*
X8763Y28863D01*
X8763Y28863D01*
X8757Y28863D01*
X8620Y28863D01*
X8616Y28863D01*
X8613Y28864D01*
X8610Y28865D01*
X8607Y28867D01*
X8604Y28869D01*
X8602Y28872D01*
X8600Y28874D01*
X8599Y28878D01*
X8598Y28881D01*
X8598Y28884D01*
Y28995D01*
X8598Y28998D01*
X8599Y29001D01*
X8600Y29004D01*
X8602Y29007D01*
X8604Y29010D01*
X8607Y29012D01*
X8610Y29014D01*
X8613Y29015D01*
X8616Y29016D01*
X8620Y29016D01*
X8757Y29016D01*
D01*
D01*
X8757D01*
X8757Y29016D01*
D02*
G37*
G36*
Y29213D02*
X8763Y29213D01*
X8763Y29213D01*
X8764Y29213D01*
X8765Y29213D01*
X8766Y29213D01*
X8767Y29213D01*
X8767Y29213D01*
X8778Y29211D01*
X8778Y29210D01*
X8778Y29210D01*
X8780Y29210D01*
X8781Y29210D01*
X8781Y29209D01*
X8782Y29209D01*
X8792Y29205D01*
X8792Y29205D01*
X8793Y29205D01*
X8794Y29204D01*
X8795Y29204D01*
X8795Y29203D01*
X8796Y29203D01*
X8805Y29197D01*
X8805Y29197D01*
X8805Y29197D01*
X8806Y29196D01*
X8807Y29195D01*
X8808Y29195D01*
X8808Y29194D01*
X8816Y29187D01*
X8816Y29186D01*
X8816Y29186D01*
X8817Y29185D01*
X8818Y29184D01*
X8818Y29184D01*
X8818Y29183D01*
X8824Y29174D01*
X8824Y29174D01*
X8825Y29174D01*
X8825Y29173D01*
X8826Y29172D01*
X8826Y29171D01*
X8826Y29171D01*
X8830Y29161D01*
X8831Y29160D01*
X8831Y29160D01*
X8831Y29159D01*
X8831Y29157D01*
X8832Y29157D01*
X8832Y29157D01*
X8834Y29146D01*
X8834Y29146D01*
X8834Y29145D01*
X8834Y29144D01*
X8834Y29143D01*
X8834Y29142D01*
X8834Y29142D01*
X8834Y29131D01*
X8834Y29130D01*
X8834Y29130D01*
X8834Y29129D01*
X8834Y29127D01*
X8834Y29127D01*
X8834Y29127D01*
X8832Y29116D01*
X8832Y29116D01*
X8831Y29115D01*
X8831Y29114D01*
X8831Y29113D01*
X8831Y29112D01*
X8830Y29112D01*
X8826Y29102D01*
X8826Y29102D01*
X8826Y29101D01*
X8825Y29100D01*
X8825Y29099D01*
X8824Y29098D01*
X8824Y29098D01*
X8818Y29089D01*
X8818Y29089D01*
X8818Y29088D01*
X8817Y29087D01*
X8816Y29086D01*
X8816Y29086D01*
X8816Y29086D01*
X8808Y29078D01*
X8808Y29078D01*
X8807Y29078D01*
X8806Y29077D01*
X8805Y29076D01*
X8805Y29076D01*
X8805Y29075D01*
X8796Y29069D01*
X8795Y29069D01*
X8795Y29069D01*
X8794Y29068D01*
X8793Y29068D01*
X8792Y29068D01*
X8792Y29067D01*
X8782Y29063D01*
X8781Y29063D01*
X8781Y29063D01*
X8780Y29063D01*
X8778Y29062D01*
X8778Y29062D01*
X8778Y29062D01*
X8767Y29060D01*
X8767Y29060D01*
X8766Y29060D01*
X8765Y29060D01*
X8764Y29059D01*
X8763Y29060D01*
X8763Y29059D01*
X8757Y29059D01*
X8620Y29059D01*
X8616Y29060D01*
X8613Y29061D01*
X8610Y29062D01*
X8607Y29064D01*
X8604Y29066D01*
X8602Y29068D01*
X8600Y29071D01*
X8599Y29074D01*
X8598Y29078D01*
X8598Y29081D01*
Y29191D01*
X8598Y29195D01*
X8599Y29198D01*
X8600Y29201D01*
X8602Y29204D01*
X8604Y29207D01*
X8607Y29209D01*
X8610Y29211D01*
X8613Y29212D01*
X8616Y29213D01*
X8620Y29213D01*
X8757Y29213D01*
D01*
D01*
X8757D01*
X8757Y29213D01*
D02*
G37*
G36*
X9137Y28839D02*
X9138Y28839D01*
X9139Y28839D01*
X9140Y28839D01*
X9141Y28839D01*
X9141Y28839D01*
X9152Y28837D01*
X9152Y28836D01*
X9152Y28836D01*
X9154Y28836D01*
X9155Y28836D01*
X9155Y28835D01*
X9156Y28835D01*
X9166Y28831D01*
X9166Y28831D01*
X9167Y28831D01*
X9168Y28830D01*
X9169Y28830D01*
X9169Y28829D01*
X9170Y28829D01*
X9179Y28823D01*
X9179Y28823D01*
X9179Y28823D01*
X9180Y28822D01*
X9181Y28821D01*
X9182Y28821D01*
X9182Y28820D01*
X9190Y28813D01*
X9190Y28812D01*
X9190Y28812D01*
X9191Y28811D01*
X9192Y28810D01*
X9192Y28810D01*
X9192Y28810D01*
X9198Y28800D01*
X9198Y28800D01*
X9199Y28800D01*
X9199Y28799D01*
X9200Y28798D01*
X9200Y28797D01*
X9200Y28797D01*
X9204Y28787D01*
X9205Y28786D01*
X9205Y28786D01*
X9205Y28785D01*
X9205Y28783D01*
X9206Y28783D01*
X9206Y28783D01*
X9208Y28772D01*
X9208Y28772D01*
X9208Y28771D01*
X9208Y28770D01*
X9208Y28769D01*
X9208Y28768D01*
X9208Y28768D01*
X9208Y28762D01*
X9208Y28624D01*
Y28624D01*
D01*
X9208Y28621D01*
X9207Y28618D01*
X9206Y28615D01*
X9204Y28612D01*
X9202Y28609D01*
X9199Y28607D01*
X9196Y28605D01*
X9193Y28604D01*
X9190Y28603D01*
X9186Y28603D01*
X9186D01*
D01*
X9076D01*
X9073Y28603D01*
X9070Y28604D01*
X9066Y28605D01*
X9063Y28607D01*
X9061Y28609D01*
X9059Y28612D01*
X9057Y28615D01*
X9056Y28618D01*
X9055Y28621D01*
X9054Y28624D01*
X9054Y28762D01*
X9054Y28762D01*
X9054Y28768D01*
X9055Y28768D01*
X9055Y28769D01*
X9055Y28770D01*
X9055Y28771D01*
X9055Y28772D01*
X9055Y28772D01*
X9057Y28783D01*
X9057Y28783D01*
X9057Y28783D01*
X9058Y28785D01*
X9058Y28786D01*
X9058Y28786D01*
X9058Y28787D01*
X9062Y28797D01*
X9063Y28797D01*
X9063Y28798D01*
X9063Y28799D01*
X9064Y28800D01*
X9064Y28800D01*
X9064Y28800D01*
X9070Y28810D01*
X9071Y28810D01*
X9071Y28810D01*
X9072Y28811D01*
X9073Y28812D01*
X9073Y28812D01*
X9073Y28813D01*
X9081Y28820D01*
X9081Y28821D01*
X9081Y28821D01*
X9082Y28822D01*
X9083Y28823D01*
X9084Y28823D01*
X9084Y28823D01*
X9093Y28829D01*
X9094Y28829D01*
X9094Y28830D01*
X9095Y28830D01*
X9096Y28831D01*
X9097Y28831D01*
X9097Y28831D01*
X9107Y28835D01*
X9107Y28835D01*
X9108Y28836D01*
X9109Y28836D01*
X9110Y28836D01*
X9111Y28836D01*
X9111Y28837D01*
X9122Y28839D01*
X9122Y28839D01*
X9123Y28839D01*
X9124Y28839D01*
X9125Y28839D01*
X9125Y28839D01*
X9126Y28839D01*
X9137Y28839D01*
X9137Y28839D01*
D02*
G37*
G36*
X9334D02*
X9334Y28839D01*
X9336Y28839D01*
X9337Y28839D01*
X9337Y28839D01*
X9338Y28839D01*
X9348Y28837D01*
X9349Y28836D01*
X9349Y28836D01*
X9351Y28836D01*
X9352Y28836D01*
X9352Y28835D01*
X9353Y28835D01*
X9363Y28831D01*
X9363Y28831D01*
X9363Y28831D01*
X9365Y28830D01*
X9366Y28830D01*
X9366Y28829D01*
X9366Y28829D01*
X9375Y28823D01*
X9376Y28823D01*
X9376Y28823D01*
X9377Y28822D01*
X9378Y28821D01*
X9378Y28821D01*
X9379Y28820D01*
X9386Y28813D01*
X9387Y28812D01*
X9387Y28812D01*
X9388Y28811D01*
X9389Y28810D01*
X9389Y28810D01*
X9389Y28810D01*
X9395Y28800D01*
X9395Y28800D01*
X9396Y28800D01*
X9396Y28799D01*
X9397Y28798D01*
X9397Y28797D01*
X9397Y28797D01*
X9401Y28787D01*
X9401Y28786D01*
X9402Y28786D01*
X9402Y28785D01*
X9402Y28783D01*
X9402Y28783D01*
X9402Y28783D01*
X9405Y28772D01*
X9405Y28772D01*
X9405Y28771D01*
X9405Y28770D01*
X9405Y28769D01*
X9405Y28768D01*
X9405Y28768D01*
X9405Y28762D01*
X9405Y28624D01*
Y28624D01*
D01*
X9405Y28621D01*
X9404Y28618D01*
X9403Y28615D01*
X9401Y28612D01*
X9399Y28609D01*
X9396Y28607D01*
X9393Y28605D01*
X9390Y28604D01*
X9387Y28603D01*
X9383Y28603D01*
X9383D01*
D01*
X9273D01*
X9270Y28603D01*
X9266Y28604D01*
X9263Y28605D01*
X9260Y28607D01*
X9258Y28609D01*
X9255Y28612D01*
X9254Y28615D01*
X9252Y28618D01*
X9252Y28621D01*
X9251Y28624D01*
X9251Y28762D01*
X9251Y28762D01*
X9251Y28768D01*
X9251Y28768D01*
X9251Y28769D01*
X9252Y28770D01*
X9252Y28771D01*
X9252Y28772D01*
X9252Y28772D01*
X9254Y28783D01*
X9254Y28783D01*
X9254Y28783D01*
X9254Y28785D01*
X9255Y28786D01*
X9255Y28786D01*
X9255Y28787D01*
X9259Y28797D01*
X9259Y28797D01*
X9260Y28798D01*
X9260Y28799D01*
X9261Y28800D01*
X9261Y28800D01*
X9261Y28800D01*
X9267Y28810D01*
X9268Y28810D01*
X9268Y28810D01*
X9269Y28811D01*
X9269Y28812D01*
X9270Y28812D01*
X9270Y28813D01*
X9278Y28820D01*
X9278Y28821D01*
X9278Y28821D01*
X9279Y28822D01*
X9280Y28823D01*
X9281Y28823D01*
X9281Y28823D01*
X9290Y28829D01*
X9290Y28829D01*
X9291Y28830D01*
X9292Y28830D01*
X9293Y28831D01*
X9293Y28831D01*
X9294Y28831D01*
X9304Y28835D01*
X9304Y28835D01*
X9305Y28836D01*
X9306Y28836D01*
X9307Y28836D01*
X9307Y28836D01*
X9308Y28837D01*
X9319Y28839D01*
X9319Y28839D01*
X9319Y28839D01*
X9321Y28839D01*
X9322Y28839D01*
X9322Y28839D01*
X9323Y28839D01*
X9334Y28839D01*
X9334Y28839D01*
D02*
G37*
G36*
X9531D02*
X9531Y28839D01*
X9533Y28839D01*
X9534Y28839D01*
X9534Y28839D01*
X9535Y28839D01*
X9545Y28837D01*
X9546Y28836D01*
X9546Y28836D01*
X9547Y28836D01*
X9549Y28836D01*
X9549Y28835D01*
X9549Y28835D01*
X9559Y28831D01*
X9560Y28831D01*
X9560Y28831D01*
X9561Y28830D01*
X9562Y28830D01*
X9563Y28829D01*
X9563Y28829D01*
X9572Y28823D01*
X9573Y28823D01*
X9573Y28823D01*
X9574Y28822D01*
X9575Y28821D01*
X9575Y28821D01*
X9576Y28820D01*
X9583Y28813D01*
X9583Y28812D01*
X9584Y28812D01*
X9585Y28811D01*
X9585Y28810D01*
X9586Y28810D01*
X9586Y28810D01*
X9592Y28800D01*
X9592Y28800D01*
X9592Y28800D01*
X9593Y28799D01*
X9594Y28798D01*
X9594Y28797D01*
X9594Y28797D01*
X9598Y28787D01*
X9598Y28786D01*
X9598Y28786D01*
X9599Y28785D01*
X9599Y28783D01*
X9599Y28783D01*
X9599Y28783D01*
X9601Y28772D01*
X9602Y28772D01*
X9602Y28771D01*
X9602Y28770D01*
X9602Y28769D01*
X9602Y28768D01*
X9602Y28768D01*
X9602Y28762D01*
X9602Y28624D01*
Y28624D01*
D01*
X9602Y28621D01*
X9601Y28618D01*
X9600Y28615D01*
X9598Y28612D01*
X9596Y28609D01*
X9593Y28607D01*
X9590Y28605D01*
X9587Y28604D01*
X9584Y28603D01*
X9580Y28603D01*
D01*
X9580D01*
X9470D01*
X9467Y28603D01*
X9463Y28604D01*
X9460Y28605D01*
X9457Y28607D01*
X9455Y28609D01*
X9452Y28612D01*
X9451Y28615D01*
X9449Y28618D01*
X9448Y28621D01*
X9448Y28624D01*
X9448Y28762D01*
X9448Y28762D01*
X9448Y28768D01*
X9448Y28768D01*
X9448Y28769D01*
X9448Y28770D01*
X9448Y28771D01*
X9449Y28772D01*
X9449Y28772D01*
X9451Y28783D01*
X9451Y28783D01*
X9451Y28783D01*
X9451Y28785D01*
X9452Y28786D01*
X9452Y28786D01*
X9452Y28787D01*
X9456Y28797D01*
X9456Y28797D01*
X9456Y28798D01*
X9457Y28799D01*
X9458Y28800D01*
X9458Y28800D01*
X9458Y28800D01*
X9464Y28810D01*
X9464Y28810D01*
X9465Y28810D01*
X9465Y28811D01*
X9466Y28812D01*
X9467Y28812D01*
X9467Y28813D01*
X9475Y28820D01*
X9475Y28821D01*
X9475Y28821D01*
X9476Y28822D01*
X9477Y28823D01*
X9477Y28823D01*
X9478Y28823D01*
X9487Y28829D01*
X9487Y28829D01*
X9488Y28830D01*
X9489Y28830D01*
X9490Y28831D01*
X9490Y28831D01*
X9491Y28831D01*
X9501Y28835D01*
X9501Y28835D01*
X9501Y28836D01*
X9503Y28836D01*
X9504Y28836D01*
X9504Y28836D01*
X9505Y28837D01*
X9515Y28839D01*
X9516Y28839D01*
X9516Y28839D01*
X9517Y28839D01*
X9519Y28839D01*
X9519Y28839D01*
X9520Y28839D01*
X9530Y28839D01*
X9531Y28839D01*
D02*
G37*
G36*
X8757Y29410D02*
X8763Y29410D01*
X8763Y29410D01*
X8764Y29410D01*
X8765Y29410D01*
X8766Y29410D01*
X8767Y29410D01*
X8767Y29410D01*
X8778Y29407D01*
X8778Y29407D01*
X8778Y29407D01*
X8780Y29407D01*
X8781Y29407D01*
X8781Y29406D01*
X8782Y29406D01*
X8792Y29402D01*
X8792Y29402D01*
X8793Y29402D01*
X8794Y29401D01*
X8795Y29401D01*
X8795Y29400D01*
X8796Y29400D01*
X8805Y29394D01*
X8805Y29394D01*
X8805Y29394D01*
X8806Y29393D01*
X8807Y29392D01*
X8808Y29392D01*
X8808Y29391D01*
X8816Y29384D01*
X8816Y29383D01*
X8816Y29383D01*
X8817Y29382D01*
X8818Y29381D01*
X8818Y29381D01*
X8818Y29380D01*
X8824Y29371D01*
X8824Y29371D01*
X8825Y29371D01*
X8825Y29369D01*
X8826Y29368D01*
X8826Y29368D01*
X8826Y29368D01*
X8830Y29358D01*
X8831Y29357D01*
X8831Y29357D01*
X8831Y29355D01*
X8831Y29354D01*
X8832Y29354D01*
X8832Y29353D01*
X8834Y29343D01*
X8834Y29342D01*
X8834Y29342D01*
X8834Y29341D01*
X8834Y29339D01*
X8834Y29339D01*
X8834Y29339D01*
X8834Y29328D01*
X8834Y29327D01*
X8834Y29327D01*
X8834Y29326D01*
X8834Y29324D01*
X8834Y29324D01*
X8834Y29323D01*
X8832Y29313D01*
X8832Y29312D01*
X8831Y29312D01*
X8831Y29311D01*
X8831Y29310D01*
X8831Y29309D01*
X8830Y29309D01*
X8826Y29299D01*
X8826Y29298D01*
X8826Y29298D01*
X8825Y29297D01*
X8825Y29296D01*
X8824Y29295D01*
X8824Y29295D01*
X8818Y29286D01*
X8818Y29286D01*
X8818Y29285D01*
X8817Y29284D01*
X8816Y29283D01*
X8816Y29283D01*
X8816Y29283D01*
X8808Y29275D01*
X8808Y29275D01*
X8807Y29274D01*
X8806Y29274D01*
X8805Y29273D01*
X8805Y29273D01*
X8805Y29272D01*
X8796Y29266D01*
X8795Y29266D01*
X8795Y29266D01*
X8794Y29265D01*
X8793Y29265D01*
X8792Y29264D01*
X8792Y29264D01*
X8782Y29260D01*
X8781Y29260D01*
X8781Y29260D01*
X8780Y29259D01*
X8778Y29259D01*
X8778Y29259D01*
X8778Y29259D01*
X8767Y29257D01*
X8767Y29257D01*
X8766Y29257D01*
X8765Y29256D01*
X8764Y29256D01*
X8763Y29256D01*
X8763Y29256D01*
X8757Y29256D01*
X8620Y29256D01*
X8616Y29257D01*
X8613Y29257D01*
X8610Y29259D01*
X8607Y29260D01*
X8604Y29263D01*
X8602Y29265D01*
X8600Y29268D01*
X8599Y29271D01*
X8598Y29275D01*
X8598Y29278D01*
Y29388D01*
X8598Y29392D01*
X8599Y29395D01*
X8600Y29398D01*
X8602Y29401D01*
X8604Y29404D01*
X8607Y29406D01*
X8610Y29408D01*
X8613Y29409D01*
X8616Y29410D01*
X8620Y29410D01*
X8757Y29410D01*
D01*
D01*
X8757D01*
X8757Y29410D01*
D02*
G37*
G36*
Y29607D02*
X8763Y29607D01*
X8763Y29607D01*
X8764Y29607D01*
X8765Y29607D01*
X8766Y29607D01*
X8767Y29606D01*
X8767Y29606D01*
X8778Y29604D01*
X8778Y29604D01*
X8778Y29604D01*
X8780Y29604D01*
X8781Y29603D01*
X8781Y29603D01*
X8782Y29603D01*
X8792Y29599D01*
X8792Y29599D01*
X8793Y29599D01*
X8794Y29598D01*
X8795Y29597D01*
X8795Y29597D01*
X8796Y29597D01*
X8805Y29591D01*
X8805Y29591D01*
X8805Y29590D01*
X8806Y29590D01*
X8807Y29589D01*
X8808Y29588D01*
X8808Y29588D01*
X8816Y29581D01*
X8816Y29580D01*
X8816Y29580D01*
X8817Y29579D01*
X8818Y29578D01*
X8818Y29578D01*
X8818Y29577D01*
X8824Y29568D01*
X8824Y29568D01*
X8825Y29567D01*
X8825Y29566D01*
X8826Y29565D01*
X8826Y29565D01*
X8826Y29564D01*
X8830Y29554D01*
X8831Y29554D01*
X8831Y29554D01*
X8831Y29552D01*
X8831Y29551D01*
X8832Y29551D01*
X8832Y29550D01*
X8834Y29540D01*
X8834Y29539D01*
X8834Y29539D01*
X8834Y29538D01*
X8834Y29536D01*
X8834Y29536D01*
X8834Y29535D01*
X8834Y29525D01*
X8834Y29524D01*
X8834Y29524D01*
X8834Y29522D01*
X8834Y29521D01*
X8834Y29521D01*
X8834Y29520D01*
X8832Y29510D01*
X8832Y29509D01*
X8831Y29509D01*
X8831Y29508D01*
X8831Y29506D01*
X8831Y29506D01*
X8830Y29506D01*
X8826Y29496D01*
X8826Y29495D01*
X8826Y29495D01*
X8825Y29494D01*
X8825Y29493D01*
X8824Y29492D01*
X8824Y29492D01*
X8818Y29483D01*
X8818Y29482D01*
X8818Y29482D01*
X8817Y29481D01*
X8816Y29480D01*
X8816Y29480D01*
X8816Y29480D01*
X8808Y29472D01*
X8808Y29472D01*
X8807Y29471D01*
X8806Y29470D01*
X8805Y29470D01*
X8805Y29469D01*
X8805Y29469D01*
X8796Y29463D01*
X8795Y29463D01*
X8795Y29463D01*
X8794Y29462D01*
X8793Y29461D01*
X8792Y29461D01*
X8792Y29461D01*
X8782Y29457D01*
X8781Y29457D01*
X8781Y29457D01*
X8780Y29456D01*
X8778Y29456D01*
X8778Y29456D01*
X8778Y29456D01*
X8767Y29454D01*
X8767Y29454D01*
X8766Y29453D01*
X8765Y29453D01*
X8764Y29453D01*
X8763Y29453D01*
X8763Y29453D01*
X8757Y29453D01*
X8620Y29453D01*
X8616Y29453D01*
X8613Y29454D01*
X8610Y29456D01*
X8607Y29457D01*
X8604Y29460D01*
X8602Y29462D01*
X8600Y29465D01*
X8599Y29468D01*
X8598Y29471D01*
X8598Y29475D01*
Y29585D01*
X8598Y29589D01*
X8599Y29592D01*
X8600Y29595D01*
X8602Y29598D01*
X8604Y29600D01*
X8607Y29603D01*
X8610Y29604D01*
X8613Y29606D01*
X8616Y29607D01*
X8620Y29607D01*
X8757Y29607D01*
D01*
D01*
X8757D01*
X8757Y29607D01*
D02*
G37*
G36*
X8993Y29866D02*
X8996Y29866D01*
X8999Y29864D01*
X9002Y29863D01*
X9005Y29860D01*
X9007Y29858D01*
X9009Y29855D01*
X9010Y29852D01*
X9011Y29848D01*
X9011Y29845D01*
X9011Y29707D01*
X9011Y29707D01*
X9011Y29702D01*
X9011Y29701D01*
X9011Y29701D01*
X9011Y29700D01*
X9011Y29698D01*
X9011Y29698D01*
X9011Y29697D01*
X9009Y29687D01*
X9009Y29686D01*
X9009Y29686D01*
X9008Y29685D01*
X9008Y29684D01*
X9008Y29683D01*
X9008Y29683D01*
X9003Y29673D01*
X9003Y29672D01*
X9003Y29672D01*
X9002Y29671D01*
X9002Y29670D01*
X9002Y29669D01*
X9001Y29669D01*
X8995Y29660D01*
X8995Y29660D01*
X8995Y29659D01*
X8994Y29658D01*
X8993Y29657D01*
X8993Y29657D01*
X8993Y29657D01*
X8985Y29649D01*
X8985Y29649D01*
X8984Y29648D01*
X8983Y29648D01*
X8982Y29647D01*
X8982Y29647D01*
X8982Y29646D01*
X8973Y29640D01*
X8972Y29640D01*
X8972Y29640D01*
X8971Y29639D01*
X8970Y29639D01*
X8969Y29638D01*
X8969Y29638D01*
X8959Y29634D01*
X8958Y29634D01*
X8958Y29634D01*
X8957Y29633D01*
X8956Y29633D01*
X8955Y29633D01*
X8955Y29633D01*
X8944Y29631D01*
X8944Y29631D01*
X8943Y29631D01*
X8942Y29630D01*
X8941Y29630D01*
X8940Y29630D01*
X8940Y29630D01*
X8929Y29630D01*
X8929Y29630D01*
X8928Y29630D01*
X8927Y29630D01*
X8926Y29631D01*
X8925Y29631D01*
X8925Y29631D01*
X8914Y29633D01*
X8914Y29633D01*
X8913Y29633D01*
X8912Y29633D01*
X8911Y29634D01*
X8910Y29634D01*
X8910Y29634D01*
X8900Y29638D01*
X8900Y29638D01*
X8899Y29639D01*
X8898Y29639D01*
X8897Y29640D01*
X8897Y29640D01*
X8896Y29640D01*
X8887Y29646D01*
X8887Y29647D01*
X8887Y29647D01*
X8886Y29648D01*
X8885Y29648D01*
X8884Y29649D01*
X8884Y29649D01*
X8876Y29657D01*
X8876Y29657D01*
X8876Y29657D01*
X8875Y29658D01*
X8874Y29659D01*
X8874Y29660D01*
X8874Y29660D01*
X8868Y29669D01*
X8867Y29669D01*
X8867Y29670D01*
X8867Y29671D01*
X8866Y29672D01*
X8866Y29672D01*
X8866Y29673D01*
X8861Y29683D01*
X8861Y29683D01*
X8861Y29684D01*
X8861Y29685D01*
X8860Y29686D01*
X8860Y29686D01*
X8860Y29687D01*
X8858Y29697D01*
X8858Y29698D01*
X8858Y29698D01*
X8858Y29700D01*
X8858Y29701D01*
X8858Y29701D01*
X8858Y29702D01*
X8858Y29707D01*
X8858Y29845D01*
X8858Y29848D01*
X8859Y29852D01*
X8860Y29855D01*
X8862Y29858D01*
X8864Y29860D01*
X8867Y29863D01*
X8870Y29864D01*
X8873Y29866D01*
X8876Y29866D01*
X8879Y29867D01*
X8990D01*
X8993Y29866D01*
D02*
G37*
G36*
X9190D02*
X9193Y29866D01*
X9196Y29864D01*
X9199Y29863D01*
X9202Y29860D01*
X9204Y29858D01*
X9206Y29855D01*
X9207Y29852D01*
X9208Y29848D01*
X9208Y29845D01*
X9208Y29707D01*
X9208Y29707D01*
X9208Y29702D01*
X9208Y29701D01*
X9208Y29701D01*
X9208Y29700D01*
X9208Y29698D01*
X9208Y29698D01*
X9208Y29697D01*
X9206Y29687D01*
X9206Y29686D01*
X9205Y29686D01*
X9205Y29685D01*
X9205Y29684D01*
X9205Y29683D01*
X9204Y29683D01*
X9200Y29673D01*
X9200Y29672D01*
X9200Y29672D01*
X9199Y29671D01*
X9199Y29670D01*
X9198Y29669D01*
X9198Y29669D01*
X9192Y29660D01*
X9192Y29660D01*
X9192Y29659D01*
X9191Y29658D01*
X9190Y29657D01*
X9190Y29657D01*
X9190Y29657D01*
X9182Y29649D01*
X9182Y29649D01*
X9181Y29648D01*
X9180Y29648D01*
X9179Y29647D01*
X9179Y29647D01*
X9179Y29646D01*
X9170Y29640D01*
X9169Y29640D01*
X9169Y29640D01*
X9168Y29639D01*
X9167Y29639D01*
X9166Y29638D01*
X9166Y29638D01*
X9156Y29634D01*
X9155Y29634D01*
X9155Y29634D01*
X9154Y29633D01*
X9152Y29633D01*
X9152Y29633D01*
X9152Y29633D01*
X9141Y29631D01*
X9141Y29631D01*
X9140Y29631D01*
X9139Y29630D01*
X9138Y29630D01*
X9137Y29630D01*
X9137Y29630D01*
X9126Y29630D01*
X9125Y29630D01*
X9125Y29630D01*
X9124Y29630D01*
X9123Y29631D01*
X9122Y29631D01*
X9122Y29631D01*
X9111Y29633D01*
X9111Y29633D01*
X9110Y29633D01*
X9109Y29633D01*
X9108Y29634D01*
X9107Y29634D01*
X9107Y29634D01*
X9097Y29638D01*
X9097Y29638D01*
X9096Y29639D01*
X9095Y29639D01*
X9094Y29640D01*
X9094Y29640D01*
X9093Y29640D01*
X9084Y29646D01*
X9084Y29647D01*
X9083Y29647D01*
X9082Y29648D01*
X9081Y29648D01*
X9081Y29649D01*
X9081Y29649D01*
X9073Y29657D01*
X9073Y29657D01*
X9073Y29657D01*
X9072Y29658D01*
X9071Y29659D01*
X9071Y29660D01*
X9070Y29660D01*
X9064Y29669D01*
X9064Y29669D01*
X9064Y29670D01*
X9063Y29671D01*
X9063Y29672D01*
X9063Y29672D01*
X9062Y29673D01*
X9058Y29683D01*
X9058Y29683D01*
X9058Y29684D01*
X9058Y29685D01*
X9057Y29686D01*
X9057Y29686D01*
X9057Y29687D01*
X9055Y29697D01*
X9055Y29698D01*
X9055Y29698D01*
X9055Y29700D01*
X9055Y29701D01*
X9055Y29701D01*
X9054Y29702D01*
X9054Y29707D01*
X9054Y29845D01*
X9055Y29848D01*
X9056Y29852D01*
X9057Y29855D01*
X9059Y29858D01*
X9061Y29860D01*
X9063Y29863D01*
X9066Y29864D01*
X9070Y29866D01*
X9073Y29866D01*
X9076Y29867D01*
X9186D01*
X9190Y29866D01*
D02*
G37*
G36*
X9387D02*
X9390Y29866D01*
X9393Y29864D01*
X9396Y29863D01*
X9399Y29860D01*
X9401Y29858D01*
X9403Y29855D01*
X9404Y29852D01*
X9405Y29848D01*
X9405Y29845D01*
X9405Y29707D01*
X9405Y29707D01*
X9405Y29702D01*
X9405Y29701D01*
X9405Y29701D01*
X9405Y29700D01*
X9405Y29698D01*
X9405Y29698D01*
X9405Y29697D01*
X9402Y29687D01*
X9402Y29686D01*
X9402Y29686D01*
X9402Y29685D01*
X9402Y29684D01*
X9401Y29683D01*
X9401Y29683D01*
X9397Y29673D01*
X9397Y29672D01*
X9397Y29672D01*
X9396Y29671D01*
X9396Y29670D01*
X9395Y29669D01*
X9395Y29669D01*
X9389Y29660D01*
X9389Y29660D01*
X9389Y29659D01*
X9388Y29658D01*
X9387Y29657D01*
X9387Y29657D01*
X9386Y29657D01*
X9379Y29649D01*
X9378Y29649D01*
X9378Y29648D01*
X9377Y29648D01*
X9376Y29647D01*
X9376Y29647D01*
X9375Y29646D01*
X9366Y29640D01*
X9366Y29640D01*
X9366Y29640D01*
X9365Y29639D01*
X9363Y29639D01*
X9363Y29638D01*
X9363Y29638D01*
X9353Y29634D01*
X9352Y29634D01*
X9352Y29634D01*
X9351Y29633D01*
X9349Y29633D01*
X9349Y29633D01*
X9349Y29633D01*
X9338Y29631D01*
X9337Y29631D01*
X9337Y29631D01*
X9336Y29630D01*
X9334Y29630D01*
X9334Y29630D01*
X9334Y29630D01*
X9323Y29630D01*
X9322Y29630D01*
X9322Y29630D01*
X9321Y29630D01*
X9319Y29631D01*
X9319Y29631D01*
X9319Y29631D01*
X9308Y29633D01*
X9307Y29633D01*
X9307Y29633D01*
X9306Y29633D01*
X9305Y29634D01*
X9304Y29634D01*
X9304Y29634D01*
X9294Y29638D01*
X9293Y29638D01*
X9293Y29639D01*
X9292Y29639D01*
X9291Y29640D01*
X9290Y29640D01*
X9290Y29640D01*
X9281Y29646D01*
X9281Y29647D01*
X9280Y29647D01*
X9279Y29648D01*
X9278Y29648D01*
X9278Y29649D01*
X9278Y29649D01*
X9270Y29657D01*
X9270Y29657D01*
X9269Y29657D01*
X9269Y29658D01*
X9268Y29659D01*
X9268Y29660D01*
X9267Y29660D01*
X9261Y29669D01*
X9261Y29669D01*
X9261Y29670D01*
X9260Y29671D01*
X9260Y29672D01*
X9259Y29672D01*
X9259Y29673D01*
X9255Y29683D01*
X9255Y29683D01*
X9255Y29684D01*
X9254Y29685D01*
X9254Y29686D01*
X9254Y29686D01*
X9254Y29687D01*
X9252Y29697D01*
X9252Y29698D01*
X9252Y29698D01*
X9252Y29700D01*
X9251Y29701D01*
X9251Y29701D01*
X9251Y29702D01*
X9251Y29707D01*
X9251Y29845D01*
X9252Y29848D01*
X9252Y29852D01*
X9254Y29855D01*
X9255Y29858D01*
X9258Y29860D01*
X9260Y29863D01*
X9263Y29864D01*
X9266Y29866D01*
X9270Y29866D01*
X9273Y29867D01*
X9383D01*
X9387Y29866D01*
D02*
G37*
G36*
X9584D02*
X9587Y29866D01*
X9590Y29864D01*
X9593Y29863D01*
X9596Y29860D01*
X9598Y29858D01*
X9600Y29855D01*
X9601Y29852D01*
X9602Y29848D01*
X9602Y29845D01*
X9602Y29707D01*
X9602Y29707D01*
X9602Y29702D01*
X9602Y29701D01*
X9602Y29701D01*
X9602Y29700D01*
X9602Y29698D01*
X9602Y29698D01*
X9601Y29697D01*
X9599Y29687D01*
X9599Y29686D01*
X9599Y29686D01*
X9599Y29685D01*
X9598Y29684D01*
X9598Y29683D01*
X9598Y29683D01*
X9594Y29673D01*
X9594Y29672D01*
X9594Y29672D01*
X9593Y29671D01*
X9592Y29670D01*
X9592Y29669D01*
X9592Y29669D01*
X9586Y29660D01*
X9586Y29660D01*
X9585Y29659D01*
X9585Y29658D01*
X9584Y29657D01*
X9583Y29657D01*
X9583Y29657D01*
X9576Y29649D01*
X9575Y29649D01*
X9575Y29648D01*
X9574Y29648D01*
X9573Y29647D01*
X9573Y29647D01*
X9572Y29646D01*
X9563Y29640D01*
X9563Y29640D01*
X9563Y29640D01*
X9561Y29639D01*
X9560Y29639D01*
X9560Y29638D01*
X9559Y29638D01*
X9549Y29634D01*
X9549Y29634D01*
X9549Y29634D01*
X9547Y29633D01*
X9546Y29633D01*
X9546Y29633D01*
X9545Y29633D01*
X9535Y29631D01*
X9534Y29631D01*
X9534Y29631D01*
X9533Y29630D01*
X9531Y29630D01*
X9531Y29630D01*
X9530Y29630D01*
X9520Y29630D01*
X9519Y29630D01*
X9519Y29630D01*
X9517Y29630D01*
X9516Y29631D01*
X9516Y29631D01*
X9515Y29631D01*
X9505Y29633D01*
X9504Y29633D01*
X9504Y29633D01*
X9503Y29633D01*
X9501Y29634D01*
X9501Y29634D01*
X9501Y29634D01*
X9491Y29638D01*
X9490Y29638D01*
X9490Y29639D01*
X9489Y29639D01*
X9488Y29640D01*
X9487Y29640D01*
X9487Y29640D01*
X9478Y29646D01*
X9477Y29647D01*
X9477Y29647D01*
X9476Y29648D01*
X9475Y29648D01*
X9475Y29649D01*
X9475Y29649D01*
X9467Y29657D01*
X9467Y29657D01*
X9466Y29657D01*
X9465Y29658D01*
X9465Y29659D01*
X9464Y29660D01*
X9464Y29660D01*
X9458Y29669D01*
X9458Y29669D01*
X9458Y29670D01*
X9457Y29671D01*
X9456Y29672D01*
X9456Y29672D01*
X9456Y29673D01*
X9452Y29683D01*
X9452Y29683D01*
X9452Y29684D01*
X9451Y29685D01*
X9451Y29686D01*
X9451Y29686D01*
X9451Y29687D01*
X9449Y29697D01*
X9449Y29698D01*
X9448Y29698D01*
X9448Y29700D01*
X9448Y29701D01*
X9448Y29701D01*
X9448Y29702D01*
X9448Y29707D01*
X9448Y29845D01*
X9448Y29848D01*
X9449Y29852D01*
X9451Y29855D01*
X9452Y29858D01*
X9455Y29860D01*
X9457Y29863D01*
X9460Y29864D01*
X9463Y29866D01*
X9467Y29866D01*
X9470Y29867D01*
X9580D01*
X9584Y29866D01*
D02*
G37*
G36*
X23363D02*
X23366Y29866D01*
X23370Y29864D01*
X23372Y29863D01*
X23375Y29860D01*
X23377Y29858D01*
X23379Y29855D01*
X23380Y29852D01*
X23381Y29848D01*
X23381Y29845D01*
X23381Y29707D01*
X23381Y29707D01*
X23381Y29702D01*
X23381Y29701D01*
X23381Y29701D01*
X23381Y29700D01*
X23381Y29698D01*
X23381Y29698D01*
X23381Y29697D01*
X23379Y29687D01*
X23379Y29686D01*
X23379Y29686D01*
X23378Y29685D01*
X23378Y29684D01*
X23378Y29683D01*
X23378Y29683D01*
X23373Y29673D01*
X23373Y29672D01*
X23373Y29672D01*
X23373Y29671D01*
X23372Y29670D01*
X23372Y29669D01*
X23371Y29669D01*
X23365Y29660D01*
X23365Y29660D01*
X23365Y29659D01*
X23364Y29658D01*
X23363Y29657D01*
X23363Y29657D01*
X23363Y29657D01*
X23355Y29649D01*
X23355Y29649D01*
X23354Y29648D01*
X23353Y29648D01*
X23352Y29647D01*
X23352Y29647D01*
X23352Y29646D01*
X23343Y29640D01*
X23342Y29640D01*
X23342Y29640D01*
X23341Y29639D01*
X23340Y29639D01*
X23339Y29638D01*
X23339Y29638D01*
X23329Y29634D01*
X23329Y29634D01*
X23328Y29634D01*
X23327Y29633D01*
X23326Y29633D01*
X23325Y29633D01*
X23325Y29633D01*
X23314Y29631D01*
X23314Y29631D01*
X23313Y29631D01*
X23312Y29630D01*
X23311Y29630D01*
X23310Y29630D01*
X23310Y29630D01*
X23299Y29630D01*
X23299Y29630D01*
X23298Y29630D01*
X23297Y29630D01*
X23296Y29631D01*
X23295Y29631D01*
X23295Y29631D01*
X23284Y29633D01*
X23284Y29633D01*
X23283Y29633D01*
X23282Y29633D01*
X23281Y29634D01*
X23281Y29634D01*
X23280Y29634D01*
X23270Y29638D01*
X23270Y29638D01*
X23269Y29639D01*
X23268Y29639D01*
X23267Y29640D01*
X23267Y29640D01*
X23266Y29640D01*
X23257Y29646D01*
X23257Y29647D01*
X23257Y29647D01*
X23256Y29648D01*
X23255Y29648D01*
X23254Y29649D01*
X23254Y29649D01*
X23246Y29657D01*
X23246Y29657D01*
X23246Y29657D01*
X23245Y29658D01*
X23244Y29659D01*
X23244Y29660D01*
X23244Y29660D01*
X23238Y29669D01*
X23237Y29669D01*
X23237Y29670D01*
X23237Y29671D01*
X23236Y29672D01*
X23236Y29672D01*
X23236Y29673D01*
X23231Y29683D01*
X23231Y29683D01*
X23231Y29684D01*
X23231Y29685D01*
X23230Y29686D01*
X23230Y29686D01*
X23230Y29687D01*
X23228Y29697D01*
X23228Y29698D01*
X23228Y29698D01*
X23228Y29700D01*
X23228Y29701D01*
X23228Y29701D01*
X23228Y29702D01*
X23228Y29707D01*
X23228Y29845D01*
X23228Y29848D01*
X23229Y29852D01*
X23230Y29855D01*
X23232Y29858D01*
X23234Y29860D01*
X23237Y29863D01*
X23240Y29864D01*
X23243Y29866D01*
X23246Y29866D01*
X23249Y29867D01*
X23360D01*
X23363Y29866D01*
D02*
G37*
G36*
X23166D02*
X23170Y29866D01*
X23173Y29864D01*
X23176Y29863D01*
X23178Y29860D01*
X23180Y29858D01*
X23182Y29855D01*
X23183Y29852D01*
X23184Y29848D01*
X23185Y29845D01*
X23185Y29707D01*
X23185Y29707D01*
X23185Y29702D01*
X23185Y29701D01*
X23185Y29701D01*
X23184Y29700D01*
X23184Y29698D01*
X23184Y29698D01*
X23184Y29697D01*
X23182Y29687D01*
X23182Y29686D01*
X23182Y29686D01*
X23181Y29685D01*
X23181Y29684D01*
X23181Y29683D01*
X23181Y29683D01*
X23177Y29673D01*
X23176Y29672D01*
X23176Y29672D01*
X23176Y29671D01*
X23175Y29670D01*
X23175Y29669D01*
X23175Y29669D01*
X23169Y29660D01*
X23168Y29660D01*
X23168Y29659D01*
X23167Y29658D01*
X23166Y29657D01*
X23166Y29657D01*
X23166Y29657D01*
X23158Y29649D01*
X23158Y29649D01*
X23158Y29648D01*
X23157Y29648D01*
X23156Y29647D01*
X23155Y29647D01*
X23155Y29646D01*
X23146Y29640D01*
X23146Y29640D01*
X23145Y29640D01*
X23144Y29639D01*
X23143Y29639D01*
X23143Y29638D01*
X23142Y29638D01*
X23132Y29634D01*
X23132Y29634D01*
X23131Y29634D01*
X23130Y29633D01*
X23129Y29633D01*
X23128Y29633D01*
X23128Y29633D01*
X23117Y29631D01*
X23117Y29631D01*
X23117Y29631D01*
X23115Y29630D01*
X23114Y29630D01*
X23114Y29630D01*
X23113Y29630D01*
X23102Y29630D01*
X23102Y29630D01*
X23101Y29630D01*
X23100Y29630D01*
X23099Y29631D01*
X23098Y29631D01*
X23098Y29631D01*
X23087Y29633D01*
X23087Y29633D01*
X23087Y29633D01*
X23085Y29633D01*
X23084Y29634D01*
X23084Y29634D01*
X23083Y29634D01*
X23073Y29638D01*
X23073Y29638D01*
X23073Y29639D01*
X23071Y29639D01*
X23070Y29640D01*
X23070Y29640D01*
X23070Y29640D01*
X23061Y29646D01*
X23060Y29647D01*
X23060Y29647D01*
X23059Y29648D01*
X23058Y29648D01*
X23058Y29649D01*
X23057Y29649D01*
X23050Y29657D01*
X23049Y29657D01*
X23049Y29657D01*
X23048Y29658D01*
X23047Y29659D01*
X23047Y29660D01*
X23047Y29660D01*
X23041Y29669D01*
X23041Y29669D01*
X23040Y29670D01*
X23040Y29671D01*
X23039Y29672D01*
X23039Y29672D01*
X23039Y29673D01*
X23035Y29683D01*
X23035Y29683D01*
X23034Y29684D01*
X23034Y29685D01*
X23034Y29686D01*
X23034Y29686D01*
X23033Y29687D01*
X23031Y29697D01*
X23031Y29698D01*
X23031Y29698D01*
X23031Y29700D01*
X23031Y29701D01*
X23031Y29701D01*
X23031Y29702D01*
X23031Y29707D01*
X23031Y29845D01*
X23031Y29848D01*
X23032Y29852D01*
X23033Y29855D01*
X23035Y29858D01*
X23037Y29860D01*
X23040Y29863D01*
X23043Y29864D01*
X23046Y29866D01*
X23049Y29866D01*
X23053Y29867D01*
X23163D01*
X23166Y29866D01*
D02*
G37*
G36*
X22931Y29607D02*
X22936Y29607D01*
X22936Y29607D01*
X22937Y29607D01*
X22938Y29607D01*
X22939Y29607D01*
X22940Y29606D01*
X22940Y29606D01*
X22951Y29604D01*
X22951Y29604D01*
X22952Y29604D01*
X22953Y29604D01*
X22954Y29603D01*
X22955Y29603D01*
X22955Y29603D01*
X22965Y29599D01*
X22965Y29599D01*
X22966Y29599D01*
X22967Y29598D01*
X22968Y29597D01*
X22968Y29597D01*
X22969Y29597D01*
X22978Y29591D01*
X22978Y29591D01*
X22978Y29590D01*
X22979Y29590D01*
X22980Y29589D01*
X22981Y29588D01*
X22981Y29588D01*
X22989Y29581D01*
X22989Y29580D01*
X22989Y29580D01*
X22990Y29579D01*
X22991Y29578D01*
X22991Y29578D01*
X22991Y29577D01*
X22997Y29568D01*
X22998Y29568D01*
X22998Y29567D01*
X22999Y29566D01*
X22999Y29565D01*
X22999Y29565D01*
X22999Y29564D01*
X23004Y29554D01*
X23004Y29554D01*
X23004Y29554D01*
X23004Y29552D01*
X23005Y29551D01*
X23005Y29551D01*
X23005Y29550D01*
X23007Y29540D01*
X23007Y29539D01*
X23007Y29539D01*
X23007Y29538D01*
X23007Y29536D01*
X23007Y29536D01*
X23007Y29535D01*
X23007Y29525D01*
X23007Y29524D01*
X23007Y29524D01*
X23007Y29522D01*
X23007Y29521D01*
X23007Y29521D01*
X23007Y29520D01*
X23005Y29510D01*
X23005Y29509D01*
X23005Y29509D01*
X23004Y29508D01*
X23004Y29506D01*
X23004Y29506D01*
X23004Y29506D01*
X22999Y29496D01*
X22999Y29495D01*
X22999Y29495D01*
X22999Y29494D01*
X22998Y29493D01*
X22998Y29492D01*
X22997Y29492D01*
X22991Y29483D01*
X22991Y29482D01*
X22991Y29482D01*
X22990Y29481D01*
X22989Y29480D01*
X22989Y29480D01*
X22989Y29480D01*
X22981Y29472D01*
X22981Y29472D01*
X22980Y29471D01*
X22979Y29470D01*
X22978Y29470D01*
X22978Y29469D01*
X22978Y29469D01*
X22969Y29463D01*
X22968Y29463D01*
X22968Y29463D01*
X22967Y29462D01*
X22966Y29461D01*
X22965Y29461D01*
X22965Y29461D01*
X22955Y29457D01*
X22955Y29457D01*
X22954Y29457D01*
X22953Y29456D01*
X22952Y29456D01*
X22951Y29456D01*
X22951Y29456D01*
X22940Y29454D01*
X22940Y29454D01*
X22939Y29453D01*
X22938Y29453D01*
X22937Y29453D01*
X22936Y29453D01*
X22936Y29453D01*
X22931Y29453D01*
X22793Y29453D01*
X22789Y29453D01*
X22786Y29454D01*
X22783Y29456D01*
X22780Y29457D01*
X22777Y29460D01*
X22775Y29462D01*
X22773Y29465D01*
X22772Y29468D01*
X22771Y29471D01*
X22771Y29475D01*
Y29585D01*
X22771Y29589D01*
X22772Y29592D01*
X22773Y29595D01*
X22775Y29598D01*
X22777Y29600D01*
X22780Y29603D01*
X22783Y29604D01*
X22786Y29606D01*
X22789Y29607D01*
X22793Y29607D01*
X22930Y29607D01*
D01*
D01*
X22931D01*
X22931Y29607D01*
D02*
G37*
G36*
X9843Y29607D02*
X9847Y29606D01*
X9850Y29604D01*
X9853Y29603D01*
X9855Y29600D01*
X9858Y29598D01*
X9859Y29595D01*
X9861Y29592D01*
X9861Y29589D01*
X9862Y29585D01*
Y29585D01*
D01*
Y29475D01*
X9861Y29471D01*
X9861Y29468D01*
X9859Y29465D01*
X9858Y29462D01*
X9855Y29460D01*
X9853Y29457D01*
X9850Y29456D01*
X9847Y29454D01*
X9843Y29453D01*
X9840Y29453D01*
X9702Y29453D01*
X9702Y29453D01*
X9697Y29453D01*
X9696Y29453D01*
X9696Y29453D01*
X9695Y29453D01*
X9693Y29453D01*
X9693Y29454D01*
X9693Y29454D01*
X9682Y29456D01*
X9681Y29456D01*
X9681Y29456D01*
X9680Y29456D01*
X9679Y29457D01*
X9678Y29457D01*
X9678Y29457D01*
X9668Y29461D01*
X9667Y29461D01*
X9667Y29461D01*
X9666Y29462D01*
X9665Y29463D01*
X9664Y29463D01*
X9664Y29463D01*
X9655Y29469D01*
X9655Y29469D01*
X9654Y29470D01*
X9653Y29470D01*
X9652Y29471D01*
X9652Y29472D01*
X9652Y29472D01*
X9644Y29479D01*
X9644Y29480D01*
X9643Y29480D01*
X9643Y29481D01*
X9642Y29482D01*
X9642Y29482D01*
X9641Y29483D01*
X9635Y29492D01*
X9635Y29492D01*
X9635Y29493D01*
X9634Y29494D01*
X9634Y29495D01*
X9633Y29495D01*
X9633Y29496D01*
X9629Y29506D01*
X9629Y29506D01*
X9629Y29506D01*
X9628Y29508D01*
X9628Y29509D01*
X9628Y29509D01*
X9628Y29510D01*
X9626Y29520D01*
X9626Y29521D01*
X9626Y29521D01*
X9626Y29522D01*
X9625Y29524D01*
X9625Y29524D01*
X9625Y29525D01*
X9625Y29535D01*
X9625Y29536D01*
X9625Y29536D01*
X9626Y29538D01*
X9626Y29539D01*
X9626Y29539D01*
X9626Y29540D01*
X9628Y29550D01*
X9628Y29551D01*
X9628Y29551D01*
X9628Y29552D01*
X9629Y29554D01*
X9629Y29554D01*
X9629Y29554D01*
X9633Y29564D01*
X9633Y29565D01*
X9634Y29565D01*
X9634Y29566D01*
X9635Y29567D01*
X9635Y29568D01*
X9635Y29568D01*
X9641Y29577D01*
X9642Y29578D01*
X9642Y29578D01*
X9643Y29579D01*
X9643Y29580D01*
X9644Y29580D01*
X9644Y29580D01*
X9652Y29588D01*
X9652Y29588D01*
X9652Y29589D01*
X9653Y29590D01*
X9654Y29590D01*
X9655Y29591D01*
X9655Y29591D01*
X9664Y29597D01*
X9664Y29597D01*
X9665Y29597D01*
X9666Y29598D01*
X9667Y29599D01*
X9667Y29599D01*
X9668Y29599D01*
X9678Y29603D01*
X9678Y29603D01*
X9679Y29603D01*
X9680Y29604D01*
X9681Y29604D01*
X9681Y29604D01*
X9682Y29604D01*
X9693Y29606D01*
X9693Y29606D01*
X9693Y29607D01*
X9695Y29607D01*
X9696Y29607D01*
X9696Y29607D01*
X9697Y29607D01*
X9702Y29607D01*
X9840Y29607D01*
D01*
X9840D01*
X9843Y29607D01*
D02*
G37*
G36*
X22931Y29410D02*
X22936Y29410D01*
X22936Y29410D01*
X22937Y29410D01*
X22938Y29410D01*
X22939Y29410D01*
X22940Y29410D01*
X22940Y29410D01*
X22951Y29407D01*
X22951Y29407D01*
X22952Y29407D01*
X22953Y29407D01*
X22954Y29407D01*
X22955Y29406D01*
X22955Y29406D01*
X22965Y29402D01*
X22965Y29402D01*
X22966Y29402D01*
X22967Y29401D01*
X22968Y29401D01*
X22968Y29400D01*
X22969Y29400D01*
X22978Y29394D01*
X22978Y29394D01*
X22978Y29394D01*
X22979Y29393D01*
X22980Y29392D01*
X22981Y29392D01*
X22981Y29391D01*
X22989Y29384D01*
X22989Y29383D01*
X22989Y29383D01*
X22990Y29382D01*
X22991Y29381D01*
X22991Y29381D01*
X22991Y29380D01*
X22997Y29371D01*
X22998Y29371D01*
X22998Y29371D01*
X22999Y29369D01*
X22999Y29368D01*
X22999Y29368D01*
X22999Y29368D01*
X23004Y29358D01*
X23004Y29357D01*
X23004Y29357D01*
X23004Y29355D01*
X23005Y29354D01*
X23005Y29354D01*
X23005Y29353D01*
X23007Y29343D01*
X23007Y29342D01*
X23007Y29342D01*
X23007Y29341D01*
X23007Y29339D01*
X23007Y29339D01*
X23007Y29339D01*
X23007Y29328D01*
X23007Y29327D01*
X23007Y29327D01*
X23007Y29326D01*
X23007Y29324D01*
X23007Y29324D01*
X23007Y29323D01*
X23005Y29313D01*
X23005Y29312D01*
X23005Y29312D01*
X23004Y29311D01*
X23004Y29310D01*
X23004Y29309D01*
X23004Y29309D01*
X22999Y29299D01*
X22999Y29298D01*
X22999Y29298D01*
X22999Y29297D01*
X22998Y29296D01*
X22998Y29295D01*
X22997Y29295D01*
X22991Y29286D01*
X22991Y29286D01*
X22991Y29285D01*
X22990Y29284D01*
X22989Y29283D01*
X22989Y29283D01*
X22989Y29283D01*
X22981Y29275D01*
X22981Y29275D01*
X22980Y29274D01*
X22979Y29274D01*
X22978Y29273D01*
X22978Y29273D01*
X22978Y29272D01*
X22969Y29266D01*
X22968Y29266D01*
X22968Y29266D01*
X22967Y29265D01*
X22966Y29265D01*
X22965Y29264D01*
X22965Y29264D01*
X22955Y29260D01*
X22955Y29260D01*
X22954Y29260D01*
X22953Y29259D01*
X22952Y29259D01*
X22951Y29259D01*
X22951Y29259D01*
X22940Y29257D01*
X22940Y29257D01*
X22939Y29257D01*
X22938Y29256D01*
X22937Y29256D01*
X22936Y29256D01*
X22936Y29256D01*
X22931Y29256D01*
X22793Y29256D01*
X22789Y29257D01*
X22786Y29257D01*
X22783Y29259D01*
X22780Y29260D01*
X22777Y29263D01*
X22775Y29265D01*
X22773Y29268D01*
X22772Y29271D01*
X22771Y29275D01*
X22771Y29278D01*
Y29388D01*
X22771Y29392D01*
X22772Y29395D01*
X22773Y29398D01*
X22775Y29401D01*
X22777Y29404D01*
X22780Y29406D01*
X22783Y29408D01*
X22786Y29409D01*
X22789Y29410D01*
X22793Y29410D01*
X22930Y29410D01*
D01*
D01*
X22931D01*
X22931Y29410D01*
D02*
G37*
G36*
X9843Y29410D02*
X9847Y29409D01*
X9850Y29408D01*
X9853Y29406D01*
X9855Y29404D01*
X9858Y29401D01*
X9859Y29398D01*
X9861Y29395D01*
X9861Y29392D01*
X9862Y29388D01*
D01*
Y29388D01*
Y29278D01*
X9861Y29275D01*
X9861Y29271D01*
X9859Y29268D01*
X9858Y29265D01*
X9855Y29263D01*
X9853Y29260D01*
X9850Y29259D01*
X9847Y29257D01*
X9843Y29257D01*
X9840Y29256D01*
X9702Y29256D01*
X9702Y29256D01*
X9697Y29256D01*
X9696Y29256D01*
X9696Y29256D01*
X9695Y29256D01*
X9693Y29257D01*
X9693Y29257D01*
X9693Y29257D01*
X9682Y29259D01*
X9681Y29259D01*
X9681Y29259D01*
X9680Y29259D01*
X9679Y29260D01*
X9678Y29260D01*
X9678Y29260D01*
X9668Y29264D01*
X9667Y29264D01*
X9667Y29265D01*
X9666Y29265D01*
X9665Y29266D01*
X9664Y29266D01*
X9664Y29266D01*
X9655Y29272D01*
X9655Y29273D01*
X9654Y29273D01*
X9653Y29274D01*
X9652Y29274D01*
X9652Y29275D01*
X9652Y29275D01*
X9644Y29283D01*
X9644Y29283D01*
X9643Y29283D01*
X9643Y29284D01*
X9642Y29285D01*
X9642Y29286D01*
X9641Y29286D01*
X9635Y29295D01*
X9635Y29295D01*
X9635Y29296D01*
X9634Y29297D01*
X9634Y29298D01*
X9633Y29298D01*
X9633Y29299D01*
X9629Y29309D01*
X9629Y29309D01*
X9629Y29310D01*
X9628Y29311D01*
X9628Y29312D01*
X9628Y29312D01*
X9628Y29313D01*
X9626Y29323D01*
X9626Y29324D01*
X9626Y29324D01*
X9626Y29326D01*
X9625Y29327D01*
X9625Y29327D01*
X9625Y29328D01*
X9625Y29339D01*
X9625Y29339D01*
X9625Y29339D01*
X9626Y29341D01*
X9626Y29342D01*
X9626Y29342D01*
X9626Y29343D01*
X9628Y29353D01*
X9628Y29354D01*
X9628Y29354D01*
X9628Y29356D01*
X9629Y29357D01*
X9629Y29357D01*
X9629Y29358D01*
X9633Y29368D01*
X9633Y29368D01*
X9634Y29368D01*
X9634Y29369D01*
X9635Y29371D01*
X9635Y29371D01*
X9635Y29371D01*
X9641Y29380D01*
X9642Y29381D01*
X9642Y29381D01*
X9643Y29382D01*
X9643Y29383D01*
X9644Y29383D01*
X9644Y29384D01*
X9652Y29391D01*
X9652Y29392D01*
X9652Y29392D01*
X9653Y29393D01*
X9654Y29394D01*
X9655Y29394D01*
X9655Y29394D01*
X9664Y29400D01*
X9664Y29400D01*
X9665Y29401D01*
X9666Y29401D01*
X9667Y29402D01*
X9667Y29402D01*
X9668Y29402D01*
X9678Y29406D01*
X9678Y29406D01*
X9679Y29407D01*
X9680Y29407D01*
X9681Y29407D01*
X9681Y29407D01*
X9682Y29407D01*
X9693Y29410D01*
X9693Y29410D01*
X9693Y29410D01*
X9695Y29410D01*
X9696Y29410D01*
X9696Y29410D01*
X9697Y29410D01*
X9702Y29410D01*
X9840Y29410D01*
D01*
X9840D01*
X9843Y29410D01*
D02*
G37*
G36*
X22931Y29213D02*
X22936Y29213D01*
X22936Y29213D01*
X22937Y29213D01*
X22938Y29213D01*
X22939Y29213D01*
X22940Y29213D01*
X22940Y29213D01*
X22951Y29211D01*
X22951Y29210D01*
X22952Y29210D01*
X22953Y29210D01*
X22954Y29210D01*
X22955Y29209D01*
X22955Y29209D01*
X22965Y29205D01*
X22965Y29205D01*
X22966Y29205D01*
X22967Y29204D01*
X22968Y29204D01*
X22968Y29203D01*
X22969Y29203D01*
X22978Y29197D01*
X22978Y29197D01*
X22978Y29197D01*
X22979Y29196D01*
X22980Y29195D01*
X22981Y29195D01*
X22981Y29194D01*
X22989Y29187D01*
X22989Y29186D01*
X22989Y29186D01*
X22990Y29185D01*
X22991Y29184D01*
X22991Y29184D01*
X22991Y29183D01*
X22997Y29174D01*
X22998Y29174D01*
X22998Y29174D01*
X22999Y29173D01*
X22999Y29172D01*
X22999Y29171D01*
X22999Y29171D01*
X23004Y29161D01*
X23004Y29160D01*
X23004Y29160D01*
X23004Y29159D01*
X23005Y29157D01*
X23005Y29157D01*
X23005Y29157D01*
X23007Y29146D01*
X23007Y29146D01*
X23007Y29145D01*
X23007Y29144D01*
X23007Y29143D01*
X23007Y29142D01*
X23007Y29142D01*
X23007Y29131D01*
X23007Y29130D01*
X23007Y29130D01*
X23007Y29129D01*
X23007Y29127D01*
X23007Y29127D01*
X23007Y29127D01*
X23005Y29116D01*
X23005Y29116D01*
X23005Y29115D01*
X23004Y29114D01*
X23004Y29113D01*
X23004Y29112D01*
X23004Y29112D01*
X22999Y29102D01*
X22999Y29102D01*
X22999Y29101D01*
X22999Y29100D01*
X22998Y29099D01*
X22998Y29098D01*
X22997Y29098D01*
X22991Y29089D01*
X22991Y29089D01*
X22991Y29088D01*
X22990Y29087D01*
X22989Y29086D01*
X22989Y29086D01*
X22989Y29086D01*
X22981Y29078D01*
X22981Y29078D01*
X22980Y29078D01*
X22979Y29077D01*
X22978Y29076D01*
X22978Y29076D01*
X22978Y29075D01*
X22969Y29069D01*
X22968Y29069D01*
X22968Y29069D01*
X22967Y29068D01*
X22966Y29068D01*
X22965Y29068D01*
X22965Y29067D01*
X22955Y29063D01*
X22955Y29063D01*
X22954Y29063D01*
X22953Y29063D01*
X22952Y29062D01*
X22951Y29062D01*
X22951Y29062D01*
X22940Y29060D01*
X22940Y29060D01*
X22939Y29060D01*
X22938Y29060D01*
X22937Y29059D01*
X22936Y29060D01*
X22936Y29059D01*
X22931Y29059D01*
X22793Y29059D01*
X22789Y29060D01*
X22786Y29061D01*
X22783Y29062D01*
X22780Y29064D01*
X22777Y29066D01*
X22775Y29068D01*
X22773Y29071D01*
X22772Y29074D01*
X22771Y29078D01*
X22771Y29081D01*
Y29191D01*
X22771Y29195D01*
X22772Y29198D01*
X22773Y29201D01*
X22775Y29204D01*
X22777Y29207D01*
X22780Y29209D01*
X22783Y29211D01*
X22786Y29212D01*
X22789Y29213D01*
X22793Y29213D01*
X22930Y29213D01*
D01*
D01*
X22931D01*
X22931Y29213D01*
D02*
G37*
G36*
X9843Y29213D02*
X9847Y29212D01*
X9850Y29211D01*
X9853Y29209D01*
X9855Y29207D01*
X9858Y29204D01*
X9859Y29201D01*
X9861Y29198D01*
X9861Y29195D01*
X9862Y29191D01*
D01*
Y29191D01*
Y29081D01*
X9861Y29078D01*
X9861Y29074D01*
X9859Y29071D01*
X9858Y29068D01*
X9855Y29066D01*
X9853Y29064D01*
X9850Y29062D01*
X9847Y29061D01*
X9843Y29060D01*
X9840Y29059D01*
X9702Y29059D01*
X9702Y29059D01*
X9697Y29059D01*
X9696Y29059D01*
X9696Y29059D01*
X9695Y29060D01*
X9693Y29060D01*
X9693Y29060D01*
X9693Y29060D01*
X9682Y29062D01*
X9681Y29062D01*
X9681Y29062D01*
X9680Y29063D01*
X9679Y29063D01*
X9678Y29063D01*
X9678Y29063D01*
X9668Y29067D01*
X9667Y29068D01*
X9667Y29068D01*
X9666Y29068D01*
X9665Y29069D01*
X9664Y29069D01*
X9664Y29069D01*
X9655Y29075D01*
X9655Y29076D01*
X9654Y29076D01*
X9653Y29077D01*
X9652Y29078D01*
X9652Y29078D01*
X9652Y29078D01*
X9644Y29086D01*
X9644Y29086D01*
X9643Y29086D01*
X9643Y29087D01*
X9642Y29088D01*
X9642Y29089D01*
X9641Y29089D01*
X9635Y29098D01*
X9635Y29098D01*
X9635Y29099D01*
X9634Y29100D01*
X9634Y29101D01*
X9633Y29101D01*
X9633Y29102D01*
X9629Y29112D01*
X9629Y29112D01*
X9629Y29113D01*
X9628Y29114D01*
X9628Y29115D01*
X9628Y29116D01*
X9628Y29116D01*
X9626Y29127D01*
X9626Y29127D01*
X9626Y29127D01*
X9626Y29129D01*
X9625Y29130D01*
X9625Y29130D01*
X9625Y29131D01*
X9625Y29142D01*
X9625Y29142D01*
X9625Y29143D01*
X9626Y29144D01*
X9626Y29145D01*
X9626Y29146D01*
X9626Y29146D01*
X9628Y29157D01*
X9628Y29157D01*
X9628Y29157D01*
X9628Y29159D01*
X9629Y29160D01*
X9629Y29160D01*
X9629Y29161D01*
X9633Y29171D01*
X9633Y29171D01*
X9634Y29172D01*
X9634Y29173D01*
X9635Y29174D01*
X9635Y29174D01*
X9635Y29174D01*
X9641Y29183D01*
X9642Y29184D01*
X9642Y29184D01*
X9643Y29185D01*
X9643Y29186D01*
X9644Y29186D01*
X9644Y29187D01*
X9652Y29194D01*
X9652Y29195D01*
X9652Y29195D01*
X9653Y29196D01*
X9654Y29197D01*
X9655Y29197D01*
X9655Y29197D01*
X9664Y29203D01*
X9664Y29203D01*
X9665Y29204D01*
X9666Y29204D01*
X9667Y29205D01*
X9667Y29205D01*
X9668Y29205D01*
X9678Y29209D01*
X9678Y29209D01*
X9679Y29210D01*
X9680Y29210D01*
X9681Y29210D01*
X9681Y29210D01*
X9682Y29211D01*
X9693Y29213D01*
X9693Y29213D01*
X9693Y29213D01*
X9695Y29213D01*
X9696Y29213D01*
X9696Y29213D01*
X9697Y29213D01*
X9702Y29213D01*
X9840Y29213D01*
D01*
X9840D01*
X9843Y29213D01*
D02*
G37*
G36*
X22931Y29016D02*
X22936Y29016D01*
X22936Y29016D01*
X22937Y29016D01*
X22938Y29016D01*
X22939Y29016D01*
X22940Y29016D01*
X22940Y29016D01*
X22951Y29014D01*
X22951Y29014D01*
X22952Y29014D01*
X22953Y29013D01*
X22954Y29013D01*
X22955Y29013D01*
X22955Y29013D01*
X22965Y29008D01*
X22965Y29008D01*
X22966Y29008D01*
X22967Y29007D01*
X22968Y29007D01*
X22968Y29007D01*
X22969Y29006D01*
X22978Y29000D01*
X22978Y29000D01*
X22978Y29000D01*
X22979Y28999D01*
X22980Y28998D01*
X22981Y28998D01*
X22981Y28998D01*
X22989Y28990D01*
X22989Y28990D01*
X22989Y28989D01*
X22990Y28988D01*
X22991Y28987D01*
X22991Y28987D01*
X22991Y28987D01*
X22997Y28978D01*
X22998Y28977D01*
X22998Y28977D01*
X22999Y28976D01*
X22999Y28975D01*
X22999Y28974D01*
X22999Y28974D01*
X23004Y28964D01*
X23004Y28963D01*
X23004Y28963D01*
X23004Y28962D01*
X23005Y28961D01*
X23005Y28960D01*
X23005Y28960D01*
X23007Y28949D01*
X23007Y28949D01*
X23007Y28948D01*
X23007Y28947D01*
X23007Y28946D01*
X23007Y28945D01*
X23007Y28945D01*
X23007Y28934D01*
X23007Y28934D01*
X23007Y28933D01*
X23007Y28932D01*
X23007Y28931D01*
X23007Y28930D01*
X23007Y28930D01*
X23005Y28919D01*
X23005Y28919D01*
X23005Y28918D01*
X23004Y28917D01*
X23004Y28916D01*
X23004Y28915D01*
X23004Y28915D01*
X22999Y28905D01*
X22999Y28905D01*
X22999Y28904D01*
X22999Y28903D01*
X22998Y28902D01*
X22998Y28902D01*
X22997Y28901D01*
X22991Y28892D01*
X22991Y28892D01*
X22991Y28892D01*
X22990Y28891D01*
X22989Y28890D01*
X22989Y28889D01*
X22989Y28889D01*
X22981Y28881D01*
X22981Y28881D01*
X22980Y28881D01*
X22979Y28880D01*
X22978Y28879D01*
X22978Y28879D01*
X22978Y28879D01*
X22969Y28873D01*
X22968Y28872D01*
X22968Y28872D01*
X22967Y28872D01*
X22966Y28871D01*
X22965Y28871D01*
X22965Y28871D01*
X22955Y28866D01*
X22955Y28866D01*
X22954Y28866D01*
X22953Y28866D01*
X22952Y28865D01*
X22951Y28865D01*
X22951Y28865D01*
X22940Y28863D01*
X22940Y28863D01*
X22939Y28863D01*
X22938Y28863D01*
X22937Y28863D01*
X22936Y28863D01*
X22936Y28863D01*
X22931Y28863D01*
X22793Y28863D01*
X22789Y28863D01*
X22786Y28864D01*
X22783Y28865D01*
X22780Y28867D01*
X22777Y28869D01*
X22775Y28872D01*
X22773Y28874D01*
X22772Y28878D01*
X22771Y28881D01*
X22771Y28884D01*
Y28995D01*
X22771Y28998D01*
X22772Y29001D01*
X22773Y29004D01*
X22775Y29007D01*
X22777Y29010D01*
X22780Y29012D01*
X22783Y29014D01*
X22786Y29015D01*
X22789Y29016D01*
X22793Y29016D01*
X22930Y29016D01*
D01*
D01*
X22931D01*
X22931Y29016D01*
D02*
G37*
G36*
X9843Y29016D02*
X9847Y29015D01*
X9850Y29014D01*
X9853Y29012D01*
X9855Y29010D01*
X9858Y29007D01*
X9859Y29004D01*
X9861Y29001D01*
X9861Y28998D01*
X9862Y28995D01*
Y28995D01*
D01*
Y28884D01*
X9861Y28881D01*
X9861Y28878D01*
X9859Y28874D01*
X9858Y28872D01*
X9855Y28869D01*
X9853Y28867D01*
X9850Y28865D01*
X9847Y28864D01*
X9843Y28863D01*
X9840Y28863D01*
X9702Y28863D01*
X9702Y28863D01*
X9697Y28863D01*
X9696Y28863D01*
X9696Y28863D01*
X9695Y28863D01*
X9693Y28863D01*
X9693Y28863D01*
X9693Y28863D01*
X9682Y28865D01*
X9681Y28865D01*
X9681Y28865D01*
X9680Y28866D01*
X9679Y28866D01*
X9678Y28866D01*
X9678Y28866D01*
X9668Y28871D01*
X9667Y28871D01*
X9667Y28871D01*
X9666Y28871D01*
X9665Y28872D01*
X9664Y28872D01*
X9664Y28873D01*
X9655Y28879D01*
X9655Y28879D01*
X9654Y28879D01*
X9653Y28880D01*
X9652Y28881D01*
X9652Y28881D01*
X9652Y28881D01*
X9644Y28889D01*
X9644Y28889D01*
X9643Y28890D01*
X9643Y28891D01*
X9642Y28892D01*
X9642Y28892D01*
X9641Y28892D01*
X9635Y28901D01*
X9635Y28902D01*
X9635Y28902D01*
X9634Y28903D01*
X9634Y28904D01*
X9633Y28905D01*
X9633Y28905D01*
X9629Y28915D01*
X9629Y28915D01*
X9629Y28916D01*
X9628Y28917D01*
X9628Y28918D01*
X9628Y28919D01*
X9628Y28919D01*
X9626Y28930D01*
X9626Y28930D01*
X9626Y28931D01*
X9626Y28932D01*
X9625Y28933D01*
X9625Y28934D01*
X9625Y28934D01*
X9625Y28945D01*
X9625Y28945D01*
X9625Y28946D01*
X9626Y28947D01*
X9626Y28948D01*
X9626Y28949D01*
X9626Y28949D01*
X9628Y28960D01*
X9628Y28960D01*
X9628Y28961D01*
X9628Y28962D01*
X9629Y28963D01*
X9629Y28963D01*
X9629Y28964D01*
X9633Y28974D01*
X9633Y28974D01*
X9634Y28975D01*
X9634Y28976D01*
X9635Y28977D01*
X9635Y28977D01*
X9635Y28978D01*
X9641Y28987D01*
X9642Y28987D01*
X9642Y28987D01*
X9643Y28988D01*
X9643Y28989D01*
X9644Y28990D01*
X9644Y28990D01*
X9652Y28998D01*
X9652Y28998D01*
X9652Y28998D01*
X9653Y28999D01*
X9654Y29000D01*
X9655Y29000D01*
X9655Y29000D01*
X9664Y29006D01*
X9664Y29007D01*
X9665Y29007D01*
X9666Y29007D01*
X9667Y29008D01*
X9667Y29008D01*
X9668Y29008D01*
X9678Y29013D01*
X9678Y29013D01*
X9679Y29013D01*
X9680Y29013D01*
X9681Y29014D01*
X9681Y29014D01*
X9682Y29014D01*
X9693Y29016D01*
X9693Y29016D01*
X9693Y29016D01*
X9695Y29016D01*
X9696Y29016D01*
X9696Y29016D01*
X9697Y29016D01*
X9702Y29016D01*
X9840Y29016D01*
D01*
X9840D01*
X9843Y29016D01*
D02*
G37*
G36*
X23310Y28839D02*
X23311Y28839D01*
X23312Y28839D01*
X23313Y28839D01*
X23314Y28839D01*
X23314Y28839D01*
X23325Y28837D01*
X23325Y28836D01*
X23326Y28836D01*
X23327Y28836D01*
X23328Y28836D01*
X23329Y28835D01*
X23329Y28835D01*
X23339Y28831D01*
X23339Y28831D01*
X23340Y28831D01*
X23341Y28830D01*
X23342Y28830D01*
X23342Y28829D01*
X23343Y28829D01*
X23352Y28823D01*
X23352Y28823D01*
X23352Y28823D01*
X23353Y28822D01*
X23354Y28821D01*
X23355Y28821D01*
X23355Y28820D01*
X23363Y28813D01*
X23363Y28812D01*
X23363Y28812D01*
X23364Y28811D01*
X23365Y28810D01*
X23365Y28810D01*
X23365Y28810D01*
X23371Y28800D01*
X23372Y28800D01*
X23372Y28800D01*
X23373Y28799D01*
X23373Y28798D01*
X23373Y28797D01*
X23373Y28797D01*
X23378Y28787D01*
X23378Y28786D01*
X23378Y28786D01*
X23378Y28785D01*
X23379Y28783D01*
X23379Y28783D01*
X23379Y28783D01*
X23381Y28772D01*
X23381Y28772D01*
X23381Y28771D01*
X23381Y28770D01*
X23381Y28769D01*
X23381Y28768D01*
X23381Y28768D01*
X23381Y28762D01*
X23381Y28624D01*
Y28624D01*
D01*
X23381Y28621D01*
X23380Y28618D01*
X23379Y28615D01*
X23377Y28612D01*
X23375Y28609D01*
X23372Y28607D01*
X23370Y28605D01*
X23366Y28604D01*
X23363Y28603D01*
X23360Y28603D01*
X23360D01*
D01*
X23249D01*
X23246Y28603D01*
X23243Y28604D01*
X23240Y28605D01*
X23237Y28607D01*
X23234Y28609D01*
X23232Y28612D01*
X23230Y28615D01*
X23229Y28618D01*
X23228Y28621D01*
X23228Y28624D01*
X23228Y28762D01*
X23228Y28762D01*
X23228Y28768D01*
X23228Y28768D01*
X23228Y28769D01*
X23228Y28770D01*
X23228Y28771D01*
X23228Y28772D01*
X23228Y28772D01*
X23230Y28783D01*
X23230Y28783D01*
X23230Y28783D01*
X23231Y28785D01*
X23231Y28786D01*
X23231Y28786D01*
X23231Y28787D01*
X23236Y28797D01*
X23236Y28797D01*
X23236Y28798D01*
X23237Y28799D01*
X23237Y28800D01*
X23237Y28800D01*
X23238Y28800D01*
X23244Y28810D01*
X23244Y28810D01*
X23244Y28810D01*
X23245Y28811D01*
X23246Y28812D01*
X23246Y28812D01*
X23246Y28813D01*
X23254Y28820D01*
X23254Y28821D01*
X23255Y28821D01*
X23256Y28822D01*
X23257Y28823D01*
X23257Y28823D01*
X23257Y28823D01*
X23266Y28829D01*
X23267Y28829D01*
X23267Y28830D01*
X23268Y28830D01*
X23269Y28831D01*
X23270Y28831D01*
X23270Y28831D01*
X23280Y28835D01*
X23281Y28835D01*
X23281Y28836D01*
X23282Y28836D01*
X23283Y28836D01*
X23284Y28836D01*
X23284Y28837D01*
X23295Y28839D01*
X23295Y28839D01*
X23296Y28839D01*
X23297Y28839D01*
X23298Y28839D01*
X23299Y28839D01*
X23299Y28839D01*
X23310Y28839D01*
X23310Y28839D01*
D02*
G37*
G36*
X23114D02*
X23114Y28839D01*
X23115Y28839D01*
X23117Y28839D01*
X23117Y28839D01*
X23117Y28839D01*
X23128Y28837D01*
X23128Y28836D01*
X23129Y28836D01*
X23130Y28836D01*
X23131Y28836D01*
X23132Y28835D01*
X23132Y28835D01*
X23142Y28831D01*
X23143Y28831D01*
X23143Y28831D01*
X23144Y28830D01*
X23145Y28830D01*
X23146Y28829D01*
X23146Y28829D01*
X23155Y28823D01*
X23155Y28823D01*
X23156Y28823D01*
X23157Y28822D01*
X23158Y28821D01*
X23158Y28821D01*
X23158Y28820D01*
X23166Y28813D01*
X23166Y28812D01*
X23166Y28812D01*
X23167Y28811D01*
X23168Y28810D01*
X23168Y28810D01*
X23169Y28810D01*
X23175Y28800D01*
X23175Y28800D01*
X23175Y28800D01*
X23176Y28799D01*
X23176Y28798D01*
X23176Y28797D01*
X23177Y28797D01*
X23181Y28787D01*
X23181Y28786D01*
X23181Y28786D01*
X23181Y28785D01*
X23182Y28783D01*
X23182Y28783D01*
X23182Y28783D01*
X23184Y28772D01*
X23184Y28772D01*
X23184Y28771D01*
X23184Y28770D01*
X23185Y28769D01*
X23185Y28768D01*
X23185Y28768D01*
X23185Y28762D01*
X23185Y28624D01*
Y28624D01*
D01*
X23184Y28621D01*
X23183Y28618D01*
X23182Y28615D01*
X23180Y28612D01*
X23178Y28609D01*
X23176Y28607D01*
X23173Y28605D01*
X23170Y28604D01*
X23166Y28603D01*
X23163Y28603D01*
D01*
X23163D01*
X23053D01*
X23049Y28603D01*
X23046Y28604D01*
X23043Y28605D01*
X23040Y28607D01*
X23037Y28609D01*
X23035Y28612D01*
X23033Y28615D01*
X23032Y28618D01*
X23031Y28621D01*
X23031Y28624D01*
X23031Y28762D01*
X23031Y28762D01*
X23031Y28768D01*
X23031Y28768D01*
X23031Y28769D01*
X23031Y28770D01*
X23031Y28771D01*
X23031Y28772D01*
X23031Y28772D01*
X23033Y28783D01*
X23034Y28783D01*
X23034Y28783D01*
X23034Y28785D01*
X23034Y28786D01*
X23035Y28786D01*
X23035Y28787D01*
X23039Y28797D01*
X23039Y28797D01*
X23039Y28798D01*
X23040Y28799D01*
X23040Y28800D01*
X23041Y28800D01*
X23041Y28800D01*
X23047Y28810D01*
X23047Y28810D01*
X23047Y28810D01*
X23048Y28811D01*
X23049Y28812D01*
X23049Y28812D01*
X23050Y28813D01*
X23057Y28820D01*
X23058Y28821D01*
X23058Y28821D01*
X23059Y28822D01*
X23060Y28823D01*
X23060Y28823D01*
X23061Y28823D01*
X23070Y28829D01*
X23070Y28829D01*
X23070Y28830D01*
X23071Y28830D01*
X23073Y28831D01*
X23073Y28831D01*
X23073Y28831D01*
X23083Y28835D01*
X23084Y28835D01*
X23084Y28836D01*
X23085Y28836D01*
X23087Y28836D01*
X23087Y28836D01*
X23087Y28837D01*
X23098Y28839D01*
X23098Y28839D01*
X23099Y28839D01*
X23100Y28839D01*
X23101Y28839D01*
X23102Y28839D01*
X23102Y28839D01*
X23113Y28839D01*
X23114Y28839D01*
D02*
G37*
G36*
X23757Y29866D02*
X23760Y29866D01*
X23763Y29864D01*
X23766Y29863D01*
X23769Y29860D01*
X23771Y29858D01*
X23773Y29855D01*
X23774Y29852D01*
X23775Y29848D01*
X23775Y29845D01*
X23775Y29707D01*
X23775Y29707D01*
X23775Y29702D01*
X23775Y29701D01*
X23775Y29701D01*
X23775Y29700D01*
X23775Y29698D01*
X23775Y29698D01*
X23775Y29697D01*
X23773Y29687D01*
X23772Y29686D01*
X23772Y29686D01*
X23772Y29685D01*
X23772Y29684D01*
X23771Y29683D01*
X23771Y29683D01*
X23767Y29673D01*
X23767Y29672D01*
X23767Y29672D01*
X23766Y29671D01*
X23766Y29670D01*
X23765Y29669D01*
X23765Y29669D01*
X23759Y29660D01*
X23759Y29660D01*
X23759Y29659D01*
X23758Y29658D01*
X23757Y29657D01*
X23757Y29657D01*
X23756Y29657D01*
X23749Y29649D01*
X23748Y29649D01*
X23748Y29648D01*
X23747Y29648D01*
X23746Y29647D01*
X23746Y29647D01*
X23745Y29646D01*
X23736Y29640D01*
X23736Y29640D01*
X23736Y29640D01*
X23735Y29639D01*
X23733Y29639D01*
X23733Y29638D01*
X23733Y29638D01*
X23723Y29634D01*
X23722Y29634D01*
X23722Y29634D01*
X23721Y29633D01*
X23719Y29633D01*
X23719Y29633D01*
X23719Y29633D01*
X23708Y29631D01*
X23708Y29631D01*
X23707Y29631D01*
X23706Y29630D01*
X23705Y29630D01*
X23704Y29630D01*
X23704Y29630D01*
X23693Y29630D01*
X23692Y29630D01*
X23692Y29630D01*
X23691Y29630D01*
X23689Y29631D01*
X23689Y29631D01*
X23689Y29631D01*
X23678Y29633D01*
X23678Y29633D01*
X23677Y29633D01*
X23676Y29633D01*
X23675Y29634D01*
X23674Y29634D01*
X23674Y29634D01*
X23664Y29638D01*
X23663Y29638D01*
X23663Y29639D01*
X23662Y29639D01*
X23661Y29640D01*
X23660Y29640D01*
X23660Y29640D01*
X23651Y29646D01*
X23651Y29647D01*
X23650Y29647D01*
X23649Y29648D01*
X23648Y29648D01*
X23648Y29649D01*
X23648Y29649D01*
X23640Y29657D01*
X23640Y29657D01*
X23640Y29657D01*
X23639Y29658D01*
X23638Y29659D01*
X23638Y29660D01*
X23637Y29660D01*
X23631Y29669D01*
X23631Y29669D01*
X23631Y29670D01*
X23630Y29671D01*
X23630Y29672D01*
X23630Y29672D01*
X23629Y29673D01*
X23625Y29683D01*
X23625Y29683D01*
X23625Y29684D01*
X23625Y29685D01*
X23624Y29686D01*
X23624Y29686D01*
X23624Y29687D01*
X23622Y29697D01*
X23622Y29698D01*
X23622Y29698D01*
X23622Y29700D01*
X23621Y29701D01*
X23621Y29701D01*
X23621Y29702D01*
X23621Y29707D01*
X23621Y29845D01*
X23622Y29848D01*
X23622Y29852D01*
X23624Y29855D01*
X23626Y29858D01*
X23628Y29860D01*
X23630Y29863D01*
X23633Y29864D01*
X23636Y29866D01*
X23640Y29866D01*
X23643Y29867D01*
X23753D01*
X23757Y29866D01*
D02*
G37*
G36*
X23560D02*
X23563Y29866D01*
X23566Y29864D01*
X23569Y29863D01*
X23572Y29860D01*
X23574Y29858D01*
X23576Y29855D01*
X23577Y29852D01*
X23578Y29848D01*
X23578Y29845D01*
X23578Y29707D01*
X23578Y29707D01*
X23578Y29702D01*
X23578Y29701D01*
X23578Y29701D01*
X23578Y29700D01*
X23578Y29698D01*
X23578Y29698D01*
X23578Y29697D01*
X23576Y29687D01*
X23576Y29686D01*
X23576Y29686D01*
X23575Y29685D01*
X23575Y29684D01*
X23575Y29683D01*
X23574Y29683D01*
X23570Y29673D01*
X23570Y29672D01*
X23570Y29672D01*
X23569Y29671D01*
X23569Y29670D01*
X23569Y29669D01*
X23568Y29669D01*
X23562Y29660D01*
X23562Y29660D01*
X23562Y29659D01*
X23561Y29658D01*
X23560Y29657D01*
X23560Y29657D01*
X23560Y29657D01*
X23552Y29649D01*
X23552Y29649D01*
X23551Y29648D01*
X23550Y29648D01*
X23549Y29647D01*
X23549Y29647D01*
X23549Y29646D01*
X23540Y29640D01*
X23539Y29640D01*
X23539Y29640D01*
X23538Y29639D01*
X23537Y29639D01*
X23536Y29638D01*
X23536Y29638D01*
X23526Y29634D01*
X23525Y29634D01*
X23525Y29634D01*
X23524Y29633D01*
X23523Y29633D01*
X23522Y29633D01*
X23522Y29633D01*
X23511Y29631D01*
X23511Y29631D01*
X23510Y29631D01*
X23509Y29630D01*
X23508Y29630D01*
X23507Y29630D01*
X23507Y29630D01*
X23496Y29630D01*
X23496Y29630D01*
X23495Y29630D01*
X23494Y29630D01*
X23493Y29631D01*
X23492Y29631D01*
X23492Y29631D01*
X23481Y29633D01*
X23481Y29633D01*
X23480Y29633D01*
X23479Y29633D01*
X23478Y29634D01*
X23477Y29634D01*
X23477Y29634D01*
X23467Y29638D01*
X23467Y29638D01*
X23466Y29639D01*
X23465Y29639D01*
X23464Y29640D01*
X23464Y29640D01*
X23463Y29640D01*
X23454Y29646D01*
X23454Y29647D01*
X23454Y29647D01*
X23453Y29648D01*
X23452Y29648D01*
X23451Y29649D01*
X23451Y29649D01*
X23443Y29657D01*
X23443Y29657D01*
X23443Y29657D01*
X23442Y29658D01*
X23441Y29659D01*
X23441Y29660D01*
X23441Y29660D01*
X23435Y29669D01*
X23434Y29669D01*
X23434Y29670D01*
X23433Y29671D01*
X23433Y29672D01*
X23433Y29672D01*
X23433Y29673D01*
X23428Y29683D01*
X23428Y29683D01*
X23428Y29684D01*
X23428Y29685D01*
X23427Y29686D01*
X23427Y29686D01*
X23427Y29687D01*
X23425Y29697D01*
X23425Y29698D01*
X23425Y29698D01*
X23425Y29700D01*
X23425Y29701D01*
X23425Y29701D01*
X23425Y29702D01*
X23425Y29707D01*
X23425Y29845D01*
X23425Y29848D01*
X23426Y29852D01*
X23427Y29855D01*
X23429Y29858D01*
X23431Y29860D01*
X23434Y29863D01*
X23436Y29864D01*
X23440Y29866D01*
X23443Y29866D01*
X23446Y29867D01*
X23557D01*
X23560Y29866D01*
D02*
G37*
G36*
X37104Y29607D02*
X37109Y29607D01*
X37110Y29607D01*
X37110Y29607D01*
X37111Y29607D01*
X37113Y29607D01*
X37113Y29606D01*
X37113Y29606D01*
X37124Y29604D01*
X37125Y29604D01*
X37125Y29604D01*
X37126Y29604D01*
X37127Y29603D01*
X37128Y29603D01*
X37128Y29603D01*
X37138Y29599D01*
X37139Y29599D01*
X37139Y29599D01*
X37140Y29598D01*
X37141Y29597D01*
X37142Y29597D01*
X37142Y29597D01*
X37151Y29591D01*
X37151Y29591D01*
X37152Y29590D01*
X37153Y29590D01*
X37154Y29589D01*
X37154Y29588D01*
X37154Y29588D01*
X37162Y29581D01*
X37162Y29580D01*
X37163Y29580D01*
X37163Y29579D01*
X37164Y29578D01*
X37164Y29578D01*
X37165Y29577D01*
X37171Y29568D01*
X37171Y29568D01*
X37171Y29567D01*
X37172Y29566D01*
X37172Y29565D01*
X37173Y29565D01*
X37173Y29564D01*
X37177Y29554D01*
X37177Y29554D01*
X37177Y29554D01*
X37178Y29552D01*
X37178Y29551D01*
X37178Y29551D01*
X37178Y29550D01*
X37180Y29540D01*
X37180Y29539D01*
X37180Y29539D01*
X37180Y29538D01*
X37181Y29536D01*
X37181Y29536D01*
X37181Y29535D01*
X37181Y29525D01*
X37181Y29524D01*
X37181Y29524D01*
X37180Y29522D01*
X37180Y29521D01*
X37180Y29521D01*
X37180Y29520D01*
X37178Y29510D01*
X37178Y29509D01*
X37178Y29509D01*
X37178Y29508D01*
X37177Y29506D01*
X37177Y29506D01*
X37177Y29506D01*
X37173Y29496D01*
X37173Y29495D01*
X37172Y29495D01*
X37172Y29494D01*
X37171Y29493D01*
X37171Y29492D01*
X37171Y29492D01*
X37165Y29483D01*
X37164Y29482D01*
X37164Y29482D01*
X37163Y29481D01*
X37163Y29480D01*
X37162Y29480D01*
X37162Y29480D01*
X37154Y29472D01*
X37154Y29472D01*
X37154Y29471D01*
X37153Y29470D01*
X37152Y29470D01*
X37151Y29469D01*
X37151Y29469D01*
X37142Y29463D01*
X37142Y29463D01*
X37141Y29463D01*
X37140Y29462D01*
X37139Y29461D01*
X37139Y29461D01*
X37138Y29461D01*
X37128Y29457D01*
X37128Y29457D01*
X37127Y29457D01*
X37126Y29456D01*
X37125Y29456D01*
X37125Y29456D01*
X37124Y29456D01*
X37113Y29454D01*
X37113Y29454D01*
X37113Y29453D01*
X37111Y29453D01*
X37110Y29453D01*
X37110Y29453D01*
X37109Y29453D01*
X37104Y29453D01*
X36966Y29453D01*
X36963Y29453D01*
X36959Y29454D01*
X36956Y29456D01*
X36953Y29457D01*
X36951Y29460D01*
X36948Y29462D01*
X36947Y29465D01*
X36945Y29468D01*
X36945Y29471D01*
X36944Y29475D01*
Y29585D01*
X36945Y29589D01*
X36945Y29592D01*
X36947Y29595D01*
X36948Y29598D01*
X36951Y29600D01*
X36953Y29603D01*
X36956Y29604D01*
X36959Y29606D01*
X36963Y29607D01*
X36966Y29607D01*
X37104Y29607D01*
D01*
D01*
X37104D01*
X37104Y29607D01*
D02*
G37*
G36*
X24017Y29607D02*
X24020Y29606D01*
X24023Y29604D01*
X24026Y29603D01*
X24029Y29600D01*
X24031Y29598D01*
X24033Y29595D01*
X24034Y29592D01*
X24035Y29589D01*
X24035Y29585D01*
Y29585D01*
D01*
Y29475D01*
X24035Y29471D01*
X24034Y29468D01*
X24033Y29465D01*
X24031Y29462D01*
X24029Y29460D01*
X24026Y29457D01*
X24023Y29456D01*
X24020Y29454D01*
X24017Y29453D01*
X24013Y29453D01*
X23875Y29453D01*
X23875Y29453D01*
X23870Y29453D01*
X23870Y29453D01*
X23869Y29453D01*
X23868Y29453D01*
X23867Y29453D01*
X23866Y29454D01*
X23866Y29454D01*
X23855Y29456D01*
X23855Y29456D01*
X23854Y29456D01*
X23853Y29456D01*
X23852Y29457D01*
X23851Y29457D01*
X23851Y29457D01*
X23841Y29461D01*
X23841Y29461D01*
X23840Y29461D01*
X23839Y29462D01*
X23838Y29463D01*
X23838Y29463D01*
X23837Y29463D01*
X23828Y29469D01*
X23828Y29469D01*
X23828Y29470D01*
X23827Y29470D01*
X23826Y29471D01*
X23825Y29472D01*
X23825Y29472D01*
X23817Y29479D01*
X23817Y29480D01*
X23817Y29480D01*
X23816Y29481D01*
X23815Y29482D01*
X23815Y29482D01*
X23815Y29483D01*
X23809Y29492D01*
X23808Y29492D01*
X23808Y29493D01*
X23807Y29494D01*
X23807Y29495D01*
X23807Y29495D01*
X23806Y29496D01*
X23802Y29506D01*
X23802Y29506D01*
X23802Y29506D01*
X23802Y29508D01*
X23801Y29509D01*
X23801Y29509D01*
X23801Y29510D01*
X23799Y29520D01*
X23799Y29521D01*
X23799Y29521D01*
X23799Y29522D01*
X23799Y29524D01*
X23799Y29524D01*
X23799Y29525D01*
X23799Y29535D01*
X23799Y29536D01*
X23799Y29536D01*
X23799Y29538D01*
X23799Y29539D01*
X23799Y29539D01*
X23799Y29540D01*
X23801Y29550D01*
X23801Y29551D01*
X23801Y29551D01*
X23802Y29552D01*
X23802Y29554D01*
X23802Y29554D01*
X23802Y29554D01*
X23806Y29564D01*
X23807Y29565D01*
X23807Y29565D01*
X23807Y29566D01*
X23808Y29567D01*
X23808Y29568D01*
X23809Y29568D01*
X23815Y29577D01*
X23815Y29578D01*
X23815Y29578D01*
X23816Y29579D01*
X23817Y29580D01*
X23817Y29580D01*
X23817Y29580D01*
X23825Y29588D01*
X23825Y29588D01*
X23826Y29589D01*
X23827Y29590D01*
X23828Y29590D01*
X23828Y29591D01*
X23828Y29591D01*
X23837Y29597D01*
X23838Y29597D01*
X23838Y29597D01*
X23839Y29598D01*
X23840Y29599D01*
X23841Y29599D01*
X23841Y29599D01*
X23851Y29603D01*
X23851Y29603D01*
X23852Y29603D01*
X23853Y29604D01*
X23854Y29604D01*
X23855Y29604D01*
X23855Y29604D01*
X23866Y29606D01*
X23866Y29606D01*
X23867Y29607D01*
X23868Y29607D01*
X23869Y29607D01*
X23870Y29607D01*
X23870Y29607D01*
X23875Y29607D01*
X24013Y29607D01*
D01*
X24013D01*
X24017Y29607D01*
D02*
G37*
G36*
X37104Y29410D02*
X37109Y29410D01*
X37110Y29410D01*
X37110Y29410D01*
X37111Y29410D01*
X37113Y29410D01*
X37113Y29410D01*
X37113Y29410D01*
X37124Y29407D01*
X37125Y29407D01*
X37125Y29407D01*
X37126Y29407D01*
X37127Y29407D01*
X37128Y29406D01*
X37128Y29406D01*
X37138Y29402D01*
X37139Y29402D01*
X37139Y29402D01*
X37140Y29401D01*
X37141Y29401D01*
X37142Y29400D01*
X37142Y29400D01*
X37151Y29394D01*
X37151Y29394D01*
X37152Y29394D01*
X37153Y29393D01*
X37154Y29392D01*
X37154Y29392D01*
X37154Y29391D01*
X37162Y29384D01*
X37162Y29383D01*
X37163Y29383D01*
X37163Y29382D01*
X37164Y29381D01*
X37164Y29381D01*
X37165Y29380D01*
X37171Y29371D01*
X37171Y29371D01*
X37171Y29371D01*
X37172Y29369D01*
X37172Y29368D01*
X37173Y29368D01*
X37173Y29368D01*
X37177Y29358D01*
X37177Y29357D01*
X37177Y29357D01*
X37178Y29355D01*
X37178Y29354D01*
X37178Y29354D01*
X37178Y29353D01*
X37180Y29343D01*
X37180Y29342D01*
X37180Y29342D01*
X37180Y29341D01*
X37181Y29339D01*
X37181Y29339D01*
X37181Y29339D01*
X37181Y29328D01*
X37181Y29327D01*
X37181Y29327D01*
X37180Y29326D01*
X37180Y29324D01*
X37180Y29324D01*
X37180Y29323D01*
X37178Y29313D01*
X37178Y29312D01*
X37178Y29312D01*
X37178Y29311D01*
X37177Y29310D01*
X37177Y29309D01*
X37177Y29309D01*
X37173Y29299D01*
X37173Y29298D01*
X37172Y29298D01*
X37172Y29297D01*
X37171Y29296D01*
X37171Y29295D01*
X37171Y29295D01*
X37165Y29286D01*
X37164Y29286D01*
X37164Y29285D01*
X37163Y29284D01*
X37163Y29283D01*
X37162Y29283D01*
X37162Y29283D01*
X37154Y29275D01*
X37154Y29275D01*
X37154Y29274D01*
X37153Y29274D01*
X37152Y29273D01*
X37151Y29273D01*
X37151Y29272D01*
X37142Y29266D01*
X37142Y29266D01*
X37141Y29266D01*
X37140Y29265D01*
X37139Y29265D01*
X37139Y29264D01*
X37138Y29264D01*
X37128Y29260D01*
X37128Y29260D01*
X37127Y29260D01*
X37126Y29259D01*
X37125Y29259D01*
X37125Y29259D01*
X37124Y29259D01*
X37113Y29257D01*
X37113Y29257D01*
X37113Y29257D01*
X37111Y29256D01*
X37110Y29256D01*
X37110Y29256D01*
X37109Y29256D01*
X37104Y29256D01*
X36966Y29256D01*
X36963Y29257D01*
X36959Y29257D01*
X36956Y29259D01*
X36953Y29260D01*
X36951Y29263D01*
X36948Y29265D01*
X36947Y29268D01*
X36945Y29271D01*
X36945Y29275D01*
X36944Y29278D01*
Y29388D01*
X36945Y29392D01*
X36945Y29395D01*
X36947Y29398D01*
X36948Y29401D01*
X36951Y29404D01*
X36953Y29406D01*
X36956Y29408D01*
X36959Y29409D01*
X36963Y29410D01*
X36966Y29410D01*
X37104Y29410D01*
D01*
D01*
X37104D01*
X37104Y29410D01*
D02*
G37*
G36*
X24017Y29410D02*
X24020Y29409D01*
X24023Y29408D01*
X24026Y29406D01*
X24029Y29404D01*
X24031Y29401D01*
X24033Y29398D01*
X24034Y29395D01*
X24035Y29392D01*
X24035Y29388D01*
D01*
Y29388D01*
Y29278D01*
X24035Y29275D01*
X24034Y29271D01*
X24033Y29268D01*
X24031Y29265D01*
X24029Y29263D01*
X24026Y29260D01*
X24023Y29259D01*
X24020Y29257D01*
X24017Y29257D01*
X24013Y29256D01*
X23875Y29256D01*
X23875Y29256D01*
X23870Y29256D01*
X23870Y29256D01*
X23869Y29256D01*
X23868Y29256D01*
X23867Y29257D01*
X23866Y29257D01*
X23866Y29257D01*
X23855Y29259D01*
X23855Y29259D01*
X23854Y29259D01*
X23853Y29259D01*
X23852Y29260D01*
X23851Y29260D01*
X23851Y29260D01*
X23841Y29264D01*
X23841Y29264D01*
X23840Y29265D01*
X23839Y29265D01*
X23838Y29266D01*
X23838Y29266D01*
X23837Y29266D01*
X23828Y29272D01*
X23828Y29273D01*
X23828Y29273D01*
X23827Y29274D01*
X23826Y29274D01*
X23825Y29275D01*
X23825Y29275D01*
X23817Y29283D01*
X23817Y29283D01*
X23817Y29283D01*
X23816Y29284D01*
X23815Y29285D01*
X23815Y29286D01*
X23815Y29286D01*
X23809Y29295D01*
X23808Y29295D01*
X23808Y29296D01*
X23807Y29297D01*
X23807Y29298D01*
X23807Y29298D01*
X23806Y29299D01*
X23802Y29309D01*
X23802Y29309D01*
X23802Y29310D01*
X23802Y29311D01*
X23801Y29312D01*
X23801Y29312D01*
X23801Y29313D01*
X23799Y29323D01*
X23799Y29324D01*
X23799Y29324D01*
X23799Y29326D01*
X23799Y29327D01*
X23799Y29327D01*
X23799Y29328D01*
X23799Y29339D01*
X23799Y29339D01*
X23799Y29339D01*
X23799Y29341D01*
X23799Y29342D01*
X23799Y29342D01*
X23799Y29343D01*
X23801Y29353D01*
X23801Y29354D01*
X23801Y29354D01*
X23802Y29356D01*
X23802Y29357D01*
X23802Y29357D01*
X23802Y29358D01*
X23806Y29368D01*
X23807Y29368D01*
X23807Y29368D01*
X23807Y29369D01*
X23808Y29371D01*
X23808Y29371D01*
X23809Y29371D01*
X23815Y29380D01*
X23815Y29381D01*
X23815Y29381D01*
X23816Y29382D01*
X23817Y29383D01*
X23817Y29383D01*
X23817Y29384D01*
X23825Y29391D01*
X23825Y29392D01*
X23826Y29392D01*
X23827Y29393D01*
X23828Y29394D01*
X23828Y29394D01*
X23828Y29394D01*
X23837Y29400D01*
X23838Y29400D01*
X23838Y29401D01*
X23839Y29401D01*
X23840Y29402D01*
X23841Y29402D01*
X23841Y29402D01*
X23851Y29406D01*
X23851Y29406D01*
X23852Y29407D01*
X23853Y29407D01*
X23854Y29407D01*
X23855Y29407D01*
X23855Y29407D01*
X23866Y29410D01*
X23866Y29410D01*
X23867Y29410D01*
X23868Y29410D01*
X23869Y29410D01*
X23870Y29410D01*
X23870Y29410D01*
X23875Y29410D01*
X24013Y29410D01*
D01*
X24013D01*
X24017Y29410D01*
D02*
G37*
G36*
X37104Y29213D02*
X37109Y29213D01*
X37110Y29213D01*
X37110Y29213D01*
X37111Y29213D01*
X37113Y29213D01*
X37113Y29213D01*
X37113Y29213D01*
X37124Y29211D01*
X37125Y29210D01*
X37125Y29210D01*
X37126Y29210D01*
X37127Y29210D01*
X37128Y29209D01*
X37128Y29209D01*
X37138Y29205D01*
X37139Y29205D01*
X37139Y29205D01*
X37140Y29204D01*
X37141Y29204D01*
X37142Y29203D01*
X37142Y29203D01*
X37151Y29197D01*
X37151Y29197D01*
X37152Y29197D01*
X37153Y29196D01*
X37154Y29195D01*
X37154Y29195D01*
X37154Y29194D01*
X37162Y29187D01*
X37162Y29186D01*
X37163Y29186D01*
X37163Y29185D01*
X37164Y29184D01*
X37164Y29184D01*
X37165Y29183D01*
X37171Y29174D01*
X37171Y29174D01*
X37171Y29174D01*
X37172Y29173D01*
X37172Y29172D01*
X37173Y29171D01*
X37173Y29171D01*
X37177Y29161D01*
X37177Y29160D01*
X37177Y29160D01*
X37178Y29159D01*
X37178Y29157D01*
X37178Y29157D01*
X37178Y29157D01*
X37180Y29146D01*
X37180Y29146D01*
X37180Y29145D01*
X37180Y29144D01*
X37181Y29143D01*
X37181Y29142D01*
X37181Y29142D01*
X37181Y29131D01*
X37181Y29130D01*
X37181Y29130D01*
X37180Y29129D01*
X37180Y29127D01*
X37180Y29127D01*
X37180Y29127D01*
X37178Y29116D01*
X37178Y29116D01*
X37178Y29115D01*
X37178Y29114D01*
X37177Y29113D01*
X37177Y29112D01*
X37177Y29112D01*
X37173Y29102D01*
X37173Y29102D01*
X37172Y29101D01*
X37172Y29100D01*
X37171Y29099D01*
X37171Y29098D01*
X37171Y29098D01*
X37165Y29089D01*
X37164Y29089D01*
X37164Y29088D01*
X37163Y29087D01*
X37163Y29086D01*
X37162Y29086D01*
X37162Y29086D01*
X37154Y29078D01*
X37154Y29078D01*
X37154Y29078D01*
X37153Y29077D01*
X37152Y29076D01*
X37151Y29076D01*
X37151Y29075D01*
X37142Y29069D01*
X37142Y29069D01*
X37141Y29069D01*
X37140Y29068D01*
X37139Y29068D01*
X37139Y29068D01*
X37138Y29067D01*
X37128Y29063D01*
X37128Y29063D01*
X37127Y29063D01*
X37126Y29063D01*
X37125Y29062D01*
X37125Y29062D01*
X37124Y29062D01*
X37113Y29060D01*
X37113Y29060D01*
X37113Y29060D01*
X37111Y29060D01*
X37110Y29059D01*
X37110Y29060D01*
X37109Y29059D01*
X37104Y29059D01*
X36966Y29059D01*
X36963Y29060D01*
X36959Y29061D01*
X36956Y29062D01*
X36953Y29064D01*
X36951Y29066D01*
X36948Y29068D01*
X36947Y29071D01*
X36945Y29074D01*
X36945Y29078D01*
X36944Y29081D01*
Y29191D01*
X36945Y29195D01*
X36945Y29198D01*
X36947Y29201D01*
X36948Y29204D01*
X36951Y29207D01*
X36953Y29209D01*
X36956Y29211D01*
X36959Y29212D01*
X36963Y29213D01*
X36966Y29213D01*
X37104Y29213D01*
D01*
D01*
X37104D01*
X37104Y29213D01*
D02*
G37*
G36*
X24017Y29213D02*
X24020Y29212D01*
X24023Y29211D01*
X24026Y29209D01*
X24029Y29207D01*
X24031Y29204D01*
X24033Y29201D01*
X24034Y29198D01*
X24035Y29195D01*
X24035Y29191D01*
D01*
Y29191D01*
Y29081D01*
X24035Y29078D01*
X24034Y29074D01*
X24033Y29071D01*
X24031Y29068D01*
X24029Y29066D01*
X24026Y29064D01*
X24023Y29062D01*
X24020Y29061D01*
X24017Y29060D01*
X24013Y29059D01*
X23875Y29059D01*
X23875Y29059D01*
X23870Y29059D01*
X23870Y29059D01*
X23869Y29059D01*
X23868Y29060D01*
X23867Y29060D01*
X23866Y29060D01*
X23866Y29060D01*
X23855Y29062D01*
X23855Y29062D01*
X23854Y29062D01*
X23853Y29063D01*
X23852Y29063D01*
X23851Y29063D01*
X23851Y29063D01*
X23841Y29067D01*
X23841Y29068D01*
X23840Y29068D01*
X23839Y29068D01*
X23838Y29069D01*
X23838Y29069D01*
X23837Y29069D01*
X23828Y29075D01*
X23828Y29076D01*
X23828Y29076D01*
X23827Y29077D01*
X23826Y29078D01*
X23825Y29078D01*
X23825Y29078D01*
X23817Y29086D01*
X23817Y29086D01*
X23817Y29086D01*
X23816Y29087D01*
X23815Y29088D01*
X23815Y29089D01*
X23815Y29089D01*
X23809Y29098D01*
X23808Y29098D01*
X23808Y29099D01*
X23807Y29100D01*
X23807Y29101D01*
X23807Y29101D01*
X23806Y29102D01*
X23802Y29112D01*
X23802Y29112D01*
X23802Y29113D01*
X23802Y29114D01*
X23801Y29115D01*
X23801Y29116D01*
X23801Y29116D01*
X23799Y29127D01*
X23799Y29127D01*
X23799Y29127D01*
X23799Y29129D01*
X23799Y29130D01*
X23799Y29130D01*
X23799Y29131D01*
X23799Y29142D01*
X23799Y29142D01*
X23799Y29143D01*
X23799Y29144D01*
X23799Y29145D01*
X23799Y29146D01*
X23799Y29146D01*
X23801Y29157D01*
X23801Y29157D01*
X23801Y29157D01*
X23802Y29159D01*
X23802Y29160D01*
X23802Y29160D01*
X23802Y29161D01*
X23806Y29171D01*
X23807Y29171D01*
X23807Y29172D01*
X23807Y29173D01*
X23808Y29174D01*
X23808Y29174D01*
X23809Y29174D01*
X23815Y29183D01*
X23815Y29184D01*
X23815Y29184D01*
X23816Y29185D01*
X23817Y29186D01*
X23817Y29186D01*
X23817Y29187D01*
X23825Y29194D01*
X23825Y29195D01*
X23826Y29195D01*
X23827Y29196D01*
X23828Y29197D01*
X23828Y29197D01*
X23828Y29197D01*
X23837Y29203D01*
X23838Y29203D01*
X23838Y29204D01*
X23839Y29204D01*
X23840Y29205D01*
X23841Y29205D01*
X23841Y29205D01*
X23851Y29209D01*
X23851Y29209D01*
X23852Y29210D01*
X23853Y29210D01*
X23854Y29210D01*
X23855Y29210D01*
X23855Y29211D01*
X23866Y29213D01*
X23866Y29213D01*
X23867Y29213D01*
X23868Y29213D01*
X23869Y29213D01*
X23870Y29213D01*
X23870Y29213D01*
X23875Y29213D01*
X24013Y29213D01*
D01*
X24013D01*
X24017Y29213D01*
D02*
G37*
G36*
X37104Y29016D02*
X37109Y29016D01*
X37110Y29016D01*
X37110Y29016D01*
X37111Y29016D01*
X37113Y29016D01*
X37113Y29016D01*
X37113Y29016D01*
X37124Y29014D01*
X37125Y29014D01*
X37125Y29014D01*
X37126Y29013D01*
X37127Y29013D01*
X37128Y29013D01*
X37128Y29013D01*
X37138Y29008D01*
X37139Y29008D01*
X37139Y29008D01*
X37140Y29007D01*
X37141Y29007D01*
X37142Y29007D01*
X37142Y29006D01*
X37151Y29000D01*
X37151Y29000D01*
X37152Y29000D01*
X37153Y28999D01*
X37154Y28998D01*
X37154Y28998D01*
X37154Y28998D01*
X37162Y28990D01*
X37162Y28990D01*
X37163Y28989D01*
X37163Y28988D01*
X37164Y28987D01*
X37164Y28987D01*
X37165Y28987D01*
X37171Y28978D01*
X37171Y28977D01*
X37171Y28977D01*
X37172Y28976D01*
X37172Y28975D01*
X37173Y28974D01*
X37173Y28974D01*
X37177Y28964D01*
X37177Y28963D01*
X37177Y28963D01*
X37178Y28962D01*
X37178Y28961D01*
X37178Y28960D01*
X37178Y28960D01*
X37180Y28949D01*
X37180Y28949D01*
X37180Y28948D01*
X37180Y28947D01*
X37181Y28946D01*
X37181Y28945D01*
X37181Y28945D01*
X37181Y28934D01*
X37181Y28934D01*
X37181Y28933D01*
X37180Y28932D01*
X37180Y28931D01*
X37180Y28930D01*
X37180Y28930D01*
X37178Y28919D01*
X37178Y28919D01*
X37178Y28918D01*
X37178Y28917D01*
X37177Y28916D01*
X37177Y28915D01*
X37177Y28915D01*
X37173Y28905D01*
X37173Y28905D01*
X37172Y28904D01*
X37172Y28903D01*
X37171Y28902D01*
X37171Y28902D01*
X37171Y28901D01*
X37165Y28892D01*
X37164Y28892D01*
X37164Y28892D01*
X37163Y28891D01*
X37163Y28890D01*
X37162Y28889D01*
X37162Y28889D01*
X37154Y28881D01*
X37154Y28881D01*
X37154Y28881D01*
X37153Y28880D01*
X37152Y28879D01*
X37151Y28879D01*
X37151Y28879D01*
X37142Y28873D01*
X37142Y28872D01*
X37141Y28872D01*
X37140Y28872D01*
X37139Y28871D01*
X37139Y28871D01*
X37138Y28871D01*
X37128Y28866D01*
X37128Y28866D01*
X37127Y28866D01*
X37126Y28866D01*
X37125Y28865D01*
X37125Y28865D01*
X37124Y28865D01*
X37113Y28863D01*
X37113Y28863D01*
X37113Y28863D01*
X37111Y28863D01*
X37110Y28863D01*
X37110Y28863D01*
X37109Y28863D01*
X37104Y28863D01*
X36966Y28863D01*
X36963Y28863D01*
X36959Y28864D01*
X36956Y28865D01*
X36953Y28867D01*
X36951Y28869D01*
X36948Y28872D01*
X36947Y28874D01*
X36945Y28878D01*
X36945Y28881D01*
X36944Y28884D01*
Y28995D01*
X36945Y28998D01*
X36945Y29001D01*
X36947Y29004D01*
X36948Y29007D01*
X36951Y29010D01*
X36953Y29012D01*
X36956Y29014D01*
X36959Y29015D01*
X36963Y29016D01*
X36966Y29016D01*
X37104Y29016D01*
D01*
D01*
X37104D01*
X37104Y29016D01*
D02*
G37*
G36*
X24017Y29016D02*
X24020Y29015D01*
X24023Y29014D01*
X24026Y29012D01*
X24029Y29010D01*
X24031Y29007D01*
X24033Y29004D01*
X24034Y29001D01*
X24035Y28998D01*
X24035Y28995D01*
Y28995D01*
D01*
Y28884D01*
X24035Y28881D01*
X24034Y28878D01*
X24033Y28874D01*
X24031Y28872D01*
X24029Y28869D01*
X24026Y28867D01*
X24023Y28865D01*
X24020Y28864D01*
X24017Y28863D01*
X24013Y28863D01*
X23875Y28863D01*
X23875Y28863D01*
X23870Y28863D01*
X23870Y28863D01*
X23869Y28863D01*
X23868Y28863D01*
X23867Y28863D01*
X23866Y28863D01*
X23866Y28863D01*
X23855Y28865D01*
X23855Y28865D01*
X23854Y28865D01*
X23853Y28866D01*
X23852Y28866D01*
X23851Y28866D01*
X23851Y28866D01*
X23841Y28871D01*
X23841Y28871D01*
X23840Y28871D01*
X23839Y28871D01*
X23838Y28872D01*
X23838Y28872D01*
X23837Y28873D01*
X23828Y28879D01*
X23828Y28879D01*
X23828Y28879D01*
X23827Y28880D01*
X23826Y28881D01*
X23825Y28881D01*
X23825Y28881D01*
X23817Y28889D01*
X23817Y28889D01*
X23817Y28890D01*
X23816Y28891D01*
X23815Y28892D01*
X23815Y28892D01*
X23815Y28892D01*
X23809Y28901D01*
X23808Y28902D01*
X23808Y28902D01*
X23807Y28903D01*
X23807Y28904D01*
X23807Y28905D01*
X23806Y28905D01*
X23802Y28915D01*
X23802Y28915D01*
X23802Y28916D01*
X23802Y28917D01*
X23801Y28918D01*
X23801Y28919D01*
X23801Y28919D01*
X23799Y28930D01*
X23799Y28930D01*
X23799Y28931D01*
X23799Y28932D01*
X23799Y28933D01*
X23799Y28934D01*
X23799Y28934D01*
X23799Y28945D01*
X23799Y28945D01*
X23799Y28946D01*
X23799Y28947D01*
X23799Y28948D01*
X23799Y28949D01*
X23799Y28949D01*
X23801Y28960D01*
X23801Y28960D01*
X23801Y28961D01*
X23802Y28962D01*
X23802Y28963D01*
X23802Y28963D01*
X23802Y28964D01*
X23806Y28974D01*
X23807Y28974D01*
X23807Y28975D01*
X23807Y28976D01*
X23808Y28977D01*
X23808Y28977D01*
X23809Y28978D01*
X23815Y28987D01*
X23815Y28987D01*
X23815Y28987D01*
X23816Y28988D01*
X23817Y28989D01*
X23817Y28990D01*
X23817Y28990D01*
X23825Y28998D01*
X23825Y28998D01*
X23826Y28998D01*
X23827Y28999D01*
X23828Y29000D01*
X23828Y29000D01*
X23828Y29000D01*
X23837Y29006D01*
X23838Y29007D01*
X23838Y29007D01*
X23839Y29007D01*
X23840Y29008D01*
X23841Y29008D01*
X23841Y29008D01*
X23851Y29013D01*
X23851Y29013D01*
X23852Y29013D01*
X23853Y29013D01*
X23854Y29014D01*
X23855Y29014D01*
X23855Y29014D01*
X23866Y29016D01*
X23866Y29016D01*
X23867Y29016D01*
X23868Y29016D01*
X23869Y29016D01*
X23870Y29016D01*
X23870Y29016D01*
X23875Y29016D01*
X24013Y29016D01*
D01*
X24013D01*
X24017Y29016D01*
D02*
G37*
G36*
X23704Y28839D02*
X23705Y28839D01*
X23706Y28839D01*
X23707Y28839D01*
X23708Y28839D01*
X23708Y28839D01*
X23719Y28837D01*
X23719Y28836D01*
X23719Y28836D01*
X23721Y28836D01*
X23722Y28836D01*
X23722Y28835D01*
X23723Y28835D01*
X23733Y28831D01*
X23733Y28831D01*
X23733Y28831D01*
X23735Y28830D01*
X23736Y28830D01*
X23736Y28829D01*
X23736Y28829D01*
X23745Y28823D01*
X23746Y28823D01*
X23746Y28823D01*
X23747Y28822D01*
X23748Y28821D01*
X23748Y28821D01*
X23749Y28820D01*
X23756Y28813D01*
X23757Y28812D01*
X23757Y28812D01*
X23758Y28811D01*
X23759Y28810D01*
X23759Y28810D01*
X23759Y28810D01*
X23765Y28800D01*
X23765Y28800D01*
X23766Y28800D01*
X23766Y28799D01*
X23767Y28798D01*
X23767Y28797D01*
X23767Y28797D01*
X23771Y28787D01*
X23771Y28786D01*
X23772Y28786D01*
X23772Y28785D01*
X23772Y28783D01*
X23772Y28783D01*
X23773Y28783D01*
X23775Y28772D01*
X23775Y28772D01*
X23775Y28771D01*
X23775Y28770D01*
X23775Y28769D01*
X23775Y28768D01*
X23775Y28768D01*
X23775Y28762D01*
X23775Y28624D01*
Y28624D01*
D01*
X23775Y28621D01*
X23774Y28618D01*
X23773Y28615D01*
X23771Y28612D01*
X23769Y28609D01*
X23766Y28607D01*
X23763Y28605D01*
X23760Y28604D01*
X23757Y28603D01*
X23753Y28603D01*
D01*
X23753D01*
X23643D01*
X23640Y28603D01*
X23636Y28604D01*
X23633Y28605D01*
X23630Y28607D01*
X23628Y28609D01*
X23626Y28612D01*
X23624Y28615D01*
X23622Y28618D01*
X23622Y28621D01*
X23621Y28624D01*
X23621Y28762D01*
X23621Y28762D01*
X23621Y28768D01*
X23621Y28768D01*
X23621Y28769D01*
X23622Y28770D01*
X23622Y28771D01*
X23622Y28772D01*
X23622Y28772D01*
X23624Y28783D01*
X23624Y28783D01*
X23624Y28783D01*
X23625Y28785D01*
X23625Y28786D01*
X23625Y28786D01*
X23625Y28787D01*
X23629Y28797D01*
X23630Y28797D01*
X23630Y28798D01*
X23630Y28799D01*
X23631Y28800D01*
X23631Y28800D01*
X23631Y28800D01*
X23637Y28810D01*
X23638Y28810D01*
X23638Y28810D01*
X23639Y28811D01*
X23640Y28812D01*
X23640Y28812D01*
X23640Y28813D01*
X23648Y28820D01*
X23648Y28821D01*
X23648Y28821D01*
X23649Y28822D01*
X23650Y28823D01*
X23651Y28823D01*
X23651Y28823D01*
X23660Y28829D01*
X23660Y28829D01*
X23661Y28830D01*
X23662Y28830D01*
X23663Y28831D01*
X23663Y28831D01*
X23664Y28831D01*
X23674Y28835D01*
X23674Y28835D01*
X23675Y28836D01*
X23676Y28836D01*
X23677Y28836D01*
X23678Y28836D01*
X23678Y28837D01*
X23689Y28839D01*
X23689Y28839D01*
X23689Y28839D01*
X23691Y28839D01*
X23692Y28839D01*
X23692Y28839D01*
X23693Y28839D01*
X23704Y28839D01*
X23704Y28839D01*
D02*
G37*
G36*
X23507D02*
X23508Y28839D01*
X23509Y28839D01*
X23510Y28839D01*
X23511Y28839D01*
X23511Y28839D01*
X23522Y28837D01*
X23522Y28836D01*
X23523Y28836D01*
X23524Y28836D01*
X23525Y28836D01*
X23525Y28835D01*
X23526Y28835D01*
X23536Y28831D01*
X23536Y28831D01*
X23537Y28831D01*
X23538Y28830D01*
X23539Y28830D01*
X23539Y28829D01*
X23540Y28829D01*
X23549Y28823D01*
X23549Y28823D01*
X23549Y28823D01*
X23550Y28822D01*
X23551Y28821D01*
X23552Y28821D01*
X23552Y28820D01*
X23560Y28813D01*
X23560Y28812D01*
X23560Y28812D01*
X23561Y28811D01*
X23562Y28810D01*
X23562Y28810D01*
X23562Y28810D01*
X23568Y28800D01*
X23569Y28800D01*
X23569Y28800D01*
X23569Y28799D01*
X23570Y28798D01*
X23570Y28797D01*
X23570Y28797D01*
X23574Y28787D01*
X23575Y28786D01*
X23575Y28786D01*
X23575Y28785D01*
X23576Y28783D01*
X23576Y28783D01*
X23576Y28783D01*
X23578Y28772D01*
X23578Y28772D01*
X23578Y28771D01*
X23578Y28770D01*
X23578Y28769D01*
X23578Y28768D01*
X23578Y28768D01*
X23578Y28762D01*
X23578Y28624D01*
Y28624D01*
D01*
X23578Y28621D01*
X23577Y28618D01*
X23576Y28615D01*
X23574Y28612D01*
X23572Y28609D01*
X23569Y28607D01*
X23566Y28605D01*
X23563Y28604D01*
X23560Y28603D01*
X23557Y28603D01*
X23557D01*
D01*
X23446D01*
X23443Y28603D01*
X23440Y28604D01*
X23436Y28605D01*
X23434Y28607D01*
X23431Y28609D01*
X23429Y28612D01*
X23427Y28615D01*
X23426Y28618D01*
X23425Y28621D01*
X23425Y28624D01*
X23425Y28762D01*
X23425Y28762D01*
X23425Y28768D01*
X23425Y28768D01*
X23425Y28769D01*
X23425Y28770D01*
X23425Y28771D01*
X23425Y28772D01*
X23425Y28772D01*
X23427Y28783D01*
X23427Y28783D01*
X23427Y28783D01*
X23428Y28785D01*
X23428Y28786D01*
X23428Y28786D01*
X23428Y28787D01*
X23433Y28797D01*
X23433Y28797D01*
X23433Y28798D01*
X23433Y28799D01*
X23434Y28800D01*
X23434Y28800D01*
X23435Y28800D01*
X23441Y28810D01*
X23441Y28810D01*
X23441Y28810D01*
X23442Y28811D01*
X23443Y28812D01*
X23443Y28812D01*
X23443Y28813D01*
X23451Y28820D01*
X23451Y28821D01*
X23452Y28821D01*
X23453Y28822D01*
X23454Y28823D01*
X23454Y28823D01*
X23454Y28823D01*
X23463Y28829D01*
X23464Y28829D01*
X23464Y28830D01*
X23465Y28830D01*
X23466Y28831D01*
X23467Y28831D01*
X23467Y28831D01*
X23477Y28835D01*
X23477Y28835D01*
X23478Y28836D01*
X23479Y28836D01*
X23480Y28836D01*
X23481Y28836D01*
X23481Y28837D01*
X23492Y28839D01*
X23492Y28839D01*
X23493Y28839D01*
X23494Y28839D01*
X23495Y28839D01*
X23496Y28839D01*
X23496Y28839D01*
X23507Y28839D01*
X23507Y28839D01*
D02*
G37*
G36*
X37287D02*
X37287Y28839D01*
X37288Y28839D01*
X37290Y28839D01*
X37290Y28839D01*
X37291Y28839D01*
X37301Y28837D01*
X37302Y28836D01*
X37302Y28836D01*
X37303Y28836D01*
X37305Y28836D01*
X37305Y28835D01*
X37305Y28835D01*
X37315Y28831D01*
X37316Y28831D01*
X37316Y28831D01*
X37317Y28830D01*
X37318Y28830D01*
X37319Y28829D01*
X37319Y28829D01*
X37328Y28823D01*
X37328Y28823D01*
X37329Y28823D01*
X37330Y28822D01*
X37331Y28821D01*
X37331Y28821D01*
X37331Y28820D01*
X37339Y28813D01*
X37339Y28812D01*
X37340Y28812D01*
X37340Y28811D01*
X37341Y28810D01*
X37342Y28810D01*
X37342Y28810D01*
X37348Y28800D01*
X37348Y28800D01*
X37348Y28800D01*
X37349Y28799D01*
X37350Y28798D01*
X37350Y28797D01*
X37350Y28797D01*
X37354Y28787D01*
X37354Y28786D01*
X37354Y28786D01*
X37355Y28785D01*
X37355Y28783D01*
X37355Y28783D01*
X37355Y28783D01*
X37357Y28772D01*
X37357Y28772D01*
X37358Y28771D01*
X37358Y28770D01*
X37358Y28769D01*
X37358Y28768D01*
X37358Y28768D01*
X37358Y28762D01*
X37358Y28624D01*
Y28624D01*
D01*
X37358Y28621D01*
X37357Y28618D01*
X37355Y28615D01*
X37354Y28612D01*
X37351Y28609D01*
X37349Y28607D01*
X37346Y28605D01*
X37343Y28604D01*
X37339Y28603D01*
X37336Y28603D01*
D01*
X37336D01*
X37226D01*
X37222Y28603D01*
X37219Y28604D01*
X37216Y28605D01*
X37213Y28607D01*
X37210Y28609D01*
X37208Y28612D01*
X37206Y28615D01*
X37205Y28618D01*
X37204Y28621D01*
X37204Y28624D01*
X37204Y28762D01*
X37204Y28762D01*
X37204Y28768D01*
X37204Y28768D01*
X37204Y28769D01*
X37204Y28770D01*
X37204Y28771D01*
X37204Y28772D01*
X37205Y28772D01*
X37207Y28783D01*
X37207Y28783D01*
X37207Y28783D01*
X37207Y28785D01*
X37208Y28786D01*
X37208Y28786D01*
X37208Y28787D01*
X37212Y28797D01*
X37212Y28797D01*
X37212Y28798D01*
X37213Y28799D01*
X37214Y28800D01*
X37214Y28800D01*
X37214Y28800D01*
X37220Y28810D01*
X37220Y28810D01*
X37221Y28810D01*
X37221Y28811D01*
X37222Y28812D01*
X37222Y28812D01*
X37223Y28813D01*
X37230Y28820D01*
X37231Y28821D01*
X37231Y28821D01*
X37232Y28822D01*
X37233Y28823D01*
X37233Y28823D01*
X37234Y28823D01*
X37243Y28829D01*
X37243Y28829D01*
X37243Y28830D01*
X37245Y28830D01*
X37246Y28831D01*
X37246Y28831D01*
X37247Y28831D01*
X37257Y28835D01*
X37257Y28835D01*
X37257Y28836D01*
X37259Y28836D01*
X37260Y28836D01*
X37260Y28836D01*
X37261Y28837D01*
X37271Y28839D01*
X37272Y28839D01*
X37272Y28839D01*
X37273Y28839D01*
X37275Y28839D01*
X37275Y28839D01*
X37276Y28839D01*
X37286Y28839D01*
X37287Y28839D01*
D02*
G37*
G36*
X37484D02*
X37484Y28839D01*
X37485Y28839D01*
X37487Y28839D01*
X37487Y28839D01*
X37487Y28839D01*
X37498Y28837D01*
X37499Y28836D01*
X37499Y28836D01*
X37500Y28836D01*
X37501Y28836D01*
X37502Y28835D01*
X37502Y28835D01*
X37512Y28831D01*
X37513Y28831D01*
X37513Y28831D01*
X37514Y28830D01*
X37515Y28830D01*
X37516Y28829D01*
X37516Y28829D01*
X37525Y28823D01*
X37525Y28823D01*
X37526Y28823D01*
X37527Y28822D01*
X37528Y28821D01*
X37528Y28821D01*
X37528Y28820D01*
X37536Y28813D01*
X37536Y28812D01*
X37537Y28812D01*
X37537Y28811D01*
X37538Y28810D01*
X37538Y28810D01*
X37539Y28810D01*
X37545Y28800D01*
X37545Y28800D01*
X37545Y28800D01*
X37546Y28799D01*
X37546Y28798D01*
X37547Y28797D01*
X37547Y28797D01*
X37551Y28787D01*
X37551Y28786D01*
X37551Y28786D01*
X37552Y28785D01*
X37552Y28783D01*
X37552Y28783D01*
X37552Y28783D01*
X37554Y28772D01*
X37554Y28772D01*
X37554Y28771D01*
X37554Y28770D01*
X37555Y28769D01*
X37555Y28768D01*
X37555Y28768D01*
X37555Y28762D01*
X37555Y28624D01*
Y28624D01*
D01*
X37554Y28621D01*
X37554Y28618D01*
X37552Y28615D01*
X37550Y28612D01*
X37548Y28609D01*
X37546Y28607D01*
X37543Y28605D01*
X37540Y28604D01*
X37536Y28603D01*
X37533Y28603D01*
X37533D01*
D01*
X37423D01*
X37419Y28603D01*
X37416Y28604D01*
X37413Y28605D01*
X37410Y28607D01*
X37407Y28609D01*
X37405Y28612D01*
X37403Y28615D01*
X37402Y28618D01*
X37401Y28621D01*
X37401Y28624D01*
X37401Y28762D01*
X37401Y28762D01*
X37401Y28768D01*
X37401Y28768D01*
X37401Y28769D01*
X37401Y28770D01*
X37401Y28771D01*
X37401Y28772D01*
X37401Y28772D01*
X37403Y28783D01*
X37404Y28783D01*
X37404Y28783D01*
X37404Y28785D01*
X37404Y28786D01*
X37405Y28786D01*
X37405Y28787D01*
X37409Y28797D01*
X37409Y28797D01*
X37409Y28798D01*
X37410Y28799D01*
X37410Y28800D01*
X37411Y28800D01*
X37411Y28800D01*
X37417Y28810D01*
X37417Y28810D01*
X37417Y28810D01*
X37418Y28811D01*
X37419Y28812D01*
X37419Y28812D01*
X37420Y28813D01*
X37427Y28820D01*
X37428Y28821D01*
X37428Y28821D01*
X37429Y28822D01*
X37430Y28823D01*
X37430Y28823D01*
X37431Y28823D01*
X37440Y28829D01*
X37440Y28829D01*
X37440Y28830D01*
X37441Y28830D01*
X37443Y28831D01*
X37443Y28831D01*
X37443Y28831D01*
X37453Y28835D01*
X37454Y28835D01*
X37454Y28836D01*
X37455Y28836D01*
X37457Y28836D01*
X37457Y28836D01*
X37457Y28837D01*
X37468Y28839D01*
X37469Y28839D01*
X37469Y28839D01*
X37470Y28839D01*
X37472Y28839D01*
X37472Y28839D01*
X37472Y28839D01*
X37483Y28839D01*
X37484Y28839D01*
D02*
G37*
G36*
X37680D02*
X37681Y28839D01*
X37682Y28839D01*
X37683Y28839D01*
X37684Y28839D01*
X37684Y28839D01*
X37695Y28837D01*
X37695Y28836D01*
X37696Y28836D01*
X37697Y28836D01*
X37698Y28836D01*
X37699Y28835D01*
X37699Y28835D01*
X37709Y28831D01*
X37709Y28831D01*
X37710Y28831D01*
X37711Y28830D01*
X37712Y28830D01*
X37712Y28829D01*
X37713Y28829D01*
X37722Y28823D01*
X37722Y28823D01*
X37723Y28823D01*
X37724Y28822D01*
X37725Y28821D01*
X37725Y28821D01*
X37725Y28820D01*
X37733Y28813D01*
X37733Y28812D01*
X37733Y28812D01*
X37734Y28811D01*
X37735Y28810D01*
X37735Y28810D01*
X37736Y28810D01*
X37742Y28800D01*
X37742Y28800D01*
X37742Y28800D01*
X37743Y28799D01*
X37743Y28798D01*
X37743Y28797D01*
X37744Y28797D01*
X37748Y28787D01*
X37748Y28786D01*
X37748Y28786D01*
X37748Y28785D01*
X37749Y28783D01*
X37749Y28783D01*
X37749Y28783D01*
X37751Y28772D01*
X37751Y28772D01*
X37751Y28771D01*
X37751Y28770D01*
X37751Y28769D01*
X37751Y28768D01*
X37751Y28768D01*
X37751Y28762D01*
X37751Y28624D01*
Y28624D01*
D01*
X37751Y28621D01*
X37750Y28618D01*
X37749Y28615D01*
X37747Y28612D01*
X37745Y28609D01*
X37743Y28607D01*
X37740Y28605D01*
X37736Y28604D01*
X37733Y28603D01*
X37730Y28603D01*
X37730D01*
D01*
X37620D01*
X37616Y28603D01*
X37613Y28604D01*
X37610Y28605D01*
X37607Y28607D01*
X37604Y28609D01*
X37602Y28612D01*
X37600Y28615D01*
X37599Y28618D01*
X37598Y28621D01*
X37598Y28624D01*
X37598Y28762D01*
X37598Y28762D01*
X37598Y28768D01*
X37598Y28768D01*
X37598Y28769D01*
X37598Y28770D01*
X37598Y28771D01*
X37598Y28772D01*
X37598Y28772D01*
X37600Y28783D01*
X37600Y28783D01*
X37601Y28783D01*
X37601Y28785D01*
X37601Y28786D01*
X37601Y28786D01*
X37602Y28787D01*
X37606Y28797D01*
X37606Y28797D01*
X37606Y28798D01*
X37607Y28799D01*
X37607Y28800D01*
X37608Y28800D01*
X37608Y28800D01*
X37614Y28810D01*
X37614Y28810D01*
X37614Y28810D01*
X37615Y28811D01*
X37616Y28812D01*
X37616Y28812D01*
X37616Y28813D01*
X37624Y28820D01*
X37624Y28821D01*
X37625Y28821D01*
X37626Y28822D01*
X37627Y28823D01*
X37627Y28823D01*
X37627Y28823D01*
X37636Y28829D01*
X37637Y28829D01*
X37637Y28830D01*
X37638Y28830D01*
X37639Y28831D01*
X37640Y28831D01*
X37640Y28831D01*
X37650Y28835D01*
X37651Y28835D01*
X37651Y28836D01*
X37652Y28836D01*
X37653Y28836D01*
X37654Y28836D01*
X37654Y28837D01*
X37665Y28839D01*
X37665Y28839D01*
X37666Y28839D01*
X37667Y28839D01*
X37668Y28839D01*
X37669Y28839D01*
X37669Y28839D01*
X37680Y28839D01*
X37680Y28839D01*
D02*
G37*
G36*
X37877D02*
X37878Y28839D01*
X37879Y28839D01*
X37880Y28839D01*
X37881Y28839D01*
X37881Y28839D01*
X37892Y28837D01*
X37892Y28836D01*
X37893Y28836D01*
X37894Y28836D01*
X37895Y28836D01*
X37895Y28835D01*
X37896Y28835D01*
X37906Y28831D01*
X37906Y28831D01*
X37907Y28831D01*
X37908Y28830D01*
X37909Y28830D01*
X37909Y28829D01*
X37910Y28829D01*
X37919Y28823D01*
X37919Y28823D01*
X37919Y28823D01*
X37920Y28822D01*
X37921Y28821D01*
X37922Y28821D01*
X37922Y28820D01*
X37930Y28813D01*
X37930Y28812D01*
X37930Y28812D01*
X37931Y28811D01*
X37932Y28810D01*
X37932Y28810D01*
X37932Y28810D01*
X37938Y28800D01*
X37939Y28800D01*
X37939Y28800D01*
X37939Y28799D01*
X37940Y28798D01*
X37940Y28797D01*
X37940Y28797D01*
X37945Y28787D01*
X37945Y28786D01*
X37945Y28786D01*
X37945Y28785D01*
X37946Y28783D01*
X37946Y28783D01*
X37946Y28783D01*
X37948Y28772D01*
X37948Y28772D01*
X37948Y28771D01*
X37948Y28770D01*
X37948Y28769D01*
X37948Y28768D01*
X37948Y28768D01*
X37948Y28762D01*
X37948Y28624D01*
Y28624D01*
D01*
X37948Y28621D01*
X37947Y28618D01*
X37946Y28615D01*
X37944Y28612D01*
X37942Y28609D01*
X37939Y28607D01*
X37936Y28605D01*
X37933Y28604D01*
X37930Y28603D01*
X37927Y28603D01*
D01*
X37927D01*
X37816D01*
X37813Y28603D01*
X37810Y28604D01*
X37807Y28605D01*
X37804Y28607D01*
X37801Y28609D01*
X37799Y28612D01*
X37797Y28615D01*
X37796Y28618D01*
X37795Y28621D01*
X37795Y28624D01*
X37795Y28762D01*
X37795Y28762D01*
X37795Y28768D01*
X37795Y28768D01*
X37795Y28769D01*
X37795Y28770D01*
X37795Y28771D01*
X37795Y28772D01*
X37795Y28772D01*
X37797Y28783D01*
X37797Y28783D01*
X37797Y28783D01*
X37798Y28785D01*
X37798Y28786D01*
X37798Y28786D01*
X37798Y28787D01*
X37803Y28797D01*
X37803Y28797D01*
X37803Y28798D01*
X37804Y28799D01*
X37804Y28800D01*
X37804Y28800D01*
X37805Y28800D01*
X37811Y28810D01*
X37811Y28810D01*
X37811Y28810D01*
X37812Y28811D01*
X37813Y28812D01*
X37813Y28812D01*
X37813Y28813D01*
X37821Y28820D01*
X37821Y28821D01*
X37822Y28821D01*
X37823Y28822D01*
X37824Y28823D01*
X37824Y28823D01*
X37824Y28823D01*
X37833Y28829D01*
X37834Y28829D01*
X37834Y28830D01*
X37835Y28830D01*
X37836Y28831D01*
X37837Y28831D01*
X37837Y28831D01*
X37847Y28835D01*
X37848Y28835D01*
X37848Y28836D01*
X37849Y28836D01*
X37850Y28836D01*
X37851Y28836D01*
X37851Y28837D01*
X37862Y28839D01*
X37862Y28839D01*
X37863Y28839D01*
X37864Y28839D01*
X37865Y28839D01*
X37866Y28839D01*
X37866Y28839D01*
X37877Y28839D01*
X37877Y28839D01*
D02*
G37*
G36*
X38190Y29016D02*
X38193Y29015D01*
X38196Y29014D01*
X38199Y29012D01*
X38202Y29010D01*
X38204Y29007D01*
X38206Y29004D01*
X38207Y29001D01*
X38208Y28998D01*
X38208Y28995D01*
Y28995D01*
D01*
Y28884D01*
X38208Y28881D01*
X38207Y28878D01*
X38206Y28874D01*
X38204Y28872D01*
X38202Y28869D01*
X38199Y28867D01*
X38196Y28865D01*
X38193Y28864D01*
X38190Y28863D01*
X38186Y28863D01*
X38049Y28863D01*
X38049Y28863D01*
X38043Y28863D01*
X38043Y28863D01*
X38042Y28863D01*
X38041Y28863D01*
X38040Y28863D01*
X38039Y28863D01*
X38039Y28863D01*
X38028Y28865D01*
X38028Y28865D01*
X38027Y28865D01*
X38026Y28866D01*
X38025Y28866D01*
X38025Y28866D01*
X38024Y28866D01*
X38014Y28871D01*
X38014Y28871D01*
X38013Y28871D01*
X38012Y28871D01*
X38011Y28872D01*
X38011Y28872D01*
X38010Y28873D01*
X38001Y28879D01*
X38001Y28879D01*
X38001Y28879D01*
X38000Y28880D01*
X37999Y28881D01*
X37998Y28881D01*
X37998Y28881D01*
X37990Y28889D01*
X37990Y28889D01*
X37990Y28890D01*
X37989Y28891D01*
X37988Y28892D01*
X37988Y28892D01*
X37988Y28892D01*
X37982Y28901D01*
X37982Y28902D01*
X37981Y28902D01*
X37981Y28903D01*
X37980Y28904D01*
X37980Y28905D01*
X37980Y28905D01*
X37976Y28915D01*
X37975Y28915D01*
X37975Y28916D01*
X37975Y28917D01*
X37975Y28918D01*
X37974Y28919D01*
X37974Y28919D01*
X37972Y28930D01*
X37972Y28930D01*
X37972Y28931D01*
X37972Y28932D01*
X37972Y28933D01*
X37972Y28934D01*
X37972Y28934D01*
X37972Y28945D01*
X37972Y28945D01*
X37972Y28946D01*
X37972Y28947D01*
X37972Y28948D01*
X37972Y28949D01*
X37972Y28949D01*
X37974Y28960D01*
X37974Y28960D01*
X37975Y28961D01*
X37975Y28962D01*
X37975Y28963D01*
X37975Y28963D01*
X37976Y28964D01*
X37980Y28974D01*
X37980Y28974D01*
X37980Y28975D01*
X37981Y28976D01*
X37981Y28977D01*
X37982Y28977D01*
X37982Y28978D01*
X37988Y28987D01*
X37988Y28987D01*
X37988Y28987D01*
X37989Y28988D01*
X37990Y28989D01*
X37990Y28990D01*
X37990Y28990D01*
X37998Y28998D01*
X37998Y28998D01*
X37999Y28998D01*
X38000Y28999D01*
X38001Y29000D01*
X38001Y29000D01*
X38001Y29000D01*
X38010Y29006D01*
X38011Y29007D01*
X38011Y29007D01*
X38012Y29007D01*
X38013Y29008D01*
X38014Y29008D01*
X38014Y29008D01*
X38024Y29013D01*
X38025Y29013D01*
X38025Y29013D01*
X38026Y29013D01*
X38027Y29014D01*
X38028Y29014D01*
X38028Y29014D01*
X38039Y29016D01*
X38039Y29016D01*
X38040Y29016D01*
X38041Y29016D01*
X38042Y29016D01*
X38043Y29016D01*
X38043Y29016D01*
X38049Y29016D01*
X38186Y29016D01*
D01*
X38186D01*
X38190Y29016D01*
D02*
G37*
G36*
Y29213D02*
X38193Y29212D01*
X38196Y29211D01*
X38199Y29209D01*
X38202Y29207D01*
X38204Y29204D01*
X38206Y29201D01*
X38207Y29198D01*
X38208Y29195D01*
X38208Y29191D01*
D01*
Y29191D01*
Y29081D01*
X38208Y29078D01*
X38207Y29074D01*
X38206Y29071D01*
X38204Y29068D01*
X38202Y29066D01*
X38199Y29064D01*
X38196Y29062D01*
X38193Y29061D01*
X38190Y29060D01*
X38186Y29059D01*
X38049Y29059D01*
X38049Y29059D01*
X38043Y29059D01*
X38043Y29059D01*
X38042Y29059D01*
X38041Y29060D01*
X38040Y29060D01*
X38039Y29060D01*
X38039Y29060D01*
X38028Y29062D01*
X38028Y29062D01*
X38027Y29062D01*
X38026Y29063D01*
X38025Y29063D01*
X38025Y29063D01*
X38024Y29063D01*
X38014Y29067D01*
X38014Y29068D01*
X38013Y29068D01*
X38012Y29068D01*
X38011Y29069D01*
X38011Y29069D01*
X38010Y29069D01*
X38001Y29075D01*
X38001Y29076D01*
X38001Y29076D01*
X38000Y29077D01*
X37999Y29078D01*
X37998Y29078D01*
X37998Y29078D01*
X37990Y29086D01*
X37990Y29086D01*
X37990Y29086D01*
X37989Y29087D01*
X37988Y29088D01*
X37988Y29089D01*
X37988Y29089D01*
X37982Y29098D01*
X37982Y29098D01*
X37981Y29099D01*
X37981Y29100D01*
X37980Y29101D01*
X37980Y29101D01*
X37980Y29102D01*
X37976Y29112D01*
X37975Y29112D01*
X37975Y29113D01*
X37975Y29114D01*
X37975Y29115D01*
X37974Y29116D01*
X37974Y29116D01*
X37972Y29127D01*
X37972Y29127D01*
X37972Y29127D01*
X37972Y29129D01*
X37972Y29130D01*
X37972Y29130D01*
X37972Y29131D01*
X37972Y29142D01*
X37972Y29142D01*
X37972Y29143D01*
X37972Y29144D01*
X37972Y29145D01*
X37972Y29146D01*
X37972Y29146D01*
X37974Y29157D01*
X37974Y29157D01*
X37975Y29157D01*
X37975Y29159D01*
X37975Y29160D01*
X37975Y29160D01*
X37976Y29161D01*
X37980Y29171D01*
X37980Y29171D01*
X37980Y29172D01*
X37981Y29173D01*
X37981Y29174D01*
X37982Y29174D01*
X37982Y29174D01*
X37988Y29183D01*
X37988Y29184D01*
X37988Y29184D01*
X37989Y29185D01*
X37990Y29186D01*
X37990Y29186D01*
X37990Y29187D01*
X37998Y29194D01*
X37998Y29195D01*
X37999Y29195D01*
X38000Y29196D01*
X38001Y29197D01*
X38001Y29197D01*
X38001Y29197D01*
X38010Y29203D01*
X38011Y29203D01*
X38011Y29204D01*
X38012Y29204D01*
X38013Y29205D01*
X38014Y29205D01*
X38014Y29205D01*
X38024Y29209D01*
X38025Y29209D01*
X38025Y29210D01*
X38026Y29210D01*
X38027Y29210D01*
X38028Y29210D01*
X38028Y29211D01*
X38039Y29213D01*
X38039Y29213D01*
X38040Y29213D01*
X38041Y29213D01*
X38042Y29213D01*
X38043Y29213D01*
X38043Y29213D01*
X38049Y29213D01*
X38186Y29213D01*
D01*
X38186D01*
X38190Y29213D01*
D02*
G37*
G36*
X37339Y29866D02*
X37343Y29866D01*
X37346Y29864D01*
X37349Y29863D01*
X37351Y29860D01*
X37354Y29858D01*
X37355Y29855D01*
X37357Y29852D01*
X37358Y29848D01*
X37358Y29845D01*
X37358Y29707D01*
X37358Y29707D01*
X37358Y29702D01*
X37358Y29701D01*
X37358Y29701D01*
X37358Y29700D01*
X37358Y29698D01*
X37357Y29698D01*
X37357Y29697D01*
X37355Y29687D01*
X37355Y29686D01*
X37355Y29686D01*
X37355Y29685D01*
X37354Y29684D01*
X37354Y29683D01*
X37354Y29683D01*
X37350Y29673D01*
X37350Y29672D01*
X37350Y29672D01*
X37349Y29671D01*
X37348Y29670D01*
X37348Y29669D01*
X37348Y29669D01*
X37342Y29660D01*
X37342Y29660D01*
X37341Y29659D01*
X37341Y29658D01*
X37340Y29657D01*
X37339Y29657D01*
X37339Y29657D01*
X37331Y29649D01*
X37331Y29649D01*
X37331Y29648D01*
X37330Y29648D01*
X37329Y29647D01*
X37328Y29647D01*
X37328Y29646D01*
X37319Y29640D01*
X37319Y29640D01*
X37318Y29640D01*
X37317Y29639D01*
X37316Y29639D01*
X37316Y29638D01*
X37315Y29638D01*
X37305Y29634D01*
X37305Y29634D01*
X37305Y29634D01*
X37303Y29633D01*
X37302Y29633D01*
X37302Y29633D01*
X37301Y29633D01*
X37291Y29631D01*
X37290Y29631D01*
X37290Y29631D01*
X37288Y29630D01*
X37287Y29630D01*
X37287Y29630D01*
X37286Y29630D01*
X37276Y29630D01*
X37275Y29630D01*
X37275Y29630D01*
X37273Y29630D01*
X37272Y29631D01*
X37272Y29631D01*
X37271Y29631D01*
X37261Y29633D01*
X37260Y29633D01*
X37260Y29633D01*
X37259Y29633D01*
X37257Y29634D01*
X37257Y29634D01*
X37257Y29634D01*
X37247Y29638D01*
X37246Y29638D01*
X37246Y29639D01*
X37245Y29639D01*
X37243Y29640D01*
X37243Y29640D01*
X37243Y29640D01*
X37234Y29646D01*
X37233Y29647D01*
X37233Y29647D01*
X37232Y29648D01*
X37231Y29648D01*
X37231Y29649D01*
X37230Y29649D01*
X37223Y29657D01*
X37222Y29657D01*
X37222Y29657D01*
X37221Y29658D01*
X37221Y29659D01*
X37220Y29660D01*
X37220Y29660D01*
X37214Y29669D01*
X37214Y29669D01*
X37214Y29670D01*
X37213Y29671D01*
X37212Y29672D01*
X37212Y29672D01*
X37212Y29673D01*
X37208Y29683D01*
X37208Y29683D01*
X37208Y29684D01*
X37207Y29685D01*
X37207Y29686D01*
X37207Y29686D01*
X37207Y29687D01*
X37205Y29697D01*
X37204Y29698D01*
X37204Y29698D01*
X37204Y29700D01*
X37204Y29701D01*
X37204Y29701D01*
X37204Y29702D01*
X37204Y29707D01*
X37204Y29845D01*
X37204Y29848D01*
X37205Y29852D01*
X37206Y29855D01*
X37208Y29858D01*
X37210Y29860D01*
X37213Y29863D01*
X37216Y29864D01*
X37219Y29866D01*
X37222Y29866D01*
X37226Y29867D01*
X37336D01*
X37339Y29866D01*
D02*
G37*
G36*
X37536D02*
X37540Y29866D01*
X37543Y29864D01*
X37546Y29863D01*
X37548Y29860D01*
X37550Y29858D01*
X37552Y29855D01*
X37554Y29852D01*
X37554Y29848D01*
X37555Y29845D01*
X37555Y29707D01*
X37555Y29707D01*
X37555Y29702D01*
X37555Y29701D01*
X37555Y29701D01*
X37554Y29700D01*
X37554Y29698D01*
X37554Y29698D01*
X37554Y29697D01*
X37552Y29687D01*
X37552Y29686D01*
X37552Y29686D01*
X37552Y29685D01*
X37551Y29684D01*
X37551Y29683D01*
X37551Y29683D01*
X37547Y29673D01*
X37547Y29672D01*
X37546Y29672D01*
X37546Y29671D01*
X37545Y29670D01*
X37545Y29669D01*
X37545Y29669D01*
X37539Y29660D01*
X37538Y29660D01*
X37538Y29659D01*
X37537Y29658D01*
X37537Y29657D01*
X37536Y29657D01*
X37536Y29657D01*
X37528Y29649D01*
X37528Y29649D01*
X37528Y29648D01*
X37527Y29648D01*
X37526Y29647D01*
X37525Y29647D01*
X37525Y29646D01*
X37516Y29640D01*
X37516Y29640D01*
X37515Y29640D01*
X37514Y29639D01*
X37513Y29639D01*
X37513Y29638D01*
X37512Y29638D01*
X37502Y29634D01*
X37502Y29634D01*
X37501Y29634D01*
X37500Y29633D01*
X37499Y29633D01*
X37499Y29633D01*
X37498Y29633D01*
X37487Y29631D01*
X37487Y29631D01*
X37487Y29631D01*
X37485Y29630D01*
X37484Y29630D01*
X37484Y29630D01*
X37483Y29630D01*
X37472Y29630D01*
X37472Y29630D01*
X37472Y29630D01*
X37470Y29630D01*
X37469Y29631D01*
X37469Y29631D01*
X37468Y29631D01*
X37457Y29633D01*
X37457Y29633D01*
X37457Y29633D01*
X37455Y29633D01*
X37454Y29634D01*
X37454Y29634D01*
X37453Y29634D01*
X37443Y29638D01*
X37443Y29638D01*
X37443Y29639D01*
X37441Y29639D01*
X37440Y29640D01*
X37440Y29640D01*
X37440Y29640D01*
X37431Y29646D01*
X37430Y29647D01*
X37430Y29647D01*
X37429Y29648D01*
X37428Y29648D01*
X37428Y29649D01*
X37427Y29649D01*
X37420Y29657D01*
X37419Y29657D01*
X37419Y29657D01*
X37418Y29658D01*
X37417Y29659D01*
X37417Y29660D01*
X37417Y29660D01*
X37411Y29669D01*
X37411Y29669D01*
X37410Y29670D01*
X37410Y29671D01*
X37409Y29672D01*
X37409Y29672D01*
X37409Y29673D01*
X37405Y29683D01*
X37405Y29683D01*
X37404Y29684D01*
X37404Y29685D01*
X37404Y29686D01*
X37404Y29686D01*
X37403Y29687D01*
X37401Y29697D01*
X37401Y29698D01*
X37401Y29698D01*
X37401Y29700D01*
X37401Y29701D01*
X37401Y29701D01*
X37401Y29702D01*
X37401Y29707D01*
X37401Y29845D01*
X37401Y29848D01*
X37402Y29852D01*
X37403Y29855D01*
X37405Y29858D01*
X37407Y29860D01*
X37410Y29863D01*
X37413Y29864D01*
X37416Y29866D01*
X37419Y29866D01*
X37423Y29867D01*
X37533D01*
X37536Y29866D01*
D02*
G37*
G36*
X37733D02*
X37736Y29866D01*
X37740Y29864D01*
X37743Y29863D01*
X37745Y29860D01*
X37747Y29858D01*
X37749Y29855D01*
X37750Y29852D01*
X37751Y29848D01*
X37751Y29845D01*
X37751Y29707D01*
X37751Y29707D01*
X37751Y29702D01*
X37751Y29701D01*
X37751Y29701D01*
X37751Y29700D01*
X37751Y29698D01*
X37751Y29698D01*
X37751Y29697D01*
X37749Y29687D01*
X37749Y29686D01*
X37749Y29686D01*
X37748Y29685D01*
X37748Y29684D01*
X37748Y29683D01*
X37748Y29683D01*
X37744Y29673D01*
X37743Y29672D01*
X37743Y29672D01*
X37743Y29671D01*
X37742Y29670D01*
X37742Y29669D01*
X37742Y29669D01*
X37736Y29660D01*
X37735Y29660D01*
X37735Y29659D01*
X37734Y29658D01*
X37733Y29657D01*
X37733Y29657D01*
X37733Y29657D01*
X37725Y29649D01*
X37725Y29649D01*
X37725Y29648D01*
X37724Y29648D01*
X37723Y29647D01*
X37722Y29647D01*
X37722Y29646D01*
X37713Y29640D01*
X37712Y29640D01*
X37712Y29640D01*
X37711Y29639D01*
X37710Y29639D01*
X37709Y29638D01*
X37709Y29638D01*
X37699Y29634D01*
X37699Y29634D01*
X37698Y29634D01*
X37697Y29633D01*
X37696Y29633D01*
X37695Y29633D01*
X37695Y29633D01*
X37684Y29631D01*
X37684Y29631D01*
X37683Y29631D01*
X37682Y29630D01*
X37681Y29630D01*
X37680Y29630D01*
X37680Y29630D01*
X37669Y29630D01*
X37669Y29630D01*
X37668Y29630D01*
X37667Y29630D01*
X37666Y29631D01*
X37665Y29631D01*
X37665Y29631D01*
X37654Y29633D01*
X37654Y29633D01*
X37654Y29633D01*
X37652Y29633D01*
X37651Y29634D01*
X37651Y29634D01*
X37650Y29634D01*
X37640Y29638D01*
X37640Y29638D01*
X37639Y29639D01*
X37638Y29639D01*
X37637Y29640D01*
X37637Y29640D01*
X37636Y29640D01*
X37627Y29646D01*
X37627Y29647D01*
X37627Y29647D01*
X37626Y29648D01*
X37625Y29648D01*
X37624Y29649D01*
X37624Y29649D01*
X37616Y29657D01*
X37616Y29657D01*
X37616Y29657D01*
X37615Y29658D01*
X37614Y29659D01*
X37614Y29660D01*
X37614Y29660D01*
X37608Y29669D01*
X37608Y29669D01*
X37607Y29670D01*
X37607Y29671D01*
X37606Y29672D01*
X37606Y29672D01*
X37606Y29673D01*
X37602Y29683D01*
X37601Y29683D01*
X37601Y29684D01*
X37601Y29685D01*
X37601Y29686D01*
X37600Y29686D01*
X37600Y29687D01*
X37598Y29697D01*
X37598Y29698D01*
X37598Y29698D01*
X37598Y29700D01*
X37598Y29701D01*
X37598Y29701D01*
X37598Y29702D01*
X37598Y29707D01*
X37598Y29845D01*
X37598Y29848D01*
X37599Y29852D01*
X37600Y29855D01*
X37602Y29858D01*
X37604Y29860D01*
X37607Y29863D01*
X37610Y29864D01*
X37613Y29866D01*
X37616Y29866D01*
X37620Y29867D01*
X37730D01*
X37733Y29866D01*
D02*
G37*
G36*
X38190Y29410D02*
X38193Y29409D01*
X38196Y29408D01*
X38199Y29406D01*
X38202Y29404D01*
X38204Y29401D01*
X38206Y29398D01*
X38207Y29395D01*
X38208Y29392D01*
X38208Y29388D01*
D01*
Y29388D01*
Y29278D01*
X38208Y29275D01*
X38207Y29271D01*
X38206Y29268D01*
X38204Y29265D01*
X38202Y29263D01*
X38199Y29260D01*
X38196Y29259D01*
X38193Y29257D01*
X38190Y29257D01*
X38186Y29256D01*
X38049Y29256D01*
X38049Y29256D01*
X38043Y29256D01*
X38043Y29256D01*
X38042Y29256D01*
X38041Y29256D01*
X38040Y29257D01*
X38039Y29257D01*
X38039Y29257D01*
X38028Y29259D01*
X38028Y29259D01*
X38027Y29259D01*
X38026Y29259D01*
X38025Y29260D01*
X38025Y29260D01*
X38024Y29260D01*
X38014Y29264D01*
X38014Y29264D01*
X38013Y29265D01*
X38012Y29265D01*
X38011Y29266D01*
X38011Y29266D01*
X38010Y29266D01*
X38001Y29272D01*
X38001Y29273D01*
X38001Y29273D01*
X38000Y29274D01*
X37999Y29274D01*
X37998Y29275D01*
X37998Y29275D01*
X37990Y29283D01*
X37990Y29283D01*
X37990Y29283D01*
X37989Y29284D01*
X37988Y29285D01*
X37988Y29286D01*
X37988Y29286D01*
X37982Y29295D01*
X37982Y29295D01*
X37981Y29296D01*
X37981Y29297D01*
X37980Y29298D01*
X37980Y29298D01*
X37980Y29299D01*
X37976Y29309D01*
X37975Y29309D01*
X37975Y29310D01*
X37975Y29311D01*
X37975Y29312D01*
X37974Y29312D01*
X37974Y29313D01*
X37972Y29323D01*
X37972Y29324D01*
X37972Y29324D01*
X37972Y29326D01*
X37972Y29327D01*
X37972Y29327D01*
X37972Y29328D01*
X37972Y29339D01*
X37972Y29339D01*
X37972Y29339D01*
X37972Y29341D01*
X37972Y29342D01*
X37972Y29342D01*
X37972Y29343D01*
X37974Y29353D01*
X37974Y29354D01*
X37975Y29354D01*
X37975Y29356D01*
X37975Y29357D01*
X37975Y29357D01*
X37976Y29358D01*
X37980Y29368D01*
X37980Y29368D01*
X37980Y29368D01*
X37981Y29369D01*
X37981Y29371D01*
X37982Y29371D01*
X37982Y29371D01*
X37988Y29380D01*
X37988Y29381D01*
X37988Y29381D01*
X37989Y29382D01*
X37990Y29383D01*
X37990Y29383D01*
X37990Y29384D01*
X37998Y29391D01*
X37998Y29392D01*
X37999Y29392D01*
X38000Y29393D01*
X38001Y29394D01*
X38001Y29394D01*
X38001Y29394D01*
X38010Y29400D01*
X38011Y29400D01*
X38011Y29401D01*
X38012Y29401D01*
X38013Y29402D01*
X38014Y29402D01*
X38014Y29402D01*
X38024Y29406D01*
X38025Y29406D01*
X38025Y29407D01*
X38026Y29407D01*
X38027Y29407D01*
X38028Y29407D01*
X38028Y29407D01*
X38039Y29410D01*
X38039Y29410D01*
X38040Y29410D01*
X38041Y29410D01*
X38042Y29410D01*
X38043Y29410D01*
X38043Y29410D01*
X38049Y29410D01*
X38186Y29410D01*
D01*
X38186D01*
X38190Y29410D01*
D02*
G37*
G36*
Y29607D02*
X38193Y29606D01*
X38196Y29604D01*
X38199Y29603D01*
X38202Y29600D01*
X38204Y29598D01*
X38206Y29595D01*
X38207Y29592D01*
X38208Y29589D01*
X38208Y29585D01*
Y29585D01*
D01*
Y29475D01*
X38208Y29471D01*
X38207Y29468D01*
X38206Y29465D01*
X38204Y29462D01*
X38202Y29460D01*
X38199Y29457D01*
X38196Y29456D01*
X38193Y29454D01*
X38190Y29453D01*
X38186Y29453D01*
X38049Y29453D01*
X38049Y29453D01*
X38043Y29453D01*
X38043Y29453D01*
X38042Y29453D01*
X38041Y29453D01*
X38040Y29453D01*
X38039Y29454D01*
X38039Y29454D01*
X38028Y29456D01*
X38028Y29456D01*
X38027Y29456D01*
X38026Y29456D01*
X38025Y29457D01*
X38025Y29457D01*
X38024Y29457D01*
X38014Y29461D01*
X38014Y29461D01*
X38013Y29461D01*
X38012Y29462D01*
X38011Y29463D01*
X38011Y29463D01*
X38010Y29463D01*
X38001Y29469D01*
X38001Y29469D01*
X38001Y29470D01*
X38000Y29470D01*
X37999Y29471D01*
X37998Y29472D01*
X37998Y29472D01*
X37990Y29479D01*
X37990Y29480D01*
X37990Y29480D01*
X37989Y29481D01*
X37988Y29482D01*
X37988Y29482D01*
X37988Y29483D01*
X37982Y29492D01*
X37982Y29492D01*
X37981Y29493D01*
X37981Y29494D01*
X37980Y29495D01*
X37980Y29495D01*
X37980Y29496D01*
X37976Y29506D01*
X37975Y29506D01*
X37975Y29506D01*
X37975Y29508D01*
X37975Y29509D01*
X37974Y29509D01*
X37974Y29510D01*
X37972Y29520D01*
X37972Y29521D01*
X37972Y29521D01*
X37972Y29522D01*
X37972Y29524D01*
X37972Y29524D01*
X37972Y29525D01*
X37972Y29535D01*
X37972Y29536D01*
X37972Y29536D01*
X37972Y29538D01*
X37972Y29539D01*
X37972Y29539D01*
X37972Y29540D01*
X37974Y29550D01*
X37974Y29551D01*
X37975Y29551D01*
X37975Y29552D01*
X37975Y29554D01*
X37975Y29554D01*
X37976Y29554D01*
X37980Y29564D01*
X37980Y29565D01*
X37980Y29565D01*
X37981Y29566D01*
X37981Y29567D01*
X37982Y29568D01*
X37982Y29568D01*
X37988Y29577D01*
X37988Y29578D01*
X37988Y29578D01*
X37989Y29579D01*
X37990Y29580D01*
X37990Y29580D01*
X37990Y29580D01*
X37998Y29588D01*
X37998Y29588D01*
X37999Y29589D01*
X38000Y29590D01*
X38001Y29590D01*
X38001Y29591D01*
X38001Y29591D01*
X38010Y29597D01*
X38011Y29597D01*
X38011Y29597D01*
X38012Y29598D01*
X38013Y29599D01*
X38014Y29599D01*
X38014Y29599D01*
X38024Y29603D01*
X38025Y29603D01*
X38025Y29603D01*
X38026Y29604D01*
X38027Y29604D01*
X38028Y29604D01*
X38028Y29604D01*
X38039Y29606D01*
X38039Y29606D01*
X38040Y29607D01*
X38041Y29607D01*
X38042Y29607D01*
X38043Y29607D01*
X38043Y29607D01*
X38049Y29607D01*
X38186Y29607D01*
D01*
X38186D01*
X38190Y29607D01*
D02*
G37*
G36*
X37930Y29866D02*
X37933Y29866D01*
X37936Y29864D01*
X37939Y29863D01*
X37942Y29860D01*
X37944Y29858D01*
X37946Y29855D01*
X37947Y29852D01*
X37948Y29848D01*
X37948Y29845D01*
X37948Y29707D01*
X37948Y29707D01*
X37948Y29702D01*
X37948Y29701D01*
X37948Y29701D01*
X37948Y29700D01*
X37948Y29698D01*
X37948Y29698D01*
X37948Y29697D01*
X37946Y29687D01*
X37946Y29686D01*
X37946Y29686D01*
X37945Y29685D01*
X37945Y29684D01*
X37945Y29683D01*
X37945Y29683D01*
X37940Y29673D01*
X37940Y29672D01*
X37940Y29672D01*
X37939Y29671D01*
X37939Y29670D01*
X37939Y29669D01*
X37938Y29669D01*
X37932Y29660D01*
X37932Y29660D01*
X37932Y29659D01*
X37931Y29658D01*
X37930Y29657D01*
X37930Y29657D01*
X37930Y29657D01*
X37922Y29649D01*
X37922Y29649D01*
X37921Y29648D01*
X37920Y29648D01*
X37919Y29647D01*
X37919Y29647D01*
X37919Y29646D01*
X37910Y29640D01*
X37909Y29640D01*
X37909Y29640D01*
X37908Y29639D01*
X37907Y29639D01*
X37906Y29638D01*
X37906Y29638D01*
X37896Y29634D01*
X37895Y29634D01*
X37895Y29634D01*
X37894Y29633D01*
X37893Y29633D01*
X37892Y29633D01*
X37892Y29633D01*
X37881Y29631D01*
X37881Y29631D01*
X37880Y29631D01*
X37879Y29630D01*
X37878Y29630D01*
X37877Y29630D01*
X37877Y29630D01*
X37866Y29630D01*
X37866Y29630D01*
X37865Y29630D01*
X37864Y29630D01*
X37863Y29631D01*
X37862Y29631D01*
X37862Y29631D01*
X37851Y29633D01*
X37851Y29633D01*
X37850Y29633D01*
X37849Y29633D01*
X37848Y29634D01*
X37848Y29634D01*
X37847Y29634D01*
X37837Y29638D01*
X37837Y29638D01*
X37836Y29639D01*
X37835Y29639D01*
X37834Y29640D01*
X37834Y29640D01*
X37833Y29640D01*
X37824Y29646D01*
X37824Y29647D01*
X37824Y29647D01*
X37823Y29648D01*
X37822Y29648D01*
X37821Y29649D01*
X37821Y29649D01*
X37813Y29657D01*
X37813Y29657D01*
X37813Y29657D01*
X37812Y29658D01*
X37811Y29659D01*
X37811Y29660D01*
X37811Y29660D01*
X37805Y29669D01*
X37804Y29669D01*
X37804Y29670D01*
X37804Y29671D01*
X37803Y29672D01*
X37803Y29672D01*
X37803Y29673D01*
X37798Y29683D01*
X37798Y29683D01*
X37798Y29684D01*
X37798Y29685D01*
X37797Y29686D01*
X37797Y29686D01*
X37797Y29687D01*
X37795Y29697D01*
X37795Y29698D01*
X37795Y29698D01*
X37795Y29700D01*
X37795Y29701D01*
X37795Y29701D01*
X37795Y29702D01*
X37795Y29707D01*
X37795Y29845D01*
X37795Y29848D01*
X37796Y29852D01*
X37797Y29855D01*
X37799Y29858D01*
X37801Y29860D01*
X37804Y29863D01*
X37807Y29864D01*
X37810Y29866D01*
X37813Y29866D01*
X37816Y29867D01*
X37927D01*
X37930Y29866D01*
D02*
G37*
D109*
X28425Y30226D02*
D03*
X28169D02*
D03*
X27913D02*
D03*
Y29281D02*
D03*
X28169D02*
D03*
X28425D02*
D03*
X14252Y30230D02*
D03*
X13996D02*
D03*
X13740D02*
D03*
Y29285D02*
D03*
X13996D02*
D03*
X14252D02*
D03*
X10324Y14688D02*
D03*
X10580D02*
D03*
X10836D02*
D03*
Y15633D02*
D03*
X10580D02*
D03*
X10324D02*
D03*
X38177Y14527D02*
D03*
X38433D02*
D03*
X38689D02*
D03*
Y15472D02*
D03*
X38433D02*
D03*
X38177D02*
D03*
X28061Y23298D02*
D03*
X28317D02*
D03*
X28573D02*
D03*
Y24243D02*
D03*
X28317D02*
D03*
X28061D02*
D03*
X42298Y26273D02*
D03*
X42042D02*
D03*
X41787D02*
D03*
Y25328D02*
D03*
X42042D02*
D03*
X42298D02*
D03*
D110*
X33367Y23660D02*
D03*
Y24660D02*
D03*
X29863Y23660D02*
D03*
Y24660D02*
D03*
X11195Y18363D02*
D03*
Y17363D02*
D03*
X14699Y18363D02*
D03*
Y17363D02*
D03*
D111*
X29100Y23445D02*
D03*
Y23095D02*
D03*
X27383Y29327D02*
D03*
Y29677D02*
D03*
X13210Y29331D02*
D03*
Y29681D02*
D03*
X32216Y29035D02*
D03*
Y28685D02*
D03*
X34116Y29035D02*
D03*
Y28685D02*
D03*
X18043Y29035D02*
D03*
Y28685D02*
D03*
X19947Y29030D02*
D03*
Y28680D02*
D03*
X3870Y29035D02*
D03*
Y28685D02*
D03*
X5770Y29035D02*
D03*
Y28685D02*
D03*
X27302Y23951D02*
D03*
Y24301D02*
D03*
X23007Y23194D02*
D03*
Y23544D02*
D03*
X23268Y20312D02*
D03*
Y20662D02*
D03*
X23693Y20663D02*
D03*
Y20313D02*
D03*
X24117Y20312D02*
D03*
Y20662D02*
D03*
X23268Y19543D02*
D03*
Y19893D02*
D03*
X14672Y11863D02*
D03*
Y11513D02*
D03*
X19249Y12150D02*
D03*
Y11800D02*
D03*
X18834Y12143D02*
D03*
Y11793D02*
D03*
X25803Y9778D02*
D03*
Y9428D02*
D03*
X25400Y9775D02*
D03*
Y9425D02*
D03*
X27995Y19526D02*
D03*
Y19876D02*
D03*
X28582Y19526D02*
D03*
Y19876D02*
D03*
X29005Y19526D02*
D03*
Y19876D02*
D03*
X33761Y12137D02*
D03*
Y12487D02*
D03*
Y13324D02*
D03*
Y13674D02*
D03*
X33356Y14611D02*
D03*
Y14261D02*
D03*
X36929Y18167D02*
D03*
Y18517D02*
D03*
X39292Y21664D02*
D03*
Y21314D02*
D03*
X36275Y21664D02*
D03*
Y21314D02*
D03*
X39723Y21664D02*
D03*
Y21314D02*
D03*
X36706Y21664D02*
D03*
Y21314D02*
D03*
X38861Y21664D02*
D03*
Y21314D02*
D03*
X35844Y21664D02*
D03*
Y21314D02*
D03*
X38430Y21664D02*
D03*
Y21314D02*
D03*
X35413Y21664D02*
D03*
Y21314D02*
D03*
X37137Y21664D02*
D03*
Y21314D02*
D03*
X34120Y21664D02*
D03*
Y21314D02*
D03*
X37568Y21664D02*
D03*
Y21314D02*
D03*
X34551Y21664D02*
D03*
Y21314D02*
D03*
X37999Y21664D02*
D03*
Y21314D02*
D03*
X34982Y21664D02*
D03*
Y21314D02*
D03*
X8200Y14225D02*
D03*
Y14575D02*
D03*
X28289Y9479D02*
D03*
Y9829D02*
D03*
X36957Y17163D02*
D03*
Y16813D02*
D03*
X11365Y14484D02*
D03*
Y14834D02*
D03*
X38226Y33613D02*
D03*
Y33963D02*
D03*
X24053Y33613D02*
D03*
Y33963D02*
D03*
X9880Y33613D02*
D03*
Y33963D02*
D03*
X39796Y33955D02*
D03*
Y33605D02*
D03*
X25623Y33955D02*
D03*
Y33605D02*
D03*
X11450Y33955D02*
D03*
Y33605D02*
D03*
X33643Y17163D02*
D03*
Y16813D02*
D03*
X38226Y33200D02*
D03*
Y32850D02*
D03*
X24053Y33200D02*
D03*
Y32850D02*
D03*
X9880Y33200D02*
D03*
Y32850D02*
D03*
X39197Y14763D02*
D03*
Y14413D02*
D03*
X42167Y31657D02*
D03*
Y31307D02*
D03*
X27994Y31657D02*
D03*
Y31307D02*
D03*
X13821Y31657D02*
D03*
Y31307D02*
D03*
X31140Y33613D02*
D03*
Y33963D02*
D03*
X16966Y33613D02*
D03*
Y33963D02*
D03*
X2793Y33613D02*
D03*
Y33963D02*
D03*
X32709Y33955D02*
D03*
Y33605D02*
D03*
X18536Y33955D02*
D03*
Y33605D02*
D03*
X4363Y33955D02*
D03*
Y33605D02*
D03*
X31140Y33200D02*
D03*
Y32850D02*
D03*
X16966Y33200D02*
D03*
Y32850D02*
D03*
X2793Y33200D02*
D03*
Y32850D02*
D03*
X9863Y12708D02*
D03*
Y13058D02*
D03*
X8618Y12289D02*
D03*
Y11939D02*
D03*
X22597Y23194D02*
D03*
Y23544D02*
D03*
X22187Y23194D02*
D03*
Y23544D02*
D03*
X21778Y23545D02*
D03*
Y23195D02*
D03*
X21368Y23194D02*
D03*
Y23544D02*
D03*
X27302Y23200D02*
D03*
Y23550D02*
D03*
X26894Y23200D02*
D03*
Y23550D02*
D03*
X25658Y23551D02*
D03*
Y23201D02*
D03*
X26486Y23551D02*
D03*
Y23201D02*
D03*
X25250Y23200D02*
D03*
Y23550D02*
D03*
X26078Y23200D02*
D03*
Y23550D02*
D03*
X33755Y14263D02*
D03*
Y14613D02*
D03*
X33361Y12488D02*
D03*
Y12138D02*
D03*
X5057Y23274D02*
D03*
Y23624D02*
D03*
X2518Y24508D02*
D03*
Y24858D02*
D03*
X7539Y20303D02*
D03*
Y20653D02*
D03*
X38369Y13006D02*
D03*
Y12656D02*
D03*
X33361Y13675D02*
D03*
Y13325D02*
D03*
X16770Y14070D02*
D03*
Y13720D02*
D03*
X35959Y9876D02*
D03*
Y10226D02*
D03*
X32961Y12491D02*
D03*
Y12141D02*
D03*
Y13675D02*
D03*
Y13325D02*
D03*
X35011Y10221D02*
D03*
Y9871D02*
D03*
X35485Y10221D02*
D03*
Y9871D02*
D03*
X34064Y10225D02*
D03*
Y9875D02*
D03*
X34538Y10221D02*
D03*
Y9871D02*
D03*
X2571Y18726D02*
D03*
Y19076D02*
D03*
X12707Y13212D02*
D03*
Y13562D02*
D03*
X13822Y11516D02*
D03*
Y11866D02*
D03*
X19768Y6366D02*
D03*
Y6716D02*
D03*
X13823Y10654D02*
D03*
Y11004D02*
D03*
X2573Y21830D02*
D03*
Y22180D02*
D03*
X14249Y11005D02*
D03*
Y10655D02*
D03*
X12289Y13212D02*
D03*
Y13562D02*
D03*
X14248Y11866D02*
D03*
Y11516D02*
D03*
X33715Y30323D02*
D03*
Y30673D02*
D03*
X19541Y30323D02*
D03*
Y30673D02*
D03*
X5368Y30323D02*
D03*
Y30673D02*
D03*
X11366Y15587D02*
D03*
Y15237D02*
D03*
X39688Y30991D02*
D03*
Y31341D02*
D03*
X25514Y30991D02*
D03*
Y31341D02*
D03*
X11341Y30991D02*
D03*
Y31341D02*
D03*
X20406Y23931D02*
D03*
Y24281D02*
D03*
X39197Y15529D02*
D03*
Y15179D02*
D03*
X42085Y37215D02*
D03*
Y36865D02*
D03*
X27912Y37215D02*
D03*
Y36865D02*
D03*
X13738Y37215D02*
D03*
Y36865D02*
D03*
X42508Y36866D02*
D03*
Y37216D02*
D03*
X28334Y36866D02*
D03*
Y37216D02*
D03*
X14161Y36866D02*
D03*
Y37216D02*
D03*
X37753Y35625D02*
D03*
Y35975D02*
D03*
X23580Y35625D02*
D03*
Y35975D02*
D03*
X9407Y35625D02*
D03*
Y35975D02*
D03*
X35318Y32436D02*
D03*
Y32085D02*
D03*
X21144Y32436D02*
D03*
Y32085D02*
D03*
X6971Y32436D02*
D03*
Y32085D02*
D03*
X35585Y30323D02*
D03*
Y30673D02*
D03*
X21411Y30323D02*
D03*
Y30673D02*
D03*
X7238Y30323D02*
D03*
Y30673D02*
D03*
X30666Y35625D02*
D03*
Y35975D02*
D03*
X16493Y35625D02*
D03*
Y35975D02*
D03*
X2320Y35625D02*
D03*
Y35975D02*
D03*
X40297Y34092D02*
D03*
Y34442D02*
D03*
X26124Y34092D02*
D03*
Y34442D02*
D03*
X11951Y34092D02*
D03*
Y34442D02*
D03*
X34998Y37215D02*
D03*
Y36865D02*
D03*
X20825Y37215D02*
D03*
Y36865D02*
D03*
X6652Y37215D02*
D03*
Y36865D02*
D03*
X35421Y36866D02*
D03*
Y37216D02*
D03*
X21248Y36866D02*
D03*
Y37216D02*
D03*
X7074Y36866D02*
D03*
Y37216D02*
D03*
X22318Y26628D02*
D03*
Y26278D02*
D03*
X21039Y26628D02*
D03*
Y26278D02*
D03*
X27027Y26609D02*
D03*
Y26259D02*
D03*
X26617Y26249D02*
D03*
Y26599D02*
D03*
X25133Y26609D02*
D03*
Y26259D02*
D03*
X8194Y12289D02*
D03*
Y11939D02*
D03*
X29103Y24197D02*
D03*
Y23847D02*
D03*
X23242Y22525D02*
D03*
Y22175D02*
D03*
X25545Y26249D02*
D03*
Y26599D02*
D03*
X24871Y24281D02*
D03*
Y23931D02*
D03*
X24452D02*
D03*
Y24281D02*
D03*
X24035Y23931D02*
D03*
Y24281D02*
D03*
X6301Y23658D02*
D03*
Y23308D02*
D03*
X23939Y6547D02*
D03*
Y6897D02*
D03*
X6310Y21843D02*
D03*
Y21493D02*
D03*
X6347Y24862D02*
D03*
Y24512D02*
D03*
X8620Y14605D02*
D03*
Y14955D02*
D03*
Y14195D02*
D03*
Y13845D02*
D03*
X8201Y10738D02*
D03*
Y11088D02*
D03*
X12040Y24845D02*
D03*
Y25195D02*
D03*
X36220Y12675D02*
D03*
Y12325D02*
D03*
X12050Y22645D02*
D03*
Y22995D02*
D03*
X36220Y10975D02*
D03*
Y10625D02*
D03*
X16273Y12152D02*
D03*
Y11802D02*
D03*
X16018Y14080D02*
D03*
Y13730D02*
D03*
X13270Y12186D02*
D03*
Y12536D02*
D03*
X13125Y13212D02*
D03*
Y13562D02*
D03*
X35983Y8854D02*
D03*
Y9204D02*
D03*
X34286Y8827D02*
D03*
Y9177D02*
D03*
X22430Y19893D02*
D03*
Y19543D02*
D03*
X41256Y25374D02*
D03*
Y25724D02*
D03*
X20070Y10943D02*
D03*
Y11293D02*
D03*
X30193Y18398D02*
D03*
Y18048D02*
D03*
X20586Y10880D02*
D03*
Y10530D02*
D03*
X20057Y14115D02*
D03*
Y14464D02*
D03*
X20080Y16070D02*
D03*
Y16420D02*
D03*
X29796Y18042D02*
D03*
Y18392D02*
D03*
X29614Y15016D02*
D03*
Y14666D02*
D03*
X29634Y12267D02*
D03*
Y11917D02*
D03*
X25963Y8411D02*
D03*
Y8061D02*
D03*
X26418Y9428D02*
D03*
Y9778D02*
D03*
D112*
X15328Y29476D02*
D03*
X14954Y30264D02*
D03*
X15702D02*
D03*
X40969Y30351D02*
D03*
X40221D02*
D03*
X40595Y29563D02*
D03*
X26796Y30351D02*
D03*
X26048D02*
D03*
X26422Y29563D02*
D03*
X12623Y30351D02*
D03*
X11875D02*
D03*
X12249Y29563D02*
D03*
X29875Y30264D02*
D03*
X29127D02*
D03*
X29501Y29476D02*
D03*
X1529Y30264D02*
D03*
X781D02*
D03*
X1155Y29476D02*
D03*
X6498Y4276D02*
D03*
X7246D02*
D03*
X6872Y5063D02*
D03*
D113*
X27854Y30798D02*
D03*
X28444D02*
D03*
X13699Y30773D02*
D03*
X14289D02*
D03*
X29959Y32415D02*
D03*
X29369D02*
D03*
X15786D02*
D03*
X15196D02*
D03*
X1613D02*
D03*
X1023D02*
D03*
X10779Y14016D02*
D03*
X10189D02*
D03*
X38669Y13869D02*
D03*
X38079D02*
D03*
X24630Y20020D02*
D03*
X25220D02*
D03*
X28477Y22635D02*
D03*
X27887D02*
D03*
X41868Y26922D02*
D03*
X42458D02*
D03*
X37046Y32415D02*
D03*
X36456D02*
D03*
X22873D02*
D03*
X22283D02*
D03*
X8700D02*
D03*
X8110D02*
D03*
X1326Y25895D02*
D03*
X1916D02*
D03*
X8425Y26870D02*
D03*
X9015D02*
D03*
X12735Y10931D02*
D03*
X13325D02*
D03*
X9925Y20150D02*
D03*
X9335D02*
D03*
X8632Y20071D02*
D03*
X8042D02*
D03*
X1383Y20163D02*
D03*
X1973D02*
D03*
X13913Y15306D02*
D03*
X14503D02*
D03*
X19198Y6320D02*
D03*
X18608D02*
D03*
X21882Y9033D02*
D03*
X22472D02*
D03*
X21188Y20455D02*
D03*
X21778D02*
D03*
X24624Y9272D02*
D03*
X24034D02*
D03*
X29370Y9547D02*
D03*
X28780D02*
D03*
X1362Y23177D02*
D03*
X1952D02*
D03*
D114*
X5223Y12887D02*
D03*
X4501D02*
D03*
X5223Y14332D02*
D03*
X4501D02*
D03*
X3778D02*
D03*
X4501Y13610D02*
D03*
X3778Y12887D02*
D03*
Y13610D02*
D03*
X5223D02*
D03*
D115*
X7453Y10657D02*
D03*
D116*
Y11157D02*
D03*
Y11657D02*
D03*
Y12157D02*
D03*
Y12657D02*
D03*
Y13157D02*
D03*
Y13657D02*
D03*
Y14157D02*
D03*
Y14657D02*
D03*
Y15157D02*
D03*
Y15657D02*
D03*
Y16157D02*
D03*
Y16657D02*
D03*
Y17157D02*
D03*
X761D02*
D03*
Y16657D02*
D03*
Y16157D02*
D03*
Y15657D02*
D03*
Y15157D02*
D03*
Y14657D02*
D03*
Y14157D02*
D03*
Y13657D02*
D03*
Y13157D02*
D03*
Y12657D02*
D03*
Y12157D02*
D03*
Y11657D02*
D03*
Y11157D02*
D03*
Y10657D02*
D03*
D117*
X3357Y17551D02*
D03*
X1857D02*
D03*
X2857D02*
D03*
X4357D02*
D03*
X5857D02*
D03*
X5357D02*
D03*
X2357D02*
D03*
X3857D02*
D03*
X4857D02*
D03*
X6357D02*
D03*
D118*
X33540Y28982D02*
D03*
X32792D02*
D03*
X33540Y28038D02*
D03*
X33166D02*
D03*
X32792D02*
D03*
X35450Y28982D02*
D03*
X34702D02*
D03*
X35450Y28038D02*
D03*
X35076D02*
D03*
X34702D02*
D03*
X19367Y28982D02*
D03*
X18619D02*
D03*
X19367Y28038D02*
D03*
X18993D02*
D03*
X18619D02*
D03*
X21277Y28982D02*
D03*
X20529D02*
D03*
X21277Y28038D02*
D03*
X20903D02*
D03*
X20529D02*
D03*
X5194Y28982D02*
D03*
X4446D02*
D03*
X5194Y28038D02*
D03*
X4820D02*
D03*
X4446D02*
D03*
X7104Y28982D02*
D03*
X6356D02*
D03*
X7104Y28038D02*
D03*
X6730D02*
D03*
X6356D02*
D03*
D119*
X5649Y20276D02*
D03*
X6039Y19886D02*
D03*
X6122Y20749D02*
D03*
X6512Y20359D02*
D03*
D120*
X23732Y22805D02*
D03*
X24145D02*
D03*
Y22175D02*
D03*
X23732D02*
D03*
D121*
X27190Y7937D02*
D03*
Y8843D02*
D03*
X26442D02*
D03*
Y7937D02*
D03*
X17579Y11644D02*
D03*
Y12550D02*
D03*
X16831D02*
D03*
Y11644D02*
D03*
D122*
X9330Y13898D02*
D03*
Y14902D02*
D03*
D123*
X37265Y13015D02*
D03*
Y12405D02*
D03*
X37915D02*
D03*
Y13015D02*
D03*
D124*
X35679Y19246D02*
D03*
D125*
X35187Y18498D02*
D03*
X36171D02*
D03*
X35383D02*
D03*
X35580D02*
D03*
X35974D02*
D03*
X35777D02*
D03*
Y19994D02*
D03*
X35974D02*
D03*
X35580D02*
D03*
X35383D02*
D03*
X36171D02*
D03*
X35187D02*
D03*
D126*
X36427Y19148D02*
D03*
Y18951D02*
D03*
Y19345D02*
D03*
Y19542D02*
D03*
Y18754D02*
D03*
Y19738D02*
D03*
X34931D02*
D03*
Y18754D02*
D03*
Y19542D02*
D03*
Y19345D02*
D03*
Y18951D02*
D03*
Y19148D02*
D03*
D127*
X12883Y21095D02*
D03*
Y20839D02*
D03*
Y20583D02*
D03*
X13828D02*
D03*
Y20839D02*
D03*
Y21095D02*
D03*
D128*
X36501Y31016D02*
D03*
Y31764D02*
D03*
X37525Y31016D02*
D03*
Y31390D02*
D03*
Y31764D02*
D03*
X22328Y31016D02*
D03*
Y31764D02*
D03*
X23352Y31016D02*
D03*
Y31390D02*
D03*
Y31764D02*
D03*
X8155Y31016D02*
D03*
Y31764D02*
D03*
X9178Y31016D02*
D03*
Y31390D02*
D03*
Y31764D02*
D03*
X29415Y31016D02*
D03*
Y31764D02*
D03*
X30438Y31016D02*
D03*
Y31390D02*
D03*
Y31764D02*
D03*
X15241Y31016D02*
D03*
Y31764D02*
D03*
X16265Y31016D02*
D03*
Y31390D02*
D03*
Y31764D02*
D03*
X1068Y31016D02*
D03*
Y31764D02*
D03*
X2092Y31016D02*
D03*
Y31390D02*
D03*
Y31764D02*
D03*
D129*
X29536Y33930D02*
D03*
X15363D02*
D03*
X1190D02*
D03*
X36623D02*
D03*
X22450D02*
D03*
X8277D02*
D03*
D130*
X29930Y34475D02*
D03*
X29733D02*
D03*
X29536D02*
D03*
X29340D02*
D03*
X29143D02*
D03*
Y33385D02*
D03*
X29340D02*
D03*
X29536D02*
D03*
X29733D02*
D03*
X29930D02*
D03*
X15757Y34475D02*
D03*
X15560D02*
D03*
X15363D02*
D03*
X15166D02*
D03*
X14970D02*
D03*
Y33385D02*
D03*
X15166D02*
D03*
X15363D02*
D03*
X15560D02*
D03*
X15757D02*
D03*
X1584Y34475D02*
D03*
X1387D02*
D03*
X1190D02*
D03*
X993D02*
D03*
X796D02*
D03*
Y33385D02*
D03*
X993D02*
D03*
X1190D02*
D03*
X1387D02*
D03*
X1584D02*
D03*
X37017Y34475D02*
D03*
X36820D02*
D03*
X36623D02*
D03*
X36426D02*
D03*
X36229D02*
D03*
Y33385D02*
D03*
X36426D02*
D03*
X36623D02*
D03*
X36820D02*
D03*
X37017D02*
D03*
X22844Y34475D02*
D03*
X22647D02*
D03*
X22450D02*
D03*
X22253D02*
D03*
X22056D02*
D03*
Y33385D02*
D03*
X22253D02*
D03*
X22450D02*
D03*
X22647D02*
D03*
X22844D02*
D03*
X8670Y34475D02*
D03*
X8473D02*
D03*
X8277D02*
D03*
X8080D02*
D03*
X7883D02*
D03*
Y33385D02*
D03*
X8080D02*
D03*
X8277D02*
D03*
X8473D02*
D03*
X8670D02*
D03*
D131*
X40984Y31055D02*
D03*
Y31311D02*
D03*
Y31567D02*
D03*
X40236D02*
D03*
Y31311D02*
D03*
Y31055D02*
D03*
X26811D02*
D03*
Y31311D02*
D03*
Y31567D02*
D03*
X26063D02*
D03*
Y31311D02*
D03*
Y31055D02*
D03*
X12638D02*
D03*
Y31311D02*
D03*
Y31567D02*
D03*
X11890D02*
D03*
Y31311D02*
D03*
Y31055D02*
D03*
D132*
X31678Y31512D02*
D03*
X31422D02*
D03*
X31166D02*
D03*
Y30764D02*
D03*
X31422D02*
D03*
X31678D02*
D03*
X17505Y31512D02*
D03*
X17249D02*
D03*
X16993D02*
D03*
Y30764D02*
D03*
X17249D02*
D03*
X17505D02*
D03*
X3332Y31512D02*
D03*
X3076D02*
D03*
X2820D02*
D03*
Y30764D02*
D03*
X3076D02*
D03*
X3332D02*
D03*
D133*
X41156Y36752D02*
D03*
X26983D02*
D03*
X12810D02*
D03*
X34069D02*
D03*
X19896D02*
D03*
X5723D02*
D03*
D134*
X41451Y37205D02*
D03*
X41254D02*
D03*
X41058D02*
D03*
X40861D02*
D03*
X41451Y36300D02*
D03*
X41254D02*
D03*
X41058D02*
D03*
X40861D02*
D03*
X27278Y37205D02*
D03*
X27081D02*
D03*
X26884D02*
D03*
X26688D02*
D03*
X27278Y36300D02*
D03*
X27081D02*
D03*
X26884D02*
D03*
X26688D02*
D03*
X13105Y37205D02*
D03*
X12908D02*
D03*
X12711D02*
D03*
X12514D02*
D03*
X13105Y36300D02*
D03*
X12908D02*
D03*
X12711D02*
D03*
X12514D02*
D03*
X34365Y37205D02*
D03*
X34168D02*
D03*
X33971D02*
D03*
X33774D02*
D03*
X34365Y36300D02*
D03*
X34168D02*
D03*
X33971D02*
D03*
X33774D02*
D03*
X20191Y37205D02*
D03*
X19995D02*
D03*
X19798D02*
D03*
X19601D02*
D03*
X20191Y36300D02*
D03*
X19995D02*
D03*
X19798D02*
D03*
X19601D02*
D03*
X6018Y37205D02*
D03*
X5821D02*
D03*
X5625D02*
D03*
X5428D02*
D03*
X6018Y36300D02*
D03*
X5821D02*
D03*
X5625D02*
D03*
X5428D02*
D03*
D135*
X39272Y33916D02*
D03*
X39016D02*
D03*
X38760D02*
D03*
Y33128D02*
D03*
X39016D02*
D03*
X39272D02*
D03*
X25099Y33916D02*
D03*
X24843D02*
D03*
X24587D02*
D03*
Y33128D02*
D03*
X24843D02*
D03*
X25099D02*
D03*
X10926Y33916D02*
D03*
X10670D02*
D03*
X10414D02*
D03*
Y33128D02*
D03*
X10670D02*
D03*
X10926D02*
D03*
X32186Y33916D02*
D03*
X31930D02*
D03*
X31674D02*
D03*
Y33128D02*
D03*
X31930D02*
D03*
X32186D02*
D03*
X18012Y33916D02*
D03*
X17757D02*
D03*
X17501D02*
D03*
Y33128D02*
D03*
X17757D02*
D03*
X18012D02*
D03*
X3839Y33916D02*
D03*
X3583D02*
D03*
X3327D02*
D03*
Y33128D02*
D03*
X3583D02*
D03*
X3839D02*
D03*
D136*
X38311Y35198D02*
D03*
X38811D02*
D03*
X39311D02*
D03*
X39811D02*
D03*
X38311Y37403D02*
D03*
X38811D02*
D03*
X39311D02*
D03*
X39811D02*
D03*
X24138Y35198D02*
D03*
X24638D02*
D03*
X25138D02*
D03*
X25638D02*
D03*
X24138Y37403D02*
D03*
X24638D02*
D03*
X25138D02*
D03*
X25638D02*
D03*
X9965Y35198D02*
D03*
X10465D02*
D03*
X10965D02*
D03*
X11465D02*
D03*
X9965Y37403D02*
D03*
X10465D02*
D03*
X10965D02*
D03*
X11465D02*
D03*
X33256Y32260D02*
D03*
X33756D02*
D03*
X34256D02*
D03*
X34756D02*
D03*
X33256Y34465D02*
D03*
X33756D02*
D03*
X34256D02*
D03*
X34756D02*
D03*
X19083Y32260D02*
D03*
X19583D02*
D03*
X20083D02*
D03*
X20583D02*
D03*
X19083Y34465D02*
D03*
X19583D02*
D03*
X20083D02*
D03*
X20583D02*
D03*
X4909Y32260D02*
D03*
X5409D02*
D03*
X5909D02*
D03*
X6409D02*
D03*
X4909Y34465D02*
D03*
X5409D02*
D03*
X5909D02*
D03*
X6409D02*
D03*
X31225Y35198D02*
D03*
X31725D02*
D03*
X32225D02*
D03*
X32725D02*
D03*
X31225Y37403D02*
D03*
X31725D02*
D03*
X32225D02*
D03*
X32725D02*
D03*
X17051Y35198D02*
D03*
X17551D02*
D03*
X18051D02*
D03*
X18551D02*
D03*
X17051Y37403D02*
D03*
X17551D02*
D03*
X18051D02*
D03*
X18551D02*
D03*
X2878Y35198D02*
D03*
X3378D02*
D03*
X3878D02*
D03*
X4378D02*
D03*
X2878Y37403D02*
D03*
X3378D02*
D03*
X3878D02*
D03*
X4378D02*
D03*
D137*
X40888Y34587D02*
D03*
X41655D02*
D03*
X42423D02*
D03*
X41400D02*
D03*
X41144D02*
D03*
X42167D02*
D03*
X41911D02*
D03*
X40888Y32283D02*
D03*
X42423D02*
D03*
X41655D02*
D03*
X41400D02*
D03*
X41144D02*
D03*
X42167D02*
D03*
X41911D02*
D03*
X26714Y34587D02*
D03*
X27482D02*
D03*
X28250D02*
D03*
X27226D02*
D03*
X26970D02*
D03*
X27994D02*
D03*
X27738D02*
D03*
X26714Y32283D02*
D03*
X28250D02*
D03*
X27482D02*
D03*
X27226D02*
D03*
X26970D02*
D03*
X27994D02*
D03*
X27738D02*
D03*
X12541Y34587D02*
D03*
X13309D02*
D03*
X14077D02*
D03*
X13053D02*
D03*
X12797D02*
D03*
X13821D02*
D03*
X13565D02*
D03*
X12541Y32283D02*
D03*
X14077D02*
D03*
X13309D02*
D03*
X13053D02*
D03*
X12797D02*
D03*
X13821D02*
D03*
X13565D02*
D03*
D138*
X37281Y28624D02*
D03*
X37478D02*
D03*
X37871Y29845D02*
D03*
X37675D02*
D03*
X37478D02*
D03*
X37281D02*
D03*
X37675Y28624D02*
D03*
X37871D02*
D03*
X23108D02*
D03*
X23305D02*
D03*
X23698Y29845D02*
D03*
X23501D02*
D03*
X23305D02*
D03*
X23108D02*
D03*
X23501Y28624D02*
D03*
X23698D02*
D03*
X8934D02*
D03*
X9131D02*
D03*
X9525Y29845D02*
D03*
X9328D02*
D03*
X9131D02*
D03*
X8934D02*
D03*
X9328Y28624D02*
D03*
X9525D02*
D03*
D139*
X37576Y29235D02*
D03*
X23403D02*
D03*
X9230D02*
D03*
D140*
X36966Y29530D02*
D03*
Y29333D02*
D03*
Y29136D02*
D03*
Y28939D02*
D03*
X38186D02*
D03*
Y29136D02*
D03*
Y29333D02*
D03*
Y29530D02*
D03*
X22793D02*
D03*
Y29333D02*
D03*
Y29136D02*
D03*
Y28939D02*
D03*
X24013D02*
D03*
Y29136D02*
D03*
Y29333D02*
D03*
Y29530D02*
D03*
X8620D02*
D03*
Y29333D02*
D03*
Y29136D02*
D03*
Y28939D02*
D03*
X9840D02*
D03*
Y29136D02*
D03*
Y29333D02*
D03*
Y29530D02*
D03*
D141*
X3400Y23427D02*
D03*
Y23801D02*
D03*
Y24175D02*
D03*
X4522D02*
D03*
Y23801D02*
D03*
Y23427D02*
D03*
D142*
X14637Y13298D02*
D03*
D143*
X15582Y13898D02*
D03*
Y13698D02*
D03*
Y13498D02*
D03*
Y13298D02*
D03*
Y13098D02*
D03*
Y12898D02*
D03*
Y12698D02*
D03*
X13692D02*
D03*
Y12898D02*
D03*
Y13098D02*
D03*
Y13298D02*
D03*
Y13498D02*
D03*
Y13698D02*
D03*
Y13898D02*
D03*
D144*
X15237Y12353D02*
D03*
X15037D02*
D03*
X14837D02*
D03*
X14637D02*
D03*
X14437D02*
D03*
X14237D02*
D03*
X14037D02*
D03*
Y14243D02*
D03*
X14237D02*
D03*
X14437D02*
D03*
X14637D02*
D03*
X14837D02*
D03*
X15037D02*
D03*
X15237D02*
D03*
D145*
X21655Y25044D02*
D03*
X26104D02*
D03*
D146*
X20887Y24946D02*
D03*
Y24749D02*
D03*
Y24552D02*
D03*
Y25537D02*
D03*
Y25340D02*
D03*
Y25143D02*
D03*
X22423Y24552D02*
D03*
Y24749D02*
D03*
Y24946D02*
D03*
Y25143D02*
D03*
Y25340D02*
D03*
Y25537D02*
D03*
X25336Y24946D02*
D03*
Y24749D02*
D03*
Y24552D02*
D03*
Y25537D02*
D03*
Y25340D02*
D03*
Y25143D02*
D03*
X26872Y24552D02*
D03*
Y24749D02*
D03*
Y24946D02*
D03*
Y25143D02*
D03*
Y25340D02*
D03*
Y25537D02*
D03*
D147*
X21557Y25812D02*
D03*
X21360D02*
D03*
X21163D02*
D03*
X22147D02*
D03*
X21950D02*
D03*
X21754D02*
D03*
X21163Y24277D02*
D03*
X21360D02*
D03*
X21557D02*
D03*
X21754D02*
D03*
X21950D02*
D03*
X22147D02*
D03*
X26005Y25812D02*
D03*
X25809D02*
D03*
X25612D02*
D03*
X26596D02*
D03*
X26399D02*
D03*
X26202D02*
D03*
X25612Y24277D02*
D03*
X25809D02*
D03*
X26005D02*
D03*
X26202D02*
D03*
X26399D02*
D03*
X26596D02*
D03*
D148*
X11418Y22619D02*
D03*
Y22422D02*
D03*
Y22225D02*
D03*
Y22029D02*
D03*
Y23406D02*
D03*
Y23210D02*
D03*
Y23013D02*
D03*
Y22816D02*
D03*
Y24194D02*
D03*
Y23997D02*
D03*
Y23800D02*
D03*
Y23603D02*
D03*
Y24981D02*
D03*
Y24784D02*
D03*
Y24588D02*
D03*
Y24391D02*
D03*
X6945Y22029D02*
D03*
Y22225D02*
D03*
Y22422D02*
D03*
Y22619D02*
D03*
Y22816D02*
D03*
Y23013D02*
D03*
Y23210D02*
D03*
Y23406D02*
D03*
Y23603D02*
D03*
Y23800D02*
D03*
Y23997D02*
D03*
Y24194D02*
D03*
Y24391D02*
D03*
Y24588D02*
D03*
Y24784D02*
D03*
Y24981D02*
D03*
D149*
X10068Y25741D02*
D03*
X10264D02*
D03*
X10461D02*
D03*
X10658D02*
D03*
X9280D02*
D03*
X9477D02*
D03*
X9674D02*
D03*
X9871D02*
D03*
X8493D02*
D03*
X8690D02*
D03*
X8886D02*
D03*
X9083D02*
D03*
X7705D02*
D03*
X7902D02*
D03*
X8099D02*
D03*
X8296D02*
D03*
X10658Y21269D02*
D03*
X10461D02*
D03*
X10264D02*
D03*
X10068D02*
D03*
X9871D02*
D03*
X9674D02*
D03*
X9477D02*
D03*
X9280D02*
D03*
X9083D02*
D03*
X8886D02*
D03*
X8690D02*
D03*
X8493D02*
D03*
X8296D02*
D03*
X8099D02*
D03*
X7902D02*
D03*
X7705D02*
D03*
D150*
X34949Y11748D02*
D03*
D151*
X35441Y10973D02*
D03*
X35244D02*
D03*
X35047D02*
D03*
X34850D02*
D03*
X34653D02*
D03*
X34456D02*
D03*
Y12523D02*
D03*
X34653D02*
D03*
X34850D02*
D03*
X35047D02*
D03*
X35244D02*
D03*
X35441D02*
D03*
D152*
X34174Y11256D02*
D03*
Y11453D02*
D03*
Y11650D02*
D03*
Y11847D02*
D03*
Y12044D02*
D03*
Y12240D02*
D03*
X35724D02*
D03*
Y12044D02*
D03*
Y11847D02*
D03*
Y11650D02*
D03*
Y11453D02*
D03*
Y11256D02*
D03*
D153*
X22823Y6933D02*
D03*
Y6736D02*
D03*
Y6539D02*
D03*
X23542Y6539D02*
D03*
Y6736D02*
D03*
Y6933D02*
D03*
D154*
X22887Y7194D02*
D03*
X23478D02*
D03*
X23281D02*
D03*
X23084D02*
D03*
X23478Y6278D02*
D03*
X22887D02*
D03*
X23084D02*
D03*
X23281D02*
D03*
D155*
X19116Y5150D02*
D03*
Y5406D02*
D03*
X18131Y5150D02*
D03*
Y5406D02*
D03*
D156*
X18879Y5770D02*
D03*
X18623D02*
D03*
X18368D02*
D03*
X18879Y4786D02*
D03*
X18623D02*
D03*
X18368D02*
D03*
D157*
X21644Y18854D02*
D03*
X22432D02*
D03*
X23219D02*
D03*
X26565D02*
D03*
X27353D02*
D03*
X28140D02*
D03*
X21447D02*
D03*
X21841D02*
D03*
X22038D02*
D03*
X22235D02*
D03*
X22628D02*
D03*
X22825D02*
D03*
X23022D02*
D03*
X23416D02*
D03*
X23613D02*
D03*
X23810D02*
D03*
X24006D02*
D03*
X24203D02*
D03*
X24400D02*
D03*
X24597D02*
D03*
X24794D02*
D03*
X24991D02*
D03*
X25187D02*
D03*
X25384D02*
D03*
X25581D02*
D03*
X25778D02*
D03*
X25975D02*
D03*
X26172D02*
D03*
X26369D02*
D03*
X26762D02*
D03*
X26959D02*
D03*
X27156D02*
D03*
X27550D02*
D03*
X27747D02*
D03*
X27943D02*
D03*
X28337D02*
D03*
X21644Y10488D02*
D03*
X23219D02*
D03*
X22432D02*
D03*
X28140D02*
D03*
X27353D02*
D03*
X26565D02*
D03*
X21447D02*
D03*
X22235D02*
D03*
X22038D02*
D03*
X21841D02*
D03*
X23022D02*
D03*
X22825D02*
D03*
X22628D02*
D03*
X24006D02*
D03*
X23810D02*
D03*
X23613D02*
D03*
X23416D02*
D03*
X24794D02*
D03*
X24597D02*
D03*
X24400D02*
D03*
X24203D02*
D03*
X25581D02*
D03*
X25384D02*
D03*
X25187D02*
D03*
X24991D02*
D03*
X26369D02*
D03*
X26172D02*
D03*
X25975D02*
D03*
X25778D02*
D03*
X27156D02*
D03*
X26959D02*
D03*
X26762D02*
D03*
X27943D02*
D03*
X27747D02*
D03*
X27550D02*
D03*
X28337D02*
D03*
D158*
X20709Y17919D02*
D03*
X29075D02*
D03*
X20709Y16344D02*
D03*
Y17132D02*
D03*
X29075D02*
D03*
Y16344D02*
D03*
X20709Y11423D02*
D03*
Y12210D02*
D03*
Y12998D02*
D03*
X29075D02*
D03*
Y12210D02*
D03*
Y11423D02*
D03*
X20709Y18116D02*
D03*
X29075D02*
D03*
X20709Y17328D02*
D03*
Y17525D02*
D03*
Y17722D02*
D03*
X29075D02*
D03*
Y17525D02*
D03*
Y17328D02*
D03*
X20709Y16541D02*
D03*
Y16738D02*
D03*
Y16935D02*
D03*
X29075D02*
D03*
Y16738D02*
D03*
Y16541D02*
D03*
X20709Y15557D02*
D03*
Y15754D02*
D03*
Y15951D02*
D03*
Y16147D02*
D03*
X29075D02*
D03*
Y15951D02*
D03*
Y15754D02*
D03*
Y15557D02*
D03*
X20709Y14769D02*
D03*
Y14966D02*
D03*
Y15163D02*
D03*
Y15360D02*
D03*
X29075D02*
D03*
Y15163D02*
D03*
Y14966D02*
D03*
Y14769D02*
D03*
X20709Y13982D02*
D03*
Y14179D02*
D03*
Y14376D02*
D03*
Y14573D02*
D03*
X29075D02*
D03*
Y14376D02*
D03*
Y14179D02*
D03*
Y13982D02*
D03*
X20709Y13195D02*
D03*
Y13391D02*
D03*
Y13588D02*
D03*
Y13785D02*
D03*
X29075D02*
D03*
Y13588D02*
D03*
Y13391D02*
D03*
Y13195D02*
D03*
X20709Y12407D02*
D03*
Y12604D02*
D03*
Y12801D02*
D03*
X29075D02*
D03*
Y12604D02*
D03*
Y12407D02*
D03*
X20709Y11620D02*
D03*
Y11817D02*
D03*
Y12013D02*
D03*
X29075D02*
D03*
Y11817D02*
D03*
Y11620D02*
D03*
X20709Y11226D02*
D03*
X29075D02*
D03*
D159*
X3851Y26918D02*
D03*
X40132Y9773D02*
D03*
X10120Y9790D02*
D03*
X42563Y24356D02*
D03*
X28607Y21365D02*
D03*
X36416Y37212D02*
D03*
X22243D02*
D03*
X8070D02*
D03*
X29330D02*
D03*
X15157D02*
D03*
X983D02*
D03*
X11080Y3536D02*
D03*
Y5033D02*
D03*
Y2038D02*
D03*
Y6530D02*
D03*
Y541D02*
D03*
D160*
X889Y21892D02*
D03*
X2129D02*
D03*
Y22561D02*
D03*
X889D02*
D03*
X840Y24642D02*
D03*
X2080D02*
D03*
Y25311D02*
D03*
X840D02*
D03*
X908Y18880D02*
D03*
X2148D02*
D03*
Y19549D02*
D03*
X908D02*
D03*
D161*
X2188Y22226D02*
D03*
X830D02*
D03*
X2139Y24976D02*
D03*
X781D02*
D03*
X2207Y19215D02*
D03*
X849D02*
D03*
D162*
X37026Y11920D02*
D03*
X36676D02*
D03*
X16026Y12890D02*
D03*
X16376D02*
D03*
X36616Y13929D02*
D03*
X36266D02*
D03*
X35432Y13931D02*
D03*
X35782D02*
D03*
X36342Y17985D02*
D03*
X35992D02*
D03*
X30409Y32915D02*
D03*
X30059D02*
D03*
X16236D02*
D03*
X15886D02*
D03*
X2063D02*
D03*
X1713D02*
D03*
X22409Y7042D02*
D03*
X22059D02*
D03*
X21691Y2850D02*
D03*
X21341D02*
D03*
X41321Y35774D02*
D03*
X40971D02*
D03*
X27147D02*
D03*
X26797D02*
D03*
X12974D02*
D03*
X12624D02*
D03*
X37496Y32915D02*
D03*
X37146D02*
D03*
X23323D02*
D03*
X22973D02*
D03*
X9150D02*
D03*
X8800D02*
D03*
X11417Y26376D02*
D03*
X11067D02*
D03*
X12679Y20053D02*
D03*
X13029D02*
D03*
X38644Y30217D02*
D03*
X38994D02*
D03*
X24471D02*
D03*
X24821D02*
D03*
X10298D02*
D03*
X10648D02*
D03*
X39472Y28185D02*
D03*
X39822D02*
D03*
X25299D02*
D03*
X25649D02*
D03*
X11126D02*
D03*
X11476D02*
D03*
X18638Y14226D02*
D03*
X18988D02*
D03*
X41677Y35227D02*
D03*
X42027D02*
D03*
X27503D02*
D03*
X27853D02*
D03*
X13330D02*
D03*
X13680D02*
D03*
X18988Y13796D02*
D03*
X18638D02*
D03*
X28949Y28224D02*
D03*
X29299D02*
D03*
X14789Y28224D02*
D03*
X15139D02*
D03*
X613Y28227D02*
D03*
X963D02*
D03*
X38644Y28058D02*
D03*
X38994D02*
D03*
X24471D02*
D03*
X24821D02*
D03*
X10298D02*
D03*
X10648D02*
D03*
X38995Y28490D02*
D03*
X38645D02*
D03*
X24822D02*
D03*
X24472D02*
D03*
X10649D02*
D03*
X10299D02*
D03*
X39472Y28603D02*
D03*
X39822D02*
D03*
X25299D02*
D03*
X25649D02*
D03*
X11126D02*
D03*
X11476D02*
D03*
X36382Y29442D02*
D03*
X36032D02*
D03*
X22209D02*
D03*
X21859D02*
D03*
X8035D02*
D03*
X7685D02*
D03*
X36384Y29872D02*
D03*
X36034D02*
D03*
X22211D02*
D03*
X21861D02*
D03*
X8038D02*
D03*
X7688D02*
D03*
X36032Y28602D02*
D03*
X36382D02*
D03*
X21859D02*
D03*
X22209D02*
D03*
X7685D02*
D03*
X8035D02*
D03*
X38995Y28922D02*
D03*
X38645D02*
D03*
X24822D02*
D03*
X24472D02*
D03*
X10649D02*
D03*
X10299D02*
D03*
X33339Y35108D02*
D03*
X33689D02*
D03*
X19166D02*
D03*
X19516D02*
D03*
X4993D02*
D03*
X5343D02*
D03*
X34329Y35106D02*
D03*
X34679D02*
D03*
X20156D02*
D03*
X20506D02*
D03*
X5983D02*
D03*
X6333D02*
D03*
X38995Y29353D02*
D03*
X38645D02*
D03*
X24822D02*
D03*
X24472D02*
D03*
X10649D02*
D03*
X10299D02*
D03*
X38995Y29785D02*
D03*
X38645D02*
D03*
X24822D02*
D03*
X24472D02*
D03*
X10649D02*
D03*
X10299D02*
D03*
X36383Y29029D02*
D03*
X36033D02*
D03*
X22209D02*
D03*
X21859D02*
D03*
X8036D02*
D03*
X7686D02*
D03*
X34245Y35770D02*
D03*
X33895D02*
D03*
X20072D02*
D03*
X19722D02*
D03*
X5898D02*
D03*
X5548D02*
D03*
X23705Y23229D02*
D03*
X24055D02*
D03*
X13242Y23574D02*
D03*
X13592D02*
D03*
X28955Y28655D02*
D03*
X29305D02*
D03*
X14794Y28656D02*
D03*
X15144D02*
D03*
X619Y28659D02*
D03*
X969D02*
D03*
X37895Y11478D02*
D03*
X37545D02*
D03*
X36675Y11480D02*
D03*
X37025D02*
D03*
X8533Y19377D02*
D03*
X8883D02*
D03*
X5065Y21970D02*
D03*
X4715D02*
D03*
X5065Y22410D02*
D03*
X4715D02*
D03*
X4714Y22851D02*
D03*
X5064D02*
D03*
X10593Y20211D02*
D03*
X10943D02*
D03*
X5953Y22896D02*
D03*
X6303D02*
D03*
X26934Y7392D02*
D03*
X26584D02*
D03*
X8387Y16087D02*
D03*
X8737D02*
D03*
X13242Y25135D02*
D03*
X13592D02*
D03*
X8389Y17144D02*
D03*
X8739D02*
D03*
X36267Y13516D02*
D03*
X36617D02*
D03*
X13242Y24777D02*
D03*
X13592D02*
D03*
X13242Y24383D02*
D03*
X13592D02*
D03*
X13242Y23985D02*
D03*
X13592D02*
D03*
X13244Y23170D02*
D03*
X13594D02*
D03*
X35783Y13516D02*
D03*
X35433D02*
D03*
X32427Y2189D02*
D03*
X32777D02*
D03*
X32415Y2687D02*
D03*
X32765D02*
D03*
X8377Y15666D02*
D03*
X8727D02*
D03*
X32610Y12917D02*
D03*
X32960D02*
D03*
X8387Y16507D02*
D03*
X8737D02*
D03*
X2030Y20645D02*
D03*
X1680D02*
D03*
X13244Y22733D02*
D03*
X13594D02*
D03*
X13261Y14386D02*
D03*
X12911D02*
D03*
X21691Y1479D02*
D03*
X21341D02*
D03*
X13234Y22284D02*
D03*
X13584D02*
D03*
X13244Y21851D02*
D03*
X13594D02*
D03*
X17354Y11047D02*
D03*
X17004D02*
D03*
X34398Y18055D02*
D03*
X34048D02*
D03*
X34398Y18478D02*
D03*
X34048D02*
D03*
X21340Y1022D02*
D03*
X21690D02*
D03*
X18098Y6260D02*
D03*
X17748D02*
D03*
X21691Y1936D02*
D03*
X21341D02*
D03*
X19754Y5085D02*
D03*
X20104D02*
D03*
X17373Y5821D02*
D03*
X17723D02*
D03*
X36265Y14343D02*
D03*
X36615D02*
D03*
X35784D02*
D03*
X35434D02*
D03*
X13261Y15226D02*
D03*
X12911D02*
D03*
X12911Y14806D02*
D03*
X13261D02*
D03*
X19754Y5515D02*
D03*
X20104D02*
D03*
X6855Y2770D02*
D03*
X7205D02*
D03*
Y3230D02*
D03*
X6855D02*
D03*
X12642Y3929D02*
D03*
X12292D02*
D03*
X21691Y565D02*
D03*
X21341D02*
D03*
X7215Y3690D02*
D03*
X6865D02*
D03*
X2013Y23663D02*
D03*
X1663D02*
D03*
X21691Y2393D02*
D03*
X21341D02*
D03*
X21350Y4221D02*
D03*
X21700D02*
D03*
X21350Y3764D02*
D03*
X21700D02*
D03*
X21350Y3307D02*
D03*
X21700D02*
D03*
X35572Y17985D02*
D03*
X35222D02*
D03*
X29644Y32920D02*
D03*
X29294D02*
D03*
X15471D02*
D03*
X15121D02*
D03*
X1298D02*
D03*
X948D02*
D03*
X13782Y20052D02*
D03*
X13432D02*
D03*
X31757Y30237D02*
D03*
X31407D02*
D03*
X17584D02*
D03*
X17234D02*
D03*
X3411D02*
D03*
X3061D02*
D03*
X36731Y32920D02*
D03*
X36381D02*
D03*
X22558D02*
D03*
X22208D02*
D03*
X8384D02*
D03*
X8034D02*
D03*
X39001Y32615D02*
D03*
X39351D02*
D03*
X24827D02*
D03*
X25177D02*
D03*
X10654D02*
D03*
X11004D02*
D03*
X38221Y30291D02*
D03*
X37871D02*
D03*
X24048D02*
D03*
X23698D02*
D03*
X9874D02*
D03*
X9524D02*
D03*
X31921Y32570D02*
D03*
X32271D02*
D03*
X17748D02*
D03*
X18098D02*
D03*
X3575D02*
D03*
X3925D02*
D03*
X27685Y25820D02*
D03*
X27335D02*
D03*
X24515Y25780D02*
D03*
X24865D02*
D03*
X24838Y23229D02*
D03*
X24488D02*
D03*
X3329Y22873D02*
D03*
X3679D02*
D03*
X9255Y20640D02*
D03*
X9605D02*
D03*
X8235Y20590D02*
D03*
X8585D02*
D03*
X23478Y7702D02*
D03*
X23128D02*
D03*
X9966Y26374D02*
D03*
X10316D02*
D03*
X10215Y20630D02*
D03*
X10565D02*
D03*
X37903Y11916D02*
D03*
X37553D02*
D03*
X8931Y26373D02*
D03*
X8581D02*
D03*
X33858Y10768D02*
D03*
X33508D02*
D03*
X16376Y13286D02*
D03*
X16026D02*
D03*
X12911Y13966D02*
D03*
X13261D02*
D03*
X15434Y11910D02*
D03*
X15084D02*
D03*
X14257Y14658D02*
D03*
X14607D02*
D03*
X34642Y13182D02*
D03*
X34992D02*
D03*
X19638Y11958D02*
D03*
X19988D02*
D03*
X30097Y17329D02*
D03*
X29747D02*
D03*
X20112Y5933D02*
D03*
X19762D02*
D03*
X21429Y19966D02*
D03*
X21779D02*
D03*
X21781Y19553D02*
D03*
X21431D02*
D03*
X24485Y19500D02*
D03*
X24835D02*
D03*
X27234Y19494D02*
D03*
X26884D02*
D03*
X27515Y9930D02*
D03*
X27865D02*
D03*
X24873Y9772D02*
D03*
X24523D02*
D03*
X23764Y9774D02*
D03*
X24114D02*
D03*
X22184Y9516D02*
D03*
X22534D02*
D03*
X29070Y10027D02*
D03*
X28720D02*
D03*
X22539Y9936D02*
D03*
X22189D02*
D03*
X29001Y34970D02*
D03*
X29351D02*
D03*
X8058Y34967D02*
D03*
X7708D02*
D03*
X21881D02*
D03*
X22231D02*
D03*
X36054D02*
D03*
X36404D02*
D03*
X32757Y17282D02*
D03*
X32407D02*
D03*
X655Y34970D02*
D03*
X1005D02*
D03*
X14828D02*
D03*
X15178D02*
D03*
X20076Y15669D02*
D03*
X19726D02*
D03*
X30094Y16922D02*
D03*
X29744D02*
D03*
X20061Y18144D02*
D03*
X19711D02*
D03*
X20065Y17710D02*
D03*
X19715D02*
D03*
X19730Y15250D02*
D03*
X20080D02*
D03*
X30095Y16134D02*
D03*
X29745D02*
D03*
Y16530D02*
D03*
X30095D02*
D03*
X36051Y17292D02*
D03*
X35701D02*
D03*
X5688Y29928D02*
D03*
X6038D02*
D03*
X19861D02*
D03*
X20211D02*
D03*
X34035D02*
D03*
X34385D02*
D03*
X4283D02*
D03*
X3933D02*
D03*
X18456D02*
D03*
X18106D02*
D03*
X32630D02*
D03*
X32280D02*
D03*
D163*
X3732Y949D02*
D03*
Y1539D02*
D03*
X9352Y19495D02*
D03*
Y18905D02*
D03*
X8057Y19495D02*
D03*
Y18905D02*
D03*
X35406Y33557D02*
D03*
Y32967D02*
D03*
X21233Y33557D02*
D03*
Y32967D02*
D03*
X7060Y33557D02*
D03*
Y32967D02*
D03*
X37024Y15715D02*
D03*
Y16305D02*
D03*
X33715Y15709D02*
D03*
Y16299D02*
D03*
X12233Y20630D02*
D03*
Y21220D02*
D03*
X22787Y26950D02*
D03*
Y26360D02*
D03*
X20530Y26955D02*
D03*
Y26365D02*
D03*
X37263Y35985D02*
D03*
Y35395D02*
D03*
X23090Y35985D02*
D03*
Y35395D02*
D03*
X8917Y35985D02*
D03*
Y35395D02*
D03*
X30176Y35985D02*
D03*
Y35395D02*
D03*
X16003Y35985D02*
D03*
Y35395D02*
D03*
X1830Y35985D02*
D03*
Y35395D02*
D03*
X19914Y24001D02*
D03*
Y24591D02*
D03*
X27518Y26915D02*
D03*
Y26325D02*
D03*
X24655Y26915D02*
D03*
Y26325D02*
D03*
X23534Y24001D02*
D03*
Y24591D02*
D03*
X6832Y25494D02*
D03*
Y26084D02*
D03*
X8706Y10525D02*
D03*
Y11115D02*
D03*
X36720Y12415D02*
D03*
Y13005D02*
D03*
X12787Y12598D02*
D03*
Y12008D02*
D03*
X19430Y10705D02*
D03*
Y11295D02*
D03*
X30661Y18620D02*
D03*
Y18030D02*
D03*
D164*
X11269Y12059D02*
D03*
Y12807D02*
D03*
X10482Y12433D02*
D03*
X11269Y10600D02*
D03*
Y11348D02*
D03*
X10482Y10974D02*
D03*
D165*
X12660Y6757D02*
D03*
X13034Y5983D02*
D03*
X12286D02*
D03*
D166*
X37555Y10710D02*
D03*
X38225D02*
D03*
D167*
X28882Y8954D02*
D03*
Y8284D02*
D03*
X29183Y36215D02*
D03*
Y35545D02*
D03*
X15010Y36215D02*
D03*
Y35545D02*
D03*
X837Y36215D02*
D03*
Y35545D02*
D03*
X36270Y36215D02*
D03*
Y35545D02*
D03*
X22096Y36215D02*
D03*
Y35545D02*
D03*
X7923Y36215D02*
D03*
Y35545D02*
D03*
X9420Y10524D02*
D03*
Y11194D02*
D03*
X38977Y10108D02*
D03*
Y10778D02*
D03*
X36810Y10765D02*
D03*
Y10095D02*
D03*
X34818Y14383D02*
D03*
Y13713D02*
D03*
X17332Y4294D02*
D03*
Y4964D02*
D03*
D168*
X40945Y40173D02*
D03*
X40157D02*
D03*
X41732D02*
D03*
X39961D02*
D03*
X40748D02*
D03*
X40551D02*
D03*
X40354D02*
D03*
X41535D02*
D03*
X41339D02*
D03*
X41142D02*
D03*
X42126D02*
D03*
X41929D02*
D03*
X40059Y39504D02*
D03*
X39862D02*
D03*
X40846D02*
D03*
X40256D02*
D03*
X40453D02*
D03*
X40650D02*
D03*
X41043D02*
D03*
X41240D02*
D03*
X41437D02*
D03*
X41634D02*
D03*
X42028D02*
D03*
X41831D02*
D03*
X25512Y40173D02*
D03*
X24724D02*
D03*
X26299D02*
D03*
X24528D02*
D03*
X25315D02*
D03*
X25118D02*
D03*
X24921D02*
D03*
X26102D02*
D03*
X25905D02*
D03*
X25709D02*
D03*
X26693D02*
D03*
X26496D02*
D03*
X24626Y39504D02*
D03*
X24429D02*
D03*
X25413D02*
D03*
X24823D02*
D03*
X25020D02*
D03*
X25217D02*
D03*
X25610D02*
D03*
X25807D02*
D03*
X26004D02*
D03*
X26201D02*
D03*
X26594D02*
D03*
X26398D02*
D03*
X10079Y40173D02*
D03*
X9291D02*
D03*
X10866D02*
D03*
X9094D02*
D03*
X9882D02*
D03*
X9685D02*
D03*
X9488D02*
D03*
X10669D02*
D03*
X10472D02*
D03*
X10276D02*
D03*
X11260D02*
D03*
X11063D02*
D03*
X9193Y39504D02*
D03*
X8996D02*
D03*
X9980D02*
D03*
X9390D02*
D03*
X9587D02*
D03*
X9783D02*
D03*
X10177D02*
D03*
X10374D02*
D03*
X10571D02*
D03*
X10768D02*
D03*
X11161D02*
D03*
X10964D02*
D03*
X33228Y40173D02*
D03*
X32441D02*
D03*
X34016D02*
D03*
X32244D02*
D03*
X33031D02*
D03*
X32835D02*
D03*
X32638D02*
D03*
X33819D02*
D03*
X33622D02*
D03*
X33425D02*
D03*
X34409D02*
D03*
X34213D02*
D03*
X32343Y39504D02*
D03*
X32146D02*
D03*
X33130D02*
D03*
X32539D02*
D03*
X32736D02*
D03*
X32933D02*
D03*
X33327D02*
D03*
X33524D02*
D03*
X33720D02*
D03*
X33917D02*
D03*
X34311D02*
D03*
X34114D02*
D03*
X17795Y40173D02*
D03*
X17008D02*
D03*
X18583D02*
D03*
X16811D02*
D03*
X17598D02*
D03*
X17402D02*
D03*
X17205D02*
D03*
X18386D02*
D03*
X18189D02*
D03*
X17992D02*
D03*
X18976D02*
D03*
X18779D02*
D03*
X16909Y39504D02*
D03*
X16713D02*
D03*
X17697D02*
D03*
X17106D02*
D03*
X17303D02*
D03*
X17500D02*
D03*
X17894D02*
D03*
X18090D02*
D03*
X18287D02*
D03*
X18484D02*
D03*
X18878D02*
D03*
X18681D02*
D03*
X2362Y40173D02*
D03*
X1575D02*
D03*
X3150D02*
D03*
X1378D02*
D03*
X2165D02*
D03*
X1968D02*
D03*
X1772D02*
D03*
X2953D02*
D03*
X2756D02*
D03*
X2559D02*
D03*
X3543D02*
D03*
X3346D02*
D03*
X1476Y39504D02*
D03*
X1279D02*
D03*
X2264D02*
D03*
X1673D02*
D03*
X1870D02*
D03*
X2067D02*
D03*
X2461D02*
D03*
X2657D02*
D03*
X2854D02*
D03*
X3051D02*
D03*
X3445D02*
D03*
X3248D02*
D03*
D169*
X14670Y41390D02*
D03*
X4390Y25320D02*
D03*
X31907Y1002D02*
D03*
D170*
X7546Y8200D02*
D03*
X10054D02*
D03*
D171*
X39993Y15551D02*
D03*
Y15354D02*
D03*
Y14961D02*
D03*
Y14764D02*
D03*
X40322Y15551D02*
D03*
Y15354D02*
D03*
Y14961D02*
D03*
Y14764D02*
D03*
X39993Y14225D02*
D03*
Y14028D02*
D03*
Y13634D02*
D03*
Y13438D02*
D03*
X40322Y14225D02*
D03*
Y14028D02*
D03*
Y13634D02*
D03*
Y13438D02*
D03*
Y12079D02*
D03*
Y12275D02*
D03*
Y12669D02*
D03*
Y12866D02*
D03*
X39993Y12079D02*
D03*
Y12275D02*
D03*
Y12669D02*
D03*
Y12866D02*
D03*
D172*
Y15157D02*
D03*
X40322D02*
D03*
X39993Y13831D02*
D03*
X40322D02*
D03*
Y12472D02*
D03*
X39993D02*
D03*
D173*
X39699Y16822D02*
D03*
X38038D02*
D03*
D174*
X22751Y3657D02*
D03*
X23400D02*
D03*
X22749Y1802D02*
D03*
X23399D02*
D03*
X22749Y2420D02*
D03*
X23399D02*
D03*
X22749Y3039D02*
D03*
X23399D02*
D03*
X40324Y28185D02*
D03*
X40974D02*
D03*
X26151D02*
D03*
X26800D02*
D03*
X11977D02*
D03*
X12627D02*
D03*
X40332Y28700D02*
D03*
X40981D02*
D03*
X26158D02*
D03*
X26808D02*
D03*
X11985D02*
D03*
X12635D02*
D03*
X29805Y28740D02*
D03*
X30455D02*
D03*
X15632D02*
D03*
X16282D02*
D03*
X1459D02*
D03*
X2108D02*
D03*
X29805Y28215D02*
D03*
X30455D02*
D03*
X15632D02*
D03*
X16282D02*
D03*
X1459D02*
D03*
X2108D02*
D03*
X22749Y1184D02*
D03*
X23399D02*
D03*
X22749Y565D02*
D03*
X23399D02*
D03*
D175*
X42598Y38905D02*
D03*
X42402D02*
D03*
X42008D02*
D03*
X41811D02*
D03*
X42598Y38576D02*
D03*
X42402D02*
D03*
X42008D02*
D03*
X41811D02*
D03*
X27165Y38905D02*
D03*
X26969D02*
D03*
X26575D02*
D03*
X26378D02*
D03*
X27165Y38576D02*
D03*
X26969D02*
D03*
X26575D02*
D03*
X26378D02*
D03*
X11732Y38905D02*
D03*
X11535D02*
D03*
X11142D02*
D03*
X10945D02*
D03*
X11732Y38576D02*
D03*
X11535D02*
D03*
X11142D02*
D03*
X10945D02*
D03*
X40079Y38905D02*
D03*
X39882D02*
D03*
X39488D02*
D03*
X39291D02*
D03*
X40079Y38576D02*
D03*
X39882D02*
D03*
X39488D02*
D03*
X39291D02*
D03*
X24646Y38905D02*
D03*
X24449D02*
D03*
X24055D02*
D03*
X23858D02*
D03*
X24646Y38576D02*
D03*
X24449D02*
D03*
X24055D02*
D03*
X23858D02*
D03*
X9213Y38905D02*
D03*
X9016D02*
D03*
X8622D02*
D03*
X8425D02*
D03*
X9213Y38576D02*
D03*
X9016D02*
D03*
X8622D02*
D03*
X8425D02*
D03*
X41339Y38905D02*
D03*
X41142D02*
D03*
X40748D02*
D03*
X40551D02*
D03*
X41339Y38576D02*
D03*
X41142D02*
D03*
X40748D02*
D03*
X40551D02*
D03*
X25906Y38905D02*
D03*
X25709D02*
D03*
X25315D02*
D03*
X25118D02*
D03*
X25906Y38576D02*
D03*
X25709D02*
D03*
X25315D02*
D03*
X25118D02*
D03*
X10472Y38905D02*
D03*
X10276D02*
D03*
X9882D02*
D03*
X9685D02*
D03*
X10472Y38576D02*
D03*
X10276D02*
D03*
X9882D02*
D03*
X9685D02*
D03*
X34759Y8835D02*
D03*
X34956D02*
D03*
X35349D02*
D03*
X35546D02*
D03*
X34759Y9164D02*
D03*
X34956D02*
D03*
X35349D02*
D03*
X35546D02*
D03*
X32362Y38905D02*
D03*
X32165D02*
D03*
X31772D02*
D03*
X31575D02*
D03*
X32362Y38576D02*
D03*
X32165D02*
D03*
X31772D02*
D03*
X31575D02*
D03*
X16929Y38905D02*
D03*
X16732D02*
D03*
X16339D02*
D03*
X16142D02*
D03*
X16929Y38576D02*
D03*
X16732D02*
D03*
X16339D02*
D03*
X16142D02*
D03*
X1496Y38905D02*
D03*
X1299D02*
D03*
X906D02*
D03*
X709D02*
D03*
X1496Y38576D02*
D03*
X1299D02*
D03*
X906D02*
D03*
X709D02*
D03*
X33622Y38905D02*
D03*
X33425D02*
D03*
X33031D02*
D03*
X32835D02*
D03*
X33622Y38576D02*
D03*
X33425D02*
D03*
X33031D02*
D03*
X32835D02*
D03*
X18189Y38905D02*
D03*
X17992D02*
D03*
X17598D02*
D03*
X17402D02*
D03*
X18189Y38576D02*
D03*
X17992D02*
D03*
X17598D02*
D03*
X17402D02*
D03*
X2756Y38905D02*
D03*
X2559D02*
D03*
X2165D02*
D03*
X1968D02*
D03*
X2756Y38576D02*
D03*
X2559D02*
D03*
X2165D02*
D03*
X1968D02*
D03*
X34882Y38905D02*
D03*
X34685D02*
D03*
X34291D02*
D03*
X34094D02*
D03*
X34882Y38576D02*
D03*
X34685D02*
D03*
X34291D02*
D03*
X34094D02*
D03*
X19449Y38905D02*
D03*
X19252D02*
D03*
X18858D02*
D03*
X18661D02*
D03*
X19449Y38576D02*
D03*
X19252D02*
D03*
X18858D02*
D03*
X18661D02*
D03*
X4016Y38905D02*
D03*
X3819D02*
D03*
X3425D02*
D03*
X3228D02*
D03*
X4016Y38576D02*
D03*
X3819D02*
D03*
X3425D02*
D03*
X3228D02*
D03*
X6357Y2629D02*
D03*
X6160D02*
D03*
X5766D02*
D03*
X5569D02*
D03*
X6357Y2300D02*
D03*
X6160D02*
D03*
X5766D02*
D03*
X5569D02*
D03*
D176*
X42205Y38905D02*
D03*
Y38576D02*
D03*
X26772Y38905D02*
D03*
Y38576D02*
D03*
X11339Y38905D02*
D03*
Y38576D02*
D03*
X39685Y38905D02*
D03*
Y38576D02*
D03*
X24252Y38905D02*
D03*
Y38576D02*
D03*
X8819Y38905D02*
D03*
Y38576D02*
D03*
X40945Y38905D02*
D03*
Y38576D02*
D03*
X25512Y38905D02*
D03*
Y38576D02*
D03*
X10079Y38905D02*
D03*
Y38576D02*
D03*
X35153Y8835D02*
D03*
Y9164D02*
D03*
X31969Y38905D02*
D03*
Y38576D02*
D03*
X16535Y38905D02*
D03*
Y38576D02*
D03*
X1102Y38905D02*
D03*
Y38576D02*
D03*
X33228Y38905D02*
D03*
Y38576D02*
D03*
X17795Y38905D02*
D03*
Y38576D02*
D03*
X2362Y38905D02*
D03*
Y38576D02*
D03*
X34488Y38905D02*
D03*
Y38576D02*
D03*
X19055Y38905D02*
D03*
Y38576D02*
D03*
X3622Y38905D02*
D03*
Y38576D02*
D03*
X5963Y2629D02*
D03*
Y2300D02*
D03*
D177*
X38563Y38957D02*
D03*
X36634D02*
D03*
X22618Y42226D02*
D03*
X20688D02*
D03*
X20688Y40488D02*
D03*
X22617D02*
D03*
X4744Y38957D02*
D03*
X6673D02*
D03*
X39719Y18613D02*
D03*
X37790D02*
D03*
D178*
X12992Y40571D02*
D03*
Y42500D02*
D03*
X30315Y40571D02*
D03*
Y42500D02*
D03*
X12290Y7645D02*
D03*
Y9575D02*
D03*
D179*
X10287Y16144D02*
D03*
X9933D02*
D03*
Y16696D02*
D03*
X10287D02*
D03*
X22738Y4871D02*
D03*
X23093D02*
D03*
Y4320D02*
D03*
X22738D02*
D03*
D180*
X8001Y4279D02*
D03*
X8749D02*
D03*
X8375Y5066D02*
D03*
X12286Y4495D02*
D03*
X13034D02*
D03*
X12660Y5282D02*
D03*
D181*
X15125Y6847D02*
D03*
Y8894D02*
D03*
D182*
X19220Y4020D02*
D03*
X18080D02*
D03*
X19220Y3090D02*
D03*
X18080D02*
D03*
D183*
X15853Y5371D02*
D03*
Y4231D02*
D03*
X14889Y5381D02*
D03*
Y4241D02*
D03*
X13919Y5381D02*
D03*
Y4241D02*
D03*
X41542Y23921D02*
D03*
Y22781D02*
D03*
D184*
X5620Y19460D02*
D03*
X5373Y19707D02*
D03*
D185*
X5754Y21173D02*
D03*
X5506Y20926D02*
D03*
D186*
X40635Y4980D02*
D03*
X42210D02*
D03*
X32197D02*
D03*
X30623D02*
D03*
D187*
X32740Y16931D02*
D03*
Y15573D02*
D03*
X36046Y16929D02*
D03*
Y15571D02*
D03*
D188*
X33075Y16872D02*
D03*
Y15632D02*
D03*
X32406D02*
D03*
Y16872D02*
D03*
X36381Y16870D02*
D03*
Y15630D02*
D03*
X35712D02*
D03*
Y16870D02*
D03*
D189*
X6682Y30456D02*
D03*
X5934D02*
D03*
X6682Y31479D02*
D03*
X6308D02*
D03*
X5934D02*
D03*
X20855Y30456D02*
D03*
X20107D02*
D03*
X20855Y31479D02*
D03*
X20481D02*
D03*
X20107D02*
D03*
X35029Y30456D02*
D03*
X34281D02*
D03*
X35029Y31479D02*
D03*
X34655D02*
D03*
X34281D02*
D03*
X4816Y30456D02*
D03*
X4068D02*
D03*
X4816Y31479D02*
D03*
X4442D02*
D03*
X4068D02*
D03*
X18990Y30456D02*
D03*
X18242D02*
D03*
X18990Y31479D02*
D03*
X18616D02*
D03*
X18242D02*
D03*
X33163Y30456D02*
D03*
X32415D02*
D03*
X33163Y31479D02*
D03*
X32789D02*
D03*
X32415D02*
D03*
D190*
X8337Y2302D02*
D03*
Y727D02*
D03*
D191*
X5287Y1623D02*
D03*
X5543D02*
D03*
X5799D02*
D03*
X6055D02*
D03*
X6311D02*
D03*
D192*
X6272Y570D02*
D03*
X5327D02*
D03*
D193*
X7059Y1535D02*
D03*
X4539D02*
D03*
D194*
X18987Y8765D02*
D03*
X30798Y20576D02*
D03*
X41339Y7874D02*
D03*
Y19685D02*
D03*
X37402Y41339D02*
D03*
X5906D02*
D03*
X41339Y1969D02*
D03*
X1969D02*
D03*
D195*
X4536Y4588D02*
D03*
Y6438D02*
D03*
Y8289D02*
D03*
X2635Y6438D02*
D03*
Y8289D02*
D03*
D196*
Y4588D02*
D03*
D197*
X19401Y981D02*
D03*
X30837Y9175D02*
D03*
X28740Y39961D02*
D03*
X14567D02*
D03*
X4104Y21056D02*
D03*
D198*
X20820Y23295D02*
D03*
X20111D02*
D03*
X16904Y16123D02*
D03*
X17612D02*
D03*
X14945Y16145D02*
D03*
X15654D02*
D03*
X15338Y11178D02*
D03*
Y10470D02*
D03*
D199*
X39518Y5494D02*
D03*
X33317D02*
D03*
D200*
X38667Y4293D02*
D03*
X34167D02*
D03*
D201*
X38907Y2970D02*
D03*
X37907Y2301D02*
D03*
X34927Y2970D02*
D03*
X33927Y2293D02*
D03*
D202*
X38167Y7801D02*
D03*
X37167D02*
D03*
X36167D02*
D03*
X35167D02*
D03*
X37667Y6801D02*
D03*
X36667D02*
D03*
X35667D02*
D03*
D203*
X34667D02*
D03*
D204*
X39528Y39764D02*
D03*
X24094Y39764D02*
D03*
X8661Y39764D02*
D03*
X31811Y39764D02*
D03*
X16378Y39764D02*
D03*
X945Y39764D02*
D03*
D205*
X42571Y40256D02*
D03*
X39319D02*
D03*
X39177Y42598D02*
D03*
X42713D02*
D03*
X27138Y40256D02*
D03*
X23886D02*
D03*
X23744Y42598D02*
D03*
X27280D02*
D03*
X11705Y40256D02*
D03*
X8453D02*
D03*
X8311Y42598D02*
D03*
X11846D02*
D03*
X34854Y40256D02*
D03*
X31602D02*
D03*
X31461Y42598D02*
D03*
X34996D02*
D03*
X19421Y40256D02*
D03*
X16169D02*
D03*
X16028Y42598D02*
D03*
X19563D02*
D03*
X3988Y40256D02*
D03*
X736D02*
D03*
X594Y42598D02*
D03*
X4130D02*
D03*
D206*
X42362Y39764D02*
D03*
X26929Y39764D02*
D03*
X11496Y39764D02*
D03*
X34646Y39764D02*
D03*
X19213Y39764D02*
D03*
X3779Y39764D02*
D03*
D207*
X29520Y4309D02*
D03*
D208*
X27630Y3029D02*
D03*
Y5490D02*
D03*
D209*
X42232Y17280D02*
D03*
X41232Y10280D02*
D03*
X42232D02*
D03*
X41232Y11280D02*
D03*
X42232D02*
D03*
X41232Y12280D02*
D03*
X42232D02*
D03*
X41232Y13280D02*
D03*
X42232D02*
D03*
X41232Y14280D02*
D03*
X42232D02*
D03*
X41232Y15280D02*
D03*
X42232D02*
D03*
X41232Y16280D02*
D03*
X42232D02*
D03*
X16063Y25503D02*
D03*
X15063Y21503D02*
D03*
X16063D02*
D03*
X15063Y22503D02*
D03*
X16063D02*
D03*
X15063Y23503D02*
D03*
X16063D02*
D03*
X15063Y24503D02*
D03*
X16063D02*
D03*
D210*
X41232Y17280D02*
D03*
X15063Y25503D02*
D03*
D211*
X7098Y570D02*
D03*
X4500D02*
D03*
D212*
X40230Y25571D02*
D03*
Y26571D02*
D03*
X38230D02*
D03*
X40230Y24571D02*
D03*
Y23571D02*
D03*
X38230Y25571D02*
D03*
Y24571D02*
D03*
Y23571D02*
D03*
Y22571D02*
D03*
X36649Y25571D02*
D03*
Y26571D02*
D03*
X34649D02*
D03*
X36649Y24571D02*
D03*
Y23571D02*
D03*
X34649Y25571D02*
D03*
Y24571D02*
D03*
Y23571D02*
D03*
Y22571D02*
D03*
D213*
X40230D02*
D03*
X36649D02*
D03*
D214*
X16198Y2018D02*
D03*
D215*
X14229D02*
D03*
D216*
X35679Y18865D02*
D03*
Y19246D02*
D03*
X36061D02*
D03*
X35679Y19628D02*
D03*
X35297Y19246D02*
D03*
D217*
X29261Y33733D02*
D03*
X29812D02*
D03*
X29261Y34127D02*
D03*
X29812D02*
D03*
X15088Y33733D02*
D03*
X15639D02*
D03*
X15088Y34127D02*
D03*
X15639D02*
D03*
X914Y33733D02*
D03*
X1466D02*
D03*
X914Y34127D02*
D03*
X1466D02*
D03*
X36347Y33733D02*
D03*
X36899D02*
D03*
X36347Y34127D02*
D03*
X36899D02*
D03*
X22174Y33733D02*
D03*
X22725D02*
D03*
X22174Y34127D02*
D03*
X22725D02*
D03*
X8001Y33733D02*
D03*
X8552D02*
D03*
X8001Y34127D02*
D03*
X8552D02*
D03*
D218*
X21439Y25261D02*
D03*
X21872D02*
D03*
X21439Y24828D02*
D03*
X21872D02*
D03*
X25887Y25261D02*
D03*
X26320D02*
D03*
X25887Y24828D02*
D03*
X26320D02*
D03*
D219*
X34949Y11748D02*
D03*
Y12142D02*
D03*
X34555D02*
D03*
Y11748D02*
D03*
Y11355D02*
D03*
X34949D02*
D03*
X35342D02*
D03*
Y11748D02*
D03*
Y12142D02*
D03*
M02*
