M48
;Layer_Color=9474304
;FILE_FORMAT=2:4
INCH,LZ
;TYPE=PLATED
T2F00S00C0.0197
T3F00S00C0.0197
T4F00S00C0.0256
T6F00S00C0.0315
;TYPE=NON_PLATED
%
G90
G05
T02
G00X0045Y000708
M15
G01Y000432
M16
G00X007098Y000432
M15
G01Y000708
M16
T03
G00X000736Y040374
M15
G01Y040138
M16
G00X000594Y042716
M15
G01Y04248
M16
G00X00413Y042716
M15
G01Y04248
M16
G00X003988Y040374
M15
G01Y040138
M16
G00X008453Y040374
M15
G01Y040138
M16
G00X008311Y042716
M15
G01Y04248
M16
G00X011846Y042716
M15
G01Y04248
M16
G00X011705Y040374
M15
G01Y040138
M16
G00X016169Y040374
M15
G01Y040138
M16
G00X016028Y042717
M15
G01Y04248
M16
G00X019563Y042717
M15
G01Y04248
M16
G00X019421Y040374
M15
G01Y040138
M16
G00X023886Y040374
M15
G01Y040138
M16
G00X023744Y042717
M15
G01Y04248
M16
G00X02728Y042717
M15
G01Y04248
M16
G00X027138Y040374
M15
G01Y040138
M16
G00X031602Y040374
M15
G01Y040138
M16
G00X031461Y042716
M15
G01Y04248
M16
G00X034996Y042716
M15
G01Y04248
M16
G00X034854Y040374
M15
G01Y040138
M16
G00X039319Y040374
M15
G01Y040138
M16
G00X039177Y042716
M15
G01Y04248
M16
G00X042713Y042716
M15
G01Y04248
M16
G00X042571Y040374
M15
G01Y040138
M16
T04
G00X000886Y039764
M15
G01X001004
M16
G00X008602Y039764
M15
G01X00872
M16
G00X016319Y039764
M15
G01X016437
M16
G00X024035Y039764
M15
G01X024154
M16
G00X031752Y039764
M15
G01X03187
M16
G00X039469Y039764
M15
G01X039587
M16
T06
G00X02952Y003718
M15
G01Y004899
M16
G00X027039Y003029
M15
G01X028221
M16
G00X027039Y00549
M15
G01X028221
M16
M17
M30
