G04*
G04 #@! TF.GenerationSoftware,Altium Limited,Altium Designer,20.1.11 (218)*
G04*
G04 Layer_Color=8388736*
%FSLAX24Y24*%
%MOIN*%
G70*
G04*
G04 #@! TF.SameCoordinates,92D26CB7-C01A-42DE-83F2-B7204DD2D48F*
G04*
G04*
G04 #@! TF.FilePolarity,Negative*
G04*
G01*
G75*
%ADD13C,0.0200*%
%ADD163R,0.0935X0.0935*%
%ADD164R,0.1644X0.0935*%
%ADD165R,0.0512X0.0650*%
%ADD166C,0.1181*%
G04:AMPARAMS|DCode=167|XSize=48.8mil|YSize=52.8mil|CornerRadius=7.1mil|HoleSize=0mil|Usage=FLASHONLY|Rotation=320.000|XOffset=0mil|YOffset=0mil|HoleType=Round|Shape=RoundedRectangle|*
%AMROUNDEDRECTD167*
21,1,0.0488,0.0386,0,0,320.0*
21,1,0.0346,0.0528,0,0,320.0*
1,1,0.0142,0.0009,-0.0259*
1,1,0.0142,-0.0257,-0.0036*
1,1,0.0142,-0.0009,0.0259*
1,1,0.0142,0.0257,0.0036*
%
%ADD167ROUNDEDRECTD167*%
G04:AMPARAMS|DCode=168|XSize=23.9mil|YSize=23.9mil|CornerRadius=8mil|HoleSize=0mil|Usage=FLASHONLY|Rotation=180.000|XOffset=0mil|YOffset=0mil|HoleType=Round|Shape=RoundedRectangle|*
%AMROUNDEDRECTD168*
21,1,0.0239,0.0080,0,0,180.0*
21,1,0.0080,0.0239,0,0,180.0*
1,1,0.0159,-0.0040,0.0040*
1,1,0.0159,0.0040,0.0040*
1,1,0.0159,0.0040,-0.0040*
1,1,0.0159,-0.0040,-0.0040*
%
%ADD168ROUNDEDRECTD168*%
G04:AMPARAMS|DCode=169|XSize=11.8mil|YSize=26.2mil|CornerRadius=3.2mil|HoleSize=0mil|Usage=FLASHONLY|Rotation=90.000|XOffset=0mil|YOffset=0mil|HoleType=Round|Shape=RoundedRectangle|*
%AMROUNDEDRECTD169*
21,1,0.0118,0.0199,0,0,90.0*
21,1,0.0055,0.0262,0,0,90.0*
1,1,0.0063,0.0099,0.0028*
1,1,0.0063,0.0099,-0.0028*
1,1,0.0063,-0.0099,-0.0028*
1,1,0.0063,-0.0099,0.0028*
%
%ADD169ROUNDEDRECTD169*%
G04:AMPARAMS|DCode=170|XSize=19.7mil|YSize=26.2mil|CornerRadius=3.2mil|HoleSize=0mil|Usage=FLASHONLY|Rotation=90.000|XOffset=0mil|YOffset=0mil|HoleType=Round|Shape=RoundedRectangle|*
%AMROUNDEDRECTD170*
21,1,0.0197,0.0197,0,0,90.0*
21,1,0.0132,0.0262,0,0,90.0*
1,1,0.0065,0.0099,0.0066*
1,1,0.0065,0.0099,-0.0066*
1,1,0.0065,-0.0099,-0.0066*
1,1,0.0065,-0.0099,0.0066*
%
%ADD170ROUNDEDRECTD170*%
G04:AMPARAMS|DCode=171|XSize=23.9mil|YSize=23.9mil|CornerRadius=8mil|HoleSize=0mil|Usage=FLASHONLY|Rotation=90.000|XOffset=0mil|YOffset=0mil|HoleType=Round|Shape=RoundedRectangle|*
%AMROUNDEDRECTD171*
21,1,0.0239,0.0080,0,0,90.0*
21,1,0.0080,0.0239,0,0,90.0*
1,1,0.0159,0.0040,0.0040*
1,1,0.0159,0.0040,-0.0040*
1,1,0.0159,-0.0040,-0.0040*
1,1,0.0159,-0.0040,0.0040*
%
%ADD171ROUNDEDRECTD171*%
G04:AMPARAMS|DCode=172|XSize=11.8mil|YSize=26.2mil|CornerRadius=3.2mil|HoleSize=0mil|Usage=FLASHONLY|Rotation=0.000|XOffset=0mil|YOffset=0mil|HoleType=Round|Shape=RoundedRectangle|*
%AMROUNDEDRECTD172*
21,1,0.0118,0.0199,0,0,0.0*
21,1,0.0055,0.0262,0,0,0.0*
1,1,0.0063,0.0028,-0.0099*
1,1,0.0063,-0.0028,-0.0099*
1,1,0.0063,-0.0028,0.0099*
1,1,0.0063,0.0028,0.0099*
%
%ADD172ROUNDEDRECTD172*%
G04:AMPARAMS|DCode=173|XSize=19.7mil|YSize=26.2mil|CornerRadius=3.2mil|HoleSize=0mil|Usage=FLASHONLY|Rotation=0.000|XOffset=0mil|YOffset=0mil|HoleType=Round|Shape=RoundedRectangle|*
%AMROUNDEDRECTD173*
21,1,0.0197,0.0197,0,0,0.0*
21,1,0.0132,0.0262,0,0,0.0*
1,1,0.0065,0.0066,-0.0099*
1,1,0.0065,-0.0066,-0.0099*
1,1,0.0065,-0.0066,0.0099*
1,1,0.0065,0.0066,0.0099*
%
%ADD173ROUNDEDRECTD173*%
G04:AMPARAMS|DCode=174|XSize=19.7mil|YSize=57.1mil|CornerRadius=5.9mil|HoleSize=0mil|Usage=FLASHONLY|Rotation=180.000|XOffset=0mil|YOffset=0mil|HoleType=Round|Shape=RoundedRectangle|*
%AMROUNDEDRECTD174*
21,1,0.0197,0.0453,0,0,180.0*
21,1,0.0079,0.0571,0,0,180.0*
1,1,0.0118,-0.0039,0.0226*
1,1,0.0118,0.0039,0.0226*
1,1,0.0118,0.0039,-0.0226*
1,1,0.0118,-0.0039,-0.0226*
%
%ADD174ROUNDEDRECTD174*%
%ADD175R,0.0630X0.0650*%
%ADD176R,0.1732X0.1732*%
G04:AMPARAMS|DCode=177|XSize=11.8mil|YSize=37.4mil|CornerRadius=2.8mil|HoleSize=0mil|Usage=FLASHONLY|Rotation=180.000|XOffset=0mil|YOffset=0mil|HoleType=Round|Shape=RoundedRectangle|*
%AMROUNDEDRECTD177*
21,1,0.0118,0.0319,0,0,180.0*
21,1,0.0063,0.0374,0,0,180.0*
1,1,0.0055,-0.0032,0.0159*
1,1,0.0055,0.0032,0.0159*
1,1,0.0055,0.0032,-0.0159*
1,1,0.0055,-0.0032,-0.0159*
%
%ADD177ROUNDEDRECTD177*%
G04:AMPARAMS|DCode=178|XSize=11.8mil|YSize=37.4mil|CornerRadius=2.8mil|HoleSize=0mil|Usage=FLASHONLY|Rotation=90.000|XOffset=0mil|YOffset=0mil|HoleType=Round|Shape=RoundedRectangle|*
%AMROUNDEDRECTD178*
21,1,0.0118,0.0319,0,0,90.0*
21,1,0.0063,0.0374,0,0,90.0*
1,1,0.0055,0.0159,0.0032*
1,1,0.0055,0.0159,-0.0032*
1,1,0.0055,-0.0159,-0.0032*
1,1,0.0055,-0.0159,0.0032*
%
%ADD178ROUNDEDRECTD178*%
G04:AMPARAMS|DCode=179|XSize=58.9mil|YSize=46.9mil|CornerRadius=9.9mil|HoleSize=0mil|Usage=FLASHONLY|Rotation=180.000|XOffset=0mil|YOffset=0mil|HoleType=Round|Shape=RoundedRectangle|*
%AMROUNDEDRECTD179*
21,1,0.0589,0.0271,0,0,180.0*
21,1,0.0391,0.0469,0,0,180.0*
1,1,0.0198,-0.0195,0.0135*
1,1,0.0198,0.0195,0.0135*
1,1,0.0198,0.0195,-0.0135*
1,1,0.0198,-0.0195,-0.0135*
%
%ADD179ROUNDEDRECTD179*%
%ADD180R,0.0177X0.0187*%
%ADD181R,0.0197X0.0866*%
%ADD182R,0.0449X0.0909*%
%ADD183R,0.0429X0.0449*%
G04:AMPARAMS|DCode=184|XSize=43.4mil|YSize=112.3mil|CornerRadius=5.9mil|HoleSize=0mil|Usage=FLASHONLY|Rotation=270.000|XOffset=0mil|YOffset=0mil|HoleType=Round|Shape=RoundedRectangle|*
%AMROUNDEDRECTD184*
21,1,0.0434,0.1004,0,0,270.0*
21,1,0.0315,0.1123,0,0,270.0*
1,1,0.0119,-0.0502,-0.0157*
1,1,0.0119,-0.0502,0.0157*
1,1,0.0119,0.0502,0.0157*
1,1,0.0119,0.0502,-0.0157*
%
%ADD184ROUNDEDRECTD184*%
G04:AMPARAMS|DCode=185|XSize=40.6mil|YSize=11.8mil|CornerRadius=2.4mil|HoleSize=0mil|Usage=FLASHONLY|Rotation=0.000|XOffset=0mil|YOffset=0mil|HoleType=Round|Shape=RoundedRectangle|*
%AMROUNDEDRECTD185*
21,1,0.0406,0.0069,0,0,0.0*
21,1,0.0357,0.0118,0,0,0.0*
1,1,0.0049,0.0178,-0.0035*
1,1,0.0049,-0.0178,-0.0035*
1,1,0.0049,-0.0178,0.0035*
1,1,0.0049,0.0178,0.0035*
%
%ADD185ROUNDEDRECTD185*%
G04:AMPARAMS|DCode=186|XSize=40.6mil|YSize=11.8mil|CornerRadius=2.4mil|HoleSize=0mil|Usage=FLASHONLY|Rotation=90.000|XOffset=0mil|YOffset=0mil|HoleType=Round|Shape=RoundedRectangle|*
%AMROUNDEDRECTD186*
21,1,0.0406,0.0069,0,0,90.0*
21,1,0.0357,0.0118,0,0,90.0*
1,1,0.0049,0.0035,0.0178*
1,1,0.0049,0.0035,-0.0178*
1,1,0.0049,-0.0035,-0.0178*
1,1,0.0049,-0.0035,0.0178*
%
%ADD186ROUNDEDRECTD186*%
%ADD187R,0.1709X0.1709*%
%ADD188R,0.0167X0.0197*%
%ADD189R,0.0118X0.0197*%
G04:AMPARAMS|DCode=190|XSize=58.9mil|YSize=46.9mil|CornerRadius=9.9mil|HoleSize=0mil|Usage=FLASHONLY|Rotation=270.000|XOffset=0mil|YOffset=0mil|HoleType=Round|Shape=RoundedRectangle|*
%AMROUNDEDRECTD190*
21,1,0.0589,0.0271,0,0,270.0*
21,1,0.0391,0.0469,0,0,270.0*
1,1,0.0198,-0.0135,-0.0195*
1,1,0.0198,-0.0135,0.0195*
1,1,0.0198,0.0135,0.0195*
1,1,0.0198,0.0135,-0.0195*
%
%ADD190ROUNDEDRECTD190*%
G04:AMPARAMS|DCode=191|XSize=45.7mil|YSize=75.6mil|CornerRadius=6.8mil|HoleSize=0mil|Usage=FLASHONLY|Rotation=270.000|XOffset=0mil|YOffset=0mil|HoleType=Round|Shape=RoundedRectangle|*
%AMROUNDEDRECTD191*
21,1,0.0457,0.0620,0,0,270.0*
21,1,0.0321,0.0756,0,0,270.0*
1,1,0.0135,-0.0310,-0.0161*
1,1,0.0135,-0.0310,0.0161*
1,1,0.0135,0.0310,0.0161*
1,1,0.0135,0.0310,-0.0161*
%
%ADD191ROUNDEDRECTD191*%
G04:AMPARAMS|DCode=192|XSize=27.6mil|YSize=29.5mil|CornerRadius=4.3mil|HoleSize=0mil|Usage=FLASHONLY|Rotation=270.000|XOffset=0mil|YOffset=0mil|HoleType=Round|Shape=RoundedRectangle|*
%AMROUNDEDRECTD192*
21,1,0.0276,0.0209,0,0,270.0*
21,1,0.0189,0.0295,0,0,270.0*
1,1,0.0087,-0.0104,-0.0094*
1,1,0.0087,-0.0104,0.0094*
1,1,0.0087,0.0104,0.0094*
1,1,0.0087,0.0104,-0.0094*
%
%ADD192ROUNDEDRECTD192*%
G04:AMPARAMS|DCode=193|XSize=31.5mil|YSize=17.7mil|CornerRadius=3.3mil|HoleSize=0mil|Usage=FLASHONLY|Rotation=90.000|XOffset=0mil|YOffset=0mil|HoleType=Round|Shape=RoundedRectangle|*
%AMROUNDEDRECTD193*
21,1,0.0315,0.0110,0,0,90.0*
21,1,0.0248,0.0177,0,0,90.0*
1,1,0.0067,0.0055,0.0124*
1,1,0.0067,0.0055,-0.0124*
1,1,0.0067,-0.0055,-0.0124*
1,1,0.0067,-0.0055,0.0124*
%
%ADD193ROUNDEDRECTD193*%
%ADD194R,0.0370X0.0370*%
G04:AMPARAMS|DCode=195|XSize=30.3mil|YSize=39mil|CornerRadius=4mil|HoleSize=0mil|Usage=FLASHONLY|Rotation=270.000|XOffset=0mil|YOffset=0mil|HoleType=Round|Shape=RoundedRectangle|*
%AMROUNDEDRECTD195*
21,1,0.0303,0.0310,0,0,270.0*
21,1,0.0223,0.0390,0,0,270.0*
1,1,0.0080,-0.0155,-0.0112*
1,1,0.0080,-0.0155,0.0112*
1,1,0.0080,0.0155,0.0112*
1,1,0.0080,0.0155,-0.0112*
%
%ADD195ROUNDEDRECTD195*%
G04:AMPARAMS|DCode=196|XSize=21.7mil|YSize=63mil|CornerRadius=3.7mil|HoleSize=0mil|Usage=FLASHONLY|Rotation=180.000|XOffset=0mil|YOffset=0mil|HoleType=Round|Shape=RoundedRectangle|*
%AMROUNDEDRECTD196*
21,1,0.0217,0.0555,0,0,180.0*
21,1,0.0142,0.0630,0,0,180.0*
1,1,0.0075,-0.0071,0.0278*
1,1,0.0075,0.0071,0.0278*
1,1,0.0075,0.0071,-0.0278*
1,1,0.0075,-0.0071,-0.0278*
%
%ADD196ROUNDEDRECTD196*%
%ADD197R,0.1043X0.1043*%
%ADD198R,0.0157X0.0315*%
%ADD199R,0.0315X0.0157*%
G04:AMPARAMS|DCode=200|XSize=23.9mil|YSize=23.9mil|CornerRadius=8mil|HoleSize=0mil|Usage=FLASHONLY|Rotation=140.000|XOffset=0mil|YOffset=0mil|HoleType=Round|Shape=RoundedRectangle|*
%AMROUNDEDRECTD200*
21,1,0.0239,0.0080,0,0,140.0*
21,1,0.0080,0.0239,0,0,140.0*
1,1,0.0159,-0.0005,0.0056*
1,1,0.0159,0.0056,0.0005*
1,1,0.0159,0.0005,-0.0056*
1,1,0.0159,-0.0056,-0.0005*
%
%ADD200ROUNDEDRECTD200*%
G04:AMPARAMS|DCode=201|XSize=38.9mil|YSize=37.9mil|CornerRadius=7.9mil|HoleSize=0mil|Usage=FLASHONLY|Rotation=180.000|XOffset=0mil|YOffset=0mil|HoleType=Round|Shape=RoundedRectangle|*
%AMROUNDEDRECTD201*
21,1,0.0389,0.0221,0,0,180.0*
21,1,0.0231,0.0379,0,0,180.0*
1,1,0.0158,-0.0116,0.0111*
1,1,0.0158,0.0116,0.0111*
1,1,0.0158,0.0116,-0.0111*
1,1,0.0158,-0.0116,-0.0111*
%
%ADD201ROUNDEDRECTD201*%
G04:AMPARAMS|DCode=202|XSize=102.4mil|YSize=63mil|CornerRadius=13.8mil|HoleSize=0mil|Usage=FLASHONLY|Rotation=180.000|XOffset=0mil|YOffset=0mil|HoleType=Round|Shape=RoundedRectangle|*
%AMROUNDEDRECTD202*
21,1,0.1024,0.0354,0,0,180.0*
21,1,0.0748,0.0630,0,0,180.0*
1,1,0.0276,-0.0374,0.0177*
1,1,0.0276,0.0374,0.0177*
1,1,0.0276,0.0374,-0.0177*
1,1,0.0276,-0.0374,-0.0177*
%
%ADD202ROUNDEDRECTD202*%
G04:AMPARAMS|DCode=203|XSize=29.1mil|YSize=62.6mil|CornerRadius=6.3mil|HoleSize=0mil|Usage=FLASHONLY|Rotation=0.000|XOffset=0mil|YOffset=0mil|HoleType=Round|Shape=RoundedRectangle|*
%AMROUNDEDRECTD203*
21,1,0.0291,0.0500,0,0,0.0*
21,1,0.0165,0.0626,0,0,0.0*
1,1,0.0126,0.0083,-0.0250*
1,1,0.0126,-0.0083,-0.0250*
1,1,0.0126,-0.0083,0.0250*
1,1,0.0126,0.0083,0.0250*
%
%ADD203ROUNDEDRECTD203*%
%ADD204R,0.0246X0.0157*%
%ADD205R,0.0157X0.0246*%
%ADD206R,0.0370X0.0370*%
G04:AMPARAMS|DCode=207|XSize=76.4mil|YSize=44.9mil|CornerRadius=6.7mil|HoleSize=0mil|Usage=FLASHONLY|Rotation=0.000|XOffset=0mil|YOffset=0mil|HoleType=Round|Shape=RoundedRectangle|*
%AMROUNDEDRECTD207*
21,1,0.0764,0.0315,0,0,0.0*
21,1,0.0630,0.0449,0,0,0.0*
1,1,0.0134,0.0315,-0.0157*
1,1,0.0134,-0.0315,-0.0157*
1,1,0.0134,-0.0315,0.0157*
1,1,0.0134,0.0315,0.0157*
%
%ADD207ROUNDEDRECTD207*%
G04:AMPARAMS|DCode=208|XSize=31.5mil|YSize=17.7mil|CornerRadius=3.3mil|HoleSize=0mil|Usage=FLASHONLY|Rotation=0.000|XOffset=0mil|YOffset=0mil|HoleType=Round|Shape=RoundedRectangle|*
%AMROUNDEDRECTD208*
21,1,0.0315,0.0110,0,0,0.0*
21,1,0.0248,0.0177,0,0,0.0*
1,1,0.0067,0.0124,-0.0055*
1,1,0.0067,-0.0124,-0.0055*
1,1,0.0067,-0.0124,0.0055*
1,1,0.0067,0.0124,0.0055*
%
%ADD208ROUNDEDRECTD208*%
G04:AMPARAMS|DCode=209|XSize=27.6mil|YSize=29.5mil|CornerRadius=4.3mil|HoleSize=0mil|Usage=FLASHONLY|Rotation=0.000|XOffset=0mil|YOffset=0mil|HoleType=Round|Shape=RoundedRectangle|*
%AMROUNDEDRECTD209*
21,1,0.0276,0.0209,0,0,0.0*
21,1,0.0189,0.0295,0,0,0.0*
1,1,0.0087,0.0094,-0.0104*
1,1,0.0087,-0.0094,-0.0104*
1,1,0.0087,-0.0094,0.0104*
1,1,0.0087,0.0094,0.0104*
%
%ADD209ROUNDEDRECTD209*%
G04:AMPARAMS|DCode=210|XSize=15.7mil|YSize=35.4mil|CornerRadius=3.2mil|HoleSize=0mil|Usage=FLASHONLY|Rotation=180.000|XOffset=0mil|YOffset=0mil|HoleType=Round|Shape=RoundedRectangle|*
%AMROUNDEDRECTD210*
21,1,0.0157,0.0291,0,0,180.0*
21,1,0.0094,0.0354,0,0,180.0*
1,1,0.0063,-0.0047,0.0146*
1,1,0.0063,0.0047,0.0146*
1,1,0.0063,0.0047,-0.0146*
1,1,0.0063,-0.0047,-0.0146*
%
%ADD210ROUNDEDRECTD210*%
G04:AMPARAMS|DCode=211|XSize=102.4mil|YSize=63mil|CornerRadius=13.8mil|HoleSize=0mil|Usage=FLASHONLY|Rotation=90.000|XOffset=0mil|YOffset=0mil|HoleType=Round|Shape=RoundedRectangle|*
%AMROUNDEDRECTD211*
21,1,0.1024,0.0354,0,0,90.0*
21,1,0.0748,0.0630,0,0,90.0*
1,1,0.0276,0.0177,0.0374*
1,1,0.0276,0.0177,-0.0374*
1,1,0.0276,-0.0177,-0.0374*
1,1,0.0276,-0.0177,0.0374*
%
%ADD211ROUNDEDRECTD211*%
G04:AMPARAMS|DCode=212|XSize=19.7mil|YSize=39.4mil|CornerRadius=2.8mil|HoleSize=0mil|Usage=FLASHONLY|Rotation=0.000|XOffset=0mil|YOffset=0mil|HoleType=Round|Shape=RoundedRectangle|*
%AMROUNDEDRECTD212*
21,1,0.0197,0.0339,0,0,0.0*
21,1,0.0142,0.0394,0,0,0.0*
1,1,0.0055,0.0071,-0.0169*
1,1,0.0055,-0.0071,-0.0169*
1,1,0.0055,-0.0071,0.0169*
1,1,0.0055,0.0071,0.0169*
%
%ADD212ROUNDEDRECTD212*%
G04:AMPARAMS|DCode=213|XSize=37mil|YSize=17.3mil|CornerRadius=3.9mil|HoleSize=0mil|Usage=FLASHONLY|Rotation=180.000|XOffset=0mil|YOffset=0mil|HoleType=Round|Shape=RoundedRectangle|*
%AMROUNDEDRECTD213*
21,1,0.0370,0.0094,0,0,180.0*
21,1,0.0291,0.0173,0,0,180.0*
1,1,0.0079,-0.0146,0.0047*
1,1,0.0079,0.0146,0.0047*
1,1,0.0079,0.0146,-0.0047*
1,1,0.0079,-0.0146,-0.0047*
%
%ADD213ROUNDEDRECTD213*%
%ADD214R,0.0291X0.0331*%
%ADD215R,0.0409X0.0370*%
%ADD216R,0.0913X0.0654*%
G04:AMPARAMS|DCode=217|XSize=15.7mil|YSize=61mil|CornerRadius=3.7mil|HoleSize=0mil|Usage=FLASHONLY|Rotation=90.000|XOffset=0mil|YOffset=0mil|HoleType=Round|Shape=RoundedRectangle|*
%AMROUNDEDRECTD217*
21,1,0.0157,0.0535,0,0,90.0*
21,1,0.0083,0.0610,0,0,90.0*
1,1,0.0075,0.0268,0.0041*
1,1,0.0075,0.0268,-0.0041*
1,1,0.0075,-0.0268,-0.0041*
1,1,0.0075,-0.0268,0.0041*
%
%ADD217ROUNDEDRECTD217*%
G04:AMPARAMS|DCode=218|XSize=38.9mil|YSize=37.9mil|CornerRadius=7.9mil|HoleSize=0mil|Usage=FLASHONLY|Rotation=270.000|XOffset=0mil|YOffset=0mil|HoleType=Round|Shape=RoundedRectangle|*
%AMROUNDEDRECTD218*
21,1,0.0389,0.0221,0,0,270.0*
21,1,0.0231,0.0379,0,0,270.0*
1,1,0.0158,-0.0111,-0.0116*
1,1,0.0158,-0.0111,0.0116*
1,1,0.0158,0.0111,0.0116*
1,1,0.0158,0.0111,-0.0116*
%
%ADD218ROUNDEDRECTD218*%
G04:AMPARAMS|DCode=219|XSize=23.9mil|YSize=23.9mil|CornerRadius=8mil|HoleSize=0mil|Usage=FLASHONLY|Rotation=50.000|XOffset=0mil|YOffset=0mil|HoleType=Round|Shape=RoundedRectangle|*
%AMROUNDEDRECTD219*
21,1,0.0239,0.0080,0,0,50.0*
21,1,0.0080,0.0239,0,0,50.0*
1,1,0.0159,0.0056,0.0005*
1,1,0.0159,0.0005,-0.0056*
1,1,0.0159,-0.0056,-0.0005*
1,1,0.0159,-0.0005,0.0056*
%
%ADD219ROUNDEDRECTD219*%
%ADD220R,0.0685X0.0449*%
%ADD221R,0.0275X0.0340*%
%ADD222R,0.0340X0.0275*%
%ADD223R,0.0331X0.0291*%
%ADD224R,0.0654X0.0913*%
G04:AMPARAMS|DCode=225|XSize=53.1mil|YSize=41.3mil|CornerRadius=20.7mil|HoleSize=0mil|Usage=FLASHONLY|Rotation=180.000|XOffset=0mil|YOffset=0mil|HoleType=Round|Shape=RoundedRectangle|*
%AMROUNDEDRECTD225*
21,1,0.0531,0.0000,0,0,180.0*
21,1,0.0118,0.0413,0,0,180.0*
1,1,0.0413,-0.0059,0.0000*
1,1,0.0413,0.0059,0.0000*
1,1,0.0413,0.0059,0.0000*
1,1,0.0413,-0.0059,0.0000*
%
%ADD225ROUNDEDRECTD225*%
G04:AMPARAMS|DCode=226|XSize=41.3mil|YSize=65mil|CornerRadius=20.7mil|HoleSize=0mil|Usage=FLASHONLY|Rotation=180.000|XOffset=0mil|YOffset=0mil|HoleType=Round|Shape=RoundedRectangle|*
%AMROUNDEDRECTD226*
21,1,0.0413,0.0236,0,0,180.0*
21,1,0.0000,0.0650,0,0,180.0*
1,1,0.0413,0.0000,0.0118*
1,1,0.0413,0.0000,0.0118*
1,1,0.0413,0.0000,-0.0118*
1,1,0.0413,0.0000,-0.0118*
%
%ADD226ROUNDEDRECTD226*%
%ADD227R,0.0640X0.0640*%
%ADD228C,0.0640*%
%ADD229C,0.0434*%
%ADD230C,0.0680*%
%ADD231C,0.0749*%
%ADD232R,0.0749X0.0749*%
%ADD233C,0.1300*%
%ADD234C,0.0985*%
%ADD235R,0.0787X0.0787*%
%ADD236C,0.0787*%
%ADD237C,0.0768*%
%ADD238R,0.0768X0.0768*%
%ADD239R,0.0787X0.0787*%
%ADD240C,0.0197*%
%ADD241C,0.0237*%
%ADD242C,0.0240*%
G36*
X18611Y34689D02*
X18609Y34682D01*
X18603Y34670D01*
X18596Y34659D01*
X18587Y34649D01*
X18576Y34641D01*
X18564Y34635D01*
X18552Y34630D01*
X18539Y34628D01*
X18525D01*
X18512Y34630D01*
X18499Y34635D01*
X18488Y34641D01*
X18477Y34649D01*
X18468Y34659D01*
X18460Y34670D01*
X18455Y34682D01*
X18453Y34689D01*
X18453Y34689D01*
Y34846D01*
X18611D01*
Y34689D01*
D02*
G37*
G36*
X18414D02*
X18412Y34682D01*
X18406Y34670D01*
X18399Y34659D01*
X18390Y34649D01*
X18379Y34641D01*
X18368Y34635D01*
X18355Y34630D01*
X18342Y34628D01*
X18328D01*
X18315Y34630D01*
X18302Y34635D01*
X18291Y34641D01*
X18280Y34649D01*
X18271Y34659D01*
X18263Y34670D01*
X18258Y34682D01*
X18256Y34689D01*
X18256Y34689D01*
Y34846D01*
X18414D01*
Y34689D01*
D02*
G37*
G36*
X18217D02*
X18215Y34682D01*
X18210Y34670D01*
X18202Y34659D01*
X18193Y34649D01*
X18182Y34641D01*
X18171Y34635D01*
X18158Y34630D01*
X18145Y34628D01*
X18131D01*
X18118Y34630D01*
X18106Y34635D01*
X18094Y34641D01*
X18083Y34649D01*
X18074Y34659D01*
X18067Y34670D01*
X18061Y34682D01*
X18059Y34689D01*
X18059Y34689D01*
Y34846D01*
X18217D01*
Y34689D01*
D02*
G37*
G36*
X18020D02*
X18018Y34682D01*
X18013Y34670D01*
X18005Y34659D01*
X17996Y34649D01*
X17986Y34641D01*
X17974Y34635D01*
X17961Y34630D01*
X17948Y34628D01*
X17935D01*
X17921Y34630D01*
X17909Y34635D01*
X17897Y34641D01*
X17886Y34649D01*
X17877Y34659D01*
X17870Y34670D01*
X17864Y34682D01*
X17863Y34689D01*
X17863Y34689D01*
Y34846D01*
X18020D01*
Y34689D01*
D02*
G37*
G36*
X17823D02*
X17821Y34682D01*
X17816Y34670D01*
X17809Y34659D01*
X17799Y34649D01*
X17789Y34641D01*
X17777Y34635D01*
X17764Y34630D01*
X17751Y34628D01*
X17738D01*
X17725Y34630D01*
X17712Y34635D01*
X17700Y34641D01*
X17690Y34649D01*
X17680Y34659D01*
X17673Y34670D01*
X17667Y34682D01*
X17666Y34689D01*
X17666Y34689D01*
Y34846D01*
X17823D01*
Y34689D01*
D02*
G37*
G36*
X17626D02*
X17625Y34682D01*
X17619Y34670D01*
X17612Y34659D01*
X17603Y34649D01*
X17592Y34641D01*
X17580Y34635D01*
X17567Y34630D01*
X17554Y34628D01*
X17541D01*
X17528Y34630D01*
X17515Y34635D01*
X17503Y34641D01*
X17493Y34649D01*
X17484Y34659D01*
X17476Y34670D01*
X17471Y34682D01*
X17469Y34689D01*
X17469Y34689D01*
Y34846D01*
X17626D01*
Y34689D01*
D02*
G37*
G36*
X-9948D02*
X-9950Y34682D01*
X-9956Y34670D01*
X-9963Y34659D01*
X-9972Y34649D01*
X-9983Y34641D01*
X-9995Y34635D01*
X-10007Y34630D01*
X-10021Y34628D01*
X-10034D01*
X-10047Y34630D01*
X-10060Y34635D01*
X-10072Y34641D01*
X-10082Y34649D01*
X-10091Y34659D01*
X-10099Y34670D01*
X-10104Y34682D01*
X-10106Y34689D01*
X-10106Y34689D01*
Y34846D01*
X-9948D01*
Y34689D01*
D02*
G37*
G36*
X-10145D02*
X-10147Y34682D01*
X-10153Y34670D01*
X-10160Y34659D01*
X-10169Y34649D01*
X-10180Y34641D01*
X-10192Y34635D01*
X-10204Y34630D01*
X-10217Y34628D01*
X-10231D01*
X-10244Y34630D01*
X-10257Y34635D01*
X-10268Y34641D01*
X-10279Y34649D01*
X-10288Y34659D01*
X-10296Y34670D01*
X-10301Y34682D01*
X-10303Y34689D01*
X-10303Y34689D01*
Y34846D01*
X-10145D01*
Y34689D01*
D02*
G37*
G36*
X-10342D02*
X-10344Y34682D01*
X-10349Y34670D01*
X-10357Y34659D01*
X-10366Y34649D01*
X-10377Y34641D01*
X-10388Y34635D01*
X-10401Y34630D01*
X-10414Y34628D01*
X-10428D01*
X-10441Y34630D01*
X-10453Y34635D01*
X-10465Y34641D01*
X-10476Y34649D01*
X-10485Y34659D01*
X-10492Y34670D01*
X-10498Y34682D01*
X-10500Y34689D01*
X-10500Y34689D01*
Y34846D01*
X-10342D01*
Y34689D01*
D02*
G37*
G36*
X-10539D02*
X-10541Y34682D01*
X-10546Y34670D01*
X-10554Y34659D01*
X-10563Y34649D01*
X-10573Y34641D01*
X-10585Y34635D01*
X-10598Y34630D01*
X-10611Y34628D01*
X-10624D01*
X-10638Y34630D01*
X-10650Y34635D01*
X-10662Y34641D01*
X-10673Y34649D01*
X-10682Y34659D01*
X-10689Y34670D01*
X-10695Y34682D01*
X-10697Y34689D01*
X-10697Y34689D01*
Y34846D01*
X-10539D01*
Y34689D01*
D02*
G37*
G36*
X-10736D02*
X-10738Y34682D01*
X-10743Y34670D01*
X-10751Y34659D01*
X-10760Y34649D01*
X-10770Y34641D01*
X-10782Y34635D01*
X-10795Y34630D01*
X-10808Y34628D01*
X-10821D01*
X-10835Y34630D01*
X-10847Y34635D01*
X-10859Y34641D01*
X-10870Y34649D01*
X-10879Y34659D01*
X-10886Y34670D01*
X-10892Y34682D01*
X-10893Y34689D01*
X-10893Y34689D01*
Y34846D01*
X-10736D01*
Y34689D01*
D02*
G37*
G36*
X-10933D02*
X-10934Y34682D01*
X-10940Y34670D01*
X-10947Y34659D01*
X-10957Y34649D01*
X-10967Y34641D01*
X-10979Y34635D01*
X-10992Y34630D01*
X-11005Y34628D01*
X-11018D01*
X-11031Y34630D01*
X-11044Y34635D01*
X-11056Y34641D01*
X-11066Y34649D01*
X-11076Y34659D01*
X-11083Y34670D01*
X-11088Y34682D01*
X-11090Y34689D01*
X-11090Y34689D01*
Y34846D01*
X-10933D01*
Y34689D01*
D02*
G37*
G36*
X18837Y34462D02*
X18679Y34462D01*
X18673Y34464D01*
X18661Y34470D01*
X18650Y34477D01*
X18640Y34486D01*
X18632Y34497D01*
X18626Y34509D01*
X18621Y34521D01*
X18619Y34534D01*
Y34548D01*
X18621Y34561D01*
X18626Y34574D01*
X18632Y34585D01*
X18640Y34596D01*
X18650Y34605D01*
X18661Y34613D01*
X18673Y34618D01*
X18679Y34620D01*
X18837D01*
Y34462D01*
D02*
G37*
G36*
X-9722D02*
X-9880Y34462D01*
X-9886Y34464D01*
X-9898Y34470D01*
X-9909Y34477D01*
X-9919Y34486D01*
X-9927Y34497D01*
X-9934Y34509D01*
X-9938Y34521D01*
X-9940Y34534D01*
Y34548D01*
X-9938Y34561D01*
X-9934Y34574D01*
X-9927Y34585D01*
X-9919Y34596D01*
X-9909Y34605D01*
X-9898Y34613D01*
X-9886Y34618D01*
X-9880Y34620D01*
X-9722D01*
Y34462D01*
D02*
G37*
G36*
X17406Y34618D02*
X17419Y34613D01*
X17430Y34605D01*
X17439Y34596D01*
X17448Y34585D01*
X17454Y34574D01*
X17458Y34561D01*
X17460Y34548D01*
Y34534D01*
X17458Y34521D01*
X17454Y34509D01*
X17448Y34497D01*
X17439Y34486D01*
X17430Y34477D01*
X17419Y34470D01*
X17406Y34464D01*
X17400Y34462D01*
Y34462D01*
X17242D01*
Y34620D01*
X17400D01*
X17406Y34618D01*
D02*
G37*
G36*
X-11153D02*
X-11140Y34613D01*
X-11129Y34605D01*
X-11120Y34596D01*
X-11111Y34585D01*
X-11105Y34574D01*
X-11101Y34561D01*
X-11099Y34548D01*
Y34534D01*
X-11101Y34521D01*
X-11105Y34509D01*
X-11111Y34497D01*
X-11120Y34486D01*
X-11129Y34477D01*
X-11140Y34470D01*
X-11153Y34464D01*
X-11159Y34462D01*
Y34462D01*
X-11317D01*
Y34620D01*
X-11159D01*
X-11153Y34618D01*
D02*
G37*
G36*
X18837Y34266D02*
X18679Y34266D01*
X18673Y34267D01*
X18661Y34273D01*
X18650Y34280D01*
X18640Y34289D01*
X18632Y34300D01*
X18626Y34312D01*
X18621Y34324D01*
X18619Y34338D01*
Y34351D01*
X18621Y34364D01*
X18626Y34377D01*
X18632Y34389D01*
X18640Y34399D01*
X18650Y34408D01*
X18661Y34416D01*
X18673Y34421D01*
X18679Y34423D01*
X18837D01*
Y34266D01*
D02*
G37*
G36*
X-9722D02*
X-9880Y34266D01*
X-9886Y34267D01*
X-9898Y34273D01*
X-9909Y34280D01*
X-9919Y34289D01*
X-9927Y34300D01*
X-9934Y34312D01*
X-9938Y34324D01*
X-9940Y34338D01*
Y34351D01*
X-9938Y34364D01*
X-9934Y34377D01*
X-9927Y34389D01*
X-9919Y34399D01*
X-9909Y34408D01*
X-9898Y34416D01*
X-9886Y34421D01*
X-9880Y34423D01*
X-9722D01*
Y34266D01*
D02*
G37*
G36*
X17406Y34421D02*
X17419Y34416D01*
X17430Y34408D01*
X17439Y34399D01*
X17448Y34389D01*
X17454Y34377D01*
X17458Y34364D01*
X17460Y34351D01*
Y34338D01*
X17458Y34324D01*
X17454Y34312D01*
X17448Y34300D01*
X17439Y34289D01*
X17430Y34280D01*
X17419Y34273D01*
X17406Y34267D01*
X17400Y34266D01*
Y34266D01*
X17242D01*
Y34423D01*
X17400D01*
X17406Y34421D01*
D02*
G37*
G36*
X-11153D02*
X-11140Y34416D01*
X-11129Y34408D01*
X-11120Y34399D01*
X-11111Y34389D01*
X-11105Y34377D01*
X-11101Y34364D01*
X-11099Y34351D01*
Y34338D01*
X-11101Y34324D01*
X-11105Y34312D01*
X-11111Y34300D01*
X-11120Y34289D01*
X-11129Y34280D01*
X-11140Y34273D01*
X-11153Y34267D01*
X-11159Y34266D01*
Y34266D01*
X-11317D01*
Y34423D01*
X-11159D01*
X-11153Y34421D01*
D02*
G37*
G36*
X18837Y34069D02*
X18679Y34069D01*
X18673Y34070D01*
X18661Y34076D01*
X18650Y34083D01*
X18640Y34092D01*
X18632Y34103D01*
X18626Y34115D01*
X18621Y34128D01*
X18619Y34141D01*
Y34154D01*
X18621Y34167D01*
X18626Y34180D01*
X18632Y34192D01*
X18640Y34202D01*
X18650Y34211D01*
X18661Y34219D01*
X18673Y34224D01*
X18679Y34226D01*
X18837D01*
Y34069D01*
D02*
G37*
G36*
X17406Y34224D02*
X17419Y34219D01*
X17430Y34211D01*
X17439Y34202D01*
X17448Y34192D01*
X17454Y34180D01*
X17458Y34167D01*
X17460Y34154D01*
Y34141D01*
X17458Y34128D01*
X17454Y34115D01*
X17448Y34103D01*
X17439Y34092D01*
X17430Y34083D01*
X17419Y34076D01*
X17406Y34070D01*
X17400Y34069D01*
Y34069D01*
X17242D01*
Y34226D01*
X17400D01*
X17406Y34224D01*
D02*
G37*
G36*
X-9722Y34069D02*
X-9880Y34069D01*
X-9886Y34070D01*
X-9898Y34076D01*
X-9909Y34083D01*
X-9919Y34092D01*
X-9927Y34103D01*
X-9934Y34115D01*
X-9938Y34128D01*
X-9940Y34141D01*
Y34154D01*
X-9938Y34167D01*
X-9934Y34180D01*
X-9927Y34192D01*
X-9919Y34202D01*
X-9909Y34211D01*
X-9898Y34219D01*
X-9886Y34224D01*
X-9880Y34226D01*
X-9722D01*
Y34069D01*
D02*
G37*
G36*
X-11153Y34224D02*
X-11140Y34219D01*
X-11129Y34211D01*
X-11120Y34202D01*
X-11111Y34192D01*
X-11105Y34180D01*
X-11101Y34167D01*
X-11099Y34154D01*
Y34141D01*
X-11101Y34128D01*
X-11105Y34115D01*
X-11111Y34103D01*
X-11120Y34092D01*
X-11129Y34083D01*
X-11140Y34076D01*
X-11153Y34070D01*
X-11159Y34069D01*
Y34069D01*
X-11317D01*
Y34226D01*
X-11159D01*
X-11153Y34224D01*
D02*
G37*
G36*
X18837Y33872D02*
X18679Y33872D01*
X18673Y33874D01*
X18661Y33879D01*
X18650Y33886D01*
X18640Y33896D01*
X18632Y33906D01*
X18626Y33918D01*
X18621Y33931D01*
X18619Y33944D01*
Y33957D01*
X18621Y33970D01*
X18626Y33983D01*
X18632Y33995D01*
X18640Y34005D01*
X18650Y34015D01*
X18661Y34022D01*
X18673Y34028D01*
X18679Y34029D01*
X18837D01*
Y33872D01*
D02*
G37*
G36*
X17406Y34028D02*
X17419Y34022D01*
X17430Y34015D01*
X17439Y34005D01*
X17448Y33995D01*
X17454Y33983D01*
X17458Y33970D01*
X17460Y33957D01*
Y33944D01*
X17458Y33931D01*
X17454Y33918D01*
X17448Y33906D01*
X17439Y33896D01*
X17430Y33886D01*
X17419Y33879D01*
X17406Y33874D01*
X17400Y33872D01*
Y33872D01*
X17242D01*
Y34029D01*
X17400D01*
X17406Y34028D01*
D02*
G37*
G36*
X-9722Y33872D02*
X-9880Y33872D01*
X-9886Y33874D01*
X-9898Y33879D01*
X-9909Y33886D01*
X-9919Y33896D01*
X-9927Y33906D01*
X-9934Y33918D01*
X-9938Y33931D01*
X-9940Y33944D01*
Y33957D01*
X-9938Y33970D01*
X-9934Y33983D01*
X-9927Y33995D01*
X-9919Y34005D01*
X-9909Y34015D01*
X-9898Y34022D01*
X-9886Y34028D01*
X-9880Y34029D01*
X-9722D01*
Y33872D01*
D02*
G37*
G36*
X-11153Y34028D02*
X-11140Y34022D01*
X-11129Y34015D01*
X-11120Y34005D01*
X-11111Y33995D01*
X-11105Y33983D01*
X-11101Y33970D01*
X-11099Y33957D01*
Y33944D01*
X-11101Y33931D01*
X-11105Y33918D01*
X-11111Y33906D01*
X-11120Y33896D01*
X-11129Y33886D01*
X-11140Y33879D01*
X-11153Y33874D01*
X-11159Y33872D01*
Y33872D01*
X-11317D01*
Y34029D01*
X-11159D01*
X-11153Y34028D01*
D02*
G37*
G36*
X18837Y33675D02*
X18679Y33675D01*
X18673Y33677D01*
X18661Y33682D01*
X18650Y33690D01*
X18640Y33699D01*
X18632Y33709D01*
X18626Y33721D01*
X18621Y33734D01*
X18619Y33747D01*
Y33760D01*
X18621Y33774D01*
X18626Y33786D01*
X18632Y33798D01*
X18640Y33809D01*
X18650Y33818D01*
X18661Y33825D01*
X18673Y33831D01*
X18679Y33832D01*
X18837D01*
Y33675D01*
D02*
G37*
G36*
X-9722D02*
X-9880Y33675D01*
X-9886Y33677D01*
X-9898Y33682D01*
X-9909Y33690D01*
X-9919Y33699D01*
X-9927Y33709D01*
X-9934Y33721D01*
X-9938Y33734D01*
X-9940Y33747D01*
Y33760D01*
X-9938Y33774D01*
X-9934Y33786D01*
X-9927Y33798D01*
X-9919Y33809D01*
X-9909Y33818D01*
X-9898Y33825D01*
X-9886Y33831D01*
X-9880Y33832D01*
X-9722D01*
Y33675D01*
D02*
G37*
G36*
X17406Y33831D02*
X17419Y33825D01*
X17430Y33818D01*
X17439Y33809D01*
X17448Y33798D01*
X17454Y33786D01*
X17458Y33774D01*
X17460Y33760D01*
Y33747D01*
X17458Y33734D01*
X17454Y33721D01*
X17448Y33709D01*
X17439Y33699D01*
X17430Y33690D01*
X17419Y33682D01*
X17406Y33677D01*
X17400Y33675D01*
Y33675D01*
X17242D01*
Y33832D01*
X17400D01*
X17406Y33831D01*
D02*
G37*
G36*
X-11153D02*
X-11140Y33825D01*
X-11129Y33818D01*
X-11120Y33809D01*
X-11111Y33798D01*
X-11105Y33786D01*
X-11101Y33774D01*
X-11099Y33760D01*
Y33747D01*
X-11101Y33734D01*
X-11105Y33721D01*
X-11111Y33709D01*
X-11120Y33699D01*
X-11129Y33690D01*
X-11140Y33682D01*
X-11153Y33677D01*
X-11159Y33675D01*
Y33675D01*
X-11317D01*
Y33832D01*
X-11159D01*
X-11153Y33831D01*
D02*
G37*
G36*
X18837Y33478D02*
X18679Y33478D01*
X18673Y33480D01*
X18661Y33485D01*
X18650Y33493D01*
X18640Y33502D01*
X18632Y33513D01*
X18626Y33524D01*
X18621Y33537D01*
X18619Y33550D01*
Y33564D01*
X18621Y33577D01*
X18626Y33589D01*
X18632Y33601D01*
X18640Y33612D01*
X18650Y33621D01*
X18661Y33628D01*
X18673Y33634D01*
X18679Y33636D01*
X18837D01*
Y33478D01*
D02*
G37*
G36*
X-9722D02*
X-9880Y33478D01*
X-9886Y33480D01*
X-9898Y33485D01*
X-9909Y33493D01*
X-9919Y33502D01*
X-9927Y33513D01*
X-9934Y33524D01*
X-9938Y33537D01*
X-9940Y33550D01*
Y33564D01*
X-9938Y33577D01*
X-9934Y33589D01*
X-9927Y33601D01*
X-9919Y33612D01*
X-9909Y33621D01*
X-9898Y33628D01*
X-9886Y33634D01*
X-9880Y33636D01*
X-9722D01*
Y33478D01*
D02*
G37*
G36*
X17406Y33634D02*
X17419Y33628D01*
X17430Y33621D01*
X17439Y33612D01*
X17448Y33601D01*
X17454Y33589D01*
X17458Y33577D01*
X17460Y33564D01*
Y33550D01*
X17458Y33537D01*
X17454Y33524D01*
X17448Y33513D01*
X17439Y33502D01*
X17430Y33493D01*
X17419Y33485D01*
X17406Y33480D01*
X17400Y33478D01*
Y33478D01*
X17242D01*
Y33636D01*
X17400D01*
X17406Y33634D01*
D02*
G37*
G36*
X-11153D02*
X-11140Y33628D01*
X-11129Y33621D01*
X-11120Y33612D01*
X-11111Y33601D01*
X-11105Y33589D01*
X-11101Y33577D01*
X-11099Y33564D01*
Y33550D01*
X-11101Y33537D01*
X-11105Y33524D01*
X-11111Y33513D01*
X-11120Y33502D01*
X-11129Y33493D01*
X-11140Y33485D01*
X-11153Y33480D01*
X-11159Y33478D01*
Y33478D01*
X-11317D01*
Y33636D01*
X-11159D01*
X-11153Y33634D01*
D02*
G37*
G36*
X18552Y33467D02*
X18564Y33463D01*
X18576Y33457D01*
X18587Y33449D01*
X18596Y33439D01*
X18603Y33428D01*
X18609Y33416D01*
X18611Y33409D01*
Y33252D01*
X18453D01*
X18453Y33409D01*
X18455Y33416D01*
X18460Y33428D01*
X18468Y33439D01*
X18477Y33449D01*
X18488Y33457D01*
X18499Y33463D01*
X18512Y33467D01*
X18525Y33470D01*
X18539D01*
X18552Y33467D01*
D02*
G37*
G36*
X18355D02*
X18368Y33463D01*
X18379Y33457D01*
X18390Y33449D01*
X18399Y33439D01*
X18406Y33428D01*
X18412Y33416D01*
X18414Y33409D01*
Y33252D01*
X18256D01*
X18256Y33409D01*
X18258Y33416D01*
X18263Y33428D01*
X18271Y33439D01*
X18280Y33449D01*
X18291Y33457D01*
X18302Y33463D01*
X18315Y33467D01*
X18328Y33470D01*
X18342D01*
X18355Y33467D01*
D02*
G37*
G36*
X18158D02*
X18171Y33463D01*
X18182Y33457D01*
X18193Y33449D01*
X18202Y33439D01*
X18210Y33428D01*
X18215Y33416D01*
X18217Y33409D01*
Y33252D01*
X18059D01*
X18059Y33409D01*
X18061Y33416D01*
X18067Y33428D01*
X18074Y33439D01*
X18083Y33449D01*
X18094Y33457D01*
X18106Y33463D01*
X18118Y33467D01*
X18131Y33470D01*
X18145D01*
X18158Y33467D01*
D02*
G37*
G36*
X17961D02*
X17974Y33463D01*
X17986Y33457D01*
X17996Y33449D01*
X18005Y33439D01*
X18013Y33428D01*
X18018Y33416D01*
X18020Y33409D01*
Y33252D01*
X17863D01*
X17863Y33409D01*
X17864Y33416D01*
X17870Y33428D01*
X17877Y33439D01*
X17886Y33449D01*
X17897Y33457D01*
X17909Y33463D01*
X17921Y33467D01*
X17935Y33470D01*
X17948D01*
X17961Y33467D01*
D02*
G37*
G36*
X17764D02*
X17777Y33463D01*
X17789Y33457D01*
X17799Y33449D01*
X17809Y33439D01*
X17816Y33428D01*
X17821Y33416D01*
X17823Y33409D01*
Y33252D01*
X17666D01*
X17666Y33409D01*
X17667Y33416D01*
X17673Y33428D01*
X17680Y33439D01*
X17690Y33449D01*
X17700Y33457D01*
X17712Y33463D01*
X17725Y33467D01*
X17738Y33470D01*
X17751D01*
X17764Y33467D01*
D02*
G37*
G36*
X17567D02*
X17580Y33463D01*
X17592Y33457D01*
X17603Y33449D01*
X17612Y33439D01*
X17619Y33428D01*
X17625Y33416D01*
X17626Y33409D01*
Y33252D01*
X17469D01*
X17469Y33409D01*
X17471Y33416D01*
X17476Y33428D01*
X17484Y33439D01*
X17493Y33449D01*
X17503Y33457D01*
X17515Y33463D01*
X17528Y33467D01*
X17541Y33470D01*
X17554D01*
X17567Y33467D01*
D02*
G37*
G36*
X-10007D02*
X-9995Y33463D01*
X-9983Y33457D01*
X-9972Y33449D01*
X-9963Y33439D01*
X-9956Y33428D01*
X-9950Y33416D01*
X-9948Y33409D01*
Y33252D01*
X-10106D01*
X-10106Y33409D01*
X-10104Y33416D01*
X-10099Y33428D01*
X-10091Y33439D01*
X-10082Y33449D01*
X-10072Y33457D01*
X-10060Y33463D01*
X-10047Y33467D01*
X-10034Y33470D01*
X-10021D01*
X-10007Y33467D01*
D02*
G37*
G36*
X-10204D02*
X-10192Y33463D01*
X-10180Y33457D01*
X-10169Y33449D01*
X-10160Y33439D01*
X-10153Y33428D01*
X-10147Y33416D01*
X-10145Y33409D01*
Y33252D01*
X-10303D01*
X-10303Y33409D01*
X-10301Y33416D01*
X-10296Y33428D01*
X-10288Y33439D01*
X-10279Y33449D01*
X-10268Y33457D01*
X-10257Y33463D01*
X-10244Y33467D01*
X-10231Y33470D01*
X-10217D01*
X-10204Y33467D01*
D02*
G37*
G36*
X-10401D02*
X-10388Y33463D01*
X-10377Y33457D01*
X-10366Y33449D01*
X-10357Y33439D01*
X-10349Y33428D01*
X-10344Y33416D01*
X-10342Y33409D01*
Y33252D01*
X-10500D01*
X-10500Y33409D01*
X-10498Y33416D01*
X-10492Y33428D01*
X-10485Y33439D01*
X-10476Y33449D01*
X-10465Y33457D01*
X-10453Y33463D01*
X-10441Y33467D01*
X-10428Y33470D01*
X-10414D01*
X-10401Y33467D01*
D02*
G37*
G36*
X-10598D02*
X-10585Y33463D01*
X-10573Y33457D01*
X-10563Y33449D01*
X-10554Y33439D01*
X-10546Y33428D01*
X-10541Y33416D01*
X-10539Y33409D01*
Y33252D01*
X-10697D01*
X-10697Y33409D01*
X-10695Y33416D01*
X-10689Y33428D01*
X-10682Y33439D01*
X-10673Y33449D01*
X-10662Y33457D01*
X-10650Y33463D01*
X-10638Y33467D01*
X-10624Y33470D01*
X-10611D01*
X-10598Y33467D01*
D02*
G37*
G36*
X-10795D02*
X-10782Y33463D01*
X-10770Y33457D01*
X-10760Y33449D01*
X-10751Y33439D01*
X-10743Y33428D01*
X-10738Y33416D01*
X-10736Y33409D01*
Y33252D01*
X-10893D01*
X-10893Y33409D01*
X-10892Y33416D01*
X-10886Y33428D01*
X-10879Y33439D01*
X-10870Y33449D01*
X-10859Y33457D01*
X-10847Y33463D01*
X-10835Y33467D01*
X-10821Y33470D01*
X-10808D01*
X-10795Y33467D01*
D02*
G37*
G36*
X-10992D02*
X-10979Y33463D01*
X-10967Y33457D01*
X-10957Y33449D01*
X-10947Y33439D01*
X-10940Y33428D01*
X-10934Y33416D01*
X-10933Y33409D01*
Y33252D01*
X-11090D01*
X-11090Y33409D01*
X-11088Y33416D01*
X-11083Y33428D01*
X-11076Y33439D01*
X-11066Y33449D01*
X-11056Y33457D01*
X-11044Y33463D01*
X-11031Y33467D01*
X-11018Y33470D01*
X-11005D01*
X-10992Y33467D01*
D02*
G37*
G36*
X11250Y30373D02*
X11253Y30372D01*
X11257Y30370D01*
X11260Y30368D01*
X11262Y30365D01*
X11264Y30361D01*
X11265Y30357D01*
X11266Y30354D01*
Y30276D01*
X11266Y30275D01*
X11266Y30275D01*
X11482Y30275D01*
X11482D01*
X11482D01*
X11486Y30275D01*
X11489Y30274D01*
X11490Y30273D01*
D01*
X11490Y30273D01*
X11493Y30272D01*
X11495Y30270D01*
X11496Y30269D01*
Y30269D01*
X11496D01*
X11497Y30268D01*
X11498Y30266D01*
X11500Y30263D01*
X11500Y30263D01*
D01*
X11500Y30262D01*
X11501Y30259D01*
X11502Y30255D01*
Y30255D01*
Y30255D01*
X11502Y29980D01*
Y29976D01*
D01*
Y29976D01*
X11501Y29972D01*
X11500Y29968D01*
X11497Y29961D01*
X11495Y29957D01*
X11493Y29954D01*
X11487Y29949D01*
X11484Y29946D01*
X11483Y29945D01*
X11481Y29945D01*
X11474Y29942D01*
X11472Y29941D01*
X11470Y29940D01*
X11466Y29940D01*
X10813D01*
X10809Y29940D01*
X10805Y29942D01*
X10802Y29943D01*
X10799Y29946D01*
X10796Y29949D01*
X10794Y29952D01*
X10793Y29956D01*
X10793Y29960D01*
Y30048D01*
X10793Y30052D01*
X10794Y30056D01*
X10796Y30059D01*
X10799Y30062D01*
X10802Y30065D01*
X10805Y30067D01*
X10809Y30068D01*
X10813Y30068D01*
X10890Y30068D01*
X10891Y30068D01*
X10891Y30069D01*
X10891Y30255D01*
X10892Y30259D01*
X10893Y30263D01*
X10895Y30266D01*
X10897Y30269D01*
X10900Y30272D01*
X10904Y30273D01*
X10907Y30275D01*
X10911Y30275D01*
X11127Y30275D01*
X11127Y30275D01*
X11128Y30276D01*
Y30354D01*
X11128Y30357D01*
X11129Y30361D01*
X11131Y30365D01*
X11133Y30368D01*
X11136Y30370D01*
X11140Y30372D01*
X11143Y30373D01*
X11147Y30373D01*
X11246D01*
X11250Y30373D01*
D02*
G37*
G36*
X-17309D02*
X-17306Y30372D01*
X-17302Y30370D01*
X-17299Y30368D01*
X-17297Y30365D01*
X-17295Y30361D01*
X-17294Y30357D01*
X-17294Y30354D01*
Y30276D01*
X-17293Y30275D01*
X-17293Y30275D01*
X-17077Y30275D01*
X-17077D01*
X-17077D01*
X-17073Y30275D01*
X-17070Y30274D01*
X-17070Y30273D01*
D01*
X-17070Y30273D01*
X-17066Y30272D01*
X-17064Y30270D01*
X-17063Y30269D01*
Y30269D01*
X-17063D01*
X-17063Y30268D01*
X-17061Y30266D01*
X-17059Y30263D01*
X-17059Y30263D01*
D01*
X-17059Y30262D01*
X-17058Y30259D01*
X-17057Y30255D01*
Y30255D01*
Y30255D01*
X-17057Y29980D01*
Y29976D01*
D01*
Y29976D01*
X-17058Y29972D01*
X-17059Y29968D01*
X-17062Y29961D01*
X-17064Y29957D01*
X-17066Y29954D01*
X-17072Y29949D01*
X-17075Y29946D01*
X-17076Y29945D01*
X-17078Y29945D01*
X-17085Y29942D01*
X-17087Y29941D01*
X-17089Y29940D01*
X-17093Y29940D01*
X-17746D01*
X-17750Y29940D01*
X-17754Y29942D01*
X-17757Y29943D01*
X-17760Y29946D01*
X-17763Y29949D01*
X-17765Y29952D01*
X-17766Y29956D01*
X-17766Y29960D01*
Y30048D01*
X-17766Y30052D01*
X-17765Y30056D01*
X-17763Y30059D01*
X-17760Y30062D01*
X-17757Y30065D01*
X-17754Y30067D01*
X-17750Y30068D01*
X-17746Y30068D01*
X-17669Y30068D01*
X-17668Y30068D01*
X-17668Y30069D01*
X-17668Y30255D01*
X-17667Y30259D01*
X-17666Y30263D01*
X-17664Y30266D01*
X-17662Y30269D01*
X-17659Y30272D01*
X-17656Y30273D01*
X-17652Y30275D01*
X-17648Y30275D01*
X-17432Y30275D01*
X-17432Y30275D01*
X-17432Y30276D01*
Y30354D01*
X-17431Y30357D01*
X-17430Y30361D01*
X-17428Y30365D01*
X-17426Y30368D01*
X-17423Y30370D01*
X-17419Y30372D01*
X-17416Y30373D01*
X-17412Y30373D01*
X-17313D01*
X-17309Y30373D01*
D02*
G37*
G36*
X12096Y30137D02*
X12100Y30136D01*
X12103Y30134D01*
X12106Y30131D01*
X12109Y30128D01*
X12110Y30125D01*
X12112Y30121D01*
X12112Y30117D01*
Y30069D01*
X12112Y30069D01*
X12113Y30068D01*
X12191D01*
X12194Y30068D01*
X12198Y30067D01*
X12202Y30065D01*
X12205Y30063D01*
X12207Y30060D01*
X12209Y30056D01*
X12210Y30052D01*
X12210Y30049D01*
Y29950D01*
Y29950D01*
Y29950D01*
X12210Y29946D01*
X12209Y29944D01*
X12209Y29943D01*
X12209Y29943D01*
D01*
X12207Y29939D01*
X12205Y29937D01*
X12205Y29936D01*
X12205Y29936D01*
X12205Y29936D01*
X12203Y29935D01*
X12202Y29934D01*
X12198Y29932D01*
D01*
X12198Y29932D01*
X12197Y29931D01*
X12194Y29931D01*
X12191Y29930D01*
X12191D01*
X12191D01*
X12113Y29930D01*
X12112Y29930D01*
X12112Y29929D01*
X12112Y29676D01*
X12112Y29675D01*
X12113Y29675D01*
X12191Y29675D01*
X12194Y29674D01*
X12197Y29674D01*
X12198Y29673D01*
X12198Y29673D01*
D01*
X12202Y29671D01*
X12203Y29670D01*
X12205Y29669D01*
X12205Y29669D01*
X12205Y29669D01*
X12205Y29668D01*
X12207Y29666D01*
X12209Y29662D01*
D01*
X12209Y29662D01*
X12209Y29661D01*
X12210Y29659D01*
X12210Y29655D01*
Y29556D01*
X12210Y29553D01*
X12209Y29549D01*
X12207Y29545D01*
X12205Y29542D01*
X12202Y29540D01*
X12198Y29538D01*
X12194Y29537D01*
X12191Y29537D01*
X12113D01*
X12112Y29536D01*
X12112Y29536D01*
X12112Y29488D01*
X12112Y29484D01*
X12110Y29480D01*
X12109Y29477D01*
X12106Y29474D01*
X12103Y29471D01*
X12100Y29469D01*
X12096Y29468D01*
X12092Y29468D01*
X11592D01*
X11588Y29468D01*
X11585Y29469D01*
X11583Y29470D01*
X11581Y29471D01*
X11578Y29474D01*
Y29474D01*
X11578D01*
X11576Y29477D01*
X11575Y29478D01*
X11574Y29480D01*
X11573Y29484D01*
X11572Y29488D01*
X11572Y29683D01*
X11572Y29684D01*
X11571Y29684D01*
X11529Y29684D01*
X11525D01*
X11521Y29685D01*
X11518Y29686D01*
X11510Y29689D01*
X11507Y29691D01*
X11504Y29693D01*
X11498Y29699D01*
X11496Y29702D01*
X11494Y29705D01*
X11491Y29712D01*
X11490Y29716D01*
X11490Y29720D01*
Y29724D01*
Y29724D01*
D01*
X11490Y29881D01*
X11490Y29881D01*
X11490Y29882D01*
X11490Y29882D01*
X11490Y29882D01*
X11490Y29885D01*
Y29885D01*
Y29885D01*
X11490Y29887D01*
X11490Y29889D01*
X11490Y29889D01*
Y29889D01*
X11490Y29890D01*
X11491Y29893D01*
X11491Y29893D01*
Y29893D01*
X11494Y29900D01*
X11494Y29900D01*
X11494Y29900D01*
X11495Y29901D01*
X11496Y29903D01*
X11496Y29903D01*
X11496Y29903D01*
X11498Y29906D01*
X11504Y29912D01*
X11507Y29914D01*
X11510Y29916D01*
X11510Y29916D01*
D01*
X11518Y29919D01*
X11518Y29919D01*
X11518Y29919D01*
X11520Y29920D01*
X11521Y29920D01*
X11521D01*
X11521Y29920D01*
X11524Y29921D01*
X11525Y29921D01*
X11525D01*
X11525D01*
X11529Y29921D01*
X11529D01*
X11529D01*
X11571Y29921D01*
X11572Y29921D01*
X11572Y29922D01*
X11572Y30117D01*
X11573Y30121D01*
X11574Y30125D01*
X11575Y30127D01*
X11576Y30128D01*
X11578Y30131D01*
X11578D01*
Y30131D01*
X11581Y30134D01*
X11583Y30135D01*
X11585Y30136D01*
X11588Y30137D01*
X11592Y30137D01*
X12092D01*
X12096Y30137D01*
D02*
G37*
G36*
X-16463D02*
X-16459Y30136D01*
X-16456Y30134D01*
X-16453Y30131D01*
X-16451Y30128D01*
X-16449Y30125D01*
X-16448Y30121D01*
X-16447Y30117D01*
Y30069D01*
X-16447Y30069D01*
X-16446Y30068D01*
X-16369D01*
X-16365Y30068D01*
X-16361Y30067D01*
X-16358Y30065D01*
X-16355Y30063D01*
X-16352Y30060D01*
X-16350Y30056D01*
X-16349Y30052D01*
X-16349Y30049D01*
Y29950D01*
Y29950D01*
Y29950D01*
X-16349Y29946D01*
X-16350Y29944D01*
X-16350Y29943D01*
X-16350Y29943D01*
D01*
X-16352Y29939D01*
X-16354Y29937D01*
X-16355Y29936D01*
X-16355Y29936D01*
X-16355Y29936D01*
X-16356Y29935D01*
X-16358Y29934D01*
X-16361Y29932D01*
D01*
X-16361Y29932D01*
X-16362Y29931D01*
X-16365Y29931D01*
X-16369Y29930D01*
X-16369D01*
X-16369D01*
X-16446Y29930D01*
X-16447Y29930D01*
X-16447Y29929D01*
X-16447Y29676D01*
X-16447Y29675D01*
X-16446Y29675D01*
X-16369Y29675D01*
X-16365Y29674D01*
X-16362Y29674D01*
X-16361Y29673D01*
X-16361Y29673D01*
D01*
X-16358Y29671D01*
X-16356Y29670D01*
X-16355Y29669D01*
X-16355Y29669D01*
X-16355Y29669D01*
X-16354Y29668D01*
X-16352Y29666D01*
X-16350Y29662D01*
D01*
X-16350Y29662D01*
X-16350Y29661D01*
X-16349Y29659D01*
X-16349Y29655D01*
Y29556D01*
X-16349Y29553D01*
X-16350Y29549D01*
X-16352Y29545D01*
X-16355Y29542D01*
X-16358Y29540D01*
X-16361Y29538D01*
X-16365Y29537D01*
X-16369Y29537D01*
X-16446D01*
X-16447Y29536D01*
X-16447Y29536D01*
X-16447Y29488D01*
X-16448Y29484D01*
X-16449Y29480D01*
X-16451Y29477D01*
X-16453Y29474D01*
X-16456Y29471D01*
X-16459Y29469D01*
X-16463Y29468D01*
X-16467Y29468D01*
X-16967D01*
X-16971Y29468D01*
X-16975Y29469D01*
X-16976Y29470D01*
X-16978Y29471D01*
X-16981Y29474D01*
Y29474D01*
X-16981D01*
X-16983Y29477D01*
X-16984Y29478D01*
X-16985Y29480D01*
X-16986Y29484D01*
X-16987Y29488D01*
X-16987Y29683D01*
X-16987Y29684D01*
X-16988Y29684D01*
X-17030Y29684D01*
X-17034D01*
X-17038Y29685D01*
X-17041Y29686D01*
X-17049Y29689D01*
X-17052Y29691D01*
X-17055Y29693D01*
X-17061Y29699D01*
X-17063Y29702D01*
X-17065Y29705D01*
X-17068Y29712D01*
X-17069Y29716D01*
X-17069Y29720D01*
Y29724D01*
Y29724D01*
D01*
X-17069Y29881D01*
X-17069Y29881D01*
X-17069Y29882D01*
X-17069Y29882D01*
X-17069Y29882D01*
X-17069Y29885D01*
Y29885D01*
Y29885D01*
X-17069Y29887D01*
X-17069Y29889D01*
X-17069Y29889D01*
Y29889D01*
X-17069Y29890D01*
X-17068Y29893D01*
X-17068Y29893D01*
Y29893D01*
X-17065Y29900D01*
X-17065Y29900D01*
X-17065Y29900D01*
X-17064Y29901D01*
X-17063Y29903D01*
X-17063Y29903D01*
X-17063Y29903D01*
X-17061Y29906D01*
X-17055Y29912D01*
X-17052Y29914D01*
X-17049Y29916D01*
X-17049Y29916D01*
D01*
X-17041Y29919D01*
X-17041Y29919D01*
X-17041Y29919D01*
X-17039Y29920D01*
X-17038Y29920D01*
X-17038D01*
X-17038Y29920D01*
X-17035Y29921D01*
X-17034Y29921D01*
X-17034D01*
X-17034D01*
X-17030Y29921D01*
X-17030D01*
X-17030D01*
X-16988Y29921D01*
X-16987Y29921D01*
X-16987Y29922D01*
X-16987Y30117D01*
X-16986Y30121D01*
X-16985Y30125D01*
X-16984Y30127D01*
X-16983Y30128D01*
X-16981Y30131D01*
X-16981D01*
Y30131D01*
X-16978Y30134D01*
X-16976Y30135D01*
X-16975Y30136D01*
X-16971Y30137D01*
X-16967Y30137D01*
X-16467D01*
X-16463Y30137D01*
D02*
G37*
G36*
X11470Y29665D02*
X11470Y29665D01*
X11474Y29663D01*
X11481Y29660D01*
X11483Y29659D01*
X11484Y29659D01*
X11487Y29656D01*
X11493Y29651D01*
X11495Y29648D01*
X11497Y29644D01*
X11500Y29637D01*
X11501Y29633D01*
X11502Y29629D01*
D01*
Y29629D01*
Y29625D01*
X11502Y29350D01*
Y29350D01*
Y29350D01*
X11501Y29346D01*
X11500Y29343D01*
X11500Y29342D01*
D01*
X11500Y29342D01*
X11498Y29339D01*
X11497Y29337D01*
X11496Y29336D01*
X11496D01*
Y29336D01*
X11495Y29335D01*
X11493Y29333D01*
X11490Y29332D01*
X11490Y29332D01*
D01*
X11489Y29331D01*
X11486Y29330D01*
X11482Y29330D01*
X11482D01*
X11482D01*
X11266Y29330D01*
X11266Y29330D01*
X11266Y29329D01*
Y29251D01*
X11265Y29248D01*
X11264Y29244D01*
X11262Y29240D01*
X11260Y29237D01*
X11257Y29235D01*
X11253Y29233D01*
X11250Y29232D01*
X11246Y29232D01*
X11147D01*
X11143Y29232D01*
X11140Y29233D01*
X11136Y29235D01*
X11133Y29237D01*
X11131Y29240D01*
X11129Y29244D01*
X11128Y29248D01*
X11128Y29251D01*
Y29329D01*
X11127Y29330D01*
X11127Y29330D01*
X10911Y29330D01*
X10907Y29330D01*
X10904Y29332D01*
X10900Y29333D01*
X10897Y29336D01*
Y29336D01*
X10897D01*
X10895Y29339D01*
X10893Y29342D01*
X10892Y29346D01*
X10891Y29350D01*
X10891Y29536D01*
X10891Y29536D01*
X10890Y29537D01*
X10813Y29537D01*
X10809Y29537D01*
X10805Y29538D01*
X10802Y29540D01*
X10799Y29543D01*
X10796Y29546D01*
X10794Y29549D01*
X10793Y29553D01*
X10793Y29557D01*
Y29645D01*
X10793Y29649D01*
X10794Y29653D01*
X10796Y29656D01*
X10799Y29659D01*
X10802Y29662D01*
X10805Y29663D01*
X10809Y29665D01*
X10813Y29665D01*
X11466D01*
X11470Y29665D01*
D02*
G37*
G36*
X-17089D02*
X-17089Y29665D01*
X-17085Y29663D01*
X-17078Y29660D01*
X-17076Y29659D01*
X-17075Y29659D01*
X-17072Y29656D01*
X-17066Y29651D01*
X-17064Y29648D01*
X-17062Y29644D01*
X-17059Y29637D01*
X-17058Y29633D01*
X-17057Y29629D01*
D01*
Y29629D01*
Y29625D01*
X-17057Y29350D01*
Y29350D01*
Y29350D01*
X-17058Y29346D01*
X-17059Y29343D01*
X-17059Y29342D01*
D01*
X-17059Y29342D01*
X-17061Y29339D01*
X-17063Y29337D01*
X-17063Y29336D01*
X-17063D01*
Y29336D01*
X-17064Y29335D01*
X-17066Y29333D01*
X-17070Y29332D01*
X-17070Y29332D01*
D01*
X-17070Y29331D01*
X-17073Y29330D01*
X-17077Y29330D01*
X-17077D01*
X-17077D01*
X-17293Y29330D01*
X-17293Y29330D01*
X-17294Y29329D01*
Y29251D01*
X-17294Y29248D01*
X-17295Y29244D01*
X-17297Y29240D01*
X-17299Y29237D01*
X-17302Y29235D01*
X-17306Y29233D01*
X-17309Y29232D01*
X-17313Y29232D01*
X-17412D01*
X-17416Y29232D01*
X-17419Y29233D01*
X-17423Y29235D01*
X-17426Y29237D01*
X-17428Y29240D01*
X-17430Y29244D01*
X-17431Y29248D01*
X-17432Y29251D01*
Y29329D01*
X-17432Y29330D01*
X-17432Y29330D01*
X-17648Y29330D01*
X-17652Y29330D01*
X-17656Y29332D01*
X-17659Y29333D01*
X-17662Y29336D01*
Y29336D01*
X-17662D01*
X-17664Y29339D01*
X-17666Y29342D01*
X-17667Y29346D01*
X-17668Y29350D01*
X-17668Y29536D01*
X-17668Y29536D01*
X-17669Y29537D01*
X-17746Y29537D01*
X-17750Y29537D01*
X-17754Y29538D01*
X-17757Y29540D01*
X-17760Y29543D01*
X-17763Y29546D01*
X-17765Y29549D01*
X-17766Y29553D01*
X-17766Y29557D01*
Y29645D01*
X-17766Y29649D01*
X-17765Y29653D01*
X-17763Y29656D01*
X-17760Y29659D01*
X-17757Y29662D01*
X-17754Y29663D01*
X-17750Y29665D01*
X-17746Y29665D01*
X-17093D01*
X-17089Y29665D01*
D02*
G37*
G36*
X10953Y26925D02*
X11544Y26925D01*
X11547Y26925D01*
X11551Y26924D01*
X11555Y26922D01*
X11558Y26920D01*
X11560Y26917D01*
X11562Y26913D01*
X11563Y26910D01*
X11563Y26906D01*
X11563Y26473D01*
X11563Y26469D01*
X11562Y26465D01*
X11560Y26462D01*
X11558Y26459D01*
X11555Y26456D01*
X11551Y26454D01*
X11547Y26453D01*
X11544Y26453D01*
X11014Y26453D01*
D01*
D01*
X11014D01*
X11010Y26453D01*
X11006Y26454D01*
X11003Y26456D01*
X11001Y26458D01*
X11000Y26459D01*
X11000Y26459D01*
X10939Y26519D01*
X10939Y26519D01*
X10938Y26521D01*
X10937Y26522D01*
X10935Y26524D01*
X10935Y26526D01*
X10934Y26530D01*
X10933Y26531D01*
X10933Y26533D01*
X10933Y26533D01*
X10933Y26906D01*
X10934Y26910D01*
X10934Y26912D01*
X10935Y26913D01*
X10935Y26913D01*
D01*
X10937Y26917D01*
X10939Y26919D01*
X10939Y26920D01*
X10939D01*
Y26920D01*
X10940Y26920D01*
X10942Y26922D01*
X10945Y26924D01*
D01*
X10945Y26924D01*
X10947Y26924D01*
X10949Y26925D01*
X10953Y26925D01*
X10953D01*
D01*
D01*
D02*
G37*
G36*
X-17606D02*
X-17015Y26925D01*
X-17012Y26925D01*
X-17008Y26924D01*
X-17004Y26922D01*
X-17001Y26920D01*
X-16999Y26917D01*
X-16997Y26913D01*
X-16996Y26910D01*
X-16996Y26906D01*
X-16996Y26473D01*
X-16996Y26469D01*
X-16997Y26465D01*
X-16999Y26462D01*
X-17001Y26459D01*
X-17004Y26456D01*
X-17008Y26454D01*
X-17012Y26453D01*
X-17015Y26453D01*
X-17545Y26453D01*
D01*
D01*
X-17545D01*
X-17549Y26453D01*
X-17553Y26454D01*
X-17556Y26456D01*
X-17558Y26458D01*
X-17559Y26459D01*
X-17559Y26459D01*
X-17620Y26519D01*
X-17620Y26519D01*
X-17621Y26521D01*
X-17623Y26522D01*
X-17624Y26524D01*
X-17624Y26526D01*
X-17625Y26530D01*
X-17626Y26531D01*
X-17626Y26533D01*
X-17626Y26533D01*
X-17626Y26906D01*
X-17625Y26910D01*
X-17625Y26912D01*
X-17624Y26913D01*
X-17624Y26913D01*
D01*
X-17622Y26917D01*
X-17621Y26919D01*
X-17620Y26920D01*
X-17620D01*
Y26920D01*
X-17619Y26920D01*
X-17617Y26922D01*
X-17614Y26924D01*
D01*
X-17614Y26924D01*
X-17612Y26924D01*
X-17610Y26925D01*
X-17606Y26925D01*
X-17606D01*
D01*
D01*
D02*
G37*
D13*
X108975Y55841D02*
X109642D01*
X109308D01*
Y54842D01*
X110475Y55841D02*
X110141D01*
X109975Y55675D01*
Y55008D01*
X110141Y54842D01*
X110475D01*
X110641Y55008D01*
Y55675D01*
X110475Y55841D01*
X110975Y54842D02*
Y55841D01*
X111474D01*
X111641Y55675D01*
Y55342D01*
X111474Y55175D01*
X110975D01*
X113640Y55675D02*
X113474Y55841D01*
X113140D01*
X112974Y55675D01*
Y55508D01*
X113140Y55342D01*
X113474D01*
X113640Y55175D01*
Y55008D01*
X113474Y54842D01*
X113140D01*
X112974Y55008D01*
X114473Y55841D02*
X114140D01*
X113974Y55675D01*
Y55008D01*
X114140Y54842D01*
X114473D01*
X114640Y55008D01*
Y55675D01*
X114473Y55841D01*
X114973D02*
Y54842D01*
X115640D01*
X115973Y55841D02*
Y54842D01*
X116473D01*
X116639Y55008D01*
Y55675D01*
X116473Y55841D01*
X115973D01*
X117639D02*
X116973D01*
Y54842D01*
X117639D01*
X116973Y55342D02*
X117306D01*
X117972Y54842D02*
Y55841D01*
X118472D01*
X118639Y55675D01*
Y55342D01*
X118472Y55175D01*
X117972D01*
X118305D02*
X118639Y54842D01*
X118972D02*
Y55841D01*
X119305Y55508D01*
X119638Y55841D01*
Y54842D01*
X119972D02*
Y55508D01*
X120305Y55841D01*
X120638Y55508D01*
Y54842D01*
Y55342D01*
X119972D01*
X121638Y55675D02*
X121471Y55841D01*
X121138D01*
X120971Y55675D01*
Y55508D01*
X121138Y55342D01*
X121471D01*
X121638Y55175D01*
Y55008D01*
X121471Y54842D01*
X121138D01*
X120971Y55008D01*
X121971Y55841D02*
Y54842D01*
Y55175D01*
X122637Y55841D01*
X122138Y55342D01*
X122637Y54842D01*
D163*
X-837Y-3906D02*
D03*
X-19Y-3856D02*
D03*
X-1722Y-3906D02*
D03*
D164*
X-3031Y-3856D02*
D03*
D165*
X-15424Y41882D02*
D03*
X-13140Y41882D02*
D03*
X13135Y41882D02*
D03*
X15419Y41882D02*
D03*
D166*
X-28861Y-2694D02*
D03*
X32012Y45766D02*
D03*
X31955Y-2694D02*
D03*
X-1750Y3471D02*
D03*
X-7744Y36402D02*
D03*
X-26479Y3547D02*
D03*
X26809Y3471D02*
D03*
X20815Y36402D02*
D03*
X2080Y3547D02*
D03*
D167*
X-23976Y4642D02*
D03*
X-23553Y4288D02*
D03*
X-23545Y5155D02*
D03*
X-23123Y4800D02*
D03*
X4583Y4642D02*
D03*
X5006Y4288D02*
D03*
X5014Y5155D02*
D03*
X5436Y4800D02*
D03*
D168*
X-7258Y3159D02*
D03*
Y3509D02*
D03*
X-6841Y3158D02*
D03*
Y3508D02*
D03*
X-20059Y2957D02*
D03*
Y2607D02*
D03*
X-20867Y2612D02*
D03*
Y2962D02*
D03*
X-20463Y2957D02*
D03*
Y2607D02*
D03*
X-22895Y3211D02*
D03*
X-17105Y15256D02*
D03*
Y15606D02*
D03*
X-17562Y15258D02*
D03*
Y15608D02*
D03*
X-17071Y13880D02*
D03*
Y14230D02*
D03*
X-16541Y12334D02*
D03*
Y12684D02*
D03*
X-17524Y13889D02*
D03*
Y14239D02*
D03*
X-16087Y13075D02*
D03*
Y12725D02*
D03*
X-16514Y9559D02*
D03*
Y9909D02*
D03*
X-12489Y7340D02*
D03*
Y6990D02*
D03*
X-12898D02*
D03*
Y7340D02*
D03*
X-13876Y7304D02*
D03*
Y6954D02*
D03*
X-13466D02*
D03*
Y7304D02*
D03*
X-12769Y8787D02*
D03*
Y9137D02*
D03*
X-16761Y21878D02*
D03*
Y22228D02*
D03*
X-16062Y9938D02*
D03*
Y10288D02*
D03*
X-12731Y22654D02*
D03*
Y22304D02*
D03*
X-14901Y21212D02*
D03*
Y21562D02*
D03*
X-10212Y25218D02*
D03*
Y24868D02*
D03*
X-12702Y13515D02*
D03*
Y13865D02*
D03*
X-7575Y6954D02*
D03*
Y7304D02*
D03*
X-11239Y2948D02*
D03*
Y3298D02*
D03*
X-11644Y2550D02*
D03*
Y2200D02*
D03*
X-10832Y2203D02*
D03*
Y2553D02*
D03*
X-12053Y2200D02*
D03*
Y2550D02*
D03*
Y3295D02*
D03*
Y2945D02*
D03*
X-11239Y2549D02*
D03*
Y2199D02*
D03*
X-18674Y9150D02*
D03*
Y9500D02*
D03*
X-18750Y7179D02*
D03*
Y6829D02*
D03*
X-22050Y3332D02*
D03*
Y2982D02*
D03*
X-22205Y6778D02*
D03*
Y7128D02*
D03*
X-22876Y6009D02*
D03*
Y5659D02*
D03*
X-19313Y3615D02*
D03*
Y3965D02*
D03*
X-18880Y3265D02*
D03*
Y3615D02*
D03*
X-19313Y2915D02*
D03*
Y3265D02*
D03*
X-16450Y828D02*
D03*
Y478D02*
D03*
X-8009Y13835D02*
D03*
Y13485D02*
D03*
X-8688Y13845D02*
D03*
Y13495D02*
D03*
X-9336Y13845D02*
D03*
Y13495D02*
D03*
X-10026Y13852D02*
D03*
Y13502D02*
D03*
X-10674Y13502D02*
D03*
Y13852D02*
D03*
X-11341Y13859D02*
D03*
Y13509D02*
D03*
X-12003Y13874D02*
D03*
Y13524D02*
D03*
X-12774Y11701D02*
D03*
Y12051D02*
D03*
X-12359Y10167D02*
D03*
Y9817D02*
D03*
Y8787D02*
D03*
Y9137D02*
D03*
X-8927Y3770D02*
D03*
Y4120D02*
D03*
X-8513Y3820D02*
D03*
Y4170D02*
D03*
Y4553D02*
D03*
Y4903D02*
D03*
X-8521Y2981D02*
D03*
Y2631D02*
D03*
X-8119Y2981D02*
D03*
Y2631D02*
D03*
X-7708Y3231D02*
D03*
Y3581D02*
D03*
X-6136Y2995D02*
D03*
Y3345D02*
D03*
X-4950Y2241D02*
D03*
Y2591D02*
D03*
X-5345D02*
D03*
Y2241D02*
D03*
X-5746D02*
D03*
Y2591D02*
D03*
X-6133D02*
D03*
Y2241D02*
D03*
X-5749Y3343D02*
D03*
Y2993D02*
D03*
X-5348Y3345D02*
D03*
Y2995D02*
D03*
X-4953Y2992D02*
D03*
Y3342D02*
D03*
X-6601Y7381D02*
D03*
Y7031D02*
D03*
X-7011Y7380D02*
D03*
Y7030D02*
D03*
X-7985Y7304D02*
D03*
Y6954D02*
D03*
X-10830Y2950D02*
D03*
Y3300D02*
D03*
X-11646Y3299D02*
D03*
Y2949D02*
D03*
X-14375Y4851D02*
D03*
Y4501D02*
D03*
X-13135Y3497D02*
D03*
Y3147D02*
D03*
X-14094Y2963D02*
D03*
Y2613D02*
D03*
X-14495Y2968D02*
D03*
Y2618D02*
D03*
X-14783Y3761D02*
D03*
Y4111D02*
D03*
X-14452Y34041D02*
D03*
Y33691D02*
D03*
X-13531Y34041D02*
D03*
Y33691D02*
D03*
X-23291Y6209D02*
D03*
Y5859D02*
D03*
X-14375Y4118D02*
D03*
Y3768D02*
D03*
X-21643Y2981D02*
D03*
Y2631D02*
D03*
X-18206Y32980D02*
D03*
Y33330D02*
D03*
X-20150Y32324D02*
D03*
Y31974D02*
D03*
X-12733Y3497D02*
D03*
Y3147D02*
D03*
X-13615Y3490D02*
D03*
Y3140D02*
D03*
X21301Y3159D02*
D03*
Y3509D02*
D03*
X21718Y3158D02*
D03*
Y3508D02*
D03*
X8500Y2957D02*
D03*
Y2607D02*
D03*
X7692Y2612D02*
D03*
Y2962D02*
D03*
X8096Y2957D02*
D03*
Y2607D02*
D03*
X5664Y3211D02*
D03*
X11454Y15256D02*
D03*
Y15606D02*
D03*
X10997Y15258D02*
D03*
Y15608D02*
D03*
X11488Y13880D02*
D03*
Y14230D02*
D03*
X12018Y12334D02*
D03*
Y12684D02*
D03*
X11035Y13889D02*
D03*
Y14239D02*
D03*
X12472Y13075D02*
D03*
Y12725D02*
D03*
X12046Y9559D02*
D03*
Y9909D02*
D03*
X16070Y7340D02*
D03*
Y6990D02*
D03*
X15661D02*
D03*
Y7340D02*
D03*
X14683Y7304D02*
D03*
Y6954D02*
D03*
X15093D02*
D03*
Y7304D02*
D03*
X15790Y8787D02*
D03*
Y9137D02*
D03*
X11798Y21878D02*
D03*
Y22228D02*
D03*
X12497Y9938D02*
D03*
Y10288D02*
D03*
X15828Y22654D02*
D03*
Y22304D02*
D03*
X13658Y21212D02*
D03*
Y21562D02*
D03*
X18347Y25218D02*
D03*
Y24868D02*
D03*
X15857Y13515D02*
D03*
Y13865D02*
D03*
X20984Y6954D02*
D03*
Y7304D02*
D03*
X17320Y2948D02*
D03*
Y3298D02*
D03*
X16915Y2550D02*
D03*
Y2200D02*
D03*
X17727Y2203D02*
D03*
Y2553D02*
D03*
X16506Y2200D02*
D03*
Y2550D02*
D03*
Y3295D02*
D03*
Y2945D02*
D03*
X17320Y2549D02*
D03*
Y2199D02*
D03*
X9885Y9150D02*
D03*
Y9500D02*
D03*
X9809Y7179D02*
D03*
Y6829D02*
D03*
X6509Y3332D02*
D03*
Y2982D02*
D03*
X6354Y6778D02*
D03*
Y7128D02*
D03*
X5683Y6009D02*
D03*
Y5659D02*
D03*
X9246Y3615D02*
D03*
Y3965D02*
D03*
X9679Y3265D02*
D03*
Y3615D02*
D03*
X9246Y2915D02*
D03*
Y3265D02*
D03*
X12110Y828D02*
D03*
Y478D02*
D03*
X20550Y13835D02*
D03*
Y13485D02*
D03*
X19871Y13845D02*
D03*
Y13495D02*
D03*
X19223Y13845D02*
D03*
Y13495D02*
D03*
X18533Y13852D02*
D03*
Y13502D02*
D03*
X17885Y13502D02*
D03*
Y13852D02*
D03*
X17218Y13859D02*
D03*
Y13509D02*
D03*
X16556Y13874D02*
D03*
Y13524D02*
D03*
X15785Y11701D02*
D03*
Y12051D02*
D03*
X16200Y10167D02*
D03*
Y9817D02*
D03*
Y8787D02*
D03*
Y9137D02*
D03*
X19632Y3770D02*
D03*
Y4120D02*
D03*
X20046Y3820D02*
D03*
Y4170D02*
D03*
Y4553D02*
D03*
Y4903D02*
D03*
X20038Y2981D02*
D03*
Y2631D02*
D03*
X20441Y2981D02*
D03*
Y2631D02*
D03*
X20851Y3231D02*
D03*
Y3581D02*
D03*
X22423Y2995D02*
D03*
Y3345D02*
D03*
X23609Y2241D02*
D03*
Y2591D02*
D03*
X23214D02*
D03*
Y2241D02*
D03*
X22813D02*
D03*
Y2591D02*
D03*
X22426D02*
D03*
Y2241D02*
D03*
X22810Y3343D02*
D03*
Y2993D02*
D03*
X23211Y3345D02*
D03*
Y2995D02*
D03*
X23606Y2992D02*
D03*
Y3342D02*
D03*
X21958Y7381D02*
D03*
Y7031D02*
D03*
X21548Y7380D02*
D03*
Y7030D02*
D03*
X20574Y7304D02*
D03*
Y6954D02*
D03*
X17729Y2950D02*
D03*
Y3300D02*
D03*
X16913Y3299D02*
D03*
Y2949D02*
D03*
X14184Y4851D02*
D03*
Y4501D02*
D03*
X15424Y3497D02*
D03*
Y3147D02*
D03*
X14465Y2963D02*
D03*
Y2613D02*
D03*
X14064Y2968D02*
D03*
Y2618D02*
D03*
X13776Y3761D02*
D03*
Y4111D02*
D03*
X14107Y34041D02*
D03*
Y33691D02*
D03*
X15028Y34041D02*
D03*
Y33691D02*
D03*
X5268Y6209D02*
D03*
Y5859D02*
D03*
X14184Y4118D02*
D03*
Y3768D02*
D03*
X6916Y2981D02*
D03*
Y2631D02*
D03*
X10353Y32980D02*
D03*
Y33330D02*
D03*
X8409Y32324D02*
D03*
Y31974D02*
D03*
X15826Y3497D02*
D03*
Y3147D02*
D03*
X14944Y3490D02*
D03*
Y3140D02*
D03*
D169*
X-18258Y21738D02*
D03*
Y21542D02*
D03*
Y21148D02*
D03*
Y20951D02*
D03*
X-17929Y21738D02*
D03*
Y21542D02*
D03*
Y21148D02*
D03*
Y20951D02*
D03*
X10301Y21738D02*
D03*
Y21542D02*
D03*
Y21148D02*
D03*
Y20951D02*
D03*
X10630Y21738D02*
D03*
Y21542D02*
D03*
Y21148D02*
D03*
Y20951D02*
D03*
D170*
X-18258Y21345D02*
D03*
X-17929D02*
D03*
X10301D02*
D03*
X10630D02*
D03*
D171*
X-4437Y4240D02*
D03*
X-4787D02*
D03*
X-16800Y3767D02*
D03*
X-16450D02*
D03*
X-17865Y5184D02*
D03*
X-17515D02*
D03*
X-22895Y2805D02*
D03*
X-22545D02*
D03*
Y3616D02*
D03*
X-22895D02*
D03*
X-22545Y3211D02*
D03*
X-14833Y22240D02*
D03*
X-15183D02*
D03*
X-15179Y22641D02*
D03*
X-14829D02*
D03*
X-14462Y23033D02*
D03*
X-14812D02*
D03*
X-16343Y23836D02*
D03*
X-15993D02*
D03*
X-10766Y18131D02*
D03*
X-11116D02*
D03*
X-10758Y18527D02*
D03*
X-11108D02*
D03*
X-19881Y6726D02*
D03*
X-19531D02*
D03*
X-18682Y9906D02*
D03*
X-19032D02*
D03*
X-23259Y6627D02*
D03*
X-22909D02*
D03*
X-10757Y26373D02*
D03*
X-11107D02*
D03*
X-11846D02*
D03*
X-11496D02*
D03*
X-11400Y24621D02*
D03*
X-11050D02*
D03*
X-11386Y35232D02*
D03*
X-11036D02*
D03*
X-16944Y762D02*
D03*
X-17294D02*
D03*
X-19881Y7111D02*
D03*
X-19531D02*
D03*
X-20867Y3414D02*
D03*
X-20517D02*
D03*
X-8907Y4514D02*
D03*
X-9257D02*
D03*
Y4916D02*
D03*
X-8907D02*
D03*
X-9181Y5319D02*
D03*
X-8831D02*
D03*
X-9181Y5718D02*
D03*
X-8831D02*
D03*
X-9174Y6125D02*
D03*
X-8824D02*
D03*
X-8819Y6541D02*
D03*
X-9169D02*
D03*
X-8740Y12211D02*
D03*
X-8390D02*
D03*
X-8766Y11114D02*
D03*
X-8416D02*
D03*
X-10504Y11382D02*
D03*
X-10154D02*
D03*
X-10892Y10953D02*
D03*
X-11242D02*
D03*
X-10892Y11382D02*
D03*
X-11242D02*
D03*
X-13142Y12457D02*
D03*
X-12792D02*
D03*
X-13124Y11286D02*
D03*
X-12774D02*
D03*
X-13124Y10871D02*
D03*
X-12774D02*
D03*
X-12683Y8396D02*
D03*
X-12333D02*
D03*
X-12687Y7988D02*
D03*
X-12337D02*
D03*
X-11508Y7417D02*
D03*
X-11858D02*
D03*
X-8107Y3380D02*
D03*
X-8457D02*
D03*
X-8839D02*
D03*
X-9189D02*
D03*
X-4607Y3776D02*
D03*
X-4957D02*
D03*
X-4447Y4640D02*
D03*
X-4797D02*
D03*
X-4486Y5044D02*
D03*
X-4836D02*
D03*
X-4481Y5526D02*
D03*
X-4831D02*
D03*
X-7245Y9054D02*
D03*
X-7595D02*
D03*
X-10701Y7417D02*
D03*
X-11051D02*
D03*
X-10214Y5113D02*
D03*
X-10564D02*
D03*
X-10328Y5524D02*
D03*
X-10678D02*
D03*
X-10257Y4685D02*
D03*
X-10607D02*
D03*
X-10280Y4274D02*
D03*
X-10630D02*
D03*
X-10509Y3881D02*
D03*
X-10859D02*
D03*
X-16450Y3363D02*
D03*
X-16800D02*
D03*
X-14096Y3361D02*
D03*
X-14446D02*
D03*
X-15189D02*
D03*
X-14839D02*
D03*
X-15127Y4513D02*
D03*
X-14777D02*
D03*
X-15127Y4902D02*
D03*
X-14777D02*
D03*
X-14727Y5302D02*
D03*
X-15077D02*
D03*
X-15083Y5695D02*
D03*
X-14733D02*
D03*
X-14727Y6500D02*
D03*
X-15077D02*
D03*
X-15853Y26543D02*
D03*
X-15503D02*
D03*
X-15049Y27313D02*
D03*
X-14699D02*
D03*
X-15049Y28241D02*
D03*
X-14699D02*
D03*
Y29169D02*
D03*
X-15049D02*
D03*
X-8323Y31266D02*
D03*
X-7973D02*
D03*
X-12749Y34142D02*
D03*
X-12399D02*
D03*
X-12750Y33678D02*
D03*
X-12400D02*
D03*
X-15079Y6098D02*
D03*
X-14729D02*
D03*
X-18876Y5184D02*
D03*
X-18526D02*
D03*
X-21286Y3425D02*
D03*
X-21636D02*
D03*
X-21301Y2239D02*
D03*
X-21651D02*
D03*
X-16450Y2966D02*
D03*
X-16800D02*
D03*
X-16155Y32343D02*
D03*
X-15805D02*
D03*
X-12399Y34600D02*
D03*
X-12749D02*
D03*
X24122Y4240D02*
D03*
X23772D02*
D03*
X11760Y3767D02*
D03*
X12110D02*
D03*
X10695Y5184D02*
D03*
X11044D02*
D03*
X5664Y2805D02*
D03*
X6014D02*
D03*
Y3616D02*
D03*
X5664D02*
D03*
X6014Y3211D02*
D03*
X13726Y22240D02*
D03*
X13376D02*
D03*
X13380Y22641D02*
D03*
X13730D02*
D03*
X14097Y23033D02*
D03*
X13747D02*
D03*
X12216Y23836D02*
D03*
X12566D02*
D03*
X17793Y18131D02*
D03*
X17443D02*
D03*
X17801Y18527D02*
D03*
X17451D02*
D03*
X8678Y6726D02*
D03*
X9028D02*
D03*
X9877Y9906D02*
D03*
X9527D02*
D03*
X5300Y6627D02*
D03*
X5650D02*
D03*
X17802Y26373D02*
D03*
X17452D02*
D03*
X16713D02*
D03*
X17063D02*
D03*
X17159Y24621D02*
D03*
X17509D02*
D03*
X17173Y35232D02*
D03*
X17523D02*
D03*
X11615Y762D02*
D03*
X11265D02*
D03*
X8678Y7111D02*
D03*
X9028D02*
D03*
X7692Y3414D02*
D03*
X8042D02*
D03*
X19652Y4514D02*
D03*
X19302D02*
D03*
Y4916D02*
D03*
X19652D02*
D03*
X19378Y5319D02*
D03*
X19728D02*
D03*
X19378Y5718D02*
D03*
X19728D02*
D03*
X19385Y6125D02*
D03*
X19735D02*
D03*
X19740Y6541D02*
D03*
X19390D02*
D03*
X19819Y12211D02*
D03*
X20169D02*
D03*
X19793Y11114D02*
D03*
X20143D02*
D03*
X18055Y11382D02*
D03*
X18405D02*
D03*
X17667Y10953D02*
D03*
X17317D02*
D03*
X17667Y11382D02*
D03*
X17317D02*
D03*
X15417Y12457D02*
D03*
X15767D02*
D03*
X15435Y11286D02*
D03*
X15785D02*
D03*
X15435Y10871D02*
D03*
X15785D02*
D03*
X15876Y8396D02*
D03*
X16226D02*
D03*
X15872Y7988D02*
D03*
X16222D02*
D03*
X17051Y7417D02*
D03*
X16701D02*
D03*
X20452Y3380D02*
D03*
X20102D02*
D03*
X19720D02*
D03*
X19370D02*
D03*
X23952Y3776D02*
D03*
X23602D02*
D03*
X24112Y4640D02*
D03*
X23762D02*
D03*
X24073Y5044D02*
D03*
X23723D02*
D03*
X24078Y5526D02*
D03*
X23728D02*
D03*
X21314Y9054D02*
D03*
X20964D02*
D03*
X17858Y7417D02*
D03*
X17508D02*
D03*
X18346Y5113D02*
D03*
X17996D02*
D03*
X18231Y5524D02*
D03*
X17881D02*
D03*
X18302Y4685D02*
D03*
X17952D02*
D03*
X18279Y4274D02*
D03*
X17929D02*
D03*
X18050Y3881D02*
D03*
X17700D02*
D03*
X12110Y3363D02*
D03*
X11760D02*
D03*
X14463Y3361D02*
D03*
X14113D02*
D03*
X13370D02*
D03*
X13720D02*
D03*
X13432Y4513D02*
D03*
X13782D02*
D03*
X13433Y4902D02*
D03*
X13783D02*
D03*
X13832Y5302D02*
D03*
X13482D02*
D03*
X13476Y5695D02*
D03*
X13826D02*
D03*
X13832Y6500D02*
D03*
X13482D02*
D03*
X12706Y26543D02*
D03*
X13056D02*
D03*
X13510Y27313D02*
D03*
X13860D02*
D03*
X13510Y28241D02*
D03*
X13860D02*
D03*
Y29169D02*
D03*
X13510D02*
D03*
X20236Y31266D02*
D03*
X20586D02*
D03*
X15810Y34142D02*
D03*
X16160D02*
D03*
X15809Y33678D02*
D03*
X16159D02*
D03*
X13480Y6098D02*
D03*
X13830D02*
D03*
X9683Y5184D02*
D03*
X10033D02*
D03*
X7274Y3425D02*
D03*
X6924D02*
D03*
X7258Y2239D02*
D03*
X6908D02*
D03*
X12110Y2966D02*
D03*
X11760D02*
D03*
X12404Y32343D02*
D03*
X12754D02*
D03*
X16160Y34600D02*
D03*
X15810D02*
D03*
D172*
X-14060Y40099D02*
D03*
X-14257D02*
D03*
X-14651D02*
D03*
X-14848D02*
D03*
X-14060Y39771D02*
D03*
X-14257D02*
D03*
X-14651D02*
D03*
X-14848D02*
D03*
X14499Y40099D02*
D03*
X14302D02*
D03*
X13908D02*
D03*
X13711D02*
D03*
X14499Y39771D02*
D03*
X14302D02*
D03*
X13908D02*
D03*
X13711D02*
D03*
D173*
X-14454Y40099D02*
D03*
Y39771D02*
D03*
X14105Y40099D02*
D03*
Y39771D02*
D03*
D174*
X-13770Y40819D02*
D03*
X-14026D02*
D03*
X-14282D02*
D03*
X-14538D02*
D03*
X-14794D02*
D03*
X14789D02*
D03*
X14533D02*
D03*
X14277D02*
D03*
X14021D02*
D03*
X13765D02*
D03*
D175*
X-14676Y41882D02*
D03*
X-13889D02*
D03*
X13883D02*
D03*
X14671D02*
D03*
D176*
X-20935Y5154D02*
D03*
X7624D02*
D03*
D177*
X-21801Y4012D02*
D03*
X-21644D02*
D03*
X-21486D02*
D03*
X-21329D02*
D03*
X-21171D02*
D03*
X-21014D02*
D03*
X-20857D02*
D03*
X-20699D02*
D03*
X-20542D02*
D03*
X-20384D02*
D03*
X-20227D02*
D03*
X-20069D02*
D03*
Y6295D02*
D03*
X-20227D02*
D03*
X-20384D02*
D03*
X-20542D02*
D03*
X-20699D02*
D03*
X-20857D02*
D03*
X-21014D02*
D03*
X-21171D02*
D03*
X-21329D02*
D03*
X-21486D02*
D03*
X-21644D02*
D03*
X-21801D02*
D03*
X6758Y4012D02*
D03*
X6915D02*
D03*
X7073D02*
D03*
X7230D02*
D03*
X7388D02*
D03*
X7545D02*
D03*
X7703D02*
D03*
X7860D02*
D03*
X8018D02*
D03*
X8175D02*
D03*
X8332D02*
D03*
X8490D02*
D03*
Y6295D02*
D03*
X8332D02*
D03*
X8175D02*
D03*
X8018D02*
D03*
X7860D02*
D03*
X7703D02*
D03*
X7545D02*
D03*
X7388D02*
D03*
X7230D02*
D03*
X7073D02*
D03*
X6915D02*
D03*
X6758D02*
D03*
D178*
X-19794Y4288D02*
D03*
Y4445D02*
D03*
Y4603D02*
D03*
Y4760D02*
D03*
Y4917D02*
D03*
Y5075D02*
D03*
Y5232D02*
D03*
Y5390D02*
D03*
Y5547D02*
D03*
Y5705D02*
D03*
Y5862D02*
D03*
Y6020D02*
D03*
X-22077D02*
D03*
Y5862D02*
D03*
Y5705D02*
D03*
Y5547D02*
D03*
Y5390D02*
D03*
Y5232D02*
D03*
Y5075D02*
D03*
Y4917D02*
D03*
Y4760D02*
D03*
Y4603D02*
D03*
Y4445D02*
D03*
Y4288D02*
D03*
X8766D02*
D03*
Y4445D02*
D03*
Y4603D02*
D03*
Y4760D02*
D03*
Y4917D02*
D03*
Y5075D02*
D03*
Y5232D02*
D03*
Y5390D02*
D03*
Y5547D02*
D03*
Y5705D02*
D03*
Y5862D02*
D03*
Y6020D02*
D03*
X6482D02*
D03*
Y5862D02*
D03*
Y5705D02*
D03*
Y5547D02*
D03*
Y5390D02*
D03*
Y5232D02*
D03*
Y5075D02*
D03*
Y4917D02*
D03*
Y4760D02*
D03*
Y4603D02*
D03*
Y4445D02*
D03*
Y4288D02*
D03*
D179*
X-19479Y2359D02*
D03*
Y1689D02*
D03*
X-15725Y29755D02*
D03*
Y30425D02*
D03*
X9081Y2359D02*
D03*
Y1689D02*
D03*
X12834Y29755D02*
D03*
Y30425D02*
D03*
D180*
X-17311Y26320D02*
D03*
X-17527D02*
D03*
X-17094D02*
D03*
X-17527Y27058D02*
D03*
X-17094D02*
D03*
X-17311D02*
D03*
X11248Y26320D02*
D03*
X11032D02*
D03*
X11465D02*
D03*
X11032Y27058D02*
D03*
X11465D02*
D03*
X11248D02*
D03*
D181*
X-16819Y26689D02*
D03*
X-17803D02*
D03*
X11740D02*
D03*
X10756D02*
D03*
D182*
X-22214Y944D02*
D03*
X-21054D02*
D03*
X-6932Y939D02*
D03*
X-8092D02*
D03*
X-12816Y944D02*
D03*
X-13976D02*
D03*
X6345D02*
D03*
X7505D02*
D03*
X21627Y939D02*
D03*
X20467D02*
D03*
X15743Y944D02*
D03*
X14583D02*
D03*
D183*
X-21634Y1539D02*
D03*
X-7512Y1534D02*
D03*
X-13396Y1539D02*
D03*
X6925D02*
D03*
X21047Y1534D02*
D03*
X15163Y1539D02*
D03*
D184*
X-20975Y19377D02*
D03*
Y20164D02*
D03*
Y20951D02*
D03*
Y22526D02*
D03*
Y21739D02*
D03*
X-19298Y22526D02*
D03*
Y21739D02*
D03*
Y20951D02*
D03*
Y19377D02*
D03*
Y20164D02*
D03*
X7584Y19377D02*
D03*
Y20164D02*
D03*
Y20951D02*
D03*
Y22526D02*
D03*
Y21739D02*
D03*
X9261Y22526D02*
D03*
Y21739D02*
D03*
Y20951D02*
D03*
Y19377D02*
D03*
Y20164D02*
D03*
D185*
X-13764Y6078D02*
D03*
Y5920D02*
D03*
Y5763D02*
D03*
Y5605D02*
D03*
Y5448D02*
D03*
Y5290D02*
D03*
Y5133D02*
D03*
Y4975D02*
D03*
Y4818D02*
D03*
Y4660D02*
D03*
Y4503D02*
D03*
Y4345D02*
D03*
X-11481D02*
D03*
Y4503D02*
D03*
Y4660D02*
D03*
Y4818D02*
D03*
Y4975D02*
D03*
Y5133D02*
D03*
Y5290D02*
D03*
Y5448D02*
D03*
Y5605D02*
D03*
Y5763D02*
D03*
Y5920D02*
D03*
Y6078D02*
D03*
X-5590D02*
D03*
Y5920D02*
D03*
Y5763D02*
D03*
Y5605D02*
D03*
Y5448D02*
D03*
Y5290D02*
D03*
Y5133D02*
D03*
Y4975D02*
D03*
Y4818D02*
D03*
Y4660D02*
D03*
Y4503D02*
D03*
Y4345D02*
D03*
X-7873D02*
D03*
Y4503D02*
D03*
Y4660D02*
D03*
Y4818D02*
D03*
Y4975D02*
D03*
Y5133D02*
D03*
Y5290D02*
D03*
Y5448D02*
D03*
Y5605D02*
D03*
Y5763D02*
D03*
Y5920D02*
D03*
Y6078D02*
D03*
X14795D02*
D03*
Y5920D02*
D03*
Y5763D02*
D03*
Y5605D02*
D03*
Y5448D02*
D03*
Y5290D02*
D03*
Y5133D02*
D03*
Y4975D02*
D03*
Y4818D02*
D03*
Y4660D02*
D03*
Y4503D02*
D03*
Y4345D02*
D03*
X17078D02*
D03*
Y4503D02*
D03*
Y4660D02*
D03*
Y4818D02*
D03*
Y4975D02*
D03*
Y5133D02*
D03*
Y5290D02*
D03*
Y5448D02*
D03*
Y5605D02*
D03*
Y5763D02*
D03*
Y5920D02*
D03*
Y6078D02*
D03*
X22969D02*
D03*
Y5920D02*
D03*
Y5763D02*
D03*
Y5605D02*
D03*
Y5448D02*
D03*
Y5290D02*
D03*
Y5133D02*
D03*
Y4975D02*
D03*
Y4818D02*
D03*
Y4660D02*
D03*
Y4503D02*
D03*
Y4345D02*
D03*
X20686D02*
D03*
Y4503D02*
D03*
Y4660D02*
D03*
Y4818D02*
D03*
Y4975D02*
D03*
Y5133D02*
D03*
Y5290D02*
D03*
Y5448D02*
D03*
Y5605D02*
D03*
Y5763D02*
D03*
Y5920D02*
D03*
Y6078D02*
D03*
D186*
X-13489Y4070D02*
D03*
X-13331D02*
D03*
X-13174D02*
D03*
X-13016D02*
D03*
X-12859D02*
D03*
X-12701D02*
D03*
X-12544D02*
D03*
X-12386D02*
D03*
X-12229D02*
D03*
X-12071D02*
D03*
X-11914D02*
D03*
X-11756D02*
D03*
Y6353D02*
D03*
X-11914D02*
D03*
X-12071D02*
D03*
X-12229D02*
D03*
X-12386D02*
D03*
X-12544D02*
D03*
X-12701D02*
D03*
X-12859D02*
D03*
X-13016D02*
D03*
X-13174D02*
D03*
X-13331D02*
D03*
X-13489D02*
D03*
X-7598D02*
D03*
X-7440D02*
D03*
X-7283D02*
D03*
X-7125D02*
D03*
X-6968D02*
D03*
X-6810D02*
D03*
X-6653D02*
D03*
X-6495D02*
D03*
X-6338D02*
D03*
X-6180D02*
D03*
X-6023D02*
D03*
X-5865D02*
D03*
Y4070D02*
D03*
X-6023D02*
D03*
X-6180D02*
D03*
X-6338D02*
D03*
X-6495D02*
D03*
X-6653D02*
D03*
X-6810D02*
D03*
X-6968D02*
D03*
X-7125D02*
D03*
X-7283D02*
D03*
X-7440D02*
D03*
X-7598D02*
D03*
X15071D02*
D03*
X15228D02*
D03*
X15385D02*
D03*
X15543D02*
D03*
X15700D02*
D03*
X15858D02*
D03*
X16015D02*
D03*
X16173D02*
D03*
X16330D02*
D03*
X16488D02*
D03*
X16645D02*
D03*
X16803D02*
D03*
Y6353D02*
D03*
X16645D02*
D03*
X16488D02*
D03*
X16330D02*
D03*
X16173D02*
D03*
X16015D02*
D03*
X15858D02*
D03*
X15700D02*
D03*
X15543D02*
D03*
X15385D02*
D03*
X15228D02*
D03*
X15071D02*
D03*
X20961D02*
D03*
X21119D02*
D03*
X21276D02*
D03*
X21434D02*
D03*
X21591D02*
D03*
X21749D02*
D03*
X21906D02*
D03*
X22064D02*
D03*
X22221D02*
D03*
X22379D02*
D03*
X22536D02*
D03*
X22694D02*
D03*
Y4070D02*
D03*
X22536D02*
D03*
X22379D02*
D03*
X22221D02*
D03*
X22064D02*
D03*
X21906D02*
D03*
X21749D02*
D03*
X21591D02*
D03*
X21434D02*
D03*
X21276D02*
D03*
X21119D02*
D03*
X20961D02*
D03*
D187*
X-12622Y5211D02*
D03*
X-6731D02*
D03*
X15937D02*
D03*
X21828D02*
D03*
D188*
X-16521Y29330D02*
D03*
X-16885Y30275D02*
D03*
X-16521D02*
D03*
X-16885Y29330D02*
D03*
X12038D02*
D03*
X11674Y30275D02*
D03*
X12038D02*
D03*
X11674Y29330D02*
D03*
D189*
X-16703D02*
D03*
X-16703Y30275D02*
D03*
X11856Y29330D02*
D03*
X11856Y30275D02*
D03*
D190*
X-16527Y28588D02*
D03*
X-17197D02*
D03*
X-17569Y25538D02*
D03*
X-16899D02*
D03*
X-11025Y19102D02*
D03*
X-10355D02*
D03*
X-10416Y11984D02*
D03*
X-11086D02*
D03*
X12032Y28588D02*
D03*
X11362D02*
D03*
X10990Y25538D02*
D03*
X11660D02*
D03*
X17534Y19102D02*
D03*
X18204D02*
D03*
X18143Y11984D02*
D03*
X17473D02*
D03*
D191*
X-21282Y14565D02*
D03*
Y15565D02*
D03*
X-18991Y17556D02*
D03*
Y16556D02*
D03*
X-21282D02*
D03*
Y17556D02*
D03*
X-18991Y15565D02*
D03*
X-18991Y14565D02*
D03*
X7277D02*
D03*
Y15565D02*
D03*
X9568Y17556D02*
D03*
Y16556D02*
D03*
X7277D02*
D03*
Y17556D02*
D03*
X9568Y15565D02*
D03*
X9568Y14565D02*
D03*
D192*
X-14385Y21598D02*
D03*
X-13145D02*
D03*
Y22268D02*
D03*
X-14385D02*
D03*
X14174Y21598D02*
D03*
X15414D02*
D03*
Y22268D02*
D03*
X14174D02*
D03*
D193*
X-13086Y21933D02*
D03*
X-14444D02*
D03*
X15473D02*
D03*
X14115D02*
D03*
D194*
X-16893Y23848D02*
D03*
X-17543D02*
D03*
X-13447Y27313D02*
D03*
X-14097D02*
D03*
X-13447Y28241D02*
D03*
X-14097D02*
D03*
X-13447Y29169D02*
D03*
X-14097D02*
D03*
X11666Y23848D02*
D03*
X11016D02*
D03*
X15112Y27313D02*
D03*
X14462D02*
D03*
X15112Y28241D02*
D03*
X14462D02*
D03*
X15112Y29169D02*
D03*
X14462D02*
D03*
D195*
X-12854Y10401D02*
D03*
Y9582D02*
D03*
X-13406D02*
D03*
Y10401D02*
D03*
X15705D02*
D03*
Y9582D02*
D03*
X15153D02*
D03*
Y10401D02*
D03*
D196*
X-11280Y8028D02*
D03*
X-11792D02*
D03*
X-11536D02*
D03*
X-11024D02*
D03*
X-11792Y10311D02*
D03*
X-11536D02*
D03*
X-11280D02*
D03*
X-11024D02*
D03*
X17279Y8028D02*
D03*
X16768D02*
D03*
X17023D02*
D03*
X17535D02*
D03*
X16768Y10311D02*
D03*
X17023D02*
D03*
X17279D02*
D03*
X17535D02*
D03*
D197*
X-10519Y34049D02*
D03*
X18040D02*
D03*
D198*
X-11011Y34846D02*
D03*
X-10815D02*
D03*
X-10618D02*
D03*
X-10421D02*
D03*
X-10224D02*
D03*
X-10027D02*
D03*
X-11011Y33252D02*
D03*
X-10815D02*
D03*
X-10618D02*
D03*
X-10421D02*
D03*
X-10224D02*
D03*
X-10027D02*
D03*
X17548Y34846D02*
D03*
X17744D02*
D03*
X17941D02*
D03*
X18138D02*
D03*
X18335D02*
D03*
X18532D02*
D03*
X17548Y33252D02*
D03*
X17744D02*
D03*
X17941D02*
D03*
X18138D02*
D03*
X18335D02*
D03*
X18532D02*
D03*
D199*
X-11317Y34541D02*
D03*
Y34344D02*
D03*
Y34147D02*
D03*
X-9722D02*
D03*
Y34344D02*
D03*
Y34541D02*
D03*
X-11317Y33951D02*
D03*
Y33754D02*
D03*
Y33557D02*
D03*
X-9722D02*
D03*
Y33754D02*
D03*
Y33951D02*
D03*
X17242Y34541D02*
D03*
Y34344D02*
D03*
Y34147D02*
D03*
X18837D02*
D03*
Y34344D02*
D03*
Y34541D02*
D03*
X17242Y33951D02*
D03*
Y33754D02*
D03*
Y33557D02*
D03*
X18837D02*
D03*
Y33754D02*
D03*
Y33951D02*
D03*
D200*
X-24197Y5276D02*
D03*
X-23972Y5544D02*
D03*
X4362Y5276D02*
D03*
X4587Y5544D02*
D03*
D201*
X-9748Y3089D02*
D03*
X-10338D02*
D03*
X-9751Y2513D02*
D03*
X-10341D02*
D03*
X-4466Y2494D02*
D03*
X-3876D02*
D03*
X-4463Y3077D02*
D03*
X-3873D02*
D03*
X-17284Y27732D02*
D03*
X-17874D02*
D03*
X18811Y3089D02*
D03*
X18221D02*
D03*
X18808Y2513D02*
D03*
X18218D02*
D03*
X24093Y2494D02*
D03*
X24683D02*
D03*
X24097Y3077D02*
D03*
X24687D02*
D03*
X11275Y27732D02*
D03*
X10685D02*
D03*
D202*
X-10025Y562D02*
D03*
Y1822D02*
D03*
X-4148Y1807D02*
D03*
Y547D02*
D03*
X18534Y562D02*
D03*
Y1822D02*
D03*
X24411Y1807D02*
D03*
Y547D02*
D03*
D203*
X-20174Y10516D02*
D03*
X-19674D02*
D03*
X-19174D02*
D03*
X-18674D02*
D03*
X-20174Y12662D02*
D03*
X-19674D02*
D03*
X-19174D02*
D03*
X-18674D02*
D03*
X8385Y10516D02*
D03*
X8885D02*
D03*
X9385D02*
D03*
X9885D02*
D03*
X8385Y12662D02*
D03*
X8885D02*
D03*
X9385D02*
D03*
X9885D02*
D03*
D204*
X-11661Y25415D02*
D03*
Y25612D02*
D03*
Y25809D02*
D03*
Y25218D02*
D03*
X-10745Y25612D02*
D03*
Y25415D02*
D03*
Y25218D02*
D03*
Y25809D02*
D03*
X16899Y25415D02*
D03*
Y25612D02*
D03*
Y25809D02*
D03*
Y25218D02*
D03*
X17814Y25612D02*
D03*
Y25415D02*
D03*
Y25218D02*
D03*
Y25809D02*
D03*
D205*
X-11006Y25154D02*
D03*
X-11203D02*
D03*
X-11400D02*
D03*
X-11400Y25873D02*
D03*
X-11203D02*
D03*
X-11006D02*
D03*
X17553Y25154D02*
D03*
X17356D02*
D03*
X17159D02*
D03*
X17159Y25873D02*
D03*
X17356D02*
D03*
X17553D02*
D03*
D206*
X-18268Y6935D02*
D03*
Y7585D02*
D03*
X-7983Y15022D02*
D03*
Y14372D02*
D03*
X-8662Y14368D02*
D03*
Y15018D02*
D03*
X-9311Y14368D02*
D03*
Y15018D02*
D03*
X-10001Y14376D02*
D03*
Y15025D02*
D03*
X-10674Y14368D02*
D03*
Y15018D02*
D03*
X-11341Y14368D02*
D03*
Y15018D02*
D03*
X-12003Y14376D02*
D03*
Y15025D02*
D03*
X-12702Y14372D02*
D03*
Y15022D02*
D03*
X-14452Y32528D02*
D03*
Y33177D02*
D03*
X-13531Y32541D02*
D03*
Y33191D02*
D03*
X10291Y6935D02*
D03*
Y7585D02*
D03*
X20576Y15022D02*
D03*
Y14372D02*
D03*
X19897Y14368D02*
D03*
Y15018D02*
D03*
X19248Y14368D02*
D03*
Y15018D02*
D03*
X18559Y14376D02*
D03*
Y15025D02*
D03*
X17885Y14368D02*
D03*
Y15018D02*
D03*
X17218Y14368D02*
D03*
Y15018D02*
D03*
X16556Y14376D02*
D03*
Y15025D02*
D03*
X15857Y14372D02*
D03*
Y15022D02*
D03*
X14107Y32528D02*
D03*
Y33177D02*
D03*
X15028Y32541D02*
D03*
Y33191D02*
D03*
D207*
X-18179Y2988D02*
D03*
Y3973D02*
D03*
X10380Y2988D02*
D03*
Y3973D02*
D03*
D208*
X-16801Y2585D02*
D03*
Y1227D02*
D03*
X11758Y2585D02*
D03*
Y1227D02*
D03*
D209*
X-16467Y2526D02*
D03*
Y1286D02*
D03*
X-17136D02*
D03*
Y2526D02*
D03*
X12092D02*
D03*
Y1286D02*
D03*
X11423D02*
D03*
Y2526D02*
D03*
D210*
X-10164Y9413D02*
D03*
X-9967D02*
D03*
X-9770D02*
D03*
X-9574D02*
D03*
X-10164Y10633D02*
D03*
X-9967D02*
D03*
X-9770D02*
D03*
X-9574D02*
D03*
X18395Y9413D02*
D03*
X18592D02*
D03*
X18789D02*
D03*
X18986D02*
D03*
X18395Y10633D02*
D03*
X18592D02*
D03*
X18789D02*
D03*
X18986D02*
D03*
D211*
X-13623Y8396D02*
D03*
X-14883D02*
D03*
X-7825Y8238D02*
D03*
X-9085D02*
D03*
X14936Y8396D02*
D03*
X13676D02*
D03*
X20734Y8238D02*
D03*
X19474D02*
D03*
D212*
X-7337Y9673D02*
D03*
X-7593D02*
D03*
X-7849D02*
D03*
Y10539D02*
D03*
X-7593D02*
D03*
X-7337D02*
D03*
X21222Y9673D02*
D03*
X20966D02*
D03*
X20711D02*
D03*
Y10539D02*
D03*
X20966D02*
D03*
X21222D02*
D03*
D213*
X-12666Y2206D02*
D03*
Y2462D02*
D03*
Y2718D02*
D03*
X-13177D02*
D03*
Y2462D02*
D03*
Y2206D02*
D03*
X-7306Y2197D02*
D03*
Y2453D02*
D03*
Y2709D02*
D03*
X-6794D02*
D03*
Y2453D02*
D03*
Y2197D02*
D03*
X15894Y2206D02*
D03*
Y2462D02*
D03*
Y2718D02*
D03*
X15382D02*
D03*
Y2462D02*
D03*
Y2206D02*
D03*
X21253Y2197D02*
D03*
Y2453D02*
D03*
Y2709D02*
D03*
X21765D02*
D03*
Y2453D02*
D03*
Y2197D02*
D03*
D214*
X-15791Y33720D02*
D03*
X-15417Y32933D02*
D03*
X-16165D02*
D03*
X12768Y33720D02*
D03*
X13142Y32933D02*
D03*
X12394D02*
D03*
D215*
X-15020Y25656D02*
D03*
X-15808Y25282D02*
D03*
Y26030D02*
D03*
X13539Y25656D02*
D03*
X12751Y25282D02*
D03*
Y26030D02*
D03*
D216*
X-12870Y38404D02*
D03*
Y40004D02*
D03*
X15690Y38404D02*
D03*
Y40004D02*
D03*
D217*
X-9594Y30726D02*
D03*
Y30333D02*
D03*
Y29939D02*
D03*
X-7862Y30726D02*
D03*
Y30530D02*
D03*
Y30136D02*
D03*
X-9594D02*
D03*
X-7862Y30333D02*
D03*
X-9594Y30530D02*
D03*
X-7862Y29939D02*
D03*
X18965Y30726D02*
D03*
Y30333D02*
D03*
Y29939D02*
D03*
X20697Y30726D02*
D03*
Y30530D02*
D03*
Y30136D02*
D03*
X18965D02*
D03*
X20697Y30333D02*
D03*
X18965Y30530D02*
D03*
X20697Y29939D02*
D03*
D218*
X-11889Y35282D02*
D03*
Y34692D02*
D03*
X-12235Y41026D02*
D03*
Y41616D02*
D03*
X16670Y35282D02*
D03*
Y34692D02*
D03*
X16324Y41026D02*
D03*
Y41616D02*
D03*
D219*
X-24189Y4065D02*
D03*
X-23921Y3840D02*
D03*
X4370Y4065D02*
D03*
X4638Y3840D02*
D03*
D220*
X-11700Y31738D02*
D03*
X-10795Y31049D02*
D03*
X-11700Y30361D02*
D03*
X16859Y31738D02*
D03*
X17764Y31049D02*
D03*
X16859Y30361D02*
D03*
D221*
X-17233Y31568D02*
D03*
X-17607Y32343D02*
D03*
X-16859D02*
D03*
X-19180Y33755D02*
D03*
X-18806Y32980D02*
D03*
X-19554D02*
D03*
X11326Y31568D02*
D03*
X10952Y32343D02*
D03*
X11700D02*
D03*
X9379Y33755D02*
D03*
X9753Y32980D02*
D03*
X9005D02*
D03*
D222*
X-16832Y33371D02*
D03*
X-17607Y32997D02*
D03*
Y33745D02*
D03*
X11727Y33371D02*
D03*
X10952Y32997D02*
D03*
Y33745D02*
D03*
D223*
X-19554Y32324D02*
D03*
Y31576D02*
D03*
X-18766Y31950D02*
D03*
X9005Y32324D02*
D03*
Y31576D02*
D03*
X9793Y31950D02*
D03*
D224*
X-19721Y37416D02*
D03*
X-21321D02*
D03*
X8838D02*
D03*
X7238D02*
D03*
D225*
X-15266Y40819D02*
D03*
X-13298D02*
D03*
X13293D02*
D03*
X15261D02*
D03*
D226*
X-15660Y41882D02*
D03*
X-12904D02*
D03*
X12899D02*
D03*
X15655D02*
D03*
D227*
X-21221Y32396D02*
D03*
X7338D02*
D03*
D228*
X-21221Y33396D02*
D03*
X7338D02*
D03*
D229*
X-20137Y15059D02*
D03*
Y17070D02*
D03*
X8422Y15059D02*
D03*
Y17070D02*
D03*
D230*
X-9272Y23067D02*
D03*
X-9258Y24254D02*
D03*
X-19488Y25911D02*
D03*
Y29067D02*
D03*
Y27489D02*
D03*
Y24332D02*
D03*
Y30646D02*
D03*
X-7228Y32288D02*
D03*
X-9078D02*
D03*
X-21326Y35479D02*
D03*
X-15300D02*
D03*
X-15052Y31268D02*
D03*
X19287Y23067D02*
D03*
X19301Y24254D02*
D03*
X9071Y25911D02*
D03*
Y29067D02*
D03*
Y27489D02*
D03*
Y24332D02*
D03*
Y30646D02*
D03*
X21331Y32288D02*
D03*
X19481D02*
D03*
X7233Y35479D02*
D03*
X13259D02*
D03*
X13507Y31268D02*
D03*
D231*
X-1785Y40049D02*
D03*
X-2785Y39049D02*
D03*
X-1785D02*
D03*
Y37049D02*
D03*
Y38049D02*
D03*
Y36049D02*
D03*
X-2785Y37049D02*
D03*
Y38049D02*
D03*
Y36049D02*
D03*
X-1785Y34049D02*
D03*
Y35049D02*
D03*
Y32049D02*
D03*
Y33049D02*
D03*
X-2785Y31049D02*
D03*
Y32049D02*
D03*
X-1785Y31049D02*
D03*
Y29049D02*
D03*
Y30049D02*
D03*
Y28049D02*
D03*
Y27049D02*
D03*
X-2785Y30049D02*
D03*
X-1785Y26049D02*
D03*
X-2785Y34049D02*
D03*
Y35049D02*
D03*
Y33049D02*
D03*
Y28049D02*
D03*
Y29049D02*
D03*
Y26049D02*
D03*
Y27049D02*
D03*
X-4785Y39659D02*
D03*
Y37659D02*
D03*
Y38659D02*
D03*
X-5785D02*
D03*
X-4785Y36659D02*
D03*
Y35659D02*
D03*
X-5785Y37659D02*
D03*
Y36659D02*
D03*
X-4785Y33659D02*
D03*
Y34659D02*
D03*
Y31659D02*
D03*
Y32659D02*
D03*
X-5785Y33659D02*
D03*
X-4785Y26059D02*
D03*
Y27059D02*
D03*
Y25059D02*
D03*
Y29059D02*
D03*
Y30659D02*
D03*
Y28059D02*
D03*
X-5785Y34659D02*
D03*
Y35659D02*
D03*
Y31659D02*
D03*
Y32659D02*
D03*
Y30659D02*
D03*
Y26059D02*
D03*
Y27059D02*
D03*
Y25059D02*
D03*
Y28059D02*
D03*
X-1785Y21049D02*
D03*
Y22049D02*
D03*
Y18049D02*
D03*
Y19049D02*
D03*
Y24049D02*
D03*
Y25049D02*
D03*
Y23049D02*
D03*
X-2785D02*
D03*
Y24049D02*
D03*
X-1785Y20049D02*
D03*
X-2785Y22049D02*
D03*
Y20049D02*
D03*
Y21049D02*
D03*
Y19049D02*
D03*
X-1785Y16049D02*
D03*
Y17049D02*
D03*
Y15049D02*
D03*
X-2785Y17049D02*
D03*
Y18049D02*
D03*
Y16049D02*
D03*
X-1785Y13049D02*
D03*
Y14049D02*
D03*
Y11049D02*
D03*
Y12049D02*
D03*
X-2785Y14049D02*
D03*
Y15049D02*
D03*
Y12049D02*
D03*
X-1785Y6049D02*
D03*
Y7049D02*
D03*
Y5049D02*
D03*
Y9049D02*
D03*
Y10049D02*
D03*
Y8049D02*
D03*
X-2785Y7049D02*
D03*
Y8049D02*
D03*
Y5049D02*
D03*
Y6049D02*
D03*
Y10049D02*
D03*
Y13049D02*
D03*
Y9049D02*
D03*
Y25049D02*
D03*
X-4785Y24059D02*
D03*
Y22059D02*
D03*
Y23059D02*
D03*
Y20059D02*
D03*
Y21059D02*
D03*
Y19059D02*
D03*
X-5785Y23059D02*
D03*
Y24059D02*
D03*
Y22059D02*
D03*
Y21059D02*
D03*
Y19059D02*
D03*
Y20059D02*
D03*
Y18059D02*
D03*
X-4785Y17059D02*
D03*
Y18059D02*
D03*
Y15059D02*
D03*
Y16059D02*
D03*
X-5785D02*
D03*
Y17059D02*
D03*
Y15059D02*
D03*
X-4785Y13059D02*
D03*
Y14059D02*
D03*
X-2785Y11049D02*
D03*
X-5785Y13059D02*
D03*
Y14059D02*
D03*
X-22785Y36049D02*
D03*
Y34049D02*
D03*
Y35049D02*
D03*
X-23785Y33049D02*
D03*
Y34049D02*
D03*
X-22785Y33049D02*
D03*
Y32049D02*
D03*
X-23785Y35049D02*
D03*
Y32049D02*
D03*
X-22785Y30049D02*
D03*
Y31049D02*
D03*
Y29049D02*
D03*
Y26049D02*
D03*
Y27049D02*
D03*
Y25049D02*
D03*
Y24049D02*
D03*
Y23049D02*
D03*
X-23785D02*
D03*
X-22785Y22049D02*
D03*
X-23785Y30049D02*
D03*
Y31049D02*
D03*
Y29049D02*
D03*
Y25049D02*
D03*
Y26049D02*
D03*
Y24049D02*
D03*
X-25785Y39049D02*
D03*
Y40049D02*
D03*
Y37049D02*
D03*
X-26785Y39049D02*
D03*
X-25785Y38049D02*
D03*
Y36049D02*
D03*
Y35049D02*
D03*
X-26785D02*
D03*
Y36049D02*
D03*
Y34049D02*
D03*
Y38049D02*
D03*
Y37049D02*
D03*
X-25785Y30049D02*
D03*
Y31049D02*
D03*
Y28049D02*
D03*
Y29049D02*
D03*
Y33049D02*
D03*
Y34049D02*
D03*
Y32049D02*
D03*
Y27049D02*
D03*
Y24049D02*
D03*
Y25049D02*
D03*
Y23049D02*
D03*
X-26785Y29049D02*
D03*
Y30049D02*
D03*
Y27049D02*
D03*
Y28049D02*
D03*
Y32049D02*
D03*
Y33049D02*
D03*
Y31049D02*
D03*
X-25785Y26049D02*
D03*
X-26785D02*
D03*
X-25785Y22049D02*
D03*
X-26785Y24049D02*
D03*
Y25049D02*
D03*
Y23049D02*
D03*
X-22785Y20049D02*
D03*
Y21049D02*
D03*
Y18049D02*
D03*
Y19049D02*
D03*
Y15049D02*
D03*
Y14049D02*
D03*
Y13049D02*
D03*
X-23785Y21049D02*
D03*
Y22049D02*
D03*
Y18049D02*
D03*
Y20049D02*
D03*
Y17049D02*
D03*
X-22785D02*
D03*
Y16049D02*
D03*
X-23785Y15049D02*
D03*
Y16049D02*
D03*
Y14049D02*
D03*
Y13049D02*
D03*
X-25785Y20049D02*
D03*
Y21049D02*
D03*
X-23785Y19049D02*
D03*
X-25785D02*
D03*
Y17049D02*
D03*
Y18049D02*
D03*
Y16049D02*
D03*
X-26785Y18049D02*
D03*
Y19049D02*
D03*
Y16049D02*
D03*
Y17049D02*
D03*
Y21049D02*
D03*
Y22049D02*
D03*
Y20049D02*
D03*
X-25785Y14049D02*
D03*
Y15049D02*
D03*
Y12049D02*
D03*
Y13049D02*
D03*
Y11049D02*
D03*
X-26785Y12049D02*
D03*
X-25785Y10049D02*
D03*
Y8049D02*
D03*
Y9049D02*
D03*
Y7049D02*
D03*
Y5049D02*
D03*
Y6049D02*
D03*
X-26785Y5049D02*
D03*
Y10049D02*
D03*
Y11049D02*
D03*
Y9049D02*
D03*
Y14049D02*
D03*
Y15049D02*
D03*
Y13049D02*
D03*
Y7049D02*
D03*
Y8049D02*
D03*
Y6049D02*
D03*
X26774Y40049D02*
D03*
X25774Y39049D02*
D03*
X26774D02*
D03*
Y37049D02*
D03*
Y38049D02*
D03*
Y36049D02*
D03*
X25774Y37049D02*
D03*
Y38049D02*
D03*
Y36049D02*
D03*
X26774Y34049D02*
D03*
Y35049D02*
D03*
Y32049D02*
D03*
Y33049D02*
D03*
X25774Y31049D02*
D03*
Y32049D02*
D03*
X26774Y31049D02*
D03*
Y29049D02*
D03*
Y30049D02*
D03*
Y28049D02*
D03*
Y27049D02*
D03*
X25774Y30049D02*
D03*
X26774Y26049D02*
D03*
X25774Y34049D02*
D03*
Y35049D02*
D03*
Y33049D02*
D03*
Y28049D02*
D03*
Y29049D02*
D03*
Y26049D02*
D03*
Y27049D02*
D03*
X23774Y39659D02*
D03*
Y37659D02*
D03*
Y38659D02*
D03*
X22774D02*
D03*
X23774Y36659D02*
D03*
Y35659D02*
D03*
X22774Y37659D02*
D03*
Y36659D02*
D03*
X23774Y33659D02*
D03*
Y34659D02*
D03*
Y31659D02*
D03*
Y32659D02*
D03*
X22774Y33659D02*
D03*
X23774Y26059D02*
D03*
Y27059D02*
D03*
Y25059D02*
D03*
Y29059D02*
D03*
Y30659D02*
D03*
Y28059D02*
D03*
X22774Y34659D02*
D03*
Y35659D02*
D03*
Y31659D02*
D03*
Y32659D02*
D03*
Y30659D02*
D03*
Y26059D02*
D03*
Y27059D02*
D03*
Y25059D02*
D03*
Y28059D02*
D03*
X26774Y21049D02*
D03*
Y22049D02*
D03*
Y18049D02*
D03*
Y19049D02*
D03*
Y24049D02*
D03*
Y25049D02*
D03*
Y23049D02*
D03*
X25774D02*
D03*
Y24049D02*
D03*
X26774Y20049D02*
D03*
X25774Y22049D02*
D03*
Y20049D02*
D03*
Y21049D02*
D03*
Y19049D02*
D03*
X26774Y16049D02*
D03*
Y17049D02*
D03*
Y15049D02*
D03*
X25774Y17049D02*
D03*
Y18049D02*
D03*
Y16049D02*
D03*
X26774Y13049D02*
D03*
Y14049D02*
D03*
Y11049D02*
D03*
Y12049D02*
D03*
X25774Y14049D02*
D03*
Y15049D02*
D03*
Y12049D02*
D03*
X26774Y6049D02*
D03*
Y7049D02*
D03*
Y5049D02*
D03*
Y9049D02*
D03*
Y10049D02*
D03*
Y8049D02*
D03*
X25774Y7049D02*
D03*
Y8049D02*
D03*
Y5049D02*
D03*
Y6049D02*
D03*
Y10049D02*
D03*
Y13049D02*
D03*
Y9049D02*
D03*
Y25049D02*
D03*
X23774Y24059D02*
D03*
Y22059D02*
D03*
Y23059D02*
D03*
Y20059D02*
D03*
Y21059D02*
D03*
Y19059D02*
D03*
X22774Y23059D02*
D03*
Y24059D02*
D03*
Y22059D02*
D03*
Y21059D02*
D03*
Y19059D02*
D03*
Y20059D02*
D03*
Y18059D02*
D03*
X23774Y17059D02*
D03*
Y18059D02*
D03*
Y15059D02*
D03*
Y16059D02*
D03*
X22774D02*
D03*
Y17059D02*
D03*
Y15059D02*
D03*
X23774Y13059D02*
D03*
Y14059D02*
D03*
X25774Y11049D02*
D03*
X22774Y13059D02*
D03*
Y14059D02*
D03*
X5774Y36049D02*
D03*
Y34049D02*
D03*
Y35049D02*
D03*
X4774Y33049D02*
D03*
Y34049D02*
D03*
X5774Y33049D02*
D03*
Y32049D02*
D03*
X4774Y35049D02*
D03*
Y32049D02*
D03*
X5774Y30049D02*
D03*
Y31049D02*
D03*
Y29049D02*
D03*
Y26049D02*
D03*
Y27049D02*
D03*
Y25049D02*
D03*
Y24049D02*
D03*
Y23049D02*
D03*
X4774D02*
D03*
X5774Y22049D02*
D03*
X4774Y30049D02*
D03*
Y31049D02*
D03*
Y29049D02*
D03*
Y25049D02*
D03*
Y26049D02*
D03*
Y24049D02*
D03*
X2774Y39049D02*
D03*
Y40049D02*
D03*
Y37049D02*
D03*
X1774Y39049D02*
D03*
X2774Y38049D02*
D03*
Y36049D02*
D03*
Y35049D02*
D03*
X1774D02*
D03*
Y36049D02*
D03*
Y34049D02*
D03*
Y38049D02*
D03*
Y37049D02*
D03*
X2774Y30049D02*
D03*
Y31049D02*
D03*
Y28049D02*
D03*
Y29049D02*
D03*
Y33049D02*
D03*
Y34049D02*
D03*
Y32049D02*
D03*
Y27049D02*
D03*
Y24049D02*
D03*
Y25049D02*
D03*
Y23049D02*
D03*
X1774Y29049D02*
D03*
Y30049D02*
D03*
Y27049D02*
D03*
Y28049D02*
D03*
Y32049D02*
D03*
Y33049D02*
D03*
Y31049D02*
D03*
X2774Y26049D02*
D03*
X1774D02*
D03*
X2774Y22049D02*
D03*
X1774Y24049D02*
D03*
Y25049D02*
D03*
Y23049D02*
D03*
X5774Y20049D02*
D03*
Y21049D02*
D03*
Y18049D02*
D03*
Y19049D02*
D03*
Y15049D02*
D03*
Y14049D02*
D03*
Y13049D02*
D03*
X4774Y21049D02*
D03*
Y22049D02*
D03*
Y18049D02*
D03*
Y20049D02*
D03*
Y17049D02*
D03*
X5774D02*
D03*
Y16049D02*
D03*
X4774Y15049D02*
D03*
Y16049D02*
D03*
Y14049D02*
D03*
Y13049D02*
D03*
X2774Y20049D02*
D03*
Y21049D02*
D03*
X4774Y19049D02*
D03*
X2774D02*
D03*
Y17049D02*
D03*
Y18049D02*
D03*
Y16049D02*
D03*
X1774Y18049D02*
D03*
Y19049D02*
D03*
Y16049D02*
D03*
Y17049D02*
D03*
Y21049D02*
D03*
Y22049D02*
D03*
Y20049D02*
D03*
X2774Y14049D02*
D03*
Y15049D02*
D03*
Y12049D02*
D03*
Y13049D02*
D03*
Y11049D02*
D03*
X1774Y12049D02*
D03*
X2774Y10049D02*
D03*
Y8049D02*
D03*
Y9049D02*
D03*
Y7049D02*
D03*
Y5049D02*
D03*
Y6049D02*
D03*
X1774Y5049D02*
D03*
Y10049D02*
D03*
Y11049D02*
D03*
Y9049D02*
D03*
Y14049D02*
D03*
Y15049D02*
D03*
Y13049D02*
D03*
Y7049D02*
D03*
Y8049D02*
D03*
Y6049D02*
D03*
D232*
X-2785Y40049D02*
D03*
X-5785Y39659D02*
D03*
Y29059D02*
D03*
X-23785Y36049D02*
D03*
Y27049D02*
D03*
X-26785Y40049D02*
D03*
X25774D02*
D03*
X22774Y39659D02*
D03*
Y29059D02*
D03*
X4774Y36049D02*
D03*
Y27049D02*
D03*
X1774Y40049D02*
D03*
D233*
X-4785Y41159D02*
D03*
X-10785Y21159D02*
D03*
X-5285Y11659D02*
D03*
X-23785Y41659D02*
D03*
X-23285Y11659D02*
D03*
X23774Y41159D02*
D03*
X17774Y21159D02*
D03*
X23274Y11659D02*
D03*
X4774Y41659D02*
D03*
X5274Y11659D02*
D03*
D234*
X-8354Y39077D02*
D03*
X-12022Y27479D02*
D03*
X-7338Y23618D02*
D03*
X-10613Y28675D02*
D03*
X-7798D02*
D03*
X-9205Y27479D02*
D03*
X-26349Y1225D02*
D03*
X-1825Y1270D02*
D03*
X20205Y39077D02*
D03*
X16537Y27479D02*
D03*
X21221Y23618D02*
D03*
X17946Y28675D02*
D03*
X20761D02*
D03*
X19354Y27479D02*
D03*
X2211Y1225D02*
D03*
X26734Y1270D02*
D03*
D235*
X-21521Y27913D02*
D03*
X7038D02*
D03*
D236*
X-21521Y26913D02*
D03*
Y25913D02*
D03*
X-19159Y35479D02*
D03*
X-18159D02*
D03*
X7038Y26913D02*
D03*
Y25913D02*
D03*
X9400Y35479D02*
D03*
X10400D02*
D03*
D237*
X-21311Y40102D02*
D03*
X7248D02*
D03*
D238*
X-19343D02*
D03*
X9216D02*
D03*
D239*
X-17159Y35479D02*
D03*
X11400D02*
D03*
D240*
X-13280Y20121D02*
D03*
Y19398D02*
D03*
Y20843D02*
D03*
X-14002D02*
D03*
Y19398D02*
D03*
X-12918Y20482D02*
D03*
X-14363D02*
D03*
X-13641D02*
D03*
X-12918Y19760D02*
D03*
X-14363D02*
D03*
X-13641D02*
D03*
X-14002Y20121D02*
D03*
X15279D02*
D03*
Y19398D02*
D03*
Y20843D02*
D03*
X14557D02*
D03*
Y19398D02*
D03*
X15641Y20482D02*
D03*
X14196D02*
D03*
X14918D02*
D03*
X15641Y19760D02*
D03*
X14196D02*
D03*
X14918D02*
D03*
X14557Y20121D02*
D03*
D241*
X-20286Y5803D02*
D03*
Y5370D02*
D03*
Y4937D02*
D03*
Y4504D02*
D03*
X-20719Y5803D02*
D03*
Y4504D02*
D03*
X-21152Y5803D02*
D03*
X-21585D02*
D03*
Y5370D02*
D03*
Y4937D02*
D03*
Y4504D02*
D03*
X-21152D02*
D03*
X-20719Y4937D02*
D03*
Y5370D02*
D03*
X-21152Y4937D02*
D03*
X-21132Y5370D02*
D03*
X-13174Y5211D02*
D03*
Y5763D02*
D03*
X-12622D02*
D03*
Y5211D02*
D03*
X-6180Y5763D02*
D03*
Y5211D02*
D03*
Y4660D02*
D03*
X-6731D02*
D03*
X-7283D02*
D03*
Y5211D02*
D03*
Y5763D02*
D03*
X-6731D02*
D03*
Y5211D02*
D03*
X-12071Y5763D02*
D03*
Y5211D02*
D03*
Y4660D02*
D03*
X-12622D02*
D03*
X-13174D02*
D03*
X8273Y5803D02*
D03*
Y5370D02*
D03*
Y4937D02*
D03*
Y4504D02*
D03*
X7840Y5803D02*
D03*
Y4504D02*
D03*
X7407Y5803D02*
D03*
X6974D02*
D03*
Y5370D02*
D03*
Y4937D02*
D03*
Y4504D02*
D03*
X7407D02*
D03*
X7840Y4937D02*
D03*
Y5370D02*
D03*
X7407Y4937D02*
D03*
X7427Y5370D02*
D03*
X15385Y5211D02*
D03*
Y5763D02*
D03*
X15937D02*
D03*
Y5211D02*
D03*
X22379Y5763D02*
D03*
Y5211D02*
D03*
Y4660D02*
D03*
X21828D02*
D03*
X21276D02*
D03*
Y5211D02*
D03*
Y5763D02*
D03*
X21828D02*
D03*
Y5211D02*
D03*
X16488Y5763D02*
D03*
Y5211D02*
D03*
Y4660D02*
D03*
X15937D02*
D03*
X15385D02*
D03*
D242*
X-10303Y34266D02*
D03*
Y33832D02*
D03*
X-10736Y34266D02*
D03*
Y33832D02*
D03*
X18256Y34266D02*
D03*
Y33832D02*
D03*
X17823Y34266D02*
D03*
Y33832D02*
D03*
M02*
