G04*
G04 #@! TF.GenerationSoftware,Altium Limited,Altium Designer,20.1.11 (218)*
G04*
G04 Layer_Color=16711935*
%FSLAX24Y24*%
%MOIN*%
G70*
G04*
G04 #@! TF.SameCoordinates,92D26CB7-C01A-42DE-83F2-B7204DD2D48F*
G04*
G04*
G04 #@! TF.FilePolarity,Negative*
G04*
G01*
G75*
%ADD13C,0.0200*%
%ADD163R,0.0935X0.0935*%
%ADD164R,0.1644X0.0935*%
%ADD166C,0.1181*%
G04:AMPARAMS|DCode=168|XSize=23.9mil|YSize=23.9mil|CornerRadius=8mil|HoleSize=0mil|Usage=FLASHONLY|Rotation=180.000|XOffset=0mil|YOffset=0mil|HoleType=Round|Shape=RoundedRectangle|*
%AMROUNDEDRECTD168*
21,1,0.0239,0.0080,0,0,180.0*
21,1,0.0080,0.0239,0,0,180.0*
1,1,0.0159,-0.0040,0.0040*
1,1,0.0159,0.0040,0.0040*
1,1,0.0159,0.0040,-0.0040*
1,1,0.0159,-0.0040,-0.0040*
%
%ADD168ROUNDEDRECTD168*%
G04:AMPARAMS|DCode=171|XSize=23.9mil|YSize=23.9mil|CornerRadius=8mil|HoleSize=0mil|Usage=FLASHONLY|Rotation=90.000|XOffset=0mil|YOffset=0mil|HoleType=Round|Shape=RoundedRectangle|*
%AMROUNDEDRECTD171*
21,1,0.0239,0.0080,0,0,90.0*
21,1,0.0080,0.0239,0,0,90.0*
1,1,0.0159,0.0040,0.0040*
1,1,0.0159,0.0040,-0.0040*
1,1,0.0159,-0.0040,-0.0040*
1,1,0.0159,-0.0040,0.0040*
%
%ADD171ROUNDEDRECTD171*%
G04:AMPARAMS|DCode=225|XSize=53.1mil|YSize=41.3mil|CornerRadius=20.7mil|HoleSize=0mil|Usage=FLASHONLY|Rotation=180.000|XOffset=0mil|YOffset=0mil|HoleType=Round|Shape=RoundedRectangle|*
%AMROUNDEDRECTD225*
21,1,0.0531,0.0000,0,0,180.0*
21,1,0.0118,0.0413,0,0,180.0*
1,1,0.0413,-0.0059,0.0000*
1,1,0.0413,0.0059,0.0000*
1,1,0.0413,0.0059,0.0000*
1,1,0.0413,-0.0059,0.0000*
%
%ADD225ROUNDEDRECTD225*%
G04:AMPARAMS|DCode=226|XSize=41.3mil|YSize=65mil|CornerRadius=20.7mil|HoleSize=0mil|Usage=FLASHONLY|Rotation=180.000|XOffset=0mil|YOffset=0mil|HoleType=Round|Shape=RoundedRectangle|*
%AMROUNDEDRECTD226*
21,1,0.0413,0.0236,0,0,180.0*
21,1,0.0000,0.0650,0,0,180.0*
1,1,0.0413,0.0000,0.0118*
1,1,0.0413,0.0000,0.0118*
1,1,0.0413,0.0000,-0.0118*
1,1,0.0413,0.0000,-0.0118*
%
%ADD226ROUNDEDRECTD226*%
%ADD227R,0.0640X0.0640*%
%ADD228C,0.0640*%
%ADD229C,0.0434*%
%ADD230C,0.0680*%
%ADD231C,0.0749*%
%ADD232R,0.0749X0.0749*%
%ADD233C,0.1300*%
%ADD234C,0.0985*%
%ADD235R,0.0787X0.0787*%
%ADD236C,0.0787*%
%ADD237C,0.0768*%
%ADD238R,0.0768X0.0768*%
%ADD239R,0.0787X0.0787*%
%ADD240C,0.0197*%
%ADD241C,0.0237*%
%ADD242C,0.0240*%
%ADD243R,0.0935X0.0935*%
G04:AMPARAMS|DCode=244|XSize=84.3mil|YSize=40.9mil|CornerRadius=6.3mil|HoleSize=0mil|Usage=FLASHONLY|Rotation=270.000|XOffset=0mil|YOffset=0mil|HoleType=Round|Shape=RoundedRectangle|*
%AMROUNDEDRECTD244*
21,1,0.0843,0.0283,0,0,270.0*
21,1,0.0717,0.0409,0,0,270.0*
1,1,0.0126,-0.0142,-0.0358*
1,1,0.0126,-0.0142,0.0358*
1,1,0.0126,0.0142,0.0358*
1,1,0.0126,0.0142,-0.0358*
%
%ADD244ROUNDEDRECTD244*%
G04:AMPARAMS|DCode=245|XSize=84.3mil|YSize=40.9mil|CornerRadius=6.3mil|HoleSize=0mil|Usage=FLASHONLY|Rotation=0.000|XOffset=0mil|YOffset=0mil|HoleType=Round|Shape=RoundedRectangle|*
%AMROUNDEDRECTD245*
21,1,0.0843,0.0283,0,0,0.0*
21,1,0.0717,0.0409,0,0,0.0*
1,1,0.0126,0.0358,-0.0142*
1,1,0.0126,-0.0358,-0.0142*
1,1,0.0126,-0.0358,0.0142*
1,1,0.0126,0.0358,0.0142*
%
%ADD245ROUNDEDRECTD245*%
G04:AMPARAMS|DCode=246|XSize=40.9mil|YSize=84.3mil|CornerRadius=6.3mil|HoleSize=0mil|Usage=FLASHONLY|Rotation=0.000|XOffset=0mil|YOffset=0mil|HoleType=Round|Shape=RoundedRectangle|*
%AMROUNDEDRECTD246*
21,1,0.0409,0.0717,0,0,0.0*
21,1,0.0283,0.0843,0,0,0.0*
1,1,0.0126,0.0142,-0.0358*
1,1,0.0126,-0.0142,-0.0358*
1,1,0.0126,-0.0142,0.0358*
1,1,0.0126,0.0142,0.0358*
%
%ADD246ROUNDEDRECTD246*%
G04:AMPARAMS|DCode=247|XSize=57.9mil|YSize=57.9mil|CornerRadius=0mil|HoleSize=0mil|Usage=FLASHONLY|Rotation=270.000|XOffset=0mil|YOffset=0mil|HoleType=Round|Shape=RoundedRectangle|*
%AMROUNDEDRECTD247*
21,1,0.0579,0.0579,0,0,270.0*
21,1,0.0579,0.0579,0,0,270.0*
1,1,0.0000,-0.0289,-0.0289*
1,1,0.0000,-0.0289,0.0289*
1,1,0.0000,0.0289,0.0289*
1,1,0.0000,0.0289,-0.0289*
%
%ADD247ROUNDEDRECTD247*%
G04:AMPARAMS|DCode=248|XSize=76.4mil|YSize=44.9mil|CornerRadius=6.7mil|HoleSize=0mil|Usage=FLASHONLY|Rotation=270.000|XOffset=0mil|YOffset=0mil|HoleType=Round|Shape=RoundedRectangle|*
%AMROUNDEDRECTD248*
21,1,0.0764,0.0315,0,0,270.0*
21,1,0.0630,0.0449,0,0,270.0*
1,1,0.0134,-0.0157,-0.0315*
1,1,0.0134,-0.0157,0.0315*
1,1,0.0134,0.0157,0.0315*
1,1,0.0134,0.0157,-0.0315*
%
%ADD248ROUNDEDRECTD248*%
D13*
X108975Y47300D02*
Y46300D01*
X109475D01*
X109642Y46467D01*
Y46634D01*
X109475Y46800D01*
X108975D01*
X109475D01*
X109642Y46967D01*
Y47134D01*
X109475Y47300D01*
X108975D01*
X110475D02*
X110141D01*
X109975Y47134D01*
Y46467D01*
X110141Y46300D01*
X110475D01*
X110641Y46467D01*
Y47134D01*
X110475Y47300D01*
X110975D02*
X111641D01*
X111308D01*
Y46300D01*
X111974Y47300D02*
X112641D01*
X112307D01*
Y46300D01*
X113474Y47300D02*
X113140D01*
X112974Y47134D01*
Y46467D01*
X113140Y46300D01*
X113474D01*
X113640Y46467D01*
Y47134D01*
X113474Y47300D01*
X113974Y46300D02*
Y47300D01*
X114307Y46967D01*
X114640Y47300D01*
Y46300D01*
X116639Y47134D02*
X116473Y47300D01*
X116140D01*
X115973Y47134D01*
Y46967D01*
X116140Y46800D01*
X116473D01*
X116639Y46634D01*
Y46467D01*
X116473Y46300D01*
X116140D01*
X115973Y46467D01*
X117472Y47300D02*
X117139D01*
X116973Y47134D01*
Y46467D01*
X117139Y46300D01*
X117472D01*
X117639Y46467D01*
Y47134D01*
X117472Y47300D01*
X117972D02*
Y46300D01*
X118639D01*
X118972Y47300D02*
Y46300D01*
X119472D01*
X119638Y46467D01*
Y47134D01*
X119472Y47300D01*
X118972D01*
X120638D02*
X119972D01*
Y46300D01*
X120638D01*
X119972Y46800D02*
X120305D01*
X120971Y46300D02*
Y47300D01*
X121471D01*
X121638Y47134D01*
Y46800D01*
X121471Y46634D01*
X120971D01*
X121305D02*
X121638Y46300D01*
X121971D02*
Y47300D01*
X122304Y46967D01*
X122637Y47300D01*
Y46300D01*
X122971D02*
Y46967D01*
X123304Y47300D01*
X123637Y46967D01*
Y46300D01*
Y46800D01*
X122971D01*
X124637Y47134D02*
X124470Y47300D01*
X124137D01*
X123970Y47134D01*
Y46967D01*
X124137Y46800D01*
X124470D01*
X124637Y46634D01*
Y46467D01*
X124470Y46300D01*
X124137D01*
X123970Y46467D01*
X124970Y47300D02*
Y46300D01*
Y46634D01*
X125636Y47300D01*
X125137Y46800D01*
X125636Y46300D01*
D163*
X-837Y-3906D02*
D03*
X-1722D02*
D03*
D164*
X-3031Y-3856D02*
D03*
D166*
X-28861Y-2694D02*
D03*
X32012Y45766D02*
D03*
X31955Y-2694D02*
D03*
X-1750Y3471D02*
D03*
X-7744Y36402D02*
D03*
X-26479Y3547D02*
D03*
X26809Y3471D02*
D03*
X20815Y36402D02*
D03*
X2080Y3547D02*
D03*
D168*
X-16669Y16417D02*
D03*
Y16067D02*
D03*
X-17171Y16406D02*
D03*
Y16056D02*
D03*
X-17624Y16406D02*
D03*
Y16056D02*
D03*
X11890Y16417D02*
D03*
Y16067D02*
D03*
X11388Y16406D02*
D03*
Y16056D02*
D03*
X10935Y16406D02*
D03*
Y16056D02*
D03*
D171*
X-15103Y14932D02*
D03*
X-15453D02*
D03*
X-14732Y16255D02*
D03*
X-15082D02*
D03*
X-15814D02*
D03*
X-15464D02*
D03*
X-18593Y18811D02*
D03*
X-18243D02*
D03*
X13456Y14932D02*
D03*
X13106D02*
D03*
X13827Y16255D02*
D03*
X13477D02*
D03*
X12745D02*
D03*
X13095D02*
D03*
X9966Y18811D02*
D03*
X10316D02*
D03*
D225*
X-15266Y40819D02*
D03*
X-13298D02*
D03*
X13293D02*
D03*
X15261D02*
D03*
D226*
X-15660Y41882D02*
D03*
X-12904D02*
D03*
X12899D02*
D03*
X15655D02*
D03*
D227*
X-21221Y32396D02*
D03*
X7338D02*
D03*
D228*
X-21221Y33396D02*
D03*
X7338D02*
D03*
D229*
X-20137Y15059D02*
D03*
Y17070D02*
D03*
X8422Y15059D02*
D03*
Y17070D02*
D03*
D230*
X-9272Y23067D02*
D03*
X-9258Y24254D02*
D03*
X-19488Y25911D02*
D03*
Y29067D02*
D03*
Y27489D02*
D03*
Y24332D02*
D03*
Y30646D02*
D03*
X-7228Y32288D02*
D03*
X-9078D02*
D03*
X-21326Y35479D02*
D03*
X-15300D02*
D03*
X-15052Y31268D02*
D03*
X19287Y23067D02*
D03*
X19301Y24254D02*
D03*
X9071Y25911D02*
D03*
Y29067D02*
D03*
Y27489D02*
D03*
Y24332D02*
D03*
Y30646D02*
D03*
X21331Y32288D02*
D03*
X19481D02*
D03*
X7233Y35479D02*
D03*
X13259D02*
D03*
X13507Y31268D02*
D03*
D231*
X-1785Y40049D02*
D03*
X-2785Y39049D02*
D03*
X-1785D02*
D03*
Y37049D02*
D03*
Y38049D02*
D03*
Y36049D02*
D03*
X-2785Y37049D02*
D03*
Y38049D02*
D03*
Y36049D02*
D03*
X-1785Y34049D02*
D03*
Y35049D02*
D03*
Y32049D02*
D03*
Y33049D02*
D03*
X-2785Y31049D02*
D03*
Y32049D02*
D03*
X-1785Y31049D02*
D03*
Y29049D02*
D03*
Y30049D02*
D03*
Y28049D02*
D03*
Y27049D02*
D03*
X-2785Y30049D02*
D03*
X-1785Y26049D02*
D03*
X-2785Y34049D02*
D03*
Y35049D02*
D03*
Y33049D02*
D03*
Y28049D02*
D03*
Y29049D02*
D03*
Y26049D02*
D03*
Y27049D02*
D03*
X-4785Y39659D02*
D03*
Y37659D02*
D03*
Y38659D02*
D03*
X-5785D02*
D03*
X-4785Y36659D02*
D03*
Y35659D02*
D03*
X-5785Y37659D02*
D03*
Y36659D02*
D03*
X-4785Y33659D02*
D03*
Y34659D02*
D03*
Y31659D02*
D03*
Y32659D02*
D03*
X-5785Y33659D02*
D03*
X-4785Y26059D02*
D03*
Y27059D02*
D03*
Y25059D02*
D03*
Y29059D02*
D03*
Y30659D02*
D03*
Y28059D02*
D03*
X-5785Y34659D02*
D03*
Y35659D02*
D03*
Y31659D02*
D03*
Y32659D02*
D03*
Y30659D02*
D03*
Y26059D02*
D03*
Y27059D02*
D03*
Y25059D02*
D03*
Y28059D02*
D03*
X-1785Y21049D02*
D03*
Y22049D02*
D03*
Y18049D02*
D03*
Y19049D02*
D03*
Y24049D02*
D03*
Y25049D02*
D03*
Y23049D02*
D03*
X-2785D02*
D03*
Y24049D02*
D03*
X-1785Y20049D02*
D03*
X-2785Y22049D02*
D03*
Y20049D02*
D03*
Y21049D02*
D03*
Y19049D02*
D03*
X-1785Y16049D02*
D03*
Y17049D02*
D03*
Y15049D02*
D03*
X-2785Y17049D02*
D03*
Y18049D02*
D03*
Y16049D02*
D03*
X-1785Y13049D02*
D03*
Y14049D02*
D03*
Y11049D02*
D03*
Y12049D02*
D03*
X-2785Y14049D02*
D03*
Y15049D02*
D03*
Y12049D02*
D03*
X-1785Y6049D02*
D03*
Y7049D02*
D03*
Y5049D02*
D03*
Y9049D02*
D03*
Y10049D02*
D03*
Y8049D02*
D03*
X-2785Y7049D02*
D03*
Y8049D02*
D03*
Y5049D02*
D03*
Y6049D02*
D03*
Y10049D02*
D03*
Y13049D02*
D03*
Y9049D02*
D03*
Y25049D02*
D03*
X-4785Y24059D02*
D03*
Y22059D02*
D03*
Y23059D02*
D03*
Y20059D02*
D03*
Y21059D02*
D03*
Y19059D02*
D03*
X-5785Y23059D02*
D03*
Y24059D02*
D03*
Y22059D02*
D03*
Y21059D02*
D03*
Y19059D02*
D03*
Y20059D02*
D03*
Y18059D02*
D03*
X-4785Y17059D02*
D03*
Y18059D02*
D03*
Y15059D02*
D03*
Y16059D02*
D03*
X-5785D02*
D03*
Y17059D02*
D03*
Y15059D02*
D03*
X-4785Y13059D02*
D03*
Y14059D02*
D03*
X-2785Y11049D02*
D03*
X-5785Y13059D02*
D03*
Y14059D02*
D03*
X-22785Y36049D02*
D03*
Y34049D02*
D03*
Y35049D02*
D03*
X-23785Y33049D02*
D03*
Y34049D02*
D03*
X-22785Y33049D02*
D03*
Y32049D02*
D03*
X-23785Y35049D02*
D03*
Y32049D02*
D03*
X-22785Y30049D02*
D03*
Y31049D02*
D03*
Y29049D02*
D03*
Y26049D02*
D03*
Y27049D02*
D03*
Y25049D02*
D03*
Y24049D02*
D03*
Y23049D02*
D03*
X-23785D02*
D03*
X-22785Y22049D02*
D03*
X-23785Y30049D02*
D03*
Y31049D02*
D03*
Y29049D02*
D03*
Y25049D02*
D03*
Y26049D02*
D03*
Y24049D02*
D03*
X-25785Y39049D02*
D03*
Y40049D02*
D03*
Y37049D02*
D03*
X-26785Y39049D02*
D03*
X-25785Y38049D02*
D03*
Y36049D02*
D03*
Y35049D02*
D03*
X-26785D02*
D03*
Y36049D02*
D03*
Y34049D02*
D03*
Y38049D02*
D03*
Y37049D02*
D03*
X-25785Y30049D02*
D03*
Y31049D02*
D03*
Y28049D02*
D03*
Y29049D02*
D03*
Y33049D02*
D03*
Y34049D02*
D03*
Y32049D02*
D03*
Y27049D02*
D03*
Y24049D02*
D03*
Y25049D02*
D03*
Y23049D02*
D03*
X-26785Y29049D02*
D03*
Y30049D02*
D03*
Y27049D02*
D03*
Y28049D02*
D03*
Y32049D02*
D03*
Y33049D02*
D03*
Y31049D02*
D03*
X-25785Y26049D02*
D03*
X-26785D02*
D03*
X-25785Y22049D02*
D03*
X-26785Y24049D02*
D03*
Y25049D02*
D03*
Y23049D02*
D03*
X-22785Y20049D02*
D03*
Y21049D02*
D03*
Y18049D02*
D03*
Y19049D02*
D03*
Y15049D02*
D03*
Y14049D02*
D03*
Y13049D02*
D03*
X-23785Y21049D02*
D03*
Y22049D02*
D03*
Y18049D02*
D03*
Y20049D02*
D03*
Y17049D02*
D03*
X-22785D02*
D03*
Y16049D02*
D03*
X-23785Y15049D02*
D03*
Y16049D02*
D03*
Y14049D02*
D03*
Y13049D02*
D03*
X-25785Y20049D02*
D03*
Y21049D02*
D03*
X-23785Y19049D02*
D03*
X-25785D02*
D03*
Y17049D02*
D03*
Y18049D02*
D03*
Y16049D02*
D03*
X-26785Y18049D02*
D03*
Y19049D02*
D03*
Y16049D02*
D03*
Y17049D02*
D03*
Y21049D02*
D03*
Y22049D02*
D03*
Y20049D02*
D03*
X-25785Y14049D02*
D03*
Y15049D02*
D03*
Y12049D02*
D03*
Y13049D02*
D03*
Y11049D02*
D03*
X-26785Y12049D02*
D03*
X-25785Y10049D02*
D03*
Y8049D02*
D03*
Y9049D02*
D03*
Y7049D02*
D03*
Y5049D02*
D03*
Y6049D02*
D03*
X-26785Y5049D02*
D03*
Y10049D02*
D03*
Y11049D02*
D03*
Y9049D02*
D03*
Y14049D02*
D03*
Y15049D02*
D03*
Y13049D02*
D03*
Y7049D02*
D03*
Y8049D02*
D03*
Y6049D02*
D03*
X26774Y40049D02*
D03*
X25774Y39049D02*
D03*
X26774D02*
D03*
Y37049D02*
D03*
Y38049D02*
D03*
Y36049D02*
D03*
X25774Y37049D02*
D03*
Y38049D02*
D03*
Y36049D02*
D03*
X26774Y34049D02*
D03*
Y35049D02*
D03*
Y32049D02*
D03*
Y33049D02*
D03*
X25774Y31049D02*
D03*
Y32049D02*
D03*
X26774Y31049D02*
D03*
Y29049D02*
D03*
Y30049D02*
D03*
Y28049D02*
D03*
Y27049D02*
D03*
X25774Y30049D02*
D03*
X26774Y26049D02*
D03*
X25774Y34049D02*
D03*
Y35049D02*
D03*
Y33049D02*
D03*
Y28049D02*
D03*
Y29049D02*
D03*
Y26049D02*
D03*
Y27049D02*
D03*
X23774Y39659D02*
D03*
Y37659D02*
D03*
Y38659D02*
D03*
X22774D02*
D03*
X23774Y36659D02*
D03*
Y35659D02*
D03*
X22774Y37659D02*
D03*
Y36659D02*
D03*
X23774Y33659D02*
D03*
Y34659D02*
D03*
Y31659D02*
D03*
Y32659D02*
D03*
X22774Y33659D02*
D03*
X23774Y26059D02*
D03*
Y27059D02*
D03*
Y25059D02*
D03*
Y29059D02*
D03*
Y30659D02*
D03*
Y28059D02*
D03*
X22774Y34659D02*
D03*
Y35659D02*
D03*
Y31659D02*
D03*
Y32659D02*
D03*
Y30659D02*
D03*
Y26059D02*
D03*
Y27059D02*
D03*
Y25059D02*
D03*
Y28059D02*
D03*
X26774Y21049D02*
D03*
Y22049D02*
D03*
Y18049D02*
D03*
Y19049D02*
D03*
Y24049D02*
D03*
Y25049D02*
D03*
Y23049D02*
D03*
X25774D02*
D03*
Y24049D02*
D03*
X26774Y20049D02*
D03*
X25774Y22049D02*
D03*
Y20049D02*
D03*
Y21049D02*
D03*
Y19049D02*
D03*
X26774Y16049D02*
D03*
Y17049D02*
D03*
Y15049D02*
D03*
X25774Y17049D02*
D03*
Y18049D02*
D03*
Y16049D02*
D03*
X26774Y13049D02*
D03*
Y14049D02*
D03*
Y11049D02*
D03*
Y12049D02*
D03*
X25774Y14049D02*
D03*
Y15049D02*
D03*
Y12049D02*
D03*
X26774Y6049D02*
D03*
Y7049D02*
D03*
Y5049D02*
D03*
Y9049D02*
D03*
Y10049D02*
D03*
Y8049D02*
D03*
X25774Y7049D02*
D03*
Y8049D02*
D03*
Y5049D02*
D03*
Y6049D02*
D03*
Y10049D02*
D03*
Y13049D02*
D03*
Y9049D02*
D03*
Y25049D02*
D03*
X23774Y24059D02*
D03*
Y22059D02*
D03*
Y23059D02*
D03*
Y20059D02*
D03*
Y21059D02*
D03*
Y19059D02*
D03*
X22774Y23059D02*
D03*
Y24059D02*
D03*
Y22059D02*
D03*
Y21059D02*
D03*
Y19059D02*
D03*
Y20059D02*
D03*
Y18059D02*
D03*
X23774Y17059D02*
D03*
Y18059D02*
D03*
Y15059D02*
D03*
Y16059D02*
D03*
X22774D02*
D03*
Y17059D02*
D03*
Y15059D02*
D03*
X23774Y13059D02*
D03*
Y14059D02*
D03*
X25774Y11049D02*
D03*
X22774Y13059D02*
D03*
Y14059D02*
D03*
X5774Y36049D02*
D03*
Y34049D02*
D03*
Y35049D02*
D03*
X4774Y33049D02*
D03*
Y34049D02*
D03*
X5774Y33049D02*
D03*
Y32049D02*
D03*
X4774Y35049D02*
D03*
Y32049D02*
D03*
X5774Y30049D02*
D03*
Y31049D02*
D03*
Y29049D02*
D03*
Y26049D02*
D03*
Y27049D02*
D03*
Y25049D02*
D03*
Y24049D02*
D03*
Y23049D02*
D03*
X4774D02*
D03*
X5774Y22049D02*
D03*
X4774Y30049D02*
D03*
Y31049D02*
D03*
Y29049D02*
D03*
Y25049D02*
D03*
Y26049D02*
D03*
Y24049D02*
D03*
X2774Y39049D02*
D03*
Y40049D02*
D03*
Y37049D02*
D03*
X1774Y39049D02*
D03*
X2774Y38049D02*
D03*
Y36049D02*
D03*
Y35049D02*
D03*
X1774D02*
D03*
Y36049D02*
D03*
Y34049D02*
D03*
Y38049D02*
D03*
Y37049D02*
D03*
X2774Y30049D02*
D03*
Y31049D02*
D03*
Y28049D02*
D03*
Y29049D02*
D03*
Y33049D02*
D03*
Y34049D02*
D03*
Y32049D02*
D03*
Y27049D02*
D03*
Y24049D02*
D03*
Y25049D02*
D03*
Y23049D02*
D03*
X1774Y29049D02*
D03*
Y30049D02*
D03*
Y27049D02*
D03*
Y28049D02*
D03*
Y32049D02*
D03*
Y33049D02*
D03*
Y31049D02*
D03*
X2774Y26049D02*
D03*
X1774D02*
D03*
X2774Y22049D02*
D03*
X1774Y24049D02*
D03*
Y25049D02*
D03*
Y23049D02*
D03*
X5774Y20049D02*
D03*
Y21049D02*
D03*
Y18049D02*
D03*
Y19049D02*
D03*
Y15049D02*
D03*
Y14049D02*
D03*
Y13049D02*
D03*
X4774Y21049D02*
D03*
Y22049D02*
D03*
Y18049D02*
D03*
Y20049D02*
D03*
Y17049D02*
D03*
X5774D02*
D03*
Y16049D02*
D03*
X4774Y15049D02*
D03*
Y16049D02*
D03*
Y14049D02*
D03*
Y13049D02*
D03*
X2774Y20049D02*
D03*
Y21049D02*
D03*
X4774Y19049D02*
D03*
X2774D02*
D03*
Y17049D02*
D03*
Y18049D02*
D03*
Y16049D02*
D03*
X1774Y18049D02*
D03*
Y19049D02*
D03*
Y16049D02*
D03*
Y17049D02*
D03*
Y21049D02*
D03*
Y22049D02*
D03*
Y20049D02*
D03*
X2774Y14049D02*
D03*
Y15049D02*
D03*
Y12049D02*
D03*
Y13049D02*
D03*
Y11049D02*
D03*
X1774Y12049D02*
D03*
X2774Y10049D02*
D03*
Y8049D02*
D03*
Y9049D02*
D03*
Y7049D02*
D03*
Y5049D02*
D03*
Y6049D02*
D03*
X1774Y5049D02*
D03*
Y10049D02*
D03*
Y11049D02*
D03*
Y9049D02*
D03*
Y14049D02*
D03*
Y15049D02*
D03*
Y13049D02*
D03*
Y7049D02*
D03*
Y8049D02*
D03*
Y6049D02*
D03*
D232*
X-2785Y40049D02*
D03*
X-5785Y39659D02*
D03*
Y29059D02*
D03*
X-23785Y36049D02*
D03*
Y27049D02*
D03*
X-26785Y40049D02*
D03*
X25774D02*
D03*
X22774Y39659D02*
D03*
Y29059D02*
D03*
X4774Y36049D02*
D03*
Y27049D02*
D03*
X1774Y40049D02*
D03*
D233*
X-4785Y41159D02*
D03*
X-10785Y21159D02*
D03*
X-5285Y11659D02*
D03*
X-23785Y41659D02*
D03*
X-23285Y11659D02*
D03*
X23774Y41159D02*
D03*
X17774Y21159D02*
D03*
X23274Y11659D02*
D03*
X4774Y41659D02*
D03*
X5274Y11659D02*
D03*
D234*
X-8354Y39077D02*
D03*
X-12022Y27479D02*
D03*
X-7338Y23618D02*
D03*
X-10613Y28675D02*
D03*
X-7798D02*
D03*
X-9205Y27479D02*
D03*
X-26349Y1225D02*
D03*
X-1825Y1270D02*
D03*
X20205Y39077D02*
D03*
X16537Y27479D02*
D03*
X21221Y23618D02*
D03*
X17946Y28675D02*
D03*
X20761D02*
D03*
X19354Y27479D02*
D03*
X2211Y1225D02*
D03*
X26734Y1270D02*
D03*
D235*
X-21521Y27913D02*
D03*
X7038D02*
D03*
D236*
X-21521Y26913D02*
D03*
Y25913D02*
D03*
X-19159Y35479D02*
D03*
X-18159D02*
D03*
X7038Y26913D02*
D03*
Y25913D02*
D03*
X9400Y35479D02*
D03*
X10400D02*
D03*
D237*
X-21311Y40102D02*
D03*
X7248D02*
D03*
D238*
X-19343D02*
D03*
X9216D02*
D03*
D239*
X-17159Y35479D02*
D03*
X11400D02*
D03*
D240*
X-13280Y20121D02*
D03*
Y19398D02*
D03*
Y20843D02*
D03*
X-14002D02*
D03*
Y19398D02*
D03*
X-12918Y20482D02*
D03*
X-14363D02*
D03*
X-13641D02*
D03*
X-12918Y19760D02*
D03*
X-14363D02*
D03*
X-13641D02*
D03*
X-14002Y20121D02*
D03*
X15279D02*
D03*
Y19398D02*
D03*
Y20843D02*
D03*
X14557D02*
D03*
Y19398D02*
D03*
X15641Y20482D02*
D03*
X14196D02*
D03*
X14918D02*
D03*
X15641Y19760D02*
D03*
X14196D02*
D03*
X14918D02*
D03*
X14557Y20121D02*
D03*
D241*
X-20286Y5803D02*
D03*
Y5370D02*
D03*
Y4937D02*
D03*
Y4504D02*
D03*
X-20719Y5803D02*
D03*
Y4504D02*
D03*
X-21152Y5803D02*
D03*
X-21585D02*
D03*
Y5370D02*
D03*
Y4937D02*
D03*
Y4504D02*
D03*
X-21152D02*
D03*
X-20719Y4937D02*
D03*
Y5370D02*
D03*
X-21152Y4937D02*
D03*
X-21132Y5370D02*
D03*
X-13174Y5211D02*
D03*
Y5763D02*
D03*
X-12622D02*
D03*
Y5211D02*
D03*
X-6180Y5763D02*
D03*
Y5211D02*
D03*
Y4660D02*
D03*
X-6731D02*
D03*
X-7283D02*
D03*
Y5211D02*
D03*
Y5763D02*
D03*
X-6731D02*
D03*
Y5211D02*
D03*
X-12071Y5763D02*
D03*
Y5211D02*
D03*
Y4660D02*
D03*
X-12622D02*
D03*
X-13174D02*
D03*
X8273Y5803D02*
D03*
Y5370D02*
D03*
Y4937D02*
D03*
Y4504D02*
D03*
X7840Y5803D02*
D03*
Y4504D02*
D03*
X7407Y5803D02*
D03*
X6974D02*
D03*
Y5370D02*
D03*
Y4937D02*
D03*
Y4504D02*
D03*
X7407D02*
D03*
X7840Y4937D02*
D03*
Y5370D02*
D03*
X7407Y4937D02*
D03*
X7427Y5370D02*
D03*
X15385Y5211D02*
D03*
Y5763D02*
D03*
X15937D02*
D03*
Y5211D02*
D03*
X22379Y5763D02*
D03*
Y5211D02*
D03*
Y4660D02*
D03*
X21828D02*
D03*
X21276D02*
D03*
Y5211D02*
D03*
Y5763D02*
D03*
X21828D02*
D03*
Y5211D02*
D03*
X16488Y5763D02*
D03*
Y5211D02*
D03*
Y4660D02*
D03*
X15937D02*
D03*
X15385D02*
D03*
D242*
X-10303Y34266D02*
D03*
Y33832D02*
D03*
X-10736Y34266D02*
D03*
Y33832D02*
D03*
X18256Y34266D02*
D03*
Y33832D02*
D03*
X17823Y34266D02*
D03*
Y33832D02*
D03*
D243*
X-19Y-3856D02*
D03*
D244*
X-10688Y23861D02*
D03*
X-11188D02*
D03*
X-11688D02*
D03*
X-12188D02*
D03*
X-12688D02*
D03*
X-13188D02*
D03*
X-13688D02*
D03*
X-14188D02*
D03*
X-14688D02*
D03*
X-15188D02*
D03*
X-15688D02*
D03*
X-16188D02*
D03*
X-16688D02*
D03*
X-17188D02*
D03*
Y17168D02*
D03*
X-16688D02*
D03*
X-16188D02*
D03*
X-15688D02*
D03*
X-15188D02*
D03*
X-14688D02*
D03*
X-14188D02*
D03*
X-13688D02*
D03*
X-13188D02*
D03*
X-12688D02*
D03*
X-12188D02*
D03*
X-11688D02*
D03*
X-11188D02*
D03*
X17871Y23861D02*
D03*
X17371D02*
D03*
X16871D02*
D03*
X16371D02*
D03*
X15871D02*
D03*
X15371D02*
D03*
X14871D02*
D03*
X14371D02*
D03*
X13871D02*
D03*
X13371D02*
D03*
X12871D02*
D03*
X12371D02*
D03*
X11871D02*
D03*
X11371D02*
D03*
Y17168D02*
D03*
X11871D02*
D03*
X12371D02*
D03*
X12871D02*
D03*
X13371D02*
D03*
X13871D02*
D03*
X14371D02*
D03*
X14871D02*
D03*
X15371D02*
D03*
X15871D02*
D03*
X16371D02*
D03*
X16871D02*
D03*
X17371D02*
D03*
D245*
X-17582Y18265D02*
D03*
Y19765D02*
D03*
Y20765D02*
D03*
Y22265D02*
D03*
Y19265D02*
D03*
Y18765D02*
D03*
Y20265D02*
D03*
Y21765D02*
D03*
Y22765D02*
D03*
Y21265D02*
D03*
X10977Y18265D02*
D03*
Y19765D02*
D03*
Y20765D02*
D03*
Y22265D02*
D03*
Y19265D02*
D03*
Y18765D02*
D03*
Y20265D02*
D03*
Y21765D02*
D03*
Y22765D02*
D03*
Y21265D02*
D03*
D246*
X-10688Y17168D02*
D03*
X17871D02*
D03*
D247*
X-13641Y19398D02*
D03*
Y20843D02*
D03*
X-12918D02*
D03*
X-13641Y20121D02*
D03*
X-14363Y20843D02*
D03*
Y20121D02*
D03*
Y19398D02*
D03*
X-12918Y20121D02*
D03*
Y19398D02*
D03*
X14918D02*
D03*
Y20843D02*
D03*
X15641D02*
D03*
X14918Y20121D02*
D03*
X14196Y20843D02*
D03*
Y20121D02*
D03*
Y19398D02*
D03*
X15641Y20121D02*
D03*
Y19398D02*
D03*
D248*
X-14785Y15594D02*
D03*
X-15769D02*
D03*
X13774D02*
D03*
X12790D02*
D03*
M02*
