G04*
G04 #@! TF.GenerationSoftware,Altium Limited,Altium Designer,20.1.11 (218)*
G04*
G04 Layer_Physical_Order=1*
G04 Layer_Color=255*
%FSLAX24Y24*%
%MOIN*%
G70*
G04*
G04 #@! TF.SameCoordinates,770896B2-6F71-4FE4-8A08-8FF8A83ACC75*
G04*
G04*
G04 #@! TF.FilePolarity,Positive*
G04*
G01*
G75*
%ADD11C,0.0100*%
%ADD14C,0.0197*%
%ADD18C,0.0080*%
G04:AMPARAMS|DCode=34|XSize=20mil|YSize=20mil|CornerRadius=6mil|HoleSize=0mil|Usage=FLASHONLY|Rotation=90.000|XOffset=0mil|YOffset=0mil|HoleType=Round|Shape=RoundedRectangle|*
%AMROUNDEDRECTD34*
21,1,0.0200,0.0080,0,0,90.0*
21,1,0.0080,0.0200,0,0,90.0*
1,1,0.0120,0.0040,0.0040*
1,1,0.0120,0.0040,-0.0040*
1,1,0.0120,-0.0040,-0.0040*
1,1,0.0120,-0.0040,0.0040*
%
%ADD34ROUNDEDRECTD34*%
G04:AMPARAMS|DCode=39|XSize=20mil|YSize=20mil|CornerRadius=6mil|HoleSize=0mil|Usage=FLASHONLY|Rotation=180.000|XOffset=0mil|YOffset=0mil|HoleType=Round|Shape=RoundedRectangle|*
%AMROUNDEDRECTD39*
21,1,0.0200,0.0080,0,0,180.0*
21,1,0.0080,0.0200,0,0,180.0*
1,1,0.0120,-0.0040,0.0040*
1,1,0.0120,0.0040,0.0040*
1,1,0.0120,0.0040,-0.0040*
1,1,0.0120,-0.0040,-0.0040*
%
%ADD39ROUNDEDRECTD39*%
G04:AMPARAMS|DCode=40|XSize=7.9mil|YSize=22.2mil|CornerRadius=1.2mil|HoleSize=0mil|Usage=FLASHONLY|Rotation=90.000|XOffset=0mil|YOffset=0mil|HoleType=Round|Shape=RoundedRectangle|*
%AMROUNDEDRECTD40*
21,1,0.0079,0.0199,0,0,90.0*
21,1,0.0055,0.0222,0,0,90.0*
1,1,0.0024,0.0099,0.0028*
1,1,0.0024,0.0099,-0.0028*
1,1,0.0024,-0.0099,-0.0028*
1,1,0.0024,-0.0099,0.0028*
%
%ADD40ROUNDEDRECTD40*%
G04:AMPARAMS|DCode=41|XSize=7.9mil|YSize=22.2mil|CornerRadius=1.2mil|HoleSize=0mil|Usage=FLASHONLY|Rotation=0.000|XOffset=0mil|YOffset=0mil|HoleType=Round|Shape=RoundedRectangle|*
%AMROUNDEDRECTD41*
21,1,0.0079,0.0199,0,0,0.0*
21,1,0.0055,0.0222,0,0,0.0*
1,1,0.0024,0.0028,-0.0099*
1,1,0.0024,-0.0028,-0.0099*
1,1,0.0024,-0.0028,0.0099*
1,1,0.0024,0.0028,0.0099*
%
%ADD41ROUNDEDRECTD41*%
G04:AMPARAMS|DCode=42|XSize=15.7mil|YSize=53.1mil|CornerRadius=3.9mil|HoleSize=0mil|Usage=FLASHONLY|Rotation=180.000|XOffset=0mil|YOffset=0mil|HoleType=Round|Shape=RoundedRectangle|*
%AMROUNDEDRECTD42*
21,1,0.0157,0.0453,0,0,180.0*
21,1,0.0079,0.0531,0,0,180.0*
1,1,0.0079,-0.0039,0.0226*
1,1,0.0079,0.0039,0.0226*
1,1,0.0079,0.0039,-0.0226*
1,1,0.0079,-0.0039,-0.0226*
%
%ADD42ROUNDEDRECTD42*%
%ADD43R,0.0591X0.0610*%
G04:AMPARAMS|DCode=46|XSize=55mil|YSize=43mil|CornerRadius=8mil|HoleSize=0mil|Usage=FLASHONLY|Rotation=180.000|XOffset=0mil|YOffset=0mil|HoleType=Round|Shape=RoundedRectangle|*
%AMROUNDEDRECTD46*
21,1,0.0550,0.0271,0,0,180.0*
21,1,0.0391,0.0430,0,0,180.0*
1,1,0.0159,-0.0195,0.0135*
1,1,0.0159,0.0195,0.0135*
1,1,0.0159,0.0195,-0.0135*
1,1,0.0159,-0.0195,-0.0135*
%
%ADD46ROUNDEDRECTD46*%
G04:AMPARAMS|DCode=49|XSize=39.4mil|YSize=108.3mil|CornerRadius=3.9mil|HoleSize=0mil|Usage=FLASHONLY|Rotation=270.000|XOffset=0mil|YOffset=0mil|HoleType=Round|Shape=RoundedRectangle|*
%AMROUNDEDRECTD49*
21,1,0.0394,0.1004,0,0,270.0*
21,1,0.0315,0.1083,0,0,270.0*
1,1,0.0079,-0.0502,-0.0157*
1,1,0.0079,-0.0502,0.0157*
1,1,0.0079,0.0502,0.0157*
1,1,0.0079,0.0502,-0.0157*
%
%ADD49ROUNDEDRECTD49*%
G04:AMPARAMS|DCode=54|XSize=55mil|YSize=43mil|CornerRadius=8mil|HoleSize=0mil|Usage=FLASHONLY|Rotation=270.000|XOffset=0mil|YOffset=0mil|HoleType=Round|Shape=RoundedRectangle|*
%AMROUNDEDRECTD54*
21,1,0.0550,0.0271,0,0,270.0*
21,1,0.0391,0.0430,0,0,270.0*
1,1,0.0159,-0.0135,-0.0195*
1,1,0.0159,-0.0135,0.0195*
1,1,0.0159,0.0135,0.0195*
1,1,0.0159,0.0135,-0.0195*
%
%ADD54ROUNDEDRECTD54*%
G04:AMPARAMS|DCode=56|XSize=23.6mil|YSize=25.6mil|CornerRadius=2.4mil|HoleSize=0mil|Usage=FLASHONLY|Rotation=270.000|XOffset=0mil|YOffset=0mil|HoleType=Round|Shape=RoundedRectangle|*
%AMROUNDEDRECTD56*
21,1,0.0236,0.0209,0,0,270.0*
21,1,0.0189,0.0256,0,0,270.0*
1,1,0.0047,-0.0104,-0.0094*
1,1,0.0047,-0.0104,0.0094*
1,1,0.0047,0.0104,0.0094*
1,1,0.0047,0.0104,-0.0094*
%
%ADD56ROUNDEDRECTD56*%
G04:AMPARAMS|DCode=57|XSize=27.6mil|YSize=13.8mil|CornerRadius=1.4mil|HoleSize=0mil|Usage=FLASHONLY|Rotation=90.000|XOffset=0mil|YOffset=0mil|HoleType=Round|Shape=RoundedRectangle|*
%AMROUNDEDRECTD57*
21,1,0.0276,0.0110,0,0,90.0*
21,1,0.0248,0.0138,0,0,90.0*
1,1,0.0028,0.0055,0.0124*
1,1,0.0028,0.0055,-0.0124*
1,1,0.0028,-0.0055,-0.0124*
1,1,0.0028,-0.0055,0.0124*
%
%ADD57ROUNDEDRECTD57*%
G04:AMPARAMS|DCode=63|XSize=20mil|YSize=20mil|CornerRadius=6mil|HoleSize=0mil|Usage=FLASHONLY|Rotation=140.000|XOffset=0mil|YOffset=0mil|HoleType=Round|Shape=RoundedRectangle|*
%AMROUNDEDRECTD63*
21,1,0.0200,0.0080,0,0,140.0*
21,1,0.0080,0.0200,0,0,140.0*
1,1,0.0120,-0.0005,0.0056*
1,1,0.0120,0.0056,0.0005*
1,1,0.0120,0.0005,-0.0056*
1,1,0.0120,-0.0056,-0.0005*
%
%ADD63ROUNDEDRECTD63*%
G04:AMPARAMS|DCode=64|XSize=35mil|YSize=34mil|CornerRadius=6mil|HoleSize=0mil|Usage=FLASHONLY|Rotation=180.000|XOffset=0mil|YOffset=0mil|HoleType=Round|Shape=RoundedRectangle|*
%AMROUNDEDRECTD64*
21,1,0.0350,0.0221,0,0,180.0*
21,1,0.0231,0.0340,0,0,180.0*
1,1,0.0119,-0.0116,0.0111*
1,1,0.0119,0.0116,0.0111*
1,1,0.0119,0.0116,-0.0111*
1,1,0.0119,-0.0116,-0.0111*
%
%ADD64ROUNDEDRECTD64*%
G04:AMPARAMS|DCode=65|XSize=98.4mil|YSize=59.1mil|CornerRadius=11.8mil|HoleSize=0mil|Usage=FLASHONLY|Rotation=180.000|XOffset=0mil|YOffset=0mil|HoleType=Round|Shape=RoundedRectangle|*
%AMROUNDEDRECTD65*
21,1,0.0984,0.0354,0,0,180.0*
21,1,0.0748,0.0591,0,0,180.0*
1,1,0.0236,-0.0374,0.0177*
1,1,0.0236,0.0374,0.0177*
1,1,0.0236,0.0374,-0.0177*
1,1,0.0236,-0.0374,-0.0177*
%
%ADD65ROUNDEDRECTD65*%
%ADD67R,0.0226X0.0138*%
G04:AMPARAMS|DCode=70|XSize=27.6mil|YSize=13.8mil|CornerRadius=1.4mil|HoleSize=0mil|Usage=FLASHONLY|Rotation=0.000|XOffset=0mil|YOffset=0mil|HoleType=Round|Shape=RoundedRectangle|*
%AMROUNDEDRECTD70*
21,1,0.0276,0.0110,0,0,0.0*
21,1,0.0248,0.0138,0,0,0.0*
1,1,0.0028,0.0124,-0.0055*
1,1,0.0028,-0.0124,-0.0055*
1,1,0.0028,-0.0124,0.0055*
1,1,0.0028,0.0124,0.0055*
%
%ADD70ROUNDEDRECTD70*%
G04:AMPARAMS|DCode=71|XSize=23.6mil|YSize=25.6mil|CornerRadius=2.4mil|HoleSize=0mil|Usage=FLASHONLY|Rotation=0.000|XOffset=0mil|YOffset=0mil|HoleType=Round|Shape=RoundedRectangle|*
%AMROUNDEDRECTD71*
21,1,0.0236,0.0209,0,0,0.0*
21,1,0.0189,0.0256,0,0,0.0*
1,1,0.0047,0.0094,-0.0104*
1,1,0.0047,-0.0094,-0.0104*
1,1,0.0047,-0.0094,0.0104*
1,1,0.0047,0.0094,0.0104*
%
%ADD71ROUNDEDRECTD71*%
G04:AMPARAMS|DCode=72|XSize=98.4mil|YSize=59.1mil|CornerRadius=11.8mil|HoleSize=0mil|Usage=FLASHONLY|Rotation=90.000|XOffset=0mil|YOffset=0mil|HoleType=Round|Shape=RoundedRectangle|*
%AMROUNDEDRECTD72*
21,1,0.0984,0.0354,0,0,90.0*
21,1,0.0748,0.0591,0,0,90.0*
1,1,0.0236,0.0177,0.0374*
1,1,0.0236,0.0177,-0.0374*
1,1,0.0236,-0.0177,-0.0374*
1,1,0.0236,-0.0177,0.0374*
%
%ADD72ROUNDEDRECTD72*%
G04:AMPARAMS|DCode=78|XSize=35mil|YSize=34mil|CornerRadius=6mil|HoleSize=0mil|Usage=FLASHONLY|Rotation=270.000|XOffset=0mil|YOffset=0mil|HoleType=Round|Shape=RoundedRectangle|*
%AMROUNDEDRECTD78*
21,1,0.0350,0.0221,0,0,270.0*
21,1,0.0231,0.0340,0,0,270.0*
1,1,0.0119,-0.0111,-0.0116*
1,1,0.0119,-0.0111,0.0116*
1,1,0.0119,0.0111,0.0116*
1,1,0.0119,0.0111,-0.0116*
%
%ADD78ROUNDEDRECTD78*%
G04:AMPARAMS|DCode=79|XSize=20mil|YSize=20mil|CornerRadius=6mil|HoleSize=0mil|Usage=FLASHONLY|Rotation=50.000|XOffset=0mil|YOffset=0mil|HoleType=Round|Shape=RoundedRectangle|*
%AMROUNDEDRECTD79*
21,1,0.0200,0.0080,0,0,50.0*
21,1,0.0080,0.0200,0,0,50.0*
1,1,0.0120,0.0056,0.0005*
1,1,0.0120,0.0005,-0.0056*
1,1,0.0120,-0.0056,-0.0005*
1,1,0.0120,-0.0005,0.0056*
%
%ADD79ROUNDEDRECTD79*%
G04:AMPARAMS|DCode=163|XSize=17.7mil|YSize=59.1mil|CornerRadius=1.8mil|HoleSize=0mil|Usage=FLASHONLY|Rotation=180.000|XOffset=0mil|YOffset=0mil|HoleType=Round|Shape=RoundedRectangle|*
%AMROUNDEDRECTD163*
21,1,0.0177,0.0555,0,0,180.0*
21,1,0.0142,0.0591,0,0,180.0*
1,1,0.0035,-0.0071,0.0278*
1,1,0.0035,0.0071,0.0278*
1,1,0.0035,0.0071,-0.0278*
1,1,0.0035,-0.0071,-0.0278*
%
%ADD163ROUNDEDRECTD163*%
G04:AMPARAMS|DCode=164|XSize=11.8mil|YSize=31.5mil|CornerRadius=1.2mil|HoleSize=0mil|Usage=FLASHONLY|Rotation=180.000|XOffset=0mil|YOffset=0mil|HoleType=Round|Shape=RoundedRectangle|*
%AMROUNDEDRECTD164*
21,1,0.0118,0.0291,0,0,180.0*
21,1,0.0094,0.0315,0,0,180.0*
1,1,0.0024,-0.0047,0.0146*
1,1,0.0024,0.0047,0.0146*
1,1,0.0024,0.0047,-0.0146*
1,1,0.0024,-0.0047,-0.0146*
%
%ADD164ROUNDEDRECTD164*%
G04:AMPARAMS|DCode=165|XSize=15.7mil|YSize=35.4mil|CornerRadius=0.8mil|HoleSize=0mil|Usage=FLASHONLY|Rotation=0.000|XOffset=0mil|YOffset=0mil|HoleType=Round|Shape=RoundedRectangle|*
%AMROUNDEDRECTD165*
21,1,0.0157,0.0339,0,0,0.0*
21,1,0.0142,0.0354,0,0,0.0*
1,1,0.0016,0.0071,-0.0169*
1,1,0.0016,-0.0071,-0.0169*
1,1,0.0016,-0.0071,0.0169*
1,1,0.0016,0.0071,0.0169*
%
%ADD165ROUNDEDRECTD165*%
%ADD166C,0.0394*%
G04:AMPARAMS|DCode=167|XSize=43.3mil|YSize=47.2mil|CornerRadius=4.3mil|HoleSize=0mil|Usage=FLASHONLY|Rotation=320.000|XOffset=0mil|YOffset=0mil|HoleType=Round|Shape=RoundedRectangle|*
%AMROUNDEDRECTD167*
21,1,0.0433,0.0386,0,0,320.0*
21,1,0.0346,0.0472,0,0,320.0*
1,1,0.0087,0.0009,-0.0259*
1,1,0.0087,-0.0257,-0.0036*
1,1,0.0087,-0.0009,0.0259*
1,1,0.0087,0.0257,0.0036*
%
%ADD167ROUNDEDRECTD167*%
G04:AMPARAMS|DCode=168|XSize=15.7mil|YSize=22.2mil|CornerRadius=1.3mil|HoleSize=0mil|Usage=FLASHONLY|Rotation=90.000|XOffset=0mil|YOffset=0mil|HoleType=Round|Shape=RoundedRectangle|*
%AMROUNDEDRECTD168*
21,1,0.0157,0.0197,0,0,90.0*
21,1,0.0132,0.0222,0,0,90.0*
1,1,0.0025,0.0099,0.0066*
1,1,0.0025,0.0099,-0.0066*
1,1,0.0025,-0.0099,-0.0066*
1,1,0.0025,-0.0099,0.0066*
%
%ADD168ROUNDEDRECTD168*%
G04:AMPARAMS|DCode=169|XSize=15.7mil|YSize=22.2mil|CornerRadius=1.3mil|HoleSize=0mil|Usage=FLASHONLY|Rotation=0.000|XOffset=0mil|YOffset=0mil|HoleType=Round|Shape=RoundedRectangle|*
%AMROUNDEDRECTD169*
21,1,0.0157,0.0197,0,0,0.0*
21,1,0.0132,0.0222,0,0,0.0*
1,1,0.0025,0.0066,-0.0099*
1,1,0.0025,-0.0066,-0.0099*
1,1,0.0025,-0.0066,0.0099*
1,1,0.0025,0.0066,0.0099*
%
%ADD169ROUNDEDRECTD169*%
%ADD170R,0.1693X0.1693*%
G04:AMPARAMS|DCode=171|XSize=7.9mil|YSize=33.5mil|CornerRadius=0.8mil|HoleSize=0mil|Usage=FLASHONLY|Rotation=180.000|XOffset=0mil|YOffset=0mil|HoleType=Round|Shape=RoundedRectangle|*
%AMROUNDEDRECTD171*
21,1,0.0079,0.0319,0,0,180.0*
21,1,0.0063,0.0335,0,0,180.0*
1,1,0.0016,-0.0032,0.0159*
1,1,0.0016,0.0032,0.0159*
1,1,0.0016,0.0032,-0.0159*
1,1,0.0016,-0.0032,-0.0159*
%
%ADD171ROUNDEDRECTD171*%
G04:AMPARAMS|DCode=172|XSize=7.9mil|YSize=33.5mil|CornerRadius=0.8mil|HoleSize=0mil|Usage=FLASHONLY|Rotation=90.000|XOffset=0mil|YOffset=0mil|HoleType=Round|Shape=RoundedRectangle|*
%AMROUNDEDRECTD172*
21,1,0.0079,0.0319,0,0,90.0*
21,1,0.0063,0.0335,0,0,90.0*
1,1,0.0016,0.0159,0.0032*
1,1,0.0016,0.0159,-0.0032*
1,1,0.0016,-0.0159,-0.0032*
1,1,0.0016,-0.0159,0.0032*
%
%ADD172ROUNDEDRECTD172*%
%ADD173R,0.0138X0.0148*%
%ADD174R,0.0128X0.0157*%
%ADD175R,0.0157X0.0827*%
%ADD176R,0.0410X0.0870*%
%ADD177R,0.0390X0.0410*%
G04:AMPARAMS|DCode=178|XSize=37.4mil|YSize=8.7mil|CornerRadius=0.9mil|HoleSize=0mil|Usage=FLASHONLY|Rotation=0.000|XOffset=0mil|YOffset=0mil|HoleType=Round|Shape=RoundedRectangle|*
%AMROUNDEDRECTD178*
21,1,0.0374,0.0069,0,0,0.0*
21,1,0.0357,0.0087,0,0,0.0*
1,1,0.0017,0.0178,-0.0035*
1,1,0.0017,-0.0178,-0.0035*
1,1,0.0017,-0.0178,0.0035*
1,1,0.0017,0.0178,0.0035*
%
%ADD178ROUNDEDRECTD178*%
G04:AMPARAMS|DCode=179|XSize=37.4mil|YSize=8.7mil|CornerRadius=0.9mil|HoleSize=0mil|Usage=FLASHONLY|Rotation=90.000|XOffset=0mil|YOffset=0mil|HoleType=Round|Shape=RoundedRectangle|*
%AMROUNDEDRECTD179*
21,1,0.0374,0.0069,0,0,90.0*
21,1,0.0357,0.0087,0,0,90.0*
1,1,0.0017,0.0035,0.0178*
1,1,0.0017,0.0035,-0.0178*
1,1,0.0017,-0.0035,-0.0178*
1,1,0.0017,-0.0035,0.0178*
%
%ADD179ROUNDEDRECTD179*%
%ADD180R,0.1654X0.1654*%
%ADD181R,0.0079X0.0157*%
G04:AMPARAMS|DCode=182|XSize=40.2mil|YSize=70.1mil|CornerRadius=4mil|HoleSize=0mil|Usage=FLASHONLY|Rotation=270.000|XOffset=0mil|YOffset=0mil|HoleType=Round|Shape=RoundedRectangle|*
%AMROUNDEDRECTD182*
21,1,0.0402,0.0620,0,0,270.0*
21,1,0.0321,0.0701,0,0,270.0*
1,1,0.0080,-0.0310,-0.0161*
1,1,0.0080,-0.0310,0.0161*
1,1,0.0080,0.0310,0.0161*
1,1,0.0080,0.0310,-0.0161*
%
%ADD182ROUNDEDRECTD182*%
%ADD183R,0.0315X0.0315*%
G04:AMPARAMS|DCode=184|XSize=24.8mil|YSize=33.5mil|CornerRadius=1.2mil|HoleSize=0mil|Usage=FLASHONLY|Rotation=270.000|XOffset=0mil|YOffset=0mil|HoleType=Round|Shape=RoundedRectangle|*
%AMROUNDEDRECTD184*
21,1,0.0248,0.0310,0,0,270.0*
21,1,0.0223,0.0335,0,0,270.0*
1,1,0.0025,-0.0155,-0.0112*
1,1,0.0025,-0.0155,0.0112*
1,1,0.0025,0.0155,0.0112*
1,1,0.0025,0.0155,-0.0112*
%
%ADD184ROUNDEDRECTD184*%
%ADD185R,0.1004X0.1004*%
%ADD186R,0.0118X0.0276*%
%ADD187R,0.0276X0.0118*%
G04:AMPARAMS|DCode=188|XSize=23.6mil|YSize=57.1mil|CornerRadius=3.5mil|HoleSize=0mil|Usage=FLASHONLY|Rotation=0.000|XOffset=0mil|YOffset=0mil|HoleType=Round|Shape=RoundedRectangle|*
%AMROUNDEDRECTD188*
21,1,0.0236,0.0500,0,0,0.0*
21,1,0.0165,0.0571,0,0,0.0*
1,1,0.0071,0.0083,-0.0250*
1,1,0.0071,-0.0083,-0.0250*
1,1,0.0071,-0.0083,0.0250*
1,1,0.0071,0.0083,0.0250*
%
%ADD188ROUNDEDRECTD188*%
%ADD189R,0.0138X0.0226*%
%ADD190R,0.0315X0.0315*%
G04:AMPARAMS|DCode=191|XSize=70.9mil|YSize=39.4mil|CornerRadius=3.9mil|HoleSize=0mil|Usage=FLASHONLY|Rotation=0.000|XOffset=0mil|YOffset=0mil|HoleType=Round|Shape=RoundedRectangle|*
%AMROUNDEDRECTD191*
21,1,0.0709,0.0315,0,0,0.0*
21,1,0.0630,0.0394,0,0,0.0*
1,1,0.0079,0.0315,-0.0157*
1,1,0.0079,-0.0315,-0.0157*
1,1,0.0079,-0.0315,0.0157*
1,1,0.0079,0.0315,0.0157*
%
%ADD191ROUNDEDRECTD191*%
G04:AMPARAMS|DCode=192|XSize=31.5mil|YSize=11.8mil|CornerRadius=1.2mil|HoleSize=0mil|Usage=FLASHONLY|Rotation=180.000|XOffset=0mil|YOffset=0mil|HoleType=Round|Shape=RoundedRectangle|*
%AMROUNDEDRECTD192*
21,1,0.0315,0.0094,0,0,180.0*
21,1,0.0291,0.0118,0,0,180.0*
1,1,0.0024,-0.0146,0.0047*
1,1,0.0024,0.0146,0.0047*
1,1,0.0024,0.0146,-0.0047*
1,1,0.0024,-0.0146,-0.0047*
%
%ADD192ROUNDEDRECTD192*%
%ADD193R,0.0236X0.0276*%
%ADD194R,0.0354X0.0315*%
%ADD195R,0.0858X0.0598*%
G04:AMPARAMS|DCode=196|XSize=11.8mil|YSize=57.1mil|CornerRadius=1.8mil|HoleSize=0mil|Usage=FLASHONLY|Rotation=90.000|XOffset=0mil|YOffset=0mil|HoleType=Round|Shape=RoundedRectangle|*
%AMROUNDEDRECTD196*
21,1,0.0118,0.0535,0,0,90.0*
21,1,0.0083,0.0571,0,0,90.0*
1,1,0.0035,0.0268,0.0041*
1,1,0.0035,0.0268,-0.0041*
1,1,0.0035,-0.0268,-0.0041*
1,1,0.0035,-0.0268,0.0041*
%
%ADD196ROUNDEDRECTD196*%
%ADD197R,0.0630X0.0394*%
%ADD198R,0.0220X0.0285*%
%ADD199R,0.0285X0.0220*%
%ADD200R,0.0276X0.0236*%
%ADD201R,0.0598X0.0858*%
%ADD202C,0.0160*%
%ADD203C,0.0040*%
%ADD204C,0.0157*%
%ADD205C,0.0118*%
%ADD206C,0.0120*%
%ADD207C,0.0138*%
%ADD208R,0.0472X0.0610*%
G04:AMPARAMS|DCode=209|XSize=49.2mil|YSize=37.4mil|CornerRadius=18.7mil|HoleSize=0mil|Usage=FLASHONLY|Rotation=180.000|XOffset=0mil|YOffset=0mil|HoleType=Round|Shape=RoundedRectangle|*
%AMROUNDEDRECTD209*
21,1,0.0492,0.0000,0,0,180.0*
21,1,0.0118,0.0374,0,0,180.0*
1,1,0.0374,-0.0059,0.0000*
1,1,0.0374,0.0059,0.0000*
1,1,0.0374,0.0059,0.0000*
1,1,0.0374,-0.0059,0.0000*
%
%ADD209ROUNDEDRECTD209*%
G04:AMPARAMS|DCode=210|XSize=37.4mil|YSize=61mil|CornerRadius=18.7mil|HoleSize=0mil|Usage=FLASHONLY|Rotation=180.000|XOffset=0mil|YOffset=0mil|HoleType=Round|Shape=RoundedRectangle|*
%AMROUNDEDRECTD210*
21,1,0.0374,0.0236,0,0,180.0*
21,1,0.0000,0.0610,0,0,180.0*
1,1,0.0374,0.0000,0.0118*
1,1,0.0374,0.0000,0.0118*
1,1,0.0374,0.0000,-0.0118*
1,1,0.0374,0.0000,-0.0118*
%
%ADD210ROUNDEDRECTD210*%
%ADD211C,0.0157*%
%ADD212R,0.0600X0.0600*%
%ADD213C,0.0600*%
%ADD214C,0.0709*%
%ADD215R,0.0709X0.0709*%
%ADD216C,0.1260*%
%ADD217C,0.0945*%
%ADD218R,0.0709X0.0709*%
%ADD219C,0.0728*%
%ADD220R,0.0728X0.0728*%
%ADD221C,0.0197*%
%ADD222C,0.0200*%
G36*
X16102Y41343D02*
X15492D01*
Y40468D01*
X14658D01*
X14478Y40648D01*
Y41189D01*
X13097D01*
Y40468D01*
X12106D01*
Y42260D01*
X16102D01*
Y41343D01*
D02*
G37*
G36*
X15998Y37792D02*
X14438D01*
Y38696D01*
X15998D01*
Y37792D01*
D02*
G37*
G36*
X8974Y36640D02*
X8070D01*
Y38200D01*
X8974D01*
Y36640D01*
D02*
G37*
G36*
X18113Y34712D02*
Y34706D01*
X18110Y34695D01*
X18106Y34684D01*
X18100Y34675D01*
X18091Y34666D01*
X18082Y34660D01*
X18071Y34655D01*
X18060Y34653D01*
X18048D01*
X18036Y34655D01*
X18026Y34660D01*
X18016Y34666D01*
X18008Y34675D01*
X18001Y34684D01*
X17997Y34695D01*
X17995Y34706D01*
Y34712D01*
Y34850D01*
X18113D01*
Y34712D01*
D02*
G37*
G36*
X17916D02*
Y34706D01*
X17914Y34695D01*
X17909Y34684D01*
X17903Y34675D01*
X17894Y34666D01*
X17885Y34660D01*
X17874Y34655D01*
X17863Y34653D01*
X17851D01*
X17840Y34655D01*
X17829Y34660D01*
X17819Y34666D01*
X17811Y34675D01*
X17805Y34684D01*
X17800Y34695D01*
X17798Y34706D01*
Y34712D01*
Y34850D01*
X17916D01*
Y34712D01*
D02*
G37*
G36*
X17719D02*
Y34706D01*
X17717Y34695D01*
X17712Y34684D01*
X17706Y34675D01*
X17698Y34666D01*
X17688Y34660D01*
X17677Y34655D01*
X17666Y34653D01*
X17654D01*
X17643Y34655D01*
X17632Y34660D01*
X17622Y34666D01*
X17614Y34675D01*
X17608Y34684D01*
X17603Y34695D01*
X17601Y34706D01*
Y34712D01*
Y34850D01*
X17719D01*
Y34712D01*
D02*
G37*
G36*
X17522D02*
Y34706D01*
X17520Y34695D01*
X17515Y34684D01*
X17509Y34675D01*
X17501Y34666D01*
X17491Y34660D01*
X17480Y34655D01*
X17469Y34653D01*
X17457D01*
X17446Y34655D01*
X17435Y34660D01*
X17426Y34666D01*
X17417Y34675D01*
X17411Y34684D01*
X17406Y34695D01*
X17404Y34706D01*
Y34712D01*
Y34850D01*
X17522D01*
Y34712D01*
D02*
G37*
G36*
X18359Y34486D02*
X18215D01*
X18204Y34488D01*
X18193Y34493D01*
X18183Y34499D01*
X18175Y34507D01*
X18169Y34517D01*
X18164Y34528D01*
X18162Y34539D01*
Y34551D01*
X18164Y34562D01*
X18169Y34573D01*
X18175Y34583D01*
X18183Y34591D01*
X18193Y34597D01*
X18204Y34602D01*
X18215Y34604D01*
X18359D01*
Y34486D01*
D02*
G37*
G36*
X17420Y35038D02*
X17354D01*
Y34860D01*
X17350Y34850D01*
Y34711D01*
X17350Y34706D01*
X17354Y34662D01*
X17350Y34614D01*
X17345Y34607D01*
X17342Y34605D01*
X17010D01*
Y34470D01*
X15936D01*
Y35040D01*
X16870D01*
Y35397D01*
X17420D01*
Y35038D01*
D02*
G37*
G36*
X16919Y34405D02*
X16930Y34400D01*
X16940Y34394D01*
X16948Y34386D01*
X16954Y34376D01*
X16959Y34365D01*
X16961Y34354D01*
Y34342D01*
X16959Y34331D01*
X16954Y34320D01*
X16948Y34310D01*
X16940Y34302D01*
X16930Y34296D01*
X16919Y34291D01*
X16908Y34289D01*
X16764D01*
Y34407D01*
X16908D01*
X16919Y34405D01*
D02*
G37*
G36*
X18359Y34289D02*
X18215D01*
X18204Y34291D01*
X18193Y34296D01*
X18183Y34302D01*
X18175Y34310D01*
X18169Y34320D01*
X18164Y34331D01*
X18162Y34342D01*
Y34354D01*
X18164Y34365D01*
X18169Y34376D01*
X18175Y34386D01*
X18183Y34394D01*
X18193Y34400D01*
X18204Y34405D01*
X18215Y34407D01*
X18359D01*
Y34289D01*
D02*
G37*
G36*
X16919Y34208D02*
X16930Y34204D01*
X16940Y34197D01*
X16948Y34189D01*
X16954Y34179D01*
X16959Y34168D01*
X16961Y34157D01*
Y34145D01*
X16959Y34134D01*
X16954Y34123D01*
X16948Y34114D01*
X16940Y34105D01*
X16930Y34099D01*
X16919Y34094D01*
X16908Y34092D01*
X16764D01*
Y34210D01*
X16908D01*
X16919Y34208D01*
D02*
G37*
G36*
X18359Y34092D02*
X18215D01*
X18204Y34094D01*
X18193Y34099D01*
X18183Y34105D01*
X18175Y34114D01*
X18169Y34123D01*
X18164Y34134D01*
X18162Y34145D01*
Y34157D01*
X18164Y34168D01*
X18169Y34179D01*
X18175Y34189D01*
X18183Y34197D01*
X18193Y34204D01*
X18204Y34208D01*
X18215Y34210D01*
X18359D01*
Y34092D01*
D02*
G37*
G36*
X16919Y34011D02*
X16930Y34007D01*
X16940Y34000D01*
X16948Y33992D01*
X16954Y33982D01*
X16959Y33972D01*
X16961Y33960D01*
Y33949D01*
X16959Y33937D01*
X16954Y33926D01*
X16948Y33917D01*
X16940Y33908D01*
X16930Y33902D01*
X16919Y33898D01*
X16908Y33895D01*
X16764D01*
Y34013D01*
X16908D01*
X16919Y34011D01*
D02*
G37*
G36*
X18359Y33895D02*
X18215D01*
X18204Y33898D01*
X18193Y33902D01*
X18183Y33908D01*
X18175Y33917D01*
X18169Y33926D01*
X18164Y33937D01*
X18162Y33949D01*
Y33960D01*
X18164Y33972D01*
X18169Y33982D01*
X18175Y33992D01*
X18183Y34000D01*
X18193Y34007D01*
X18204Y34011D01*
X18215Y34013D01*
X18359D01*
Y33895D01*
D02*
G37*
G36*
X16919Y33814D02*
X16930Y33810D01*
X16940Y33803D01*
X16948Y33795D01*
X16954Y33785D01*
X16959Y33775D01*
X16961Y33763D01*
Y33752D01*
X16959Y33740D01*
X16954Y33730D01*
X16948Y33720D01*
X16940Y33712D01*
X16930Y33705D01*
X16919Y33701D01*
X16908Y33698D01*
X16764D01*
Y33817D01*
X16908D01*
X16919Y33814D01*
D02*
G37*
G36*
X18359Y33698D02*
X18215D01*
X18204Y33701D01*
X18193Y33705D01*
X18183Y33712D01*
X18175Y33720D01*
X18169Y33730D01*
X18164Y33740D01*
X18162Y33752D01*
Y33763D01*
X18164Y33775D01*
X18169Y33785D01*
X18175Y33795D01*
X18183Y33803D01*
X18193Y33810D01*
X18204Y33814D01*
X18215Y33817D01*
X18359D01*
Y33698D01*
D02*
G37*
G36*
Y33502D02*
X18215D01*
X18204Y33504D01*
X18193Y33508D01*
X18183Y33515D01*
X18175Y33523D01*
X18169Y33533D01*
X18164Y33543D01*
X18162Y33555D01*
Y33566D01*
X18164Y33578D01*
X18169Y33589D01*
X18175Y33598D01*
X18183Y33607D01*
X18193Y33613D01*
X18204Y33617D01*
X18215Y33620D01*
X18359D01*
Y33502D01*
D02*
G37*
G36*
X16919Y33617D02*
X16930Y33613D01*
X16940Y33607D01*
X16948Y33598D01*
X16954Y33589D01*
X16959Y33578D01*
X16961Y33566D01*
Y33555D01*
X16959Y33543D01*
X16954Y33533D01*
X16948Y33523D01*
X16940Y33515D01*
X16930Y33508D01*
X16919Y33504D01*
X16908Y33502D01*
X16764D01*
Y33620D01*
X16908D01*
X16919Y33617D01*
D02*
G37*
G36*
X18071Y33450D02*
X18082Y33446D01*
X18091Y33439D01*
X18100Y33431D01*
X18106Y33421D01*
X18110Y33411D01*
X18113Y33399D01*
Y33393D01*
Y33256D01*
X17995D01*
Y33393D01*
Y33399D01*
X17997Y33411D01*
X18001Y33421D01*
X18008Y33431D01*
X18016Y33439D01*
X18026Y33446D01*
X18036Y33450D01*
X18048Y33452D01*
X18060D01*
X18071Y33450D01*
D02*
G37*
G36*
X17874D02*
X17885Y33446D01*
X17894Y33439D01*
X17903Y33431D01*
X17909Y33421D01*
X17914Y33411D01*
X17916Y33399D01*
Y33393D01*
Y33256D01*
X17798D01*
Y33393D01*
Y33399D01*
X17800Y33411D01*
X17805Y33421D01*
X17811Y33431D01*
X17819Y33439D01*
X17829Y33446D01*
X17840Y33450D01*
X17851Y33452D01*
X17863D01*
X17874Y33450D01*
D02*
G37*
G36*
X17677D02*
X17688Y33446D01*
X17698Y33439D01*
X17706Y33431D01*
X17712Y33421D01*
X17717Y33411D01*
X17719Y33399D01*
Y33393D01*
Y33256D01*
X17601D01*
Y33393D01*
Y33399D01*
X17603Y33411D01*
X17608Y33421D01*
X17614Y33431D01*
X17622Y33439D01*
X17632Y33446D01*
X17643Y33450D01*
X17654Y33452D01*
X17666D01*
X17677Y33450D01*
D02*
G37*
G36*
X17480D02*
X17491Y33446D01*
X17501Y33439D01*
X17509Y33431D01*
X17515Y33421D01*
X17520Y33411D01*
X17522Y33399D01*
Y33393D01*
Y33256D01*
X17404D01*
Y33393D01*
Y33399D01*
X17406Y33411D01*
X17411Y33421D01*
X17417Y33431D01*
X17426Y33439D01*
X17435Y33446D01*
X17446Y33450D01*
X17457Y33452D01*
X17469D01*
X17480Y33450D01*
D02*
G37*
G36*
X17284D02*
X17294Y33446D01*
X17304Y33439D01*
X17312Y33431D01*
X17319Y33421D01*
X17323Y33411D01*
X17325Y33399D01*
Y33393D01*
Y33256D01*
X17207D01*
Y33393D01*
Y33399D01*
X17210Y33411D01*
X17214Y33421D01*
X17220Y33431D01*
X17229Y33439D01*
X17238Y33446D01*
X17249Y33450D01*
X17260Y33452D01*
X17272D01*
X17284Y33450D01*
D02*
G37*
G36*
X17087D02*
X17097Y33446D01*
X17107Y33439D01*
X17115Y33431D01*
X17122Y33421D01*
X17126Y33411D01*
X17128Y33399D01*
Y33393D01*
Y33256D01*
X17010D01*
Y33393D01*
Y33399D01*
X17013Y33411D01*
X17017Y33421D01*
X17024Y33431D01*
X17032Y33439D01*
X17041Y33446D01*
X17052Y33450D01*
X17064Y33452D01*
X17075D01*
X17087Y33450D01*
D02*
G37*
G36*
X12704Y30236D02*
X12669Y30201D01*
X11795Y30201D01*
X11498Y30200D01*
X11497Y30322D01*
X11532Y30358D01*
X11752Y30358D01*
X11836Y30442D01*
X11836Y30673D01*
X12704Y30673D01*
X12704Y30236D01*
D02*
G37*
G36*
X11259Y30408D02*
X11260Y30236D01*
X11224Y30200D01*
X11109D01*
X11004Y30095D01*
Y29979D01*
X11004Y29979D01*
X11001Y29972D01*
X10995Y29967D01*
X10988Y29964D01*
X10942Y29917D01*
X10236Y29917D01*
X10235Y30383D01*
X10270Y30418D01*
X11259Y30408D01*
D02*
G37*
G36*
X12701Y30090D02*
X12697Y29494D01*
X11723Y29495D01*
X11614Y29495D01*
Y29491D01*
X11114D01*
X11114Y29530D01*
X11114Y29531D01*
X11114Y29689D01*
X11114Y29692D01*
X11111Y29699D01*
X11105Y29705D01*
X11098Y29707D01*
X11094Y29708D01*
X11051Y29708D01*
X11047D01*
X11040Y29711D01*
X11034Y29716D01*
X11031Y29724D01*
Y29728D01*
X11031Y29885D01*
X11031Y29885D01*
X11031Y29889D01*
X11034Y29896D01*
X11040Y29902D01*
X11047Y29905D01*
X11051Y29905D01*
X11094Y29905D01*
X11098Y29905D01*
X11105Y29908D01*
X11111Y29913D01*
X11114Y29921D01*
X11114Y29923D01*
X11114Y30125D01*
X12665Y30125D01*
X12701Y30090D01*
D02*
G37*
G36*
X11446Y29396D02*
X11446Y29255D01*
X11446Y29212D01*
X11446Y29205D01*
X11482Y29175D01*
X11484Y29175D01*
X12163Y29175D01*
X12198Y29140D01*
X12198Y28286D01*
X11352Y28284D01*
X11317Y28319D01*
X11317Y29431D01*
X11410D01*
X11446Y29396D01*
D02*
G37*
G36*
X10970Y29649D02*
X10988D01*
X10995Y29646D01*
X11001Y29640D01*
X11004Y29633D01*
Y29629D01*
Y29615D01*
X11004Y29615D01*
X11004Y29500D01*
X11004Y29354D01*
X11004D01*
X11004Y29225D01*
X11080Y29225D01*
X11080Y29416D01*
X11261D01*
X11261Y28288D01*
X11225Y28253D01*
X10265Y28253D01*
X10230Y28288D01*
X10230Y29650D01*
X10968Y29650D01*
X10970Y29649D01*
D02*
G37*
G36*
X10380Y28013D02*
X10380Y27395D01*
Y27192D01*
X10341Y27160D01*
X10341Y27160D01*
X10177D01*
X10167Y27156D01*
X10149D01*
Y27155D01*
X9699Y27155D01*
X9663Y27190D01*
X9663Y27978D01*
X9699Y28013D01*
X10380Y28013D01*
D02*
G37*
G36*
X11313Y27985D02*
X11313Y27542D01*
X10986Y27214D01*
X10940Y27186D01*
X10868D01*
Y26938D01*
X10987D01*
X10987Y26909D01*
X11065Y26909D01*
X11065Y26476D01*
X10536Y26476D01*
X10475Y26537D01*
X10475Y26783D01*
X10450D01*
Y26938D01*
X10673D01*
Y27186D01*
X10591D01*
X10547Y27229D01*
X10546Y27231D01*
X10546Y27231D01*
X10482Y27296D01*
X10480Y27297D01*
X10450Y27327D01*
X10450Y28020D01*
X11278D01*
X11313Y27985D01*
D02*
G37*
G36*
X10380Y27067D02*
X10380Y26398D01*
X10620D01*
X10620Y26186D01*
X10213Y26186D01*
X10177Y26221D01*
X10177Y27106D01*
X10341D01*
X10380Y27067D01*
D02*
G37*
G36*
X10856Y25197D02*
X9946Y25197D01*
X9946Y26132D01*
X10212Y26132D01*
X10213Y26132D01*
X10213Y26132D01*
X10620Y26132D01*
X10620Y26132D01*
X10640Y26132D01*
X10654Y26146D01*
X10658Y26148D01*
X10658Y26148D01*
X10660Y26152D01*
X10679Y26171D01*
X10679Y26392D01*
X10714Y26427D01*
X10856D01*
X10856Y25197D01*
D02*
G37*
G36*
X16549Y25347D02*
X15958Y25347D01*
X15958Y25960D01*
X16549Y25960D01*
X16549Y25347D01*
D02*
G37*
G36*
X11910Y27118D02*
X11910Y25197D01*
X10915Y25197D01*
X10915Y26407D01*
X11150D01*
Y26770D01*
Y27076D01*
X11193Y27118D01*
X11910Y27118D01*
D02*
G37*
G36*
X17165Y25287D02*
Y25057D01*
X18029D01*
Y24516D01*
X16849Y24516D01*
X16849Y24778D01*
X16858Y24790D01*
X16869Y24848D01*
X16858Y24906D01*
X16849Y24919D01*
Y24957D01*
X16809Y24997D01*
X16809Y25287D01*
X17165Y25287D01*
D02*
G37*
G36*
X17731Y12661D02*
X17935Y12457D01*
Y11736D01*
X17752Y11553D01*
X17752Y10627D01*
X17717Y10591D01*
X17197Y10591D01*
Y10593D01*
X17192Y10619D01*
X17177Y10641D01*
X17154Y10656D01*
X17128Y10662D01*
X17074D01*
X17074Y11460D01*
X17330Y11716D01*
X17330Y12445D01*
X17345Y12455D01*
X17360Y12477D01*
X17544Y12661D01*
X17731Y12661D01*
D02*
G37*
G36*
X17256Y12255D02*
X17256Y11721D01*
X16972Y11437D01*
X16972Y10807D01*
X16887Y10722D01*
Y9850D01*
X16744D01*
X16708Y9885D01*
X16710Y10714D01*
X16549Y10875D01*
X16325Y11099D01*
X16325Y12109D01*
X16515Y12299D01*
X17212Y12299D01*
X17256Y12255D01*
D02*
G37*
G36*
X20567Y9854D02*
Y9500D01*
X20663Y9405D01*
X20663Y8733D01*
X20649Y7723D01*
X19852Y7723D01*
X19852Y8954D01*
X20410Y9511D01*
X20409Y9821D01*
X20445Y9856D01*
X20567Y9854D01*
D02*
G37*
G36*
X19072Y6654D02*
X19075Y5215D01*
X19011Y5151D01*
X18489Y5151D01*
X18419Y5221D01*
X18419Y6652D01*
X18523Y6756D01*
X18969D01*
X19072Y6654D01*
D02*
G37*
G36*
X13080Y6681D02*
X13139Y6622D01*
X13139Y5204D01*
X13086Y5151D01*
X12638Y5151D01*
X12500Y5289D01*
X12500Y6611D01*
X12570Y6681D01*
X13080Y6681D01*
D02*
G37*
G36*
X4637Y5844D02*
Y5823D01*
X4646Y5780D01*
X4670Y5743D01*
X4707Y5719D01*
X4749Y5710D01*
X4812D01*
X4924Y5598D01*
X4949Y5582D01*
X5478Y5053D01*
X5461Y4999D01*
X5441Y4996D01*
X5381Y5055D01*
X5381Y5055D01*
X5189Y5247D01*
X5166Y5263D01*
X5138Y5268D01*
X4853D01*
X4588Y5490D01*
X4555Y5508D01*
X4519Y5512D01*
X4483Y5502D01*
X4454Y5479D01*
X4380Y5390D01*
X4330Y5388D01*
X4245Y5473D01*
X4251Y5480D01*
X4272Y5519D01*
X4277Y5562D01*
X4264Y5604D01*
X4237Y5638D01*
X4176Y5690D01*
X4137Y5711D01*
X4094Y5716D01*
X4052Y5703D01*
X4018Y5676D01*
X3966Y5615D01*
X3945Y5576D01*
X3940Y5533D01*
X3953Y5491D01*
X3980Y5457D01*
X4041Y5405D01*
X4080Y5384D01*
X4123Y5379D01*
X4133Y5382D01*
X4264Y5252D01*
X4206Y5183D01*
X4188Y5151D01*
X4184Y5114D01*
X4194Y5078D01*
X4218Y5049D01*
X4483Y4826D01*
X4516Y4808D01*
X4553Y4804D01*
X4588Y4815D01*
X4617Y4838D01*
X4858Y5125D01*
X5109D01*
X5280Y4954D01*
X5280Y4954D01*
X5353Y4881D01*
X5370Y4837D01*
X5352Y4814D01*
X4941Y4402D01*
X4844D01*
X4580Y4623D01*
X4547Y4641D01*
X4511Y4645D01*
X4475Y4635D01*
X4446Y4612D01*
X4198Y4316D01*
X4180Y4284D01*
X4176Y4247D01*
X4186Y4211D01*
X4210Y4182D01*
X4275Y4127D01*
X4277Y4077D01*
X4201Y4001D01*
X4188Y4008D01*
X4145Y4012D01*
X4103Y4000D01*
X4069Y3973D01*
X4017Y3911D01*
X3996Y3873D01*
X3992Y3830D01*
X4004Y3787D01*
X4031Y3753D01*
X4092Y3702D01*
X4131Y3681D01*
X4174Y3676D01*
X4216Y3688D01*
X4250Y3716D01*
X4302Y3777D01*
X4323Y3815D01*
X4328Y3859D01*
X4315Y3901D01*
X4310Y3908D01*
X4413Y4011D01*
X4475Y3959D01*
X4508Y3941D01*
X4545Y3937D01*
X4580Y3948D01*
X4609Y3971D01*
X4851Y4259D01*
X4970D01*
X4998Y4265D01*
X5021Y4280D01*
X5452Y4711D01*
X5532D01*
X5548Y4661D01*
X5515Y4639D01*
X5482Y4590D01*
X5474Y4549D01*
X4492Y3567D01*
X3252Y3567D01*
X3252Y5879D01*
X4602Y5879D01*
X4637Y5844D01*
D02*
G37*
G36*
X23975Y5648D02*
X24089Y5535D01*
Y4121D01*
X23208Y3245D01*
X21871Y3245D01*
X21830Y3286D01*
X21832Y3432D01*
X21847Y3447D01*
X22456D01*
X22463Y3446D01*
X22620D01*
X22627Y3447D01*
X22851D01*
X22886Y3454D01*
X22894Y3460D01*
X23072Y3460D01*
X23469Y3856D01*
X23462Y5611D01*
X23499Y5648D01*
X23975Y5648D01*
D02*
G37*
G36*
X18260Y5315D02*
X18260Y4054D01*
X17434Y3186D01*
X15949Y3186D01*
X15912Y3223D01*
X15912Y3374D01*
X15949Y3412D01*
X16000Y3412D01*
X16005Y3411D01*
X17056D01*
X17092Y3418D01*
X17121Y3438D01*
X17287Y3603D01*
X17306Y3633D01*
X17313Y3668D01*
Y3676D01*
X17397Y3760D01*
X17397Y3927D01*
X17699Y4230D01*
X17699Y5648D01*
X17926Y5648D01*
X18260Y5315D01*
D02*
G37*
G36*
X24855Y3283D02*
X25264Y2875D01*
X25264Y1880D01*
X24823Y1438D01*
X23352Y1438D01*
X23352Y2056D01*
X23460Y2165D01*
X23836D01*
X23907Y2236D01*
X23907Y3174D01*
X24013Y3279D01*
X24019Y3275D01*
X24077Y3263D01*
X24135Y3275D01*
X24148Y3283D01*
X24855Y3283D01*
D02*
G37*
G36*
X8287Y3287D02*
X8287Y2840D01*
X8252Y2805D01*
X7424Y2805D01*
X7389Y2840D01*
X7389Y3639D01*
X7932Y3643D01*
X8287Y3287D01*
D02*
G37*
G36*
X8478Y2750D02*
X8606Y2622D01*
X8636Y2602D01*
X8671Y2595D01*
X9514D01*
X9516Y2169D01*
X9481Y2134D01*
X7049Y2134D01*
Y2750D01*
X8478Y2750D01*
D02*
G37*
G36*
X18538Y3243D02*
X18538Y3125D01*
X18769Y2894D01*
X19135Y2894D01*
X19244Y2786D01*
X19244Y1667D01*
X18985Y1409D01*
X17564Y1409D01*
X17521Y1451D01*
X17521Y2116D01*
X17585Y2180D01*
X17913Y2180D01*
X18118Y2385D01*
X18118Y3244D01*
X18158Y3285D01*
X18496D01*
X18538Y3243D01*
D02*
G37*
G36*
X8976Y1884D02*
Y1227D01*
X8855Y1106D01*
X8356Y1106D01*
X8228Y1234D01*
X8228Y1919D01*
X8941Y1919D01*
X8976Y1884D01*
D02*
G37*
G36*
X14308Y1348D02*
Y548D01*
X14272Y513D01*
X13675Y513D01*
X13590Y598D01*
X13590Y1299D01*
X13674Y1383D01*
X14272Y1383D01*
X14308Y1348D01*
D02*
G37*
G36*
X15713Y1383D02*
X15810Y1286D01*
X15810Y619D01*
X15703Y513D01*
X15061Y513D01*
X15060Y1347D01*
X15096Y1383D01*
X15713Y1383D01*
D02*
G37*
G36*
X21839Y1233D02*
Y634D01*
X21714Y508D01*
X20944D01*
X20944Y1342D01*
X20979Y1377D01*
X21695Y1377D01*
X21839Y1233D01*
D02*
G37*
G36*
X20194Y543D02*
X20159Y508D01*
X19434Y507D01*
X19277Y664D01*
X19277Y1214D01*
X19440Y1377D01*
X20194Y1377D01*
X20194Y543D01*
D02*
G37*
G36*
X6070Y1340D02*
Y541D01*
X6034Y506D01*
X5437Y506D01*
X5352Y591D01*
X5352Y1291D01*
X5436Y1375D01*
X6034Y1375D01*
X6070Y1340D01*
D02*
G37*
G36*
X7475Y1375D02*
X7571Y1279D01*
X7571Y612D01*
X7465Y506D01*
X6822Y506D01*
X6822Y1340D01*
X6857Y1375D01*
X7475Y1375D01*
D02*
G37*
D11*
X15973Y26374D02*
X15974Y26375D01*
X16234D02*
X16235Y26377D01*
X15974Y26375D02*
X16234D01*
X17368Y26333D02*
X17510D01*
X17564Y26280D02*
X17590D01*
X17510Y26333D02*
X17564Y26280D01*
X17324Y26377D02*
X17368Y26333D01*
X20117Y30730D02*
X20219D01*
X20108Y30739D02*
X20117Y30730D01*
D14*
X12333Y25345D02*
Y25650D01*
X12273Y25286D02*
X12333Y25345D01*
X7931Y31978D02*
X8191D01*
X14627Y29170D02*
X14958D01*
X8593Y30652D02*
X9350D01*
X7436D02*
X8593D01*
X12130Y30441D02*
Y30760D01*
X9782Y28339D02*
X10599D01*
X9127Y28994D02*
X9782Y28339D01*
X8670Y28994D02*
X9127D01*
X8593Y29071D02*
X8670Y28994D01*
X12578Y26546D02*
X12903D01*
X15071Y33682D02*
X15331D01*
X15072Y34146D02*
X15332D01*
X14633Y28245D02*
X14958D01*
X14550Y34045D02*
Y34305D01*
X7025Y29073D02*
X8595D01*
X8593Y29071D02*
X8595Y29073D01*
X15904Y30357D02*
X16381D01*
X16695Y35236D02*
Y35496D01*
X19758Y31009D02*
Y31269D01*
X15904Y31742D02*
X16381D01*
X11916Y32936D02*
X12176D01*
X12276Y32347D02*
X12536D01*
X15859Y35286D02*
X16192D01*
Y35618D01*
X15846Y41030D02*
X16211D01*
X6560Y25916D02*
X8665D01*
X6560Y27916D02*
Y28609D01*
X7025Y29073D01*
X6860Y31228D02*
X7436Y30652D01*
X12311Y31990D02*
X13029Y31272D01*
X10474Y32314D02*
Y32347D01*
Y32314D02*
X10798Y31990D01*
X12311D01*
X3305Y33045D02*
X4296Y32053D01*
X3305Y33045D02*
Y36623D01*
X4044Y37362D01*
X5494D01*
X6130Y36727D01*
Y34130D02*
X6860Y33400D01*
X6130Y34130D02*
Y36727D01*
X10270Y31572D02*
X10848D01*
X9350Y30652D02*
X10270Y31572D01*
X6860Y31228D02*
Y32400D01*
X12772Y27316D02*
X13032D01*
X12772Y28245D02*
X13032D01*
X13392Y27316D02*
X13994D01*
X13392Y28245D02*
X13994D01*
X13382Y29173D02*
X13984D01*
X10848Y31572D02*
X11318D01*
X12130Y30760D01*
X9875Y33334D02*
Y33575D01*
X10048Y33748D01*
X10474D01*
X12270D01*
X12290Y33729D01*
Y33724D02*
Y33729D01*
X11222Y32347D02*
Y33374D01*
Y32347D02*
X11926D01*
X10474Y32984D02*
Y33000D01*
Y32347D02*
Y32984D01*
X9875D02*
X10474D01*
X9275D02*
X9875D01*
X9275Y31954D02*
Y32984D01*
X8527Y32328D02*
Y32984D01*
X8901Y33759D02*
Y34463D01*
X9921Y35483D01*
X6770Y37430D02*
Y40106D01*
X6755Y35483D02*
Y37415D01*
Y35483D02*
X8921D01*
X13629Y34045D02*
Y34305D01*
D18*
X18627Y7501D02*
G03*
X18707Y7421I80J0D01*
G01*
X18627Y7501D02*
G03*
X18557Y7571I-70J0D01*
G01*
X18417D02*
G03*
X18347Y7501I0J-70D01*
G01*
X18277Y7351D02*
G03*
X18347Y7421I0J70D01*
G01*
X18067D02*
G03*
X18137Y7351I70J0D01*
G01*
X18067Y7657D02*
G03*
X17997Y7727I-70J0D01*
G01*
X17857D02*
G03*
X17787Y7657I0J-70D01*
G01*
X17707Y7421D02*
G03*
X17787Y7501I0J80D01*
G01*
X9398Y7234D02*
G03*
X9396Y7233I0J-2D01*
G01*
X22835Y4449D02*
X23088D01*
X22728Y5140D02*
X22972Y5384D01*
X23012D01*
X22913Y5581D02*
X23143D01*
X22768Y5436D02*
X22913Y5581D01*
X22768Y5363D02*
Y5436D01*
X22755Y5612D02*
X23091Y5949D01*
X22495Y5612D02*
X22755D01*
X22690Y5927D02*
X22924Y6162D01*
X22495Y5927D02*
X22690D01*
X23091Y5949D02*
X23324D01*
X22702Y5297D02*
X22768Y5363D01*
X22491Y5609D02*
X22495Y5612D01*
Y5297D02*
X22702D01*
X23226Y6267D02*
X23304D01*
X22726Y5767D02*
X23226Y6267D01*
X22924Y6162D02*
Y6723D01*
X22492Y5767D02*
X22726D01*
X23304Y6267D02*
X23327Y6289D01*
X22491Y5766D02*
X22492Y5767D01*
X23143Y5581D02*
X23146Y5577D01*
X23202D02*
X23250Y5529D01*
X23146Y5577D02*
X23202D01*
X22491Y5294D02*
X22495Y5297D01*
X22493Y4666D02*
X22983D01*
X23012Y4695D01*
X22491Y4664D02*
X22493Y4666D01*
X23088Y4449D02*
X23284Y4644D01*
X22642Y4346D02*
X22783Y4204D01*
X23045D01*
X22219Y4115D02*
X22463D01*
X23045Y4204D02*
X23255D01*
X23252Y3947D02*
Y3978D01*
X22211Y3726D02*
X22541D01*
X23255Y4204D02*
X23294Y4244D01*
X23196Y3890D02*
X23252Y3947D01*
X22061Y3875D02*
X22211Y3726D01*
X22495Y4346D02*
X22642D01*
X22491Y4349D02*
X22495Y4346D01*
X22491Y4507D02*
X22789D01*
X22856Y4440D01*
X22877Y4892D02*
X23089D01*
X22807Y4821D02*
X22877Y4892D01*
X22623Y4821D02*
X22807D01*
X22774Y4979D02*
X22853Y5058D01*
X22940D01*
X22963Y5080D01*
X23089Y4892D02*
X23245Y5048D01*
X22491Y4821D02*
X22623D01*
X22491Y4979D02*
X22774D01*
X22495Y5140D02*
X22728D01*
X22491Y4822D02*
X22491Y4821D01*
X22621Y3539D02*
X22851D01*
X22620Y3538D02*
X22621Y3539D01*
X22463Y3538D02*
X22620D01*
X21744Y3539D02*
X22462D01*
X22851D02*
X23067Y3755D01*
X22462Y3539D02*
X22463Y3538D01*
X14656Y6874D02*
X14676Y6853D01*
Y6741D02*
Y6853D01*
Y6741D02*
X14747Y6671D01*
Y6360D02*
Y6671D01*
Y6360D02*
X14750Y6357D01*
X14390Y6663D02*
Y6663D01*
X14205Y6958D02*
X14238Y6926D01*
Y6816D02*
Y6926D01*
Y6816D02*
X14390Y6663D01*
X14412Y6667D02*
X14576Y6504D01*
X14589D01*
X14592Y6501D01*
X14904Y7405D02*
X14906Y7407D01*
X14904Y6879D02*
Y7405D01*
Y6879D02*
X15065Y6718D01*
X15300Y6691D02*
Y6876D01*
X10158Y24439D02*
X10856D01*
X9665Y23946D02*
X10158Y24439D01*
X7902Y23946D02*
X9665D01*
X5896Y25952D02*
X7902Y23946D01*
X25842Y4731D02*
Y20150D01*
X25187Y3189D02*
Y4076D01*
X25842Y4731D01*
X18707Y7421D02*
X19198D01*
X18627Y7501D02*
Y7501D01*
X18417Y7571D02*
X18557D01*
X18347Y7421D02*
Y7501D01*
X18137Y7351D02*
X18277D01*
X18067Y7421D02*
Y7657D01*
X17857Y7727D02*
X17997D01*
X17787Y7501D02*
Y7657D01*
X17667Y7421D02*
X17707D01*
X19198D02*
X19282D01*
X17380D02*
X17667D01*
X13835Y7651D02*
X15991D01*
X16220Y7421D02*
X16223D01*
X15991Y7651D02*
X16220Y7421D01*
X19282D02*
X19734Y6969D01*
X16048Y7215D02*
X18543D01*
X15846Y7013D02*
X16048Y7215D01*
X15846Y6939D02*
Y7013D01*
X18478Y7026D02*
X18837D01*
X18848Y7037D01*
X18111Y6659D02*
X18478Y7026D01*
X18111Y6472D02*
Y6659D01*
X18484Y6848D02*
X19264D01*
X18268Y6632D02*
X18484Y6848D01*
X18268Y6261D02*
Y6632D01*
X17536Y5897D02*
X18111Y6472D01*
X19734Y6045D02*
Y6969D01*
Y6045D02*
X20009Y5770D01*
X13652Y7468D02*
X13835Y7651D01*
X13652Y6546D02*
X13882Y6316D01*
X13652Y6546D02*
Y7468D01*
X13882Y5965D02*
Y6316D01*
X20009Y5770D02*
X20204D01*
X19254Y6548D02*
X19501Y6301D01*
Y6066D02*
Y6301D01*
X16806Y7421D02*
X17089D01*
X16523D02*
X16806D01*
X16801Y8031D02*
X16806Y8027D01*
Y7421D02*
Y8027D01*
X16542Y8031D02*
Y9225D01*
X5602Y5184D02*
X5612D01*
X5717Y5079D01*
X5395Y5575D02*
X5576Y5394D01*
X5252Y5533D02*
X5602Y5184D01*
X5576Y5394D02*
X6004D01*
X5717Y5079D02*
X6004D01*
X5395Y5575D02*
Y6408D01*
X5252Y5533D02*
Y5615D01*
X8671Y2687D02*
X10443D01*
X8396Y2962D02*
X8671Y2687D01*
X10443D02*
X10575Y2819D01*
X21271Y3778D02*
Y4074D01*
X21437Y3106D02*
Y3612D01*
X21271Y3778D02*
X21437Y3612D01*
X21589Y3834D02*
Y4070D01*
X21432Y3805D02*
X21567Y3669D01*
X21885Y3731D02*
Y3736D01*
X21589Y3834D02*
X21697Y3726D01*
X21432Y3805D02*
Y4070D01*
X21697Y3586D02*
Y3726D01*
X21567Y3256D02*
Y3669D01*
X21746Y3875D02*
X21885Y3736D01*
X21746Y3875D02*
Y4070D01*
X21697Y3586D02*
X21744Y3539D01*
X21567Y3256D02*
X21797Y3026D01*
X21437Y3106D02*
X21947Y2595D01*
X10152Y21546D02*
X10580D01*
X11481Y15378D02*
Y20645D01*
X10580Y21546D02*
X11481Y20645D01*
X9836Y20955D02*
X10131D01*
X10590D02*
X10975Y20570D01*
X8783Y20955D02*
X9836D01*
X10145D02*
X10590D01*
X10975Y15610D02*
Y20570D01*
X9606Y21880D02*
Y22051D01*
Y21880D02*
X9744Y21742D01*
X10152D01*
X10435D01*
X9127Y22530D02*
X9606Y22051D01*
X9330Y22078D02*
X9449Y21959D01*
Y21719D02*
X9622Y21546D01*
X9449Y21719D02*
Y21959D01*
X8066Y22078D02*
X9330D01*
X10435Y21742D02*
X10435Y21743D01*
X9622Y21546D02*
X9836D01*
X10435Y21743D02*
X10647D01*
X9836Y21546D02*
X10152D01*
X11567Y9913D02*
X12018D01*
X9463Y21152D02*
X10131D01*
X8783Y21743D02*
X8985D01*
X9142Y21586D01*
Y21473D02*
Y21586D01*
Y21473D02*
X9463Y21152D01*
X9836Y21152D02*
X10139D01*
X17155Y24309D02*
X18294Y23170D01*
X18909D01*
X18964Y23226D02*
X19130Y23060D01*
X18909Y23170D02*
X18964Y23226D01*
X22304Y6928D02*
Y7082D01*
X22055Y6678D02*
X22304Y6928D01*
X16604Y4982D02*
X17000D01*
X17057Y5039D01*
X16600Y5137D02*
X16849D01*
X17002Y5289D02*
X17243D01*
X16849Y5137D02*
X17002Y5289D01*
X16604Y5297D02*
X16813D01*
X17019Y5503D01*
X17377D01*
X16816Y4503D02*
X16890Y4429D01*
X17215D01*
X17474Y4688D01*
X16915Y4850D02*
X17251D01*
X17517Y5117D01*
X17517D01*
X12018Y9941D02*
X12583D01*
X10647Y21743D02*
X11739Y20651D01*
X10575Y2819D02*
Y3715D01*
X4266Y295D02*
X11460D01*
X11446Y298D02*
X11630Y481D01*
X3038Y1523D02*
X4266Y295D01*
X7972Y3740D02*
X8396Y3317D01*
X7540Y3787D02*
Y4015D01*
Y3787D02*
X7587Y3740D01*
X7972D01*
X8396Y2962D02*
Y3317D01*
X11630Y481D02*
X11631D01*
X10787Y1086D02*
X10962Y1261D01*
X10787Y765D02*
Y1086D01*
X21271Y5294D02*
Y6357D01*
X15380Y5294D02*
Y6357D01*
X7224Y5079D02*
X7382Y4921D01*
X7795Y4508D02*
X7854Y4449D01*
X7382Y4921D02*
X7795Y4508D01*
X7224Y4016D02*
Y5079D01*
X7382Y4508D02*
Y4921D01*
X6909Y4508D02*
Y4921D01*
Y4016D02*
Y4508D01*
X6910D02*
X7067Y4351D01*
X5536Y3620D02*
Y3991D01*
X7146Y5157D02*
X7224Y5079D01*
X7579Y4469D02*
X7697Y4351D01*
X7493Y7223D02*
X7512Y7241D01*
X6594Y4016D02*
X6752D01*
X7697D02*
Y4351D01*
X7067Y4016D02*
Y4351D01*
X5622Y4532D02*
X5648D01*
X6909Y4508D02*
X6910D01*
X5591Y5706D02*
Y5778D01*
X7854Y4016D02*
Y4449D01*
X7382Y7022D02*
X7493Y7134D01*
X8655Y4764D02*
X8812Y4606D01*
X7382Y4016D02*
Y4469D01*
X7579D01*
X8812Y4606D02*
X8996D01*
X7493Y7134D02*
Y7223D01*
X8287Y4764D02*
X8655D01*
X6909Y4921D02*
X6929Y4941D01*
X5682Y6016D02*
X5831Y5867D01*
X7697Y6299D02*
Y6720D01*
X7798Y6822D01*
Y6825D01*
X6003Y5867D02*
X6004Y5866D01*
X7382Y6299D02*
Y7022D01*
X5648Y4532D02*
X5723Y4606D01*
X7224Y6299D02*
Y7400D01*
X7567Y7743D01*
X5591Y5706D02*
X5745Y5552D01*
X6003D01*
X5831Y5867D02*
X6003D01*
X5723Y4606D02*
X6004D01*
X5682Y6016D02*
Y6365D01*
X6003Y5552D02*
X6004Y5551D01*
X10575Y3715D02*
X10866Y4005D01*
X11397D02*
X11631Y3771D01*
X10866Y4005D02*
X11397D01*
X11997Y13452D02*
X12001Y13456D01*
X11997Y13082D02*
Y13452D01*
X11994Y13078D02*
X11997Y13082D01*
X11994Y12728D02*
X12415D01*
X12692Y13006D01*
Y14167D01*
X11481Y15378D02*
X12692Y14167D01*
X12583Y9941D02*
X13080Y10439D01*
Y14162D01*
X11739Y15504D02*
X13080Y14162D01*
X9407Y9154D02*
X9744Y9491D01*
Y11302D01*
X9403Y11642D02*
X9744Y11302D01*
X9403Y11642D02*
Y12662D01*
X8913Y12623D02*
Y13438D01*
X8649Y13702D02*
Y15278D01*
Y13702D02*
X8913Y13438D01*
X8661Y11793D02*
X8907Y11547D01*
X8445Y13510D02*
X8661Y13293D01*
Y11793D02*
Y13293D01*
X8445Y13510D02*
Y15787D01*
X8740Y16083D01*
X9370D01*
X9608Y16320D01*
Y17192D01*
X9401Y17399D02*
X9608Y17192D01*
X8907Y10520D02*
Y11547D01*
X8649Y15278D02*
X8941Y15569D01*
X9090D01*
X8904Y12614D02*
X8913Y12623D01*
X8410Y16560D02*
X9090D01*
X7461Y15610D02*
X8410Y16560D01*
X7461Y14055D02*
Y15610D01*
X8409Y12104D02*
X8411Y12102D01*
X8409Y12104D02*
Y12664D01*
X9407Y12666D02*
Y13581D01*
X9090Y13898D02*
Y14569D01*
Y13898D02*
X9407Y13581D01*
X8407Y12666D02*
Y13109D01*
X7461Y14055D02*
X8407Y13109D01*
X7109Y15391D02*
Y15408D01*
X7283Y12396D02*
Y15217D01*
X7109Y15391D02*
X7283Y15217D01*
X6798Y15569D02*
X6948D01*
X7109Y15408D01*
X7283Y12396D02*
X8407Y11273D01*
X8907Y10353D02*
Y10520D01*
X7827Y7201D02*
Y9287D01*
X8829Y10275D02*
X8907Y10353D01*
X8814Y10275D02*
X8829D01*
X7827Y9287D02*
X8814Y10275D01*
X6909Y6299D02*
Y9709D01*
X8407Y10520D02*
Y11273D01*
Y10353D02*
Y10520D01*
X8316Y10275D02*
X8329D01*
X7067Y9026D02*
X8316Y10275D01*
X8329D02*
X8407Y10353D01*
X6909Y9709D02*
X7430Y10229D01*
X6752Y6299D02*
Y10148D01*
Y14522D02*
X6798Y14569D01*
X6752Y10148D02*
X7124Y10520D01*
X6280Y6299D02*
Y7358D01*
X3332Y10306D02*
Y16108D01*
Y10306D02*
X6280Y7358D01*
X3963Y10584D02*
Y12178D01*
Y10584D02*
X6594Y7953D01*
X9407Y8815D02*
Y9154D01*
X10297Y6478D02*
Y12774D01*
X9853Y13219D02*
Y17453D01*
Y13219D02*
X10297Y12774D01*
X10212Y13284D02*
Y14955D01*
Y13284D02*
X10618Y12878D01*
Y6378D02*
Y12878D01*
X10911Y6264D02*
Y13119D01*
X10557Y13474D02*
Y13892D01*
Y13474D02*
X10911Y13119D01*
X8287Y5866D02*
X9685D01*
X10297Y6478D01*
X10212Y14955D02*
X10519Y15262D01*
X8287Y5394D02*
X10041D01*
X10911Y6264D01*
X10566Y5188D02*
X11299Y5921D01*
Y12096D02*
X11540Y12338D01*
X11299Y5921D02*
Y12096D01*
X11540Y12338D02*
X11540D01*
X10795Y4813D02*
X11567Y5586D01*
Y5612D02*
Y9563D01*
X8800Y4813D02*
X10795D01*
X10348Y4969D02*
X10566Y5188D01*
X8718Y5079D02*
X8828Y4969D01*
X10348D01*
X8693Y4921D02*
X8800Y4813D01*
X8287Y5079D02*
X8718D01*
X3963Y12178D02*
X4394Y12609D01*
X20332Y12509D02*
X20778Y12954D01*
Y16900D01*
X12898Y15832D02*
Y16556D01*
Y15832D02*
X14902Y13829D01*
X14882Y13425D02*
Y13425D01*
X12638Y15670D02*
Y16464D01*
Y15670D02*
X14882Y13425D01*
X18445Y11161D02*
X18744D01*
X19794Y10112D01*
X12555Y16900D02*
X12898Y16556D01*
X12294Y16807D02*
X12638Y16464D01*
X12343Y15615D02*
X15050Y12907D01*
X12034Y16620D02*
X12343Y16312D01*
Y15615D02*
Y16312D01*
X11739Y15504D02*
Y20651D01*
X7539Y4016D02*
X7540Y4015D01*
X6430Y2243D02*
X6435Y2247D01*
Y2632D01*
X6438Y2635D01*
Y1520D02*
Y2235D01*
X5186Y3620D02*
Y3825D01*
X5501Y3655D02*
X5536Y3620D01*
X5186Y3214D02*
Y3620D01*
X5536Y2809D02*
Y3214D01*
Y3620D01*
X6798Y12230D02*
Y14569D01*
Y12230D02*
X7907Y11122D01*
Y10520D02*
Y11122D01*
X7124Y10520D02*
X7907D01*
X9349Y7186D02*
X9396Y7233D01*
X9398Y7234D02*
X9429D01*
X9666Y7471D01*
X9696D01*
X8724Y6419D02*
X8932D01*
X8314D02*
X8724D01*
X9791Y5551D02*
X10618Y6378D01*
X9696Y7471D02*
X9813Y7589D01*
X11055Y22236D02*
X11316D01*
X11047Y22244D02*
X11055Y22236D01*
X11241Y22906D02*
X12034Y22114D01*
X11259Y23073D02*
X12294Y22037D01*
X11241Y23331D02*
X12555Y22018D01*
X6950Y23331D02*
X11241D01*
X12555Y16900D02*
Y22018D01*
X6843Y23073D02*
X11259D01*
X12294Y16807D02*
Y22037D01*
X6235Y22906D02*
X11241D01*
X12034Y16620D02*
Y22114D01*
X20795Y3836D02*
Y4070D01*
X20696Y3738D02*
X20795Y3836D01*
X20625Y3715D02*
X20648Y3738D01*
X20696D01*
X20373Y3585D02*
X20511Y3723D01*
X20633D01*
X20795Y4070D02*
X20798Y4074D01*
X21248Y2713D02*
X21287D01*
X21229Y2732D02*
X21248Y2713D01*
X21229Y2732D02*
Y3161D01*
X15183Y6994D02*
X15300Y6876D01*
X15226Y6616D02*
X15300Y6691D01*
X15226Y6360D02*
Y6616D01*
X15222Y6357D02*
X15226Y6360D01*
X15065Y6357D02*
Y6718D01*
X15695Y6787D02*
X15846Y6939D01*
X15534Y6360D02*
Y6925D01*
X15589Y6980D01*
Y7024D01*
X15695Y6357D02*
Y6787D01*
X16048Y6943D02*
Y6947D01*
X15852Y6748D02*
X16048Y6943D01*
X15852Y6357D02*
Y6748D01*
X16010Y6639D02*
X16293Y6922D01*
X16010Y6357D02*
Y6639D01*
X16293Y6922D02*
X16460D01*
X16308Y6693D02*
X16673D01*
X16170Y6555D02*
X16308Y6693D01*
X16934Y6647D02*
Y6922D01*
X16761Y6473D02*
X16934Y6647D01*
X16325Y6357D02*
Y6470D01*
X16328Y6473D01*
X16761D01*
X17168Y6505D02*
Y6673D01*
X16747Y6085D02*
X17168Y6505D01*
X16604Y6085D02*
X16747D01*
X16600Y6081D02*
X16604Y6085D01*
X17168Y6673D02*
X17186Y6691D01*
X16876Y5609D02*
X17923Y6657D01*
Y6959D01*
X16813Y5927D02*
X17411Y6526D01*
Y6939D01*
X17534Y9803D02*
X17867D01*
X18095Y9575D01*
X17669Y6600D02*
Y6733D01*
X16839Y5770D02*
X17669Y6600D01*
X17909Y5903D02*
X18268Y6261D01*
X17377Y5503D02*
X17403Y5528D01*
X16600Y5609D02*
X16876D01*
X16170Y6360D02*
Y6555D01*
X17229Y12553D02*
X17238Y12562D01*
X16485Y12553D02*
X17229D01*
X21545Y6757D02*
Y6778D01*
X21346Y6891D02*
X21479Y7024D01*
X21346Y6696D02*
Y6891D01*
Y6696D02*
X21425Y6617D01*
Y6360D02*
Y6617D01*
X21545Y6757D02*
X21586Y6716D01*
X21070Y7033D02*
X21110Y6994D01*
X20956Y6357D02*
Y6856D01*
X21425Y6360D02*
X21428Y6357D01*
X21479Y7024D02*
Y7035D01*
X21110Y6360D02*
X21113Y6357D01*
X21110Y6360D02*
Y6994D01*
X14592Y6357D02*
Y6501D01*
X16325Y4000D02*
X16427D01*
X10987Y27067D02*
X11134Y27215D01*
X11371D01*
X11475Y27319D02*
X11476D01*
X11371Y27215D02*
X11475Y27319D01*
X7539Y6913D02*
X7827Y7201D01*
X12681Y30301D02*
X13032Y29950D01*
Y29173D02*
Y29950D01*
X12130Y30441D02*
X12356D01*
X12496Y30301D01*
X12681D01*
X9008Y18297D02*
X9853Y17453D01*
X8602Y18964D02*
X10030Y17535D01*
X15050Y12907D02*
X15963D01*
X16056Y12814D01*
X11378Y30279D02*
X11378Y30279D01*
Y30539D01*
X12356Y30429D02*
X12360D01*
X13009Y29197D02*
X13032Y29173D01*
X12408Y29197D02*
X13009D01*
X11560Y29334D02*
X12271D01*
X12408Y29197D01*
X11730Y26034D02*
X12273D01*
X13673Y25879D02*
Y26356D01*
X14633Y27316D01*
X13061Y25660D02*
X13453D01*
X13673Y25879D01*
X12228Y26079D02*
X12273Y26034D01*
X12228Y26079D02*
Y26546D01*
X10987Y27062D02*
Y27067D01*
X21014Y10939D02*
Y20837D01*
X21786Y21609D01*
X20557Y13305D02*
Y15829D01*
X20023Y12771D02*
X20557Y13305D01*
X21235Y10962D02*
X21401Y11127D01*
X21235Y10396D02*
Y10962D01*
X21014Y10939D02*
X21017Y10936D01*
X16556Y4095D02*
Y4144D01*
Y4095D02*
X16654Y3997D01*
X16427Y3958D02*
X16684Y3700D01*
X16427Y3958D02*
Y4000D01*
X16325D02*
Y4074D01*
X16684Y3700D02*
X16926D01*
X16654Y3997D02*
X17109D01*
X17222Y3884D01*
X16005Y3503D02*
X17056D01*
X17222Y3668D01*
X15798Y3710D02*
X16005Y3503D01*
X16170Y3875D02*
X16355Y3691D01*
X16418D01*
X16961Y4185D02*
X17303D01*
X16893D02*
X16961D01*
X16747Y4331D02*
X16893Y4185D01*
X17303D02*
X17402Y4285D01*
X3702Y25486D02*
X4270Y26053D01*
X3702Y22934D02*
Y25486D01*
X4270Y26053D02*
X4296D01*
X3587Y26344D02*
X4296Y27053D01*
X3572Y26344D02*
X3587D01*
X5473Y22505D02*
X5957Y22021D01*
Y20250D02*
X6400Y19807D01*
X5957Y20250D02*
Y22021D01*
X3572Y22149D02*
X4187Y21534D01*
X3572Y22149D02*
Y26344D01*
X4187Y21534D02*
X5449D01*
X5784Y21199D01*
X3702Y22934D02*
X4131Y22505D01*
X5473D01*
X4828Y23521D02*
X5296Y23053D01*
X3832Y25245D02*
X4155Y25568D01*
X3832Y23889D02*
Y25245D01*
X4200Y23521D02*
X4828D01*
X4155Y25568D02*
X5409D01*
X3832Y23889D02*
X4200Y23521D01*
X5784Y20239D02*
Y21199D01*
X9268Y18706D02*
Y18706D01*
Y18706D02*
X10168Y17806D01*
X7734Y19807D02*
X7890Y19651D01*
X8177Y19094D02*
X8880D01*
X9268Y18706D01*
X7890Y19381D02*
Y19651D01*
Y19381D02*
X8177Y19094D01*
X7690Y19667D02*
X7737Y19620D01*
X8124Y18964D02*
X8602D01*
X7737Y19350D02*
Y19620D01*
Y19350D02*
X8124Y18964D01*
X5541Y23600D02*
X6235Y22906D01*
X5121Y23600D02*
X5541D01*
X4852Y23869D02*
X5121Y23600D01*
X5862Y24053D02*
X6843Y23073D01*
X5296Y24053D02*
X5862D01*
X5784Y20239D02*
X6356Y19667D01*
X6400Y19807D02*
X7734D01*
X6356Y19667D02*
X7690D01*
X7984Y20269D02*
Y21995D01*
Y20269D02*
X8031Y20222D01*
X7984Y21995D02*
X8066Y22078D01*
X8031Y20222D02*
X8729D01*
X6309Y18297D02*
X9008D01*
X5296Y27053D02*
X5896Y26453D01*
Y25952D02*
Y26453D01*
X7800Y23550D02*
X14458D01*
X5296Y26053D02*
X7800Y23550D01*
X14458D02*
X15350Y22658D01*
X4852Y24609D02*
X5296Y25053D01*
X4852Y23869D02*
Y24609D01*
X5930Y24351D02*
X6950Y23331D01*
X5930Y24351D02*
Y25048D01*
X5409Y25568D02*
X5930Y25048D01*
X18095Y9435D02*
Y9575D01*
Y9435D02*
X18114Y9416D01*
X16056Y12814D02*
X16088D01*
X21194Y9749D02*
X21225D01*
X21122Y9677D02*
X21194Y9749D01*
X20744Y9677D02*
X21122D01*
X18909Y11231D02*
Y11381D01*
X19930Y10846D02*
X20232Y10543D01*
X18909Y11231D02*
X19295Y10846D01*
X19930D01*
X8012Y6419D02*
X8314D01*
X8932D02*
X9349Y6836D01*
X8012Y6418D02*
X8012Y6419D01*
X8012Y6299D02*
Y6418D01*
X18996Y30140D02*
X19340Y29795D01*
X18876Y28195D02*
X19340Y28660D01*
Y29795D01*
X18876Y27483D02*
Y28195D01*
X20219Y29943D02*
X20264D01*
X20283Y29924D01*
Y28679D02*
Y29924D01*
X18487Y30140D02*
X18996D01*
X15686Y33378D02*
X15690Y33373D01*
X15686Y33378D02*
Y33677D01*
X16974Y26377D02*
X17468Y26870D01*
Y28679D01*
X16878Y25877D02*
Y26270D01*
X16974Y26366D01*
Y26377D01*
X16059Y27483D02*
X16072Y27470D01*
Y26890D02*
Y27470D01*
Y26890D02*
X16585Y26377D01*
X16681Y25877D02*
Y26270D01*
X16585Y26366D02*
X16681Y26270D01*
X16585Y26366D02*
Y26377D01*
X10660Y21152D02*
X11243Y20569D01*
X11010Y14233D02*
X11243Y14467D01*
Y20569D01*
X10957Y14987D02*
Y15240D01*
X10939Y14969D02*
X10957Y14987D01*
Y15240D02*
X10977Y15259D01*
X12018Y10292D02*
X12022Y10295D01*
Y10666D01*
X12025Y10669D01*
X10789Y13532D02*
X11010Y13753D01*
X8783Y22530D02*
X9127D01*
X8827Y5205D02*
X8858D01*
X8288Y4921D02*
X8693D01*
X8287Y4921D02*
X8288Y4921D01*
X11010Y13753D02*
Y13883D01*
X11320Y21881D02*
X11326Y21875D01*
Y21573D02*
Y21875D01*
Y21573D02*
X11332Y21567D01*
X11316Y22236D02*
X11320Y22231D01*
X11972Y12689D02*
X11973Y12690D01*
X11541Y12689D02*
X11972D01*
X11540Y12688D02*
X11541Y12689D01*
X11005Y14238D02*
X11010Y14233D01*
X10561Y14238D02*
X11005D01*
X10557Y14242D02*
X10561Y14238D01*
X10975Y15610D02*
X10976Y15609D01*
X10520Y15610D02*
X10975D01*
X10519Y15612D02*
X10520Y15610D01*
X8729Y20222D02*
X8783Y20168D01*
Y20955D02*
X8783Y20955D01*
X10161Y21152D02*
X10660D01*
X9401Y17399D02*
Y17399D01*
X9090Y17560D02*
X9240D01*
X9401Y17399D01*
X8287Y5551D02*
X9791D01*
X5536Y3991D02*
X5836Y4291D01*
X5809Y4448D02*
X6003D01*
X5186Y3825D02*
X5809Y4448D01*
X6003D02*
X6004Y4449D01*
X14109Y22272D02*
X14293Y22088D01*
X13696Y22272D02*
X14109D01*
X13696Y21602D02*
X14936D01*
Y22272D02*
X14954Y22290D01*
X15332D01*
X15350Y22308D01*
X13250Y22256D02*
X13255Y22251D01*
X13262Y22258D01*
X13250Y22256D02*
Y22643D01*
X13252Y22645D01*
X13248Y22244D02*
X13255Y22251D01*
X13260Y23028D02*
X13269Y23036D01*
X13260Y22654D02*
Y23028D01*
X13252Y22645D02*
X13260Y22654D01*
X13682Y22258D02*
X13696Y22272D01*
X13262Y22258D02*
X13682D01*
X11200Y23839D02*
X11738D01*
X11188Y23852D02*
X11200Y23839D01*
X12088D02*
X12107Y23859D01*
Y24403D01*
X12127Y24423D01*
X13678Y21584D02*
X13696Y21602D01*
X13199Y21584D02*
X13678D01*
X13180Y21565D02*
X13199Y21584D01*
X22293Y23060D02*
X22296Y23063D01*
X19130Y23060D02*
X22293D01*
X16704Y24309D02*
X17155D01*
X16420Y24593D02*
Y25222D01*
Y24593D02*
X16704Y24309D01*
X18823Y24258D02*
Y24258D01*
X18723Y24357D02*
X18823Y24258D01*
X20628Y26063D02*
X22296D01*
X18823Y24258D02*
X20628Y26063D01*
X17336Y25419D02*
X17964D01*
X18723Y24660D01*
Y24357D02*
Y24660D01*
X4807Y6646D02*
X4822Y6631D01*
X4807Y6646D02*
Y6931D01*
X4792Y6946D02*
X4807Y6931D01*
X5172Y6631D02*
X5395Y6408D01*
X5205Y5663D02*
X5252Y5615D01*
X5172Y6631D02*
Y6631D01*
X6594Y6299D02*
Y7953D01*
X3332Y16108D02*
X3755Y16531D01*
X3621Y15227D02*
X3945Y15550D01*
X3621Y10506D02*
Y15227D01*
X3945Y15550D02*
X4799D01*
X8287Y5236D02*
X8796D01*
X8827Y5205D01*
X5296Y20053D02*
X5399Y19951D01*
Y19579D02*
Y19951D01*
Y19579D02*
X5863Y19115D01*
Y18743D02*
Y19115D01*
Y18743D02*
X6309Y18297D01*
X7854Y6299D02*
X7855Y6300D01*
Y6472D01*
X8065Y6682D01*
X8143D01*
X8179Y6719D01*
X7539Y6299D02*
Y6913D01*
X7067Y6299D02*
Y9026D01*
X4852Y12609D02*
X5296Y13053D01*
X4394Y12609D02*
X4852D01*
X3621Y10506D02*
X6437Y7690D01*
Y6299D02*
Y7690D01*
X4799Y15550D02*
X5296Y15053D01*
X3038Y1523D02*
X3038Y18978D01*
X3558Y19498D01*
X3755Y16531D02*
X4891D01*
X5296Y16126D01*
Y16053D02*
Y16126D01*
X3558Y19498D02*
X4852D01*
X5296Y19053D02*
X5296D01*
X4852Y19498D02*
X5296Y19053D01*
X4989Y5663D02*
X5205D01*
X4789Y5863D02*
X4989Y5663D01*
X6004Y6024D02*
Y6444D01*
X5836Y4291D02*
X6004D01*
X6438Y3428D02*
X6442Y3425D01*
X6437Y4016D02*
X6438Y4015D01*
Y3428D02*
Y4015D01*
X6752Y3811D02*
Y4016D01*
X6924Y3639D02*
X6924D01*
X7166Y3466D02*
X7214Y3418D01*
X7097Y3466D02*
X7166D01*
X6924Y3639D02*
X7097Y3466D01*
X6752Y3811D02*
X6924Y3639D01*
X14466Y3493D02*
X14769Y3797D01*
X16987Y4667D02*
X16993Y4661D01*
X16909Y4844D02*
X16915Y4850D01*
X16623Y4844D02*
X16909D01*
X16603Y4667D02*
X16987D01*
X16600Y4822D02*
X16623Y4844D01*
X22491Y5137D02*
X22495Y5140D01*
X22216Y4074D02*
Y4112D01*
X22219Y4115D01*
X16604Y4503D02*
X16816D01*
X16600Y4507D02*
X16604Y4503D01*
X16744Y4349D02*
X16747Y4346D01*
X16600Y4349D02*
X16744D01*
X16747Y4331D02*
Y4346D01*
X15798Y3710D02*
Y3711D01*
X15856Y3875D02*
X16010Y3721D01*
X16054D01*
X16170Y3875D02*
Y4070D01*
X16167Y4074D02*
X16170Y4070D01*
X13896Y4464D02*
X14092Y4661D01*
X13896Y4369D02*
Y4464D01*
X13702Y4175D02*
X13749D01*
X13753Y4180D01*
Y4227D02*
X13896Y4369D01*
X13753Y4180D02*
Y4227D01*
X13354Y6504D02*
X13615Y6243D01*
Y6036D02*
X14039Y5612D01*
X13615Y6036D02*
Y6243D01*
X14077Y5770D02*
X14313D01*
X13882Y5965D02*
X14077Y5770D01*
X14039Y5612D02*
X14313D01*
X13352Y6102D02*
X14002Y5451D01*
X14317D01*
X13352Y6102D02*
Y6102D01*
X14313Y5612D02*
X14317Y5609D01*
X21202Y18969D02*
X22296Y20063D01*
X21202Y11210D02*
Y18969D01*
X21401Y11127D02*
Y16909D01*
X22011Y17520D01*
X20719Y7658D02*
X21131Y8071D01*
X21927D02*
X23143Y9287D01*
X21131Y8071D02*
X21927D01*
X21205Y7940D02*
X22768D01*
X20880Y7616D02*
X21205Y7940D01*
X22768D02*
X24222Y6486D01*
X23296Y20063D02*
X24024Y19336D01*
Y10954D02*
Y19336D01*
X24368Y8842D02*
Y10330D01*
X23826Y10872D02*
X24368Y10330D01*
X22718Y6665D02*
Y6969D01*
X22491Y6439D02*
X22718Y6665D01*
X22496Y6724D02*
X22518Y6746D01*
X21826Y7145D02*
Y7176D01*
X21956Y6818D02*
Y6860D01*
X21743Y6357D02*
Y7062D01*
X21586Y6357D02*
Y6716D01*
X22216Y6357D02*
Y6492D01*
X22219Y6495D01*
X22313D01*
X22496Y6678D01*
Y6724D01*
X24222Y4359D02*
Y6486D01*
X24758Y4095D02*
Y19602D01*
X24077Y3415D02*
X24758Y4095D01*
X23296Y21063D02*
X24758Y19602D01*
X24077Y3415D02*
Y3415D01*
X24520Y5158D02*
Y8390D01*
X25485Y20508D02*
X25842Y20150D01*
X21743Y4074D02*
X21746Y4070D01*
X22058Y4074D02*
X22061Y4070D01*
Y3875D02*
Y4070D01*
X24852Y20508D02*
X25485D01*
X23296Y22063D02*
X24852Y20508D01*
X23826Y10872D02*
Y16177D01*
X23445Y16557D02*
X23826Y16177D01*
X22802Y16557D02*
X23445D01*
X22296Y17063D02*
X22802Y16557D01*
X19849Y9702D02*
X20208D01*
X22731Y10179D02*
X24520Y8390D01*
X20232Y9677D02*
Y10041D01*
X20371Y10179D02*
X22731D01*
X20232Y10041D02*
X20371Y10179D01*
X20208Y9702D02*
X20232Y9677D01*
X16600Y4979D02*
X16604Y4982D01*
X23339Y14021D02*
X23559Y14242D01*
X23296Y14063D02*
X23339Y14021D01*
X23067Y3755D02*
X23077D01*
X23172Y3827D02*
Y3862D01*
X23196Y3886D02*
Y3890D01*
X23124Y3779D02*
X23172Y3827D01*
Y3862D02*
X23196Y3886D01*
X21586Y4074D02*
X21589Y4070D01*
X23547Y11969D02*
X23547Y11969D01*
X23296Y12960D02*
Y13063D01*
Y12960D02*
X23547Y12710D01*
Y11969D02*
Y12710D01*
X23547Y10236D02*
Y11969D01*
X20270Y6668D02*
Y6789D01*
X21614Y10710D02*
Y15023D01*
X21844Y15254D02*
Y15254D01*
X21614Y15023D02*
X21844Y15254D01*
Y15254D02*
X22189Y15598D01*
X22831D02*
X23296Y16063D01*
X22189Y15598D02*
X22831D01*
X18114Y11223D02*
X18509Y11618D01*
X19265D02*
X19315Y11569D01*
X18509Y11618D02*
X19265D01*
X18114Y10637D02*
Y11223D01*
X19315Y11118D02*
Y11569D01*
X20880Y7306D02*
X20887Y7300D01*
X20880Y7306D02*
Y7616D01*
X20719Y7093D02*
Y7658D01*
Y7093D02*
X20956Y6856D01*
X20887Y7217D02*
Y7300D01*
Y7217D02*
X21070Y7033D01*
X21901Y6763D02*
X21956Y6818D01*
X21743Y7062D02*
X21826Y7145D01*
X20281Y6723D02*
Y6789D01*
X20157Y6913D02*
X20281Y6789D01*
X20157Y6913D02*
X20157D01*
X20567Y6912D02*
X20614Y6865D01*
Y6772D02*
Y6865D01*
Y6772D02*
X20641Y6745D01*
Y6713D02*
Y6745D01*
Y6357D02*
Y6713D01*
X20347Y6623D02*
X20483Y6487D01*
X20332Y11975D02*
Y12509D01*
X20023Y12148D02*
Y12771D01*
X16600Y5766D02*
X16604Y5770D01*
X16839D01*
X15852Y4074D02*
X15856Y4070D01*
Y3875D02*
Y4070D01*
X15698Y3811D02*
X15798Y3711D01*
X15537Y3787D02*
X15668Y3657D01*
Y3309D02*
Y3657D01*
X15380Y3761D02*
X15538Y3603D01*
Y3490D02*
Y3603D01*
Y3044D02*
Y3490D01*
X22840Y17520D02*
X23296Y17063D01*
X22011Y17520D02*
X22840D01*
X22775Y24541D02*
X23296Y25063D01*
X22775Y21874D02*
Y24541D01*
X22510Y21609D02*
X22775Y21874D01*
X21786Y21609D02*
X22510D01*
X21901Y6357D02*
Y6763D01*
X22055Y6360D02*
Y6678D01*
X22491Y6081D02*
Y6439D01*
Y5924D02*
X22495Y5927D01*
X16167Y6357D02*
X16170Y6360D01*
X17222Y3668D02*
Y3884D01*
X15698Y3811D02*
Y4070D01*
X15695Y4074D02*
X15698Y4070D01*
X15538Y3044D02*
X16028Y2554D01*
X15380Y3761D02*
Y4074D01*
X15668Y3309D02*
X16028Y2949D01*
X15537Y3787D02*
Y4074D01*
X21918Y3026D02*
X21945Y2999D01*
X21797Y3026D02*
X21918D01*
X8407Y12666D02*
X8409Y12664D01*
X6430Y2243D02*
X6438Y2235D01*
X14907Y5766D02*
X15380Y5294D01*
X15459Y5215D01*
X14907Y5766D02*
Y6357D01*
X15695Y5451D02*
X16600D01*
X15459Y5215D02*
X15695Y5451D01*
X16010Y4074D02*
Y4664D01*
X15459Y5215D02*
X16010Y4664D01*
X20798Y5766D02*
X21271Y5294D01*
X21349Y5215D01*
X20798Y5766D02*
Y6357D01*
X21586Y5451D02*
X22491D01*
X21349Y5215D02*
X21586Y5451D01*
X21901Y4074D02*
Y4664D01*
X21349Y5215D02*
X21901Y4664D01*
X16549Y33284D02*
X16572Y33306D01*
Y33447D02*
X16686Y33561D01*
X16572Y33306D02*
Y33447D01*
X16686Y33561D02*
X16764D01*
X9403Y12662D02*
X9407Y12666D01*
X8904Y12103D02*
Y12614D01*
X6442Y2989D02*
Y3425D01*
X6438Y2985D02*
X6442Y2989D01*
X14313Y4503D02*
X14317Y4507D01*
X14092Y4661D02*
X14313D01*
X14028Y4413D02*
X14118Y4503D01*
X14313D01*
X14028Y3758D02*
Y4413D01*
X14313Y4661D02*
X14317Y4664D01*
X14313Y4818D02*
X14317Y4822D01*
X14022Y4818D02*
X14313D01*
X13708Y4505D02*
X14022Y4818D01*
X13841Y4979D02*
X14317D01*
X13717Y4855D02*
X13841Y4979D01*
X13861Y5140D02*
X14145D01*
X13695Y5306D02*
X13861Y5140D01*
X14145D02*
X14145Y5140D01*
X14315Y3695D02*
Y4349D01*
X13706Y4505D02*
X13708D01*
X13706Y4855D02*
X13717D01*
X15415Y1867D02*
Y2210D01*
X14683Y1545D02*
X15093D01*
X15415Y1867D01*
X20569Y1537D02*
X20962D01*
X21287Y1862D01*
Y2201D01*
X15348Y2741D02*
Y3151D01*
Y2741D02*
X15367Y2721D01*
X15415D01*
X14946Y2741D02*
Y3151D01*
X14927Y2721D02*
X14946Y2741D01*
X14904Y2721D02*
X14927D01*
X20775Y2713D02*
X20804D01*
X20823Y2732D01*
Y3163D01*
X16600Y5294D02*
X16604Y5297D01*
X16600Y4664D02*
X16603Y4667D01*
X20483Y6357D02*
Y6487D01*
X20314Y6623D02*
X20347D01*
X20270Y6668D02*
X20314Y6623D01*
X14904Y4070D02*
X14907Y4074D01*
X14904Y3875D02*
Y4070D01*
X14825Y3797D02*
X14904Y3875D01*
X14769Y3797D02*
X14825D01*
X13348Y5699D02*
X13359Y5688D01*
X13511D02*
X13905Y5294D01*
X14317D01*
X13359Y5688D02*
X13511D01*
X18487Y30337D02*
X19156D01*
X20694Y30140D02*
X21360Y30806D01*
Y38727D02*
X22296Y39663D01*
X21360Y30806D02*
Y38727D01*
X20219Y30140D02*
X20694D01*
X19209Y33935D02*
X20853Y32292D01*
X15681Y33682D02*
X15686Y33677D01*
X19414Y30708D02*
Y31354D01*
X19876Y31816D02*
X20377D01*
X19414Y31354D02*
X19876Y31816D01*
X20377D02*
X20853Y32292D01*
X19414Y30708D02*
X19785Y30337D01*
X13629Y32532D02*
X13931Y32230D01*
X16632D02*
X17266Y32864D01*
X13931Y32230D02*
X16632D01*
X14550Y32525D02*
X16604D01*
X17069Y32991D01*
Y33156D01*
X17266Y32864D02*
Y33156D01*
X14550Y33195D02*
Y33695D01*
X13629Y33181D02*
Y33695D01*
X19785Y30337D02*
X20219D01*
X17727Y30730D02*
X18487D01*
X17404Y31053D02*
X17727Y30730D01*
X17286Y31053D02*
X17404D01*
X19003Y30784D02*
Y32292D01*
X18771Y30552D02*
X19003Y30784D01*
X18506Y30552D02*
X18771D01*
X18487Y30533D02*
X18506Y30552D01*
X19003Y32292D02*
Y33452D01*
X18359Y33757D02*
X18378Y33738D01*
X18717D01*
X19003Y33452D01*
X18359Y33954D02*
X18378Y33935D01*
X19209D01*
X15682Y34146D02*
Y34604D01*
Y34146D02*
X15926D01*
X16109Y34329D01*
X16150Y34151D02*
X16764D01*
X15681Y33682D02*
X16150Y34151D01*
X16109Y34329D02*
X16745D01*
X16764Y34348D01*
X10962Y1271D02*
Y2511D01*
Y1261D02*
Y1271D01*
X11631Y831D02*
Y1271D01*
X14683Y1545D02*
X14685Y1543D01*
X22055Y6360D02*
X22058Y6357D01*
X16600Y5924D02*
X16604Y5927D01*
X16813D01*
X15961Y9806D02*
X16542Y9225D01*
X15743Y10149D02*
X15914D01*
X15961Y10102D01*
Y9806D02*
Y10102D01*
X15722Y10171D02*
X15743Y10149D01*
X13354Y5306D02*
X13695D01*
X13985Y3365D02*
X14315Y3695D01*
X19974Y3850D02*
X20208Y4085D01*
Y4349D01*
X19443Y5137D02*
X20208D01*
X19248Y5332D02*
X19443Y5137D01*
X19692Y5294D02*
X20208D01*
X19248Y5738D02*
X19692Y5294D01*
X19243Y6130D02*
Y6141D01*
Y6130D02*
X19361Y6013D01*
Y6008D02*
Y6013D01*
Y6008D02*
X19918Y5451D01*
X20208D01*
X19501Y6066D02*
X19955Y5612D01*
X20204D01*
X20208Y5609D01*
X14313Y5770D02*
X14317Y5766D01*
X13635Y3365D02*
X14028Y3758D01*
X21428Y4074D02*
X21432Y4070D01*
X19174Y4920D02*
X19180Y4913D01*
X19561D02*
X19568Y4907D01*
X19651Y4979D02*
X20208D01*
X19579Y4907D02*
X19651Y4979D01*
X19568Y4907D02*
X19579D01*
X19154Y4124D02*
X19164Y4133D01*
Y4508D02*
X19174Y4518D01*
X19918Y4822D02*
X20208D01*
X19698Y4602D02*
X19918Y4822D01*
X19613Y4602D02*
X19698D01*
X19568Y4557D02*
X19613Y4602D01*
X19774Y4480D02*
X19955Y4661D01*
X19774Y4379D02*
Y4480D01*
X19955Y4661D02*
X20204D01*
X19834Y4062D02*
X19914Y4142D01*
Y4422D01*
X19834Y3783D02*
Y4062D01*
X19974Y3383D02*
Y3850D01*
X19674Y3624D02*
X19834Y3783D01*
X19914Y4422D02*
X19995Y4503D01*
X20204D02*
X20208Y4507D01*
X19568Y4174D02*
X19774Y4379D01*
X19624Y3383D02*
Y3577D01*
X19995Y4503D02*
X20204D01*
X19670Y3624D02*
X19674D01*
X19624Y3577D02*
X19670Y3624D01*
X20204Y4661D02*
X20208Y4664D01*
D34*
X11631Y3367D02*
D03*
X11281D02*
D03*
X13248Y22244D02*
D03*
X12898D02*
D03*
X19665Y11118D02*
D03*
X23644Y4244D02*
D03*
X23294D02*
D03*
X11281Y3771D02*
D03*
X11631D02*
D03*
X10216Y5188D02*
D03*
X10566D02*
D03*
X5186Y2809D02*
D03*
X5536D02*
D03*
Y3620D02*
D03*
X5186D02*
D03*
X5536Y3214D02*
D03*
X12902Y22645D02*
D03*
X13252D02*
D03*
X13619Y23036D02*
D03*
X13269D02*
D03*
X11738Y23839D02*
D03*
X12088D02*
D03*
X17315Y18135D02*
D03*
X16965D02*
D03*
X17323Y18530D02*
D03*
X16973D02*
D03*
X8200Y6730D02*
D03*
X8550D02*
D03*
X9399Y9910D02*
D03*
X9049D02*
D03*
X4822Y6631D02*
D03*
X5172D02*
D03*
X17324Y26377D02*
D03*
X16974D02*
D03*
X16235D02*
D03*
X16585D02*
D03*
X16681Y24625D02*
D03*
X17031D02*
D03*
X16695Y35236D02*
D03*
X17045D02*
D03*
X11137Y765D02*
D03*
X10787D02*
D03*
X8200Y7115D02*
D03*
X8550D02*
D03*
X7214Y3418D02*
D03*
X7564D02*
D03*
X19174Y4518D02*
D03*
X18824D02*
D03*
Y4920D02*
D03*
X19174D02*
D03*
X18900Y5323D02*
D03*
X19250D02*
D03*
X18900Y5722D02*
D03*
X19250D02*
D03*
X18907Y6129D02*
D03*
X19257D02*
D03*
X19262Y6545D02*
D03*
X18912D02*
D03*
X19341Y12215D02*
D03*
X19691D02*
D03*
X19315Y11118D02*
D03*
X17577Y11385D02*
D03*
X17927D02*
D03*
X17189Y10957D02*
D03*
X16839D02*
D03*
X17189Y11385D02*
D03*
X16839D02*
D03*
X14938Y12461D02*
D03*
X15288D02*
D03*
X14957Y11290D02*
D03*
X15307D02*
D03*
X14957Y10875D02*
D03*
X15307D02*
D03*
X15397Y8399D02*
D03*
X15747D02*
D03*
X15394Y7992D02*
D03*
X15744D02*
D03*
X16573Y7421D02*
D03*
X16223D02*
D03*
X19974Y3383D02*
D03*
X19624D02*
D03*
X19242D02*
D03*
X18892D02*
D03*
X23474Y3779D02*
D03*
X23124D02*
D03*
X23634Y4644D02*
D03*
X23284D02*
D03*
X23595Y5048D02*
D03*
X23245D02*
D03*
X23600Y5529D02*
D03*
X23250D02*
D03*
X20836Y9058D02*
D03*
X20486D02*
D03*
X17380Y7421D02*
D03*
X17030D02*
D03*
X17867Y5117D02*
D03*
X17517D02*
D03*
X17753Y5528D02*
D03*
X17403D02*
D03*
X17824Y4688D02*
D03*
X17474D02*
D03*
X17801Y4278D02*
D03*
X17451D02*
D03*
X17572Y3884D02*
D03*
X17222D02*
D03*
X13985Y3365D02*
D03*
X13635D02*
D03*
X12892D02*
D03*
X13242D02*
D03*
X12954Y4517D02*
D03*
X13304D02*
D03*
X12954Y4906D02*
D03*
X13304D02*
D03*
X13354Y5306D02*
D03*
X13004D02*
D03*
X12997Y5699D02*
D03*
X13348D02*
D03*
X13354Y6504D02*
D03*
X13004D02*
D03*
X12228Y26546D02*
D03*
X12578D02*
D03*
X13032Y27316D02*
D03*
X13382D02*
D03*
X13032Y28245D02*
D03*
X13382D02*
D03*
Y29173D02*
D03*
X13032D02*
D03*
X19758Y31269D02*
D03*
X20108D02*
D03*
X15332Y34146D02*
D03*
X15682D02*
D03*
X15331Y33682D02*
D03*
X15681D02*
D03*
X13002Y6102D02*
D03*
X13352D02*
D03*
X9205Y5188D02*
D03*
X9555D02*
D03*
X6795Y3428D02*
D03*
X6445D02*
D03*
X6780Y2243D02*
D03*
X6430D02*
D03*
X11631Y2970D02*
D03*
X11281D02*
D03*
X11926Y32347D02*
D03*
X12276D02*
D03*
X15682Y34604D02*
D03*
X15332D02*
D03*
D39*
X20823Y3163D02*
D03*
Y3513D02*
D03*
X21240Y3162D02*
D03*
Y3512D02*
D03*
X8022Y2960D02*
D03*
Y2610D02*
D03*
X7214Y2615D02*
D03*
Y2965D02*
D03*
X7618Y2960D02*
D03*
Y2610D02*
D03*
X5186Y3214D02*
D03*
X10976Y15259D02*
D03*
Y15609D02*
D03*
X10519Y15262D02*
D03*
Y15612D02*
D03*
X11010Y13883D02*
D03*
Y14233D02*
D03*
X11540Y12338D02*
D03*
Y12688D02*
D03*
X10557Y13892D02*
D03*
Y14242D02*
D03*
X11994Y13078D02*
D03*
Y12728D02*
D03*
X11567Y9563D02*
D03*
Y9913D02*
D03*
X15592Y7344D02*
D03*
Y6994D02*
D03*
X15183D02*
D03*
Y7344D02*
D03*
X14205Y7308D02*
D03*
Y6958D02*
D03*
X14615D02*
D03*
Y7308D02*
D03*
X15312Y8791D02*
D03*
Y9141D02*
D03*
X11320Y21881D02*
D03*
Y22231D02*
D03*
X12018Y9941D02*
D03*
Y10292D02*
D03*
X15350Y22658D02*
D03*
Y22308D02*
D03*
X13180Y21216D02*
D03*
Y21565D02*
D03*
X17869Y25222D02*
D03*
Y24872D02*
D03*
X15379Y13518D02*
D03*
Y13868D02*
D03*
X20506Y6958D02*
D03*
Y7308D02*
D03*
X16842Y2951D02*
D03*
Y3301D02*
D03*
X16437Y2554D02*
D03*
Y2204D02*
D03*
X17249Y2207D02*
D03*
Y2557D02*
D03*
X16028Y2204D02*
D03*
Y2554D02*
D03*
Y3299D02*
D03*
Y2949D02*
D03*
X16842Y2552D02*
D03*
Y2202D02*
D03*
X9407Y9154D02*
D03*
Y9504D02*
D03*
X9331Y7183D02*
D03*
Y6833D02*
D03*
X6031Y3336D02*
D03*
Y2986D02*
D03*
X5876Y6781D02*
D03*
Y7132D02*
D03*
X5205Y6013D02*
D03*
Y5663D02*
D03*
X8768Y3618D02*
D03*
Y3968D02*
D03*
X9201Y3268D02*
D03*
Y3618D02*
D03*
X8768Y2918D02*
D03*
Y3268D02*
D03*
X11631Y831D02*
D03*
Y481D02*
D03*
X20072Y13839D02*
D03*
Y13489D02*
D03*
X19393Y13848D02*
D03*
Y13498D02*
D03*
X18744Y13848D02*
D03*
Y13498D02*
D03*
X18055Y13856D02*
D03*
Y13506D02*
D03*
X17407Y13506D02*
D03*
Y13856D02*
D03*
X16740Y13863D02*
D03*
Y13513D02*
D03*
X16078Y13877D02*
D03*
Y13527D02*
D03*
X15307Y11705D02*
D03*
Y12055D02*
D03*
X15722Y10171D02*
D03*
Y9821D02*
D03*
Y8791D02*
D03*
Y9141D02*
D03*
X19154Y3774D02*
D03*
Y4124D02*
D03*
X19568Y3824D02*
D03*
Y4174D02*
D03*
Y4557D02*
D03*
Y4907D02*
D03*
X19560Y2985D02*
D03*
Y2635D02*
D03*
X19962Y2985D02*
D03*
Y2635D02*
D03*
X20373Y3235D02*
D03*
Y3585D02*
D03*
X21945Y2999D02*
D03*
Y3349D02*
D03*
X23131Y2245D02*
D03*
Y2595D02*
D03*
X22736D02*
D03*
Y2245D02*
D03*
X22335D02*
D03*
Y2595D02*
D03*
X21947D02*
D03*
Y2245D02*
D03*
X22332Y3347D02*
D03*
Y2997D02*
D03*
X22733Y3349D02*
D03*
Y2999D02*
D03*
X23128Y2995D02*
D03*
Y3345D02*
D03*
X21479Y7385D02*
D03*
Y7035D02*
D03*
X21070Y7383D02*
D03*
Y7033D02*
D03*
X20096Y7308D02*
D03*
Y6958D02*
D03*
X17251Y2954D02*
D03*
Y3304D02*
D03*
X16435Y3303D02*
D03*
Y2953D02*
D03*
X13706Y4855D02*
D03*
Y4505D02*
D03*
X14946Y3501D02*
D03*
Y3151D02*
D03*
X13987Y2966D02*
D03*
Y2616D02*
D03*
X13586Y2971D02*
D03*
Y2621D02*
D03*
X13298Y3765D02*
D03*
Y4115D02*
D03*
X13629Y34045D02*
D03*
Y33695D02*
D03*
X14550Y34045D02*
D03*
Y33695D02*
D03*
X4789Y6213D02*
D03*
Y5863D02*
D03*
X13706Y4122D02*
D03*
Y3772D02*
D03*
X6438Y2985D02*
D03*
Y2635D02*
D03*
X9875Y32984D02*
D03*
Y33334D02*
D03*
X7931Y32328D02*
D03*
Y31978D02*
D03*
X15348Y3501D02*
D03*
Y3151D02*
D03*
X14466Y3493D02*
D03*
Y3143D02*
D03*
D40*
X9823Y21742D02*
D03*
Y21545D02*
D03*
Y21152D02*
D03*
Y20955D02*
D03*
X10152Y21742D02*
D03*
Y21545D02*
D03*
Y21152D02*
D03*
Y20955D02*
D03*
D41*
X14020Y40103D02*
D03*
X13824D02*
D03*
X13430D02*
D03*
X13233D02*
D03*
X14020Y39774D02*
D03*
X13824D02*
D03*
X13430D02*
D03*
X13233D02*
D03*
D42*
X14311Y40823D02*
D03*
X14055D02*
D03*
X13799D02*
D03*
X13543D02*
D03*
X13287D02*
D03*
D43*
X13405Y41886D02*
D03*
X14192D02*
D03*
D46*
X8602Y2363D02*
D03*
Y1693D02*
D03*
X12356Y29759D02*
D03*
Y30429D02*
D03*
D49*
X7106Y19380D02*
D03*
Y20168D02*
D03*
Y20955D02*
D03*
Y22530D02*
D03*
Y21743D02*
D03*
X8783Y22530D02*
D03*
Y21743D02*
D03*
Y20955D02*
D03*
Y19380D02*
D03*
Y20168D02*
D03*
D54*
X11554Y28592D02*
D03*
X10884D02*
D03*
X10511Y25541D02*
D03*
X11181D02*
D03*
X17056Y19106D02*
D03*
X17726D02*
D03*
X17665Y11988D02*
D03*
X16995D02*
D03*
D56*
X13696Y21602D02*
D03*
X14936D02*
D03*
Y22272D02*
D03*
X13696D02*
D03*
D57*
X14995Y21937D02*
D03*
X13637D02*
D03*
D63*
X3884Y5279D02*
D03*
X4109Y5547D02*
D03*
D64*
X18333Y3093D02*
D03*
X17743D02*
D03*
X18330Y2517D02*
D03*
X17740D02*
D03*
X23615Y2498D02*
D03*
X24205D02*
D03*
X23618Y3081D02*
D03*
X24208D02*
D03*
X10797Y27736D02*
D03*
X10207D02*
D03*
D65*
X18056Y566D02*
D03*
Y1826D02*
D03*
X23933Y1811D02*
D03*
Y551D02*
D03*
D67*
X16420Y25419D02*
D03*
Y25616D02*
D03*
Y25813D02*
D03*
Y25222D02*
D03*
X17336Y25616D02*
D03*
Y25419D02*
D03*
Y25222D02*
D03*
Y25813D02*
D03*
D70*
X11280Y2589D02*
D03*
Y1230D02*
D03*
D71*
X11614Y2530D02*
D03*
Y1289D02*
D03*
X10945D02*
D03*
Y2530D02*
D03*
D72*
X14458Y8400D02*
D03*
X13198D02*
D03*
X20256Y8242D02*
D03*
X18996D02*
D03*
D78*
X16192Y35286D02*
D03*
Y34696D02*
D03*
X15846Y41030D02*
D03*
Y41620D02*
D03*
D79*
X3892Y4069D02*
D03*
X4160Y3844D02*
D03*
D163*
X16289Y10315D02*
D03*
X16801Y8031D02*
D03*
X16289D02*
D03*
X16545D02*
D03*
X17057D02*
D03*
X16545Y10315D02*
D03*
X16801D02*
D03*
X17057D02*
D03*
D164*
X17917Y9416D02*
D03*
X18114D02*
D03*
X18311D02*
D03*
X18507D02*
D03*
X17917Y10637D02*
D03*
X18114D02*
D03*
X18311D02*
D03*
X18507D02*
D03*
D165*
X20744Y10543D02*
D03*
Y9677D02*
D03*
X20488D02*
D03*
X20232D02*
D03*
Y10543D02*
D03*
X20488D02*
D03*
D166*
X26331Y3475D02*
D03*
X20337Y36405D02*
D03*
X1601Y3551D02*
D03*
X7944Y15063D02*
D03*
Y17074D02*
D03*
D167*
X4105Y4646D02*
D03*
X4528Y4291D02*
D03*
X4536Y5158D02*
D03*
X4958Y4804D02*
D03*
D168*
X9823Y21348D02*
D03*
X10152D02*
D03*
D169*
X13627Y40103D02*
D03*
Y39774D02*
D03*
D170*
X7146Y5157D02*
D03*
D171*
X6280Y4016D02*
D03*
X6437D02*
D03*
X6594D02*
D03*
X6752D02*
D03*
X6909D02*
D03*
X7067D02*
D03*
X7224D02*
D03*
X7382D02*
D03*
X7539D02*
D03*
X7697D02*
D03*
X7854D02*
D03*
X8012D02*
D03*
Y6299D02*
D03*
X7854D02*
D03*
X7697D02*
D03*
X7539D02*
D03*
X7382D02*
D03*
X7224D02*
D03*
X7067D02*
D03*
X6909D02*
D03*
X6752D02*
D03*
X6594D02*
D03*
X6437D02*
D03*
X6280D02*
D03*
D172*
X8287Y4291D02*
D03*
Y4449D02*
D03*
Y4606D02*
D03*
Y4764D02*
D03*
Y4921D02*
D03*
Y5079D02*
D03*
Y5236D02*
D03*
Y5394D02*
D03*
Y5551D02*
D03*
Y5709D02*
D03*
Y5866D02*
D03*
Y6024D02*
D03*
X6004D02*
D03*
Y5866D02*
D03*
Y5709D02*
D03*
Y5551D02*
D03*
Y5394D02*
D03*
Y5236D02*
D03*
Y5079D02*
D03*
Y4921D02*
D03*
Y4764D02*
D03*
Y4606D02*
D03*
Y4449D02*
D03*
Y4291D02*
D03*
D173*
X10770Y26324D02*
D03*
X10554D02*
D03*
X10987D02*
D03*
X10554Y27062D02*
D03*
X10987D02*
D03*
X10770D02*
D03*
D174*
Y26693D02*
D03*
X11364Y29806D02*
D03*
X10718Y30111D02*
D03*
Y29501D02*
D03*
X11560Y29334D02*
D03*
X11196Y30279D02*
D03*
X11560D02*
D03*
X11196Y29334D02*
D03*
D175*
X11262Y26693D02*
D03*
X10278D02*
D03*
D176*
X5867Y948D02*
D03*
X7027D02*
D03*
X21149Y942D02*
D03*
X19989D02*
D03*
X15265Y948D02*
D03*
X14105D02*
D03*
D177*
X6447Y1543D02*
D03*
X20569Y1537D02*
D03*
X14685Y1543D02*
D03*
D178*
X14317Y6081D02*
D03*
Y5924D02*
D03*
Y5766D02*
D03*
Y5609D02*
D03*
Y5451D02*
D03*
Y5294D02*
D03*
Y5137D02*
D03*
Y4979D02*
D03*
Y4822D02*
D03*
Y4664D02*
D03*
Y4507D02*
D03*
Y4349D02*
D03*
X16600D02*
D03*
Y4507D02*
D03*
Y4664D02*
D03*
Y4822D02*
D03*
Y4979D02*
D03*
Y5137D02*
D03*
Y5294D02*
D03*
Y5451D02*
D03*
Y5609D02*
D03*
Y5766D02*
D03*
Y5924D02*
D03*
Y6081D02*
D03*
X22491D02*
D03*
Y5924D02*
D03*
Y5766D02*
D03*
Y5609D02*
D03*
Y5451D02*
D03*
Y5294D02*
D03*
Y5137D02*
D03*
Y4979D02*
D03*
Y4822D02*
D03*
Y4664D02*
D03*
Y4507D02*
D03*
Y4349D02*
D03*
X20208D02*
D03*
Y4507D02*
D03*
Y4664D02*
D03*
Y4822D02*
D03*
Y4979D02*
D03*
Y5137D02*
D03*
Y5294D02*
D03*
Y5451D02*
D03*
Y5609D02*
D03*
Y5766D02*
D03*
Y5924D02*
D03*
Y6081D02*
D03*
D179*
X14592Y4074D02*
D03*
X14750D02*
D03*
X14907D02*
D03*
X15065D02*
D03*
X15222D02*
D03*
X15380D02*
D03*
X15537D02*
D03*
X15695D02*
D03*
X15852D02*
D03*
X16010D02*
D03*
X16167D02*
D03*
X16325D02*
D03*
Y6357D02*
D03*
X16167D02*
D03*
X16010D02*
D03*
X15852D02*
D03*
X15695D02*
D03*
X15537D02*
D03*
X15380D02*
D03*
X15222D02*
D03*
X15065D02*
D03*
X14907D02*
D03*
X14750D02*
D03*
X14592D02*
D03*
X20483D02*
D03*
X20641D02*
D03*
X20798D02*
D03*
X20956D02*
D03*
X21113D02*
D03*
X21271D02*
D03*
X21428D02*
D03*
X21586D02*
D03*
X21743D02*
D03*
X21901D02*
D03*
X22058D02*
D03*
X22216D02*
D03*
Y4074D02*
D03*
X22058D02*
D03*
X21901D02*
D03*
X21743D02*
D03*
X21586D02*
D03*
X21428D02*
D03*
X21271D02*
D03*
X21113D02*
D03*
X20956D02*
D03*
X20798D02*
D03*
X20641D02*
D03*
X20483D02*
D03*
D180*
X15459Y5215D02*
D03*
X21349D02*
D03*
D181*
X11378Y29334D02*
D03*
X11378Y30279D02*
D03*
D182*
X6798Y14569D02*
D03*
Y15569D02*
D03*
X9090Y17560D02*
D03*
Y16560D02*
D03*
X6798D02*
D03*
Y17560D02*
D03*
X9090Y15569D02*
D03*
X9090Y14569D02*
D03*
D183*
X11188Y23852D02*
D03*
X10538D02*
D03*
X14633Y27316D02*
D03*
X13984D02*
D03*
X14633Y28245D02*
D03*
X13984D02*
D03*
X14633Y29173D02*
D03*
X13984D02*
D03*
D184*
X15226Y10405D02*
D03*
Y9586D02*
D03*
X14675D02*
D03*
Y10405D02*
D03*
D185*
X17562Y34053D02*
D03*
D186*
X17069Y34850D02*
D03*
X17266D02*
D03*
X17463D02*
D03*
X17660D02*
D03*
X17857D02*
D03*
X18054D02*
D03*
X17069Y33256D02*
D03*
X17266D02*
D03*
X17463D02*
D03*
X17660D02*
D03*
X17857D02*
D03*
X18054D02*
D03*
D187*
X16764Y34545D02*
D03*
Y34348D02*
D03*
Y34151D02*
D03*
X18359D02*
D03*
Y34348D02*
D03*
Y34545D02*
D03*
X16764Y33954D02*
D03*
Y33757D02*
D03*
Y33561D02*
D03*
X18359D02*
D03*
Y33757D02*
D03*
Y33954D02*
D03*
D188*
X7907Y10520D02*
D03*
X8407D02*
D03*
X8907D02*
D03*
X9407D02*
D03*
X7907Y12666D02*
D03*
X8407D02*
D03*
X8907D02*
D03*
X9407D02*
D03*
D189*
X17075Y25158D02*
D03*
X16878D02*
D03*
X16681D02*
D03*
X16681Y25877D02*
D03*
X16878D02*
D03*
X17075D02*
D03*
D190*
X9813Y6939D02*
D03*
Y7589D02*
D03*
X20098Y15026D02*
D03*
Y14376D02*
D03*
X19418Y14372D02*
D03*
Y15022D02*
D03*
X18770Y14372D02*
D03*
Y15022D02*
D03*
X18080Y14380D02*
D03*
Y15029D02*
D03*
X17407Y14372D02*
D03*
Y15022D02*
D03*
X16740Y14372D02*
D03*
Y15022D02*
D03*
X16078Y14380D02*
D03*
Y15029D02*
D03*
X15379Y14376D02*
D03*
Y15026D02*
D03*
X13629Y32532D02*
D03*
Y33181D02*
D03*
X14550Y32545D02*
D03*
Y33195D02*
D03*
D191*
X9902Y2992D02*
D03*
Y3976D02*
D03*
D192*
X15415Y2210D02*
D03*
Y2466D02*
D03*
Y2721D02*
D03*
X14904D02*
D03*
Y2466D02*
D03*
Y2210D02*
D03*
X20775Y2201D02*
D03*
Y2457D02*
D03*
Y2713D02*
D03*
X21287D02*
D03*
Y2457D02*
D03*
Y2201D02*
D03*
D193*
X12290Y33724D02*
D03*
X12664Y32936D02*
D03*
X11916D02*
D03*
D194*
X13061Y25660D02*
D03*
X12273Y25286D02*
D03*
Y26034D02*
D03*
D195*
X15211Y38408D02*
D03*
Y40008D02*
D03*
D196*
X18487Y30730D02*
D03*
Y30337D02*
D03*
Y29943D02*
D03*
X20219Y30730D02*
D03*
Y30533D02*
D03*
Y30140D02*
D03*
X18487D02*
D03*
X20219Y30337D02*
D03*
X18487Y30533D02*
D03*
X20219Y29943D02*
D03*
D197*
X16381Y31742D02*
D03*
X17286Y31053D02*
D03*
X16381Y30364D02*
D03*
D198*
X10848Y31572D02*
D03*
X10474Y32347D02*
D03*
X11222D02*
D03*
X8901Y33759D02*
D03*
X9275Y32984D02*
D03*
X8527D02*
D03*
D199*
X11249Y33374D02*
D03*
X10474Y33000D02*
D03*
Y33748D02*
D03*
D200*
X8527Y32328D02*
D03*
Y31580D02*
D03*
X9315Y31954D02*
D03*
D201*
X8360Y37420D02*
D03*
X6760D02*
D03*
D202*
X10172Y23854D02*
X10536D01*
X10167Y23858D02*
X10172Y23854D01*
X10536D02*
X10538Y23852D01*
X13954Y7343D02*
X14171D01*
X14205Y7308D01*
X16281Y10151D02*
Y10835D01*
X16118Y10999D02*
Y12509D01*
Y10999D02*
X16281Y10835D01*
X15746Y7992D02*
X16281D01*
X16289Y8001D02*
Y8031D01*
X16281Y7992D02*
X16289Y8001D01*
X16281Y10151D02*
X16295Y10137D01*
X15119Y8395D02*
X15393D01*
X15115Y7988D02*
X15389D01*
X15746Y7992D02*
Y8398D01*
X9538Y21349D02*
X9835D01*
X9836Y21348D02*
X10139D01*
X9537Y21350D02*
X9538Y21349D01*
X9835D02*
X9836Y21348D01*
X5876Y6560D02*
Y6781D01*
Y6560D02*
X5999Y6437D01*
X13627Y39800D02*
Y40103D01*
X13625Y39502D02*
X13626Y39502D01*
Y39799D01*
X13627Y39800D01*
X11627Y3389D02*
Y3771D01*
X11303Y947D02*
X11317D01*
X11129Y773D02*
X11303Y947D01*
X11129Y773D02*
X11137Y765D01*
X6031Y2747D02*
Y2986D01*
X6795Y3190D02*
Y3428D01*
X6780Y2243D02*
Y2481D01*
X19028Y8274D02*
Y8696D01*
Y8101D02*
Y8274D01*
X19028Y8274D01*
X18996Y8242D02*
X19028Y8274D01*
X18340Y10640D02*
X18850D01*
X15592Y7344D02*
X15592D01*
X15183D02*
X15592D01*
X16029Y2206D02*
X17248D01*
X8529Y6729D02*
X8856D01*
X8750Y3966D02*
X9052D01*
X8198Y6719D02*
Y7447D01*
X10990Y3771D02*
X11281D01*
X10990Y3367D02*
X11281D01*
X10990Y2970D02*
X11281D01*
X11614Y2530D02*
X11631Y2547D01*
Y2970D01*
Y3367D02*
X11636Y3363D01*
X11631Y2970D02*
X11636Y2974D01*
Y3363D01*
X8198Y7447D02*
Y8293D01*
X9288Y9384D02*
X9293D01*
X9387Y9477D02*
Y9484D01*
X9293Y9384D02*
X9387Y9477D01*
Y9484D02*
X9407Y9504D01*
X8198Y8293D02*
X9288Y9384D01*
X5496Y7139D02*
X5500Y7135D01*
X5872D01*
X8819Y9902D02*
X9041D01*
X9049Y9910D01*
X9913Y5203D02*
X9920Y5196D01*
X9946D01*
X9955Y5187D01*
X10134D01*
X9903Y5203D02*
X9913D01*
X15330Y15431D02*
X15337Y15424D01*
Y15068D02*
Y15424D01*
X8769Y2917D02*
X9071D01*
X4922Y2817D02*
X5178D01*
X5186Y2809D01*
X9044Y19386D02*
X9140D01*
X6311Y20163D02*
X7100D01*
X6311Y20950D02*
X7100D01*
Y19375D02*
X7106Y19380D01*
X9140Y19386D02*
X9452Y19697D01*
X6311Y21737D02*
X7100D01*
X6311Y19375D02*
X7100D01*
X9819Y6599D02*
X9825Y6593D01*
X9813Y6939D02*
X9819Y6933D01*
Y6599D02*
Y6933D01*
X19134Y3754D02*
X19154Y3774D01*
X18990Y3754D02*
X19134D01*
X18908Y3671D02*
X18990Y3754D01*
X18898Y3671D02*
X18908D01*
X18912Y3403D02*
Y3657D01*
X18898Y3671D02*
X18912Y3657D01*
X18892Y3383D02*
X18912Y3403D01*
X14465Y8408D02*
X14477Y8396D01*
X14458Y9028D02*
X14465Y9021D01*
Y8408D02*
Y9021D01*
X15399Y13216D02*
Y13498D01*
X15398Y13215D02*
X15399Y13216D01*
X15379Y13518D02*
X15399Y13498D01*
X15643Y7362D02*
X15846D01*
X17066Y8211D02*
X17340D01*
X17057Y8202D02*
X17066Y8211D01*
X21090Y7403D02*
Y7413D01*
X21258Y7581D01*
X20062Y7343D02*
X20096Y7308D01*
X19845Y7343D02*
X20062D01*
X20096Y7308D02*
X20096Y7308D01*
X14205D02*
X14615D01*
X8314Y6462D02*
X8724D01*
X21258Y7581D02*
Y7653D01*
X21265Y7660D02*
X21272Y7653D01*
X21258D02*
X21265Y7660D01*
X21070Y7383D02*
X21090Y7403D01*
X21459Y7405D02*
Y7415D01*
X21272Y7602D02*
Y7653D01*
Y7602D02*
X21459Y7415D01*
Y7405D02*
X21479Y7385D01*
X14316Y9733D02*
X14453Y9596D01*
X14666D02*
X14675Y9586D01*
X14314Y9733D02*
X14316D01*
X14314D02*
X14316Y9734D01*
X14453Y9596D02*
X14666D01*
X15394Y7992D02*
X15395Y7994D01*
X13173Y8375D02*
X13198Y8400D01*
X13173Y7782D02*
Y8375D01*
X13166Y7775D02*
X13173Y7782D01*
X18778Y15029D02*
Y15487D01*
X18770Y15022D02*
X18778Y15029D01*
X18774Y15487D02*
X18778D01*
X14948Y11299D02*
X14957Y11290D01*
X14948Y11299D02*
Y11705D01*
X14938Y12461D02*
X14948Y12452D01*
Y12055D02*
Y12452D01*
X14957Y10875D02*
Y11290D01*
X13619Y23036D02*
X13622Y23033D01*
X13938D01*
X13941Y23030D01*
X12600Y22463D02*
X12720D01*
X12593Y22456D02*
X12600Y22463D01*
X16118Y12509D02*
X16517Y12909D01*
X18647D01*
X9407Y9504D02*
Y9910D01*
Y10520D01*
X9407Y10520D01*
X8868Y5205D02*
X8885Y5188D01*
X9205D01*
X8858Y5205D02*
X8868D01*
X6207Y16560D02*
X6798D01*
X6229Y17560D02*
X6798D01*
X12720Y22463D02*
X12902Y22645D01*
X12692Y22449D02*
X12898Y22244D01*
X17315Y17845D02*
Y18135D01*
Y17845D02*
X17402Y17757D01*
Y17747D02*
Y17757D01*
X17315Y18135D02*
X17319Y18139D01*
Y18526D01*
X17323Y18530D01*
X17591Y18798D01*
Y18971D01*
X17726Y19106D01*
X17056Y18613D02*
Y19106D01*
X16973Y18530D02*
X17056Y18613D01*
X16965Y18135D02*
X16969Y18139D01*
Y18526D01*
X16973Y18530D01*
X16945Y18115D02*
X16965Y18135D01*
X16945Y17817D02*
Y18115D01*
X16901Y17773D02*
X16945Y17817D01*
X16901Y17763D02*
Y17773D01*
X12805Y21212D02*
X13176D01*
X13180Y21216D01*
X15278Y12472D02*
X15298Y12452D01*
X15278Y12472D02*
Y12710D01*
X15270Y12717D02*
X15278Y12710D01*
X15298Y12064D02*
Y12452D01*
X9407Y9154D02*
Y9156D01*
X8856Y6729D02*
X8878Y6707D01*
X8542Y7115D02*
X8865D01*
X8884Y7097D01*
X5872Y7135D02*
X5876Y7132D01*
X4432Y6213D02*
X4789D01*
X4416Y6228D02*
X4432Y6213D01*
X4406Y6228D02*
X4416D01*
X4989Y6013D02*
X5205D01*
X4789Y6213D02*
X4989Y6013D01*
X9884Y5185D02*
X9903Y5203D01*
X9571Y5188D02*
X9575Y5185D01*
X9555Y5188D02*
X9571D01*
X9575Y5185D02*
X9884D01*
X7214Y2965D02*
Y3418D01*
X14316Y9734D02*
Y10261D01*
X14318D02*
X14453Y10396D01*
X14316Y10261D02*
X14318D01*
X20059Y13185D02*
Y13195D01*
X20072Y13208D02*
Y13489D01*
X20059Y13195D02*
X20072Y13208D01*
X19393Y13498D02*
X19402Y13508D01*
Y13221D02*
Y13508D01*
X18911Y13196D02*
Y13331D01*
X18744Y13498D02*
X18911Y13331D01*
X22332Y2999D02*
X22733D01*
X17409Y13184D02*
Y13504D01*
X17407Y13506D02*
X17409Y13504D01*
Y13184D02*
X17411Y13182D01*
X18055Y13238D02*
Y13506D01*
X18015Y13198D02*
X18055Y13238D01*
X18015Y13188D02*
Y13198D01*
X18965Y10525D02*
X18973D01*
X18850Y10640D02*
X18965Y10525D01*
X15337Y15068D02*
X15379Y15026D01*
X20506Y7308D02*
X20506Y7308D01*
X20096Y7308D02*
X20506D01*
X19136Y8803D02*
Y8933D01*
X19028Y8696D02*
X19136Y8803D01*
X18818Y9410D02*
X18824Y9405D01*
X20487Y10545D02*
X20488Y10543D01*
X20487Y10986D02*
X20512Y11011D01*
X20487Y10545D02*
Y10986D01*
X18540Y9410D02*
X18818D01*
X16074Y15470D02*
X16076Y15468D01*
Y15031D02*
Y15468D01*
Y15031D02*
X16078Y15029D01*
X19204Y3824D02*
X19568D01*
X16842Y2951D02*
X17248D01*
X16435D02*
X16842D01*
X16030D02*
X16435D01*
X16029Y2556D02*
X16437D01*
X16842D02*
X17248D01*
X16437D02*
X16842D01*
X16024Y2200D02*
X16028Y2204D01*
X16024Y1965D02*
Y2200D01*
X16020Y1961D02*
X16024Y1965D01*
X16028Y2204D02*
X16029Y2206D01*
X16028Y2949D02*
X16030Y2951D01*
X16842Y2202D02*
X16845Y2199D01*
Y1965D02*
Y2199D01*
Y1965D02*
X16849Y1961D01*
X16437Y2204D02*
X16438Y2202D01*
Y1963D02*
Y2202D01*
Y1963D02*
X16440Y1961D01*
X17249Y2207D02*
X17251Y2206D01*
Y1963D02*
Y2206D01*
Y1963D02*
X17252Y1961D01*
X17248Y2206D02*
X17249Y2207D01*
X17251Y2954D02*
X17599D01*
X17248Y2951D02*
X17251Y2954D01*
X18056Y566D02*
X18248Y758D01*
X18712D02*
X18725Y771D01*
X18735D01*
X16028Y2554D02*
X16029Y2556D01*
X17249Y2557D02*
X17290Y2517D01*
X17248Y2556D02*
X17249Y2557D01*
X18248Y758D02*
X18712D01*
X17599Y2954D02*
X17738Y3093D01*
X17743D01*
X17290Y2517D02*
X17740D01*
X22736Y2595D02*
X23131D01*
X22335D02*
X22736D01*
X21947D02*
X22335D01*
X23229Y2498D02*
X23615D01*
X23131Y2595D02*
X23229Y2498D01*
X23214Y3081D02*
X23618D01*
X23128Y2995D02*
X23214Y3081D01*
X21945Y2999D02*
X22332D01*
X23126Y2997D02*
X23128Y2995D01*
X22735Y2997D02*
X23126D01*
X22733Y2999D02*
X22735Y2997D01*
X7904Y12669D02*
Y13174D01*
Y12669D02*
X7907Y12666D01*
X24124Y743D02*
X24679D01*
X23933Y551D02*
X24124Y743D01*
X17057Y8031D02*
Y8202D01*
X19408Y15475D02*
X19420D01*
Y15024D02*
Y15475D01*
X19418Y15022D02*
X19420Y15024D01*
X20098Y15026D02*
Y15471D01*
X20100Y15473D01*
X18080Y15029D02*
Y15447D01*
X18067Y15460D02*
X18080Y15447D01*
X18067Y15460D02*
Y15470D01*
X17404Y15025D02*
X17407Y15022D01*
X17404Y15025D02*
Y15466D01*
X17400Y15470D02*
X17404Y15466D01*
X16740Y15022D02*
X16742Y15023D01*
Y15468D01*
X16744Y15470D01*
X20837Y9059D02*
Y9303D01*
X20836Y9058D02*
X20837Y9059D01*
X14948Y11705D02*
Y12055D01*
X12943Y3694D02*
X12995Y3745D01*
X12892Y3643D02*
X12943Y3694D01*
X14666Y10396D02*
X14675Y10405D01*
X14453Y10396D02*
X14666D01*
X14675Y10405D02*
X14713Y10443D01*
Y10631D01*
X14957Y10875D01*
X15396Y8398D02*
X15397Y8399D01*
X12892Y3365D02*
Y3643D01*
X13278Y3745D02*
X13298Y3765D01*
X12995Y3745D02*
X13278D01*
X13703Y3768D02*
X13706Y3772D01*
X13301Y3768D02*
X13703D01*
X13298Y3765D02*
X13301Y3768D01*
X14466Y2850D02*
Y3143D01*
X23131Y2245D02*
X23134Y2242D01*
Y1988D02*
Y2242D01*
Y1988D02*
X23137Y1985D01*
X22734Y2244D02*
X22736Y2245D01*
X22734Y1995D02*
Y2244D01*
X22733Y1994D02*
X22734Y1995D01*
X22335Y1995D02*
Y2245D01*
X21947Y1995D02*
Y2245D01*
X20373Y2985D02*
Y3235D01*
X22736Y2245D02*
X23131D01*
X22335D02*
X22736D01*
X21947D02*
X22335D01*
X13654Y4906D02*
X13706Y4855D01*
X13304Y4906D02*
X13654D01*
X13298Y4115D02*
X13301Y4118D01*
X13304Y4517D02*
X13310Y4511D01*
X13301Y4514D02*
X13304Y4517D01*
X13301Y4118D02*
Y4514D01*
X12954Y4517D02*
Y4907D01*
X13700Y4511D02*
X13706Y4505D01*
X13310Y4511D02*
X13700D01*
X15298Y12064D02*
X15307Y12055D01*
X15742Y8731D02*
Y8771D01*
Y8731D02*
X15747Y8725D01*
Y8399D02*
Y8725D01*
X15307Y10875D02*
Y11290D01*
X15722Y9481D02*
Y9821D01*
Y9141D02*
Y9481D01*
X18055Y13856D02*
X18067Y13869D01*
Y14367D01*
X18080Y14380D01*
X18744Y13848D02*
X18757Y13861D01*
Y14359D01*
X18770Y14372D01*
X19393Y13848D02*
X19406Y13861D01*
Y14359D01*
X19418Y14372D01*
X20072Y13839D02*
X20085Y13851D01*
Y14363D01*
X20098Y14376D01*
X15379Y13868D02*
Y14376D01*
X15379Y14376D01*
X16078Y13877D02*
Y14380D01*
X16740Y13182D02*
Y13513D01*
Y13863D02*
Y14372D01*
X17407Y13856D02*
Y14372D01*
X16076Y13526D02*
X16078Y13527D01*
X16076Y13177D02*
Y13526D01*
X16074Y13175D02*
X16076Y13177D01*
X16700Y9416D02*
X17870D01*
X16295Y9821D02*
X16700Y9416D01*
X16295Y9821D02*
Y10137D01*
X19691Y11679D02*
Y12215D01*
Y11144D02*
Y11679D01*
X19665Y11118D02*
X19691Y11144D01*
X18647Y12909D02*
X19341Y12215D01*
X15226Y10405D02*
X15263D01*
X15307Y10449D01*
Y10875D01*
Y11290D02*
Y11705D01*
X15312Y9141D02*
Y9542D01*
X15268Y9586D02*
X15312Y9542D01*
X15226Y9586D02*
X15268D01*
X15722Y8791D02*
X15742Y8771D01*
X15312Y8791D02*
X15722D01*
X15744Y7992D02*
X15745Y7994D01*
X15746Y8398D02*
X15747Y8399D01*
X13985Y2619D02*
X13987Y2616D01*
X13588Y2619D02*
X13985D01*
X13586Y2621D02*
X13588Y2619D01*
X13986Y2967D02*
X13987Y2966D01*
X13986Y2967D02*
Y3364D01*
X13985Y3365D02*
X13986Y3364D01*
X13586Y2971D02*
Y3315D01*
X13635Y3365D01*
X13242D02*
X13635D01*
X19560Y2635D02*
X19962D01*
X19968Y3378D02*
X19974Y3383D01*
X19968Y2991D02*
Y3378D01*
X19962Y2985D02*
X19968Y2991D01*
X19560Y3383D02*
X19624D01*
X19242D02*
X19560D01*
Y2985D02*
Y3320D01*
X19624Y3383D01*
X19180Y4913D02*
X19561D01*
X18824Y4518D02*
Y4920D01*
X19174Y4518D02*
X19194Y4538D01*
X19234D01*
X19253Y4557D01*
X19568D01*
X19164Y4133D02*
Y4508D01*
D203*
X4054Y5562D02*
X4341Y5276D01*
X4538D01*
Y5187D02*
X4548Y5197D01*
X5138D02*
X5331Y5005D01*
X4548Y5197D02*
X5138D01*
X4528Y4291D02*
X4567Y4331D01*
X4970D02*
X5422Y4783D01*
X4567Y4331D02*
X4970D01*
X4530Y4229D02*
Y4291D01*
X4209Y3907D02*
X4530Y4229D01*
X5422Y4783D02*
X5985D01*
X5331Y5005D02*
X5331D01*
X5433Y4903D02*
X5985D01*
X5331Y5005D02*
X5433Y4903D01*
X5985Y4783D02*
X6004Y4764D01*
X5985Y4903D02*
X6004Y4921D01*
X8768Y3605D02*
Y3618D01*
X9201Y3605D02*
Y3618D01*
X9099Y3503D02*
X9201Y3605D01*
X8768D02*
X8869Y3503D01*
X9099D01*
X8192Y4291D02*
X8287D01*
X8173Y4215D02*
X8345Y4043D01*
X8173Y4272D02*
X8192Y4291D01*
X8173Y4215D02*
Y4272D01*
X8666Y3503D02*
X8768Y3605D01*
X8576Y3503D02*
X8666D01*
X8345Y3734D02*
Y4043D01*
Y3734D02*
X8576Y3503D01*
X9099Y3383D02*
X9201Y3282D01*
Y3268D02*
Y3282D01*
X8768D02*
X8869Y3383D01*
X9099D01*
X8768Y3268D02*
Y3282D01*
X8031Y4131D02*
X8088D01*
X8225Y3993D01*
X8012Y4111D02*
X8031Y4131D01*
X8012Y4016D02*
Y4111D01*
X8666Y3383D02*
X8768Y3282D01*
X8526Y3383D02*
X8666D01*
X8225Y3685D02*
Y3993D01*
Y3685D02*
X8526Y3383D01*
X9201Y3282D02*
X9284Y3365D01*
X9320Y3485D02*
X9513D01*
X9878Y3544D02*
X9902Y3568D01*
X9284Y3365D02*
X9562D01*
X9513Y3485D02*
X9572Y3544D01*
X9878D01*
X9902Y3568D02*
Y3976D01*
X9562Y3365D02*
X9621Y3424D01*
X9878D01*
X9902Y3401D01*
Y2992D02*
Y3401D01*
X9201Y3605D02*
X9320Y3485D01*
X21223Y3512D02*
X21240D01*
X21095Y3640D02*
X21223Y3512D01*
X21095Y3640D02*
Y4055D01*
X20845Y3513D02*
X20975Y3643D01*
Y4055D01*
X20956Y4074D02*
X20975Y4055D01*
X21095Y4055D02*
X21113Y4074D01*
X13862Y37759D02*
X14161Y37461D01*
X13982Y37809D02*
X14210Y37581D01*
X17332D01*
X13982Y37809D02*
Y39664D01*
X13862Y37759D02*
Y39664D01*
X14161Y37461D02*
X17283D01*
X14055Y40625D02*
Y40823D01*
X13982Y40213D02*
X14020Y40175D01*
Y40103D02*
Y40175D01*
Y39774D02*
Y39846D01*
Y40031D02*
Y40103D01*
Y39703D02*
Y39774D01*
X13982Y40553D02*
X14055Y40625D01*
X13982Y39993D02*
X14020Y40031D01*
X13982Y40213D02*
Y40553D01*
Y39885D02*
Y39993D01*
Y39885D02*
X14020Y39846D01*
X13982Y39664D02*
X14020Y39703D01*
X13862Y39885D02*
Y39993D01*
Y40213D02*
Y40562D01*
X13824Y40175D02*
X13862Y40213D01*
X13824Y40031D02*
X13862Y39993D01*
X13799Y40625D02*
X13862Y40562D01*
X13824Y40103D02*
Y40175D01*
X13799Y40625D02*
Y40823D01*
X13824Y40031D02*
Y40103D01*
Y39846D02*
X13862Y39885D01*
X13824Y39703D02*
X13862Y39664D01*
X13824Y39774D02*
Y39846D01*
Y39703D02*
Y39774D01*
X17463Y34850D02*
X17502Y34888D01*
Y37242D01*
X17283Y37461D02*
X17502Y37242D01*
X17622Y34888D02*
X17660Y34850D01*
X17622Y34888D02*
Y37291D01*
X17332Y37581D02*
X17622Y37291D01*
X14946Y3501D02*
X15065Y3620D01*
Y4074D01*
X15226Y3626D02*
Y4070D01*
Y3626D02*
X15349Y3503D01*
X15222Y4074D02*
X15226Y4070D01*
D204*
X15355Y40228D02*
X15576Y40008D01*
X14713Y40228D02*
X15355D01*
X15211Y39542D02*
Y40008D01*
Y39208D02*
Y39542D01*
X14311Y40630D02*
Y40823D01*
Y40630D02*
X14713Y40228D01*
X13286Y40395D02*
Y40822D01*
X7931Y32328D02*
X8527D01*
X12781Y35483D02*
X13660Y34604D01*
X15332D01*
X6760Y37420D02*
X6770Y37430D01*
X6755Y37415D02*
X6760Y37420D01*
X10921Y35483D02*
X12781D01*
D205*
X21287Y2456D02*
X21603D01*
X20459Y2458D02*
X20775D01*
X15415Y2465D02*
X15732D01*
X14587Y2466D02*
X14904D01*
D206*
X10467Y27151D02*
X10542Y27076D01*
X10467Y27151D02*
Y27152D01*
X10402Y27216D02*
X10467Y27152D01*
X10542Y27076D02*
X10545D01*
X10554Y27067D01*
X10285Y27333D02*
X10402Y27216D01*
X10402D01*
X10554Y27062D02*
Y27067D01*
X6031Y3336D02*
Y3490D01*
X6209Y3668D01*
Y3708D01*
X6280Y3779D01*
Y4016D01*
X17918Y11040D02*
Y11376D01*
X20659Y30533D02*
X20667Y30526D01*
X20219Y30533D02*
X20659D01*
X20218Y30534D02*
X20219Y30533D01*
X17916Y10638D02*
X17917Y10637D01*
X17916Y10638D02*
Y11039D01*
X17915Y11040D02*
X17916Y11039D01*
X20153Y11679D02*
X20744Y11088D01*
Y10543D02*
Y11088D01*
X19691Y11679D02*
X20153D01*
X17857Y34850D02*
Y35166D01*
Y34358D02*
Y34850D01*
X17345Y33836D02*
X17562Y34053D01*
X18054Y32950D02*
Y33256D01*
X17266Y33757D02*
X17345Y33836D01*
X16458Y33757D02*
X16764D01*
X18054Y33256D02*
Y33265D01*
X13286Y40395D02*
X13286Y40395D01*
X13286Y40822D02*
X13287Y40823D01*
X18487Y29943D02*
X18488Y29942D01*
X18927D01*
X18935Y29934D01*
X17918Y11376D02*
X17927Y11385D01*
D207*
X16707Y24651D02*
Y24837D01*
X16718Y24848D01*
X16681Y24625D02*
X16707Y24651D01*
X17590Y25224D02*
X17867D01*
X17588Y25226D02*
X17590Y25224D01*
X17336Y25222D02*
X17588D01*
X17867Y25224D02*
X17869Y25222D01*
X20108Y30739D02*
Y31269D01*
X16681Y24885D02*
Y25158D01*
D208*
X12657Y41886D02*
D03*
X14940D02*
D03*
D209*
X12814Y40823D02*
D03*
X14783D02*
D03*
D210*
X12421Y41886D02*
D03*
X15177D02*
D03*
D211*
X10554Y26693D02*
D03*
X10770D02*
D03*
X10987D02*
D03*
X14801Y20125D02*
D03*
Y19402D02*
D03*
Y20847D02*
D03*
X14079D02*
D03*
Y19402D02*
D03*
X15162Y20486D02*
D03*
X13718D02*
D03*
X14440D02*
D03*
X15162Y19763D02*
D03*
X13718D02*
D03*
X14440D02*
D03*
X14079Y20125D02*
D03*
D212*
X6860Y32400D02*
D03*
D213*
Y33400D02*
D03*
X18809Y23071D02*
D03*
X18823Y24258D02*
D03*
X8593Y25914D02*
D03*
Y29071D02*
D03*
Y27493D02*
D03*
Y24336D02*
D03*
Y30650D02*
D03*
X20853Y32292D02*
D03*
X19003D02*
D03*
X6755Y35483D02*
D03*
X12781D02*
D03*
X13029Y31272D02*
D03*
D214*
X26296Y40053D02*
D03*
X25296Y39053D02*
D03*
X26296D02*
D03*
Y37053D02*
D03*
Y38053D02*
D03*
Y36053D02*
D03*
X25296Y37053D02*
D03*
Y38053D02*
D03*
Y36053D02*
D03*
X26296Y34053D02*
D03*
Y35053D02*
D03*
Y32053D02*
D03*
Y33053D02*
D03*
X25296Y31053D02*
D03*
Y32053D02*
D03*
X26296Y31053D02*
D03*
Y29053D02*
D03*
Y30053D02*
D03*
Y28053D02*
D03*
Y27053D02*
D03*
X25296Y30053D02*
D03*
X26296Y26053D02*
D03*
X25296Y34053D02*
D03*
Y35053D02*
D03*
Y33053D02*
D03*
Y28053D02*
D03*
Y29053D02*
D03*
Y26053D02*
D03*
Y27053D02*
D03*
X23296Y39663D02*
D03*
Y37663D02*
D03*
Y38663D02*
D03*
X22296D02*
D03*
X23296Y36663D02*
D03*
Y35663D02*
D03*
X22296Y37663D02*
D03*
Y36663D02*
D03*
X23296Y33663D02*
D03*
Y34663D02*
D03*
Y31663D02*
D03*
Y32663D02*
D03*
X22296Y33663D02*
D03*
X23296Y26063D02*
D03*
Y27063D02*
D03*
Y25063D02*
D03*
Y29063D02*
D03*
Y30663D02*
D03*
Y28063D02*
D03*
X22296Y34663D02*
D03*
Y35663D02*
D03*
Y31663D02*
D03*
Y32663D02*
D03*
Y30663D02*
D03*
Y26063D02*
D03*
Y27063D02*
D03*
Y25063D02*
D03*
Y28063D02*
D03*
X26296Y21053D02*
D03*
Y22053D02*
D03*
Y18053D02*
D03*
Y19053D02*
D03*
Y24053D02*
D03*
Y25053D02*
D03*
Y23053D02*
D03*
X25296D02*
D03*
Y24053D02*
D03*
X26296Y20053D02*
D03*
X25296Y22053D02*
D03*
Y20053D02*
D03*
Y21053D02*
D03*
Y19053D02*
D03*
X26296Y16053D02*
D03*
Y17053D02*
D03*
Y15053D02*
D03*
X25296Y17053D02*
D03*
Y18053D02*
D03*
Y16053D02*
D03*
X26296Y13053D02*
D03*
Y14053D02*
D03*
Y11053D02*
D03*
Y12053D02*
D03*
X25296Y14053D02*
D03*
Y15053D02*
D03*
Y12053D02*
D03*
X26296Y6053D02*
D03*
Y7053D02*
D03*
Y5053D02*
D03*
Y9053D02*
D03*
Y10053D02*
D03*
Y8053D02*
D03*
X25296Y7053D02*
D03*
Y8053D02*
D03*
Y5053D02*
D03*
Y6053D02*
D03*
Y10053D02*
D03*
Y13053D02*
D03*
Y9053D02*
D03*
Y25053D02*
D03*
X23296Y24063D02*
D03*
Y22063D02*
D03*
Y23063D02*
D03*
Y20063D02*
D03*
Y21063D02*
D03*
Y19063D02*
D03*
X22296Y23063D02*
D03*
Y24063D02*
D03*
Y22063D02*
D03*
Y21063D02*
D03*
Y19063D02*
D03*
Y20063D02*
D03*
Y18063D02*
D03*
X23296Y17063D02*
D03*
Y18063D02*
D03*
Y15063D02*
D03*
Y16063D02*
D03*
X22296D02*
D03*
Y17063D02*
D03*
Y15063D02*
D03*
X23296Y13063D02*
D03*
Y14063D02*
D03*
X25296Y11053D02*
D03*
X22296Y13063D02*
D03*
Y14063D02*
D03*
X5296Y36053D02*
D03*
Y34053D02*
D03*
Y35053D02*
D03*
X4296Y33053D02*
D03*
Y34053D02*
D03*
X5296Y33053D02*
D03*
Y32053D02*
D03*
X4296Y35053D02*
D03*
Y32053D02*
D03*
X5296Y30053D02*
D03*
Y31053D02*
D03*
Y29053D02*
D03*
Y26053D02*
D03*
Y27053D02*
D03*
Y25053D02*
D03*
Y24053D02*
D03*
Y23053D02*
D03*
X4296D02*
D03*
X5296Y22053D02*
D03*
X4296Y30053D02*
D03*
Y31053D02*
D03*
Y29053D02*
D03*
Y25053D02*
D03*
Y26053D02*
D03*
Y24053D02*
D03*
X2296Y39053D02*
D03*
Y40053D02*
D03*
Y37053D02*
D03*
X1296Y39053D02*
D03*
X2296Y38053D02*
D03*
Y36053D02*
D03*
Y35053D02*
D03*
X1296D02*
D03*
Y36053D02*
D03*
Y34053D02*
D03*
Y38053D02*
D03*
Y37053D02*
D03*
X2296Y30053D02*
D03*
Y31053D02*
D03*
Y28053D02*
D03*
Y29053D02*
D03*
Y33053D02*
D03*
Y34053D02*
D03*
Y32053D02*
D03*
Y27053D02*
D03*
Y24053D02*
D03*
Y25053D02*
D03*
Y23053D02*
D03*
X1296Y29053D02*
D03*
Y30053D02*
D03*
Y27053D02*
D03*
Y28053D02*
D03*
Y32053D02*
D03*
Y33053D02*
D03*
Y31053D02*
D03*
X2296Y26053D02*
D03*
X1296D02*
D03*
X2296Y22053D02*
D03*
X1296Y24053D02*
D03*
Y25053D02*
D03*
Y23053D02*
D03*
X5296Y20053D02*
D03*
Y21053D02*
D03*
Y18053D02*
D03*
Y19053D02*
D03*
Y15053D02*
D03*
Y14053D02*
D03*
Y13053D02*
D03*
X4296Y21053D02*
D03*
Y22053D02*
D03*
Y18053D02*
D03*
Y20053D02*
D03*
Y17053D02*
D03*
X5296D02*
D03*
Y16053D02*
D03*
X4296Y15053D02*
D03*
Y16053D02*
D03*
Y14053D02*
D03*
Y13053D02*
D03*
X2296Y20053D02*
D03*
Y21053D02*
D03*
X4296Y19053D02*
D03*
X2296D02*
D03*
Y17053D02*
D03*
Y18053D02*
D03*
Y16053D02*
D03*
X1296Y18053D02*
D03*
Y19053D02*
D03*
Y16053D02*
D03*
Y17053D02*
D03*
Y21053D02*
D03*
Y22053D02*
D03*
Y20053D02*
D03*
X2296Y14053D02*
D03*
Y15053D02*
D03*
Y12053D02*
D03*
Y13053D02*
D03*
Y11053D02*
D03*
X1296Y12053D02*
D03*
X2296Y10053D02*
D03*
Y8053D02*
D03*
Y9053D02*
D03*
Y7053D02*
D03*
Y5053D02*
D03*
Y6053D02*
D03*
X1296Y5053D02*
D03*
Y10053D02*
D03*
Y11053D02*
D03*
Y9053D02*
D03*
Y14053D02*
D03*
Y15053D02*
D03*
Y13053D02*
D03*
Y7053D02*
D03*
Y8053D02*
D03*
Y6053D02*
D03*
X6560Y26916D02*
D03*
Y25916D02*
D03*
X8921Y35483D02*
D03*
X9921D02*
D03*
D215*
X25296Y40053D02*
D03*
X22296Y39663D02*
D03*
Y29063D02*
D03*
X4296Y36053D02*
D03*
Y27053D02*
D03*
X1296Y40053D02*
D03*
X10921Y35483D02*
D03*
D216*
X23296Y41163D02*
D03*
X17296Y21163D02*
D03*
X22796Y11663D02*
D03*
X4296Y41663D02*
D03*
X4796Y11663D02*
D03*
D217*
X19727Y39081D02*
D03*
X16059Y27483D02*
D03*
X20743Y23622D02*
D03*
X17468Y28679D02*
D03*
X20283D02*
D03*
X18876Y27483D02*
D03*
X1732Y1228D02*
D03*
X26256Y1273D02*
D03*
D218*
X6560Y27916D02*
D03*
D219*
X6770Y40106D02*
D03*
D220*
X8738D02*
D03*
D221*
X22835Y4449D02*
D03*
X23012Y5384D02*
D03*
X23324Y5949D02*
D03*
X23012Y4695D02*
D03*
X22463Y4115D02*
D03*
X23045Y4204D02*
D03*
X23252Y3978D02*
D03*
X22541Y3726D02*
D03*
X22963Y5080D02*
D03*
X14695Y6722D02*
D03*
X14390Y6663D02*
D03*
X14906Y7407D02*
D03*
X10856Y24439D02*
D03*
X12333Y25650D02*
D03*
X8191Y31978D02*
D03*
X10167Y23858D02*
D03*
X11047Y22244D02*
D03*
X9802Y18482D02*
D03*
X14293Y22088D02*
D03*
X12127Y24423D02*
D03*
X10030Y17535D02*
D03*
X17392Y23297D02*
D03*
X16901Y17763D02*
D03*
X10168Y17806D02*
D03*
X17402Y17747D02*
D03*
X18543Y7215D02*
D03*
X18848Y7037D02*
D03*
X18547Y5323D02*
D03*
Y6141D02*
D03*
Y5699D02*
D03*
Y6504D02*
D03*
X13954Y7343D02*
D03*
X15119Y8395D02*
D03*
X15115Y7988D02*
D03*
X5602Y5184D02*
D03*
X21885Y3731D02*
D03*
X14618Y38451D02*
D03*
X9537Y21350D02*
D03*
X5999Y6437D02*
D03*
X23327Y6289D02*
D03*
X22304Y7082D02*
D03*
X17057Y5039D02*
D03*
X17175Y4409D02*
D03*
X13625Y39502D02*
D03*
X15211Y39542D02*
D03*
Y39208D02*
D03*
X7864Y3543D02*
D03*
X7392Y660D02*
D03*
X5502D02*
D03*
X11317Y947D02*
D03*
X6031Y2747D02*
D03*
X6795Y3190D02*
D03*
X6780Y2481D02*
D03*
X8169Y3238D02*
D03*
X7864D02*
D03*
X7795Y5807D02*
D03*
Y5374D02*
D03*
Y4941D02*
D03*
Y4508D02*
D03*
X7362Y5807D02*
D03*
Y4508D02*
D03*
X6929Y5807D02*
D03*
X6496D02*
D03*
Y5374D02*
D03*
Y4941D02*
D03*
Y4508D02*
D03*
X6929D02*
D03*
X7362Y4941D02*
D03*
Y5374D02*
D03*
X6929Y4941D02*
D03*
X6949Y5374D02*
D03*
X5591Y5778D02*
D03*
X5682Y6365D02*
D03*
X7512Y7241D02*
D03*
X5622Y4532D02*
D03*
X7798Y6825D02*
D03*
X8996Y4606D02*
D03*
X7567Y7743D02*
D03*
X25187Y3189D02*
D03*
X9380Y2362D02*
D03*
X10990Y3771D02*
D03*
Y3367D02*
D03*
Y2970D02*
D03*
X12001Y13456D02*
D03*
X9407Y8815D02*
D03*
X8411Y12102D02*
D03*
X5496Y7139D02*
D03*
X8819Y9902D02*
D03*
X8858Y5205D02*
D03*
X15330Y15431D02*
D03*
X20778Y16900D02*
D03*
X14882Y13425D02*
D03*
X14902Y13829D02*
D03*
X18909Y11381D02*
D03*
X18445Y11161D02*
D03*
X11978Y16258D02*
D03*
X8793Y1272D02*
D03*
X8411D02*
D03*
X7392Y1220D02*
D03*
X5502Y1204D02*
D03*
X9075Y2362D02*
D03*
X8023Y2280D02*
D03*
X7618Y2265D02*
D03*
X7214D02*
D03*
X4922Y2817D02*
D03*
X4530Y3822D02*
D03*
X6311Y21737D02*
D03*
X9452Y19697D02*
D03*
X6311Y19375D02*
D03*
Y20163D02*
D03*
Y20950D02*
D03*
X9825Y6593D02*
D03*
X20625Y3715D02*
D03*
X15732Y2465D02*
D03*
X14587Y2466D02*
D03*
X20459Y2458D02*
D03*
X21603Y2456D02*
D03*
X18898Y3671D02*
D03*
X14458Y9028D02*
D03*
X15398Y13215D02*
D03*
X15846Y7362D02*
D03*
X13638Y16258D02*
D03*
X10169Y16060D02*
D03*
X10728Y25991D02*
D03*
X10408D02*
D03*
X10089D02*
D03*
X12903Y26546D02*
D03*
X11447Y29045D02*
D03*
X11752D02*
D03*
X12055Y29044D02*
D03*
X12057Y28740D02*
D03*
Y28435D02*
D03*
X11378Y30539D02*
D03*
X14948Y12055D02*
D03*
Y11705D02*
D03*
X18778Y15487D02*
D03*
X21017Y10936D02*
D03*
X21235Y10396D02*
D03*
X20557Y15829D02*
D03*
X13166Y7775D02*
D03*
X10945Y27362D02*
D03*
X10630D02*
D03*
X11171Y27913D02*
D03*
Y27598D02*
D03*
X11476Y27319D02*
D03*
X17534Y9803D02*
D03*
X16485Y12553D02*
D03*
X16718Y24848D02*
D03*
X12593Y22456D02*
D03*
X13941Y23030D02*
D03*
X15973Y26374D02*
D03*
X16961Y4185D02*
D03*
X16418Y3691D02*
D03*
X16926Y3700D02*
D03*
X16556Y4144D02*
D03*
X11332Y21567D02*
D03*
X10789Y13532D02*
D03*
X12025Y10669D02*
D03*
X10939Y14969D02*
D03*
X16114Y25461D02*
D03*
X17588Y25226D02*
D03*
X15690Y33373D02*
D03*
X17283Y35187D02*
D03*
X17590Y26280D02*
D03*
X19794Y10112D02*
D03*
X21225Y9749D02*
D03*
X16088Y12814D02*
D03*
X6207Y16560D02*
D03*
X6224Y3723D02*
D03*
X6229Y17560D02*
D03*
X9056Y3962D02*
D03*
X17294Y24891D02*
D03*
X9401Y30014D02*
D03*
X9386Y29652D02*
D03*
X3652Y5620D02*
D03*
X4394Y5740D02*
D03*
X3752Y4372D02*
D03*
X14550Y34305D02*
D03*
X14958Y29170D02*
D03*
Y28245D02*
D03*
X15072Y34146D02*
D03*
X15071Y33682D02*
D03*
X16102Y25818D02*
D03*
X15270Y12717D02*
D03*
X12805Y21212D02*
D03*
X4406Y6228D02*
D03*
X7430Y10229D02*
D03*
X8865Y7115D02*
D03*
X8856Y6729D02*
D03*
X3715Y4993D02*
D03*
X3465Y4039D02*
D03*
X3394Y5238D02*
D03*
X3407Y4607D02*
D03*
X4792Y6946D02*
D03*
X17243Y5289D02*
D03*
X18135Y5236D02*
D03*
X16993Y4661D02*
D03*
X9075Y2913D02*
D03*
X9913Y5203D02*
D03*
X14907Y5215D02*
D03*
Y5766D02*
D03*
X15459D02*
D03*
Y5215D02*
D03*
X24262Y4337D02*
D03*
X14316Y10261D02*
D03*
X14314Y9733D02*
D03*
X21901Y5766D02*
D03*
Y5215D02*
D03*
Y4664D02*
D03*
X21349D02*
D03*
X20798D02*
D03*
Y5215D02*
D03*
Y5766D02*
D03*
X21349D02*
D03*
Y5215D02*
D03*
X16010Y5766D02*
D03*
Y5215D02*
D03*
Y4664D02*
D03*
X15459D02*
D03*
X14907D02*
D03*
X21826Y7176D02*
D03*
X22518Y6746D02*
D03*
X22718Y6969D02*
D03*
X22924Y6723D02*
D03*
X24368Y8842D02*
D03*
X23796Y3833D02*
D03*
X23143Y9287D02*
D03*
X21202Y11210D02*
D03*
X20667Y30526D02*
D03*
X18911Y13196D02*
D03*
X19402Y13221D02*
D03*
X20059Y13185D02*
D03*
X16054Y3721D02*
D03*
X14695Y3701D02*
D03*
X23547Y10236D02*
D03*
X24024Y10954D02*
D03*
X23954Y5460D02*
D03*
X19849Y9702D02*
D03*
X24077Y3415D02*
D03*
X24520Y5158D02*
D03*
X23381Y3483D02*
D03*
X23954Y4230D02*
D03*
X21545Y6778D02*
D03*
X21956Y6860D02*
D03*
X20281Y6723D02*
D03*
X19136Y8933D02*
D03*
X21265Y7660D02*
D03*
X23954Y5048D02*
D03*
Y4627D02*
D03*
X17570Y10684D02*
D03*
X17915Y11040D02*
D03*
X18973Y10525D02*
D03*
X17638Y12505D02*
D03*
X18015Y13188D02*
D03*
X17411Y13182D02*
D03*
X19264Y6848D02*
D03*
X21614Y10710D02*
D03*
X25006Y2852D02*
D03*
X24662Y2923D02*
D03*
X12638Y6504D02*
D03*
X16673Y6693D02*
D03*
X20512Y11011D02*
D03*
X18824Y9405D02*
D03*
X17340Y8211D02*
D03*
X20023Y12148D02*
D03*
X20332Y11975D02*
D03*
X20641Y6713D02*
D03*
X17534Y24675D02*
D03*
X16849Y1961D02*
D03*
X16020D02*
D03*
X18974Y2721D02*
D03*
Y1855D02*
D03*
X18756Y2505D02*
D03*
X18974Y2282D02*
D03*
X18756Y2072D02*
D03*
X18766Y1604D02*
D03*
X18735Y771D02*
D03*
X17252Y1961D02*
D03*
X16440D02*
D03*
X16074Y15470D02*
D03*
X18054Y32950D02*
D03*
X16458Y33757D02*
D03*
X16695Y35496D02*
D03*
X17857Y35166D02*
D03*
X7904Y13174D02*
D03*
X19758Y31009D02*
D03*
X18935Y29934D02*
D03*
X13286Y40395D02*
D03*
X17545Y3484D02*
D03*
X17554Y11030D02*
D03*
X20837Y9303D02*
D03*
X20100Y15473D02*
D03*
X19420Y15475D02*
D03*
X21620Y664D02*
D03*
X19538Y1222D02*
D03*
Y664D02*
D03*
X24679Y743D02*
D03*
X21620Y1222D02*
D03*
X18172Y4652D02*
D03*
X15218Y37946D02*
D03*
X15818Y38451D02*
D03*
Y37946D02*
D03*
X16211Y41030D02*
D03*
X14618Y37946D02*
D03*
X16192Y35618D02*
D03*
X15859Y35286D02*
D03*
X8315Y36820D02*
D03*
X8820D02*
D03*
Y38020D02*
D03*
X8315D02*
D03*
X8820Y37420D02*
D03*
X12536Y32347D02*
D03*
X12176Y32936D02*
D03*
X15904Y31742D02*
D03*
X21947Y1995D02*
D03*
X22335D02*
D03*
X22733Y1994D02*
D03*
X23137Y1985D02*
D03*
X13740Y668D02*
D03*
Y1212D02*
D03*
X15630Y1228D02*
D03*
Y668D02*
D03*
X14466Y2850D02*
D03*
X12943Y3694D02*
D03*
X12638Y6081D02*
D03*
Y5699D02*
D03*
Y5306D02*
D03*
X16744Y15470D02*
D03*
X17400D02*
D03*
X18067D02*
D03*
X16860Y34840D02*
D03*
X16540D02*
D03*
X13629Y34305D02*
D03*
X12772Y28245D02*
D03*
Y27316D02*
D03*
X15904Y30357D02*
D03*
X20110Y30980D02*
D03*
X19156Y30337D02*
D03*
X20501Y9319D02*
D03*
X8904Y12103D02*
D03*
X16549Y33284D02*
D03*
X18151Y4278D02*
D03*
X17864Y3850D02*
D03*
X20373Y2985D02*
D03*
X25018Y2406D02*
D03*
X25015Y1976D02*
D03*
X24666Y1782D02*
D03*
Y2204D02*
D03*
X24671Y2605D02*
D03*
X15722Y9481D02*
D03*
X16740Y13182D02*
D03*
X16074Y13175D02*
D03*
X16498Y11588D02*
D03*
X16511Y11144D02*
D03*
Y11988D02*
D03*
X20145Y8964D02*
D03*
X17238Y12562D02*
D03*
X11285Y25991D02*
D03*
X11604D02*
D03*
Y25351D02*
D03*
Y25671D02*
D03*
X11870Y29646D02*
D03*
X19845Y7343D02*
D03*
X11870Y29980D02*
D03*
X9813Y27589D02*
D03*
X10128Y27303D02*
D03*
X9813Y27283D02*
D03*
X9813Y27892D02*
D03*
X16460Y6922D02*
D03*
X16048Y6947D02*
D03*
X15305Y6734D02*
D03*
X10089Y25351D02*
D03*
Y25671D02*
D03*
X16934Y6922D02*
D03*
X17411Y6939D02*
D03*
X17923Y6959D02*
D03*
X17186Y6691D02*
D03*
X17909Y5903D02*
D03*
X17669Y6733D02*
D03*
X17536Y5897D02*
D03*
D222*
X17778Y34269D02*
D03*
Y33836D02*
D03*
X17345Y34269D02*
D03*
Y33836D02*
D03*
M02*
