G04*
G04 #@! TF.GenerationSoftware,Altium Limited,Altium Designer,20.1.11 (218)*
G04*
G04 Layer_Color=16711935*
%FSLAX24Y24*%
%MOIN*%
G70*
G04*
G04 #@! TF.SameCoordinates,2582DA11-84A4-45EB-A450-3A0221363A72*
G04*
G04*
G04 #@! TF.FilePolarity,Positive*
G04*
G01*
G75*
%ADD13C,0.0200*%
%ADD143C,0.0050*%
D13*
X108975Y43884D02*
Y42884D01*
X109475D01*
X109642Y43051D01*
Y43217D01*
X109475Y43384D01*
X108975D01*
X109475D01*
X109642Y43550D01*
Y43717D01*
X109475Y43884D01*
X108975D01*
X110475D02*
X110141D01*
X109975Y43717D01*
Y43051D01*
X110141Y42884D01*
X110475D01*
X110641Y43051D01*
Y43717D01*
X110475Y43884D01*
X110975Y42884D02*
Y43550D01*
X111308Y43884D01*
X111641Y43550D01*
Y42884D01*
Y43384D01*
X110975D01*
X111974Y42884D02*
Y43884D01*
X112474D01*
X112641Y43717D01*
Y43384D01*
X112474Y43217D01*
X111974D01*
X112307D02*
X112641Y42884D01*
X112974Y43884D02*
Y42884D01*
X113474D01*
X113640Y43051D01*
Y43717D01*
X113474Y43884D01*
X112974D01*
X115473D02*
X115140D01*
X114973Y43717D01*
Y43051D01*
X115140Y42884D01*
X115473D01*
X115640Y43051D01*
Y43717D01*
X115473Y43884D01*
X115973D02*
Y43051D01*
X116140Y42884D01*
X116473D01*
X116639Y43051D01*
Y43884D01*
X116973D02*
X117639D01*
X117306D01*
Y42884D01*
X117972Y43884D02*
Y42884D01*
X118639D01*
X118972Y43884D02*
X119305D01*
X119139D01*
Y42884D01*
X118972D01*
X119305D01*
X119805D02*
Y43884D01*
X120471Y42884D01*
Y43884D01*
X121471D02*
X120805D01*
Y42884D01*
X121471D01*
X120805Y43384D02*
X121138D01*
D143*
X-1287Y0D02*
G03*
X-500Y788I0J787D01*
G01*
X-500Y41667D02*
G03*
X-1287Y42455I-787J0D01*
G01*
X-27272Y42457D02*
G03*
X-28059Y41669I0J-787D01*
G01*
X-28058Y788D02*
G03*
X-27270Y0I787J0D01*
G01*
X-27272Y42457D02*
X-1287D01*
X-28059Y787D02*
Y41669D01*
X-500Y41667D02*
X-500Y787D01*
X-27272Y0D02*
X-1287D01*
X27272Y0D02*
G03*
X28059Y788I0J787D01*
G01*
X28059Y41667D02*
G03*
X27272Y42455I-787J0D01*
G01*
X1287Y42457D02*
G03*
X500Y41669I0J-787D01*
G01*
X502Y788D02*
G03*
X1289Y0I787J0D01*
G01*
X1287Y42457D02*
X27272D01*
X500Y787D02*
Y41669D01*
X28059Y41667D02*
X28059Y787D01*
X1287Y0D02*
X27272D01*
M02*
