G04*
G04 #@! TF.GenerationSoftware,Altium Limited,Altium Designer,20.1.11 (218)*
G04*
G04 Layer_Color=8388736*
%FSLAX24Y24*%
%MOIN*%
G70*
G04*
G04 #@! TF.SameCoordinates,2582DA11-84A4-45EB-A450-3A0221363A72*
G04*
G04*
G04 #@! TF.FilePolarity,Positive*
G04*
G01*
G75*
%ADD13C,0.0200*%
%ADD143C,0.0050*%
D13*
X108975Y41176D02*
Y42175D01*
X109475D01*
X109642Y42009D01*
Y41676D01*
X109475Y41509D01*
X108975D01*
X109975Y41176D02*
Y41842D01*
X110308Y42175D01*
X110641Y41842D01*
Y41176D01*
Y41676D01*
X109975D01*
X110975Y41176D02*
Y42175D01*
X111641Y41176D01*
Y42175D01*
X112641D02*
X111974D01*
Y41176D01*
X112641D01*
X111974Y41676D02*
X112307D01*
X112974Y42175D02*
Y41176D01*
X113640D01*
X115473Y42175D02*
X115140D01*
X114973Y42009D01*
Y41342D01*
X115140Y41176D01*
X115473D01*
X115640Y41342D01*
Y42009D01*
X115473Y42175D01*
X115973D02*
Y41342D01*
X116140Y41176D01*
X116473D01*
X116639Y41342D01*
Y42175D01*
X116973D02*
X117639D01*
X117306D01*
Y41176D01*
X117972Y42175D02*
Y41176D01*
X118639D01*
X118972Y42175D02*
X119305D01*
X119139D01*
Y41176D01*
X118972D01*
X119305D01*
X119805D02*
Y42175D01*
X120471Y41176D01*
Y42175D01*
X121471D02*
X120805D01*
Y41176D01*
X121471D01*
X120805Y41676D02*
X121138D01*
D143*
X-35000Y-5000D02*
X35000D01*
X-35000Y47460D02*
X35000D01*
X-35000D02*
X-35000Y-5000D01*
X35000Y47460D02*
X35000Y-5000D01*
M02*
