M48
;Layer_Color=9474304
;FILE_FORMAT=2:4
INCH,LZ
;TYPE=PLATED
T1F00S00C0.0100
T2F00S00C0.0118
T5F00S00C0.0394
T6F00S00C0.0400
T7F00S00C0.0402
T8F00S00C0.0429
T9F00S00C0.0512
T10F00S00C0.0630
T11F00S00C0.0709
;TYPE=NON_PLATED
T12F00S00C0.1260
%
T01
X006974Y004504
Y004937
Y00537
X007427
X00784
X008273
Y004937
Y004504
X00784
X007407
Y004937
X00784
X-020286
Y00537
X-020719
X-021132
X-021585
Y004937
Y004504
X-021152
X-020719
X-020286
X-020719Y004937
X-021152
Y005803
X-020719
X-020286
X-021585
X-014002Y019398
X-01328
Y020121
X-012918Y020482
Y01976
X-013641
Y020482
X-014002Y020121
Y020843
X-01328
X-014363Y020482
Y01976
X006974Y005803
X007407
X00784
X008273
X014557Y019398
X015279
Y020121
X015641Y020482
Y01976
X014918
Y020482
X014557Y020121
Y020843
X015279
X014196Y020482
Y01976
X017823Y033832
X018256
Y034266
X017823
X011465Y026689
X011248
X011032
X-017094
X-017311
X-017527
X-010736Y033832
X-010303
Y034266
X-010736
T02
X014218Y000664
Y001208
X016108Y001224
Y000664
X016498Y001957
X016918
X017327
X017731
X019234Y002068
X019453Y002279
Y001851
X019244Y0016
X019213Y000767
X020016Y00066
Y001218
X019453Y002717
X019234Y002502
X019376Y003667
X018342Y003846
X018023Y00348
X017404Y003697
X016896Y003687
X016532Y003717
X017034Y00414
X017439Y004181
X017653Y004406
X017471Y004658
X017535Y005036
X017722Y005285
X018613Y005232
X019025Y005319
X01865Y004648
X018629Y004274
X016488Y00466
Y005211
X015937
Y00466
X015385
Y005211
X015173Y003697
X014944Y002847
X015065Y002463
X01621Y002461
X020937Y002454
X020851Y002981
X021103Y003712
X021276Y00466
Y005211
X021828Y005211
X022379
Y00466
X021828
X022364Y003727
X02302Y003722
X022941Y004111
X023524Y004201
X02373Y003974
X023859Y003479
X024555Y003411
X024274Y00383
X024432Y004226
Y004623
Y005044
Y005456
X024998Y005154
X02474Y004333
X023313Y004445
X02349Y004691
X023441Y005076
X02349Y00538
X023615Y001981
X023211Y00199
X022813Y001991
X022426
X022081Y002452
X022098Y001218
Y00066
X025157Y000739
X025144Y001778
Y0022
X025149Y002601
X02514Y00292
X025484Y002849
X025497Y002403
X025493Y001972
X025665Y003185
X013422Y00369
X013116Y005302
X010391Y005199
X009336Y005202
X009474Y004603
X009534Y003958
X009553Y002909
X009553Y002358
X009858
X008501Y002276
X008096Y002262
X007692
X007258Y002477
X007274Y003186
X006702Y003719
X006509Y002743
X0054Y002813
X005008Y003819
X003943Y004036
X00423Y004368
X003885Y004603
X003872Y005234
X004193Y00499
X00608Y00518
X0061Y004528
X008342Y00354
Y003234
X008647
X008889Y001268
X009272
X00787Y001216
Y000656
X00598
Y001201
X011795Y000943
X011469Y002966
Y003363
Y003767
X-002894Y003185
X-003075Y002849
X-003419Y00292
X-00341Y002601
X-003415Y0022
Y001778
X-003066Y001972
X-003063Y002403
X-004004Y003411
X-004285Y00383
X-004127Y004226
Y004623
Y005044
Y005456
X-003561Y005154
X-003819Y004333
X-005036Y004201
X-004829Y003974
X-0047Y003479
X-005539Y003722
X-005618Y004111
X-005246Y004445
X-005069Y004691
X-005118Y005076
X-005069Y00538
X-00618Y005211
Y00466
X-006731
X-007283
Y005211
X-006731Y005211
X-006196Y003727
X-007456Y003712
X-007708Y002981
X-007622Y002454
X-006478Y002452
X-006133Y001991
X-005746
X-005348Y00199
X-004944Y001981
X-006461Y001218
Y00066
X-008543
Y001218
X-009315Y0016
X-009107Y001851
Y002279
X-009325Y002068
Y002502
X-009107Y002717
X-009183Y003667
X-010217Y003846
X-010536Y00348
X-011155Y003697
X-011663Y003687
X-012027Y003717
X-011525Y00414
X-01112Y004181
X-010906Y004406
X-011088Y004658
X-011024Y005036
X-010837Y005285
X-009946Y005232
X-009534Y005319
X-009909Y004648
X-00993Y004274
X-012071Y00466
Y005211
X-012622
Y00466
X-013174
Y005211
X-013386Y003697
X-013615Y002847
X-013494Y002463
X-012349Y002461
X-012061Y001957
X-011641
X-011232
X-010828
X-012451Y001224
Y000664
X-014341
Y001208
X-016764Y000943
X-017091Y002966
Y003363
Y003767
X-015137Y00369
X-015443Y005302
X-009346Y000767
X-003402Y000739
X-019287Y001268
X-01967
X-020689Y001216
Y000656
X-020867Y002262
X-020463
X-020058Y002276
X-019912Y003234
X-020217
Y00354
X-021286Y003186
X-021301Y002477
X-02205Y002743
X-021857Y003719
X-022459Y004528
X-022479Y00518
X-024366Y00499
X-024687Y005234
X-024674Y004603
X-024329Y004368
X-024616Y004036
X-023551Y003819
X-023159Y002813
X-022579Y001201
Y000656
X-019006Y002358
X-018701
X-019006Y002909
X-019025Y003958
X-019085Y004603
X-019223Y005202
X-018168Y005199
X-018256Y006589
X-019225Y006726
X-019216Y007111
X-020282Y006822
X-020569Y007237
X-020514Y007739
X-020651Y010225
X-019262Y009898
X-018674Y008811
X-019176Y012099
X-01967Y012099
X-020177Y01317
X-021874Y016556
X-021852Y017556
X-02177Y019372
Y020159
Y020946
X-018629Y019694
X-018279Y018478
X-017913Y017802
X-018051Y017532
X-017912Y016056
X-022585Y007135
X-023289Y006942
X-023675Y006224
X-023687Y005737
X-024429Y005616
X-02249Y005774
X-022399Y006361
X-022082Y006433
X-015443Y0065
Y006078
Y005695
X-013174Y005763
X-012622
X-012071
X-012033Y006944
X-011621Y006919
X-011408Y006689
X-011147Y006919
X-010895Y006687
X-01067Y006935
X-010412Y006729
X-010158Y006955
X-009538Y007211
X-009233Y007034
X-008817Y006844
X-009534Y0065
Y006137
Y005695
X-010172Y005899
X-010545Y005893
X-010741Y008207
X-010547Y009799
X-010511Y01068
X-010527Y011026
X-010166Y011036
X-009636Y011158
X-009171Y011378
X-009108Y010521
X-008287Y010108
X-008232Y009698
X-007936Y00896
X-00758Y009315
X-007244Y009299
X-006856Y009745
X-006846Y010392
X-006467Y010707
X-007064Y010932
X-006879Y011206
X-007569Y011007
X-007749Y011971
X-008058Y012144
X-008022Y013181
X-008679Y013218
X-009169Y013192
X-010066Y013184
X-01067Y013178
X-011341
X-012007Y013171
X-011993Y01281
X-011596Y012549
X-01157Y011984
X-011583Y011584
X-01157Y01114
X-013133Y011701
Y012051
X-01281Y012713
X-012683Y013211
X-013199Y013421
X-013179Y013825
X-012751Y015427
X-012007Y015466
X-011337
X-010681
X-010013
X-009303Y015484
X-008661Y015471
X-007981Y015469
X-007524Y015825
X-007303Y016896
X-010679Y017744
X-01118Y017759
X-014443Y016255
X-016103
X-017142Y014965
X-017292Y013528
X-01608Y013452
X-016056Y010665
X-013765Y010257
X-013767Y009729
X-013623Y009024
X-012962Y008391
X-012966Y007984
X-013175Y007403
X-013386Y006719
X-013691Y00666
X-012776Y00673
X-012234Y007358
X-014127Y007339
X-014915Y007771
X-012359Y009477
X-009257Y009401
X-008945Y00893
X-008236Y007339
X-0078Y006719
X-00744Y00671
X-006536Y006774
X-006125Y006856
X-006255Y007172
X-005777Y007078
X-005363Y006965
X-005563Y006742
X-005157Y006719
X-004754Y006286
X-004757Y005945
X-00618Y005763
X-006731
X-007283
X-006816Y007657
X-004938Y009283
X-004534Y010233
X-004057Y01095
X-003713Y008838
X-010443Y012501
X-010843Y012558
X008382Y01317
X008889Y012099
X009383Y012099
X009297Y009898
X009885Y008811
X009343Y007111
X009334Y006726
X010303Y006589
X008277Y006822
X00799Y007237
X008045Y007739
X007908Y010225
X005974Y007135
X00527Y006942
X004884Y006224
X004872Y005737
X00413Y005616
X006069Y005774
X00616Y006361
X006477Y006433
X013116Y0065
Y006078
Y005695
X013644Y007771
X012503Y010665
X012479Y013452
X011267Y013528
X011417Y014965
X010647Y016056
X010508Y017532
X010646Y017802
X01028Y018478
X00993Y019694
X006789Y019372
Y020159
Y020946
X006708Y017556
X006685Y016556
X012456Y016255
X014116
X015808Y015427
X016553Y015466
X017222
X017878
X018546
X019256Y015484
X019899Y015471
X020578Y015469
X021035Y015825
X021256Y016896
X01788Y017744
X017379Y017759
X017218Y013178
X017889
X018493Y013184
X01939Y013192
X01988Y013218
X020537Y013181
X020501Y012144
X020811Y011971
X020991Y011007
X021495Y010932
X021681Y011206
X021713Y010392
X021703Y009745
X021316Y009299
X02098Y009315
X020623Y00896
X020328Y009698
X020272Y010108
X019451Y010521
X019388Y011378
X018923Y011158
X018393Y011036
X018032Y011026
X018048Y01068
X018012Y009799
X019302Y009401
X019614Y00893
X019327Y007034
X019021Y007211
X019025Y0065
Y006137
Y005695
X018387Y005899
X018014Y005893
X018147Y006729
X01789Y006935
X017664Y006687
X017412Y006919
X016938
X016526Y006944
X016325Y007358
X015384Y007403
X015593Y007984
X015597Y008391
X014936Y009024
X014793Y009729
X014794Y010257
X015426Y011701
Y012051
X015749Y012713
X015876Y013211
X016553Y013171
X016566Y01281
X016963Y012549
X016989Y011984
X016976Y011584
X016989Y01114
X017716Y012558
X018116Y012501
X01536Y013421
X01538Y013825
X0162Y009477
X017818Y008207
X018401Y006955
X019742Y006844
X020323Y007339
X020759Y006719
X021119Y00671
X022023Y006774
X022434Y006856
X022304Y007172
X022782Y007078
X023196Y006965
X022996Y006742
X023402Y006719
X023805Y006286
X023802Y005945
X022379Y005763
X021828
X021276
X021743Y007657
X022092Y010707
X024025Y010233
X024502Y01095
X024846Y008838
X023621Y009283
X017151Y006689
X015783Y00673
X015173Y006719
X014868Y00666
X014432Y007339
X015385Y005763
X015937
X016488
X014771Y022084
X01442Y023026
X01787Y023293
X018012Y024671
X017772Y024887
X017196Y024844
X016592Y025457
X01658Y025814
X016451Y026371
X018068Y026276
X018067Y025222
X015437Y028241
Y029166
X016382Y030353
Y031738
X016168Y03337
X015549Y033678
X01555Y034142
X015028Y034301
X014107
X016337Y035282
X01667Y035615
X017173Y035492
X017018Y034836
X017338
X017762Y035183
X018335Y035162
X018532Y032946
X017027Y03328
X016937Y033754
X020236Y031006
X020588Y030976
X021145Y030522
X019634Y030333
X019413Y02993
X012348Y029977
Y029642
X01223Y029042
X012534Y029041
X012535Y028736
Y028431
X01325Y028241
Y027313
X013381Y026543
X012811Y025646
X012082Y025667
Y025987
X011763
X011206
X010887
X010567
Y025667
Y025347
X012082
X012606Y024419
X011334Y024435
X010645Y023854
X011526Y02224
X01181Y021563
X013283Y021208
X013071Y022453
X010015Y021346
X006789Y021734
X010291Y02728
Y027585
X010291Y027888
X010606Y027299
X011108Y027358
X011423
X011649Y027595
Y02791
X011954Y027315
X011925Y029042
X011856Y030535
X009879Y03001
X009864Y029648
X008669Y031974
X013014Y032343
X012654Y032933
X-007414Y030522
X-007971Y030976
X-008323Y031006
X-008925Y030333
X-009146Y02993
X-012177Y030353
Y031738
X-012391Y03337
X-01301Y033678
X-013009Y034142
X-013531Y034301
X-014452
X-015905Y032933
X-015545Y032343
X-016703Y030535
X-016211Y029977
Y029642
X-016329Y029042
X-016025Y029041
X-016024Y028736
Y028431
X-015309Y028241
Y027313
X-015178Y026543
X-015748Y025646
X-016477Y025667
Y025987
X-016796
X-017353
X-017451Y027358
X-017136
X-01691Y027595
Y02791
X-016605Y027315
X-016634Y029042
X-013123Y029166
Y028241
X-012108Y026371
X-011979Y025814
X-011967Y025457
X-011363Y024844
X-010787Y024887
X-010547Y024671
X-010493Y025222
X-010491Y026276
X-010689Y023293
X-01414Y023026
X-013788Y022084
X-015488Y022453
X-015276Y021208
X-016749Y021563
X-017034Y02224
X-017225Y024435
X-015954Y024419
X-016477Y025347
X-011532Y03328
X-011623Y033754
X-011541Y034836
X-011221
X-010797Y035183
X-010224Y035162
X-011386Y035492
X-011889Y035615
X-012222Y035282
X-010027Y032946
X-01989Y031974
X-01868Y03001
X-018695Y029648
X-018268Y027888
X-018268Y027585
Y02728
X-017953Y027299
X-017992Y025987
X-017673
X-017992Y025667
Y025347
X-017914Y023854
X-018544Y021346
X-02177Y021734
X-019765Y036816
X-019261
Y037416
Y038016
X-019765
X-013463Y037943
Y038447
X-012863Y037943
X-012263
Y038447
X-01287Y039204
Y039538
X-014456Y039498
X-014795Y040391
X-01187Y041026
X008794Y038016
X009298
Y037416
Y036816
X008794
X015096Y037943
Y038447
X015696Y037943
X016296
Y038447
X01569Y039204
Y039538
X014103Y039498
X013764Y040391
X016689Y041026
T05
X025774Y005049
X026774
X002774
X001774
X-001785
X-002785
X-025785
X-026785
Y006049
X-025785
Y007049
Y008049
Y009049
Y010049
Y011049
Y012049
Y013049
Y014049
Y015049
Y016049
Y017049
Y018049
Y019049
Y020049
Y021049
X-026785
Y020049
Y019049
Y018049
Y017049
Y016049
Y015049
Y014049
Y013049
Y012049
Y011049
Y010049
Y009049
Y008049
Y007049
X-023785Y013049
X-022785
Y014049
Y015049
Y016049
Y017049
Y018049
Y019049
Y020049
Y021049
X-023785
Y020049
Y019049
Y018049
Y017049
Y016049
Y015049
Y014049
X-005785Y014059
Y015059
X-004785
Y016059
Y017059
Y018059
Y019059
Y020059
Y021059
X-005785
Y020059
Y019059
Y018059
Y017059
Y016059
X-004785Y014059
Y013059
X-005785
X-002785Y013049
Y014049
Y015049
Y016049
Y017049
Y018049
Y019049
Y020049
Y021049
Y012049
Y011049
Y010049
Y009049
Y008049
Y007049
Y006049
X-001785
Y007049
Y008049
Y009049
Y010049
Y011049
Y012049
Y013049
Y014049
Y015049
Y016049
Y017049
Y018049
Y019049
Y020049
Y021049
X001774
X002774
Y020049
Y019049
Y018049
Y017049
Y016049
X001774
Y017049
Y018049
Y019049
Y020049
X004774
X005774
Y021049
X004774
Y019049
X005774
Y018049
X004774
Y017049
X005774
Y016049
Y015049
Y014049
Y013049
X004774
Y014049
Y015049
Y016049
X002774Y015049
Y014049
Y013049
Y012049
Y011049
Y010049
Y009049
Y008049
Y007049
Y006049
X001774
Y007049
Y008049
Y009049
Y010049
Y011049
Y012049
Y013049
Y014049
Y015049
X022774Y015059
X023774
Y016059
Y017059
Y018059
Y019059
Y020059
Y021059
X022774
Y020059
Y019059
Y018059
Y017059
Y016059
Y014059
X023774
Y013059
X022774
X025774Y013049
X026774
Y014049
Y015049
Y016049
Y017049
Y018049
Y019049
Y020049
Y021049
X025774
Y020049
Y019049
Y018049
Y017049
Y016049
Y015049
Y014049
Y012049
X026774
Y011049
Y010049
Y009049
Y008049
Y007049
Y006049
X025774
Y007049
Y008049
Y009049
Y010049
Y011049
Y022049
X026774
Y023049
Y024049
Y025049
Y026049
Y027049
Y028049
Y029049
Y030049
Y031049
Y032049
Y033049
Y034049
Y035049
Y036049
X025774
Y035049
Y034049
Y033049
Y032049
Y031049
Y030049
Y029049
Y028049
Y027049
Y026049
Y025049
Y024049
Y023049
X023774Y023059
Y024059
Y025059
Y026059
Y027059
Y028059
Y029059
X022774
Y028059
Y027059
Y026059
Y025059
Y024059
Y023059
Y022059
X023774
Y030659
Y031659
Y032659
Y033659
Y034659
Y035659
Y036659
X022774
Y035659
Y034659
Y033659
Y032659
Y031659
Y030659
X005774Y031049
Y032049
Y033049
Y034049
Y035049
Y036049
X004774
Y035049
Y034049
Y033049
Y032049
Y031049
Y030049
X005774
Y029049
X004774
Y027049
X005774
Y026049
Y025049
Y024049
Y023049
X004774
Y024049
Y025049
Y026049
X002774
Y027049
Y028049
Y029049
Y030049
Y031049
Y032049
Y033049
Y034049
Y035049
Y036049
X001774
Y035049
Y034049
Y033049
Y032049
Y031049
Y030049
Y029049
Y028049
Y027049
Y026049
Y025049
X002774
Y024049
Y023049
Y022049
X001774
Y023049
Y024049
X-001785
Y025049
Y026049
Y027049
Y028049
Y029049
Y030049
Y031049
Y032049
Y033049
Y034049
Y035049
Y036049
Y023049
Y022049
X004774
X005774
X-002785
Y023049
Y024049
Y025049
Y026049
Y027049
Y028049
Y029049
Y030049
Y031049
Y032049
Y033049
Y034049
Y035049
Y036049
X-004785Y035659
Y036659
X-005785
Y035659
Y034659
X-004785
Y033659
Y032659
Y031659
Y030659
X-005785
Y031659
Y032659
Y033659
Y029059
X-004785
Y028059
Y027059
Y026059
Y025059
X-005785
Y026059
Y027059
Y028059
Y024059
X-004785
Y023059
Y022059
X-005785
Y023059
X-022785Y023049
Y024049
Y025049
Y026049
Y027049
X-023785
Y026049
Y025049
Y024049
Y023049
Y022049
X-022785
X-025785
Y023049
Y024049
Y025049
Y026049
Y027049
Y028049
Y029049
Y030049
Y031049
Y032049
Y033049
Y034049
Y035049
Y036049
X-026785
Y035049
Y034049
Y033049
Y032049
Y031049
Y030049
Y029049
Y028049
Y027049
Y026049
Y025049
Y024049
Y023049
Y022049
X-023785Y029049
X-022785
Y030049
Y031049
Y032049
Y033049
Y034049
Y035049
Y036049
X-023785
Y035049
Y034049
Y033049
Y032049
Y031049
Y030049
X-025785Y037049
Y038049
Y039049
Y040049
X-026785
Y039049
Y038049
Y037049
X-005785Y037659
X-004785
Y038659
Y039659
X-005785
Y038659
X-002785Y039049
Y040049
Y038049
Y037049
X-001785
Y038049
Y039049
Y040049
X001774
X002774
Y039049
X001774
Y038049
X002774
Y037049
X001774
X022774Y037659
X023774
Y038659
Y039659
X022774
Y038659
X025774Y039049
Y040049
X026774
Y039049
Y038049
Y037049
X025774
Y038049
T06
X007338Y032396
Y033396
X-021221
Y032396
T07
X007038Y025913
Y026913
Y027913
X0094Y035479
X0104
X0114
X-017159
X-018159
X-019159
X-021521Y027913
Y026913
Y025913
T08
X019287Y023067
X019301Y024254
X019481Y032288
X021331
X013507Y031268
X013259Y035479
X007233
X009071Y030646
Y029067
Y027489
Y025911
Y024332
X-009258Y024254
X-009272Y023067
X-009078Y032288
X-007228
X-015052Y031268
X-0153Y035479
X-021326
X-019488Y030646
Y029067
Y027489
Y025911
Y024332
T09
X-021311Y040102
X-019343
X007248
X009216
T10
X026734Y00127
X002211Y001225
X-001825Y00127
X-026349Y001225
X016537Y027479
X017946Y028675
X019354Y027479
X020761Y028675
X021221Y023618
X-007338
X-007798Y028675
X-009205Y027479
X-010613Y028675
X-012022Y027479
X-008354Y039077
X020205
T11
X-020137Y015059
Y01707
X008422
Y015059
T12
X-023285Y011659
X-005285
X005274
X023274
X017774Y021159
X-010785
X-023785Y041659
X-004785Y041159
X004774Y041659
X023774Y041159
M30
