G04*
G04 #@! TF.GenerationSoftware,Altium Limited,Altium Designer,20.1.11 (218)*
G04*
G04 Layer_Physical_Order=2*
G04 Layer_Color=32768*
%FSLAX24Y24*%
%MOIN*%
G70*
G04*
G04 #@! TF.SameCoordinates,2582DA11-84A4-45EB-A450-3A0221363A72*
G04*
G04*
G04 #@! TF.FilePolarity,Negative*
G04*
G01*
G75*
%ADD13C,0.0200*%
%ADD102C,0.0400*%
%ADD103R,0.1482X0.1547*%
%ADD104R,0.6322X0.1547*%
%ADD105R,0.0227X0.0837*%
%ADD106R,0.0068X0.1378*%
%ADD107R,0.0137X0.1378*%
%ADD108R,0.0127X0.1378*%
%ADD109R,0.0128X0.1378*%
%ADD110R,0.0935X0.1033*%
%ADD111R,0.0148X0.1378*%
%ADD112R,0.1033X0.0049*%
%ADD113R,0.0287X0.0837*%
%ADD114R,0.0837X0.0165*%
%ADD115R,0.0837X0.0168*%
%ADD116R,0.0049X0.1033*%
%ADD117O,0.0495X0.0377*%
%ADD118O,0.0357X0.0613*%
%ADD119C,0.0560*%
%ADD120C,0.0869*%
%ADD121C,0.0589*%
%ADD122C,0.0554*%
%ADD123C,0.1420*%
%ADD124C,0.0562*%
%ADD125C,0.0672*%
%ADD126C,0.0790*%
%ADD127C,0.0278*%
G36*
X-1702Y-3651D02*
X-1714Y-3651D01*
X-1726Y-3654D01*
X-1737Y-3656D01*
X-1747Y-3659D01*
X-1756Y-3662D01*
X-1765Y-3665D01*
X-1773Y-3669D01*
X-1780Y-3673D01*
X-1786Y-3676D01*
X-1791Y-3679D01*
X-1796Y-3682D01*
X-1799Y-3684D01*
X-1802Y-3686D01*
X-1803Y-3687D01*
X-1804Y-3688D01*
X-1811Y-3695D01*
X-1818Y-3703D01*
X-1824Y-3712D01*
X-1829Y-3721D01*
X-1838Y-3738D01*
X-1844Y-3756D01*
X-1846Y-3764D01*
X-1848Y-3772D01*
X-1850Y-3778D01*
X-1851Y-3784D01*
X-1852Y-3789D01*
Y-3793D01*
X-1853Y-3795D01*
Y-3796D01*
X-1789Y-3802D01*
X-1788Y-3786D01*
X-1785Y-3771D01*
X-1780Y-3758D01*
X-1775Y-3748D01*
X-1771Y-3739D01*
X-1767Y-3733D01*
X-1764Y-3729D01*
X-1762Y-3728D01*
X-1751Y-3719D01*
X-1740Y-3713D01*
X-1727Y-3708D01*
X-1716Y-3705D01*
X-1706Y-3702D01*
X-1697Y-3702D01*
X-1694Y-3701D01*
X-1690D01*
X-1675Y-3702D01*
X-1661Y-3705D01*
X-1649Y-3709D01*
X-1639Y-3713D01*
X-1631Y-3719D01*
X-1626Y-3722D01*
X-1622Y-3725D01*
X-1621Y-3727D01*
X-1612Y-3737D01*
X-1606Y-3747D01*
X-1600Y-3757D01*
X-1597Y-3767D01*
X-1595Y-3775D01*
X-1595Y-3783D01*
X-1594Y-3787D01*
Y-3788D01*
Y-3789D01*
X-1595Y-3802D01*
X-1598Y-3815D01*
X-1603Y-3828D01*
X-1608Y-3840D01*
X-1614Y-3849D01*
X-1619Y-3857D01*
X-1621Y-3860D01*
X-1622Y-3862D01*
X-1624Y-3863D01*
Y-3864D01*
X-1630Y-3872D01*
X-1637Y-3880D01*
X-1645Y-3888D01*
X-1654Y-3897D01*
X-1672Y-3915D01*
X-1690Y-3932D01*
X-1700Y-3940D01*
X-1708Y-3947D01*
X-1716Y-3954D01*
X-1722Y-3960D01*
X-1727Y-3964D01*
X-1732Y-3968D01*
X-1735Y-3970D01*
X-1735Y-3971D01*
X-1753Y-3986D01*
X-1770Y-4001D01*
X-1784Y-4014D01*
X-1795Y-4025D01*
X-1805Y-4034D01*
X-1811Y-4041D01*
X-1815Y-4045D01*
X-1816Y-4046D01*
Y-4047D01*
X-1826Y-4059D01*
X-1834Y-4071D01*
X-1842Y-4082D01*
X-1848Y-4092D01*
X-1852Y-4101D01*
X-1855Y-4108D01*
X-1856Y-4112D01*
X-1857Y-4113D01*
Y-4114D01*
X-1860Y-4122D01*
X-1861Y-4129D01*
X-1863Y-4136D01*
X-1864Y-4143D01*
X-1864Y-4149D01*
Y-3650D01*
X-1689D01*
X-1702Y-3651D01*
D02*
G37*
G36*
X-1530Y-3650D02*
D01*
Y-4157D01*
X-1864D01*
D01*
X-1530D01*
Y-4097D01*
D01*
X-1778D01*
X-1770Y-4084D01*
X-1765Y-4079D01*
X-1762Y-4074D01*
X-1758Y-4070D01*
X-1755Y-4067D01*
X-1753Y-4065D01*
X-1752Y-4064D01*
X-1748Y-4060D01*
X-1744Y-4057D01*
X-1734Y-4047D01*
X-1722Y-4036D01*
X-1710Y-4025D01*
X-1698Y-4016D01*
X-1693Y-4012D01*
X-1689Y-4007D01*
X-1685Y-4004D01*
X-1682Y-4002D01*
X-1681Y-4001D01*
X-1680Y-4000D01*
X-1668Y-3990D01*
X-1657Y-3980D01*
X-1646Y-3971D01*
X-1637Y-3963D01*
X-1628Y-3955D01*
X-1621Y-3947D01*
X-1614Y-3941D01*
X-1608Y-3935D01*
X-1602Y-3929D01*
X-1597Y-3925D01*
X-1594Y-3921D01*
X-1590Y-3918D01*
X-1587Y-3913D01*
X-1585Y-3912D01*
X-1575Y-3899D01*
X-1566Y-3888D01*
X-1559Y-3877D01*
X-1553Y-3869D01*
X-1549Y-3861D01*
X-1546Y-3855D01*
X-1544Y-3851D01*
X-1544Y-3850D01*
X-1539Y-3839D01*
X-1536Y-3828D01*
X-1533Y-3818D01*
X-1532Y-3809D01*
X-1531Y-3801D01*
X-1530Y-3795D01*
Y-3791D01*
Y-3790D01*
X-1531Y-3779D01*
X-1533Y-3769D01*
X-1534Y-3759D01*
X-1537Y-3750D01*
X-1544Y-3732D01*
X-1552Y-3719D01*
X-1556Y-3712D01*
X-1560Y-3707D01*
X-1563Y-3702D01*
X-1567Y-3698D01*
X-1570Y-3695D01*
X-1571Y-3692D01*
X-1573Y-3692D01*
X-1573Y-3691D01*
X-1581Y-3684D01*
X-1590Y-3677D01*
X-1600Y-3672D01*
X-1609Y-3667D01*
X-1628Y-3660D01*
X-1647Y-3655D01*
X-1655Y-3654D01*
X-1663Y-3652D01*
X-1670Y-3651D01*
X-1676Y-3651D01*
X-1681Y-3650D01*
X-1530D01*
D01*
D02*
G37*
D13*
X108975Y52425D02*
Y51425D01*
X109642D01*
X109975D02*
Y52092D01*
X110308Y52425D01*
X110641Y52092D01*
Y51425D01*
Y51925D01*
X109975D01*
X110975Y52425D02*
Y52258D01*
X111308Y51925D01*
X111641Y52258D01*
Y52425D01*
X111308Y51925D02*
Y51425D01*
X112641Y52425D02*
X111974D01*
Y51425D01*
X112641D01*
X111974Y51925D02*
X112307D01*
X112974Y51425D02*
Y52425D01*
X113474D01*
X113640Y52258D01*
Y51925D01*
X113474Y51758D01*
X112974D01*
X113307D02*
X113640Y51425D01*
X115640D02*
X114973D01*
X115640Y52092D01*
Y52258D01*
X115473Y52425D01*
X115140D01*
X114973Y52258D01*
X115973Y52092D02*
X116140D01*
Y51925D01*
X115973D01*
Y52092D01*
Y51592D02*
X116140D01*
Y51425D01*
X115973D01*
Y51592D01*
X118472Y52258D02*
X118305Y52425D01*
X117972D01*
X117806Y52258D01*
Y51592D01*
X117972Y51425D01*
X118305D01*
X118472Y51592D01*
Y51925D01*
X118139D01*
X118805Y51425D02*
Y52425D01*
X119472Y51425D01*
Y52425D01*
X119805D02*
Y51425D01*
X120305D01*
X120471Y51592D01*
Y52258D01*
X120305Y52425D01*
X119805D01*
D102*
X35000Y47460D02*
X35000Y-5000D01*
X-35000Y47460D02*
X35000D01*
X-35000D02*
X-35000Y-5000D01*
X35000D01*
X-28058Y788D02*
G03*
X-27270Y0I787J0D01*
G01*
X-1287Y2D02*
G03*
X-500Y789I0J787D01*
G01*
X-500Y41667D02*
G03*
X-1287Y42455I-787J0D01*
G01*
X-27272Y42457D02*
G03*
X-28059Y41669I0J-787D01*
G01*
X-28058Y788D01*
X-27272Y42457D02*
X-1287D01*
X-1287Y42455D01*
X-500Y41667D02*
X-500D01*
X-500D02*
X-500Y787D01*
Y789D01*
X-1287Y0D02*
X-1287Y2D01*
X-27272Y0D02*
X-1287D01*
X-27272D02*
X-27270Y0D01*
X502Y788D02*
G03*
X1289Y0I787J0D01*
G01*
X27272Y2D02*
G03*
X28059Y789I0J787D01*
G01*
X28059Y41667D02*
G03*
X27272Y42455I-787J0D01*
G01*
X1287Y42457D02*
G03*
X500Y41669I0J-787D01*
G01*
X502Y788D01*
X1287Y42457D02*
X27272D01*
X27272Y42455D01*
X28059Y41667D02*
X28059D01*
X28059D02*
X28059Y787D01*
Y789D01*
X27272Y0D02*
X27272Y2D01*
X1287Y0D02*
X27272D01*
X1287D02*
X1289Y0D01*
D103*
X-4521Y-4162D02*
D03*
D104*
X2036Y-4161D02*
D03*
D105*
X-1418Y-3906D02*
D03*
D106*
X-3750Y-4078D02*
D03*
D107*
X-3548D02*
D03*
D108*
X-3356D02*
D03*
D109*
X-3189Y-4078D02*
D03*
D110*
X-2657Y-3906D02*
D03*
D111*
X-1181Y-4078D02*
D03*
D112*
X-1722Y-3414D02*
D03*
Y-4398D02*
D03*
D113*
X-1997Y-3906D02*
D03*
D114*
X-1722Y-3570D02*
D03*
D115*
X-1722Y-4240D02*
D03*
D116*
X-2214Y-3906D02*
D03*
D117*
X-15266Y40819D02*
D03*
X-13298D02*
D03*
X13293D02*
D03*
X15261D02*
D03*
D118*
X-15660Y41882D02*
D03*
X-12904D02*
D03*
X12899D02*
D03*
X15655D02*
D03*
D119*
X-21221Y32396D02*
D03*
Y33396D02*
D03*
X7338Y32396D02*
D03*
Y33396D02*
D03*
D120*
X-20137Y15059D02*
D03*
Y17070D02*
D03*
X8422Y15059D02*
D03*
Y17070D02*
D03*
D121*
X-9272Y23067D02*
D03*
X-9258Y24254D02*
D03*
X-19488Y25911D02*
D03*
Y29067D02*
D03*
Y27489D02*
D03*
Y24332D02*
D03*
Y30646D02*
D03*
X-7228Y32288D02*
D03*
X-9078D02*
D03*
X-21326Y35479D02*
D03*
X-15300D02*
D03*
X-15052Y31268D02*
D03*
X19287Y23067D02*
D03*
X19301Y24254D02*
D03*
X9071Y25911D02*
D03*
Y29067D02*
D03*
Y27489D02*
D03*
Y24332D02*
D03*
Y30646D02*
D03*
X21331Y32288D02*
D03*
X19481D02*
D03*
X7233Y35479D02*
D03*
X13259D02*
D03*
X13507Y31268D02*
D03*
D122*
X-1785Y40049D02*
D03*
X-2785Y39049D02*
D03*
Y40049D02*
D03*
X-1785Y39049D02*
D03*
Y37049D02*
D03*
Y38049D02*
D03*
Y36049D02*
D03*
X-2785Y37049D02*
D03*
Y38049D02*
D03*
Y36049D02*
D03*
X-1785Y34049D02*
D03*
Y35049D02*
D03*
Y32049D02*
D03*
Y33049D02*
D03*
X-2785Y31049D02*
D03*
Y32049D02*
D03*
X-1785Y31049D02*
D03*
Y29049D02*
D03*
Y30049D02*
D03*
Y28049D02*
D03*
Y27049D02*
D03*
X-2785Y30049D02*
D03*
X-1785Y26049D02*
D03*
X-2785Y34049D02*
D03*
Y35049D02*
D03*
Y33049D02*
D03*
Y28049D02*
D03*
Y29049D02*
D03*
Y26049D02*
D03*
Y27049D02*
D03*
X-4785Y39659D02*
D03*
Y37659D02*
D03*
Y38659D02*
D03*
X-5785Y39659D02*
D03*
Y38659D02*
D03*
X-4785Y35659D02*
D03*
X-5785Y37659D02*
D03*
Y36659D02*
D03*
X-4785Y33659D02*
D03*
Y34659D02*
D03*
Y31659D02*
D03*
Y32659D02*
D03*
X-5785Y33659D02*
D03*
X-4785Y26059D02*
D03*
Y27059D02*
D03*
Y25059D02*
D03*
Y29059D02*
D03*
Y30659D02*
D03*
Y28059D02*
D03*
X-5785Y34659D02*
D03*
Y35659D02*
D03*
Y31659D02*
D03*
Y32659D02*
D03*
Y30659D02*
D03*
Y26059D02*
D03*
Y27059D02*
D03*
Y25059D02*
D03*
Y29059D02*
D03*
Y28059D02*
D03*
X-1785Y21049D02*
D03*
Y22049D02*
D03*
Y18049D02*
D03*
Y19049D02*
D03*
Y24049D02*
D03*
Y25049D02*
D03*
Y23049D02*
D03*
X-2785D02*
D03*
Y24049D02*
D03*
X-1785Y20049D02*
D03*
X-2785Y22049D02*
D03*
Y20049D02*
D03*
Y21049D02*
D03*
Y19049D02*
D03*
X-1785Y16049D02*
D03*
Y17049D02*
D03*
Y15049D02*
D03*
X-2785Y17049D02*
D03*
Y18049D02*
D03*
Y16049D02*
D03*
X-1785Y13049D02*
D03*
Y14049D02*
D03*
Y11049D02*
D03*
Y12049D02*
D03*
X-2785Y14049D02*
D03*
Y15049D02*
D03*
Y12049D02*
D03*
X-1785Y6049D02*
D03*
Y7049D02*
D03*
Y5049D02*
D03*
Y9049D02*
D03*
Y10049D02*
D03*
Y8049D02*
D03*
X-2785Y7049D02*
D03*
Y8049D02*
D03*
Y5049D02*
D03*
Y6049D02*
D03*
Y10049D02*
D03*
Y13049D02*
D03*
Y9049D02*
D03*
Y25049D02*
D03*
X-4785Y24059D02*
D03*
Y22059D02*
D03*
Y23059D02*
D03*
Y20059D02*
D03*
Y21059D02*
D03*
Y19059D02*
D03*
X-5785Y23059D02*
D03*
Y24059D02*
D03*
Y22059D02*
D03*
Y21059D02*
D03*
Y19059D02*
D03*
Y20059D02*
D03*
Y18059D02*
D03*
X-4785Y17059D02*
D03*
Y18059D02*
D03*
Y15059D02*
D03*
Y16059D02*
D03*
X-5785D02*
D03*
Y17059D02*
D03*
Y15059D02*
D03*
X-4785Y13059D02*
D03*
Y14059D02*
D03*
X-2785Y11049D02*
D03*
X-5785Y13059D02*
D03*
Y14059D02*
D03*
X-22785Y36049D02*
D03*
Y34049D02*
D03*
Y35049D02*
D03*
X-23785Y33049D02*
D03*
Y34049D02*
D03*
X-22785Y33049D02*
D03*
Y32049D02*
D03*
X-23785Y35049D02*
D03*
Y36049D02*
D03*
Y32049D02*
D03*
X-22785Y30049D02*
D03*
Y31049D02*
D03*
Y29049D02*
D03*
Y26049D02*
D03*
Y27049D02*
D03*
Y25049D02*
D03*
Y24049D02*
D03*
Y23049D02*
D03*
X-23785D02*
D03*
X-22785Y22049D02*
D03*
X-23785Y29049D02*
D03*
Y27049D02*
D03*
Y25049D02*
D03*
Y26049D02*
D03*
Y24049D02*
D03*
X-25785Y39049D02*
D03*
Y40049D02*
D03*
Y37049D02*
D03*
X-26785Y39049D02*
D03*
Y40049D02*
D03*
X-25785Y38049D02*
D03*
Y36049D02*
D03*
Y35049D02*
D03*
X-26785D02*
D03*
Y36049D02*
D03*
Y34049D02*
D03*
Y38049D02*
D03*
Y37049D02*
D03*
X-25785Y30049D02*
D03*
Y31049D02*
D03*
Y28049D02*
D03*
Y29049D02*
D03*
Y33049D02*
D03*
Y34049D02*
D03*
Y32049D02*
D03*
Y27049D02*
D03*
Y24049D02*
D03*
Y25049D02*
D03*
Y23049D02*
D03*
X-26785Y29049D02*
D03*
Y30049D02*
D03*
Y27049D02*
D03*
Y28049D02*
D03*
Y32049D02*
D03*
Y33049D02*
D03*
Y31049D02*
D03*
X-25785Y26049D02*
D03*
X-26785D02*
D03*
X-25785Y22049D02*
D03*
X-26785Y24049D02*
D03*
Y25049D02*
D03*
Y23049D02*
D03*
X-22785Y20049D02*
D03*
Y21049D02*
D03*
Y18049D02*
D03*
Y19049D02*
D03*
Y15049D02*
D03*
Y14049D02*
D03*
Y13049D02*
D03*
X-23785Y21049D02*
D03*
Y22049D02*
D03*
Y18049D02*
D03*
Y20049D02*
D03*
Y17049D02*
D03*
X-22785D02*
D03*
Y16049D02*
D03*
X-23785Y15049D02*
D03*
Y16049D02*
D03*
Y14049D02*
D03*
Y13049D02*
D03*
X-25785Y20049D02*
D03*
Y21049D02*
D03*
X-23785Y19049D02*
D03*
X-25785D02*
D03*
Y17049D02*
D03*
Y18049D02*
D03*
Y16049D02*
D03*
X-26785Y18049D02*
D03*
Y19049D02*
D03*
Y16049D02*
D03*
Y17049D02*
D03*
Y21049D02*
D03*
Y22049D02*
D03*
Y20049D02*
D03*
X-25785Y14049D02*
D03*
Y15049D02*
D03*
Y12049D02*
D03*
Y13049D02*
D03*
Y11049D02*
D03*
X-26785Y12049D02*
D03*
X-25785Y10049D02*
D03*
Y8049D02*
D03*
Y9049D02*
D03*
Y7049D02*
D03*
Y5049D02*
D03*
Y6049D02*
D03*
X-26785Y5049D02*
D03*
Y10049D02*
D03*
Y11049D02*
D03*
Y9049D02*
D03*
Y14049D02*
D03*
Y15049D02*
D03*
Y13049D02*
D03*
Y7049D02*
D03*
Y8049D02*
D03*
Y6049D02*
D03*
X26774Y40049D02*
D03*
X25774Y39049D02*
D03*
Y40049D02*
D03*
X26774Y39049D02*
D03*
Y37049D02*
D03*
Y38049D02*
D03*
Y36049D02*
D03*
X25774Y37049D02*
D03*
Y38049D02*
D03*
Y36049D02*
D03*
X26774Y34049D02*
D03*
Y35049D02*
D03*
Y32049D02*
D03*
Y33049D02*
D03*
X25774Y31049D02*
D03*
Y32049D02*
D03*
X26774Y31049D02*
D03*
Y29049D02*
D03*
Y30049D02*
D03*
Y28049D02*
D03*
Y27049D02*
D03*
X25774Y30049D02*
D03*
X26774Y26049D02*
D03*
X25774Y34049D02*
D03*
Y35049D02*
D03*
Y33049D02*
D03*
Y28049D02*
D03*
Y29049D02*
D03*
Y26049D02*
D03*
Y27049D02*
D03*
X23774Y39659D02*
D03*
Y37659D02*
D03*
Y38659D02*
D03*
X22774Y39659D02*
D03*
Y38659D02*
D03*
X23774Y35659D02*
D03*
X22774Y37659D02*
D03*
Y36659D02*
D03*
X23774Y33659D02*
D03*
Y34659D02*
D03*
Y31659D02*
D03*
Y32659D02*
D03*
X22774Y33659D02*
D03*
X23774Y26059D02*
D03*
Y27059D02*
D03*
Y25059D02*
D03*
Y29059D02*
D03*
Y30659D02*
D03*
Y28059D02*
D03*
X22774Y34659D02*
D03*
Y35659D02*
D03*
Y31659D02*
D03*
Y32659D02*
D03*
Y30659D02*
D03*
Y26059D02*
D03*
Y27059D02*
D03*
Y25059D02*
D03*
Y29059D02*
D03*
Y28059D02*
D03*
X26774Y21049D02*
D03*
Y22049D02*
D03*
Y18049D02*
D03*
Y19049D02*
D03*
Y24049D02*
D03*
Y25049D02*
D03*
Y23049D02*
D03*
X25774D02*
D03*
Y24049D02*
D03*
X26774Y20049D02*
D03*
X25774Y22049D02*
D03*
Y20049D02*
D03*
Y21049D02*
D03*
Y19049D02*
D03*
X26774Y16049D02*
D03*
Y17049D02*
D03*
Y15049D02*
D03*
X25774Y17049D02*
D03*
Y18049D02*
D03*
Y16049D02*
D03*
X26774Y13049D02*
D03*
Y14049D02*
D03*
Y11049D02*
D03*
Y12049D02*
D03*
X25774Y14049D02*
D03*
Y15049D02*
D03*
Y12049D02*
D03*
X26774Y6049D02*
D03*
Y7049D02*
D03*
Y5049D02*
D03*
Y9049D02*
D03*
Y10049D02*
D03*
Y8049D02*
D03*
X25774Y7049D02*
D03*
Y8049D02*
D03*
Y5049D02*
D03*
Y6049D02*
D03*
Y10049D02*
D03*
Y13049D02*
D03*
Y9049D02*
D03*
Y25049D02*
D03*
X23774Y24059D02*
D03*
Y22059D02*
D03*
Y23059D02*
D03*
Y20059D02*
D03*
Y21059D02*
D03*
Y19059D02*
D03*
X22774Y23059D02*
D03*
Y24059D02*
D03*
Y22059D02*
D03*
Y21059D02*
D03*
Y19059D02*
D03*
Y20059D02*
D03*
Y18059D02*
D03*
X23774Y17059D02*
D03*
Y18059D02*
D03*
Y15059D02*
D03*
Y16059D02*
D03*
X22774D02*
D03*
Y17059D02*
D03*
Y15059D02*
D03*
X23774Y13059D02*
D03*
Y14059D02*
D03*
X25774Y11049D02*
D03*
X22774Y13059D02*
D03*
Y14059D02*
D03*
X5774Y36049D02*
D03*
Y34049D02*
D03*
Y35049D02*
D03*
X4774Y33049D02*
D03*
Y34049D02*
D03*
X5774Y33049D02*
D03*
Y32049D02*
D03*
X4774Y35049D02*
D03*
Y36049D02*
D03*
Y32049D02*
D03*
X5774Y30049D02*
D03*
Y31049D02*
D03*
Y29049D02*
D03*
Y26049D02*
D03*
Y27049D02*
D03*
Y25049D02*
D03*
Y24049D02*
D03*
Y23049D02*
D03*
X4774D02*
D03*
X5774Y22049D02*
D03*
X4774Y29049D02*
D03*
Y27049D02*
D03*
Y25049D02*
D03*
Y26049D02*
D03*
Y24049D02*
D03*
X2774Y39049D02*
D03*
Y40049D02*
D03*
Y37049D02*
D03*
X1774Y39049D02*
D03*
Y40049D02*
D03*
X2774Y38049D02*
D03*
Y36049D02*
D03*
Y35049D02*
D03*
X1774D02*
D03*
Y36049D02*
D03*
Y34049D02*
D03*
Y38049D02*
D03*
Y37049D02*
D03*
X2774Y30049D02*
D03*
Y31049D02*
D03*
Y28049D02*
D03*
Y29049D02*
D03*
Y33049D02*
D03*
Y34049D02*
D03*
Y32049D02*
D03*
Y27049D02*
D03*
Y24049D02*
D03*
Y25049D02*
D03*
Y23049D02*
D03*
X1774Y29049D02*
D03*
Y30049D02*
D03*
Y27049D02*
D03*
Y28049D02*
D03*
Y32049D02*
D03*
Y33049D02*
D03*
Y31049D02*
D03*
X2774Y26049D02*
D03*
X1774D02*
D03*
X2774Y22049D02*
D03*
X1774Y24049D02*
D03*
Y25049D02*
D03*
Y23049D02*
D03*
X5774Y20049D02*
D03*
Y21049D02*
D03*
Y18049D02*
D03*
Y19049D02*
D03*
Y15049D02*
D03*
Y14049D02*
D03*
Y13049D02*
D03*
X4774Y21049D02*
D03*
Y22049D02*
D03*
Y18049D02*
D03*
Y20049D02*
D03*
Y17049D02*
D03*
X5774D02*
D03*
Y16049D02*
D03*
X4774Y15049D02*
D03*
Y16049D02*
D03*
Y14049D02*
D03*
Y13049D02*
D03*
X2774Y20049D02*
D03*
Y21049D02*
D03*
X4774Y19049D02*
D03*
X2774D02*
D03*
Y17049D02*
D03*
Y18049D02*
D03*
Y16049D02*
D03*
X1774Y18049D02*
D03*
Y19049D02*
D03*
Y16049D02*
D03*
Y17049D02*
D03*
Y21049D02*
D03*
Y22049D02*
D03*
Y20049D02*
D03*
X2774Y14049D02*
D03*
Y15049D02*
D03*
Y12049D02*
D03*
Y13049D02*
D03*
Y11049D02*
D03*
X1774Y12049D02*
D03*
X2774Y10049D02*
D03*
Y8049D02*
D03*
Y9049D02*
D03*
Y7049D02*
D03*
Y5049D02*
D03*
Y6049D02*
D03*
X1774Y5049D02*
D03*
Y10049D02*
D03*
Y11049D02*
D03*
Y9049D02*
D03*
Y14049D02*
D03*
Y15049D02*
D03*
Y13049D02*
D03*
Y7049D02*
D03*
Y8049D02*
D03*
Y6049D02*
D03*
D123*
X-4785Y41159D02*
D03*
X-10785Y21159D02*
D03*
X-5285Y11659D02*
D03*
X-23785Y41659D02*
D03*
X-23285Y11659D02*
D03*
X23774Y41159D02*
D03*
X17774Y21159D02*
D03*
X23274Y11659D02*
D03*
X4774Y41659D02*
D03*
X5274Y11659D02*
D03*
D124*
X-21521Y27913D02*
D03*
Y26913D02*
D03*
Y25913D02*
D03*
X-19159Y35479D02*
D03*
X-18159D02*
D03*
X-17159D02*
D03*
X7038Y27913D02*
D03*
Y26913D02*
D03*
Y25913D02*
D03*
X9400Y35479D02*
D03*
X10400D02*
D03*
X11400D02*
D03*
D125*
X-21311Y40102D02*
D03*
X7248D02*
D03*
D126*
X-12022Y27479D02*
D03*
X-10613Y28675D02*
D03*
X-7798D02*
D03*
X-9205Y27479D02*
D03*
X16537D02*
D03*
X17946Y28675D02*
D03*
X20761D02*
D03*
X19354Y27479D02*
D03*
D127*
X-5246Y4445D02*
D03*
X-5069Y5380D02*
D03*
X-4757Y5945D02*
D03*
X-5069Y4691D02*
D03*
X-5618Y4111D02*
D03*
X-5036Y4201D02*
D03*
X-4829Y3974D02*
D03*
X-5539Y3722D02*
D03*
X-5118Y5076D02*
D03*
X-13386Y6719D02*
D03*
X-13691Y6660D02*
D03*
X-13175Y7403D02*
D03*
X-17225Y24435D02*
D03*
X-17034Y22240D02*
D03*
X-13788Y22084D02*
D03*
X-15954Y24419D02*
D03*
X-18051Y17532D02*
D03*
X-11180Y17759D02*
D03*
X-17913Y17802D02*
D03*
X-9538Y7211D02*
D03*
X-9233Y7034D02*
D03*
X-22479Y5180D02*
D03*
X-6196Y3727D02*
D03*
X-22082Y6433D02*
D03*
X-4754Y6286D02*
D03*
X-5777Y7078D02*
D03*
X-11024Y5036D02*
D03*
X-10906Y4406D02*
D03*
X-12870Y39538D02*
D03*
Y39204D02*
D03*
X-22490Y5774D02*
D03*
X-22399Y6361D02*
D03*
X-20569Y7237D02*
D03*
X-22459Y4528D02*
D03*
X-20282Y6822D02*
D03*
X-19085Y4603D02*
D03*
X-20514Y7739D02*
D03*
X-2894Y3185D02*
D03*
X-18701Y2358D02*
D03*
X-17091Y3767D02*
D03*
X-16080Y13452D02*
D03*
X-18674Y8811D02*
D03*
X-19670Y12099D02*
D03*
X-19223Y5202D02*
D03*
X-7303Y16896D02*
D03*
X-13199Y13421D02*
D03*
X-13179Y13825D02*
D03*
X-9171Y11378D02*
D03*
X-9636Y11158D02*
D03*
X-19006Y2358D02*
D03*
X-20058Y2276D02*
D03*
X-20463Y2262D02*
D03*
X-20867D02*
D03*
X-7456Y3712D02*
D03*
X-13623Y9024D02*
D03*
X-12683Y13211D02*
D03*
X-7064Y10932D02*
D03*
X-6846Y10392D02*
D03*
X-7524Y15825D02*
D03*
X-16605Y27315D02*
D03*
X-10547Y9799D02*
D03*
X-11596Y12549D02*
D03*
X-11363Y24844D02*
D03*
X-14140Y23026D02*
D03*
X-12108Y26371D02*
D03*
X-11120Y4181D02*
D03*
X-11663Y3687D02*
D03*
X-11155Y3697D02*
D03*
X-11525Y4140D02*
D03*
X-16749Y21563D02*
D03*
X-17292Y13528D02*
D03*
X-16056Y10665D02*
D03*
X-17142Y14965D02*
D03*
X-10493Y25222D02*
D03*
X-12391Y33370D02*
D03*
X-10797Y35183D02*
D03*
X-10491Y26276D02*
D03*
X-8287Y10108D02*
D03*
X-6856Y9745D02*
D03*
X-11993Y12810D02*
D03*
X-21857Y3719D02*
D03*
X-13531Y34301D02*
D03*
X-13010Y33678D02*
D03*
X-12810Y12713D02*
D03*
X-20651Y10225D02*
D03*
X-19216Y7111D02*
D03*
X-23289Y6942D02*
D03*
X-10837Y5285D02*
D03*
X-11088Y4658D02*
D03*
X-3819Y4333D02*
D03*
X-6255Y7172D02*
D03*
X-5563Y6742D02*
D03*
X-5363Y6965D02*
D03*
X-5157Y6719D02*
D03*
X-3713Y8838D02*
D03*
X-4938Y9283D02*
D03*
X-6879Y11206D02*
D03*
X-9169Y13192D02*
D03*
X-8679Y13218D02*
D03*
X-8022Y13181D02*
D03*
X-12027Y3717D02*
D03*
X-13386Y3697D02*
D03*
X-4534Y10233D02*
D03*
X-4057Y10950D02*
D03*
X-8232Y9698D02*
D03*
X-4004Y3411D02*
D03*
X-3561Y5154D02*
D03*
X-6536Y6774D02*
D03*
X-6125Y6856D02*
D03*
X-7800Y6719D02*
D03*
X-10166Y11036D02*
D03*
X-10066Y13184D02*
D03*
X-10670Y13178D02*
D03*
X-8817Y6844D02*
D03*
X-6467Y10707D02*
D03*
X-3075Y2849D02*
D03*
X-3419Y2920D02*
D03*
X-11408Y6689D02*
D03*
X-8058Y12144D02*
D03*
X-7749Y11971D02*
D03*
X-7440Y6710D02*
D03*
X-9107Y2717D02*
D03*
Y1851D02*
D03*
X-9325Y2502D02*
D03*
X-9107Y2279D02*
D03*
X-9325Y2068D02*
D03*
X-9315Y1600D02*
D03*
X-11221Y34836D02*
D03*
X-11541D02*
D03*
X-14452Y34301D02*
D03*
X-15309Y28241D02*
D03*
Y27313D02*
D03*
X-12177Y30353D02*
D03*
X-7971Y30976D02*
D03*
X-8925Y30333D02*
D03*
X-7580Y9315D02*
D03*
X-19176Y12099D02*
D03*
X-11532Y33280D02*
D03*
X-3063Y2403D02*
D03*
X-3066Y1972D02*
D03*
X-3415Y1778D02*
D03*
Y2200D02*
D03*
X-3410Y2601D02*
D03*
X-12359Y9477D02*
D03*
X-11341Y13178D02*
D03*
X-12007Y13171D02*
D03*
X-11583Y11584D02*
D03*
X-11570Y11140D02*
D03*
Y11984D02*
D03*
X-7936Y8960D02*
D03*
X-10843Y12558D02*
D03*
X-16796Y25987D02*
D03*
X-16477D02*
D03*
Y25347D02*
D03*
Y25667D02*
D03*
X-18268Y27585D02*
D03*
X-17953Y27299D02*
D03*
X-18268Y27280D02*
D03*
X-18268Y27888D02*
D03*
X-11621Y6919D02*
D03*
X-12033Y6944D02*
D03*
X-12776Y6730D02*
D03*
X-11147Y6919D02*
D03*
X-10670Y6935D02*
D03*
X-10158Y6955D02*
D03*
X-10895Y6687D02*
D03*
X-10172Y5899D02*
D03*
X-10412Y6729D02*
D03*
X-10545Y5893D02*
D03*
X23313Y4445D02*
D03*
X23490Y5380D02*
D03*
X23802Y5945D02*
D03*
X23490Y4691D02*
D03*
X22941Y4111D02*
D03*
X23524Y4201D02*
D03*
X23730Y3974D02*
D03*
X23020Y3722D02*
D03*
X23441Y5076D02*
D03*
X15173Y6719D02*
D03*
X14868Y6660D02*
D03*
X15384Y7403D02*
D03*
X11334Y24435D02*
D03*
X11526Y22240D02*
D03*
X14771Y22084D02*
D03*
X12606Y24419D02*
D03*
X10508Y17532D02*
D03*
X17379Y17759D02*
D03*
X10646Y17802D02*
D03*
X19021Y7211D02*
D03*
X19327Y7034D02*
D03*
X6080Y5180D02*
D03*
X22364Y3727D02*
D03*
X6477Y6433D02*
D03*
X23805Y6286D02*
D03*
X22782Y7078D02*
D03*
X17535Y5036D02*
D03*
X17653Y4406D02*
D03*
X15690Y39538D02*
D03*
Y39204D02*
D03*
X6069Y5774D02*
D03*
X6160Y6361D02*
D03*
X7990Y7237D02*
D03*
X6100Y4528D02*
D03*
X8277Y6822D02*
D03*
X9474Y4603D02*
D03*
X8045Y7739D02*
D03*
X25665Y3185D02*
D03*
X9858Y2358D02*
D03*
X11469Y3767D02*
D03*
X12479Y13452D02*
D03*
X9885Y8811D02*
D03*
X8889Y12099D02*
D03*
X9336Y5202D02*
D03*
X21256Y16896D02*
D03*
X15360Y13421D02*
D03*
X15380Y13825D02*
D03*
X19388Y11378D02*
D03*
X18923Y11158D02*
D03*
X9553Y2358D02*
D03*
X8501Y2276D02*
D03*
X8096Y2262D02*
D03*
X7692D02*
D03*
X21103Y3712D02*
D03*
X14936Y9024D02*
D03*
X15876Y13211D02*
D03*
X21495Y10932D02*
D03*
X21713Y10392D02*
D03*
X21035Y15825D02*
D03*
X11954Y27315D02*
D03*
X18012Y9799D02*
D03*
X16963Y12549D02*
D03*
X17196Y24844D02*
D03*
X14420Y23026D02*
D03*
X16451Y26371D02*
D03*
X17439Y4181D02*
D03*
X16896Y3687D02*
D03*
X17404Y3697D02*
D03*
X17034Y4140D02*
D03*
X11810Y21563D02*
D03*
X11267Y13528D02*
D03*
X12503Y10665D02*
D03*
X11417Y14965D02*
D03*
X18067Y25222D02*
D03*
X16168Y33370D02*
D03*
X17762Y35183D02*
D03*
X18068Y26276D02*
D03*
X20272Y10108D02*
D03*
X21703Y9745D02*
D03*
X16566Y12810D02*
D03*
X6702Y3719D02*
D03*
X15028Y34301D02*
D03*
X15549Y33678D02*
D03*
X15749Y12713D02*
D03*
X7908Y10225D02*
D03*
X9343Y7111D02*
D03*
X5270Y6942D02*
D03*
X17722Y5285D02*
D03*
X17471Y4658D02*
D03*
X24740Y4333D02*
D03*
X22304Y7172D02*
D03*
X22996Y6742D02*
D03*
X23196Y6965D02*
D03*
X23402Y6719D02*
D03*
X24846Y8838D02*
D03*
X23621Y9283D02*
D03*
X21681Y11206D02*
D03*
X19390Y13192D02*
D03*
X19880Y13218D02*
D03*
X20537Y13181D02*
D03*
X16532Y3717D02*
D03*
X15173Y3697D02*
D03*
X24025Y10233D02*
D03*
X24502Y10950D02*
D03*
X20328Y9698D02*
D03*
X24555Y3411D02*
D03*
X24998Y5154D02*
D03*
X22023Y6774D02*
D03*
X22434Y6856D02*
D03*
X20759Y6719D02*
D03*
X18393Y11036D02*
D03*
X18493Y13184D02*
D03*
X17889Y13178D02*
D03*
X19742Y6844D02*
D03*
X22092Y10707D02*
D03*
X25484Y2849D02*
D03*
X25140Y2920D02*
D03*
X17151Y6689D02*
D03*
X20501Y12144D02*
D03*
X20811Y11971D02*
D03*
X21119Y6710D02*
D03*
X19453Y2717D02*
D03*
Y1851D02*
D03*
X19234Y2502D02*
D03*
X19453Y2279D02*
D03*
X19234Y2068D02*
D03*
X19244Y1600D02*
D03*
X17338Y34836D02*
D03*
X17018D02*
D03*
X14107Y34301D02*
D03*
X13250Y28241D02*
D03*
Y27313D02*
D03*
X16382Y30353D02*
D03*
X20588Y30976D02*
D03*
X19634Y30333D02*
D03*
X20980Y9315D02*
D03*
X9383Y12099D02*
D03*
X17027Y33280D02*
D03*
X25497Y2403D02*
D03*
X25493Y1972D02*
D03*
X25144Y1778D02*
D03*
Y2200D02*
D03*
X25149Y2601D02*
D03*
X16200Y9477D02*
D03*
X17218Y13178D02*
D03*
X16553Y13171D02*
D03*
X16976Y11584D02*
D03*
X16989Y11140D02*
D03*
Y11984D02*
D03*
X20623Y8960D02*
D03*
X17716Y12558D02*
D03*
X11763Y25987D02*
D03*
X12082D02*
D03*
Y25347D02*
D03*
Y25667D02*
D03*
X10291Y27585D02*
D03*
X10606Y27299D02*
D03*
X10291Y27280D02*
D03*
X10291Y27888D02*
D03*
X16938Y6919D02*
D03*
X16526Y6944D02*
D03*
X15783Y6730D02*
D03*
X17412Y6919D02*
D03*
X17890Y6935D02*
D03*
X18401Y6955D02*
D03*
X17664Y6687D02*
D03*
X18387Y5899D02*
D03*
X18147Y6729D02*
D03*
X18014Y5893D02*
D03*
M02*
