G04*
G04 #@! TF.GenerationSoftware,Altium Limited,Altium Designer,20.1.11 (218)*
G04*
G04 Layer_Physical_Order=3*
G04 Layer_Color=128*
%FSLAX24Y24*%
%MOIN*%
G70*
G04*
G04 #@! TF.SameCoordinates,2582DA11-84A4-45EB-A450-3A0221363A72*
G04*
G04*
G04 #@! TF.FilePolarity,Negative*
G04*
G01*
G75*
%ADD13C,0.0200*%
%ADD14C,0.0100*%
%ADD102C,0.0400*%
%ADD103R,0.1482X0.1547*%
%ADD106R,0.0068X0.1378*%
%ADD107R,0.0137X0.1378*%
%ADD108R,0.0127X0.1378*%
%ADD109R,0.0128X0.1378*%
%ADD111R,0.0148X0.1378*%
%ADD116R,0.0049X0.1033*%
%ADD117O,0.0495X0.0377*%
%ADD118O,0.0357X0.0613*%
%ADD119C,0.0560*%
%ADD120C,0.0869*%
%ADD121C,0.0589*%
%ADD122C,0.0554*%
%ADD123C,0.1420*%
%ADD124C,0.0562*%
%ADD125C,0.0672*%
%ADD126C,0.0790*%
%ADD127C,0.0278*%
%ADD128R,0.5433X0.1547*%
%ADD129R,0.0837X0.0165*%
%ADD130R,0.1781X0.1033*%
%ADD131R,0.0221X0.0837*%
%ADD132R,0.0837X0.0168*%
%ADD133R,0.1033X0.0049*%
%ADD134R,0.0288X0.0837*%
%ADD135C,0.0260*%
G36*
X-638Y-3649D02*
D01*
Y-4156D01*
Y-4165D01*
D01*
D01*
X-968D01*
Y-3649D01*
X-822D01*
X-832Y-3651D01*
X-851Y-3654D01*
X-868Y-3660D01*
X-883Y-3666D01*
X-889Y-3670D01*
X-894Y-3673D01*
X-900Y-3675D01*
X-903Y-3678D01*
X-906Y-3681D01*
X-908Y-3682D01*
X-910Y-3683D01*
X-910Y-3683D01*
X-924Y-3697D01*
X-935Y-3713D01*
X-944Y-3729D01*
X-951Y-3745D01*
X-956Y-3759D01*
X-958Y-3764D01*
X-959Y-3769D01*
X-960Y-3774D01*
X-961Y-3777D01*
X-962Y-3779D01*
Y-3780D01*
X-900Y-3791D01*
X-897Y-3775D01*
X-892Y-3761D01*
X-887Y-3749D01*
X-882Y-3740D01*
X-877Y-3732D01*
X-873Y-3727D01*
X-870Y-3724D01*
X-869Y-3723D01*
X-859Y-3716D01*
X-849Y-3710D01*
X-840Y-3706D01*
X-830Y-3703D01*
X-822Y-3702D01*
X-815Y-3700D01*
X-809D01*
X-796Y-3701D01*
X-784Y-3704D01*
X-774Y-3708D01*
X-765Y-3711D01*
X-759Y-3716D01*
X-754Y-3719D01*
X-750Y-3722D01*
X-749Y-3723D01*
X-741Y-3732D01*
X-736Y-3741D01*
X-732Y-3751D01*
X-729Y-3759D01*
X-728Y-3767D01*
X-726Y-3773D01*
Y-3778D01*
Y-3778D01*
Y-3779D01*
Y-3787D01*
X-728Y-3794D01*
X-731Y-3807D01*
X-736Y-3818D01*
X-742Y-3827D01*
X-748Y-3834D01*
X-753Y-3839D01*
X-757Y-3842D01*
X-757Y-3842D01*
X-758D01*
X-771Y-3849D01*
X-782Y-3854D01*
X-795Y-3858D01*
X-806Y-3860D01*
X-815Y-3861D01*
X-823Y-3863D01*
X-832D01*
X-835Y-3862D01*
X-839D01*
X-846Y-3917D01*
X-837Y-3915D01*
X-828Y-3913D01*
X-821Y-3912D01*
X-814Y-3911D01*
X-809Y-3910D01*
X-803D01*
X-787Y-3912D01*
X-773Y-3915D01*
X-761Y-3919D01*
X-751Y-3924D01*
X-743Y-3929D01*
X-737Y-3934D01*
X-733Y-3936D01*
X-732Y-3938D01*
X-722Y-3949D01*
X-715Y-3961D01*
X-710Y-3972D01*
X-707Y-3984D01*
X-705Y-3993D01*
X-704Y-4001D01*
X-703Y-4004D01*
Y-4006D01*
Y-4008D01*
Y-4009D01*
X-705Y-4025D01*
X-709Y-4039D01*
X-713Y-4052D01*
X-719Y-4063D01*
X-725Y-4071D01*
X-729Y-4078D01*
X-733Y-4082D01*
X-734Y-4084D01*
X-746Y-4094D01*
X-758Y-4101D01*
X-771Y-4106D01*
X-782Y-4110D01*
X-792Y-4112D01*
X-800Y-4113D01*
X-803Y-4114D01*
X-808D01*
X-821Y-4113D01*
X-833Y-4110D01*
X-844Y-4106D01*
X-853Y-4102D01*
X-860Y-4098D01*
X-866Y-4095D01*
X-869Y-4092D01*
X-870Y-4091D01*
X-879Y-4081D01*
X-886Y-4069D01*
X-893Y-4057D01*
X-898Y-4044D01*
X-902Y-4033D01*
X-903Y-4028D01*
X-904Y-4023D01*
X-905Y-4020D01*
X-905Y-4017D01*
X-906Y-4015D01*
Y-4014D01*
X-968Y-4022D01*
X-967Y-4034D01*
X-964Y-4045D01*
X-958Y-4065D01*
X-950Y-4083D01*
X-945Y-4090D01*
X-941Y-4098D01*
X-937Y-4104D01*
X-932Y-4109D01*
X-929Y-4114D01*
X-925Y-4118D01*
X-923Y-4121D01*
X-921Y-4123D01*
X-919Y-4125D01*
X-919Y-4125D01*
X-910Y-4132D01*
X-901Y-4138D01*
X-892Y-4143D01*
X-883Y-4148D01*
X-865Y-4155D01*
X-847Y-4160D01*
X-839Y-4161D01*
X-832Y-4162D01*
X-825Y-4163D01*
X-819Y-4164D01*
X-815Y-4165D01*
X-808D01*
X-795Y-4164D01*
X-782Y-4162D01*
X-770Y-4160D01*
X-758Y-4157D01*
X-747Y-4154D01*
X-738Y-4150D01*
X-728Y-4146D01*
X-720Y-4141D01*
X-712Y-4138D01*
X-706Y-4133D01*
X-700Y-4130D01*
X-695Y-4126D01*
X-692Y-4123D01*
X-689Y-4121D01*
X-687Y-4119D01*
X-687Y-4119D01*
X-678Y-4110D01*
X-671Y-4100D01*
X-664Y-4091D01*
X-658Y-4082D01*
X-654Y-4073D01*
X-650Y-4063D01*
X-644Y-4046D01*
X-642Y-4038D01*
X-641Y-4030D01*
X-639Y-4024D01*
X-639Y-4018D01*
X-638Y-4014D01*
Y-4007D01*
X-639Y-3990D01*
X-641Y-3974D01*
X-646Y-3960D01*
X-650Y-3948D01*
X-655Y-3939D01*
X-659Y-3931D01*
X-662Y-3927D01*
X-663Y-3925D01*
X-673Y-3915D01*
X-684Y-3905D01*
X-695Y-3898D01*
X-707Y-3892D01*
X-717Y-3888D01*
X-725Y-3885D01*
X-728Y-3884D01*
X-730Y-3883D01*
X-732Y-3882D01*
X-733D01*
X-720Y-3876D01*
X-710Y-3869D01*
X-701Y-3862D01*
X-694Y-3856D01*
X-688Y-3850D01*
X-684Y-3845D01*
X-682Y-3842D01*
X-681Y-3840D01*
X-675Y-3830D01*
X-671Y-3820D01*
X-667Y-3810D01*
X-665Y-3800D01*
X-663Y-3792D01*
X-663Y-3786D01*
Y-3782D01*
Y-3780D01*
X-663Y-3768D01*
X-666Y-3756D01*
X-668Y-3745D01*
X-672Y-3735D01*
X-676Y-3727D01*
X-679Y-3721D01*
X-681Y-3717D01*
X-682Y-3716D01*
X-689Y-3705D01*
X-698Y-3695D01*
X-706Y-3687D01*
X-715Y-3680D01*
X-722Y-3675D01*
X-729Y-3670D01*
X-733Y-3668D01*
X-734Y-3667D01*
X-735D01*
X-748Y-3662D01*
X-761Y-3657D01*
X-774Y-3654D01*
X-786Y-3651D01*
X-795Y-3650D01*
X-803Y-3649D01*
X-638D01*
D01*
D02*
G37*
G36*
X-968Y-4165D02*
D01*
Y-4156D01*
Y-4165D01*
D02*
G37*
D13*
X108975Y50717D02*
Y49717D01*
X109642D01*
X109975D02*
Y50383D01*
X110308Y50717D01*
X110641Y50383D01*
Y49717D01*
Y50217D01*
X109975D01*
X110975Y50717D02*
Y50550D01*
X111308Y50217D01*
X111641Y50550D01*
Y50717D01*
X111308Y50217D02*
Y49717D01*
X112641Y50717D02*
X111974D01*
Y49717D01*
X112641D01*
X111974Y50217D02*
X112307D01*
X112974Y49717D02*
Y50717D01*
X113474D01*
X113640Y50550D01*
Y50217D01*
X113474Y50050D01*
X112974D01*
X113307D02*
X113640Y49717D01*
X114973Y50550D02*
X115140Y50717D01*
X115473D01*
X115640Y50550D01*
Y50383D01*
X115473Y50217D01*
X115306D01*
X115473D01*
X115640Y50050D01*
Y49884D01*
X115473Y49717D01*
X115140D01*
X114973Y49884D01*
X115973Y50383D02*
X116140D01*
Y50217D01*
X115973D01*
Y50383D01*
Y49884D02*
X116140D01*
Y49717D01*
X115973D01*
Y49884D01*
X117806Y49717D02*
Y50717D01*
X118305D01*
X118472Y50550D01*
Y50217D01*
X118305Y50050D01*
X117806D01*
X118805Y50717D02*
Y49717D01*
X119139Y50050D01*
X119472Y49717D01*
Y50717D01*
X119805Y49717D02*
Y50717D01*
X120305D01*
X120471Y50550D01*
Y50217D01*
X120305Y50050D01*
X119805D01*
X120138D02*
X120471Y49717D01*
D14*
X-5295Y4111D02*
X-4912Y4494D01*
X-6296Y4111D02*
X-5295D01*
X-6433Y3975D02*
X-6296Y4111D01*
X-6433Y-0D02*
Y3975D01*
X-5340Y4922D02*
X-4912Y4494D01*
X-6977Y4922D02*
X-5340D01*
X-15736Y25227D02*
X-15482Y25481D01*
X-15917Y25227D02*
X-15736D01*
X-19360Y23898D02*
X-18031Y25227D01*
X-15917Y25227D01*
X-23740Y8329D02*
X-23740Y19517D01*
X-19360Y23898D01*
X-23740Y1819D02*
X-23740Y8329D01*
X-15482Y25481D02*
Y26750D01*
X-8228Y4800D02*
X-7239Y3810D01*
X-8228Y4800D02*
Y6827D01*
X-7239Y2904D02*
Y3810D01*
X-23740Y1819D02*
X-15413Y1819D01*
X-28075Y26341D02*
X-21310D01*
X-7610Y5556D02*
X-6977Y4922D01*
X-7610Y5556D02*
Y6845D01*
X-7740Y6975D02*
X-7610Y6845D01*
X-8081Y6975D02*
X-7740D01*
X-8228Y6827D02*
X-8081Y6975D01*
X-8794Y1349D02*
X-7239Y2904D01*
X-9457Y1349D02*
X-8794D01*
X-9656Y1548D02*
X-9457Y1349D01*
X-9656Y1548D02*
Y4021D01*
X-10315Y4681D02*
X-9656Y4021D01*
X-11112Y4681D02*
X-10315D01*
X-11112Y4386D02*
Y4681D01*
Y4386D02*
X-10890Y4163D01*
Y3850D02*
Y4163D01*
X-11347Y3393D02*
X-10890Y3850D01*
X-13511Y3393D02*
X-11347D01*
X-13738Y3620D02*
X-13511Y3393D01*
X-13738Y3620D02*
Y4058D01*
X-13544Y4253D01*
Y6748D01*
X-13732Y6937D02*
X-13544Y6748D01*
X-14278Y6937D02*
X-13732D01*
X-14655Y6560D02*
X-14278Y6937D01*
X-14655Y2577D02*
Y6560D01*
X-15413Y1819D02*
X-14655Y2577D01*
X-21310Y26341D02*
X-20607Y27045D01*
X-15777D02*
X-15482Y26750D01*
X-20607Y27045D02*
X-15777D01*
X23264Y4111D02*
X23647Y4494D01*
X22263Y4111D02*
X23264D01*
X22127Y3975D02*
X22263Y4111D01*
X22127Y-0D02*
Y3975D01*
X23219Y4922D02*
X23647Y4494D01*
X21582Y4922D02*
X23219D01*
X12823Y25227D02*
X13077Y25481D01*
X12642Y25227D02*
X12823D01*
X9199Y23898D02*
X10529Y25227D01*
X12642Y25227D01*
X4819Y8329D02*
X4819Y19517D01*
X9199Y23898D01*
X4819Y1819D02*
X4819Y8329D01*
X13077Y25481D02*
Y26750D01*
X20331Y4800D02*
X21320Y3810D01*
X20331Y4800D02*
Y6827D01*
X21320Y2904D02*
Y3810D01*
X4819Y1819D02*
X13146Y1819D01*
X484Y26341D02*
X7249D01*
X20949Y5556D02*
X21582Y4922D01*
X20949Y5556D02*
Y6845D01*
X20819Y6975D02*
X20949Y6845D01*
X20478Y6975D02*
X20819D01*
X20331Y6827D02*
X20478Y6975D01*
X19765Y1349D02*
X21320Y2904D01*
X19103Y1349D02*
X19765D01*
X18904Y1548D02*
X19103Y1349D01*
X18904Y1548D02*
Y4021D01*
X18244Y4681D02*
X18904Y4021D01*
X17447Y4681D02*
X18244D01*
X17447Y4386D02*
Y4681D01*
Y4386D02*
X17669Y4163D01*
Y3850D02*
Y4163D01*
X17212Y3393D02*
X17669Y3850D01*
X15048Y3393D02*
X17212D01*
X14821Y3620D02*
X15048Y3393D01*
X14821Y3620D02*
Y4058D01*
X15016Y4253D01*
Y6748D01*
X14827Y6937D02*
X15016Y6748D01*
X14281Y6937D02*
X14827D01*
X13904Y6560D02*
X14281Y6937D01*
X13904Y2577D02*
Y6560D01*
X13146Y1819D02*
X13904Y2577D01*
X7249Y26341D02*
X7952Y27045D01*
X12782D02*
X13077Y26750D01*
X7952Y27045D02*
X12782D01*
D102*
X35000Y47460D02*
X35000Y-5000D01*
X-35000Y47460D02*
X35000D01*
X-35000D02*
X-35000Y-5000D01*
X35000D01*
X-28058Y788D02*
G03*
X-27270Y0I787J0D01*
G01*
X-1287Y2D02*
G03*
X-500Y789I0J787D01*
G01*
X-500Y41667D02*
G03*
X-1287Y42455I-787J0D01*
G01*
X-27272Y42457D02*
G03*
X-28059Y41669I0J-787D01*
G01*
X-28058Y788D01*
X-27272Y42457D02*
X-1287D01*
X-1287Y42455D01*
X-500Y41667D02*
X-500D01*
X-500D02*
X-500Y787D01*
Y789D01*
X-1287Y0D02*
X-1287Y2D01*
X-27272Y0D02*
X-1287D01*
X-27272D02*
X-27270Y0D01*
X502Y788D02*
G03*
X1289Y0I787J0D01*
G01*
X27272Y2D02*
G03*
X28059Y789I0J787D01*
G01*
X28059Y41667D02*
G03*
X27272Y42455I-787J0D01*
G01*
X1287Y42457D02*
G03*
X500Y41669I0J-787D01*
G01*
X502Y788D01*
X1287Y42457D02*
X27272D01*
X27272Y42455D01*
X28059Y41667D02*
X28059D01*
X28059D02*
X28059Y787D01*
Y789D01*
X27272Y0D02*
X27272Y2D01*
X1287Y0D02*
X27272D01*
X1287D02*
X1289Y0D01*
D103*
X-4521Y-4162D02*
D03*
D106*
X-3750Y-4078D02*
D03*
D107*
X-3548D02*
D03*
D108*
X-3356D02*
D03*
D109*
X-3189Y-4078D02*
D03*
D111*
X-295Y-4078D02*
D03*
D116*
X-1329Y-3906D02*
D03*
X-2214Y-3906D02*
D03*
D117*
X-15266Y40819D02*
D03*
X-13298D02*
D03*
X13293D02*
D03*
X15261D02*
D03*
D118*
X-15660Y41882D02*
D03*
X-12904D02*
D03*
X12899D02*
D03*
X15655D02*
D03*
D119*
X-21221Y32396D02*
D03*
Y33396D02*
D03*
X7338Y32396D02*
D03*
Y33396D02*
D03*
D120*
X-20137Y15059D02*
D03*
Y17070D02*
D03*
X8422Y15059D02*
D03*
Y17070D02*
D03*
D121*
X-9272Y23067D02*
D03*
X-9258Y24254D02*
D03*
X-19488Y25911D02*
D03*
Y29067D02*
D03*
Y30646D02*
D03*
X-7228Y32288D02*
D03*
X-9078D02*
D03*
X-21326Y35479D02*
D03*
X-15300D02*
D03*
X-15052Y31268D02*
D03*
X19287Y23067D02*
D03*
X19301Y24254D02*
D03*
X9071Y25911D02*
D03*
Y29067D02*
D03*
Y30646D02*
D03*
X21331Y32288D02*
D03*
X19481D02*
D03*
X7233Y35479D02*
D03*
X13259D02*
D03*
X13507Y31268D02*
D03*
D122*
X-1785Y40049D02*
D03*
X-2785Y39049D02*
D03*
Y40049D02*
D03*
X-1785Y39049D02*
D03*
Y37049D02*
D03*
Y38049D02*
D03*
Y36049D02*
D03*
X-2785Y37049D02*
D03*
Y38049D02*
D03*
Y36049D02*
D03*
X-1785Y34049D02*
D03*
Y35049D02*
D03*
Y32049D02*
D03*
Y33049D02*
D03*
X-2785Y31049D02*
D03*
Y32049D02*
D03*
X-1785Y31049D02*
D03*
Y29049D02*
D03*
Y30049D02*
D03*
Y28049D02*
D03*
Y27049D02*
D03*
X-2785Y30049D02*
D03*
X-1785Y26049D02*
D03*
X-2785Y34049D02*
D03*
Y35049D02*
D03*
Y33049D02*
D03*
Y28049D02*
D03*
Y29049D02*
D03*
Y26049D02*
D03*
Y27049D02*
D03*
X-4785Y39659D02*
D03*
Y37659D02*
D03*
Y38659D02*
D03*
X-5785Y39659D02*
D03*
Y38659D02*
D03*
X-4785Y36659D02*
D03*
Y35659D02*
D03*
X-5785Y37659D02*
D03*
Y36659D02*
D03*
X-4785Y33659D02*
D03*
Y34659D02*
D03*
Y31659D02*
D03*
Y32659D02*
D03*
X-5785Y33659D02*
D03*
X-4785Y26059D02*
D03*
Y27059D02*
D03*
Y25059D02*
D03*
Y29059D02*
D03*
Y30659D02*
D03*
Y28059D02*
D03*
X-5785Y34659D02*
D03*
Y35659D02*
D03*
Y31659D02*
D03*
Y32659D02*
D03*
Y30659D02*
D03*
Y26059D02*
D03*
Y27059D02*
D03*
Y25059D02*
D03*
Y29059D02*
D03*
Y28059D02*
D03*
X-1785Y21049D02*
D03*
Y22049D02*
D03*
Y18049D02*
D03*
Y19049D02*
D03*
Y24049D02*
D03*
Y25049D02*
D03*
Y23049D02*
D03*
X-2785D02*
D03*
Y24049D02*
D03*
X-1785Y20049D02*
D03*
X-2785Y22049D02*
D03*
Y20049D02*
D03*
Y21049D02*
D03*
Y19049D02*
D03*
X-1785Y16049D02*
D03*
Y17049D02*
D03*
Y15049D02*
D03*
X-2785Y17049D02*
D03*
Y18049D02*
D03*
Y16049D02*
D03*
X-1785Y13049D02*
D03*
Y14049D02*
D03*
Y11049D02*
D03*
Y12049D02*
D03*
X-2785Y14049D02*
D03*
Y15049D02*
D03*
Y12049D02*
D03*
X-1785Y6049D02*
D03*
Y7049D02*
D03*
Y5049D02*
D03*
Y9049D02*
D03*
Y10049D02*
D03*
Y8049D02*
D03*
X-2785Y7049D02*
D03*
Y8049D02*
D03*
Y5049D02*
D03*
Y6049D02*
D03*
Y10049D02*
D03*
Y13049D02*
D03*
Y9049D02*
D03*
Y25049D02*
D03*
X-4785Y24059D02*
D03*
Y22059D02*
D03*
Y23059D02*
D03*
Y20059D02*
D03*
Y21059D02*
D03*
Y19059D02*
D03*
X-5785Y23059D02*
D03*
Y24059D02*
D03*
Y22059D02*
D03*
Y21059D02*
D03*
Y19059D02*
D03*
Y20059D02*
D03*
Y18059D02*
D03*
X-4785Y17059D02*
D03*
Y18059D02*
D03*
Y15059D02*
D03*
Y16059D02*
D03*
X-5785D02*
D03*
Y17059D02*
D03*
Y15059D02*
D03*
X-4785Y13059D02*
D03*
Y14059D02*
D03*
X-2785Y11049D02*
D03*
X-5785Y13059D02*
D03*
Y14059D02*
D03*
X-22785Y36049D02*
D03*
Y34049D02*
D03*
Y35049D02*
D03*
X-23785Y33049D02*
D03*
Y34049D02*
D03*
X-22785Y33049D02*
D03*
Y32049D02*
D03*
X-23785Y35049D02*
D03*
Y36049D02*
D03*
Y32049D02*
D03*
X-22785Y30049D02*
D03*
Y31049D02*
D03*
Y29049D02*
D03*
Y26049D02*
D03*
Y27049D02*
D03*
Y25049D02*
D03*
Y24049D02*
D03*
Y23049D02*
D03*
X-23785D02*
D03*
X-22785Y22049D02*
D03*
X-23785Y30049D02*
D03*
Y31049D02*
D03*
Y29049D02*
D03*
Y27049D02*
D03*
Y25049D02*
D03*
Y26049D02*
D03*
Y24049D02*
D03*
X-25785Y39049D02*
D03*
Y40049D02*
D03*
Y37049D02*
D03*
X-26785Y39049D02*
D03*
Y40049D02*
D03*
X-25785Y38049D02*
D03*
Y36049D02*
D03*
Y35049D02*
D03*
X-26785D02*
D03*
Y36049D02*
D03*
Y34049D02*
D03*
Y38049D02*
D03*
Y37049D02*
D03*
X-25785Y30049D02*
D03*
Y31049D02*
D03*
Y28049D02*
D03*
Y29049D02*
D03*
Y33049D02*
D03*
Y34049D02*
D03*
Y32049D02*
D03*
Y27049D02*
D03*
Y24049D02*
D03*
Y25049D02*
D03*
Y23049D02*
D03*
X-26785Y29049D02*
D03*
Y30049D02*
D03*
Y27049D02*
D03*
Y28049D02*
D03*
Y32049D02*
D03*
Y33049D02*
D03*
Y31049D02*
D03*
X-25785Y26049D02*
D03*
X-26785D02*
D03*
X-25785Y22049D02*
D03*
X-26785Y24049D02*
D03*
Y25049D02*
D03*
Y23049D02*
D03*
X-22785Y20049D02*
D03*
Y21049D02*
D03*
Y18049D02*
D03*
Y19049D02*
D03*
Y15049D02*
D03*
Y14049D02*
D03*
Y13049D02*
D03*
X-23785Y21049D02*
D03*
Y22049D02*
D03*
Y18049D02*
D03*
Y20049D02*
D03*
Y17049D02*
D03*
X-22785D02*
D03*
Y16049D02*
D03*
X-23785Y15049D02*
D03*
Y16049D02*
D03*
Y14049D02*
D03*
Y13049D02*
D03*
X-25785Y20049D02*
D03*
Y21049D02*
D03*
X-23785Y19049D02*
D03*
X-25785D02*
D03*
Y17049D02*
D03*
Y18049D02*
D03*
Y16049D02*
D03*
X-26785Y18049D02*
D03*
Y19049D02*
D03*
Y16049D02*
D03*
Y17049D02*
D03*
Y21049D02*
D03*
Y22049D02*
D03*
Y20049D02*
D03*
X-25785Y14049D02*
D03*
Y15049D02*
D03*
Y12049D02*
D03*
Y13049D02*
D03*
Y11049D02*
D03*
X-26785Y12049D02*
D03*
X-25785Y10049D02*
D03*
Y8049D02*
D03*
Y9049D02*
D03*
Y7049D02*
D03*
Y5049D02*
D03*
Y6049D02*
D03*
X-26785Y5049D02*
D03*
Y10049D02*
D03*
Y11049D02*
D03*
Y9049D02*
D03*
Y14049D02*
D03*
Y15049D02*
D03*
Y13049D02*
D03*
Y7049D02*
D03*
Y8049D02*
D03*
Y6049D02*
D03*
X26774Y40049D02*
D03*
X25774Y39049D02*
D03*
Y40049D02*
D03*
X26774Y39049D02*
D03*
Y37049D02*
D03*
Y38049D02*
D03*
Y36049D02*
D03*
X25774Y37049D02*
D03*
Y38049D02*
D03*
Y36049D02*
D03*
X26774Y34049D02*
D03*
Y35049D02*
D03*
Y32049D02*
D03*
Y33049D02*
D03*
X25774Y31049D02*
D03*
Y32049D02*
D03*
X26774Y31049D02*
D03*
Y29049D02*
D03*
Y30049D02*
D03*
Y28049D02*
D03*
Y27049D02*
D03*
X25774Y30049D02*
D03*
X26774Y26049D02*
D03*
X25774Y34049D02*
D03*
Y35049D02*
D03*
Y33049D02*
D03*
Y28049D02*
D03*
Y29049D02*
D03*
Y26049D02*
D03*
Y27049D02*
D03*
X23774Y39659D02*
D03*
Y37659D02*
D03*
Y38659D02*
D03*
X22774Y39659D02*
D03*
Y38659D02*
D03*
X23774Y36659D02*
D03*
Y35659D02*
D03*
X22774Y37659D02*
D03*
Y36659D02*
D03*
X23774Y33659D02*
D03*
Y34659D02*
D03*
Y31659D02*
D03*
Y32659D02*
D03*
X22774Y33659D02*
D03*
X23774Y26059D02*
D03*
Y27059D02*
D03*
Y25059D02*
D03*
Y29059D02*
D03*
Y30659D02*
D03*
Y28059D02*
D03*
X22774Y34659D02*
D03*
Y35659D02*
D03*
Y31659D02*
D03*
Y32659D02*
D03*
Y30659D02*
D03*
Y26059D02*
D03*
Y27059D02*
D03*
Y25059D02*
D03*
Y29059D02*
D03*
Y28059D02*
D03*
X26774Y21049D02*
D03*
Y22049D02*
D03*
Y18049D02*
D03*
Y19049D02*
D03*
Y24049D02*
D03*
Y25049D02*
D03*
Y23049D02*
D03*
X25774D02*
D03*
Y24049D02*
D03*
X26774Y20049D02*
D03*
X25774Y22049D02*
D03*
Y20049D02*
D03*
Y21049D02*
D03*
Y19049D02*
D03*
X26774Y16049D02*
D03*
Y17049D02*
D03*
Y15049D02*
D03*
X25774Y17049D02*
D03*
Y18049D02*
D03*
Y16049D02*
D03*
X26774Y13049D02*
D03*
Y14049D02*
D03*
Y11049D02*
D03*
Y12049D02*
D03*
X25774Y14049D02*
D03*
Y15049D02*
D03*
Y12049D02*
D03*
X26774Y6049D02*
D03*
Y7049D02*
D03*
Y5049D02*
D03*
Y9049D02*
D03*
Y10049D02*
D03*
Y8049D02*
D03*
X25774Y7049D02*
D03*
Y8049D02*
D03*
Y5049D02*
D03*
Y6049D02*
D03*
Y10049D02*
D03*
Y13049D02*
D03*
Y9049D02*
D03*
Y25049D02*
D03*
X23774Y24059D02*
D03*
Y22059D02*
D03*
Y23059D02*
D03*
Y20059D02*
D03*
Y21059D02*
D03*
Y19059D02*
D03*
X22774Y23059D02*
D03*
Y24059D02*
D03*
Y22059D02*
D03*
Y21059D02*
D03*
Y19059D02*
D03*
Y20059D02*
D03*
Y18059D02*
D03*
X23774Y17059D02*
D03*
Y18059D02*
D03*
Y15059D02*
D03*
Y16059D02*
D03*
X22774D02*
D03*
Y17059D02*
D03*
Y15059D02*
D03*
X23774Y13059D02*
D03*
Y14059D02*
D03*
X25774Y11049D02*
D03*
X22774Y13059D02*
D03*
Y14059D02*
D03*
X5774Y36049D02*
D03*
Y34049D02*
D03*
Y35049D02*
D03*
X4774Y33049D02*
D03*
Y34049D02*
D03*
X5774Y33049D02*
D03*
Y32049D02*
D03*
X4774Y35049D02*
D03*
Y36049D02*
D03*
Y32049D02*
D03*
X5774Y30049D02*
D03*
Y31049D02*
D03*
Y29049D02*
D03*
Y26049D02*
D03*
Y27049D02*
D03*
Y25049D02*
D03*
Y24049D02*
D03*
Y23049D02*
D03*
X4774D02*
D03*
X5774Y22049D02*
D03*
X4774Y30049D02*
D03*
Y31049D02*
D03*
Y29049D02*
D03*
Y27049D02*
D03*
Y25049D02*
D03*
Y26049D02*
D03*
Y24049D02*
D03*
X2774Y39049D02*
D03*
Y40049D02*
D03*
Y37049D02*
D03*
X1774Y39049D02*
D03*
Y40049D02*
D03*
X2774Y38049D02*
D03*
Y36049D02*
D03*
Y35049D02*
D03*
X1774D02*
D03*
Y36049D02*
D03*
Y34049D02*
D03*
Y38049D02*
D03*
Y37049D02*
D03*
X2774Y30049D02*
D03*
Y31049D02*
D03*
Y28049D02*
D03*
Y29049D02*
D03*
Y33049D02*
D03*
Y34049D02*
D03*
Y32049D02*
D03*
Y27049D02*
D03*
Y24049D02*
D03*
Y25049D02*
D03*
Y23049D02*
D03*
X1774Y29049D02*
D03*
Y30049D02*
D03*
Y27049D02*
D03*
Y28049D02*
D03*
Y32049D02*
D03*
Y33049D02*
D03*
Y31049D02*
D03*
X2774Y26049D02*
D03*
X1774D02*
D03*
X2774Y22049D02*
D03*
X1774Y24049D02*
D03*
Y25049D02*
D03*
Y23049D02*
D03*
X5774Y20049D02*
D03*
Y21049D02*
D03*
Y18049D02*
D03*
Y19049D02*
D03*
Y15049D02*
D03*
Y14049D02*
D03*
Y13049D02*
D03*
X4774Y21049D02*
D03*
Y22049D02*
D03*
Y18049D02*
D03*
Y20049D02*
D03*
Y17049D02*
D03*
X5774D02*
D03*
Y16049D02*
D03*
X4774Y15049D02*
D03*
Y16049D02*
D03*
Y14049D02*
D03*
Y13049D02*
D03*
X2774Y20049D02*
D03*
Y21049D02*
D03*
X4774Y19049D02*
D03*
X2774D02*
D03*
Y17049D02*
D03*
Y18049D02*
D03*
Y16049D02*
D03*
X1774Y18049D02*
D03*
Y19049D02*
D03*
Y16049D02*
D03*
Y17049D02*
D03*
Y21049D02*
D03*
Y22049D02*
D03*
Y20049D02*
D03*
X2774Y14049D02*
D03*
Y15049D02*
D03*
Y12049D02*
D03*
Y13049D02*
D03*
Y11049D02*
D03*
X1774Y12049D02*
D03*
X2774Y10049D02*
D03*
Y8049D02*
D03*
Y9049D02*
D03*
Y7049D02*
D03*
Y5049D02*
D03*
Y6049D02*
D03*
X1774Y5049D02*
D03*
Y10049D02*
D03*
Y11049D02*
D03*
Y9049D02*
D03*
Y14049D02*
D03*
Y15049D02*
D03*
Y13049D02*
D03*
Y7049D02*
D03*
Y8049D02*
D03*
Y6049D02*
D03*
D123*
X-4785Y41159D02*
D03*
X-10785Y21159D02*
D03*
X-5285Y11659D02*
D03*
X-23785Y41659D02*
D03*
X-23285Y11659D02*
D03*
X23774Y41159D02*
D03*
X17774Y21159D02*
D03*
X23274Y11659D02*
D03*
X4774Y41659D02*
D03*
X5274Y11659D02*
D03*
D124*
X-21521Y27913D02*
D03*
Y25913D02*
D03*
X-19159Y35479D02*
D03*
X-18159D02*
D03*
X-17159D02*
D03*
X7038Y27913D02*
D03*
Y25913D02*
D03*
X9400Y35479D02*
D03*
X10400D02*
D03*
X11400D02*
D03*
D125*
X-21311Y40102D02*
D03*
X-19343D02*
D03*
X7248D02*
D03*
X9216D02*
D03*
D126*
X-8354Y39077D02*
D03*
X-12022Y27479D02*
D03*
X-7338Y23618D02*
D03*
X-10613Y28675D02*
D03*
X-7798D02*
D03*
X-9205Y27479D02*
D03*
X-26349Y1225D02*
D03*
X-1825Y1270D02*
D03*
X20205Y39077D02*
D03*
X16537Y27479D02*
D03*
X21221Y23618D02*
D03*
X17946Y28675D02*
D03*
X20761D02*
D03*
X19354Y27479D02*
D03*
X2211Y1225D02*
D03*
X26734Y1270D02*
D03*
D127*
X-5069Y5380D02*
D03*
X-4757Y5945D02*
D03*
X-5069Y4691D02*
D03*
X-5618Y4111D02*
D03*
X-4829Y3974D02*
D03*
X-5539Y3722D02*
D03*
X-5118Y5076D02*
D03*
X-13175Y7403D02*
D03*
X-17225Y24435D02*
D03*
X-15748Y25646D02*
D03*
X-19890Y31974D02*
D03*
X-17914Y23854D02*
D03*
X-17034Y22240D02*
D03*
X-18279Y18478D02*
D03*
X-13788Y22084D02*
D03*
X-15954Y24419D02*
D03*
X-18051Y17532D02*
D03*
X-10689Y23293D02*
D03*
X-17913Y17802D02*
D03*
X-10679Y17744D02*
D03*
X-9538Y7211D02*
D03*
X-9233Y7034D02*
D03*
X-9534Y5319D02*
D03*
Y6137D02*
D03*
Y5695D02*
D03*
Y6500D02*
D03*
X-14127Y7339D02*
D03*
X-12962Y8391D02*
D03*
X-12966Y7984D02*
D03*
X-6196Y3727D02*
D03*
X-13463Y38447D02*
D03*
X-18544Y21346D02*
D03*
X-4754Y6286D02*
D03*
X-5777Y7078D02*
D03*
X-11024Y5036D02*
D03*
X-14456Y39498D02*
D03*
X-12870Y39538D02*
D03*
Y39204D02*
D03*
X-20217Y3540D02*
D03*
X-20689Y656D02*
D03*
X-22579D02*
D03*
X-16764Y943D02*
D03*
X-22050Y2743D02*
D03*
X-21286Y3186D02*
D03*
X-21301Y2477D02*
D03*
X-19912Y3234D02*
D03*
X-20217D02*
D03*
X-22490Y5774D02*
D03*
X-22399Y6361D02*
D03*
X-20569Y7237D02*
D03*
X-20282Y6822D02*
D03*
X-19085Y4603D02*
D03*
X-20514Y7739D02*
D03*
X-2894Y3185D02*
D03*
X-17091Y3363D02*
D03*
Y2966D02*
D03*
X-16080Y13452D02*
D03*
X-18674Y8811D02*
D03*
X-19670Y12099D02*
D03*
X-22585Y7135D02*
D03*
X-19262Y9898D02*
D03*
X-12751Y15427D02*
D03*
X-7303Y16896D02*
D03*
X-13199Y13421D02*
D03*
X-13179Y13825D02*
D03*
X-9171Y11378D02*
D03*
X-9636Y11158D02*
D03*
X-16103Y16255D02*
D03*
X-19287Y1268D02*
D03*
X-19670D02*
D03*
X-20689Y1216D02*
D03*
X-22579Y1201D02*
D03*
X-23159Y2813D02*
D03*
X-23551Y3819D02*
D03*
X-21770Y21734D02*
D03*
X-18629Y19694D02*
D03*
X-21770Y19372D02*
D03*
Y20159D02*
D03*
Y20946D02*
D03*
X-18256Y6589D02*
D03*
X-12349Y2461D02*
D03*
X-13494Y2463D02*
D03*
X-7622Y2454D02*
D03*
X-6478Y2452D02*
D03*
X-9183Y3667D02*
D03*
X-12683Y13211D02*
D03*
X-12234Y7358D02*
D03*
X-14443Y16255D02*
D03*
X-17912Y16056D02*
D03*
X-17353Y25987D02*
D03*
X-17673D02*
D03*
X-17992D02*
D03*
X-15178Y26543D02*
D03*
X-16634Y29042D02*
D03*
X-16329D02*
D03*
X-16025Y29041D02*
D03*
X-16024Y28736D02*
D03*
Y28431D02*
D03*
X-16703Y30535D02*
D03*
X-13133Y12051D02*
D03*
Y11701D02*
D03*
X-9303Y15484D02*
D03*
X-7064Y10932D02*
D03*
X-6846Y10392D02*
D03*
X-7524Y15825D02*
D03*
X-14915Y7771D02*
D03*
X-17136Y27358D02*
D03*
X-17451D02*
D03*
X-16910Y27910D02*
D03*
Y27595D02*
D03*
X-10547Y9799D02*
D03*
X-11596Y12549D02*
D03*
X-15488Y22453D02*
D03*
X-11663Y3687D02*
D03*
X-11155Y3697D02*
D03*
X-11525Y4140D02*
D03*
X-16749Y21563D02*
D03*
X-17292Y13528D02*
D03*
X-16056Y10665D02*
D03*
X-17142Y14965D02*
D03*
X-11967Y25457D02*
D03*
X-12391Y33370D02*
D03*
X-8287Y10108D02*
D03*
X-6856Y9745D02*
D03*
X-11993Y12810D02*
D03*
X-21874Y16556D02*
D03*
X-21852Y17556D02*
D03*
X-19025Y3958D02*
D03*
X-10787Y24887D02*
D03*
X-18680Y30010D02*
D03*
X-18695Y29648D02*
D03*
X-24429Y5616D02*
D03*
X-23687Y5737D02*
D03*
X-24329Y4368D02*
D03*
X-13123Y29166D02*
D03*
Y28241D02*
D03*
X-13009Y34142D02*
D03*
X-11979Y25814D02*
D03*
X-15276Y21208D02*
D03*
X-23675Y6224D02*
D03*
X-20651Y10225D02*
D03*
X-19225Y6726D02*
D03*
X-24366Y4990D02*
D03*
X-24616Y4036D02*
D03*
X-24687Y5234D02*
D03*
X-24674Y4603D02*
D03*
X-23289Y6942D02*
D03*
X-10837Y5285D02*
D03*
X-9946Y5232D02*
D03*
X-11088Y4658D02*
D03*
X-19006Y2909D02*
D03*
X-18168Y5199D02*
D03*
X-13174Y5211D02*
D03*
Y5763D02*
D03*
X-12622D02*
D03*
Y5211D02*
D03*
X-3819Y4333D02*
D03*
X-13765Y10257D02*
D03*
X-13767Y9729D02*
D03*
X-6180Y5763D02*
D03*
Y5211D02*
D03*
Y4660D02*
D03*
X-6731D02*
D03*
X-7283D02*
D03*
Y5211D02*
D03*
Y5763D02*
D03*
X-6731D02*
D03*
Y5211D02*
D03*
X-12071Y5763D02*
D03*
Y5211D02*
D03*
Y4660D02*
D03*
X-12622D02*
D03*
X-13174D02*
D03*
X-6255Y7172D02*
D03*
X-5563Y6742D02*
D03*
X-5363Y6965D02*
D03*
X-5157Y6719D02*
D03*
X-3713Y8838D02*
D03*
X-4285Y3830D02*
D03*
X-4938Y9283D02*
D03*
X-6879Y11206D02*
D03*
X-7414Y30522D02*
D03*
X-9169Y13192D02*
D03*
X-8679Y13218D02*
D03*
X-8022Y13181D02*
D03*
X-12027Y3717D02*
D03*
X-4534Y10233D02*
D03*
X-4057Y10950D02*
D03*
X-4127Y5456D02*
D03*
X-8232Y9698D02*
D03*
X-4004Y3411D02*
D03*
X-3561Y5154D02*
D03*
X-4700Y3479D02*
D03*
X-4127Y4226D02*
D03*
X-6536Y6774D02*
D03*
X-6125Y6856D02*
D03*
X-8945Y8930D02*
D03*
X-6816Y7657D02*
D03*
X-4127Y5044D02*
D03*
Y4623D02*
D03*
X-10511Y10680D02*
D03*
X-9108Y10521D02*
D03*
X-10443Y12501D02*
D03*
X-10066Y13184D02*
D03*
X-10670Y13178D02*
D03*
X-8817Y6844D02*
D03*
X-6467Y10707D02*
D03*
X-15443Y6500D02*
D03*
X-11408Y6689D02*
D03*
X-7569Y11007D02*
D03*
X-9257Y9401D02*
D03*
X-10741Y8207D02*
D03*
X-8058Y12144D02*
D03*
X-7749Y11971D02*
D03*
X-10547Y24671D02*
D03*
X-11232Y1957D02*
D03*
X-12061D02*
D03*
X-9346Y767D02*
D03*
X-10828Y1957D02*
D03*
X-11641D02*
D03*
X-12007Y15466D02*
D03*
X-10027Y32946D02*
D03*
X-11623Y33754D02*
D03*
X-11386Y35492D02*
D03*
X-10224Y35162D02*
D03*
X-20177Y13170D02*
D03*
X-8323Y31006D02*
D03*
X-9146Y29930D02*
D03*
X-14795Y40391D02*
D03*
X-10536Y3480D02*
D03*
X-10527Y11026D02*
D03*
X-7244Y9299D02*
D03*
X-7981Y15469D02*
D03*
X-8661Y15471D02*
D03*
X-6461Y660D02*
D03*
X-8543Y1218D02*
D03*
Y660D02*
D03*
X-3402Y739D02*
D03*
X-6461Y1218D02*
D03*
X-9909Y4648D02*
D03*
X-12863Y37943D02*
D03*
X-12263Y38447D02*
D03*
Y37943D02*
D03*
X-11870Y41026D02*
D03*
X-13463Y37943D02*
D03*
X-11889Y35615D02*
D03*
X-12222Y35282D02*
D03*
X-19765Y36816D02*
D03*
X-19261D02*
D03*
Y38016D02*
D03*
X-19765D02*
D03*
X-19261Y37416D02*
D03*
X-15545Y32343D02*
D03*
X-15905Y32933D02*
D03*
X-12177Y31738D02*
D03*
X-6133Y1991D02*
D03*
X-5746D02*
D03*
X-5348Y1990D02*
D03*
X-4944Y1981D02*
D03*
X-14341Y664D02*
D03*
Y1208D02*
D03*
X-12451Y1224D02*
D03*
Y664D02*
D03*
X-13615Y2847D02*
D03*
X-15137Y3690D02*
D03*
X-15443Y6078D02*
D03*
Y5695D02*
D03*
Y5302D02*
D03*
X-11337Y15466D02*
D03*
X-10681D02*
D03*
X-10013D02*
D03*
X-8925Y30333D02*
D03*
X-19176Y12099D02*
D03*
X-11532Y33280D02*
D03*
X-9930Y4274D02*
D03*
X-10217Y3846D02*
D03*
X-7708Y2981D02*
D03*
X-11341Y13178D02*
D03*
X-12007Y13171D02*
D03*
X-10843Y12558D02*
D03*
X-16211Y29642D02*
D03*
X-8236Y7339D02*
D03*
X-16211Y29977D02*
D03*
X-11621Y6919D02*
D03*
X-12033Y6944D02*
D03*
X-12776Y6730D02*
D03*
X-17992Y25347D02*
D03*
Y25667D02*
D03*
X-11147Y6919D02*
D03*
X-10670Y6935D02*
D03*
X-10158Y6955D02*
D03*
X-10895Y6687D02*
D03*
X-10172Y5899D02*
D03*
X-10412Y6729D02*
D03*
X-10545Y5893D02*
D03*
X23490Y5380D02*
D03*
X23802Y5945D02*
D03*
X23490Y4691D02*
D03*
X22941Y4111D02*
D03*
X23730Y3974D02*
D03*
X23020Y3722D02*
D03*
X23441Y5076D02*
D03*
X15384Y7403D02*
D03*
X11334Y24435D02*
D03*
X12811Y25646D02*
D03*
X8669Y31974D02*
D03*
X10645Y23854D02*
D03*
X11526Y22240D02*
D03*
X10280Y18478D02*
D03*
X14771Y22084D02*
D03*
X12606Y24419D02*
D03*
X10508Y17532D02*
D03*
X17870Y23293D02*
D03*
X10646Y17802D02*
D03*
X17880Y17744D02*
D03*
X19021Y7211D02*
D03*
X19327Y7034D02*
D03*
X19025Y5319D02*
D03*
Y6137D02*
D03*
Y5695D02*
D03*
Y6500D02*
D03*
X14432Y7339D02*
D03*
X15597Y8391D02*
D03*
X15593Y7984D02*
D03*
X22364Y3727D02*
D03*
X15096Y38447D02*
D03*
X10015Y21346D02*
D03*
X23805Y6286D02*
D03*
X22782Y7078D02*
D03*
X17535Y5036D02*
D03*
X14103Y39498D02*
D03*
X15690Y39538D02*
D03*
Y39204D02*
D03*
X8342Y3540D02*
D03*
X7870Y656D02*
D03*
X5980D02*
D03*
X11795Y943D02*
D03*
X6509Y2743D02*
D03*
X7274Y3186D02*
D03*
X7258Y2477D02*
D03*
X8647Y3234D02*
D03*
X8342D02*
D03*
X6069Y5774D02*
D03*
X6160Y6361D02*
D03*
X7990Y7237D02*
D03*
X8277Y6822D02*
D03*
X9474Y4603D02*
D03*
X8045Y7739D02*
D03*
X25665Y3185D02*
D03*
X11469Y3363D02*
D03*
Y2966D02*
D03*
X12479Y13452D02*
D03*
X9885Y8811D02*
D03*
X8889Y12099D02*
D03*
X5974Y7135D02*
D03*
X9297Y9898D02*
D03*
X15808Y15427D02*
D03*
X21256Y16896D02*
D03*
X15360Y13421D02*
D03*
X15380Y13825D02*
D03*
X19388Y11378D02*
D03*
X18923Y11158D02*
D03*
X12456Y16255D02*
D03*
X9272Y1268D02*
D03*
X8889D02*
D03*
X7870Y1216D02*
D03*
X5980Y1201D02*
D03*
X5400Y2813D02*
D03*
X5008Y3819D02*
D03*
X6789Y21734D02*
D03*
X9930Y19694D02*
D03*
X6789Y19372D02*
D03*
Y20159D02*
D03*
Y20946D02*
D03*
X10303Y6589D02*
D03*
X16210Y2461D02*
D03*
X15065Y2463D02*
D03*
X20937Y2454D02*
D03*
X22081Y2452D02*
D03*
X19376Y3667D02*
D03*
X15876Y13211D02*
D03*
X16325Y7358D02*
D03*
X14116Y16255D02*
D03*
X10647Y16056D02*
D03*
X11206Y25987D02*
D03*
X10887D02*
D03*
X10567D02*
D03*
X13381Y26543D02*
D03*
X11925Y29042D02*
D03*
X12230D02*
D03*
X12534Y29041D02*
D03*
X12535Y28736D02*
D03*
Y28431D02*
D03*
X11856Y30535D02*
D03*
X15426Y12051D02*
D03*
Y11701D02*
D03*
X19256Y15484D02*
D03*
X21495Y10932D02*
D03*
X21713Y10392D02*
D03*
X21035Y15825D02*
D03*
X13644Y7771D02*
D03*
X11423Y27358D02*
D03*
X11108D02*
D03*
X11649Y27910D02*
D03*
Y27595D02*
D03*
X18012Y9799D02*
D03*
X16963Y12549D02*
D03*
X13071Y22453D02*
D03*
X16896Y3687D02*
D03*
X17404Y3697D02*
D03*
X17034Y4140D02*
D03*
X11810Y21563D02*
D03*
X11267Y13528D02*
D03*
X12503Y10665D02*
D03*
X11417Y14965D02*
D03*
X16592Y25457D02*
D03*
X16168Y33370D02*
D03*
X20272Y10108D02*
D03*
X21703Y9745D02*
D03*
X16566Y12810D02*
D03*
X6685Y16556D02*
D03*
X6708Y17556D02*
D03*
X9534Y3958D02*
D03*
X17772Y24887D02*
D03*
X9879Y30010D02*
D03*
X9864Y29648D02*
D03*
X4130Y5616D02*
D03*
X4872Y5737D02*
D03*
X4230Y4368D02*
D03*
X15437Y29166D02*
D03*
Y28241D02*
D03*
X15550Y34142D02*
D03*
X16580Y25814D02*
D03*
X13283Y21208D02*
D03*
X4884Y6224D02*
D03*
X7908Y10225D02*
D03*
X9334Y6726D02*
D03*
X4193Y4990D02*
D03*
X3943Y4036D02*
D03*
X3872Y5234D02*
D03*
X3885Y4603D02*
D03*
X5270Y6942D02*
D03*
X17722Y5285D02*
D03*
X18613Y5232D02*
D03*
X17471Y4658D02*
D03*
X9553Y2909D02*
D03*
X10391Y5199D02*
D03*
X15385Y5211D02*
D03*
Y5763D02*
D03*
X15937D02*
D03*
Y5211D02*
D03*
X24740Y4333D02*
D03*
X14794Y10257D02*
D03*
X14793Y9729D02*
D03*
X22379Y5763D02*
D03*
Y5211D02*
D03*
Y4660D02*
D03*
X21828D02*
D03*
X21276D02*
D03*
Y5211D02*
D03*
Y5763D02*
D03*
X21828D02*
D03*
Y5211D02*
D03*
X16488Y5763D02*
D03*
Y5211D02*
D03*
Y4660D02*
D03*
X15937D02*
D03*
X15385D02*
D03*
X22304Y7172D02*
D03*
X22996Y6742D02*
D03*
X23196Y6965D02*
D03*
X23402Y6719D02*
D03*
X24846Y8838D02*
D03*
X24274Y3830D02*
D03*
X23621Y9283D02*
D03*
X21681Y11206D02*
D03*
X21145Y30522D02*
D03*
X19390Y13192D02*
D03*
X19880Y13218D02*
D03*
X20537Y13181D02*
D03*
X16532Y3717D02*
D03*
X24025Y10233D02*
D03*
X24502Y10950D02*
D03*
X24432Y5456D02*
D03*
X20328Y9698D02*
D03*
X24555Y3411D02*
D03*
X24998Y5154D02*
D03*
X23859Y3479D02*
D03*
X24432Y4226D02*
D03*
X22023Y6774D02*
D03*
X22434Y6856D02*
D03*
X19614Y8930D02*
D03*
X21743Y7657D02*
D03*
X24432Y5044D02*
D03*
Y4623D02*
D03*
X18048Y10680D02*
D03*
X19451Y10521D02*
D03*
X18116Y12501D02*
D03*
X18493Y13184D02*
D03*
X17889Y13178D02*
D03*
X19742Y6844D02*
D03*
X22092Y10707D02*
D03*
X13116Y6500D02*
D03*
X17151Y6689D02*
D03*
X20991Y11007D02*
D03*
X19302Y9401D02*
D03*
X17818Y8207D02*
D03*
X20501Y12144D02*
D03*
X20811Y11971D02*
D03*
X18012Y24671D02*
D03*
X17327Y1957D02*
D03*
X16498D02*
D03*
X19213Y767D02*
D03*
X17731Y1957D02*
D03*
X16918D02*
D03*
X16553Y15466D02*
D03*
X18532Y32946D02*
D03*
X16937Y33754D02*
D03*
X17173Y35492D02*
D03*
X18335Y35162D02*
D03*
X8382Y13170D02*
D03*
X20236Y31006D02*
D03*
X19413Y29930D02*
D03*
X13764Y40391D02*
D03*
X18023Y3480D02*
D03*
X18032Y11026D02*
D03*
X21316Y9299D02*
D03*
X20578Y15469D02*
D03*
X19899Y15471D02*
D03*
X22098Y660D02*
D03*
X20016Y1218D02*
D03*
Y660D02*
D03*
X25157Y739D02*
D03*
X22098Y1218D02*
D03*
X18650Y4648D02*
D03*
X15696Y37943D02*
D03*
X16296Y38447D02*
D03*
Y37943D02*
D03*
X16689Y41026D02*
D03*
X15096Y37943D02*
D03*
X16670Y35615D02*
D03*
X16337Y35282D02*
D03*
X8794Y36816D02*
D03*
X9298D02*
D03*
Y38016D02*
D03*
X8794D02*
D03*
X9298Y37416D02*
D03*
X13014Y32343D02*
D03*
X12654Y32933D02*
D03*
X16382Y31738D02*
D03*
X22426Y1991D02*
D03*
X22813D02*
D03*
X23211Y1990D02*
D03*
X23615Y1981D02*
D03*
X14218Y664D02*
D03*
Y1208D02*
D03*
X16108Y1224D02*
D03*
Y664D02*
D03*
X14944Y2847D02*
D03*
X13422Y3690D02*
D03*
X13116Y6078D02*
D03*
Y5695D02*
D03*
Y5302D02*
D03*
X17222Y15466D02*
D03*
X17878D02*
D03*
X18546D02*
D03*
X19634Y30333D02*
D03*
X9383Y12099D02*
D03*
X17027Y33280D02*
D03*
X18629Y4274D02*
D03*
X18342Y3846D02*
D03*
X20851Y2981D02*
D03*
X17218Y13178D02*
D03*
X16553Y13171D02*
D03*
X17716Y12558D02*
D03*
X12348Y29642D02*
D03*
X20323Y7339D02*
D03*
X12348Y29977D02*
D03*
X16938Y6919D02*
D03*
X16526Y6944D02*
D03*
X15783Y6730D02*
D03*
X10567Y25347D02*
D03*
Y25667D02*
D03*
X17412Y6919D02*
D03*
X17890Y6935D02*
D03*
X18401Y6955D02*
D03*
X17664Y6687D02*
D03*
X18387Y5899D02*
D03*
X18147Y6729D02*
D03*
X18014Y5893D02*
D03*
D128*
X2480Y-4161D02*
D03*
D129*
X-837Y-3570D02*
D03*
D130*
X-2234Y-3906D02*
D03*
D131*
X-529Y-3906D02*
D03*
D132*
X-837Y-4240D02*
D03*
D133*
X-837Y-3414D02*
D03*
Y-4398D02*
D03*
D134*
X-1111Y-3906D02*
D03*
D135*
X-17527Y26689D02*
D03*
X-17311D02*
D03*
X-17094D02*
D03*
X-13280Y20121D02*
D03*
Y19398D02*
D03*
Y20843D02*
D03*
X-14002D02*
D03*
Y19398D02*
D03*
X-12918Y20482D02*
D03*
X-14363D02*
D03*
X-13641D02*
D03*
X-12918Y19760D02*
D03*
X-14363D02*
D03*
X-13641D02*
D03*
X-14002Y20121D02*
D03*
X-20286Y5803D02*
D03*
Y5370D02*
D03*
Y4937D02*
D03*
Y4504D02*
D03*
X-20719Y5803D02*
D03*
Y4504D02*
D03*
X-21152Y5803D02*
D03*
X-21585D02*
D03*
Y5370D02*
D03*
Y4937D02*
D03*
Y4504D02*
D03*
X-21152D02*
D03*
X-20719Y4937D02*
D03*
Y5370D02*
D03*
X-21152Y4937D02*
D03*
X-21132Y5370D02*
D03*
X-10303Y34266D02*
D03*
Y33832D02*
D03*
X-10736Y34266D02*
D03*
Y33832D02*
D03*
X11032Y26689D02*
D03*
X11248D02*
D03*
X11465D02*
D03*
X15279Y20121D02*
D03*
Y19398D02*
D03*
Y20843D02*
D03*
X14557D02*
D03*
Y19398D02*
D03*
X15641Y20482D02*
D03*
X14196D02*
D03*
X14918D02*
D03*
X15641Y19760D02*
D03*
X14196D02*
D03*
X14918D02*
D03*
X14557Y20121D02*
D03*
X8273Y5803D02*
D03*
Y5370D02*
D03*
Y4937D02*
D03*
Y4504D02*
D03*
X7840Y5803D02*
D03*
Y4504D02*
D03*
X7407Y5803D02*
D03*
X6974D02*
D03*
Y5370D02*
D03*
Y4937D02*
D03*
Y4504D02*
D03*
X7407D02*
D03*
X7840Y4937D02*
D03*
Y5370D02*
D03*
X7407Y4937D02*
D03*
X7427Y5370D02*
D03*
X18256Y34266D02*
D03*
Y33832D02*
D03*
X17823Y34266D02*
D03*
Y33832D02*
D03*
M02*
