G04*
G04 #@! TF.GenerationSoftware,Altium Limited,Altium Designer,20.1.11 (218)*
G04*
G04 Layer_Color=32896*
%FSLAX24Y24*%
%MOIN*%
G70*
G04*
G04 #@! TF.SameCoordinates,2582DA11-84A4-45EB-A450-3A0221363A72*
G04*
G04*
G04 #@! TF.FilePolarity,Positive*
G04*
G01*
G75*
%ADD13C,0.0200*%
%ADD84C,0.0118*%
%ADD143C,0.0050*%
D13*
X108975Y37759D02*
Y38759D01*
X109475D01*
X109642Y38592D01*
Y38259D01*
X109475Y38092D01*
X108975D01*
X109975Y37759D02*
Y38426D01*
X110308Y38759D01*
X110641Y38426D01*
Y37759D01*
Y38259D01*
X109975D01*
X110975Y37759D02*
Y38759D01*
X111641Y37759D01*
Y38759D01*
X112641D02*
X111974D01*
Y37759D01*
X112641D01*
X111974Y38259D02*
X112307D01*
X112974Y38759D02*
Y37759D01*
X113640D01*
X114973Y38759D02*
Y38092D01*
X115306Y37759D01*
X115640Y38092D01*
Y38759D01*
X115973Y38259D02*
X116639D01*
X117639Y38592D02*
X117472Y38759D01*
X117139D01*
X116973Y38592D01*
Y37926D01*
X117139Y37759D01*
X117472D01*
X117639Y37926D01*
Y38259D01*
X117306D01*
X117972Y37759D02*
Y38759D01*
X118472D01*
X118639Y38592D01*
Y38259D01*
X118472Y38092D01*
X117972D01*
X118305D02*
X118639Y37759D01*
X119472Y38759D02*
X119139D01*
X118972Y38592D01*
Y37926D01*
X119139Y37759D01*
X119472D01*
X119638Y37926D01*
Y38592D01*
X119472Y38759D01*
X120471D02*
X120138D01*
X119972Y38592D01*
Y37926D01*
X120138Y37759D01*
X120471D01*
X120638Y37926D01*
Y38592D01*
X120471Y38759D01*
X120971D02*
Y38092D01*
X121305Y37759D01*
X121638Y38092D01*
Y38759D01*
X122637D02*
X121971D01*
Y37759D01*
X122637D01*
X121971Y38259D02*
X122304D01*
D84*
X38228Y42717D02*
Y42192D01*
X38490Y41929D01*
X38753Y42192D01*
Y42717D01*
X39015Y42323D02*
X39540D01*
X40327Y42585D02*
X40196Y42717D01*
X39934D01*
X39802Y42585D01*
Y42061D01*
X39934Y41929D01*
X40196D01*
X40327Y42061D01*
Y42323D01*
X40065D01*
X40590Y41929D02*
Y42717D01*
X40983D01*
X41114Y42585D01*
Y42323D01*
X40983Y42192D01*
X40590D01*
X40852D02*
X41114Y41929D01*
X41770Y42717D02*
X41508D01*
X41377Y42585D01*
Y42061D01*
X41508Y41929D01*
X41770D01*
X41901Y42061D01*
Y42585D01*
X41770Y42717D01*
X42557D02*
X42295D01*
X42164Y42585D01*
Y42061D01*
X42295Y41929D01*
X42557D01*
X42689Y42061D01*
Y42585D01*
X42557Y42717D01*
X42951D02*
Y42192D01*
X43213Y41929D01*
X43476Y42192D01*
Y42717D01*
X44263D02*
X43738D01*
Y41929D01*
X44263D01*
X43738Y42323D02*
X44001D01*
X-44208Y353D02*
Y-171D01*
X-43945Y-434D01*
X-43683Y-171D01*
Y353D01*
X-43420Y-40D02*
X-42896D01*
X-42109Y222D02*
X-42240Y353D01*
X-42502D01*
X-42633Y222D01*
Y-303D01*
X-42502Y-434D01*
X-42240D01*
X-42109Y-303D01*
Y-40D01*
X-42371D01*
X-41846Y-434D02*
Y353D01*
X-41453D01*
X-41321Y222D01*
Y-40D01*
X-41453Y-171D01*
X-41846D01*
X-41584D02*
X-41321Y-434D01*
X-40665Y353D02*
X-40928D01*
X-41059Y222D01*
Y-303D01*
X-40928Y-434D01*
X-40665D01*
X-40534Y-303D01*
Y222D01*
X-40665Y353D01*
X-39878D02*
X-40141D01*
X-40272Y222D01*
Y-303D01*
X-40141Y-434D01*
X-39878D01*
X-39747Y-303D01*
Y222D01*
X-39878Y353D01*
X-39485D02*
Y-171D01*
X-39222Y-434D01*
X-38960Y-171D01*
Y353D01*
X-38173D02*
X-38698D01*
Y-434D01*
X-38173D01*
X-38698Y-40D02*
X-38435D01*
X-44268Y42669D02*
Y42145D01*
X-44005Y41882D01*
X-43743Y42145D01*
Y42669D01*
X-43480Y42276D02*
X-42956D01*
X-42168Y42538D02*
X-42300Y42669D01*
X-42562D01*
X-42693Y42538D01*
Y42014D01*
X-42562Y41882D01*
X-42300D01*
X-42168Y42014D01*
Y42276D01*
X-42431D01*
X-41906Y41882D02*
Y42669D01*
X-41513D01*
X-41381Y42538D01*
Y42276D01*
X-41513Y42145D01*
X-41906D01*
X-41644D02*
X-41381Y41882D01*
X-40725Y42669D02*
X-40988D01*
X-41119Y42538D01*
Y42014D01*
X-40988Y41882D01*
X-40725D01*
X-40594Y42014D01*
Y42538D01*
X-40725Y42669D01*
X-39938D02*
X-40201D01*
X-40332Y42538D01*
Y42014D01*
X-40201Y41882D01*
X-39938D01*
X-39807Y42014D01*
Y42538D01*
X-39938Y42669D01*
X-39545D02*
Y42145D01*
X-39282Y41882D01*
X-39020Y42145D01*
Y42669D01*
X-38233D02*
X-38758D01*
Y41882D01*
X-38233D01*
X-38758Y42276D02*
X-38495D01*
X38458Y367D02*
Y-158D01*
X38721Y-420D01*
X38983Y-158D01*
Y367D01*
X39246Y-26D02*
X39770D01*
X40557Y236D02*
X40426Y367D01*
X40164D01*
X40033Y236D01*
Y-289D01*
X40164Y-420D01*
X40426D01*
X40557Y-289D01*
Y-26D01*
X40295D01*
X40820Y-420D02*
Y367D01*
X41213D01*
X41345Y236D01*
Y-26D01*
X41213Y-158D01*
X40820D01*
X41082D02*
X41345Y-420D01*
X42001Y367D02*
X41738D01*
X41607Y236D01*
Y-289D01*
X41738Y-420D01*
X42001D01*
X42132Y-289D01*
Y236D01*
X42001Y367D01*
X42788D02*
X42525D01*
X42394Y236D01*
Y-289D01*
X42525Y-420D01*
X42788D01*
X42919Y-289D01*
Y236D01*
X42788Y367D01*
X43181D02*
Y-158D01*
X43444Y-420D01*
X43706Y-158D01*
Y367D01*
X44493D02*
X43968D01*
Y-420D01*
X44493D01*
X43968Y-26D02*
X44231D01*
D143*
X-37500Y0D02*
X37500D01*
X-37500Y42460D02*
X37500D01*
M02*
