G04*
G04 #@! TF.GenerationSoftware,Altium Limited,Altium Designer,20.1.11 (218)*
G04*
G04 Layer_Color=128*
%FSLAX24Y24*%
%MOIN*%
G70*
G04*
G04 #@! TF.SameCoordinates,2582DA11-84A4-45EB-A450-3A0221363A72*
G04*
G04*
G04 #@! TF.FilePolarity,Positive*
G04*
G01*
G75*
%ADD291C,0.0020*%
D291*
X-15375Y40819D02*
X-15158D01*
X-15266Y40711D02*
Y40927D01*
X-13406Y40819D02*
X-13190D01*
X-13298Y40711D02*
Y40927D01*
X-15759Y41882D02*
X-15562D01*
X-15660Y41784D02*
Y41980D01*
X-13003Y41882D02*
X-12806D01*
X-12904Y41784D02*
Y41980D01*
X-17577Y26689D02*
X-17477D01*
X-17527Y26639D02*
Y26739D01*
X-17361Y26689D02*
X-17261D01*
X-17311Y26639D02*
Y26739D01*
X-17144Y26689D02*
X-17044D01*
X-17094Y26639D02*
Y26739D01*
X-21421Y32396D02*
X-21021D01*
X-21221Y32196D02*
Y32596D01*
X-21421Y33396D02*
X-21021D01*
X-21221Y33196D02*
Y33596D01*
X-20491Y15059D02*
X-19782D01*
X-20137Y14705D02*
Y15414D01*
X-20491Y17070D02*
X-19782D01*
X-20137Y16716D02*
Y17425D01*
X-9486Y23067D02*
X-9057D01*
X-9272Y22853D02*
Y23282D01*
X-9473Y24254D02*
X-9044D01*
X-9258Y24039D02*
Y24469D01*
X-1981Y40049D02*
X-1588D01*
X-1785Y39853D02*
Y40246D01*
X-2981Y39049D02*
X-2588D01*
X-2785Y38853D02*
Y39246D01*
X-2981Y40049D02*
X-2588D01*
X-2785Y39853D02*
Y40246D01*
X-1981Y39049D02*
X-1588D01*
X-1785Y38853D02*
Y39246D01*
X-1981Y37049D02*
X-1588D01*
X-1785Y36853D02*
Y37246D01*
X-1981Y38049D02*
X-1588D01*
X-1785Y37853D02*
Y38246D01*
X-1981Y36049D02*
X-1588D01*
X-1785Y35853D02*
Y36246D01*
X-2981Y37049D02*
X-2588D01*
X-2785Y36853D02*
Y37246D01*
X-2981Y38049D02*
X-2588D01*
X-2785Y37853D02*
Y38246D01*
X-2981Y36049D02*
X-2588D01*
X-2785Y35853D02*
Y36246D01*
X-5415Y41159D02*
X-4155D01*
X-4785Y40530D02*
Y41789D01*
X-1981Y34049D02*
X-1588D01*
X-1785Y33853D02*
Y34246D01*
X-1981Y35049D02*
X-1588D01*
X-1785Y34853D02*
Y35246D01*
X-1981Y32049D02*
X-1588D01*
X-1785Y31853D02*
Y32246D01*
X-1981Y33049D02*
X-1588D01*
X-1785Y32853D02*
Y33246D01*
X-2981Y31049D02*
X-2588D01*
X-2785Y30853D02*
Y31246D01*
X-2981Y32049D02*
X-2588D01*
X-2785Y31853D02*
Y32246D01*
X-1981Y31049D02*
X-1588D01*
X-1785Y30853D02*
Y31246D01*
X-1981Y29049D02*
X-1588D01*
X-1785Y28853D02*
Y29246D01*
X-1981Y30049D02*
X-1588D01*
X-1785Y29853D02*
Y30246D01*
X-1981Y28049D02*
X-1588D01*
X-1785Y27853D02*
Y28246D01*
X-1981Y27049D02*
X-1588D01*
X-1785Y26853D02*
Y27246D01*
X-2981Y30049D02*
X-2588D01*
X-2785Y29853D02*
Y30246D01*
X-1981Y26049D02*
X-1588D01*
X-1785Y25853D02*
Y26246D01*
X-2981Y34049D02*
X-2588D01*
X-2785Y33853D02*
Y34246D01*
X-2981Y35049D02*
X-2588D01*
X-2785Y34853D02*
Y35246D01*
X-2981Y33049D02*
X-2588D01*
X-2785Y32853D02*
Y33246D01*
X-2981Y28049D02*
X-2588D01*
X-2785Y27853D02*
Y28246D01*
X-2981Y29049D02*
X-2588D01*
X-2785Y28853D02*
Y29246D01*
X-2981Y26049D02*
X-2588D01*
X-2785Y25853D02*
Y26246D01*
X-2981Y27049D02*
X-2588D01*
X-2785Y26853D02*
Y27246D01*
X-4981Y39659D02*
X-4588D01*
X-4785Y39463D02*
Y39856D01*
X-4981Y37659D02*
X-4588D01*
X-4785Y37463D02*
Y37856D01*
X-4981Y38659D02*
X-4588D01*
X-4785Y38463D02*
Y38856D01*
X-5981Y39659D02*
X-5588D01*
X-5785Y39463D02*
Y39856D01*
X-5981Y38659D02*
X-5588D01*
X-5785Y38463D02*
Y38856D01*
X-4981Y36659D02*
X-4588D01*
X-4785Y36463D02*
Y36856D01*
X-4981Y35659D02*
X-4588D01*
X-4785Y35463D02*
Y35856D01*
X-5981Y37659D02*
X-5588D01*
X-5785Y37463D02*
Y37856D01*
X-5981Y36659D02*
X-5588D01*
X-5785Y36463D02*
Y36856D01*
X-4981Y33659D02*
X-4588D01*
X-4785Y33463D02*
Y33856D01*
X-4981Y34659D02*
X-4588D01*
X-4785Y34463D02*
Y34856D01*
X-4981Y31659D02*
X-4588D01*
X-4785Y31463D02*
Y31856D01*
X-4981Y32659D02*
X-4588D01*
X-4785Y32463D02*
Y32856D01*
X-5981Y33659D02*
X-5588D01*
X-5785Y33463D02*
Y33856D01*
X-4981Y26059D02*
X-4588D01*
X-4785Y25863D02*
Y26256D01*
X-4981Y27059D02*
X-4588D01*
X-4785Y26863D02*
Y27256D01*
X-4981Y25059D02*
X-4588D01*
X-4785Y24863D02*
Y25256D01*
X-4981Y29059D02*
X-4588D01*
X-4785Y28863D02*
Y29256D01*
X-4981Y30659D02*
X-4588D01*
X-4785Y30463D02*
Y30856D01*
X-4981Y28059D02*
X-4588D01*
X-4785Y27863D02*
Y28256D01*
X-5981Y34659D02*
X-5588D01*
X-5785Y34463D02*
Y34856D01*
X-5981Y35659D02*
X-5588D01*
X-5785Y35463D02*
Y35856D01*
X-5981Y31659D02*
X-5588D01*
X-5785Y31463D02*
Y31856D01*
X-5981Y32659D02*
X-5588D01*
X-5785Y32463D02*
Y32856D01*
X-5981Y30659D02*
X-5588D01*
X-5785Y30463D02*
Y30856D01*
X-5981Y26059D02*
X-5588D01*
X-5785Y25863D02*
Y26256D01*
X-5981Y27059D02*
X-5588D01*
X-5785Y26863D02*
Y27256D01*
X-5981Y25059D02*
X-5588D01*
X-5785Y24863D02*
Y25256D01*
X-5981Y29059D02*
X-5588D01*
X-5785Y28863D02*
Y29256D01*
X-5981Y28059D02*
X-5588D01*
X-5785Y27863D02*
Y28256D01*
X-1981Y21049D02*
X-1588D01*
X-1785Y20853D02*
Y21246D01*
X-1981Y22049D02*
X-1588D01*
X-1785Y21853D02*
Y22246D01*
X-1981Y18049D02*
X-1588D01*
X-1785Y17853D02*
Y18246D01*
X-1981Y19049D02*
X-1588D01*
X-1785Y18853D02*
Y19246D01*
X-1981Y24049D02*
X-1588D01*
X-1785Y23853D02*
Y24246D01*
X-1981Y25049D02*
X-1588D01*
X-1785Y24853D02*
Y25246D01*
X-1981Y23049D02*
X-1588D01*
X-1785Y22853D02*
Y23246D01*
X-2981Y23049D02*
X-2588D01*
X-2785Y22853D02*
Y23246D01*
X-2981Y24049D02*
X-2588D01*
X-2785Y23853D02*
Y24246D01*
X-1981Y20049D02*
X-1588D01*
X-1785Y19853D02*
Y20246D01*
X-2981Y22049D02*
X-2588D01*
X-2785Y21853D02*
Y22246D01*
X-2981Y20049D02*
X-2588D01*
X-2785Y19853D02*
Y20246D01*
X-2981Y21049D02*
X-2588D01*
X-2785Y20853D02*
Y21246D01*
X-2981Y19049D02*
X-2588D01*
X-2785Y18853D02*
Y19246D01*
X-1981Y16049D02*
X-1588D01*
X-1785Y15853D02*
Y16246D01*
X-1981Y17049D02*
X-1588D01*
X-1785Y16853D02*
Y17246D01*
X-1981Y15049D02*
X-1588D01*
X-1785Y14853D02*
Y15246D01*
X-2981Y17049D02*
X-2588D01*
X-2785Y16853D02*
Y17246D01*
X-2981Y18049D02*
X-2588D01*
X-2785Y17853D02*
Y18246D01*
X-2981Y16049D02*
X-2588D01*
X-2785Y15853D02*
Y16246D01*
X-1981Y13049D02*
X-1588D01*
X-1785Y12853D02*
Y13246D01*
X-1981Y14049D02*
X-1588D01*
X-1785Y13853D02*
Y14246D01*
X-1981Y11049D02*
X-1588D01*
X-1785Y10853D02*
Y11246D01*
X-1981Y12049D02*
X-1588D01*
X-1785Y11853D02*
Y12246D01*
X-2981Y14049D02*
X-2588D01*
X-2785Y13853D02*
Y14246D01*
X-2981Y15049D02*
X-2588D01*
X-2785Y14853D02*
Y15246D01*
X-2981Y12049D02*
X-2588D01*
X-2785Y11853D02*
Y12246D01*
X-1981Y6049D02*
X-1588D01*
X-1785Y5853D02*
Y6246D01*
X-1981Y7049D02*
X-1588D01*
X-1785Y6853D02*
Y7246D01*
X-1981Y5049D02*
X-1588D01*
X-1785Y4853D02*
Y5246D01*
X-1981Y9049D02*
X-1588D01*
X-1785Y8853D02*
Y9246D01*
X-1981Y10049D02*
X-1588D01*
X-1785Y9853D02*
Y10246D01*
X-1981Y8049D02*
X-1588D01*
X-1785Y7853D02*
Y8246D01*
X-2981Y7049D02*
X-2588D01*
X-2785Y6853D02*
Y7246D01*
X-2981Y8049D02*
X-2588D01*
X-2785Y7853D02*
Y8246D01*
X-2981Y5049D02*
X-2588D01*
X-2785Y4853D02*
Y5246D01*
X-2981Y6049D02*
X-2588D01*
X-2785Y5853D02*
Y6246D01*
X-2981Y10049D02*
X-2588D01*
X-2785Y9853D02*
Y10246D01*
X-2981Y13049D02*
X-2588D01*
X-2785Y12853D02*
Y13246D01*
X-2981Y9049D02*
X-2588D01*
X-2785Y8853D02*
Y9246D01*
X-2981Y25049D02*
X-2588D01*
X-2785Y24853D02*
Y25246D01*
X-4981Y24059D02*
X-4588D01*
X-4785Y23863D02*
Y24256D01*
X-4981Y22059D02*
X-4588D01*
X-4785Y21863D02*
Y22256D01*
X-4981Y23059D02*
X-4588D01*
X-4785Y22863D02*
Y23256D01*
X-4981Y20059D02*
X-4588D01*
X-4785Y19863D02*
Y20256D01*
X-4981Y21059D02*
X-4588D01*
X-4785Y20863D02*
Y21256D01*
X-4981Y19059D02*
X-4588D01*
X-4785Y18863D02*
Y19256D01*
X-5981Y23059D02*
X-5588D01*
X-5785Y22863D02*
Y23256D01*
X-5981Y24059D02*
X-5588D01*
X-5785Y23863D02*
Y24256D01*
X-5981Y22059D02*
X-5588D01*
X-5785Y21863D02*
Y22256D01*
X-11415Y21159D02*
X-10155D01*
X-10785Y20530D02*
Y21789D01*
X-5981Y21059D02*
X-5588D01*
X-5785Y20863D02*
Y21256D01*
X-5981Y19059D02*
X-5588D01*
X-5785Y18863D02*
Y19256D01*
X-5981Y20059D02*
X-5588D01*
X-5785Y19863D02*
Y20256D01*
X-5981Y18059D02*
X-5588D01*
X-5785Y17863D02*
Y18256D01*
X-4981Y17059D02*
X-4588D01*
X-4785Y16863D02*
Y17256D01*
X-4981Y18059D02*
X-4588D01*
X-4785Y17863D02*
Y18256D01*
X-4981Y15059D02*
X-4588D01*
X-4785Y14863D02*
Y15256D01*
X-4981Y16059D02*
X-4588D01*
X-4785Y15863D02*
Y16256D01*
X-5981Y16059D02*
X-5588D01*
X-5785Y15863D02*
Y16256D01*
X-5981Y17059D02*
X-5588D01*
X-5785Y16863D02*
Y17256D01*
X-5981Y15059D02*
X-5588D01*
X-5785Y14863D02*
Y15256D01*
X-4981Y13059D02*
X-4588D01*
X-4785Y12863D02*
Y13256D01*
X-4981Y14059D02*
X-4588D01*
X-4785Y13863D02*
Y14256D01*
X-2981Y11049D02*
X-2588D01*
X-2785Y10853D02*
Y11246D01*
X-5981Y13059D02*
X-5588D01*
X-5785Y12863D02*
Y13256D01*
X-5981Y14059D02*
X-5588D01*
X-5785Y13863D02*
Y14256D01*
X-5915Y11659D02*
X-4655D01*
X-5285Y11030D02*
Y12289D01*
X-22981Y36049D02*
X-22588D01*
X-22785Y35853D02*
Y36246D01*
X-22981Y34049D02*
X-22588D01*
X-22785Y33853D02*
Y34246D01*
X-22981Y35049D02*
X-22588D01*
X-22785Y34853D02*
Y35246D01*
X-23981Y33049D02*
X-23588D01*
X-23785Y32853D02*
Y33246D01*
X-23981Y34049D02*
X-23588D01*
X-23785Y33853D02*
Y34246D01*
X-22981Y33049D02*
X-22588D01*
X-22785Y32853D02*
Y33246D01*
X-22981Y32049D02*
X-22588D01*
X-22785Y31853D02*
Y32246D01*
X-24415Y41659D02*
X-23155D01*
X-23785Y41030D02*
Y42289D01*
X-23981Y35049D02*
X-23588D01*
X-23785Y34853D02*
Y35246D01*
X-23981Y36049D02*
X-23588D01*
X-23785Y35853D02*
Y36246D01*
X-23981Y32049D02*
X-23588D01*
X-23785Y31853D02*
Y32246D01*
X-22981Y30049D02*
X-22588D01*
X-22785Y29853D02*
Y30246D01*
X-22981Y31049D02*
X-22588D01*
X-22785Y30853D02*
Y31246D01*
X-22981Y29049D02*
X-22588D01*
X-22785Y28853D02*
Y29246D01*
X-22981Y26049D02*
X-22588D01*
X-22785Y25853D02*
Y26246D01*
X-22981Y27049D02*
X-22588D01*
X-22785Y26853D02*
Y27246D01*
X-22981Y25049D02*
X-22588D01*
X-22785Y24853D02*
Y25246D01*
X-22981Y24049D02*
X-22588D01*
X-22785Y23853D02*
Y24246D01*
X-22981Y23049D02*
X-22588D01*
X-22785Y22853D02*
Y23246D01*
X-23981Y23049D02*
X-23588D01*
X-23785Y22853D02*
Y23246D01*
X-22981Y22049D02*
X-22588D01*
X-22785Y21853D02*
Y22246D01*
X-23981Y30049D02*
X-23588D01*
X-23785Y29853D02*
Y30246D01*
X-23981Y31049D02*
X-23588D01*
X-23785Y30853D02*
Y31246D01*
X-23981Y29049D02*
X-23588D01*
X-23785Y28853D02*
Y29246D01*
X-23981Y27049D02*
X-23588D01*
X-23785Y26853D02*
Y27246D01*
X-23981Y25049D02*
X-23588D01*
X-23785Y24853D02*
Y25246D01*
X-23981Y26049D02*
X-23588D01*
X-23785Y25853D02*
Y26246D01*
X-23981Y24049D02*
X-23588D01*
X-23785Y23853D02*
Y24246D01*
X-25981Y39049D02*
X-25588D01*
X-25785Y38853D02*
Y39246D01*
X-25981Y40049D02*
X-25588D01*
X-25785Y39853D02*
Y40246D01*
X-25981Y37049D02*
X-25588D01*
X-25785Y36853D02*
Y37246D01*
X-26981Y39049D02*
X-26588D01*
X-26785Y38853D02*
Y39246D01*
X-26981Y40049D02*
X-26588D01*
X-26785Y39853D02*
Y40246D01*
X-25981Y38049D02*
X-25588D01*
X-25785Y37853D02*
Y38246D01*
X-25981Y36049D02*
X-25588D01*
X-25785Y35853D02*
Y36246D01*
X-25981Y35049D02*
X-25588D01*
X-25785Y34853D02*
Y35246D01*
X-26981Y35049D02*
X-26588D01*
X-26785Y34853D02*
Y35246D01*
X-26981Y36049D02*
X-26588D01*
X-26785Y35853D02*
Y36246D01*
X-26981Y34049D02*
X-26588D01*
X-26785Y33853D02*
Y34246D01*
X-26981Y38049D02*
X-26588D01*
X-26785Y37853D02*
Y38246D01*
X-26981Y37049D02*
X-26588D01*
X-26785Y36853D02*
Y37246D01*
X-25981Y30049D02*
X-25588D01*
X-25785Y29853D02*
Y30246D01*
X-25981Y31049D02*
X-25588D01*
X-25785Y30853D02*
Y31246D01*
X-25981Y28049D02*
X-25588D01*
X-25785Y27853D02*
Y28246D01*
X-25981Y29049D02*
X-25588D01*
X-25785Y28853D02*
Y29246D01*
X-25981Y33049D02*
X-25588D01*
X-25785Y32853D02*
Y33246D01*
X-25981Y34049D02*
X-25588D01*
X-25785Y33853D02*
Y34246D01*
X-25981Y32049D02*
X-25588D01*
X-25785Y31853D02*
Y32246D01*
X-25981Y27049D02*
X-25588D01*
X-25785Y26853D02*
Y27246D01*
X-25981Y24049D02*
X-25588D01*
X-25785Y23853D02*
Y24246D01*
X-25981Y25049D02*
X-25588D01*
X-25785Y24853D02*
Y25246D01*
X-25981Y23049D02*
X-25588D01*
X-25785Y22853D02*
Y23246D01*
X-26981Y29049D02*
X-26588D01*
X-26785Y28853D02*
Y29246D01*
X-26981Y30049D02*
X-26588D01*
X-26785Y29853D02*
Y30246D01*
X-26981Y27049D02*
X-26588D01*
X-26785Y26853D02*
Y27246D01*
X-26981Y28049D02*
X-26588D01*
X-26785Y27853D02*
Y28246D01*
X-26981Y32049D02*
X-26588D01*
X-26785Y31853D02*
Y32246D01*
X-26981Y33049D02*
X-26588D01*
X-26785Y32853D02*
Y33246D01*
X-26981Y31049D02*
X-26588D01*
X-26785Y30853D02*
Y31246D01*
X-25981Y26049D02*
X-25588D01*
X-25785Y25853D02*
Y26246D01*
X-26981Y26049D02*
X-26588D01*
X-26785Y25853D02*
Y26246D01*
X-25981Y22049D02*
X-25588D01*
X-25785Y21853D02*
Y22246D01*
X-26981Y24049D02*
X-26588D01*
X-26785Y23853D02*
Y24246D01*
X-26981Y25049D02*
X-26588D01*
X-26785Y24853D02*
Y25246D01*
X-26981Y23049D02*
X-26588D01*
X-26785Y22853D02*
Y23246D01*
X-22981Y20049D02*
X-22588D01*
X-22785Y19853D02*
Y20246D01*
X-22981Y21049D02*
X-22588D01*
X-22785Y20853D02*
Y21246D01*
X-22981Y18049D02*
X-22588D01*
X-22785Y17853D02*
Y18246D01*
X-22981Y19049D02*
X-22588D01*
X-22785Y18853D02*
Y19246D01*
X-22981Y15049D02*
X-22588D01*
X-22785Y14853D02*
Y15246D01*
X-22981Y14049D02*
X-22588D01*
X-22785Y13853D02*
Y14246D01*
X-22981Y13049D02*
X-22588D01*
X-22785Y12853D02*
Y13246D01*
X-23981Y21049D02*
X-23588D01*
X-23785Y20853D02*
Y21246D01*
X-23981Y22049D02*
X-23588D01*
X-23785Y21853D02*
Y22246D01*
X-23981Y18049D02*
X-23588D01*
X-23785Y17853D02*
Y18246D01*
X-23981Y20049D02*
X-23588D01*
X-23785Y19853D02*
Y20246D01*
X-23981Y17049D02*
X-23588D01*
X-23785Y16853D02*
Y17246D01*
X-22981Y17049D02*
X-22588D01*
X-22785Y16853D02*
Y17246D01*
X-22981Y16049D02*
X-22588D01*
X-22785Y15853D02*
Y16246D01*
X-23981Y15049D02*
X-23588D01*
X-23785Y14853D02*
Y15246D01*
X-23981Y16049D02*
X-23588D01*
X-23785Y15853D02*
Y16246D01*
X-23981Y14049D02*
X-23588D01*
X-23785Y13853D02*
Y14246D01*
X-23915Y11659D02*
X-22655D01*
X-23285Y11030D02*
Y12289D01*
X-23981Y13049D02*
X-23588D01*
X-23785Y12853D02*
Y13246D01*
X-25981Y20049D02*
X-25588D01*
X-25785Y19853D02*
Y20246D01*
X-25981Y21049D02*
X-25588D01*
X-25785Y20853D02*
Y21246D01*
X-23981Y19049D02*
X-23588D01*
X-23785Y18853D02*
Y19246D01*
X-25981Y19049D02*
X-25588D01*
X-25785Y18853D02*
Y19246D01*
X-25981Y17049D02*
X-25588D01*
X-25785Y16853D02*
Y17246D01*
X-25981Y18049D02*
X-25588D01*
X-25785Y17853D02*
Y18246D01*
X-25981Y16049D02*
X-25588D01*
X-25785Y15853D02*
Y16246D01*
X-26981Y18049D02*
X-26588D01*
X-26785Y17853D02*
Y18246D01*
X-26981Y19049D02*
X-26588D01*
X-26785Y18853D02*
Y19246D01*
X-26981Y16049D02*
X-26588D01*
X-26785Y15853D02*
Y16246D01*
X-26981Y17049D02*
X-26588D01*
X-26785Y16853D02*
Y17246D01*
X-26981Y21049D02*
X-26588D01*
X-26785Y20853D02*
Y21246D01*
X-26981Y22049D02*
X-26588D01*
X-26785Y21853D02*
Y22246D01*
X-26981Y20049D02*
X-26588D01*
X-26785Y19853D02*
Y20246D01*
X-25981Y14049D02*
X-25588D01*
X-25785Y13853D02*
Y14246D01*
X-25981Y15049D02*
X-25588D01*
X-25785Y14853D02*
Y15246D01*
X-25981Y12049D02*
X-25588D01*
X-25785Y11853D02*
Y12246D01*
X-25981Y13049D02*
X-25588D01*
X-25785Y12853D02*
Y13246D01*
X-25981Y11049D02*
X-25588D01*
X-25785Y10853D02*
Y11246D01*
X-26981Y12049D02*
X-26588D01*
X-26785Y11853D02*
Y12246D01*
X-25981Y10049D02*
X-25588D01*
X-25785Y9853D02*
Y10246D01*
X-25981Y8049D02*
X-25588D01*
X-25785Y7853D02*
Y8246D01*
X-25981Y9049D02*
X-25588D01*
X-25785Y8853D02*
Y9246D01*
X-25981Y7049D02*
X-25588D01*
X-25785Y6853D02*
Y7246D01*
X-25981Y5049D02*
X-25588D01*
X-25785Y4853D02*
Y5246D01*
X-25981Y6049D02*
X-25588D01*
X-25785Y5853D02*
Y6246D01*
X-26981Y5049D02*
X-26588D01*
X-26785Y4853D02*
Y5246D01*
X-26981Y10049D02*
X-26588D01*
X-26785Y9853D02*
Y10246D01*
X-26981Y11049D02*
X-26588D01*
X-26785Y10853D02*
Y11246D01*
X-26981Y9049D02*
X-26588D01*
X-26785Y8853D02*
Y9246D01*
X-26981Y14049D02*
X-26588D01*
X-26785Y13853D02*
Y14246D01*
X-26981Y15049D02*
X-26588D01*
X-26785Y14853D02*
Y15246D01*
X-26981Y13049D02*
X-26588D01*
X-26785Y12853D02*
Y13246D01*
X-26981Y7049D02*
X-26588D01*
X-26785Y6853D02*
Y7246D01*
X-26981Y8049D02*
X-26588D01*
X-26785Y7853D02*
Y8246D01*
X-26981Y6049D02*
X-26588D01*
X-26785Y5853D02*
Y6246D01*
X-8669Y39077D02*
X-8039D01*
X-8354Y38762D02*
Y39392D01*
X-21722Y27913D02*
X-21320D01*
X-21521Y27712D02*
Y28113D01*
X-21722Y26913D02*
X-21320D01*
X-21521Y26712D02*
Y27113D01*
X-21722Y25913D02*
X-21320D01*
X-21521Y25712D02*
Y26113D01*
X-19703Y25911D02*
X-19274D01*
X-19488Y25696D02*
Y26125D01*
X-19703Y29067D02*
X-19274D01*
X-19488Y28853D02*
Y29282D01*
X-19703Y27489D02*
X-19274D01*
X-19488Y27274D02*
Y27704D01*
X-19703Y24332D02*
X-19274D01*
X-19488Y24118D02*
Y24547D01*
X-19703Y30646D02*
X-19274D01*
X-19488Y30431D02*
Y30860D01*
X-21567Y40102D02*
X-21055D01*
X-21311Y39846D02*
Y40358D01*
X-19599Y40102D02*
X-19087D01*
X-19343Y39846D02*
Y40358D01*
X-12337Y27479D02*
X-11707D01*
X-12022Y27164D02*
Y27794D01*
X-7653Y23618D02*
X-7023D01*
X-7338Y23303D02*
Y23933D01*
X-10928Y28675D02*
X-10298D01*
X-10613Y28360D02*
Y28990D01*
X-8113Y28675D02*
X-7483D01*
X-7798Y28360D02*
Y28990D01*
X-9520Y27479D02*
X-8890D01*
X-9205Y27164D02*
Y27794D01*
X-7443Y32288D02*
X-7014D01*
X-7228Y32073D02*
Y32502D01*
X-9293Y32288D02*
X-8864D01*
X-9078Y32073D02*
Y32502D01*
X-21541Y35479D02*
X-21111D01*
X-21326Y35265D02*
Y35694D01*
X-19360Y35479D02*
X-18959D01*
X-19159Y35278D02*
Y35680D01*
X-18360Y35479D02*
X-17959D01*
X-18159Y35278D02*
Y35680D01*
X-17360Y35479D02*
X-16959D01*
X-17159Y35278D02*
Y35680D01*
X-15515Y35479D02*
X-15086D01*
X-15300Y35265D02*
Y35694D01*
X-15266Y31268D02*
X-14837D01*
X-15052Y31053D02*
Y31482D01*
X-26664Y1225D02*
X-26034D01*
X-26349Y910D02*
Y1540D01*
X-2140Y1270D02*
X-1510D01*
X-1825Y955D02*
Y1585D01*
X-5305Y4445D02*
X-5187D01*
X-5246Y4386D02*
Y4504D01*
X-5128Y5380D02*
X-5010D01*
X-5069Y5321D02*
Y5439D01*
X-4816Y5945D02*
X-4698D01*
X-4757Y5886D02*
Y6004D01*
X-5128Y4691D02*
X-5010D01*
X-5069Y4632D02*
Y4750D01*
X-5677Y4111D02*
X-5559D01*
X-5618Y4052D02*
Y4170D01*
X-5095Y4201D02*
X-4976D01*
X-5036Y4141D02*
Y4260D01*
X-4888Y3974D02*
X-4770D01*
X-4829Y3915D02*
Y4034D01*
X-5599Y3722D02*
X-5480D01*
X-5539Y3663D02*
Y3781D01*
X-5177Y5076D02*
X-5059D01*
X-5118Y5017D02*
Y5135D01*
X-13445Y6719D02*
X-13327D01*
X-13386Y6660D02*
Y6778D01*
X-13750Y6660D02*
X-13632D01*
X-13691Y6601D02*
Y6719D01*
X-13234Y7403D02*
X-13116D01*
X-13175Y7344D02*
Y7462D01*
X-17284Y24435D02*
X-17166D01*
X-17225Y24376D02*
Y24494D01*
X-15807Y25646D02*
X-15689D01*
X-15748Y25587D02*
Y25705D01*
X-19949Y31974D02*
X-19831D01*
X-19890Y31915D02*
Y32034D01*
X-17973Y23854D02*
X-17855D01*
X-17914Y23795D02*
Y23914D01*
X-13330Y20121D02*
X-13230D01*
X-13280Y20071D02*
Y20171D01*
X-13330Y19398D02*
X-13230D01*
X-13280Y19348D02*
Y19448D01*
X-13330Y20843D02*
X-13230D01*
X-13280Y20793D02*
Y20893D01*
X-14052Y20843D02*
X-13952D01*
X-14002Y20793D02*
Y20893D01*
X-14052Y19398D02*
X-13952D01*
X-14002Y19348D02*
Y19448D01*
X-12968Y20482D02*
X-12868D01*
X-12918Y20432D02*
Y20532D01*
X-14413Y20482D02*
X-14313D01*
X-14363Y20432D02*
Y20532D01*
X-13691Y20482D02*
X-13591D01*
X-13641Y20432D02*
Y20532D01*
X-12968Y19760D02*
X-12868D01*
X-12918Y19710D02*
Y19810D01*
X-14413Y19760D02*
X-14313D01*
X-14363Y19710D02*
Y19810D01*
X-13691Y19760D02*
X-13591D01*
X-13641Y19710D02*
Y19810D01*
X-14052Y20121D02*
X-13952D01*
X-14002Y20071D02*
Y20171D01*
X-17093Y22240D02*
X-16974D01*
X-17034Y22181D02*
Y22299D01*
X-18338Y18478D02*
X-18220D01*
X-18279Y18419D02*
Y18537D01*
X-13847Y22084D02*
X-13729D01*
X-13788Y22025D02*
Y22143D01*
X-16013Y24419D02*
X-15895D01*
X-15954Y24360D02*
Y24478D01*
X-18110Y17532D02*
X-17992D01*
X-18051Y17473D02*
Y17591D01*
X-10748Y23293D02*
X-10630D01*
X-10689Y23234D02*
Y23353D01*
X-11239Y17759D02*
X-11121D01*
X-11180Y17700D02*
Y17818D01*
X-17972Y17802D02*
X-17854D01*
X-17913Y17743D02*
Y17861D01*
X-10738Y17744D02*
X-10620D01*
X-10679Y17684D02*
Y17803D01*
X-9597Y7211D02*
X-9479D01*
X-9538Y7152D02*
Y7270D01*
X-9292Y7034D02*
X-9173D01*
X-9233Y6975D02*
Y7093D01*
X-9593Y5319D02*
X-9475D01*
X-9534Y5260D02*
Y5378D01*
X-9593Y6137D02*
X-9475D01*
X-9534Y6078D02*
Y6196D01*
X-9593Y5695D02*
X-9475D01*
X-9534Y5636D02*
Y5754D01*
X-9593Y6500D02*
X-9475D01*
X-9534Y6441D02*
Y6559D01*
X-14186Y7339D02*
X-14068D01*
X-14127Y7280D02*
Y7398D01*
X-13021Y8391D02*
X-12903D01*
X-12962Y8332D02*
Y8450D01*
X-13025Y7984D02*
X-12907D01*
X-12966Y7925D02*
Y8043D01*
X-22538Y5180D02*
X-22420D01*
X-22479Y5121D02*
Y5239D01*
X-6255Y3727D02*
X-6137D01*
X-6196Y3668D02*
Y3786D01*
X-13522Y38447D02*
X-13404D01*
X-13463Y38388D02*
Y38506D01*
X-18603Y21346D02*
X-18485D01*
X-18544Y21287D02*
Y21405D01*
X-22141Y6433D02*
X-22023D01*
X-22082Y6374D02*
Y6492D01*
X-4813Y6286D02*
X-4695D01*
X-4754Y6227D02*
Y6345D01*
X-5836Y7078D02*
X-5718D01*
X-5777Y7019D02*
Y7137D01*
X-11083Y5036D02*
X-10965D01*
X-11024Y4977D02*
Y5095D01*
X-10965Y4406D02*
X-10847D01*
X-10906Y4347D02*
Y4465D01*
X-14515Y39498D02*
X-14397D01*
X-14456Y39439D02*
Y39557D01*
X-12929Y39538D02*
X-12810D01*
X-12870Y39479D02*
Y39597D01*
X-12929Y39204D02*
X-12810D01*
X-12870Y39145D02*
Y39263D01*
X-20276Y3540D02*
X-20158D01*
X-20217Y3480D02*
Y3599D01*
X-20748Y656D02*
X-20630D01*
X-20689Y597D02*
Y715D01*
X-22638Y656D02*
X-22520D01*
X-22579Y597D02*
Y715D01*
X-16823Y943D02*
X-16705D01*
X-16764Y884D02*
Y1002D01*
X-22109Y2743D02*
X-21991D01*
X-22050Y2684D02*
Y2802D01*
X-21345Y3186D02*
X-21227D01*
X-21286Y3127D02*
Y3245D01*
X-21360Y2477D02*
X-21242D01*
X-21301Y2418D02*
Y2537D01*
X-19971Y3234D02*
X-19853D01*
X-19912Y3175D02*
Y3293D01*
X-20276Y3234D02*
X-20158D01*
X-20217Y3175D02*
Y3293D01*
X-20336Y5803D02*
X-20236D01*
X-20286Y5753D02*
Y5853D01*
X-20336Y5370D02*
X-20236D01*
X-20286Y5320D02*
Y5420D01*
X-20336Y4937D02*
X-20236D01*
X-20286Y4887D02*
Y4987D01*
X-20336Y4504D02*
X-20236D01*
X-20286Y4454D02*
Y4554D01*
X-20769Y5803D02*
X-20669D01*
X-20719Y5753D02*
Y5853D01*
X-20769Y4504D02*
X-20669D01*
X-20719Y4454D02*
Y4554D01*
X-21202Y5803D02*
X-21102D01*
X-21152Y5753D02*
Y5853D01*
X-21635Y5803D02*
X-21535D01*
X-21585Y5753D02*
Y5853D01*
X-21635Y5370D02*
X-21535D01*
X-21585Y5320D02*
Y5420D01*
X-21635Y4937D02*
X-21535D01*
X-21585Y4887D02*
Y4987D01*
X-21635Y4504D02*
X-21535D01*
X-21585Y4454D02*
Y4554D01*
X-21202Y4504D02*
X-21102D01*
X-21152Y4454D02*
Y4554D01*
X-20769Y4937D02*
X-20669D01*
X-20719Y4887D02*
Y4987D01*
X-20769Y5370D02*
X-20669D01*
X-20719Y5320D02*
Y5420D01*
X-21202Y4937D02*
X-21102D01*
X-21152Y4887D02*
Y4987D01*
X-21182Y5370D02*
X-21082D01*
X-21132Y5320D02*
Y5420D01*
X-22549Y5774D02*
X-22431D01*
X-22490Y5715D02*
Y5833D01*
X-22458Y6361D02*
X-22340D01*
X-22399Y6302D02*
Y6420D01*
X-20628Y7237D02*
X-20510D01*
X-20569Y7178D02*
Y7296D01*
X-22518Y4528D02*
X-22400D01*
X-22459Y4469D02*
Y4587D01*
X-20342Y6822D02*
X-20223D01*
X-20282Y6763D02*
Y6881D01*
X-19144Y4603D02*
X-19026D01*
X-19085Y4543D02*
Y4662D01*
X-20573Y7739D02*
X-20455D01*
X-20514Y7680D02*
Y7798D01*
X-2953Y3185D02*
X-2835D01*
X-2894Y3126D02*
Y3244D01*
X-18760Y2358D02*
X-18642D01*
X-18701Y2299D02*
Y2417D01*
X-17150Y3767D02*
X-17031D01*
X-17091Y3708D02*
Y3826D01*
X-17150Y3363D02*
X-17031D01*
X-17091Y3304D02*
Y3422D01*
X-17150Y2966D02*
X-17031D01*
X-17091Y2907D02*
Y3025D01*
X-16139Y13452D02*
X-16021D01*
X-16080Y13393D02*
Y13511D01*
X-18733Y8811D02*
X-18615D01*
X-18674Y8752D02*
Y8870D01*
X-19729Y12099D02*
X-19611D01*
X-19670Y12039D02*
Y12158D01*
X-22644Y7135D02*
X-22526D01*
X-22585Y7076D02*
Y7194D01*
X-19321Y9898D02*
X-19203D01*
X-19262Y9839D02*
Y9957D01*
X-19282Y5202D02*
X-19164D01*
X-19223Y5142D02*
Y5261D01*
X-12810Y15427D02*
X-12692D01*
X-12751Y15368D02*
Y15486D01*
X-7362Y16896D02*
X-7244D01*
X-7303Y16837D02*
Y16955D01*
X-13258Y13421D02*
X-13140D01*
X-13199Y13362D02*
Y13480D01*
X-13238Y13825D02*
X-13120D01*
X-13179Y13766D02*
Y13884D01*
X-9231Y11378D02*
X-9112D01*
X-9171Y11318D02*
Y11437D01*
X-9695Y11158D02*
X-9577D01*
X-9636Y11099D02*
Y11217D01*
X-16162Y16255D02*
X-16044D01*
X-16103Y16196D02*
Y16314D01*
X-19347Y1268D02*
X-19228D01*
X-19287Y1209D02*
Y1327D01*
X-19729Y1268D02*
X-19611D01*
X-19670Y1209D02*
Y1327D01*
X-20748Y1216D02*
X-20630D01*
X-20689Y1157D02*
Y1275D01*
X-22638Y1201D02*
X-22520D01*
X-22579Y1142D02*
Y1260D01*
X-19065Y2358D02*
X-18947D01*
X-19006Y2299D02*
Y2417D01*
X-20117Y2276D02*
X-19999D01*
X-20058Y2217D02*
Y2335D01*
X-20522Y2262D02*
X-20404D01*
X-20463Y2202D02*
Y2321D01*
X-20926Y2262D02*
X-20808D01*
X-20867Y2202D02*
Y2321D01*
X-23218Y2813D02*
X-23100D01*
X-23159Y2754D02*
Y2872D01*
X-23610Y3819D02*
X-23492D01*
X-23551Y3760D02*
Y3878D01*
X-21829Y21734D02*
X-21711D01*
X-21770Y21675D02*
Y21793D01*
X-18688Y19694D02*
X-18570D01*
X-18629Y19635D02*
Y19753D01*
X-21829Y19372D02*
X-21711D01*
X-21770Y19312D02*
Y19431D01*
X-21829Y20159D02*
X-21711D01*
X-21770Y20100D02*
Y20218D01*
X-21829Y20946D02*
X-21711D01*
X-21770Y20887D02*
Y21005D01*
X-18315Y6589D02*
X-18197D01*
X-18256Y6530D02*
Y6648D01*
X-7515Y3712D02*
X-7397D01*
X-7456Y3653D02*
Y3771D01*
X-12408Y2461D02*
X-12290D01*
X-12349Y2402D02*
Y2520D01*
X-13553Y2463D02*
X-13435D01*
X-13494Y2404D02*
Y2522D01*
X-7681Y2454D02*
X-7563D01*
X-7622Y2395D02*
Y2513D01*
X-6537Y2452D02*
X-6419D01*
X-6478Y2393D02*
Y2512D01*
X-9242Y3667D02*
X-9124D01*
X-9183Y3608D02*
Y3727D01*
X-13682Y9024D02*
X-13564D01*
X-13623Y8965D02*
Y9083D01*
X-12742Y13211D02*
X-12624D01*
X-12683Y13152D02*
Y13270D01*
X-12294Y7358D02*
X-12175D01*
X-12234Y7299D02*
Y7417D01*
X-14502Y16255D02*
X-14384D01*
X-14443Y16196D02*
Y16314D01*
X-17971Y16056D02*
X-17853D01*
X-17912Y15997D02*
Y16115D01*
X-17412Y25987D02*
X-17294D01*
X-17353Y25928D02*
Y26046D01*
X-17732Y25987D02*
X-17613D01*
X-17673Y25928D02*
Y26046D01*
X-18051Y25987D02*
X-17933D01*
X-17992Y25928D02*
Y26046D01*
X-15237Y26543D02*
X-15119D01*
X-15178Y26484D02*
Y26602D01*
X-16693Y29042D02*
X-16575D01*
X-16634Y28982D02*
Y29101D01*
X-16388Y29042D02*
X-16270D01*
X-16329Y28982D02*
Y29101D01*
X-16085Y29041D02*
X-15966D01*
X-16025Y28981D02*
Y29100D01*
X-16083Y28736D02*
X-15965D01*
X-16024Y28677D02*
Y28795D01*
X-16083Y28431D02*
X-15965D01*
X-16024Y28372D02*
Y28490D01*
X-16762Y30535D02*
X-16644D01*
X-16703Y30476D02*
Y30594D01*
X-13192Y12051D02*
X-13074D01*
X-13133Y11992D02*
Y12110D01*
X-13192Y11701D02*
X-13074D01*
X-13133Y11642D02*
Y11760D01*
X-9362Y15484D02*
X-9244D01*
X-9303Y15424D02*
Y15543D01*
X-7123Y10932D02*
X-7005D01*
X-7064Y10873D02*
Y10991D01*
X-6905Y10392D02*
X-6787D01*
X-6846Y10333D02*
Y10451D01*
X-7583Y15825D02*
X-7465D01*
X-7524Y15766D02*
Y15884D01*
X-14974Y7771D02*
X-14856D01*
X-14915Y7712D02*
Y7830D01*
X-17195Y27358D02*
X-17077D01*
X-17136Y27299D02*
Y27417D01*
X-17510Y27358D02*
X-17392D01*
X-17451Y27299D02*
Y27417D01*
X-16969Y27910D02*
X-16851D01*
X-16910Y27851D02*
Y27969D01*
X-16969Y27595D02*
X-16851D01*
X-16910Y27536D02*
Y27654D01*
X-16664Y27315D02*
X-16546D01*
X-16605Y27256D02*
Y27374D01*
X-10606Y9799D02*
X-10488D01*
X-10547Y9740D02*
Y9858D01*
X-11655Y12549D02*
X-11537D01*
X-11596Y12490D02*
Y12608D01*
X-11422Y24844D02*
X-11304D01*
X-11363Y24785D02*
Y24903D01*
X-15547Y22453D02*
X-15429D01*
X-15488Y22394D02*
Y22512D01*
X-14199Y23026D02*
X-14080D01*
X-14140Y22967D02*
Y23085D01*
X-12167Y26371D02*
X-12049D01*
X-12108Y26311D02*
Y26430D01*
X-11179Y4181D02*
X-11061D01*
X-11120Y4122D02*
Y4240D01*
X-11722Y3687D02*
X-11604D01*
X-11663Y3628D02*
Y3746D01*
X-11214Y3697D02*
X-11096D01*
X-11155Y3638D02*
Y3756D01*
X-11584Y4140D02*
X-11466D01*
X-11525Y4081D02*
Y4199D01*
X-16808Y21563D02*
X-16690D01*
X-16749Y21504D02*
Y21622D01*
X-17351Y13528D02*
X-17233D01*
X-17292Y13469D02*
Y13587D01*
X-16115Y10665D02*
X-15997D01*
X-16056Y10606D02*
Y10724D01*
X-17201Y14965D02*
X-17083D01*
X-17142Y14906D02*
Y15024D01*
X-12026Y25457D02*
X-11908D01*
X-11967Y25398D02*
Y25516D01*
X-10552Y25222D02*
X-10434D01*
X-10493Y25163D02*
Y25281D01*
X-12450Y33370D02*
X-12332D01*
X-12391Y33311D02*
Y33429D01*
X-10857Y35183D02*
X-10738D01*
X-10797Y35124D02*
Y35242D01*
X-10550Y26276D02*
X-10432D01*
X-10491Y26217D02*
Y26335D01*
X-8346Y10108D02*
X-8228D01*
X-8287Y10049D02*
Y10167D01*
X-6915Y9745D02*
X-6797D01*
X-6856Y9686D02*
Y9804D01*
X-12052Y12810D02*
X-11934D01*
X-11993Y12751D02*
Y12869D01*
X-21933Y16556D02*
X-21815D01*
X-21874Y16497D02*
Y16615D01*
X-21916Y3719D02*
X-21798D01*
X-21857Y3660D02*
Y3778D01*
X-21911Y17556D02*
X-21792D01*
X-21852Y17497D02*
Y17615D01*
X-19084Y3958D02*
X-18966D01*
X-19025Y3899D02*
Y4017D01*
X-10846Y24887D02*
X-10728D01*
X-10787Y24828D02*
Y24946D01*
X-18739Y30010D02*
X-18621D01*
X-18680Y29951D02*
Y30069D01*
X-18754Y29648D02*
X-18636D01*
X-18695Y29589D02*
Y29707D01*
X-24488Y5616D02*
X-24370D01*
X-24429Y5557D02*
Y5675D01*
X-23746Y5737D02*
X-23628D01*
X-23687Y5677D02*
Y5796D01*
X-24388Y4368D02*
X-24270D01*
X-24329Y4309D02*
Y4427D01*
X-13590Y34301D02*
X-13472D01*
X-13531Y34242D02*
Y34360D01*
X-13182Y29166D02*
X-13063D01*
X-13123Y29107D02*
Y29225D01*
X-13182Y28241D02*
X-13063D01*
X-13123Y28182D02*
Y28300D01*
X-13068Y34142D02*
X-12950D01*
X-13009Y34083D02*
Y34201D01*
X-13069Y33678D02*
X-12951D01*
X-13010Y33619D02*
Y33737D01*
X-12038Y25814D02*
X-11920D01*
X-11979Y25755D02*
Y25874D01*
X-12870Y12713D02*
X-12751D01*
X-12810Y12654D02*
Y12772D01*
X-15335Y21208D02*
X-15217D01*
X-15276Y21149D02*
Y21267D01*
X-23734Y6224D02*
X-23616D01*
X-23675Y6165D02*
Y6283D01*
X-20710Y10225D02*
X-20592D01*
X-20651Y10166D02*
Y10284D01*
X-19275Y7111D02*
X-19157D01*
X-19216Y7052D02*
Y7170D01*
X-19284Y6726D02*
X-19166D01*
X-19225Y6667D02*
Y6785D01*
X-24425Y4990D02*
X-24307D01*
X-24366Y4931D02*
Y5049D01*
X-24675Y4036D02*
X-24557D01*
X-24616Y3977D02*
Y4095D01*
X-24746Y5234D02*
X-24628D01*
X-24687Y5175D02*
Y5293D01*
X-24733Y4603D02*
X-24615D01*
X-24674Y4544D02*
Y4662D01*
X-23348Y6942D02*
X-23230D01*
X-23289Y6883D02*
Y7001D01*
X-10896Y5285D02*
X-10778D01*
X-10837Y5226D02*
Y5345D01*
X-10005Y5232D02*
X-9887D01*
X-9946Y5173D02*
Y5291D01*
X-11147Y4658D02*
X-11029D01*
X-11088Y4599D02*
Y4717D01*
X-19065Y2909D02*
X-18947D01*
X-19006Y2850D02*
Y2968D01*
X-18227Y5199D02*
X-18109D01*
X-18168Y5140D02*
Y5258D01*
X-13233Y5211D02*
X-13115D01*
X-13174Y5152D02*
Y5270D01*
X-13233Y5763D02*
X-13115D01*
X-13174Y5704D02*
Y5822D01*
X-12681Y5763D02*
X-12563D01*
X-12622Y5704D02*
Y5822D01*
X-12681Y5211D02*
X-12563D01*
X-12622Y5152D02*
Y5271D01*
X-10353Y34266D02*
X-10253D01*
X-10303Y34216D02*
Y34316D01*
X-10353Y33832D02*
X-10253D01*
X-10303Y33782D02*
Y33882D01*
X-10786Y34266D02*
X-10686D01*
X-10736Y34216D02*
Y34316D01*
X-10786Y33832D02*
X-10686D01*
X-10736Y33782D02*
Y33882D01*
X-3878Y4333D02*
X-3760D01*
X-3819Y4274D02*
Y4392D01*
X-13824Y10257D02*
X-13706D01*
X-13765Y10198D02*
Y10316D01*
X-13826Y9729D02*
X-13707D01*
X-13767Y9670D02*
Y9788D01*
X-6239Y5763D02*
X-6121D01*
X-6180Y5704D02*
Y5822D01*
X-6239Y5211D02*
X-6121D01*
X-6180Y5152D02*
Y5271D01*
X-6239Y4660D02*
X-6121D01*
X-6180Y4601D02*
Y4719D01*
X-6791Y4660D02*
X-6672D01*
X-6731Y4601D02*
Y4719D01*
X-7342Y4660D02*
X-7224D01*
X-7283Y4601D02*
Y4719D01*
X-7342Y5211D02*
X-7224D01*
X-7283Y5152D02*
Y5270D01*
X-7342Y5763D02*
X-7224D01*
X-7283Y5704D02*
Y5822D01*
X-6791Y5763D02*
X-6672D01*
X-6731Y5704D02*
Y5822D01*
X-6791Y5211D02*
X-6672D01*
X-6731Y5152D02*
Y5271D01*
X-12130Y5763D02*
X-12012D01*
X-12071Y5704D02*
Y5822D01*
X-12130Y5211D02*
X-12012D01*
X-12071Y5152D02*
Y5271D01*
X-12130Y4660D02*
X-12012D01*
X-12071Y4601D02*
Y4719D01*
X-12681Y4660D02*
X-12563D01*
X-12622Y4601D02*
Y4719D01*
X-13233Y4660D02*
X-13115D01*
X-13174Y4601D02*
Y4719D01*
X-6314Y7172D02*
X-6196D01*
X-6255Y7113D02*
Y7231D01*
X-5622Y6742D02*
X-5504D01*
X-5563Y6683D02*
Y6802D01*
X-5422Y6965D02*
X-5304D01*
X-5363Y6906D02*
Y7024D01*
X-5216Y6719D02*
X-5098D01*
X-5157Y6660D02*
Y6778D01*
X-3772Y8838D02*
X-3654D01*
X-3713Y8779D02*
Y8897D01*
X-4344Y3830D02*
X-4226D01*
X-4285Y3771D02*
Y3889D01*
X-4997Y9283D02*
X-4879D01*
X-4938Y9224D02*
Y9342D01*
X-6938Y11206D02*
X-6820D01*
X-6879Y11147D02*
Y11265D01*
X-7473Y30522D02*
X-7355D01*
X-7414Y30463D02*
Y30581D01*
X-9229Y13192D02*
X-9110D01*
X-9169Y13133D02*
Y13251D01*
X-8738Y13218D02*
X-8620D01*
X-8679Y13159D02*
Y13277D01*
X-8081Y13181D02*
X-7963D01*
X-8022Y13122D02*
Y13240D01*
X-12086Y3717D02*
X-11968D01*
X-12027Y3658D02*
Y3776D01*
X-13445Y3697D02*
X-13327D01*
X-13386Y3638D02*
Y3756D01*
X-4593Y10233D02*
X-4475D01*
X-4534Y10174D02*
Y10292D01*
X-4116Y10950D02*
X-3998D01*
X-4057Y10891D02*
Y11009D01*
X-4186Y5456D02*
X-4068D01*
X-4127Y5397D02*
Y5515D01*
X-8291Y9698D02*
X-8172D01*
X-8232Y9639D02*
Y9757D01*
X-4063Y3411D02*
X-3945D01*
X-4004Y3352D02*
Y3470D01*
X-3620Y5154D02*
X-3502D01*
X-3561Y5095D02*
Y5213D01*
X-4759Y3479D02*
X-4641D01*
X-4700Y3420D02*
Y3538D01*
X-4186Y4226D02*
X-4068D01*
X-4127Y4167D02*
Y4286D01*
X-6595Y6774D02*
X-6477D01*
X-6536Y6715D02*
Y6833D01*
X-6184Y6856D02*
X-6066D01*
X-6125Y6797D02*
Y6915D01*
X-7859Y6719D02*
X-7741D01*
X-7800Y6660D02*
Y6778D01*
X-9004Y8930D02*
X-8886D01*
X-8945Y8870D02*
Y8989D01*
X-6875Y7657D02*
X-6757D01*
X-6816Y7598D02*
Y7716D01*
X-4186Y5044D02*
X-4068D01*
X-4127Y4985D02*
Y5103D01*
X-4186Y4623D02*
X-4068D01*
X-4127Y4564D02*
Y4682D01*
X-10570Y10680D02*
X-10452D01*
X-10511Y10621D02*
Y10739D01*
X-10225Y11036D02*
X-10107D01*
X-10166Y10977D02*
Y11095D01*
X-9167Y10521D02*
X-9049D01*
X-9108Y10462D02*
Y10580D01*
X-10502Y12501D02*
X-10384D01*
X-10443Y12442D02*
Y12560D01*
X-10125Y13184D02*
X-10007D01*
X-10066Y13125D02*
Y13244D01*
X-10729Y13178D02*
X-10611D01*
X-10670Y13119D02*
Y13237D01*
X-8876Y6844D02*
X-8758D01*
X-8817Y6785D02*
Y6903D01*
X-6526Y10707D02*
X-6408D01*
X-6467Y10647D02*
Y10766D01*
X-3134Y2849D02*
X-3016D01*
X-3075Y2790D02*
Y2908D01*
X-3478Y2920D02*
X-3360D01*
X-3419Y2860D02*
Y2979D01*
X-15502Y6500D02*
X-15384D01*
X-15443Y6441D02*
Y6559D01*
X-11467Y6689D02*
X-11349D01*
X-11408Y6630D02*
Y6748D01*
X-7628Y11007D02*
X-7509D01*
X-7569Y10948D02*
Y11066D01*
X-9316Y9401D02*
X-9198D01*
X-9257Y9342D02*
Y9460D01*
X-10800Y8207D02*
X-10682D01*
X-10741Y8148D02*
Y8266D01*
X-8117Y12144D02*
X-7999D01*
X-8058Y12085D02*
Y12203D01*
X-7808Y11971D02*
X-7689D01*
X-7749Y11912D02*
Y12030D01*
X-7499Y6710D02*
X-7381D01*
X-7440Y6651D02*
Y6769D01*
X-10606Y24671D02*
X-10488D01*
X-10547Y24612D02*
Y24730D01*
X-11291Y1957D02*
X-11173D01*
X-11232Y1898D02*
Y2017D01*
X-12120Y1957D02*
X-12002D01*
X-12061Y1898D02*
Y2017D01*
X-9166Y2717D02*
X-9047D01*
X-9107Y2658D02*
Y2776D01*
X-9166Y1851D02*
X-9047D01*
X-9107Y1792D02*
Y1910D01*
X-9384Y2502D02*
X-9266D01*
X-9325Y2443D02*
Y2561D01*
X-9166Y2279D02*
X-9047D01*
X-9107Y2220D02*
Y2338D01*
X-9384Y2068D02*
X-9266D01*
X-9325Y2009D02*
Y2127D01*
X-9374Y1600D02*
X-9256D01*
X-9315Y1541D02*
Y1659D01*
X-9405Y767D02*
X-9287D01*
X-9346Y708D02*
Y826D01*
X-10888Y1957D02*
X-10769D01*
X-10828Y1898D02*
Y2017D01*
X-11700Y1957D02*
X-11582D01*
X-11641Y1898D02*
Y2017D01*
X-12066Y15466D02*
X-11948D01*
X-12007Y15407D02*
Y15525D01*
X-10086Y32946D02*
X-9968D01*
X-10027Y32887D02*
Y33005D01*
X-11682Y33754D02*
X-11564D01*
X-11623Y33695D02*
Y33813D01*
X-11445Y35492D02*
X-11327D01*
X-11386Y35433D02*
Y35551D01*
X-10283Y35162D02*
X-10165D01*
X-10224Y35103D02*
Y35221D01*
X-20236Y13170D02*
X-20118D01*
X-20177Y13111D02*
Y13229D01*
X-8382Y31006D02*
X-8264D01*
X-8323Y30947D02*
Y31065D01*
X-9205Y29930D02*
X-9087D01*
X-9146Y29871D02*
Y29989D01*
X-14854Y40391D02*
X-14736D01*
X-14795Y40332D02*
Y40450D01*
X-10595Y3480D02*
X-10477D01*
X-10536Y3421D02*
Y3539D01*
X-10586Y11026D02*
X-10468D01*
X-10527Y10967D02*
Y11085D01*
X-7303Y9299D02*
X-7185D01*
X-7244Y9240D02*
Y9358D01*
X-8040Y15469D02*
X-7922D01*
X-7981Y15410D02*
Y15528D01*
X-8720Y15471D02*
X-8601D01*
X-8661Y15412D02*
Y15530D01*
X-6520Y660D02*
X-6402D01*
X-6461Y601D02*
Y720D01*
X-8602Y1218D02*
X-8484D01*
X-8543Y1159D02*
Y1277D01*
X-8602Y660D02*
X-8484D01*
X-8543Y601D02*
Y720D01*
X-3461Y739D02*
X-3343D01*
X-3402Y680D02*
Y798D01*
X-6520Y1218D02*
X-6402D01*
X-6461Y1159D02*
Y1277D01*
X-9968Y4648D02*
X-9850D01*
X-9909Y4589D02*
Y4707D01*
X-12922Y37943D02*
X-12804D01*
X-12863Y37884D02*
Y38002D01*
X-12322Y38447D02*
X-12204D01*
X-12263Y38388D02*
Y38506D01*
X-12322Y37943D02*
X-12204D01*
X-12263Y37884D02*
Y38002D01*
X-11929Y41026D02*
X-11811D01*
X-11870Y40967D02*
Y41085D01*
X-13522Y37943D02*
X-13404D01*
X-13463Y37884D02*
Y38002D01*
X-11948Y35615D02*
X-11830D01*
X-11889Y35556D02*
Y35674D01*
X-12281Y35282D02*
X-12163D01*
X-12222Y35223D02*
Y35341D01*
X-19824Y36816D02*
X-19706D01*
X-19765Y36757D02*
Y36875D01*
X-19320Y36816D02*
X-19202D01*
X-19261Y36757D02*
Y36875D01*
X-19320Y38016D02*
X-19202D01*
X-19261Y37957D02*
Y38075D01*
X-19824Y38016D02*
X-19706D01*
X-19765Y37957D02*
Y38075D01*
X-19320Y37416D02*
X-19202D01*
X-19261Y37357D02*
Y37475D01*
X-15604Y32343D02*
X-15486D01*
X-15545Y32284D02*
Y32402D01*
X-15964Y32933D02*
X-15846D01*
X-15905Y32873D02*
Y32992D01*
X-12236Y31738D02*
X-12118D01*
X-12177Y31679D02*
Y31798D01*
X-6193Y1991D02*
X-6074D01*
X-6133Y1932D02*
Y2050D01*
X-5805Y1991D02*
X-5687D01*
X-5746Y1932D02*
Y2050D01*
X-5407Y1990D02*
X-5289D01*
X-5348Y1931D02*
Y2049D01*
X-5003Y1981D02*
X-4885D01*
X-4944Y1922D02*
Y2040D01*
X-14400Y664D02*
X-14282D01*
X-14341Y605D02*
Y723D01*
X-14400Y1208D02*
X-14282D01*
X-14341Y1149D02*
Y1267D01*
X-12510Y1224D02*
X-12392D01*
X-12451Y1165D02*
Y1283D01*
X-12510Y664D02*
X-12392D01*
X-12451Y605D02*
Y723D01*
X-13674Y2847D02*
X-13556D01*
X-13615Y2788D02*
Y2906D01*
X-15197Y3690D02*
X-15078D01*
X-15137Y3631D02*
Y3749D01*
X-15502Y6078D02*
X-15384D01*
X-15443Y6019D02*
Y6137D01*
X-15502Y5695D02*
X-15384D01*
X-15443Y5636D02*
Y5754D01*
X-15502Y5302D02*
X-15384D01*
X-15443Y5243D02*
Y5361D01*
X-11396Y15466D02*
X-11278D01*
X-11337Y15407D02*
Y15525D01*
X-10740Y15466D02*
X-10622D01*
X-10681Y15407D02*
Y15525D01*
X-10072Y15466D02*
X-9954D01*
X-10013Y15407D02*
Y15525D01*
X-11280Y34836D02*
X-11162D01*
X-11221Y34777D02*
Y34895D01*
X-11600Y34836D02*
X-11482D01*
X-11541Y34777D02*
Y34895D01*
X-14511Y34301D02*
X-14393D01*
X-14452Y34242D02*
Y34360D01*
X-15368Y28241D02*
X-15250D01*
X-15309Y28182D02*
Y28300D01*
X-15368Y27313D02*
X-15250D01*
X-15309Y27254D02*
Y27372D01*
X-12236Y30353D02*
X-12118D01*
X-12177Y30294D02*
Y30412D01*
X-8030Y30976D02*
X-7912D01*
X-7971Y30917D02*
Y31035D01*
X-8984Y30333D02*
X-8866D01*
X-8925Y30274D02*
Y30392D01*
X-7639Y9315D02*
X-7520D01*
X-7580Y9256D02*
Y9374D01*
X-19236Y12099D02*
X-19117D01*
X-19176Y12040D02*
Y12158D01*
X-11591Y33280D02*
X-11473D01*
X-11532Y33221D02*
Y33339D01*
X-9989Y4274D02*
X-9871D01*
X-9930Y4215D02*
Y4333D01*
X-10276Y3846D02*
X-10158D01*
X-10217Y3787D02*
Y3905D01*
X-7767Y2981D02*
X-7649D01*
X-7708Y2922D02*
Y3040D01*
X-3122Y2403D02*
X-3003D01*
X-3063Y2343D02*
Y2462D01*
X-3125Y1972D02*
X-3007D01*
X-3066Y1913D02*
Y2031D01*
X-3474Y1778D02*
X-3356D01*
X-3415Y1719D02*
Y1838D01*
X-3474Y2200D02*
X-3356D01*
X-3415Y2141D02*
Y2259D01*
X-3469Y2601D02*
X-3351D01*
X-3410Y2542D02*
Y2660D01*
X-12418Y9477D02*
X-12300D01*
X-12359Y9418D02*
Y9536D01*
X-11400Y13178D02*
X-11282D01*
X-11341Y13119D02*
Y13237D01*
X-12066Y13171D02*
X-11948D01*
X-12007Y13112D02*
Y13231D01*
X-11642Y11584D02*
X-11524D01*
X-11583Y11525D02*
Y11643D01*
X-11629Y11140D02*
X-11511D01*
X-11570Y11081D02*
Y11199D01*
X-11629Y11984D02*
X-11511D01*
X-11570Y11925D02*
Y12044D01*
X-7995Y8960D02*
X-7877D01*
X-7936Y8901D02*
Y9019D01*
X-10902Y12558D02*
X-10784D01*
X-10843Y12499D02*
Y12617D01*
X-16855Y25987D02*
X-16737D01*
X-16796Y25928D02*
Y26046D01*
X-16536Y25987D02*
X-16418D01*
X-16477Y25928D02*
Y26046D01*
X-16536Y25347D02*
X-16418D01*
X-16477Y25288D02*
Y25407D01*
X-16536Y25667D02*
X-16418D01*
X-16477Y25608D02*
Y25726D01*
X-16270Y29642D02*
X-16152D01*
X-16211Y29583D02*
Y29701D01*
X-8295Y7339D02*
X-8177D01*
X-8236Y7280D02*
Y7398D01*
X-16270Y29977D02*
X-16152D01*
X-16211Y29917D02*
Y30036D01*
X-18327Y27585D02*
X-18209D01*
X-18268Y27526D02*
Y27644D01*
X-18012Y27299D02*
X-17894D01*
X-17953Y27240D02*
Y27358D01*
X-18327Y27280D02*
X-18209D01*
X-18268Y27221D02*
Y27339D01*
X-18327Y27888D02*
X-18209D01*
X-18268Y27829D02*
Y27947D01*
X-11680Y6919D02*
X-11562D01*
X-11621Y6860D02*
Y6978D01*
X-12092Y6944D02*
X-11974D01*
X-12033Y6885D02*
Y7003D01*
X-12835Y6730D02*
X-12717D01*
X-12776Y6671D02*
Y6789D01*
X-18051Y25347D02*
X-17933D01*
X-17992Y25288D02*
Y25407D01*
X-18051Y25667D02*
X-17933D01*
X-17992Y25608D02*
Y25726D01*
X-11206Y6919D02*
X-11088D01*
X-11147Y6860D02*
Y6978D01*
X-10729Y6935D02*
X-10610D01*
X-10670Y6876D02*
Y6994D01*
X-10217Y6955D02*
X-10099D01*
X-10158Y6896D02*
Y7014D01*
X-10954Y6687D02*
X-10836D01*
X-10895Y6628D02*
Y6746D01*
X-10231Y5899D02*
X-10113D01*
X-10172Y5840D02*
Y5958D01*
X-10471Y6729D02*
X-10353D01*
X-10412Y6670D02*
Y6788D01*
X-10604Y5893D02*
X-10486D01*
X-10545Y5834D02*
Y5952D01*
X13184Y40819D02*
X13401D01*
X13293Y40711D02*
Y40927D01*
X15153Y40819D02*
X15369D01*
X15261Y40711D02*
Y40927D01*
X12800Y41882D02*
X12997D01*
X12899Y41784D02*
Y41980D01*
X15556Y41882D02*
X15753D01*
X15655Y41784D02*
Y41980D01*
X10982Y26689D02*
X11082D01*
X11032Y26639D02*
Y26739D01*
X11198Y26689D02*
X11298D01*
X11248Y26639D02*
Y26739D01*
X11415Y26689D02*
X11515D01*
X11465Y26639D02*
Y26739D01*
X7138Y32396D02*
X7538D01*
X7338Y32196D02*
Y32596D01*
X7138Y33396D02*
X7538D01*
X7338Y33196D02*
Y33596D01*
X8068Y15059D02*
X8777D01*
X8422Y14705D02*
Y15414D01*
X8068Y17070D02*
X8777D01*
X8422Y16716D02*
Y17425D01*
X19073Y23067D02*
X19502D01*
X19287Y22853D02*
Y23282D01*
X19086Y24254D02*
X19515D01*
X19301Y24039D02*
Y24469D01*
X26578Y40049D02*
X26971D01*
X26774Y39853D02*
Y40246D01*
X25578Y39049D02*
X25971D01*
X25774Y38853D02*
Y39246D01*
X25578Y40049D02*
X25971D01*
X25774Y39853D02*
Y40246D01*
X26578Y39049D02*
X26971D01*
X26774Y38853D02*
Y39246D01*
X26578Y37049D02*
X26971D01*
X26774Y36853D02*
Y37246D01*
X26578Y38049D02*
X26971D01*
X26774Y37853D02*
Y38246D01*
X26578Y36049D02*
X26971D01*
X26774Y35853D02*
Y36246D01*
X25578Y37049D02*
X25971D01*
X25774Y36853D02*
Y37246D01*
X25578Y38049D02*
X25971D01*
X25774Y37853D02*
Y38246D01*
X25578Y36049D02*
X25971D01*
X25774Y35853D02*
Y36246D01*
X23145Y41159D02*
X24404D01*
X23774Y40530D02*
Y41789D01*
X26578Y34049D02*
X26971D01*
X26774Y33853D02*
Y34246D01*
X26578Y35049D02*
X26971D01*
X26774Y34853D02*
Y35246D01*
X26578Y32049D02*
X26971D01*
X26774Y31853D02*
Y32246D01*
X26578Y33049D02*
X26971D01*
X26774Y32853D02*
Y33246D01*
X25578Y31049D02*
X25971D01*
X25774Y30853D02*
Y31246D01*
X25578Y32049D02*
X25971D01*
X25774Y31853D02*
Y32246D01*
X26578Y31049D02*
X26971D01*
X26774Y30853D02*
Y31246D01*
X26578Y29049D02*
X26971D01*
X26774Y28853D02*
Y29246D01*
X26578Y30049D02*
X26971D01*
X26774Y29853D02*
Y30246D01*
X26578Y28049D02*
X26971D01*
X26774Y27853D02*
Y28246D01*
X26578Y27049D02*
X26971D01*
X26774Y26853D02*
Y27246D01*
X25578Y30049D02*
X25971D01*
X25774Y29853D02*
Y30246D01*
X26578Y26049D02*
X26971D01*
X26774Y25853D02*
Y26246D01*
X25578Y34049D02*
X25971D01*
X25774Y33853D02*
Y34246D01*
X25578Y35049D02*
X25971D01*
X25774Y34853D02*
Y35246D01*
X25578Y33049D02*
X25971D01*
X25774Y32853D02*
Y33246D01*
X25578Y28049D02*
X25971D01*
X25774Y27853D02*
Y28246D01*
X25578Y29049D02*
X25971D01*
X25774Y28853D02*
Y29246D01*
X25578Y26049D02*
X25971D01*
X25774Y25853D02*
Y26246D01*
X25578Y27049D02*
X25971D01*
X25774Y26853D02*
Y27246D01*
X23578Y39659D02*
X23971D01*
X23774Y39463D02*
Y39856D01*
X23578Y37659D02*
X23971D01*
X23774Y37463D02*
Y37856D01*
X23578Y38659D02*
X23971D01*
X23774Y38463D02*
Y38856D01*
X22578Y39659D02*
X22971D01*
X22774Y39463D02*
Y39856D01*
X22578Y38659D02*
X22971D01*
X22774Y38463D02*
Y38856D01*
X23578Y36659D02*
X23971D01*
X23774Y36463D02*
Y36856D01*
X23578Y35659D02*
X23971D01*
X23774Y35463D02*
Y35856D01*
X22578Y37659D02*
X22971D01*
X22774Y37463D02*
Y37856D01*
X22578Y36659D02*
X22971D01*
X22774Y36463D02*
Y36856D01*
X23578Y33659D02*
X23971D01*
X23774Y33463D02*
Y33856D01*
X23578Y34659D02*
X23971D01*
X23774Y34463D02*
Y34856D01*
X23578Y31659D02*
X23971D01*
X23774Y31463D02*
Y31856D01*
X23578Y32659D02*
X23971D01*
X23774Y32463D02*
Y32856D01*
X22578Y33659D02*
X22971D01*
X22774Y33463D02*
Y33856D01*
X23578Y26059D02*
X23971D01*
X23774Y25863D02*
Y26256D01*
X23578Y27059D02*
X23971D01*
X23774Y26863D02*
Y27256D01*
X23578Y25059D02*
X23971D01*
X23774Y24863D02*
Y25256D01*
X23578Y29059D02*
X23971D01*
X23774Y28863D02*
Y29256D01*
X23578Y30659D02*
X23971D01*
X23774Y30463D02*
Y30856D01*
X23578Y28059D02*
X23971D01*
X23774Y27863D02*
Y28256D01*
X22578Y34659D02*
X22971D01*
X22774Y34463D02*
Y34856D01*
X22578Y35659D02*
X22971D01*
X22774Y35463D02*
Y35856D01*
X22578Y31659D02*
X22971D01*
X22774Y31463D02*
Y31856D01*
X22578Y32659D02*
X22971D01*
X22774Y32463D02*
Y32856D01*
X22578Y30659D02*
X22971D01*
X22774Y30463D02*
Y30856D01*
X22578Y26059D02*
X22971D01*
X22774Y25863D02*
Y26256D01*
X22578Y27059D02*
X22971D01*
X22774Y26863D02*
Y27256D01*
X22578Y25059D02*
X22971D01*
X22774Y24863D02*
Y25256D01*
X22578Y29059D02*
X22971D01*
X22774Y28863D02*
Y29256D01*
X22578Y28059D02*
X22971D01*
X22774Y27863D02*
Y28256D01*
X26578Y21049D02*
X26971D01*
X26774Y20853D02*
Y21246D01*
X26578Y22049D02*
X26971D01*
X26774Y21853D02*
Y22246D01*
X26578Y18049D02*
X26971D01*
X26774Y17853D02*
Y18246D01*
X26578Y19049D02*
X26971D01*
X26774Y18853D02*
Y19246D01*
X26578Y24049D02*
X26971D01*
X26774Y23853D02*
Y24246D01*
X26578Y25049D02*
X26971D01*
X26774Y24853D02*
Y25246D01*
X26578Y23049D02*
X26971D01*
X26774Y22853D02*
Y23246D01*
X25578Y23049D02*
X25971D01*
X25774Y22853D02*
Y23246D01*
X25578Y24049D02*
X25971D01*
X25774Y23853D02*
Y24246D01*
X26578Y20049D02*
X26971D01*
X26774Y19853D02*
Y20246D01*
X25578Y22049D02*
X25971D01*
X25774Y21853D02*
Y22246D01*
X25578Y20049D02*
X25971D01*
X25774Y19853D02*
Y20246D01*
X25578Y21049D02*
X25971D01*
X25774Y20853D02*
Y21246D01*
X25578Y19049D02*
X25971D01*
X25774Y18853D02*
Y19246D01*
X26578Y16049D02*
X26971D01*
X26774Y15853D02*
Y16246D01*
X26578Y17049D02*
X26971D01*
X26774Y16853D02*
Y17246D01*
X26578Y15049D02*
X26971D01*
X26774Y14853D02*
Y15246D01*
X25578Y17049D02*
X25971D01*
X25774Y16853D02*
Y17246D01*
X25578Y18049D02*
X25971D01*
X25774Y17853D02*
Y18246D01*
X25578Y16049D02*
X25971D01*
X25774Y15853D02*
Y16246D01*
X26578Y13049D02*
X26971D01*
X26774Y12853D02*
Y13246D01*
X26578Y14049D02*
X26971D01*
X26774Y13853D02*
Y14246D01*
X26578Y11049D02*
X26971D01*
X26774Y10853D02*
Y11246D01*
X26578Y12049D02*
X26971D01*
X26774Y11853D02*
Y12246D01*
X25578Y14049D02*
X25971D01*
X25774Y13853D02*
Y14246D01*
X25578Y15049D02*
X25971D01*
X25774Y14853D02*
Y15246D01*
X25578Y12049D02*
X25971D01*
X25774Y11853D02*
Y12246D01*
X26578Y6049D02*
X26971D01*
X26774Y5853D02*
Y6246D01*
X26578Y7049D02*
X26971D01*
X26774Y6853D02*
Y7246D01*
X26578Y5049D02*
X26971D01*
X26774Y4853D02*
Y5246D01*
X26578Y9049D02*
X26971D01*
X26774Y8853D02*
Y9246D01*
X26578Y10049D02*
X26971D01*
X26774Y9853D02*
Y10246D01*
X26578Y8049D02*
X26971D01*
X26774Y7853D02*
Y8246D01*
X25578Y7049D02*
X25971D01*
X25774Y6853D02*
Y7246D01*
X25578Y8049D02*
X25971D01*
X25774Y7853D02*
Y8246D01*
X25578Y5049D02*
X25971D01*
X25774Y4853D02*
Y5246D01*
X25578Y6049D02*
X25971D01*
X25774Y5853D02*
Y6246D01*
X25578Y10049D02*
X25971D01*
X25774Y9853D02*
Y10246D01*
X25578Y13049D02*
X25971D01*
X25774Y12853D02*
Y13246D01*
X25578Y9049D02*
X25971D01*
X25774Y8853D02*
Y9246D01*
X25578Y25049D02*
X25971D01*
X25774Y24853D02*
Y25246D01*
X23578Y24059D02*
X23971D01*
X23774Y23863D02*
Y24256D01*
X23578Y22059D02*
X23971D01*
X23774Y21863D02*
Y22256D01*
X23578Y23059D02*
X23971D01*
X23774Y22863D02*
Y23256D01*
X23578Y20059D02*
X23971D01*
X23774Y19863D02*
Y20256D01*
X23578Y21059D02*
X23971D01*
X23774Y20863D02*
Y21256D01*
X23578Y19059D02*
X23971D01*
X23774Y18863D02*
Y19256D01*
X22578Y23059D02*
X22971D01*
X22774Y22863D02*
Y23256D01*
X22578Y24059D02*
X22971D01*
X22774Y23863D02*
Y24256D01*
X22578Y22059D02*
X22971D01*
X22774Y21863D02*
Y22256D01*
X17145Y21159D02*
X18404D01*
X17774Y20530D02*
Y21789D01*
X22578Y21059D02*
X22971D01*
X22774Y20863D02*
Y21256D01*
X22578Y19059D02*
X22971D01*
X22774Y18863D02*
Y19256D01*
X22578Y20059D02*
X22971D01*
X22774Y19863D02*
Y20256D01*
X22578Y18059D02*
X22971D01*
X22774Y17863D02*
Y18256D01*
X23578Y17059D02*
X23971D01*
X23774Y16863D02*
Y17256D01*
X23578Y18059D02*
X23971D01*
X23774Y17863D02*
Y18256D01*
X23578Y15059D02*
X23971D01*
X23774Y14863D02*
Y15256D01*
X23578Y16059D02*
X23971D01*
X23774Y15863D02*
Y16256D01*
X22578Y16059D02*
X22971D01*
X22774Y15863D02*
Y16256D01*
X22578Y17059D02*
X22971D01*
X22774Y16863D02*
Y17256D01*
X22578Y15059D02*
X22971D01*
X22774Y14863D02*
Y15256D01*
X23578Y13059D02*
X23971D01*
X23774Y12863D02*
Y13256D01*
X23578Y14059D02*
X23971D01*
X23774Y13863D02*
Y14256D01*
X25578Y11049D02*
X25971D01*
X25774Y10853D02*
Y11246D01*
X22578Y13059D02*
X22971D01*
X22774Y12863D02*
Y13256D01*
X22578Y14059D02*
X22971D01*
X22774Y13863D02*
Y14256D01*
X22645Y11659D02*
X23904D01*
X23274Y11030D02*
Y12289D01*
X5578Y36049D02*
X5971D01*
X5774Y35853D02*
Y36246D01*
X5578Y34049D02*
X5971D01*
X5774Y33853D02*
Y34246D01*
X5578Y35049D02*
X5971D01*
X5774Y34853D02*
Y35246D01*
X4578Y33049D02*
X4971D01*
X4774Y32853D02*
Y33246D01*
X4578Y34049D02*
X4971D01*
X4774Y33853D02*
Y34246D01*
X5578Y33049D02*
X5971D01*
X5774Y32853D02*
Y33246D01*
X5578Y32049D02*
X5971D01*
X5774Y31853D02*
Y32246D01*
X4145Y41659D02*
X5404D01*
X4774Y41030D02*
Y42289D01*
X4578Y35049D02*
X4971D01*
X4774Y34853D02*
Y35246D01*
X4578Y36049D02*
X4971D01*
X4774Y35853D02*
Y36246D01*
X4578Y32049D02*
X4971D01*
X4774Y31853D02*
Y32246D01*
X5578Y30049D02*
X5971D01*
X5774Y29853D02*
Y30246D01*
X5578Y31049D02*
X5971D01*
X5774Y30853D02*
Y31246D01*
X5578Y29049D02*
X5971D01*
X5774Y28853D02*
Y29246D01*
X5578Y26049D02*
X5971D01*
X5774Y25853D02*
Y26246D01*
X5578Y27049D02*
X5971D01*
X5774Y26853D02*
Y27246D01*
X5578Y25049D02*
X5971D01*
X5774Y24853D02*
Y25246D01*
X5578Y24049D02*
X5971D01*
X5774Y23853D02*
Y24246D01*
X5578Y23049D02*
X5971D01*
X5774Y22853D02*
Y23246D01*
X4578Y23049D02*
X4971D01*
X4774Y22853D02*
Y23246D01*
X5578Y22049D02*
X5971D01*
X5774Y21853D02*
Y22246D01*
X4578Y30049D02*
X4971D01*
X4774Y29853D02*
Y30246D01*
X4578Y31049D02*
X4971D01*
X4774Y30853D02*
Y31246D01*
X4578Y29049D02*
X4971D01*
X4774Y28853D02*
Y29246D01*
X4578Y27049D02*
X4971D01*
X4774Y26853D02*
Y27246D01*
X4578Y25049D02*
X4971D01*
X4774Y24853D02*
Y25246D01*
X4578Y26049D02*
X4971D01*
X4774Y25853D02*
Y26246D01*
X4578Y24049D02*
X4971D01*
X4774Y23853D02*
Y24246D01*
X2578Y39049D02*
X2971D01*
X2774Y38853D02*
Y39246D01*
X2578Y40049D02*
X2971D01*
X2774Y39853D02*
Y40246D01*
X2578Y37049D02*
X2971D01*
X2774Y36853D02*
Y37246D01*
X1578Y39049D02*
X1971D01*
X1774Y38853D02*
Y39246D01*
X1578Y40049D02*
X1971D01*
X1774Y39853D02*
Y40246D01*
X2578Y38049D02*
X2971D01*
X2774Y37853D02*
Y38246D01*
X2578Y36049D02*
X2971D01*
X2774Y35853D02*
Y36246D01*
X2578Y35049D02*
X2971D01*
X2774Y34853D02*
Y35246D01*
X1578Y35049D02*
X1971D01*
X1774Y34853D02*
Y35246D01*
X1578Y36049D02*
X1971D01*
X1774Y35853D02*
Y36246D01*
X1578Y34049D02*
X1971D01*
X1774Y33853D02*
Y34246D01*
X1578Y38049D02*
X1971D01*
X1774Y37853D02*
Y38246D01*
X1578Y37049D02*
X1971D01*
X1774Y36853D02*
Y37246D01*
X2578Y30049D02*
X2971D01*
X2774Y29853D02*
Y30246D01*
X2578Y31049D02*
X2971D01*
X2774Y30853D02*
Y31246D01*
X2578Y28049D02*
X2971D01*
X2774Y27853D02*
Y28246D01*
X2578Y29049D02*
X2971D01*
X2774Y28853D02*
Y29246D01*
X2578Y33049D02*
X2971D01*
X2774Y32853D02*
Y33246D01*
X2578Y34049D02*
X2971D01*
X2774Y33853D02*
Y34246D01*
X2578Y32049D02*
X2971D01*
X2774Y31853D02*
Y32246D01*
X2578Y27049D02*
X2971D01*
X2774Y26853D02*
Y27246D01*
X2578Y24049D02*
X2971D01*
X2774Y23853D02*
Y24246D01*
X2578Y25049D02*
X2971D01*
X2774Y24853D02*
Y25246D01*
X2578Y23049D02*
X2971D01*
X2774Y22853D02*
Y23246D01*
X1578Y29049D02*
X1971D01*
X1774Y28853D02*
Y29246D01*
X1578Y30049D02*
X1971D01*
X1774Y29853D02*
Y30246D01*
X1578Y27049D02*
X1971D01*
X1774Y26853D02*
Y27246D01*
X1578Y28049D02*
X1971D01*
X1774Y27853D02*
Y28246D01*
X1578Y32049D02*
X1971D01*
X1774Y31853D02*
Y32246D01*
X1578Y33049D02*
X1971D01*
X1774Y32853D02*
Y33246D01*
X1578Y31049D02*
X1971D01*
X1774Y30853D02*
Y31246D01*
X2578Y26049D02*
X2971D01*
X2774Y25853D02*
Y26246D01*
X1578Y26049D02*
X1971D01*
X1774Y25853D02*
Y26246D01*
X2578Y22049D02*
X2971D01*
X2774Y21853D02*
Y22246D01*
X1578Y24049D02*
X1971D01*
X1774Y23853D02*
Y24246D01*
X1578Y25049D02*
X1971D01*
X1774Y24853D02*
Y25246D01*
X1578Y23049D02*
X1971D01*
X1774Y22853D02*
Y23246D01*
X5578Y20049D02*
X5971D01*
X5774Y19853D02*
Y20246D01*
X5578Y21049D02*
X5971D01*
X5774Y20853D02*
Y21246D01*
X5578Y18049D02*
X5971D01*
X5774Y17853D02*
Y18246D01*
X5578Y19049D02*
X5971D01*
X5774Y18853D02*
Y19246D01*
X5578Y15049D02*
X5971D01*
X5774Y14853D02*
Y15246D01*
X5578Y14049D02*
X5971D01*
X5774Y13853D02*
Y14246D01*
X5578Y13049D02*
X5971D01*
X5774Y12853D02*
Y13246D01*
X4578Y21049D02*
X4971D01*
X4774Y20853D02*
Y21246D01*
X4578Y22049D02*
X4971D01*
X4774Y21853D02*
Y22246D01*
X4578Y18049D02*
X4971D01*
X4774Y17853D02*
Y18246D01*
X4578Y20049D02*
X4971D01*
X4774Y19853D02*
Y20246D01*
X4578Y17049D02*
X4971D01*
X4774Y16853D02*
Y17246D01*
X5578Y17049D02*
X5971D01*
X5774Y16853D02*
Y17246D01*
X5578Y16049D02*
X5971D01*
X5774Y15853D02*
Y16246D01*
X4578Y15049D02*
X4971D01*
X4774Y14853D02*
Y15246D01*
X4578Y16049D02*
X4971D01*
X4774Y15853D02*
Y16246D01*
X4578Y14049D02*
X4971D01*
X4774Y13853D02*
Y14246D01*
X4645Y11659D02*
X5904D01*
X5274Y11030D02*
Y12289D01*
X4578Y13049D02*
X4971D01*
X4774Y12853D02*
Y13246D01*
X2578Y20049D02*
X2971D01*
X2774Y19853D02*
Y20246D01*
X2578Y21049D02*
X2971D01*
X2774Y20853D02*
Y21246D01*
X4578Y19049D02*
X4971D01*
X4774Y18853D02*
Y19246D01*
X2578Y19049D02*
X2971D01*
X2774Y18853D02*
Y19246D01*
X2578Y17049D02*
X2971D01*
X2774Y16853D02*
Y17246D01*
X2578Y18049D02*
X2971D01*
X2774Y17853D02*
Y18246D01*
X2578Y16049D02*
X2971D01*
X2774Y15853D02*
Y16246D01*
X1578Y18049D02*
X1971D01*
X1774Y17853D02*
Y18246D01*
X1578Y19049D02*
X1971D01*
X1774Y18853D02*
Y19246D01*
X1578Y16049D02*
X1971D01*
X1774Y15853D02*
Y16246D01*
X1578Y17049D02*
X1971D01*
X1774Y16853D02*
Y17246D01*
X1578Y21049D02*
X1971D01*
X1774Y20853D02*
Y21246D01*
X1578Y22049D02*
X1971D01*
X1774Y21853D02*
Y22246D01*
X1578Y20049D02*
X1971D01*
X1774Y19853D02*
Y20246D01*
X2578Y14049D02*
X2971D01*
X2774Y13853D02*
Y14246D01*
X2578Y15049D02*
X2971D01*
X2774Y14853D02*
Y15246D01*
X2578Y12049D02*
X2971D01*
X2774Y11853D02*
Y12246D01*
X2578Y13049D02*
X2971D01*
X2774Y12853D02*
Y13246D01*
X2578Y11049D02*
X2971D01*
X2774Y10853D02*
Y11246D01*
X1578Y12049D02*
X1971D01*
X1774Y11853D02*
Y12246D01*
X2578Y10049D02*
X2971D01*
X2774Y9853D02*
Y10246D01*
X2578Y8049D02*
X2971D01*
X2774Y7853D02*
Y8246D01*
X2578Y9049D02*
X2971D01*
X2774Y8853D02*
Y9246D01*
X2578Y7049D02*
X2971D01*
X2774Y6853D02*
Y7246D01*
X2578Y5049D02*
X2971D01*
X2774Y4853D02*
Y5246D01*
X2578Y6049D02*
X2971D01*
X2774Y5853D02*
Y6246D01*
X1578Y5049D02*
X1971D01*
X1774Y4853D02*
Y5246D01*
X1578Y10049D02*
X1971D01*
X1774Y9853D02*
Y10246D01*
X1578Y11049D02*
X1971D01*
X1774Y10853D02*
Y11246D01*
X1578Y9049D02*
X1971D01*
X1774Y8853D02*
Y9246D01*
X1578Y14049D02*
X1971D01*
X1774Y13853D02*
Y14246D01*
X1578Y15049D02*
X1971D01*
X1774Y14853D02*
Y15246D01*
X1578Y13049D02*
X1971D01*
X1774Y12853D02*
Y13246D01*
X1578Y7049D02*
X1971D01*
X1774Y6853D02*
Y7246D01*
X1578Y8049D02*
X1971D01*
X1774Y7853D02*
Y8246D01*
X1578Y6049D02*
X1971D01*
X1774Y5853D02*
Y6246D01*
X19890Y39077D02*
X20520D01*
X20205Y38762D02*
Y39392D01*
X6837Y27913D02*
X7239D01*
X7038Y27712D02*
Y28113D01*
X6837Y26913D02*
X7239D01*
X7038Y26712D02*
Y27113D01*
X6837Y25913D02*
X7239D01*
X7038Y25712D02*
Y26113D01*
X8856Y25911D02*
X9285D01*
X9071Y25696D02*
Y26125D01*
X8856Y29067D02*
X9285D01*
X9071Y28853D02*
Y29282D01*
X8856Y27489D02*
X9285D01*
X9071Y27274D02*
Y27704D01*
X8856Y24332D02*
X9285D01*
X9071Y24118D02*
Y24547D01*
X8856Y30646D02*
X9285D01*
X9071Y30431D02*
Y30860D01*
X6992Y40102D02*
X7504D01*
X7248Y39846D02*
Y40358D01*
X8961Y40102D02*
X9472D01*
X9216Y39846D02*
Y40358D01*
X16222Y27479D02*
X16852D01*
X16537Y27164D02*
Y27794D01*
X20906Y23618D02*
X21536D01*
X21221Y23303D02*
Y23933D01*
X17631Y28675D02*
X18261D01*
X17946Y28360D02*
Y28990D01*
X20446Y28675D02*
X21076D01*
X20761Y28360D02*
Y28990D01*
X19039Y27479D02*
X19669D01*
X19354Y27164D02*
Y27794D01*
X21116Y32288D02*
X21545D01*
X21331Y32073D02*
Y32502D01*
X19266Y32288D02*
X19695D01*
X19481Y32073D02*
Y32502D01*
X7019Y35479D02*
X7448D01*
X7233Y35265D02*
Y35694D01*
X9199Y35479D02*
X9600D01*
X9400Y35278D02*
Y35680D01*
X10199Y35479D02*
X10600D01*
X10400Y35278D02*
Y35680D01*
X11199Y35479D02*
X11600D01*
X11400Y35278D02*
Y35680D01*
X13044Y35479D02*
X13474D01*
X13259Y35265D02*
Y35694D01*
X13293Y31268D02*
X13722D01*
X13507Y31053D02*
Y31482D01*
X1896Y1225D02*
X2525D01*
X2211Y910D02*
Y1540D01*
X26419Y1270D02*
X27049D01*
X26734Y955D02*
Y1585D01*
X23254Y4445D02*
X23372D01*
X23313Y4386D02*
Y4504D01*
X23431Y5380D02*
X23549D01*
X23490Y5321D02*
Y5439D01*
X23743Y5945D02*
X23861D01*
X23802Y5886D02*
Y6004D01*
X23431Y4691D02*
X23549D01*
X23490Y4632D02*
Y4750D01*
X22882Y4111D02*
X23000D01*
X22941Y4052D02*
Y4170D01*
X23464Y4201D02*
X23583D01*
X23524Y4141D02*
Y4260D01*
X23671Y3974D02*
X23790D01*
X23730Y3915D02*
Y4034D01*
X22961Y3722D02*
X23079D01*
X23020Y3663D02*
Y3781D01*
X23382Y5076D02*
X23500D01*
X23441Y5017D02*
Y5135D01*
X15114Y6719D02*
X15232D01*
X15173Y6660D02*
Y6778D01*
X14809Y6660D02*
X14927D01*
X14868Y6601D02*
Y6719D01*
X15325Y7403D02*
X15443D01*
X15384Y7344D02*
Y7462D01*
X11275Y24435D02*
X11394D01*
X11334Y24376D02*
Y24494D01*
X12752Y25646D02*
X12870D01*
X12811Y25587D02*
Y25705D01*
X8610Y31974D02*
X8728D01*
X8669Y31915D02*
Y32034D01*
X10586Y23854D02*
X10705D01*
X10645Y23795D02*
Y23914D01*
X15229Y20121D02*
X15329D01*
X15279Y20071D02*
Y20171D01*
X15229Y19398D02*
X15329D01*
X15279Y19348D02*
Y19448D01*
X15229Y20843D02*
X15329D01*
X15279Y20793D02*
Y20893D01*
X14507Y20843D02*
X14607D01*
X14557Y20793D02*
Y20893D01*
X14507Y19398D02*
X14607D01*
X14557Y19348D02*
Y19448D01*
X15591Y20482D02*
X15691D01*
X15641Y20432D02*
Y20532D01*
X14146Y20482D02*
X14246D01*
X14196Y20432D02*
Y20532D01*
X14868Y20482D02*
X14968D01*
X14918Y20432D02*
Y20532D01*
X15591Y19760D02*
X15691D01*
X15641Y19710D02*
Y19810D01*
X14146Y19760D02*
X14246D01*
X14196Y19710D02*
Y19810D01*
X14868Y19760D02*
X14968D01*
X14918Y19710D02*
Y19810D01*
X14507Y20121D02*
X14607D01*
X14557Y20071D02*
Y20171D01*
X11466Y22240D02*
X11585D01*
X11526Y22181D02*
Y22299D01*
X10221Y18478D02*
X10339D01*
X10280Y18419D02*
Y18537D01*
X14712Y22084D02*
X14830D01*
X14771Y22025D02*
Y22143D01*
X12546Y24419D02*
X12665D01*
X12606Y24360D02*
Y24478D01*
X10449Y17532D02*
X10568D01*
X10508Y17473D02*
Y17591D01*
X17811Y23293D02*
X17929D01*
X17870Y23234D02*
Y23353D01*
X17320Y17759D02*
X17438D01*
X17379Y17700D02*
Y17818D01*
X10587Y17802D02*
X10705D01*
X10646Y17743D02*
Y17861D01*
X17821Y17744D02*
X17939D01*
X17880Y17684D02*
Y17803D01*
X18962Y7211D02*
X19081D01*
X19021Y7152D02*
Y7270D01*
X19268Y7034D02*
X19386D01*
X19327Y6975D02*
Y7093D01*
X18966Y5319D02*
X19084D01*
X19025Y5260D02*
Y5378D01*
X18966Y6137D02*
X19084D01*
X19025Y6078D02*
Y6196D01*
X18966Y5695D02*
X19084D01*
X19025Y5636D02*
Y5754D01*
X18966Y6500D02*
X19084D01*
X19025Y6441D02*
Y6559D01*
X14373Y7339D02*
X14492D01*
X14432Y7280D02*
Y7398D01*
X15538Y8391D02*
X15656D01*
X15597Y8332D02*
Y8450D01*
X15534Y7984D02*
X15652D01*
X15593Y7925D02*
Y8043D01*
X6021Y5180D02*
X6139D01*
X6080Y5121D02*
Y5239D01*
X22304Y3727D02*
X22423D01*
X22364Y3668D02*
Y3786D01*
X15037Y38447D02*
X15155D01*
X15096Y38388D02*
Y38506D01*
X9956Y21346D02*
X10074D01*
X10015Y21287D02*
Y21405D01*
X6418Y6433D02*
X6536D01*
X6477Y6374D02*
Y6492D01*
X23746Y6286D02*
X23864D01*
X23805Y6227D02*
Y6345D01*
X22723Y7078D02*
X22841D01*
X22782Y7019D02*
Y7137D01*
X17476Y5036D02*
X17594D01*
X17535Y4977D02*
Y5095D01*
X17594Y4406D02*
X17712D01*
X17653Y4347D02*
Y4465D01*
X14044Y39498D02*
X14162D01*
X14103Y39439D02*
Y39557D01*
X15630Y39538D02*
X15749D01*
X15690Y39479D02*
Y39597D01*
X15630Y39204D02*
X15749D01*
X15690Y39145D02*
Y39263D01*
X8283Y3540D02*
X8401D01*
X8342Y3480D02*
Y3599D01*
X7811Y656D02*
X7929D01*
X7870Y597D02*
Y715D01*
X5921Y656D02*
X6039D01*
X5980Y597D02*
Y715D01*
X11736Y943D02*
X11854D01*
X11795Y884D02*
Y1002D01*
X6450Y2743D02*
X6568D01*
X6509Y2684D02*
Y2802D01*
X7214Y3186D02*
X7333D01*
X7274Y3127D02*
Y3245D01*
X7199Y2477D02*
X7317D01*
X7258Y2418D02*
Y2537D01*
X8588Y3234D02*
X8706D01*
X8647Y3175D02*
Y3293D01*
X8283Y3234D02*
X8401D01*
X8342Y3175D02*
Y3293D01*
X8223Y5803D02*
X8323D01*
X8273Y5753D02*
Y5853D01*
X8223Y5370D02*
X8323D01*
X8273Y5320D02*
Y5420D01*
X8223Y4937D02*
X8323D01*
X8273Y4887D02*
Y4987D01*
X8223Y4504D02*
X8323D01*
X8273Y4454D02*
Y4554D01*
X7790Y5803D02*
X7890D01*
X7840Y5753D02*
Y5853D01*
X7790Y4504D02*
X7890D01*
X7840Y4454D02*
Y4554D01*
X7357Y5803D02*
X7457D01*
X7407Y5753D02*
Y5853D01*
X6924Y5803D02*
X7024D01*
X6974Y5753D02*
Y5853D01*
X6924Y5370D02*
X7024D01*
X6974Y5320D02*
Y5420D01*
X6924Y4937D02*
X7024D01*
X6974Y4887D02*
Y4987D01*
X6924Y4504D02*
X7024D01*
X6974Y4454D02*
Y4554D01*
X7357Y4504D02*
X7457D01*
X7407Y4454D02*
Y4554D01*
X7790Y4937D02*
X7890D01*
X7840Y4887D02*
Y4987D01*
X7790Y5370D02*
X7890D01*
X7840Y5320D02*
Y5420D01*
X7357Y4937D02*
X7457D01*
X7407Y4887D02*
Y4987D01*
X7377Y5370D02*
X7477D01*
X7427Y5320D02*
Y5420D01*
X6010Y5774D02*
X6128D01*
X6069Y5715D02*
Y5833D01*
X6101Y6361D02*
X6219D01*
X6160Y6302D02*
Y6420D01*
X7931Y7237D02*
X8049D01*
X7990Y7178D02*
Y7296D01*
X6041Y4528D02*
X6159D01*
X6100Y4469D02*
Y4587D01*
X8218Y6822D02*
X8336D01*
X8277Y6763D02*
Y6881D01*
X9415Y4603D02*
X9533D01*
X9474Y4543D02*
Y4662D01*
X7986Y7739D02*
X8105D01*
X8045Y7680D02*
Y7798D01*
X25606Y3185D02*
X25724D01*
X25665Y3126D02*
Y3244D01*
X9799Y2358D02*
X9917D01*
X9858Y2299D02*
Y2417D01*
X11409Y3767D02*
X11528D01*
X11469Y3708D02*
Y3826D01*
X11409Y3363D02*
X11528D01*
X11469Y3304D02*
Y3422D01*
X11409Y2966D02*
X11528D01*
X11469Y2907D02*
Y3025D01*
X12420Y13452D02*
X12538D01*
X12479Y13393D02*
Y13511D01*
X9826Y8811D02*
X9944D01*
X9885Y8752D02*
Y8870D01*
X8830Y12099D02*
X8948D01*
X8889Y12039D02*
Y12158D01*
X5915Y7135D02*
X6033D01*
X5974Y7076D02*
Y7194D01*
X9238Y9898D02*
X9356D01*
X9297Y9839D02*
Y9957D01*
X9277Y5202D02*
X9395D01*
X9336Y5142D02*
Y5261D01*
X15749Y15427D02*
X15867D01*
X15808Y15368D02*
Y15486D01*
X21197Y16896D02*
X21315D01*
X21256Y16837D02*
Y16955D01*
X15301Y13421D02*
X15419D01*
X15360Y13362D02*
Y13480D01*
X15321Y13825D02*
X15439D01*
X15380Y13766D02*
Y13884D01*
X19329Y11378D02*
X19447D01*
X19388Y11318D02*
Y11437D01*
X18864Y11158D02*
X18982D01*
X18923Y11099D02*
Y11217D01*
X12397Y16255D02*
X12516D01*
X12456Y16196D02*
Y16314D01*
X9213Y1268D02*
X9331D01*
X9272Y1209D02*
Y1327D01*
X8830Y1268D02*
X8948D01*
X8889Y1209D02*
Y1327D01*
X7811Y1216D02*
X7929D01*
X7870Y1157D02*
Y1275D01*
X5921Y1201D02*
X6039D01*
X5980Y1142D02*
Y1260D01*
X9494Y2358D02*
X9612D01*
X9553Y2299D02*
Y2417D01*
X8442Y2276D02*
X8560D01*
X8501Y2217D02*
Y2335D01*
X8037Y2262D02*
X8155D01*
X8096Y2202D02*
Y2321D01*
X7633Y2262D02*
X7751D01*
X7692Y2202D02*
Y2321D01*
X5341Y2813D02*
X5459D01*
X5400Y2754D02*
Y2872D01*
X4949Y3819D02*
X5067D01*
X5008Y3760D02*
Y3878D01*
X6730Y21734D02*
X6848D01*
X6789Y21675D02*
Y21793D01*
X9871Y19694D02*
X9989D01*
X9930Y19635D02*
Y19753D01*
X6730Y19372D02*
X6848D01*
X6789Y19312D02*
Y19431D01*
X6730Y20159D02*
X6848D01*
X6789Y20100D02*
Y20218D01*
X6730Y20946D02*
X6848D01*
X6789Y20887D02*
Y21005D01*
X10244Y6589D02*
X10362D01*
X10303Y6530D02*
Y6648D01*
X21044Y3712D02*
X21162D01*
X21103Y3653D02*
Y3771D01*
X16151Y2461D02*
X16269D01*
X16210Y2402D02*
Y2520D01*
X15006Y2463D02*
X15124D01*
X15065Y2404D02*
Y2522D01*
X20878Y2454D02*
X20996D01*
X20937Y2395D02*
Y2513D01*
X22022Y2452D02*
X22140D01*
X22081Y2393D02*
Y2512D01*
X19317Y3667D02*
X19435D01*
X19376Y3608D02*
Y3727D01*
X14877Y9024D02*
X14995D01*
X14936Y8965D02*
Y9083D01*
X15817Y13211D02*
X15935D01*
X15876Y13152D02*
Y13270D01*
X16266Y7358D02*
X16384D01*
X16325Y7299D02*
Y7417D01*
X14057Y16255D02*
X14175D01*
X14116Y16196D02*
Y16314D01*
X10588Y16056D02*
X10706D01*
X10647Y15997D02*
Y16115D01*
X11147Y25987D02*
X11265D01*
X11206Y25928D02*
Y26046D01*
X10827Y25987D02*
X10946D01*
X10887Y25928D02*
Y26046D01*
X10508Y25987D02*
X10626D01*
X10567Y25928D02*
Y26046D01*
X13322Y26543D02*
X13441D01*
X13381Y26484D02*
Y26602D01*
X11866Y29042D02*
X11984D01*
X11925Y28982D02*
Y29101D01*
X12171Y29042D02*
X12289D01*
X12230Y28982D02*
Y29101D01*
X12475Y29041D02*
X12593D01*
X12534Y28981D02*
Y29100D01*
X12476Y28736D02*
X12594D01*
X12535Y28677D02*
Y28795D01*
X12476Y28431D02*
X12594D01*
X12535Y28372D02*
Y28490D01*
X11797Y30535D02*
X11915D01*
X11856Y30476D02*
Y30594D01*
X15367Y12051D02*
X15485D01*
X15426Y11992D02*
Y12110D01*
X15367Y11701D02*
X15485D01*
X15426Y11642D02*
Y11760D01*
X19197Y15484D02*
X19315D01*
X19256Y15424D02*
Y15543D01*
X21436Y10932D02*
X21554D01*
X21495Y10873D02*
Y10991D01*
X21654Y10392D02*
X21772D01*
X21713Y10333D02*
Y10451D01*
X20976Y15825D02*
X21094D01*
X21035Y15766D02*
Y15884D01*
X13585Y7771D02*
X13703D01*
X13644Y7712D02*
Y7830D01*
X11364Y27358D02*
X11482D01*
X11423Y27299D02*
Y27417D01*
X11049Y27358D02*
X11167D01*
X11108Y27299D02*
Y27417D01*
X11590Y27910D02*
X11708D01*
X11649Y27851D02*
Y27969D01*
X11590Y27595D02*
X11708D01*
X11649Y27536D02*
Y27654D01*
X11895Y27315D02*
X12013D01*
X11954Y27256D02*
Y27374D01*
X17953Y9799D02*
X18071D01*
X18012Y9740D02*
Y9858D01*
X16904Y12549D02*
X17022D01*
X16963Y12490D02*
Y12608D01*
X17137Y24844D02*
X17255D01*
X17196Y24785D02*
Y24903D01*
X13012Y22453D02*
X13130D01*
X13071Y22394D02*
Y22512D01*
X14360Y23026D02*
X14479D01*
X14420Y22967D02*
Y23085D01*
X16392Y26371D02*
X16510D01*
X16451Y26311D02*
Y26430D01*
X17380Y4181D02*
X17498D01*
X17439Y4122D02*
Y4240D01*
X16837Y3687D02*
X16955D01*
X16896Y3628D02*
Y3746D01*
X17345Y3697D02*
X17463D01*
X17404Y3638D02*
Y3756D01*
X16975Y4140D02*
X17093D01*
X17034Y4081D02*
Y4199D01*
X11751Y21563D02*
X11870D01*
X11810Y21504D02*
Y21622D01*
X11208Y13528D02*
X11326D01*
X11267Y13469D02*
Y13587D01*
X12444Y10665D02*
X12562D01*
X12503Y10606D02*
Y10724D01*
X11358Y14965D02*
X11476D01*
X11417Y14906D02*
Y15024D01*
X16533Y25457D02*
X16652D01*
X16592Y25398D02*
Y25516D01*
X18007Y25222D02*
X18126D01*
X18067Y25163D02*
Y25281D01*
X16109Y33370D02*
X16228D01*
X16168Y33311D02*
Y33429D01*
X17703Y35183D02*
X17821D01*
X17762Y35124D02*
Y35242D01*
X18009Y26276D02*
X18127D01*
X18068Y26217D02*
Y26335D01*
X20213Y10108D02*
X20331D01*
X20272Y10049D02*
Y10167D01*
X21644Y9745D02*
X21762D01*
X21703Y9686D02*
Y9804D01*
X16507Y12810D02*
X16625D01*
X16566Y12751D02*
Y12869D01*
X6626Y16556D02*
X6744D01*
X6685Y16497D02*
Y16615D01*
X6643Y3719D02*
X6761D01*
X6702Y3660D02*
Y3778D01*
X6648Y17556D02*
X6767D01*
X6708Y17497D02*
Y17615D01*
X9475Y3958D02*
X9593D01*
X9534Y3899D02*
Y4017D01*
X17713Y24887D02*
X17831D01*
X17772Y24828D02*
Y24946D01*
X9820Y30010D02*
X9938D01*
X9879Y29951D02*
Y30069D01*
X9805Y29648D02*
X9923D01*
X9864Y29589D02*
Y29707D01*
X4071Y5616D02*
X4189D01*
X4130Y5557D02*
Y5675D01*
X4813Y5737D02*
X4931D01*
X4872Y5677D02*
Y5796D01*
X4171Y4368D02*
X4289D01*
X4230Y4309D02*
Y4427D01*
X14969Y34301D02*
X15087D01*
X15028Y34242D02*
Y34360D01*
X15378Y29166D02*
X15496D01*
X15437Y29107D02*
Y29225D01*
X15378Y28241D02*
X15496D01*
X15437Y28182D02*
Y28300D01*
X15491Y34142D02*
X15609D01*
X15550Y34083D02*
Y34201D01*
X15490Y33678D02*
X15608D01*
X15549Y33619D02*
Y33737D01*
X16521Y25814D02*
X16640D01*
X16580Y25755D02*
Y25874D01*
X15690Y12713D02*
X15808D01*
X15749Y12654D02*
Y12772D01*
X13224Y21208D02*
X13342D01*
X13283Y21149D02*
Y21267D01*
X4825Y6224D02*
X4943D01*
X4884Y6165D02*
Y6283D01*
X7849Y10225D02*
X7967D01*
X7908Y10166D02*
Y10284D01*
X9284Y7111D02*
X9403D01*
X9343Y7052D02*
Y7170D01*
X9275Y6726D02*
X9393D01*
X9334Y6667D02*
Y6785D01*
X4134Y4990D02*
X4252D01*
X4193Y4931D02*
Y5049D01*
X3884Y4036D02*
X4002D01*
X3943Y3977D02*
Y4095D01*
X3813Y5234D02*
X3931D01*
X3872Y5175D02*
Y5293D01*
X3826Y4603D02*
X3944D01*
X3885Y4544D02*
Y4662D01*
X5211Y6942D02*
X5329D01*
X5270Y6883D02*
Y7001D01*
X17663Y5285D02*
X17781D01*
X17722Y5226D02*
Y5345D01*
X18554Y5232D02*
X18672D01*
X18613Y5173D02*
Y5291D01*
X17412Y4658D02*
X17530D01*
X17471Y4599D02*
Y4717D01*
X9494Y2909D02*
X9612D01*
X9553Y2850D02*
Y2968D01*
X10332Y5199D02*
X10450D01*
X10391Y5140D02*
Y5258D01*
X15326Y5211D02*
X15445D01*
X15385Y5152D02*
Y5270D01*
X15326Y5763D02*
X15445D01*
X15385Y5704D02*
Y5822D01*
X15878Y5763D02*
X15996D01*
X15937Y5704D02*
Y5822D01*
X15878Y5211D02*
X15996D01*
X15937Y5152D02*
Y5271D01*
X18206Y34266D02*
X18306D01*
X18256Y34216D02*
Y34316D01*
X18206Y33832D02*
X18306D01*
X18256Y33782D02*
Y33882D01*
X17773Y34266D02*
X17873D01*
X17823Y34216D02*
Y34316D01*
X17773Y33832D02*
X17873D01*
X17823Y33782D02*
Y33882D01*
X24681Y4333D02*
X24799D01*
X24740Y4274D02*
Y4392D01*
X14735Y10257D02*
X14853D01*
X14794Y10198D02*
Y10316D01*
X14734Y9729D02*
X14852D01*
X14793Y9670D02*
Y9788D01*
X22320Y5763D02*
X22438D01*
X22379Y5704D02*
Y5822D01*
X22320Y5211D02*
X22438D01*
X22379Y5152D02*
Y5271D01*
X22320Y4660D02*
X22438D01*
X22379Y4601D02*
Y4719D01*
X21769Y4660D02*
X21887D01*
X21828Y4601D02*
Y4719D01*
X21217Y4660D02*
X21335D01*
X21276Y4601D02*
Y4719D01*
X21217Y5211D02*
X21335D01*
X21276Y5152D02*
Y5270D01*
X21217Y5763D02*
X21335D01*
X21276Y5704D02*
Y5822D01*
X21769Y5763D02*
X21887D01*
X21828Y5704D02*
Y5822D01*
X21769Y5211D02*
X21887D01*
X21828Y5152D02*
Y5271D01*
X16429Y5763D02*
X16547D01*
X16488Y5704D02*
Y5822D01*
X16429Y5211D02*
X16547D01*
X16488Y5152D02*
Y5271D01*
X16429Y4660D02*
X16547D01*
X16488Y4601D02*
Y4719D01*
X15878Y4660D02*
X15996D01*
X15937Y4601D02*
Y4719D01*
X15326Y4660D02*
X15445D01*
X15385Y4601D02*
Y4719D01*
X22245Y7172D02*
X22363D01*
X22304Y7113D02*
Y7231D01*
X22937Y6742D02*
X23055D01*
X22996Y6683D02*
Y6802D01*
X23137Y6965D02*
X23255D01*
X23196Y6906D02*
Y7024D01*
X23343Y6719D02*
X23462D01*
X23402Y6660D02*
Y6778D01*
X24787Y8838D02*
X24905D01*
X24846Y8779D02*
Y8897D01*
X24215Y3830D02*
X24333D01*
X24274Y3771D02*
Y3889D01*
X23562Y9283D02*
X23680D01*
X23621Y9224D02*
Y9342D01*
X21621Y11206D02*
X21740D01*
X21681Y11147D02*
Y11265D01*
X21086Y30522D02*
X21204D01*
X21145Y30463D02*
Y30581D01*
X19331Y13192D02*
X19449D01*
X19390Y13133D02*
Y13251D01*
X19821Y13218D02*
X19939D01*
X19880Y13159D02*
Y13277D01*
X20478Y13181D02*
X20596D01*
X20537Y13122D02*
Y13240D01*
X16473Y3717D02*
X16591D01*
X16532Y3658D02*
Y3776D01*
X15114Y3697D02*
X15232D01*
X15173Y3638D02*
Y3756D01*
X23966Y10233D02*
X24084D01*
X24025Y10174D02*
Y10292D01*
X24443Y10950D02*
X24561D01*
X24502Y10891D02*
Y11009D01*
X24373Y5456D02*
X24491D01*
X24432Y5397D02*
Y5515D01*
X20269Y9698D02*
X20387D01*
X20328Y9639D02*
Y9757D01*
X24496Y3411D02*
X24614D01*
X24555Y3352D02*
Y3470D01*
X24939Y5154D02*
X25057D01*
X24998Y5095D02*
Y5213D01*
X23800Y3479D02*
X23918D01*
X23859Y3420D02*
Y3538D01*
X24373Y4226D02*
X24491D01*
X24432Y4167D02*
Y4286D01*
X21964Y6774D02*
X22082D01*
X22023Y6715D02*
Y6833D01*
X22375Y6856D02*
X22493D01*
X22434Y6797D02*
Y6915D01*
X20700Y6719D02*
X20818D01*
X20759Y6660D02*
Y6778D01*
X19555Y8930D02*
X19673D01*
X19614Y8870D02*
Y8989D01*
X21684Y7657D02*
X21802D01*
X21743Y7598D02*
Y7716D01*
X24373Y5044D02*
X24491D01*
X24432Y4985D02*
Y5103D01*
X24373Y4623D02*
X24491D01*
X24432Y4564D02*
Y4682D01*
X17989Y10680D02*
X18107D01*
X18048Y10621D02*
Y10739D01*
X18334Y11036D02*
X18452D01*
X18393Y10977D02*
Y11095D01*
X19392Y10521D02*
X19510D01*
X19451Y10462D02*
Y10580D01*
X18057Y12501D02*
X18175D01*
X18116Y12442D02*
Y12560D01*
X18434Y13184D02*
X18552D01*
X18493Y13125D02*
Y13244D01*
X17830Y13178D02*
X17948D01*
X17889Y13119D02*
Y13237D01*
X19683Y6844D02*
X19801D01*
X19742Y6785D02*
Y6903D01*
X22033Y10707D02*
X22151D01*
X22092Y10647D02*
Y10766D01*
X25425Y2849D02*
X25544D01*
X25484Y2790D02*
Y2908D01*
X25081Y2920D02*
X25199D01*
X25140Y2860D02*
Y2979D01*
X13057Y6500D02*
X13175D01*
X13116Y6441D02*
Y6559D01*
X17092Y6689D02*
X17210D01*
X17151Y6630D02*
Y6748D01*
X20931Y11007D02*
X21050D01*
X20991Y10948D02*
Y11066D01*
X19243Y9401D02*
X19361D01*
X19302Y9342D02*
Y9460D01*
X17759Y8207D02*
X17877D01*
X17818Y8148D02*
Y8266D01*
X20442Y12144D02*
X20561D01*
X20501Y12085D02*
Y12203D01*
X20751Y11971D02*
X20870D01*
X20811Y11912D02*
Y12030D01*
X21060Y6710D02*
X21178D01*
X21119Y6651D02*
Y6769D01*
X17953Y24671D02*
X18071D01*
X18012Y24612D02*
Y24730D01*
X17268Y1957D02*
X17386D01*
X17327Y1898D02*
Y2017D01*
X16439Y1957D02*
X16557D01*
X16498Y1898D02*
Y2017D01*
X19394Y2717D02*
X19512D01*
X19453Y2658D02*
Y2776D01*
X19394Y1851D02*
X19512D01*
X19453Y1792D02*
Y1910D01*
X19175Y2502D02*
X19293D01*
X19234Y2443D02*
Y2561D01*
X19394Y2279D02*
X19512D01*
X19453Y2220D02*
Y2338D01*
X19175Y2068D02*
X19293D01*
X19234Y2009D02*
Y2127D01*
X19185Y1600D02*
X19303D01*
X19244Y1541D02*
Y1659D01*
X19154Y767D02*
X19272D01*
X19213Y708D02*
Y826D01*
X17672Y1957D02*
X17790D01*
X17731Y1898D02*
Y2017D01*
X16859Y1957D02*
X16977D01*
X16918Y1898D02*
Y2017D01*
X16493Y15466D02*
X16612D01*
X16553Y15407D02*
Y15525D01*
X18473Y32946D02*
X18591D01*
X18532Y32887D02*
Y33005D01*
X16877Y33754D02*
X16996D01*
X16937Y33695D02*
Y33813D01*
X17114Y35492D02*
X17232D01*
X17173Y35433D02*
Y35551D01*
X18276Y35162D02*
X18394D01*
X18335Y35103D02*
Y35221D01*
X8323Y13170D02*
X8441D01*
X8382Y13111D02*
Y13229D01*
X20177Y31006D02*
X20295D01*
X20236Y30947D02*
Y31065D01*
X19354Y29930D02*
X19472D01*
X19413Y29871D02*
Y29989D01*
X13705Y40391D02*
X13823D01*
X13764Y40332D02*
Y40450D01*
X17964Y3480D02*
X18082D01*
X18023Y3421D02*
Y3539D01*
X17973Y11026D02*
X18091D01*
X18032Y10967D02*
Y11085D01*
X21256Y9299D02*
X21375D01*
X21316Y9240D02*
Y9358D01*
X20519Y15469D02*
X20637D01*
X20578Y15410D02*
Y15528D01*
X19840Y15471D02*
X19958D01*
X19899Y15412D02*
Y15530D01*
X22039Y660D02*
X22157D01*
X22098Y601D02*
Y720D01*
X19957Y1218D02*
X20075D01*
X20016Y1159D02*
Y1277D01*
X19957Y660D02*
X20075D01*
X20016Y601D02*
Y720D01*
X25098Y739D02*
X25216D01*
X25157Y680D02*
Y798D01*
X22039Y1218D02*
X22157D01*
X22098Y1159D02*
Y1277D01*
X18591Y4648D02*
X18709D01*
X18650Y4589D02*
Y4707D01*
X15637Y37943D02*
X15755D01*
X15696Y37884D02*
Y38002D01*
X16237Y38447D02*
X16355D01*
X16296Y38388D02*
Y38506D01*
X16237Y37943D02*
X16355D01*
X16296Y37884D02*
Y38002D01*
X16630Y41026D02*
X16748D01*
X16689Y40967D02*
Y41085D01*
X15037Y37943D02*
X15155D01*
X15096Y37884D02*
Y38002D01*
X16611Y35615D02*
X16729D01*
X16670Y35556D02*
Y35674D01*
X16278Y35282D02*
X16396D01*
X16337Y35223D02*
Y35341D01*
X8735Y36816D02*
X8853D01*
X8794Y36757D02*
Y36875D01*
X9239Y36816D02*
X9357D01*
X9298Y36757D02*
Y36875D01*
X9239Y38016D02*
X9357D01*
X9298Y37957D02*
Y38075D01*
X8735Y38016D02*
X8853D01*
X8794Y37957D02*
Y38075D01*
X9239Y37416D02*
X9357D01*
X9298Y37357D02*
Y37475D01*
X12955Y32343D02*
X13073D01*
X13014Y32284D02*
Y32402D01*
X12595Y32933D02*
X12713D01*
X12654Y32873D02*
Y32992D01*
X16323Y31738D02*
X16441D01*
X16382Y31679D02*
Y31798D01*
X22367Y1991D02*
X22485D01*
X22426Y1932D02*
Y2050D01*
X22754Y1991D02*
X22872D01*
X22813Y1932D02*
Y2050D01*
X23152Y1990D02*
X23270D01*
X23211Y1931D02*
Y2049D01*
X23556Y1981D02*
X23674D01*
X23615Y1922D02*
Y2040D01*
X14159Y664D02*
X14277D01*
X14218Y605D02*
Y723D01*
X14159Y1208D02*
X14277D01*
X14218Y1149D02*
Y1267D01*
X16049Y1224D02*
X16167D01*
X16108Y1165D02*
Y1283D01*
X16049Y664D02*
X16167D01*
X16108Y605D02*
Y723D01*
X14885Y2847D02*
X15004D01*
X14944Y2788D02*
Y2906D01*
X13363Y3690D02*
X13481D01*
X13422Y3631D02*
Y3749D01*
X13057Y6078D02*
X13175D01*
X13116Y6019D02*
Y6137D01*
X13057Y5695D02*
X13175D01*
X13116Y5636D02*
Y5754D01*
X13057Y5302D02*
X13175D01*
X13116Y5243D02*
Y5361D01*
X17163Y15466D02*
X17281D01*
X17222Y15407D02*
Y15525D01*
X17819Y15466D02*
X17937D01*
X17878Y15407D02*
Y15525D01*
X18487Y15466D02*
X18605D01*
X18546Y15407D02*
Y15525D01*
X17279Y34836D02*
X17397D01*
X17338Y34777D02*
Y34895D01*
X16959Y34836D02*
X17077D01*
X17018Y34777D02*
Y34895D01*
X14048Y34301D02*
X14166D01*
X14107Y34242D02*
Y34360D01*
X13191Y28241D02*
X13309D01*
X13250Y28182D02*
Y28300D01*
X13191Y27313D02*
X13309D01*
X13250Y27254D02*
Y27372D01*
X16323Y30353D02*
X16441D01*
X16382Y30294D02*
Y30412D01*
X20529Y30976D02*
X20647D01*
X20588Y30917D02*
Y31035D01*
X19575Y30333D02*
X19693D01*
X19634Y30274D02*
Y30392D01*
X20920Y9315D02*
X21039D01*
X20980Y9256D02*
Y9374D01*
X9324Y12099D02*
X9442D01*
X9383Y12040D02*
Y12158D01*
X16968Y33280D02*
X17087D01*
X17027Y33221D02*
Y33339D01*
X18570Y4274D02*
X18688D01*
X18629Y4215D02*
Y4333D01*
X18283Y3846D02*
X18401D01*
X18342Y3787D02*
Y3905D01*
X20792Y2981D02*
X20910D01*
X20851Y2922D02*
Y3040D01*
X25438Y2403D02*
X25556D01*
X25497Y2343D02*
Y2462D01*
X25434Y1972D02*
X25552D01*
X25493Y1913D02*
Y2031D01*
X25085Y1778D02*
X25203D01*
X25144Y1719D02*
Y1838D01*
X25085Y2200D02*
X25203D01*
X25144Y2141D02*
Y2259D01*
X25090Y2601D02*
X25208D01*
X25149Y2542D02*
Y2660D01*
X16141Y9477D02*
X16259D01*
X16200Y9418D02*
Y9536D01*
X17159Y13178D02*
X17277D01*
X17218Y13119D02*
Y13237D01*
X16493Y13171D02*
X16612D01*
X16553Y13112D02*
Y13231D01*
X16917Y11584D02*
X17035D01*
X16976Y11525D02*
Y11643D01*
X16930Y11140D02*
X17048D01*
X16989Y11081D02*
Y11199D01*
X16930Y11984D02*
X17048D01*
X16989Y11925D02*
Y12044D01*
X20564Y8960D02*
X20682D01*
X20623Y8901D02*
Y9019D01*
X17657Y12558D02*
X17775D01*
X17716Y12499D02*
Y12617D01*
X11704Y25987D02*
X11822D01*
X11763Y25928D02*
Y26046D01*
X12023Y25987D02*
X12142D01*
X12082Y25928D02*
Y26046D01*
X12023Y25347D02*
X12142D01*
X12082Y25288D02*
Y25407D01*
X12023Y25667D02*
X12142D01*
X12082Y25608D02*
Y25726D01*
X12289Y29642D02*
X12407D01*
X12348Y29583D02*
Y29701D01*
X20264Y7339D02*
X20382D01*
X20323Y7280D02*
Y7398D01*
X12289Y29977D02*
X12407D01*
X12348Y29917D02*
Y30036D01*
X10232Y27585D02*
X10350D01*
X10291Y27526D02*
Y27644D01*
X10547Y27299D02*
X10665D01*
X10606Y27240D02*
Y27358D01*
X10232Y27280D02*
X10350D01*
X10291Y27221D02*
Y27339D01*
X10232Y27888D02*
X10350D01*
X10291Y27829D02*
Y27947D01*
X16879Y6919D02*
X16997D01*
X16938Y6860D02*
Y6978D01*
X16467Y6944D02*
X16585D01*
X16526Y6885D02*
Y7003D01*
X15724Y6730D02*
X15842D01*
X15783Y6671D02*
Y6789D01*
X10508Y25347D02*
X10626D01*
X10567Y25288D02*
Y25407D01*
X10508Y25667D02*
X10626D01*
X10567Y25608D02*
Y25726D01*
X17353Y6919D02*
X17471D01*
X17412Y6860D02*
Y6978D01*
X17831Y6935D02*
X17949D01*
X17890Y6876D02*
Y6994D01*
X18342Y6955D02*
X18460D01*
X18401Y6896D02*
Y7014D01*
X17605Y6687D02*
X17723D01*
X17664Y6628D02*
Y6746D01*
X18328Y5899D02*
X18446D01*
X18387Y5840D02*
Y5958D01*
X18088Y6729D02*
X18206D01*
X18147Y6670D02*
Y6788D01*
X17955Y5893D02*
X18073D01*
X18014Y5834D02*
Y5952D01*
M02*
