G04*
G04 #@! TF.GenerationSoftware,Altium Limited,Altium Designer,19.0.10 (269)*
G04*
G04 Layer_Color=0*
%FSLAX24Y24*%
%MOIN*%
G70*
G01*
G75*
%ADD13C,0.0100*%
%ADD48C,0.0039*%
%ADD49C,0.0050*%
%ADD50C,0.0020*%
%ADD51C,0.0079*%
%ADD52C,0.0059*%
%ADD53C,0.0004*%
D13*
X5787Y2234D02*
G03*
X5787Y2234I-88J0D01*
G01*
X855Y2760D02*
G03*
X855Y2760I-16J0D01*
G01*
X2096Y5335D02*
G03*
X2096Y5335I-39J0D01*
G01*
X5817Y915D02*
G03*
X5817Y915I-39J0D01*
G01*
X3533Y4518D02*
G03*
X3533Y4518I-39J0D01*
G01*
X3965Y6559D02*
X4555D01*
X3965Y5378D02*
Y6559D01*
Y5378D02*
X4555D01*
Y6559D01*
X4400Y1319D02*
X5581D01*
Y728D02*
Y1319D01*
X4400Y728D02*
X5581D01*
X4400D02*
Y1319D01*
X24872Y244D02*
X25205D01*
X25039D01*
Y-256D01*
X25622Y244D02*
X25455D01*
X25372Y161D01*
Y-173D01*
X25455Y-256D01*
X25622D01*
X25705Y-173D01*
Y161D01*
X25622Y244D01*
X25872Y-256D02*
Y244D01*
X26122D01*
X26205Y161D01*
Y-6D01*
X26122Y-89D01*
X25872D01*
X26871Y-256D02*
Y77D01*
X27038Y244D01*
X27205Y77D01*
Y-256D01*
Y-6D01*
X26871D01*
X27704Y161D02*
X27621Y244D01*
X27455D01*
X27371Y161D01*
Y77D01*
X27455Y-6D01*
X27621D01*
X27704Y-89D01*
Y-173D01*
X27621Y-256D01*
X27455D01*
X27371Y-173D01*
X28204Y161D02*
X28121Y244D01*
X27954D01*
X27871Y161D01*
Y77D01*
X27954Y-6D01*
X28121D01*
X28204Y-89D01*
Y-173D01*
X28121Y-256D01*
X27954D01*
X27871Y-173D01*
X28704Y244D02*
X28371D01*
Y-256D01*
X28704D01*
X28371Y-6D02*
X28538D01*
X28871Y-256D02*
Y244D01*
X29037Y77D01*
X29204Y244D01*
Y-256D01*
X29371Y244D02*
Y-256D01*
X29621D01*
X29704Y-173D01*
Y-89D01*
X29621Y-6D01*
X29371D01*
X29621D01*
X29704Y77D01*
Y161D01*
X29621Y244D01*
X29371D01*
X29870D02*
Y-256D01*
X30204D01*
X30370Y244D02*
Y161D01*
X30537Y-6D01*
X30703Y161D01*
Y244D01*
X30537Y-6D02*
Y-256D01*
D48*
X6437Y4419D02*
Y4537D01*
X6102Y4429D02*
Y4537D01*
Y4419D02*
Y4429D01*
X6083Y4400D02*
X6447D01*
Y4557D01*
X6083Y4400D02*
Y4557D01*
X6447D01*
X1673Y4783D02*
X2067D01*
X1673Y4055D02*
Y4783D01*
Y4055D02*
X2067D01*
Y4783D01*
X2490Y620D02*
X3356D01*
Y1250D01*
X2490D02*
X3356D01*
X2490Y620D02*
Y1250D01*
X2156Y4252D02*
Y4862D01*
X2411D01*
Y4252D02*
Y4862D01*
X2156Y4252D02*
X2411D01*
X772Y3126D02*
X1043D01*
Y2697D02*
Y3126D01*
X772Y2697D02*
X1043D01*
X772D02*
Y3126D01*
X4516Y5417D02*
Y6520D01*
X4004Y5417D02*
X4516D01*
X4004D02*
Y6520D01*
X4516D01*
X1482Y1374D02*
Y1689D01*
Y1374D02*
X2388D01*
Y1689D01*
X1482D02*
X2388D01*
X4823Y5522D02*
X5315D01*
X4823Y6309D02*
X5315D01*
X1821Y7372D02*
Y8278D01*
X10D02*
X1821D01*
X10Y7372D02*
Y8278D01*
Y7372D02*
X1821D01*
X5699Y1624D02*
X6722D01*
Y837D02*
Y1624D01*
X5699Y837D02*
X6722D01*
X5699D02*
Y1624D01*
X1713Y3819D02*
Y3937D01*
X2047Y3819D02*
Y3927D01*
Y3937D01*
X1703Y3957D02*
X2067D01*
X1703Y3799D02*
Y3957D01*
X2067Y3799D02*
Y3957D01*
X1703Y3799D02*
X2067D01*
X1093Y3051D02*
X1457D01*
X1093Y2894D02*
Y3051D01*
X1457Y2894D02*
Y3051D01*
X1093Y2894D02*
X1457D01*
X1112Y2913D02*
Y2923D01*
Y3031D01*
X1447Y2913D02*
Y3031D01*
X2785Y4439D02*
X3573D01*
Y5463D01*
X2785D02*
X3573D01*
X2785Y4439D02*
Y5463D01*
X4439Y768D02*
Y1280D01*
Y768D02*
X5541D01*
Y1280D01*
X4439D02*
X5541D01*
X4006Y630D02*
Y1535D01*
X4321D01*
Y630D02*
Y1535D01*
X4006Y630D02*
X4321D01*
X817Y3228D02*
Y3543D01*
Y3228D02*
X1722D01*
Y3543D01*
X817D02*
X1722D01*
X1280Y610D02*
Y1516D01*
X965Y610D02*
X1280D01*
X965D02*
Y1516D01*
X1280D01*
X3671Y6378D02*
X3927D01*
X3671Y5768D02*
Y6378D01*
Y5768D02*
X3927D01*
Y6378D01*
X3661Y5069D02*
Y5679D01*
X3917D01*
Y5069D02*
Y5679D01*
X3661Y5069D02*
X3917D01*
X3573Y640D02*
X3829D01*
Y1250D01*
X3573D02*
X3829D01*
X3573Y640D02*
Y1250D01*
X6604Y2657D02*
Y2776D01*
X6270Y2667D02*
Y2776D01*
Y2657D02*
Y2667D01*
X6250Y2638D02*
X6614D01*
Y2795D01*
X6250Y2638D02*
Y2795D01*
X6614D01*
X6378Y3268D02*
X6742D01*
Y3425D01*
X6378Y3268D02*
Y3425D01*
X6742D01*
X6722Y3396D02*
Y3406D01*
Y3287D02*
Y3396D01*
X6388Y3287D02*
Y3406D01*
X0Y2421D02*
Y2815D01*
D49*
X1644Y3671D02*
Y4951D01*
X935Y3671D02*
X1644D01*
X935D02*
Y4951D01*
X1644D01*
D50*
X1457Y1299D02*
X2244D01*
X1457Y591D02*
Y1299D01*
Y591D02*
X2244D01*
Y1299D01*
X2378Y6018D02*
X2516D01*
X2378D02*
Y6392D01*
X2516D01*
Y6018D02*
Y6392D01*
X1101Y1812D02*
Y2796D01*
X2282D01*
Y1812D02*
Y2796D01*
X1101Y1812D02*
X2282D01*
X2913Y2972D02*
Y3760D01*
X2126Y2972D02*
X2913D01*
X2126D02*
Y3760D01*
X2913D01*
X2382Y2815D02*
X3169D01*
Y2028D02*
Y2815D01*
X2382Y2028D02*
X3169D01*
X2382D02*
Y2815D01*
X2894Y1575D02*
Y1969D01*
X3081D01*
Y1575D02*
Y1969D01*
X2894Y1575D02*
X3081D01*
X2283Y3809D02*
Y3996D01*
Y3809D02*
X2677D01*
Y3996D01*
X2283D02*
X2677D01*
X827Y2028D02*
Y2421D01*
X1014D01*
Y2028D02*
Y2421D01*
X827Y2028D02*
X1014D01*
X2756Y1791D02*
Y1978D01*
X2362D02*
X2756D01*
X2362Y1791D02*
Y1978D01*
Y1791D02*
X2756D01*
X6152Y581D02*
X6545D01*
X6152D02*
Y768D01*
X6545D01*
Y581D02*
Y768D01*
X4961Y1437D02*
X5148D01*
Y1831D01*
X4961D02*
X5148D01*
X4961Y1437D02*
Y1831D01*
X4754Y1437D02*
Y1831D01*
X4941D01*
Y1437D02*
Y1831D01*
X4754Y1437D02*
X4941D01*
X6073Y1683D02*
Y1870D01*
X5679D02*
X6073D01*
X5679Y1683D02*
Y1870D01*
Y1683D02*
X6073D01*
X6201Y3228D02*
X6594D01*
Y3041D02*
Y3228D01*
X6201Y3041D02*
X6594D01*
X6201D02*
Y3228D01*
X6211Y2835D02*
Y3022D01*
Y2835D02*
X6604D01*
Y3022D01*
X6211D02*
X6604D01*
X3415Y2697D02*
Y3091D01*
X3228Y2697D02*
X3415D01*
X3228D02*
Y3091D01*
X3415D01*
X6102Y3701D02*
Y3888D01*
Y3701D02*
X6496D01*
Y3888D01*
X6102D02*
X6496D01*
X6358Y3671D02*
X6752D01*
Y3484D02*
Y3671D01*
X6358Y3484D02*
X6752D01*
X6358D02*
Y3671D01*
X6309Y4350D02*
X6496D01*
X6309Y3957D02*
Y4350D01*
Y3957D02*
X6496D01*
Y4350D01*
X3106Y4362D02*
X3500D01*
Y4175D02*
Y4362D01*
X3106Y4175D02*
X3500D01*
X3106D02*
Y4362D01*
X6535Y4537D02*
X6722D01*
X6535Y4144D02*
Y4537D01*
Y4144D02*
X6722D01*
Y4537D01*
X2996Y3986D02*
X3390D01*
Y3799D02*
Y3986D01*
X2996Y3799D02*
X3390D01*
X2996D02*
Y3986D01*
X3024Y3484D02*
Y3671D01*
Y3484D02*
X3417D01*
Y3671D01*
X3024D02*
X3417D01*
X6270Y3957D02*
Y4350D01*
X6083Y3957D02*
X6270D01*
X6083D02*
Y4350D01*
X6270D01*
X5344Y4537D02*
Y4724D01*
Y4537D02*
X5738D01*
Y4724D01*
X5344D02*
X5738D01*
X5337Y5061D02*
Y5455D01*
X5150Y5061D02*
X5337D01*
X5150D02*
Y5455D01*
X5337D01*
X4811D02*
X4998D01*
X4811Y5061D02*
Y5455D01*
Y5061D02*
X4998D01*
Y5455D01*
X3976Y4715D02*
X4370D01*
Y4528D02*
Y4715D01*
X3976Y4528D02*
X4370D01*
X3976D02*
Y4715D01*
X4402Y4990D02*
Y5177D01*
Y4990D02*
X4795D01*
Y5177D01*
X4402D02*
X4795D01*
X4421Y4969D02*
X4815D01*
Y4782D02*
Y4969D01*
X4421Y4782D02*
X4815D01*
X4421D02*
Y4969D01*
Y4573D02*
Y4760D01*
Y4573D02*
X4815D01*
Y4760D01*
X4421D02*
X4815D01*
X3967Y4921D02*
X4360D01*
Y4734D02*
Y4921D01*
X3967Y4734D02*
X4360D01*
X3967D02*
Y4921D01*
X3976Y4941D02*
Y5128D01*
Y4941D02*
X4370D01*
Y5128D01*
X3976D02*
X4370D01*
X3976Y5335D02*
X4370D01*
Y5148D02*
Y5335D01*
X3976Y5148D02*
X4370D01*
X3976D02*
Y5335D01*
X6742Y1831D02*
Y2018D01*
X6348D02*
X6742D01*
X6348Y1831D02*
Y2018D01*
Y1831D02*
X6742D01*
X2067Y3189D02*
Y3583D01*
X1880Y3189D02*
X2067D01*
X1880D02*
Y3583D01*
X2067D01*
X1673Y2963D02*
Y3150D01*
Y2963D02*
X2067D01*
Y3150D01*
X1673D02*
X2067D01*
X738Y4616D02*
Y5010D01*
X925D01*
Y4616D02*
Y5010D01*
X738Y4616D02*
X925D01*
X748Y5925D02*
X935D01*
X748Y5531D02*
Y5925D01*
Y5531D02*
X935D01*
Y5925D01*
X2421Y4941D02*
Y5335D01*
X2608D01*
Y4941D02*
Y5335D01*
X2421Y4941D02*
X2608D01*
X3356Y5502D02*
Y5689D01*
X2963D02*
X3356D01*
X2963Y5502D02*
Y5689D01*
Y5502D02*
X3356D01*
X2224Y5463D02*
X2618D01*
X2224D02*
Y5650D01*
X2618D01*
Y5463D02*
Y5650D01*
X2392Y4921D02*
Y5108D01*
X1998D02*
X2392D01*
X1998Y4921D02*
Y5108D01*
Y4921D02*
X2392D01*
X2368Y5781D02*
X2762D01*
X2368D02*
Y5968D01*
X2762D01*
Y5781D02*
Y5968D01*
Y6431D02*
Y6618D01*
X2368D02*
X2762D01*
X2368Y6431D02*
Y6618D01*
Y6431D02*
X2762D01*
X738Y5984D02*
Y6378D01*
X925D01*
Y5984D02*
Y6378D01*
X738Y5984D02*
X925D01*
X748Y5472D02*
X935D01*
X748Y5079D02*
Y5472D01*
Y5079D02*
X935D01*
Y5472D01*
X6722Y3701D02*
Y4094D01*
X6535Y3701D02*
X6722D01*
X6535D02*
Y4094D01*
X6722D01*
X6142Y3661D02*
X6329D01*
X6142Y3268D02*
Y3661D01*
Y3268D02*
X6329D01*
Y3661D01*
X5236Y1496D02*
X5630D01*
X5236D02*
Y1683D01*
X5630D01*
Y1496D02*
Y1683D01*
X738Y3661D02*
X925D01*
Y4055D01*
X738D02*
X925D01*
X738Y3661D02*
Y4055D01*
Y4163D02*
Y4557D01*
X925D01*
Y4163D02*
Y4557D01*
X738Y4163D02*
X925D01*
X2854Y1516D02*
Y1703D01*
X2461D02*
X2854D01*
X2461Y1516D02*
Y1703D01*
Y1516D02*
X2854D01*
X5955Y787D02*
X6043Y699D01*
X5866D02*
X5955Y787D01*
Y394D02*
Y787D01*
X1821Y541D02*
Y541D01*
D51*
X3573Y1998D02*
Y4360D01*
Y1998D02*
X5935D01*
Y4360D01*
X3573D02*
X5935D01*
X2175Y5177D02*
Y6437D01*
X994Y5177D02*
X2175D01*
X994D02*
Y6437D01*
X2136D01*
D52*
X1443Y1738D02*
X2427D01*
Y1335D02*
Y1738D01*
X1443Y1335D02*
X2427D01*
X1443D02*
Y1738D01*
X2441Y4911D02*
X2726D01*
X2441Y4222D02*
Y4911D01*
X2726Y4222D02*
Y4911D01*
X2441Y4222D02*
X2726D01*
X3957Y591D02*
X4360D01*
Y1575D01*
X3957D02*
X4360D01*
X3957Y591D02*
Y1575D01*
X778Y3593D02*
X1762D01*
Y3189D02*
Y3593D01*
X778Y3189D02*
X1762D01*
X778D02*
Y3593D01*
X925Y1555D02*
X1329D01*
X925Y571D02*
Y1555D01*
Y571D02*
X1329D01*
Y1555D01*
X551Y354D02*
X1535D01*
X5984Y6772D02*
X6969D01*
D53*
X4496Y6949D02*
X4598D01*
X4516Y6508D02*
X4622D01*
X5044Y4773D02*
X5094D01*
X5045Y5457D02*
X5095D01*
M02*
