G04*
G04 #@! TF.GenerationSoftware,Altium Limited,Altium Designer,19.0.10 (269)*
G04*
G04 Layer_Color=16711935*
%FSLAX24Y24*%
%MOIN*%
G70*
G01*
G75*
%ADD13C,0.0100*%
%ADD48C,0.0039*%
%ADD49C,0.0050*%
%ADD50C,0.0020*%
%ADD51C,0.0079*%
%ADD54C,0.0030*%
%ADD55C,0.0008*%
D13*
X1201Y2578D02*
Y2078D01*
X1301Y1978D01*
X1501D01*
X1601Y2078D01*
Y2578D01*
X1801D02*
X2200D01*
Y2478D01*
X1801Y2078D01*
Y1978D01*
X25571Y1061D02*
X25904D01*
X25737D01*
Y561D01*
X26321Y1061D02*
X26154D01*
X26071Y978D01*
Y644D01*
X26154Y561D01*
X26321D01*
X26404Y644D01*
Y978D01*
X26321Y1061D01*
X26571Y561D02*
Y1061D01*
X26820D01*
X26904Y978D01*
Y811D01*
X26820Y728D01*
X26571D01*
X27570Y1061D02*
Y561D01*
X27820D01*
X27903Y644D01*
Y978D01*
X27820Y1061D01*
X27570D01*
X28403D02*
X28070D01*
Y561D01*
X28403D01*
X28070Y811D02*
X28237D01*
X28903Y978D02*
X28820Y1061D01*
X28653D01*
X28570Y978D01*
Y894D01*
X28653Y811D01*
X28820D01*
X28903Y728D01*
Y644D01*
X28820Y561D01*
X28653D01*
X28570Y644D01*
X29070Y1061D02*
X29236D01*
X29153D01*
Y561D01*
X29070D01*
X29236D01*
X29819Y978D02*
X29736Y1061D01*
X29570D01*
X29486Y978D01*
Y644D01*
X29570Y561D01*
X29736D01*
X29819Y644D01*
Y811D01*
X29653D01*
X29986Y561D02*
Y1061D01*
X30319Y561D01*
Y1061D01*
X30486Y561D02*
Y894D01*
X30653Y1061D01*
X30819Y894D01*
Y561D01*
Y811D01*
X30486D01*
X30986Y1061D02*
X31319D01*
X31152D01*
Y561D01*
X31736Y1061D02*
X31569D01*
X31486Y978D01*
Y644D01*
X31569Y561D01*
X31736D01*
X31819Y644D01*
Y978D01*
X31736Y1061D01*
X31985Y561D02*
Y1061D01*
X32235D01*
X32319Y978D01*
Y811D01*
X32235Y728D01*
X31985D01*
X32152D02*
X32319Y561D01*
D48*
X4823Y6309D02*
X5315D01*
X4823Y5522D02*
X5315D01*
X1535Y1151D02*
Y823D01*
X1601Y758D01*
X1732D01*
X1798Y823D01*
Y1151D01*
X1929Y1086D02*
X1995Y1151D01*
X2126D01*
X2191Y1086D01*
Y1020D01*
X2126Y955D01*
X2060D01*
X2126D01*
X2191Y889D01*
Y823D01*
X2126Y758D01*
X1995D01*
X1929Y823D01*
X4417Y3409D02*
Y3081D01*
X4483Y3016D01*
X4614D01*
X4680Y3081D01*
Y3409D01*
X4811Y3016D02*
X4942D01*
X4876D01*
Y3409D01*
X4811Y3344D01*
X1760Y4222D02*
X1996D01*
Y4380D01*
X1799Y4459D02*
X1760Y4498D01*
Y4577D01*
X1799Y4616D01*
X1839D01*
X1878Y4577D01*
X1917Y4616D01*
X1957D01*
X1996Y4577D01*
Y4498D01*
X1957Y4459D01*
X1917D01*
X1878Y4498D01*
X1839Y4459D01*
X1799D01*
X1878Y4498D02*
Y4577D01*
X2746Y1083D02*
Y846D01*
X2903D01*
X3100D02*
Y1083D01*
X2982Y965D01*
X3140D01*
X2183Y4380D02*
X2380D01*
Y4511D01*
X2183Y4577D02*
Y4708D01*
X2216D01*
X2347Y4577D01*
X2380D01*
X2215Y3563D02*
Y3235D01*
X2280Y3169D01*
X2411D01*
X2477Y3235D01*
Y3563D01*
X2805Y3169D02*
Y3563D01*
X2608Y3366D01*
X2871D01*
X4137Y5761D02*
X4085Y5709D01*
Y5604D01*
X4137Y5551D01*
X4347D01*
X4400Y5604D01*
Y5709D01*
X4347Y5761D01*
X4400Y6076D02*
Y5866D01*
X4190Y6076D01*
X4137D01*
X4085Y6023D01*
Y5919D01*
X4137Y5866D01*
X4085Y6391D02*
X4137Y6286D01*
X4242Y6181D01*
X4347D01*
X4400Y6233D01*
Y6338D01*
X4347Y6391D01*
X4295D01*
X4242Y6338D01*
Y6181D01*
X1751Y1597D02*
X1718Y1630D01*
X1653D01*
X1620Y1597D01*
Y1466D01*
X1653Y1433D01*
X1718D01*
X1751Y1466D01*
X1817Y1597D02*
X1850Y1630D01*
X1915D01*
X1948Y1597D01*
Y1564D01*
X1915Y1531D01*
X1882D01*
X1915D01*
X1948Y1499D01*
Y1466D01*
X1915Y1433D01*
X1850D01*
X1817Y1466D01*
X2112Y1433D02*
Y1630D01*
X2014Y1531D01*
X2145D01*
X1370Y5961D02*
Y5731D01*
X1416Y5685D01*
X1508D01*
X1554Y5731D01*
Y5961D01*
X1829D02*
X1737Y5915D01*
X1646Y5823D01*
Y5731D01*
X1691Y5685D01*
X1783D01*
X1829Y5731D01*
Y5777D01*
X1783Y5823D01*
X1646D01*
X5817Y1506D02*
X6079Y1112D01*
Y1506D02*
X5817Y1112D01*
X6473D02*
X6211D01*
X6473Y1375D01*
Y1440D01*
X6407Y1506D01*
X6276D01*
X6211Y1440D01*
X2904Y4557D02*
X3297Y4819D01*
X2904D02*
X3297Y4557D01*
Y4951D02*
Y5082D01*
Y5016D01*
X2904D01*
X2969Y4951D01*
X4777Y1129D02*
X4724Y1181D01*
X4619D01*
X4567Y1129D01*
Y919D01*
X4619Y866D01*
X4724D01*
X4777Y919D01*
X5092Y866D02*
X4882D01*
X5092Y1076D01*
Y1129D01*
X5039Y1181D01*
X4934D01*
X4882Y1129D01*
X5407Y1181D02*
X5197D01*
Y1024D01*
X5302Y1076D01*
X5354D01*
X5407Y1024D01*
Y919D01*
X5354Y866D01*
X5249D01*
X5197Y919D01*
X4098Y899D02*
X4065Y866D01*
Y800D01*
X4098Y768D01*
X4229D01*
X4262Y800D01*
Y866D01*
X4229Y899D01*
X4098Y964D02*
X4065Y997D01*
Y1063D01*
X4098Y1096D01*
X4131D01*
X4163Y1063D01*
Y1030D01*
Y1063D01*
X4196Y1096D01*
X4229D01*
X4262Y1063D01*
Y997D01*
X4229Y964D01*
X4065Y1292D02*
Y1161D01*
X4163D01*
X4131Y1227D01*
Y1260D01*
X4163Y1292D01*
X4229D01*
X4262Y1260D01*
Y1194D01*
X4229Y1161D01*
X1099Y3468D02*
X1063Y3504D01*
X991D01*
X955Y3468D01*
Y3323D01*
X991Y3287D01*
X1063D01*
X1099Y3323D01*
X1171Y3468D02*
X1207Y3504D01*
X1279D01*
X1315Y3468D01*
Y3432D01*
X1279Y3396D01*
X1243D01*
X1279D01*
X1315Y3360D01*
Y3323D01*
X1279Y3287D01*
X1207D01*
X1171Y3323D01*
X1532Y3504D02*
X1460Y3468D01*
X1388Y3396D01*
Y3323D01*
X1424Y3287D01*
X1496D01*
X1532Y3323D01*
Y3360D01*
X1496Y3396D01*
X1388D01*
X1056Y889D02*
X1024Y856D01*
Y791D01*
X1056Y758D01*
X1188D01*
X1220Y791D01*
Y856D01*
X1188Y889D01*
X1056Y955D02*
X1024Y987D01*
Y1053D01*
X1056Y1086D01*
X1089D01*
X1122Y1053D01*
Y1020D01*
Y1053D01*
X1155Y1086D01*
X1188D01*
X1220Y1053D01*
Y987D01*
X1188Y955D01*
X1024Y1151D02*
Y1283D01*
X1056D01*
X1188Y1151D01*
X1220D01*
X3900Y6250D02*
X3703D01*
Y6119D01*
Y5922D02*
Y6053D01*
X3834Y5922D01*
X3867D01*
X3900Y5955D01*
Y6020D01*
X3867Y6053D01*
X3689Y5197D02*
X3886D01*
Y5328D01*
X3722Y5394D02*
X3689Y5426D01*
Y5492D01*
X3722Y5525D01*
X3755D01*
X3787Y5492D01*
Y5459D01*
Y5492D01*
X3820Y5525D01*
X3853D01*
X3886Y5492D01*
Y5426D01*
X3853Y5394D01*
X3600Y768D02*
X3797D01*
Y899D01*
X3600Y1096D02*
Y965D01*
X3699D01*
X3666Y1030D01*
Y1063D01*
X3699Y1096D01*
X3764D01*
X3797Y1063D01*
Y997D01*
X3764Y965D01*
D49*
X630Y7687D02*
Y7887D01*
X730Y7987D01*
X830Y7887D01*
Y7687D01*
Y7837D01*
X630D01*
X1130Y7687D02*
X930D01*
X1130Y7887D01*
Y7937D01*
X1080Y7987D01*
X980D01*
X930Y7937D01*
D50*
X6201Y4429D02*
Y4528D01*
X6250D01*
X6266Y4511D01*
Y4478D01*
X6250Y4462D01*
X6201D01*
X6234D02*
X6266Y4429D01*
X6299Y4511D02*
X6316Y4528D01*
X6348D01*
X6365Y4511D01*
Y4495D01*
X6348Y4478D01*
X6332D01*
X6348D01*
X6365Y4462D01*
Y4446D01*
X6348Y4429D01*
X6316D01*
X6299Y4446D01*
X847Y2864D02*
X965D01*
Y2923D01*
X945Y2943D01*
X866D01*
X847Y2923D01*
Y2864D01*
X965Y3061D02*
Y2982D01*
X886Y3061D01*
X866D01*
X847Y3041D01*
Y3002D01*
X866Y2982D01*
X2534Y4455D02*
X2508Y4429D01*
Y4377D01*
X2534Y4350D01*
X2639D01*
X2665Y4377D01*
Y4429D01*
X2639Y4455D01*
X2665Y4587D02*
X2508D01*
X2587Y4508D01*
Y4613D01*
X2665Y4744D02*
X2508D01*
X2587Y4665D01*
Y4770D01*
X2943Y1693D02*
X2923Y1673D01*
Y1634D01*
X2943Y1614D01*
X3022D01*
X3041Y1634D01*
Y1673D01*
X3022Y1693D01*
X2943Y1732D02*
X2923Y1752D01*
Y1791D01*
X2943Y1811D01*
X2963D01*
X2982Y1791D01*
Y1772D01*
Y1791D01*
X3002Y1811D01*
X3022D01*
X3041Y1791D01*
Y1752D01*
X3022Y1732D01*
X2943Y1850D02*
X2923Y1870D01*
Y1909D01*
X2943Y1929D01*
X2963D01*
X2982Y1909D01*
Y1890D01*
Y1909D01*
X3002Y1929D01*
X3022D01*
X3041Y1909D01*
Y1870D01*
X3022Y1850D01*
X2411Y3947D02*
X2392Y3966D01*
X2352D01*
X2333Y3947D01*
Y3868D01*
X2352Y3848D01*
X2392D01*
X2411Y3868D01*
X2529Y3966D02*
X2451D01*
Y3907D01*
X2490Y3927D01*
X2510D01*
X2529Y3907D01*
Y3868D01*
X2510Y3848D01*
X2470D01*
X2451Y3868D01*
X2569Y3966D02*
X2648D01*
Y3947D01*
X2569Y3868D01*
Y3848D01*
X886Y2136D02*
X866Y2116D01*
Y2077D01*
X886Y2057D01*
X965D01*
X984Y2077D01*
Y2116D01*
X965Y2136D01*
X984Y2234D02*
X866D01*
X925Y2175D01*
Y2254D01*
X866Y2372D02*
Y2293D01*
X925D01*
X906Y2333D01*
Y2352D01*
X925Y2372D01*
X965D01*
X984Y2352D01*
Y2313D01*
X965Y2293D01*
X2480Y1919D02*
X2461Y1939D01*
X2421D01*
X2402Y1919D01*
Y1841D01*
X2421Y1821D01*
X2461D01*
X2480Y1841D01*
X2520Y1919D02*
X2539Y1939D01*
X2579D01*
X2598Y1919D01*
Y1900D01*
X2579Y1880D01*
X2559D01*
X2579D01*
X2598Y1860D01*
Y1841D01*
X2579Y1821D01*
X2539D01*
X2520Y1841D01*
X2638D02*
X2657Y1821D01*
X2697D01*
X2716Y1841D01*
Y1919D01*
X2697Y1939D01*
X2657D01*
X2638Y1919D01*
Y1900D01*
X2657Y1880D01*
X2716D01*
X1949Y3927D02*
Y3829D01*
X1900D01*
X1883Y3845D01*
Y3878D01*
X1900Y3894D01*
X1949D01*
X1916D02*
X1883Y3927D01*
X1850D02*
X1818D01*
X1834D01*
Y3829D01*
X1850Y3845D01*
X1768Y3927D02*
X1736D01*
X1752D01*
Y3829D01*
X1768Y3845D01*
X1211Y2923D02*
Y3022D01*
X1260D01*
X1276Y3005D01*
Y2972D01*
X1260Y2956D01*
X1211D01*
X1243D02*
X1276Y2923D01*
X1309D02*
X1342D01*
X1325D01*
Y3022D01*
X1309Y3005D01*
X1391D02*
X1407Y3022D01*
X1440D01*
X1457Y3005D01*
Y2940D01*
X1440Y2923D01*
X1407D01*
X1391Y2940D01*
Y3005D01*
X6270Y718D02*
X6250Y738D01*
X6211D01*
X6191Y718D01*
Y640D01*
X6211Y620D01*
X6250D01*
X6270Y640D01*
X6388Y620D02*
X6309D01*
X6388Y699D01*
Y718D01*
X6368Y738D01*
X6329D01*
X6309Y718D01*
X6506Y620D02*
X6427D01*
X6506Y699D01*
Y718D01*
X6486Y738D01*
X6447D01*
X6427Y718D01*
X5010Y1654D02*
X4990Y1634D01*
Y1594D01*
X5010Y1575D01*
X5089D01*
X5108Y1594D01*
Y1634D01*
X5089Y1654D01*
X5108Y1693D02*
Y1732D01*
Y1713D01*
X4990D01*
X5010Y1693D01*
X4803Y1624D02*
X4784Y1604D01*
Y1565D01*
X4803Y1545D01*
X4882D01*
X4902Y1565D01*
Y1604D01*
X4882Y1624D01*
X4902Y1742D02*
Y1663D01*
X4823Y1742D01*
X4803D01*
X4784Y1722D01*
Y1683D01*
X4803Y1663D01*
X5856Y1821D02*
X5837Y1841D01*
X5797D01*
X5778Y1821D01*
Y1742D01*
X5797Y1722D01*
X5837D01*
X5856Y1742D01*
X5955Y1722D02*
Y1841D01*
X5896Y1781D01*
X5974D01*
X6398Y3179D02*
X6378Y3199D01*
X6339D01*
X6319Y3179D01*
Y3100D01*
X6339Y3081D01*
X6378D01*
X6398Y3100D01*
X6437Y3199D02*
X6516D01*
Y3179D01*
X6437Y3100D01*
Y3081D01*
X6388Y2963D02*
X6368Y2982D01*
X6329D01*
X6309Y2963D01*
Y2884D01*
X6329Y2864D01*
X6368D01*
X6388Y2884D01*
X6427Y2963D02*
X6447Y2982D01*
X6486D01*
X6506Y2963D01*
Y2943D01*
X6486Y2923D01*
X6506Y2904D01*
Y2884D01*
X6486Y2864D01*
X6447D01*
X6427Y2884D01*
Y2904D01*
X6447Y2923D01*
X6427Y2943D01*
Y2963D01*
X6447Y2923D02*
X6486D01*
X3287Y2864D02*
X3268Y2844D01*
Y2805D01*
X3287Y2785D01*
X3366D01*
X3386Y2805D01*
Y2844D01*
X3366Y2864D01*
Y2904D02*
X3386Y2923D01*
Y2963D01*
X3366Y2982D01*
X3287D01*
X3268Y2963D01*
Y2923D01*
X3287Y2904D01*
X3307D01*
X3327Y2923D01*
Y2982D01*
X6230Y3839D02*
X6211Y3858D01*
X6171D01*
X6152Y3839D01*
Y3760D01*
X6171Y3740D01*
X6211D01*
X6230Y3760D01*
X6270Y3740D02*
X6309D01*
X6289D01*
Y3858D01*
X6270Y3839D01*
X6368D02*
X6388Y3858D01*
X6427D01*
X6447Y3839D01*
Y3760D01*
X6427Y3740D01*
X6388D01*
X6368Y3760D01*
Y3839D01*
X6506Y3612D02*
X6486Y3632D01*
X6447D01*
X6427Y3612D01*
Y3533D01*
X6447Y3514D01*
X6486D01*
X6506Y3533D01*
X6545Y3514D02*
X6585D01*
X6565D01*
Y3632D01*
X6545Y3612D01*
X6644Y3514D02*
X6683D01*
X6663D01*
Y3632D01*
X6644Y3612D01*
X6368Y4085D02*
X6348Y4065D01*
Y4026D01*
X6368Y4006D01*
X6447D01*
X6467Y4026D01*
Y4065D01*
X6447Y4085D01*
X6467Y4124D02*
Y4163D01*
Y4144D01*
X6348D01*
X6368Y4124D01*
Y4222D02*
X6348Y4242D01*
Y4281D01*
X6368Y4301D01*
X6388D01*
X6407Y4281D01*
Y4262D01*
Y4281D01*
X6427Y4301D01*
X6447D01*
X6467Y4281D01*
Y4242D01*
X6447Y4222D01*
X3238Y4311D02*
X3218Y4331D01*
X3179D01*
X3159Y4311D01*
Y4232D01*
X3179Y4213D01*
X3218D01*
X3238Y4232D01*
X3278Y4213D02*
X3317D01*
X3297D01*
Y4331D01*
X3278Y4311D01*
X3435Y4213D02*
Y4331D01*
X3376Y4272D01*
X3455D01*
X6585Y4262D02*
X6565Y4242D01*
Y4203D01*
X6585Y4183D01*
X6663D01*
X6683Y4203D01*
Y4242D01*
X6663Y4262D01*
X6683Y4301D02*
Y4340D01*
Y4321D01*
X6565D01*
X6585Y4301D01*
X6565Y4478D02*
X6585Y4439D01*
X6624Y4400D01*
X6663D01*
X6683Y4419D01*
Y4459D01*
X6663Y4478D01*
X6644D01*
X6624Y4459D01*
Y4400D01*
X3130Y3937D02*
X3110Y3957D01*
X3071D01*
X3051Y3937D01*
Y3858D01*
X3071Y3839D01*
X3110D01*
X3130Y3858D01*
X3169Y3839D02*
X3209D01*
X3189D01*
Y3957D01*
X3169Y3937D01*
X3268Y3957D02*
X3346D01*
Y3937D01*
X3268Y3858D01*
Y3839D01*
X3150Y3622D02*
X3130Y3642D01*
X3091D01*
X3071Y3622D01*
Y3543D01*
X3091Y3524D01*
X3130D01*
X3150Y3543D01*
X3189Y3524D02*
X3228D01*
X3209D01*
Y3642D01*
X3189Y3622D01*
X3287D02*
X3307Y3642D01*
X3346D01*
X3366Y3622D01*
Y3602D01*
X3346Y3583D01*
X3366Y3563D01*
Y3543D01*
X3346Y3524D01*
X3307D01*
X3287Y3543D01*
Y3563D01*
X3307Y3583D01*
X3287Y3602D01*
Y3622D01*
X3307Y3583D02*
X3346D01*
X6142Y4085D02*
X6122Y4065D01*
Y4026D01*
X6142Y4006D01*
X6220D01*
X6240Y4026D01*
Y4065D01*
X6220Y4085D01*
X6240Y4124D02*
Y4163D01*
Y4144D01*
X6122D01*
X6142Y4124D01*
X6220Y4222D02*
X6240Y4242D01*
Y4281D01*
X6220Y4301D01*
X6142D01*
X6122Y4281D01*
Y4242D01*
X6142Y4222D01*
X6161D01*
X6181Y4242D01*
Y4301D01*
X5463Y4675D02*
X5443Y4695D01*
X5404D01*
X5384Y4675D01*
Y4596D01*
X5404Y4577D01*
X5443D01*
X5463Y4596D01*
X5581Y4577D02*
X5502D01*
X5581Y4655D01*
Y4675D01*
X5561Y4695D01*
X5522D01*
X5502Y4675D01*
X5620D02*
X5640Y4695D01*
X5679D01*
X5699Y4675D01*
Y4596D01*
X5679Y4577D01*
X5640D01*
X5620Y4596D01*
Y4675D01*
X5207Y5187D02*
X5187Y5167D01*
Y5128D01*
X5207Y5108D01*
X5285D01*
X5305Y5128D01*
Y5167D01*
X5285Y5187D01*
X5305Y5305D02*
Y5226D01*
X5226Y5305D01*
X5207D01*
X5187Y5285D01*
Y5246D01*
X5207Y5226D01*
X5305Y5344D02*
Y5384D01*
Y5364D01*
X5187D01*
X5207Y5344D01*
X4862Y5177D02*
X4843Y5157D01*
Y5118D01*
X4862Y5098D01*
X4941D01*
X4961Y5118D01*
Y5157D01*
X4941Y5177D01*
X4961Y5295D02*
Y5217D01*
X4882Y5295D01*
X4862D01*
X4843Y5276D01*
Y5236D01*
X4862Y5217D01*
Y5335D02*
X4843Y5354D01*
Y5394D01*
X4862Y5413D01*
X4882D01*
X4902Y5394D01*
Y5374D01*
Y5394D01*
X4921Y5413D01*
X4941D01*
X4961Y5394D01*
Y5354D01*
X4941Y5335D01*
X4104Y4665D02*
X4085Y4685D01*
X4045D01*
X4026Y4665D01*
Y4587D01*
X4045Y4567D01*
X4085D01*
X4104Y4587D01*
X4222Y4567D02*
X4144D01*
X4222Y4646D01*
Y4665D01*
X4203Y4685D01*
X4163D01*
X4144Y4665D01*
X4321Y4567D02*
Y4685D01*
X4262Y4626D01*
X4340D01*
X4518Y5118D02*
X4498Y5138D01*
X4459D01*
X4439Y5118D01*
Y5039D01*
X4459Y5020D01*
X4498D01*
X4518Y5039D01*
X4636Y5020D02*
X4557D01*
X4636Y5098D01*
Y5118D01*
X4616Y5138D01*
X4577D01*
X4557Y5118D01*
X4675Y5138D02*
X4754D01*
Y5118D01*
X4675Y5039D01*
Y5020D01*
X4537Y4911D02*
X4518Y4931D01*
X4478D01*
X4459Y4911D01*
Y4833D01*
X4478Y4813D01*
X4518D01*
X4537Y4833D01*
X4655Y4813D02*
X4577D01*
X4655Y4892D01*
Y4911D01*
X4636Y4931D01*
X4596D01*
X4577Y4911D01*
X4695D02*
X4714Y4931D01*
X4754D01*
X4774Y4911D01*
Y4892D01*
X4754Y4872D01*
X4774Y4852D01*
Y4833D01*
X4754Y4813D01*
X4714D01*
X4695Y4833D01*
Y4852D01*
X4714Y4872D01*
X4695Y4892D01*
Y4911D01*
X4714Y4872D02*
X4754D01*
X4537Y4705D02*
X4518Y4724D01*
X4478D01*
X4459Y4705D01*
Y4626D01*
X4478Y4606D01*
X4518D01*
X4537Y4626D01*
X4655Y4606D02*
X4577D01*
X4655Y4685D01*
Y4705D01*
X4636Y4724D01*
X4596D01*
X4577Y4705D01*
X4695Y4626D02*
X4714Y4606D01*
X4754D01*
X4774Y4626D01*
Y4705D01*
X4754Y4724D01*
X4714D01*
X4695Y4705D01*
Y4685D01*
X4714Y4665D01*
X4774D01*
X4094Y4872D02*
X4075Y4892D01*
X4035D01*
X4016Y4872D01*
Y4793D01*
X4035Y4774D01*
X4075D01*
X4094Y4793D01*
X4134Y4872D02*
X4153Y4892D01*
X4193D01*
X4213Y4872D01*
Y4852D01*
X4193Y4833D01*
X4173D01*
X4193D01*
X4213Y4813D01*
Y4793D01*
X4193Y4774D01*
X4153D01*
X4134Y4793D01*
X4252Y4872D02*
X4272Y4892D01*
X4311D01*
X4331Y4872D01*
Y4793D01*
X4311Y4774D01*
X4272D01*
X4252Y4793D01*
Y4872D01*
X4114Y5079D02*
X4094Y5098D01*
X4055D01*
X4035Y5079D01*
Y5000D01*
X4055Y4980D01*
X4094D01*
X4114Y5000D01*
X4154Y5079D02*
X4173Y5098D01*
X4213D01*
X4232Y5079D01*
Y5059D01*
X4213Y5039D01*
X4193D01*
X4213D01*
X4232Y5020D01*
Y5000D01*
X4213Y4980D01*
X4173D01*
X4154Y5000D01*
X4272Y4980D02*
X4311D01*
X4291D01*
Y5098D01*
X4272Y5079D01*
X4094Y5285D02*
X4075Y5305D01*
X4035D01*
X4016Y5285D01*
Y5207D01*
X4035Y5187D01*
X4075D01*
X4094Y5207D01*
X4134Y5285D02*
X4153Y5305D01*
X4193D01*
X4213Y5285D01*
Y5266D01*
X4193Y5246D01*
X4173D01*
X4193D01*
X4213Y5226D01*
Y5207D01*
X4193Y5187D01*
X4153D01*
X4134Y5207D01*
X4331Y5187D02*
X4252D01*
X4331Y5266D01*
Y5285D01*
X4311Y5305D01*
X4272D01*
X4252Y5285D01*
X6467Y1968D02*
X6447Y1988D01*
X6407D01*
X6388Y1968D01*
Y1890D01*
X6407Y1870D01*
X6447D01*
X6467Y1890D01*
X6506Y1968D02*
X6526Y1988D01*
X6565D01*
X6585Y1968D01*
Y1949D01*
X6565Y1929D01*
X6545D01*
X6565D01*
X6585Y1909D01*
Y1890D01*
X6565Y1870D01*
X6526D01*
X6506Y1890D01*
X6624Y1968D02*
X6644Y1988D01*
X6683D01*
X6703Y1968D01*
Y1949D01*
X6683Y1929D01*
X6703Y1909D01*
Y1890D01*
X6683Y1870D01*
X6644D01*
X6624Y1890D01*
Y1909D01*
X6644Y1929D01*
X6624Y1949D01*
Y1968D01*
X6644Y1929D02*
X6683D01*
X1929Y3327D02*
X1909Y3307D01*
Y3268D01*
X1929Y3248D01*
X2008D01*
X2028Y3268D01*
Y3307D01*
X2008Y3327D01*
X2028Y3425D02*
X1909D01*
X1969Y3366D01*
Y3445D01*
X2028Y3484D02*
Y3524D01*
Y3504D01*
X1909D01*
X1929Y3484D01*
X1791Y3100D02*
X1772Y3120D01*
X1732D01*
X1713Y3100D01*
Y3022D01*
X1732Y3002D01*
X1772D01*
X1791Y3022D01*
X1890Y3002D02*
Y3120D01*
X1831Y3061D01*
X1909D01*
X1949Y3100D02*
X1968Y3120D01*
X2008D01*
X2027Y3100D01*
Y3081D01*
X2008Y3061D01*
X1988D01*
X2008D01*
X2027Y3041D01*
Y3022D01*
X2008Y3002D01*
X1968D01*
X1949Y3022D01*
X787Y4734D02*
X768Y4715D01*
Y4675D01*
X787Y4656D01*
X866D01*
X886Y4675D01*
Y4715D01*
X866Y4734D01*
X886Y4833D02*
X768D01*
X827Y4774D01*
Y4852D01*
X768Y4970D02*
X787Y4931D01*
X827Y4892D01*
X866D01*
X886Y4911D01*
Y4951D01*
X866Y4970D01*
X846D01*
X827Y4951D01*
Y4892D01*
X807Y5640D02*
X787Y5620D01*
Y5581D01*
X807Y5561D01*
X886D01*
X906Y5581D01*
Y5620D01*
X886Y5640D01*
X906Y5738D02*
X787D01*
X846Y5679D01*
Y5758D01*
X787Y5797D02*
Y5876D01*
X807D01*
X886Y5797D01*
X906D01*
X2480Y5059D02*
X2461Y5039D01*
Y5000D01*
X2480Y4980D01*
X2559D01*
X2579Y5000D01*
Y5039D01*
X2559Y5059D01*
X2579Y5157D02*
X2461D01*
X2520Y5098D01*
Y5177D01*
X2480Y5216D02*
X2461Y5236D01*
Y5275D01*
X2480Y5295D01*
X2500D01*
X2520Y5275D01*
X2539Y5295D01*
X2559D01*
X2579Y5275D01*
Y5236D01*
X2559Y5216D01*
X2539D01*
X2520Y5236D01*
X2500Y5216D01*
X2480D01*
X2520Y5236D02*
Y5275D01*
X3081Y5640D02*
X3061Y5659D01*
X3022D01*
X3002Y5640D01*
Y5561D01*
X3022Y5541D01*
X3061D01*
X3081Y5561D01*
X3179Y5541D02*
Y5659D01*
X3120Y5600D01*
X3199D01*
X3238Y5561D02*
X3258Y5541D01*
X3297D01*
X3317Y5561D01*
Y5640D01*
X3297Y5659D01*
X3258D01*
X3238Y5640D01*
Y5620D01*
X3258Y5600D01*
X3317D01*
X2342Y5591D02*
X2323Y5610D01*
X2283D01*
X2264Y5591D01*
Y5512D01*
X2283Y5492D01*
X2323D01*
X2342Y5512D01*
X2461Y5610D02*
X2382D01*
Y5551D01*
X2421Y5571D01*
X2441D01*
X2461Y5551D01*
Y5512D01*
X2441Y5492D01*
X2402D01*
X2382Y5512D01*
X2500Y5591D02*
X2520Y5610D01*
X2559D01*
X2579Y5591D01*
Y5512D01*
X2559Y5492D01*
X2520D01*
X2500Y5512D01*
Y5591D01*
X2136Y5059D02*
X2116Y5079D01*
X2077D01*
X2057Y5059D01*
Y4980D01*
X2077Y4961D01*
X2116D01*
X2136Y4980D01*
X2254Y5079D02*
X2175D01*
Y5020D01*
X2215Y5039D01*
X2234D01*
X2254Y5020D01*
Y4980D01*
X2234Y4961D01*
X2195D01*
X2175Y4980D01*
X2293Y4961D02*
X2333D01*
X2313D01*
Y5079D01*
X2293Y5059D01*
X2480Y5915D02*
X2461Y5935D01*
X2421D01*
X2402Y5915D01*
Y5837D01*
X2421Y5817D01*
X2461D01*
X2480Y5837D01*
X2598Y5935D02*
X2520D01*
Y5876D01*
X2559Y5896D01*
X2579D01*
X2598Y5876D01*
Y5837D01*
X2579Y5817D01*
X2539D01*
X2520Y5837D01*
X2716Y5817D02*
X2638D01*
X2716Y5896D01*
Y5915D01*
X2697Y5935D01*
X2657D01*
X2638Y5915D01*
X2490Y6565D02*
X2470Y6585D01*
X2431D01*
X2411Y6565D01*
Y6486D01*
X2431Y6467D01*
X2470D01*
X2490Y6486D01*
X2608Y6585D02*
X2529D01*
Y6526D01*
X2569Y6545D01*
X2589D01*
X2608Y6526D01*
Y6486D01*
X2589Y6467D01*
X2549D01*
X2529Y6486D01*
X2648Y6565D02*
X2667Y6585D01*
X2707D01*
X2726Y6565D01*
Y6545D01*
X2707Y6526D01*
X2687D01*
X2707D01*
X2726Y6506D01*
Y6486D01*
X2707Y6467D01*
X2667D01*
X2648Y6486D01*
X797Y6102D02*
X778Y6083D01*
Y6043D01*
X797Y6024D01*
X876D01*
X896Y6043D01*
Y6083D01*
X876Y6102D01*
X778Y6220D02*
Y6142D01*
X837D01*
X817Y6181D01*
Y6201D01*
X837Y6220D01*
X876D01*
X896Y6201D01*
Y6161D01*
X876Y6142D01*
X896Y6319D02*
X778D01*
X837Y6260D01*
Y6338D01*
X807Y5197D02*
X787Y5177D01*
Y5138D01*
X807Y5118D01*
X886D01*
X906Y5138D01*
Y5177D01*
X886Y5197D01*
X787Y5315D02*
Y5236D01*
X846D01*
X827Y5276D01*
Y5295D01*
X846Y5315D01*
X886D01*
X906Y5295D01*
Y5256D01*
X886Y5236D01*
X787Y5433D02*
Y5354D01*
X846D01*
X827Y5394D01*
Y5413D01*
X846Y5433D01*
X886D01*
X906Y5413D01*
Y5374D01*
X886Y5354D01*
X6368Y2667D02*
Y2766D01*
X6417D01*
X6434Y2749D01*
Y2717D01*
X6417Y2700D01*
X6368D01*
X6401D02*
X6434Y2667D01*
X6467D02*
X6499D01*
X6483D01*
Y2766D01*
X6467Y2749D01*
X6624Y3396D02*
Y3297D01*
X6575D01*
X6558Y3314D01*
Y3346D01*
X6575Y3363D01*
X6624D01*
X6591D02*
X6558Y3396D01*
X6460D02*
X6526D01*
X6460Y3330D01*
Y3314D01*
X6476Y3297D01*
X6509D01*
X6526Y3314D01*
X6595Y3819D02*
X6575Y3799D01*
Y3760D01*
X6595Y3740D01*
X6673D01*
X6693Y3760D01*
Y3799D01*
X6673Y3819D01*
X6693Y3858D02*
Y3898D01*
Y3878D01*
X6575D01*
X6595Y3858D01*
X6575Y4035D02*
Y3957D01*
X6634D01*
X6614Y3996D01*
Y4016D01*
X6634Y4035D01*
X6673D01*
X6693Y4016D01*
Y3976D01*
X6673Y3957D01*
X6201Y3396D02*
X6181Y3376D01*
Y3337D01*
X6201Y3317D01*
X6280D01*
X6299Y3337D01*
Y3376D01*
X6280Y3396D01*
X6299Y3435D02*
Y3474D01*
Y3455D01*
X6181D01*
X6201Y3435D01*
X6299Y3612D02*
Y3533D01*
X6220Y3612D01*
X6201D01*
X6181Y3592D01*
Y3553D01*
X6201Y3533D01*
X5413Y1634D02*
X5394Y1654D01*
X5354D01*
X5335Y1634D01*
Y1555D01*
X5354Y1535D01*
X5394D01*
X5413Y1555D01*
X5531Y1654D02*
X5453D01*
Y1594D01*
X5492Y1614D01*
X5512D01*
X5531Y1594D01*
Y1555D01*
X5512Y1535D01*
X5472D01*
X5453Y1555D01*
X787Y3848D02*
X768Y3829D01*
Y3789D01*
X787Y3770D01*
X866D01*
X886Y3789D01*
Y3829D01*
X866Y3848D01*
X787Y3888D02*
X768Y3907D01*
Y3947D01*
X787Y3966D01*
X807D01*
X827Y3947D01*
Y3927D01*
Y3947D01*
X846Y3966D01*
X866D01*
X886Y3947D01*
Y3907D01*
X866Y3888D01*
X797Y4321D02*
X778Y4301D01*
Y4262D01*
X797Y4242D01*
X876D01*
X896Y4262D01*
Y4301D01*
X876Y4321D01*
X778Y4439D02*
X797Y4400D01*
X837Y4360D01*
X876D01*
X896Y4380D01*
Y4419D01*
X876Y4439D01*
X856D01*
X837Y4419D01*
Y4360D01*
X2569Y1654D02*
X2549Y1673D01*
X2510D01*
X2490Y1654D01*
Y1575D01*
X2510Y1555D01*
X2549D01*
X2569Y1575D01*
X2687Y1673D02*
X2608D01*
Y1614D01*
X2648Y1634D01*
X2667D01*
X2687Y1614D01*
Y1575D01*
X2667Y1555D01*
X2628D01*
X2608Y1575D01*
X2726Y1654D02*
X2746Y1673D01*
X2785D01*
X2805Y1654D01*
Y1634D01*
X2785Y1614D01*
X2805Y1594D01*
Y1575D01*
X2785Y1555D01*
X2746D01*
X2726Y1575D01*
Y1594D01*
X2746Y1614D01*
X2726Y1634D01*
Y1654D01*
X2746Y1614D02*
X2785D01*
D51*
X1083Y3976D02*
X1476Y4239D01*
X1083D02*
X1476Y3976D01*
X1148Y4370D02*
X1083Y4436D01*
Y4567D01*
X1148Y4632D01*
X1214D01*
X1280Y4567D01*
Y4501D01*
Y4567D01*
X1345Y4632D01*
X1411D01*
X1476Y4567D01*
Y4436D01*
X1411Y4370D01*
X2451Y2608D02*
Y2280D01*
X2516Y2215D01*
X2648D01*
X2713Y2280D01*
Y2608D01*
X3107D02*
X2844D01*
Y2411D01*
X2976Y2477D01*
X3041D01*
X3107Y2411D01*
Y2280D01*
X3041Y2215D01*
X2910D01*
X2844Y2280D01*
D54*
X8033Y1316D02*
X7983D01*
X8008D01*
Y1191D01*
X7983Y1166D01*
X7958D01*
X7933Y1191D01*
X8083Y1166D02*
X8133D01*
X8108D01*
Y1316D01*
X8083Y1291D01*
X8208Y1166D02*
Y1191D01*
X8233D01*
Y1166D01*
X8208D01*
X8433D02*
X8333D01*
X8433Y1266D01*
Y1291D01*
X8408Y1316D01*
X8358D01*
X8333Y1291D01*
X8483D02*
X8508Y1316D01*
X8558D01*
X8583Y1291D01*
Y1191D01*
X8558Y1166D01*
X8508D01*
X8483Y1191D01*
Y1291D01*
X4872Y6112D02*
Y5784D01*
X4938Y5719D01*
X5069D01*
X5134Y5784D01*
Y6112D01*
X5528Y5719D02*
X5266D01*
X5528Y5981D01*
Y6046D01*
X5462Y6112D01*
X5331D01*
X5266Y6046D01*
X8043Y6823D02*
X7993D01*
X8018D01*
Y6698D01*
X7993Y6673D01*
X7968D01*
X7943Y6698D01*
X8093Y6673D02*
X8143D01*
X8118D01*
Y6823D01*
X8093Y6798D01*
X8218Y6673D02*
Y6698D01*
X8243D01*
Y6673D01*
X8218D01*
X8443D02*
X8343D01*
X8443Y6773D01*
Y6798D01*
X8418Y6823D01*
X8368D01*
X8343Y6798D01*
X8568Y6673D02*
Y6823D01*
X8493Y6748D01*
X8593D01*
X-927Y2106D02*
X-977D01*
X-952D01*
Y1981D01*
X-977Y1956D01*
X-1002D01*
X-1027Y1981D01*
X-877Y1956D02*
X-827D01*
X-852D01*
Y2106D01*
X-877Y2081D01*
X-752Y1956D02*
Y1981D01*
X-727D01*
Y1956D01*
X-752D01*
X-627D02*
X-577D01*
X-602D01*
Y2106D01*
X-627Y2081D01*
X-502D02*
X-477Y2106D01*
X-427D01*
X-402Y2081D01*
Y2056D01*
X-427Y2031D01*
X-452D01*
X-427D01*
X-402Y2006D01*
Y1981D01*
X-427Y1956D01*
X-477D01*
X-502Y1981D01*
X-927Y526D02*
X-977D01*
X-952D01*
Y401D01*
X-977Y376D01*
X-1002D01*
X-1027Y401D01*
X-877Y376D02*
X-827D01*
X-852D01*
Y526D01*
X-877Y501D01*
X-752Y376D02*
Y401D01*
X-727D01*
Y376D01*
X-752D01*
X-627D02*
X-577D01*
X-602D01*
Y526D01*
X-627Y501D01*
X-502Y526D02*
X-402D01*
Y501D01*
X-502Y401D01*
Y376D01*
X-927Y926D02*
X-977D01*
X-952D01*
Y801D01*
X-977Y776D01*
X-1002D01*
X-1027Y801D01*
X-877Y776D02*
X-827D01*
X-852D01*
Y926D01*
X-877Y901D01*
X-752Y776D02*
Y801D01*
X-727D01*
Y776D01*
X-752D01*
X-627D02*
X-577D01*
X-602D01*
Y926D01*
X-627Y901D01*
X-402Y926D02*
X-452Y901D01*
X-502Y851D01*
Y801D01*
X-477Y776D01*
X-427D01*
X-402Y801D01*
Y826D01*
X-427Y851D01*
X-502D01*
X8033Y5646D02*
X7983D01*
X8008D01*
Y5521D01*
X7983Y5496D01*
X7958D01*
X7933Y5521D01*
X8083Y5496D02*
X8133D01*
X8108D01*
Y5646D01*
X8083Y5621D01*
X8208Y5496D02*
Y5521D01*
X8233D01*
Y5496D01*
X8208D01*
X8333Y5621D02*
X8358Y5646D01*
X8408D01*
X8433Y5621D01*
Y5596D01*
X8408Y5571D01*
X8383D01*
X8408D01*
X8433Y5546D01*
Y5521D01*
X8408Y5496D01*
X8358D01*
X8333Y5521D01*
X8483Y5496D02*
X8533D01*
X8508D01*
Y5646D01*
X8483Y5621D01*
X8033Y5256D02*
X7983D01*
X8008D01*
Y5131D01*
X7983Y5106D01*
X7958D01*
X7933Y5131D01*
X8083Y5106D02*
X8133D01*
X8108D01*
Y5256D01*
X8083Y5231D01*
X8208Y5106D02*
Y5131D01*
X8233D01*
Y5106D01*
X8208D01*
X8333Y5231D02*
X8358Y5256D01*
X8408D01*
X8433Y5231D01*
Y5206D01*
X8408Y5181D01*
X8383D01*
X8408D01*
X8433Y5156D01*
Y5131D01*
X8408Y5106D01*
X8358D01*
X8333Y5131D01*
X8483Y5231D02*
X8508Y5256D01*
X8558D01*
X8583Y5231D01*
Y5131D01*
X8558Y5106D01*
X8508D01*
X8483Y5131D01*
Y5231D01*
X8033Y6436D02*
X7983D01*
X8008D01*
Y6311D01*
X7983Y6286D01*
X7958D01*
X7933Y6311D01*
X8083Y6286D02*
X8133D01*
X8108D01*
Y6436D01*
X8083Y6411D01*
X8208Y6286D02*
Y6311D01*
X8233D01*
Y6286D01*
X8208D01*
X8333Y6411D02*
X8358Y6436D01*
X8408D01*
X8433Y6411D01*
Y6386D01*
X8408Y6361D01*
X8383D01*
X8408D01*
X8433Y6336D01*
Y6311D01*
X8408Y6286D01*
X8358D01*
X8333Y6311D01*
X8483Y6411D02*
X8508Y6436D01*
X8558D01*
X8583Y6411D01*
Y6386D01*
X8558Y6361D01*
X8533D01*
X8558D01*
X8583Y6336D01*
Y6311D01*
X8558Y6286D01*
X8508D01*
X8483Y6311D01*
X-927Y2496D02*
X-977D01*
X-952D01*
Y2371D01*
X-977Y2346D01*
X-1002D01*
X-1027Y2371D01*
X-877Y2346D02*
X-827D01*
X-852D01*
Y2496D01*
X-877Y2471D01*
X-752Y2346D02*
Y2371D01*
X-727D01*
Y2346D01*
X-752D01*
X-627D02*
X-577D01*
X-602D01*
Y2496D01*
X-627Y2471D01*
X-402Y2346D02*
X-502D01*
X-402Y2446D01*
Y2471D01*
X-427Y2496D01*
X-477D01*
X-502Y2471D01*
X-747Y6826D02*
X-797D01*
X-772D01*
Y6701D01*
X-797Y6676D01*
X-822D01*
X-847Y6701D01*
X-697Y6676D02*
X-647D01*
X-672D01*
Y6826D01*
X-697Y6801D01*
X-572Y6676D02*
Y6701D01*
X-547D01*
Y6676D01*
X-572D01*
X-447D02*
X-397D01*
X-422D01*
Y6826D01*
X-447Y6801D01*
X-877Y2886D02*
X-927D01*
X-902D01*
Y2761D01*
X-927Y2736D01*
X-952D01*
X-977Y2761D01*
X-827Y2736D02*
X-777D01*
X-802D01*
Y2886D01*
X-827Y2861D01*
X-702Y2736D02*
Y2761D01*
X-677D01*
Y2736D01*
X-702D01*
X-577D02*
X-527D01*
X-552D01*
Y2886D01*
X-577Y2861D01*
X-452Y2736D02*
X-402D01*
X-427D01*
Y2886D01*
X-452Y2861D01*
X-797Y3676D02*
X-847D01*
X-822D01*
Y3551D01*
X-847Y3526D01*
X-872D01*
X-897Y3551D01*
X-747Y3526D02*
X-697D01*
X-722D01*
Y3676D01*
X-747Y3651D01*
X-622Y3526D02*
Y3551D01*
X-597D01*
Y3526D01*
X-622D01*
X-497Y3551D02*
X-472Y3526D01*
X-422D01*
X-397Y3551D01*
Y3651D01*
X-422Y3676D01*
X-472D01*
X-497Y3651D01*
Y3626D01*
X-472Y3601D01*
X-397D01*
X-927Y3286D02*
X-977D01*
X-952D01*
Y3161D01*
X-977Y3136D01*
X-1002D01*
X-1027Y3161D01*
X-877Y3136D02*
X-827D01*
X-852D01*
Y3286D01*
X-877Y3261D01*
X-752Y3136D02*
Y3161D01*
X-727D01*
Y3136D01*
X-752D01*
X-627D02*
X-577D01*
X-602D01*
Y3286D01*
X-627Y3261D01*
X-502D02*
X-477Y3286D01*
X-427D01*
X-402Y3261D01*
Y3161D01*
X-427Y3136D01*
X-477D01*
X-502Y3161D01*
Y3261D01*
X-797Y4066D02*
X-847D01*
X-822D01*
Y3941D01*
X-847Y3916D01*
X-872D01*
X-897Y3941D01*
X-747Y3916D02*
X-697D01*
X-722D01*
Y4066D01*
X-747Y4041D01*
X-622Y3916D02*
Y3941D01*
X-597D01*
Y3916D01*
X-622D01*
X-497Y4041D02*
X-472Y4066D01*
X-422D01*
X-397Y4041D01*
Y4016D01*
X-422Y3991D01*
X-397Y3966D01*
Y3941D01*
X-422Y3916D01*
X-472D01*
X-497Y3941D01*
Y3966D01*
X-472Y3991D01*
X-497Y4016D01*
Y4041D01*
X-472Y3991D02*
X-422D01*
X8033Y2886D02*
X7983D01*
X8008D01*
Y2761D01*
X7983Y2736D01*
X7958D01*
X7933Y2761D01*
X8083Y2736D02*
X8133D01*
X8108D01*
Y2886D01*
X8083Y2861D01*
X8208Y2736D02*
Y2761D01*
X8233D01*
Y2736D01*
X8208D01*
X8333Y2861D02*
X8358Y2886D01*
X8408D01*
X8433Y2861D01*
Y2836D01*
X8408Y2811D01*
X8383D01*
X8408D01*
X8433Y2786D01*
Y2761D01*
X8408Y2736D01*
X8358D01*
X8333Y2761D01*
X8558Y2736D02*
Y2886D01*
X8483Y2811D01*
X8583D01*
X8033Y2496D02*
X7983D01*
X8008D01*
Y2371D01*
X7983Y2346D01*
X7958D01*
X7933Y2371D01*
X8083Y2346D02*
X8133D01*
X8108D01*
Y2496D01*
X8083Y2471D01*
X8208Y2346D02*
Y2371D01*
X8233D01*
Y2346D01*
X8208D01*
X8433D02*
X8333D01*
X8433Y2446D01*
Y2471D01*
X8408Y2496D01*
X8358D01*
X8333Y2471D01*
X8483D02*
X8508Y2496D01*
X8558D01*
X8583Y2471D01*
Y2446D01*
X8558Y2421D01*
X8533D01*
X8558D01*
X8583Y2396D01*
Y2371D01*
X8558Y2346D01*
X8508D01*
X8483Y2371D01*
X-797Y4466D02*
X-847D01*
X-822D01*
Y4341D01*
X-847Y4316D01*
X-872D01*
X-897Y4341D01*
X-747Y4316D02*
X-697D01*
X-722D01*
Y4466D01*
X-747Y4441D01*
X-622Y4316D02*
Y4341D01*
X-597D01*
Y4316D01*
X-622D01*
X-497Y4466D02*
X-397D01*
Y4441D01*
X-497Y4341D01*
Y4316D01*
X-797Y4856D02*
X-847D01*
X-822D01*
Y4731D01*
X-847Y4706D01*
X-872D01*
X-897Y4731D01*
X-747Y4706D02*
X-697D01*
X-722D01*
Y4856D01*
X-747Y4831D01*
X-622Y4706D02*
Y4731D01*
X-597D01*
Y4706D01*
X-622D01*
X-397Y4856D02*
X-447Y4831D01*
X-497Y4781D01*
Y4731D01*
X-472Y4706D01*
X-422D01*
X-397Y4731D01*
Y4756D01*
X-422Y4781D01*
X-497D01*
X8033Y6036D02*
X7983D01*
X8008D01*
Y5911D01*
X7983Y5886D01*
X7958D01*
X7933Y5911D01*
X8083Y5886D02*
X8133D01*
X8108D01*
Y6036D01*
X8083Y6011D01*
X8208Y5886D02*
Y5911D01*
X8233D01*
Y5886D01*
X8208D01*
X8333Y6011D02*
X8358Y6036D01*
X8408D01*
X8433Y6011D01*
Y5986D01*
X8408Y5961D01*
X8383D01*
X8408D01*
X8433Y5936D01*
Y5911D01*
X8408Y5886D01*
X8358D01*
X8333Y5911D01*
X8583Y5886D02*
X8483D01*
X8583Y5986D01*
Y6011D01*
X8558Y6036D01*
X8508D01*
X8483Y6011D01*
X8033Y4856D02*
X7983D01*
X8008D01*
Y4731D01*
X7983Y4706D01*
X7958D01*
X7933Y4731D01*
X8083Y4706D02*
X8133D01*
X8108D01*
Y4856D01*
X8083Y4831D01*
X8208Y4706D02*
Y4731D01*
X8233D01*
Y4706D01*
X8208D01*
X8433D02*
X8333D01*
X8433Y4806D01*
Y4831D01*
X8408Y4856D01*
X8358D01*
X8333Y4831D01*
X8483Y4731D02*
X8508Y4706D01*
X8558D01*
X8583Y4731D01*
Y4831D01*
X8558Y4856D01*
X8508D01*
X8483Y4831D01*
Y4806D01*
X8508Y4781D01*
X8583D01*
X8033Y4466D02*
X7983D01*
X8008D01*
Y4341D01*
X7983Y4316D01*
X7958D01*
X7933Y4341D01*
X8083Y4316D02*
X8133D01*
X8108D01*
Y4466D01*
X8083Y4441D01*
X8208Y4316D02*
Y4341D01*
X8233D01*
Y4316D01*
X8208D01*
X8433D02*
X8333D01*
X8433Y4416D01*
Y4441D01*
X8408Y4466D01*
X8358D01*
X8333Y4441D01*
X8483D02*
X8508Y4466D01*
X8558D01*
X8583Y4441D01*
Y4416D01*
X8558Y4391D01*
X8583Y4366D01*
Y4341D01*
X8558Y4316D01*
X8508D01*
X8483Y4341D01*
Y4366D01*
X8508Y4391D01*
X8483Y4416D01*
Y4441D01*
X8508Y4391D02*
X8558D01*
X8033Y4066D02*
X7983D01*
X8008D01*
Y3941D01*
X7983Y3916D01*
X7958D01*
X7933Y3941D01*
X8083Y3916D02*
X8133D01*
X8108D01*
Y4066D01*
X8083Y4041D01*
X8208Y3916D02*
Y3941D01*
X8233D01*
Y3916D01*
X8208D01*
X8433D02*
X8333D01*
X8433Y4016D01*
Y4041D01*
X8408Y4066D01*
X8358D01*
X8333Y4041D01*
X8483Y4066D02*
X8583D01*
Y4041D01*
X8483Y3941D01*
Y3916D01*
X8033Y3676D02*
X7983D01*
X8008D01*
Y3551D01*
X7983Y3526D01*
X7958D01*
X7933Y3551D01*
X8083Y3526D02*
X8133D01*
X8108D01*
Y3676D01*
X8083Y3651D01*
X8208Y3526D02*
Y3551D01*
X8233D01*
Y3526D01*
X8208D01*
X8433D02*
X8333D01*
X8433Y3626D01*
Y3651D01*
X8408Y3676D01*
X8358D01*
X8333Y3651D01*
X8583Y3676D02*
X8533Y3651D01*
X8483Y3601D01*
Y3551D01*
X8508Y3526D01*
X8558D01*
X8583Y3551D01*
Y3576D01*
X8558Y3601D01*
X8483D01*
X8033Y3286D02*
X7983D01*
X8008D01*
Y3161D01*
X7983Y3136D01*
X7958D01*
X7933Y3161D01*
X8083Y3136D02*
X8133D01*
X8108D01*
Y3286D01*
X8083Y3261D01*
X8208Y3136D02*
Y3161D01*
X8233D01*
Y3136D01*
X8208D01*
X8433D02*
X8333D01*
X8433Y3236D01*
Y3261D01*
X8408Y3286D01*
X8358D01*
X8333Y3261D01*
X8583Y3286D02*
X8483D01*
Y3211D01*
X8533Y3236D01*
X8558D01*
X8583Y3211D01*
Y3161D01*
X8558Y3136D01*
X8508D01*
X8483Y3161D01*
X-797Y6036D02*
X-847D01*
X-822D01*
Y5911D01*
X-847Y5886D01*
X-872D01*
X-897Y5911D01*
X-747Y5886D02*
X-697D01*
X-722D01*
Y6036D01*
X-747Y6011D01*
X-622Y5886D02*
Y5911D01*
X-597D01*
Y5886D01*
X-622D01*
X-497Y6011D02*
X-472Y6036D01*
X-422D01*
X-397Y6011D01*
Y5986D01*
X-422Y5961D01*
X-447D01*
X-422D01*
X-397Y5936D01*
Y5911D01*
X-422Y5886D01*
X-472D01*
X-497Y5911D01*
X-797Y6436D02*
X-847D01*
X-822D01*
Y6311D01*
X-847Y6286D01*
X-872D01*
X-897Y6311D01*
X-747Y6286D02*
X-697D01*
X-722D01*
Y6436D01*
X-747Y6411D01*
X-622Y6286D02*
Y6311D01*
X-597D01*
Y6286D01*
X-622D01*
X-397D02*
X-497D01*
X-397Y6386D01*
Y6411D01*
X-422Y6436D01*
X-472D01*
X-497Y6411D01*
X-797Y5256D02*
X-847D01*
X-822D01*
Y5131D01*
X-847Y5106D01*
X-872D01*
X-897Y5131D01*
X-747Y5106D02*
X-697D01*
X-722D01*
Y5256D01*
X-747Y5231D01*
X-622Y5106D02*
Y5131D01*
X-597D01*
Y5106D01*
X-622D01*
X-397Y5256D02*
X-497D01*
Y5181D01*
X-447Y5206D01*
X-422D01*
X-397Y5181D01*
Y5131D01*
X-422Y5106D01*
X-472D01*
X-497Y5131D01*
X-797Y5646D02*
X-847D01*
X-822D01*
Y5521D01*
X-847Y5496D01*
X-872D01*
X-897Y5521D01*
X-747Y5496D02*
X-697D01*
X-722D01*
Y5646D01*
X-747Y5621D01*
X-622Y5496D02*
Y5521D01*
X-597D01*
Y5496D01*
X-622D01*
X-422D02*
Y5646D01*
X-497Y5571D01*
X-397D01*
X-927Y1316D02*
X-977D01*
X-952D01*
Y1191D01*
X-977Y1166D01*
X-1002D01*
X-1027Y1191D01*
X-877Y1166D02*
X-827D01*
X-852D01*
Y1316D01*
X-877Y1291D01*
X-752Y1166D02*
Y1191D01*
X-727D01*
Y1166D01*
X-752D01*
X-627D02*
X-577D01*
X-602D01*
Y1316D01*
X-627Y1291D01*
X-402Y1316D02*
X-502D01*
Y1241D01*
X-452Y1266D01*
X-427D01*
X-402Y1241D01*
Y1191D01*
X-427Y1166D01*
X-477D01*
X-502Y1191D01*
X-927Y1706D02*
X-977D01*
X-952D01*
Y1581D01*
X-977Y1556D01*
X-1002D01*
X-1027Y1581D01*
X-877Y1556D02*
X-827D01*
X-852D01*
Y1706D01*
X-877Y1681D01*
X-752Y1556D02*
Y1581D01*
X-727D01*
Y1556D01*
X-752D01*
X-627D02*
X-577D01*
X-602D01*
Y1706D01*
X-627Y1681D01*
X-427Y1556D02*
Y1706D01*
X-502Y1631D01*
X-402D01*
X8033Y2106D02*
X7983D01*
X8008D01*
Y1981D01*
X7983Y1956D01*
X7958D01*
X7933Y1981D01*
X8083Y1956D02*
X8133D01*
X8108D01*
Y2106D01*
X8083Y2081D01*
X8208Y1956D02*
Y1981D01*
X8233D01*
Y1956D01*
X8208D01*
X8433D02*
X8333D01*
X8433Y2056D01*
Y2081D01*
X8408Y2106D01*
X8358D01*
X8333Y2081D01*
X8583Y1956D02*
X8483D01*
X8583Y2056D01*
Y2081D01*
X8558Y2106D01*
X8508D01*
X8483Y2081D01*
X8033Y1706D02*
X7983D01*
X8008D01*
Y1581D01*
X7983Y1556D01*
X7958D01*
X7933Y1581D01*
X8083Y1556D02*
X8133D01*
X8108D01*
Y1706D01*
X8083Y1681D01*
X8208Y1556D02*
Y1581D01*
X8233D01*
Y1556D01*
X8208D01*
X8433D02*
X8333D01*
X8433Y1656D01*
Y1681D01*
X8408Y1706D01*
X8358D01*
X8333Y1681D01*
X8483Y1556D02*
X8533D01*
X8508D01*
Y1706D01*
X8483Y1681D01*
X8033Y526D02*
X7983D01*
X8008D01*
Y401D01*
X7983Y376D01*
X7958D01*
X7933Y401D01*
X8083Y376D02*
X8133D01*
X8108D01*
Y526D01*
X8083Y501D01*
X8208Y376D02*
Y401D01*
X8233D01*
Y376D01*
X8208D01*
X8333D02*
X8383D01*
X8358D01*
Y526D01*
X8333Y501D01*
X8458D02*
X8483Y526D01*
X8533D01*
X8558Y501D01*
Y476D01*
X8533Y451D01*
X8558Y426D01*
Y401D01*
X8533Y376D01*
X8483D01*
X8458Y401D01*
Y426D01*
X8483Y451D01*
X8458Y476D01*
Y501D01*
X8483Y451D02*
X8533D01*
X8033Y926D02*
X7983D01*
X8008D01*
Y801D01*
X7983Y776D01*
X7958D01*
X7933Y801D01*
X8083Y776D02*
X8133D01*
X8108D01*
Y926D01*
X8083Y901D01*
X8208Y776D02*
Y801D01*
X8233D01*
Y776D01*
X8208D01*
X8333D02*
X8383D01*
X8358D01*
Y926D01*
X8333Y901D01*
X8458Y801D02*
X8483Y776D01*
X8533D01*
X8558Y801D01*
Y901D01*
X8533Y926D01*
X8483D01*
X8458Y901D01*
Y876D01*
X8483Y851D01*
X8558D01*
D55*
X2411Y6142D02*
X2490D01*
Y6194D01*
X2477Y6220D02*
X2490Y6234D01*
Y6260D01*
X2477Y6273D01*
X2425D01*
X2411Y6260D01*
Y6234D01*
X2425Y6220D01*
X2438D01*
X2451Y6234D01*
Y6273D01*
X2215Y3612D02*
Y3284D01*
X2280Y3219D01*
X2411D01*
X2477Y3284D01*
Y3612D01*
X2805Y3219D02*
Y3612D01*
X2608Y3415D01*
X2871D01*
M02*
