G04*
G04 #@! TF.GenerationSoftware,Altium Limited,Altium Designer,20.1.11 (218)*
G04*
G04 Layer_Color=32768*
%FSLAX24Y24*%
%MOIN*%
G70*
G04*
G04 #@! TF.SameCoordinates,7569E6A7-8CFD-4CD3-8ECF-ECC1E6588891*
G04*
G04*
G04 #@! TF.FilePolarity,Positive*
G04*
G01*
G75*
%ADD13C,0.0200*%
%ADD84C,0.0118*%
%ADD289C,0.1000*%
%ADD290C,0.1000*%
D13*
X108975Y39467D02*
Y40467D01*
X109475D01*
X109642Y40301D01*
Y39967D01*
X109475Y39801D01*
X108975D01*
X109308D02*
X109642Y39467D01*
X110475Y40467D02*
X110141D01*
X109975Y40301D01*
Y39634D01*
X110141Y39467D01*
X110475D01*
X110641Y39634D01*
Y40301D01*
X110475Y40467D01*
X110975D02*
Y39634D01*
X111141Y39467D01*
X111474D01*
X111641Y39634D01*
Y40467D01*
X111974D02*
X112641D01*
X112307D01*
Y39467D01*
X113640Y40467D02*
X112974D01*
Y39467D01*
X113640D01*
X112974Y39967D02*
X113307D01*
X114973Y40467D02*
X115640D01*
X115306D01*
Y39467D01*
X116473Y40467D02*
X116140D01*
X115973Y40301D01*
Y39634D01*
X116140Y39467D01*
X116473D01*
X116639Y39634D01*
Y40301D01*
X116473Y40467D01*
X117472D02*
X117139D01*
X116973Y40301D01*
Y39634D01*
X117139Y39467D01*
X117472D01*
X117639Y39634D01*
Y40301D01*
X117472Y40467D01*
X117972D02*
Y39467D01*
X118639D01*
X119972D02*
Y40467D01*
X120471D01*
X120638Y40301D01*
Y39967D01*
X120471Y39801D01*
X119972D01*
X120971Y39467D02*
Y40134D01*
X121305Y40467D01*
X121638Y40134D01*
Y39467D01*
Y39967D01*
X120971D01*
X121971Y40467D02*
X122637D01*
X122304D01*
Y39467D01*
X122971Y40467D02*
Y39467D01*
Y39967D01*
X123637D01*
Y40467D01*
Y39467D01*
D84*
X36172Y3481D02*
X36434D01*
X36303D01*
Y4268D01*
X36172Y4137D01*
X36828D02*
X36959Y4268D01*
X37222D01*
X37353Y4137D01*
Y3612D01*
X37222Y3481D01*
X36959D01*
X36828Y3612D01*
Y4137D01*
X37615D02*
X37746Y4268D01*
X38009D01*
X38140Y4137D01*
Y3612D01*
X38009Y3481D01*
X37746D01*
X37615Y3612D01*
Y4137D01*
X39190Y3481D02*
Y4268D01*
X39452Y4006D01*
X39714Y4268D01*
Y3481D01*
X39977Y4268D02*
X40239D01*
X40108D01*
Y3481D01*
X39977D01*
X40239D01*
X40633Y4268D02*
Y3481D01*
X41157D01*
X36434Y2253D02*
Y3040D01*
X36828D01*
X36959Y2909D01*
Y2647D01*
X36828Y2515D01*
X36434D01*
X36697D02*
X36959Y2253D01*
X37615Y3040D02*
X37353D01*
X37222Y2909D01*
Y2384D01*
X37353Y2253D01*
X37615D01*
X37746Y2384D01*
Y2909D01*
X37615Y3040D01*
X38009D02*
Y2384D01*
X38140Y2253D01*
X38402D01*
X38534Y2384D01*
Y3040D01*
X38796D02*
X39321D01*
X39058D01*
Y2253D01*
X40108Y3040D02*
X39583D01*
Y2253D01*
X40108D01*
X39583Y2647D02*
X39845D01*
X40370Y2253D02*
Y3040D01*
X40764D01*
X40895Y2909D01*
Y2647D01*
X40764Y2515D01*
X40370D01*
X40633D02*
X40895Y2253D01*
X-41615Y2792D02*
X-41353D01*
X-41484D01*
Y3579D01*
X-41615Y3448D01*
X-40960D02*
X-40828Y3579D01*
X-40566D01*
X-40435Y3448D01*
Y2923D01*
X-40566Y2792D01*
X-40828D01*
X-40960Y2923D01*
Y3448D01*
X-40172D02*
X-40041Y3579D01*
X-39779D01*
X-39648Y3448D01*
Y2923D01*
X-39779Y2792D01*
X-40041D01*
X-40172Y2923D01*
Y3448D01*
X-38598Y2792D02*
Y3579D01*
X-38336Y3317D01*
X-38073Y3579D01*
Y2792D01*
X-37811Y3579D02*
X-37549D01*
X-37680D01*
Y2792D01*
X-37811D01*
X-37549D01*
X-37155Y3579D02*
Y2792D01*
X-36630D01*
X-41353Y1564D02*
Y2351D01*
X-40960D01*
X-40828Y2220D01*
Y1958D01*
X-40960Y1826D01*
X-41353D01*
X-41091D02*
X-40828Y1564D01*
X-40172Y2351D02*
X-40435D01*
X-40566Y2220D01*
Y1695D01*
X-40435Y1564D01*
X-40172D01*
X-40041Y1695D01*
Y2220D01*
X-40172Y2351D01*
X-39779D02*
Y1695D01*
X-39648Y1564D01*
X-39385D01*
X-39254Y1695D01*
Y2351D01*
X-38992D02*
X-38467D01*
X-38729D01*
Y1564D01*
X-37680Y2351D02*
X-38205D01*
Y1564D01*
X-37680D01*
X-38205Y1958D02*
X-37942D01*
X-37417Y1564D02*
Y2351D01*
X-37024D01*
X-36893Y2220D01*
Y1958D01*
X-37024Y1826D01*
X-37417D01*
X-37155D02*
X-36893Y1564D01*
X-41122Y40338D02*
X-40860D01*
X-40991D01*
Y41125D01*
X-41122Y40994D01*
X-40466D02*
X-40335Y41125D01*
X-40073D01*
X-39942Y40994D01*
Y40469D01*
X-40073Y40338D01*
X-40335D01*
X-40466Y40469D01*
Y40994D01*
X-39679D02*
X-39548Y41125D01*
X-39286D01*
X-39155Y40994D01*
Y40469D01*
X-39286Y40338D01*
X-39548D01*
X-39679Y40469D01*
Y40994D01*
X-38105Y40338D02*
Y41125D01*
X-37843Y40863D01*
X-37580Y41125D01*
Y40338D01*
X-37318Y41125D02*
X-37055D01*
X-37187D01*
Y40338D01*
X-37318D01*
X-37055D01*
X-36662Y41125D02*
Y40338D01*
X-36137D01*
X-40860Y39110D02*
Y39897D01*
X-40466D01*
X-40335Y39766D01*
Y39504D01*
X-40466Y39372D01*
X-40860D01*
X-40598D02*
X-40335Y39110D01*
X-39679Y39897D02*
X-39942D01*
X-40073Y39766D01*
Y39241D01*
X-39942Y39110D01*
X-39679D01*
X-39548Y39241D01*
Y39766D01*
X-39679Y39897D01*
X-39286D02*
Y39241D01*
X-39155Y39110D01*
X-38892D01*
X-38761Y39241D01*
Y39897D01*
X-38499D02*
X-37974D01*
X-38236D01*
Y39110D01*
X-37187Y39897D02*
X-37711D01*
Y39110D01*
X-37187D01*
X-37711Y39504D02*
X-37449D01*
X-36924Y39110D02*
Y39897D01*
X-36531D01*
X-36399Y39766D01*
Y39504D01*
X-36531Y39372D01*
X-36924D01*
X-36662D02*
X-36399Y39110D01*
X36043Y40313D02*
X36305D01*
X36174D01*
Y41100D01*
X36043Y40969D01*
X36699D02*
X36830Y41100D01*
X37092D01*
X37224Y40969D01*
Y40444D01*
X37092Y40313D01*
X36830D01*
X36699Y40444D01*
Y40969D01*
X37486D02*
X37617Y41100D01*
X37880D01*
X38011Y40969D01*
Y40444D01*
X37880Y40313D01*
X37617D01*
X37486Y40444D01*
Y40969D01*
X39060Y40313D02*
Y41100D01*
X39323Y40838D01*
X39585Y41100D01*
Y40313D01*
X39847Y41100D02*
X40110D01*
X39979D01*
Y40313D01*
X39847D01*
X40110D01*
X40503Y41100D02*
Y40313D01*
X41028D01*
X36305Y39085D02*
Y39872D01*
X36699D01*
X36830Y39741D01*
Y39479D01*
X36699Y39347D01*
X36305D01*
X36568D02*
X36830Y39085D01*
X37486Y39872D02*
X37224D01*
X37092Y39741D01*
Y39216D01*
X37224Y39085D01*
X37486D01*
X37617Y39216D01*
Y39741D01*
X37486Y39872D01*
X37880D02*
Y39216D01*
X38011Y39085D01*
X38273D01*
X38404Y39216D01*
Y39872D01*
X38667D02*
X39191D01*
X38929D01*
Y39085D01*
X39979Y39872D02*
X39454D01*
Y39085D01*
X39979D01*
X39454Y39479D02*
X39716D01*
X40241Y39085D02*
Y39872D01*
X40635D01*
X40766Y39741D01*
Y39479D01*
X40635Y39347D01*
X40241D01*
X40503D02*
X40766Y39085D01*
D289*
X-4750Y-5000D02*
X4750D01*
X0Y41667D02*
G03*
X-1230Y42953I-1287J0D01*
G01*
X-0Y41662D02*
G03*
X0Y41667I-500J5D01*
G01*
X-0Y41662D02*
G03*
X0Y41667I-500J5D01*
G01*
X-1230Y42953D02*
G03*
X-1287Y42957I-58J-497D01*
G01*
X-0Y784D02*
G03*
X-0Y787I-500J3D01*
G01*
X-0D02*
G03*
X-0Y789I-1287J2D01*
G01*
X-0Y784D02*
G03*
X-0Y787I-1287J5D01*
G01*
X-1230Y-497D02*
G03*
X-0Y784I-58J1286D01*
G01*
D02*
G03*
X-0Y787I-500J3D01*
G01*
X-1287Y-500D02*
G03*
X-1230Y-497I0J500D01*
G01*
X-1230Y42953D02*
G03*
X-1287Y42957I-58J-497D01*
G01*
X-27272D02*
G03*
X-28559Y41669I0J-1287D01*
G01*
X-27300Y-499D02*
G03*
X-27272Y-500I28J499D01*
G01*
X-1287D02*
G03*
X-1230Y-497I0J500D01*
G01*
X-27300Y-499D02*
G03*
X-27272Y-500I28J499D01*
G01*
X-28558Y788D02*
G03*
X-27300Y-499I1287J0D01*
G01*
X-18238Y42957D02*
X-10263Y42956D01*
X-0Y787D02*
Y789D01*
X-0Y41662D02*
X-0Y789D01*
Y789D02*
Y789D01*
Y787D02*
Y789D01*
X-28559Y41669D02*
X-28558Y788D01*
Y788D02*
Y788D01*
Y788D02*
Y788D01*
X28559Y41667D02*
G03*
X27329Y42953I-1287J0D01*
G01*
X28559Y41662D02*
G03*
X28559Y41667I-500J5D01*
G01*
X28559Y41662D02*
G03*
X28559Y41667I-500J5D01*
G01*
X27329Y42953D02*
G03*
X27272Y42957I-58J-497D01*
G01*
X28559Y784D02*
G03*
X28559Y787I-500J3D01*
G01*
X28559D02*
G03*
X28559Y789I-1287J2D01*
G01*
X28559Y784D02*
G03*
X28559Y787I-1287J5D01*
G01*
X27329Y-497D02*
G03*
X28559Y784I-58J1286D01*
G01*
D02*
G03*
X28559Y787I-500J3D01*
G01*
X27272Y-500D02*
G03*
X27329Y-497I0J500D01*
G01*
X27329Y42953D02*
G03*
X27272Y42957I-58J-497D01*
G01*
X1287D02*
G03*
X-0Y41669I0J-1287D01*
G01*
X1259Y-499D02*
G03*
X1287Y-500I28J499D01*
G01*
X27272D02*
G03*
X27329Y-497I0J500D01*
G01*
X1259Y-499D02*
G03*
X1287Y-500I28J499D01*
G01*
X2Y788D02*
G03*
X1259Y-499I1287J0D01*
G01*
X10321Y42957D02*
X18296Y42956D01*
X28559Y787D02*
Y789D01*
X28559Y41662D02*
X28559Y789D01*
Y789D02*
Y789D01*
Y787D02*
Y789D01*
X-0Y41669D02*
X2Y788D01*
Y788D02*
Y788D01*
Y788D02*
Y788D01*
D290*
X-28559Y41669D02*
D03*
D03*
X-28558Y788D02*
D03*
Y788D02*
D03*
X-0Y41669D02*
D03*
D03*
X2Y788D02*
D03*
Y788D02*
D03*
M02*
