G04*
G04 #@! TF.GenerationSoftware,Altium Limited,Altium Designer,20.1.11 (218)*
G04*
G04 Layer_Color=128*
%FSLAX24Y24*%
%MOIN*%
G70*
G04*
G04 #@! TF.SameCoordinates,7569E6A7-8CFD-4CD3-8ECF-ECC1E6588891*
G04*
G04*
G04 #@! TF.FilePolarity,Positive*
G04*
G01*
G75*
%ADD13C,0.0200*%
G04:AMPARAMS|DCode=22|XSize=20mil|YSize=20mil|CornerRadius=6mil|HoleSize=0mil|Usage=FLASHONLY|Rotation=90.000|XOffset=0mil|YOffset=0mil|HoleType=Round|Shape=RoundedRectangle|*
%AMROUNDEDRECTD22*
21,1,0.0200,0.0080,0,0,90.0*
21,1,0.0080,0.0200,0,0,90.0*
1,1,0.0120,0.0040,0.0040*
1,1,0.0120,0.0040,-0.0040*
1,1,0.0120,-0.0040,-0.0040*
1,1,0.0120,-0.0040,0.0040*
%
%ADD22ROUNDEDRECTD22*%
G04:AMPARAMS|DCode=27|XSize=20mil|YSize=20mil|CornerRadius=6mil|HoleSize=0mil|Usage=FLASHONLY|Rotation=180.000|XOffset=0mil|YOffset=0mil|HoleType=Round|Shape=RoundedRectangle|*
%AMROUNDEDRECTD27*
21,1,0.0200,0.0080,0,0,180.0*
21,1,0.0080,0.0200,0,0,180.0*
1,1,0.0120,-0.0040,0.0040*
1,1,0.0120,0.0040,0.0040*
1,1,0.0120,0.0040,-0.0040*
1,1,0.0120,-0.0040,-0.0040*
%
%ADD27ROUNDEDRECTD27*%
%ADD143C,0.0050*%
G04:AMPARAMS|DCode=283|XSize=76.8mil|YSize=33.5mil|CornerRadius=2.6mil|HoleSize=0mil|Usage=FLASHONLY|Rotation=270.000|XOffset=0mil|YOffset=0mil|HoleType=Round|Shape=RoundedRectangle|*
%AMROUNDEDRECTD283*
21,1,0.0768,0.0283,0,0,270.0*
21,1,0.0717,0.0335,0,0,270.0*
1,1,0.0051,-0.0142,-0.0358*
1,1,0.0051,-0.0142,0.0358*
1,1,0.0051,0.0142,0.0358*
1,1,0.0051,0.0142,-0.0358*
%
%ADD283ROUNDEDRECTD283*%
G04:AMPARAMS|DCode=284|XSize=76.8mil|YSize=33.5mil|CornerRadius=2.6mil|HoleSize=0mil|Usage=FLASHONLY|Rotation=0.000|XOffset=0mil|YOffset=0mil|HoleType=Round|Shape=RoundedRectangle|*
%AMROUNDEDRECTD284*
21,1,0.0768,0.0283,0,0,0.0*
21,1,0.0717,0.0335,0,0,0.0*
1,1,0.0051,0.0358,-0.0142*
1,1,0.0051,-0.0358,-0.0142*
1,1,0.0051,-0.0358,0.0142*
1,1,0.0051,0.0358,0.0142*
%
%ADD284ROUNDEDRECTD284*%
G04:AMPARAMS|DCode=285|XSize=33.5mil|YSize=76.8mil|CornerRadius=2.6mil|HoleSize=0mil|Usage=FLASHONLY|Rotation=0.000|XOffset=0mil|YOffset=0mil|HoleType=Round|Shape=RoundedRectangle|*
%AMROUNDEDRECTD285*
21,1,0.0335,0.0717,0,0,0.0*
21,1,0.0283,0.0768,0,0,0.0*
1,1,0.0051,0.0142,-0.0358*
1,1,0.0051,-0.0142,-0.0358*
1,1,0.0051,-0.0142,0.0358*
1,1,0.0051,0.0142,0.0358*
%
%ADD285ROUNDEDRECTD285*%
G04:AMPARAMS|DCode=286|XSize=50.4mil|YSize=50.4mil|CornerRadius=0mil|HoleSize=0mil|Usage=FLASHONLY|Rotation=270.000|XOffset=0mil|YOffset=0mil|HoleType=Round|Shape=RoundedRectangle|*
%AMROUNDEDRECTD286*
21,1,0.0504,0.0504,0,0,270.0*
21,1,0.0504,0.0504,0,0,270.0*
1,1,0.0000,-0.0252,-0.0252*
1,1,0.0000,-0.0252,0.0252*
1,1,0.0000,0.0252,0.0252*
1,1,0.0000,0.0252,-0.0252*
%
%ADD286ROUNDEDRECTD286*%
G04:AMPARAMS|DCode=287|XSize=68.9mil|YSize=37.4mil|CornerRadius=3mil|HoleSize=0mil|Usage=FLASHONLY|Rotation=270.000|XOffset=0mil|YOffset=0mil|HoleType=Round|Shape=RoundedRectangle|*
%AMROUNDEDRECTD287*
21,1,0.0689,0.0315,0,0,270.0*
21,1,0.0630,0.0374,0,0,270.0*
1,1,0.0059,-0.0157,-0.0315*
1,1,0.0059,-0.0157,0.0315*
1,1,0.0059,0.0157,0.0315*
1,1,0.0059,0.0157,-0.0315*
%
%ADD287ROUNDEDRECTD287*%
G36*
X-28861Y-2497D02*
X-28881D01*
X-28919Y-2505D01*
X-28955Y-2520D01*
X-28987Y-2541D01*
X-29014Y-2569D01*
X-29036Y-2601D01*
X-29051Y-2637D01*
X-29058Y-2675D01*
Y-2694D01*
Y-2714D01*
X-29051Y-2752D01*
X-29036Y-2787D01*
X-29014Y-2820D01*
X-28987Y-2847D01*
X-28955Y-2869D01*
X-28919Y-2883D01*
X-28881Y-2891D01*
X-28861D01*
X-28842D01*
X-28804Y-2883D01*
X-28768Y-2869D01*
X-28736Y-2847D01*
X-28708Y-2820D01*
X-28687Y-2787D01*
X-28672Y-2752D01*
X-28665Y-2714D01*
Y-2694D01*
Y-2675D01*
X-28672Y-2637D01*
X-28687Y-2601D01*
X-28708Y-2569D01*
X-28736Y-2541D01*
X-28768Y-2520D01*
X-28804Y-2505D01*
X-28842Y-2497D01*
X-28861D01*
D01*
D02*
G37*
G36*
X31955D02*
X31936D01*
X31898Y-2505D01*
X31862Y-2520D01*
X31829Y-2541D01*
X31802Y-2569D01*
X31780Y-2601D01*
X31766Y-2637D01*
X31758Y-2675D01*
Y-2694D01*
Y-2714D01*
X31766Y-2752D01*
X31780Y-2787D01*
X31802Y-2820D01*
X31829Y-2847D01*
X31862Y-2869D01*
X31898Y-2883D01*
X31936Y-2891D01*
X31955D01*
X31974D01*
X32012Y-2883D01*
X32048Y-2869D01*
X32080Y-2847D01*
X32108Y-2820D01*
X32129Y-2787D01*
X32144Y-2752D01*
X32152Y-2714D01*
Y-2694D01*
Y-2675D01*
X32144Y-2637D01*
X32129Y-2601D01*
X32108Y-2569D01*
X32080Y-2541D01*
X32048Y-2520D01*
X32012Y-2505D01*
X31974Y-2497D01*
X31955D01*
D01*
D02*
G37*
G36*
X32012Y45963D02*
X31992D01*
X31954Y45955D01*
X31918Y45940D01*
X31886Y45919D01*
X31859Y45891D01*
X31837Y45859D01*
X31822Y45823D01*
X31815Y45785D01*
Y45766D01*
Y45746D01*
X31822Y45708D01*
X31837Y45673D01*
X31859Y45640D01*
X31886Y45613D01*
X31918Y45591D01*
X31954Y45577D01*
X31992Y45569D01*
X32012D01*
X32031D01*
X32069Y45577D01*
X32105Y45591D01*
X32137Y45613D01*
X32164Y45640D01*
X32186Y45673D01*
X32201Y45708D01*
X32208Y45746D01*
Y45766D01*
Y45785D01*
X32201Y45823D01*
X32186Y45859D01*
X32164Y45891D01*
X32137Y45919D01*
X32105Y45940D01*
X32069Y45955D01*
X32031Y45963D01*
X32012D01*
D01*
D02*
G37*
D13*
X108975Y26801D02*
Y25801D01*
X109475D01*
X109642Y25968D01*
Y26135D01*
X109475Y26301D01*
X108975D01*
X109475D01*
X109642Y26468D01*
Y26635D01*
X109475Y26801D01*
X108975D01*
X110475D02*
X110141D01*
X109975Y26635D01*
Y25968D01*
X110141Y25801D01*
X110475D01*
X110641Y25968D01*
Y26635D01*
X110475Y26801D01*
X110975D02*
X111641D01*
X111308D01*
Y25801D01*
X111974Y26801D02*
X112641D01*
X112307D01*
Y25801D01*
X113474Y26801D02*
X113140D01*
X112974Y26635D01*
Y25968D01*
X113140Y25801D01*
X113474D01*
X113640Y25968D01*
Y26635D01*
X113474Y26801D01*
X113974Y25801D02*
Y26801D01*
X114307Y26468D01*
X114640Y26801D01*
Y25801D01*
X115973D02*
Y26801D01*
X116473D01*
X116639Y26635D01*
Y26301D01*
X116473Y26135D01*
X115973D01*
X116973Y25801D02*
Y26468D01*
X117306Y26801D01*
X117639Y26468D01*
Y25801D01*
Y26301D01*
X116973D01*
X118639Y26635D02*
X118472Y26801D01*
X118139D01*
X117972Y26635D01*
Y26468D01*
X118139Y26301D01*
X118472D01*
X118639Y26135D01*
Y25968D01*
X118472Y25801D01*
X118139D01*
X117972Y25968D01*
X118972Y26801D02*
X119638D01*
X119305D01*
Y25801D01*
X120638Y26801D02*
X119972D01*
Y25801D01*
X120638D01*
X119972Y26301D02*
X120305D01*
X120971Y25801D02*
Y26801D01*
X121305Y26468D01*
X121638Y26801D01*
Y25801D01*
X121971D02*
Y26468D01*
X122304Y26801D01*
X122637Y26468D01*
Y25801D01*
Y26301D01*
X121971D01*
X123637Y26635D02*
X123470Y26801D01*
X123137D01*
X122971Y26635D01*
Y26468D01*
X123137Y26301D01*
X123470D01*
X123637Y26135D01*
Y25968D01*
X123470Y25801D01*
X123137D01*
X122971Y25968D01*
X123970Y26801D02*
Y25801D01*
Y26135D01*
X124637Y26801D01*
X124137Y26301D01*
X124637Y25801D01*
D22*
X-15103Y14932D02*
D03*
X-15453D02*
D03*
X-14732Y16255D02*
D03*
X-15082D02*
D03*
X-15814D02*
D03*
X-15464D02*
D03*
X-18593Y18811D02*
D03*
X-18243D02*
D03*
X13456Y14932D02*
D03*
X13106D02*
D03*
X13827Y16255D02*
D03*
X13477D02*
D03*
X12745D02*
D03*
X13095D02*
D03*
X9966Y18811D02*
D03*
X10316D02*
D03*
D27*
X-16669Y16417D02*
D03*
Y16067D02*
D03*
X-17171Y16406D02*
D03*
Y16056D02*
D03*
X-17624Y16406D02*
D03*
Y16056D02*
D03*
X11890Y16417D02*
D03*
Y16067D02*
D03*
X11388Y16406D02*
D03*
Y16056D02*
D03*
X10935Y16406D02*
D03*
Y16056D02*
D03*
D143*
X-29401Y-2644D02*
X-29181Y-2734D01*
X-29391Y-2864D02*
X-29181Y-2734D01*
X-30031Y-2804D02*
X-29181Y-2734D01*
X31472Y45816D02*
X31692Y45726D01*
X31482Y45596D02*
X31692Y45726D01*
X30842Y45656D02*
X31692Y45726D01*
X31415Y-2644D02*
X31635Y-2734D01*
X31425Y-2864D02*
X31635Y-2734D01*
X30785Y-2804D02*
X31635Y-2734D01*
X-30936Y-2234D02*
X-30886Y-2184D01*
X-30786D01*
X-30736Y-2234D01*
Y-2284D01*
X-30786Y-2334D01*
X-30886D01*
X-30936Y-2384D01*
Y-2434D01*
X-30886Y-2484D01*
X-30786D01*
X-30736Y-2434D01*
X-31036Y-2184D02*
X-31236D01*
X-31136D01*
Y-2484D01*
X-31536Y-2184D02*
X-31336D01*
Y-2484D01*
X-31536D01*
X-31336Y-2334D02*
X-31436D01*
X-31636Y-2484D02*
Y-2184D01*
X-31836Y-2484D01*
Y-2184D01*
X-32136Y-2234D02*
X-32086Y-2184D01*
X-31986D01*
X-31936Y-2234D01*
Y-2434D01*
X-31986Y-2484D01*
X-32086D01*
X-32136Y-2434D01*
X-32236Y-2184D02*
X-32336D01*
X-32286D01*
Y-2484D01*
X-32236D01*
X-32336D01*
X-32486Y-2184D02*
Y-2484D01*
X-32686D01*
X-30811Y-2664D02*
X-30611D01*
Y-2814D01*
X-30711D01*
X-30611D01*
Y-2964D01*
X-30911Y-2664D02*
X-31011D01*
X-30961D01*
Y-2964D01*
X-30911D01*
X-31011D01*
X-31161Y-2664D02*
Y-2964D01*
X-31311D01*
X-31361Y-2914D01*
Y-2714D01*
X-31311Y-2664D01*
X-31161D01*
X-31461D02*
Y-2914D01*
X-31511Y-2964D01*
X-31611D01*
X-31661Y-2914D01*
Y-2664D01*
X-31961Y-2714D02*
X-31911Y-2664D01*
X-31811D01*
X-31761Y-2714D01*
Y-2914D01*
X-31811Y-2964D01*
X-31911D01*
X-31961Y-2914D01*
X-32061Y-2664D02*
X-32161D01*
X-32111D01*
Y-2964D01*
X-32061D01*
X-32161D01*
X-32311D02*
Y-2764D01*
X-32411Y-2664D01*
X-32511Y-2764D01*
Y-2964D01*
Y-2814D01*
X-32311D01*
X-32611Y-2664D02*
Y-2964D01*
X-32811D01*
X-30111Y-3144D02*
Y-3444D01*
Y-3294D01*
X-30311D01*
Y-3144D01*
Y-3444D01*
X-30411D02*
Y-3244D01*
X-30511Y-3144D01*
X-30611Y-3244D01*
Y-3444D01*
Y-3294D01*
X-30411D01*
X-30711Y-3144D02*
Y-3444D01*
X-30911D01*
X-31211Y-3144D02*
X-31011D01*
Y-3294D01*
X-31111D01*
X-31011D01*
Y-3444D01*
X-31311Y-3294D02*
X-31511D01*
X-31811Y-3144D02*
X-31611D01*
Y-3444D01*
X-31811D01*
X-31611Y-3294D02*
X-31711D01*
X-31911Y-3144D02*
X-32111D01*
X-32011D01*
Y-3444D01*
X-32411Y-3194D02*
X-32361Y-3144D01*
X-32261D01*
X-32211Y-3194D01*
Y-3394D01*
X-32261Y-3444D01*
X-32361D01*
X-32411Y-3394D01*
X-32511Y-3144D02*
Y-3444D01*
Y-3294D01*
X-32711D01*
Y-3144D01*
Y-3444D01*
X-33010Y-3144D02*
X-32811D01*
Y-3444D01*
X-33010D01*
X-32811Y-3294D02*
X-32910D01*
X-33110Y-3144D02*
Y-3444D01*
X-33260D01*
X-33310Y-3394D01*
Y-3194D01*
X-33260Y-3144D01*
X-33110D01*
X29880Y-2234D02*
X29930Y-2184D01*
X30030D01*
X30080Y-2234D01*
Y-2284D01*
X30030Y-2334D01*
X29930D01*
X29880Y-2384D01*
Y-2434D01*
X29930Y-2484D01*
X30030D01*
X30080Y-2434D01*
X29780Y-2184D02*
X29580D01*
X29680D01*
Y-2484D01*
X29280Y-2184D02*
X29480D01*
Y-2484D01*
X29280D01*
X29480Y-2334D02*
X29380D01*
X29180Y-2484D02*
Y-2184D01*
X28980Y-2484D01*
Y-2184D01*
X28681Y-2234D02*
X28731Y-2184D01*
X28831D01*
X28881Y-2234D01*
Y-2434D01*
X28831Y-2484D01*
X28731D01*
X28681Y-2434D01*
X28581Y-2184D02*
X28481D01*
X28531D01*
Y-2484D01*
X28581D01*
X28481D01*
X28331Y-2184D02*
Y-2484D01*
X28131D01*
X30005Y-2664D02*
X30205D01*
Y-2814D01*
X30105D01*
X30205D01*
Y-2964D01*
X29905Y-2664D02*
X29805D01*
X29855D01*
Y-2964D01*
X29905D01*
X29805D01*
X29655Y-2664D02*
Y-2964D01*
X29505D01*
X29455Y-2914D01*
Y-2714D01*
X29505Y-2664D01*
X29655D01*
X29355D02*
Y-2914D01*
X29305Y-2964D01*
X29205D01*
X29155Y-2914D01*
Y-2664D01*
X28856Y-2714D02*
X28906Y-2664D01*
X29005D01*
X29055Y-2714D01*
Y-2914D01*
X29005Y-2964D01*
X28906D01*
X28856Y-2914D01*
X28756Y-2664D02*
X28656D01*
X28706D01*
Y-2964D01*
X28756D01*
X28656D01*
X28506D02*
Y-2764D01*
X28406Y-2664D01*
X28306Y-2764D01*
Y-2964D01*
Y-2814D01*
X28506D01*
X28206Y-2664D02*
Y-2964D01*
X28006D01*
X30705Y-3144D02*
Y-3444D01*
Y-3294D01*
X30505D01*
Y-3144D01*
Y-3444D01*
X30405D02*
Y-3244D01*
X30305Y-3144D01*
X30205Y-3244D01*
Y-3444D01*
Y-3294D01*
X30405D01*
X30105Y-3144D02*
Y-3444D01*
X29905D01*
X29605Y-3144D02*
X29805D01*
Y-3294D01*
X29705D01*
X29805D01*
Y-3444D01*
X29505Y-3294D02*
X29305D01*
X29005Y-3144D02*
X29205D01*
Y-3444D01*
X29005D01*
X29205Y-3294D02*
X29105D01*
X28906Y-3144D02*
X28706D01*
X28806D01*
Y-3444D01*
X28406Y-3194D02*
X28456Y-3144D01*
X28556D01*
X28606Y-3194D01*
Y-3394D01*
X28556Y-3444D01*
X28456D01*
X28406Y-3394D01*
X28306Y-3144D02*
Y-3444D01*
Y-3294D01*
X28106D01*
Y-3144D01*
Y-3444D01*
X27806Y-3144D02*
X28006D01*
Y-3444D01*
X27806D01*
X28006Y-3294D02*
X27906D01*
X27706Y-3144D02*
Y-3444D01*
X27556D01*
X27506Y-3394D01*
Y-3194D01*
X27556Y-3144D01*
X27706D01*
X29937Y46226D02*
X29987Y46276D01*
X30087D01*
X30137Y46226D01*
Y46176D01*
X30087Y46126D01*
X29987D01*
X29937Y46076D01*
Y46026D01*
X29987Y45976D01*
X30087D01*
X30137Y46026D01*
X29837Y46276D02*
X29637D01*
X29737D01*
Y45976D01*
X29337Y46276D02*
X29537D01*
Y45976D01*
X29337D01*
X29537Y46126D02*
X29437D01*
X29237Y45976D02*
Y46276D01*
X29037Y45976D01*
Y46276D01*
X28737Y46226D02*
X28787Y46276D01*
X28887D01*
X28937Y46226D01*
Y46026D01*
X28887Y45976D01*
X28787D01*
X28737Y46026D01*
X28637Y46276D02*
X28537D01*
X28587D01*
Y45976D01*
X28637D01*
X28537D01*
X28387Y46276D02*
Y45976D01*
X28187D01*
X30062Y45796D02*
X30262D01*
Y45646D01*
X30162D01*
X30262D01*
Y45496D01*
X29962Y45796D02*
X29862D01*
X29912D01*
Y45496D01*
X29962D01*
X29862D01*
X29712Y45796D02*
Y45496D01*
X29562D01*
X29512Y45546D01*
Y45746D01*
X29562Y45796D01*
X29712D01*
X29412D02*
Y45546D01*
X29362Y45496D01*
X29262D01*
X29212Y45546D01*
Y45796D01*
X28912Y45746D02*
X28962Y45796D01*
X29062D01*
X29112Y45746D01*
Y45546D01*
X29062Y45496D01*
X28962D01*
X28912Y45546D01*
X28812Y45796D02*
X28712D01*
X28762D01*
Y45496D01*
X28812D01*
X28712D01*
X28562D02*
Y45696D01*
X28462Y45796D01*
X28362Y45696D01*
Y45496D01*
Y45646D01*
X28562D01*
X28262Y45796D02*
Y45496D01*
X28062D01*
X30762Y45316D02*
Y45016D01*
Y45166D01*
X30562D01*
Y45316D01*
Y45016D01*
X30462D02*
Y45216D01*
X30362Y45316D01*
X30262Y45216D01*
Y45016D01*
Y45166D01*
X30462D01*
X30162Y45316D02*
Y45016D01*
X29962D01*
X29662Y45316D02*
X29862D01*
Y45166D01*
X29762D01*
X29862D01*
Y45016D01*
X29562Y45166D02*
X29362D01*
X29062Y45316D02*
X29262D01*
Y45016D01*
X29062D01*
X29262Y45166D02*
X29162D01*
X28962Y45316D02*
X28762D01*
X28862D01*
Y45016D01*
X28462Y45266D02*
X28512Y45316D01*
X28612D01*
X28662Y45266D01*
Y45066D01*
X28612Y45016D01*
X28512D01*
X28462Y45066D01*
X28362Y45316D02*
Y45016D01*
Y45166D01*
X28162D01*
Y45316D01*
Y45016D01*
X27862Y45316D02*
X28062D01*
Y45016D01*
X27862D01*
X28062Y45166D02*
X27962D01*
X27763Y45316D02*
Y45016D01*
X27613D01*
X27563Y45066D01*
Y45266D01*
X27613Y45316D01*
X27763D01*
D283*
X-10688Y23861D02*
D03*
X-11188D02*
D03*
X-11688D02*
D03*
X-12188D02*
D03*
X-12688D02*
D03*
X-13188D02*
D03*
X-13688D02*
D03*
X-14188D02*
D03*
X-14688D02*
D03*
X-15188D02*
D03*
X-15688D02*
D03*
X-16188D02*
D03*
X-16688D02*
D03*
X-17188D02*
D03*
Y17168D02*
D03*
X-16688D02*
D03*
X-16188D02*
D03*
X-15688D02*
D03*
X-15188D02*
D03*
X-14688D02*
D03*
X-14188D02*
D03*
X-13688D02*
D03*
X-13188D02*
D03*
X-12688D02*
D03*
X-12188D02*
D03*
X-11688D02*
D03*
X-11188D02*
D03*
X17871Y23861D02*
D03*
X17371D02*
D03*
X16871D02*
D03*
X16371D02*
D03*
X15871D02*
D03*
X15371D02*
D03*
X14871D02*
D03*
X14371D02*
D03*
X13871D02*
D03*
X13371D02*
D03*
X12871D02*
D03*
X12371D02*
D03*
X11871D02*
D03*
X11371D02*
D03*
Y17168D02*
D03*
X11871D02*
D03*
X12371D02*
D03*
X12871D02*
D03*
X13371D02*
D03*
X13871D02*
D03*
X14371D02*
D03*
X14871D02*
D03*
X15371D02*
D03*
X15871D02*
D03*
X16371D02*
D03*
X16871D02*
D03*
X17371D02*
D03*
D284*
X-17582Y18265D02*
D03*
Y19765D02*
D03*
Y20765D02*
D03*
Y22265D02*
D03*
Y19265D02*
D03*
Y18765D02*
D03*
Y20265D02*
D03*
Y21765D02*
D03*
Y22765D02*
D03*
Y21265D02*
D03*
X10977Y18265D02*
D03*
Y19765D02*
D03*
Y20765D02*
D03*
Y22265D02*
D03*
Y19265D02*
D03*
Y18765D02*
D03*
Y20265D02*
D03*
Y21765D02*
D03*
Y22765D02*
D03*
Y21265D02*
D03*
D285*
X-10688Y17168D02*
D03*
X17871D02*
D03*
D286*
X-13641Y19398D02*
D03*
Y20843D02*
D03*
X-12918D02*
D03*
X-13641Y20121D02*
D03*
X-14363Y20843D02*
D03*
Y20121D02*
D03*
Y19398D02*
D03*
X-12918Y20121D02*
D03*
Y19398D02*
D03*
X14918D02*
D03*
Y20843D02*
D03*
X15641D02*
D03*
X14918Y20121D02*
D03*
X14196Y20843D02*
D03*
Y20121D02*
D03*
Y19398D02*
D03*
X15641Y20121D02*
D03*
Y19398D02*
D03*
D287*
X-14785Y15594D02*
D03*
X-15769D02*
D03*
X13774D02*
D03*
X12790D02*
D03*
M02*
