G04*
G04 #@! TF.GenerationSoftware,Altium Limited,Altium Designer,20.1.11 (218)*
G04*
G04 Layer_Color=128*
%FSLAX24Y24*%
%MOIN*%
G70*
G04*
G04 #@! TF.SameCoordinates,4F03ECE6-B82A-4DAD-B74B-52B5A60C741D*
G04*
G04*
G04 #@! TF.FilePolarity,Positive*
G04*
G01*
G75*
%ADD11C,0.0200*%
G04:AMPARAMS|DCode=66|XSize=35mil|YSize=34mil|CornerRadius=6mil|HoleSize=0mil|Usage=FLASHONLY|Rotation=90.000|XOffset=0mil|YOffset=0mil|HoleType=Round|Shape=RoundedRectangle|*
%AMROUNDEDRECTD66*
21,1,0.0350,0.0221,0,0,90.0*
21,1,0.0231,0.0340,0,0,90.0*
1,1,0.0119,0.0111,0.0116*
1,1,0.0119,0.0111,-0.0116*
1,1,0.0119,-0.0111,-0.0116*
1,1,0.0119,-0.0111,0.0116*
%
%ADD66ROUNDEDRECTD66*%
G04:AMPARAMS|DCode=68|XSize=35mil|YSize=34mil|CornerRadius=6mil|HoleSize=0mil|Usage=FLASHONLY|Rotation=180.000|XOffset=0mil|YOffset=0mil|HoleType=Round|Shape=RoundedRectangle|*
%AMROUNDEDRECTD68*
21,1,0.0350,0.0221,0,0,180.0*
21,1,0.0231,0.0340,0,0,180.0*
1,1,0.0119,-0.0116,0.0111*
1,1,0.0119,0.0116,0.0111*
1,1,0.0119,0.0116,-0.0111*
1,1,0.0119,-0.0116,-0.0111*
%
%ADD68ROUNDEDRECTD68*%
%ADD89C,0.0050*%
G36*
X9161Y4729D02*
X9141D01*
X9103Y4722D01*
X9067Y4707D01*
X9035Y4685D01*
X9008Y4658D01*
X8986Y4626D01*
X8971Y4590D01*
X8964Y4552D01*
Y4533D01*
Y4513D01*
X8971Y4475D01*
X8986Y4439D01*
X9008Y4407D01*
X9035Y4380D01*
X9067Y4358D01*
X9103Y4343D01*
X9141Y4336D01*
X9161D01*
X9180D01*
X9218Y4343D01*
X9254Y4358D01*
X9286Y4380D01*
X9314Y4407D01*
X9335Y4439D01*
X9350Y4475D01*
X9358Y4513D01*
Y4533D01*
Y4552D01*
X9350Y4590D01*
X9335Y4626D01*
X9314Y4658D01*
X9286Y4685D01*
X9254Y4707D01*
X9218Y4722D01*
X9180Y4729D01*
X9161D01*
D01*
D02*
G37*
G36*
X44195Y7922D02*
X44175D01*
X44137Y7914D01*
X44101Y7899D01*
X44069Y7878D01*
X44042Y7850D01*
X44020Y7818D01*
X44005Y7782D01*
X43998Y7744D01*
Y7725D01*
Y7706D01*
X44005Y7668D01*
X44020Y7632D01*
X44042Y7599D01*
X44069Y7572D01*
X44101Y7551D01*
X44137Y7536D01*
X44175Y7528D01*
X44195D01*
X44214D01*
X44252Y7536D01*
X44288Y7551D01*
X44320Y7572D01*
X44347Y7599D01*
X44369Y7632D01*
X44384Y7668D01*
X44391Y7706D01*
Y7725D01*
Y7744D01*
X44384Y7782D01*
X44369Y7818D01*
X44347Y7850D01*
X44320Y7878D01*
X44288Y7899D01*
X44252Y7914D01*
X44214Y7922D01*
X44195D01*
D01*
D02*
G37*
G36*
X24303Y56025D02*
X24284D01*
X24246Y56018D01*
X24210Y56003D01*
X24178Y55982D01*
X24150Y55954D01*
X24129Y55922D01*
X24114Y55886D01*
X24106Y55848D01*
Y55829D01*
Y55809D01*
X24114Y55771D01*
X24129Y55735D01*
X24150Y55703D01*
X24178Y55676D01*
X24210Y55654D01*
X24246Y55639D01*
X24284Y55632D01*
X24303D01*
X24323D01*
X24361Y55639D01*
X24397Y55654D01*
X24429Y55676D01*
X24456Y55703D01*
X24478Y55735D01*
X24493Y55771D01*
X24500Y55809D01*
Y55829D01*
Y55848D01*
X24493Y55886D01*
X24478Y55922D01*
X24456Y55954D01*
X24429Y55982D01*
X24397Y56003D01*
X24361Y56018D01*
X24323Y56025D01*
X24303D01*
D01*
D02*
G37*
G36*
X90899Y4156D02*
X90880D01*
X90842Y4148D01*
X90806Y4134D01*
X90774Y4112D01*
X90746Y4085D01*
X90725Y4052D01*
X90710Y4017D01*
X90702Y3979D01*
Y3959D01*
Y3940D01*
X90710Y3902D01*
X90725Y3866D01*
X90746Y3834D01*
X90774Y3806D01*
X90806Y3785D01*
X90842Y3770D01*
X90880Y3762D01*
X90899D01*
X90919D01*
X90957Y3770D01*
X90992Y3785D01*
X91025Y3806D01*
X91052Y3834D01*
X91074Y3866D01*
X91088Y3902D01*
X91096Y3940D01*
Y3959D01*
Y3979D01*
X91088Y4017D01*
X91074Y4052D01*
X91052Y4085D01*
X91025Y4112D01*
X90992Y4134D01*
X90957Y4148D01*
X90919Y4156D01*
X90899D01*
D01*
D02*
G37*
G36*
X61966Y33520D02*
X61946D01*
X61908Y33512D01*
X61872Y33497D01*
X61840Y33476D01*
X61813Y33448D01*
X61791Y33416D01*
X61776Y33380D01*
X61769Y33342D01*
Y33323D01*
Y33303D01*
X61776Y33265D01*
X61791Y33230D01*
X61813Y33197D01*
X61840Y33170D01*
X61872Y33148D01*
X61908Y33134D01*
X61946Y33126D01*
X61966D01*
X61985D01*
X62023Y33134D01*
X62059Y33148D01*
X62091Y33170D01*
X62119Y33197D01*
X62140Y33230D01*
X62155Y33265D01*
X62163Y33303D01*
Y33323D01*
Y33342D01*
X62155Y33380D01*
X62140Y33416D01*
X62119Y33448D01*
X62091Y33476D01*
X62059Y33497D01*
X62023Y33512D01*
X61985Y33520D01*
X61966D01*
D01*
D02*
G37*
G36*
X101367Y57910D02*
X101348D01*
X101310Y57902D01*
X101274Y57888D01*
X101242Y57866D01*
X101214Y57839D01*
X101193Y57806D01*
X101178Y57771D01*
X101170Y57733D01*
Y57713D01*
Y57694D01*
X101178Y57656D01*
X101193Y57620D01*
X101214Y57588D01*
X101242Y57560D01*
X101274Y57539D01*
X101310Y57524D01*
X101348Y57516D01*
X101367D01*
X101386D01*
X101424Y57524D01*
X101460Y57539D01*
X101492Y57560D01*
X101520Y57588D01*
X101541Y57620D01*
X101556Y57656D01*
X101564Y57694D01*
Y57713D01*
Y57733D01*
X101556Y57771D01*
X101541Y57806D01*
X101520Y57839D01*
X101492Y57866D01*
X101460Y57888D01*
X101424Y57902D01*
X101386Y57910D01*
X101367D01*
D01*
D02*
G37*
D11*
X167525Y15340D02*
Y14340D01*
X168025D01*
X168191Y14507D01*
Y14673D01*
X168025Y14840D01*
X167525D01*
X168025D01*
X168191Y15007D01*
Y15173D01*
X168025Y15340D01*
X167525D01*
X169024D02*
X168691D01*
X168525Y15173D01*
Y14507D01*
X168691Y14340D01*
X169024D01*
X169191Y14507D01*
Y15173D01*
X169024Y15340D01*
X169524D02*
X170191D01*
X169857D01*
Y14340D01*
X170524Y15340D02*
X171190D01*
X170857D01*
Y14340D01*
X172023Y15340D02*
X171690D01*
X171524Y15173D01*
Y14507D01*
X171690Y14340D01*
X172023D01*
X172190Y14507D01*
Y15173D01*
X172023Y15340D01*
X172523Y14340D02*
Y15340D01*
X172856Y15007D01*
X173190Y15340D01*
Y14340D01*
X174523D02*
Y15340D01*
X175022D01*
X175189Y15173D01*
Y14840D01*
X175022Y14673D01*
X174523D01*
X175522Y14340D02*
Y15007D01*
X175855Y15340D01*
X176189Y15007D01*
Y14340D01*
Y14840D01*
X175522D01*
X177188Y15173D02*
X177022Y15340D01*
X176689D01*
X176522Y15173D01*
Y15007D01*
X176689Y14840D01*
X177022D01*
X177188Y14673D01*
Y14507D01*
X177022Y14340D01*
X176689D01*
X176522Y14507D01*
X177522Y15340D02*
X178188D01*
X177855D01*
Y14340D01*
X179188Y15340D02*
X178521D01*
Y14340D01*
X179188D01*
X178521Y14840D02*
X178855D01*
X179521Y14340D02*
Y15340D01*
X179854Y15007D01*
X180187Y15340D01*
Y14340D01*
X180521D02*
Y15007D01*
X180854Y15340D01*
X181187Y15007D01*
Y14340D01*
Y14840D01*
X180521D01*
X182187Y15173D02*
X182020Y15340D01*
X181687D01*
X181520Y15173D01*
Y15007D01*
X181687Y14840D01*
X182020D01*
X182187Y14673D01*
Y14507D01*
X182020Y14340D01*
X181687D01*
X181520Y14507D01*
X182520Y15340D02*
Y14340D01*
Y14673D01*
X183186Y15340D01*
X182687Y14840D01*
X183186Y14340D01*
D66*
X94820Y28274D02*
D03*
Y28864D02*
D03*
X69229Y28273D02*
D03*
Y28863D02*
D03*
Y54696D02*
D03*
Y55286D02*
D03*
D68*
X42028Y52690D02*
D03*
X42618D02*
D03*
X9350D02*
D03*
X8760D02*
D03*
X11024D02*
D03*
X11614D02*
D03*
X40157D02*
D03*
X39567D02*
D03*
X32480D02*
D03*
X31890D02*
D03*
X18701D02*
D03*
X19291D02*
D03*
D89*
X60796Y33213D02*
X61646Y33283D01*
X61436Y33153D02*
X61646Y33283D01*
X61426Y33373D02*
X61646Y33283D01*
X89729Y3849D02*
X90579Y3919D01*
X90369Y3789D02*
X90579Y3919D01*
X90359Y4009D02*
X90579Y3919D01*
X100197Y57603D02*
X101047Y57673D01*
X100837Y57543D02*
X101047Y57673D01*
X100827Y57763D02*
X101047Y57673D01*
X43025Y7615D02*
X43875Y7685D01*
X43665Y7555D02*
X43875Y7685D01*
X43655Y7775D02*
X43875Y7685D01*
X23133Y55719D02*
X23983Y55789D01*
X23773Y55659D02*
X23983Y55789D01*
X23763Y55879D02*
X23983Y55789D01*
X7991Y4423D02*
X8841Y4493D01*
X8631Y4363D02*
X8841Y4493D01*
X8621Y4583D02*
X8841Y4493D01*
X99292Y58173D02*
X99342Y58223D01*
X99442D01*
X99492Y58173D01*
Y58123D01*
X99442Y58073D01*
X99342D01*
X99292Y58023D01*
Y57973D01*
X99342Y57923D01*
X99442D01*
X99492Y57973D01*
X99192Y58223D02*
X98992D01*
X99092D01*
Y57923D01*
X98692Y58223D02*
X98892D01*
Y57923D01*
X98692D01*
X98892Y58073D02*
X98792D01*
X98593Y57923D02*
Y58223D01*
X98393Y57923D01*
Y58223D01*
X98093Y58173D02*
X98143Y58223D01*
X98243D01*
X98293Y58173D01*
Y57973D01*
X98243Y57923D01*
X98143D01*
X98093Y57973D01*
X97993Y58223D02*
X97893D01*
X97943D01*
Y57923D01*
X97993D01*
X97893D01*
X97743Y58223D02*
Y57923D01*
X97543D01*
X99417Y57743D02*
X99617D01*
Y57593D01*
X99517D01*
X99617D01*
Y57443D01*
X99317Y57743D02*
X99217D01*
X99267D01*
Y57443D01*
X99317D01*
X99217D01*
X99067Y57743D02*
Y57443D01*
X98917D01*
X98867Y57493D01*
Y57693D01*
X98917Y57743D01*
X99067D01*
X98767D02*
Y57493D01*
X98717Y57443D01*
X98617D01*
X98568Y57493D01*
Y57743D01*
X98268Y57693D02*
X98318Y57743D01*
X98418D01*
X98468Y57693D01*
Y57493D01*
X98418Y57443D01*
X98318D01*
X98268Y57493D01*
X98168Y57743D02*
X98068D01*
X98118D01*
Y57443D01*
X98168D01*
X98068D01*
X97918D02*
Y57643D01*
X97818Y57743D01*
X97718Y57643D01*
Y57443D01*
Y57593D01*
X97918D01*
X97618Y57743D02*
Y57443D01*
X97418D01*
X100117Y57263D02*
Y56963D01*
Y57113D01*
X99917D01*
Y57263D01*
Y56963D01*
X99817D02*
Y57163D01*
X99717Y57263D01*
X99617Y57163D01*
Y56963D01*
Y57113D01*
X99817D01*
X99517Y57263D02*
Y56963D01*
X99317D01*
X99017Y57263D02*
X99217D01*
Y57113D01*
X99117D01*
X99217D01*
Y56963D01*
X98917Y57113D02*
X98717D01*
X98418Y57263D02*
X98617D01*
Y56963D01*
X98418D01*
X98617Y57113D02*
X98518D01*
X98318Y57263D02*
X98118D01*
X98218D01*
Y56963D01*
X97818Y57213D02*
X97868Y57263D01*
X97968D01*
X98018Y57213D01*
Y57013D01*
X97968Y56963D01*
X97868D01*
X97818Y57013D01*
X97718Y57263D02*
Y56963D01*
Y57113D01*
X97518D01*
Y57263D01*
Y56963D01*
X97218Y57263D02*
X97418D01*
Y56963D01*
X97218D01*
X97418Y57113D02*
X97318D01*
X97118Y57263D02*
Y56963D01*
X96968D01*
X96918Y57013D01*
Y57213D01*
X96968Y57263D01*
X97118D01*
X59891Y33782D02*
X59941Y33832D01*
X60041D01*
X60091Y33782D01*
Y33733D01*
X60041Y33683D01*
X59941D01*
X59891Y33633D01*
Y33583D01*
X59941Y33533D01*
X60041D01*
X60091Y33583D01*
X59791Y33832D02*
X59591D01*
X59691D01*
Y33533D01*
X59291Y33832D02*
X59491D01*
Y33533D01*
X59291D01*
X59491Y33683D02*
X59391D01*
X59191Y33533D02*
Y33832D01*
X58991Y33533D01*
Y33832D01*
X58691Y33782D02*
X58741Y33832D01*
X58841D01*
X58891Y33782D01*
Y33583D01*
X58841Y33533D01*
X58741D01*
X58691Y33583D01*
X58591Y33832D02*
X58491D01*
X58541D01*
Y33533D01*
X58591D01*
X58491D01*
X58341Y33832D02*
Y33533D01*
X58142D01*
X60016Y33353D02*
X60216D01*
Y33203D01*
X60116D01*
X60216D01*
Y33053D01*
X59916Y33353D02*
X59816D01*
X59866D01*
Y33053D01*
X59916D01*
X59816D01*
X59666Y33353D02*
Y33053D01*
X59516D01*
X59466Y33103D01*
Y33303D01*
X59516Y33353D01*
X59666D01*
X59366D02*
Y33103D01*
X59316Y33053D01*
X59216D01*
X59166Y33103D01*
Y33353D01*
X58866Y33303D02*
X58916Y33353D01*
X59016D01*
X59066Y33303D01*
Y33103D01*
X59016Y33053D01*
X58916D01*
X58866Y33103D01*
X58766Y33353D02*
X58666D01*
X58716D01*
Y33053D01*
X58766D01*
X58666D01*
X58516D02*
Y33253D01*
X58416Y33353D01*
X58316Y33253D01*
Y33053D01*
Y33203D01*
X58516D01*
X58217Y33353D02*
Y33053D01*
X58017D01*
X60716Y32873D02*
Y32573D01*
Y32723D01*
X60516D01*
Y32873D01*
Y32573D01*
X60416D02*
Y32773D01*
X60316Y32873D01*
X60216Y32773D01*
Y32573D01*
Y32723D01*
X60416D01*
X60116Y32873D02*
Y32573D01*
X59916D01*
X59616Y32873D02*
X59816D01*
Y32723D01*
X59716D01*
X59816D01*
Y32573D01*
X59516Y32723D02*
X59316D01*
X59016Y32873D02*
X59216D01*
Y32573D01*
X59016D01*
X59216Y32723D02*
X59116D01*
X58916Y32873D02*
X58716D01*
X58816D01*
Y32573D01*
X58416Y32823D02*
X58466Y32873D01*
X58566D01*
X58616Y32823D01*
Y32623D01*
X58566Y32573D01*
X58466D01*
X58416Y32623D01*
X58316Y32873D02*
Y32573D01*
Y32723D01*
X58117D01*
Y32873D01*
Y32573D01*
X57817Y32873D02*
X58017D01*
Y32573D01*
X57817D01*
X58017Y32723D02*
X57917D01*
X57717Y32873D02*
Y32573D01*
X57567D01*
X57517Y32623D01*
Y32823D01*
X57567Y32873D01*
X57717D01*
X88824Y4419D02*
X88874Y4469D01*
X88974D01*
X89024Y4419D01*
Y4369D01*
X88974Y4319D01*
X88874D01*
X88824Y4269D01*
Y4219D01*
X88874Y4169D01*
X88974D01*
X89024Y4219D01*
X88724Y4469D02*
X88524D01*
X88624D01*
Y4169D01*
X88225Y4469D02*
X88425D01*
Y4169D01*
X88225D01*
X88425Y4319D02*
X88325D01*
X88125Y4169D02*
Y4469D01*
X87925Y4169D01*
Y4469D01*
X87625Y4419D02*
X87675Y4469D01*
X87775D01*
X87825Y4419D01*
Y4219D01*
X87775Y4169D01*
X87675D01*
X87625Y4219D01*
X87525Y4469D02*
X87425D01*
X87475D01*
Y4169D01*
X87525D01*
X87425D01*
X87275Y4469D02*
Y4169D01*
X87075D01*
X88949Y3989D02*
X89149D01*
Y3839D01*
X89049D01*
X89149D01*
Y3689D01*
X88849Y3989D02*
X88749D01*
X88799D01*
Y3689D01*
X88849D01*
X88749D01*
X88599Y3989D02*
Y3689D01*
X88450D01*
X88400Y3739D01*
Y3939D01*
X88450Y3989D01*
X88599D01*
X88300D02*
Y3739D01*
X88250Y3689D01*
X88150D01*
X88100Y3739D01*
Y3989D01*
X87800Y3939D02*
X87850Y3989D01*
X87950D01*
X88000Y3939D01*
Y3739D01*
X87950Y3689D01*
X87850D01*
X87800Y3739D01*
X87700Y3989D02*
X87600D01*
X87650D01*
Y3689D01*
X87700D01*
X87600D01*
X87450D02*
Y3889D01*
X87350Y3989D01*
X87250Y3889D01*
Y3689D01*
Y3839D01*
X87450D01*
X87150Y3989D02*
Y3689D01*
X86950D01*
X89649Y3509D02*
Y3209D01*
Y3359D01*
X89449D01*
Y3509D01*
Y3209D01*
X89349D02*
Y3409D01*
X89249Y3509D01*
X89149Y3409D01*
Y3209D01*
Y3359D01*
X89349D01*
X89049Y3509D02*
Y3209D01*
X88849D01*
X88549Y3509D02*
X88749D01*
Y3359D01*
X88649D01*
X88749D01*
Y3209D01*
X88450Y3359D02*
X88250D01*
X87950Y3509D02*
X88150D01*
Y3209D01*
X87950D01*
X88150Y3359D02*
X88050D01*
X87850Y3509D02*
X87650D01*
X87750D01*
Y3209D01*
X87350Y3459D02*
X87400Y3509D01*
X87500D01*
X87550Y3459D01*
Y3259D01*
X87500Y3209D01*
X87400D01*
X87350Y3259D01*
X87250Y3509D02*
Y3209D01*
Y3359D01*
X87050D01*
Y3509D01*
Y3209D01*
X86750Y3509D02*
X86950D01*
Y3209D01*
X86750D01*
X86950Y3359D02*
X86850D01*
X86650Y3509D02*
Y3209D01*
X86500D01*
X86450Y3259D01*
Y3459D01*
X86500Y3509D01*
X86650D01*
X22229Y56288D02*
X22279Y56338D01*
X22379D01*
X22429Y56288D01*
Y56238D01*
X22379Y56188D01*
X22279D01*
X22229Y56138D01*
Y56088D01*
X22279Y56038D01*
X22379D01*
X22429Y56088D01*
X22129Y56338D02*
X21929D01*
X22029D01*
Y56038D01*
X21629Y56338D02*
X21829D01*
Y56038D01*
X21629D01*
X21829Y56188D02*
X21729D01*
X21529Y56038D02*
Y56338D01*
X21329Y56038D01*
Y56338D01*
X21029Y56288D02*
X21079Y56338D01*
X21179D01*
X21229Y56288D01*
Y56088D01*
X21179Y56038D01*
X21079D01*
X21029Y56088D01*
X20929Y56338D02*
X20829D01*
X20879D01*
Y56038D01*
X20929D01*
X20829D01*
X20679Y56338D02*
Y56038D01*
X20479D01*
X22354Y55858D02*
X22553D01*
Y55708D01*
X22453D01*
X22553D01*
Y55558D01*
X22254Y55858D02*
X22154D01*
X22204D01*
Y55558D01*
X22254D01*
X22154D01*
X22004Y55858D02*
Y55558D01*
X21854D01*
X21804Y55608D01*
Y55808D01*
X21854Y55858D01*
X22004D01*
X21704D02*
Y55608D01*
X21654Y55558D01*
X21554D01*
X21504Y55608D01*
Y55858D01*
X21204Y55808D02*
X21254Y55858D01*
X21354D01*
X21404Y55808D01*
Y55608D01*
X21354Y55558D01*
X21254D01*
X21204Y55608D01*
X21104Y55858D02*
X21004D01*
X21054D01*
Y55558D01*
X21104D01*
X21004D01*
X20854D02*
Y55758D01*
X20754Y55858D01*
X20654Y55758D01*
Y55558D01*
Y55708D01*
X20854D01*
X20554Y55858D02*
Y55558D01*
X20354D01*
X23053Y55379D02*
Y55079D01*
Y55229D01*
X22853D01*
Y55379D01*
Y55079D01*
X22753D02*
Y55279D01*
X22653Y55379D01*
X22553Y55279D01*
Y55079D01*
Y55229D01*
X22753D01*
X22453Y55379D02*
Y55079D01*
X22254D01*
X21954Y55379D02*
X22154D01*
Y55229D01*
X22054D01*
X22154D01*
Y55079D01*
X21854Y55229D02*
X21654D01*
X21354Y55379D02*
X21554D01*
Y55079D01*
X21354D01*
X21554Y55229D02*
X21454D01*
X21254Y55379D02*
X21054D01*
X21154D01*
Y55079D01*
X20754Y55329D02*
X20804Y55379D01*
X20904D01*
X20954Y55329D01*
Y55129D01*
X20904Y55079D01*
X20804D01*
X20754Y55129D01*
X20654Y55379D02*
Y55079D01*
Y55229D01*
X20454D01*
Y55379D01*
Y55079D01*
X20154Y55379D02*
X20354D01*
Y55079D01*
X20154D01*
X20354Y55229D02*
X20254D01*
X20054Y55379D02*
Y55079D01*
X19904D01*
X19854Y55129D01*
Y55329D01*
X19904Y55379D01*
X20054D01*
X7086Y4992D02*
X7136Y5042D01*
X7236D01*
X7286Y4992D01*
Y4942D01*
X7236Y4892D01*
X7136D01*
X7086Y4842D01*
Y4792D01*
X7136Y4742D01*
X7236D01*
X7286Y4792D01*
X6986Y5042D02*
X6786D01*
X6886D01*
Y4742D01*
X6486Y5042D02*
X6686D01*
Y4742D01*
X6486D01*
X6686Y4892D02*
X6586D01*
X6386Y4742D02*
Y5042D01*
X6186Y4742D01*
Y5042D01*
X5886Y4992D02*
X5936Y5042D01*
X6036D01*
X6086Y4992D01*
Y4792D01*
X6036Y4742D01*
X5936D01*
X5886Y4792D01*
X5786Y5042D02*
X5686D01*
X5736D01*
Y4742D01*
X5786D01*
X5686D01*
X5536Y5042D02*
Y4742D01*
X5336D01*
X7211Y4562D02*
X7411D01*
Y4412D01*
X7311D01*
X7411D01*
Y4262D01*
X7111Y4562D02*
X7011D01*
X7061D01*
Y4262D01*
X7111D01*
X7011D01*
X6861Y4562D02*
Y4262D01*
X6711D01*
X6661Y4312D01*
Y4512D01*
X6711Y4562D01*
X6861D01*
X6561D02*
Y4312D01*
X6511Y4262D01*
X6411D01*
X6361Y4312D01*
Y4562D01*
X6061Y4512D02*
X6111Y4562D01*
X6211D01*
X6261Y4512D01*
Y4312D01*
X6211Y4262D01*
X6111D01*
X6061Y4312D01*
X5961Y4562D02*
X5861D01*
X5911D01*
Y4262D01*
X5961D01*
X5861D01*
X5711D02*
Y4462D01*
X5611Y4562D01*
X5511Y4462D01*
Y4262D01*
Y4412D01*
X5711D01*
X5411Y4562D02*
Y4262D01*
X5212D01*
X7911Y4083D02*
Y3783D01*
Y3933D01*
X7711D01*
Y4083D01*
Y3783D01*
X7611D02*
Y3983D01*
X7511Y4083D01*
X7411Y3983D01*
Y3783D01*
Y3933D01*
X7611D01*
X7311Y4083D02*
Y3783D01*
X7111D01*
X6811Y4083D02*
X7011D01*
Y3933D01*
X6911D01*
X7011D01*
Y3783D01*
X6711Y3933D02*
X6511D01*
X6211Y4083D02*
X6411D01*
Y3783D01*
X6211D01*
X6411Y3933D02*
X6311D01*
X6111Y4083D02*
X5911D01*
X6011D01*
Y3783D01*
X5611Y4033D02*
X5661Y4083D01*
X5761D01*
X5811Y4033D01*
Y3833D01*
X5761Y3783D01*
X5661D01*
X5611Y3833D01*
X5511Y4083D02*
Y3783D01*
Y3933D01*
X5312D01*
Y4083D01*
Y3783D01*
X5012Y4083D02*
X5212D01*
Y3783D01*
X5012D01*
X5212Y3933D02*
X5112D01*
X4912Y4083D02*
Y3783D01*
X4762D01*
X4712Y3833D01*
Y4033D01*
X4762Y4083D01*
X4912D01*
X42120Y8185D02*
X42170Y8235D01*
X42270D01*
X42320Y8185D01*
Y8135D01*
X42270Y8085D01*
X42170D01*
X42120Y8035D01*
Y7985D01*
X42170Y7935D01*
X42270D01*
X42320Y7985D01*
X42020Y8235D02*
X41820D01*
X41920D01*
Y7935D01*
X41520Y8235D02*
X41720D01*
Y7935D01*
X41520D01*
X41720Y8085D02*
X41620D01*
X41420Y7935D02*
Y8235D01*
X41220Y7935D01*
Y8235D01*
X40920Y8185D02*
X40970Y8235D01*
X41070D01*
X41120Y8185D01*
Y7985D01*
X41070Y7935D01*
X40970D01*
X40920Y7985D01*
X40820Y8235D02*
X40720D01*
X40770D01*
Y7935D01*
X40820D01*
X40720D01*
X40570Y8235D02*
Y7935D01*
X40370D01*
X42245Y7755D02*
X42445D01*
Y7605D01*
X42345D01*
X42445D01*
Y7455D01*
X42145Y7755D02*
X42045D01*
X42095D01*
Y7455D01*
X42145D01*
X42045D01*
X41895Y7755D02*
Y7455D01*
X41745D01*
X41695Y7505D01*
Y7705D01*
X41745Y7755D01*
X41895D01*
X41595D02*
Y7505D01*
X41545Y7455D01*
X41445D01*
X41395Y7505D01*
Y7755D01*
X41095Y7705D02*
X41145Y7755D01*
X41245D01*
X41295Y7705D01*
Y7505D01*
X41245Y7455D01*
X41145D01*
X41095Y7505D01*
X40995Y7755D02*
X40895D01*
X40945D01*
Y7455D01*
X40995D01*
X40895D01*
X40745D02*
Y7655D01*
X40645Y7755D01*
X40545Y7655D01*
Y7455D01*
Y7605D01*
X40745D01*
X40445Y7755D02*
Y7455D01*
X40245D01*
X42945Y7275D02*
Y6975D01*
Y7125D01*
X42745D01*
Y7275D01*
Y6975D01*
X42645D02*
Y7175D01*
X42545Y7275D01*
X42445Y7175D01*
Y6975D01*
Y7125D01*
X42645D01*
X42345Y7275D02*
Y6975D01*
X42145D01*
X41845Y7275D02*
X42045D01*
Y7125D01*
X41945D01*
X42045D01*
Y6975D01*
X41745Y7125D02*
X41545D01*
X41245Y7275D02*
X41445D01*
Y6975D01*
X41245D01*
X41445Y7125D02*
X41345D01*
X41145Y7275D02*
X40945D01*
X41045D01*
Y6975D01*
X40645Y7225D02*
X40695Y7275D01*
X40795D01*
X40845Y7225D01*
Y7025D01*
X40795Y6975D01*
X40695D01*
X40645Y7025D01*
X40545Y7275D02*
Y6975D01*
Y7125D01*
X40345D01*
Y7275D01*
Y6975D01*
X40045Y7275D02*
X40245D01*
Y6975D01*
X40045D01*
X40245Y7125D02*
X40145D01*
X39945Y7275D02*
Y6975D01*
X39796D01*
X39746Y7025D01*
Y7225D01*
X39796Y7275D01*
X39945D01*
M02*
