M48
;Layer_Color=9474304
;FILE_FORMAT=2:4
INCH,LZ
;TYPE=PLATED
T3F00S00C0.0197
T4F00S00C0.0197
T5F00S00C0.0256
T8F00S00C0.0315
;TYPE=NON_PLATED
%
G90
G05
T03
G00X008437Y01055
M15
G01Y010275
M16
G00X011035Y010275
M15
G01Y01055
M16
T04
G00X067658Y026859
M15
G01Y026622
M16
G00X067516Y029201
M15
G01Y028965
M16
G00X071052Y029201
M15
G01Y028965
M16
G00X07091Y026859
M15
G01Y026622
M16
G00X093249Y026859
M15
G01Y026622
M16
G00X093107Y029201
M15
G01Y028965
M16
G00X096642Y029201
M15
G01Y028965
M16
G00X0965Y026859
M15
G01Y026622
M16
G00X101934Y043453
M15
G01X101698
M16
G00X104276Y043311
M15
G01X10404
M16
G00X087815Y043453
M15
G01X088051
M16
G00X085472Y043311
M15
G01X085709
M16
G00X004673Y050216
M15
G01Y04998
M16
G00X004531Y052559
M15
G01Y052323
M16
G00X008067Y052559
M15
G01Y052323
M16
G00X007925Y050216
M15
G01Y04998
M16
G00X01239Y050216
M15
G01Y04998
M16
G00X012248Y052559
M15
G01Y052323
M16
G00X015783Y052559
M15
G01Y052323
M16
G00X015642Y050216
M15
G01Y04998
M16
G00X020106Y050217
M15
G01Y04998
M16
G00X019965Y052559
M15
G01Y052323
M16
G00X0235Y052559
M15
G01Y052323
M16
G00X023358Y050217
M15
G01Y04998
M16
G00X027823Y050217
M15
G01Y04998
M16
G00X027681Y052559
M15
G01Y052323
M16
G00X031217Y052559
M15
G01Y052323
M16
G00X031075Y050217
M15
G01Y04998
M16
G00X035539Y050216
M15
G01Y04998
M16
G00X035398Y052559
M15
G01Y052323
M16
G00X038933Y052559
M15
G01Y052323
M16
G00X038791Y050216
M15
G01Y04998
M16
G00X043256Y050216
M15
G01Y04998
M16
G00X043114Y052559
M15
G01Y052323
M16
G00X04665Y052559
M15
G01Y052323
M16
G00X046508Y050216
M15
G01Y04998
M16
G00X067658Y053281
M15
G01Y053045
M16
G00X067516Y055624
M15
G01Y055387
M16
G00X071052Y055624
M15
G01Y055387
M16
G00X07091Y053281
M15
G01Y053045
M16
G00X085472Y046846
M15
G01X085709
M16
G00X087815Y046705
M15
G01X088051
M16
G00X101934Y046705
M15
G01X101698
M16
G00X104276Y046846
M15
G01X10404
M16
T05
G00X067808Y026248
M15
G01X067926
M16
G00X093398Y026248
M15
G01X093516
M16
G00X088425Y043602
M15
G01Y04372
M16
G00X004823Y049606
M15
G01X004941
M16
G00X012539Y049606
M15
G01X012657
M16
G00X020256Y049606
M15
G01X020374
M16
G00X027972Y049606
M15
G01X028091
M16
G00X035689Y049606
M15
G01X035807
M16
G00X043406Y049606
M15
G01X043524
M16
G00X067808Y052671
M15
G01X067926
M16
G00X101324Y046555
M15
G01Y046437
M16
T08
G00X030976Y012872
M15
G01X032158
M16
G00X033457Y013561
M15
G01Y014742
M16
G00X030976Y015333
M15
G01X032158
M16
M17
M30
