G04*
G04 #@! TF.GenerationSoftware,Altium Limited,Altium Designer,20.1.11 (218)*
G04*
G04 Layer_Color=32896*
%FSLAX24Y24*%
%MOIN*%
G70*
G04*
G04 #@! TF.SameCoordinates,54141B6B-DA1B-4774-B8CF-21792AEDCB4D*
G04*
G04*
G04 #@! TF.FilePolarity,Positive*
G04*
G01*
G75*
%ADD10C,0.0050*%
%ADD40C,0.0080*%
%ADD41C,0.0090*%
%ADD42C,0.0079*%
%ADD43C,0.0157*%
%ADD44C,0.0060*%
%ADD45R,0.5086X0.3033*%
G36*
X6126Y11828D02*
X6141Y11820D01*
X6159Y11809D01*
X6177Y11795D01*
X6199Y11777D01*
X6217Y11755D01*
X6239Y11722D01*
X6261Y11685D01*
X6283Y11642D01*
X6301Y11587D01*
X6319Y11529D01*
X6338Y11456D01*
X6352Y11376D01*
Y11372D01*
Y11368D01*
X6356Y11346D01*
X6360Y11314D01*
X6367Y11277D01*
X6370Y11237D01*
X6378Y11201D01*
X6381Y11168D01*
X6389Y11142D01*
X6396D01*
X6414Y11146D01*
X6440Y11153D01*
X6476Y11161D01*
X6516Y11164D01*
X6560Y11171D01*
X6658Y11175D01*
X6684D01*
X6706Y11171D01*
X6739D01*
X6775Y11168D01*
X6815Y11164D01*
X6855D01*
X6884Y11161D01*
X6906D01*
Y11164D01*
Y11168D01*
X6910Y11190D01*
X6914Y11219D01*
X6921Y11263D01*
X6928Y11310D01*
X6935Y11365D01*
X6950Y11423D01*
X6965Y11485D01*
X6979Y11547D01*
X7001Y11605D01*
X7023Y11660D01*
X7045Y11707D01*
X7074Y11751D01*
X7103Y11780D01*
X7140Y11802D01*
X7158Y11809D01*
X7194D01*
X7216Y11802D01*
X7242Y11795D01*
X7274Y11780D01*
X7311Y11758D01*
X7351Y11729D01*
X7395Y11689D01*
X7409D01*
X7427Y11685D01*
X7446Y11678D01*
X7460Y11671D01*
X7479Y11656D01*
X7489Y11638D01*
X7493Y11613D01*
Y11605D01*
Y11602D01*
X7489Y11594D01*
X7479Y11569D01*
X7471Y11554D01*
X7457Y11543D01*
X7442Y11536D01*
X7420Y11532D01*
X7402D01*
X7395Y11536D01*
X7369Y11547D01*
X7355Y11554D01*
X7344Y11569D01*
X7336Y11583D01*
X7333Y11605D01*
Y11613D01*
Y11616D01*
X7336Y11623D01*
X7340Y11638D01*
X7347Y11653D01*
X7344Y11656D01*
X7329Y11667D01*
X7311Y11685D01*
X7289Y11704D01*
X7267Y11722D01*
X7242Y11740D01*
X7220Y11751D01*
X7198Y11755D01*
X7169D01*
X7150Y11744D01*
X7140Y11736D01*
X7125Y11722D01*
X7107Y11704D01*
X7092Y11678D01*
X7074Y11645D01*
X7056Y11605D01*
X7037Y11554D01*
X7019Y11492D01*
X7001Y11423D01*
X6986Y11339D01*
X6972Y11244D01*
X6961Y11135D01*
X6965D01*
X6983Y11128D01*
X7005Y11120D01*
X7034Y11106D01*
X7070Y11091D01*
X7110Y11069D01*
X7150Y11048D01*
X7194Y11018D01*
X7238Y10986D01*
X7282Y10953D01*
X7318Y10913D01*
X7355Y10869D01*
X7384Y10825D01*
X7409Y10774D01*
X7424Y10720D01*
X7427Y10661D01*
Y10658D01*
Y10654D01*
Y10643D01*
X7424Y10628D01*
X7413Y10588D01*
X7395Y10537D01*
X7384Y10508D01*
X7366Y10479D01*
X7344Y10446D01*
X7322Y10413D01*
X7289Y10381D01*
X7256Y10348D01*
X7216Y10311D01*
X7172Y10278D01*
Y10257D01*
X7318Y10034D01*
X7333D01*
X7351Y10031D01*
X7369Y10023D01*
X7391Y10016D01*
X7413Y10001D01*
X7435Y9980D01*
X7453Y9954D01*
X7460D01*
X7475Y9958D01*
X7500Y9965D01*
X7537Y9972D01*
X7584Y9983D01*
X7639Y9994D01*
X7705Y10009D01*
X7777Y10027D01*
X7861Y10045D01*
X7949Y10067D01*
X8047Y10093D01*
X8153Y10118D01*
X8262Y10147D01*
X8379Y10180D01*
X8503Y10213D01*
X8634Y10249D01*
X8638Y10253D01*
X8641Y10260D01*
X8652Y10275D01*
X8667Y10289D01*
X8703Y10315D01*
X8725Y10322D01*
X8751Y10326D01*
X8754D01*
X8765Y10322D01*
X8776Y10319D01*
X8791Y10315D01*
X8809Y10308D01*
X8831Y10297D01*
X8834D01*
X8853Y10300D01*
X8875Y10308D01*
X8907Y10315D01*
X8944Y10322D01*
X8988Y10333D01*
X9035Y10340D01*
X9086Y10351D01*
X9195Y10373D01*
X9305Y10388D01*
X9356Y10395D01*
X9407Y10402D01*
X9450Y10406D01*
X9505D01*
X9520Y10402D01*
X9538D01*
X9563Y10395D01*
X9589Y10388D01*
X9618Y10381D01*
X9647Y10366D01*
X9676Y10351D01*
X9706Y10330D01*
X9731Y10304D01*
X9757Y10271D01*
X9775Y10235D01*
X9789Y10195D01*
X9800Y10144D01*
X9804Y10089D01*
Y9980D01*
Y9976D01*
Y9965D01*
X9800Y9943D01*
X9797Y9918D01*
X9793Y9885D01*
X9786Y9845D01*
X9775Y9801D01*
X9760Y9754D01*
X9738Y9703D01*
X9717Y9644D01*
X9687Y9586D01*
X9651Y9524D01*
X9607Y9458D01*
X9560Y9393D01*
X9505Y9327D01*
X9440Y9258D01*
X9461D01*
X9480Y9254D01*
X9520Y9251D01*
X9563Y9243D01*
X9611Y9225D01*
X9647Y9203D01*
X9666Y9189D01*
X9676Y9174D01*
X9684Y9152D01*
X9687Y9130D01*
Y9090D01*
Y9083D01*
Y9065D01*
X9684Y9036D01*
X9673Y8995D01*
X9662Y8944D01*
X9644Y8890D01*
X9618Y8831D01*
X9582Y8769D01*
X9538Y8704D01*
X9483Y8635D01*
X9418Y8569D01*
X9378Y8540D01*
X9334Y8507D01*
X9290Y8478D01*
X9239Y8449D01*
X9184Y8420D01*
X9130Y8394D01*
X9068Y8368D01*
X8999Y8347D01*
X8929Y8325D01*
X8853Y8307D01*
X8849D01*
X8838Y8303D01*
X8820Y8299D01*
X8794Y8296D01*
X8765Y8292D01*
X8729Y8288D01*
X8689Y8281D01*
X8645Y8277D01*
X8550Y8263D01*
X8444Y8256D01*
X8335Y8248D01*
X8229Y8245D01*
X8095D01*
X8062Y8248D01*
X7978D01*
X7890Y8252D01*
X7799Y8256D01*
X7705Y8259D01*
X7650Y8179D01*
Y8175D01*
Y8172D01*
Y8161D01*
Y8150D01*
X7646Y8110D01*
Y8059D01*
X7639Y7997D01*
X7635Y7924D01*
X7624Y7836D01*
X7610Y7745D01*
X7595Y7639D01*
X7573Y7530D01*
X7548Y7414D01*
X7519Y7290D01*
X7482Y7162D01*
X7442Y7031D01*
X7395Y6896D01*
X7340Y6761D01*
X7336Y6754D01*
X7325Y6736D01*
X7311Y6710D01*
X7285Y6674D01*
X7260Y6630D01*
X7223Y6582D01*
X7187Y6531D01*
X7143Y6480D01*
X7096Y6429D01*
X7041Y6378D01*
X6986Y6331D01*
X6928Y6287D01*
X6866Y6251D01*
X6801Y6225D01*
X6735Y6207D01*
X6666Y6200D01*
X6647D01*
X6622Y6203D01*
X6589Y6211D01*
X6553Y6225D01*
X6505Y6243D01*
X6454Y6269D01*
X6400Y6302D01*
X6341Y6342D01*
X6279Y6397D01*
X6217Y6462D01*
X6152Y6539D01*
X6119Y6582D01*
X6086Y6633D01*
X6057Y6685D01*
X6024Y6739D01*
X5991Y6801D01*
X5962Y6863D01*
X5929Y6932D01*
X5900Y7005D01*
Y7009D01*
X5897Y7013D01*
X5893Y7023D01*
X5886Y7038D01*
X5882Y7060D01*
X5871Y7085D01*
X5864Y7115D01*
X5853Y7155D01*
X5838Y7195D01*
X5827Y7246D01*
X5813Y7304D01*
X5795Y7370D01*
X5780Y7439D01*
X5762Y7519D01*
X5744Y7607D01*
X5725Y7705D01*
Y7709D01*
Y7723D01*
X5722Y7742D01*
Y7767D01*
X5718Y7800D01*
X5714Y7833D01*
X5707Y7909D01*
X5700Y7986D01*
X5696Y8022D01*
X5692Y8055D01*
X5689Y8084D01*
X5685Y8110D01*
X5682Y8128D01*
X5678Y8139D01*
X5667D01*
X5656Y8146D01*
X5645Y8153D01*
X5627Y8164D01*
X5609Y8183D01*
X5587Y8208D01*
X5565Y8245D01*
X5405D01*
X5375Y8248D01*
X5343D01*
X5302Y8252D01*
X5262Y8256D01*
X5215Y8259D01*
X5164Y8263D01*
X5055Y8277D01*
X4931Y8296D01*
X4803Y8321D01*
X4799D01*
X4785Y8317D01*
X4770Y8314D01*
X4752D01*
X4745Y8321D01*
X4730Y8328D01*
X4712Y8336D01*
X4683Y8347D01*
X4646Y8361D01*
X4599Y8376D01*
X4544Y8394D01*
X4537Y8398D01*
X4522Y8405D01*
X4497Y8420D01*
X4460Y8438D01*
X4420Y8460D01*
X4377Y8492D01*
X4329Y8525D01*
X4278Y8565D01*
X4227Y8613D01*
X4180Y8664D01*
X4136Y8722D01*
X4096Y8788D01*
X4063Y8857D01*
X4034Y8930D01*
X4019Y9010D01*
X4012Y9097D01*
Y9130D01*
Y9138D01*
X4016Y9152D01*
X4027Y9170D01*
X4045Y9196D01*
X4074Y9218D01*
X4092Y9229D01*
X4118Y9240D01*
X4147Y9247D01*
X4180Y9254D01*
X4216Y9258D01*
X4260D01*
X4256Y9262D01*
X4245Y9272D01*
X4227Y9294D01*
X4205Y9320D01*
X4176Y9353D01*
X4147Y9389D01*
X4114Y9433D01*
X4081Y9484D01*
X4045Y9539D01*
X4012Y9597D01*
X3983Y9659D01*
X3957Y9724D01*
X3932Y9794D01*
X3914Y9863D01*
X3903Y9936D01*
X3899Y10012D01*
Y10056D01*
Y10060D01*
Y10071D01*
X3903Y10089D01*
Y10111D01*
X3906Y10136D01*
X3914Y10165D01*
X3936Y10231D01*
X3950Y10264D01*
X3968Y10297D01*
X3990Y10326D01*
X4019Y10351D01*
X4049Y10373D01*
X4089Y10391D01*
X4129Y10402D01*
X4180Y10406D01*
X4242D01*
X4260Y10402D01*
X4278D01*
X4304Y10399D01*
X4333D01*
X4366Y10391D01*
X4402Y10388D01*
X4446Y10384D01*
X4493Y10377D01*
X4548Y10366D01*
X4606Y10359D01*
X4672Y10348D01*
X4741Y10333D01*
Y10337D01*
X4748Y10344D01*
X4756Y10348D01*
X4770Y10355D01*
X4785Y10359D01*
X4807Y10366D01*
X4861D01*
X4872Y10362D01*
X4887Y10355D01*
X4902Y10344D01*
X4920Y10326D01*
X4942Y10304D01*
X4963Y10271D01*
X5908Y10027D01*
X5911D01*
X5915Y10031D01*
X5937Y10045D01*
X5962Y10056D01*
X5984Y10060D01*
X6035D01*
X6152Y10238D01*
Y10242D01*
Y10249D01*
X6148Y10264D01*
X6141Y10278D01*
X6134Y10297D01*
X6119Y10315D01*
X6097Y10333D01*
X6072Y10351D01*
Y10355D01*
X6064Y10359D01*
X6046Y10377D01*
X6021Y10406D01*
X5995Y10446D01*
X5966Y10490D01*
X5940Y10541D01*
X5922Y10592D01*
X5918Y10617D01*
X5915Y10643D01*
Y10690D01*
Y10694D01*
Y10701D01*
X5918Y10716D01*
X5922Y10730D01*
X5926Y10752D01*
X5933Y10778D01*
X5948Y10803D01*
X5962Y10833D01*
X5980Y10865D01*
X6006Y10898D01*
X6035Y10935D01*
X6072Y10967D01*
X6115Y11004D01*
X6163Y11040D01*
X6221Y11073D01*
X6287Y11106D01*
X6290D01*
X6298Y11110D01*
X6308Y11113D01*
X6327Y11120D01*
Y11128D01*
X6323Y11142D01*
Y11168D01*
X6319Y11201D01*
X6312Y11241D01*
X6308Y11285D01*
X6301Y11332D01*
X6294Y11383D01*
X6272Y11485D01*
X6261Y11536D01*
X6250Y11583D01*
X6236Y11627D01*
X6225Y11664D01*
X6206Y11693D01*
X6192Y11715D01*
Y11718D01*
X6185Y11722D01*
X6170Y11740D01*
X6141Y11766D01*
X6104Y11784D01*
X6101D01*
X6090Y11780D01*
X6072Y11773D01*
X6053Y11762D01*
X6006Y11736D01*
X5988Y11718D01*
X5970Y11696D01*
X5973Y11689D01*
X5984Y11675D01*
X5991Y11653D01*
X5995Y11634D01*
Y11631D01*
Y11627D01*
X5988Y11609D01*
X5977Y11594D01*
X5966Y11583D01*
X5948Y11569D01*
X5922Y11558D01*
X5918D01*
X5911Y11562D01*
X5897Y11565D01*
X5882Y11576D01*
X5867Y11583D01*
X5853Y11598D01*
X5846Y11616D01*
X5842Y11634D01*
Y11642D01*
Y11645D01*
X5846Y11653D01*
X5857Y11678D01*
X5864Y11693D01*
X5878Y11704D01*
X5893Y11711D01*
X5915Y11715D01*
X5918Y11718D01*
X5926Y11729D01*
X5937Y11744D01*
X5955Y11758D01*
X5980Y11780D01*
X6013Y11798D01*
X6050Y11817D01*
X6097Y11835D01*
X6104D01*
X6126Y11828D01*
D02*
G37*
G36*
X6895Y6225D02*
X6899Y6222D01*
X6895Y6218D01*
X6892Y6207D01*
X6881Y6189D01*
X6866Y6163D01*
X6848Y6134D01*
X6830Y6101D01*
X6790Y6032D01*
X6750Y5963D01*
X6731Y5930D01*
X6713Y5901D01*
X6695Y5875D01*
X6684Y5853D01*
X6673Y5839D01*
X6666Y5832D01*
X6436Y6214D01*
Y6229D01*
X6440D01*
X6443Y6225D01*
X6465Y6222D01*
X6494Y6214D01*
X6531Y6207D01*
X6571Y6196D01*
X6611Y6189D01*
X6644Y6185D01*
X6673Y6181D01*
X6677D01*
X6691Y6185D01*
X6713Y6189D01*
X6742Y6192D01*
X6779Y6200D01*
X6815Y6207D01*
X6895Y6229D01*
Y6225D01*
D02*
G37*
%LPC*%
G36*
X6731Y11073D02*
X6607D01*
X6571Y11069D01*
X6531Y11066D01*
X6487Y11059D01*
X6447Y11051D01*
X6414Y11040D01*
X6403Y11033D01*
X6396Y11026D01*
X6400Y11022D01*
X6403Y11015D01*
X6414Y11004D01*
X6429Y10993D01*
X6462Y10956D01*
X6502Y10916D01*
X6538Y10873D01*
X6575Y10840D01*
X6589Y10825D01*
X6600Y10814D01*
X6607Y10807D01*
X6611Y10803D01*
X6662D01*
X6666Y10811D01*
X6677Y10825D01*
X6699Y10843D01*
X6724Y10876D01*
X6742Y10898D01*
X6760Y10920D01*
X6782Y10949D01*
X6808Y10978D01*
X6833Y11015D01*
X6866Y11055D01*
X6863D01*
X6855Y11059D01*
X6841Y11062D01*
X6819Y11066D01*
X6793D01*
X6764Y11069D01*
X6731Y11073D01*
D02*
G37*
G36*
X6629Y10778D02*
X6626Y10774D01*
X6615Y10771D01*
X6604Y10760D01*
X6596Y10749D01*
Y10723D01*
X6600Y10716D01*
X6607Y10709D01*
X6618Y10701D01*
X6629D01*
X6644Y10705D01*
X6655Y10712D01*
X6666Y10723D01*
Y10749D01*
Y10752D01*
X6658Y10760D01*
X6647Y10767D01*
X6629Y10778D01*
D02*
G37*
G36*
X6677Y10683D02*
X6673Y10679D01*
X6662Y10676D01*
X6644Y10672D01*
X6626Y10668D01*
X6611D01*
X6596Y10676D01*
X6341Y10359D01*
X6345D01*
X6349Y10355D01*
X6352Y10348D01*
X6356Y10340D01*
X6363Y10326D01*
X6367Y10304D01*
X6374Y10278D01*
Y10275D01*
X6370Y10271D01*
X6367Y10257D01*
X6637Y10151D01*
X6640D01*
X6647Y10155D01*
X6662Y10158D01*
X6677Y10165D01*
X6720Y10180D01*
X6771Y10198D01*
X6826Y10217D01*
X6881Y10231D01*
X6924Y10246D01*
X6946Y10253D01*
X6961Y10257D01*
Y10304D01*
Y10308D01*
X6965Y10319D01*
X6972Y10337D01*
X6983Y10359D01*
X6979Y10362D01*
X6972Y10370D01*
X6957Y10384D01*
X6943Y10402D01*
X6899Y10446D01*
X6848Y10497D01*
X6797Y10552D01*
X6746Y10607D01*
X6706Y10650D01*
X6688Y10668D01*
X6677Y10683D01*
D02*
G37*
G36*
X6352Y11018D02*
X6349D01*
X6338Y11011D01*
X6323Y11007D01*
X6301Y10997D01*
X6276Y10982D01*
X6247Y10967D01*
X6185Y10931D01*
X6123Y10880D01*
X6093Y10851D01*
X6068Y10822D01*
X6050Y10785D01*
X6031Y10749D01*
X6021Y10709D01*
X6017Y10668D01*
Y10661D01*
X6021Y10643D01*
X6028Y10614D01*
X6039Y10577D01*
X6061Y10534D01*
X6090Y10483D01*
X6134Y10435D01*
X6163Y10410D01*
X6192Y10384D01*
X6261Y10391D01*
X6319Y10384D01*
X6323Y10388D01*
X6330Y10395D01*
X6341Y10413D01*
X6363Y10443D01*
X6396Y10483D01*
X6418Y10508D01*
X6440Y10534D01*
X6469Y10566D01*
X6498Y10603D01*
X6534Y10647D01*
X6571Y10690D01*
X6564Y10738D01*
Y10741D01*
X6578Y10789D01*
X6352Y11018D01*
D02*
G37*
G36*
X6968Y11026D02*
X6961D01*
Y11018D01*
Y11011D01*
X6965Y10993D01*
X6968Y10964D01*
X6976Y10924D01*
X6983Y10880D01*
X6994Y10829D01*
X7001Y10774D01*
X7012Y10716D01*
X7030Y10603D01*
X7041Y10548D01*
X7052Y10501D01*
X7059Y10461D01*
X7067Y10428D01*
X7074Y10402D01*
X7078Y10391D01*
X7081D01*
X7085Y10388D01*
X7103Y10384D01*
X7118Y10381D01*
X7125Y10377D01*
X7132D01*
X7136Y10384D01*
X7158Y10402D01*
X7191Y10428D01*
X7227Y10464D01*
X7263Y10508D01*
X7296Y10555D01*
X7318Y10607D01*
X7322Y10636D01*
X7325Y10661D01*
Y10665D01*
Y10672D01*
X7322Y10683D01*
Y10701D01*
X7307Y10741D01*
X7296Y10767D01*
X7282Y10796D01*
X7263Y10825D01*
X7238Y10854D01*
X7209Y10884D01*
X7176Y10916D01*
X7132Y10946D01*
X7085Y10975D01*
X7030Y11000D01*
X6968Y11026D01*
D02*
G37*
G36*
X6914Y11048D02*
X6906D01*
X6903Y11044D01*
X6899Y11037D01*
X6888Y11022D01*
X6873Y11007D01*
X6841Y10967D01*
X6801Y10920D01*
X6764Y10869D01*
X6728Y10829D01*
X6713Y10814D01*
X6702Y10800D01*
X6695Y10792D01*
X6691Y10789D01*
Y10785D01*
Y10771D01*
X6695Y10752D01*
X6702Y10730D01*
X6709Y10705D01*
X6720Y10679D01*
X6739Y10658D01*
X6764Y10636D01*
X6768Y10632D01*
X6775Y10625D01*
X6782Y10614D01*
X6797Y10599D01*
X6833Y10563D01*
X6873Y10519D01*
X6914Y10472D01*
X6954Y10432D01*
X6986Y10395D01*
X7001Y10384D01*
X7008Y10377D01*
X7012D01*
X7016Y10381D01*
X7034Y10384D01*
Y10388D01*
Y10391D01*
Y10399D01*
X7030Y10410D01*
X7027Y10424D01*
X7023Y10446D01*
X7019Y10475D01*
X7012Y10512D01*
X7005Y10555D01*
X6994Y10610D01*
X6983Y10672D01*
X6968Y10749D01*
X6954Y10836D01*
X6935Y10935D01*
X6914Y11048D01*
D02*
G37*
G36*
X4038Y10326D02*
X4034D01*
X4027Y10322D01*
X4019Y10319D01*
X4012Y10304D01*
Y10289D01*
X4016Y10286D01*
X4023Y10278D01*
X4034Y10271D01*
X4038Y10275D01*
X4049Y10278D01*
X4056Y10282D01*
X4060Y10289D01*
Y10304D01*
Y10308D01*
X4056Y10311D01*
X4052Y10319D01*
X4038Y10326D01*
D02*
G37*
G36*
X9673Y10311D02*
X9658D01*
X9651Y10308D01*
X9644Y10300D01*
X9640Y10286D01*
Y10282D01*
X9644Y10278D01*
X9647Y10264D01*
X9676D01*
X9680Y10268D01*
X9687Y10275D01*
X9695Y10286D01*
Y10289D01*
Y10293D01*
X9691Y10297D01*
X9687Y10304D01*
X9673Y10311D01*
D02*
G37*
G36*
X7063Y10337D02*
X7056D01*
X7041Y10330D01*
X7023Y10315D01*
X7019Y10304D01*
X7016Y10286D01*
Y10278D01*
X7023Y10264D01*
X7030Y10257D01*
X7037Y10246D01*
X7052Y10242D01*
X7070Y10238D01*
X7078D01*
X7092Y10246D01*
X7107Y10260D01*
X7114Y10271D01*
X7118Y10289D01*
Y10293D01*
Y10297D01*
X7110Y10311D01*
X7103Y10319D01*
X7096Y10330D01*
X7081Y10333D01*
X7063Y10337D01*
D02*
G37*
G36*
X6261Y10337D02*
X6247D01*
X6228Y10330D01*
X6206Y10315D01*
X6203Y10304D01*
X6199Y10286D01*
Y10278D01*
Y10275D01*
Y10271D01*
X6206Y10253D01*
X6214Y10242D01*
X6221Y10231D01*
X6236Y10227D01*
X6254Y10224D01*
X6268D01*
X6287Y10231D01*
X6298Y10238D01*
X6305Y10246D01*
X6308Y10260D01*
X6312Y10278D01*
Y10286D01*
Y10289D01*
Y10293D01*
X6305Y10311D01*
X6290Y10330D01*
X6279Y10333D01*
X6261Y10337D01*
D02*
G37*
G36*
X4836Y10311D02*
X4803D01*
X4799Y10308D01*
X4785Y10300D01*
X4770Y10286D01*
X4756Y10264D01*
Y10209D01*
Y10206D01*
X4767Y10191D01*
X4774Y10184D01*
X4785Y10173D01*
X4803Y10165D01*
X4829Y10155D01*
X4832D01*
X4840Y10158D01*
X4865Y10173D01*
X4891Y10198D01*
X4898Y10213D01*
X4902Y10231D01*
Y10242D01*
Y10246D01*
X4898Y10253D01*
X4891Y10278D01*
X4869Y10300D01*
X4854Y10308D01*
X4836Y10311D01*
D02*
G37*
G36*
X8758Y10264D02*
X8721D01*
X8718Y10260D01*
X8703Y10253D01*
X8689Y10238D01*
X8674Y10217D01*
Y10162D01*
X8678Y10158D01*
X8689Y10144D01*
X8703Y10129D01*
X8721Y10114D01*
X8762D01*
X8769Y10118D01*
X8791Y10129D01*
X8813Y10151D01*
X8820Y10165D01*
X8824Y10184D01*
Y10195D01*
Y10198D01*
X8820Y10206D01*
X8809Y10231D01*
X8791Y10253D01*
X8776Y10260D01*
X8758Y10264D01*
D02*
G37*
G36*
X9505Y10304D02*
X9454D01*
X9432Y10300D01*
X9407D01*
X9378Y10297D01*
X9345Y10293D01*
X9305Y10286D01*
X9261Y10278D01*
X9210Y10271D01*
X9155Y10260D01*
X9093Y10249D01*
X9028Y10235D01*
X8955Y10220D01*
X8878Y10202D01*
Y10169D01*
Y10165D01*
X8875Y10158D01*
X8864Y10133D01*
X8853Y10107D01*
X8845Y10100D01*
X8838Y10096D01*
Y10093D01*
X8845Y10078D01*
X8853Y10071D01*
X8867Y10063D01*
X8882Y10056D01*
X8904Y10049D01*
X8907D01*
X8911Y10052D01*
X8933Y10060D01*
X8966Y10067D01*
X9006Y10082D01*
X9057Y10100D01*
X9111Y10118D01*
X9173Y10136D01*
X9235Y10158D01*
X9359Y10202D01*
X9418Y10220D01*
X9472Y10238D01*
X9520Y10257D01*
X9556Y10271D01*
X9585Y10282D01*
X9600Y10289D01*
X9596D01*
X9593Y10293D01*
X9571Y10297D01*
X9538Y10300D01*
X9505Y10304D01*
D02*
G37*
G36*
X4092Y10278D02*
X4074Y10249D01*
X4464Y9251D01*
X4468Y9254D01*
X4479Y9258D01*
X4486Y9265D01*
X4490Y9272D01*
Y9276D01*
X4486Y9280D01*
X4482Y9302D01*
X4471Y9334D01*
X4460Y9378D01*
X4450Y9429D01*
X4431Y9488D01*
X4417Y9546D01*
X4399Y9611D01*
X4380Y9673D01*
X4366Y9732D01*
X4347Y9790D01*
X4333Y9841D01*
X4318Y9885D01*
X4307Y9918D01*
X4300Y9939D01*
Y9947D01*
X4296D01*
X4289Y9950D01*
X4278Y9958D01*
X4267Y9972D01*
X4260Y9994D01*
Y10020D01*
Y10023D01*
X4264Y10027D01*
X4278Y10042D01*
X4296Y10052D01*
X4304Y10060D01*
X4318D01*
X4333Y10056D01*
X4347Y10052D01*
X4362Y10049D01*
X4366Y10052D01*
X4377Y10056D01*
X4395Y10063D01*
X4417Y10074D01*
X4442Y10085D01*
X4468Y10100D01*
X4533Y10133D01*
X4595Y10165D01*
X4621Y10180D01*
X4650Y10195D01*
X4668Y10206D01*
X4686Y10217D01*
X4697Y10224D01*
X4701Y10231D01*
X4690Y10235D01*
X4683Y10238D01*
X4668D01*
X4650Y10242D01*
X4624Y10246D01*
X4592Y10249D01*
X4552Y10253D01*
X4504Y10257D01*
X4446Y10260D01*
X4373Y10264D01*
X4293Y10268D01*
X4198Y10275D01*
X4092Y10278D01*
D02*
G37*
G36*
X8853Y10034D02*
X8849D01*
X8838Y10027D01*
X8827Y10020D01*
X8824Y10012D01*
Y10001D01*
Y9998D01*
X8827Y9991D01*
X8834Y9983D01*
X8853Y9980D01*
X8856D01*
X8860Y9983D01*
X8871Y9987D01*
Y10027D01*
X8867D01*
X8853Y10034D01*
D02*
G37*
G36*
X6352Y10224D02*
Y10220D01*
X6345Y10213D01*
X6338Y10206D01*
X6323Y10195D01*
X6305Y10180D01*
X6283Y10173D01*
X6257Y10165D01*
X6225Y10162D01*
X6221Y10155D01*
X6210Y10136D01*
X6192Y10111D01*
X6174Y10078D01*
X6152Y10045D01*
X6137Y10016D01*
X6123Y9994D01*
X6119Y9980D01*
X6130D01*
X6144Y9987D01*
X6166Y9994D01*
X6195Y10001D01*
X6228Y10016D01*
X6265Y10027D01*
X6345Y10056D01*
X6425Y10082D01*
X6465Y10096D01*
X6502Y10107D01*
X6531Y10114D01*
X6556Y10122D01*
X6571Y10129D01*
X6582D01*
X6578Y10133D01*
X6571Y10136D01*
X6553Y10147D01*
X6527Y10158D01*
X6509Y10165D01*
X6483Y10176D01*
X6458Y10184D01*
X6429Y10198D01*
X6392Y10209D01*
X6352Y10224D01*
D02*
G37*
G36*
X4315Y10027D02*
X4311D01*
X4304Y10020D01*
X4293Y10016D01*
X4289Y10009D01*
Y9994D01*
X4293Y9987D01*
X4296Y9980D01*
X4307Y9972D01*
X4326D01*
X4329Y9976D01*
X4337Y9983D01*
X4344Y10001D01*
Y10005D01*
X4337Y10012D01*
X4329Y10020D01*
X4315Y10027D01*
D02*
G37*
G36*
X6961Y10231D02*
X6691Y10144D01*
Y10129D01*
X6699Y10125D01*
X6713Y10122D01*
X6746Y10111D01*
X6768Y10104D01*
X6793Y10093D01*
X6819Y10082D01*
X6852Y10071D01*
X6892Y10056D01*
X6932Y10042D01*
X6976Y10023D01*
X7027Y10005D01*
X7081Y9983D01*
X7143Y9961D01*
Y9969D01*
Y9972D01*
X7140Y9980D01*
Y9987D01*
X7136Y10001D01*
X7125Y10038D01*
X7114Y10078D01*
X7103Y10114D01*
X7092Y10151D01*
X7089Y10165D01*
X7085Y10173D01*
X7081Y10180D01*
X7078Y10184D01*
X7067D01*
X7056Y10187D01*
X7041Y10191D01*
X7005Y10206D01*
X6983Y10217D01*
X6961Y10231D01*
D02*
G37*
G36*
X8696Y10067D02*
X8692Y10063D01*
X8685Y10056D01*
X8678Y10042D01*
X8667Y10023D01*
X8641Y9987D01*
X8630Y9969D01*
X8623Y9954D01*
X8630D01*
X8634Y9958D01*
X8652Y9961D01*
X8678Y9969D01*
X8711Y9980D01*
X8740Y9991D01*
X8765Y10001D01*
X8783Y10012D01*
X8791Y10016D01*
Y10020D01*
X8794Y10023D01*
X8798Y10034D01*
X8802Y10045D01*
X8805Y10060D01*
X8711D01*
X8696Y10067D01*
D02*
G37*
G36*
X7129Y10129D02*
Y10122D01*
Y10118D01*
X7132Y10114D01*
X7136Y10093D01*
X7143Y10063D01*
X7154Y10027D01*
X7165Y9991D01*
X7180Y9961D01*
X7194Y9939D01*
X7198Y9936D01*
X7205Y9932D01*
X7212D01*
X7216Y9936D01*
Y9939D01*
X7223Y9980D01*
X7220Y9983D01*
X7216Y9998D01*
X7205Y10016D01*
X7194Y10038D01*
X7161Y10085D01*
X7147Y10111D01*
X7129Y10129D01*
D02*
G37*
G36*
X4701Y10184D02*
X4690D01*
X4679Y10176D01*
X4665Y10169D01*
X4646Y10158D01*
X4621Y10147D01*
X4595Y10133D01*
X4537Y10104D01*
X4479Y10071D01*
X4428Y10045D01*
X4406Y10034D01*
X4388Y10027D01*
X4377Y10023D01*
X4369Y10020D01*
X4373Y10016D01*
X4380Y10009D01*
X4395Y10001D01*
X4417Y9994D01*
X4450Y9987D01*
X4471Y9983D01*
X4497Y9976D01*
X4526Y9972D01*
X4559Y9969D01*
X4563D01*
X4573Y9961D01*
X4595Y9958D01*
X4617Y9950D01*
X4646Y9943D01*
X4676Y9939D01*
X4741Y9932D01*
Y9936D01*
X4745Y9939D01*
X4748Y9958D01*
X4756Y9983D01*
X4767Y10016D01*
X4774Y10045D01*
X4781Y10074D01*
X4785Y10096D01*
X4789Y10107D01*
X4785D01*
X4767Y10118D01*
X4756Y10125D01*
X4741Y10140D01*
X4723Y10158D01*
X4701Y10184D01*
D02*
G37*
G36*
X4829Y10104D02*
X4821D01*
X4774Y9921D01*
X4821Y9907D01*
Y9921D01*
Y9929D01*
Y9936D01*
Y9950D01*
X4825Y9972D01*
Y10001D01*
Y10042D01*
X4829Y10089D01*
Y10104D01*
D02*
G37*
G36*
X8568Y9939D02*
X8565Y9936D01*
X8561Y9929D01*
X8554Y9918D01*
X8547Y9914D01*
Y9910D01*
X8554Y9899D01*
X8568Y9888D01*
X8587Y9885D01*
X8601Y9907D01*
Y9921D01*
Y9925D01*
X8598Y9929D01*
X8587Y9936D01*
X8568Y9939D01*
D02*
G37*
G36*
X7191Y9907D02*
Y9892D01*
Y9888D01*
X7194Y9885D01*
X7198Y9878D01*
Y9874D01*
X7212D01*
X7216Y9878D01*
Y9885D01*
Y9888D01*
X7212Y9892D01*
X7205Y9899D01*
X7191Y9907D01*
D02*
G37*
G36*
X6002Y10009D02*
X5991D01*
X5988Y10005D01*
X5966Y9998D01*
X5948Y9980D01*
X5940Y9965D01*
X5937Y9947D01*
Y9932D01*
Y9929D01*
X5940Y9925D01*
X5948Y9903D01*
X5966Y9885D01*
X5977Y9878D01*
X5995Y9874D01*
X6006D01*
X6013Y9878D01*
X6039Y9885D01*
X6050Y9896D01*
X6061Y9907D01*
X6068Y9925D01*
X6072Y9947D01*
Y9950D01*
X6068Y9958D01*
X6053Y9980D01*
X6031Y9998D01*
X6021Y10005D01*
X6002Y10009D01*
D02*
G37*
G36*
X4537Y9932D02*
X4533D01*
Y9925D01*
X4537D01*
X4541Y9921D01*
X4559Y9918D01*
X4584Y9907D01*
X4617Y9896D01*
X4650Y9885D01*
X4679Y9878D01*
X4705Y9870D01*
X4719Y9867D01*
Y9870D01*
X4723Y9874D01*
X4727Y9892D01*
X4719D01*
X4705Y9896D01*
X4686Y9899D01*
X4665Y9907D01*
X4628Y9914D01*
X4588Y9921D01*
X4537Y9932D01*
D02*
G37*
G36*
X7333Y9980D02*
X7329D01*
X7322Y9976D01*
X7304Y9965D01*
X7282Y9943D01*
X7274Y9932D01*
X7271Y9914D01*
Y9910D01*
Y9907D01*
X7278Y9888D01*
X7289Y9878D01*
X7300Y9867D01*
X7318Y9859D01*
X7340Y9852D01*
X7344D01*
X7351Y9856D01*
X7369Y9867D01*
X7391Y9885D01*
X7395Y9899D01*
X7398Y9914D01*
Y9918D01*
X7395Y9925D01*
X7384Y9947D01*
X7366Y9969D01*
X7351Y9976D01*
X7333Y9980D01*
D02*
G37*
G36*
X4916Y10136D02*
X4912D01*
X4909Y10133D01*
X4887Y10122D01*
X4865Y10107D01*
X4858Y10100D01*
X4854Y10096D01*
Y9899D01*
X4861D01*
X4880Y9896D01*
X4905Y9888D01*
X4934Y9885D01*
X4960Y9878D01*
X4985Y9870D01*
X5004Y9863D01*
X5011D01*
Y9859D01*
X5015D01*
X5018Y9867D01*
X5022D01*
X5036Y9863D01*
X5055Y9859D01*
X5076Y9852D01*
X5098Y9848D01*
X5117Y9841D01*
X5135Y9837D01*
X5146D01*
X5142Y9841D01*
X5138Y9848D01*
X5128Y9863D01*
X5113Y9881D01*
X5080Y9929D01*
X5040Y9980D01*
X5000Y10034D01*
X4963Y10082D01*
X4945Y10104D01*
X4934Y10118D01*
X4923Y10129D01*
X4916Y10136D01*
D02*
G37*
G36*
X7231Y9845D02*
X7227D01*
X7223Y9841D01*
X7216Y9837D01*
X7212D01*
Y9826D01*
X7238D01*
X7242Y9830D01*
X7245Y9837D01*
X7231Y9845D01*
D02*
G37*
G36*
X4821Y9874D02*
X4763D01*
Y9870D01*
X4759Y9867D01*
X4756Y9845D01*
Y9837D01*
X4763D01*
X4778Y9834D01*
X4796Y9830D01*
X4814Y9826D01*
X4821Y9867D01*
Y9874D01*
D02*
G37*
G36*
X6090Y9852D02*
X6086Y9848D01*
X6068Y9837D01*
X6042Y9823D01*
X6010Y9819D01*
X5980D01*
X5966Y9823D01*
X5940Y9834D01*
X5908Y9852D01*
X5900D01*
X5893Y9848D01*
X5875Y9837D01*
X5846Y9823D01*
X5809Y9805D01*
X5773Y9783D01*
X5740Y9765D01*
X5711Y9750D01*
X5692Y9743D01*
Y9739D01*
X5703D01*
X5718Y9743D01*
X5740D01*
X5769Y9746D01*
X5805Y9750D01*
X5842Y9754D01*
X5929Y9761D01*
X6021Y9768D01*
X6112Y9775D01*
X6152Y9779D01*
X6185Y9783D01*
X6217Y9786D01*
X6239D01*
X6236Y9790D01*
X6221Y9797D01*
X6203Y9808D01*
X6177Y9819D01*
X6130Y9841D01*
X6108Y9848D01*
X6090Y9852D01*
D02*
G37*
G36*
X6629Y10114D02*
X6615D01*
X6596Y10107D01*
X6575Y10100D01*
X6545Y10089D01*
X6509Y10078D01*
X6469Y10067D01*
X6381Y10038D01*
X6290Y10005D01*
X6250Y9991D01*
X6214Y9980D01*
X6181Y9969D01*
X6155Y9958D01*
X6137Y9950D01*
X6126Y9947D01*
Y9939D01*
Y9925D01*
X6123Y9903D01*
X6119Y9878D01*
X6123D01*
X6126Y9874D01*
X6148Y9867D01*
X6174Y9852D01*
X6206Y9837D01*
X6239Y9823D01*
X6268Y9808D01*
X6287Y9797D01*
X6290Y9794D01*
X6294Y9790D01*
X7165Y9874D01*
Y9878D01*
Y9881D01*
X7161Y9888D01*
X7154Y9899D01*
X7143Y9914D01*
X7121Y9929D01*
X7089Y9947D01*
X7067Y9954D01*
X7045Y9965D01*
X7016Y9972D01*
X6983Y9980D01*
X6979D01*
X6968Y9987D01*
X6954Y9991D01*
X6932Y10001D01*
X6906Y10012D01*
X6881Y10023D01*
X6819Y10049D01*
X6753Y10071D01*
X6695Y10093D01*
X6669Y10104D01*
X6647Y10107D01*
X6629Y10114D01*
D02*
G37*
G36*
X8641Y10114D02*
X8638Y10111D01*
X8619Y10100D01*
X8598Y10085D01*
X8565Y10067D01*
X8528Y10045D01*
X8485Y10016D01*
X8393Y9961D01*
X8299Y9903D01*
X8255Y9874D01*
X8215Y9848D01*
X8182Y9826D01*
X8153Y9808D01*
X8135Y9794D01*
X8124Y9786D01*
X8131D01*
X8142Y9790D01*
X8160Y9797D01*
X8186Y9805D01*
X8211Y9816D01*
X8244Y9826D01*
X8313Y9848D01*
X8382Y9874D01*
X8415Y9885D01*
X8444Y9896D01*
X8470Y9903D01*
X8492Y9910D01*
X8506Y9918D01*
X8514Y9921D01*
Y9925D01*
X8517Y9929D01*
X8532Y9947D01*
X8557Y9965D01*
X8572Y9969D01*
X8594Y9972D01*
X8663Y10082D01*
X8641Y10114D01*
D02*
G37*
G36*
X8601Y10129D02*
X8583D01*
X8565Y10122D01*
X8539Y10118D01*
X8506Y10107D01*
X8459Y10096D01*
X8408Y10082D01*
X8342Y10063D01*
X8273Y10045D01*
X8193Y10023D01*
X8105Y10001D01*
X8011Y9980D01*
X7909Y9954D01*
X7796Y9925D01*
X7679Y9896D01*
X7559Y9867D01*
X7427Y9837D01*
X7406Y9812D01*
X7409Y9808D01*
X7417Y9805D01*
X7431Y9797D01*
X7446Y9786D01*
X7489Y9757D01*
X7541Y9724D01*
X7592Y9692D01*
X7635Y9666D01*
X7653Y9652D01*
X7668Y9644D01*
X7679Y9641D01*
X7683Y9637D01*
X7686D01*
X7694Y9641D01*
X7705Y9644D01*
X7719Y9648D01*
X7756Y9659D01*
X7796Y9673D01*
X7843Y9688D01*
X7883Y9703D01*
X7920Y9717D01*
X7931Y9724D01*
X7941Y9732D01*
Y9739D01*
X7949Y9750D01*
X7956Y9757D01*
X7967Y9765D01*
X7982Y9772D01*
X8000Y9779D01*
X8047Y9772D01*
X8051Y9775D01*
X8058Y9779D01*
X8069Y9786D01*
X8084Y9797D01*
X8102Y9808D01*
X8124Y9823D01*
X8153Y9841D01*
X8186Y9863D01*
X8226Y9888D01*
X8270Y9918D01*
X8324Y9950D01*
X8382Y9987D01*
X8448Y10027D01*
X8521Y10071D01*
X8601Y10122D01*
Y10129D01*
D02*
G37*
G36*
X7205Y9790D02*
X7183D01*
X7180Y9786D01*
X7176Y9779D01*
X7180Y9772D01*
X7187Y9765D01*
X7198Y9757D01*
X7202D01*
X7205Y9761D01*
X7209Y9765D01*
X7212Y9772D01*
Y9779D01*
Y9783D01*
Y9786D01*
X7205Y9790D01*
D02*
G37*
G36*
X5044Y10144D02*
X5051Y10140D01*
X5058Y10133D01*
X5069Y10125D01*
X5084Y10114D01*
X5102Y10100D01*
X5128Y10085D01*
X5153Y10063D01*
X5186Y10042D01*
X5226Y10012D01*
X5270Y9983D01*
X5321Y9947D01*
X5375Y9907D01*
X5437Y9863D01*
X5503Y9816D01*
X5579Y9765D01*
X5587D01*
X5601Y9768D01*
X5616Y9772D01*
X5631D01*
X5634Y9768D01*
X5645Y9765D01*
X5656Y9761D01*
X5667Y9757D01*
X5674Y9761D01*
X5689Y9768D01*
X5711Y9783D01*
X5744Y9801D01*
X5776Y9819D01*
X5816Y9837D01*
X5889Y9874D01*
Y9878D01*
Y9885D01*
X5886Y9896D01*
X5878Y9910D01*
X5871Y9925D01*
X5857Y9936D01*
X5835Y9943D01*
X5809Y9947D01*
X5044Y10144D01*
D02*
G37*
G36*
X4949Y10169D02*
X4945D01*
Y10155D01*
X4949Y10151D01*
X4956Y10140D01*
X4967Y10125D01*
X4982Y10104D01*
X5000Y10082D01*
X5018Y10052D01*
X5062Y9994D01*
X5109Y9936D01*
X5153Y9881D01*
X5171Y9859D01*
X5186Y9845D01*
X5200Y9834D01*
X5208Y9826D01*
X5211D01*
X5222Y9823D01*
X5237Y9819D01*
X5255Y9816D01*
X5281Y9808D01*
X5306Y9801D01*
X5364Y9790D01*
X5423Y9775D01*
X5477Y9761D01*
X5499Y9757D01*
X5518Y9754D01*
X5536Y9750D01*
X5543D01*
X5532Y9757D01*
X5525Y9765D01*
X5510Y9775D01*
X5492Y9786D01*
X5470Y9805D01*
X5437Y9826D01*
X5397Y9856D01*
X5350Y9888D01*
X5292Y9929D01*
X5226Y9976D01*
X5146Y10034D01*
X5055Y10096D01*
X4949Y10169D01*
D02*
G37*
G36*
X8000Y9743D02*
X7982D01*
X7978Y9739D01*
X7974Y9732D01*
Y9710D01*
Y9706D01*
X7978Y9703D01*
X7982Y9699D01*
X7989Y9695D01*
X8011D01*
X8014Y9699D01*
X8018Y9703D01*
X8022Y9710D01*
Y9724D01*
Y9728D01*
X8018Y9732D01*
X8014Y9735D01*
X8000Y9743D01*
D02*
G37*
G36*
X5627Y9739D02*
X5612D01*
X5609Y9735D01*
X5601Y9732D01*
X5590Y9717D01*
X5594Y9714D01*
X5598Y9706D01*
X5605Y9695D01*
X5612Y9692D01*
X5627D01*
X5631Y9695D01*
X5638Y9699D01*
X5645Y9710D01*
Y9717D01*
Y9721D01*
X5641Y9724D01*
X5638Y9732D01*
X5627Y9739D01*
D02*
G37*
G36*
X8528Y9878D02*
X8517D01*
X8503Y9870D01*
X8477Y9863D01*
X8448Y9856D01*
X8412Y9845D01*
X8375Y9830D01*
X8288Y9805D01*
X8204Y9775D01*
X8164Y9761D01*
X8127Y9746D01*
X8098Y9735D01*
X8076Y9724D01*
X8058Y9717D01*
X8054Y9710D01*
Y9703D01*
X8047Y9688D01*
X8040Y9681D01*
X8033Y9673D01*
X8018Y9666D01*
X8000Y9662D01*
X7992D01*
X7945Y9677D01*
X7938Y9673D01*
X7923Y9662D01*
X7898Y9652D01*
X7872Y9633D01*
X7843Y9615D01*
X7814Y9597D01*
X7792Y9582D01*
X7777Y9568D01*
X7785Y9560D01*
X7803Y9549D01*
X7818Y9542D01*
X7832Y9531D01*
X7854Y9517D01*
X7879Y9498D01*
X7912Y9480D01*
X7949Y9455D01*
X7992Y9426D01*
X8040Y9393D01*
X8098Y9356D01*
X8164Y9313D01*
X8528Y9874D01*
Y9878D01*
D02*
G37*
G36*
X5226Y9786D02*
Y9779D01*
X5230Y9772D01*
X5241Y9757D01*
X5259Y9735D01*
X5277Y9714D01*
X5295Y9688D01*
X5313Y9662D01*
X5324Y9648D01*
X5328Y9637D01*
X5335D01*
X5354Y9644D01*
X5401Y9622D01*
X5408Y9626D01*
X5423Y9633D01*
X5448Y9644D01*
X5474Y9659D01*
X5503Y9673D01*
X5528Y9684D01*
X5547Y9692D01*
X5558Y9695D01*
Y9710D01*
X5554D01*
X5543Y9714D01*
X5528Y9717D01*
X5510Y9721D01*
X5485Y9724D01*
X5459Y9732D01*
X5397Y9746D01*
X5339Y9761D01*
X5284Y9772D01*
X5262Y9775D01*
X5244Y9783D01*
X5233D01*
X5226Y9786D01*
D02*
G37*
G36*
X4850Y9867D02*
Y9852D01*
X4843Y9805D01*
X5306Y9615D01*
Y9622D01*
Y9626D01*
X5302Y9630D01*
X5288Y9652D01*
X5266Y9677D01*
X5244Y9710D01*
X5219Y9743D01*
X5197Y9772D01*
X5175Y9790D01*
X5168Y9794D01*
X5160Y9797D01*
X4850Y9867D01*
D02*
G37*
G36*
X7847Y9648D02*
X7836D01*
X7825Y9644D01*
X7807Y9637D01*
X7788Y9633D01*
X7748Y9619D01*
X7734Y9615D01*
X7723D01*
Y9608D01*
X7726Y9604D01*
X7734Y9597D01*
X7745Y9590D01*
X7752D01*
X7756Y9593D01*
X7766Y9597D01*
X7777Y9608D01*
X7796Y9619D01*
X7825Y9637D01*
X7839Y9641D01*
X7847Y9644D01*
Y9648D01*
D02*
G37*
G36*
X7172Y9837D02*
X6367Y9765D01*
Y9757D01*
X6370Y9754D01*
X6385Y9750D01*
X6407Y9739D01*
X6432Y9728D01*
X6465Y9714D01*
X6502Y9699D01*
X6578Y9662D01*
X6658Y9626D01*
X6695Y9611D01*
X6728Y9597D01*
X6757Y9586D01*
X6779Y9575D01*
X6793Y9571D01*
X6801Y9568D01*
X7143Y9779D01*
Y9783D01*
X7147Y9790D01*
X7158Y9805D01*
X7176Y9830D01*
X7172Y9837D01*
D02*
G37*
G36*
X5361Y9604D02*
X5350D01*
X5343Y9601D01*
X5335Y9597D01*
X5328Y9582D01*
Y9575D01*
X5332Y9568D01*
X5339Y9564D01*
X5350Y9557D01*
X5364D01*
X5368Y9560D01*
X5375Y9564D01*
X5383Y9575D01*
Y9582D01*
Y9586D01*
X5379Y9590D01*
X5375Y9597D01*
X5361Y9604D01*
D02*
G37*
G36*
X7263Y9812D02*
X7256Y9808D01*
X7245Y9805D01*
Y9757D01*
X7231Y9739D01*
X7293Y9502D01*
X7635Y9615D01*
Y9622D01*
X7632Y9626D01*
X7621Y9633D01*
X7602Y9648D01*
X7592Y9655D01*
X7573Y9670D01*
X7551Y9684D01*
X7530Y9699D01*
X7497Y9721D01*
X7464Y9743D01*
X7424Y9768D01*
X7380Y9797D01*
X7322D01*
X7311Y9801D01*
X7293Y9805D01*
X7263Y9812D01*
D02*
G37*
G36*
X7150Y9743D02*
X7147D01*
X7136Y9735D01*
X7121Y9728D01*
X7103Y9717D01*
X7078Y9703D01*
X7052Y9688D01*
X6994Y9655D01*
X6935Y9619D01*
X6881Y9590D01*
X6859Y9575D01*
X6841Y9564D01*
X6826Y9557D01*
X6819Y9549D01*
X7081Y9433D01*
X7085D01*
X7092Y9436D01*
X7107Y9440D01*
X7129Y9447D01*
X7154Y9455D01*
X7183Y9466D01*
X7220Y9480D01*
X7263Y9495D01*
Y9498D01*
X7260Y9506D01*
Y9517D01*
X7256Y9528D01*
X7245Y9564D01*
X7238Y9604D01*
X7227Y9648D01*
X7216Y9684D01*
X7209Y9710D01*
Y9721D01*
X7205Y9724D01*
X7202D01*
X7187Y9728D01*
X7169Y9732D01*
X7150Y9743D01*
D02*
G37*
G36*
X4843Y9765D02*
Y9761D01*
Y9746D01*
Y9721D01*
Y9695D01*
X4840Y9662D01*
X4836Y9626D01*
X4829Y9560D01*
X4836Y9528D01*
Y9524D01*
Y9517D01*
X4832Y9502D01*
Y9484D01*
X4829Y9440D01*
Y9393D01*
Y9367D01*
X4821Y9353D01*
X4829D01*
X4840Y9345D01*
X4850Y9338D01*
X4854D01*
X4861Y9342D01*
X4872Y9349D01*
X4891Y9356D01*
X4909Y9367D01*
X4934Y9378D01*
X4993Y9407D01*
X5062Y9440D01*
X5135Y9480D01*
X5215Y9524D01*
X5295Y9568D01*
Y9590D01*
X4843Y9765D01*
D02*
G37*
G36*
X7683Y9597D02*
X7679D01*
X7668Y9593D01*
X7650Y9586D01*
X7624Y9579D01*
X7599Y9568D01*
X7566Y9560D01*
X7497Y9535D01*
X7431Y9513D01*
X7398Y9502D01*
X7369Y9491D01*
X7344Y9480D01*
X7325Y9473D01*
X7315Y9466D01*
X7307Y9462D01*
Y9458D01*
X7311Y9455D01*
Y9444D01*
X7315Y9429D01*
X7322Y9404D01*
X7329Y9375D01*
X7340Y9331D01*
X7347D01*
X7351Y9334D01*
X7362Y9342D01*
X7380Y9353D01*
X7402Y9367D01*
X7427Y9382D01*
X7457Y9404D01*
X7522Y9444D01*
X7588Y9488D01*
X7621Y9506D01*
X7650Y9524D01*
X7672Y9539D01*
X7694Y9549D01*
X7708Y9557D01*
X7715Y9560D01*
Y9568D01*
Y9571D01*
X7712Y9575D01*
X7701Y9586D01*
X7683Y9597D01*
D02*
G37*
G36*
X7271Y9462D02*
X7263D01*
X7249Y9455D01*
X7231Y9447D01*
X7205Y9440D01*
X7180Y9429D01*
X7158Y9422D01*
X7143Y9415D01*
X7136Y9407D01*
X7307Y9327D01*
X7311D01*
Y9331D01*
X7307Y9345D01*
X7304Y9364D01*
X7296Y9389D01*
X7289Y9411D01*
X7282Y9433D01*
X7278Y9451D01*
X7271Y9462D01*
D02*
G37*
G36*
X9615Y10249D02*
X9611D01*
X9596Y10246D01*
X9578Y10238D01*
X9553Y10227D01*
X9516Y10217D01*
X9480Y10206D01*
X9432Y10191D01*
X9385Y10173D01*
X9334Y10158D01*
X9276Y10136D01*
X9155Y10096D01*
X9031Y10052D01*
X8904Y10009D01*
Y9998D01*
Y9983D01*
X8900Y9969D01*
Y9954D01*
X8904Y9947D01*
X8911Y9925D01*
X8926Y9896D01*
X8944Y9852D01*
X8962Y9805D01*
X8988Y9750D01*
X9013Y9692D01*
X9039Y9633D01*
X9090Y9513D01*
X9111Y9458D01*
X9137Y9407D01*
X9155Y9364D01*
X9170Y9331D01*
X9181Y9309D01*
X9184Y9302D01*
X9188Y9298D01*
X9243D01*
X9625Y10242D01*
X9615Y10249D01*
D02*
G37*
G36*
X6308Y9757D02*
X5678Y9703D01*
Y9692D01*
X5685Y9688D01*
X5703Y9673D01*
X5733Y9655D01*
X5773Y9626D01*
X5816Y9597D01*
X5867Y9560D01*
X5922Y9524D01*
X5980Y9488D01*
X6093Y9411D01*
X6144Y9375D01*
X6192Y9345D01*
X6236Y9316D01*
X6268Y9298D01*
X6290Y9283D01*
X6301Y9280D01*
X6305D01*
X6308Y9283D01*
X6330Y9298D01*
X6367Y9320D01*
X6418Y9353D01*
X6480Y9389D01*
X6556Y9433D01*
X6647Y9484D01*
X6753Y9542D01*
Y9557D01*
X6308Y9757D01*
D02*
G37*
G36*
X9673Y10231D02*
X9669Y10227D01*
X9662Y10220D01*
X9655Y10206D01*
X9640Y10180D01*
X9625Y10144D01*
X9615Y10122D01*
X9607Y10096D01*
X9593Y10063D01*
X9582Y10027D01*
X9578Y10023D01*
X9574Y10009D01*
X9563Y9987D01*
X9553Y9958D01*
X9538Y9925D01*
X9520Y9881D01*
X9498Y9837D01*
X9476Y9783D01*
X9450Y9728D01*
X9429Y9670D01*
X9374Y9546D01*
X9319Y9415D01*
X9268Y9287D01*
X9290Y9272D01*
X9294Y9276D01*
X9308Y9287D01*
X9330Y9305D01*
X9356Y9331D01*
X9389Y9364D01*
X9421Y9400D01*
X9461Y9444D01*
X9502Y9495D01*
X9538Y9549D01*
X9578Y9608D01*
X9611Y9673D01*
X9644Y9739D01*
X9669Y9812D01*
X9691Y9888D01*
X9706Y9969D01*
X9709Y10049D01*
Y10052D01*
Y10060D01*
Y10074D01*
X9706Y10096D01*
X9702Y10122D01*
X9695Y10155D01*
X9684Y10191D01*
X9673Y10231D01*
D02*
G37*
G36*
X4821Y9320D02*
X4807D01*
X4803Y9316D01*
X4796Y9313D01*
X4789Y9298D01*
Y9287D01*
Y9283D01*
X4792Y9280D01*
X4796Y9276D01*
X4803Y9272D01*
X4825D01*
X4829Y9276D01*
X4832Y9280D01*
X4836Y9287D01*
Y9305D01*
Y9309D01*
Y9313D01*
X4829Y9316D01*
X4821Y9320D01*
D02*
G37*
G36*
X4355Y9961D02*
X4351Y9947D01*
X4526Y9272D01*
X4559D01*
Y9280D01*
X4566Y9294D01*
X4570Y9320D01*
X4581Y9349D01*
X4592Y9389D01*
X4603Y9433D01*
X4628Y9524D01*
X4657Y9622D01*
X4668Y9670D01*
X4683Y9710D01*
X4694Y9750D01*
X4701Y9779D01*
X4712Y9805D01*
X4716Y9819D01*
X4708Y9823D01*
X4690Y9830D01*
X4657Y9845D01*
X4614Y9863D01*
X4563Y9881D01*
X4501Y9907D01*
X4431Y9932D01*
X4355Y9961D01*
D02*
G37*
G36*
X4038Y10238D02*
X4034D01*
Y10235D01*
X4027Y10224D01*
X4019Y10202D01*
X4012Y10176D01*
X4005Y10147D01*
X3998Y10111D01*
X3994Y10074D01*
X3990Y10034D01*
Y10031D01*
Y10016D01*
X3994Y9991D01*
X3998Y9961D01*
X4005Y9921D01*
X4012Y9878D01*
X4027Y9830D01*
X4045Y9775D01*
X4067Y9717D01*
X4096Y9655D01*
X4132Y9590D01*
X4173Y9524D01*
X4224Y9458D01*
X4282Y9393D01*
X4347Y9327D01*
X4424Y9265D01*
Y9272D01*
X4038Y10238D01*
D02*
G37*
G36*
X4767Y9797D02*
X4741D01*
Y9790D01*
X4734Y9775D01*
X4727Y9750D01*
X4719Y9717D01*
X4708Y9681D01*
X4694Y9637D01*
X4668Y9542D01*
X4639Y9444D01*
X4628Y9396D01*
X4614Y9356D01*
X4606Y9316D01*
X4599Y9287D01*
X4592Y9265D01*
Y9251D01*
X4599D01*
X4606Y9247D01*
X4614Y9240D01*
X4632Y9225D01*
X4639D01*
X4654Y9232D01*
X4672Y9240D01*
X4697Y9251D01*
X4723Y9265D01*
X4741Y9280D01*
X4756Y9298D01*
X4763Y9320D01*
X4767Y9323D01*
X4774Y9338D01*
X4789Y9349D01*
X4803Y9353D01*
Y9356D01*
X4796Y9360D01*
Y9364D01*
X4803Y9378D01*
Y9389D01*
Y9407D01*
Y9418D01*
Y9436D01*
X4807Y9458D01*
Y9488D01*
Y9520D01*
Y9560D01*
X4810Y9604D01*
Y9659D01*
X4814Y9717D01*
Y9786D01*
X4807Y9790D01*
X4789Y9794D01*
X4767Y9797D01*
D02*
G37*
G36*
X6779Y9535D02*
X6771Y9531D01*
X6760Y9524D01*
X6750Y9517D01*
X6731Y9506D01*
X6713Y9491D01*
X6662Y9462D01*
X6593Y9422D01*
X6513Y9375D01*
X6421Y9323D01*
X6312Y9265D01*
Y9262D01*
X6316Y9258D01*
X6323Y9254D01*
X6334Y9247D01*
X6349Y9236D01*
X6367Y9221D01*
X6396Y9203D01*
X6403D01*
X6411Y9207D01*
X6421Y9210D01*
X6436Y9214D01*
X6458Y9221D01*
X6487Y9229D01*
X6520Y9240D01*
X6564Y9254D01*
X6615Y9272D01*
X6677Y9294D01*
X6746Y9316D01*
X6830Y9345D01*
X6924Y9378D01*
X7034Y9415D01*
X7030Y9418D01*
X7019Y9426D01*
X7001Y9436D01*
X6990Y9444D01*
X6972Y9451D01*
X6950Y9462D01*
X6928Y9473D01*
X6895Y9488D01*
X6863Y9502D01*
X6822Y9517D01*
X6779Y9535D01*
D02*
G37*
G36*
X8878Y9925D02*
X8871D01*
Y9921D01*
Y9918D01*
X8878Y9903D01*
X8882Y9885D01*
X8893Y9856D01*
X8900Y9823D01*
X8915Y9783D01*
X8929Y9735D01*
X8944Y9688D01*
X8958Y9633D01*
X8977Y9575D01*
X9013Y9455D01*
X9050Y9327D01*
X9086Y9196D01*
X9093D01*
Y9203D01*
X9101Y9221D01*
X9119Y9251D01*
X9130Y9269D01*
X9148Y9291D01*
X9144Y9298D01*
X9137Y9316D01*
X9122Y9345D01*
X9108Y9385D01*
X9086Y9433D01*
X9064Y9484D01*
X9042Y9542D01*
X9017Y9597D01*
X8966Y9714D01*
X8944Y9768D01*
X8922Y9816D01*
X8907Y9856D01*
X8893Y9892D01*
X8882Y9914D01*
X8878Y9925D01*
D02*
G37*
G36*
X9210Y9243D02*
X9203D01*
X9184Y9236D01*
X9163Y9221D01*
X9155Y9210D01*
X9148Y9192D01*
Y9189D01*
Y9185D01*
X9155Y9163D01*
X9166Y9152D01*
X9177Y9145D01*
X9195Y9134D01*
X9217Y9130D01*
X9224D01*
X9239Y9138D01*
X9250Y9145D01*
X9257Y9156D01*
X9265Y9170D01*
X9268Y9192D01*
Y9196D01*
Y9200D01*
X9261Y9214D01*
X9254Y9225D01*
X9243Y9232D01*
X9228Y9240D01*
X9210Y9243D01*
D02*
G37*
G36*
X4081Y9178D02*
X4078D01*
X4067Y9170D01*
X4060Y9163D01*
X4052Y9149D01*
Y9145D01*
X4060Y9138D01*
X4074Y9127D01*
X4092Y9123D01*
X4107Y9145D01*
Y9156D01*
Y9159D01*
X4103Y9163D01*
X4096Y9170D01*
X4081Y9178D01*
D02*
G37*
G36*
X9108Y9138D02*
X9104Y9134D01*
X9093Y9130D01*
X9082Y9119D01*
X9075Y9108D01*
Y9105D01*
X9082Y9097D01*
X9097Y9087D01*
X9115Y9083D01*
X9119Y9087D01*
X9122Y9094D01*
X9126Y9101D01*
Y9105D01*
Y9116D01*
X9122Y9123D01*
X9119Y9127D01*
X9108Y9138D01*
D02*
G37*
G36*
X9425Y9156D02*
X9316D01*
Y9152D01*
X9312Y9145D01*
X9305Y9130D01*
X9294Y9116D01*
X9279Y9101D01*
X9265Y9087D01*
X9243Y9079D01*
X9221Y9076D01*
X9192D01*
X9184Y9079D01*
X9170Y9083D01*
X9155Y9090D01*
Y9087D01*
X9152Y9076D01*
X9148Y9065D01*
X9133Y9061D01*
Y9057D01*
X9137Y9050D01*
X9141Y9036D01*
X9148Y9017D01*
X9155Y8995D01*
X9163Y8970D01*
X9181Y8908D01*
X9203Y8839D01*
X9224Y8762D01*
X9246Y8689D01*
X9265Y8616D01*
X9305D01*
X9323Y8605D01*
X9327D01*
X9330Y8609D01*
X9348Y8624D01*
X9378Y8646D01*
X9414Y8678D01*
X9454Y8722D01*
X9494Y8777D01*
X9534Y8846D01*
X9567Y8926D01*
Y8930D01*
X9571Y8941D01*
X9574Y8959D01*
X9578Y8981D01*
X9585Y9036D01*
X9593Y9090D01*
Y9094D01*
Y9101D01*
X9589Y9108D01*
X9582Y9119D01*
X9567Y9130D01*
X9549Y9141D01*
X9523Y9145D01*
X9491Y9149D01*
X9483D01*
X9461Y9152D01*
X9425Y9156D01*
D02*
G37*
G36*
X4537Y9218D02*
X4533D01*
X4526Y9214D01*
X4501Y9203D01*
X4475Y9181D01*
X4468Y9163D01*
X4464Y9145D01*
Y9141D01*
Y9134D01*
X4468Y9127D01*
X4475Y9112D01*
X4482Y9101D01*
X4497Y9090D01*
X4519Y9079D01*
X4544Y9076D01*
X4548D01*
X4555Y9079D01*
X4577Y9094D01*
X4595Y9116D01*
X4603Y9130D01*
X4606Y9145D01*
Y9149D01*
Y9152D01*
X4599Y9170D01*
X4588Y9181D01*
X4577Y9196D01*
X4559Y9207D01*
X4537Y9218D01*
D02*
G37*
G36*
X7752Y9557D02*
X7748Y9553D01*
X7737Y9546D01*
X7719Y9535D01*
X7694Y9520D01*
X7664Y9502D01*
X7635Y9484D01*
X7566Y9440D01*
X7493Y9396D01*
X7460Y9375D01*
X7431Y9356D01*
X7406Y9338D01*
X7384Y9327D01*
X7366Y9316D01*
X7358Y9313D01*
Y9298D01*
X7362D01*
X7369Y9294D01*
X7380Y9291D01*
X7398Y9283D01*
X7420Y9276D01*
X7449Y9265D01*
X7479Y9254D01*
X7519Y9240D01*
X7559Y9225D01*
X7606Y9207D01*
X7657Y9189D01*
X7715Y9167D01*
X7777Y9141D01*
X7843Y9116D01*
X7916Y9087D01*
X7992Y9057D01*
Y9061D01*
X8000Y9068D01*
X8007Y9079D01*
X8014Y9090D01*
X8040Y9127D01*
X8069Y9170D01*
X8095Y9210D01*
X8120Y9247D01*
X8135Y9276D01*
X8142Y9287D01*
Y9291D01*
X8138Y9294D01*
X8127Y9302D01*
X8105Y9313D01*
X8084Y9331D01*
X8054Y9349D01*
X8022Y9371D01*
X7949Y9418D01*
X7879Y9466D01*
X7847Y9488D01*
X7818Y9509D01*
X7792Y9528D01*
X7770Y9542D01*
X7759Y9553D01*
X7752Y9557D01*
D02*
G37*
G36*
X6294Y9240D02*
X6290D01*
X6283Y9236D01*
X6265Y9225D01*
X6236Y9210D01*
X6214Y9200D01*
X6192Y9189D01*
X6163Y9174D01*
X6130Y9156D01*
X6093Y9134D01*
X6053Y9112D01*
X6006Y9087D01*
X5955Y9057D01*
Y9050D01*
X5966D01*
X5973Y9054D01*
X5988Y9061D01*
X6006Y9065D01*
X6031Y9076D01*
X6057Y9083D01*
X6115Y9105D01*
X6181Y9127D01*
X6247Y9149D01*
X6308Y9170D01*
X6334Y9178D01*
X6360Y9185D01*
Y9196D01*
X6356D01*
X6345Y9203D01*
X6327Y9214D01*
X6312Y9225D01*
X6294Y9240D01*
D02*
G37*
G36*
X5572Y9677D02*
X5565D01*
X5558Y9673D01*
X5543Y9666D01*
X5518Y9652D01*
X5492Y9637D01*
X5463Y9619D01*
X5437Y9604D01*
X5423Y9593D01*
X5415Y9582D01*
Y9575D01*
X5412Y9560D01*
X5408Y9542D01*
Y9528D01*
X5412Y9524D01*
X5423Y9506D01*
X5441Y9484D01*
X5466Y9455D01*
X5496Y9418D01*
X5525Y9375D01*
X5594Y9287D01*
X5663Y9200D01*
X5692Y9156D01*
X5722Y9119D01*
X5747Y9087D01*
X5765Y9061D01*
X5776Y9043D01*
X5780Y9036D01*
X5809Y9043D01*
X5816D01*
X5831Y9039D01*
X5842Y9032D01*
X5849Y9025D01*
Y9021D01*
X5853Y9025D01*
X5867Y9032D01*
X5886Y9043D01*
X5911Y9057D01*
X5940Y9076D01*
X5973Y9094D01*
X6046Y9138D01*
X6119Y9178D01*
X6155Y9196D01*
X6185Y9214D01*
X6210Y9229D01*
X6232Y9240D01*
X6247Y9247D01*
X6254Y9251D01*
Y9258D01*
X6250Y9262D01*
X6243Y9269D01*
X6232Y9276D01*
X6217Y9287D01*
X6195Y9302D01*
X6170Y9320D01*
X6137Y9342D01*
X6101Y9371D01*
X6053Y9404D01*
X5995Y9444D01*
X5929Y9488D01*
X5853Y9542D01*
X5765Y9601D01*
X5667Y9670D01*
X5663Y9666D01*
X5652Y9662D01*
X5641Y9659D01*
X5627Y9655D01*
X5616D01*
X5605Y9659D01*
X5590Y9666D01*
X5572Y9677D01*
D02*
G37*
G36*
X4774Y9251D02*
X4767D01*
X4759Y9247D01*
X4748Y9243D01*
X4730Y9236D01*
X4712Y9225D01*
X4686Y9210D01*
X4654Y9192D01*
Y9097D01*
X4756Y9014D01*
X4759Y9017D01*
X4767Y9021D01*
X4778Y9025D01*
X4789Y9028D01*
Y9138D01*
Y9145D01*
Y9163D01*
X4792Y9196D01*
X4796Y9240D01*
X4774Y9251D01*
D02*
G37*
G36*
X7089Y9393D02*
X7081D01*
X7074Y9389D01*
X7056Y9385D01*
X7023Y9375D01*
X6983Y9360D01*
X6932Y9342D01*
X6881Y9327D01*
X6822Y9305D01*
X6764Y9287D01*
X6702Y9265D01*
X6644Y9247D01*
X6593Y9229D01*
X6542Y9210D01*
X6502Y9196D01*
X6473Y9185D01*
X6451Y9174D01*
X6447Y9170D01*
X6443D01*
X6447Y9167D01*
X6454Y9163D01*
X6469Y9152D01*
X6487Y9141D01*
X6531Y9108D01*
X6586Y9072D01*
X6640Y9036D01*
X6695Y9003D01*
X6717Y8988D01*
X6739Y8977D01*
X6753Y8966D01*
X6764Y8963D01*
X6768D01*
X6775Y8970D01*
X6782Y8977D01*
X6797Y8985D01*
X6815Y8999D01*
X6837Y9014D01*
X6866Y9032D01*
X6899Y9054D01*
X6943Y9079D01*
X6990Y9112D01*
X7052Y9149D01*
X7118Y9189D01*
X7198Y9236D01*
X7285Y9291D01*
X7293Y9305D01*
X7289D01*
X7285Y9309D01*
X7263Y9320D01*
X7231Y9334D01*
X7194Y9349D01*
X7158Y9364D01*
X7121Y9378D01*
X7096Y9389D01*
X7089Y9393D01*
D02*
G37*
G36*
X5809Y9010D02*
X5805D01*
X5798Y9003D01*
X5787Y8995D01*
X5780Y8981D01*
Y8977D01*
X5787Y8970D01*
X5795Y8963D01*
X5809Y8955D01*
X5813D01*
X5820Y8963D01*
X5831Y8970D01*
X5835Y8981D01*
Y8985D01*
X5831Y8992D01*
X5824Y9003D01*
X5809Y9010D01*
D02*
G37*
G36*
X4409Y9138D02*
X4169D01*
Y9130D01*
X4584Y8955D01*
Y8963D01*
Y8966D01*
X4581Y8974D01*
X4577Y8992D01*
X4566Y9014D01*
X4563Y9017D01*
X4559Y9021D01*
X4555D01*
X4537Y9014D01*
X4533D01*
X4519Y9021D01*
X4497Y9028D01*
X4475Y9039D01*
X4450Y9057D01*
X4431Y9079D01*
X4417Y9105D01*
X4409Y9138D01*
D02*
G37*
G36*
X4807Y8995D02*
X4785D01*
X4781Y8992D01*
X4778Y8988D01*
X4774Y8981D01*
Y8963D01*
Y8959D01*
X4778Y8955D01*
X4781Y8952D01*
X4789Y8948D01*
X4821Y8955D01*
Y8981D01*
Y8985D01*
Y8988D01*
X4814Y8992D01*
X4807Y8995D01*
D02*
G37*
G36*
X8798Y9972D02*
X8791D01*
X8773Y9965D01*
X8747Y9958D01*
X8718Y9947D01*
X8685Y9936D01*
X8660Y9925D01*
X8641Y9918D01*
X8638Y9910D01*
X8634Y9907D01*
Y9903D01*
Y9899D01*
X8630Y9892D01*
X8623Y9881D01*
X8612Y9870D01*
X8598Y9859D01*
X8576Y9852D01*
X8547Y9845D01*
X8189Y9291D01*
X8193D01*
X8200Y9283D01*
X8211Y9276D01*
X8226Y9265D01*
X8248Y9251D01*
X8273Y9236D01*
X8302Y9218D01*
X8335Y9196D01*
X8372Y9170D01*
X8412Y9141D01*
X8503Y9083D01*
X8605Y9010D01*
X8721Y8933D01*
X8725D01*
X8732Y8941D01*
X8747Y8948D01*
X8769Y8955D01*
X8816Y8981D01*
X8871Y9010D01*
X8929Y9039D01*
X8980Y9068D01*
X9002Y9083D01*
X9024Y9094D01*
X9039Y9101D01*
X9046Y9108D01*
Y9112D01*
X9050Y9127D01*
X9057Y9141D01*
X9075Y9163D01*
Y9167D01*
X9071Y9170D01*
Y9181D01*
X9064Y9196D01*
X9053Y9232D01*
X9039Y9280D01*
X9024Y9338D01*
X9002Y9400D01*
X8984Y9469D01*
X8962Y9539D01*
X8918Y9681D01*
X8896Y9746D01*
X8878Y9808D01*
X8860Y9863D01*
X8849Y9907D01*
X8838Y9936D01*
X8834Y9947D01*
X8831Y9954D01*
X8827D01*
X8824Y9958D01*
X8813Y9961D01*
X8798Y9972D01*
D02*
G37*
G36*
X4639Y9068D02*
X4635Y9065D01*
X4621Y9061D01*
X4606Y9046D01*
X4592Y9028D01*
Y9025D01*
X4595Y9014D01*
X4603Y8995D01*
X4610Y8977D01*
X4617Y8955D01*
X4632Y8941D01*
X4643Y8926D01*
X4661Y8923D01*
X4665Y8919D01*
X4676Y8915D01*
X4694Y8908D01*
X4716Y8901D01*
X4756Y8882D01*
X4770Y8879D01*
X4781Y8875D01*
Y8908D01*
X4778Y8912D01*
X4774Y8915D01*
X4759Y8933D01*
X4741Y8966D01*
X4737Y8985D01*
X4734Y9003D01*
X4730D01*
X4727Y9006D01*
X4705Y9021D01*
X4676Y9043D01*
X4639Y9068D01*
D02*
G37*
G36*
X8171Y9265D02*
X8029Y9043D01*
X8547Y8839D01*
X8550Y8842D01*
X8565Y8850D01*
X8583Y8857D01*
X8605Y8872D01*
X8652Y8897D01*
X8678Y8908D01*
X8696Y8915D01*
Y8926D01*
X8685Y8930D01*
X8678Y8937D01*
X8667Y8944D01*
X8652Y8952D01*
X8630Y8966D01*
X8605Y8985D01*
X8572Y9003D01*
X8532Y9028D01*
X8485Y9061D01*
X8430Y9097D01*
X8368Y9138D01*
X8295Y9189D01*
X8211Y9243D01*
X8208Y9247D01*
X8197Y9254D01*
X8182Y9262D01*
X8171Y9265D01*
D02*
G37*
G36*
X4843Y8926D02*
X4840D01*
X4832Y8923D01*
X4818Y8919D01*
X4807Y8915D01*
Y8853D01*
X4814D01*
X4825Y8846D01*
X4847Y8839D01*
X4865Y8831D01*
X4883Y8824D01*
X4909Y8813D01*
X4938Y8802D01*
X4971Y8788D01*
X5011Y8773D01*
X5055Y8755D01*
X5106Y8733D01*
X4843Y8926D01*
D02*
G37*
G36*
X5383Y9520D02*
X5375D01*
X5372Y9517D01*
X5368Y9502D01*
X5364Y9491D01*
X5361Y9480D01*
X5357Y9462D01*
X5354Y9440D01*
X5350Y9415D01*
X5346Y9382D01*
X5343Y9345D01*
X5339Y9302D01*
X5332Y9251D01*
X5328Y9192D01*
X5324Y9185D01*
Y9178D01*
Y9167D01*
X5321Y9152D01*
X5317Y9130D01*
X5313Y9105D01*
X5310Y9072D01*
X5306Y9032D01*
X5299Y8988D01*
X5292Y8930D01*
X5284Y8864D01*
X5277Y8791D01*
X5266Y8704D01*
X5273D01*
X5288Y8697D01*
X5292D01*
X5295Y8700D01*
X5306Y8707D01*
X5321Y8715D01*
X5343Y8726D01*
X5364Y8740D01*
X5419Y8769D01*
X5485Y8810D01*
X5565Y8853D01*
X5652Y8908D01*
X5747Y8966D01*
Y8970D01*
X5751Y8981D01*
X5754Y8999D01*
X5762Y9028D01*
X5383Y9520D01*
D02*
G37*
G36*
X5313Y9542D02*
X4869Y9313D01*
Y9291D01*
Y9287D01*
Y9283D01*
X4861Y9265D01*
X4847Y9247D01*
X4836Y9243D01*
X4821Y9240D01*
Y9236D01*
Y9225D01*
X4818Y9207D01*
Y9189D01*
X4814Y9145D01*
Y9123D01*
Y9105D01*
Y9028D01*
X4821D01*
X4825Y9025D01*
X4832Y9017D01*
X4843Y9006D01*
X4850Y8992D01*
X4858Y8970D01*
X4861Y8941D01*
X4865Y8937D01*
X4872Y8933D01*
X4887Y8923D01*
X4905Y8912D01*
X4949Y8879D01*
X5004Y8842D01*
X5062Y8802D01*
X5117Y8762D01*
X5164Y8726D01*
X5186Y8711D01*
X5200Y8697D01*
X5204D01*
X5208Y8700D01*
X5215Y8704D01*
X5226Y8715D01*
X5233Y8733D01*
X5241Y8759D01*
X5244Y8795D01*
X5248Y8846D01*
X5335Y9520D01*
X5328Y9524D01*
X5321Y9531D01*
X5313Y9542D01*
D02*
G37*
G36*
X5241Y8678D02*
X5237D01*
X5233Y8675D01*
X5219Y8671D01*
Y8646D01*
Y8642D01*
X5222Y8638D01*
X5226Y8635D01*
X5233Y8631D01*
X5259D01*
X5262Y8635D01*
X5266Y8638D01*
Y8646D01*
Y8656D01*
Y8660D01*
X5262Y8667D01*
X5255Y8675D01*
X5241Y8678D01*
D02*
G37*
G36*
X8718Y8901D02*
X8711D01*
X8703Y8897D01*
X8689Y8890D01*
X8670Y8879D01*
X8645Y8868D01*
X8619Y8853D01*
X8601Y8842D01*
X8587Y8831D01*
X8579Y8828D01*
X9163Y8605D01*
X9170D01*
Y8609D01*
X9166Y8613D01*
X9152Y8620D01*
X9130Y8635D01*
X9101Y8656D01*
X9068Y8678D01*
X9028Y8700D01*
X8947Y8755D01*
X8864Y8810D01*
X8827Y8831D01*
X8791Y8857D01*
X8762Y8875D01*
X8740Y8890D01*
X8725Y8897D01*
X8718Y8901D01*
D02*
G37*
G36*
X9039Y9076D02*
X9035D01*
X9028Y9068D01*
X9013Y9061D01*
X8995Y9050D01*
X8947Y9028D01*
X8896Y8999D01*
X8842Y8970D01*
X8794Y8944D01*
X8776Y8933D01*
X8762Y8923D01*
X8754Y8919D01*
X8751Y8915D01*
X8754D01*
X8762Y8908D01*
X8769Y8904D01*
X8783Y8897D01*
X8798Y8886D01*
X8820Y8872D01*
X8845Y8853D01*
X8878Y8831D01*
X8918Y8806D01*
X8966Y8777D01*
X9020Y8740D01*
X9082Y8700D01*
X9155Y8653D01*
X9235Y8598D01*
Y8602D01*
X9243Y8605D01*
Y8609D01*
X9239Y8620D01*
X9232Y8642D01*
X9224Y8664D01*
X9217Y8697D01*
X9206Y8729D01*
X9184Y8802D01*
X9159Y8879D01*
X9137Y8952D01*
X9126Y8985D01*
X9115Y9010D01*
X9108Y9036D01*
X9101Y9050D01*
X9097D01*
X9086Y9054D01*
X9068Y9061D01*
X9039Y9076D01*
D02*
G37*
G36*
X6400Y9163D02*
X5977Y9021D01*
X5973D01*
X5959Y9014D01*
X5937Y9006D01*
X5915Y8999D01*
X5893Y8988D01*
X5871Y8974D01*
X5857Y8963D01*
X5853Y8948D01*
X6130Y8569D01*
X6137Y8573D01*
X6152Y8584D01*
X6181Y8598D01*
X6214Y8620D01*
X6254Y8646D01*
X6301Y8675D01*
X6352Y8704D01*
X6403Y8737D01*
X6509Y8806D01*
X6556Y8835D01*
X6604Y8864D01*
X6644Y8893D01*
X6680Y8915D01*
X6706Y8933D01*
X6724Y8948D01*
X6717Y8952D01*
X6702Y8963D01*
X6677Y8981D01*
X6658Y8992D01*
X6637Y9006D01*
X6607Y9025D01*
X6578Y9043D01*
X6542Y9068D01*
X6502Y9094D01*
X6454Y9127D01*
X6400Y9163D01*
D02*
G37*
G36*
X9290Y8584D02*
X9272D01*
X9265Y8580D01*
X9254Y8569D01*
X9243Y8551D01*
X9246Y8547D01*
X9250Y8533D01*
X9261Y8522D01*
X9268Y8514D01*
X9283D01*
X9294Y8518D01*
X9308Y8525D01*
X9316Y8536D01*
Y8543D01*
Y8547D01*
Y8551D01*
X9312Y8565D01*
X9297Y8576D01*
X9290Y8584D01*
D02*
G37*
G36*
X4632Y8893D02*
Y8886D01*
Y8882D01*
X4635Y8872D01*
X4643Y8853D01*
X4650Y8828D01*
X4661Y8799D01*
X4668Y8769D01*
X4690Y8697D01*
X4712Y8624D01*
X4734Y8554D01*
X4741Y8525D01*
X4748Y8500D01*
X4752Y8481D01*
X4756Y8467D01*
X4763D01*
Y8471D01*
Y8481D01*
Y8500D01*
X4767Y8522D01*
Y8547D01*
Y8580D01*
X4770Y8646D01*
X4770Y8711D01*
Y8740D01*
X4774Y8769D01*
Y8791D01*
Y8813D01*
Y8824D01*
Y8831D01*
X4767Y8835D01*
X4752Y8842D01*
X4730Y8850D01*
X4708Y8864D01*
X4683Y8875D01*
X4657Y8882D01*
X4643Y8890D01*
X4632Y8893D01*
D02*
G37*
G36*
X4154Y9097D02*
X4158Y9090D01*
X4176Y9076D01*
X4198Y9050D01*
X4231Y9014D01*
X4267Y8974D01*
X4307Y8926D01*
X4355Y8875D01*
X4402Y8820D01*
X4501Y8715D01*
X4548Y8660D01*
X4595Y8609D01*
X4635Y8565D01*
X4672Y8525D01*
X4705Y8492D01*
X4727Y8467D01*
Y8474D01*
Y8478D01*
X4723Y8492D01*
X4716Y8514D01*
X4708Y8543D01*
X4697Y8576D01*
X4686Y8613D01*
X4665Y8697D01*
X4639Y8777D01*
X4628Y8813D01*
X4621Y8846D01*
X4610Y8875D01*
X4603Y8897D01*
X4595Y8912D01*
X4592Y8915D01*
X4154Y9097D01*
D02*
G37*
G36*
X4114Y9090D02*
Y9068D01*
Y9065D01*
Y9050D01*
X4118Y9028D01*
X4121Y8999D01*
X4132Y8966D01*
X4143Y8926D01*
X4162Y8882D01*
X4183Y8835D01*
X4216Y8788D01*
X4253Y8737D01*
X4296Y8686D01*
X4351Y8635D01*
X4417Y8587D01*
X4493Y8543D01*
X4581Y8500D01*
X4679Y8463D01*
X4676Y8471D01*
X4668Y8478D01*
X4657Y8489D01*
X4643Y8507D01*
X4624Y8529D01*
X4599Y8554D01*
X4573Y8587D01*
X4537Y8624D01*
X4497Y8667D01*
X4453Y8718D01*
X4399Y8777D01*
X4340Y8842D01*
X4271Y8915D01*
X4198Y8999D01*
X4114Y9090D01*
D02*
G37*
G36*
X7358Y9272D02*
Y9265D01*
X7577Y8427D01*
X7588D01*
X7592Y8430D01*
X7595Y8438D01*
X7602Y8449D01*
X7610Y8463D01*
X7624Y8481D01*
X7639Y8507D01*
X7657Y8536D01*
X7679Y8573D01*
X7708Y8613D01*
X7737Y8664D01*
X7774Y8718D01*
X7814Y8780D01*
X7861Y8853D01*
X7916Y8933D01*
X7974Y9021D01*
Y9036D01*
X7358Y9272D01*
D02*
G37*
G36*
X7325Y9287D02*
X7318Y9283D01*
X7304Y9272D01*
X7278Y9258D01*
X7242Y9236D01*
X7202Y9210D01*
X7158Y9181D01*
X7059Y9119D01*
X6961Y9057D01*
X6917Y9028D01*
X6873Y9003D01*
X6841Y8981D01*
X6812Y8963D01*
X6793Y8948D01*
X6786Y8941D01*
Y8933D01*
X7548Y8427D01*
Y8434D01*
Y8441D01*
X7541Y8456D01*
X7533Y8481D01*
X7526Y8518D01*
X7515Y8562D01*
X7500Y8609D01*
X7486Y8667D01*
X7471Y8726D01*
X7453Y8791D01*
X7435Y8861D01*
X7398Y9003D01*
X7362Y9149D01*
X7325Y9287D01*
D02*
G37*
G36*
X4803Y8820D02*
Y8813D01*
Y8810D01*
Y8795D01*
Y8769D01*
Y8729D01*
X4799Y8682D01*
X4796Y8616D01*
Y8580D01*
X4792Y8540D01*
Y8496D01*
X4789Y8449D01*
X4792Y8445D01*
X4803Y8438D01*
X4818Y8430D01*
X4836Y8427D01*
X4840Y8430D01*
X4850Y8438D01*
X4872Y8452D01*
X4905Y8474D01*
X4927Y8485D01*
X4949Y8500D01*
X4978Y8518D01*
X5011Y8536D01*
X5047Y8558D01*
X5091Y8584D01*
X5135Y8609D01*
X5186Y8638D01*
Y8649D01*
X5179Y8656D01*
X5160Y8664D01*
X5146Y8671D01*
X5131Y8682D01*
X5109Y8689D01*
X5084Y8704D01*
X5051Y8715D01*
X5015Y8733D01*
X4971Y8751D01*
X4923Y8773D01*
X4869Y8795D01*
X4803Y8820D01*
D02*
G37*
G36*
X8007Y9014D02*
X8003Y9006D01*
X7992Y8988D01*
X7971Y8959D01*
X7949Y8923D01*
X7920Y8879D01*
X7887Y8828D01*
X7818Y8722D01*
X7745Y8613D01*
X7712Y8562D01*
X7683Y8514D01*
X7661Y8478D01*
X7643Y8445D01*
X7628Y8427D01*
X7624Y8416D01*
X7632D01*
X7635Y8412D01*
X7653Y8401D01*
X7668Y8390D01*
X7672Y8383D01*
X7675Y8379D01*
X7679D01*
X7686Y8383D01*
X7697Y8390D01*
X7712Y8398D01*
X7752Y8420D01*
X7803Y8449D01*
X7865Y8481D01*
X7934Y8518D01*
X8011Y8554D01*
X8087Y8598D01*
X8164Y8638D01*
X8240Y8678D01*
X8310Y8715D01*
X8375Y8751D01*
X8430Y8780D01*
X8470Y8802D01*
X8488Y8813D01*
X8499Y8820D01*
X8510Y8824D01*
X8514Y8828D01*
X8510Y8831D01*
X8492Y8835D01*
X8470Y8846D01*
X8437Y8857D01*
X8401Y8872D01*
X8357Y8886D01*
X8266Y8923D01*
X8175Y8955D01*
X8131Y8970D01*
X8091Y8985D01*
X8058Y8995D01*
X8033Y9006D01*
X8014Y9010D01*
X8007Y9014D01*
D02*
G37*
G36*
X5765Y8941D02*
X5758Y8937D01*
X5751Y8933D01*
X5740Y8926D01*
X5725Y8919D01*
X5707Y8908D01*
X5682Y8893D01*
X5652Y8875D01*
X5612Y8853D01*
X5569Y8828D01*
X5518Y8795D01*
X5456Y8759D01*
X5383Y8718D01*
X5302Y8671D01*
Y8624D01*
X5306Y8620D01*
X5317Y8616D01*
X5335Y8602D01*
X5364Y8580D01*
X5408Y8551D01*
X5434Y8533D01*
X5466Y8511D01*
X5499Y8489D01*
X5539Y8460D01*
X5583Y8427D01*
X5631Y8394D01*
X5638Y8398D01*
X5652Y8405D01*
X5674Y8412D01*
X5700Y8416D01*
X5722D01*
X5747Y8409D01*
X5780Y8398D01*
X5798Y8383D01*
X5820Y8368D01*
X6104Y8558D01*
Y8562D01*
X5835Y8926D01*
X5802Y8923D01*
X5795Y8926D01*
X5784Y8930D01*
X5773Y8933D01*
X5765Y8941D01*
D02*
G37*
G36*
X8547Y8813D02*
X8539Y8810D01*
X8517Y8799D01*
X8485Y8780D01*
X8444Y8759D01*
X8393Y8733D01*
X8335Y8704D01*
X8270Y8667D01*
X8200Y8635D01*
X8062Y8558D01*
X7992Y8522D01*
X7923Y8485D01*
X7861Y8452D01*
X7803Y8420D01*
X7752Y8394D01*
X7712Y8368D01*
X7719D01*
X7737Y8365D01*
X7770D01*
X7810Y8361D01*
X7865Y8358D01*
X7931D01*
X8007Y8354D01*
X8248D01*
X8284Y8350D01*
X8331Y8347D01*
X8372D01*
X8404Y8350D01*
X8444Y8354D01*
X8488Y8358D01*
X8543Y8361D01*
X8601Y8372D01*
X8663Y8379D01*
X8732Y8394D01*
X8805Y8409D01*
X8882Y8427D01*
X8962Y8449D01*
X9046Y8474D01*
X9130Y8503D01*
X9217Y8536D01*
Y8543D01*
X9214Y8547D01*
X9206Y8551D01*
X9195Y8554D01*
X9181Y8562D01*
X9163Y8569D01*
X9137Y8580D01*
X9108Y8594D01*
X9068Y8609D01*
X9024Y8627D01*
X8969Y8649D01*
X8911Y8671D01*
X8838Y8697D01*
X8758Y8729D01*
X8670Y8762D01*
X8568Y8799D01*
X8565Y8802D01*
X8557Y8806D01*
X8550Y8810D01*
X8547Y8813D01*
D02*
G37*
G36*
X5200Y8609D02*
X5193D01*
X5189Y8605D01*
X5171Y8594D01*
X5146Y8580D01*
X5109Y8558D01*
X5062Y8533D01*
X5007Y8500D01*
X4938Y8463D01*
X4861Y8423D01*
Y8409D01*
X4865D01*
X4876Y8405D01*
X4894Y8401D01*
X4916Y8398D01*
X4945Y8394D01*
X4982Y8390D01*
X5022Y8383D01*
X5066Y8379D01*
X5113Y8372D01*
X5164Y8365D01*
X5277Y8358D01*
X5397Y8350D01*
X5525Y8347D01*
X5590D01*
Y8350D01*
X5594Y8354D01*
X5598Y8365D01*
X5605Y8376D01*
X5601Y8379D01*
X5594Y8387D01*
X5572Y8401D01*
X5547Y8423D01*
X5503Y8452D01*
X5477Y8471D01*
X5448Y8492D01*
X5415Y8518D01*
X5375Y8543D01*
X5335Y8573D01*
X5288Y8605D01*
X5241Y8591D01*
X5200Y8609D01*
D02*
G37*
G36*
X4781Y8416D02*
X4752D01*
X4748Y8409D01*
X4737Y8398D01*
X4727Y8379D01*
X4730Y8376D01*
X4737Y8365D01*
X4745Y8354D01*
X4756Y8347D01*
X4770D01*
X4785Y8350D01*
X4796Y8365D01*
X4803Y8372D01*
Y8387D01*
Y8390D01*
X4796Y8401D01*
X4789Y8412D01*
X4781Y8416D01*
D02*
G37*
G36*
X6760Y8923D02*
X6757Y8923D01*
X6753Y8919D01*
X6746Y8915D01*
X6735Y8912D01*
X6720Y8904D01*
X6699Y8890D01*
X6673Y8875D01*
X6640Y8857D01*
X6596Y8831D01*
X6549Y8799D01*
X6491Y8762D01*
X6421Y8718D01*
X6345Y8667D01*
X6254Y8609D01*
X6152Y8543D01*
X6155Y8540D01*
X6163Y8533D01*
X6177Y8514D01*
X6195Y8489D01*
X6210Y8471D01*
X6225Y8449D01*
X6243Y8423D01*
X6265Y8394D01*
X6290Y8361D01*
X6319Y8321D01*
X6389Y8328D01*
X6760Y8328D01*
X6859Y8332D01*
X6968D01*
Y8328D01*
X6983Y8332D01*
X7315D01*
X7344Y8336D01*
X7420D01*
X7468Y8339D01*
Y8343D01*
X7475Y8354D01*
X7489Y8376D01*
X7500Y8390D01*
X7515Y8409D01*
X6760Y8923D01*
D02*
G37*
G36*
X6126Y8529D02*
X6123D01*
X6115Y8522D01*
X6101Y8514D01*
X6083Y8503D01*
X6039Y8474D01*
X5988Y8441D01*
X5933Y8409D01*
X5886Y8379D01*
X5867Y8365D01*
X5853Y8354D01*
X5842Y8347D01*
X5835Y8339D01*
X5838Y8332D01*
X5842Y8321D01*
X6279D01*
Y8328D01*
X6276Y8332D01*
X6268Y8347D01*
X6254Y8365D01*
X6236Y8390D01*
X6214Y8420D01*
X6188Y8456D01*
X6126Y8529D01*
D02*
G37*
G36*
X7581Y8368D02*
X7573D01*
X7555Y8361D01*
X7544Y8354D01*
X7533Y8343D01*
X7526Y8328D01*
X7515Y8307D01*
Y8303D01*
Y8296D01*
X7522Y8274D01*
X7530Y8259D01*
X7544Y8248D01*
X7559Y8237D01*
X7581Y8234D01*
X7592D01*
X7599Y8237D01*
X7621Y8245D01*
X7639Y8263D01*
X7646Y8274D01*
X7650Y8292D01*
Y8307D01*
Y8310D01*
Y8314D01*
X7643Y8332D01*
X7632Y8343D01*
X7621Y8354D01*
X7602Y8361D01*
X7581Y8368D01*
D02*
G37*
G36*
X5718Y8354D02*
X5696D01*
X5689Y8350D01*
X5663Y8339D01*
X5649Y8332D01*
X5638Y8317D01*
X5631Y8303D01*
X5627Y8281D01*
Y8277D01*
X5631Y8266D01*
X5634Y8252D01*
X5641Y8237D01*
X5649Y8223D01*
X5663Y8208D01*
X5678Y8197D01*
X5700Y8194D01*
X5725D01*
X5736Y8197D01*
X5751Y8204D01*
X5762Y8215D01*
X5776Y8230D01*
X5787Y8252D01*
X5795Y8281D01*
Y8285D01*
X5791Y8292D01*
X5776Y8317D01*
X5754Y8343D01*
X5736Y8350D01*
X5718Y8354D01*
D02*
G37*
G36*
X7460Y8314D02*
X7449D01*
X7438Y8310D01*
X7428Y8307D01*
X6349Y8292D01*
Y8285D01*
Y8281D01*
X6356Y8277D01*
X6363Y8266D01*
X6374Y8252D01*
X6400Y8215D01*
X6436Y8168D01*
X6480Y8110D01*
X6527Y8048D01*
X6578Y7982D01*
X6629Y7913D01*
X6684Y7840D01*
X6735Y7774D01*
X6782Y7712D01*
X6822Y7654D01*
X6859Y7607D01*
X6888Y7570D01*
X6899Y7556D01*
X6906Y7545D01*
X6910Y7541D01*
X6914Y7537D01*
X6917Y7541D01*
X6932Y7556D01*
X6950Y7581D01*
X6979Y7610D01*
X7012Y7650D01*
X7048Y7694D01*
X7089Y7742D01*
X7132Y7793D01*
X7227Y7902D01*
X7322Y8015D01*
X7413Y8124D01*
X7453Y8175D01*
X7489Y8219D01*
Y8223D01*
X7486Y8226D01*
X7475Y8245D01*
X7464Y8266D01*
X7460Y8285D01*
Y8314D01*
D02*
G37*
G36*
X7508Y8197D02*
X6935Y7512D01*
Y7508D01*
X6943Y7501D01*
X6950Y7490D01*
X6957Y7479D01*
X6968Y7461D01*
X6986Y7439D01*
X7008Y7410D01*
X7034Y7377D01*
X7063Y7333D01*
X7099Y7286D01*
X7143Y7228D01*
X7194Y7162D01*
X7253Y7085D01*
X7318Y6998D01*
X7322Y7002D01*
X7329Y7020D01*
X7340Y7045D01*
X7355Y7085D01*
X7373Y7133D01*
X7395Y7195D01*
X7413Y7268D01*
X7435Y7355D01*
Y7362D01*
X7438Y7377D01*
X7446Y7403D01*
X7453Y7439D01*
X7460Y7479D01*
X7471Y7530D01*
X7482Y7585D01*
X7493Y7643D01*
X7500Y7709D01*
X7511Y7774D01*
X7530Y7913D01*
X7544Y8048D01*
X7548Y8117D01*
Y8179D01*
X7508Y8197D01*
D02*
G37*
G36*
X7347Y6965D02*
X7344D01*
X7340Y6962D01*
X7329Y6954D01*
X7318Y6936D01*
Y6929D01*
X7322Y6925D01*
X7329Y6918D01*
X7340Y6910D01*
X7355D01*
X7358Y6914D01*
X7366Y6918D01*
X7373Y6929D01*
Y6936D01*
Y6940D01*
X7369Y6943D01*
X7362Y6954D01*
X7347Y6965D01*
D02*
G37*
G36*
X6312Y8292D02*
X5849D01*
Y8241D01*
X5795Y8150D01*
Y8143D01*
Y8121D01*
X5798Y8088D01*
Y8040D01*
X5805Y7982D01*
X5809Y7909D01*
X5820Y7833D01*
X5831Y7742D01*
X5846Y7647D01*
X5867Y7541D01*
X5889Y7432D01*
X5918Y7315D01*
X5951Y7195D01*
X5991Y7067D01*
X6039Y6940D01*
X6090Y6808D01*
X6093Y6801D01*
X6104Y6787D01*
X6115Y6765D01*
X6130Y6739D01*
X6148Y6714D01*
X6159Y6692D01*
X6170Y6674D01*
X6177Y6666D01*
X6181Y6670D01*
X6185Y6677D01*
X6195Y6685D01*
X6210Y6699D01*
X6228Y6721D01*
X6254Y6750D01*
X6287Y6787D01*
X6323Y6834D01*
X6374Y6892D01*
X6432Y6958D01*
X6502Y7042D01*
X6538Y7085D01*
X6582Y7136D01*
X6626Y7188D01*
X6673Y7246D01*
X6724Y7304D01*
X6775Y7370D01*
X6833Y7439D01*
X6895Y7512D01*
Y7516D01*
X6892Y7519D01*
X6873Y7541D01*
X6852Y7574D01*
X6819Y7614D01*
X6779Y7665D01*
X6739Y7723D01*
X6691Y7785D01*
X6640Y7851D01*
X6542Y7986D01*
X6491Y8051D01*
X6443Y8113D01*
X6403Y8172D01*
X6367Y8219D01*
X6334Y8263D01*
X6312Y8292D01*
D02*
G37*
G36*
X6914Y7483D02*
X6910Y7479D01*
X6903Y7472D01*
X6895Y7461D01*
X6881Y7443D01*
X6859Y7421D01*
X6833Y7392D01*
X6801Y7355D01*
X6760Y7308D01*
X6713Y7249D01*
X6658Y7184D01*
X6589Y7104D01*
X6513Y7013D01*
X6425Y6907D01*
X6378Y6849D01*
X6327Y6787D01*
X6272Y6721D01*
X6214Y6652D01*
Y6641D01*
X6221D01*
X6228Y6644D01*
X6243Y6648D01*
X6261Y6652D01*
X6287Y6659D01*
X6316Y6666D01*
X6345Y6674D01*
X6381Y6685D01*
X6462Y6706D01*
X6549Y6728D01*
X6647Y6754D01*
X6746Y6783D01*
X6844Y6808D01*
X6939Y6834D01*
X7030Y6859D01*
X7110Y6881D01*
X7147Y6892D01*
X7180Y6903D01*
X7209Y6910D01*
X7234Y6918D01*
X7256Y6925D01*
X7271Y6929D01*
X7282Y6932D01*
X7285Y6936D01*
Y6940D01*
X7289Y6943D01*
X7293Y6954D01*
X7300Y6969D01*
Y6972D01*
X7293Y6980D01*
X7285Y6991D01*
X7278Y7002D01*
X7267Y7020D01*
X7249Y7042D01*
X7227Y7071D01*
X7202Y7104D01*
X7172Y7147D01*
X7132Y7195D01*
X7089Y7253D01*
X7037Y7319D01*
X6979Y7395D01*
X6914Y7483D01*
D02*
G37*
G36*
X6170Y6633D02*
X6155D01*
X6152Y6630D01*
X6148Y6626D01*
X6144Y6619D01*
Y6601D01*
X6148Y6593D01*
X6155Y6586D01*
X6166Y6579D01*
X6170Y6582D01*
X6181Y6586D01*
X6188Y6593D01*
X6192Y6601D01*
Y6612D01*
Y6615D01*
X6188Y6619D01*
X6185Y6626D01*
X6170Y6633D01*
D02*
G37*
G36*
X7285Y6903D02*
X7278D01*
X6225Y6604D01*
Y6593D01*
X6228Y6590D01*
X6236Y6582D01*
X6247Y6568D01*
X6261Y6550D01*
X6279Y6524D01*
X6301Y6502D01*
X6360Y6448D01*
X6425Y6393D01*
X6498Y6349D01*
X6538Y6327D01*
X6578Y6313D01*
X6622Y6305D01*
X6666Y6302D01*
X6691D01*
X6709Y6305D01*
X6735Y6313D01*
X6764Y6320D01*
X6797Y6335D01*
X6837Y6353D01*
X6877Y6378D01*
X6924Y6407D01*
X6972Y6448D01*
X7023Y6499D01*
X7074Y6557D01*
X7129Y6626D01*
X7180Y6706D01*
X7234Y6798D01*
X7285Y6903D01*
D02*
G37*
%LPD*%
D10*
X3131Y11031D02*
Y12331D01*
X4431Y11031D02*
Y12331D01*
X3131Y11031D02*
X4431D01*
X3131Y12331D02*
X4431D01*
X12976Y597D02*
Y1897D01*
X14276Y597D02*
Y1897D01*
X12976Y597D02*
X14276D01*
X12976Y1897D02*
X14276D01*
X18167Y11032D02*
Y12332D01*
X19467Y11032D02*
Y12332D01*
X18167Y11032D02*
X19467D01*
X18167Y12332D02*
X19467D01*
D40*
X16126Y8372D02*
Y8012D01*
X15946D01*
X15886Y8072D01*
Y8312D01*
X15946Y8372D01*
X16126D01*
X15586Y8012D02*
X15706D01*
X15766Y8072D01*
Y8192D01*
X15706Y8252D01*
X15586D01*
X15526Y8192D01*
Y8132D01*
X15766D01*
X15406Y8012D02*
X15226D01*
X15166Y8072D01*
X15226Y8132D01*
X15346D01*
X15406Y8192D01*
X15346Y8252D01*
X15166D01*
X15046Y8012D02*
X14926D01*
X14986D01*
Y8252D01*
X15046D01*
X14626Y7892D02*
X14566D01*
X14506Y7952D01*
Y8252D01*
X14686D01*
X14746Y8192D01*
Y8072D01*
X14686Y8012D01*
X14506D01*
X14387D02*
Y8252D01*
X14207D01*
X14147Y8192D01*
Y8012D01*
X13847D02*
X13967D01*
X14027Y8072D01*
Y8192D01*
X13967Y8252D01*
X13847D01*
X13787Y8192D01*
Y8132D01*
X14027D01*
X13427Y8372D02*
Y8012D01*
X13607D01*
X13667Y8072D01*
Y8192D01*
X13607Y8252D01*
X13427D01*
X12947Y8372D02*
Y8012D01*
X12767D01*
X12707Y8072D01*
Y8132D01*
Y8192D01*
X12767Y8252D01*
X12947D01*
X12587D02*
Y8072D01*
X12527Y8012D01*
X12347D01*
Y7952D01*
X12407Y7892D01*
X12467D01*
X12347Y8012D02*
Y8252D01*
X12227D02*
X12167D01*
Y8192D01*
X12227D01*
Y8252D01*
Y8072D02*
X12167D01*
Y8012D01*
X12227D01*
Y8072D01*
X17146Y7268D02*
Y7628D01*
X16966D01*
X16906Y7568D01*
Y7448D01*
X16966Y7388D01*
X17146D01*
X16786Y7628D02*
Y7268D01*
Y7448D01*
X16726Y7508D01*
X16606D01*
X16546Y7448D01*
Y7268D01*
X16426D02*
X16306D01*
X16366D01*
Y7508D01*
X16426D01*
X16126Y7268D02*
X16006D01*
X16066D01*
Y7628D01*
X16126D01*
X15826Y7268D02*
X15706D01*
X15766D01*
Y7508D01*
X15826D01*
X15526Y7149D02*
Y7508D01*
X15346D01*
X15286Y7448D01*
Y7328D01*
X15346Y7268D01*
X15526D01*
X15166Y7149D02*
Y7508D01*
X14986D01*
X14926Y7448D01*
Y7328D01*
X14986Y7268D01*
X15166D01*
X14626D02*
X14746D01*
X14806Y7328D01*
Y7448D01*
X14746Y7508D01*
X14626D01*
X14566Y7448D01*
Y7388D01*
X14806D01*
X14087Y7268D02*
Y7508D01*
X13967Y7628D01*
X13847Y7508D01*
Y7268D01*
Y7448D01*
X14087D01*
X13727Y7508D02*
Y7268D01*
Y7388D01*
X13667Y7448D01*
X13607Y7508D01*
X13547D01*
X13367Y7268D02*
X13187D01*
X13127Y7328D01*
X13187Y7388D01*
X13307D01*
X13367Y7448D01*
X13307Y7508D01*
X13127D01*
X12827Y7268D02*
X12947D01*
X13007Y7328D01*
Y7448D01*
X12947Y7508D01*
X12827D01*
X12767Y7448D01*
Y7388D01*
X13007D01*
X12647Y7268D02*
Y7508D01*
X12467D01*
X12407Y7448D01*
Y7268D01*
X12227Y7508D02*
X12107D01*
X12047Y7448D01*
Y7268D01*
X12227D01*
X12287Y7328D01*
X12227Y7388D01*
X12047D01*
X11927Y7508D02*
Y7328D01*
X11867Y7268D01*
X11687D01*
Y7508D01*
X11567Y7268D02*
X11447D01*
X11507D01*
Y7628D01*
X11567D01*
X11208Y7568D02*
Y7508D01*
X11268D01*
X11148D01*
X11208D01*
Y7328D01*
X11148Y7268D01*
X16036Y6885D02*
Y6525D01*
Y6705D01*
X15796D01*
Y6885D01*
Y6525D01*
X15676Y6765D02*
Y6585D01*
X15616Y6525D01*
X15436D01*
Y6765D01*
X15316Y6885D02*
Y6525D01*
X15136D01*
X15076Y6585D01*
Y6645D01*
Y6705D01*
X15136Y6765D01*
X15316D01*
X14776Y6525D02*
X14896D01*
X14956Y6585D01*
Y6705D01*
X14896Y6765D01*
X14776D01*
X14716Y6705D01*
Y6645D01*
X14956D01*
X14596Y6765D02*
Y6525D01*
Y6645D01*
X14536Y6705D01*
X14477Y6765D01*
X14417D01*
X14177Y6825D02*
Y6765D01*
X14237D01*
X14117D01*
X14177D01*
Y6585D01*
X14117Y6525D01*
X13577Y6885D02*
Y6525D01*
X13397D01*
X13337Y6585D01*
Y6825D01*
X13397Y6885D01*
X13577D01*
X13217Y6765D02*
Y6585D01*
X13157Y6525D01*
X12977D01*
Y6765D01*
X12857Y6885D02*
Y6525D01*
X12677D01*
X12617Y6585D01*
Y6645D01*
Y6705D01*
X12677Y6765D01*
X12857D01*
X12317Y6525D02*
X12437D01*
X12497Y6585D01*
Y6705D01*
X12437Y6765D01*
X12317D01*
X12257Y6705D01*
Y6645D01*
X12497D01*
X17356Y6261D02*
Y5901D01*
X17116D01*
X16936D02*
X16816D01*
X16756Y5961D01*
Y6081D01*
X16816Y6141D01*
X16936D01*
X16996Y6081D01*
Y5961D01*
X16936Y5901D01*
X16636Y6141D02*
Y5961D01*
X16576Y5901D01*
X16396D01*
Y6141D01*
X16276Y5901D02*
X16156D01*
X16216D01*
Y6141D01*
X16276D01*
X15976Y5901D02*
X15796D01*
X15736Y5961D01*
X15796Y6021D01*
X15916D01*
X15976Y6081D01*
X15916Y6141D01*
X15736D01*
X15616Y6081D02*
X15376D01*
X15256Y6261D02*
Y5901D01*
X15076D01*
X15016Y5961D01*
Y6201D01*
X15076Y6261D01*
X15256D01*
X14836Y6141D02*
X14716D01*
X14656Y6081D01*
Y5901D01*
X14836D01*
X14896Y5961D01*
X14836Y6021D01*
X14656D01*
X14536Y5901D02*
Y6141D01*
X14357D01*
X14297Y6081D01*
Y5901D01*
X14177D02*
X14057D01*
X14117D01*
Y6141D01*
X14177D01*
X13697Y5901D02*
X13817D01*
X13877Y5961D01*
Y6081D01*
X13817Y6141D01*
X13697D01*
X13637Y6081D01*
Y6021D01*
X13877D01*
X13517Y5901D02*
X13397D01*
X13457D01*
Y6261D01*
X13517D01*
X12617Y6201D02*
X12677Y6261D01*
X12797D01*
X12857Y6201D01*
Y5961D01*
X12797Y5901D01*
X12677D01*
X12617Y5961D01*
Y6081D01*
X12737D01*
X12437Y6141D02*
X12317D01*
X12257Y6081D01*
Y5901D01*
X12437D01*
X12497Y5961D01*
X12437Y6021D01*
X12257D01*
X12137Y6141D02*
Y5961D01*
X12077Y5901D01*
X11897D01*
Y6141D01*
X11777Y5901D02*
X11657D01*
X11717D01*
Y6261D01*
X11777D01*
X11477Y5901D02*
X11358D01*
X11417D01*
Y6141D01*
X11477D01*
X11178Y5901D02*
Y6141D01*
X10998D01*
X10938Y6081D01*
Y5901D01*
D41*
X16367Y8657D02*
Y9057D01*
X16167D01*
X16101Y8990D01*
Y8857D01*
X16167Y8790D01*
X16367D01*
X16234D02*
X16101Y8657D01*
X15767D02*
X15901D01*
X15967Y8723D01*
Y8857D01*
X15901Y8923D01*
X15767D01*
X15701Y8857D01*
Y8790D01*
X15967D01*
X15567Y8923D02*
X15434Y8657D01*
X15301Y8923D01*
X15168Y8657D02*
X15034D01*
X15101D01*
Y8923D01*
X15168D01*
X14834Y8657D02*
X14634D01*
X14568Y8723D01*
X14634Y8790D01*
X14768D01*
X14834Y8857D01*
X14768Y8923D01*
X14568D01*
X14434Y8657D02*
X14301D01*
X14368D01*
Y8923D01*
X14434D01*
X14035Y8657D02*
X13901D01*
X13835Y8723D01*
Y8857D01*
X13901Y8923D01*
X14035D01*
X14101Y8857D01*
Y8723D01*
X14035Y8657D01*
X13701D02*
Y8923D01*
X13501D01*
X13435Y8857D01*
Y8657D01*
X12902D02*
X12768D01*
X12835D01*
Y9057D01*
X12902Y8990D01*
X12568Y8657D02*
Y8723D01*
X12502D01*
Y8657D01*
X12568D01*
X12235Y8990D02*
X12169Y9057D01*
X12035D01*
X11969Y8990D01*
Y8723D01*
X12035Y8657D01*
X12169D01*
X12235Y8723D01*
Y8990D01*
X11835D02*
X11769Y9057D01*
X11635D01*
X11569Y8990D01*
Y8723D01*
X11635Y8657D01*
X11769D01*
X11835Y8723D01*
Y8990D01*
X11435D02*
X11369Y9057D01*
X11235D01*
X11169Y8990D01*
Y8723D01*
X11235Y8657D01*
X11369D01*
X11435Y8723D01*
Y8990D01*
D42*
X6880Y4530D02*
X6946Y4596D01*
X7077D01*
X7143Y4530D01*
Y4464D01*
X7077Y4399D01*
X6946D01*
X6880Y4333D01*
Y4268D01*
X6946Y4202D01*
X7077D01*
X7143Y4268D01*
X6552Y4202D02*
X6683D01*
X6749Y4268D01*
Y4399D01*
X6683Y4464D01*
X6552D01*
X6487Y4399D01*
Y4333D01*
X6749D01*
X6355Y4464D02*
Y4202D01*
Y4333D01*
X6290Y4399D01*
X6224Y4464D01*
X6159D01*
X5962Y4202D02*
X5831D01*
X5896D01*
Y4464D01*
X5962D01*
X5568D02*
X5437D01*
X5371Y4399D01*
Y4202D01*
X5568D01*
X5634Y4268D01*
X5568Y4333D01*
X5371D01*
X5240Y4202D02*
X5109D01*
X5175D01*
Y4596D01*
X5240D01*
X4453Y4202D02*
Y4596D01*
X4322D02*
Y4202D01*
X4519Y4464D02*
X4322D01*
X4256D01*
X4519Y4333D02*
X4256D01*
D43*
X15750Y11587D02*
Y10931D01*
X15619Y10800D01*
X15357D01*
X15225Y10931D01*
Y11587D01*
X14438Y11456D02*
X14570Y11587D01*
X14832D01*
X14963Y11456D01*
Y11325D01*
X14832Y11194D01*
X14570D01*
X14438Y11063D01*
Y10931D01*
X14570Y10800D01*
X14832D01*
X14963Y10931D01*
X14176Y11587D02*
Y10800D01*
X13782D01*
X13651Y10931D01*
Y11063D01*
X13782Y11194D01*
X14176D01*
X13782D01*
X13651Y11325D01*
Y11456D01*
X13782Y11587D01*
X14176D01*
X13389Y11194D02*
X12864D01*
X12077Y11456D02*
X12208Y11587D01*
X12470D01*
X12602Y11456D01*
Y10931D01*
X12470Y10800D01*
X12208D01*
X12077Y10931D01*
X16931Y10265D02*
Y9478D01*
X16537D01*
X16406Y9609D01*
Y9740D01*
X16537Y9871D01*
X16931D01*
X16537D01*
X16406Y10002D01*
Y10134D01*
X16537Y10265D01*
X16931D01*
X16144Y9478D02*
Y10265D01*
X15750D01*
X15619Y10134D01*
Y9871D01*
X15750Y9740D01*
X16144D01*
X15881D02*
X15619Y9478D01*
X14832Y10265D02*
X15357D01*
Y9478D01*
X14832D01*
X15357Y9871D02*
X15094D01*
X14570Y9478D02*
Y10002D01*
X14307Y10265D01*
X14045Y10002D01*
Y9478D01*
Y9871D01*
X14570D01*
X13782Y10265D02*
Y9478D01*
Y9740D01*
X13258Y10265D01*
X13651Y9871D01*
X13258Y9478D01*
X12602Y10265D02*
X12864D01*
X12995Y10134D01*
Y9609D01*
X12864Y9478D01*
X12602D01*
X12470Y9609D01*
Y10134D01*
X12602Y10265D01*
X12208D02*
Y9609D01*
X12077Y9478D01*
X11815D01*
X11683Y9609D01*
Y10265D01*
X11421D02*
X10896D01*
X11159D01*
Y9478D01*
D44*
X4277Y12768D02*
X4450D01*
Y12638D01*
X4363D01*
X4450D01*
Y12508D01*
X4190Y12768D02*
X4103D01*
X4147D01*
Y12508D01*
X4190D01*
X4103D01*
X3973Y12768D02*
Y12508D01*
X3843D01*
X3800Y12551D01*
Y12724D01*
X3843Y12768D01*
X3973D01*
X3713Y12508D02*
X3627D01*
X3670D01*
Y12768D01*
X3713Y12724D01*
X14122Y2333D02*
X14295D01*
Y2203D01*
X14208D01*
X14295D01*
Y2073D01*
X14035Y2333D02*
X13948D01*
X13992D01*
Y2073D01*
X14035D01*
X13948D01*
X13818Y2333D02*
Y2073D01*
X13688D01*
X13645Y2117D01*
Y2290D01*
X13688Y2333D01*
X13818D01*
X13385Y2073D02*
X13558D01*
X13385Y2247D01*
Y2290D01*
X13428Y2333D01*
X13515D01*
X13558Y2290D01*
X19313Y12769D02*
X19486D01*
Y12639D01*
X19400D01*
X19486D01*
Y12509D01*
X19227Y12769D02*
X19140D01*
X19183D01*
Y12509D01*
X19227D01*
X19140D01*
X19010Y12769D02*
Y12509D01*
X18880D01*
X18837Y12552D01*
Y12725D01*
X18880Y12769D01*
X19010D01*
X18750Y12725D02*
X18707Y12769D01*
X18620D01*
X18577Y12725D01*
Y12682D01*
X18620Y12639D01*
X18663D01*
X18620D01*
X18577Y12595D01*
Y12552D01*
X18620Y12509D01*
X18707D01*
X18750Y12552D01*
D45*
X5117Y2018D02*
D03*
M02*
