M48
;Layer_Color=9474304
;FILE_FORMAT=2:4
INCH,LZ
;TYPE=PLATED
T2F00S00C0.0197
T3F00S00C0.0256
;TYPE=NON_PLATED
%
G90
G05
T02
G00X017288Y005264
M15
G01X017052
M16
G00X019631Y005122
M15
G01X019394
M16
G00X003169Y005264
M15
G01X003406
M16
G00X000827Y005122
M15
G01X001063
M16
G00X000827Y008657
M15
G01X001063
M16
G00X003169Y008516
M15
G01X003406
M16
G00X017288Y008516
M15
G01X017052
M16
G00X019631Y008657
M15
G01X019394
M16
T03
G00X00378Y005413
M15
G01Y005531
M16
G00X016678Y008366
M15
G01Y008248
M16
M17
M30
