G04*
G04 #@! TF.GenerationSoftware,Altium Limited,Altium Designer,20.1.11 (218)*
G04*
G04 Layer_Color=128*
%FSLAX24Y24*%
%MOIN*%
G70*
G04*
G04 #@! TF.SameCoordinates,54141B6B-DA1B-4774-B8CF-21792AEDCB4D*
G04*
G04*
G04 #@! TF.FilePolarity,Positive*
G04*
G01*
G75*
%ADD47C,0.0020*%
D47*
X19414Y5122D02*
X19611D01*
X19513Y5024D02*
Y5220D01*
X16550Y5472D02*
X16806D01*
X16678Y5344D02*
Y5600D01*
X19414Y8657D02*
X19611D01*
X19513Y8559D02*
Y8756D01*
X17072Y8516D02*
X17269D01*
X17170Y8417D02*
Y8614D01*
X17072Y5264D02*
X17269D01*
X17170Y5165D02*
Y5362D01*
X16550Y8307D02*
X16806D01*
X16678Y8179D02*
Y8435D01*
X5320Y11154D02*
X5749D01*
X5534Y10939D02*
Y11368D01*
X14388Y2815D02*
X14817D01*
X14602Y2601D02*
Y3030D01*
X10071Y6382D02*
X10381D01*
X10226Y6227D02*
Y6537D01*
X10071Y7382D02*
X10381D01*
X10226Y7227D02*
Y7537D01*
X846Y8657D02*
X1043D01*
X945Y8559D02*
Y8756D01*
X3652Y8307D02*
X3907D01*
X3780Y8179D02*
Y8435D01*
X846Y5122D02*
X1043D01*
X945Y5024D02*
Y5220D01*
X3189Y5264D02*
X3386D01*
X3287Y5165D02*
Y5362D01*
X3189Y8516D02*
X3386D01*
X3287Y8417D02*
Y8614D01*
X3652Y5472D02*
X3907D01*
X3780Y5344D02*
Y5600D01*
X10074Y11776D02*
X10384D01*
X10229Y11621D02*
Y11931D01*
X10074Y12776D02*
X10384D01*
X10229Y12621D02*
Y12931D01*
X10074Y9053D02*
X10384D01*
X10229Y8898D02*
Y9208D01*
X10074Y10053D02*
X10384D01*
X10229Y9898D02*
Y10208D01*
X10074Y4606D02*
X10384D01*
X10229Y4451D02*
Y4761D01*
X10074Y3606D02*
X10384D01*
X10229Y3451D02*
Y3761D01*
X10074Y1883D02*
X10384D01*
X10229Y1728D02*
Y2038D01*
X10074Y883D02*
X10384D01*
X10229Y728D02*
Y1038D01*
X15199Y7299D02*
X15278D01*
X15238Y7260D02*
Y7339D01*
X15003Y7104D02*
X15082D01*
X15043Y7064D02*
Y7143D01*
X16722Y7451D02*
X16801D01*
X16762Y7411D02*
Y7490D01*
X16713Y6309D02*
X16791D01*
X16752Y6270D02*
Y6348D01*
X16031Y7388D02*
X16110D01*
X16070Y7349D02*
Y7428D01*
X16024Y6378D02*
X16102D01*
X16063Y6339D02*
Y6417D01*
X9572Y1883D02*
X9651D01*
X9612Y1844D02*
Y1923D01*
X11252Y7991D02*
X11331D01*
X11292Y7951D02*
Y8030D01*
X17703Y6142D02*
X17782D01*
X17742Y6103D02*
Y6182D01*
X17703Y5866D02*
X17782D01*
X17742Y5826D02*
Y5905D01*
X17429Y7185D02*
X17507D01*
X17468Y7146D02*
Y7224D01*
X17703Y7440D02*
X17782D01*
X17742Y7401D02*
Y7480D01*
X17703Y7717D02*
X17782D01*
X17742Y7678D02*
Y7756D01*
X2676Y6339D02*
X2754D01*
X2715Y6300D02*
Y6378D01*
X2676Y6063D02*
X2754D01*
X2715Y6023D02*
Y6102D01*
X2676Y7914D02*
X2754D01*
X2715Y7874D02*
Y7953D01*
X2676Y7637D02*
X2754D01*
X2715Y7598D02*
Y7677D01*
X8964Y8391D02*
X9042D01*
X9003Y8352D02*
Y8431D01*
X8964Y5866D02*
X9042D01*
X9003Y5826D02*
Y5905D01*
X11698Y6020D02*
X11777D01*
X11738Y5981D02*
Y6060D01*
X11575Y8307D02*
X11653D01*
X11614Y8268D02*
Y8346D01*
X9559Y10053D02*
X9638D01*
X9599Y10013D02*
Y10092D01*
X6199Y6266D02*
X6278D01*
X6238Y6226D02*
Y6305D01*
X3994Y8195D02*
X4073D01*
X4033Y8155D02*
Y8234D01*
X3674Y8018D02*
X3753D01*
X3713Y7978D02*
Y8057D01*
X4024Y5608D02*
X4103D01*
X4063Y5568D02*
Y5647D01*
X3387Y5671D02*
X3465D01*
X3426Y5631D02*
Y5710D01*
X3109Y5671D02*
X3188D01*
X3149Y5631D02*
Y5710D01*
X17269Y8109D02*
X17348D01*
X17309Y8069D02*
Y8148D01*
X16992Y8109D02*
X17071D01*
X17032Y8069D02*
Y8148D01*
X4360Y7402D02*
X4439D01*
X4400Y7362D02*
Y7441D01*
X3668Y7432D02*
X3746D01*
X3707Y7393D02*
Y7471D01*
X3671Y5827D02*
X3750D01*
X3711Y5787D02*
Y5866D01*
X3679Y7028D02*
X3757D01*
X3718Y6989D02*
Y7067D01*
X3661Y6339D02*
X3740D01*
X3701Y6299D02*
Y6378D01*
X2992Y7490D02*
X3071D01*
X3031Y7451D02*
Y7530D01*
X3679Y6751D02*
X3757D01*
X3718Y6712D02*
Y6791D01*
X4348Y6391D02*
X4426D01*
X4387Y6352D02*
Y6431D01*
X16700Y6751D02*
X16779D01*
X16739Y6712D02*
Y6791D01*
X16355Y8172D02*
X16434D01*
X16394Y8133D02*
Y8211D01*
X16703Y7963D02*
X16782D01*
X16742Y7923D02*
Y8002D01*
X16705Y5762D02*
X16784D01*
X16744Y5723D02*
Y5801D01*
X16385Y5585D02*
X16464D01*
X16424Y5546D02*
Y5624D01*
X3061Y8110D02*
X3140D01*
X3100Y8071D02*
Y8150D01*
X17343Y5669D02*
X17421D01*
X17382Y5630D02*
Y5709D01*
X9559Y8942D02*
X9638D01*
X9599Y8902D02*
Y8981D01*
X10819Y8942D02*
X10898D01*
X10859Y8902D02*
Y8981D01*
X10819Y10053D02*
X10898D01*
X10859Y10013D02*
Y10092D01*
X10832Y12776D02*
X10911D01*
X10871Y12736D02*
Y12815D01*
X10832Y11665D02*
X10911D01*
X10871Y11626D02*
Y11704D01*
X9572Y11665D02*
X9651D01*
X9612Y11626D02*
Y11704D01*
X9572Y12776D02*
X9651D01*
X9612Y12736D02*
Y12815D01*
X10830Y7382D02*
X10908D01*
X10869Y7343D02*
Y7421D01*
X10830Y6271D02*
X10908D01*
X10869Y6232D02*
Y6310D01*
X9570Y6271D02*
X9649D01*
X9609Y6232D02*
Y6310D01*
X9570Y7382D02*
X9649D01*
X9609Y7343D02*
Y7421D01*
X10832Y4606D02*
X10911D01*
X10871Y4567D02*
Y4646D01*
X10832Y3495D02*
X10911D01*
X10871Y3456D02*
Y3535D01*
X9572Y3495D02*
X9651D01*
X9612Y3456D02*
Y3535D01*
X9572Y4606D02*
X9651D01*
X9612Y4567D02*
Y4646D01*
X10832Y1883D02*
X10911D01*
X10871Y1844D02*
Y1923D01*
X10832Y772D02*
X10911D01*
X10871Y733D02*
Y812D01*
X9572Y772D02*
X9651D01*
X9612Y733D02*
Y812D01*
X3002Y6506D02*
X3081D01*
X3041Y6467D02*
Y6545D01*
X16700Y7028D02*
X16779D01*
X16739Y6989D02*
Y7067D01*
X2595Y7061D02*
X2673D01*
X2634Y7022D02*
Y7100D01*
X2790Y7256D02*
X2869D01*
X2830Y7217D02*
Y7296D01*
X17784Y6719D02*
X17863D01*
X17823Y6679D02*
Y6758D01*
X17588Y6523D02*
X17667D01*
X17628Y6484D02*
Y6562D01*
X17402Y6329D02*
X17480D01*
X17441Y6289D02*
Y6368D01*
M02*
