M48
;Layer_Color=9474304
;FILE_FORMAT=2:4
INCH,LZ
;TYPE=PLATED
T1F00S00C0.0079
T2F00S00C0.0100
T3F00S00C0.0120
T4F00S00C0.0197
T5F00S00C0.0200
%
T01
X000374Y001132
X000787Y000787
X001102Y001024
X001339Y000984
X002746Y000404
X00375Y000778
X004606Y000748
X005Y000925
X005049Y000551
X008858Y000689
X009242Y000866
X009626
X01003Y001152
X010039Y001693
X009636Y001594
X009242Y001299
X008559Y004386
X008223Y00439
X008189Y004606
X008425Y004724
X007713Y00493
X007463Y00494
X007233Y00521
X007003Y00515
X006793Y00481
X006027Y004921
X006024Y004528
X005863Y00435
X005693Y00506
X005866Y005866
X006614Y005591
X007717Y005866
X007635Y006225
X008268Y00626
X008725Y006126
X009065Y006014
X008985Y005787
X008976Y005315
X009036Y006378
X00939Y006437
X009567Y006476
X010022Y006496
X00941Y006851
X009416Y007172
X010039Y007559
X009095Y008011
X008475Y010086
X008212Y01007
X00817Y010286
X008495Y010365
X008337Y010748
X007776Y010532
X007559Y010482
X007087Y010886
X006879Y010827
X006693Y011063
X006841Y011654
X007047Y011535
X007589Y011526
X007598Y011732
X007785Y011614
X008002Y011536
X008071Y011791
X008376Y011881
X008701Y011929
X008898Y011732
X009341Y011939
X009321Y012165
X009055Y012608
X00878Y012667
X008386Y01248
X008228Y012323
X008327Y011526
X009508Y011516
X009478Y011152
X009705
X009695Y010811
X009445Y010701
X009587Y010541
X009443Y010383
X009793Y010285
X009735Y012481
X009666Y012776
X009606Y013071
X00937
X009134Y01311
X009331Y013307
X009252Y013583
X00878Y013539
X008386Y013622
Y013386
X008917Y013966
X009331Y014134
Y01437
Y014567
X009921Y014331
X01Y014961
X010276Y015276
X009331Y015433
X008622Y015315
Y015079
X00815Y015454
X007795Y015423
X007363Y015316
X007402Y015099
X007185Y015188
X006614Y015118
X006575Y014803
X006378Y015
X005695Y015315
X005709Y01252
X006693Y012323
X00628Y011565
X005906Y010758
X005984Y010236
X005855Y010011
X005705Y008791
X006614Y007512
X00748Y011919
X008081Y014547
X010039Y013504
X005713Y00313
X005493Y00299
X005263Y0029
X005203Y00338
X004764Y003701
Y004055
X004252Y00374
X004252Y003346
Y002835
Y002323
X004104Y001593
X004409Y001378
X005Y001289
X005601Y002583
X005543Y00466
X00499Y004685
X005Y005502
X004252Y005236
X004252Y004882
X004016Y004822
X004252Y004478
X004252Y005827
Y006299
X004055Y007087
X004636Y007008
X004705Y007559
X004193Y007844
X004301Y008504
X004528Y008947
X00439Y009124
X004635Y009341
X004646Y009646
Y009921
X003711Y009951
Y009567
X002913Y009596
Y009252
X002933Y008228
X003642Y00815
X003691Y008376
X005235Y008611
X005465Y008651
X005593Y008243
X005316Y00818
X005275Y009041
X005245Y009351
X005354Y010197
X005591Y010472
X005098Y011152
X004724Y011033
X004488Y010866
X004331Y011102
Y011339
X003991Y011471
X003976Y011201
X003681Y011398
X003465Y011368
X0038Y011574
X003661Y011732
X002992Y011673
X003012Y01252
X003199Y012353
X003388Y012481
X003228Y01311
X002805Y013022
X002825Y012825
X002717Y013346
X002559Y014252
X001821Y014124
X001614Y013898
X001634Y012795
Y012598
X001841
Y012805
X001772Y012402
X001969
X002165
X002244Y012215
X001722Y012195
X001732Y010945
X002087Y011063
X002884Y010551
X003091Y010285
X003268Y010856
X004085Y012362
X004449Y012451
X004616Y012175
X004921Y012559
X005Y014409
X005236Y014478
Y014282
X004291Y014961
X003317Y014862
X00189Y015394
X001181Y015906
X005128Y015866
X001742Y009557
X001053Y00935
X000896Y009734
Y008051
X001535Y007402
X000925Y006575
X002031Y005719
Y005541
X002756Y006417
X002766Y006969
X002845Y003317
X003211Y00314
X003051Y002254
X002854Y002175
X002254Y002165
X002087Y002018
X002126Y001772
X002244Y001388
X002717Y00126
X002904Y001407
X003189Y001181
X0031Y001742
X002569Y002549
X002008Y002431
X001673Y002362
X001614Y002598
X001791Y002795
X002008Y002904
X001969Y003228
X001733Y003198
X001732Y003583
X001831Y003927
X001339Y003976
X001319Y004252
X000906Y004409
X000748Y004016
X000827Y002992
Y00252
X001063Y002559
X00063Y002618
X000709Y002323
X000551Y001929
X000787Y001693
Y001496
T02
X006417Y000935
X006813Y000994
X007063Y001
X007313
X007854Y000846
X008238Y000866
X008514
X008268Y000394
X010236
X010551Y000276
X010541Y000739
X010293Y000966
X010541Y001239
Y001739
X010543Y00218
Y00268
Y00318
X010293Y003032
X009684Y003056
X009669Y003554
X00967Y003809
X009704Y004033
X009833Y004216
X009773Y00463
X009633Y00488
X009453Y00503
Y00471
X009703Y00515
X009797Y005486
X010293Y005084
X010541Y005249
Y005749
Y006044
X010533Y00634
Y00684
X010285Y006627
X010079Y00622
X009409
X008565Y006531
X008325
X008825Y006871
X008465Y007931
X009675Y008061
X009676Y008717
X009661Y009215
X009662Y00947
X009685Y009681
X009825Y009877
X010238Y010106
X010525Y010061
X010533Y01056
X010285Y010745
X010533Y01106
Y011954
X010533Y012598
Y013425
X010541Y014929
X010285Y014843
X010541Y015429
X010543Y01581
X008753Y011139
X008002Y011152
X006447Y011014
X005935Y011112
X005778Y007037
X005974Y00688
X006347Y006609
X006831Y006663
X007065Y006671
X007325Y006681
X007341Y006221
X006988Y00622
X005918Y006231
X005953Y00549
X006417Y005354
X007663Y0055
X008153Y00548
X008203Y00511
X008673Y00393
X008473Y00227
X009113Y00235
X009693Y002395
X008813Y001229
X006093Y00123
X005886
X006622Y001851
X010543Y00368
X010553Y0044
X010246Y004445
X010541Y004749
X010533Y00734
Y00784
Y00834
Y00884
X010285Y008693
X010525Y009341
X008665Y009591
X00498Y009163
X004995Y007781
X005Y00748
X004986Y006781
X004985Y006231
X005482Y006225
X005453Y006604
X00549Y005486
X004994Y005084
X004488Y004439
X004488Y003809
X00503Y003585
X004994Y002728
X005Y002087
Y001811
X003455Y003238
Y003494
X002835Y003583
X002579Y004278
X002815Y005148
X003887Y00439
X003898Y006811
X004016Y007362
Y007677
X002303Y007638
X00221Y008625
X002264Y009213
X002293Y010098
X002283Y010354
X001604Y010344
Y010098
X002894Y010108
X004986Y010745
X005551Y010738
X005561Y011112
X000925Y011535
X000906Y01188
X00124Y013435
X001467
X001496Y014882
Y015118
X00126Y015128
Y014892
X001585Y008022
X001171Y004498
X000935Y004685
T03
X005443Y00085
X006545Y002756
X006555Y003337
X007215Y003346
X007813Y003375
X007825Y004026
X007205Y004016
X006518Y003995
X007234Y002707
X007805Y002677
X00782Y008376
X007805Y009036
X007195Y009035
X007165Y008396
X006505Y008381
X006525Y009036
X006545Y009705
X007165Y009676
X007805Y009671
X007992Y012717
X00752
X007047
X006575
Y013189
X007047
X00752
X007992
Y013661
X00752
X007047
X006575
Y014134
X007047
X00752
X007992
X010197Y012582
X009853Y011594
X003701Y012126
X004986Y008686
X004994Y003025
T04
X000394Y0
X000787
X001181
X001575
X001969
X002362
X002756
X00315
X003543
X003937
X004331
X004724
X005118
X005512
X005906
X006299
X006693
X007087
X00748
X007874
X008268
X008661
X009055
X009449
X009843
X010236
Y016142
X009843
X009449
X009055
X008661
X008268
X007874
X00748
X007087
X006693
X006299
X005906
X005512
X005118
X004724
X004331
X003937
X003543Y016142
X00315Y016142
X002756
X002362
X001969
X001575
X001181
X000787
X000394
T05
X017421Y004057
X017421Y012087
M30
