G04*
G04 #@! TF.GenerationSoftware,Altium Limited,Altium Designer,20.1.11 (218)*
G04*
G04 Layer_Color=2752767*
%FSLAX24Y24*%
%MOIN*%
G70*
G04*
G04 #@! TF.SameCoordinates,54141B6B-DA1B-4774-B8CF-21792AEDCB4D*
G04*
G04*
G04 #@! TF.FilePolarity,Positive*
G04*
G01*
G75*
%ADD47C,0.0020*%
%ADD48C,0.0027*%
D47*
X19433Y5042D02*
Y5202D01*
X19593D01*
Y5042D01*
X19433D01*
Y8577D02*
Y8737D01*
X19593D01*
Y8577D01*
X19433D01*
X17090Y8436D02*
Y8596D01*
X17250D01*
Y8436D01*
X17090D01*
Y5184D02*
Y5344D01*
X17250D01*
Y5184D01*
X17090D01*
X16678Y8227D02*
X16598Y8387D01*
X16758D01*
X16678Y8227D01*
X5534Y11074D02*
X5574Y11114D01*
X5614D01*
X5574Y11154D01*
X5614Y11194D01*
X5574D01*
X5534Y11234D01*
X5494Y11194D01*
X5454D01*
X5494Y11154D01*
X5454Y11114D01*
X5494D01*
X5534Y11074D01*
X14602Y2735D02*
X14642Y2775D01*
X14682D01*
X14642Y2815D01*
X14682Y2855D01*
X14642D01*
X14602Y2895D01*
X14562Y2855D01*
X14522D01*
X14562Y2815D01*
X14522Y2775D01*
X14562D01*
X14602Y2735D01*
X10146Y6302D02*
X10186Y6382D01*
X10146Y6462D01*
X10226Y6422D01*
X10306Y6462D01*
X10266Y6382D01*
X10306Y6302D01*
X10226Y6342D01*
X10146Y6302D01*
Y7302D02*
X10186Y7382D01*
X10146Y7462D01*
X10226Y7422D01*
X10306Y7462D01*
X10266Y7382D01*
X10306Y7302D01*
X10226Y7342D01*
X10146Y7302D01*
X865Y8577D02*
Y8737D01*
X1025D01*
Y8577D01*
X865D01*
Y5042D02*
Y5202D01*
X1025D01*
Y5042D01*
X865D01*
X3207Y5184D02*
Y5344D01*
X3367D01*
Y5184D01*
X3207D01*
Y8436D02*
Y8596D01*
X3367D01*
Y8436D01*
X3207D01*
X3780Y5392D02*
X3700Y5552D01*
X3860D01*
X3780Y5392D01*
X10149Y11696D02*
X10189Y11776D01*
X10149Y11856D01*
X10229Y11816D01*
X10309Y11856D01*
X10269Y11776D01*
X10309Y11696D01*
X10229Y11736D01*
X10149Y11696D01*
Y12696D02*
X10189Y12776D01*
X10149Y12856D01*
X10229Y12816D01*
X10309Y12856D01*
X10269Y12776D01*
X10309Y12696D01*
X10229Y12736D01*
X10149Y12696D01*
Y8973D02*
X10189Y9053D01*
X10149Y9133D01*
X10229Y9093D01*
X10309Y9133D01*
X10269Y9053D01*
X10309Y8973D01*
X10229Y9013D01*
X10149Y8973D01*
Y9973D02*
X10189Y10053D01*
X10149Y10133D01*
X10229Y10093D01*
X10309Y10133D01*
X10269Y10053D01*
X10309Y9973D01*
X10229Y10013D01*
X10149Y9973D01*
Y4526D02*
X10189Y4606D01*
X10149Y4686D01*
X10229Y4646D01*
X10309Y4686D01*
X10269Y4606D01*
X10309Y4526D01*
X10229Y4566D01*
X10149Y4526D01*
Y3526D02*
X10189Y3606D01*
X10149Y3686D01*
X10229Y3646D01*
X10309Y3686D01*
X10269Y3606D01*
X10309Y3526D01*
X10229Y3566D01*
X10149Y3526D01*
Y1803D02*
X10189Y1883D01*
X10149Y1963D01*
X10229Y1923D01*
X10309Y1963D01*
X10269Y1883D01*
X10309Y1803D01*
X10229Y1843D01*
X10149Y1803D01*
Y803D02*
X10189Y883D01*
X10149Y963D01*
X10229Y923D01*
X10309Y963D01*
X10269Y883D01*
X10309Y803D01*
X10229Y843D01*
X10149Y803D01*
X15198Y7259D02*
Y7219D01*
X15278D01*
Y7259D01*
X15318D01*
Y7339D01*
X15278D01*
Y7379D01*
X15198D01*
Y7339D01*
X15158D01*
Y7259D01*
X15198D01*
X15003Y7064D02*
Y7024D01*
X15083D01*
Y7064D01*
X15123D01*
Y7144D01*
X15083D01*
Y7184D01*
X15003D01*
Y7144D01*
X14963D01*
Y7064D01*
X15003D01*
X16722Y7411D02*
Y7371D01*
X16802D01*
Y7411D01*
X16842D01*
Y7491D01*
X16802D01*
Y7531D01*
X16722D01*
Y7491D01*
X16682D01*
Y7411D01*
X16722D01*
X16712Y6269D02*
Y6229D01*
X16792D01*
Y6269D01*
X16832D01*
Y6349D01*
X16792D01*
Y6389D01*
X16712D01*
Y6349D01*
X16672D01*
Y6269D01*
X16712D01*
X16030Y7348D02*
Y7308D01*
X16111D01*
Y7348D01*
X16150D01*
Y7428D01*
X16111D01*
Y7468D01*
X16030D01*
Y7428D01*
X15991D01*
Y7348D01*
X16030D01*
X16023Y6338D02*
Y6298D01*
X16103D01*
Y6338D01*
X16143D01*
Y6418D01*
X16103D01*
Y6458D01*
X16023D01*
Y6418D01*
X15983D01*
Y6338D01*
X16023D01*
X9572Y1843D02*
Y1803D01*
X9652D01*
Y1843D01*
X9692D01*
Y1923D01*
X9652D01*
Y1963D01*
X9572D01*
Y1923D01*
X9532D01*
Y1843D01*
X9572D01*
X11252Y7951D02*
Y7911D01*
X11332D01*
Y7951D01*
X11372D01*
Y8031D01*
X11332D01*
Y8071D01*
X11252D01*
Y8031D01*
X11212D01*
Y7951D01*
X11252D01*
X17702Y6102D02*
Y6062D01*
X17782D01*
Y6102D01*
X17822D01*
Y6182D01*
X17782D01*
Y6222D01*
X17702D01*
Y6182D01*
X17662D01*
Y6102D01*
X17702D01*
Y5826D02*
Y5786D01*
X17782D01*
Y5826D01*
X17822D01*
Y5906D01*
X17782D01*
Y5946D01*
X17702D01*
Y5906D01*
X17662D01*
Y5826D01*
X17702D01*
X17428Y7145D02*
Y7105D01*
X17508D01*
Y7145D01*
X17548D01*
Y7225D01*
X17508D01*
Y7265D01*
X17428D01*
Y7225D01*
X17388D01*
Y7145D01*
X17428D01*
X17702Y7400D02*
Y7360D01*
X17782D01*
Y7400D01*
X17822D01*
Y7480D01*
X17782D01*
Y7520D01*
X17702D01*
Y7480D01*
X17662D01*
Y7400D01*
X17702D01*
Y7677D02*
Y7637D01*
X17782D01*
Y7677D01*
X17822D01*
Y7757D01*
X17782D01*
Y7797D01*
X17702D01*
Y7757D01*
X17662D01*
Y7677D01*
X17702D01*
X2675Y6299D02*
Y6259D01*
X2755D01*
Y6299D01*
X2795D01*
Y6379D01*
X2755D01*
Y6419D01*
X2675D01*
Y6379D01*
X2635D01*
Y6299D01*
X2675D01*
Y6023D02*
Y5983D01*
X2755D01*
Y6023D01*
X2795D01*
Y6103D01*
X2755D01*
Y6143D01*
X2675D01*
Y6103D01*
X2635D01*
Y6023D01*
X2675D01*
Y7874D02*
Y7834D01*
X2755D01*
Y7874D01*
X2795D01*
Y7954D01*
X2755D01*
Y7994D01*
X2675D01*
Y7954D01*
X2635D01*
Y7874D01*
X2675D01*
Y7597D02*
Y7557D01*
X2755D01*
Y7597D01*
X2795D01*
Y7677D01*
X2755D01*
Y7717D01*
X2675D01*
Y7677D01*
X2635D01*
Y7597D01*
X2675D01*
X8963Y8351D02*
Y8311D01*
X9043D01*
Y8351D01*
X9083D01*
Y8431D01*
X9043D01*
Y8471D01*
X8963D01*
Y8431D01*
X8923D01*
Y8351D01*
X8963D01*
Y5826D02*
Y5786D01*
X9043D01*
Y5826D01*
X9083D01*
Y5906D01*
X9043D01*
Y5946D01*
X8963D01*
Y5906D01*
X8923D01*
Y5826D01*
X8963D01*
X11698Y5980D02*
Y5940D01*
X11778D01*
Y5980D01*
X11818D01*
Y6060D01*
X11778D01*
Y6100D01*
X11698D01*
Y6060D01*
X11658D01*
Y5980D01*
X11698D01*
X11574Y8267D02*
Y8227D01*
X11654D01*
Y8267D01*
X11694D01*
Y8347D01*
X11654D01*
Y8387D01*
X11574D01*
Y8347D01*
X11534D01*
Y8267D01*
X11574D01*
X9559Y10013D02*
Y9973D01*
X9639D01*
Y10013D01*
X9679D01*
Y10093D01*
X9639D01*
Y10133D01*
X9559D01*
Y10093D01*
X9519D01*
Y10013D01*
X9559D01*
X6198Y6226D02*
Y6186D01*
X6278D01*
Y6226D01*
X6318D01*
Y6306D01*
X6278D01*
Y6346D01*
X6198D01*
Y6306D01*
X6158D01*
Y6226D01*
X6198D01*
X3993Y8155D02*
Y8115D01*
X4073D01*
Y8155D01*
X4113D01*
Y8235D01*
X4073D01*
Y8275D01*
X3993D01*
Y8235D01*
X3953D01*
Y8155D01*
X3993D01*
X3673Y7978D02*
Y7938D01*
X3753D01*
Y7978D01*
X3793D01*
Y8058D01*
X3753D01*
Y8098D01*
X3673D01*
Y8058D01*
X3633D01*
Y7978D01*
X3673D01*
X4023Y5568D02*
Y5528D01*
X4103D01*
Y5568D01*
X4143D01*
Y5648D01*
X4103D01*
Y5688D01*
X4023D01*
Y5648D01*
X3983D01*
Y5568D01*
X4023D01*
X3386Y5631D02*
Y5591D01*
X3466D01*
Y5631D01*
X3506D01*
Y5711D01*
X3466D01*
Y5751D01*
X3386D01*
Y5711D01*
X3346D01*
Y5631D01*
X3386D01*
X3109D02*
Y5591D01*
X3189D01*
Y5631D01*
X3229D01*
Y5711D01*
X3189D01*
Y5751D01*
X3109D01*
Y5711D01*
X3069D01*
Y5631D01*
X3109D01*
X17269Y8069D02*
Y8029D01*
X17349D01*
Y8069D01*
X17389D01*
Y8149D01*
X17349D01*
Y8189D01*
X17269D01*
Y8149D01*
X17229D01*
Y8069D01*
X17269D01*
X16992D02*
Y8029D01*
X17072D01*
Y8069D01*
X17112D01*
Y8149D01*
X17072D01*
Y8189D01*
X16992D01*
Y8149D01*
X16952D01*
Y8069D01*
X16992D01*
X4360Y7362D02*
Y7322D01*
X4440D01*
Y7362D01*
X4480D01*
Y7442D01*
X4440D01*
Y7482D01*
X4360D01*
Y7442D01*
X4320D01*
Y7362D01*
X4360D01*
X3667Y7392D02*
Y7352D01*
X3747D01*
Y7392D01*
X3787D01*
Y7472D01*
X3747D01*
Y7512D01*
X3667D01*
Y7472D01*
X3627D01*
Y7392D01*
X3667D01*
X3671Y5787D02*
Y5747D01*
X3751D01*
Y5787D01*
X3791D01*
Y5867D01*
X3751D01*
Y5907D01*
X3671D01*
Y5867D01*
X3631D01*
Y5787D01*
X3671D01*
X3678Y6988D02*
Y6948D01*
X3758D01*
Y6988D01*
X3798D01*
Y7068D01*
X3758D01*
Y7108D01*
X3678D01*
Y7068D01*
X3638D01*
Y6988D01*
X3678D01*
X3661Y6299D02*
Y6259D01*
X3741D01*
Y6299D01*
X3781D01*
Y6379D01*
X3741D01*
Y6419D01*
X3661D01*
Y6379D01*
X3621D01*
Y6299D01*
X3661D01*
X2991Y7450D02*
Y7410D01*
X3072D01*
Y7450D01*
X3112D01*
Y7530D01*
X3072D01*
Y7570D01*
X2991D01*
Y7530D01*
X2952D01*
Y7450D01*
X2991D01*
X3678Y6712D02*
Y6672D01*
X3758D01*
Y6712D01*
X3798D01*
Y6791D01*
X3758D01*
Y6831D01*
X3678D01*
Y6791D01*
X3638D01*
Y6712D01*
X3678D01*
X4347Y6351D02*
Y6311D01*
X4427D01*
Y6351D01*
X4467D01*
Y6431D01*
X4427D01*
Y6471D01*
X4347D01*
Y6431D01*
X4307D01*
Y6351D01*
X4347D01*
X16699Y6712D02*
Y6672D01*
X16779D01*
Y6712D01*
X16819D01*
Y6791D01*
X16779D01*
Y6831D01*
X16699D01*
Y6791D01*
X16659D01*
Y6712D01*
X16699D01*
X16354Y8132D02*
Y8092D01*
X16434D01*
Y8132D01*
X16474D01*
Y8212D01*
X16434D01*
Y8252D01*
X16354D01*
Y8212D01*
X16314D01*
Y8132D01*
X16354D01*
X16702Y7923D02*
Y7883D01*
X16782D01*
Y7923D01*
X16822D01*
Y8003D01*
X16782D01*
Y8043D01*
X16702D01*
Y8003D01*
X16662D01*
Y7923D01*
X16702D01*
X16704Y5722D02*
Y5682D01*
X16784D01*
Y5722D01*
X16824D01*
Y5802D01*
X16784D01*
Y5842D01*
X16704D01*
Y5802D01*
X16664D01*
Y5722D01*
X16704D01*
X16384Y5545D02*
Y5505D01*
X16464D01*
Y5545D01*
X16504D01*
Y5625D01*
X16464D01*
Y5665D01*
X16384D01*
Y5625D01*
X16344D01*
Y5545D01*
X16384D01*
X3060Y8070D02*
Y8030D01*
X3140D01*
Y8070D01*
X3180D01*
Y8150D01*
X3140D01*
Y8190D01*
X3060D01*
Y8150D01*
X3020D01*
Y8070D01*
X3060D01*
X17342Y5629D02*
Y5589D01*
X17422D01*
Y5629D01*
X17462D01*
Y5709D01*
X17422D01*
Y5749D01*
X17342D01*
Y5709D01*
X17302D01*
Y5629D01*
X17342D01*
X9559Y8902D02*
Y8862D01*
X9639D01*
Y8902D01*
X9679D01*
Y8982D01*
X9639D01*
Y9022D01*
X9559D01*
Y8982D01*
X9519D01*
Y8902D01*
X9559D01*
X10819D02*
Y8862D01*
X10899D01*
Y8902D01*
X10939D01*
Y8982D01*
X10899D01*
Y9022D01*
X10819D01*
Y8982D01*
X10779D01*
Y8902D01*
X10819D01*
Y10013D02*
Y9973D01*
X10899D01*
Y10013D01*
X10939D01*
Y10093D01*
X10899D01*
Y10133D01*
X10819D01*
Y10093D01*
X10779D01*
Y10013D01*
X10819D01*
X10831Y12736D02*
Y12696D01*
X10911D01*
Y12736D01*
X10951D01*
Y12816D01*
X10911D01*
Y12856D01*
X10831D01*
Y12816D01*
X10791D01*
Y12736D01*
X10831D01*
Y11625D02*
Y11585D01*
X10911D01*
Y11625D01*
X10951D01*
Y11705D01*
X10911D01*
Y11745D01*
X10831D01*
Y11705D01*
X10791D01*
Y11625D01*
X10831D01*
X9572D02*
Y11585D01*
X9652D01*
Y11625D01*
X9692D01*
Y11705D01*
X9652D01*
Y11745D01*
X9572D01*
Y11705D01*
X9532D01*
Y11625D01*
X9572D01*
Y12736D02*
Y12696D01*
X9652D01*
Y12736D01*
X9692D01*
Y12816D01*
X9652D01*
Y12856D01*
X9572D01*
Y12816D01*
X9532D01*
Y12736D01*
X9572D01*
X10829Y7342D02*
Y7302D01*
X10909D01*
Y7342D01*
X10949D01*
Y7422D01*
X10909D01*
Y7462D01*
X10829D01*
Y7422D01*
X10789D01*
Y7342D01*
X10829D01*
Y6231D02*
Y6191D01*
X10909D01*
Y6231D01*
X10949D01*
Y6311D01*
X10909D01*
Y6351D01*
X10829D01*
Y6311D01*
X10789D01*
Y6231D01*
X10829D01*
X9569D02*
Y6191D01*
X9649D01*
Y6231D01*
X9689D01*
Y6311D01*
X9649D01*
Y6351D01*
X9569D01*
Y6311D01*
X9529D01*
Y6231D01*
X9569D01*
Y7342D02*
Y7302D01*
X9649D01*
Y7342D01*
X9689D01*
Y7422D01*
X9649D01*
Y7462D01*
X9569D01*
Y7422D01*
X9529D01*
Y7342D01*
X9569D01*
X10831Y4566D02*
Y4526D01*
X10911D01*
Y4566D01*
X10951D01*
Y4646D01*
X10911D01*
Y4686D01*
X10831D01*
Y4646D01*
X10791D01*
Y4566D01*
X10831D01*
Y3455D02*
Y3415D01*
X10911D01*
Y3455D01*
X10951D01*
Y3535D01*
X10911D01*
Y3575D01*
X10831D01*
Y3535D01*
X10791D01*
Y3455D01*
X10831D01*
X9572D02*
Y3415D01*
X9652D01*
Y3455D01*
X9692D01*
Y3535D01*
X9652D01*
Y3575D01*
X9572D01*
Y3535D01*
X9532D01*
Y3455D01*
X9572D01*
Y4566D02*
Y4526D01*
X9652D01*
Y4566D01*
X9692D01*
Y4646D01*
X9652D01*
Y4686D01*
X9572D01*
Y4646D01*
X9532D01*
Y4566D01*
X9572D01*
X10831Y1843D02*
Y1803D01*
X10911D01*
Y1843D01*
X10951D01*
Y1923D01*
X10911D01*
Y1963D01*
X10831D01*
Y1923D01*
X10791D01*
Y1843D01*
X10831D01*
Y732D02*
Y692D01*
X10911D01*
Y732D01*
X10951D01*
Y812D01*
X10911D01*
Y852D01*
X10831D01*
Y812D01*
X10791D01*
Y732D01*
X10831D01*
X9572D02*
Y692D01*
X9652D01*
Y732D01*
X9692D01*
Y812D01*
X9652D01*
Y852D01*
X9572D01*
Y812D01*
X9532D01*
Y732D01*
X9572D01*
X3001Y6466D02*
Y6426D01*
X3081D01*
Y6466D01*
X3121D01*
Y6546D01*
X3081D01*
Y6586D01*
X3001D01*
Y6546D01*
X2961D01*
Y6466D01*
X3001D01*
X16699Y6988D02*
Y6948D01*
X16779D01*
Y6988D01*
X16819D01*
Y7068D01*
X16779D01*
Y7108D01*
X16699D01*
Y7068D01*
X16659D01*
Y6988D01*
X16699D01*
X2594Y7021D02*
Y6981D01*
X2674D01*
Y7021D01*
X2714D01*
Y7101D01*
X2674D01*
Y7141D01*
X2594D01*
Y7101D01*
X2554D01*
Y7021D01*
X2594D01*
X2790Y7216D02*
Y7176D01*
X2870D01*
Y7216D01*
X2910D01*
Y7296D01*
X2870D01*
Y7336D01*
X2790D01*
Y7296D01*
X2750D01*
Y7216D01*
X2790D01*
X17783Y6679D02*
Y6639D01*
X17863D01*
Y6679D01*
X17903D01*
Y6759D01*
X17863D01*
Y6799D01*
X17783D01*
Y6759D01*
X17743D01*
Y6679D01*
X17783D01*
X17588Y6483D02*
Y6443D01*
X17668D01*
Y6483D01*
X17708D01*
Y6563D01*
X17668D01*
Y6603D01*
X17588D01*
Y6563D01*
X17548D01*
Y6483D01*
X17588D01*
X17401Y6289D02*
Y6249D01*
X17481D01*
Y6289D01*
X17521D01*
Y6369D01*
X17481D01*
Y6409D01*
X17401D01*
Y6369D01*
X17361D01*
Y6289D01*
X17401D01*
D48*
X16758Y5472D02*
G03*
X16758Y5472I-80J0D01*
G01*
X3860Y8307D02*
G03*
X3860Y8307I-80J0D01*
G01*
M02*
