G04*
G04 #@! TF.GenerationSoftware,Altium Limited,Altium Designer,20.1.11 (218)*
G04*
G04 Layer_Physical_Order=8*
G04 Layer_Color=16711680*
%FSLAX24Y24*%
%MOIN*%
G70*
G04*
G04 #@! TF.SameCoordinates,54141B6B-DA1B-4774-B8CF-21792AEDCB4D*
G04*
G04*
G04 #@! TF.FilePolarity,Positive*
G04*
G01*
G75*
%ADD26C,0.0085*%
%ADD27C,0.0394*%
%ADD30C,0.0120*%
%ADD32C,0.0059*%
%ADD33O,0.0551X0.0315*%
%ADD34C,0.0256*%
%ADD35O,0.0256X0.0374*%
%ADD36C,0.0600*%
%ADD37R,0.0650X0.0650*%
%ADD38C,0.0650*%
%ADD39C,0.0197*%
D26*
X18622Y7067D02*
X18762D01*
X18549Y6772D02*
Y6994D01*
X18622Y7067D01*
X18762D02*
X18923Y6905D01*
X18304Y7067D02*
X18353Y7017D01*
X17852Y7067D02*
X18304D01*
X18353Y6772D02*
Y7017D01*
X18403Y6722D02*
X18500D01*
X18353Y6772D02*
X18403Y6722D01*
X18500D02*
X18549Y6772D01*
X2012Y6896D02*
Y7125D01*
X2209Y6887D02*
Y7125D01*
X2159Y7175D02*
X2209Y7125D01*
X2012D02*
X2062Y7175D01*
X2159D01*
X1799Y6837D02*
X1953D01*
X2012Y6896D01*
X2209Y6887D02*
X2258Y6837D01*
X1684Y6953D02*
X1799Y6837D01*
X1773Y7422D02*
X2373D01*
X1684Y6953D02*
Y7333D01*
X1773Y7422D01*
X2258Y6837D02*
X3280D01*
X2609Y7086D02*
X2634Y7061D01*
X2373Y7422D02*
X2609Y7186D01*
Y7086D02*
Y7186D01*
X17628Y6523D02*
X17716D01*
X17823Y6607D02*
Y6719D01*
Y6607D02*
X18002Y6428D01*
X18794D01*
X17716Y6523D02*
X17946Y6293D01*
X18850D01*
X19058Y6502D01*
X18794Y6428D02*
X18923Y6558D01*
X19058Y6502D02*
Y6961D01*
X18818Y7201D02*
X19058Y6961D01*
X16841Y6957D02*
X17552D01*
X17796Y7201D01*
X18818D01*
X18923Y6558D02*
Y6905D01*
X17608Y6822D02*
X17852Y7067D01*
X16841Y6822D02*
X17608D01*
X16770Y6751D02*
X16841Y6822D01*
X16739Y6751D02*
X16770D01*
Y7028D02*
X16841Y6957D01*
X16739Y7028D02*
X16770D01*
X14298Y4174D02*
X16232Y6107D01*
X10279Y4174D02*
X14298D01*
X16232Y6107D02*
X17159D01*
X14354Y4039D02*
X16287Y5972D01*
X10279Y4039D02*
X14354D01*
X16287Y5972D02*
X17103D01*
X10279Y9485D02*
X14325D01*
X16170Y7641D01*
X16844D01*
X10279Y9620D02*
X14381D01*
X16226Y7776D02*
X16900D01*
X14381Y9620D02*
X16226Y7776D01*
X16844Y7641D02*
X16973Y7511D01*
X16900Y7776D02*
X17029Y7646D01*
X10226Y6999D02*
Y7382D01*
X10226Y6382D02*
Y6765D01*
X10226Y6999D02*
X10276Y6949D01*
X12862D01*
X13165Y6647D01*
X10226Y6765D02*
X10276Y6814D01*
X12806D01*
X13109Y6512D01*
X10226Y7382D02*
X10226Y7382D01*
X15184Y6647D02*
X15260Y6723D01*
X13165Y6647D02*
X15184D01*
X15260Y6723D02*
Y6987D01*
X15168Y7079D02*
X15260Y6987D01*
X15068Y7079D02*
X15168D01*
X15240Y6512D02*
X15395Y6667D01*
Y7043D01*
X13109Y6512D02*
X15240D01*
X15043Y7104D02*
X15068Y7079D01*
X15264Y7174D02*
Y7274D01*
Y7174D02*
X15395Y7043D01*
X15238Y7299D02*
X15264Y7274D01*
X3330Y6268D02*
X3456Y6143D01*
X4316D01*
X6858Y3601D01*
X3274Y6133D02*
X3400Y6008D01*
X4260D02*
X8952Y1316D01*
X3400Y6008D02*
X4260D01*
X1549Y6897D02*
Y7389D01*
X1717Y7557D01*
X2429D01*
X1743Y6702D02*
X3336D01*
X1549Y6897D02*
X1743Y6702D01*
X2429Y7557D02*
X2698Y7288D01*
X2698D02*
X2704Y7282D01*
X2698Y7288D02*
X2698D01*
X2804Y7282D02*
X2830Y7256D01*
X2704Y7282D02*
X2804D01*
X3280Y6837D02*
X3400Y6957D01*
X3336Y6702D02*
X3456Y6822D01*
X3400Y6957D02*
X3617D01*
X3688Y7028D01*
X3718D01*
X3456Y6822D02*
X3617D01*
X3688Y6751D01*
X3718D01*
X6009Y9114D02*
X9239Y12343D01*
X10179D01*
X6009Y8860D02*
Y9114D01*
X6144Y8804D02*
Y9058D01*
X9295Y12208D02*
X10179D01*
X6144Y9058D02*
X9295Y12208D01*
X17712Y7440D02*
X17742D01*
X16973Y7511D02*
X17641D01*
X17712Y7440D01*
X17641Y7646D02*
X17712Y7717D01*
X17029Y7646D02*
X17641D01*
X17712Y7717D02*
X17742D01*
X17159Y6107D02*
X17194Y6071D01*
X17641D01*
X17103Y5972D02*
X17139Y5936D01*
X17641D01*
X17712Y5866D02*
X17742D01*
X17641Y5936D02*
X17712Y5866D01*
X3287Y7670D02*
X5010D01*
X3249Y7708D02*
X3287Y7670D01*
X5010D02*
X6144Y8804D01*
X3305Y7843D02*
X3343Y7805D01*
X4954D02*
X6009Y8860D01*
X3343Y7805D02*
X4954D01*
X2816Y7843D02*
X3305D01*
X2816Y7708D02*
X3249D01*
X2816Y6133D02*
X3274D01*
X2816Y6268D02*
X3330D01*
X8952Y1316D02*
X10179D01*
X6858Y3601D02*
Y3601D01*
X9008Y1451D02*
X10179D01*
X6858Y3601D02*
X9008Y1451D01*
X10229Y883D02*
Y1266D01*
X10229Y1500D02*
Y1883D01*
X10179Y1316D02*
X10229Y1266D01*
X10179Y1451D02*
X10229Y1500D01*
Y883D02*
X10229Y883D01*
X2745Y6339D02*
X2816Y6268D01*
X2745Y6063D02*
X2816Y6133D01*
X2715Y6339D02*
X2745D01*
X2715Y6063D02*
X2745D01*
Y7637D02*
X2816Y7708D01*
X2715Y7637D02*
X2745D01*
Y7914D02*
X2816Y7843D01*
X2715Y7914D02*
X2745D01*
X10229Y12393D02*
Y12776D01*
X10229Y11776D02*
Y12159D01*
X10179Y12343D02*
X10229Y12393D01*
X10179Y12208D02*
X10229Y12159D01*
Y12776D02*
X10229Y12776D01*
Y9670D02*
Y10053D01*
X10229Y9053D02*
Y9435D01*
X10229Y9670D02*
X10279Y9620D01*
X10229Y9435D02*
X10279Y9485D01*
X10229Y10053D02*
X10229Y10053D01*
X17712Y6142D02*
X17742D01*
X17641Y6071D02*
X17712Y6142D01*
X10229Y3606D02*
Y3989D01*
X10229Y4224D02*
Y4606D01*
X10229Y3989D02*
X10279Y4039D01*
X10229Y4224D02*
X10279Y4174D01*
X10229Y3606D02*
X10229Y3606D01*
D27*
X3781Y11681D02*
D03*
X13626Y1247D02*
D03*
X18817Y11682D02*
D03*
D30*
X15196Y5913D02*
X15878Y6594D01*
X16182D02*
X16251Y6526D01*
X15878Y6594D02*
X16182D01*
X16251Y6526D02*
X16850D01*
X17047Y6329D02*
X17441D01*
X16850Y6526D02*
X17047Y6329D01*
X12603Y5913D02*
X15196D01*
X11938Y5247D02*
X12603Y5913D01*
X9003Y5866D02*
X9621Y5247D01*
X11938D01*
X9003Y8391D02*
X11123D01*
X11282Y8550D01*
X14300D02*
X15790Y7060D01*
X11282Y8550D02*
X14300D01*
X15790Y7060D02*
X16351D01*
X17073Y7185D02*
X17468D01*
X17032Y7226D02*
X17073Y7185D01*
X16517Y7226D02*
X17032D01*
X16351Y7060D02*
X16517Y7226D01*
X8779Y6642D02*
X9805Y5615D01*
X4159Y6546D02*
X4255Y6642D01*
X8779D01*
X11332Y5615D02*
X11738Y6020D01*
X9805Y5615D02*
X11332D01*
X3041Y6506D02*
X3433D01*
X3473Y6546D01*
X4159D01*
X3031Y7490D02*
X3255D01*
X3511Y7234D02*
X3944D01*
X3255Y7490D02*
X3511Y7234D01*
X9512Y7991D02*
X11292D01*
X8687Y7165D02*
X9512Y7991D01*
X4012Y7165D02*
X8687D01*
X3944Y7234D02*
X4012Y7165D01*
D32*
X19483Y872D02*
X19548Y938D01*
X19679D01*
X19745Y872D01*
Y806D01*
X19679Y741D01*
X19745Y675D01*
Y610D01*
X19679Y544D01*
X19548D01*
X19483Y610D01*
Y675D01*
X19548Y741D01*
X19483Y806D01*
Y872D01*
X19548Y741D02*
X19679D01*
D33*
X19513Y5122D02*
D03*
Y8657D02*
D03*
X17170Y8516D02*
D03*
Y5264D02*
D03*
X945Y8657D02*
D03*
Y5122D02*
D03*
X3287Y5264D02*
D03*
Y8516D02*
D03*
D34*
X16678Y5472D02*
D03*
X3780Y8307D02*
D03*
D35*
X16678D02*
D03*
X3780Y5472D02*
D03*
D36*
X5534Y11154D02*
D03*
X14602Y2815D02*
D03*
D37*
X10226Y6382D02*
D03*
X10229Y11776D02*
D03*
Y9053D02*
D03*
Y4606D02*
D03*
Y1883D02*
D03*
D38*
X10226Y7382D02*
D03*
X10229Y12776D02*
D03*
Y10053D02*
D03*
Y3606D02*
D03*
Y883D02*
D03*
D39*
X15238Y7299D02*
D03*
X15043Y7104D02*
D03*
X16762Y7451D02*
D03*
X16752Y6309D02*
D03*
X16070Y7388D02*
D03*
X16063Y6378D02*
D03*
X9612Y1883D02*
D03*
X11292Y7991D02*
D03*
X17742Y6142D02*
D03*
Y5866D02*
D03*
X17468Y7185D02*
D03*
X17742Y7440D02*
D03*
Y7717D02*
D03*
X2715Y6339D02*
D03*
Y6063D02*
D03*
Y7914D02*
D03*
Y7637D02*
D03*
X9003Y8391D02*
D03*
Y5866D02*
D03*
X11738Y6020D02*
D03*
X11614Y8307D02*
D03*
X9599Y10053D02*
D03*
X6238Y6266D02*
D03*
X4033Y8195D02*
D03*
X3713Y8018D02*
D03*
X4063Y5608D02*
D03*
X3426Y5671D02*
D03*
X3149D02*
D03*
X17309Y8109D02*
D03*
X17032D02*
D03*
X4400Y7402D02*
D03*
X3707Y7432D02*
D03*
X3711Y5827D02*
D03*
X3718Y7028D02*
D03*
X3701Y6339D02*
D03*
X3031Y7490D02*
D03*
X3718Y6751D02*
D03*
X4387Y6391D02*
D03*
X16739Y6751D02*
D03*
X16394Y8172D02*
D03*
X16742Y7963D02*
D03*
X16744Y5762D02*
D03*
X16424Y5585D02*
D03*
X3100Y8110D02*
D03*
X17382Y5669D02*
D03*
X9599Y8942D02*
D03*
X10859D02*
D03*
Y10053D02*
D03*
X10871Y12776D02*
D03*
Y11665D02*
D03*
X9612D02*
D03*
Y12776D02*
D03*
X10869Y7382D02*
D03*
Y6271D02*
D03*
X9609D02*
D03*
Y7382D02*
D03*
X10871Y4606D02*
D03*
Y3495D02*
D03*
X9612D02*
D03*
Y4606D02*
D03*
X10871Y1883D02*
D03*
Y772D02*
D03*
X9612D02*
D03*
X3041Y6506D02*
D03*
X16739Y7028D02*
D03*
X2634Y7061D02*
D03*
X2830Y7256D02*
D03*
X17823Y6719D02*
D03*
X17628Y6523D02*
D03*
X17441Y6329D02*
D03*
M02*
