M48
;Layer_Color=9474304
;FILE_FORMAT=2:4
INCH,LZ
;TYPE=PLATED
T1F00S00C0.0079
T4F00S00C0.0310
T5F00S00C0.0429
;TYPE=NON_PLATED
T6F00S00C0.0256
%
T01
X009612Y000772
Y001883
X010871
Y000772
Y003495
Y004606
X009612
Y003495
X009609Y006271
X009003Y005866
X009609Y007382
X010869
X011292Y007991
X011614Y008307
X010859Y008942
Y010053
X009599
Y008942
X009003Y008391
X009612Y011665
Y012776
X010871
Y011665
X010869Y006271
X011738Y00602
X006238Y006266
X004387Y006391
X003701Y006339
X003718Y006751
Y007028
X003707Y007432
X003713Y008018
X004033Y008195
X0031Y00811
X002715Y007914
Y007637
X003031Y00749
X00283Y007256
X002634Y007061
X002715Y006339
Y006063
X003041Y006506
X003149Y005671
X003426
X003711Y005827
X004063Y005608
X0044Y007402
X015238Y007299
X015043Y007104
X01607Y007388
X016762Y007451
X016739Y007028
Y006751
X016752Y006309
X016744Y005762
X016424Y005585
X017382Y005669
X017742Y005866
Y006142
X017441Y006329
X017628Y006523
X017823Y006719
X017742Y00744
Y007717
X017468Y007185
X017309Y008109
X017032
X016742Y007963
X016394Y008172
X016063Y006378
T04
X010229Y000883
Y001883
Y003606
Y004606
X010226Y006382
Y007382
X010229Y009053
Y010053
Y011776
Y012776
T05
X014602Y002815
X005534Y011154
T06
X00378Y008307
X016678Y005472
M30
