M48
;Layer_Color=9474304
;FILE_FORMAT=2:4
INCH,LZ
;TYPE=PLATED
T1F00S00C0.0079
T5F00S00C0.0276
T7F00S00C0.0319
T8F00S00C0.0354
T9F00S00C0.0394
T10F00S00C0.0410
T11F00S00C0.0512
T12F00S00C0.0630
T13F00S00C0.0728
T14F00S00C0.1280
T15F00S00C0.1299
T16F00S00C0.1661
;TYPE=NON_PLATED
T17F00S00C0.0256
%
T01
X029727Y000887
X030514
X030908Y001674
X030868Y002192
X030856Y002689
X030514Y002462
X029727
X030121Y001674
X030129Y004492
X030144Y004946
X030122Y005432
X030504Y004125
X032698Y004528
X032726Y005014
X040129Y004937
X040142Y004492
X040135Y005432
X042688Y005014
X04271Y004528
X042329Y004108
X02894Y004036
X028152
X027365
X026577
X02579
X026184Y004824
X026971
X027759
X028546
X028152Y002462
X027365
X026577
X02579
X025003
X025396Y003249
X026184
X024609
X023034
X0234Y004075
X023677Y004352
X023954Y004629
X02423Y004906
X022409Y00432
X020564Y004346
Y004766
X020354Y004977
Y004556
X020144Y004346
Y004766
X019723
X019423Y004837
Y00455
X019136
Y004837
X018573Y004446
Y004159
Y003872
X017521Y003786
X017044
X016567
Y004264
X01665Y004803
Y00509
X016936Y005377
X017223
X01751
X017797
Y00511
Y004823
X018084
X019933Y004556
X019723Y004346
X020354Y005397
X020564Y005187
X020278Y000887
X020942Y000573
X018703Y000887
X017916
X017129
X016341
X015554
X014766
X013979
X01516Y001674
X015554Y002462
X014766
X01516Y003249
X015135Y003786
X014658
X014181
X014373Y003249
X015947
X01609Y003786
X015612
X017129Y002462
X017916
X017522Y001674
X016735
X019097
X023817Y000565
X024215Y000887
X025003
X02579
X026577
X027365
X028152
X02894
X013192
X012404
X012798Y001674
X013585
X013192Y002462
X012404
X012798Y003249
X012883Y003927
X013192Y004036
X013704Y003786
X013585Y003249
X01201
X011526Y003787
X010042Y004036
X009648Y003249
X008861
X00877Y002799
X008337Y002803
X007872
X007203Y002528
X00654Y001878
Y001638
Y001398
Y001158
X0063
X00606
X005298
X005058
Y001398
Y001638
Y001878
Y002118
X005298
Y002358
X004924Y002619
X004451
X003979
X003506
X00327Y003091
X003743
X004215
X004688
X005526Y003174
X005803
X00596Y002865
X00597Y002041
X006314
X004688Y002146
X004215
X003735Y001905
X003403Y001527
X003506Y003564
X003979
X003743Y004036
X003034Y003564
X002562
X002089
X001853Y004036
Y005454
X002325
X002798
X00327
X003743
X004215
X004688
X00516
X005632
X006105
X007248Y004628
X008Y00456
X006892Y004036
X005318
X009221Y002322
X01067Y002049
X010829Y002462
X011223Y001674
X010436
X010829Y000887
X010673Y000564
X010042Y000887
X009799Y006994
X009368Y007204
X010229
X01066Y006994
X01109Y007204
Y007625
Y008045
Y008465
X011521Y008255
Y007835
Y007414
Y006994
Y006574
X011951
Y006994
X012382
Y006574
X013067Y006461
X013353
Y006174
Y005887
Y005601
X013067
X013647Y00591
X012891Y009322
Y009802
X013191Y009706
X01358Y0106
X013506Y011931
Y012174
X013553Y012465
X013263Y011931
X012418Y012449
Y012692
X012498Y013764
X012669Y013968
X012669Y014388
X013367Y01356
Y01321
X013263Y015468
X012913Y015678
X011102Y015693
X011126Y016028
X011395
X011388Y016299
X011119
X01085
X010857Y016028
X010583Y015965
X010573Y015301
X010292Y015044
X010021
Y014362
X010292
X010615Y014347
X010639Y013678
X010916Y013676
X010288Y013673
X010019
X009621Y01271
X009628Y01163
X009346
X009063
X008781
X008499
X008279Y011511
X00805Y011382
X008043Y010436
X008271Y010307
X008499Y010136
X008781
X009063
X009346
X009628
X007758Y010178
X006814
X006341
X005869
X005396
X004924
X004451
X003979
X003743Y01065
X004215
X004688
X00516
X005632
X006105
X006814Y011123
X006577Y01254
X006341Y013013
X005869
X005632Y013485
X005223Y013249
X004501
X004139Y012887
X004862
Y01361
X004139
X004501Y013971
X003778
Y013249
X00327Y013485
X003034Y013958
X002798Y01443
X00327
X003034Y014902
X002562
X002089
X002325Y01443
X002089Y013958
X002325Y013485
X002089Y013013
X002325Y01254
X002089Y012068
X002325Y011595
Y01065
X001853
X001331Y010543
Y010783
X001357Y011157
Y012157
Y012657
X00138Y013485
X001357Y014157
Y014657
Y015157
Y016157
X002798Y01632
X00327
X003034Y016792
X002562
X002354Y018162
X002798Y018209
X00327
X003034Y018682
X00327Y019154
X002573Y019318
X002949Y019789
X002798Y020099
X001031Y020168
X005079Y020083
Y019843
Y019603
X005322Y019997
X005079Y020323
Y020563
Y020803
Y021043
X005438Y020656
X00674Y020067
X00691Y02023
X007451Y021024
X008852Y020438
X008782Y019707
X008546
X009819Y01974
X010073Y019745
X010593Y019955
X01095Y019891
X010821Y02063
X00997Y02074
X009851Y020486
X009684Y01901
Y01877
Y01853
X009444
X009204
X008204
X007964
X007724
Y01877
Y01901
X006454Y018091
X006214
X005854Y018162
X006223Y016989
X006463
X008058Y017149
X008064Y01666
X008995Y017144
X010289Y016938
X01111Y015237
X010861Y012808
X010859Y012062
X01239Y010943
X011681Y009802
Y009322
X008231Y006871
X007758
X007286
X006814
X006341
X005869
X005396
X00516Y007343
X005632
X006105
X006577
X006341Y007816
X005869
X006105Y008288
X005514Y008367
X005318Y008761
X005711
X005121Y009154
X004727
X004333
X00394
X003546
X003152
X002759
X002365
X001971
X001577
X001381Y008761
X001774
X001577Y008367
X001381Y007973
X001774
X001853Y007343
X002325
X002798
X00327
X003743
X004215
X004688
X003979Y006871
X003506
X003743Y006398
X003979Y005926
X003506
X002089
X001853Y006398
X003349Y007973
X003743
X003546Y008367
X003349Y008761
X003743
X00327Y01065
X002562Y010178
X002089
X001617
X001144
X000672
X003034Y012068
X00327Y01254
X003034Y013013
X004139Y014332
X004862
X005223Y013971
X005632Y01443
X005869Y014902
X006341
X006577Y01443
Y013485
X008364Y013845
Y014955
X00805Y015157
X008196Y012531
X00862
X004451Y014902
X003979
X005632Y006398
X006105
X006577
X00705
X007522
X007995
X008231Y005926
X007758
X007286
X006814
X006341
X005869
X005396
X011871Y020502
X011873Y02078
X012542Y020803
X013496Y020846
X013432Y020309
X013888Y020317
X014224Y020293
Y020562
X014494Y020569
Y0203
Y020031
X014224Y020024
X01416Y020836
X015305Y018373
X014724Y016915
X014578Y015662
X014335
X014028Y015647
X013786
X013793Y014926
X014035
X01433Y01495
X014572
X014637Y013692
X015031
Y013298
Y012905
X014637
Y013298
X014244
Y013692
Y012905
X013795Y012465
X013748Y012174
X01382Y011274
X014246Y011275
X01467Y011271
X015076Y011623
X015483Y012186
X016515Y01215
X016343Y011492
X016352Y01119
X016694Y011195
X016618Y013284
X016313Y013737
X016528Y014072
X015749Y014144
X018396Y014228
Y013798
X017703Y012966
X017402
X018836Y012385
X019251Y012392
X01964Y012199
X01999Y01219
X02022Y01209
X020243Y011812
X01979Y01144
X019794Y011205
X019798Y0109
X019802Y010609
X020036Y010613
X020271Y010617
X020916Y0105
X020899Y01081
Y01103
X021729Y010974
X022048Y011354
X022447Y011321
X022434Y010902
X02361Y01092
Y01005
X02409Y010051
X024431Y010049
X02494Y01005
X024989Y010919
X025578Y01098
X026563Y010979
X02715Y01099
X027854Y010897
X027759Y01191
X026971
X026184
X025396
X024609
X023822
X023034
X022247
X02264Y012698
X023428
X024215
X025003
X02579
X026577
X026971Y013485
X026184
X025396
X024609
X023822
X023034
X022247
X021261Y013396
X021252Y013789
X02117Y01411
Y01444
X02119Y014767
X02114Y01508
X021316Y015322
X021489Y015867
X02117Y016078
Y016408
X021167Y016734
X021168Y017527
X021169Y017915
X021853Y017422
X02264
X023428
X024215
X025003
X02579
X026577
X02658Y01838
X02689Y018393
X0272Y01839
X02787Y01837
X028131Y018377
X0286Y01763
X028565Y017341
X02861Y01701
X028614Y016732
X028619Y016351
X028623Y015955
X028316Y015944
X028327Y015568
X028419Y015289
X028591Y015048
X028587Y014727
X028472Y014448
X02828Y01418
X028626Y013981
Y0128
Y012406
X028387Y012601
X028625Y011814
X029309Y009881
X027919Y009608
X02763Y00961
X02718Y00969
X02692Y01
X02666Y01002
X026112Y009732
X025802Y009136
X025398Y009132
X024758Y008888
X024436Y008877
X023689Y009192
Y009457
X022787Y00951
X022792Y009945
X022793Y009039
X021857Y009408
X021859Y009659
X021211Y010058
X021148Y011731
X02117Y01221
X021216Y01303
X020119Y012901
X019771Y014126
X019783Y014461
X019891Y014984
X020211Y014799
X019399Y015128
X019395Y015791
X019771Y016094
X019783Y016429
X019853Y016941
Y017326
X020238Y017135
X020154Y016769
X019385Y017589
X019381Y018266
X022248Y018381
X022782Y018223
X023058
X02324Y01841
X02361Y01835
X02395Y01822
X024269Y018239
X024533Y018393
X024861Y018404
X025222Y018357
X025581
X025982Y018426
X02625Y01828
X026176Y019307
X02657
X02578Y01931
X02534Y01928
X02516Y01948
X02536Y01968
X024264Y019897
X02418Y0195
X02381Y01943
X0238Y01975
X023693Y020057
X024108Y020959
X0245Y020953
X022432Y020132
X0221Y02012
Y019853
Y019586
X02223Y01932
X02249Y019287
X022727Y01954
X02174Y01928
X021437Y01928
X021051Y019581
X021056Y019963
X022247Y016635
X023034
X023822
X024609
X025396
X026184
X026971
X026577Y015847
X02579
X025003
X024215
X023428
X02264
X023034Y01506
X023822
X024609
X025396
X026184
X026971
X026577Y014273
X02579
X025003
X024215
X023428
X02264
X022247Y01506
X019077Y011428
X019081Y011193
X019215Y006722
X019489
X019402Y005982
X019127
Y005708
X019402
X020354Y005817
X020564Y006028
Y005607
X022707Y006002
X022974
X023242
X02244Y00641
X022432Y006745
X022061Y007283
X022886Y007704
X023478Y007448
X023725Y007199
X023997
X024226Y006539
X025963Y007483
X025954Y007785
X026305Y007487
X026209Y008405
X027588Y00842
Y008721
Y009021
X02838Y00839
Y00809
Y007789
X02868
X028981
X02894Y005611
X016987Y00591
X01651
X016033
X015556
X015078
X014601
X014124
X014136Y007816
X014373Y008288
X01464Y00843
Y00875
Y00907
Y00939
X014373Y009233
X0156Y00939
Y00907
Y00875
Y00843
Y00811
X01528
X01496
X01464
X0139Y008288
X016262
X014491Y010653
X026906Y019792
X027241Y01978
X027996Y020188
X028583
X029007Y020189
X029825Y018772
X030206Y018767
X029491Y018323
Y018005
X029548Y017538
X029507Y01721
X029866Y017668
X030133
X030399
X030339Y017327
X030411Y016919
X030411Y016527
Y01613
X02993Y01533
Y015021
Y014715
Y014406
X029621
X029821Y013926
X030016Y01373
X02993Y012574
X029621
X02993Y012265
Y011959
X030199Y011958
X029484Y010074
X029455Y009198
X029453Y00896
X029727Y005611
X030504Y005852
X032691Y005468
X034284Y008585
X034044Y009179
X034062Y009633
X03478Y00965
X035155Y00943
X0357Y00968
X036306Y00975
X03656
X036814
X037068
X036306Y010004
Y010258
X035891Y010758
X035653
Y011036
X035891
X035342Y011355
X034949
Y011748
Y012142
X034555
Y011748
Y011355
X03425Y01103
Y010729
X03381Y01103
X03351Y01101
X032682Y011103
X032552Y011506
X032835Y010692
X033363Y01273
X033763Y012729
X03402Y01245
X034401Y013184
X03434Y013567
Y0138
Y014033
X034386Y014378
X033997Y014611
X033114Y014613
X033363Y013917
X033763Y013916
X032612Y013158
X035075Y012866
X035342Y012142
Y011748
X0364Y01165
X037303Y01148
X038137Y011476
X038172Y012064
X038226Y012354
X038611Y012654
X03947Y012629
Y012906
X039534Y013498
X039727Y013834
X039543Y014307
X03957Y01468
X039727Y01516
X039543Y015633
X039248Y015867
X038979
X03871
X038703Y016138
X038972
X03924
X039566Y016153
X039073Y016595
X038625Y016658
Y016939
X039073Y017132
X039342Y017401
X039611Y01767
X040149
Y017132
Y016595
X03988Y017401
X039871Y018012
X040409
Y01855
X041066Y018209
X041538
X04201
X042483
X039333Y018012
X039065Y018281
Y018819
Y019357
X039602
X038378Y01873
Y018449
X037967Y018009
X037685
X037861Y017426
X038142
X03752Y016954
Y016673
X037392Y015701
X038436Y015804
X038425Y015139
X038688Y014897
X03895Y01504
X038955Y015531
X038145Y014882
X037874
Y014201
X038145
X038468Y014185
X038492Y013516
X038769Y013515
X03814Y01355
X037871
X03755Y01328
X03723Y01334
X036289Y01303
X03596
Y012701
X036025Y013514
X036024Y013929
X037555Y012158
X039603Y012178
X039622Y011802
X039727Y012475
X040588Y01247
Y013829
Y015155
X039209Y014136
X039459Y010993
X039893
Y010559
X039676Y010776
X039459Y010559
X039485Y010212
Y009958
Y009704
X03923
X038977
X036225Y009202
X035981Y008612
X03515Y00857
X034056Y015705
X033401Y017165
X032999Y01728
X033801Y018058
Y018482
X034392Y018755
X03467Y01875
X035679Y018865
Y019246
X035297
X036061
X035679Y019628
X03578Y02032
X03558Y01822
X03522Y017743
X034406Y017779
X035994Y017606
X03634Y017743
X036292Y01729
X036715Y017165
X036927Y017925
X039073Y01767
X029621Y01533
X042329Y005835
X042703Y005468
X041689Y022407
X04142Y022401
X041076Y02277
X042006Y02279
Y02393
X041663Y024301
X041394Y024295
X041504Y024662
X041235
X041228Y024933
X041496
X041765
X041772Y024662
X042039Y024996
X04205Y025661
X04233Y025918
X042601
Y026599
X04233
X042007Y026614
X041984Y027284
X041706Y027285
X042334Y027288
X042603
X041512Y025724
X04152Y025269
X041076Y02391
X039471Y02884
X038409Y02849
X038389Y027822
X037866Y0283
X037773Y029038
X037379
Y029432
X037773
X037576Y029235
X037511Y030234
X037076Y03014
X036644Y02961
X03664Y02883
X036983Y028644
X035796Y028602
X035796Y029029
X035813Y029446
X035344Y030323
X035346Y03067
X034277Y031136
X033479Y030673
Y030323
X034028Y029619
X0344Y029035
X034353Y028685
X035083Y028346
X035452Y028357
X03354Y028362
X033173Y028346
X032453Y028685
X0325Y029035
X032248Y029587
X031755Y030476
X031416Y03048
X03112Y030147
X031419Y031232
X031786Y031138
X032411Y031136
X031684Y031808
X031327Y032527
X031376Y03285
X031921Y032806
X032269Y032808
X032535Y033136
X032473Y033605
X031926Y033614
X031376Y033613
X031137Y03424
X031189Y034642
X030864
Y034967
Y035293
X030895Y035944
X030495Y03637
X030072Y036368
X029656Y0357
X029662Y035369
X029733Y034753
X029812Y034127
Y033733
X029536Y033141
X029826Y032731
X030407Y033153
X030436Y032002
X032922Y032262
X033256Y032827
X03482Y032801
X035079Y032677
Y032974
X035076Y03351
X036033Y03338
Y0331
Y03282
X036343Y03315
X036623Y033141
X036913Y032731
X037496Y033151
X036899Y033733
Y034127
X036347
Y033733
X03607Y034712
X036069Y035197
X036715Y035366
X036709Y035697
X036931Y034959
X037949Y034968
Y035294
Y034643
X038275
X038813Y034651
X039312Y034652
X039806Y03468
X040332Y034766
X040606
Y03445
X040534Y034092
X041476
X04092Y03336
X040553Y033066
X040514Y032563
X041146Y0328
X042423Y032696
X042483Y03166
X042403Y031307
X041797Y031508
X041253Y03131
Y03105
X040519Y030853
X039924Y030991
Y031341
X039272Y031359
X039233Y030219
X039882Y030367
X038643Y03048
X037876Y03053
X038222Y030054
X038436Y02968
X037906Y03177
X038462Y03285
X039008Y032806
X039356Y032808
X03956Y033605
X039013Y033614
X038406Y03343
X038605Y035884
Y036215
X038936
Y036547
X038605
X038273
X037942
X037582Y036369
X037159Y036367
X036391Y036596
X036122Y036589
X035827Y036202
X035449Y035816
Y03554
X035199Y036564
X034778
X033572Y036297
X033652Y035487
X033376
X033932Y035482
X034208
X033045Y035223
X032725Y035687
X032739Y034677
X032226Y034652
X031726Y034651
X032472Y036518
X037982Y035943
X038273Y036215
X038936Y035884
X039268
X039599
X039811Y035687
X040168Y035786
X040132Y035223
X041016Y03522
X041018Y035482
X041295
X042252Y035223
X042426Y03574
X042285Y036564
X041865
X040659Y036297
X040262Y036547
X039931
X039565Y036512
X035079Y03238
Y032083
X032589Y024671
X030881Y022719
X029265Y02284
X028352Y022957
X028029Y022972
X027759
X027302Y022944
X026894
X026486Y022944
X026078Y022944
X025658Y022944
X02525Y022944
X024492Y022797
Y022499
Y0222
X023776Y021887
X023502
X023228
X023484Y022523
X023007Y022938
X022591
X022183
X021776Y022938
X021368Y022938
X020797Y023724
X020675Y023938
X020922
X020867Y024302
X020514Y024709
Y024986
X019869Y024962
X019598Y024738
Y024446
X018963Y024884
X019158Y025106
Y025382
X018947Y025537
X02041Y02583
X020681
X020953
X021439Y025261
X021872
Y024828
X021439
X021717Y02627
X021993Y026259
X022357Y02583
X022629
X022901
X023162Y026761
Y027033
X02354Y027505
X023817
X023693Y0283
X024236Y02849
X024471Y0278
X025018Y02695
X02529
X025561
X02601Y026958
X026205Y026762
X026332Y026462
X026136Y026266
X026806Y02583
X027078
X0273Y02548
X027615Y02538
Y025103
X02778Y02489
X027268Y024986
Y024709
X027558Y023951
X02831Y023911
X028847Y023847
X028839Y024303
X028863Y024638
X029132
X029125Y024909
X028856
X028587
X028594Y024638
X02832Y024575
X027927Y025822
X027882Y026105
Y026377
X02719Y02695
X026918
X026647
X02632Y025261
X025887
Y024828
X02632
X02494Y024709
Y024986
X024593Y025103
Y02538
X024912Y025491
X02513Y02583
X025402
X024273Y025782
X024325Y026105
Y026377
X024251Y024555
X02389
X024613
X025315Y024302
X025263Y023925
X024618Y023592
X024257
X023895
X022963Y023937
X023039Y024188
X022762
X020206Y023753
X020148Y026761
Y027033
X021055Y026979
X022256
X021867Y027403
Y027679
X021622Y028602
X021623Y029029
X02164Y029446
X02247Y02961
Y02883
X022809Y028644
X023206Y029038
Y029432
X0236
Y029038
X023403Y029235
X023337Y030234
X022903Y03014
X023703Y03053
X024469Y03048
X024049Y030054
X024263Y02968
X025059Y030219
X025709Y030367
X025751Y030991
Y031341
X025099Y031359
X025183Y032808
X024835Y032806
X024289Y03285
X024233Y03343
X02484Y033614
X025387Y033605
X025139Y034652
X02464Y034651
X024102Y034642
X023777
Y034967
Y035293
X023809Y035943
X023409Y036369
X022986Y036367
X022218Y036596
X021949Y036589
X021654Y036202
X021226Y035816
Y03554
X021896Y035197
X021897Y034712
X022174Y034127
Y033733
X022725
Y034127
X022758Y034959
X022542Y035366
X022536Y035697
X021026Y036564
X020605
X019399Y036297
X019479Y035487
X019203
X019758Y035482
X020035
X018872Y035223
X018551Y035687
X018566Y034677
X018052Y034652
X017553Y034651
X017015Y034643
X016689
Y034968
Y035294
X016721Y035944
X016321Y03637
X015898Y036368
X015131Y036596
X014862Y036589
X014567Y036202
X01408Y03574
X013906Y035223
X014843Y0352
X014844Y034714
X01556Y034753
X015489Y035369
X015483Y0357
X015639Y034127
Y033733
X015088
Y034127
X015083Y03315
X015363Y033141
X014773Y0331
Y03338
Y03282
X014077Y032696
X01413Y031742
X014167Y031449
Y031117
X014498
Y031449
X014956Y030589
X01614Y03014
X017243Y03048
X017582Y030476
X017612Y031138
X017245Y031232
X017511Y031808
X017154Y032527
X017203Y03285
X017748Y032806
X018096Y032808
X018362Y033136
X0183Y033605
X017753Y033614
X017203Y033613
X016964Y03424
X016234Y033153
X015653Y032731
X016263Y032002
X018749Y032262
X019083Y032827
X020647Y032801
X020906Y032677
Y03238
Y032083
Y032974
X020903Y03351
X02186Y03338
Y0331
Y03282
X02217Y03315
X02245Y033141
X02274Y032731
X023323Y033151
X023733Y03177
X02634Y032563
X02638Y033066
X02675Y033346
X026973Y0328
X02825Y032696
X028946Y03282
Y0331
Y03338
X029256Y03315
X029261Y033733
Y034127
X029017Y034714
X029016Y0352
X028079Y035223
X028253Y03574
X02874Y036202
X029035Y036589
X029305Y036596
X028112Y036564
X027691
X026486Y036297
X02649Y03523
X026433Y034766
X026158
X026433Y03445
X02636Y034092
X027303
X027121Y035482
X026845
X025959Y035223
X025638Y035687
X025633Y03468
X025389Y036526
X026346Y030853
X027079Y03105
Y03131
X027624Y031508
X027521Y030915
Y030584
X027639Y029677
X027647Y029221
X027635Y028956
X027901
X028166Y028949
X028164Y028707
X028949Y028878
X02737Y028956
X02816Y0299
X02834Y031113
X028671
Y031444
X02834
X028312Y031743
X029129Y030589
X025298Y02884
X021279Y028357
X02091Y028346
X020179Y028685
X020227Y029035
X019854Y029619
X019305Y030323
Y030673
X020104Y031136
X021173Y03067
X021171Y030323
X018238Y031136
X017587Y029718
X018327Y029035
X018279Y028685
X019Y028346
X019366Y028362
X014789Y028879
X013993Y028953
X013991Y028711
X013728Y02896
X013987Y029904
X013849Y025135
Y024777
Y024383
Y023985
X013939Y036564
X018293Y036506
X027756Y022283
Y022014
X028025
Y022283
X028376Y022288
X028654Y022286
X013239Y021397
Y021127
X012557
Y021397
X011869Y021399
Y02113
X010461Y021702
Y021935
X010068
Y021702
X009588Y021688
X009123Y021855
X008847
X0085Y02178
X00719Y021788
X00695
X00671
X006566Y021493
X007451Y021504
Y021264
X007456Y02282
X007488Y023705
X007493Y024072
X00742Y02459
X00718Y02517
Y02541
Y02565
X007224Y025928
Y026168
Y026408
X007535Y026257
X007963Y026279
Y026633
X008212Y026459
X00924Y026466
X009245Y026212
X009966Y026631
X010316
X010043Y027822
X010062Y02849
X00952Y0283
X009427Y029038
X009033
Y029432
X009427
X00923Y029235
X009164Y030234
X00873Y03014
X008297Y02961
Y02883
X008636Y028644
X007449Y028602
X00745Y029029
X007467Y029446
X006998Y030323
X007Y03067
X005931Y031136
X005132Y030673
Y030323
X005681Y029619
X006054Y029035
X006006Y028685
X006737Y028346
X007106Y028357
X005193Y028362
X004827Y028346
X004106Y028685
X004154Y029035
X003995Y029535
X003409Y030476
X00307Y03048
X003072Y031232
X003439Y031138
X004065Y031136
X003338Y031808
X00298Y032527
X003029Y03285
X003575Y032806
X003923Y032808
X004189Y033136
X004127Y033605
X00358Y033614
X003029Y033613
X002791Y03424
X002841Y034643
X002516
Y034968
Y035294
X002548Y035944
X002148Y03637
X001725Y036368
X000958Y036596
X000689Y036589
X00035Y036539
Y036239
Y035939
Y035639
Y035339
Y035039
X00067Y0352
X00067Y034714
X001387Y034753
X001316Y035369
X00131Y0357
X001466Y034127
Y033733
X000914
Y034127
X00091Y03315
X00119Y033141
X0006Y0331
Y03282
Y03338
X001853Y033328
X002061Y033153
X00148Y032731
X00209Y032002
X000672Y03191
Y030965
X000783Y030589
X000436Y030493
Y029548
X000672Y029076
X001144
X001617
X001967Y03014
X002573Y027722
X002089Y027186
X001617
X001144
X000672
X000436Y027658
Y026713
X000908
X00138
X001853
X001144Y026241
X000672
X000982Y02589
X000436Y025769
X00138Y024824
X001853
X002089Y024351
X001617
X001144
X00138Y023879
X001853
X002355Y023662
X002325Y022934
X002575Y022422
X00327Y021989
X003329Y02313
X003679
X004458Y022851
X005696Y022896
X006045Y023308
X00601Y023649
X006012Y023951
X006311
X00643Y02422
X006012Y024509
X00601Y02483
X006012Y025132
X006311
X00415Y02389
X005321Y02241
Y02197
X001014Y023204
X00252Y0251
X002387Y025888
X003858Y02641
X004575Y032262
X00491Y032827
X006474Y032801
X006733Y032677
Y032974
X00673Y03351
X007687Y03338
Y0331
Y03282
X007997Y03315
X008277Y033141
X008567Y032731
X00915Y033151
X008552Y033733
Y034127
X008001
Y033733
X007723Y034712
X007723Y035197
X008368Y035366
X008363Y035697
X008587Y034962
X009603Y034968
Y035294
Y034643
X009928
X010467Y034651
X010966Y034652
X01146Y03468
X011985Y034766
X01226
Y03445
X012187Y034092
X01313
X012576Y033346
X012207Y033066
X012167Y032563
X0128Y0328
X012906Y03131
Y03105
X013348Y030919
Y030588
X01345Y031508
X013466Y029681
X013474Y029226
X013462Y02896
X013197
X011125Y02884
X010886Y030219
X011536Y030367
X011577Y030991
Y031341
X010926Y031359
X010296Y03048
X00953Y03053
X009876Y030054
X01009Y02968
X00956Y03177
X010116Y03285
X010662Y032806
X011009Y032808
X011213Y033605
X010667Y033614
X01006Y03343
X009636Y035943
X009236Y036369
X008813Y036367
X008045Y036596
X007776Y036589
X00748Y036202
X007077Y035816
Y03554
X006852Y036564
X006432
X005226Y036297
X005306Y035487
X005029
X005585Y035482
X005862
X004699Y035223
X004378Y035687
X004393Y034677
X003879Y034652
X00338Y034651
X006733Y03238
Y032083
X012172Y030853
X012367Y035241
X012672Y035482
X012948
X011785Y035223
X011465Y035687
X011202Y036505
X012313Y036297
X013518Y036564
X011417Y02612
X011784Y025195
X01237Y025075
Y024815
X011856Y023601
X012131Y023258
X01237Y02291
Y02265
X010986Y023601
X010425Y025243
X011077Y036755
X011353
X011496Y038309
X011772
X01199Y038494
X011383Y03921
Y03951
X011207Y03983
X01089Y03985
X01061
X010217Y03983
X00994
X009589Y039845
X00935Y039836
X009057Y03983
X00886Y040117
Y040394
X008797Y03948
X008887Y039171
X009882
X009747Y03827
X010073Y038306
X010236Y038082
X010512
X00952Y03809
X008662Y038309
X008385
X008236Y038046
X007648Y03723
X007393
X00631
X00634Y03688
X005113Y037212
X004522Y036917
X004267Y036755
X00399
X004056Y038309
X003779
X004348Y038317
X004679Y03835
X00496
X005241
X006062Y038912
Y039193
X006642Y03835
X006923
X003667Y03921
Y03951
X00349Y03983
X00316Y03985
X00289
X0025Y03983
X002224
X001873Y039845
X00162Y03984
X00134Y03983
X001143Y040117
Y040394
X00108Y03948
X00117Y039171
X00035Y039241
Y038941
Y03864
Y03834
Y03804
X00065
X000669Y038309
X000945
X00095Y03804
Y03774
X00065
Y03744
X00035
Y03714
Y03684
Y03774
X001851
Y03744
Y03714
X002151Y03744
Y03774
X00203Y03827
X00236Y03831
X002519Y038082
X002796
X00181Y03809
X002165Y039171
Y040511
X002756
X002812Y040848
Y041125
X00363Y04048
X006004Y04272
X00616Y04292
X005848
X006775Y042848
Y042536
X007087
X009882Y040511
X010472
X010712Y040651
X010528Y040848
Y041125
X011347Y04048
X012385Y040539
Y040821
X012918Y039984
X0132
X013229Y041889
X012947
X012385Y042468
Y04275
X013397Y03723
X013427Y03688
X01448Y03723
X014735
X015828Y038314
X016102Y038309
X016378
X017243Y03809
X017463Y03827
X017793Y03831
X017952Y038082
X018229
X019212Y038309
X019489
X019708Y038457
X0191Y03921
Y03951
X018923Y03983
X018593Y03985
X018323
X017933Y03983
X017657
X017306Y039845
X017053Y03984
X016773Y03983
X016576Y040117
Y040395
X016513Y03948
X016603Y039171
X017598
Y040511
X018189
X018431Y04064
X018245Y040848
Y041125
X019063Y04048
X020081Y040457
Y040738
X020439Y041619
X02072
X021275Y042152
Y042434
X022368Y041619
X022649
X023204Y042152
Y042434
X02201Y040738
Y040457
X022543Y039901
X022825
X024293Y040117
Y040395
X02449Y03983
X024783Y039836
X025022Y039845
X025374Y03983
X02565
X026043Y03985
X026323
X02664Y03983
X026817Y03951
Y03921
X026929Y038309
X027205
X027487Y038307
X02757Y03723
X0276Y03688
X028653Y03723
X028908
X025945Y038082
X025669
X025506Y038306
X02518Y03827
X024953Y03809
X024095Y038309
X023818
X023537
X02432Y039171
X02423Y03948
X025315Y039171
Y040511
X025905
X02614Y04065
X025961Y040848
Y041125
X02678Y04048
X028543Y042536
X028855
Y042848
X025526Y036755
X02525
X021821Y03723
X021566
X020483
X020513Y03688
X019286Y037212
X01844Y036755
X018163
X020614Y039901
X020896
X014764Y042536
X014452
Y042848
X031045Y042797
Y042515
X030483Y041936
X030201
X030922Y040871
Y040589
X030389Y040034
X030107
X032009Y040117
Y040394
X032206Y03983
X032486Y03984
X032739Y039845
X03309Y03983
X033367
X033756Y03985
X034026
X034356Y03983
X034533Y03951
Y03921
X034645Y038309
X034922
X035207Y038306
X036384Y0384
X036665
X037245Y038962
Y039243
X038027Y0384
X038309
X03859
X038978Y038292
X039252Y038309
X039528
X040386Y03809
X040613Y03827
X040939Y038306
X041102Y038082
X041378
X041553Y038337
X042362Y038309
X042638
X042918
X042994Y037236
X042756
X041743Y03723
X041773Y03688
X040829Y03758
X040357
X0397Y036755
X039423
X038936Y036878
X037995Y03758
X035994Y03723
X03574
X034656
X034686Y03688
X03343Y03731
X033385Y038082
X033662
X033226Y03831
X032896Y03827
X032676Y03809
X031811Y03832
X031535
X031269
X032037Y039171
X031946Y03948
X033031Y039171
Y040511
X033622
X03386Y04066
X033678Y040848
Y041125
X034496Y04048
X03622Y042536
X036532
Y042848
X037344Y04292
X037656
X0375Y04272
X039726Y040394
Y040117
X039923Y03983
X040216Y039836
X040455Y039845
X040807Y03983
X041083
X041476Y03985
X041756
X042073Y03983
X04225Y03951
Y03921
X042213Y04048
X041339Y040511
X041394Y040848
Y041125
X041376Y041427
X040748Y040511
Y039171
X039753
X039663Y03948
X032613Y036755
X032336
T05
X015338Y01047
Y011178
X015654Y016145
X014945
X016904Y016123
X017612
X020111Y023295
X02082
T07
X034649Y022571
Y023571
Y024571
Y025571
Y026571
X036649
Y025571
Y024571
Y023571
Y022571
X03823
Y023571
Y024571
Y025571
Y026571
X04023
Y025571
Y024571
Y023571
Y022571
T08
X034667Y006801
X035667
X036667
X037667
X038167Y007801
X037167
X036167
X035167
T09
X041232Y01028
X042232
Y01128
X041232
Y01228
X042232
Y01328
X041232
Y01428
X042232
Y01528
X041232
Y01628
X042232
Y01728
X041232
X016063Y021503
X015063
Y022503
X016063
Y023503
X015063
Y024503
X016063
Y025503
X015063
T10
X033927Y002293
X034927Y00297
X037907Y002301
X038907Y00297
T11
X014229Y002018
X016198
T12
X019401Y000981
X004104Y021056
X030837Y009175
X033317Y005494
X039518
X02874Y039961
X014567
T13
X002635Y004588
X004536
Y006438
Y008289
X002635
Y006438
T14
X034167Y004293
X038667
T15
X041339Y001969
X001969
X041339Y007874
Y019685
X005906Y041339
X037402
T16
X018987Y008765
X030798Y020576
T17
X003779Y039764
X011496
X019213Y039764
X026929
X034646Y039764
X042362
M30
