G04*
G04 #@! TF.GenerationSoftware,Altium Limited,Altium Designer,20.1.11 (218)*
G04*
G04 Layer_Color=32896*
%FSLAX24Y24*%
%MOIN*%
G70*
G04*
G04 #@! TF.SameCoordinates,8E8D3587-AC64-4FAB-BC23-9619E2EF9FFF*
G04*
G04*
G04 #@! TF.FilePolarity,Positive*
G04*
G01*
G75*
%ADD11C,0.0157*%
%ADD12C,0.0050*%
%ADD17C,0.0079*%
%ADD18C,0.0060*%
%ADD23C,0.0047*%
%ADD344C,0.0090*%
%ADD345C,0.0080*%
%ADD346R,0.5086X0.3033*%
G36*
X21035Y39847D02*
X21050Y39840D01*
X21065Y39829D01*
X21087Y39815D01*
X21108Y39796D01*
X21130Y39767D01*
X21152Y39731D01*
X21178Y39687D01*
X21200Y39632D01*
X21221Y39567D01*
X21243Y39490D01*
X21261Y39399D01*
X21269Y39348D01*
X21280Y39297D01*
X21283Y39239D01*
X21291Y39177D01*
Y39166D01*
X21294D01*
X21298Y39158D01*
X21302D01*
X21316Y39162D01*
X21342Y39169D01*
X21371Y39177D01*
X21404Y39180D01*
X21440Y39188D01*
X21520Y39191D01*
X21655D01*
X21681Y39188D01*
X21710D01*
X21739Y39184D01*
X21808Y39169D01*
Y39173D01*
X21812Y39177D01*
X21816Y39191D01*
Y39195D01*
Y39206D01*
Y39220D01*
X21819Y39239D01*
Y39264D01*
X21823Y39297D01*
X21826Y39330D01*
X21834Y39366D01*
X21848Y39450D01*
X21874Y39545D01*
X21907Y39643D01*
X21950Y39745D01*
X21954Y39749D01*
X21961Y39756D01*
X21972Y39771D01*
X21990Y39785D01*
X22009Y39800D01*
X22027Y39815D01*
X22049Y39822D01*
X22067Y39826D01*
X22125D01*
X22140Y39818D01*
X22162Y39811D01*
X22187Y39796D01*
X22224Y39778D01*
X22260Y39749D01*
X22308Y39713D01*
X22322D01*
X22337Y39709D01*
X22355Y39702D01*
X22373Y39694D01*
X22388Y39680D01*
X22399Y39661D01*
X22402Y39636D01*
Y39618D01*
Y39614D01*
Y39607D01*
X22399Y39592D01*
X22391Y39581D01*
X22380Y39567D01*
X22366Y39552D01*
X22344Y39545D01*
X22315Y39541D01*
X22311D01*
X22304Y39545D01*
X22278Y39559D01*
X22253Y39581D01*
X22246Y39600D01*
X22242Y39618D01*
Y39629D01*
X22249Y39676D01*
X22246Y39680D01*
X22235Y39691D01*
X22216Y39705D01*
X22198Y39720D01*
X22173Y39734D01*
X22147Y39749D01*
X22122Y39760D01*
X22100Y39764D01*
X22078D01*
X22060Y39753D01*
X22049Y39745D01*
X22034Y39731D01*
X22020Y39713D01*
X22005Y39691D01*
X21987Y39658D01*
X21969Y39618D01*
X21950Y39570D01*
X21936Y39512D01*
X21918Y39443D01*
X21903Y39363D01*
X21888Y39271D01*
X21877Y39166D01*
Y39162D01*
Y39158D01*
X21881Y39155D01*
X21885Y39151D01*
X21888D01*
X21896Y39148D01*
X21907Y39144D01*
X21925Y39137D01*
X21969Y39118D01*
X22023Y39097D01*
X22082Y39064D01*
X22140Y39024D01*
X22198Y38976D01*
X22249Y38922D01*
X22253Y38918D01*
X22264Y38903D01*
X22278Y38881D01*
X22293Y38852D01*
X22308Y38819D01*
X22322Y38779D01*
X22333Y38739D01*
X22337Y38692D01*
Y38688D01*
Y38681D01*
Y38670D01*
X22333Y38652D01*
X22329Y38634D01*
X22322Y38612D01*
X22304Y38557D01*
X22293Y38524D01*
X22275Y38495D01*
X22257Y38462D01*
X22231Y38429D01*
X22202Y38397D01*
X22169Y38364D01*
X22129Y38331D01*
X22085Y38302D01*
X22078Y38273D01*
X22082Y38269D01*
X22093Y38255D01*
X22111Y38229D01*
X22133Y38196D01*
X22162Y38156D01*
X22191Y38105D01*
X22224Y38050D01*
X22260Y37988D01*
X22264Y37985D01*
X22275Y37977D01*
X22289Y37967D01*
X22300Y37963D01*
X22308D01*
X22319Y37967D01*
X22340Y37970D01*
X22370Y37974D01*
X22413Y37985D01*
X22439Y37988D01*
X22468Y37996D01*
X22504Y38003D01*
X22541Y38014D01*
X22585Y38021D01*
X22632Y38032D01*
X22683Y38047D01*
X22741Y38061D01*
X22803Y38076D01*
X22873Y38091D01*
X22949Y38112D01*
X23029Y38131D01*
X23117Y38152D01*
X23212Y38174D01*
X23314Y38203D01*
X23419Y38229D01*
X23536Y38258D01*
X23660Y38291D01*
X23791Y38324D01*
X23930Y38360D01*
X23933D01*
X23941Y38364D01*
X23955Y38368D01*
X23977Y38371D01*
X23999Y38375D01*
X24028Y38378D01*
X24094Y38393D01*
X24167Y38404D01*
X24243Y38411D01*
X24320Y38419D01*
X24389Y38422D01*
X24436D01*
X24454Y38419D01*
X24495Y38411D01*
X24542Y38400D01*
X24589Y38378D01*
X24637Y38346D01*
X24655Y38324D01*
X24673Y38302D01*
X24688Y38273D01*
X24699Y38240D01*
Y38233D01*
X24702Y38218D01*
X24706Y38193D01*
X24710Y38163D01*
X24713Y38098D01*
X24717Y38069D01*
Y38043D01*
Y38039D01*
Y38025D01*
X24713Y38003D01*
X24710Y37974D01*
X24706Y37934D01*
X24699Y37894D01*
X24688Y37843D01*
X24673Y37792D01*
X24651Y37733D01*
X24629Y37671D01*
X24600Y37609D01*
X24564Y37544D01*
X24520Y37474D01*
X24473Y37409D01*
X24418Y37340D01*
X24352Y37274D01*
X24382D01*
X24400Y37270D01*
X24436Y37267D01*
X24484Y37256D01*
X24527Y37238D01*
X24567Y37208D01*
X24582Y37194D01*
X24593Y37172D01*
X24600Y37146D01*
X24604Y37121D01*
Y37117D01*
Y37114D01*
X24600Y37092D01*
X24597Y37055D01*
X24586Y37012D01*
X24571Y36957D01*
X24549Y36895D01*
X24513Y36826D01*
X24469Y36756D01*
X24414Y36684D01*
X24382Y36647D01*
X24341Y36611D01*
X24301Y36574D01*
X24258Y36541D01*
X24207Y36505D01*
X24152Y36472D01*
X24094Y36443D01*
X24032Y36414D01*
X23962Y36385D01*
X23890Y36359D01*
X23809Y36337D01*
X23726Y36315D01*
X23634Y36297D01*
X23536Y36283D01*
X23525D01*
X23514Y36279D01*
X23500D01*
X23463Y36275D01*
X23412Y36272D01*
X23354Y36268D01*
X23292Y36264D01*
X23226Y36261D01*
X22851D01*
X22796Y36264D01*
X22661D01*
X22574Y36268D01*
X22559Y36250D01*
Y36228D01*
Y36221D01*
Y36206D01*
X22563Y36191D01*
X22566Y36181D01*
Y36177D01*
Y36162D01*
Y36140D01*
X22563Y36108D01*
Y36071D01*
X22559Y36020D01*
X22552Y35965D01*
X22545Y35903D01*
X22534Y35831D01*
X22523Y35750D01*
X22508Y35663D01*
X22493Y35568D01*
X22472Y35466D01*
X22450Y35357D01*
X22421Y35244D01*
X22391Y35120D01*
Y35116D01*
X22388Y35105D01*
X22380Y35087D01*
X22370Y35062D01*
X22359Y35032D01*
X22344Y35000D01*
X22329Y34963D01*
X22311Y34919D01*
X22271Y34828D01*
X22224Y34733D01*
X22173Y34639D01*
X22114Y34548D01*
X22111Y34544D01*
X22103Y34533D01*
X22089Y34518D01*
X22071Y34497D01*
X22045Y34471D01*
X22020Y34442D01*
X21987Y34413D01*
X21954Y34384D01*
X21877Y34322D01*
X21834Y34292D01*
X21790Y34267D01*
X21746Y34245D01*
X21703Y34230D01*
X21655Y34220D01*
X21608Y34216D01*
X21528D01*
X21509Y34220D01*
X21484Y34227D01*
X21451Y34238D01*
X21411Y34252D01*
X21367Y34271D01*
X21320Y34300D01*
X21269Y34336D01*
X21214Y34380D01*
X21156Y34435D01*
X21097Y34500D01*
X21039Y34577D01*
X20977Y34664D01*
X20948Y34715D01*
X20915Y34770D01*
X20886Y34825D01*
X20857Y34887D01*
X20853Y34894D01*
X20850Y34912D01*
X20839Y34938D01*
X20824Y34974D01*
X20810Y35018D01*
X20795Y35065D01*
X20777Y35120D01*
X20758Y35175D01*
X20718Y35287D01*
X20704Y35339D01*
X20689Y35390D01*
X20675Y35437D01*
X20664Y35477D01*
X20660Y35510D01*
X20656Y35532D01*
X20594Y36133D01*
Y36250D01*
X20587D01*
X20569Y36253D01*
X20551Y36257D01*
X20532Y36261D01*
X20500Y36257D01*
X20492D01*
X20474Y36261D01*
X20467D01*
X20445Y36257D01*
X20398D01*
X20368Y36261D01*
X20303D01*
X20266Y36264D01*
X20223Y36268D01*
X20175Y36272D01*
X20073Y36283D01*
X19960Y36301D01*
X19844Y36323D01*
X19723Y36348D01*
X19599Y36381D01*
X19479Y36425D01*
X19362Y36472D01*
X19253Y36530D01*
X19155Y36600D01*
X19111Y36636D01*
X19071Y36676D01*
X19034Y36720D01*
X19002Y36767D01*
X18998Y36775D01*
X18987Y36797D01*
X18972Y36826D01*
X18958Y36869D01*
X18943Y36924D01*
X18929Y36986D01*
X18918Y37055D01*
X18914Y37132D01*
Y37139D01*
X18918Y37154D01*
X18925Y37176D01*
X18943Y37205D01*
X18972Y37230D01*
X18991Y37241D01*
X19013Y37252D01*
X19042Y37259D01*
X19074Y37267D01*
X19111Y37274D01*
X19162D01*
X19158Y37278D01*
X19147Y37289D01*
X19129Y37310D01*
X19107Y37336D01*
X19078Y37369D01*
X19049Y37405D01*
X19016Y37453D01*
X18983Y37500D01*
X18947Y37555D01*
X18914Y37617D01*
X18885Y37679D01*
X18859Y37748D01*
X18834Y37821D01*
X18816Y37894D01*
X18805Y37970D01*
X18801Y38050D01*
Y38054D01*
Y38061D01*
Y38076D01*
X18805Y38091D01*
X18808Y38134D01*
X18816Y38189D01*
X18830Y38244D01*
X18852Y38298D01*
X18881Y38349D01*
X18900Y38371D01*
X18921Y38389D01*
X18925D01*
X18936Y38393D01*
X18954Y38400D01*
X18980Y38408D01*
X19005Y38411D01*
X19038Y38419D01*
X19104Y38422D01*
X19158D01*
X19180Y38419D01*
X19213D01*
X19253Y38411D01*
X19308Y38404D01*
X19373Y38393D01*
X19450Y38378D01*
X19497Y38371D01*
X19545Y38360D01*
X19596Y38353D01*
X19654Y38338D01*
X19712Y38327D01*
X19778Y38313D01*
X19844Y38295D01*
X19916Y38280D01*
X19993Y38262D01*
X20077Y38240D01*
X20161Y38218D01*
X20252Y38196D01*
X20347Y38171D01*
X20449Y38142D01*
X20554Y38112D01*
X20664Y38083D01*
X20667D01*
X20675Y38080D01*
X20686D01*
X20700Y38076D01*
X20737Y38065D01*
X20780Y38054D01*
X20824Y38043D01*
X20864Y38036D01*
X20893Y38029D01*
X20904Y38025D01*
X20912D01*
X21072Y38280D01*
Y38302D01*
X21068Y38306D01*
X21061Y38309D01*
X21050Y38316D01*
X21032Y38331D01*
X20992Y38364D01*
X20944Y38411D01*
X20897Y38466D01*
X20857Y38532D01*
X20839Y38568D01*
X20828Y38608D01*
X20820Y38648D01*
X20817Y38692D01*
Y38696D01*
Y38703D01*
X20820Y38717D01*
X20824Y38736D01*
X20828Y38761D01*
X20839Y38787D01*
X20850Y38816D01*
X20868Y38849D01*
X20890Y38885D01*
X20919Y38922D01*
X20952Y38958D01*
X20992Y38998D01*
X21039Y39035D01*
X21094Y39071D01*
X21156Y39107D01*
X21229Y39144D01*
Y39151D01*
X21225Y39169D01*
Y39202D01*
X21218Y39242D01*
X21214Y39290D01*
X21203Y39341D01*
X21196Y39399D01*
X21185Y39457D01*
X21156Y39574D01*
X21138Y39629D01*
X21119Y39676D01*
X21097Y39720D01*
X21072Y39756D01*
X21043Y39782D01*
X21014Y39793D01*
X20999D01*
X20988Y39789D01*
X20974Y39782D01*
X20955Y39774D01*
X20933Y39760D01*
X20912Y39738D01*
X20886Y39713D01*
X20890Y39705D01*
X20897Y39691D01*
X20901Y39672D01*
X20904Y39658D01*
Y39651D01*
Y39647D01*
X20901Y39640D01*
X20890Y39614D01*
X20882Y39600D01*
X20868Y39585D01*
X20853Y39578D01*
X20831Y39574D01*
X20828D01*
X20820Y39578D01*
X20806Y39581D01*
X20791Y39585D01*
X20777Y39596D01*
X20762Y39607D01*
X20755Y39621D01*
X20751Y39643D01*
Y39665D01*
Y39669D01*
Y39672D01*
X20755Y39683D01*
X20762Y39694D01*
X20769Y39705D01*
X20784Y39720D01*
X20806Y39734D01*
X20831Y39745D01*
X20835Y39749D01*
X20846Y39764D01*
X20864Y39778D01*
X20886Y39800D01*
X20915Y39818D01*
X20944Y39836D01*
X20977Y39847D01*
X21014Y39851D01*
X21025D01*
X21035Y39847D01*
D02*
G37*
G36*
X21801Y34241D02*
X21808Y34238D01*
X21805Y34234D01*
X21801Y34223D01*
X21790Y34205D01*
X21775Y34179D01*
X21757Y34150D01*
X21739Y34117D01*
X21699Y34048D01*
X21659Y33979D01*
X21641Y33946D01*
X21622Y33917D01*
X21604Y33891D01*
X21593Y33870D01*
X21582Y33855D01*
X21575Y33848D01*
X21345Y34230D01*
Y34245D01*
X21349D01*
X21353Y34241D01*
X21374Y34238D01*
X21404Y34230D01*
X21440Y34223D01*
X21480Y34212D01*
X21517Y34205D01*
X21553Y34201D01*
X21579Y34198D01*
X21582D01*
X21597Y34201D01*
X21619Y34205D01*
X21648Y34209D01*
X21684Y34216D01*
X21721Y34223D01*
X21801Y34245D01*
Y34241D01*
D02*
G37*
D11*
X24578Y32922D02*
Y32135D01*
Y32528D01*
X24053D01*
Y32922D01*
Y32135D01*
X23791D02*
X23528D01*
X23660D01*
Y32659D01*
X23791D01*
X23135D02*
X22872Y32135D01*
X22610Y32659D01*
X21954Y32135D02*
X22216D01*
X22348Y32266D01*
Y32528D01*
X22216Y32659D01*
X21954D01*
X21823Y32528D01*
Y32397D01*
X22348D01*
X21560Y32922D02*
Y32135D01*
X21167D01*
X21036Y32266D01*
Y32397D01*
X21167Y32528D01*
X21560D01*
X21167D01*
X21036Y32659D01*
Y32791D01*
X21167Y32922D01*
X21560D01*
X20642Y32135D02*
X20380D01*
X20249Y32266D01*
Y32528D01*
X20380Y32659D01*
X20642D01*
X20773Y32528D01*
Y32266D01*
X20642Y32135D01*
X19855Y32659D02*
X19593D01*
X19461Y32528D01*
Y32135D01*
X19855D01*
X19986Y32266D01*
X19855Y32397D01*
X19461D01*
X19199Y32659D02*
Y32135D01*
Y32397D01*
X19068Y32528D01*
X18937Y32659D01*
X18805D01*
X17887Y32922D02*
Y32135D01*
X18281D01*
X18412Y32266D01*
Y32528D01*
X18281Y32659D01*
X17887D01*
D12*
X37850Y42612D02*
X38921D01*
Y43084D01*
X37850D02*
X38921D01*
X37850Y42612D02*
Y43084D01*
X4583D02*
X5653D01*
X4583Y42612D02*
Y43084D01*
Y42612D02*
X5653D01*
Y43084D01*
X6847Y42612D02*
X7917D01*
Y43084D01*
X6847D02*
X7917D01*
X6847Y42612D02*
Y43084D01*
X35390D02*
X36461D01*
X35390Y42612D02*
Y43084D01*
Y42612D02*
X36461D01*
Y43084D01*
X27713D02*
X28783D01*
X27713Y42612D02*
Y43084D01*
Y42612D02*
X28783D01*
Y43084D01*
X14524Y42612D02*
X15594D01*
Y43084D01*
X14524D02*
X15594D01*
X14524Y42612D02*
Y43084D01*
X31257Y352D02*
Y1652D01*
X32557Y352D02*
Y1652D01*
X31257Y352D02*
X32557D01*
X31257Y1652D02*
X32557D01*
X3740Y25970D02*
X5040D01*
X3740Y24670D02*
X5040D01*
Y25970D01*
X3740Y24670D02*
Y25970D01*
X14020Y42040D02*
X15320D01*
X14020Y40740D02*
X15320D01*
Y42040D01*
X14020Y40740D02*
Y42040D01*
D17*
X23726Y24232D02*
X23791Y24297D01*
X23922D01*
X23988Y24232D01*
Y24166D01*
X23922Y24101D01*
X23791D01*
X23726Y24035D01*
Y23970D01*
X23791Y23904D01*
X23922D01*
X23988Y23970D01*
X23398Y23904D02*
X23529D01*
X23594Y23970D01*
Y24101D01*
X23529Y24166D01*
X23398D01*
X23332Y24101D01*
Y24035D01*
X23594D01*
X23201Y24166D02*
Y23904D01*
Y24035D01*
X23135Y24101D01*
X23070Y24166D01*
X23004D01*
X22807Y23904D02*
X22676D01*
X22742D01*
Y24166D01*
X22807D01*
X22414D02*
X22283D01*
X22217Y24101D01*
Y23904D01*
X22414D01*
X22479Y23970D01*
X22414Y24035D01*
X22217D01*
X22086Y23904D02*
X21955D01*
X22020D01*
Y24297D01*
X22086D01*
X21299Y23904D02*
Y24297D01*
X21167D02*
Y23904D01*
X21364Y24166D02*
X21167D01*
X21102D01*
X21364Y24035D02*
X21102D01*
D18*
X15166Y42477D02*
X15339D01*
Y42347D01*
X15253D01*
X15339D01*
Y42217D01*
X15079Y42477D02*
X14993D01*
X15036D01*
Y42217D01*
X15079D01*
X14993D01*
X14863Y42477D02*
Y42217D01*
X14733D01*
X14690Y42260D01*
Y42433D01*
X14733Y42477D01*
X14863D01*
X14603Y42433D02*
X14560Y42477D01*
X14473D01*
X14430Y42433D01*
Y42390D01*
X14473Y42347D01*
X14516D01*
X14473D01*
X14430Y42303D01*
Y42260D01*
X14473Y42217D01*
X14560D01*
X14603Y42260D01*
X4886Y26407D02*
X5059D01*
Y26277D01*
X4973D01*
X5059D01*
Y26147D01*
X4799Y26407D02*
X4713D01*
X4756D01*
Y26147D01*
X4799D01*
X4713D01*
X4583Y26407D02*
Y26147D01*
X4453D01*
X4410Y26190D01*
Y26363D01*
X4453Y26407D01*
X4583D01*
X4150Y26147D02*
X4323D01*
X4150Y26320D01*
Y26363D01*
X4193Y26407D01*
X4280D01*
X4323Y26363D01*
X32403Y2089D02*
X32576D01*
Y1959D01*
X32490D01*
X32576D01*
Y1829D01*
X32317Y2089D02*
X32230D01*
X32273D01*
Y1829D01*
X32317D01*
X32230D01*
X32100Y2089D02*
Y1829D01*
X31970D01*
X31927Y1872D01*
Y2046D01*
X31970Y2089D01*
X32100D01*
X31840Y1829D02*
X31753D01*
X31797D01*
Y2089D01*
X31840Y2046D01*
D23*
X37697Y42820D02*
Y43017D01*
X37598D01*
X37565Y42984D01*
Y42918D01*
X37598Y42885D01*
X37697D01*
X37631D02*
X37565Y42820D01*
X37500D02*
X37434D01*
X37467D01*
Y43017D01*
X37500Y42984D01*
X37205Y43017D02*
X37336D01*
Y42918D01*
X37270Y42951D01*
X37237D01*
X37205Y42918D01*
Y42853D01*
X37237Y42820D01*
X37303D01*
X37336Y42853D01*
X37008Y43017D02*
X37139D01*
Y42918D01*
X37073Y42951D01*
X37041D01*
X37008Y42918D01*
Y42853D01*
X37041Y42820D01*
X37106D01*
X37139Y42853D01*
X36811Y42984D02*
X36844Y43017D01*
X36909D01*
X36942Y42984D01*
Y42853D01*
X36909Y42820D01*
X36844D01*
X36811Y42853D01*
X29895Y42785D02*
Y42982D01*
X29797D01*
X29764Y42949D01*
Y42883D01*
X29797Y42850D01*
X29895D01*
X29830D02*
X29764Y42785D01*
X29699D02*
X29633D01*
X29666D01*
Y42982D01*
X29699Y42949D01*
X29404Y42982D02*
X29535D01*
Y42883D01*
X29469Y42916D01*
X29436D01*
X29404Y42883D01*
Y42818D01*
X29436Y42785D01*
X29502D01*
X29535Y42818D01*
X29207Y42982D02*
X29338D01*
Y42883D01*
X29272Y42916D01*
X29240D01*
X29207Y42883D01*
Y42818D01*
X29240Y42785D01*
X29305D01*
X29338Y42818D01*
X29141Y42982D02*
Y42785D01*
X29043D01*
X29010Y42818D01*
Y42850D01*
X29043Y42883D01*
X29141D01*
X29043D01*
X29010Y42916D01*
Y42949D01*
X29043Y42982D01*
X29141D01*
X7874Y42310D02*
Y42507D01*
X7775D01*
X7742Y42474D01*
Y42409D01*
X7775Y42376D01*
X7874D01*
X7808D02*
X7742Y42310D01*
X7677D02*
X7611D01*
X7644D01*
Y42507D01*
X7677Y42474D01*
X7382Y42507D02*
X7513D01*
Y42409D01*
X7447Y42442D01*
X7414D01*
X7382Y42409D01*
Y42343D01*
X7414Y42310D01*
X7480D01*
X7513Y42343D01*
X7185Y42507D02*
X7316D01*
Y42409D01*
X7250Y42442D01*
X7218D01*
X7185Y42409D01*
Y42343D01*
X7218Y42310D01*
X7283D01*
X7316Y42343D01*
X7119Y42310D02*
Y42442D01*
X7054Y42507D01*
X6988Y42442D01*
Y42310D01*
Y42409D01*
X7119D01*
X36303Y42272D02*
Y42469D01*
X36205D01*
X36172Y42436D01*
Y42370D01*
X36205Y42338D01*
X36303D01*
X36238D02*
X36172Y42272D01*
X36107D02*
X36041D01*
X36074D01*
Y42469D01*
X36107Y42436D01*
X35811Y42469D02*
X35943D01*
Y42370D01*
X35877Y42403D01*
X35844D01*
X35811Y42370D01*
Y42305D01*
X35844Y42272D01*
X35910D01*
X35943Y42305D01*
X35647Y42272D02*
Y42469D01*
X35746Y42370D01*
X35615D01*
X35418Y42436D02*
X35451Y42469D01*
X35516D01*
X35549Y42436D01*
Y42305D01*
X35516Y42272D01*
X35451D01*
X35418Y42305D01*
X14257Y42748D02*
Y42945D01*
X14159D01*
X14126Y42912D01*
Y42846D01*
X14159Y42813D01*
X14257D01*
X14191D02*
X14126Y42748D01*
X14060D02*
X13995D01*
X14027D01*
Y42945D01*
X14060Y42912D01*
X13765Y42945D02*
X13896D01*
Y42846D01*
X13831Y42879D01*
X13798D01*
X13765Y42846D01*
Y42781D01*
X13798Y42748D01*
X13863D01*
X13896Y42781D01*
X13601Y42748D02*
Y42945D01*
X13699Y42846D01*
X13568D01*
X13503Y42945D02*
Y42748D01*
X13404D01*
X13371Y42781D01*
Y42813D01*
X13404Y42846D01*
X13503D01*
X13404D01*
X13371Y42879D01*
Y42912D01*
X13404Y42945D01*
X13503D01*
X6630Y42763D02*
Y42960D01*
X6531D01*
X6499Y42927D01*
Y42862D01*
X6531Y42829D01*
X6630D01*
X6564D02*
X6499Y42763D01*
X6433D02*
X6367D01*
X6400D01*
Y42960D01*
X6433Y42927D01*
X6138Y42960D02*
X6269D01*
Y42862D01*
X6204Y42894D01*
X6171D01*
X6138Y42862D01*
Y42796D01*
X6171Y42763D01*
X6236D01*
X6269Y42796D01*
X5974Y42763D02*
Y42960D01*
X6072Y42862D01*
X5941D01*
X5876Y42763D02*
Y42894D01*
X5810Y42960D01*
X5744Y42894D01*
Y42763D01*
Y42862D01*
X5876D01*
D344*
X23977Y31118D02*
Y31518D01*
X23777D01*
X23711Y31451D01*
Y31318D01*
X23777Y31251D01*
X23977D01*
X23844D02*
X23711Y31118D01*
X23377D02*
X23511D01*
X23577Y31184D01*
Y31318D01*
X23511Y31384D01*
X23377D01*
X23311Y31318D01*
Y31251D01*
X23577D01*
X23178Y31384D02*
X23044Y31118D01*
X22911Y31384D01*
X22778Y31118D02*
X22644D01*
X22711D01*
Y31384D01*
X22778D01*
X22444Y31118D02*
X22245D01*
X22178Y31184D01*
X22245Y31251D01*
X22378D01*
X22444Y31318D01*
X22378Y31384D01*
X22178D01*
X22045Y31118D02*
X21911D01*
X21978D01*
Y31384D01*
X22045D01*
X21645Y31118D02*
X21511D01*
X21445Y31184D01*
Y31318D01*
X21511Y31384D01*
X21645D01*
X21711Y31318D01*
Y31184D01*
X21645Y31118D01*
X21311D02*
Y31384D01*
X21112D01*
X21045Y31318D01*
Y31118D01*
X20512D02*
X20378D01*
X20445D01*
Y31518D01*
X20512Y31451D01*
X20178Y31118D02*
Y31184D01*
X20112D01*
Y31118D01*
X20178D01*
X19845Y31451D02*
X19779Y31518D01*
X19645D01*
X19579Y31451D01*
Y31184D01*
X19645Y31118D01*
X19779D01*
X19845Y31184D01*
Y31451D01*
X19445D02*
X19379Y31518D01*
X19245D01*
X19179Y31451D01*
Y31184D01*
X19245Y31118D01*
X19379D01*
X19445Y31184D01*
Y31451D01*
X19046D02*
X18979Y31518D01*
X18846D01*
X18779Y31451D01*
Y31184D01*
X18846Y31118D01*
X18979D01*
X19046Y31184D01*
Y31451D01*
D345*
X23367Y30649D02*
Y30289D01*
X23187D01*
X23127Y30349D01*
Y30589D01*
X23187Y30649D01*
X23367D01*
X22827Y30289D02*
X22947D01*
X23007Y30349D01*
Y30469D01*
X22947Y30529D01*
X22827D01*
X22767Y30469D01*
Y30409D01*
X23007D01*
X22647Y30289D02*
X22467D01*
X22407Y30349D01*
X22467Y30409D01*
X22587D01*
X22647Y30469D01*
X22587Y30529D01*
X22407D01*
X22287Y30289D02*
X22167D01*
X22227D01*
Y30529D01*
X22287D01*
X21868Y30169D02*
X21808D01*
X21748Y30229D01*
Y30529D01*
X21927D01*
X21987Y30469D01*
Y30349D01*
X21927Y30289D01*
X21748D01*
X21628D02*
Y30529D01*
X21448D01*
X21388Y30469D01*
Y30289D01*
X21088D02*
X21208D01*
X21268Y30349D01*
Y30469D01*
X21208Y30529D01*
X21088D01*
X21028Y30469D01*
Y30409D01*
X21268D01*
X20668Y30649D02*
Y30289D01*
X20848D01*
X20908Y30349D01*
Y30469D01*
X20848Y30529D01*
X20668D01*
X20188Y30649D02*
Y30289D01*
X20008D01*
X19948Y30349D01*
Y30409D01*
Y30469D01*
X20008Y30529D01*
X20188D01*
X19828D02*
Y30349D01*
X19768Y30289D01*
X19588D01*
Y30229D01*
X19648Y30169D01*
X19708D01*
X19588Y30289D02*
Y30529D01*
X19468D02*
X19408D01*
Y30469D01*
X19468D01*
Y30529D01*
Y30349D02*
X19408D01*
Y30289D01*
X19468D01*
Y30349D01*
X24387Y29546D02*
Y29905D01*
X24207D01*
X24147Y29845D01*
Y29725D01*
X24207Y29665D01*
X24387D01*
X24027Y29905D02*
Y29546D01*
Y29725D01*
X23967Y29785D01*
X23847D01*
X23787Y29725D01*
Y29546D01*
X23667D02*
X23547D01*
X23607D01*
Y29785D01*
X23667D01*
X23367Y29546D02*
X23247D01*
X23307D01*
Y29905D01*
X23367D01*
X23067Y29546D02*
X22947D01*
X23007D01*
Y29785D01*
X23067D01*
X22767Y29426D02*
Y29785D01*
X22587D01*
X22527Y29725D01*
Y29606D01*
X22587Y29546D01*
X22767D01*
X22407Y29426D02*
Y29785D01*
X22227D01*
X22167Y29725D01*
Y29606D01*
X22227Y29546D01*
X22407D01*
X21868D02*
X21987D01*
X22047Y29606D01*
Y29725D01*
X21987Y29785D01*
X21868D01*
X21808Y29725D01*
Y29665D01*
X22047D01*
X21328Y29546D02*
Y29785D01*
X21208Y29905D01*
X21088Y29785D01*
Y29546D01*
Y29725D01*
X21328D01*
X20968Y29785D02*
Y29546D01*
Y29665D01*
X20908Y29725D01*
X20848Y29785D01*
X20788D01*
X20608Y29546D02*
X20428D01*
X20368Y29606D01*
X20428Y29665D01*
X20548D01*
X20608Y29725D01*
X20548Y29785D01*
X20368D01*
X20068Y29546D02*
X20188D01*
X20248Y29606D01*
Y29725D01*
X20188Y29785D01*
X20068D01*
X20008Y29725D01*
Y29665D01*
X20248D01*
X19888Y29546D02*
Y29785D01*
X19708D01*
X19648Y29725D01*
Y29546D01*
X19468Y29785D02*
X19348D01*
X19288Y29725D01*
Y29546D01*
X19468D01*
X19528Y29606D01*
X19468Y29665D01*
X19288D01*
X19168Y29785D02*
Y29606D01*
X19108Y29546D01*
X18928D01*
Y29785D01*
X18808Y29546D02*
X18689D01*
X18749D01*
Y29905D01*
X18808D01*
X18449Y29845D02*
Y29785D01*
X18509D01*
X18389D01*
X18449D01*
Y29606D01*
X18389Y29546D01*
X23277Y29162D02*
Y28802D01*
Y28982D01*
X23037D01*
Y29162D01*
Y28802D01*
X22917Y29042D02*
Y28862D01*
X22857Y28802D01*
X22677D01*
Y29042D01*
X22557Y29162D02*
Y28802D01*
X22377D01*
X22317Y28862D01*
Y28922D01*
Y28982D01*
X22377Y29042D01*
X22557D01*
X22017Y28802D02*
X22137D01*
X22197Y28862D01*
Y28982D01*
X22137Y29042D01*
X22017D01*
X21957Y28982D01*
Y28922D01*
X22197D01*
X21838Y29042D02*
Y28802D01*
Y28922D01*
X21778Y28982D01*
X21718Y29042D01*
X21658D01*
X21418Y29102D02*
Y29042D01*
X21478D01*
X21358D01*
X21418D01*
Y28862D01*
X21358Y28802D01*
X20818Y29162D02*
Y28802D01*
X20638D01*
X20578Y28862D01*
Y29102D01*
X20638Y29162D01*
X20818D01*
X20458Y29042D02*
Y28862D01*
X20398Y28802D01*
X20218D01*
Y29042D01*
X20098Y29162D02*
Y28802D01*
X19918D01*
X19858Y28862D01*
Y28922D01*
Y28982D01*
X19918Y29042D01*
X20098D01*
X19558Y28802D02*
X19678D01*
X19738Y28862D01*
Y28982D01*
X19678Y29042D01*
X19558D01*
X19498Y28982D01*
Y28922D01*
X19738D01*
X24597Y28538D02*
Y28178D01*
X24357D01*
X24177D02*
X24057D01*
X23997Y28238D01*
Y28358D01*
X24057Y28418D01*
X24177D01*
X24237Y28358D01*
Y28238D01*
X24177Y28178D01*
X23877Y28418D02*
Y28238D01*
X23817Y28178D01*
X23637D01*
Y28418D01*
X23517Y28178D02*
X23397D01*
X23457D01*
Y28418D01*
X23517D01*
X23217Y28178D02*
X23037D01*
X22977Y28238D01*
X23037Y28298D01*
X23157D01*
X23217Y28358D01*
X23157Y28418D01*
X22977D01*
X22857Y28358D02*
X22617D01*
X22497Y28538D02*
Y28178D01*
X22317D01*
X22257Y28238D01*
Y28478D01*
X22317Y28538D01*
X22497D01*
X22077Y28418D02*
X21957D01*
X21897Y28358D01*
Y28178D01*
X22077D01*
X22137Y28238D01*
X22077Y28298D01*
X21897D01*
X21778Y28178D02*
Y28418D01*
X21598D01*
X21538Y28358D01*
Y28178D01*
X21418D02*
X21298D01*
X21358D01*
Y28418D01*
X21418D01*
X20938Y28178D02*
X21058D01*
X21118Y28238D01*
Y28358D01*
X21058Y28418D01*
X20938D01*
X20878Y28358D01*
Y28298D01*
X21118D01*
X20758Y28178D02*
X20638D01*
X20698D01*
Y28538D01*
X20758D01*
X19858Y28478D02*
X19918Y28538D01*
X20038D01*
X20098Y28478D01*
Y28238D01*
X20038Y28178D01*
X19918D01*
X19858Y28238D01*
Y28358D01*
X19978D01*
X19678Y28418D02*
X19558D01*
X19498Y28358D01*
Y28178D01*
X19678D01*
X19738Y28238D01*
X19678Y28298D01*
X19498D01*
X19378Y28418D02*
Y28238D01*
X19318Y28178D01*
X19138D01*
Y28418D01*
X19018Y28178D02*
X18898D01*
X18958D01*
Y28538D01*
X19018D01*
X18719Y28178D02*
X18599D01*
X18659D01*
Y28418D01*
X18719D01*
X18419Y28178D02*
Y28418D01*
X18239D01*
X18179Y28358D01*
Y28178D01*
D346*
X21545Y26108D02*
D03*
M02*
