G04*
G04 #@! TF.GenerationSoftware,Altium Limited,Altium Designer,19.0.10 (269)*
G04*
G04 Layer_Color=128*
%FSLAX24Y24*%
%MOIN*%
G70*
G01*
G75*
%ADD10C,0.0100*%
%ADD164R,0.0787X0.1969*%
%ADD165R,0.0551X0.0315*%
D10*
X23542Y141D02*
X23459Y224D01*
X23292D01*
X23209Y141D01*
Y58D01*
X23292Y-26D01*
X23459D01*
X23542Y-109D01*
Y-192D01*
X23459Y-276D01*
X23292D01*
X23209Y-192D01*
X23958Y224D02*
X23792D01*
X23709Y141D01*
Y-192D01*
X23792Y-276D01*
X23958D01*
X24042Y-192D01*
Y141D01*
X23958Y224D01*
X24208D02*
Y-276D01*
X24542D01*
X24708Y224D02*
Y-276D01*
X24958D01*
X25041Y-192D01*
Y141D01*
X24958Y224D01*
X24708D01*
X25541D02*
X25208D01*
Y-276D01*
X25541D01*
X25208Y-26D02*
X25375D01*
X25708Y-276D02*
Y224D01*
X25958D01*
X26041Y141D01*
Y-26D01*
X25958Y-109D01*
X25708D01*
X25874D02*
X26041Y-276D01*
X26208D02*
Y224D01*
X26458D01*
X26541Y141D01*
Y-26D01*
X26458Y-109D01*
X26208D01*
X26708Y-276D02*
Y58D01*
X26874Y224D01*
X27041Y58D01*
Y-276D01*
Y-26D01*
X26708D01*
X27541Y141D02*
X27457Y224D01*
X27291D01*
X27207Y141D01*
Y58D01*
X27291Y-26D01*
X27457D01*
X27541Y-109D01*
Y-192D01*
X27457Y-276D01*
X27291D01*
X27207Y-192D01*
X27707Y224D02*
X28040D01*
X27874D01*
Y-276D01*
X28540Y224D02*
X28207D01*
Y-276D01*
X28540D01*
X28207Y-26D02*
X28374D01*
X29207Y224D02*
Y-276D01*
X29457D01*
X29540Y-192D01*
Y-109D01*
X29457Y-26D01*
X29207D01*
X29457D01*
X29540Y58D01*
Y141D01*
X29457Y224D01*
X29207D01*
X29956D02*
X29790D01*
X29707Y141D01*
Y-192D01*
X29790Y-276D01*
X29956D01*
X30040Y-192D01*
Y141D01*
X29956Y224D01*
X30206D02*
X30540D01*
X30373D01*
Y-276D01*
X30706Y224D02*
X31039D01*
X30873D01*
Y-276D01*
X31456Y224D02*
X31289D01*
X31206Y141D01*
Y-192D01*
X31289Y-276D01*
X31456D01*
X31539Y-192D01*
Y141D01*
X31456Y224D01*
X31706Y-276D02*
Y224D01*
X31873Y58D01*
X32039Y224D01*
Y-276D01*
D164*
X6407Y7874D02*
D03*
X3100D02*
D03*
D165*
X7254Y1240D02*
D03*
Y6752D02*
D03*
X276Y2028D02*
D03*
Y453D02*
D03*
Y846D02*
D03*
X7254Y5571D02*
D03*
Y5177D02*
D03*
Y6358D02*
D03*
X276Y2421D02*
D03*
Y6752D02*
D03*
Y2815D02*
D03*
Y3602D02*
D03*
Y3209D02*
D03*
Y3996D02*
D03*
X7254Y2815D02*
D03*
Y2421D02*
D03*
X276Y4390D02*
D03*
Y4783D02*
D03*
X7254Y5965D02*
D03*
Y4783D02*
D03*
Y4390D02*
D03*
Y3996D02*
D03*
Y3602D02*
D03*
Y3209D02*
D03*
X276Y5965D02*
D03*
Y6358D02*
D03*
Y5177D02*
D03*
Y5571D02*
D03*
Y1240D02*
D03*
Y1634D02*
D03*
X7254Y2028D02*
D03*
Y1634D02*
D03*
Y453D02*
D03*
Y846D02*
D03*
M02*
