G04*
G04 #@! TF.GenerationSoftware,Altium Limited,Altium Designer,19.0.10 (269)*
G04*
G04 Layer_Color=2752767*
%FSLAX24Y24*%
%MOIN*%
G70*
G01*
G75*
%ADD15C,0.0050*%
D15*
X587Y981D02*
X687Y1181D01*
X587Y1381D01*
X787Y1281D01*
X987Y1381D01*
X887Y1181D01*
X987Y981D01*
X787Y1081D01*
X587Y981D01*
Y1375D02*
X687Y1575D01*
X587Y1775D01*
X787Y1675D01*
X987Y1775D01*
X887Y1575D01*
X987Y1375D01*
X787Y1475D01*
X587Y1375D01*
Y1769D02*
X687Y1969D01*
X587Y2168D01*
X787Y2069D01*
X987Y2168D01*
X887Y1969D01*
X987Y1769D01*
X787Y1868D01*
X587Y1769D01*
Y2162D02*
X687Y2362D01*
X587Y2562D01*
X787Y2462D01*
X987Y2562D01*
X887Y2362D01*
X987Y2162D01*
X787Y2262D01*
X587Y2162D01*
Y2556D02*
X687Y2756D01*
X587Y2956D01*
X787Y2856D01*
X987Y2956D01*
X887Y2756D01*
X987Y2556D01*
X787Y2656D01*
X587Y2556D01*
Y2950D02*
X687Y3150D01*
X587Y3350D01*
X787Y3250D01*
X987Y3350D01*
X887Y3150D01*
X987Y2950D01*
X787Y3050D01*
X587Y2950D01*
Y3343D02*
X687Y3543D01*
X587Y3743D01*
X787Y3643D01*
X987Y3743D01*
X887Y3543D01*
X987Y3343D01*
X787Y3443D01*
X587Y3343D01*
X981D02*
X1081Y3543D01*
X981Y3743D01*
X1181Y3643D01*
X1381Y3743D01*
X1281Y3543D01*
X1381Y3343D01*
X1181Y3443D01*
X981Y3343D01*
X922Y2969D02*
X1022Y3169D01*
X922Y3369D01*
X1122Y3269D01*
X1322Y3369D01*
X1222Y3169D01*
X1322Y2969D01*
X1122Y3069D01*
X922Y2969D01*
Y2143D02*
X1022Y2343D01*
X922Y2543D01*
X1122Y2443D01*
X1322Y2543D01*
X1222Y2343D01*
X1322Y2143D01*
X1122Y2243D01*
X922Y2143D01*
X981Y1769D02*
X1081Y1969D01*
X981Y2168D01*
X1181Y2069D01*
X1381Y2168D01*
X1281Y1969D01*
X1381Y1769D01*
X1181Y1868D01*
X981Y1769D01*
X587Y4918D02*
X687Y5118D01*
X587Y5318D01*
X787Y5218D01*
X987Y5318D01*
X887Y5118D01*
X987Y4918D01*
X787Y5018D01*
X587Y4918D01*
Y5312D02*
X687Y5512D01*
X587Y5712D01*
X787Y5612D01*
X987Y5712D01*
X887Y5512D01*
X987Y5312D01*
X787Y5412D01*
X587Y5312D01*
Y5706D02*
X687Y5906D01*
X587Y6106D01*
X787Y6006D01*
X987Y6106D01*
X887Y5906D01*
X987Y5706D01*
X787Y5806D01*
X587Y5706D01*
Y6099D02*
X687Y6299D01*
X587Y6499D01*
X787Y6399D01*
X987Y6499D01*
X887Y6299D01*
X987Y6099D01*
X787Y6199D01*
X587Y6099D01*
X981D02*
X1081Y6299D01*
X981Y6499D01*
X1181Y6399D01*
X1381Y6499D01*
X1281Y6299D01*
X1381Y6099D01*
X1181Y6199D01*
X981Y6099D01*
Y5706D02*
X1081Y5906D01*
X981Y6106D01*
X1181Y6006D01*
X1381Y6106D01*
X1281Y5906D01*
X1381Y5706D01*
X1181Y5806D01*
X981Y5706D01*
Y5312D02*
X1081Y5512D01*
X981Y5712D01*
X1181Y5612D01*
X1381Y5712D01*
X1281Y5512D01*
X1381Y5312D01*
X1181Y5412D01*
X981Y5312D01*
Y4918D02*
X1081Y5118D01*
X981Y5318D01*
X1181Y5218D01*
X1381Y5318D01*
X1281Y5118D01*
X1381Y4918D01*
X1181Y5018D01*
X981Y4918D01*
X1375D02*
X1475Y5118D01*
X1375Y5318D01*
X1575Y5218D01*
X1775Y5318D01*
X1675Y5118D01*
X1775Y4918D01*
X1575Y5018D01*
X1375Y4918D01*
Y5312D02*
X1475Y5512D01*
X1375Y5712D01*
X1575Y5612D01*
X1775Y5712D01*
X1675Y5512D01*
X1775Y5312D01*
X1575Y5412D01*
X1375Y5312D01*
Y6099D02*
X1475Y6299D01*
X1375Y6499D01*
X1575Y6399D01*
X1775Y6499D01*
X1675Y6299D01*
X1775Y6099D01*
X1575Y6199D01*
X1375Y6099D01*
X1769D02*
X1868Y6299D01*
X1769Y6499D01*
X1969Y6399D01*
X2168Y6499D01*
X2069Y6299D01*
X2168Y6099D01*
X1969Y6199D01*
X1769Y6099D01*
Y5706D02*
X1868Y5906D01*
X1769Y6106D01*
X1969Y6006D01*
X2168Y6106D01*
X2069Y5906D01*
X2168Y5706D01*
X1969Y5806D01*
X1769Y5706D01*
Y5312D02*
X1868Y5512D01*
X1769Y5712D01*
X1969Y5612D01*
X2168Y5712D01*
X2069Y5512D01*
X2168Y5312D01*
X1969Y5412D01*
X1769Y5312D01*
X2162Y6099D02*
X2262Y6299D01*
X2162Y6499D01*
X2362Y6399D01*
X2562Y6499D01*
X2462Y6299D01*
X2562Y6099D01*
X2362Y6199D01*
X2162Y6099D01*
X2556D02*
X2656Y6299D01*
X2556Y6499D01*
X2756Y6399D01*
X2956Y6499D01*
X2856Y6299D01*
X2956Y6099D01*
X2756Y6199D01*
X2556Y6099D01*
X2162Y587D02*
X2262Y787D01*
X2162Y987D01*
X2362Y887D01*
X2562Y987D01*
X2462Y787D01*
X2562Y587D01*
X2362Y687D01*
X2162Y587D01*
Y981D02*
X2262Y1181D01*
X2162Y1381D01*
X2362Y1281D01*
X2562Y1381D01*
X2462Y1181D01*
X2562Y981D01*
X2362Y1081D01*
X2162Y981D01*
X2556D02*
X2656Y1181D01*
X2556Y1381D01*
X2756Y1281D01*
X2956Y1381D01*
X2856Y1181D01*
X2956Y981D01*
X2756Y1081D01*
X2556Y981D01*
Y587D02*
X2656Y787D01*
X2556Y987D01*
X2756Y887D01*
X2956Y987D01*
X2856Y787D01*
X2956Y587D01*
X2756Y687D01*
X2556Y587D01*
X2950D02*
X3050Y787D01*
X2950Y987D01*
X3150Y887D01*
X3350Y987D01*
X3250Y787D01*
X3350Y587D01*
X3150Y687D01*
X2950Y587D01*
X1769D02*
X1868Y787D01*
X1769Y987D01*
X1969Y887D01*
X2168Y987D01*
X2069Y787D01*
X2168Y587D01*
X1969Y687D01*
X1769Y587D01*
Y981D02*
X1868Y1181D01*
X1769Y1381D01*
X1969Y1281D01*
X2168Y1381D01*
X2069Y1181D01*
X2168Y981D01*
X1969Y1081D01*
X1769Y981D01*
Y1375D02*
X1868Y1575D01*
X1769Y1775D01*
X1969Y1675D01*
X2168Y1775D01*
X2069Y1575D01*
X2168Y1375D01*
X1969Y1475D01*
X1769Y1375D01*
X1631Y2221D02*
X1731Y2421D01*
X1631Y2621D01*
X1831Y2521D01*
X2031Y2621D01*
X1931Y2421D01*
X2031Y2221D01*
X1831Y2321D01*
X1631Y2221D01*
X1867D02*
X1967Y2421D01*
X1867Y2621D01*
X2067Y2521D01*
X2267Y2621D01*
X2167Y2421D01*
X2267Y2221D01*
X2067Y2321D01*
X1867Y2221D01*
X4918Y587D02*
X5018Y787D01*
X4918Y987D01*
X5118Y887D01*
X5318Y987D01*
X5218Y787D01*
X5318Y587D01*
X5118Y687D01*
X4918Y587D01*
X5706D02*
X5806Y787D01*
X5706Y987D01*
X5906Y887D01*
X6106Y987D01*
X6006Y787D01*
X6106Y587D01*
X5906Y687D01*
X5706Y587D01*
X6099D02*
X6199Y787D01*
X6099Y987D01*
X6299Y887D01*
X6499Y987D01*
X6399Y787D01*
X6499Y587D01*
X6299Y687D01*
X6099Y587D01*
Y981D02*
X6199Y1181D01*
X6099Y1381D01*
X6299Y1281D01*
X6499Y1381D01*
X6399Y1181D01*
X6499Y981D01*
X6299Y1081D01*
X6099Y981D01*
X5706D02*
X5806Y1181D01*
X5706Y1381D01*
X5906Y1281D01*
X6106Y1381D01*
X6006Y1181D01*
X6106Y981D01*
X5906Y1081D01*
X5706Y981D01*
X6493D02*
X6593Y1181D01*
X6493Y1381D01*
X6693Y1281D01*
X6893Y1381D01*
X6793Y1181D01*
X6893Y981D01*
X6693Y1081D01*
X6493Y981D01*
Y587D02*
X6593Y787D01*
X6493Y987D01*
X6693Y887D01*
X6893Y987D01*
X6793Y787D01*
X6893Y587D01*
X6693Y687D01*
X6493Y587D01*
X6099Y1375D02*
X6199Y1575D01*
X6099Y1775D01*
X6299Y1675D01*
X6499Y1775D01*
X6399Y1575D01*
X6499Y1375D01*
X6299Y1475D01*
X6099Y1375D01*
X2320Y3225D02*
X2420Y3425D01*
X2320Y3625D01*
X2520Y3525D01*
X2720Y3625D01*
X2620Y3425D01*
X2720Y3225D01*
X2520Y3325D01*
X2320Y3225D01*
X2280Y3757D02*
X2380Y3957D01*
X2280Y4157D01*
X2480Y4057D01*
X2680Y4157D01*
X2580Y3957D01*
X2680Y3757D01*
X2480Y3857D01*
X2280Y3757D01*
X981Y3737D02*
X1081Y3937D01*
X981Y4137D01*
X1181Y4037D01*
X1381Y4137D01*
X1281Y3937D01*
X1381Y3737D01*
X1181Y3837D01*
X981Y3737D01*
X587Y4524D02*
X687Y4724D01*
X587Y4924D01*
X787Y4824D01*
X987Y4924D01*
X887Y4724D01*
X987Y4524D01*
X787Y4624D01*
X587Y4524D01*
X981D02*
X1081Y4724D01*
X981Y4924D01*
X1181Y4824D01*
X1381Y4924D01*
X1281Y4724D01*
X1381Y4524D01*
X1181Y4624D01*
X981Y4524D01*
X587Y4131D02*
X687Y4331D01*
X587Y4531D01*
X787Y4431D01*
X987Y4531D01*
X887Y4331D01*
X987Y4131D01*
X787Y4231D01*
X587Y4131D01*
M02*
