G04*
G04 #@! TF.GenerationSoftware,Altium Limited,Altium Designer,19.0.10 (269)*
G04*
G04 Layer_Color=128*
%FSLAX24Y24*%
%MOIN*%
G70*
G01*
G75*
%ADD15C,0.0050*%
D15*
X7431Y1240D02*
X7628D01*
X7530Y1142D02*
Y1339D01*
X7431Y6752D02*
X7628D01*
X7530Y6654D02*
Y6850D01*
X-98Y2028D02*
X98D01*
X0Y1929D02*
Y2126D01*
X-98Y453D02*
X98D01*
X0Y354D02*
Y551D01*
X-98Y846D02*
X98D01*
X0Y748D02*
Y945D01*
X7431Y5571D02*
X7628D01*
X7530Y5472D02*
Y5669D01*
X7431Y5177D02*
X7628D01*
X7530Y5079D02*
Y5276D01*
X7431Y6358D02*
X7628D01*
X7530Y6260D02*
Y6457D01*
X-98Y2421D02*
X98D01*
X0Y2323D02*
Y2520D01*
X-98Y6752D02*
X98D01*
X0Y6654D02*
Y6850D01*
X-98Y2815D02*
X98D01*
X0Y2717D02*
Y2913D01*
X-98Y3602D02*
X98D01*
X0Y3504D02*
Y3701D01*
X-98Y3209D02*
X98D01*
X0Y3110D02*
Y3307D01*
X-98Y3996D02*
X98D01*
X0Y3898D02*
Y4094D01*
X7431Y2815D02*
X7628D01*
X7530Y2717D02*
Y2913D01*
X7431Y2421D02*
X7628D01*
X7530Y2323D02*
Y2520D01*
X-98Y4390D02*
X98D01*
X0Y4291D02*
Y4488D01*
X-98Y4783D02*
X98D01*
X0Y4685D02*
Y4882D01*
X7431Y5965D02*
X7628D01*
X7530Y5866D02*
Y6063D01*
X7431Y4783D02*
X7628D01*
X7530Y4685D02*
Y4882D01*
X7431Y4390D02*
X7628D01*
X7530Y4291D02*
Y4488D01*
X7431Y3996D02*
X7628D01*
X7530Y3898D02*
Y4094D01*
X7431Y3602D02*
X7628D01*
X7530Y3504D02*
Y3701D01*
X7431Y3209D02*
X7628D01*
X7530Y3110D02*
Y3307D01*
X-98Y5965D02*
X98D01*
X0Y5866D02*
Y6063D01*
X-98Y6358D02*
X98D01*
X0Y6260D02*
Y6457D01*
X-98Y5177D02*
X98D01*
X0Y5079D02*
Y5276D01*
X-98Y5571D02*
X98D01*
X0Y5472D02*
Y5669D01*
X-98Y1240D02*
X98D01*
X0Y1142D02*
Y1339D01*
X-98Y1634D02*
X98D01*
X0Y1535D02*
Y1732D01*
X7431Y2028D02*
X7628D01*
X7530Y1929D02*
Y2126D01*
X7431Y1634D02*
X7628D01*
X7530Y1535D02*
Y1732D01*
X7431Y453D02*
X7628D01*
X7530Y354D02*
Y551D01*
X7431Y846D02*
X7628D01*
X7530Y748D02*
Y945D01*
X1417Y354D02*
X1654D01*
X1535Y236D02*
Y472D01*
X5866Y6772D02*
X6102D01*
X5984Y6654D02*
Y6890D01*
X1122Y2795D02*
X1201D01*
X1161Y2756D02*
Y2835D01*
X6850Y8780D02*
X6929D01*
X6890Y8740D02*
Y8819D01*
X4094Y8780D02*
X4173D01*
X4134Y8740D02*
Y8819D01*
X7047Y8622D02*
X7126D01*
X7087Y8583D02*
Y8661D01*
X6654Y8622D02*
X6732D01*
X6693Y8583D02*
Y8661D01*
X6260Y8622D02*
X6339D01*
X6299Y8583D02*
Y8661D01*
X5866Y8622D02*
X5945D01*
X5906Y8583D02*
Y8661D01*
X5472Y8622D02*
X5551D01*
X5512Y8583D02*
Y8661D01*
X2717Y8622D02*
X2795D01*
X2756Y8583D02*
Y8661D01*
X3110Y8622D02*
X3189D01*
X3150Y8583D02*
Y8661D01*
X3504Y8622D02*
X3583D01*
X3543Y8583D02*
Y8661D01*
X3898Y8622D02*
X3976D01*
X3937Y8583D02*
Y8661D01*
X4331Y8622D02*
X4409D01*
X4370Y8583D02*
Y8661D01*
X3110Y7874D02*
X3189D01*
X3150Y7835D02*
Y7913D01*
X2717Y7874D02*
X2795D01*
X2756Y7835D02*
Y7913D01*
X2717Y8268D02*
X2795D01*
X2756Y8228D02*
Y8307D01*
X3110Y8268D02*
X3189D01*
X3150Y8228D02*
Y8307D01*
X3504Y8268D02*
X3583D01*
X3543Y8228D02*
Y8307D01*
X3504Y7874D02*
X3583D01*
X3543Y7835D02*
Y7913D01*
X4331Y7874D02*
X4409D01*
X4370Y7835D02*
Y7913D01*
X3898Y8268D02*
X3976D01*
X3937Y8228D02*
Y8307D01*
X4331Y8258D02*
X4409D01*
X4370Y8219D02*
Y8297D01*
X5098Y8258D02*
X5177D01*
X5138Y8219D02*
Y8297D01*
X5098Y7874D02*
X5177D01*
X5138Y7835D02*
Y7913D01*
X5472Y7874D02*
X5551D01*
X5512Y7835D02*
Y7913D01*
X5866Y7874D02*
X5945D01*
X5906Y7835D02*
Y7913D01*
X6260Y7874D02*
X6339D01*
X6299Y7835D02*
Y7913D01*
X6654Y7874D02*
X6732D01*
X6693Y7835D02*
Y7913D01*
X7047Y7874D02*
X7126D01*
X7087Y7835D02*
Y7913D01*
X7047Y8268D02*
X7126D01*
X7087Y8228D02*
Y8307D01*
X6654Y8268D02*
X6732D01*
X6693Y8228D02*
Y8307D01*
X6260Y8268D02*
X6339D01*
X6299Y8228D02*
Y8307D01*
X5866Y8268D02*
X5945D01*
X5906Y8228D02*
Y8307D01*
X5472Y8268D02*
X5551D01*
X5512Y8228D02*
Y8307D01*
X3898Y7874D02*
X3976D01*
X3937Y7835D02*
Y7913D01*
X6457Y8780D02*
X6535D01*
X6496Y8740D02*
Y8819D01*
X6063Y8780D02*
X6142D01*
X6102Y8740D02*
Y8819D01*
X5669Y8780D02*
X5748D01*
X5709Y8740D02*
Y8819D01*
X5276Y8780D02*
X5354D01*
X5315Y8740D02*
Y8819D01*
X2520Y8780D02*
X2598D01*
X2559Y8740D02*
Y8819D01*
X2913Y8780D02*
X2992D01*
X2953Y8740D02*
Y8819D01*
X3307Y8780D02*
X3386D01*
X3346Y8740D02*
Y8819D01*
X3701Y8780D02*
X3780D01*
X3740Y8740D02*
Y8819D01*
X2352Y2126D02*
X2431D01*
X2392Y2087D02*
Y2165D01*
X5031Y5915D02*
X5110D01*
X5071Y5876D02*
Y5955D01*
X5384Y2549D02*
X5463D01*
X5423Y2510D02*
Y2589D01*
X4967Y2569D02*
X5046D01*
X5007Y2530D02*
Y2608D01*
X4551Y2549D02*
X4629D01*
X4590Y2510D02*
Y2589D01*
X4224Y2602D02*
X4303D01*
X4264Y2563D02*
Y2642D01*
X5384Y2943D02*
X5463D01*
X5423Y2904D02*
Y2982D01*
X4967Y2963D02*
X5046D01*
X5007Y2923D02*
Y3002D01*
X4551Y2943D02*
X4629D01*
X4590Y2904D02*
Y2982D01*
X4134Y2943D02*
X4213D01*
X4173Y2904D02*
Y2982D01*
X4134Y3337D02*
X4213D01*
X4173Y3297D02*
Y3376D01*
X4551Y3337D02*
X4629D01*
X4590Y3297D02*
Y3376D01*
X4967Y3356D02*
X5046D01*
X5007Y3317D02*
Y3396D01*
X5384Y3337D02*
X5463D01*
X5423Y3297D02*
Y3376D01*
X5370Y3752D02*
X5449D01*
X5409Y3713D02*
Y3791D01*
X4949Y3736D02*
X5028D01*
X4988Y3697D02*
Y3776D01*
X4508Y3720D02*
X4587D01*
X4547Y3681D02*
Y3760D01*
X4134Y3730D02*
X4213D01*
X4173Y3691D02*
Y3770D01*
X1447Y5748D02*
X1526D01*
X1486Y5709D02*
Y5787D01*
X3691Y1526D02*
X3770D01*
X3730Y1486D02*
Y1565D01*
X6370Y5398D02*
X6449D01*
X6409Y5358D02*
Y5437D01*
X5644Y5502D02*
X5722D01*
X5683Y5463D02*
Y5541D01*
X5541Y4852D02*
X5620D01*
X5581Y4813D02*
Y4892D01*
X3091Y2894D02*
X3169D01*
X3130Y2854D02*
Y2933D01*
X5610Y6043D02*
X5689D01*
X5650Y6004D02*
Y6083D01*
X6748Y2510D02*
X6854D01*
X6801Y2457D02*
Y2563D01*
X6506Y6171D02*
X6585D01*
X6545Y6132D02*
Y6211D01*
X3219Y4065D02*
X3297D01*
X3258Y4026D02*
Y4104D01*
X3356Y2126D02*
X3435D01*
X3396Y2087D02*
Y2165D01*
X3278Y1860D02*
X3356D01*
X3317Y1821D02*
Y1900D01*
X4626Y1555D02*
X4705D01*
X4665Y1516D02*
Y1594D01*
X5305Y1417D02*
X5384D01*
X5344Y1378D02*
Y1457D01*
X4350Y1565D02*
X4429D01*
X4390Y1526D02*
Y1604D01*
X4400Y5915D02*
X4478D01*
X4439Y5876D02*
Y5955D01*
X5593Y6313D02*
X5671D01*
X5632Y6274D02*
Y6352D01*
X5421Y5128D02*
X5500D01*
X5461Y5089D02*
Y5167D01*
X5644Y5797D02*
X5722D01*
X5683Y5758D02*
Y5837D01*
X5965Y4929D02*
X6043D01*
X6004Y4890D02*
Y4969D01*
X5850Y5173D02*
X5929D01*
X5890Y5134D02*
Y5213D01*
X5974Y5463D02*
X6053D01*
X6014Y5423D02*
Y5502D01*
X6004Y5817D02*
X6083D01*
X6043Y5778D02*
Y5856D01*
X6024Y6211D02*
X6102D01*
X6063Y6171D02*
Y6250D01*
X6496Y5787D02*
X6575D01*
X6535Y5748D02*
Y5827D01*
X3630Y2059D02*
X3709D01*
X3669Y2020D02*
Y2098D01*
X2358Y354D02*
X2465D01*
X2411Y301D02*
Y407D01*
X2703Y354D02*
X2809D01*
X2756Y301D02*
Y407D01*
X2697Y5679D02*
X2776D01*
X2736Y5640D02*
Y5719D01*
X3465Y5857D02*
X3543D01*
X3504Y5817D02*
Y5896D01*
X2963Y6772D02*
X3041D01*
X3002Y6732D02*
Y6811D01*
X2973Y5807D02*
X3051D01*
X3012Y5768D02*
Y5847D01*
X3110Y6122D02*
X3189D01*
X3150Y6083D02*
Y6162D01*
X3451Y6463D02*
X3530D01*
X3491Y6424D02*
Y6503D01*
X5102Y6368D02*
X5181D01*
X5142Y6329D02*
Y6407D01*
X5083Y6776D02*
X5161D01*
X5122Y6736D02*
Y6815D01*
X5341Y6372D02*
X5419D01*
X5380Y6333D02*
Y6411D01*
X2804Y4275D02*
X2883D01*
X2843Y4236D02*
Y4315D01*
X1752Y3602D02*
X1831D01*
X1791Y3563D02*
Y3642D01*
X827Y709D02*
X906D01*
X866Y669D02*
Y748D01*
X787Y965D02*
X866D01*
X827Y925D02*
Y1004D01*
X3081Y3730D02*
X3159D01*
X3120Y3691D02*
Y3770D01*
X3514Y1703D02*
X3593D01*
X3553Y1663D02*
Y1742D01*
X4341Y7146D02*
X4419D01*
X4380Y7106D02*
Y7185D01*
X5079Y7136D02*
X5157D01*
X5118Y7096D02*
Y7175D01*
X5079Y7480D02*
X5157D01*
X5118Y7441D02*
Y7520D01*
X4331Y7480D02*
X4409D01*
X4370Y7441D02*
Y7520D01*
X2106Y3878D02*
X2185D01*
X2146Y3839D02*
Y3917D01*
X3898Y7480D02*
X3976D01*
X3937Y7441D02*
Y7520D01*
X3504Y7480D02*
X3583D01*
X3543Y7441D02*
Y7520D01*
X3110Y7480D02*
X3189D01*
X3150Y7441D02*
Y7520D01*
X2717Y7480D02*
X2795D01*
X2756Y7441D02*
Y7520D01*
X5472Y7480D02*
X5551D01*
X5512Y7441D02*
Y7520D01*
X5866Y7480D02*
X5945D01*
X5906Y7441D02*
Y7520D01*
X6260Y7480D02*
X6339D01*
X6299Y7441D02*
Y7520D01*
X6654Y7480D02*
X6732D01*
X6693Y7441D02*
Y7520D01*
X7047Y7480D02*
X7126D01*
X7087Y7441D02*
Y7520D01*
X5098Y8622D02*
X5177D01*
X5138Y8583D02*
Y8661D01*
M02*
