G04*
G04 #@! TF.GenerationSoftware,Altium Limited,Altium Designer,19.0.10 (269)*
G04*
G04 Layer_Physical_Order=2*
G04 Layer_Color=36540*
%FSLAX24Y24*%
%MOIN*%
G70*
G01*
G75*
%ADD10C,0.0100*%
%ADD11C,0.0079*%
%ADD12C,0.0118*%
%ADD13C,0.0039*%
%ADD16C,0.0059*%
%ADD49C,0.0118*%
%ADD105C,0.0197*%
%ADD114C,0.0049*%
%ADD115C,0.0197*%
%ADD117C,0.0098*%
%ADD119C,0.0075*%
%ADD123C,0.0276*%
%ADD124C,0.0157*%
%ADD149C,0.0315*%
%ADD150C,0.0126*%
%ADD151C,0.0157*%
%ADD152C,0.0177*%
%ADD153C,0.0091*%
%ADD154C,0.0205*%
%ADD155C,0.0098*%
%ADD156R,0.2262X0.1985*%
%ADD157R,0.0925X0.0305*%
%ADD158R,0.0817X0.0547*%
%ADD159C,0.0108*%
G36*
X4488Y6958D02*
X4479Y6949D01*
X4528Y5945D01*
X4557D01*
X4567Y5935D01*
Y5669D01*
Y5217D01*
X4803Y5215D01*
Y4104D01*
X5354D01*
Y5213D01*
X5575D01*
X5571Y6181D01*
Y6181D01*
Y6280D01*
X5053D01*
X5022Y6913D01*
X5056Y6949D01*
X5636D01*
X5659Y6905D01*
X5622Y6848D01*
X5618Y6831D01*
X6350D01*
X6347Y6848D01*
X6309Y6905D01*
X6333Y6949D01*
X7283D01*
Y6890D01*
X7284D01*
X7308Y6846D01*
X7307Y6844D01*
X7300Y6811D01*
X7530D01*
Y6693D01*
X7300D01*
X7307Y6660D01*
X7359Y6582D01*
X7362Y6580D01*
Y6462D01*
X7344Y6435D01*
X7329Y6358D01*
X7344Y6281D01*
X7362Y6254D01*
Y6068D01*
X7344Y6041D01*
X7329Y5965D01*
X7344Y5888D01*
X7362Y5861D01*
Y5675D01*
X7344Y5648D01*
X7329Y5571D01*
X7344Y5494D01*
X7362Y5467D01*
Y5281D01*
X7344Y5254D01*
X7329Y5177D01*
X7344Y5100D01*
X7362Y5073D01*
Y4887D01*
X7344Y4860D01*
X7329Y4783D01*
X7344Y4707D01*
X7362Y4680D01*
Y4494D01*
X7344Y4467D01*
X7329Y4390D01*
X7344Y4313D01*
X7362Y4286D01*
Y4100D01*
X7347Y4077D01*
X7244D01*
X7206Y4069D01*
X7173Y4047D01*
X7151Y4015D01*
X7144Y3976D01*
X7144Y3976D01*
X7017Y3849D01*
X7002Y3826D01*
X6997Y3799D01*
Y3497D01*
X6996Y3496D01*
X6974Y3464D01*
X6967Y3425D01*
X6974Y3387D01*
X6996Y3354D01*
X7029Y3332D01*
X7067Y3325D01*
X7105Y3332D01*
X7138Y3354D01*
X7160Y3387D01*
X7167Y3425D01*
X7160Y3464D01*
X7138Y3496D01*
X7137Y3497D01*
Y3770D01*
X7243Y3876D01*
X7244Y3876D01*
X7362D01*
Y3706D01*
X7344Y3679D01*
X7329Y3602D01*
X7344Y3526D01*
X7362Y3498D01*
Y3313D01*
X7344Y3285D01*
X7329Y3209D01*
X7344Y3132D01*
X7362Y3105D01*
Y2987D01*
X7359Y2985D01*
X7307Y2907D01*
X7300Y2874D01*
X7530D01*
Y2756D01*
X7300D01*
X7307Y2723D01*
X7359Y2645D01*
X7362Y2643D01*
Y2525D01*
X7344Y2498D01*
X7329Y2421D01*
X7344Y2344D01*
X7362Y2317D01*
Y2131D01*
X7344Y2104D01*
X7329Y2028D01*
X7344Y1951D01*
X7362Y1924D01*
Y1738D01*
X7344Y1711D01*
X7329Y1634D01*
X7344Y1557D01*
X7362Y1530D01*
Y1344D01*
X7344Y1317D01*
X7329Y1240D01*
X7344Y1163D01*
X7362Y1136D01*
Y950D01*
X7344Y923D01*
X7329Y846D01*
X7344Y770D01*
X7362Y743D01*
Y557D01*
X7344Y530D01*
X7329Y453D01*
X7344Y376D01*
X7362Y349D01*
Y177D01*
X1884D01*
X1860Y221D01*
X1898Y278D01*
X1902Y295D01*
X1169D01*
X1173Y278D01*
X1210Y221D01*
X1187Y177D01*
X167D01*
Y349D01*
X185Y376D01*
X201Y453D01*
X185Y530D01*
X167Y557D01*
Y743D01*
X185Y770D01*
X201Y846D01*
X185Y923D01*
X167Y950D01*
Y1136D01*
X185Y1163D01*
X201Y1240D01*
X185Y1317D01*
X167Y1344D01*
Y1524D01*
X295D01*
X334Y1531D01*
X366Y1553D01*
X388Y1586D01*
X396Y1624D01*
X395Y1625D01*
X396Y1626D01*
X411Y1648D01*
X417Y1675D01*
Y1829D01*
X633Y2046D01*
X917D01*
X949Y2007D01*
X943Y1978D01*
X951Y1940D01*
X972Y1907D01*
X978Y1904D01*
Y1693D01*
X920Y1635D01*
X825D01*
X800Y1630D01*
X779Y1616D01*
X687Y1524D01*
X673Y1503D01*
X668Y1478D01*
Y1334D01*
X673Y1309D01*
X687Y1287D01*
X833Y1141D01*
Y1091D01*
X827Y1085D01*
X781Y1076D01*
X742Y1050D01*
X716Y1011D01*
X706Y965D01*
X716Y918D01*
X742Y879D01*
X781Y853D01*
X785Y852D01*
X795Y803D01*
X781Y794D01*
X755Y755D01*
X746Y709D01*
X755Y663D01*
X781Y624D01*
X820Y597D01*
X866Y588D01*
X912Y597D01*
X951Y624D01*
X977Y663D01*
X987Y709D01*
X977Y755D01*
X951Y794D01*
X912Y820D01*
X907Y821D01*
X898Y870D01*
X912Y879D01*
X938Y918D01*
X947Y965D01*
X945Y976D01*
X973Y1017D01*
X983Y1019D01*
X1016Y1041D01*
X1038Y1074D01*
X1045Y1112D01*
X1038Y1151D01*
X1016Y1183D01*
X983Y1205D01*
X947Y1212D01*
X874Y1285D01*
X888Y1333D01*
X895Y1335D01*
X927Y1356D01*
X949Y1389D01*
X953Y1406D01*
X986D01*
X1013Y1411D01*
X1036Y1427D01*
X1124Y1514D01*
X2133D01*
X2134Y1514D01*
X2166Y1492D01*
X2205Y1484D01*
X2243Y1492D01*
X2282Y1434D01*
Y767D01*
X2146Y631D01*
X1407D01*
X1369Y669D01*
Y758D01*
X1368Y763D01*
X1369Y768D01*
Y1048D01*
X1383Y1068D01*
X1390Y1102D01*
X1383Y1137D01*
X1363Y1166D01*
X1334Y1186D01*
X1299Y1193D01*
X1265Y1186D01*
X1235Y1166D01*
X1216Y1137D01*
X1209Y1102D01*
X1216Y1068D01*
X1229Y1048D01*
Y768D01*
X1230Y763D01*
X1229Y758D01*
Y640D01*
X1234Y613D01*
X1250Y590D01*
X1259Y581D01*
X1260D01*
X1378Y463D01*
Y423D01*
X1181D01*
Y443D01*
X1173Y431D01*
X1169Y413D01*
X1902D01*
X1898Y431D01*
X1888Y447D01*
X1911Y491D01*
X2175D01*
X2202Y496D01*
X2225Y511D01*
X2402Y689D01*
X2417Y711D01*
X2423Y738D01*
Y1615D01*
X2490Y1682D01*
X2815D01*
X2842Y1687D01*
X2865Y1702D01*
X2943Y1781D01*
X2959Y1804D01*
X2964Y1831D01*
Y1897D01*
X2965Y1898D01*
X2986Y1930D01*
X2994Y1969D01*
X2986Y2007D01*
X2965Y2039D01*
X2932Y2061D01*
X2894Y2069D01*
X2855Y2061D01*
X2823Y2039D01*
X2801Y2007D01*
X2793Y1969D01*
X2801Y1930D01*
X2823Y1898D01*
X2823Y1897D01*
Y1860D01*
X2786Y1822D01*
X2461D01*
X2434Y1817D01*
X2411Y1802D01*
X2303Y1693D01*
X2287Y1671D01*
X2287Y1671D01*
Y1671D01*
X2276Y1656D01*
X2243Y1677D01*
X2205Y1685D01*
X2166Y1677D01*
X2134Y1656D01*
X2133Y1655D01*
X1117D01*
X1109Y1666D01*
Y1904D01*
X1114Y1907D01*
X1127Y1927D01*
X1177Y1932D01*
X1328Y1781D01*
X1328Y1781D01*
X1348Y1761D01*
X1371Y1746D01*
X1398Y1741D01*
X1730D01*
X1730Y1740D01*
X1763Y1718D01*
X1801Y1711D01*
X1840Y1718D01*
X1872Y1740D01*
X1894Y1773D01*
X1902Y1811D01*
X1894Y1849D01*
X1872Y1882D01*
X1840Y1904D01*
X1801Y1911D01*
X1763Y1904D01*
X1730Y1882D01*
X1730Y1881D01*
X1622D01*
X1591Y1920D01*
X1596Y1949D01*
X1589Y1987D01*
X1567Y2020D01*
X1534Y2042D01*
X1496Y2049D01*
X1458Y2042D01*
X1425Y2020D01*
X1363Y2061D01*
X1353Y2072D01*
X1311Y2134D01*
X1333Y2166D01*
X1341Y2205D01*
X1333Y2243D01*
X1333D01*
X1357Y2269D01*
D01*
X1390Y2291D01*
X1399Y2304D01*
X1448Y2309D01*
X1451Y2307D01*
X1496Y2288D01*
X1996D01*
X2041Y2307D01*
X2072Y2338D01*
X2559D01*
X2604Y2356D01*
X2662Y2414D01*
X2681Y2460D01*
Y2678D01*
X2675Y2694D01*
X2679Y2717D01*
X2671Y2755D01*
X2650Y2788D01*
X2638Y2795D01*
X2653Y2843D01*
X2815D01*
X2815Y2843D01*
X2865D01*
X2902Y2806D01*
Y2618D01*
X2908Y2591D01*
X2923Y2568D01*
X2971Y2521D01*
X2971Y2520D01*
X2978Y2481D01*
X3000Y2449D01*
X3032Y2427D01*
X3071Y2419D01*
X3109Y2427D01*
X3142Y2449D01*
X3164Y2481D01*
X3171Y2520D01*
X3164Y2558D01*
X3142Y2591D01*
X3109Y2612D01*
X3071Y2620D01*
X3070Y2620D01*
X3043Y2647D01*
Y2741D01*
X3081Y2773D01*
X3130Y2763D01*
X3180Y2773D01*
X3222Y2801D01*
X3250Y2844D01*
X3260Y2894D01*
X3258Y2908D01*
X3344Y2994D01*
X3362Y3020D01*
X3368Y3051D01*
Y3211D01*
X3380Y3229D01*
X3388Y3268D01*
X3380Y3306D01*
X3358Y3339D01*
Y3339D01*
X3358D01*
X3350Y3377D01*
X3350Y3377D01*
X3383Y3399D01*
X3387Y3404D01*
X3445D01*
X3472Y3410D01*
X3495Y3425D01*
X4133Y4064D01*
X4303D01*
X4322Y4051D01*
X4360Y4044D01*
X4398Y4051D01*
X4431Y4073D01*
X4453Y4105D01*
X4460Y4144D01*
X4453Y4182D01*
X4431Y4215D01*
X4398Y4237D01*
X4360Y4244D01*
X4322Y4237D01*
X4289Y4215D01*
X4282Y4204D01*
X4104D01*
X4077Y4199D01*
X4055Y4184D01*
X3568Y3696D01*
X3555Y3703D01*
X3547Y3753D01*
X3656Y3862D01*
X3671Y3885D01*
X3677Y3911D01*
Y4328D01*
X3671Y4355D01*
X3656Y4378D01*
X3481Y4553D01*
X3458Y4568D01*
X3431Y4574D01*
X3367D01*
X3358Y4587D01*
X3326Y4608D01*
X3287Y4616D01*
X3249Y4608D01*
X3216Y4587D01*
X3195Y4554D01*
X3187Y4516D01*
X3193Y4487D01*
X3161Y4448D01*
X3145Y4452D01*
X3119Y4470D01*
X3089Y4476D01*
X2974D01*
X2974Y4476D01*
X2944Y4470D01*
X2918Y4452D01*
X2918Y4452D01*
X2858Y4393D01*
X2843Y4396D01*
X2797Y4387D01*
X2758Y4361D01*
X2732Y4321D01*
X2723Y4275D01*
X2732Y4229D01*
X2758Y4190D01*
X2797Y4164D01*
X2843Y4155D01*
X2890Y4164D01*
X2929Y4190D01*
X2955Y4229D01*
X2963Y4271D01*
X3008Y4315D01*
X3055D01*
X3059Y4311D01*
X3059Y4311D01*
X3085Y4294D01*
X3116Y4288D01*
X3284D01*
X3311Y4260D01*
X3306Y4211D01*
X3278Y4191D01*
X3258Y4195D01*
X3208Y4185D01*
X3166Y4157D01*
X3137Y4115D01*
X3127Y4065D01*
X3137Y4015D01*
X3166Y3973D01*
X3208Y3944D01*
X3258Y3934D01*
X3308Y3944D01*
X3350Y3973D01*
X3378Y4015D01*
X3388Y4065D01*
X3378Y4115D01*
X3371Y4126D01*
X3399Y4168D01*
X3421Y4163D01*
X3460Y4171D01*
X3492Y4193D01*
X3495Y4191D01*
X3536Y4164D01*
Y3941D01*
X3426Y3830D01*
X3425Y3831D01*
X3387Y3823D01*
X3354Y3801D01*
X3332Y3769D01*
X3325Y3730D01*
X3332Y3692D01*
X3354Y3659D01*
X3387Y3638D01*
X3425Y3630D01*
X3435Y3632D01*
X3459Y3588D01*
X3416Y3545D01*
X3377D01*
X3350Y3562D01*
X3312Y3570D01*
X3274Y3562D01*
X3241Y3540D01*
X3219Y3508D01*
X3212Y3469D01*
X3219Y3431D01*
X3241Y3399D01*
Y3399D01*
X3241D01*
X3249Y3360D01*
X3216Y3339D01*
X3195Y3306D01*
X3187Y3268D01*
X3195Y3229D01*
X3207Y3211D01*
Y3084D01*
X3144Y3021D01*
X3130Y3024D01*
X3080Y3014D01*
X3038Y2986D01*
X3013Y2948D01*
X2963Y2944D01*
X2943Y2963D01*
X2921Y2978D01*
X2921Y2978D01*
X2921D01*
X2916Y2981D01*
X2906Y3030D01*
X2908Y3032D01*
X2915Y3071D01*
X2908Y3109D01*
X2886Y3142D01*
X2853Y3164D01*
X2815Y3171D01*
X2777Y3164D01*
X2744Y3142D01*
X2722Y3109D01*
X2715Y3071D01*
X2722Y3032D01*
X2725Y3028D01*
X2702Y2984D01*
X2453D01*
X2453Y2984D01*
X2420Y3006D01*
X2382Y3014D01*
X2343Y3006D01*
X2311Y2984D01*
X2289Y2952D01*
X2287Y2942D01*
X2238Y2932D01*
X2217Y2965D01*
X2184Y2986D01*
X2146Y2994D01*
X2107Y2986D01*
X2075Y2965D01*
X2049D01*
X2017Y2986D01*
X1978Y2994D01*
X1978Y2994D01*
X1921Y3051D01*
X1876Y3070D01*
X1765D01*
X1703Y3132D01*
Y3332D01*
X1749Y3351D01*
X1932Y3167D01*
X1953Y3153D01*
X1978Y3148D01*
X2511D01*
X2518Y3138D01*
X2550Y3116D01*
X2589Y3108D01*
X2627Y3116D01*
X2660Y3138D01*
X2681Y3170D01*
X2689Y3209D01*
X2685Y3229D01*
X2713Y3271D01*
X2719Y3272D01*
X2742Y3287D01*
X2819Y3364D01*
X2820Y3364D01*
X2858Y3372D01*
X2891Y3394D01*
X2913Y3426D01*
X2920Y3465D01*
X2913Y3503D01*
X2891Y3536D01*
X2858Y3557D01*
X2820Y3565D01*
X2781Y3557D01*
X2749Y3536D01*
X2727Y3503D01*
X2720Y3465D01*
X2720Y3464D01*
X2663Y3407D01*
X2168D01*
X2167Y3408D01*
X2135Y3429D01*
X2096Y3437D01*
X2058Y3429D01*
X2025Y3408D01*
X2004Y3375D01*
X1998Y3348D01*
X1951Y3334D01*
X1839Y3445D01*
X1844Y3495D01*
X1876Y3517D01*
X1903Y3556D01*
X1912Y3602D01*
X1964Y3613D01*
X1974Y3598D01*
X2007Y3575D01*
X2047Y3567D01*
X2087Y3575D01*
X2121Y3598D01*
X2144Y3632D01*
X2152Y3671D01*
X2144Y3711D01*
X2142Y3714D01*
X2161Y3761D01*
X2192Y3767D01*
X2231Y3793D01*
X2257Y3832D01*
X2266Y3878D01*
X2257Y3924D01*
X2231Y3963D01*
X2224Y3968D01*
X2243Y4014D01*
X2244Y4014D01*
X2282Y4021D01*
X2315Y4043D01*
X2337Y4076D01*
X2344Y4114D01*
X2337Y4153D01*
X2315Y4185D01*
X2282Y4207D01*
X2244Y4215D01*
X2206Y4207D01*
X2173Y4185D01*
X2151Y4153D01*
X2144Y4114D01*
X2151Y4076D01*
X2173Y4043D01*
X2174Y4043D01*
X2155Y3997D01*
X2146Y3998D01*
X2100Y3989D01*
X2061Y3963D01*
X2034Y3924D01*
X2033Y3915D01*
X1989Y3891D01*
X1983Y3893D01*
X1983Y3893D01*
Y3893D01*
X1949Y3915D01*
X1909Y3923D01*
X1870Y3915D01*
X1836Y3893D01*
X1813Y3859D01*
X1805Y3821D01*
X1787Y3815D01*
X1755Y3809D01*
X1463Y4101D01*
X1424Y4127D01*
X1378Y4136D01*
X1378Y4136D01*
X1335D01*
X1321Y4184D01*
X1331Y4191D01*
X1353Y4223D01*
X1360Y4262D01*
X1353Y4300D01*
X1331Y4333D01*
X1330Y4333D01*
Y4429D01*
X1325Y4456D01*
X1310Y4479D01*
X1222Y4566D01*
X1208Y4640D01*
X1240Y4661D01*
X1262Y4694D01*
X1262Y4694D01*
X1310Y4709D01*
X1392Y4627D01*
X1392Y4627D01*
X1421Y4607D01*
X1427Y4606D01*
X1456Y4600D01*
X1456Y4600D01*
X1709D01*
X1713Y4598D01*
X1751Y4590D01*
X1789Y4598D01*
X1789Y4598D01*
X1789D01*
X1789D01*
Y4598D01*
X1789Y4598D01*
D01*
X1821Y4616D01*
Y4616D01*
X1829Y4578D01*
X1851Y4545D01*
X1883Y4523D01*
X1922Y4516D01*
X1960Y4523D01*
X1993Y4545D01*
X2014Y4578D01*
X2022Y4616D01*
X2014Y4655D01*
X2002Y4673D01*
Y5167D01*
X1996Y5198D01*
X1992Y5204D01*
Y5250D01*
X1987Y5277D01*
X1971Y5299D01*
X1817Y5454D01*
X1803Y5474D01*
X1775Y5493D01*
X1742Y5500D01*
X1709Y5493D01*
X1681Y5474D01*
X1681D01*
D01*
X1652Y5481D01*
X1652Y5481D01*
Y5481D01*
X1621Y5501D01*
X1584Y5509D01*
X1548Y5501D01*
X1517Y5481D01*
X1495D01*
X1495Y5481D01*
X1464Y5502D01*
X1427Y5509D01*
X1393Y5502D01*
X1358Y5538D01*
X1365Y5571D01*
X1357Y5607D01*
X1337Y5638D01*
Y5661D01*
X1357Y5692D01*
X1365Y5728D01*
X1357Y5765D01*
X1337Y5796D01*
Y5796D01*
X1337D01*
X1346Y5809D01*
X1346Y5809D01*
X1346D01*
X1367Y5840D01*
X1374Y5876D01*
X1367Y5913D01*
X1346Y5944D01*
X1346Y5944D01*
X1346D01*
X1337Y5976D01*
Y5976D01*
X1357Y6007D01*
X1365Y6043D01*
X1358Y6077D01*
X1393Y6112D01*
X1427Y6105D01*
X1463Y6113D01*
X1476Y6121D01*
X1511Y6086D01*
X1505Y6076D01*
X1498Y6043D01*
X1505Y6010D01*
X1521Y5987D01*
Y5982D01*
X1502Y5954D01*
X1494Y5916D01*
X1502Y5877D01*
X1524Y5845D01*
X1556Y5823D01*
X1595Y5815D01*
X1633Y5823D01*
X1666Y5845D01*
X1687Y5877D01*
X1695Y5916D01*
X1695Y5916D01*
X1695Y5916D01*
X1705Y5955D01*
X1705Y5955D01*
X1742Y5948D01*
X1778Y5955D01*
X1789Y5962D01*
X1824Y5927D01*
X1821Y5923D01*
X1821Y5921D01*
X1820Y5919D01*
X1813Y5886D01*
X1820Y5853D01*
X1821Y5851D01*
X1821Y5850D01*
X1838Y5825D01*
X1837Y5824D01*
X1837Y5824D01*
X1802Y5790D01*
X1775Y5808D01*
X1742Y5815D01*
X1709Y5808D01*
X1681Y5789D01*
X1662Y5761D01*
X1656Y5728D01*
X1662Y5695D01*
X1681Y5667D01*
X1709Y5649D01*
X1737Y5643D01*
X1854Y5526D01*
X1871Y5519D01*
X1881Y5503D01*
X1912Y5483D01*
X1949Y5476D01*
X1985Y5483D01*
X2016Y5503D01*
X2037Y5534D01*
X2044Y5571D01*
X2037Y5607D01*
X2016Y5638D01*
X1985Y5659D01*
X1949Y5666D01*
X1912Y5659D01*
X1906Y5655D01*
X1827Y5733D01*
X1822Y5761D01*
X1808Y5783D01*
X1808Y5784D01*
X1808D01*
X1843Y5818D01*
X1873Y5798D01*
X1910Y5791D01*
X1946Y5798D01*
X1977Y5819D01*
X1977Y5819D01*
Y5819D01*
X1996Y5825D01*
X1996Y5825D01*
X1996D01*
X2024Y5806D01*
X2057Y5800D01*
X2090Y5806D01*
X2095Y5809D01*
X2130Y5802D01*
X2166Y5810D01*
X2197Y5830D01*
X2218Y5861D01*
X2225Y5898D01*
X2218Y5934D01*
X2197Y5965D01*
X2197Y5965D01*
X2200Y5978D01*
X2223Y5994D01*
X2352Y6123D01*
X2367Y6145D01*
X2372Y6172D01*
Y6427D01*
X2367Y6454D01*
X2352Y6476D01*
X2184Y6644D01*
X2161Y6659D01*
X2134Y6665D01*
X1740D01*
X1502Y6903D01*
X1522Y6949D01*
X2480D01*
X2481Y8898D01*
X4488D01*
Y6958D01*
D02*
G37*
G36*
X734Y6418D02*
X766Y6370D01*
X744Y6338D01*
X736Y6299D01*
Y5827D01*
X701Y5791D01*
X679Y5759D01*
X671Y5720D01*
Y5222D01*
X679Y5184D01*
X701Y5151D01*
X706Y5146D01*
Y5032D01*
X692Y5018D01*
X666Y4979D01*
X657Y4933D01*
X657Y4933D01*
Y4435D01*
X657Y4434D01*
X666Y4388D01*
X681Y4366D01*
X658Y4322D01*
X480D01*
X469Y4333D01*
Y4414D01*
X464Y4439D01*
X450Y4460D01*
X341Y4569D01*
Y4754D01*
X336Y4779D01*
X322Y4800D01*
X302Y4820D01*
X289Y4828D01*
X272Y4854D01*
X239Y4876D01*
X201Y4884D01*
X170D01*
X167Y4887D01*
Y5073D01*
X178Y5089D01*
X246D01*
X276Y5095D01*
X301Y5112D01*
X370Y5181D01*
X370Y5181D01*
X387Y5206D01*
X393Y5236D01*
Y5479D01*
X469Y5555D01*
X486Y5580D01*
X492Y5610D01*
Y5735D01*
X556Y5799D01*
X573Y5825D01*
X579Y5855D01*
Y6280D01*
X718Y6420D01*
X734Y6418D01*
D02*
G37*
G36*
X251Y4260D02*
X251Y4242D01*
D01*
X251Y4242D01*
X251D01*
D01*
D01*
X251Y4242D01*
X270Y4197D01*
X339Y4128D01*
X384Y4109D01*
X662D01*
X1023Y3748D01*
X1004Y3702D01*
X276D01*
X249Y3697D01*
X241Y3692D01*
X236Y3693D01*
X176D01*
X167Y3706D01*
Y3892D01*
X185Y3919D01*
X201Y3996D01*
X185Y4073D01*
X167Y4100D01*
Y4249D01*
X197D01*
X251Y4260D01*
D01*
D02*
G37*
G36*
X942Y3375D02*
X972Y3369D01*
X1138D01*
X1194Y3312D01*
X1199Y3290D01*
X1220Y3258D01*
X1253Y3236D01*
X1291Y3228D01*
X1330Y3236D01*
X1362Y3258D01*
X1384Y3290D01*
X1390Y3320D01*
X1397Y3330D01*
X1435Y3323D01*
X1442Y3324D01*
X1490Y3276D01*
Y3078D01*
X1446Y3055D01*
X1430Y3065D01*
X1392Y3073D01*
X1353Y3065D01*
X1335Y3053D01*
X1093D01*
X1093Y3053D01*
X1062Y3047D01*
X1036Y3029D01*
X1036Y3029D01*
X918Y2911D01*
X900Y2885D01*
X894Y2854D01*
Y2437D01*
X887Y2435D01*
X854Y2413D01*
X832Y2381D01*
X825Y2343D01*
X829Y2323D01*
X797Y2285D01*
X522D01*
X495Y2279D01*
X472Y2264D01*
X383Y2176D01*
X383Y2176D01*
X315Y2107D01*
X294Y2120D01*
X256Y2128D01*
X170D01*
X167Y2131D01*
Y2317D01*
X185Y2344D01*
X201Y2421D01*
X185Y2498D01*
X167Y2525D01*
Y2643D01*
X170Y2645D01*
X223Y2723D01*
X229Y2756D01*
X0D01*
Y2874D01*
X229D01*
X223Y2907D01*
X170Y2985D01*
X167Y2987D01*
Y3105D01*
X170Y3108D01*
X236D01*
X275Y3116D01*
X307Y3138D01*
X406Y3236D01*
X420Y3258D01*
X427Y3269D01*
X435Y3307D01*
Y3344D01*
X467Y3376D01*
X939D01*
X942Y3375D01*
D02*
G37*
%LPC*%
G36*
X6350Y6713D02*
X6043D01*
Y6571D01*
X6161D01*
X6238Y6586D01*
X6303Y6630D01*
X6347Y6695D01*
X6350Y6713D01*
D02*
G37*
G36*
X5925D02*
X5618D01*
X5622Y6695D01*
X5665Y6630D01*
X5730Y6586D01*
X5807Y6571D01*
X5925D01*
Y6713D01*
D02*
G37*
G36*
X3491Y6594D02*
X3441Y6584D01*
X3399Y6556D01*
X3370Y6513D01*
X3360Y6463D01*
X3370Y6413D01*
X3399Y6371D01*
X3441Y6343D01*
X3491Y6333D01*
X3541Y6343D01*
X3583Y6371D01*
X3611Y6413D01*
X3621Y6463D01*
X3611Y6513D01*
X3583Y6556D01*
X3541Y6584D01*
X3491Y6594D01*
D02*
G37*
G36*
X3150Y6253D02*
X3100Y6243D01*
X3058Y6215D01*
X3029Y6172D01*
X3019Y6122D01*
X3029Y6072D01*
X3058Y6030D01*
X3100Y6002D01*
X3150Y5992D01*
X3200Y6002D01*
X3242Y6030D01*
X3270Y6072D01*
X3280Y6122D01*
X3270Y6172D01*
X3242Y6215D01*
X3200Y6243D01*
X3150Y6253D01*
D02*
G37*
G36*
X3012Y5938D02*
X2962Y5928D01*
X2920Y5900D01*
X2891Y5857D01*
X2882Y5807D01*
X2889Y5769D01*
X2845Y5751D01*
Y5751D01*
X2843Y5750D01*
X2829Y5772D01*
X2786Y5800D01*
X2736Y5810D01*
X2686Y5800D01*
X2644Y5772D01*
X2616Y5729D01*
X2606Y5679D01*
X2616Y5629D01*
X2644Y5587D01*
X2686Y5559D01*
X2736Y5549D01*
X2786Y5559D01*
X2829Y5587D01*
X2857Y5629D01*
X2867Y5679D01*
X2859Y5717D01*
X2903Y5735D01*
Y5735D01*
X2905Y5736D01*
X2920Y5715D01*
X2962Y5687D01*
X3012Y5677D01*
X3062Y5687D01*
X3104Y5715D01*
X3132Y5757D01*
X3142Y5807D01*
X3132Y5857D01*
X3104Y5900D01*
X3062Y5928D01*
X3012Y5938D01*
D02*
G37*
G36*
X3504Y5987D02*
X3454Y5977D01*
X3412Y5949D01*
X3384Y5907D01*
X3374Y5857D01*
X3384Y5807D01*
X3412Y5764D01*
X3454Y5736D01*
X3504Y5726D01*
X3554Y5736D01*
X3596Y5764D01*
X3625Y5807D01*
X3635Y5857D01*
X3625Y5907D01*
X3596Y5949D01*
X3554Y5977D01*
X3504Y5987D01*
D02*
G37*
G36*
X4291Y5337D02*
X4253Y5329D01*
X4220Y5307D01*
X4199Y5275D01*
X4191Y5236D01*
X4199Y5198D01*
X4220Y5165D01*
X4253Y5144D01*
X4291Y5136D01*
X4330Y5144D01*
X4362Y5165D01*
X4384Y5198D01*
X4392Y5236D01*
X4384Y5275D01*
X4362Y5307D01*
X4330Y5329D01*
X4291Y5337D01*
D02*
G37*
G36*
X3829Y5268D02*
X3790Y5260D01*
X3758Y5238D01*
X3736Y5206D01*
X3728Y5167D01*
X3736Y5129D01*
X3758Y5096D01*
X3758Y5096D01*
X3758Y5096D01*
X3790Y5075D01*
X3829Y5067D01*
X3867Y5075D01*
X3900Y5096D01*
X3921Y5129D01*
X3929Y5167D01*
X3921Y5206D01*
X3900Y5238D01*
X3900Y5238D01*
X3900Y5238D01*
X3867Y5260D01*
X3829Y5268D01*
D02*
G37*
G36*
X5581Y4983D02*
X5531Y4973D01*
X5488Y4945D01*
X5460Y4902D01*
X5450Y4852D01*
X5460Y4802D01*
X5488Y4760D01*
X5531Y4732D01*
X5581Y4722D01*
X5631Y4732D01*
X5673Y4760D01*
X5701Y4802D01*
X5711Y4852D01*
X5701Y4902D01*
X5673Y4945D01*
X5631Y4973D01*
X5581Y4983D01*
D02*
G37*
G36*
X3819Y4904D02*
X3780Y4896D01*
X3748Y4874D01*
X3726Y4842D01*
X3719Y4803D01*
X3726Y4765D01*
X3748Y4732D01*
X3780Y4710D01*
X3819Y4703D01*
X3857Y4710D01*
X3890Y4732D01*
X3912Y4765D01*
X3919Y4803D01*
X3912Y4842D01*
X3890Y4874D01*
X3857Y4896D01*
X3819Y4904D01*
D02*
G37*
G36*
X4281Y4923D02*
X4243Y4916D01*
X4211Y4894D01*
X4189Y4861D01*
X4181Y4823D01*
X4189Y4784D01*
X4211Y4752D01*
X4227Y4741D01*
Y4691D01*
X4220Y4687D01*
X4199Y4655D01*
X4191Y4616D01*
X4199Y4578D01*
X4220Y4545D01*
X4253Y4523D01*
X4291Y4516D01*
X4330Y4523D01*
X4362Y4545D01*
X4384Y4578D01*
X4385Y4584D01*
X4433Y4599D01*
X4548Y4484D01*
X4548Y4483D01*
X4568Y4454D01*
X4597Y4434D01*
X4632Y4427D01*
X4666Y4434D01*
X4696Y4454D01*
X4715Y4483D01*
X4722Y4518D01*
X4715Y4552D01*
X4696Y4582D01*
X4666Y4601D01*
X4656Y4603D01*
X4380Y4880D01*
X4354Y4897D01*
X4345Y4899D01*
X4320Y4916D01*
X4281Y4923D01*
D02*
G37*
G36*
X2392Y2246D02*
X2346Y2237D01*
X2307Y2211D01*
X2280Y2172D01*
X2271Y2126D01*
X2280Y2080D01*
X2307Y2041D01*
X2346Y2015D01*
X2392Y2006D01*
X2438Y2015D01*
X2477Y2041D01*
X2503Y2080D01*
X2512Y2126D01*
X2503Y2172D01*
X2477Y2211D01*
X2438Y2237D01*
X2392Y2246D01*
D02*
G37*
G36*
X2146Y2108D02*
X2107Y2101D01*
X2075Y2079D01*
X2053Y2046D01*
X2045Y2008D01*
X2053Y1969D01*
X2075Y1937D01*
X2107Y1915D01*
X2146Y1908D01*
X2184Y1915D01*
X2217Y1937D01*
X2238Y1969D01*
X2246Y2008D01*
X2238Y2046D01*
X2217Y2079D01*
X2184Y2101D01*
X2146Y2108D01*
D02*
G37*
G36*
X3488Y2459D02*
X3450Y2451D01*
X3417Y2429D01*
X3395Y2397D01*
X3388Y2358D01*
X3395Y2320D01*
X3405Y2305D01*
X3402Y2286D01*
X3389Y2255D01*
X3346Y2247D01*
X3303Y2218D01*
X3275Y2176D01*
X3265Y2126D01*
X3275Y2076D01*
X3303Y2034D01*
X3268Y1981D01*
X3267Y1981D01*
X3225Y1953D01*
X3197Y1910D01*
X3187Y1860D01*
X3197Y1810D01*
X3225Y1768D01*
X3267Y1740D01*
X3317Y1730D01*
X3367Y1740D01*
X3409Y1768D01*
X3438Y1810D01*
X3448Y1860D01*
X3438Y1910D01*
X3409Y1953D01*
X3445Y2005D01*
X3446Y2005D01*
X3488Y2034D01*
X3495Y2044D01*
X3544Y2034D01*
X3549Y2009D01*
X3577Y1967D01*
X3619Y1939D01*
X3669Y1929D01*
X3719Y1939D01*
X3762Y1967D01*
X3790Y2009D01*
X3800Y2059D01*
X3790Y2109D01*
X3762Y2151D01*
X3719Y2180D01*
X3702Y2183D01*
X3707Y2233D01*
X4977D01*
X5176Y2034D01*
Y1855D01*
X5132Y1832D01*
X5127Y1835D01*
X5106Y1839D01*
X5097Y1845D01*
X5059Y1852D01*
X5021Y1845D01*
X4988Y1823D01*
X4966Y1790D01*
X4959Y1752D01*
X4966Y1714D01*
X4988Y1681D01*
X5021Y1659D01*
X5042Y1655D01*
X5050Y1649D01*
X5089Y1642D01*
X5127Y1649D01*
X5160Y1671D01*
Y1671D01*
X5189Y1681D01*
X5189D01*
X5221Y1659D01*
X5260Y1652D01*
X5298Y1659D01*
X5331Y1681D01*
X5353Y1714D01*
X5360Y1752D01*
X5353Y1790D01*
X5336Y1815D01*
Y2067D01*
X5336Y2067D01*
X5330Y2098D01*
X5313Y2124D01*
X5313Y2124D01*
X5067Y2370D01*
X5041Y2387D01*
X5010Y2393D01*
X3714D01*
X3693Y2415D01*
X3667Y2432D01*
X3636Y2439D01*
X3545D01*
X3527Y2451D01*
X3488Y2459D01*
D02*
G37*
G36*
X3415Y1616D02*
X3377Y1608D01*
X3344Y1587D01*
X3323Y1554D01*
X3315Y1516D01*
X3315Y1516D01*
X3315Y1516D01*
X3296Y1481D01*
D01*
X3296Y1481D01*
X3258Y1488D01*
X3219Y1481D01*
X3187Y1459D01*
X3165Y1426D01*
X3158Y1388D01*
X3165Y1349D01*
X3187Y1317D01*
X3193Y1313D01*
Y463D01*
X3198Y438D01*
X3212Y416D01*
X3252Y376D01*
X3246Y344D01*
X3254Y306D01*
X3275Y274D01*
X3308Y252D01*
X3346Y244D01*
X3385Y252D01*
X3417Y274D01*
X3439Y306D01*
X3447Y344D01*
X3439Y383D01*
X3417Y415D01*
X3385Y437D01*
X3373Y440D01*
X3323Y490D01*
Y1203D01*
X3369Y1233D01*
X3448Y1155D01*
X3448Y1155D01*
X3665Y938D01*
Y419D01*
X3659Y415D01*
X3638Y383D01*
X3630Y344D01*
X3638Y306D01*
X3659Y274D01*
X3692Y252D01*
X3730Y244D01*
X3769Y252D01*
X3801Y274D01*
X3823Y306D01*
X3831Y344D01*
X3823Y383D01*
X3801Y415D01*
X3796Y419D01*
Y965D01*
X3791Y990D01*
X3776Y1011D01*
X3540Y1247D01*
X3540Y1247D01*
X3481Y1307D01*
Y1441D01*
X3486Y1445D01*
X3508Y1477D01*
X3516Y1516D01*
X3508Y1554D01*
X3486Y1587D01*
X3454Y1608D01*
X3415Y1616D01*
D02*
G37*
G36*
X3730Y1656D02*
X3680Y1646D01*
X3638Y1618D01*
X3610Y1576D01*
X3600Y1526D01*
X3610Y1476D01*
X3638Y1433D01*
X3680Y1405D01*
X3730Y1395D01*
X3780Y1405D01*
X3823Y1433D01*
X3851Y1476D01*
X3861Y1526D01*
X3851Y1576D01*
X3823Y1618D01*
X3780Y1646D01*
X3730Y1656D01*
D02*
G37*
G36*
X4193Y1941D02*
X4155Y1933D01*
X4122Y1912D01*
X4100Y1879D01*
X4093Y1841D01*
X4093Y1840D01*
X4093Y1839D01*
X4100Y1800D01*
X4122Y1768D01*
X4155Y1746D01*
X4193Y1738D01*
X4231Y1746D01*
X4264Y1768D01*
X4264D01*
X4264Y1768D01*
X4283Y1764D01*
X4283Y1764D01*
Y1764D01*
X4316Y1742D01*
X4344Y1736D01*
Y1686D01*
X4340Y1685D01*
X4298Y1657D01*
X4269Y1615D01*
X4259Y1565D01*
X4269Y1515D01*
X4298Y1473D01*
X4340Y1444D01*
X4375Y1437D01*
X4775Y1037D01*
X4808Y1016D01*
X4814Y1014D01*
X4846Y1008D01*
X5331D01*
X5369Y1016D01*
X5402Y1037D01*
X5691Y1327D01*
X5713Y1359D01*
X5714Y1366D01*
X5720Y1398D01*
Y1641D01*
X5761Y1682D01*
X5796Y1689D01*
X5829Y1711D01*
X5851Y1743D01*
X5858Y1781D01*
X5851Y1820D01*
X5829Y1852D01*
X5796Y1874D01*
X5758Y1882D01*
X5719D01*
X5680Y1874D01*
X5648Y1852D01*
X5549Y1754D01*
X5527Y1721D01*
X5520Y1683D01*
Y1477D01*
X5480Y1447D01*
X5468Y1450D01*
X5465Y1467D01*
X5437Y1510D01*
X5394Y1538D01*
X5344Y1548D01*
X5295Y1538D01*
X5252Y1510D01*
X5224Y1467D01*
X5214Y1417D01*
X5224Y1367D01*
X5252Y1325D01*
X5295Y1297D01*
X5312Y1293D01*
X5326Y1246D01*
X5289Y1209D01*
X4888D01*
X4711Y1385D01*
X4716Y1435D01*
X4758Y1463D01*
X4786Y1505D01*
X4796Y1555D01*
X4786Y1605D01*
X4758Y1647D01*
X4715Y1676D01*
X4665Y1686D01*
X4615Y1676D01*
X4573Y1647D01*
X4558Y1624D01*
X4544Y1622D01*
X4506D01*
X4482Y1657D01*
X4440Y1685D01*
X4407Y1692D01*
X4397Y1742D01*
X4429Y1764D01*
D01*
X4445Y1768D01*
X4445D01*
X4477Y1746D01*
X4516Y1738D01*
X4554Y1746D01*
X4587Y1768D01*
X4608Y1800D01*
X4608Y1800D01*
X4608Y1800D01*
X4616Y1839D01*
X4608Y1877D01*
X4587Y1910D01*
X4554Y1931D01*
X4516Y1939D01*
X4477Y1931D01*
X4445Y1910D01*
X4442Y1906D01*
X4429D01*
X4397Y1927D01*
X4358Y1935D01*
X4356Y1935D01*
X4354Y1935D01*
X4316Y1927D01*
X4283Y1906D01*
X4283D01*
D01*
X4264Y1912D01*
X4264Y1912D01*
Y1912D01*
X4231Y1933D01*
X4193Y1941D01*
D02*
G37*
%LPD*%
D10*
X25856Y244D02*
Y-256D01*
X26190D01*
X26356D02*
Y77D01*
X26523Y244D01*
X26689Y77D01*
Y-256D01*
Y-6D01*
X26356D01*
X26856Y244D02*
Y161D01*
X27023Y-6D01*
X27189Y161D01*
Y244D01*
X27023Y-6D02*
Y-256D01*
X27689Y244D02*
X27356D01*
Y-256D01*
X27689D01*
X27356Y-6D02*
X27522D01*
X27856Y-256D02*
Y244D01*
X28106D01*
X28189Y161D01*
Y-6D01*
X28106Y-89D01*
X27856D01*
X28022D02*
X28189Y-256D01*
X28355Y-6D02*
X28689D01*
X28855Y161D02*
X28939Y244D01*
X29105D01*
X29189Y161D01*
Y-173D01*
X29105Y-256D01*
X28939D01*
X28855Y-173D01*
Y161D01*
X29688Y-256D02*
X29355D01*
X29688Y77D01*
Y161D01*
X29605Y244D01*
X29438D01*
X29355Y161D01*
D11*
X1171Y3449D02*
X1291Y3329D01*
X406Y3457D02*
X965D01*
X972Y3449D02*
X1171D01*
X965Y3457D02*
X972Y3449D01*
X3130Y2894D02*
X3287Y3051D01*
X5266Y1752D02*
Y1752D01*
X5010Y2313D02*
X5256Y2067D01*
Y1752D02*
Y2067D01*
X1922Y4616D02*
Y5167D01*
X4354Y1835D02*
X4370Y1850D01*
X3636Y2358D02*
X3681Y2313D01*
X3488Y2358D02*
X3636D01*
X3681Y2313D02*
X5010D01*
X4281Y4823D02*
X4323D01*
X4628Y4518D01*
X4632D01*
X3317Y4368D02*
X3421Y4264D01*
X3116Y4368D02*
X3317D01*
X3089Y4396D02*
X3116Y4368D01*
X2974Y4396D02*
X3089D01*
X2843Y4275D02*
X2854D01*
X2974Y4396D01*
X3287Y3268D02*
X3287Y3268D01*
X3287Y3051D02*
Y3268D01*
X276Y4370D02*
X295D01*
X256Y4390D02*
X276Y4370D01*
X197Y4390D02*
X256D01*
X1093Y2972D02*
X1392D01*
X974Y2854D02*
X1093Y2972D01*
X974Y2392D02*
Y2854D01*
X925Y2343D02*
X974Y2392D01*
D12*
X0Y4783D02*
X201D01*
X827Y5167D02*
X837Y5157D01*
X772Y5222D02*
X827Y5167D01*
X837Y5785D02*
Y6299D01*
X772Y5222D02*
Y5720D01*
X837Y5785D01*
X5719Y1781D02*
X5758D01*
X5620Y1398D02*
Y1683D01*
X5719Y1781D01*
X5331Y1108D02*
X5620Y1398D01*
X7510Y3976D02*
X7520Y3986D01*
X7244Y3976D02*
X7510D01*
X10Y1634D02*
X20Y1624D01*
X295D01*
X0Y2028D02*
X256D01*
X-10Y3593D02*
X236D01*
X4390Y1565D02*
X4846Y1108D01*
X5331D01*
X0Y3209D02*
X236D01*
X335Y3307D01*
Y3386D01*
X406Y3457D01*
X-10Y1220D02*
X10Y1240D01*
D13*
X1909Y3799D02*
X2041Y3668D01*
X2044D02*
X2047Y3671D01*
X2041Y3668D02*
X2044D01*
X1639Y3105D02*
X1738Y3006D01*
X1876D01*
X1988Y2894D01*
X2382Y2805D02*
Y2913D01*
X2308Y2731D02*
X2382Y2805D01*
X1142Y3720D02*
X1309D01*
X689Y4173D02*
X1142Y3720D01*
X2045Y2402D02*
X2559D01*
X1235Y2598D02*
X1250D01*
X2579Y2717D02*
X2617Y2678D01*
Y2460D02*
Y2678D01*
X2559Y2402D02*
X2617Y2460D01*
X1240Y2094D02*
X1385Y1949D01*
X1240Y2094D02*
Y2205D01*
X1385Y1949D02*
X1496D01*
X965Y4862D02*
Y5285D01*
X960Y5290D02*
X965Y5285D01*
X1043Y4705D02*
Y5374D01*
X1038Y5379D02*
X1043Y5374D01*
X1585Y5926D02*
X1595Y5916D01*
X1585Y5926D02*
Y6043D01*
X925Y4823D02*
X965Y4862D01*
X1742Y5728D02*
X1900Y5571D01*
X1949D01*
X1909Y3799D02*
Y3819D01*
X384Y4173D02*
X689D01*
X315Y4242D02*
X384Y4173D01*
X315Y4242D02*
Y4350D01*
X295Y4370D02*
X315Y4350D01*
X1693Y2657D02*
X1767Y2731D01*
X2308D01*
X1526Y2658D02*
X1664Y2520D01*
X1801D01*
X1890Y2608D01*
X1496Y2352D02*
X1996D01*
X2045Y2402D01*
X1250Y2598D02*
X1496Y2352D01*
X1639Y3105D02*
Y3391D01*
X1309Y3720D02*
X1639Y3391D01*
D16*
X2822Y3462D02*
X2825Y3465D01*
X2692Y3337D02*
X2820Y3465D01*
X2096Y3337D02*
X2692D01*
X1301Y3557D02*
X1435Y3423D01*
X1195Y3557D02*
X1301D01*
X1120Y3632D02*
X1195Y3557D01*
X276Y3632D02*
X1120D01*
X925Y4577D02*
Y4823D01*
Y4577D02*
X1053Y4449D01*
Y4409D02*
Y4449D01*
X1033Y4656D02*
Y4705D01*
X856Y1427D02*
X906Y1476D01*
X986D01*
X1094Y1585D01*
X2205D01*
X1378Y1831D02*
X1398Y1811D01*
X1358Y1850D02*
X1378Y1831D01*
X1093Y2116D02*
X1378Y1831D01*
X604Y2116D02*
X1093D01*
X1378Y1831D02*
X1378D01*
X1299Y768D02*
Y1102D01*
X2352Y738D02*
Y1644D01*
X1299Y640D02*
Y758D01*
X2175Y561D02*
X2352Y738D01*
X1378Y561D02*
X2175D01*
X1299Y640D02*
X1378Y561D01*
X2382Y2913D02*
X2815D01*
X2815Y2913D02*
Y3071D01*
X2815Y2913D02*
X2815Y2913D01*
X2382D02*
X2382Y2913D01*
X346Y1675D02*
Y1858D01*
X295Y1624D02*
X346Y1675D01*
X3307Y3474D02*
X3445D01*
X3307D02*
X3312Y3469D01*
X3445Y3474D02*
X4104Y4134D01*
X900Y5341D02*
Y5667D01*
Y5341D02*
X955Y5285D01*
X900Y5667D02*
X998Y5766D01*
Y5850D01*
X1033Y5886D01*
X998Y5409D02*
Y5627D01*
X1100Y5728D01*
X998Y5409D02*
X1033Y5374D01*
X0Y5965D02*
X207D01*
X266Y6024D01*
Y6398D01*
X335Y6467D01*
Y6469D01*
X1033Y5886D02*
X1112D01*
Y5571D02*
X1132Y5551D01*
X7067Y3799D02*
X7244Y3976D01*
X7067Y3425D02*
Y3799D01*
X0Y6358D02*
X84D01*
X-10D02*
X0D01*
X4350Y4134D02*
X4360Y4144D01*
X4104Y4134D02*
X4350D01*
X256Y2028D02*
X335D01*
X2173Y6043D02*
X2302Y6172D01*
Y6427D01*
X2057Y6043D02*
X2173D01*
X2134Y6594D02*
X2302Y6427D01*
X2165Y6201D02*
X2195Y6230D01*
X2057Y6201D02*
X2165D01*
X2195Y6230D02*
Y6394D01*
X2108Y6481D02*
X2195Y6394D01*
X1742Y5413D02*
X1758D01*
X1922Y5250D01*
Y5167D02*
Y5250D01*
X236Y3593D02*
X276Y3632D01*
X1496Y4852D02*
Y5030D01*
X1427Y5098D02*
Y5256D01*
Y5098D02*
X1496Y5030D01*
X1291Y6875D02*
X1685Y6481D01*
X741Y6875D02*
X1291D01*
X335Y6469D02*
X741Y6875D01*
X1332Y6974D02*
X1711Y6594D01*
X2134D01*
X1685Y6481D02*
X2108D01*
X3287Y4516D02*
X3300Y4503D01*
X3431D01*
X3606Y4328D01*
X2069Y5898D02*
X2130D01*
X2057Y5886D02*
X2069Y5898D01*
X1132Y4843D02*
Y5551D01*
X1132Y4770D02*
X1169Y4732D01*
X1132Y4770D02*
Y4843D01*
X84Y6358D02*
X700Y6974D01*
X1332D01*
X3425Y3730D02*
X3606Y3911D01*
Y4328D01*
X2815Y2913D02*
X2894D01*
X2972Y2835D01*
Y2618D02*
Y2835D01*
Y2618D02*
X3071Y2520D01*
X433Y2126D02*
X522Y2214D01*
X335Y2028D02*
X433Y2126D01*
X346Y1858D02*
X604Y2116D01*
X2815Y1752D02*
X2894Y1831D01*
Y1969D01*
X2461Y1752D02*
X2815D01*
X2352Y1644D02*
X2461Y1752D01*
X522Y2214D02*
X1024D01*
X1171Y2362D02*
X1319D01*
X1024Y2214D02*
X1171Y2362D01*
X1398Y1811D02*
X1801D01*
X1260Y4262D02*
Y4429D01*
X1033Y4656D02*
X1260Y4429D01*
D49*
X2579Y6890D02*
D03*
X2096Y3337D02*
D03*
X1811Y3179D02*
D03*
X2579Y2717D02*
D03*
X2589Y3209D02*
D03*
X1435Y3423D02*
D03*
X1291Y3329D02*
D03*
X1053Y4409D02*
D03*
X1526Y2658D02*
D03*
X1235Y2598D02*
D03*
X1319Y2362D02*
D03*
X2475Y2520D02*
D03*
X1890Y2608D02*
D03*
X2820Y3465D02*
D03*
X1782Y2884D02*
D03*
X1392Y2972D02*
D03*
X925Y2343D02*
D03*
X856Y1427D02*
D03*
X876Y1969D02*
D03*
X1043Y1978D02*
D03*
X681Y2342D02*
D03*
X1240Y2205D02*
D03*
X610Y1506D02*
D03*
X1693Y1949D02*
D03*
X1762Y945D02*
D03*
X1949D02*
D03*
Y758D02*
D03*
X1762D02*
D03*
X2146Y2008D02*
D03*
X2815Y3071D02*
D03*
X3110Y2697D02*
D03*
X2579Y2717D02*
D03*
X4724Y839D02*
D03*
X4256Y882D02*
D03*
X4075Y705D02*
D03*
X591Y4636D02*
D03*
X600Y4833D02*
D03*
X2579Y6728D02*
D03*
X630Y1886D02*
D03*
X4035Y6870D02*
D03*
X4026Y6673D02*
D03*
X4252D02*
D03*
Y6860D02*
D03*
X4411Y6880D02*
D03*
X4417Y6681D02*
D03*
X610Y3986D02*
D03*
X443D02*
D03*
X423Y4636D02*
D03*
Y4823D02*
D03*
X413Y5030D02*
D03*
X423Y2638D02*
D03*
X433Y1496D02*
D03*
X484Y1713D02*
D03*
X610Y1191D02*
D03*
X433Y443D02*
D03*
Y246D02*
D03*
X659D02*
D03*
X972Y256D02*
D03*
X2067Y246D02*
D03*
X3120D02*
D03*
X3533D02*
D03*
X3996Y256D02*
D03*
X4409Y236D02*
D03*
X5472Y266D02*
D03*
X5797D02*
D03*
X6122Y246D02*
D03*
X6457D02*
D03*
X7067Y561D02*
D03*
X6890D02*
D03*
X7067Y906D02*
D03*
X6900Y915D02*
D03*
X6587Y2512D02*
D03*
X6594Y2156D02*
D03*
X6831Y2825D02*
D03*
X7037D02*
D03*
X7106Y4478D02*
D03*
X6890Y4469D02*
D03*
X6909Y4715D02*
D03*
X7116Y4724D02*
D03*
X7087Y5246D02*
D03*
X6890Y5256D02*
D03*
X7087Y5443D02*
D03*
X6900Y5453D02*
D03*
X7087Y6270D02*
D03*
X7077Y6526D02*
D03*
X6890D02*
D03*
X7087Y5984D02*
D03*
X3819Y4803D02*
D03*
X3312Y3469D02*
D03*
X6772Y4882D02*
D03*
X6417Y4646D02*
D03*
X6142D02*
D03*
X5988Y4571D02*
D03*
X3199Y6880D02*
D03*
X3169Y6663D02*
D03*
X669Y6211D02*
D03*
Y5965D02*
D03*
X551Y5689D02*
D03*
Y5443D02*
D03*
X610Y5039D02*
D03*
X630Y2874D02*
D03*
X2815Y5876D02*
D03*
X837Y5157D02*
D03*
X2205Y1585D02*
D03*
X945Y1112D02*
D03*
X2815Y6467D02*
D03*
X1922Y4616D02*
D03*
X6663Y1791D02*
D03*
X6614Y679D02*
D03*
X3031Y4258D02*
D03*
X6634Y886D02*
D03*
X6427Y1073D02*
D03*
X5955Y1407D02*
D03*
X5758Y1781D02*
D03*
X4181Y5996D02*
D03*
X2844Y6880D02*
D03*
X3258Y1388D02*
D03*
X3730Y344D02*
D03*
X3346D02*
D03*
X4193Y1841D02*
D03*
X4354Y1835D02*
D03*
X4516Y1839D02*
D03*
X4516Y1839D02*
D03*
X1996Y6724D02*
D03*
X630Y955D02*
D03*
X4537Y1043D02*
D03*
X4504Y831D02*
D03*
X4291Y4616D02*
D03*
X2589Y4370D02*
D03*
X1969Y3504D02*
D03*
X4291Y4616D02*
D03*
X4500Y4870D02*
D03*
X4480Y5079D02*
D03*
X4055Y5236D02*
D03*
X4045Y4823D02*
D03*
X4055Y4616D02*
D03*
X7067Y3425D02*
D03*
X2067Y423D02*
D03*
X5059Y1752D02*
D03*
X6476Y4951D02*
D03*
X3829Y5167D02*
D03*
X3760Y6870D02*
D03*
X453Y945D02*
D03*
X2313Y5020D02*
D03*
X6900Y3120D02*
D03*
Y3346D02*
D03*
Y3622D02*
D03*
X7083Y4039D02*
D03*
X4291Y5236D02*
D03*
X4055Y5030D02*
D03*
X4281Y4823D02*
D03*
X3829Y5167D02*
D03*
X6417Y3789D02*
D03*
X6673Y3130D02*
D03*
X7077Y246D02*
D03*
X6722Y433D02*
D03*
X6112Y423D02*
D03*
X4390D02*
D03*
X3986Y433D02*
D03*
X3533Y423D02*
D03*
X3110Y433D02*
D03*
X972Y429D02*
D03*
X659Y433D02*
D03*
X5472Y423D02*
D03*
X620Y728D02*
D03*
X433D02*
D03*
Y1181D02*
D03*
X620Y3770D02*
D03*
X600Y4380D02*
D03*
X7077Y1230D02*
D03*
X7067Y1594D02*
D03*
X7077Y1890D02*
D03*
X6890D02*
D03*
X6900Y3937D02*
D03*
Y4232D02*
D03*
X7116Y4970D02*
D03*
X7087Y5738D02*
D03*
X6900Y4990D02*
D03*
Y5984D02*
D03*
Y6270D02*
D03*
X6969Y6772D02*
D03*
X6756Y6874D02*
D03*
X5323D02*
D03*
X6762Y4016D02*
D03*
X6624Y4596D02*
D03*
X3317Y2776D02*
D03*
X5089Y1742D02*
D03*
X6909Y1240D02*
D03*
X3937Y1720D02*
D03*
X3278Y5758D02*
D03*
X3435Y5364D02*
D03*
X5260Y1752D02*
D03*
X7077Y4222D02*
D03*
X6772Y2146D02*
D03*
X5994Y1929D02*
D03*
X6693Y2717D02*
D03*
X5817Y4626D02*
D03*
X3425Y3730D02*
D03*
X6683Y2933D02*
D03*
X4360Y4144D02*
D03*
X6900Y5738D02*
D03*
X2968Y4626D02*
D03*
X4104Y6256D02*
D03*
X4380D02*
D03*
X3760Y6683D02*
D03*
X5659Y5187D02*
D03*
X850Y6470D02*
D03*
X837Y6299D02*
D03*
X4201Y6449D02*
D03*
X6807Y1689D02*
D03*
X5059Y1516D02*
D03*
X4193Y1839D02*
D03*
X4358Y1835D02*
D03*
X6762Y3179D02*
D03*
X453Y3780D02*
D03*
X541Y5226D02*
D03*
X3533Y6673D02*
D03*
X2854Y6654D02*
D03*
X1751Y4691D02*
D03*
X1595Y5916D02*
D03*
X3819Y4803D02*
D03*
X3533Y6860D02*
D03*
X3376Y6772D02*
D03*
X5730Y5037D02*
D03*
X443Y2815D02*
D03*
X476Y3217D02*
D03*
X4744Y4222D02*
D03*
X5030Y4035D02*
D03*
X5217D02*
D03*
X5394Y4045D02*
D03*
X5413Y4272D02*
D03*
Y4547D02*
D03*
Y4941D02*
D03*
X4734Y4724D02*
D03*
X4732Y4941D02*
D03*
X4730Y5142D02*
D03*
X4478Y5317D02*
D03*
X4508Y5551D02*
D03*
Y5758D02*
D03*
X4843Y4045D02*
D03*
X6053Y3533D02*
D03*
X6043Y2766D02*
D03*
X6053Y1880D02*
D03*
X6043Y4242D02*
D03*
X6555Y4715D02*
D03*
X4291Y5236D02*
D03*
X4852Y1516D02*
D03*
X5797Y423D02*
D03*
X6437D02*
D03*
X6722Y256D02*
D03*
X6890Y1594D02*
D03*
X6969Y2205D02*
D03*
X7067Y2451D02*
D03*
X7077Y3130D02*
D03*
X7244Y2825D02*
D03*
X6043Y3839D02*
D03*
X6063Y3130D02*
D03*
Y2372D02*
D03*
Y1565D02*
D03*
X5856Y1368D02*
D03*
X5089Y1309D02*
D03*
X3287Y4516D02*
D03*
X6535Y6870D02*
D03*
Y6685D02*
D03*
X6760Y6677D02*
D03*
X5512Y6683D02*
D03*
Y6858D02*
D03*
X5354Y6681D02*
D03*
X2087Y6878D02*
D03*
X1846D02*
D03*
X1618Y6882D02*
D03*
X1780Y6724D02*
D03*
X2539Y5717D02*
D03*
X1169Y4732D02*
D03*
X3488Y2358D02*
D03*
X626Y3315D02*
D03*
X3075Y4026D02*
D03*
X4433Y6468D02*
D03*
X3421Y4264D02*
D03*
X3287Y3268D02*
D03*
X2224Y3465D02*
D03*
X2421Y3661D02*
D03*
X2244Y4114D02*
D03*
X2362Y3898D02*
D03*
X2244Y4114D02*
D03*
X3071Y2520D02*
D03*
X1496Y1949D02*
D03*
X2776Y1614D02*
D03*
X2992Y1654D02*
D03*
X2677Y1890D02*
D03*
X1693Y2657D02*
D03*
X2894Y1969D02*
D03*
X2579Y2126D02*
D03*
X2776D02*
D03*
X2382Y2913D02*
D03*
X2146Y2894D02*
D03*
X1978D02*
D03*
X2146D02*
D03*
X1545Y1309D02*
D03*
X1722D02*
D03*
X1378D02*
D03*
X3415Y1516D02*
D03*
X1890Y1949D02*
D03*
X1801Y1811D02*
D03*
X2805Y4724D02*
D03*
X2982Y3091D02*
D03*
X2776Y2352D02*
D03*
X1260Y4262D02*
D03*
D105*
X1535Y354D02*
D03*
X5984Y6772D02*
D03*
D114*
X1978Y3214D02*
X2584D01*
X2589Y3209D01*
X1435Y3423D02*
X1555Y3303D01*
Y2933D02*
Y3303D01*
X1378Y2756D02*
X1555Y2933D01*
X404Y4306D02*
X453Y4257D01*
X404Y4306D02*
Y4414D01*
X276Y4542D02*
X404Y4414D01*
X276Y4542D02*
Y4754D01*
X256Y4774D02*
X276Y4754D01*
X211Y4774D02*
X256D01*
X201Y4783D02*
X211Y4774D01*
X1378Y2608D02*
Y2756D01*
X2018Y2520D02*
X2475D01*
X945Y1112D02*
Y1122D01*
X733Y1334D02*
Y1478D01*
Y1334D02*
X945Y1122D01*
X1043Y1666D02*
Y1978D01*
X947Y1570D02*
X1043Y1666D01*
X825Y1570D02*
X947D01*
X733Y1478D02*
X825Y1570D01*
X3258Y463D02*
X3346Y374D01*
X3258Y463D02*
Y1388D01*
X3494Y1201D02*
X3730Y965D01*
X3415Y1280D02*
X3494Y1201D01*
X3730Y344D02*
Y965D01*
X3346Y344D02*
Y374D01*
X1442Y6506D02*
X1585Y6364D01*
Y6358D02*
Y6364D01*
X1063Y6467D02*
X1171Y6358D01*
X1427D01*
X1220Y6506D02*
X1442D01*
X453Y4257D02*
X733D01*
X1171Y3819D01*
X1373D01*
X1978Y3214D01*
X3415Y1280D02*
Y1516D01*
X1378Y2608D02*
X1550Y2436D01*
X1934D01*
X2018Y2520D01*
X1742Y5886D02*
X1742D01*
X1900Y5728D01*
D115*
X20Y4390D02*
X197D01*
X0Y4409D02*
X20Y4390D01*
D117*
X1265Y4882D02*
X1456Y4691D01*
X1751D01*
X1265Y5408D02*
X1270Y5413D01*
X1265Y4882D02*
Y5408D01*
D119*
X508Y6320D02*
X814Y6626D01*
X413Y5768D02*
X500Y5855D01*
Y6320D01*
X508D01*
X375Y6357D02*
X694Y6675D01*
Y6678D02*
X771Y6755D01*
X276Y5807D02*
X375Y5907D01*
Y6357D01*
X694Y6675D02*
Y6678D01*
X10Y5167D02*
X246D01*
X315Y5236D02*
Y5512D01*
X0Y5177D02*
X10Y5167D01*
X246D02*
X315Y5236D01*
Y5512D02*
X413Y5610D01*
Y5768D01*
X10Y5571D02*
X167D01*
X276Y5679D01*
Y5807D01*
X814Y6626D02*
X1071D01*
X771Y6755D02*
X1208D01*
D123*
X7177Y6752D02*
X7530D01*
X20Y2825D02*
X295D01*
X305Y2815D01*
X6634Y2805D02*
X7520D01*
D124*
X778Y4434D02*
X1196Y4016D01*
X778Y4434D02*
Y4933D01*
X827Y4982D02*
Y5167D01*
X778Y4933D02*
X827Y4982D01*
X1378Y4016D02*
X1791Y3602D01*
X1196Y4016D02*
X1378D01*
D149*
X7530Y6752D02*
D03*
X0Y2028D02*
D03*
Y2815D02*
D03*
Y3602D02*
D03*
Y3209D02*
D03*
X7530Y2815D02*
D03*
X0Y4390D02*
D03*
Y4783D02*
D03*
X7530Y3996D02*
D03*
X0Y5965D02*
D03*
Y6358D02*
D03*
Y5177D02*
D03*
Y5571D02*
D03*
Y1240D02*
D03*
Y1634D02*
D03*
D150*
X2047Y3671D02*
D03*
X1782Y2884D02*
D03*
X1909Y3819D02*
D03*
D151*
X2843Y4275D02*
D03*
X1791Y3602D02*
D03*
X3120Y3730D02*
D03*
X3553Y1703D02*
D03*
D152*
X6890Y8780D02*
D03*
X4134D02*
D03*
X7087Y8622D02*
D03*
X6693D02*
D03*
X6299D02*
D03*
X5906D02*
D03*
X5512D02*
D03*
X2756D02*
D03*
X3150D02*
D03*
X3543D02*
D03*
X3937D02*
D03*
X4370D02*
D03*
X3150Y7874D02*
D03*
X2756D02*
D03*
Y8268D02*
D03*
X3150D02*
D03*
X3543D02*
D03*
Y7874D02*
D03*
X4370D02*
D03*
X3937Y8268D02*
D03*
X4370Y8258D02*
D03*
X5138D02*
D03*
Y7874D02*
D03*
X5512D02*
D03*
X5906D02*
D03*
X6299D02*
D03*
X6693D02*
D03*
X7087D02*
D03*
Y8268D02*
D03*
X6693D02*
D03*
X6299D02*
D03*
X5906D02*
D03*
X5512D02*
D03*
X3937Y7874D02*
D03*
X6496Y8780D02*
D03*
X6102D02*
D03*
X5709D02*
D03*
X5315D02*
D03*
X2559D02*
D03*
X2953D02*
D03*
X3346D02*
D03*
X3740D02*
D03*
X5423Y2549D02*
D03*
X5007Y2569D02*
D03*
X4590Y2549D02*
D03*
X4264Y2602D02*
D03*
X5423Y2943D02*
D03*
X5007Y2963D02*
D03*
X4590Y2943D02*
D03*
X4173D02*
D03*
Y3337D02*
D03*
X4590D02*
D03*
X5007Y3356D02*
D03*
X5423Y3337D02*
D03*
X5409Y3752D02*
D03*
X4988Y3736D02*
D03*
X4547Y3720D02*
D03*
X4173Y3730D02*
D03*
X1486Y5748D02*
D03*
X6409Y5398D02*
D03*
X5683Y5502D02*
D03*
X3130Y2894D02*
D03*
X5650Y6043D02*
D03*
X6545Y6171D02*
D03*
X4390Y1565D02*
D03*
X4439Y5915D02*
D03*
X5632Y6313D02*
D03*
X5461Y5128D02*
D03*
X5683Y5797D02*
D03*
X6004Y4929D02*
D03*
X5890Y5173D02*
D03*
X6014Y5463D02*
D03*
X6043Y5817D02*
D03*
X6063Y6211D02*
D03*
X6535Y5787D02*
D03*
X3002Y6772D02*
D03*
X5142Y6368D02*
D03*
X5122Y6776D02*
D03*
X5380Y6372D02*
D03*
X4380Y7146D02*
D03*
X5118Y7136D02*
D03*
Y7480D02*
D03*
X4370D02*
D03*
X3937D02*
D03*
X3543D02*
D03*
X3150D02*
D03*
X2756D02*
D03*
X5512D02*
D03*
X5906D02*
D03*
X6299D02*
D03*
X6693D02*
D03*
X7087D02*
D03*
X5138Y8622D02*
D03*
D153*
X1900Y5728D02*
D03*
X1112D02*
D03*
Y5571D02*
D03*
X2520Y5020D02*
D03*
X1585Y6043D02*
D03*
X1742Y6358D02*
D03*
X1585Y6201D02*
D03*
X1112Y5886D02*
D03*
X1427Y5413D02*
D03*
Y5256D02*
D03*
X1742D02*
D03*
X1585D02*
D03*
X1270Y5571D02*
D03*
Y5413D02*
D03*
X1585D02*
D03*
X1112Y6043D02*
D03*
X1270D02*
D03*
X1585Y6358D02*
D03*
X1742Y5413D02*
D03*
X1427Y6358D02*
D03*
X1112Y6201D02*
D03*
X1270D02*
D03*
X1427D02*
D03*
X1427Y5571D02*
D03*
X1427Y6043D02*
D03*
X1900Y5886D02*
D03*
X2057Y6358D02*
D03*
Y6201D02*
D03*
X1742Y5728D02*
D03*
X1900Y6201D02*
D03*
Y6358D02*
D03*
X2057Y6043D02*
D03*
X1742Y6201D02*
D03*
X1900Y6043D02*
D03*
X1742Y5886D02*
D03*
X1742Y6043D02*
D03*
X1585Y5571D02*
D03*
X1270Y5886D02*
D03*
Y5728D02*
D03*
X2057Y5886D02*
D03*
D154*
X6801Y2510D02*
D03*
X2411Y354D02*
D03*
X2756D02*
D03*
D155*
X4632Y4518D02*
D03*
X1299Y1102D02*
D03*
D156*
X6153Y7905D02*
D03*
D157*
X1516Y330D02*
D03*
D158*
X6009Y6676D02*
D03*
D159*
X1949Y5571D02*
D03*
X1269Y5728D02*
D03*
X1910Y5886D02*
D03*
X1584Y5413D02*
D03*
X1584Y6191D02*
D03*
X1230Y6506D02*
D03*
X1742Y6358D02*
D03*
X1240Y6752D02*
D03*
X1269Y6043D02*
D03*
X1102Y6624D02*
D03*
X1269Y6201D02*
D03*
X1427D02*
D03*
X846Y6466D02*
D03*
X1742Y5256D02*
D03*
X1427Y5414D02*
D03*
X1590Y5257D02*
D03*
X2057Y6358D02*
D03*
X1900D02*
D03*
X1742Y6201D02*
D03*
X1899Y6201D02*
D03*
X1900Y6043D02*
D03*
X1742Y6043D02*
D03*
X1063Y6467D02*
D03*
X1269Y5571D02*
D03*
X1279Y5876D02*
D03*
X1112Y6043D02*
D03*
Y6201D02*
D03*
X1496Y4852D02*
D03*
X2130Y5898D02*
D03*
M02*
