G04*
G04 #@! TF.GenerationSoftware,Altium Limited,Altium Designer,19.0.10 (269)*
G04*
G04 Layer_Physical_Order=4*
G04 Layer_Color=16440176*
%FSLAX24Y24*%
%MOIN*%
G70*
G01*
G75*
%ADD10C,0.0100*%
%ADD49C,0.0118*%
%ADD105C,0.0197*%
%ADD123C,0.0276*%
%ADD149C,0.0315*%
%ADD151C,0.0157*%
%ADD152C,0.0177*%
%ADD154C,0.0205*%
%ADD160R,0.4803X0.1969*%
%ADD161R,0.0827X0.0522*%
%ADD162R,0.0866X0.0472*%
G36*
X5636Y6949D02*
X5659Y6905D01*
X5622Y6848D01*
X5618Y6831D01*
X6350D01*
X6347Y6848D01*
X6309Y6905D01*
X6333Y6949D01*
X7274D01*
Y6811D01*
X7530D01*
Y6693D01*
X7274D01*
X7274Y2874D01*
X7530D01*
Y2756D01*
X7274D01*
Y285D01*
X7274Y177D01*
X1884D01*
X1860Y221D01*
X1898Y278D01*
X1902Y295D01*
X1169D01*
X1173Y278D01*
X1210Y221D01*
X1187Y177D01*
X256D01*
Y2756D01*
X0D01*
Y2874D01*
X256D01*
Y6693D01*
X0D01*
Y6811D01*
X256D01*
Y6913D01*
X291Y6949D01*
X5636Y6949D01*
D02*
G37*
%LPC*%
G36*
X6350Y6713D02*
X6043D01*
Y6571D01*
X6161D01*
X6238Y6586D01*
X6303Y6630D01*
X6347Y6695D01*
X6350Y6713D01*
D02*
G37*
G36*
X5925D02*
X5618D01*
X5622Y6695D01*
X5665Y6630D01*
X5730Y6586D01*
X5807Y6571D01*
X5925D01*
Y6713D01*
D02*
G37*
G36*
X3491Y6594D02*
X3441Y6584D01*
X3399Y6556D01*
X3370Y6513D01*
X3360Y6463D01*
X3370Y6413D01*
X3399Y6371D01*
X3441Y6343D01*
X3491Y6333D01*
X3541Y6343D01*
X3583Y6371D01*
X3611Y6413D01*
X3621Y6463D01*
X3611Y6513D01*
X3583Y6556D01*
X3541Y6584D01*
X3491Y6594D01*
D02*
G37*
G36*
X3150Y6253D02*
X3100Y6243D01*
X3058Y6215D01*
X3029Y6172D01*
X3019Y6122D01*
X3029Y6072D01*
X3058Y6030D01*
X3100Y6002D01*
X3150Y5992D01*
X3200Y6002D01*
X3242Y6030D01*
X3270Y6072D01*
X3280Y6122D01*
X3270Y6172D01*
X3242Y6215D01*
X3200Y6243D01*
X3150Y6253D01*
D02*
G37*
G36*
X3012Y5938D02*
X2962Y5928D01*
X2920Y5900D01*
X2891Y5857D01*
X2882Y5807D01*
X2889Y5769D01*
X2845Y5751D01*
Y5751D01*
X2843Y5750D01*
X2829Y5772D01*
X2786Y5800D01*
X2736Y5810D01*
X2686Y5800D01*
X2644Y5772D01*
X2616Y5729D01*
X2606Y5679D01*
X2616Y5629D01*
X2644Y5587D01*
X2686Y5559D01*
X2736Y5549D01*
X2786Y5559D01*
X2829Y5587D01*
X2857Y5629D01*
X2867Y5679D01*
X2859Y5717D01*
X2903Y5735D01*
Y5735D01*
X2905Y5736D01*
X2920Y5715D01*
X2962Y5687D01*
X3012Y5677D01*
X3062Y5687D01*
X3104Y5715D01*
X3132Y5757D01*
X3142Y5807D01*
X3132Y5857D01*
X3104Y5900D01*
X3062Y5928D01*
X3012Y5938D01*
D02*
G37*
G36*
X3504Y5987D02*
X3454Y5977D01*
X3412Y5949D01*
X3384Y5907D01*
X3374Y5857D01*
X3384Y5807D01*
X3412Y5764D01*
X3454Y5736D01*
X3504Y5726D01*
X3554Y5736D01*
X3596Y5764D01*
X3625Y5807D01*
X3635Y5857D01*
X3625Y5907D01*
X3596Y5949D01*
X3554Y5977D01*
X3504Y5987D01*
D02*
G37*
G36*
X5581Y4983D02*
X5531Y4973D01*
X5488Y4945D01*
X5460Y4902D01*
X5450Y4852D01*
X5460Y4802D01*
X5488Y4760D01*
X5531Y4732D01*
X5581Y4722D01*
X5631Y4732D01*
X5673Y4760D01*
X5701Y4802D01*
X5711Y4852D01*
X5701Y4902D01*
X5673Y4945D01*
X5631Y4973D01*
X5581Y4983D01*
D02*
G37*
G36*
X2843Y4396D02*
X2797Y4387D01*
X2758Y4361D01*
X2732Y4321D01*
X2723Y4275D01*
X2732Y4229D01*
X2758Y4190D01*
X2797Y4164D01*
X2843Y4155D01*
X2890Y4164D01*
X2929Y4190D01*
X2955Y4229D01*
X2964Y4275D01*
X2955Y4321D01*
X2929Y4361D01*
X2890Y4387D01*
X2843Y4396D01*
D02*
G37*
G36*
X3258Y4195D02*
X3208Y4185D01*
X3166Y4157D01*
X3137Y4115D01*
X3127Y4065D01*
X3137Y4015D01*
X3166Y3973D01*
X3208Y3944D01*
X3258Y3934D01*
X3308Y3944D01*
X3350Y3973D01*
X3378Y4015D01*
X3388Y4065D01*
X3378Y4115D01*
X3350Y4157D01*
X3308Y4185D01*
X3258Y4195D01*
D02*
G37*
G36*
X2146Y3998D02*
X2100Y3989D01*
X2061Y3963D01*
X2034Y3924D01*
X2025Y3878D01*
X2034Y3832D01*
X2061Y3793D01*
X2100Y3767D01*
X2146Y3758D01*
X2192Y3767D01*
X2231Y3793D01*
X2257Y3832D01*
X2266Y3878D01*
X2257Y3924D01*
X2231Y3963D01*
X2192Y3989D01*
X2146Y3998D01*
D02*
G37*
G36*
X1791Y3723D02*
X1745Y3714D01*
X1706Y3688D01*
X1680Y3648D01*
X1671Y3602D01*
X1680Y3556D01*
X1706Y3517D01*
X1745Y3491D01*
X1791Y3482D01*
X1837Y3491D01*
X1876Y3517D01*
X1903Y3556D01*
X1912Y3602D01*
X1903Y3648D01*
X1876Y3688D01*
X1837Y3714D01*
X1791Y3723D01*
D02*
G37*
G36*
X3130Y3024D02*
X3080Y3014D01*
X3038Y2986D01*
X3009Y2944D01*
X2999Y2894D01*
X3009Y2844D01*
X3038Y2801D01*
X3080Y2773D01*
X3130Y2763D01*
X3180Y2773D01*
X3222Y2801D01*
X3250Y2844D01*
X3260Y2894D01*
X3250Y2944D01*
X3222Y2986D01*
X3180Y3014D01*
X3130Y3024D01*
D02*
G37*
G36*
X1161Y2916D02*
X1115Y2907D01*
X1076Y2880D01*
X1050Y2841D01*
X1041Y2795D01*
X1050Y2749D01*
X1076Y2710D01*
X1115Y2684D01*
X1161Y2675D01*
X1208Y2684D01*
X1247Y2710D01*
X1273Y2749D01*
X1282Y2795D01*
X1273Y2841D01*
X1247Y2880D01*
X1208Y2907D01*
X1161Y2916D01*
D02*
G37*
G36*
X2392Y2246D02*
X2346Y2237D01*
X2307Y2211D01*
X2280Y2172D01*
X2271Y2126D01*
X2280Y2080D01*
X2307Y2041D01*
X2346Y2015D01*
X2392Y2006D01*
X2438Y2015D01*
X2477Y2041D01*
X2503Y2080D01*
X2512Y2126D01*
X2503Y2172D01*
X2477Y2211D01*
X2438Y2237D01*
X2392Y2246D01*
D02*
G37*
G36*
X3396Y2256D02*
X3346Y2247D01*
X3303Y2218D01*
X3275Y2176D01*
X3265Y2126D01*
X3275Y2076D01*
X3303Y2034D01*
X3268Y1981D01*
X3267Y1981D01*
X3225Y1953D01*
X3197Y1910D01*
X3187Y1860D01*
X3197Y1810D01*
X3225Y1768D01*
X3267Y1740D01*
X3317Y1730D01*
X3367Y1740D01*
X3409Y1768D01*
X3438Y1810D01*
X3448Y1860D01*
X3438Y1910D01*
X3409Y1953D01*
X3445Y2005D01*
X3446Y2005D01*
X3488Y2034D01*
X3495Y2044D01*
X3544Y2034D01*
X3549Y2009D01*
X3577Y1967D01*
X3619Y1939D01*
X3669Y1929D01*
X3719Y1939D01*
X3762Y1967D01*
X3790Y2009D01*
X3800Y2059D01*
X3790Y2109D01*
X3762Y2151D01*
X3719Y2180D01*
X3669Y2190D01*
X3619Y2180D01*
X3577Y2151D01*
X3570Y2141D01*
X3521Y2151D01*
X3516Y2176D01*
X3488Y2218D01*
X3446Y2247D01*
X3396Y2256D01*
D02*
G37*
G36*
X4390Y1695D02*
X4340Y1685D01*
X4298Y1657D01*
X4269Y1615D01*
X4259Y1565D01*
X4269Y1515D01*
X4298Y1473D01*
X4340Y1444D01*
X4390Y1435D01*
X4440Y1444D01*
X4482Y1473D01*
X4497Y1496D01*
X4511Y1499D01*
X4549D01*
X4573Y1463D01*
X4615Y1435D01*
X4665Y1425D01*
X4715Y1435D01*
X4758Y1463D01*
X4786Y1505D01*
X4796Y1555D01*
X4786Y1605D01*
X4758Y1647D01*
X4715Y1676D01*
X4665Y1686D01*
X4615Y1676D01*
X4573Y1647D01*
X4558Y1624D01*
X4544Y1622D01*
X4506D01*
X4482Y1657D01*
X4440Y1685D01*
X4390Y1695D01*
D02*
G37*
G36*
X3730Y1656D02*
X3680Y1646D01*
X3638Y1618D01*
X3610Y1576D01*
X3600Y1526D01*
X3610Y1476D01*
X3638Y1433D01*
X3680Y1405D01*
X3730Y1395D01*
X3780Y1405D01*
X3823Y1433D01*
X3851Y1476D01*
X3861Y1526D01*
X3851Y1576D01*
X3823Y1618D01*
X3780Y1646D01*
X3730Y1656D01*
D02*
G37*
G36*
X5344Y1548D02*
X5295Y1538D01*
X5252Y1510D01*
X5224Y1467D01*
X5214Y1417D01*
X5224Y1367D01*
X5252Y1325D01*
X5295Y1297D01*
X5344Y1287D01*
X5394Y1297D01*
X5437Y1325D01*
X5465Y1367D01*
X5475Y1417D01*
X5465Y1467D01*
X5437Y1510D01*
X5394Y1538D01*
X5344Y1548D01*
D02*
G37*
G36*
X827Y1085D02*
X781Y1076D01*
X742Y1050D01*
X716Y1011D01*
X706Y965D01*
X716Y918D01*
X742Y879D01*
X781Y853D01*
X785Y852D01*
X795Y803D01*
X781Y794D01*
X755Y755D01*
X746Y709D01*
X755Y663D01*
X781Y624D01*
X820Y597D01*
X866Y588D01*
X912Y597D01*
X951Y624D01*
X977Y663D01*
X987Y709D01*
X977Y755D01*
X951Y794D01*
X912Y820D01*
X907Y821D01*
X898Y870D01*
X912Y879D01*
X938Y918D01*
X947Y965D01*
X938Y1011D01*
X912Y1050D01*
X873Y1076D01*
X827Y1085D01*
D02*
G37*
G36*
X1713Y555D02*
X1594D01*
Y413D01*
X1902D01*
X1898Y431D01*
X1855Y496D01*
X1789Y540D01*
X1713Y555D01*
D02*
G37*
G36*
X1476D02*
X1358D01*
X1281Y540D01*
X1216Y496D01*
X1173Y431D01*
X1169Y413D01*
X1476D01*
Y555D01*
D02*
G37*
%LPD*%
D10*
X25433Y224D02*
Y-276D01*
X25766D01*
X25933D02*
Y58D01*
X26100Y224D01*
X26266Y58D01*
Y-276D01*
Y-26D01*
X25933D01*
X26433Y224D02*
Y141D01*
X26599Y-26D01*
X26766Y141D01*
Y224D01*
X26599Y-26D02*
Y-276D01*
X27266Y224D02*
X26933D01*
Y-276D01*
X27266D01*
X26933Y-26D02*
X27099D01*
X27432Y-276D02*
Y224D01*
X27682D01*
X27766Y141D01*
Y-26D01*
X27682Y-109D01*
X27432D01*
X27599D02*
X27766Y-276D01*
X27932Y-26D02*
X28265D01*
X28432Y141D02*
X28515Y224D01*
X28682D01*
X28765Y141D01*
Y-192D01*
X28682Y-276D01*
X28515D01*
X28432Y-192D01*
Y141D01*
X29182Y-276D02*
Y224D01*
X28932Y-26D01*
X29265D01*
D49*
X787Y1181D02*
D03*
Y1575D02*
D03*
Y1969D02*
D03*
Y2362D02*
D03*
Y2756D02*
D03*
Y3150D02*
D03*
Y3543D02*
D03*
X1181D02*
D03*
X1122Y3169D02*
D03*
Y2343D02*
D03*
X1181Y1969D02*
D03*
X787Y5118D02*
D03*
Y5512D02*
D03*
Y5906D02*
D03*
Y6299D02*
D03*
X1181D02*
D03*
Y5906D02*
D03*
Y5512D02*
D03*
Y5118D02*
D03*
X1575D02*
D03*
Y5512D02*
D03*
Y6299D02*
D03*
X1969D02*
D03*
Y5906D02*
D03*
Y5512D02*
D03*
X2362Y6299D02*
D03*
X2756D02*
D03*
X2362Y787D02*
D03*
Y1181D02*
D03*
X2756D02*
D03*
Y787D02*
D03*
X3150D02*
D03*
X1969D02*
D03*
Y1181D02*
D03*
Y1575D02*
D03*
X1831Y2421D02*
D03*
X2067D02*
D03*
X5118Y787D02*
D03*
X5906D02*
D03*
X6299D02*
D03*
Y1181D02*
D03*
X5906D02*
D03*
X6693D02*
D03*
Y787D02*
D03*
X6299Y1575D02*
D03*
X2520Y3425D02*
D03*
X2480Y3957D02*
D03*
X1181Y3937D02*
D03*
X787Y4724D02*
D03*
X1181D02*
D03*
X787Y4331D02*
D03*
D105*
X1535Y354D02*
D03*
X5984Y6772D02*
D03*
D123*
X6880Y6752D02*
X7530D01*
X108D02*
X787D01*
X6939Y2825D02*
X7530D01*
X0D02*
X531D01*
D149*
X7530Y6752D02*
D03*
X0D02*
D03*
Y2815D02*
D03*
X7530D02*
D03*
D151*
X5071Y5915D02*
D03*
X3120Y3730D02*
D03*
X3553Y1703D02*
D03*
D152*
X6890Y8780D02*
D03*
X4134D02*
D03*
X7087Y8622D02*
D03*
X6693D02*
D03*
X6299D02*
D03*
X5906D02*
D03*
X5512D02*
D03*
X2756D02*
D03*
X3150D02*
D03*
X3543D02*
D03*
X3937D02*
D03*
X4370D02*
D03*
X3150Y7874D02*
D03*
X2756D02*
D03*
Y8268D02*
D03*
X3150D02*
D03*
X3543D02*
D03*
Y7874D02*
D03*
X4370D02*
D03*
X3937Y8268D02*
D03*
X4370Y8258D02*
D03*
X5138D02*
D03*
Y7874D02*
D03*
X5512D02*
D03*
X5906D02*
D03*
X6299D02*
D03*
X6693D02*
D03*
X7087D02*
D03*
Y8268D02*
D03*
X6693D02*
D03*
X6299D02*
D03*
X5906D02*
D03*
X5512D02*
D03*
X3937Y7874D02*
D03*
X6496Y8780D02*
D03*
X6102D02*
D03*
X5709D02*
D03*
X5315D02*
D03*
X2559D02*
D03*
X2953D02*
D03*
X3346D02*
D03*
X3740D02*
D03*
X5423Y2549D02*
D03*
X5007Y2569D02*
D03*
X4590Y2549D02*
D03*
X4264Y2602D02*
D03*
X5423Y2943D02*
D03*
X5007Y2963D02*
D03*
X4590Y2943D02*
D03*
X4173D02*
D03*
Y3337D02*
D03*
X4590D02*
D03*
X5007Y3356D02*
D03*
X5423Y3337D02*
D03*
X5409Y3752D02*
D03*
X4988Y3736D02*
D03*
X4547Y3720D02*
D03*
X4173Y3730D02*
D03*
X1486Y5748D02*
D03*
X6409Y5398D02*
D03*
X5683Y5502D02*
D03*
X5650Y6043D02*
D03*
X6545Y6171D02*
D03*
X4439Y5915D02*
D03*
X5632Y6313D02*
D03*
X5461Y5128D02*
D03*
X5683Y5797D02*
D03*
X6004Y4929D02*
D03*
X5890Y5173D02*
D03*
X6014Y5463D02*
D03*
X6043Y5817D02*
D03*
X6063Y6211D02*
D03*
X6535Y5787D02*
D03*
X3002Y6772D02*
D03*
X5142Y6368D02*
D03*
X5122Y6776D02*
D03*
X5380Y6372D02*
D03*
X4380Y7146D02*
D03*
X5118Y7136D02*
D03*
Y7480D02*
D03*
X4370D02*
D03*
X3937D02*
D03*
X3543D02*
D03*
X3150D02*
D03*
X2756D02*
D03*
X5512D02*
D03*
X5906D02*
D03*
X6299D02*
D03*
X6693D02*
D03*
X7087D02*
D03*
X5138Y8622D02*
D03*
D154*
X6801Y2510D02*
D03*
X2411Y354D02*
D03*
X2756D02*
D03*
D160*
X4882Y7913D02*
D03*
D161*
X1575Y438D02*
D03*
D162*
X6043Y6713D02*
D03*
M02*
