G04*
G04 #@! TF.GenerationSoftware,Altium Limited,Altium Designer,19.0.10 (269)*
G04*
G04 Layer_Color=128*
%FSLAX24Y24*%
%MOIN*%
G70*
G01*
G75*
%ADD15C,0.0050*%
D15*
X2549Y6890D02*
X2608D01*
X2579Y6860D02*
Y6919D01*
X2018Y3671D02*
X2077D01*
X2047Y3642D02*
Y3701D01*
X1781Y3179D02*
X1841D01*
X1811Y3150D02*
Y3209D01*
X1206Y2598D02*
X1265D01*
X1235Y2569D02*
Y2628D01*
X2446Y2520D02*
X2505D01*
X2475Y2490D02*
Y2549D01*
X1860Y2608D02*
X1919D01*
X1890Y2579D02*
Y2638D01*
X2790Y3465D02*
X2849D01*
X2820Y3435D02*
Y3494D01*
X1752Y2884D02*
X1811D01*
X1782Y2854D02*
Y2914D01*
X1362Y2972D02*
X1421D01*
X1392Y2943D02*
Y3002D01*
X896Y2343D02*
X955D01*
X925Y2313D02*
Y2372D01*
X847Y1969D02*
X906D01*
X876Y1939D02*
Y1998D01*
X651Y2342D02*
X711D01*
X681Y2313D02*
Y2372D01*
X1211Y2205D02*
X1270D01*
X1240Y2175D02*
Y2234D01*
X581Y1506D02*
X640D01*
X610Y1476D02*
Y1535D01*
X1663Y1949D02*
X1722D01*
X1693Y1919D02*
Y1978D01*
X1732Y945D02*
X1791D01*
X1762Y915D02*
Y974D01*
X1919Y945D02*
X1978D01*
X1949Y915D02*
Y974D01*
X1919Y758D02*
X1978D01*
X1949Y728D02*
Y787D01*
X1732Y758D02*
X1791D01*
X1762Y728D02*
Y787D01*
X2116Y2008D02*
X2175D01*
X2146Y1978D02*
Y2037D01*
X2785Y3071D02*
X2844D01*
X2815Y3041D02*
Y3100D01*
X3081Y2697D02*
X3140D01*
X3110Y2667D02*
Y2726D01*
X2549Y2717D02*
X2608D01*
X2579Y2687D02*
Y2746D01*
X4705Y839D02*
X4744D01*
X4724Y819D02*
Y858D01*
X4236Y882D02*
X4276D01*
X4256Y862D02*
Y902D01*
X4055Y705D02*
X4094D01*
X4075Y685D02*
Y724D01*
X561Y4636D02*
X620D01*
X591Y4606D02*
Y4665D01*
X571Y4833D02*
X630D01*
X600Y4803D02*
Y4862D01*
X2549Y6728D02*
X2608D01*
X2579Y6699D02*
Y6758D01*
X600Y1886D02*
X659D01*
X630Y1856D02*
Y1915D01*
X4006Y6870D02*
X4065D01*
X4035Y6841D02*
Y6900D01*
X3996Y6673D02*
X4055D01*
X4026Y6644D02*
Y6703D01*
X4222Y6673D02*
X4281D01*
X4252Y6644D02*
Y6703D01*
X4222Y6860D02*
X4281D01*
X4252Y6831D02*
Y6890D01*
X581Y3986D02*
X640D01*
X610Y3957D02*
Y4016D01*
X413Y3986D02*
X472D01*
X443Y3957D02*
Y4016D01*
X394Y4636D02*
X453D01*
X423Y4606D02*
Y4665D01*
X394Y4823D02*
X453D01*
X423Y4793D02*
Y4852D01*
X384Y5030D02*
X443D01*
X413Y5000D02*
Y5059D01*
X394Y2638D02*
X453D01*
X423Y2608D02*
Y2667D01*
X404Y1496D02*
X463D01*
X433Y1467D02*
Y1526D01*
X455Y1713D02*
X514D01*
X484Y1683D02*
Y1742D01*
X581Y1191D02*
X640D01*
X610Y1161D02*
Y1220D01*
X404Y443D02*
X463D01*
X433Y413D02*
Y472D01*
X404Y246D02*
X463D01*
X433Y217D02*
Y276D01*
X630Y246D02*
X689D01*
X659Y217D02*
Y276D01*
X943Y256D02*
X1002D01*
X972Y226D02*
Y285D01*
X2037Y246D02*
X2096D01*
X2067Y217D02*
Y276D01*
X3091Y246D02*
X3150D01*
X3120Y217D02*
Y276D01*
X3504Y246D02*
X3563D01*
X3533Y217D02*
Y276D01*
X3967Y256D02*
X4026D01*
X3996Y226D02*
Y285D01*
X4380Y236D02*
X4439D01*
X4409Y207D02*
Y266D01*
X5443Y266D02*
X5502D01*
X5472Y236D02*
Y295D01*
X5768Y266D02*
X5827D01*
X5797Y236D02*
Y295D01*
X6093Y246D02*
X6152D01*
X6122Y217D02*
Y276D01*
X6427Y246D02*
X6486D01*
X6457Y217D02*
Y276D01*
X7037Y561D02*
X7096D01*
X7067Y531D02*
Y591D01*
X6860Y561D02*
X6919D01*
X6890Y531D02*
Y591D01*
X7037Y906D02*
X7096D01*
X7067Y876D02*
Y935D01*
X6870Y915D02*
X6929D01*
X6900Y886D02*
Y945D01*
X6557Y2512D02*
X6616D01*
X6587Y2482D02*
Y2541D01*
X6565Y2156D02*
X6624D01*
X6594Y2126D02*
Y2185D01*
X6801Y2825D02*
X6860D01*
X6831Y2795D02*
Y2854D01*
X7008Y2825D02*
X7067D01*
X7037Y2795D02*
Y2854D01*
X7077Y4478D02*
X7136D01*
X7106Y4449D02*
Y4508D01*
X6860Y4469D02*
X6919D01*
X6890Y4439D02*
Y4498D01*
X6880Y4715D02*
X6939D01*
X6909Y4685D02*
Y4744D01*
X7087Y4724D02*
X7146D01*
X7116Y4695D02*
Y4754D01*
X7057Y5246D02*
X7116D01*
X7087Y5217D02*
Y5276D01*
X6860Y5256D02*
X6919D01*
X6890Y5226D02*
Y5285D01*
X7057Y5443D02*
X7116D01*
X7087Y5413D02*
Y5472D01*
X6870Y5453D02*
X6929D01*
X6900Y5423D02*
Y5482D01*
X7057Y6270D02*
X7116D01*
X7087Y6240D02*
Y6299D01*
X7047Y6526D02*
X7106D01*
X7077Y6496D02*
Y6555D01*
X6860Y6526D02*
X6919D01*
X6890Y6496D02*
Y6555D01*
X7057Y5984D02*
X7116D01*
X7087Y5955D02*
Y6014D01*
X3789Y4803D02*
X3848D01*
X3819Y4774D02*
Y4833D01*
X6742Y4882D02*
X6801D01*
X6772Y4852D02*
Y4911D01*
X6388Y4646D02*
X6447D01*
X6417Y4616D02*
Y4675D01*
X6112Y4646D02*
X6171D01*
X6142Y4616D02*
Y4675D01*
X5959Y4571D02*
X6018D01*
X5988Y4541D02*
Y4600D01*
X3169Y6880D02*
X3228D01*
X3199Y6850D02*
Y6909D01*
X3140Y6663D02*
X3199D01*
X3169Y6634D02*
Y6693D01*
X640Y6211D02*
X699D01*
X669Y6181D02*
Y6240D01*
X640Y5965D02*
X699D01*
X669Y5935D02*
Y5994D01*
X522Y5689D02*
X581D01*
X551Y5659D02*
Y5719D01*
X522Y5443D02*
X581D01*
X551Y5413D02*
Y5472D01*
X581Y5039D02*
X640D01*
X610Y5010D02*
Y5069D01*
X600Y2874D02*
X659D01*
X630Y2844D02*
Y2904D01*
X2785Y5876D02*
X2844D01*
X2815Y5846D02*
Y5906D01*
X1880Y5728D02*
X1919D01*
X1900Y5709D02*
Y5748D01*
X1093Y5728D02*
X1132D01*
X1112Y5709D02*
Y5748D01*
X807Y5157D02*
X866D01*
X837Y5128D02*
Y5187D01*
X1093Y5571D02*
X1132D01*
X1112Y5551D02*
Y5591D01*
X2500Y5020D02*
X2539D01*
X2520Y5000D02*
Y5039D01*
X2785Y6467D02*
X2844D01*
X2815Y6437D02*
Y6496D01*
X6634Y1791D02*
X6693D01*
X6663Y1762D02*
Y1821D01*
X6585Y679D02*
X6644D01*
X6614Y650D02*
Y709D01*
X3002Y4258D02*
X3061D01*
X3031Y4228D02*
Y4287D01*
X6604Y886D02*
X6663D01*
X6634Y856D02*
Y915D01*
X6398Y1073D02*
X6457D01*
X6427Y1043D02*
Y1102D01*
X5925Y1407D02*
X5984D01*
X5955Y1378D02*
Y1437D01*
X5728Y1781D02*
X5787D01*
X5758Y1752D02*
Y1811D01*
X4152Y5996D02*
X4211D01*
X4181Y5967D02*
Y6026D01*
X2815Y6880D02*
X2874D01*
X2844Y6850D02*
Y6909D01*
X4486Y1839D02*
X4545D01*
X4516Y1809D02*
Y1868D01*
X1565Y6043D02*
X1604D01*
X1585Y6024D02*
Y6063D01*
X1967Y6724D02*
X2026D01*
X1996Y6695D02*
Y6754D01*
X1722Y6358D02*
X1762D01*
X1742Y6339D02*
Y6378D01*
X1565Y6201D02*
X1604D01*
X1585Y6181D02*
Y6220D01*
X1093Y5886D02*
X1132D01*
X1112Y5866D02*
Y5906D01*
X600Y955D02*
X659D01*
X630Y925D02*
Y984D01*
X4508Y1043D02*
X4567D01*
X4537Y1014D02*
Y1073D01*
X4474Y831D02*
X4533D01*
X4504Y801D02*
Y860D01*
X1407Y5413D02*
X1447D01*
X1427Y5394D02*
Y5433D01*
X1407Y5256D02*
X1447D01*
X1427Y5236D02*
Y5276D01*
X4262Y4616D02*
X4321D01*
X4291Y4587D02*
Y4646D01*
X2559Y4370D02*
X2618D01*
X2589Y4341D02*
Y4400D01*
X1939Y3504D02*
X1998D01*
X1969Y3474D02*
Y3533D01*
X4470Y4870D02*
X4530D01*
X4500Y4841D02*
Y4900D01*
X4451Y5079D02*
X4510D01*
X4480Y5049D02*
Y5108D01*
X4026Y5236D02*
X4085D01*
X4055Y5207D02*
Y5266D01*
X4016Y4823D02*
X4075D01*
X4045Y4793D02*
Y4852D01*
X4026Y4616D02*
X4085D01*
X4055Y4587D02*
Y4646D01*
X2037Y423D02*
X2096D01*
X2067Y394D02*
Y453D01*
X5030Y1752D02*
X5089D01*
X5059Y1722D02*
Y1781D01*
X1722Y5256D02*
X1762D01*
X1742Y5236D02*
Y5276D01*
X1565Y5256D02*
X1604D01*
X1585Y5236D02*
Y5276D01*
X6447Y4951D02*
X6506D01*
X6476Y4921D02*
Y4980D01*
X3730Y6870D02*
X3789D01*
X3760Y6841D02*
Y6900D01*
X1250Y5571D02*
X1289D01*
X1270Y5551D02*
Y5591D01*
X1250Y5413D02*
X1289D01*
X1270Y5394D02*
Y5433D01*
X423Y945D02*
X482D01*
X453Y915D02*
Y974D01*
X1565Y5413D02*
X1604D01*
X1585Y5394D02*
Y5433D01*
X1093Y6043D02*
X1132D01*
X1112Y6024D02*
Y6063D01*
X1250Y6043D02*
X1289D01*
X1270Y6024D02*
Y6063D01*
X1565Y6358D02*
X1604D01*
X1585Y6339D02*
Y6378D01*
X2283Y5020D02*
X2343D01*
X2313Y4990D02*
Y5049D01*
X6870Y3120D02*
X6929D01*
X6900Y3091D02*
Y3150D01*
X6870Y3346D02*
X6929D01*
X6900Y3317D02*
Y3376D01*
X6870Y3622D02*
X6929D01*
X6900Y3593D02*
Y3652D01*
X7053Y4039D02*
X7112D01*
X7083Y4010D02*
Y4069D01*
X4262Y5236D02*
X4321D01*
X4291Y5207D02*
Y5266D01*
X4026Y5030D02*
X4085D01*
X4055Y5000D02*
Y5059D01*
X4252Y4823D02*
X4311D01*
X4281Y4793D02*
Y4852D01*
X3799Y5167D02*
X3858D01*
X3829Y5138D02*
Y5197D01*
X6388Y3789D02*
X6447D01*
X6417Y3760D02*
Y3819D01*
X6644Y3130D02*
X6703D01*
X6673Y3100D02*
Y3159D01*
X7047Y246D02*
X7106D01*
X7077Y217D02*
Y276D01*
X6693Y433D02*
X6752D01*
X6722Y404D02*
Y463D01*
X6083Y423D02*
X6142D01*
X6112Y394D02*
Y453D01*
X4360Y423D02*
X4419D01*
X4390Y394D02*
Y453D01*
X3957Y433D02*
X4016D01*
X3986Y404D02*
Y463D01*
X3504Y423D02*
X3563D01*
X3533Y394D02*
Y453D01*
X3081Y433D02*
X3140D01*
X3110Y404D02*
Y463D01*
X943Y429D02*
X1002D01*
X972Y400D02*
Y459D01*
X630Y433D02*
X689D01*
X659Y404D02*
Y463D01*
X5443Y423D02*
X5502D01*
X5472Y394D02*
Y453D01*
X591Y728D02*
X650D01*
X620Y699D02*
Y758D01*
X404Y728D02*
X463D01*
X433Y699D02*
Y758D01*
X404Y1181D02*
X463D01*
X433Y1152D02*
Y1211D01*
X591Y3770D02*
X650D01*
X620Y3740D02*
Y3799D01*
X571Y4380D02*
X630D01*
X600Y4350D02*
Y4409D01*
X7047Y1230D02*
X7106D01*
X7077Y1201D02*
Y1260D01*
X7037Y1594D02*
X7096D01*
X7067Y1565D02*
Y1624D01*
X7047Y1890D02*
X7106D01*
X7077Y1860D02*
Y1919D01*
X6860Y1890D02*
X6919D01*
X6890Y1860D02*
Y1919D01*
X6870Y3937D02*
X6929D01*
X6900Y3907D02*
Y3967D01*
X6870Y4232D02*
X6929D01*
X6900Y4203D02*
Y4262D01*
X7087Y4970D02*
X7146D01*
X7116Y4941D02*
Y5000D01*
X7057Y5738D02*
X7116D01*
X7087Y5709D02*
Y5768D01*
X6870Y4990D02*
X6929D01*
X6900Y4961D02*
Y5020D01*
X6870Y5984D02*
X6929D01*
X6900Y5955D02*
Y6014D01*
X6870Y6270D02*
X6929D01*
X6900Y6240D02*
Y6299D01*
X6939Y6772D02*
X6998D01*
X6969Y6742D02*
Y6801D01*
X6726Y6874D02*
X6785D01*
X6756Y6844D02*
Y6904D01*
X5293Y6874D02*
X5352D01*
X5323Y6844D02*
Y6904D01*
X6732Y4016D02*
X6791D01*
X6762Y3986D02*
Y4045D01*
X6594Y4596D02*
X6654D01*
X6624Y4567D02*
Y4626D01*
X1722Y5413D02*
X1762D01*
X1742Y5394D02*
Y5433D01*
X1407Y6358D02*
X1447D01*
X1427Y6339D02*
Y6378D01*
X1093Y6201D02*
X1132D01*
X1112Y6181D02*
Y6220D01*
X1250Y6201D02*
X1289D01*
X1270Y6181D02*
Y6220D01*
X1407Y6201D02*
X1447D01*
X1427Y6181D02*
Y6220D01*
X3287Y2776D02*
X3346D01*
X3317Y2746D02*
Y2805D01*
X6880Y1240D02*
X6939D01*
X6909Y1211D02*
Y1270D01*
X3248Y5758D02*
X3307D01*
X3278Y5728D02*
Y5787D01*
X3406Y5364D02*
X3465D01*
X3435Y5335D02*
Y5394D01*
X5230Y1752D02*
X5289D01*
X5260Y1722D02*
Y1781D01*
X7047Y4222D02*
X7106D01*
X7077Y4193D02*
Y4252D01*
X6742Y2146D02*
X6801D01*
X6772Y2116D02*
Y2175D01*
X5965Y1929D02*
X6024D01*
X5994Y1900D02*
Y1959D01*
X6663Y2717D02*
X6722D01*
X6693Y2687D02*
Y2746D01*
X5787Y4626D02*
X5846D01*
X5817Y4596D02*
Y4655D01*
X3396Y3730D02*
X3455D01*
X3425Y3701D02*
Y3760D01*
X6654Y2933D02*
X6713D01*
X6683Y2904D02*
Y2963D01*
X4331Y4144D02*
X4390D01*
X4360Y4114D02*
Y4173D01*
X6870Y5738D02*
X6929D01*
X6900Y5709D02*
Y5768D01*
X2938Y4626D02*
X2997D01*
X2968Y4596D02*
Y4656D01*
X4075Y6256D02*
X4134D01*
X4104Y6226D02*
Y6285D01*
X4350Y6256D02*
X4409D01*
X4380Y6226D02*
Y6285D01*
X3730Y6683D02*
X3789D01*
X3760Y6654D02*
Y6713D01*
X5630Y5187D02*
X5689D01*
X5659Y5157D02*
Y5217D01*
X821Y6470D02*
X880D01*
X850Y6441D02*
Y6500D01*
X807Y6299D02*
X866D01*
X837Y6270D02*
Y6329D01*
X5030Y1516D02*
X5089D01*
X5059Y1486D02*
Y1545D01*
X4163Y1839D02*
X4222D01*
X4193Y1809D02*
Y1868D01*
X4329Y1835D02*
X4388D01*
X4358Y1805D02*
Y1864D01*
X423Y3780D02*
X482D01*
X453Y3750D02*
Y3809D01*
X512Y5226D02*
X571D01*
X541Y5197D02*
Y5256D01*
X3504Y6673D02*
X3563D01*
X3533Y6644D02*
Y6703D01*
X2825Y6654D02*
X2884D01*
X2854Y6624D02*
Y6683D01*
X1721Y4691D02*
X1781D01*
X1751Y4661D02*
Y4720D01*
X1407Y5571D02*
X1447D01*
X1427Y5551D02*
Y5590D01*
X1407Y6043D02*
X1447D01*
X1427Y6023D02*
Y6063D01*
X1880Y5886D02*
X1919D01*
X1900Y5866D02*
Y5906D01*
X2037Y6358D02*
X2077D01*
X2057Y6339D02*
Y6378D01*
X2037Y6201D02*
X2077D01*
X2057Y6181D02*
Y6220D01*
X1722Y5728D02*
X1762D01*
X1742Y5709D02*
Y5748D01*
X1880Y6201D02*
X1919D01*
X1900Y6181D02*
Y6220D01*
X1880Y6358D02*
X1919D01*
X1900Y6339D02*
Y6378D01*
X2037Y6043D02*
X2077D01*
X2057Y6024D02*
Y6063D01*
X1722Y6201D02*
X1762D01*
X1742Y6181D02*
Y6220D01*
X1880Y6043D02*
X1919D01*
X1900Y6024D02*
Y6063D01*
X1722Y5886D02*
X1762D01*
X1742Y5866D02*
Y5905D01*
X1722Y6043D02*
X1762D01*
X1742Y6024D02*
Y6063D01*
X1565Y5571D02*
X1604D01*
X1585Y5551D02*
Y5590D01*
X1250Y5886D02*
X1289D01*
X1270Y5866D02*
Y5906D01*
X1250Y5728D02*
X1289D01*
X1270Y5709D02*
Y5748D01*
X2037Y5886D02*
X2077D01*
X2057Y5866D02*
Y5906D01*
X3504Y6860D02*
X3563D01*
X3533Y6831D02*
Y6890D01*
X3346Y6772D02*
X3406D01*
X3376Y6742D02*
Y6801D01*
X5701Y5037D02*
X5760D01*
X5730Y5008D02*
Y5067D01*
X413Y2815D02*
X472D01*
X443Y2785D02*
Y2844D01*
X447Y3217D02*
X506D01*
X476Y3187D02*
Y3246D01*
X4612Y4518D02*
X4652D01*
X4632Y4498D02*
Y4537D01*
X4823Y1516D02*
X4882D01*
X4852Y1486D02*
Y1545D01*
X5768Y423D02*
X5827D01*
X5797Y394D02*
Y453D01*
X6407Y423D02*
X6467D01*
X6437Y394D02*
Y453D01*
X6693Y256D02*
X6752D01*
X6722Y226D02*
Y285D01*
X6860Y1594D02*
X6919D01*
X6890Y1565D02*
Y1624D01*
X6939Y2205D02*
X6998D01*
X6969Y2175D02*
Y2234D01*
X7037Y2451D02*
X7096D01*
X7067Y2421D02*
Y2480D01*
X7047Y3130D02*
X7106D01*
X7077Y3100D02*
Y3159D01*
X7215Y2825D02*
X7274D01*
X7244Y2795D02*
Y2854D01*
X6506Y6870D02*
X6565D01*
X6535Y6841D02*
Y6900D01*
X6506Y6685D02*
X6565D01*
X6535Y6656D02*
Y6715D01*
X6730Y6677D02*
X6789D01*
X6760Y6648D02*
Y6707D01*
X5482Y6683D02*
X5541D01*
X5512Y6654D02*
Y6713D01*
X5482Y6858D02*
X5541D01*
X5512Y6829D02*
Y6888D01*
X5325Y6681D02*
X5384D01*
X5354Y6652D02*
Y6711D01*
X2057Y6878D02*
X2116D01*
X2087Y6848D02*
Y6907D01*
X1817Y6878D02*
X1876D01*
X1846Y6848D02*
Y6907D01*
X1589Y6882D02*
X1648D01*
X1618Y6852D02*
Y6911D01*
X1750Y6724D02*
X1809D01*
X1780Y6695D02*
Y6754D01*
X2510Y5717D02*
X2569D01*
X2539Y5687D02*
Y5746D01*
X1140Y4732D02*
X1199D01*
X1169Y4703D02*
Y4762D01*
X596Y3315D02*
X656D01*
X626Y3285D02*
Y3344D01*
X3045Y4026D02*
X3104D01*
X3075Y3996D02*
Y4055D01*
X1280Y1102D02*
X1319D01*
X1299Y1083D02*
Y1122D01*
X3392Y4264D02*
X3451D01*
X3421Y4234D02*
Y4293D01*
X3258Y3268D02*
X3317D01*
X3287Y3238D02*
Y3297D01*
X2195Y3465D02*
X2254D01*
X2224Y3435D02*
Y3494D01*
X2392Y3661D02*
X2451D01*
X2421Y3632D02*
Y3691D01*
X2333Y3898D02*
X2392D01*
X2362Y3868D02*
Y3927D01*
X2215Y4114D02*
X2274D01*
X2244Y4085D02*
Y4144D01*
X3041Y2520D02*
X3100D01*
X3071Y2490D02*
Y2549D01*
X1467Y1949D02*
X1526D01*
X1496Y1919D02*
Y1978D01*
X2746Y1614D02*
X2805D01*
X2776Y1585D02*
Y1644D01*
X2963Y1654D02*
X3022D01*
X2992Y1624D02*
Y1683D01*
X2648Y1890D02*
X2707D01*
X2677Y1860D02*
Y1919D01*
X1663Y2657D02*
X1722D01*
X1693Y2628D02*
Y2687D01*
X2549Y2126D02*
X2608D01*
X2579Y2096D02*
Y2156D01*
X2746Y2126D02*
X2805D01*
X2776Y2096D02*
Y2156D01*
X2116Y2894D02*
X2175D01*
X2146Y2864D02*
Y2923D01*
X1949Y2894D02*
X2008D01*
X1978Y2864D02*
Y2923D01*
X1516Y1309D02*
X1575D01*
X1545Y1280D02*
Y1339D01*
X1693Y1309D02*
X1752D01*
X1722Y1280D02*
Y1339D01*
X1348Y1309D02*
X1407D01*
X1378Y1280D02*
Y1339D01*
X1860Y1949D02*
X1919D01*
X1890Y1919D02*
Y1978D01*
X1230Y4262D02*
X1289D01*
X1260Y4232D02*
Y4291D01*
M02*
