G04*
G04 #@! TF.GenerationSoftware,Altium Limited,Altium Designer,19.0.10 (269)*
G04*
G04 Layer_Color=2752767*
%FSLAX24Y24*%
%MOIN*%
G70*
G01*
G75*
%ADD15C,0.0050*%
D15*
X2379Y6690D02*
X2479Y6890D01*
X2379Y7090D01*
X2579Y6990D01*
X2779Y7090D01*
X2679Y6890D01*
X2779Y6690D01*
X2579Y6790D01*
X2379Y6690D01*
X1847Y3471D02*
X1947Y3671D01*
X1847Y3871D01*
X2047Y3771D01*
X2247Y3871D01*
X2147Y3671D01*
X2247Y3471D01*
X2047Y3571D01*
X1847Y3471D01*
X1611Y2979D02*
X1711Y3179D01*
X1611Y3379D01*
X1811Y3279D01*
X2011Y3379D01*
X1911Y3179D01*
X2011Y2979D01*
X1811Y3079D01*
X1611Y2979D01*
X1035Y2398D02*
X1135Y2598D01*
X1035Y2798D01*
X1235Y2698D01*
X1435Y2798D01*
X1335Y2598D01*
X1435Y2398D01*
X1235Y2498D01*
X1035Y2398D01*
X2275Y2320D02*
X2375Y2520D01*
X2275Y2720D01*
X2475Y2620D01*
X2675Y2720D01*
X2575Y2520D01*
X2675Y2320D01*
X2475Y2420D01*
X2275Y2320D01*
X1690Y2408D02*
X1790Y2608D01*
X1690Y2808D01*
X1890Y2708D01*
X2090Y2808D01*
X1990Y2608D01*
X2090Y2408D01*
X1890Y2508D01*
X1690Y2408D01*
X2620Y3265D02*
X2720Y3465D01*
X2620Y3665D01*
X2820Y3565D01*
X3020Y3665D01*
X2920Y3465D01*
X3020Y3265D01*
X2820Y3365D01*
X2620Y3265D01*
X1582Y2684D02*
X1682Y2884D01*
X1582Y3084D01*
X1782Y2984D01*
X1982Y3084D01*
X1882Y2884D01*
X1982Y2684D01*
X1782Y2784D01*
X1582Y2684D01*
X1192Y2772D02*
X1292Y2972D01*
X1192Y3172D01*
X1392Y3072D01*
X1592Y3172D01*
X1492Y2972D01*
X1592Y2772D01*
X1392Y2872D01*
X1192Y2772D01*
X725Y2143D02*
X825Y2343D01*
X725Y2543D01*
X925Y2443D01*
X1125Y2543D01*
X1025Y2343D01*
X1125Y2143D01*
X925Y2243D01*
X725Y2143D01*
X676Y1769D02*
X776Y1969D01*
X676Y2169D01*
X876Y2069D01*
X1076Y2169D01*
X976Y1969D01*
X1076Y1769D01*
X876Y1869D01*
X676Y1769D01*
X481Y2142D02*
X581Y2342D01*
X481Y2542D01*
X681Y2442D01*
X881Y2542D01*
X781Y2342D01*
X881Y2142D01*
X681Y2242D01*
X481Y2142D01*
X1040Y2005D02*
X1140Y2205D01*
X1040Y2405D01*
X1240Y2305D01*
X1440Y2405D01*
X1340Y2205D01*
X1440Y2005D01*
X1240Y2105D01*
X1040Y2005D01*
X410Y1306D02*
X510Y1506D01*
X410Y1706D01*
X610Y1606D01*
X810Y1706D01*
X710Y1506D01*
X810Y1306D01*
X610Y1406D01*
X410Y1306D01*
X1493Y1749D02*
X1593Y1949D01*
X1493Y2149D01*
X1693Y2049D01*
X1893Y2149D01*
X1793Y1949D01*
X1893Y1749D01*
X1693Y1849D01*
X1493Y1749D01*
X1562Y745D02*
X1662Y945D01*
X1562Y1145D01*
X1762Y1045D01*
X1962Y1145D01*
X1862Y945D01*
X1962Y745D01*
X1762Y845D01*
X1562Y745D01*
X1749D02*
X1849Y945D01*
X1749Y1145D01*
X1949Y1045D01*
X2149Y1145D01*
X2049Y945D01*
X2149Y745D01*
X1949Y845D01*
X1749Y745D01*
Y558D02*
X1849Y758D01*
X1749Y958D01*
X1949Y858D01*
X2149Y958D01*
X2049Y758D01*
X2149Y558D01*
X1949Y658D01*
X1749Y558D01*
X1562D02*
X1662Y758D01*
X1562Y958D01*
X1762Y858D01*
X1962Y958D01*
X1862Y758D01*
X1962Y558D01*
X1762Y658D01*
X1562Y558D01*
X1946Y1808D02*
X2046Y2008D01*
X1946Y2208D01*
X2146Y2108D01*
X2346Y2208D01*
X2246Y2008D01*
X2346Y1808D01*
X2146Y1908D01*
X1946Y1808D01*
X2615Y2871D02*
X2715Y3071D01*
X2615Y3271D01*
X2815Y3171D01*
X3015Y3271D01*
X2915Y3071D01*
X3015Y2871D01*
X2815Y2971D01*
X2615Y2871D01*
X2910Y2497D02*
X3010Y2697D01*
X2910Y2897D01*
X3110Y2797D01*
X3310Y2897D01*
X3210Y2697D01*
X3310Y2497D01*
X3110Y2597D01*
X2910Y2497D01*
X2379Y2517D02*
X2479Y2717D01*
X2379Y2917D01*
X2579Y2817D01*
X2779Y2917D01*
X2679Y2717D01*
X2779Y2517D01*
X2579Y2617D01*
X2379Y2517D01*
X4624Y739D02*
Y639D01*
X4824D01*
Y739D01*
X4924D01*
Y939D01*
X4824D01*
Y1039D01*
X4624D01*
Y939D01*
X4524D01*
Y739D01*
X4624D01*
X4156Y782D02*
Y682D01*
X4356D01*
Y782D01*
X4456D01*
Y982D01*
X4356D01*
Y1082D01*
X4156D01*
Y982D01*
X4056D01*
Y782D01*
X4156D01*
X3975Y605D02*
Y505D01*
X4175D01*
Y605D01*
X4275D01*
Y805D01*
X4175D01*
Y905D01*
X3975D01*
Y805D01*
X3875D01*
Y605D01*
X3975D01*
X391Y4436D02*
X491Y4636D01*
X391Y4836D01*
X591Y4736D01*
X791Y4836D01*
X691Y4636D01*
X791Y4436D01*
X591Y4536D01*
X391Y4436D01*
X400Y4633D02*
X500Y4833D01*
X400Y5033D01*
X600Y4933D01*
X800Y5033D01*
X700Y4833D01*
X800Y4633D01*
X600Y4733D01*
X400Y4633D01*
X2379Y6528D02*
X2479Y6728D01*
X2379Y6928D01*
X2579Y6828D01*
X2779Y6928D01*
X2679Y6728D01*
X2779Y6528D01*
X2579Y6628D01*
X2379Y6528D01*
X430Y1686D02*
X530Y1886D01*
X430Y2086D01*
X630Y1986D01*
X830Y2086D01*
X730Y1886D01*
X830Y1686D01*
X630Y1786D01*
X430Y1686D01*
X3835Y6670D02*
X3935Y6870D01*
X3835Y7070D01*
X4035Y6970D01*
X4235Y7070D01*
X4135Y6870D01*
X4235Y6670D01*
X4035Y6770D01*
X3835Y6670D01*
X3826Y6473D02*
X3926Y6673D01*
X3826Y6873D01*
X4026Y6773D01*
X4226Y6873D01*
X4126Y6673D01*
X4226Y6473D01*
X4026Y6573D01*
X3826Y6473D01*
X4052D02*
X4152Y6673D01*
X4052Y6873D01*
X4252Y6773D01*
X4452Y6873D01*
X4352Y6673D01*
X4452Y6473D01*
X4252Y6573D01*
X4052Y6473D01*
Y6660D02*
X4152Y6860D01*
X4052Y7060D01*
X4252Y6960D01*
X4452Y7060D01*
X4352Y6860D01*
X4452Y6660D01*
X4252Y6760D01*
X4052Y6660D01*
X410Y3786D02*
X510Y3986D01*
X410Y4186D01*
X610Y4086D01*
X810Y4186D01*
X710Y3986D01*
X810Y3786D01*
X610Y3886D01*
X410Y3786D01*
X243D02*
X343Y3986D01*
X243Y4186D01*
X443Y4086D01*
X643Y4186D01*
X543Y3986D01*
X643Y3786D01*
X443Y3886D01*
X243Y3786D01*
X223Y4436D02*
X323Y4636D01*
X223Y4836D01*
X423Y4736D01*
X623Y4836D01*
X523Y4636D01*
X623Y4436D01*
X423Y4536D01*
X223Y4436D01*
Y4623D02*
X323Y4823D01*
X223Y5023D01*
X423Y4923D01*
X623Y5023D01*
X523Y4823D01*
X623Y4623D01*
X423Y4723D01*
X223Y4623D01*
X213Y4830D02*
X313Y5030D01*
X213Y5230D01*
X413Y5130D01*
X613Y5230D01*
X513Y5030D01*
X613Y4830D01*
X413Y4930D01*
X213Y4830D01*
X223Y2438D02*
X323Y2638D01*
X223Y2838D01*
X423Y2738D01*
X623Y2838D01*
X523Y2638D01*
X623Y2438D01*
X423Y2538D01*
X223Y2438D01*
X233Y1296D02*
X333Y1496D01*
X233Y1696D01*
X433Y1596D01*
X633Y1696D01*
X533Y1496D01*
X633Y1296D01*
X433Y1396D01*
X233Y1296D01*
X284Y1513D02*
X384Y1713D01*
X284Y1913D01*
X484Y1813D01*
X684Y1913D01*
X584Y1713D01*
X684Y1513D01*
X484Y1613D01*
X284Y1513D01*
X410Y991D02*
X510Y1191D01*
X410Y1391D01*
X610Y1291D01*
X810Y1391D01*
X710Y1191D01*
X810Y991D01*
X610Y1091D01*
X410Y991D01*
X233Y243D02*
X333Y443D01*
X233Y643D01*
X433Y543D01*
X633Y643D01*
X533Y443D01*
X633Y243D01*
X433Y343D01*
X233Y243D01*
Y46D02*
X333Y246D01*
X233Y446D01*
X433Y346D01*
X633Y446D01*
X533Y246D01*
X633Y46D01*
X433Y146D01*
X233Y46D01*
X459D02*
X559Y246D01*
X459Y446D01*
X659Y346D01*
X859Y446D01*
X759Y246D01*
X859Y46D01*
X659Y146D01*
X459Y46D01*
X772Y56D02*
X872Y256D01*
X772Y456D01*
X972Y356D01*
X1172Y456D01*
X1072Y256D01*
X1172Y56D01*
X972Y156D01*
X772Y56D01*
X1867Y46D02*
X1967Y246D01*
X1867Y446D01*
X2067Y346D01*
X2267Y446D01*
X2167Y246D01*
X2267Y46D01*
X2067Y146D01*
X1867Y46D01*
X2920D02*
X3020Y246D01*
X2920Y446D01*
X3120Y346D01*
X3320Y446D01*
X3220Y246D01*
X3320Y46D01*
X3120Y146D01*
X2920Y46D01*
X3333D02*
X3433Y246D01*
X3333Y446D01*
X3533Y346D01*
X3733Y446D01*
X3633Y246D01*
X3733Y46D01*
X3533Y146D01*
X3333Y46D01*
X3796Y56D02*
X3896Y256D01*
X3796Y456D01*
X3996Y356D01*
X4196Y456D01*
X4096Y256D01*
X4196Y56D01*
X3996Y156D01*
X3796Y56D01*
X4209Y36D02*
X4309Y236D01*
X4209Y436D01*
X4409Y336D01*
X4609Y436D01*
X4509Y236D01*
X4609Y36D01*
X4409Y136D01*
X4209Y36D01*
X5272Y66D02*
X5372Y266D01*
X5272Y466D01*
X5472Y366D01*
X5672Y466D01*
X5572Y266D01*
X5672Y66D01*
X5472Y166D01*
X5272Y66D01*
X5597D02*
X5697Y266D01*
X5597Y466D01*
X5797Y366D01*
X5997Y466D01*
X5897Y266D01*
X5997Y66D01*
X5797Y166D01*
X5597Y66D01*
X5922Y46D02*
X6022Y246D01*
X5922Y446D01*
X6122Y346D01*
X6322Y446D01*
X6222Y246D01*
X6322Y46D01*
X6122Y146D01*
X5922Y46D01*
X6257D02*
X6357Y246D01*
X6257Y446D01*
X6457Y346D01*
X6657Y446D01*
X6557Y246D01*
X6657Y46D01*
X6457Y146D01*
X6257Y46D01*
X6867Y361D02*
X6967Y561D01*
X6867Y761D01*
X7067Y661D01*
X7267Y761D01*
X7167Y561D01*
X7267Y361D01*
X7067Y461D01*
X6867Y361D01*
X6690D02*
X6790Y561D01*
X6690Y761D01*
X6890Y661D01*
X7090Y761D01*
X6990Y561D01*
X7090Y361D01*
X6890Y461D01*
X6690Y361D01*
X6867Y706D02*
X6967Y906D01*
X6867Y1106D01*
X7067Y1006D01*
X7267Y1106D01*
X7167Y906D01*
X7267Y706D01*
X7067Y806D01*
X6867Y706D01*
X6700Y715D02*
X6800Y915D01*
X6700Y1115D01*
X6900Y1015D01*
X7100Y1115D01*
X7000Y915D01*
X7100Y715D01*
X6900Y815D01*
X6700Y715D01*
X6387Y2312D02*
X6487Y2512D01*
X6387Y2712D01*
X6587Y2612D01*
X6787Y2712D01*
X6687Y2512D01*
X6787Y2312D01*
X6587Y2412D01*
X6387Y2312D01*
X6394Y1956D02*
X6494Y2156D01*
X6394Y2356D01*
X6594Y2256D01*
X6794Y2356D01*
X6694Y2156D01*
X6794Y1956D01*
X6594Y2056D01*
X6394Y1956D01*
X6631Y2625D02*
X6731Y2825D01*
X6631Y3025D01*
X6831Y2925D01*
X7031Y3025D01*
X6931Y2825D01*
X7031Y2625D01*
X6831Y2725D01*
X6631Y2625D01*
X6837D02*
X6937Y2825D01*
X6837Y3025D01*
X7037Y2925D01*
X7237Y3025D01*
X7137Y2825D01*
X7237Y2625D01*
X7037Y2725D01*
X6837Y2625D01*
X6906Y4278D02*
X7006Y4478D01*
X6906Y4678D01*
X7106Y4578D01*
X7306Y4678D01*
X7206Y4478D01*
X7306Y4278D01*
X7106Y4378D01*
X6906Y4278D01*
X6690Y4268D02*
X6790Y4469D01*
X6690Y4669D01*
X6890Y4568D01*
X7090Y4669D01*
X6990Y4469D01*
X7090Y4268D01*
X6890Y4369D01*
X6690Y4268D01*
X6709Y4515D02*
X6809Y4715D01*
X6709Y4915D01*
X6909Y4815D01*
X7109Y4915D01*
X7009Y4715D01*
X7109Y4515D01*
X6909Y4615D01*
X6709Y4515D01*
X6916Y4524D02*
X7016Y4724D01*
X6916Y4924D01*
X7116Y4824D01*
X7316Y4924D01*
X7216Y4724D01*
X7316Y4524D01*
X7116Y4624D01*
X6916Y4524D01*
X6887Y5046D02*
X6987Y5246D01*
X6887Y5446D01*
X7087Y5346D01*
X7287Y5446D01*
X7187Y5246D01*
X7287Y5046D01*
X7087Y5146D01*
X6887Y5046D01*
X6690Y5056D02*
X6790Y5256D01*
X6690Y5456D01*
X6890Y5356D01*
X7090Y5456D01*
X6990Y5256D01*
X7090Y5056D01*
X6890Y5156D01*
X6690Y5056D01*
X6887Y5243D02*
X6987Y5443D01*
X6887Y5643D01*
X7087Y5543D01*
X7287Y5643D01*
X7187Y5443D01*
X7287Y5243D01*
X7087Y5343D01*
X6887Y5243D01*
X6700Y5253D02*
X6800Y5453D01*
X6700Y5653D01*
X6900Y5553D01*
X7100Y5653D01*
X7000Y5453D01*
X7100Y5253D01*
X6900Y5353D01*
X6700Y5253D01*
X6887Y6070D02*
X6987Y6270D01*
X6887Y6470D01*
X7087Y6370D01*
X7287Y6470D01*
X7187Y6270D01*
X7287Y6070D01*
X7087Y6170D01*
X6887Y6070D01*
X6877Y6326D02*
X6977Y6526D01*
X6877Y6726D01*
X7077Y6626D01*
X7277Y6726D01*
X7177Y6526D01*
X7277Y6326D01*
X7077Y6426D01*
X6877Y6326D01*
X6690D02*
X6790Y6526D01*
X6690Y6726D01*
X6890Y6626D01*
X7090Y6726D01*
X6990Y6526D01*
X7090Y6326D01*
X6890Y6426D01*
X6690Y6326D01*
X6887Y5784D02*
X6987Y5984D01*
X6887Y6184D01*
X7087Y6084D01*
X7287Y6184D01*
X7187Y5984D01*
X7287Y5784D01*
X7087Y5884D01*
X6887Y5784D01*
X3619Y4603D02*
X3719Y4803D01*
X3619Y5003D01*
X3819Y4903D01*
X4019Y5003D01*
X3919Y4803D01*
X4019Y4603D01*
X3819Y4703D01*
X3619Y4603D01*
X6572Y4682D02*
X6672Y4882D01*
X6572Y5082D01*
X6772Y4982D01*
X6972Y5082D01*
X6872Y4882D01*
X6972Y4682D01*
X6772Y4782D01*
X6572Y4682D01*
X6217Y4446D02*
X6317Y4646D01*
X6217Y4846D01*
X6417Y4746D01*
X6617Y4846D01*
X6517Y4646D01*
X6617Y4446D01*
X6417Y4546D01*
X6217Y4446D01*
X5942D02*
X6042Y4646D01*
X5942Y4846D01*
X6142Y4746D01*
X6342Y4846D01*
X6242Y4646D01*
X6342Y4446D01*
X6142Y4546D01*
X5942Y4446D01*
X5788Y4371D02*
X5888Y4571D01*
X5788Y4771D01*
X5988Y4671D01*
X6188Y4771D01*
X6088Y4571D01*
X6188Y4371D01*
X5988Y4471D01*
X5788Y4371D01*
X2999Y6680D02*
X3099Y6880D01*
X2999Y7080D01*
X3199Y6980D01*
X3399Y7080D01*
X3299Y6880D01*
X3399Y6680D01*
X3199Y6780D01*
X2999Y6680D01*
X2969Y6463D02*
X3069Y6663D01*
X2969Y6863D01*
X3169Y6763D01*
X3369Y6863D01*
X3269Y6663D01*
X3369Y6463D01*
X3169Y6563D01*
X2969Y6463D01*
X469Y6011D02*
X569Y6211D01*
X469Y6411D01*
X669Y6311D01*
X869Y6411D01*
X769Y6211D01*
X869Y6011D01*
X669Y6111D01*
X469Y6011D01*
Y5765D02*
X569Y5965D01*
X469Y6165D01*
X669Y6065D01*
X869Y6165D01*
X769Y5965D01*
X869Y5765D01*
X669Y5865D01*
X469Y5765D01*
X351Y5489D02*
X451Y5689D01*
X351Y5889D01*
X551Y5789D01*
X751Y5889D01*
X651Y5689D01*
X751Y5489D01*
X551Y5589D01*
X351Y5489D01*
Y5243D02*
X451Y5443D01*
X351Y5643D01*
X551Y5543D01*
X751Y5643D01*
X651Y5443D01*
X751Y5243D01*
X551Y5343D01*
X351Y5243D01*
X410Y4839D02*
X510Y5039D01*
X410Y5239D01*
X610Y5139D01*
X810Y5239D01*
X710Y5039D01*
X810Y4839D01*
X610Y4939D01*
X410Y4839D01*
X430Y2674D02*
X530Y2874D01*
X430Y3074D01*
X630Y2974D01*
X830Y3074D01*
X730Y2874D01*
X830Y2674D01*
X630Y2774D01*
X430Y2674D01*
X2615Y5676D02*
X2715Y5876D01*
X2615Y6076D01*
X2815Y5976D01*
X3015Y6076D01*
X2915Y5876D01*
X3015Y5676D01*
X2815Y5776D01*
X2615Y5676D01*
X1800Y5628D02*
Y5528D01*
X2000D01*
Y5628D01*
X2100D01*
Y5828D01*
X2000D01*
Y5928D01*
X1800D01*
Y5828D01*
X1700D01*
Y5628D01*
X1800D01*
X1012D02*
Y5528D01*
X1212D01*
Y5628D01*
X1312D01*
Y5828D01*
X1212D01*
Y5928D01*
X1012D01*
Y5828D01*
X912D01*
Y5628D01*
X1012D01*
X637Y4957D02*
X737Y5157D01*
X637Y5357D01*
X837Y5257D01*
X1037Y5357D01*
X937Y5157D01*
X1037Y4957D01*
X837Y5057D01*
X637Y4957D01*
X1012Y5471D02*
Y5371D01*
X1212D01*
Y5471D01*
X1312D01*
Y5671D01*
X1212D01*
Y5771D01*
X1012D01*
Y5671D01*
X912D01*
Y5471D01*
X1012D01*
X2420Y4920D02*
Y4820D01*
X2620D01*
Y4920D01*
X2720D01*
Y5120D01*
X2620D01*
Y5220D01*
X2420D01*
Y5120D01*
X2320D01*
Y4920D01*
X2420D01*
X2615Y6267D02*
X2715Y6467D01*
X2615Y6667D01*
X2815Y6567D01*
X3015Y6667D01*
X2915Y6467D01*
X3015Y6267D01*
X2815Y6367D01*
X2615Y6267D01*
X6463Y1591D02*
X6563Y1791D01*
X6463Y1991D01*
X6663Y1891D01*
X6863Y1991D01*
X6763Y1791D01*
X6863Y1591D01*
X6663Y1691D01*
X6463Y1591D01*
X6414Y479D02*
X6514Y679D01*
X6414Y879D01*
X6614Y779D01*
X6814Y879D01*
X6714Y679D01*
X6814Y479D01*
X6614Y579D01*
X6414Y479D01*
X2831Y4058D02*
X2932Y4258D01*
X2831Y4458D01*
X3031Y4358D01*
X3232Y4458D01*
X3131Y4258D01*
X3232Y4058D01*
X3031Y4158D01*
X2831Y4058D01*
X6434Y686D02*
X6534Y886D01*
X6434Y1086D01*
X6634Y986D01*
X6834Y1086D01*
X6734Y886D01*
X6834Y686D01*
X6634Y786D01*
X6434Y686D01*
X6227Y873D02*
X6327Y1073D01*
X6227Y1273D01*
X6427Y1173D01*
X6627Y1273D01*
X6527Y1073D01*
X6627Y873D01*
X6427Y973D01*
X6227Y873D01*
X5755Y1207D02*
X5855Y1407D01*
X5755Y1607D01*
X5955Y1507D01*
X6155Y1607D01*
X6055Y1407D01*
X6155Y1207D01*
X5955Y1307D01*
X5755Y1207D01*
X5558Y1582D02*
X5658Y1781D01*
X5558Y1981D01*
X5758Y1882D01*
X5958Y1981D01*
X5858Y1781D01*
X5958Y1582D01*
X5758Y1681D01*
X5558Y1582D01*
X3981Y5796D02*
X4081Y5996D01*
X3981Y6196D01*
X4181Y6096D01*
X4381Y6196D01*
X4281Y5996D01*
X4381Y5796D01*
X4181Y5896D01*
X3981Y5796D01*
X2644Y6680D02*
X2744Y6880D01*
X2644Y7080D01*
X2844Y6980D01*
X3044Y7080D01*
X2944Y6880D01*
X3044Y6680D01*
X2844Y6780D01*
X2644Y6680D01*
X4316Y1639D02*
X4416Y1839D01*
X4316Y2039D01*
X4516Y1939D01*
X4716Y2039D01*
X4616Y1839D01*
X4716Y1639D01*
X4516Y1739D01*
X4316Y1639D01*
X1485Y5943D02*
Y5843D01*
X1685D01*
Y5943D01*
X1785D01*
Y6143D01*
X1685D01*
Y6243D01*
X1485D01*
Y6143D01*
X1385D01*
Y5943D01*
X1485D01*
X1796Y6524D02*
X1896Y6724D01*
X1796Y6924D01*
X1996Y6824D01*
X2196Y6924D01*
X2096Y6724D01*
X2196Y6524D01*
X1996Y6624D01*
X1796Y6524D01*
X1642Y6258D02*
Y6158D01*
X1842D01*
Y6258D01*
X1942D01*
Y6458D01*
X1842D01*
Y6558D01*
X1642D01*
Y6458D01*
X1542D01*
Y6258D01*
X1642D01*
X1485Y6101D02*
Y6001D01*
X1685D01*
Y6101D01*
X1785D01*
Y6301D01*
X1685D01*
Y6401D01*
X1485D01*
Y6301D01*
X1385D01*
Y6101D01*
X1485D01*
X1012Y5786D02*
Y5686D01*
X1212D01*
Y5786D01*
X1312D01*
Y5986D01*
X1212D01*
Y6086D01*
X1012D01*
Y5986D01*
X912D01*
Y5786D01*
X1012D01*
X430Y755D02*
X530Y955D01*
X430Y1155D01*
X630Y1055D01*
X830Y1155D01*
X730Y955D01*
X830Y755D01*
X630Y855D01*
X430Y755D01*
X4337Y843D02*
X4437Y1043D01*
X4337Y1243D01*
X4537Y1143D01*
X4737Y1243D01*
X4637Y1043D01*
X4737Y843D01*
X4537Y943D01*
X4337Y843D01*
X4304Y631D02*
X4404Y831D01*
X4304Y1031D01*
X4504Y931D01*
X4704Y1031D01*
X4604Y831D01*
X4704Y631D01*
X4504Y731D01*
X4304Y631D01*
X1327Y5313D02*
Y5213D01*
X1527D01*
Y5313D01*
X1627D01*
Y5513D01*
X1527D01*
Y5613D01*
X1327D01*
Y5513D01*
X1227D01*
Y5313D01*
X1327D01*
Y5156D02*
Y5056D01*
X1527D01*
Y5156D01*
X1627D01*
Y5356D01*
X1527D01*
Y5456D01*
X1327D01*
Y5356D01*
X1227D01*
Y5156D01*
X1327D01*
X4091Y4416D02*
X4191Y4616D01*
X4091Y4816D01*
X4291Y4716D01*
X4491Y4816D01*
X4391Y4616D01*
X4491Y4416D01*
X4291Y4516D01*
X4091Y4416D01*
X2389Y4170D02*
X2489Y4370D01*
X2389Y4570D01*
X2589Y4470D01*
X2789Y4570D01*
X2689Y4370D01*
X2789Y4170D01*
X2589Y4270D01*
X2389Y4170D01*
X1769Y3304D02*
X1868Y3504D01*
X1769Y3704D01*
X1969Y3604D01*
X2168Y3704D01*
X2069Y3504D01*
X2168Y3304D01*
X1969Y3404D01*
X1769Y3304D01*
X4300Y4670D02*
X4400Y4870D01*
X4300Y5070D01*
X4500Y4970D01*
X4700Y5070D01*
X4600Y4870D01*
X4700Y4670D01*
X4500Y4770D01*
X4300Y4670D01*
X4280Y4879D02*
X4380Y5079D01*
X4280Y5279D01*
X4480Y5179D01*
X4680Y5279D01*
X4580Y5079D01*
X4680Y4879D01*
X4480Y4979D01*
X4280Y4879D01*
X3855Y5036D02*
X3955Y5236D01*
X3855Y5436D01*
X4055Y5336D01*
X4255Y5436D01*
X4155Y5236D01*
X4255Y5036D01*
X4055Y5136D01*
X3855Y5036D01*
X3845Y4623D02*
X3945Y4823D01*
X3845Y5023D01*
X4045Y4923D01*
X4245Y5023D01*
X4145Y4823D01*
X4245Y4623D01*
X4045Y4723D01*
X3845Y4623D01*
X3855Y4416D02*
X3955Y4616D01*
X3855Y4816D01*
X4055Y4716D01*
X4255Y4816D01*
X4155Y4616D01*
X4255Y4416D01*
X4055Y4516D01*
X3855Y4416D01*
X1867Y223D02*
X1967Y423D01*
X1867Y623D01*
X2067Y523D01*
X2267Y623D01*
X2167Y423D01*
X2267Y223D01*
X2067Y323D01*
X1867Y223D01*
X4859Y1552D02*
X4959Y1752D01*
X4859Y1952D01*
X5059Y1852D01*
X5259Y1952D01*
X5159Y1752D01*
X5259Y1552D01*
X5059Y1652D01*
X4859Y1552D01*
X1642Y5156D02*
Y5056D01*
X1842D01*
Y5156D01*
X1942D01*
Y5356D01*
X1842D01*
Y5456D01*
X1642D01*
Y5356D01*
X1542D01*
Y5156D01*
X1642D01*
X1485D02*
Y5056D01*
X1685D01*
Y5156D01*
X1785D01*
Y5356D01*
X1685D01*
Y5456D01*
X1485D01*
Y5356D01*
X1385D01*
Y5156D01*
X1485D01*
X6276Y4751D02*
X6376Y4951D01*
X6276Y5151D01*
X6476Y5051D01*
X6676Y5151D01*
X6576Y4951D01*
X6676Y4751D01*
X6476Y4851D01*
X6276Y4751D01*
X3560Y6670D02*
X3660Y6870D01*
X3560Y7070D01*
X3760Y6970D01*
X3960Y7070D01*
X3860Y6870D01*
X3960Y6670D01*
X3760Y6770D01*
X3560Y6670D01*
X1170Y5471D02*
Y5371D01*
X1370D01*
Y5471D01*
X1470D01*
Y5671D01*
X1370D01*
Y5771D01*
X1170D01*
Y5671D01*
X1070D01*
Y5471D01*
X1170D01*
Y5313D02*
Y5213D01*
X1370D01*
Y5313D01*
X1470D01*
Y5513D01*
X1370D01*
Y5613D01*
X1170D01*
Y5513D01*
X1070D01*
Y5313D01*
X1170D01*
X253Y745D02*
X353Y945D01*
X253Y1145D01*
X453Y1045D01*
X653Y1145D01*
X553Y945D01*
X653Y745D01*
X453Y845D01*
X253Y745D01*
X1485Y5313D02*
Y5213D01*
X1685D01*
Y5313D01*
X1785D01*
Y5513D01*
X1685D01*
Y5613D01*
X1485D01*
Y5513D01*
X1385D01*
Y5313D01*
X1485D01*
X1012Y5943D02*
Y5843D01*
X1212D01*
Y5943D01*
X1312D01*
Y6143D01*
X1212D01*
Y6243D01*
X1012D01*
Y6143D01*
X912D01*
Y5943D01*
X1012D01*
X1170D02*
Y5843D01*
X1370D01*
Y5943D01*
X1470D01*
Y6143D01*
X1370D01*
Y6243D01*
X1170D01*
Y6143D01*
X1070D01*
Y5943D01*
X1170D01*
X1485Y6258D02*
Y6158D01*
X1685D01*
Y6258D01*
X1785D01*
Y6458D01*
X1685D01*
Y6558D01*
X1485D01*
Y6458D01*
X1385D01*
Y6258D01*
X1485D01*
X2113Y4820D02*
X2213Y5020D01*
X2113Y5220D01*
X2313Y5120D01*
X2513Y5220D01*
X2413Y5020D01*
X2513Y4820D01*
X2313Y4920D01*
X2113Y4820D01*
X6700Y2920D02*
X6800Y3120D01*
X6700Y3320D01*
X6900Y3220D01*
X7100Y3320D01*
X7000Y3120D01*
X7100Y2920D01*
X6900Y3020D01*
X6700Y2920D01*
Y3146D02*
X6800Y3346D01*
X6700Y3546D01*
X6900Y3446D01*
X7100Y3546D01*
X7000Y3346D01*
X7100Y3146D01*
X6900Y3246D01*
X6700Y3146D01*
Y3422D02*
X6800Y3622D01*
X6700Y3822D01*
X6900Y3722D01*
X7100Y3822D01*
X7000Y3622D01*
X7100Y3422D01*
X6900Y3522D01*
X6700Y3422D01*
X6883Y3839D02*
X6983Y4039D01*
X6883Y4239D01*
X7083Y4139D01*
X7283Y4239D01*
X7183Y4039D01*
X7283Y3839D01*
X7083Y3939D01*
X6883Y3839D01*
X4091Y5036D02*
X4191Y5236D01*
X4091Y5436D01*
X4291Y5336D01*
X4491Y5436D01*
X4391Y5236D01*
X4491Y5036D01*
X4291Y5136D01*
X4091Y5036D01*
X3855Y4830D02*
X3955Y5030D01*
X3855Y5230D01*
X4055Y5130D01*
X4255Y5230D01*
X4155Y5030D01*
X4255Y4830D01*
X4055Y4930D01*
X3855Y4830D01*
X4081Y4623D02*
X4182Y4823D01*
X4081Y5023D01*
X4281Y4923D01*
X4482Y5023D01*
X4381Y4823D01*
X4482Y4623D01*
X4281Y4723D01*
X4081Y4623D01*
X3629Y4967D02*
X3729Y5167D01*
X3629Y5367D01*
X3829Y5267D01*
X4029Y5367D01*
X3929Y5167D01*
X4029Y4967D01*
X3829Y5067D01*
X3629Y4967D01*
X6217Y3589D02*
X6317Y3789D01*
X6217Y3989D01*
X6417Y3889D01*
X6617Y3989D01*
X6517Y3789D01*
X6617Y3589D01*
X6417Y3689D01*
X6217Y3589D01*
X6473Y2930D02*
X6573Y3130D01*
X6473Y3330D01*
X6673Y3230D01*
X6873Y3330D01*
X6773Y3130D01*
X6873Y2930D01*
X6673Y3030D01*
X6473Y2930D01*
X6877Y46D02*
X6977Y246D01*
X6877Y446D01*
X7077Y346D01*
X7277Y446D01*
X7177Y246D01*
X7277Y46D01*
X7077Y146D01*
X6877Y46D01*
X6522Y233D02*
X6622Y433D01*
X6522Y633D01*
X6722Y533D01*
X6922Y633D01*
X6822Y433D01*
X6922Y233D01*
X6722Y333D01*
X6522Y233D01*
X5912Y223D02*
X6012Y423D01*
X5912Y623D01*
X6112Y523D01*
X6312Y623D01*
X6212Y423D01*
X6312Y223D01*
X6112Y323D01*
X5912Y223D01*
X4190D02*
X4290Y423D01*
X4190Y623D01*
X4390Y523D01*
X4590Y623D01*
X4490Y423D01*
X4590Y223D01*
X4390Y323D01*
X4190Y223D01*
X3786Y233D02*
X3886Y433D01*
X3786Y633D01*
X3986Y533D01*
X4186Y633D01*
X4086Y433D01*
X4186Y233D01*
X3986Y333D01*
X3786Y233D01*
X3333Y223D02*
X3433Y423D01*
X3333Y623D01*
X3533Y523D01*
X3733Y623D01*
X3633Y423D01*
X3733Y223D01*
X3533Y323D01*
X3333Y223D01*
X2910Y233D02*
X3010Y433D01*
X2910Y633D01*
X3110Y533D01*
X3310Y633D01*
X3210Y433D01*
X3310Y233D01*
X3110Y333D01*
X2910Y233D01*
X772Y229D02*
X872Y429D01*
X772Y629D01*
X972Y529D01*
X1172Y629D01*
X1072Y429D01*
X1172Y229D01*
X972Y329D01*
X772Y229D01*
X459Y233D02*
X559Y433D01*
X459Y633D01*
X659Y533D01*
X859Y633D01*
X759Y433D01*
X859Y233D01*
X659Y333D01*
X459Y233D01*
X5272Y223D02*
X5372Y423D01*
X5272Y623D01*
X5472Y523D01*
X5672Y623D01*
X5572Y423D01*
X5672Y223D01*
X5472Y323D01*
X5272Y223D01*
X420Y528D02*
X520Y728D01*
X420Y928D01*
X620Y828D01*
X820Y928D01*
X720Y728D01*
X820Y528D01*
X620Y628D01*
X420Y528D01*
X233D02*
X333Y728D01*
X233Y928D01*
X433Y828D01*
X633Y928D01*
X533Y728D01*
X633Y528D01*
X433Y628D01*
X233Y528D01*
Y981D02*
X333Y1181D01*
X233Y1381D01*
X433Y1281D01*
X633Y1381D01*
X533Y1181D01*
X633Y981D01*
X433Y1081D01*
X233Y981D01*
X420Y3570D02*
X520Y3770D01*
X420Y3970D01*
X620Y3870D01*
X820Y3970D01*
X720Y3770D01*
X820Y3570D01*
X620Y3670D01*
X420Y3570D01*
X400Y4180D02*
X500Y4380D01*
X400Y4580D01*
X600Y4480D01*
X800Y4580D01*
X700Y4380D01*
X800Y4180D01*
X600Y4280D01*
X400Y4180D01*
X6877Y1030D02*
X6977Y1230D01*
X6877Y1430D01*
X7077Y1330D01*
X7277Y1430D01*
X7177Y1230D01*
X7277Y1030D01*
X7077Y1130D01*
X6877Y1030D01*
X6867Y1394D02*
X6967Y1594D01*
X6867Y1794D01*
X7067Y1694D01*
X7267Y1794D01*
X7167Y1594D01*
X7267Y1394D01*
X7067Y1494D01*
X6867Y1394D01*
X6877Y1690D02*
X6977Y1890D01*
X6877Y2090D01*
X7077Y1990D01*
X7277Y2090D01*
X7177Y1890D01*
X7277Y1690D01*
X7077Y1790D01*
X6877Y1690D01*
X6690D02*
X6790Y1890D01*
X6690Y2090D01*
X6890Y1990D01*
X7090Y2090D01*
X6990Y1890D01*
X7090Y1690D01*
X6890Y1790D01*
X6690Y1690D01*
X6700Y3737D02*
X6800Y3937D01*
X6700Y4137D01*
X6900Y4037D01*
X7100Y4137D01*
X7000Y3937D01*
X7100Y3737D01*
X6900Y3837D01*
X6700Y3737D01*
Y4032D02*
X6800Y4232D01*
X6700Y4432D01*
X6900Y4332D01*
X7100Y4432D01*
X7000Y4232D01*
X7100Y4032D01*
X6900Y4132D01*
X6700Y4032D01*
X6916Y4770D02*
X7016Y4970D01*
X6916Y5170D01*
X7116Y5070D01*
X7316Y5170D01*
X7216Y4970D01*
X7316Y4770D01*
X7116Y4870D01*
X6916Y4770D01*
X6887Y5538D02*
X6987Y5738D01*
X6887Y5938D01*
X7087Y5838D01*
X7287Y5938D01*
X7187Y5738D01*
X7287Y5538D01*
X7087Y5638D01*
X6887Y5538D01*
X6700Y4790D02*
X6800Y4990D01*
X6700Y5190D01*
X6900Y5090D01*
X7100Y5190D01*
X7000Y4990D01*
X7100Y4790D01*
X6900Y4890D01*
X6700Y4790D01*
Y5784D02*
X6800Y5984D01*
X6700Y6184D01*
X6900Y6084D01*
X7100Y6184D01*
X7000Y5984D01*
X7100Y5784D01*
X6900Y5884D01*
X6700Y5784D01*
Y6070D02*
X6800Y6270D01*
X6700Y6470D01*
X6900Y6370D01*
X7100Y6470D01*
X7000Y6270D01*
X7100Y6070D01*
X6900Y6170D01*
X6700Y6070D01*
X6769Y6572D02*
X6869Y6772D01*
X6769Y6972D01*
X6969Y6872D01*
X7169Y6972D01*
X7069Y6772D01*
X7169Y6572D01*
X6969Y6672D01*
X6769Y6572D01*
X6556Y6674D02*
X6656Y6874D01*
X6556Y7074D01*
X6756Y6974D01*
X6956Y7074D01*
X6856Y6874D01*
X6956Y6674D01*
X6756Y6774D01*
X6556Y6674D01*
X5123D02*
X5223Y6874D01*
X5123Y7074D01*
X5323Y6974D01*
X5523Y7074D01*
X5423Y6874D01*
X5523Y6674D01*
X5323Y6774D01*
X5123Y6674D01*
X6562Y3816D02*
X6662Y4016D01*
X6562Y4216D01*
X6762Y4116D01*
X6962Y4216D01*
X6862Y4016D01*
X6962Y3816D01*
X6762Y3916D01*
X6562Y3816D01*
X6424Y4396D02*
X6524Y4596D01*
X6424Y4796D01*
X6624Y4696D01*
X6824Y4796D01*
X6724Y4596D01*
X6824Y4396D01*
X6624Y4496D01*
X6424Y4396D01*
X1642Y5313D02*
Y5213D01*
X1842D01*
Y5313D01*
X1942D01*
Y5513D01*
X1842D01*
Y5613D01*
X1642D01*
Y5513D01*
X1542D01*
Y5313D01*
X1642D01*
X1327Y6258D02*
Y6158D01*
X1527D01*
Y6258D01*
X1627D01*
Y6458D01*
X1527D01*
Y6558D01*
X1327D01*
Y6458D01*
X1227D01*
Y6258D01*
X1327D01*
X1012Y6101D02*
Y6001D01*
X1212D01*
Y6101D01*
X1312D01*
Y6301D01*
X1212D01*
Y6401D01*
X1012D01*
Y6301D01*
X912D01*
Y6101D01*
X1012D01*
X1170D02*
Y6001D01*
X1370D01*
Y6101D01*
X1470D01*
Y6301D01*
X1370D01*
Y6401D01*
X1170D01*
Y6301D01*
X1070D01*
Y6101D01*
X1170D01*
X1327D02*
Y6001D01*
X1527D01*
Y6101D01*
X1627D01*
Y6301D01*
X1527D01*
Y6401D01*
X1327D01*
Y6301D01*
X1227D01*
Y6101D01*
X1327D01*
X3117Y2576D02*
X3217Y2776D01*
X3117Y2976D01*
X3317Y2876D01*
X3517Y2976D01*
X3417Y2776D01*
X3517Y2576D01*
X3317Y2676D01*
X3117Y2576D01*
X6709Y1040D02*
X6809Y1240D01*
X6709Y1440D01*
X6909Y1340D01*
X7109Y1440D01*
X7009Y1240D01*
X7109Y1040D01*
X6909Y1140D01*
X6709Y1040D01*
X3078Y5558D02*
X3178Y5758D01*
X3078Y5958D01*
X3278Y5858D01*
X3478Y5958D01*
X3378Y5758D01*
X3478Y5558D01*
X3278Y5658D01*
X3078Y5558D01*
X3235Y5164D02*
X3335Y5364D01*
X3235Y5564D01*
X3435Y5464D01*
X3635Y5564D01*
X3535Y5364D01*
X3635Y5164D01*
X3435Y5264D01*
X3235Y5164D01*
X5060Y1552D02*
X5160Y1752D01*
X5060Y1952D01*
X5260Y1852D01*
X5460Y1952D01*
X5360Y1752D01*
X5460Y1552D01*
X5260Y1652D01*
X5060Y1552D01*
X6877Y4022D02*
X6977Y4222D01*
X6877Y4422D01*
X7077Y4322D01*
X7277Y4422D01*
X7177Y4222D01*
X7277Y4022D01*
X7077Y4122D01*
X6877Y4022D01*
X6572Y1946D02*
X6672Y2146D01*
X6572Y2346D01*
X6772Y2246D01*
X6972Y2346D01*
X6872Y2146D01*
X6972Y1946D01*
X6772Y2046D01*
X6572Y1946D01*
X5794Y1729D02*
X5894Y1929D01*
X5794Y2129D01*
X5994Y2029D01*
X6194Y2129D01*
X6094Y1929D01*
X6194Y1729D01*
X5994Y1829D01*
X5794Y1729D01*
X6493Y2517D02*
X6593Y2717D01*
X6493Y2917D01*
X6693Y2817D01*
X6893Y2917D01*
X6793Y2717D01*
X6893Y2517D01*
X6693Y2617D01*
X6493Y2517D01*
X5617Y4426D02*
X5717Y4626D01*
X5617Y4826D01*
X5817Y4726D01*
X6017Y4826D01*
X5917Y4626D01*
X6017Y4426D01*
X5817Y4526D01*
X5617Y4426D01*
X3225Y3530D02*
X3325Y3730D01*
X3225Y3930D01*
X3425Y3830D01*
X3625Y3930D01*
X3525Y3730D01*
X3625Y3530D01*
X3425Y3630D01*
X3225Y3530D01*
X6483Y2733D02*
X6583Y2933D01*
X6483Y3133D01*
X6683Y3033D01*
X6883Y3133D01*
X6783Y2933D01*
X6883Y2733D01*
X6683Y2833D01*
X6483Y2733D01*
X4160Y3944D02*
X4260Y4144D01*
X4160Y4344D01*
X4360Y4244D01*
X4560Y4344D01*
X4460Y4144D01*
X4560Y3944D01*
X4360Y4044D01*
X4160Y3944D01*
X6700Y5538D02*
X6800Y5738D01*
X6700Y5938D01*
X6900Y5838D01*
X7100Y5938D01*
X7000Y5738D01*
X7100Y5538D01*
X6900Y5638D01*
X6700Y5538D01*
X2768Y4426D02*
X2868Y4626D01*
X2768Y4826D01*
X2968Y4726D01*
X3168Y4826D01*
X3068Y4626D01*
X3168Y4426D01*
X2968Y4526D01*
X2768Y4426D01*
X3904Y6056D02*
X4004Y6256D01*
X3904Y6456D01*
X4104Y6356D01*
X4304Y6456D01*
X4204Y6256D01*
X4304Y6056D01*
X4104Y6156D01*
X3904Y6056D01*
X4180D02*
X4280Y6256D01*
X4180Y6456D01*
X4380Y6356D01*
X4580Y6456D01*
X4480Y6256D01*
X4580Y6056D01*
X4380Y6156D01*
X4180Y6056D01*
X3560Y6483D02*
X3660Y6683D01*
X3560Y6883D01*
X3760Y6783D01*
X3960Y6883D01*
X3860Y6683D01*
X3960Y6483D01*
X3760Y6583D01*
X3560Y6483D01*
X5459Y4987D02*
X5559Y5187D01*
X5459Y5387D01*
X5659Y5287D01*
X5859Y5387D01*
X5759Y5187D01*
X5859Y4987D01*
X5659Y5087D01*
X5459Y4987D01*
X650Y6270D02*
X750Y6470D01*
X650Y6670D01*
X850Y6570D01*
X1050Y6670D01*
X950Y6470D01*
X1050Y6270D01*
X850Y6370D01*
X650Y6270D01*
X637Y6099D02*
X737Y6299D01*
X637Y6499D01*
X837Y6399D01*
X1037Y6499D01*
X937Y6299D01*
X1037Y6099D01*
X837Y6199D01*
X637Y6099D01*
X4859Y1316D02*
X4959Y1516D01*
X4859Y1716D01*
X5059Y1616D01*
X5259Y1716D01*
X5159Y1516D01*
X5259Y1316D01*
X5059Y1416D01*
X4859Y1316D01*
X3993Y1639D02*
X4093Y1839D01*
X3993Y2039D01*
X4193Y1939D01*
X4393Y2039D01*
X4293Y1839D01*
X4393Y1639D01*
X4193Y1739D01*
X3993Y1639D01*
X4158Y1635D02*
X4258Y1835D01*
X4158Y2035D01*
X4358Y1935D01*
X4558Y2035D01*
X4458Y1835D01*
X4558Y1635D01*
X4358Y1735D01*
X4158Y1635D01*
X253Y3580D02*
X353Y3780D01*
X253Y3980D01*
X453Y3880D01*
X653Y3980D01*
X553Y3780D01*
X653Y3580D01*
X453Y3680D01*
X253Y3580D01*
X341Y5026D02*
X441Y5226D01*
X341Y5426D01*
X541Y5326D01*
X741Y5426D01*
X641Y5226D01*
X741Y5026D01*
X541Y5126D01*
X341Y5026D01*
X3333Y6473D02*
X3433Y6673D01*
X3333Y6873D01*
X3533Y6773D01*
X3733Y6873D01*
X3633Y6673D01*
X3733Y6473D01*
X3533Y6573D01*
X3333Y6473D01*
X2654Y6454D02*
X2754Y6654D01*
X2654Y6854D01*
X2854Y6754D01*
X3054Y6854D01*
X2954Y6654D01*
X3054Y6454D01*
X2854Y6554D01*
X2654Y6454D01*
X1551Y4491D02*
X1651Y4691D01*
X1551Y4891D01*
X1751Y4791D01*
X1951Y4891D01*
X1851Y4691D01*
X1951Y4491D01*
X1751Y4591D01*
X1551Y4491D01*
X1327Y5471D02*
Y5371D01*
X1527D01*
Y5471D01*
X1627D01*
Y5671D01*
X1527D01*
Y5771D01*
X1327D01*
Y5671D01*
X1227D01*
Y5471D01*
X1327D01*
X1327Y5943D02*
Y5843D01*
X1527D01*
Y5943D01*
X1627D01*
Y6143D01*
X1527D01*
Y6243D01*
X1327D01*
Y6143D01*
X1227D01*
Y5943D01*
X1327D01*
X1800Y5786D02*
Y5686D01*
X2000D01*
Y5786D01*
X2100D01*
Y5986D01*
X2000D01*
Y6086D01*
X1800D01*
Y5986D01*
X1700D01*
Y5786D01*
X1800D01*
X1957Y6258D02*
Y6158D01*
X2157D01*
Y6258D01*
X2257D01*
Y6458D01*
X2157D01*
Y6558D01*
X1957D01*
Y6458D01*
X1857D01*
Y6258D01*
X1957D01*
Y6101D02*
Y6001D01*
X2157D01*
Y6101D01*
X2257D01*
Y6301D01*
X2157D01*
Y6401D01*
X1957D01*
Y6301D01*
X1857D01*
Y6101D01*
X1957D01*
X1642Y5628D02*
Y5528D01*
X1842D01*
Y5628D01*
X1942D01*
Y5828D01*
X1842D01*
Y5928D01*
X1642D01*
Y5828D01*
X1542D01*
Y5628D01*
X1642D01*
X1800Y6101D02*
Y6001D01*
X2000D01*
Y6101D01*
X2100D01*
Y6301D01*
X2000D01*
Y6401D01*
X1800D01*
Y6301D01*
X1700D01*
Y6101D01*
X1800D01*
Y6258D02*
Y6158D01*
X2000D01*
Y6258D01*
X2100D01*
Y6458D01*
X2000D01*
Y6558D01*
X1800D01*
Y6458D01*
X1700D01*
Y6258D01*
X1800D01*
X1957Y5943D02*
Y5843D01*
X2157D01*
Y5943D01*
X2257D01*
Y6143D01*
X2157D01*
Y6243D01*
X1957D01*
Y6143D01*
X1857D01*
Y5943D01*
X1957D01*
X1642Y6101D02*
Y6001D01*
X1842D01*
Y6101D01*
X1942D01*
Y6301D01*
X1842D01*
Y6401D01*
X1642D01*
Y6301D01*
X1542D01*
Y6101D01*
X1642D01*
X1800Y5943D02*
Y5843D01*
X2000D01*
Y5943D01*
X2100D01*
Y6143D01*
X2000D01*
Y6243D01*
X1800D01*
Y6143D01*
X1700D01*
Y5943D01*
X1800D01*
X1642Y5786D02*
Y5686D01*
X1842D01*
Y5786D01*
X1942D01*
Y5986D01*
X1842D01*
Y6086D01*
X1642D01*
Y5986D01*
X1542D01*
Y5786D01*
X1642D01*
X1642Y5943D02*
Y5843D01*
X1842D01*
Y5943D01*
X1942D01*
Y6143D01*
X1842D01*
Y6243D01*
X1642D01*
Y6143D01*
X1542D01*
Y5943D01*
X1642D01*
X1485Y5471D02*
Y5371D01*
X1685D01*
Y5471D01*
X1785D01*
Y5671D01*
X1685D01*
Y5771D01*
X1485D01*
Y5671D01*
X1385D01*
Y5471D01*
X1485D01*
X1170Y5786D02*
Y5686D01*
X1370D01*
Y5786D01*
X1470D01*
Y5986D01*
X1370D01*
Y6086D01*
X1170D01*
Y5986D01*
X1070D01*
Y5786D01*
X1170D01*
Y5628D02*
Y5528D01*
X1370D01*
Y5628D01*
X1470D01*
Y5828D01*
X1370D01*
Y5928D01*
X1170D01*
Y5828D01*
X1070D01*
Y5628D01*
X1170D01*
X1957Y5786D02*
Y5686D01*
X2157D01*
Y5786D01*
X2257D01*
Y5986D01*
X2157D01*
Y6086D01*
X1957D01*
Y5986D01*
X1857D01*
Y5786D01*
X1957D01*
X3333Y6660D02*
X3433Y6860D01*
X3333Y7060D01*
X3533Y6960D01*
X3733Y7060D01*
X3633Y6860D01*
X3733Y6660D01*
X3533Y6760D01*
X3333Y6660D01*
X3176Y6572D02*
X3276Y6772D01*
X3176Y6972D01*
X3376Y6872D01*
X3576Y6972D01*
X3476Y6772D01*
X3576Y6572D01*
X3376Y6672D01*
X3176Y6572D01*
X5530Y4837D02*
X5630Y5037D01*
X5530Y5237D01*
X5730Y5137D01*
X5930Y5237D01*
X5830Y5037D01*
X5930Y4837D01*
X5730Y4937D01*
X5530Y4837D01*
X243Y2615D02*
X343Y2815D01*
X243Y3015D01*
X443Y2915D01*
X643Y3015D01*
X543Y2815D01*
X643Y2615D01*
X443Y2715D01*
X243Y2615D01*
X276Y3017D02*
X376Y3217D01*
X276Y3417D01*
X476Y3317D01*
X676Y3417D01*
X576Y3217D01*
X676Y3017D01*
X476Y3117D01*
X276Y3017D01*
X4532Y4418D02*
Y4318D01*
X4732D01*
Y4418D01*
X4832D01*
Y4618D01*
X4732D01*
Y4718D01*
X4532D01*
Y4618D01*
X4432D01*
Y4418D01*
X4532D01*
X4652Y1316D02*
X4752Y1516D01*
X4652Y1716D01*
X4852Y1616D01*
X5052Y1716D01*
X4952Y1516D01*
X5052Y1316D01*
X4852Y1416D01*
X4652Y1316D01*
X5597Y223D02*
X5697Y423D01*
X5597Y623D01*
X5797Y523D01*
X5997Y623D01*
X5897Y423D01*
X5997Y223D01*
X5797Y323D01*
X5597Y223D01*
X6237D02*
X6337Y423D01*
X6237Y623D01*
X6437Y523D01*
X6637Y623D01*
X6537Y423D01*
X6637Y223D01*
X6437Y323D01*
X6237Y223D01*
X6522Y56D02*
X6622Y256D01*
X6522Y456D01*
X6722Y356D01*
X6922Y456D01*
X6822Y256D01*
X6922Y56D01*
X6722Y156D01*
X6522Y56D01*
X6690Y1394D02*
X6790Y1594D01*
X6690Y1794D01*
X6890Y1694D01*
X7090Y1794D01*
X6990Y1594D01*
X7090Y1394D01*
X6890Y1494D01*
X6690Y1394D01*
X6769Y2005D02*
X6869Y2205D01*
X6769Y2405D01*
X6969Y2305D01*
X7168Y2405D01*
X7068Y2205D01*
X7168Y2005D01*
X6969Y2105D01*
X6769Y2005D01*
X6867Y2251D02*
X6967Y2451D01*
X6867Y2651D01*
X7067Y2551D01*
X7267Y2651D01*
X7167Y2451D01*
X7267Y2251D01*
X7067Y2351D01*
X6867Y2251D01*
X6877Y2930D02*
X6977Y3130D01*
X6877Y3330D01*
X7077Y3230D01*
X7277Y3330D01*
X7177Y3130D01*
X7277Y2930D01*
X7077Y3030D01*
X6877Y2930D01*
X7044Y2625D02*
X7144Y2825D01*
X7044Y3025D01*
X7244Y2925D01*
X7444Y3025D01*
X7344Y2825D01*
X7444Y2625D01*
X7244Y2725D01*
X7044Y2625D01*
X6335Y6670D02*
X6435Y6870D01*
X6335Y7070D01*
X6535Y6970D01*
X6735Y7070D01*
X6635Y6870D01*
X6735Y6670D01*
X6535Y6770D01*
X6335Y6670D01*
Y6485D02*
X6435Y6685D01*
X6335Y6885D01*
X6535Y6785D01*
X6735Y6885D01*
X6635Y6685D01*
X6735Y6485D01*
X6535Y6585D01*
X6335Y6485D01*
X6560Y6477D02*
X6660Y6677D01*
X6560Y6877D01*
X6760Y6777D01*
X6960Y6877D01*
X6860Y6677D01*
X6960Y6477D01*
X6760Y6577D01*
X6560Y6477D01*
X5312Y6483D02*
X5412Y6683D01*
X5312Y6883D01*
X5512Y6783D01*
X5712Y6883D01*
X5612Y6683D01*
X5712Y6483D01*
X5512Y6583D01*
X5312Y6483D01*
Y6658D02*
X5412Y6858D01*
X5312Y7058D01*
X5512Y6958D01*
X5712Y7058D01*
X5612Y6858D01*
X5712Y6658D01*
X5512Y6758D01*
X5312Y6658D01*
X5154Y6481D02*
X5254Y6681D01*
X5154Y6881D01*
X5354Y6781D01*
X5554Y6881D01*
X5454Y6681D01*
X5554Y6481D01*
X5354Y6581D01*
X5154Y6481D01*
X1887Y6678D02*
X1987Y6878D01*
X1887Y7078D01*
X2087Y6978D01*
X2287Y7078D01*
X2187Y6878D01*
X2287Y6678D01*
X2087Y6778D01*
X1887Y6678D01*
X1646D02*
X1746Y6878D01*
X1646Y7078D01*
X1846Y6978D01*
X2046Y7078D01*
X1946Y6878D01*
X2046Y6678D01*
X1846Y6778D01*
X1646Y6678D01*
X1418Y6682D02*
X1518Y6882D01*
X1418Y7082D01*
X1618Y6982D01*
X1818Y7082D01*
X1718Y6882D01*
X1818Y6682D01*
X1618Y6782D01*
X1418Y6682D01*
X1580Y6524D02*
X1680Y6724D01*
X1580Y6924D01*
X1780Y6824D01*
X1980Y6924D01*
X1880Y6724D01*
X1980Y6524D01*
X1780Y6624D01*
X1580Y6524D01*
X2339Y5517D02*
X2439Y5717D01*
X2339Y5917D01*
X2539Y5817D01*
X2739Y5917D01*
X2639Y5717D01*
X2739Y5517D01*
X2539Y5617D01*
X2339Y5517D01*
X969Y4532D02*
X1069Y4732D01*
X969Y4932D01*
X1169Y4832D01*
X1369Y4932D01*
X1269Y4732D01*
X1369Y4532D01*
X1169Y4632D01*
X969Y4532D01*
X426Y3115D02*
X526Y3315D01*
X426Y3515D01*
X626Y3415D01*
X826Y3515D01*
X726Y3315D01*
X826Y3115D01*
X626Y3215D01*
X426Y3115D01*
X2875Y3826D02*
X2975Y4026D01*
X2875Y4226D01*
X3075Y4126D01*
X3275Y4226D01*
X3175Y4026D01*
X3275Y3826D01*
X3075Y3926D01*
X2875Y3826D01*
X1199Y1002D02*
Y902D01*
X1399D01*
Y1002D01*
X1499D01*
Y1202D01*
X1399D01*
Y1302D01*
X1199D01*
Y1202D01*
X1099D01*
Y1002D01*
X1199D01*
X3221Y4064D02*
X3321Y4264D01*
X3221Y4464D01*
X3421Y4364D01*
X3621Y4464D01*
X3521Y4264D01*
X3621Y4064D01*
X3421Y4164D01*
X3221Y4064D01*
X3087Y3068D02*
X3187Y3268D01*
X3087Y3468D01*
X3287Y3368D01*
X3487Y3468D01*
X3387Y3268D01*
X3487Y3068D01*
X3287Y3168D01*
X3087Y3068D01*
X2024Y3265D02*
X2124Y3465D01*
X2024Y3665D01*
X2224Y3565D01*
X2424Y3665D01*
X2324Y3465D01*
X2424Y3265D01*
X2224Y3365D01*
X2024Y3265D01*
X2221Y3461D02*
X2321Y3661D01*
X2221Y3861D01*
X2421Y3761D01*
X2621Y3861D01*
X2521Y3661D01*
X2621Y3461D01*
X2421Y3561D01*
X2221Y3461D01*
X2162Y3698D02*
X2262Y3898D01*
X2162Y4098D01*
X2362Y3998D01*
X2562Y4098D01*
X2462Y3898D01*
X2562Y3698D01*
X2362Y3798D01*
X2162Y3698D01*
X2044Y3914D02*
X2144Y4114D01*
X2044Y4314D01*
X2244Y4214D01*
X2444Y4314D01*
X2344Y4114D01*
X2444Y3914D01*
X2244Y4014D01*
X2044Y3914D01*
X2871Y2320D02*
X2971Y2520D01*
X2871Y2720D01*
X3071Y2620D01*
X3271Y2720D01*
X3171Y2520D01*
X3271Y2320D01*
X3071Y2420D01*
X2871Y2320D01*
X1296Y1749D02*
X1396Y1949D01*
X1296Y2149D01*
X1496Y2049D01*
X1696Y2149D01*
X1596Y1949D01*
X1696Y1749D01*
X1496Y1849D01*
X1296Y1749D01*
X2576Y1414D02*
X2676Y1614D01*
X2576Y1814D01*
X2776Y1714D01*
X2976Y1814D01*
X2876Y1614D01*
X2976Y1414D01*
X2776Y1514D01*
X2576Y1414D01*
X2792Y1454D02*
X2892Y1654D01*
X2792Y1854D01*
X2992Y1754D01*
X3192Y1854D01*
X3092Y1654D01*
X3192Y1454D01*
X2992Y1554D01*
X2792Y1454D01*
X2477Y1690D02*
X2577Y1890D01*
X2477Y2090D01*
X2677Y1990D01*
X2877Y2090D01*
X2777Y1890D01*
X2877Y1690D01*
X2677Y1790D01*
X2477Y1690D01*
X1493Y2457D02*
X1593Y2657D01*
X1493Y2857D01*
X1693Y2757D01*
X1893Y2857D01*
X1793Y2657D01*
X1893Y2457D01*
X1693Y2557D01*
X1493Y2457D01*
X2379Y1926D02*
X2479Y2126D01*
X2379Y2326D01*
X2579Y2226D01*
X2779Y2326D01*
X2679Y2126D01*
X2779Y1926D01*
X2579Y2026D01*
X2379Y1926D01*
X2576D02*
X2676Y2126D01*
X2576Y2326D01*
X2776Y2226D01*
X2976Y2326D01*
X2876Y2126D01*
X2976Y1926D01*
X2776Y2026D01*
X2576Y1926D01*
X1946Y2694D02*
X2046Y2894D01*
X1946Y3094D01*
X2146Y2994D01*
X2346Y3094D01*
X2246Y2894D01*
X2346Y2694D01*
X2146Y2794D01*
X1946Y2694D01*
X1778D02*
X1878Y2894D01*
X1778Y3094D01*
X1978Y2994D01*
X2178Y3094D01*
X2078Y2894D01*
X2178Y2694D01*
X1978Y2794D01*
X1778Y2694D01*
X1345Y1109D02*
X1445Y1309D01*
X1345Y1509D01*
X1545Y1409D01*
X1745Y1509D01*
X1645Y1309D01*
X1745Y1109D01*
X1545Y1209D01*
X1345Y1109D01*
X1522D02*
X1622Y1309D01*
X1522Y1509D01*
X1722Y1409D01*
X1922Y1509D01*
X1822Y1309D01*
X1922Y1109D01*
X1722Y1209D01*
X1522Y1109D01*
X1178D02*
X1278Y1309D01*
X1178Y1509D01*
X1378Y1409D01*
X1578Y1509D01*
X1478Y1309D01*
X1578Y1109D01*
X1378Y1209D01*
X1178Y1109D01*
X1690Y1749D02*
X1790Y1949D01*
X1690Y2149D01*
X1890Y2049D01*
X2090Y2149D01*
X1990Y1949D01*
X2090Y1749D01*
X1890Y1849D01*
X1690Y1749D01*
X1060Y4062D02*
X1160Y4262D01*
X1060Y4462D01*
X1260Y4362D01*
X1460Y4462D01*
X1360Y4262D01*
X1460Y4062D01*
X1260Y4162D01*
X1060Y4062D01*
M02*
