G04*
G04 #@! TF.GenerationSoftware,Altium Limited,Altium Designer,19.0.10 (269)*
G04*
G04 Layer_Physical_Order=6*
G04 Layer_Color=16711680*
%FSLAX24Y24*%
%MOIN*%
G70*
G01*
G75*
%ADD10C,0.0100*%
%ADD11C,0.0079*%
%ADD49C,0.0118*%
%ADD105C,0.0197*%
%ADD123C,0.0276*%
%ADD149C,0.0315*%
%ADD151C,0.0157*%
%ADD152C,0.0177*%
%ADD154C,0.0205*%
%ADD163C,0.0394*%
%ADD164R,0.0787X0.1969*%
%ADD165R,0.0551X0.0315*%
%ADD166R,0.0856X0.0423*%
%ADD167R,0.0803X0.0423*%
%ADD168R,0.0650X0.0146*%
%ADD169R,0.0594X0.0511*%
%ADD170R,0.4793X0.2028*%
G36*
X6900Y6811D02*
X7411D01*
Y6693D01*
X6900D01*
Y6516D01*
Y6439D01*
X6839D01*
X6808Y6432D01*
X6782Y6415D01*
X6735Y6368D01*
X6717Y6342D01*
X6711Y6311D01*
Y5829D01*
X6583Y5701D01*
X6566Y5675D01*
X6560Y5644D01*
Y5346D01*
X6136Y4923D01*
X6119Y4897D01*
X6113Y4866D01*
Y2651D01*
X5919Y2458D01*
X4006D01*
X3876Y2588D01*
Y6520D01*
X3869Y6550D01*
X3852Y6576D01*
X3852Y6576D01*
X3718Y6710D01*
X3692Y6728D01*
X3661Y6734D01*
X3356D01*
X3326Y6728D01*
X3300Y6710D01*
X3300Y6710D01*
X3157Y6568D01*
X3139Y6542D01*
X3133Y6511D01*
Y6250D01*
X3100Y6243D01*
X3058Y6215D01*
X3029Y6172D01*
X3019Y6122D01*
X3029Y6072D01*
X3058Y6030D01*
X3100Y6002D01*
X3122Y5997D01*
X3134Y5969D01*
X3110Y5925D01*
X3077Y5918D01*
X3062Y5928D01*
X3012Y5938D01*
X2966Y5929D01*
X2964Y5930D01*
X2933Y5937D01*
X2510D01*
X2510Y5937D01*
X2479Y5930D01*
X2453Y5913D01*
X2453Y5913D01*
X2305Y5765D01*
X2288Y5739D01*
X2282Y5709D01*
Y5545D01*
X803Y4067D01*
X630D01*
Y6693D01*
X118D01*
Y6811D01*
X630D01*
Y6949D01*
X5636D01*
X5659Y6905D01*
X5622Y6848D01*
X5618Y6831D01*
X6350D01*
X6347Y6848D01*
X6309Y6905D01*
X6333Y6949D01*
X6900D01*
Y6811D01*
D02*
G37*
G36*
X3715Y6486D02*
Y2555D01*
X3721Y2524D01*
X3739Y2498D01*
X3916Y2321D01*
X3916Y2321D01*
X3942Y2304D01*
X3972Y2298D01*
X4097D01*
X4117Y2251D01*
X4004Y2139D01*
X3770D01*
X3762Y2151D01*
X3719Y2180D01*
X3669Y2190D01*
X3619Y2180D01*
X3577Y2151D01*
X3570Y2141D01*
X3521Y2151D01*
X3516Y2176D01*
X3488Y2218D01*
X3446Y2247D01*
X3396Y2256D01*
X3346Y2247D01*
X3303Y2218D01*
X3275Y2176D01*
X3265Y2126D01*
X3275Y2076D01*
X3303Y2034D01*
X3268Y1981D01*
X3267Y1981D01*
X3225Y1953D01*
X3197Y1910D01*
X3187Y1860D01*
X3197Y1810D01*
X3225Y1768D01*
X3237Y1760D01*
Y1506D01*
X3243Y1475D01*
X3260Y1449D01*
X3437Y1272D01*
X3463Y1255D01*
X3494Y1248D01*
X3897D01*
X3928Y1255D01*
X3954Y1272D01*
X4220Y1538D01*
X4268Y1523D01*
X4269Y1515D01*
X4298Y1473D01*
X4340Y1444D01*
X4390Y1435D01*
X4440Y1444D01*
X4482Y1473D01*
X4497Y1496D01*
X4511Y1499D01*
X4549D01*
X4573Y1463D01*
X4585Y1455D01*
Y1309D01*
X4591Y1278D01*
X4609Y1252D01*
X4644Y1217D01*
Y1071D01*
X4632Y1069D01*
X4554Y1017D01*
X4502Y939D01*
X4484Y846D01*
X4502Y754D01*
X4554Y676D01*
X4632Y624D01*
X4724Y606D01*
X4817Y624D01*
X4895Y676D01*
X4947Y754D01*
X4965Y846D01*
X4947Y939D01*
X4895Y1017D01*
X4817Y1069D01*
X4805Y1071D01*
Y1250D01*
X4799Y1281D01*
X4781Y1307D01*
X4781Y1307D01*
X4746Y1342D01*
Y1455D01*
X4758Y1463D01*
X4786Y1505D01*
X4796Y1555D01*
X4786Y1605D01*
X4758Y1647D01*
X4715Y1676D01*
X4665Y1686D01*
X4615Y1676D01*
X4573Y1647D01*
X4558Y1624D01*
X4544Y1622D01*
X4506D01*
X4482Y1657D01*
X4440Y1685D01*
X4432Y1687D01*
X4426Y1704D01*
X4456Y1745D01*
X6439D01*
X6597Y1587D01*
X6623Y1570D01*
X6654Y1563D01*
X6654Y1563D01*
X6900D01*
Y177D01*
X1884D01*
X1860Y221D01*
X1898Y278D01*
X1902Y295D01*
X1169D01*
X1173Y278D01*
X1210Y221D01*
X1187Y177D01*
X630D01*
Y363D01*
X837D01*
X867Y369D01*
X893Y386D01*
X1179Y672D01*
X1179Y672D01*
X1196Y698D01*
X1202Y728D01*
Y892D01*
X1255Y944D01*
X1256Y945D01*
X1282Y962D01*
X1691Y1370D01*
X1691Y1370D01*
X1708Y1396D01*
X1714Y1427D01*
X1714Y1427D01*
Y2124D01*
X2259D01*
X2275Y2108D01*
X2280Y2080D01*
X2307Y2041D01*
X2346Y2015D01*
X2392Y2006D01*
X2438Y2015D01*
X2477Y2041D01*
X2503Y2080D01*
X2512Y2126D01*
X2503Y2172D01*
X2477Y2211D01*
X2438Y2237D01*
X2392Y2246D01*
X2368Y2242D01*
X2349Y2261D01*
X2323Y2279D01*
X2292Y2285D01*
X1714D01*
Y3458D01*
X1753Y3490D01*
X1791Y3482D01*
X1837Y3491D01*
X1876Y3517D01*
X1903Y3556D01*
X1912Y3602D01*
X1903Y3648D01*
X1876Y3688D01*
X1837Y3714D01*
X1791Y3723D01*
X1753Y3715D01*
X1714Y3747D01*
Y4130D01*
X3256Y5672D01*
X3273Y5698D01*
X3279Y5728D01*
Y5862D01*
X3338Y5921D01*
X3382Y5897D01*
X3374Y5857D01*
X3384Y5807D01*
X3412Y5764D01*
X3454Y5736D01*
X3504Y5726D01*
X3554Y5736D01*
X3596Y5764D01*
X3625Y5807D01*
X3635Y5857D01*
X3625Y5907D01*
X3596Y5949D01*
X3554Y5977D01*
X3504Y5987D01*
X3463Y5979D01*
X3440Y6023D01*
X3521Y6105D01*
X3522Y6105D01*
X3539Y6131D01*
X3545Y6162D01*
Y6346D01*
X3583Y6371D01*
X3611Y6413D01*
X3621Y6463D01*
X3611Y6513D01*
X3601Y6529D01*
X3606Y6539D01*
X3655Y6546D01*
X3715Y6486D01*
D02*
G37*
G36*
X6900Y5038D02*
Y3051D01*
Y2874D01*
X7411D01*
Y2756D01*
X6900D01*
Y2579D01*
Y2088D01*
X6218D01*
X6198Y2134D01*
X6510Y2445D01*
X6527Y2472D01*
X6533Y2502D01*
Y4736D01*
X6853Y5057D01*
X6900Y5038D01*
D02*
G37*
G36*
X1426Y4396D02*
Y1657D01*
X849Y1081D01*
X827Y1085D01*
X781Y1076D01*
X742Y1050D01*
X716Y1011D01*
X706Y965D01*
X706Y965D01*
X706Y965D01*
X695Y927D01*
D01*
X695Y927D01*
X630D01*
Y2756D01*
X118D01*
Y2874D01*
X630D01*
Y3906D01*
X837D01*
X867Y3912D01*
X893Y3929D01*
X1379Y4415D01*
X1426Y4396D01*
D02*
G37*
%LPC*%
G36*
X6350Y6713D02*
X6043D01*
Y6571D01*
X6161D01*
X6238Y6586D01*
X6303Y6630D01*
X6347Y6695D01*
X6350Y6713D01*
D02*
G37*
G36*
X5925D02*
X5618D01*
X5622Y6695D01*
X5665Y6630D01*
X5730Y6586D01*
X5807Y6571D01*
X5925D01*
Y6713D01*
D02*
G37*
G36*
X5581Y4983D02*
X5531Y4973D01*
X5488Y4945D01*
X5460Y4902D01*
X5450Y4852D01*
X5460Y4802D01*
X5488Y4760D01*
X5531Y4732D01*
X5581Y4722D01*
X5631Y4732D01*
X5673Y4760D01*
X5701Y4802D01*
X5711Y4852D01*
X5701Y4902D01*
X5673Y4945D01*
X5631Y4973D01*
X5581Y4983D01*
D02*
G37*
G36*
X2843Y4396D02*
X2797Y4387D01*
X2758Y4361D01*
X2732Y4321D01*
X2723Y4275D01*
X2732Y4229D01*
X2758Y4190D01*
X2797Y4164D01*
X2843Y4155D01*
X2890Y4164D01*
X2929Y4190D01*
X2955Y4229D01*
X2964Y4275D01*
X2955Y4321D01*
X2929Y4361D01*
X2890Y4387D01*
X2843Y4396D01*
D02*
G37*
G36*
X3258Y4195D02*
X3208Y4185D01*
X3166Y4157D01*
X3137Y4115D01*
X3127Y4065D01*
X3137Y4015D01*
X3166Y3973D01*
X3208Y3944D01*
X3258Y3934D01*
X3308Y3944D01*
X3350Y3973D01*
X3378Y4015D01*
X3388Y4065D01*
X3378Y4115D01*
X3350Y4157D01*
X3308Y4185D01*
X3258Y4195D01*
D02*
G37*
G36*
X2146Y3998D02*
X2100Y3989D01*
X2061Y3963D01*
X2034Y3924D01*
X2025Y3878D01*
X2034Y3832D01*
X2061Y3793D01*
X2100Y3767D01*
X2146Y3758D01*
X2192Y3767D01*
X2231Y3793D01*
X2257Y3832D01*
X2266Y3878D01*
X2257Y3924D01*
X2231Y3963D01*
X2192Y3989D01*
X2146Y3998D01*
D02*
G37*
G36*
X3130Y3024D02*
X3080Y3014D01*
X3038Y2986D01*
X3009Y2944D01*
X2999Y2894D01*
X3009Y2844D01*
X3038Y2801D01*
X3080Y2773D01*
X3130Y2763D01*
X3180Y2773D01*
X3222Y2801D01*
X3250Y2844D01*
X3260Y2894D01*
X3250Y2944D01*
X3222Y2986D01*
X3180Y3014D01*
X3130Y3024D01*
D02*
G37*
G36*
X5344Y1548D02*
X5295Y1538D01*
X5252Y1510D01*
X5224Y1467D01*
X5214Y1417D01*
X5224Y1367D01*
X5252Y1325D01*
X5295Y1297D01*
X5344Y1287D01*
X5394Y1297D01*
X5437Y1325D01*
X5465Y1367D01*
X5475Y1417D01*
X5465Y1467D01*
X5437Y1510D01*
X5394Y1538D01*
X5344Y1548D01*
D02*
G37*
G36*
X1713Y555D02*
X1594D01*
Y413D01*
X1902D01*
X1898Y431D01*
X1855Y496D01*
X1789Y540D01*
X1713Y555D01*
D02*
G37*
G36*
X1476D02*
X1358D01*
X1281Y540D01*
X1216Y496D01*
X1173Y431D01*
X1169Y413D01*
X1476D01*
Y555D01*
D02*
G37*
G36*
X1161Y2916D02*
X1115Y2907D01*
X1076Y2880D01*
X1050Y2841D01*
X1041Y2795D01*
X1050Y2749D01*
X1076Y2710D01*
X1115Y2684D01*
X1161Y2675D01*
X1208Y2684D01*
X1247Y2710D01*
X1273Y2749D01*
X1282Y2795D01*
X1273Y2841D01*
X1247Y2880D01*
X1208Y2907D01*
X1161Y2916D01*
D02*
G37*
%LPD*%
D10*
X24360Y185D02*
Y-315D01*
X24693D01*
X24860D02*
Y18D01*
X25027Y185D01*
X25193Y18D01*
Y-315D01*
Y-65D01*
X24860D01*
X25360Y185D02*
Y102D01*
X25527Y-65D01*
X25693Y102D01*
Y185D01*
X25527Y-65D02*
Y-315D01*
X26193Y185D02*
X25860D01*
Y-315D01*
X26193D01*
X25860Y-65D02*
X26026D01*
X26360Y-315D02*
Y185D01*
X26610D01*
X26693Y102D01*
Y-65D01*
X26610Y-148D01*
X26360D01*
X26526D02*
X26693Y-315D01*
X26859Y-65D02*
X27193D01*
X27359Y102D02*
X27443Y185D01*
X27609D01*
X27692Y102D01*
Y-232D01*
X27609Y-315D01*
X27443D01*
X27359Y-232D01*
Y102D01*
X28192Y185D02*
X28026Y102D01*
X27859Y-65D01*
Y-232D01*
X27942Y-315D01*
X28109D01*
X28192Y-232D01*
Y-148D01*
X28109Y-65D01*
X27859D01*
X28359Y-398D02*
X28692D01*
X28859Y185D02*
Y-315D01*
X29109D01*
X29192Y-232D01*
Y-148D01*
X29109Y-65D01*
X28859D01*
X29109D01*
X29192Y18D01*
Y102D01*
X29109Y185D01*
X28859D01*
X29609D02*
X29442D01*
X29359Y102D01*
Y-232D01*
X29442Y-315D01*
X29609D01*
X29692Y-232D01*
Y102D01*
X29609Y185D01*
X29858D02*
X30192D01*
X30025D01*
Y-315D01*
X30358Y185D02*
X30692D01*
X30525D01*
Y-315D01*
X31108Y185D02*
X30941D01*
X30858Y102D01*
Y-232D01*
X30941Y-315D01*
X31108D01*
X31191Y-232D01*
Y102D01*
X31108Y185D01*
X31358Y-315D02*
Y185D01*
X31525Y18D01*
X31691Y185D01*
Y-315D01*
D11*
X2292Y2205D02*
X2377Y2120D01*
X1634Y2205D02*
X2292D01*
X1634Y1427D02*
Y4163D01*
X6640Y5644D02*
X6791Y5795D01*
X6640Y5313D02*
Y5644D01*
X6193Y4866D02*
X6640Y5313D01*
X6193Y2618D02*
Y4866D01*
X6839Y6358D02*
X7411D01*
X6791Y6311D02*
X6839Y6358D01*
X6791Y5795D02*
Y6311D01*
X5953Y2378D02*
X6193Y2618D01*
X3972Y2378D02*
X5953D01*
X3795Y2555D02*
X3972Y2378D01*
X3795Y2555D02*
Y6520D01*
X6092Y2142D02*
X6453Y2502D01*
Y4770D01*
X4287Y2142D02*
X6092D01*
X6327Y4811D02*
X6758Y5242D01*
X6327Y2543D02*
Y4811D01*
X6043Y2260D02*
X6327Y2543D01*
X6841Y5157D02*
X7264D01*
X6453Y4770D02*
X6841Y5157D01*
X4238Y2260D02*
X6043D01*
X6758Y5242D02*
Y5467D01*
X6862Y5571D02*
X7411D01*
X6758Y5467D02*
X6862Y5571D01*
X3669Y2059D02*
X4038D01*
X4238Y2260D01*
X4037Y1892D02*
X4287Y2142D01*
X4341Y2008D02*
X7510D01*
X3858Y1526D02*
X4341Y2008D01*
X6472Y1825D02*
X6654Y1644D01*
X3897Y1329D02*
X4393Y1825D01*
X6472D01*
X3600Y1892D02*
X4037D01*
X1634Y4163D02*
X3199Y5728D01*
X1506Y1624D02*
Y4429D01*
X2697Y5621D01*
X2510Y5856D02*
X2933D01*
X2362Y5709D02*
X2510Y5856D01*
X3730Y1526D02*
X3858D01*
X6654Y1644D02*
X7530D01*
X7411Y5177D02*
X7520D01*
X7411Y5571D02*
X7510D01*
X7411Y6358D02*
X7530D01*
X7264Y5177D02*
X7411D01*
X3661Y6654D02*
X3795Y6520D01*
X3356Y6654D02*
X3661D01*
X0Y846D02*
X118D01*
X20Y3986D02*
X837D01*
X2362Y5512D02*
Y5709D01*
X837Y3986D02*
X2362Y5512D01*
X3317Y1506D02*
Y1860D01*
Y1506D02*
X3494Y1329D01*
X3897D01*
X4665Y1309D02*
Y1555D01*
Y1309D02*
X4724Y1250D01*
Y846D02*
Y1250D01*
X118Y846D02*
X728D01*
X3214Y6511D02*
X3356Y6654D01*
X3396Y2096D02*
Y2126D01*
Y2096D02*
X3600Y1892D01*
X2977Y5846D02*
X3012Y5812D01*
X2933Y5856D02*
X2943Y5846D01*
X3012Y5807D02*
Y5812D01*
X2943Y5846D02*
X2977D01*
X3199Y5728D02*
Y5896D01*
X3465Y6162D01*
Y6437D02*
X3491Y6463D01*
X3465Y6162D02*
Y6437D01*
X3150Y6122D02*
X3214Y6186D01*
Y6511D01*
X837Y443D02*
X1122Y728D01*
Y925D02*
X1220Y1024D01*
X0Y443D02*
X837D01*
X1225Y1019D02*
X1634Y1427D01*
X1122Y728D02*
Y925D01*
X728Y846D02*
X1506Y1624D01*
D49*
X787Y1181D02*
D03*
Y1575D02*
D03*
Y1969D02*
D03*
Y2362D02*
D03*
Y2756D02*
D03*
Y3150D02*
D03*
Y3543D02*
D03*
X1181D02*
D03*
X1122Y3169D02*
D03*
Y2343D02*
D03*
X1181Y1969D02*
D03*
X787Y5118D02*
D03*
Y5512D02*
D03*
Y5906D02*
D03*
Y6299D02*
D03*
X1181D02*
D03*
Y5906D02*
D03*
Y5512D02*
D03*
Y5118D02*
D03*
X1575D02*
D03*
Y5512D02*
D03*
Y6299D02*
D03*
X1969D02*
D03*
Y5906D02*
D03*
Y5512D02*
D03*
X2362Y6299D02*
D03*
X2756D02*
D03*
X2362Y787D02*
D03*
Y1181D02*
D03*
X2756D02*
D03*
Y787D02*
D03*
X3150D02*
D03*
X1969D02*
D03*
Y1181D02*
D03*
Y1575D02*
D03*
X1831Y2421D02*
D03*
X2067D02*
D03*
X5118Y787D02*
D03*
X5906D02*
D03*
X6299D02*
D03*
Y1181D02*
D03*
X5906D02*
D03*
X6693D02*
D03*
Y787D02*
D03*
X6299Y1575D02*
D03*
X2520Y3425D02*
D03*
X2480Y3957D02*
D03*
X1181Y3937D02*
D03*
X787Y4724D02*
D03*
X1181D02*
D03*
X787Y4331D02*
D03*
D105*
X1535Y354D02*
D03*
X5984Y6772D02*
D03*
D123*
X6732Y6752D02*
X7411D01*
X79Y6742D02*
X719D01*
X6683Y2825D02*
X7411D01*
X118D02*
X778D01*
D149*
X7530Y1240D02*
D03*
Y6752D02*
D03*
X0Y2028D02*
D03*
Y453D02*
D03*
Y846D02*
D03*
X7530Y5571D02*
D03*
Y5177D02*
D03*
Y6358D02*
D03*
X0Y2421D02*
D03*
Y6752D02*
D03*
Y2815D02*
D03*
Y3602D02*
D03*
Y3209D02*
D03*
Y3996D02*
D03*
X7530Y2815D02*
D03*
Y2421D02*
D03*
X0Y4390D02*
D03*
Y4783D02*
D03*
X7530Y5965D02*
D03*
Y4783D02*
D03*
Y4390D02*
D03*
Y3996D02*
D03*
Y3602D02*
D03*
Y3209D02*
D03*
X0Y5965D02*
D03*
Y6358D02*
D03*
Y5177D02*
D03*
Y5571D02*
D03*
Y1240D02*
D03*
Y1634D02*
D03*
X7530Y2028D02*
D03*
Y1634D02*
D03*
Y453D02*
D03*
Y846D02*
D03*
D151*
X1161Y2795D02*
D03*
X2392Y2126D02*
D03*
X5071Y5915D02*
D03*
X2843Y4275D02*
D03*
X1791Y3602D02*
D03*
X866Y709D02*
D03*
X827Y965D02*
D03*
X3120Y3730D02*
D03*
X3553Y1703D02*
D03*
X2146Y3878D02*
D03*
D152*
X6890Y8780D02*
D03*
X4134D02*
D03*
X7087Y8622D02*
D03*
X6693D02*
D03*
X6299D02*
D03*
X5906D02*
D03*
X5512D02*
D03*
X2756D02*
D03*
X3150D02*
D03*
X3543D02*
D03*
X3937D02*
D03*
X4370D02*
D03*
X3150Y7874D02*
D03*
X2756D02*
D03*
Y8268D02*
D03*
X3150D02*
D03*
X3543D02*
D03*
Y7874D02*
D03*
X4370D02*
D03*
X3937Y8268D02*
D03*
X4370Y8258D02*
D03*
X5138D02*
D03*
Y7874D02*
D03*
X5512D02*
D03*
X5906D02*
D03*
X6299D02*
D03*
X6693D02*
D03*
X7087D02*
D03*
Y8268D02*
D03*
X6693D02*
D03*
X6299D02*
D03*
X5906D02*
D03*
X5512D02*
D03*
X3937Y7874D02*
D03*
X6496Y8780D02*
D03*
X6102D02*
D03*
X5709D02*
D03*
X5315D02*
D03*
X2559D02*
D03*
X2953D02*
D03*
X3346D02*
D03*
X3740D02*
D03*
X5423Y2549D02*
D03*
X5007Y2569D02*
D03*
X4590Y2549D02*
D03*
X4264Y2602D02*
D03*
X5423Y2943D02*
D03*
X5007Y2963D02*
D03*
X4590Y2943D02*
D03*
X4173D02*
D03*
Y3337D02*
D03*
X4590D02*
D03*
X5007Y3356D02*
D03*
X5423Y3337D02*
D03*
X5409Y3752D02*
D03*
X4988Y3736D02*
D03*
X4547Y3720D02*
D03*
X4173Y3730D02*
D03*
X1486Y5748D02*
D03*
X3730Y1526D02*
D03*
X6409Y5398D02*
D03*
X5683Y5502D02*
D03*
X5581Y4852D02*
D03*
X3130Y2894D02*
D03*
X5650Y6043D02*
D03*
X6545Y6171D02*
D03*
X3258Y4065D02*
D03*
X3396Y2126D02*
D03*
X3317Y1860D02*
D03*
X4665Y1555D02*
D03*
X5344Y1417D02*
D03*
X4390Y1565D02*
D03*
X4439Y5915D02*
D03*
X5632Y6313D02*
D03*
X5461Y5128D02*
D03*
X5683Y5797D02*
D03*
X6004Y4929D02*
D03*
X5890Y5173D02*
D03*
X6014Y5463D02*
D03*
X6043Y5817D02*
D03*
X6063Y6211D02*
D03*
X6535Y5787D02*
D03*
X3669Y2059D02*
D03*
X2736Y5679D02*
D03*
X3504Y5857D02*
D03*
X3002Y6772D02*
D03*
X3012Y5807D02*
D03*
X3150Y6122D02*
D03*
X3491Y6463D02*
D03*
X5142Y6368D02*
D03*
X5122Y6776D02*
D03*
X5380Y6372D02*
D03*
X4380Y7146D02*
D03*
X5118Y7136D02*
D03*
Y7480D02*
D03*
X4370D02*
D03*
X3937D02*
D03*
X3543D02*
D03*
X3150D02*
D03*
X2756D02*
D03*
X5512D02*
D03*
X5906D02*
D03*
X6299D02*
D03*
X6693D02*
D03*
X7087D02*
D03*
X5138Y8622D02*
D03*
D154*
X6801Y2510D02*
D03*
X2411Y354D02*
D03*
X2756D02*
D03*
D163*
X4724Y846D02*
D03*
D164*
X6407Y7874D02*
D03*
X3100D02*
D03*
D165*
X7254Y1240D02*
D03*
Y6752D02*
D03*
X276Y2028D02*
D03*
Y453D02*
D03*
Y846D02*
D03*
X7254Y5571D02*
D03*
Y5177D02*
D03*
Y6358D02*
D03*
X276Y2421D02*
D03*
Y6752D02*
D03*
Y2815D02*
D03*
Y3602D02*
D03*
Y3209D02*
D03*
Y3996D02*
D03*
X7254Y2815D02*
D03*
Y2421D02*
D03*
X276Y4390D02*
D03*
Y4783D02*
D03*
X7254Y5965D02*
D03*
Y4783D02*
D03*
Y4390D02*
D03*
Y3996D02*
D03*
Y3602D02*
D03*
Y3209D02*
D03*
X276Y5965D02*
D03*
Y6358D02*
D03*
Y5177D02*
D03*
Y5571D02*
D03*
Y1240D02*
D03*
Y1634D02*
D03*
X7254Y2028D02*
D03*
Y1634D02*
D03*
Y453D02*
D03*
Y846D02*
D03*
D166*
X1550Y389D02*
D03*
D167*
X6016Y6737D02*
D03*
D168*
X6004Y6512D02*
D03*
D169*
X1603Y512D02*
D03*
D170*
X4887Y7884D02*
D03*
M02*
