G04*
G04 #@! TF.GenerationSoftware,Altium Limited,Altium Designer,19.0.10 (269)*
G04*
G04 Layer_Color=16711935*
%FSLAX24Y24*%
%MOIN*%
G70*
G01*
G75*
%ADD10C,0.0100*%
%ADD60C,0.0220*%
%ADD97C,0.0339*%
%ADD171C,0.0417*%
%ADD172R,0.0811X0.1992*%
%ADD173R,0.0575X0.0339*%
%ADD174C,0.0181*%
D10*
X24892Y214D02*
Y-285D01*
X25142D01*
X25225Y-202D01*
Y-119D01*
X25142Y-36D01*
X24892D01*
X25142D01*
X25225Y48D01*
Y131D01*
X25142Y214D01*
X24892D01*
X25641D02*
X25475D01*
X25392Y131D01*
Y-202D01*
X25475Y-285D01*
X25641D01*
X25725Y-202D01*
Y131D01*
X25641Y214D01*
X25891D02*
X26225D01*
X26058D01*
Y-285D01*
X26391Y214D02*
X26724D01*
X26558D01*
Y-285D01*
X27141Y214D02*
X26974D01*
X26891Y131D01*
Y-202D01*
X26974Y-285D01*
X27141D01*
X27224Y-202D01*
Y131D01*
X27141Y214D01*
X27391Y-285D02*
Y214D01*
X27558Y48D01*
X27724Y214D01*
Y-285D01*
X28391D02*
Y214D01*
X28557Y48D01*
X28724Y214D01*
Y-285D01*
X28890D02*
Y48D01*
X29057Y214D01*
X29224Y48D01*
Y-285D01*
Y-36D01*
X28890D01*
X29723Y131D02*
X29640Y214D01*
X29474D01*
X29390Y131D01*
Y48D01*
X29474Y-36D01*
X29640D01*
X29723Y-119D01*
Y-202D01*
X29640Y-285D01*
X29474D01*
X29390Y-202D01*
X29890Y214D02*
Y-285D01*
Y-119D01*
X30223Y214D01*
X29973Y-36D01*
X30223Y-285D01*
D60*
X1535Y354D02*
D03*
X5984Y6772D02*
D03*
D97*
X7530Y1240D02*
D03*
Y6752D02*
D03*
X0Y2028D02*
D03*
Y453D02*
D03*
Y846D02*
D03*
X7530Y5571D02*
D03*
Y5177D02*
D03*
Y6358D02*
D03*
X0Y2421D02*
D03*
Y6752D02*
D03*
Y2815D02*
D03*
Y3602D02*
D03*
Y3209D02*
D03*
Y3996D02*
D03*
X7530Y2815D02*
D03*
Y2421D02*
D03*
X0Y4390D02*
D03*
Y4783D02*
D03*
X7530Y5965D02*
D03*
Y4783D02*
D03*
Y4390D02*
D03*
Y3996D02*
D03*
Y3602D02*
D03*
Y3209D02*
D03*
X0Y5965D02*
D03*
Y6358D02*
D03*
Y5177D02*
D03*
Y5571D02*
D03*
Y1240D02*
D03*
Y1634D02*
D03*
X7530Y2028D02*
D03*
Y1634D02*
D03*
Y453D02*
D03*
Y846D02*
D03*
D171*
X4724D02*
D03*
D172*
X6407Y7874D02*
D03*
X3100D02*
D03*
D173*
X7254Y1240D02*
D03*
Y6752D02*
D03*
X276Y2028D02*
D03*
Y453D02*
D03*
Y846D02*
D03*
X7254Y5571D02*
D03*
Y5177D02*
D03*
Y6358D02*
D03*
X276Y2421D02*
D03*
Y6752D02*
D03*
Y2815D02*
D03*
Y3602D02*
D03*
Y3209D02*
D03*
Y3996D02*
D03*
X7254Y2815D02*
D03*
Y2421D02*
D03*
X276Y4390D02*
D03*
Y4783D02*
D03*
X7254Y5965D02*
D03*
Y4783D02*
D03*
Y4390D02*
D03*
Y3996D02*
D03*
Y3602D02*
D03*
Y3209D02*
D03*
X276Y5965D02*
D03*
Y6358D02*
D03*
Y5177D02*
D03*
Y5571D02*
D03*
Y1240D02*
D03*
Y1634D02*
D03*
X7254Y2028D02*
D03*
Y1634D02*
D03*
Y453D02*
D03*
Y846D02*
D03*
D174*
X5071Y5915D02*
D03*
M02*
