G04*
G04 #@! TF.GenerationSoftware,Altium Limited,Altium Designer,20.1.11 (218)*
G04*
G04 Layer_Color=8388736*
%FSLAX24Y24*%
%MOIN*%
G70*
G04*
G04 #@! TF.SameCoordinates,CE7CCB8B-9279-4727-9A7C-73EE909CC9FE*
G04*
G04*
G04 #@! TF.FilePolarity,Negative*
G04*
G01*
G75*
G04:AMPARAMS|DCode=40|XSize=38.9mil|YSize=37.9mil|CornerRadius=7.9mil|HoleSize=0mil|Usage=FLASHONLY|Rotation=180.000|XOffset=0mil|YOffset=0mil|HoleType=Round|Shape=RoundedRectangle|*
%AMROUNDEDRECTD40*
21,1,0.0389,0.0221,0,0,180.0*
21,1,0.0231,0.0379,0,0,180.0*
1,1,0.0158,-0.0116,0.0111*
1,1,0.0158,0.0116,0.0111*
1,1,0.0158,0.0116,-0.0111*
1,1,0.0158,-0.0116,-0.0111*
%
%ADD40ROUNDEDRECTD40*%
G04:AMPARAMS|DCode=41|XSize=24.8mil|YSize=23.2mil|CornerRadius=4.5mil|HoleSize=0mil|Usage=FLASHONLY|Rotation=180.000|XOffset=0mil|YOffset=0mil|HoleType=Round|Shape=RoundedRectangle|*
%AMROUNDEDRECTD41*
21,1,0.0248,0.0142,0,0,180.0*
21,1,0.0157,0.0232,0,0,180.0*
1,1,0.0091,-0.0079,0.0071*
1,1,0.0091,0.0079,0.0071*
1,1,0.0091,0.0079,-0.0071*
1,1,0.0091,-0.0079,-0.0071*
%
%ADD41ROUNDEDRECTD41*%
G04:AMPARAMS|DCode=42|XSize=24.8mil|YSize=23.2mil|CornerRadius=4.5mil|HoleSize=0mil|Usage=FLASHONLY|Rotation=90.000|XOffset=0mil|YOffset=0mil|HoleType=Round|Shape=RoundedRectangle|*
%AMROUNDEDRECTD42*
21,1,0.0248,0.0142,0,0,90.0*
21,1,0.0157,0.0232,0,0,90.0*
1,1,0.0091,0.0071,0.0079*
1,1,0.0091,0.0071,-0.0079*
1,1,0.0091,-0.0071,-0.0079*
1,1,0.0091,-0.0071,0.0079*
%
%ADD42ROUNDEDRECTD42*%
G04:AMPARAMS|DCode=43|XSize=29.1mil|YSize=66.5mil|CornerRadius=5.1mil|HoleSize=0mil|Usage=FLASHONLY|Rotation=0.000|XOffset=0mil|YOffset=0mil|HoleType=Round|Shape=RoundedRectangle|*
%AMROUNDEDRECTD43*
21,1,0.0291,0.0563,0,0,0.0*
21,1,0.0189,0.0665,0,0,0.0*
1,1,0.0102,0.0094,-0.0282*
1,1,0.0102,-0.0094,-0.0282*
1,1,0.0102,-0.0094,0.0282*
1,1,0.0102,0.0094,0.0282*
%
%ADD43ROUNDEDRECTD43*%
G04:AMPARAMS|DCode=44|XSize=100mil|YSize=72.8mil|CornerRadius=16.2mil|HoleSize=0mil|Usage=FLASHONLY|Rotation=90.000|XOffset=0mil|YOffset=0mil|HoleType=Round|Shape=RoundedRectangle|*
%AMROUNDEDRECTD44*
21,1,0.1000,0.0404,0,0,90.0*
21,1,0.0676,0.0728,0,0,90.0*
1,1,0.0324,0.0202,0.0338*
1,1,0.0324,0.0202,-0.0338*
1,1,0.0324,-0.0202,-0.0338*
1,1,0.0324,-0.0202,0.0338*
%
%ADD44ROUNDEDRECTD44*%
%ADD45R,0.0370X0.0370*%
G04:AMPARAMS|DCode=46|XSize=37mil|YSize=40.9mil|CornerRadius=5.9mil|HoleSize=0mil|Usage=FLASHONLY|Rotation=270.000|XOffset=0mil|YOffset=0mil|HoleType=Round|Shape=RoundedRectangle|*
%AMROUNDEDRECTD46*
21,1,0.0370,0.0291,0,0,270.0*
21,1,0.0252,0.0409,0,0,270.0*
1,1,0.0118,-0.0146,-0.0126*
1,1,0.0118,-0.0146,0.0126*
1,1,0.0118,0.0146,0.0126*
1,1,0.0118,0.0146,-0.0126*
%
%ADD46ROUNDEDRECTD46*%
G04:AMPARAMS|DCode=47|XSize=38.9mil|YSize=37.9mil|CornerRadius=7.9mil|HoleSize=0mil|Usage=FLASHONLY|Rotation=270.000|XOffset=0mil|YOffset=0mil|HoleType=Round|Shape=RoundedRectangle|*
%AMROUNDEDRECTD47*
21,1,0.0389,0.0221,0,0,270.0*
21,1,0.0231,0.0379,0,0,270.0*
1,1,0.0158,-0.0111,-0.0116*
1,1,0.0158,-0.0111,0.0116*
1,1,0.0158,0.0111,0.0116*
1,1,0.0158,0.0111,-0.0116*
%
%ADD47ROUNDEDRECTD47*%
G04:AMPARAMS|DCode=48|XSize=23.6mil|YSize=35.4mil|CornerRadius=6.9mil|HoleSize=0mil|Usage=FLASHONLY|Rotation=0.000|XOffset=0mil|YOffset=0mil|HoleType=Round|Shape=RoundedRectangle|*
%AMROUNDEDRECTD48*
21,1,0.0236,0.0217,0,0,0.0*
21,1,0.0098,0.0354,0,0,0.0*
1,1,0.0138,0.0049,-0.0108*
1,1,0.0138,-0.0049,-0.0108*
1,1,0.0138,-0.0049,0.0108*
1,1,0.0138,0.0049,0.0108*
%
%ADD48ROUNDEDRECTD48*%
G04:AMPARAMS|DCode=49|XSize=58.9mil|YSize=46.9mil|CornerRadius=9.9mil|HoleSize=0mil|Usage=FLASHONLY|Rotation=0.000|XOffset=0mil|YOffset=0mil|HoleType=Round|Shape=RoundedRectangle|*
%AMROUNDEDRECTD49*
21,1,0.0589,0.0271,0,0,0.0*
21,1,0.0391,0.0469,0,0,0.0*
1,1,0.0198,0.0195,-0.0135*
1,1,0.0198,-0.0195,-0.0135*
1,1,0.0198,-0.0195,0.0135*
1,1,0.0198,0.0195,0.0135*
%
%ADD49ROUNDEDRECTD49*%
%ADD50R,0.0488X0.0291*%
%ADD51R,0.0291X0.0575*%
G04:AMPARAMS|DCode=52|XSize=37mil|YSize=44.9mil|CornerRadius=5.9mil|HoleSize=0mil|Usage=FLASHONLY|Rotation=270.000|XOffset=0mil|YOffset=0mil|HoleType=Round|Shape=RoundedRectangle|*
%AMROUNDEDRECTD52*
21,1,0.0370,0.0331,0,0,270.0*
21,1,0.0252,0.0449,0,0,270.0*
1,1,0.0118,-0.0165,-0.0126*
1,1,0.0118,-0.0165,0.0126*
1,1,0.0118,0.0165,0.0126*
1,1,0.0118,0.0165,-0.0126*
%
%ADD52ROUNDEDRECTD52*%
G04:AMPARAMS|DCode=53|XSize=58.9mil|YSize=46.9mil|CornerRadius=9.9mil|HoleSize=0mil|Usage=FLASHONLY|Rotation=270.000|XOffset=0mil|YOffset=0mil|HoleType=Round|Shape=RoundedRectangle|*
%AMROUNDEDRECTD53*
21,1,0.0589,0.0271,0,0,270.0*
21,1,0.0391,0.0469,0,0,270.0*
1,1,0.0198,-0.0135,-0.0195*
1,1,0.0198,-0.0135,0.0195*
1,1,0.0198,0.0135,0.0195*
1,1,0.0198,0.0135,-0.0195*
%
%ADD53ROUNDEDRECTD53*%
G04:AMPARAMS|DCode=54|XSize=103.9mil|YSize=103.9mil|CornerRadius=12.6mil|HoleSize=0mil|Usage=FLASHONLY|Rotation=270.000|XOffset=0mil|YOffset=0mil|HoleType=Round|Shape=RoundedRectangle|*
%AMROUNDEDRECTD54*
21,1,0.1039,0.0787,0,0,270.0*
21,1,0.0787,0.1039,0,0,270.0*
1,1,0.0252,-0.0394,-0.0394*
1,1,0.0252,-0.0394,0.0394*
1,1,0.0252,0.0394,0.0394*
1,1,0.0252,0.0394,-0.0394*
%
%ADD54ROUNDEDRECTD54*%
G04:AMPARAMS|DCode=55|XSize=74.9mil|YSize=50.9mil|CornerRadius=10mil|HoleSize=0mil|Usage=FLASHONLY|Rotation=90.000|XOffset=0mil|YOffset=0mil|HoleType=Round|Shape=RoundedRectangle|*
%AMROUNDEDRECTD55*
21,1,0.0749,0.0310,0,0,90.0*
21,1,0.0550,0.0509,0,0,90.0*
1,1,0.0199,0.0155,0.0275*
1,1,0.0199,0.0155,-0.0275*
1,1,0.0199,-0.0155,-0.0275*
1,1,0.0199,-0.0155,0.0275*
%
%ADD55ROUNDEDRECTD55*%
G04:AMPARAMS|DCode=56|XSize=94.5mil|YSize=90.6mil|CornerRadius=24mil|HoleSize=0mil|Usage=FLASHONLY|Rotation=270.000|XOffset=0mil|YOffset=0mil|HoleType=Round|Shape=RoundedRectangle|*
%AMROUNDEDRECTD56*
21,1,0.0945,0.0425,0,0,270.0*
21,1,0.0465,0.0906,0,0,270.0*
1,1,0.0480,-0.0213,-0.0232*
1,1,0.0480,-0.0213,0.0232*
1,1,0.0480,0.0213,0.0232*
1,1,0.0480,0.0213,-0.0232*
%
%ADD56ROUNDEDRECTD56*%
%ADD57R,0.0275X0.0340*%
G04:AMPARAMS|DCode=58|XSize=37mil|YSize=40.9mil|CornerRadius=5.9mil|HoleSize=0mil|Usage=FLASHONLY|Rotation=0.000|XOffset=0mil|YOffset=0mil|HoleType=Round|Shape=RoundedRectangle|*
%AMROUNDEDRECTD58*
21,1,0.0370,0.0291,0,0,0.0*
21,1,0.0252,0.0409,0,0,0.0*
1,1,0.0118,0.0126,-0.0146*
1,1,0.0118,-0.0126,-0.0146*
1,1,0.0118,-0.0126,0.0146*
1,1,0.0118,0.0126,0.0146*
%
%ADD58ROUNDEDRECTD58*%
%ADD59R,0.0921X0.0685*%
%ADD60C,0.0655*%
%ADD61R,0.0655X0.0655*%
%ADD62C,0.0843*%
%ADD63C,0.2496*%
%ADD64C,0.0528*%
%ADD65C,0.1000*%
%ADD66C,0.0646*%
%ADD67R,0.0646X0.0646*%
%ADD68R,0.0655X0.0655*%
%ADD69C,0.1236*%
%ADD70C,0.0252*%
D40*
X7114Y21067D02*
D03*
X7704D02*
D03*
X19148Y673D02*
D03*
X19738D02*
D03*
X11467Y20357D02*
D03*
X10877D02*
D03*
X10881Y21022D02*
D03*
X11471D02*
D03*
X19195Y5481D02*
D03*
X18605D02*
D03*
X16932Y5481D02*
D03*
X17522D02*
D03*
X16932Y10081D02*
D03*
X17522D02*
D03*
X19209D02*
D03*
X18619D02*
D03*
X19073Y2483D02*
D03*
X19663D02*
D03*
X19673Y1863D02*
D03*
X19083D02*
D03*
X7549Y11772D02*
D03*
X8139D02*
D03*
X5665Y12880D02*
D03*
X6255D02*
D03*
X9563Y14007D02*
D03*
X10153D02*
D03*
Y14625D02*
D03*
X9563D02*
D03*
X6444Y14007D02*
D03*
X5854D02*
D03*
Y14625D02*
D03*
X6444D02*
D03*
X16940Y15653D02*
D03*
X16350D02*
D03*
D41*
X5333Y11825D02*
D03*
X6230D02*
D03*
D42*
X17870Y17629D02*
D03*
Y16731D02*
D03*
X17858Y15420D02*
D03*
Y14522D02*
D03*
D43*
X18523Y6711D02*
D03*
X18023D02*
D03*
X17523D02*
D03*
X17023D02*
D03*
X18523Y8837D02*
D03*
X18023D02*
D03*
X17523D02*
D03*
X17023D02*
D03*
D44*
X23007Y5331D02*
D03*
X21393D02*
D03*
D45*
X19109Y1272D02*
D03*
X19759D02*
D03*
D46*
X10741Y22142D02*
D03*
X11528Y22516D02*
D03*
Y21768D02*
D03*
X17080Y16726D02*
D03*
X16293Y16352D02*
D03*
Y17100D02*
D03*
X17080Y14527D02*
D03*
X16293Y14153D02*
D03*
Y14901D02*
D03*
D47*
X19209Y7181D02*
D03*
Y6591D02*
D03*
X19209Y8378D02*
D03*
Y8968D02*
D03*
X11268Y4763D02*
D03*
Y5353D02*
D03*
X18475Y4104D02*
D03*
Y3514D02*
D03*
X11894Y5353D02*
D03*
Y4763D02*
D03*
D48*
X10539Y2162D02*
D03*
Y1375D02*
D03*
D49*
X8980Y5478D02*
D03*
Y4808D02*
D03*
X17764Y3529D02*
D03*
Y4199D02*
D03*
D50*
X8098Y12502D02*
D03*
Y12876D02*
D03*
Y13250D02*
D03*
X7035D02*
D03*
Y12876D02*
D03*
Y12502D02*
D03*
D51*
X19196Y3444D02*
D03*
X19570D02*
D03*
X19944D02*
D03*
Y4527D02*
D03*
X19196D02*
D03*
D52*
X21144Y8197D02*
D03*
Y8945D02*
D03*
X20199Y8571D02*
D03*
D53*
X9605Y15370D02*
D03*
X10275D02*
D03*
X5895D02*
D03*
X6565D02*
D03*
D54*
X14655Y7777D02*
D03*
X10324D02*
D03*
X14655Y12501D02*
D03*
X10324D02*
D03*
D55*
X13240Y6660D02*
D03*
X12100D02*
D03*
X14646Y14794D02*
D03*
X13506D02*
D03*
X14646Y13795D02*
D03*
X13506D02*
D03*
D56*
X19549Y11604D02*
D03*
X21478D02*
D03*
D57*
X12636Y4672D02*
D03*
X13384D02*
D03*
X13010Y5447D02*
D03*
D58*
X10576Y5494D02*
D03*
X9828D02*
D03*
X10202Y4707D02*
D03*
D59*
X9252Y866D02*
D03*
Y2466D02*
D03*
D60*
X8210Y21992D02*
D03*
X22400Y8970D02*
D03*
Y7970D02*
D03*
Y6974D02*
D03*
D61*
X7210Y21992D02*
D03*
D62*
X16130Y19061D02*
D03*
Y22053D02*
D03*
X22457Y14567D02*
D03*
X20457D02*
D03*
X1165Y4921D02*
D03*
X3165D02*
D03*
Y14567D02*
D03*
X1165D02*
D03*
Y18701D02*
D03*
X3165D02*
D03*
X1165Y9055D02*
D03*
X3165D02*
D03*
X22457Y18701D02*
D03*
X20457D02*
D03*
D63*
X1969Y21654D02*
D03*
X21654D02*
D03*
Y1969D02*
D03*
X1969D02*
D03*
D64*
X9677Y17823D02*
D03*
X11677D02*
D03*
X10677Y16823D02*
D03*
X5967Y17823D02*
D03*
X7967D02*
D03*
X6967Y16823D02*
D03*
D65*
X17283Y11526D02*
D03*
X4192Y21730D02*
D03*
D66*
X11594Y3086D02*
D03*
X13594D02*
D03*
X14594D02*
D03*
X15594D02*
D03*
Y1086D02*
D03*
X14594D02*
D03*
X13594D02*
D03*
D67*
X11594D02*
D03*
D68*
X22400Y9970D02*
D03*
D69*
X6630Y10320D02*
D03*
Y7486D02*
D03*
Y3883D02*
D03*
Y1048D02*
D03*
D70*
X17764Y4649D02*
D03*
M02*
