G04*
G04 #@! TF.GenerationSoftware,Altium Limited,Altium Designer,20.1.11 (218)*
G04*
G04 Layer_Color=16711935*
%FSLAX24Y24*%
%MOIN*%
G70*
G04*
G04 #@! TF.SameCoordinates,CE7CCB8B-9279-4727-9A7C-73EE909CC9FE*
G04*
G04*
G04 #@! TF.FilePolarity,Negative*
G04*
G01*
G75*
G04:AMPARAMS|DCode=40|XSize=38.9mil|YSize=37.9mil|CornerRadius=7.9mil|HoleSize=0mil|Usage=FLASHONLY|Rotation=180.000|XOffset=0mil|YOffset=0mil|HoleType=Round|Shape=RoundedRectangle|*
%AMROUNDEDRECTD40*
21,1,0.0389,0.0221,0,0,180.0*
21,1,0.0231,0.0379,0,0,180.0*
1,1,0.0158,-0.0116,0.0111*
1,1,0.0158,0.0116,0.0111*
1,1,0.0158,0.0116,-0.0111*
1,1,0.0158,-0.0116,-0.0111*
%
%ADD40ROUNDEDRECTD40*%
%ADD45R,0.0370X0.0370*%
%ADD60C,0.0655*%
%ADD61R,0.0655X0.0655*%
%ADD62C,0.0843*%
%ADD63C,0.2496*%
%ADD64C,0.0528*%
%ADD65C,0.1000*%
%ADD66C,0.0646*%
%ADD67R,0.0646X0.0646*%
%ADD68R,0.0655X0.0655*%
%ADD69C,0.1236*%
%ADD70C,0.0252*%
D40*
X19148Y673D02*
D03*
X19738D02*
D03*
D45*
X19759Y1272D02*
D03*
X19109D02*
D03*
D60*
X8210Y21992D02*
D03*
X22400Y8970D02*
D03*
Y7970D02*
D03*
Y6974D02*
D03*
D61*
X7210Y21992D02*
D03*
D62*
X16130Y19061D02*
D03*
Y22053D02*
D03*
X22457Y14567D02*
D03*
X20457D02*
D03*
X1165Y4921D02*
D03*
X3165D02*
D03*
Y14567D02*
D03*
X1165D02*
D03*
Y18701D02*
D03*
X3165D02*
D03*
X1165Y9055D02*
D03*
X3165D02*
D03*
X22457Y18701D02*
D03*
X20457D02*
D03*
D63*
X1969Y21654D02*
D03*
X21654D02*
D03*
Y1969D02*
D03*
X1969D02*
D03*
D64*
X9677Y17823D02*
D03*
X11677D02*
D03*
X10677Y16823D02*
D03*
X5967Y17823D02*
D03*
X7967D02*
D03*
X6967Y16823D02*
D03*
D65*
X17283Y11526D02*
D03*
X4192Y21730D02*
D03*
D66*
X11594Y3086D02*
D03*
X13594D02*
D03*
X14594D02*
D03*
X15594D02*
D03*
Y1086D02*
D03*
X14594D02*
D03*
X13594D02*
D03*
D67*
X11594D02*
D03*
D68*
X22400Y9970D02*
D03*
D69*
X6630Y10320D02*
D03*
Y7486D02*
D03*
Y3883D02*
D03*
Y1048D02*
D03*
D70*
X17764Y4649D02*
D03*
M02*
