G04*
G04 #@! TF.GenerationSoftware,Altium Limited,Altium Designer,20.1.11 (218)*
G04*
G04 Layer_Physical_Order=4*
G04 Layer_Color=16711680*
%FSLAX24Y24*%
%MOIN*%
G70*
G04*
G04 #@! TF.SameCoordinates,65F66D52-CE9B-4770-8034-86EEF532C684*
G04*
G04*
G04 #@! TF.FilePolarity,Positive*
G04*
G01*
G75*
%ADD14C,0.0197*%
%ADD18C,0.0080*%
G04:AMPARAMS|DCode=35|XSize=20mil|YSize=20mil|CornerRadius=6mil|HoleSize=0mil|Usage=FLASHONLY|Rotation=180.000|XOffset=0mil|YOffset=0mil|HoleType=Round|Shape=RoundedRectangle|*
%AMROUNDEDRECTD35*
21,1,0.0200,0.0080,0,0,180.0*
21,1,0.0080,0.0200,0,0,180.0*
1,1,0.0120,-0.0040,0.0040*
1,1,0.0120,0.0040,0.0040*
1,1,0.0120,0.0040,-0.0040*
1,1,0.0120,-0.0040,-0.0040*
%
%ADD35ROUNDEDRECTD35*%
G04:AMPARAMS|DCode=37|XSize=20mil|YSize=20mil|CornerRadius=6mil|HoleSize=0mil|Usage=FLASHONLY|Rotation=90.000|XOffset=0mil|YOffset=0mil|HoleType=Round|Shape=RoundedRectangle|*
%AMROUNDEDRECTD37*
21,1,0.0200,0.0080,0,0,90.0*
21,1,0.0080,0.0200,0,0,90.0*
1,1,0.0120,0.0040,0.0040*
1,1,0.0120,0.0040,-0.0040*
1,1,0.0120,-0.0040,-0.0040*
1,1,0.0120,-0.0040,0.0040*
%
%ADD37ROUNDEDRECTD37*%
%ADD163C,0.0394*%
%ADD202C,0.0160*%
%ADD203C,0.0040*%
%ADD204C,0.0157*%
G04:AMPARAMS|DCode=209|XSize=49.2mil|YSize=37.4mil|CornerRadius=18.7mil|HoleSize=0mil|Usage=FLASHONLY|Rotation=180.000|XOffset=0mil|YOffset=0mil|HoleType=Round|Shape=RoundedRectangle|*
%AMROUNDEDRECTD209*
21,1,0.0492,0.0000,0,0,180.0*
21,1,0.0118,0.0374,0,0,180.0*
1,1,0.0374,-0.0059,0.0000*
1,1,0.0374,0.0059,0.0000*
1,1,0.0374,0.0059,0.0000*
1,1,0.0374,-0.0059,0.0000*
%
%ADD209ROUNDEDRECTD209*%
G04:AMPARAMS|DCode=210|XSize=37.4mil|YSize=61mil|CornerRadius=18.7mil|HoleSize=0mil|Usage=FLASHONLY|Rotation=180.000|XOffset=0mil|YOffset=0mil|HoleType=Round|Shape=RoundedRectangle|*
%AMROUNDEDRECTD210*
21,1,0.0374,0.0236,0,0,180.0*
21,1,0.0000,0.0610,0,0,180.0*
1,1,0.0374,0.0000,0.0118*
1,1,0.0374,0.0000,0.0118*
1,1,0.0374,0.0000,-0.0118*
1,1,0.0374,0.0000,-0.0118*
%
%ADD210ROUNDEDRECTD210*%
%ADD211C,0.0157*%
%ADD212R,0.0600X0.0600*%
%ADD213C,0.0600*%
%ADD214C,0.0709*%
%ADD215R,0.0709X0.0709*%
%ADD216C,0.1260*%
%ADD217C,0.0945*%
%ADD218R,0.0709X0.0709*%
%ADD219C,0.0728*%
%ADD220R,0.0728X0.0728*%
%ADD221C,0.0197*%
%ADD222C,0.0200*%
G04:AMPARAMS|DCode=223|XSize=78.7mil|YSize=35.4mil|CornerRadius=3.5mil|HoleSize=0mil|Usage=FLASHONLY|Rotation=270.000|XOffset=0mil|YOffset=0mil|HoleType=Round|Shape=RoundedRectangle|*
%AMROUNDEDRECTD223*
21,1,0.0787,0.0283,0,0,270.0*
21,1,0.0717,0.0354,0,0,270.0*
1,1,0.0071,-0.0142,-0.0358*
1,1,0.0071,-0.0142,0.0358*
1,1,0.0071,0.0142,0.0358*
1,1,0.0071,0.0142,-0.0358*
%
%ADD223ROUNDEDRECTD223*%
G04:AMPARAMS|DCode=224|XSize=78.7mil|YSize=35.4mil|CornerRadius=3.5mil|HoleSize=0mil|Usage=FLASHONLY|Rotation=0.000|XOffset=0mil|YOffset=0mil|HoleType=Round|Shape=RoundedRectangle|*
%AMROUNDEDRECTD224*
21,1,0.0787,0.0283,0,0,0.0*
21,1,0.0717,0.0354,0,0,0.0*
1,1,0.0071,0.0358,-0.0142*
1,1,0.0071,-0.0358,-0.0142*
1,1,0.0071,-0.0358,0.0142*
1,1,0.0071,0.0358,0.0142*
%
%ADD224ROUNDEDRECTD224*%
G04:AMPARAMS|DCode=225|XSize=35.4mil|YSize=78.7mil|CornerRadius=3.5mil|HoleSize=0mil|Usage=FLASHONLY|Rotation=0.000|XOffset=0mil|YOffset=0mil|HoleType=Round|Shape=RoundedRectangle|*
%AMROUNDEDRECTD225*
21,1,0.0354,0.0717,0,0,0.0*
21,1,0.0283,0.0787,0,0,0.0*
1,1,0.0071,0.0142,-0.0358*
1,1,0.0071,-0.0142,-0.0358*
1,1,0.0071,-0.0142,0.0358*
1,1,0.0071,0.0142,0.0358*
%
%ADD225ROUNDEDRECTD225*%
G04:AMPARAMS|DCode=226|XSize=52.4mil|YSize=52.4mil|CornerRadius=0mil|HoleSize=0mil|Usage=FLASHONLY|Rotation=270.000|XOffset=0mil|YOffset=0mil|HoleType=Round|Shape=RoundedRectangle|*
%AMROUNDEDRECTD226*
21,1,0.0524,0.0524,0,0,270.0*
21,1,0.0524,0.0524,0,0,270.0*
1,1,0.0000,-0.0262,-0.0262*
1,1,0.0000,-0.0262,0.0262*
1,1,0.0000,0.0262,0.0262*
1,1,0.0000,0.0262,-0.0262*
%
%ADD226ROUNDEDRECTD226*%
G04:AMPARAMS|DCode=227|XSize=70.9mil|YSize=39.4mil|CornerRadius=3.9mil|HoleSize=0mil|Usage=FLASHONLY|Rotation=270.000|XOffset=0mil|YOffset=0mil|HoleType=Round|Shape=RoundedRectangle|*
%AMROUNDEDRECTD227*
21,1,0.0709,0.0315,0,0,270.0*
21,1,0.0630,0.0394,0,0,270.0*
1,1,0.0079,-0.0157,-0.0315*
1,1,0.0079,-0.0157,0.0315*
1,1,0.0079,0.0157,0.0315*
1,1,0.0079,0.0157,-0.0315*
%
%ADD227ROUNDEDRECTD227*%
%ADD228R,0.1969X0.1969*%
D14*
X5922Y26514D02*
X6560Y25875D01*
X5922Y26514D02*
Y27390D01*
X4008Y28080D02*
X5232D01*
X5922Y27390D01*
X3360Y28728D02*
X4008Y28080D01*
X3360Y32117D02*
X4296Y33053D01*
X3360Y28728D02*
Y32117D01*
D18*
X24368Y6726D02*
Y8842D01*
X23026Y5384D02*
X24368Y6726D01*
X23012Y5384D02*
X23026D01*
X23324Y5949D02*
X24079Y6703D01*
X23012Y4695D02*
X23352D01*
X23618Y4429D01*
X22463Y4115D02*
X22480D01*
X23252Y3978D02*
X23284D01*
X22480Y4115D02*
X22805Y3790D01*
X23559D01*
X22541Y3726D02*
X22994Y3274D01*
X23559Y3790D02*
X23714Y3635D01*
X23284Y3978D02*
X23308Y3954D01*
X23636D01*
X23714Y4032D01*
X22963Y5039D02*
Y5080D01*
X23142Y4860D02*
X24221D01*
X22963Y5039D02*
X23142Y4860D01*
X24221D02*
X24520Y5158D01*
X21885Y3726D02*
X22468Y3144D01*
X15079Y6604D02*
Y6939D01*
X14604Y7413D02*
Y7847D01*
Y7413D02*
X15079Y6939D01*
X14363Y7428D02*
X14902Y6890D01*
Y6469D02*
Y6890D01*
X14363Y7428D02*
Y7720D01*
X15729Y4343D02*
Y5954D01*
X15079Y6604D02*
X15729Y5954D01*
X14902Y6469D02*
X15224Y6146D01*
X13425Y8659D02*
X14363Y7720D01*
X15224Y4072D02*
Y6146D01*
Y4072D02*
X15575Y3721D01*
X16054D01*
X16556Y4144D02*
Y5501D01*
X15305Y6734D02*
X15323D01*
X16556Y5501D01*
X14904Y7409D02*
X14906Y7407D01*
X14904Y7409D02*
Y8280D01*
X13720Y8731D02*
X14604Y7847D01*
X14016Y9168D02*
X14904Y8280D01*
X20861Y6376D02*
X21091Y6146D01*
X22711D01*
X18555Y7226D02*
X19267Y7938D01*
X19264Y6848D02*
Y7156D01*
X19722Y7614D02*
X20250D01*
X19264Y7156D02*
X19722Y7614D01*
X21808Y7159D02*
Y10202D01*
X18848Y7037D02*
X19585Y7774D01*
X21954Y6848D02*
X21974Y6867D01*
X19267Y7938D02*
X20384D01*
X19585Y7774D02*
X20316D01*
X21178Y6913D01*
Y6705D02*
Y6913D01*
X21016Y6560D02*
Y6848D01*
X20250Y7614D02*
X21016Y6848D01*
X20384Y7938D02*
X21545Y6778D01*
X21178Y6705D02*
X21308Y6575D01*
X21016Y6560D02*
X21188Y6388D01*
X20861Y6376D02*
Y6787D01*
X20515Y7132D02*
X20861Y6787D01*
X19926Y7132D02*
X20515D01*
X21954Y6848D02*
Y6858D01*
Y6642D02*
Y6848D01*
X21188Y6388D02*
X21701D01*
X21954Y6858D02*
X21956Y6860D01*
X21701Y6388D02*
X21954Y6642D01*
X21622Y6575D02*
X21758Y6710D01*
X21308Y6575D02*
X21622D01*
X19610Y6816D02*
X19926Y7132D01*
X19610Y5766D02*
Y6816D01*
X16993Y4661D02*
X17184Y4852D01*
X17779D02*
X17882Y4955D01*
X17184Y4852D02*
X17779D01*
X18799Y4955D02*
X19610Y5766D01*
X17882Y4955D02*
X18799D01*
X17058Y5039D02*
X17660D01*
X18334Y5714D01*
X17243Y5289D02*
X17591D01*
X18143Y5841D02*
Y8701D01*
X17591Y5289D02*
X18143Y5841D01*
X16829Y5897D02*
X17536D01*
X16048Y6678D02*
Y6947D01*
Y6678D02*
X16829Y5897D01*
X16744Y4136D02*
Y5654D01*
X15648Y6750D02*
Y8414D01*
Y6750D02*
X16744Y5654D01*
X10420Y24656D02*
X13654D01*
X14373Y25374D01*
Y29224D01*
X13136Y25079D02*
X13656Y25598D01*
X9381Y24332D02*
X10128Y25079D01*
X13136D01*
X10285Y24852D02*
X13389D01*
X9635Y24202D02*
X10285Y24852D01*
X13389D02*
X14028Y25492D01*
X9897Y24133D02*
X10420Y24656D01*
X10856Y23929D02*
Y24439D01*
X10842Y23915D02*
X10856Y23929D01*
X14028Y25492D02*
Y29081D01*
X13656Y25598D02*
Y28927D01*
X12893Y24081D02*
X13245Y24434D01*
X14753D02*
X15239Y24920D01*
X13245Y24434D02*
X14753D01*
X15239Y24920D02*
Y26056D01*
X15746Y26563D02*
X16283D01*
X15239Y26056D02*
X15746Y26563D01*
X11478Y31106D02*
X13656Y28927D01*
X6350Y31438D02*
X11671D01*
X5835Y31953D02*
X6350Y31438D01*
X5296Y32053D02*
X6244Y31106D01*
X11478D01*
X6111Y32154D02*
X6493Y31772D01*
X11826D01*
X14373Y29224D01*
X11671Y31438D02*
X14028Y29081D01*
X9635Y23540D02*
Y24202D01*
X9897Y23694D02*
Y24133D01*
X9381Y23374D02*
Y24332D01*
Y23374D02*
X9669Y23086D01*
X9635Y23540D02*
X9955Y23220D01*
X10242Y23350D02*
X13094D01*
X9897Y23694D02*
X10242Y23350D01*
X9955Y23220D02*
X13464D01*
X10842Y23915D02*
X10893Y23865D01*
X16086Y22841D02*
X16893Y23648D01*
X14323Y17242D02*
Y17639D01*
X12105Y24400D02*
X12127Y24423D01*
X15376Y21889D02*
X16393Y20873D01*
X14293Y22088D02*
X14492Y21889D01*
X10531Y22244D02*
X11047D01*
X11052Y17806D02*
X11216Y17970D01*
X10168Y17806D02*
X11052D01*
X13094Y23350D02*
X13393Y23648D01*
X11893Y24081D02*
X12105Y24294D01*
X16393Y17172D02*
Y20873D01*
X14492Y21889D02*
X15376D01*
X13893Y23648D02*
Y23865D01*
X14185Y17777D02*
X14323Y17639D01*
X11207Y17777D02*
X14185D01*
X16893Y23648D02*
Y23865D01*
X10579Y17535D02*
X10699Y17656D01*
X14598Y17970D02*
X14831Y17737D01*
X11216Y17970D02*
X14598D01*
X11085Y17656D02*
X11207Y17777D01*
X10699Y17656D02*
X11085D01*
X13435Y22841D02*
X16086D01*
X10030Y17535D02*
X10579D01*
X13393Y23648D02*
Y23865D01*
X10527Y22240D02*
X10531Y22244D01*
X14831Y17233D02*
Y17737D01*
X13464Y23220D02*
X13893Y23648D01*
X11893Y23865D02*
Y24081D01*
X13190Y23086D02*
X13435Y22841D01*
X12105Y24294D02*
Y24400D01*
X9669Y23086D02*
X13190D01*
X10499Y22268D02*
X10527Y22240D01*
X18543Y7215D02*
X18555Y7226D01*
X17667Y6734D02*
X17669Y6733D01*
X17756Y7539D02*
Y9589D01*
X17667Y7451D02*
X17756Y7539D01*
X17667Y6734D02*
Y7451D01*
X18334Y8569D02*
X19467Y9702D01*
X18334Y5714D02*
Y8569D01*
X17346Y9725D02*
X17549Y9521D01*
X17411Y7849D02*
X17549Y7987D01*
Y9521D01*
X17756Y9589D02*
X20023Y11857D01*
X17936Y9098D02*
X20332Y11495D01*
X17923Y6959D02*
X17936Y6971D01*
Y9098D01*
X21885Y3726D02*
Y3731D01*
X22468Y3144D02*
X25142D01*
X15272Y28269D02*
Y36178D01*
X19852Y40758D02*
X22622D01*
X15272Y36178D02*
X19852Y40758D01*
X20037Y40455D02*
X22535Y40455D01*
X15471Y35889D02*
X20037Y40455D01*
X15471Y30524D02*
Y35889D01*
X23878Y6841D02*
Y10291D01*
X23327Y6289D02*
X23878Y6841D01*
X19466Y11562D02*
Y11858D01*
X19945Y12337D01*
X20342D01*
X22304Y10374D01*
Y7082D02*
Y10374D01*
X21614Y10710D02*
X22091Y10233D01*
X21974Y7043D02*
X22091Y7160D01*
Y10233D01*
X17057Y5039D02*
X17058D01*
X25142Y3144D02*
X25187Y3189D01*
X11211Y4160D02*
X12312Y5261D01*
X8577Y4160D02*
X11211D01*
X12312Y5261D02*
Y7351D01*
X12025Y10669D02*
X12500Y11144D01*
X12023Y10667D02*
X12025Y10669D01*
X12500Y11144D02*
Y13690D01*
X11412Y14777D02*
X12500Y13690D01*
X11127Y14326D02*
X11999Y13454D01*
X11978Y7461D02*
X12813Y8295D01*
X11978Y5366D02*
Y7461D01*
X10992Y4380D02*
X11978Y5366D01*
X12312Y7351D02*
X13080Y8120D01*
X7567Y7743D02*
X8335D01*
X9407Y8815D01*
X7241Y10932D02*
X8411Y12102D01*
X7241Y7490D02*
Y10932D01*
X5148Y6900D02*
X5682Y6365D01*
X5148Y10544D02*
X5741Y11137D01*
X5148Y6900D02*
Y10544D01*
X6144Y7931D02*
X7244Y6831D01*
X9183Y4793D02*
Y5522D01*
X8996Y4606D02*
X9183Y4793D01*
X8856Y4380D02*
X10992D01*
X8627Y4609D02*
Y5307D01*
Y4609D02*
X8856Y4380D01*
X12813Y8295D02*
Y12531D01*
X13080Y8120D02*
Y14035D01*
X12813Y14200D02*
X12813Y12531D01*
X12813Y14200D02*
X14871Y16258D01*
X17432D02*
X19252Y18079D01*
X14871Y16258D02*
X17432D01*
X14912Y15866D02*
X17660D01*
X19803Y18009D02*
Y28155D01*
X17660Y15866D02*
X19803Y18009D01*
X13080Y14035D02*
X14912Y15866D01*
X13425Y8659D02*
Y13878D01*
X14665Y15118D02*
X18789D01*
X13425Y13878D02*
X14665Y15118D01*
X13720Y8731D02*
Y13789D01*
X14754Y14823D02*
X19302D01*
X13720Y13789D02*
X14754Y14823D01*
X14016Y9168D02*
Y13690D01*
X14853Y14528D02*
X19715D01*
X14016Y13690D02*
X14853Y14528D01*
X18876Y27272D02*
Y27464D01*
X19162Y16701D02*
X20699Y18238D01*
Y22783D02*
X21502Y23586D01*
X20699Y18238D02*
Y22783D01*
X19162Y15491D02*
Y16701D01*
X19783Y15305D02*
Y16828D01*
X21063Y18107D02*
Y21976D01*
X19783Y16828D02*
X21063Y18107D01*
X21772Y22685D02*
Y23539D01*
X21063Y21976D02*
X21772Y22685D01*
Y23539D02*
X22296Y24063D01*
X20332Y15145D02*
Y16847D01*
X21358Y17872D01*
Y21814D01*
X22164Y22619D01*
X19252Y18079D02*
Y27087D01*
X20778Y16900D02*
X21614Y17736D01*
Y18369D02*
X22296Y19052D01*
X21614Y17736D02*
Y18369D01*
X18876Y27464D02*
Y27483D01*
Y27464D02*
X19252Y27087D01*
X18789Y15118D02*
X19162Y15491D01*
X19302Y14823D02*
X19783Y15305D01*
X19715Y14528D02*
X20332Y15145D01*
X20557Y15829D02*
X21142Y16413D01*
Y16854D02*
X22296Y18008D01*
X21142Y16413D02*
Y16854D01*
X22296Y18008D02*
Y18063D01*
X14882Y13425D02*
X17434D01*
X18445Y12414D01*
X14902Y13829D02*
X17960D01*
X18909Y12880D01*
X18672Y11230D02*
Y12531D01*
Y11230D02*
X18802Y11099D01*
X19003D01*
X19466Y11562D01*
X18909Y11381D02*
Y12880D01*
X17238Y12562D02*
X18208Y11591D01*
X17534Y10064D02*
X18208Y10738D01*
Y11591D01*
X18445Y11161D02*
Y12414D01*
X14852Y14163D02*
X20679D01*
X22023Y15508D02*
X22480D01*
X20679Y14163D02*
X22023Y15508D01*
X14559Y9503D02*
Y13870D01*
X14852Y14163D01*
X6144Y7931D02*
Y15926D01*
X5523Y16547D02*
X6144Y15926D01*
X9183Y5522D02*
X10069Y6409D01*
X5296Y17028D02*
X10069Y12255D01*
Y6409D02*
Y12255D01*
X14559Y9503D02*
X15648Y8414D01*
X15459Y10995D02*
Y13154D01*
X15398Y13215D02*
X15459Y13154D01*
X17014Y6085D02*
X17727D01*
X16460Y6640D02*
X17014Y6085D01*
X16460Y6640D02*
Y6922D01*
X15459Y10995D02*
X16673Y9781D01*
Y6693D02*
Y9781D01*
X15889Y10856D02*
X16934Y9811D01*
Y6922D02*
Y9811D01*
X17149Y6728D02*
Y10098D01*
Y6728D02*
X17186Y6691D01*
X16740Y10507D02*
X17149Y10098D01*
X17411Y6939D02*
Y7849D01*
X17346Y9725D02*
Y10116D01*
X16959Y10503D02*
X17346Y10116D01*
X17534Y9803D02*
Y10064D01*
X17727Y6085D02*
X17909Y5903D01*
X18143Y8701D02*
X18625Y9183D01*
X15889Y10856D02*
Y12961D01*
X16740Y10507D02*
Y13182D01*
X16959Y12731D02*
X17411Y13182D01*
X16959Y10503D02*
Y12731D01*
X22741Y23508D02*
X23296Y24063D01*
X22164Y22619D02*
X22480D01*
X22741Y22879D01*
Y23508D01*
X24718Y5076D02*
Y12642D01*
X23296Y14063D02*
X24718Y12642D01*
X22296Y19052D02*
Y19063D01*
X19803Y28155D02*
X20283Y28636D01*
X24262Y10675D02*
Y11230D01*
X23878Y10291D02*
X24262Y10675D01*
X22429Y13063D02*
X24262Y11230D01*
X23393Y13609D02*
X24470Y12532D01*
Y10478D02*
Y12532D01*
X24079Y10087D02*
X24470Y10478D01*
X24079Y6703D02*
Y10087D01*
X21545Y6778D02*
Y10086D01*
X21235Y10396D02*
X21545Y10086D01*
X21074Y10936D02*
X21808Y10202D01*
X21017Y10936D02*
X21074D01*
X23194Y15166D02*
X23296Y15063D01*
X22822Y15166D02*
X23194D01*
X22480Y15508D02*
X22822Y15166D01*
X16926Y3700D02*
Y3954D01*
X16744Y4136D02*
X16926Y3954D01*
X15729Y4343D02*
X16381Y3691D01*
X16418D01*
X9914Y18001D02*
X10909D01*
X9897Y18018D02*
X9914Y18001D01*
X9741Y18018D02*
X9897D01*
X9051Y17327D02*
X9741Y18018D01*
X9051Y15990D02*
Y17327D01*
X10072Y14969D02*
X10939D01*
X9051Y15990D02*
X10072Y14969D01*
X8641Y15963D02*
Y17968D01*
Y15963D02*
X10789Y13815D01*
X8641Y17968D02*
X9488Y18815D01*
X11332Y18424D02*
Y21567D01*
X10909Y18001D02*
X11332Y18424D01*
X5835Y31953D02*
Y32493D01*
X5296Y33032D02*
X5835Y32493D01*
X5296Y33032D02*
Y33053D01*
Y33682D02*
X6111Y32867D01*
X5296Y33682D02*
Y34053D01*
X6111Y32154D02*
Y32867D01*
X23480Y32108D02*
X24262Y31326D01*
X23112Y32108D02*
X23480D01*
X22399Y31766D02*
X22771D01*
X23112Y32108D01*
X24262Y30702D02*
Y31326D01*
X23386Y29826D02*
X24262Y30702D01*
X22296Y31663D02*
X22399Y31766D01*
X21256Y29826D02*
X23386D01*
X20672Y29241D02*
X21256Y29826D01*
X20050Y29241D02*
X20672D01*
X20119Y29371D02*
X20704Y29956D01*
X16798Y30222D02*
X17649Y29371D01*
X20119D01*
X18744Y29023D02*
X19832D01*
X20050Y29241D01*
X16283Y26563D02*
X18744Y29023D01*
X12893Y23865D02*
Y24081D01*
X16727Y26624D02*
X18782Y28679D01*
X16727Y25416D02*
Y26624D01*
X15393Y24081D02*
X16727Y25416D01*
X15893Y23865D02*
X15935Y23907D01*
Y24332D02*
X18876Y27272D01*
X15935Y23907D02*
Y24332D01*
X16088Y12814D02*
X16349Y12553D01*
X16485D01*
X19877Y10029D02*
X20945D01*
X19794Y10112D02*
X19877Y10029D01*
X20945D02*
X21225Y9749D01*
X7344Y7377D02*
X7480Y7241D01*
X7339Y7377D02*
X7344D01*
X7241Y7475D02*
X7339Y7377D01*
X7244Y6831D02*
X7793D01*
X7798Y6825D01*
X7480Y7241D02*
X7512D01*
X20283Y28636D02*
Y28679D01*
X18782D02*
X20283D01*
X15393Y23865D02*
Y24081D01*
X21502Y24269D02*
X22296Y25063D01*
X21502Y23586D02*
Y24269D01*
X15471Y30524D02*
X17316Y28679D01*
X15272Y28269D02*
X16059Y27483D01*
X17316Y28679D02*
X17468D01*
X17029Y30318D02*
X17788Y29558D01*
X17029Y30318D02*
Y32109D01*
X15690Y33121D02*
Y33373D01*
X9838Y18815D02*
X10453D01*
X10499Y18768D01*
X11412Y14777D02*
Y16071D01*
X10910Y16060D02*
X11127Y15842D01*
Y14326D02*
Y15842D01*
X10789Y13532D02*
Y13815D01*
X11412Y16421D02*
Y17153D01*
X11393Y17172D02*
X11412Y17153D01*
X10457Y16410D02*
X10910D01*
Y17155D01*
X10893Y17172D02*
X10910Y17155D01*
X16074Y13146D02*
Y13175D01*
X15889Y12961D02*
X16074Y13146D01*
X22296Y24063D02*
X22296D01*
X7847Y6088D02*
X8627Y5307D01*
X5194Y6088D02*
X7847D01*
X4792Y6490D02*
Y6946D01*
Y6490D02*
X5194Y6088D01*
X8293Y4444D02*
X8577Y4160D01*
X8293Y4444D02*
Y5183D01*
X7857Y5619D02*
X8293Y5183D01*
X6418Y5619D02*
X7857D01*
X6259Y5778D02*
X6418Y5619D01*
X5591Y5778D02*
X6259D01*
X5741Y11137D02*
Y13609D01*
X5296Y17028D02*
Y17053D01*
X4781Y16832D02*
X5066Y16547D01*
X5523D01*
X4781Y16832D02*
Y17538D01*
X5296Y18053D01*
X7430Y10628D02*
X8904Y12103D01*
X7430Y10229D02*
Y10628D01*
X5296Y14053D02*
X5741Y13609D01*
X24262Y4272D02*
Y4337D01*
X24022Y4032D02*
X24262Y4272D01*
X23714Y4032D02*
X24022D01*
X24071Y4429D02*
X24718Y5076D01*
X23618Y4429D02*
X24071D01*
X23929Y3274D02*
X24069Y3415D01*
X22994Y3274D02*
X23929D01*
X22924Y6723D02*
Y10320D01*
X20059Y13185D02*
X22924Y10320D01*
X20059Y13185D02*
X20059D01*
X19627Y12996D02*
X20064D01*
X19402Y13221D02*
X19627Y12996D01*
X22718Y6969D02*
Y10343D01*
X20064Y12996D02*
X22718Y10343D01*
X19241Y12866D02*
X20010D01*
X18911Y13196D02*
X19241Y12866D01*
X22518Y6746D02*
Y10358D01*
X20010Y12866D02*
X22518Y10358D01*
X20348Y11210D02*
X21202D01*
X18625Y9487D02*
X20348Y11210D01*
X23143Y9287D02*
Y10112D01*
X23984Y10954D01*
X23547Y6982D02*
Y10236D01*
X22711Y6146D02*
X23547Y6982D01*
X25751Y4532D02*
Y25241D01*
X23714Y3635D02*
X24853D01*
X25751Y4532D01*
X25393Y25599D02*
X25751Y25241D01*
X24761Y25599D02*
X25393D01*
X23296Y27063D02*
X24761Y25599D01*
X21786Y7136D02*
X21826Y7176D01*
X21758Y6710D02*
Y7020D01*
X21974Y6867D02*
Y7043D01*
X24069Y3415D02*
X24077D01*
X22296Y13063D02*
X22429D01*
X22842Y13875D02*
Y14518D01*
X22296Y15063D02*
X22842Y14518D01*
X23108Y13609D02*
X23393D01*
X22842Y13875D02*
X23108Y13609D01*
X19467Y9702D02*
X19849D01*
X23984Y10954D02*
X24024D01*
X18015Y13188D02*
X18672Y12531D01*
X21786Y7048D02*
Y7136D01*
X21758Y7020D02*
X21786Y7048D01*
X20332Y11495D02*
Y11975D01*
X20023Y11857D02*
Y12148D01*
X18625Y9183D02*
Y9487D01*
X22296Y23063D02*
Y23063D01*
X21567Y33934D02*
X22296Y34663D01*
X21567Y31838D02*
Y33934D01*
X20065Y30337D02*
X21567Y31838D01*
X19156Y30337D02*
X20065D01*
X23332Y29956D02*
X23909Y30533D01*
X20704Y29956D02*
X23332D01*
X20020Y29558D02*
X20638Y30176D01*
X17788Y29558D02*
X20020D01*
X20638Y30176D02*
X22809D01*
X16798Y30222D02*
Y32014D01*
X23649Y40277D02*
X23930Y39996D01*
X23296Y38663D02*
X23930Y39297D01*
Y39996D01*
X23103Y40277D02*
X23649D01*
X23296Y39663D02*
Y39694D01*
X22535Y40455D02*
X23296Y39694D01*
X22622Y40758D02*
X23103Y40277D01*
X23909Y30533D02*
Y31051D01*
X22809Y30176D02*
X23296Y30663D01*
Y31663D02*
X23909Y31051D01*
X16549Y32588D02*
Y33284D01*
Y32588D02*
X17029Y32109D01*
X15690Y33121D02*
X16798Y32014D01*
D35*
X11412Y16421D02*
D03*
Y16071D02*
D03*
X10910Y16410D02*
D03*
Y16060D02*
D03*
X10457Y16410D02*
D03*
Y16060D02*
D03*
D37*
X12978Y14936D02*
D03*
X12628D02*
D03*
X13349Y16258D02*
D03*
X12999D02*
D03*
X12267D02*
D03*
X12617D02*
D03*
X9488Y18815D02*
D03*
X9838D02*
D03*
D163*
X26331Y3475D02*
D03*
X20337Y36405D02*
D03*
X1601Y3551D02*
D03*
X7944Y15063D02*
D03*
Y17074D02*
D03*
D202*
X16897Y17759D02*
X16901Y17763D01*
X17393Y23865D02*
X17393Y23864D01*
Y23299D02*
Y23864D01*
X10016Y18268D02*
X10499D01*
X17398Y17743D02*
X17402Y17747D01*
X17398Y17177D02*
Y17743D01*
X17392Y23297D02*
X17393Y23299D01*
X16897Y17176D02*
Y17759D01*
X17393Y17172D02*
X17398Y17177D01*
X9802Y18482D02*
X10016Y18268D01*
X16893Y17172D02*
X16897Y17176D01*
X11978Y16258D02*
X12267D01*
X10169Y16060D02*
X10457D01*
X13349Y16258D02*
X13638D01*
D203*
X12643Y14935D02*
Y14936D01*
X12864Y15051D02*
X12980Y14935D01*
X12718Y16203D02*
X12748Y16173D01*
Y16119D02*
Y16173D01*
X12744Y16115D02*
X12748Y16119D01*
X12720Y15598D02*
X12744Y15574D01*
Y15037D02*
Y15574D01*
Y15621D02*
Y16115D01*
X12720Y15598D02*
X12744Y15621D01*
X12672Y16203D02*
X12718D01*
X12312Y15598D02*
X12720D01*
X12617Y16258D02*
X12672Y16203D01*
X12643Y14936D02*
X12744Y15037D01*
X12944Y16203D02*
X12999Y16258D01*
X12898Y16203D02*
X12944D01*
X12887Y15598D02*
X13296D01*
X12868Y16173D02*
X12898Y16203D01*
X12868Y16069D02*
Y16173D01*
X12864Y16065D02*
X12868Y16069D01*
X12864Y15621D02*
Y16065D01*
Y15621D02*
X12887Y15598D01*
X12864Y15574D02*
X12887Y15598D01*
X12864Y15051D02*
Y15574D01*
X13559Y16798D02*
X13583Y16775D01*
X13482Y16626D02*
X13583Y16727D01*
X12933Y16626D02*
X13482D01*
X12617Y16258D02*
X12672Y16314D01*
X13726Y16798D02*
X13727D01*
X12868Y16344D02*
Y16391D01*
X13583Y16727D02*
Y16775D01*
X13727Y16798D02*
X13893Y16964D01*
X13532Y16506D02*
X13703Y16677D01*
X12898Y16314D02*
X12944D01*
X12999Y16258D01*
X13393Y16964D02*
Y17172D01*
Y16964D02*
X13558Y16798D01*
X13559D01*
X13893Y16964D02*
Y17172D01*
X13703Y16775D02*
X13726Y16798D01*
X13703Y16677D02*
Y16775D01*
X12983Y16506D02*
X13532D01*
X12868Y16391D02*
X12983Y16506D01*
X12868Y16344D02*
X12898Y16314D01*
X12748Y16441D02*
X12933Y16626D01*
X12748Y16344D02*
Y16441D01*
X12718Y16314D02*
X12748Y16344D01*
X12672Y16314D02*
X12718D01*
D204*
X12781Y35483D02*
Y37607D01*
X14096Y38922D02*
X14926D01*
X12781Y37607D02*
X14096Y38922D01*
X14926D02*
X15211Y39208D01*
Y39542D01*
D209*
X12814Y40823D02*
D03*
X14783D02*
D03*
D210*
X12421Y41886D02*
D03*
X15177D02*
D03*
D211*
X10554Y26693D02*
D03*
X10770D02*
D03*
X10987D02*
D03*
X14801Y20125D02*
D03*
Y19402D02*
D03*
Y20847D02*
D03*
X14079D02*
D03*
Y19402D02*
D03*
X15162Y20486D02*
D03*
X13718D02*
D03*
X14440D02*
D03*
X15162Y19763D02*
D03*
X13718D02*
D03*
X14440D02*
D03*
X14079Y20125D02*
D03*
D212*
X6860Y32400D02*
D03*
D213*
Y33400D02*
D03*
X18809Y23071D02*
D03*
X18823Y24258D02*
D03*
X8593Y25914D02*
D03*
Y29071D02*
D03*
Y27493D02*
D03*
Y24336D02*
D03*
Y30650D02*
D03*
X20853Y32292D02*
D03*
X19003D02*
D03*
X6755Y35483D02*
D03*
X12781D02*
D03*
X13029Y31272D02*
D03*
D214*
X26296Y40053D02*
D03*
X25296Y39053D02*
D03*
X26296D02*
D03*
Y37053D02*
D03*
Y38053D02*
D03*
Y36053D02*
D03*
X25296Y37053D02*
D03*
Y38053D02*
D03*
Y36053D02*
D03*
X26296Y34053D02*
D03*
Y35053D02*
D03*
Y32053D02*
D03*
Y33053D02*
D03*
X25296Y31053D02*
D03*
Y32053D02*
D03*
X26296Y31053D02*
D03*
Y29053D02*
D03*
Y30053D02*
D03*
Y28053D02*
D03*
Y27053D02*
D03*
X25296Y30053D02*
D03*
X26296Y26053D02*
D03*
X25296Y34053D02*
D03*
Y35053D02*
D03*
Y33053D02*
D03*
Y28053D02*
D03*
Y29053D02*
D03*
Y26053D02*
D03*
Y27053D02*
D03*
X23296Y39663D02*
D03*
Y37663D02*
D03*
Y38663D02*
D03*
X22296D02*
D03*
X23296Y36663D02*
D03*
Y35663D02*
D03*
X22296Y37663D02*
D03*
Y36663D02*
D03*
X23296Y33663D02*
D03*
Y34663D02*
D03*
Y31663D02*
D03*
Y32663D02*
D03*
X22296Y33663D02*
D03*
X23296Y26063D02*
D03*
Y27063D02*
D03*
Y25063D02*
D03*
Y29063D02*
D03*
Y30663D02*
D03*
Y28063D02*
D03*
X22296Y34663D02*
D03*
Y35663D02*
D03*
Y31663D02*
D03*
Y32663D02*
D03*
Y30663D02*
D03*
Y26063D02*
D03*
Y27063D02*
D03*
Y25063D02*
D03*
Y28063D02*
D03*
X26296Y21053D02*
D03*
Y22053D02*
D03*
Y18053D02*
D03*
Y19053D02*
D03*
Y24053D02*
D03*
Y25053D02*
D03*
Y23053D02*
D03*
X25296D02*
D03*
Y24053D02*
D03*
X26296Y20053D02*
D03*
X25296Y22053D02*
D03*
Y20053D02*
D03*
Y21053D02*
D03*
Y19053D02*
D03*
X26296Y16053D02*
D03*
Y17053D02*
D03*
Y15053D02*
D03*
X25296Y17053D02*
D03*
Y18053D02*
D03*
Y16053D02*
D03*
X26296Y13053D02*
D03*
Y14053D02*
D03*
Y11053D02*
D03*
Y12053D02*
D03*
X25296Y14053D02*
D03*
Y15053D02*
D03*
Y12053D02*
D03*
X26296Y6053D02*
D03*
Y7053D02*
D03*
Y5053D02*
D03*
Y9053D02*
D03*
Y10053D02*
D03*
Y8053D02*
D03*
X25296Y7053D02*
D03*
Y8053D02*
D03*
Y5053D02*
D03*
Y6053D02*
D03*
Y10053D02*
D03*
Y13053D02*
D03*
Y9053D02*
D03*
Y25053D02*
D03*
X23296Y24063D02*
D03*
Y22063D02*
D03*
Y23063D02*
D03*
Y20063D02*
D03*
Y21063D02*
D03*
Y19063D02*
D03*
X22296Y23063D02*
D03*
Y24063D02*
D03*
Y22063D02*
D03*
Y21063D02*
D03*
Y19063D02*
D03*
Y20063D02*
D03*
Y18063D02*
D03*
X23296Y17063D02*
D03*
Y18063D02*
D03*
Y15063D02*
D03*
Y16063D02*
D03*
X22296D02*
D03*
Y17063D02*
D03*
Y15063D02*
D03*
X23296Y13063D02*
D03*
Y14063D02*
D03*
X25296Y11053D02*
D03*
X22296Y13063D02*
D03*
Y14063D02*
D03*
X5296Y36053D02*
D03*
Y34053D02*
D03*
Y35053D02*
D03*
X4296Y33053D02*
D03*
Y34053D02*
D03*
X5296Y33053D02*
D03*
Y32053D02*
D03*
X4296Y35053D02*
D03*
Y32053D02*
D03*
X5296Y30053D02*
D03*
Y31053D02*
D03*
Y29053D02*
D03*
Y26053D02*
D03*
Y27053D02*
D03*
Y25053D02*
D03*
Y24053D02*
D03*
Y23053D02*
D03*
X4296D02*
D03*
X5296Y22053D02*
D03*
X4296Y30053D02*
D03*
Y31053D02*
D03*
Y29053D02*
D03*
Y25053D02*
D03*
Y26053D02*
D03*
Y24053D02*
D03*
X2296Y39053D02*
D03*
Y40053D02*
D03*
Y37053D02*
D03*
X1296Y39053D02*
D03*
X2296Y38053D02*
D03*
Y36053D02*
D03*
Y35053D02*
D03*
X1296D02*
D03*
Y36053D02*
D03*
Y34053D02*
D03*
Y38053D02*
D03*
Y37053D02*
D03*
X2296Y30053D02*
D03*
Y31053D02*
D03*
Y28053D02*
D03*
Y29053D02*
D03*
Y33053D02*
D03*
Y34053D02*
D03*
Y32053D02*
D03*
Y27053D02*
D03*
Y24053D02*
D03*
Y25053D02*
D03*
Y23053D02*
D03*
X1296Y29053D02*
D03*
Y30053D02*
D03*
Y27053D02*
D03*
Y28053D02*
D03*
Y32053D02*
D03*
Y33053D02*
D03*
Y31053D02*
D03*
X2296Y26053D02*
D03*
X1296D02*
D03*
X2296Y22053D02*
D03*
X1296Y24053D02*
D03*
Y25053D02*
D03*
Y23053D02*
D03*
X5296Y20053D02*
D03*
Y21053D02*
D03*
Y18053D02*
D03*
Y19053D02*
D03*
Y15053D02*
D03*
Y14053D02*
D03*
Y13053D02*
D03*
X4296Y21053D02*
D03*
Y22053D02*
D03*
Y18053D02*
D03*
Y20053D02*
D03*
Y17053D02*
D03*
X5296D02*
D03*
Y16053D02*
D03*
X4296Y15053D02*
D03*
Y16053D02*
D03*
Y14053D02*
D03*
Y13053D02*
D03*
X2296Y20053D02*
D03*
Y21053D02*
D03*
X4296Y19053D02*
D03*
X2296D02*
D03*
Y17053D02*
D03*
Y18053D02*
D03*
Y16053D02*
D03*
X1296Y18053D02*
D03*
Y19053D02*
D03*
Y16053D02*
D03*
Y17053D02*
D03*
Y21053D02*
D03*
Y22053D02*
D03*
Y20053D02*
D03*
X2296Y14053D02*
D03*
Y15053D02*
D03*
Y12053D02*
D03*
Y13053D02*
D03*
Y11053D02*
D03*
X1296Y12053D02*
D03*
X2296Y10053D02*
D03*
Y8053D02*
D03*
Y9053D02*
D03*
Y7053D02*
D03*
Y5053D02*
D03*
Y6053D02*
D03*
X1296Y5053D02*
D03*
Y10053D02*
D03*
Y11053D02*
D03*
Y9053D02*
D03*
Y14053D02*
D03*
Y15053D02*
D03*
Y13053D02*
D03*
Y7053D02*
D03*
Y8053D02*
D03*
Y6053D02*
D03*
X6560Y26916D02*
D03*
Y25916D02*
D03*
X8921Y35483D02*
D03*
X9921D02*
D03*
D215*
X25296Y40053D02*
D03*
X22296Y39663D02*
D03*
Y29063D02*
D03*
X4296Y36053D02*
D03*
Y27053D02*
D03*
X1296Y40053D02*
D03*
X10921Y35483D02*
D03*
D216*
X23296Y41163D02*
D03*
X17296Y21163D02*
D03*
X22796Y11663D02*
D03*
X4296Y41663D02*
D03*
X4796Y11663D02*
D03*
D217*
X19727Y39081D02*
D03*
X16059Y27483D02*
D03*
X20743Y23622D02*
D03*
X17468Y28679D02*
D03*
X20283D02*
D03*
X18876Y27483D02*
D03*
X1732Y1228D02*
D03*
X26256Y1273D02*
D03*
D218*
X6560Y27916D02*
D03*
D219*
X6770Y40106D02*
D03*
D220*
X8738D02*
D03*
D221*
X22835Y4449D02*
D03*
X23012Y5384D02*
D03*
X23324Y5949D02*
D03*
X23012Y4695D02*
D03*
X22463Y4115D02*
D03*
X23045Y4204D02*
D03*
X23252Y3978D02*
D03*
X22541Y3726D02*
D03*
X22963Y5080D02*
D03*
X14695Y6722D02*
D03*
X14390Y6663D02*
D03*
X14906Y7407D02*
D03*
X10856Y24439D02*
D03*
X12333Y25650D02*
D03*
X8191Y31978D02*
D03*
X10167Y23858D02*
D03*
X11047Y22244D02*
D03*
X9802Y18482D02*
D03*
X14293Y22088D02*
D03*
X12127Y24423D02*
D03*
X10030Y17535D02*
D03*
X17392Y23297D02*
D03*
X16901Y17763D02*
D03*
X10168Y17806D02*
D03*
X17402Y17747D02*
D03*
X18543Y7215D02*
D03*
X18848Y7037D02*
D03*
X18547Y5323D02*
D03*
Y6141D02*
D03*
Y5699D02*
D03*
Y6504D02*
D03*
X13954Y7343D02*
D03*
X15119Y8395D02*
D03*
X15115Y7988D02*
D03*
X5602Y5184D02*
D03*
X21885Y3731D02*
D03*
X14618Y38451D02*
D03*
X9537Y21350D02*
D03*
X5999Y6437D02*
D03*
X23327Y6289D02*
D03*
X22304Y7082D02*
D03*
X17057Y5039D02*
D03*
X17175Y4409D02*
D03*
X13625Y39502D02*
D03*
X15211Y39542D02*
D03*
Y39208D02*
D03*
X7864Y3543D02*
D03*
X7392Y660D02*
D03*
X5502D02*
D03*
X11317Y947D02*
D03*
X6031Y2747D02*
D03*
X6795Y3190D02*
D03*
X6780Y2481D02*
D03*
X8169Y3238D02*
D03*
X7864D02*
D03*
X7795Y5807D02*
D03*
Y5374D02*
D03*
Y4941D02*
D03*
Y4508D02*
D03*
X7362Y5807D02*
D03*
Y4508D02*
D03*
X6929Y5807D02*
D03*
X6496D02*
D03*
Y5374D02*
D03*
Y4941D02*
D03*
Y4508D02*
D03*
X6929D02*
D03*
X7362Y4941D02*
D03*
Y5374D02*
D03*
X6929Y4941D02*
D03*
X6949Y5374D02*
D03*
X5591Y5778D02*
D03*
X5682Y6365D02*
D03*
X7512Y7241D02*
D03*
X5622Y4532D02*
D03*
X7798Y6825D02*
D03*
X8996Y4606D02*
D03*
X7567Y7743D02*
D03*
X25187Y3189D02*
D03*
X9380Y2362D02*
D03*
X10990Y3771D02*
D03*
Y3367D02*
D03*
Y2970D02*
D03*
X12001Y13456D02*
D03*
X9407Y8815D02*
D03*
X8411Y12102D02*
D03*
X5496Y7139D02*
D03*
X8819Y9902D02*
D03*
X8858Y5205D02*
D03*
X15330Y15431D02*
D03*
X20778Y16900D02*
D03*
X14882Y13425D02*
D03*
X14902Y13829D02*
D03*
X18909Y11381D02*
D03*
X18445Y11161D02*
D03*
X11978Y16258D02*
D03*
X8793Y1272D02*
D03*
X8411D02*
D03*
X7392Y1220D02*
D03*
X5502Y1204D02*
D03*
X9075Y2362D02*
D03*
X8023Y2280D02*
D03*
X7618Y2265D02*
D03*
X7214D02*
D03*
X4922Y2817D02*
D03*
X4530Y3822D02*
D03*
X6311Y21737D02*
D03*
X9452Y19697D02*
D03*
X6311Y19375D02*
D03*
Y20163D02*
D03*
Y20950D02*
D03*
X9825Y6593D02*
D03*
X20625Y3715D02*
D03*
X15732Y2465D02*
D03*
X14587Y2466D02*
D03*
X20459Y2458D02*
D03*
X21603Y2456D02*
D03*
X18898Y3671D02*
D03*
X14458Y9028D02*
D03*
X15398Y13215D02*
D03*
X15846Y7362D02*
D03*
X13638Y16258D02*
D03*
X10169Y16060D02*
D03*
X10728Y25991D02*
D03*
X10408D02*
D03*
X10089D02*
D03*
X12903Y26546D02*
D03*
X11447Y29045D02*
D03*
X11752D02*
D03*
X12055Y29044D02*
D03*
X12057Y28740D02*
D03*
Y28435D02*
D03*
X11378Y30539D02*
D03*
X14948Y12055D02*
D03*
Y11705D02*
D03*
X18778Y15487D02*
D03*
X21017Y10936D02*
D03*
X21235Y10396D02*
D03*
X20557Y15829D02*
D03*
X13166Y7775D02*
D03*
X10945Y27362D02*
D03*
X10630D02*
D03*
X11171Y27913D02*
D03*
Y27598D02*
D03*
X11476Y27319D02*
D03*
X17534Y9803D02*
D03*
X16485Y12553D02*
D03*
X16718Y24848D02*
D03*
X12593Y22456D02*
D03*
X13941Y23030D02*
D03*
X15973Y26374D02*
D03*
X16961Y4185D02*
D03*
X16418Y3691D02*
D03*
X16926Y3700D02*
D03*
X16556Y4144D02*
D03*
X11332Y21567D02*
D03*
X10789Y13532D02*
D03*
X12025Y10669D02*
D03*
X10939Y14969D02*
D03*
X16114Y25461D02*
D03*
X17588Y25226D02*
D03*
X15690Y33373D02*
D03*
X17283Y35187D02*
D03*
X17590Y26280D02*
D03*
X19794Y10112D02*
D03*
X21225Y9749D02*
D03*
X16088Y12814D02*
D03*
X6207Y16560D02*
D03*
X6224Y3723D02*
D03*
X6229Y17560D02*
D03*
X9056Y3962D02*
D03*
X17294Y24891D02*
D03*
X9401Y30014D02*
D03*
X9386Y29652D02*
D03*
X3652Y5620D02*
D03*
X4394Y5740D02*
D03*
X3752Y4372D02*
D03*
X14550Y34305D02*
D03*
X14958Y29170D02*
D03*
Y28245D02*
D03*
X15072Y34146D02*
D03*
X15071Y33682D02*
D03*
X16102Y25818D02*
D03*
X15270Y12717D02*
D03*
X12805Y21212D02*
D03*
X4406Y6228D02*
D03*
X7430Y10229D02*
D03*
X8865Y7115D02*
D03*
X8856Y6729D02*
D03*
X3715Y4993D02*
D03*
X3465Y4039D02*
D03*
X3394Y5238D02*
D03*
X3407Y4607D02*
D03*
X4792Y6946D02*
D03*
X17243Y5289D02*
D03*
X18135Y5236D02*
D03*
X16993Y4661D02*
D03*
X9075Y2913D02*
D03*
X9913Y5203D02*
D03*
X14907Y5215D02*
D03*
Y5766D02*
D03*
X15459D02*
D03*
Y5215D02*
D03*
X24262Y4337D02*
D03*
X14316Y10261D02*
D03*
X14314Y9733D02*
D03*
X21901Y5766D02*
D03*
Y5215D02*
D03*
Y4664D02*
D03*
X21349D02*
D03*
X20798D02*
D03*
Y5215D02*
D03*
Y5766D02*
D03*
X21349D02*
D03*
Y5215D02*
D03*
X16010Y5766D02*
D03*
Y5215D02*
D03*
Y4664D02*
D03*
X15459D02*
D03*
X14907D02*
D03*
X21826Y7176D02*
D03*
X22518Y6746D02*
D03*
X22718Y6969D02*
D03*
X22924Y6723D02*
D03*
X24368Y8842D02*
D03*
X23796Y3833D02*
D03*
X23143Y9287D02*
D03*
X21202Y11210D02*
D03*
X20667Y30526D02*
D03*
X18911Y13196D02*
D03*
X19402Y13221D02*
D03*
X20059Y13185D02*
D03*
X16054Y3721D02*
D03*
X14695Y3701D02*
D03*
X23547Y10236D02*
D03*
X24024Y10954D02*
D03*
X23954Y5460D02*
D03*
X19849Y9702D02*
D03*
X24077Y3415D02*
D03*
X24520Y5158D02*
D03*
X23381Y3483D02*
D03*
X23954Y4230D02*
D03*
X21545Y6778D02*
D03*
X21956Y6860D02*
D03*
X20281Y6723D02*
D03*
X19136Y8933D02*
D03*
X21265Y7660D02*
D03*
X23954Y5048D02*
D03*
Y4627D02*
D03*
X17570Y10684D02*
D03*
X17915Y11040D02*
D03*
X18973Y10525D02*
D03*
X17638Y12505D02*
D03*
X18015Y13188D02*
D03*
X17411Y13182D02*
D03*
X19264Y6848D02*
D03*
X21614Y10710D02*
D03*
X25006Y2852D02*
D03*
X24662Y2923D02*
D03*
X12638Y6504D02*
D03*
X16673Y6693D02*
D03*
X20512Y11011D02*
D03*
X18824Y9405D02*
D03*
X17340Y8211D02*
D03*
X20023Y12148D02*
D03*
X20332Y11975D02*
D03*
X20641Y6713D02*
D03*
X17534Y24675D02*
D03*
X16849Y1961D02*
D03*
X16020D02*
D03*
X18974Y2721D02*
D03*
Y1855D02*
D03*
X18756Y2505D02*
D03*
X18974Y2282D02*
D03*
X18756Y2072D02*
D03*
X18766Y1604D02*
D03*
X18735Y771D02*
D03*
X17252Y1961D02*
D03*
X16440D02*
D03*
X16074Y15470D02*
D03*
X18054Y32950D02*
D03*
X16458Y33757D02*
D03*
X16695Y35496D02*
D03*
X17857Y35166D02*
D03*
X7904Y13174D02*
D03*
X19758Y31009D02*
D03*
X18935Y29934D02*
D03*
X13286Y40395D02*
D03*
X17545Y3484D02*
D03*
X17554Y11030D02*
D03*
X20837Y9303D02*
D03*
X20100Y15473D02*
D03*
X19420Y15475D02*
D03*
X21620Y664D02*
D03*
X19538Y1222D02*
D03*
Y664D02*
D03*
X24679Y743D02*
D03*
X21620Y1222D02*
D03*
X18172Y4652D02*
D03*
X15218Y37946D02*
D03*
X15818Y38451D02*
D03*
Y37946D02*
D03*
X16211Y41030D02*
D03*
X14618Y37946D02*
D03*
X16192Y35618D02*
D03*
X15859Y35286D02*
D03*
X8315Y36820D02*
D03*
X8820D02*
D03*
Y38020D02*
D03*
X8315D02*
D03*
X8820Y37420D02*
D03*
X12536Y32347D02*
D03*
X12176Y32936D02*
D03*
X15904Y31742D02*
D03*
X21947Y1995D02*
D03*
X22335D02*
D03*
X22733Y1994D02*
D03*
X23137Y1985D02*
D03*
X13740Y668D02*
D03*
Y1212D02*
D03*
X15630Y1228D02*
D03*
Y668D02*
D03*
X14466Y2850D02*
D03*
X12943Y3694D02*
D03*
X12638Y6081D02*
D03*
Y5699D02*
D03*
Y5306D02*
D03*
X16744Y15470D02*
D03*
X17400D02*
D03*
X18067D02*
D03*
X16860Y34840D02*
D03*
X16540D02*
D03*
X13629Y34305D02*
D03*
X12772Y28245D02*
D03*
Y27316D02*
D03*
X15904Y30357D02*
D03*
X20110Y30980D02*
D03*
X19156Y30337D02*
D03*
X20501Y9319D02*
D03*
X8904Y12103D02*
D03*
X16549Y33284D02*
D03*
X18151Y4278D02*
D03*
X17864Y3850D02*
D03*
X20373Y2985D02*
D03*
X25018Y2406D02*
D03*
X25015Y1976D02*
D03*
X24666Y1782D02*
D03*
Y2204D02*
D03*
X24671Y2605D02*
D03*
X15722Y9481D02*
D03*
X16740Y13182D02*
D03*
X16074Y13175D02*
D03*
X16498Y11588D02*
D03*
X16511Y11144D02*
D03*
Y11988D02*
D03*
X20145Y8964D02*
D03*
X17238Y12562D02*
D03*
X11285Y25991D02*
D03*
X11604D02*
D03*
Y25351D02*
D03*
Y25671D02*
D03*
X11870Y29646D02*
D03*
X19845Y7343D02*
D03*
X11870Y29980D02*
D03*
X9813Y27589D02*
D03*
X10128Y27303D02*
D03*
X9813Y27283D02*
D03*
X9813Y27892D02*
D03*
X16460Y6922D02*
D03*
X16048Y6947D02*
D03*
X15305Y6734D02*
D03*
X10089Y25351D02*
D03*
Y25671D02*
D03*
X16934Y6922D02*
D03*
X17411Y6939D02*
D03*
X17923Y6959D02*
D03*
X17186Y6691D02*
D03*
X17909Y5903D02*
D03*
X17669Y6733D02*
D03*
X17536Y5897D02*
D03*
D222*
X17778Y34269D02*
D03*
Y33836D02*
D03*
X17345Y34269D02*
D03*
Y33836D02*
D03*
D223*
X17393Y23865D02*
D03*
X16893D02*
D03*
X16393D02*
D03*
X15893D02*
D03*
X15393D02*
D03*
X14893D02*
D03*
X14393D02*
D03*
X13893D02*
D03*
X13393D02*
D03*
X12893D02*
D03*
X12393D02*
D03*
X11893D02*
D03*
X11393D02*
D03*
X10893D02*
D03*
Y17172D02*
D03*
X11393D02*
D03*
X11893D02*
D03*
X12393D02*
D03*
X12893D02*
D03*
X13393D02*
D03*
X13893D02*
D03*
X14393D02*
D03*
X14893D02*
D03*
X15393D02*
D03*
X15893D02*
D03*
X16393D02*
D03*
X16893D02*
D03*
D224*
X10499Y18268D02*
D03*
Y19768D02*
D03*
Y20768D02*
D03*
Y22268D02*
D03*
Y19268D02*
D03*
Y18768D02*
D03*
Y20268D02*
D03*
Y21768D02*
D03*
Y22768D02*
D03*
Y21268D02*
D03*
D225*
X17393Y17172D02*
D03*
D226*
X14440Y19402D02*
D03*
Y20847D02*
D03*
X15162D02*
D03*
X14440Y20125D02*
D03*
X13718Y20847D02*
D03*
Y20125D02*
D03*
Y19402D02*
D03*
X15162Y20125D02*
D03*
Y19402D02*
D03*
D227*
X13296Y15598D02*
D03*
X12312D02*
D03*
D228*
X14440Y20125D02*
D03*
M02*
