G04*
G04 #@! TF.GenerationSoftware,Altium Limited,Altium Designer,20.1.11 (218)*
G04*
G04 Layer_Color=2752767*
%FSLAX24Y24*%
%MOIN*%
G70*
G04*
G04 #@! TF.SameCoordinates,65F66D52-CE9B-4770-8034-86EEF532C684*
G04*
G04*
G04 #@! TF.FilePolarity,Positive*
G04*
G01*
G75*
%ADD242C,0.0020*%
%ADD243C,0.0027*%
%ADD244C,0.0013*%
D242*
X12734Y40743D02*
Y40903D01*
X12894D01*
Y40743D01*
X12734D01*
X14703D02*
Y40903D01*
X14863D01*
Y40743D01*
X14703D01*
X10554Y26613D02*
X10474Y26773D01*
X10634D01*
X10554Y26613D01*
X10770D02*
X10690Y26773D01*
X10850D01*
X10770Y26613D01*
X10987D02*
X10907Y26773D01*
X11067D01*
X10987Y26613D01*
X6860Y32320D02*
X6900Y32360D01*
X6940D01*
X6900Y32400D01*
X6940Y32440D01*
X6900D01*
X6860Y32480D01*
X6820Y32440D01*
X6780D01*
X6820Y32400D01*
X6780Y32360D01*
X6820D01*
X6860Y32320D01*
Y33320D02*
X6900Y33360D01*
X6940D01*
X6900Y33400D01*
X6940Y33440D01*
X6900D01*
X6860Y33480D01*
X6820Y33440D01*
X6780D01*
X6820Y33400D01*
X6780Y33360D01*
X6820D01*
X6860Y33320D01*
X7864Y14983D02*
X7904Y15063D01*
X7864Y15143D01*
X7944Y15103D01*
X8024Y15143D01*
X7984Y15063D01*
X8024Y14983D01*
X7944Y15023D01*
X7864Y14983D01*
Y16994D02*
X7904Y17074D01*
X7864Y17154D01*
X7944Y17114D01*
X8024Y17154D01*
X7984Y17074D01*
X8024Y16994D01*
X7944Y17034D01*
X7864Y16994D01*
X18769Y23031D02*
Y22991D01*
X18849D01*
Y23031D01*
X18889D01*
Y23111D01*
X18849D01*
Y23151D01*
X18769D01*
Y23111D01*
X18729D01*
Y23031D01*
X18769D01*
X18783Y24218D02*
Y24178D01*
X18863D01*
Y24218D01*
X18903D01*
Y24298D01*
X18863D01*
Y24338D01*
X18783D01*
Y24298D01*
X18743D01*
Y24218D01*
X18783D01*
X26216Y39973D02*
X26256D01*
X26296Y40013D01*
X26336Y39973D01*
X26376D01*
Y40013D01*
X26336Y40053D01*
X26376Y40093D01*
Y40133D01*
X26336D01*
X26296Y40093D01*
X26256Y40133D01*
X26216D01*
Y40093D01*
X26256Y40053D01*
X26216Y40013D01*
Y39973D01*
X25216Y38973D02*
X25256D01*
X25296Y39013D01*
X25336Y38973D01*
X25376D01*
Y39013D01*
X25336Y39053D01*
X25376Y39093D01*
Y39133D01*
X25336D01*
X25296Y39093D01*
X25256Y39133D01*
X25216D01*
Y39093D01*
X25256Y39053D01*
X25216Y39013D01*
Y38973D01*
Y39973D02*
X25256D01*
X25296Y40013D01*
X25336Y39973D01*
X25376D01*
Y40013D01*
X25336Y40053D01*
X25376Y40093D01*
Y40133D01*
X25336D01*
X25296Y40093D01*
X25256Y40133D01*
X25216D01*
Y40093D01*
X25256Y40053D01*
X25216Y40013D01*
Y39973D01*
X26216Y38973D02*
X26256D01*
X26296Y39013D01*
X26336Y38973D01*
X26376D01*
Y39013D01*
X26336Y39053D01*
X26376Y39093D01*
Y39133D01*
X26336D01*
X26296Y39093D01*
X26256Y39133D01*
X26216D01*
Y39093D01*
X26256Y39053D01*
X26216Y39013D01*
Y38973D01*
Y36973D02*
X26256D01*
X26296Y37013D01*
X26336Y36973D01*
X26376D01*
Y37013D01*
X26336Y37053D01*
X26376Y37093D01*
Y37133D01*
X26336D01*
X26296Y37093D01*
X26256Y37133D01*
X26216D01*
Y37093D01*
X26256Y37053D01*
X26216Y37013D01*
Y36973D01*
Y37973D02*
X26256D01*
X26296Y38013D01*
X26336Y37973D01*
X26376D01*
Y38013D01*
X26336Y38053D01*
X26376Y38093D01*
Y38133D01*
X26336D01*
X26296Y38093D01*
X26256Y38133D01*
X26216D01*
Y38093D01*
X26256Y38053D01*
X26216Y38013D01*
Y37973D01*
Y35973D02*
X26256D01*
X26296Y36013D01*
X26336Y35973D01*
X26376D01*
Y36013D01*
X26336Y36053D01*
X26376Y36093D01*
Y36133D01*
X26336D01*
X26296Y36093D01*
X26256Y36133D01*
X26216D01*
Y36093D01*
X26256Y36053D01*
X26216Y36013D01*
Y35973D01*
X25216Y36973D02*
X25256D01*
X25296Y37013D01*
X25336Y36973D01*
X25376D01*
Y37013D01*
X25336Y37053D01*
X25376Y37093D01*
Y37133D01*
X25336D01*
X25296Y37093D01*
X25256Y37133D01*
X25216D01*
Y37093D01*
X25256Y37053D01*
X25216Y37013D01*
Y36973D01*
Y37973D02*
X25256D01*
X25296Y38013D01*
X25336Y37973D01*
X25376D01*
Y38013D01*
X25336Y38053D01*
X25376Y38093D01*
Y38133D01*
X25336D01*
X25296Y38093D01*
X25256Y38133D01*
X25216D01*
Y38093D01*
X25256Y38053D01*
X25216Y38013D01*
Y37973D01*
Y35973D02*
X25256D01*
X25296Y36013D01*
X25336Y35973D01*
X25376D01*
Y36013D01*
X25336Y36053D01*
X25376Y36093D01*
Y36133D01*
X25336D01*
X25296Y36093D01*
X25256Y36133D01*
X25216D01*
Y36093D01*
X25256Y36053D01*
X25216Y36013D01*
Y35973D01*
X23216Y41163D02*
X23296Y41243D01*
X23376Y41163D01*
X23296Y41083D01*
X23216Y41163D01*
X26216Y33973D02*
X26256D01*
X26296Y34013D01*
X26336Y33973D01*
X26376D01*
Y34013D01*
X26336Y34053D01*
X26376Y34093D01*
Y34133D01*
X26336D01*
X26296Y34093D01*
X26256Y34133D01*
X26216D01*
Y34093D01*
X26256Y34053D01*
X26216Y34013D01*
Y33973D01*
Y34973D02*
X26256D01*
X26296Y35013D01*
X26336Y34973D01*
X26376D01*
Y35013D01*
X26336Y35053D01*
X26376Y35093D01*
Y35133D01*
X26336D01*
X26296Y35093D01*
X26256Y35133D01*
X26216D01*
Y35093D01*
X26256Y35053D01*
X26216Y35013D01*
Y34973D01*
Y31973D02*
X26256D01*
X26296Y32013D01*
X26336Y31973D01*
X26376D01*
Y32013D01*
X26336Y32053D01*
X26376Y32093D01*
Y32133D01*
X26336D01*
X26296Y32093D01*
X26256Y32133D01*
X26216D01*
Y32093D01*
X26256Y32053D01*
X26216Y32013D01*
Y31973D01*
Y32973D02*
X26256D01*
X26296Y33013D01*
X26336Y32973D01*
X26376D01*
Y33013D01*
X26336Y33053D01*
X26376Y33093D01*
Y33133D01*
X26336D01*
X26296Y33093D01*
X26256Y33133D01*
X26216D01*
Y33093D01*
X26256Y33053D01*
X26216Y33013D01*
Y32973D01*
X25216Y30973D02*
X25256D01*
X25296Y31013D01*
X25336Y30973D01*
X25376D01*
Y31013D01*
X25336Y31053D01*
X25376Y31093D01*
Y31133D01*
X25336D01*
X25296Y31093D01*
X25256Y31133D01*
X25216D01*
Y31093D01*
X25256Y31053D01*
X25216Y31013D01*
Y30973D01*
Y31973D02*
X25256D01*
X25296Y32013D01*
X25336Y31973D01*
X25376D01*
Y32013D01*
X25336Y32053D01*
X25376Y32093D01*
Y32133D01*
X25336D01*
X25296Y32093D01*
X25256Y32133D01*
X25216D01*
Y32093D01*
X25256Y32053D01*
X25216Y32013D01*
Y31973D01*
X26216Y30973D02*
X26256D01*
X26296Y31013D01*
X26336Y30973D01*
X26376D01*
Y31013D01*
X26336Y31053D01*
X26376Y31093D01*
Y31133D01*
X26336D01*
X26296Y31093D01*
X26256Y31133D01*
X26216D01*
Y31093D01*
X26256Y31053D01*
X26216Y31013D01*
Y30973D01*
Y28973D02*
X26256D01*
X26296Y29013D01*
X26336Y28973D01*
X26376D01*
Y29013D01*
X26336Y29053D01*
X26376Y29093D01*
Y29133D01*
X26336D01*
X26296Y29093D01*
X26256Y29133D01*
X26216D01*
Y29093D01*
X26256Y29053D01*
X26216Y29013D01*
Y28973D01*
Y29973D02*
X26256D01*
X26296Y30013D01*
X26336Y29973D01*
X26376D01*
Y30013D01*
X26336Y30053D01*
X26376Y30093D01*
Y30133D01*
X26336D01*
X26296Y30093D01*
X26256Y30133D01*
X26216D01*
Y30093D01*
X26256Y30053D01*
X26216Y30013D01*
Y29973D01*
Y27973D02*
X26256D01*
X26296Y28013D01*
X26336Y27973D01*
X26376D01*
Y28013D01*
X26336Y28053D01*
X26376Y28093D01*
Y28133D01*
X26336D01*
X26296Y28093D01*
X26256Y28133D01*
X26216D01*
Y28093D01*
X26256Y28053D01*
X26216Y28013D01*
Y27973D01*
Y26973D02*
X26256D01*
X26296Y27013D01*
X26336Y26973D01*
X26376D01*
Y27013D01*
X26336Y27053D01*
X26376Y27093D01*
Y27133D01*
X26336D01*
X26296Y27093D01*
X26256Y27133D01*
X26216D01*
Y27093D01*
X26256Y27053D01*
X26216Y27013D01*
Y26973D01*
X25216Y29973D02*
X25256D01*
X25296Y30013D01*
X25336Y29973D01*
X25376D01*
Y30013D01*
X25336Y30053D01*
X25376Y30093D01*
Y30133D01*
X25336D01*
X25296Y30093D01*
X25256Y30133D01*
X25216D01*
Y30093D01*
X25256Y30053D01*
X25216Y30013D01*
Y29973D01*
X26216Y25973D02*
X26256D01*
X26296Y26013D01*
X26336Y25973D01*
X26376D01*
Y26013D01*
X26336Y26053D01*
X26376Y26093D01*
Y26133D01*
X26336D01*
X26296Y26093D01*
X26256Y26133D01*
X26216D01*
Y26093D01*
X26256Y26053D01*
X26216Y26013D01*
Y25973D01*
X25216Y33973D02*
X25256D01*
X25296Y34013D01*
X25336Y33973D01*
X25376D01*
Y34013D01*
X25336Y34053D01*
X25376Y34093D01*
Y34133D01*
X25336D01*
X25296Y34093D01*
X25256Y34133D01*
X25216D01*
Y34093D01*
X25256Y34053D01*
X25216Y34013D01*
Y33973D01*
Y34973D02*
X25256D01*
X25296Y35013D01*
X25336Y34973D01*
X25376D01*
Y35013D01*
X25336Y35053D01*
X25376Y35093D01*
Y35133D01*
X25336D01*
X25296Y35093D01*
X25256Y35133D01*
X25216D01*
Y35093D01*
X25256Y35053D01*
X25216Y35013D01*
Y34973D01*
Y32973D02*
X25256D01*
X25296Y33013D01*
X25336Y32973D01*
X25376D01*
Y33013D01*
X25336Y33053D01*
X25376Y33093D01*
Y33133D01*
X25336D01*
X25296Y33093D01*
X25256Y33133D01*
X25216D01*
Y33093D01*
X25256Y33053D01*
X25216Y33013D01*
Y32973D01*
Y27973D02*
X25256D01*
X25296Y28013D01*
X25336Y27973D01*
X25376D01*
Y28013D01*
X25336Y28053D01*
X25376Y28093D01*
Y28133D01*
X25336D01*
X25296Y28093D01*
X25256Y28133D01*
X25216D01*
Y28093D01*
X25256Y28053D01*
X25216Y28013D01*
Y27973D01*
Y28973D02*
X25256D01*
X25296Y29013D01*
X25336Y28973D01*
X25376D01*
Y29013D01*
X25336Y29053D01*
X25376Y29093D01*
Y29133D01*
X25336D01*
X25296Y29093D01*
X25256Y29133D01*
X25216D01*
Y29093D01*
X25256Y29053D01*
X25216Y29013D01*
Y28973D01*
Y25973D02*
X25256D01*
X25296Y26013D01*
X25336Y25973D01*
X25376D01*
Y26013D01*
X25336Y26053D01*
X25376Y26093D01*
Y26133D01*
X25336D01*
X25296Y26093D01*
X25256Y26133D01*
X25216D01*
Y26093D01*
X25256Y26053D01*
X25216Y26013D01*
Y25973D01*
Y26973D02*
X25256D01*
X25296Y27013D01*
X25336Y26973D01*
X25376D01*
Y27013D01*
X25336Y27053D01*
X25376Y27093D01*
Y27133D01*
X25336D01*
X25296Y27093D01*
X25256Y27133D01*
X25216D01*
Y27093D01*
X25256Y27053D01*
X25216Y27013D01*
Y26973D01*
X23216Y39583D02*
X23256D01*
X23296Y39623D01*
X23336Y39583D01*
X23376D01*
Y39623D01*
X23336Y39663D01*
X23376Y39703D01*
Y39743D01*
X23336D01*
X23296Y39703D01*
X23256Y39743D01*
X23216D01*
Y39703D01*
X23256Y39663D01*
X23216Y39623D01*
Y39583D01*
Y37583D02*
X23256D01*
X23296Y37623D01*
X23336Y37583D01*
X23376D01*
Y37623D01*
X23336Y37663D01*
X23376Y37703D01*
Y37743D01*
X23336D01*
X23296Y37703D01*
X23256Y37743D01*
X23216D01*
Y37703D01*
X23256Y37663D01*
X23216Y37623D01*
Y37583D01*
Y38583D02*
X23256D01*
X23296Y38623D01*
X23336Y38583D01*
X23376D01*
Y38623D01*
X23336Y38663D01*
X23376Y38703D01*
Y38743D01*
X23336D01*
X23296Y38703D01*
X23256Y38743D01*
X23216D01*
Y38703D01*
X23256Y38663D01*
X23216Y38623D01*
Y38583D01*
X22216Y39583D02*
X22256D01*
X22296Y39623D01*
X22336Y39583D01*
X22376D01*
Y39623D01*
X22336Y39663D01*
X22376Y39703D01*
Y39743D01*
X22336D01*
X22296Y39703D01*
X22256Y39743D01*
X22216D01*
Y39703D01*
X22256Y39663D01*
X22216Y39623D01*
Y39583D01*
Y38583D02*
X22256D01*
X22296Y38623D01*
X22336Y38583D01*
X22376D01*
Y38623D01*
X22336Y38663D01*
X22376Y38703D01*
Y38743D01*
X22336D01*
X22296Y38703D01*
X22256Y38743D01*
X22216D01*
Y38703D01*
X22256Y38663D01*
X22216Y38623D01*
Y38583D01*
X23216Y36583D02*
X23256D01*
X23296Y36623D01*
X23336Y36583D01*
X23376D01*
Y36623D01*
X23336Y36663D01*
X23376Y36703D01*
Y36743D01*
X23336D01*
X23296Y36703D01*
X23256Y36743D01*
X23216D01*
Y36703D01*
X23256Y36663D01*
X23216Y36623D01*
Y36583D01*
Y35583D02*
X23256D01*
X23296Y35623D01*
X23336Y35583D01*
X23376D01*
Y35623D01*
X23336Y35663D01*
X23376Y35703D01*
Y35743D01*
X23336D01*
X23296Y35703D01*
X23256Y35743D01*
X23216D01*
Y35703D01*
X23256Y35663D01*
X23216Y35623D01*
Y35583D01*
X22216Y37583D02*
X22256D01*
X22296Y37623D01*
X22336Y37583D01*
X22376D01*
Y37623D01*
X22336Y37663D01*
X22376Y37703D01*
Y37743D01*
X22336D01*
X22296Y37703D01*
X22256Y37743D01*
X22216D01*
Y37703D01*
X22256Y37663D01*
X22216Y37623D01*
Y37583D01*
Y36583D02*
X22256D01*
X22296Y36623D01*
X22336Y36583D01*
X22376D01*
Y36623D01*
X22336Y36663D01*
X22376Y36703D01*
Y36743D01*
X22336D01*
X22296Y36703D01*
X22256Y36743D01*
X22216D01*
Y36703D01*
X22256Y36663D01*
X22216Y36623D01*
Y36583D01*
X23216Y33583D02*
X23256D01*
X23296Y33623D01*
X23336Y33583D01*
X23376D01*
Y33623D01*
X23336Y33663D01*
X23376Y33703D01*
Y33743D01*
X23336D01*
X23296Y33703D01*
X23256Y33743D01*
X23216D01*
Y33703D01*
X23256Y33663D01*
X23216Y33623D01*
Y33583D01*
Y34583D02*
X23256D01*
X23296Y34623D01*
X23336Y34583D01*
X23376D01*
Y34623D01*
X23336Y34663D01*
X23376Y34703D01*
Y34743D01*
X23336D01*
X23296Y34703D01*
X23256Y34743D01*
X23216D01*
Y34703D01*
X23256Y34663D01*
X23216Y34623D01*
Y34583D01*
Y31583D02*
X23256D01*
X23296Y31623D01*
X23336Y31583D01*
X23376D01*
Y31623D01*
X23336Y31663D01*
X23376Y31703D01*
Y31743D01*
X23336D01*
X23296Y31703D01*
X23256Y31743D01*
X23216D01*
Y31703D01*
X23256Y31663D01*
X23216Y31623D01*
Y31583D01*
Y32583D02*
X23256D01*
X23296Y32623D01*
X23336Y32583D01*
X23376D01*
Y32623D01*
X23336Y32663D01*
X23376Y32703D01*
Y32743D01*
X23336D01*
X23296Y32703D01*
X23256Y32743D01*
X23216D01*
Y32703D01*
X23256Y32663D01*
X23216Y32623D01*
Y32583D01*
X22216Y33583D02*
X22256D01*
X22296Y33623D01*
X22336Y33583D01*
X22376D01*
Y33623D01*
X22336Y33663D01*
X22376Y33703D01*
Y33743D01*
X22336D01*
X22296Y33703D01*
X22256Y33743D01*
X22216D01*
Y33703D01*
X22256Y33663D01*
X22216Y33623D01*
Y33583D01*
X23216Y25983D02*
X23256D01*
X23296Y26023D01*
X23336Y25983D01*
X23376D01*
Y26023D01*
X23336Y26063D01*
X23376Y26103D01*
Y26143D01*
X23336D01*
X23296Y26103D01*
X23256Y26143D01*
X23216D01*
Y26103D01*
X23256Y26063D01*
X23216Y26023D01*
Y25983D01*
Y26983D02*
X23256D01*
X23296Y27023D01*
X23336Y26983D01*
X23376D01*
Y27023D01*
X23336Y27063D01*
X23376Y27103D01*
Y27143D01*
X23336D01*
X23296Y27103D01*
X23256Y27143D01*
X23216D01*
Y27103D01*
X23256Y27063D01*
X23216Y27023D01*
Y26983D01*
Y24983D02*
X23256D01*
X23296Y25023D01*
X23336Y24983D01*
X23376D01*
Y25023D01*
X23336Y25063D01*
X23376Y25103D01*
Y25143D01*
X23336D01*
X23296Y25103D01*
X23256Y25143D01*
X23216D01*
Y25103D01*
X23256Y25063D01*
X23216Y25023D01*
Y24983D01*
Y28983D02*
X23256D01*
X23296Y29023D01*
X23336Y28983D01*
X23376D01*
Y29023D01*
X23336Y29063D01*
X23376Y29103D01*
Y29143D01*
X23336D01*
X23296Y29103D01*
X23256Y29143D01*
X23216D01*
Y29103D01*
X23256Y29063D01*
X23216Y29023D01*
Y28983D01*
Y30583D02*
X23256D01*
X23296Y30623D01*
X23336Y30583D01*
X23376D01*
Y30623D01*
X23336Y30663D01*
X23376Y30703D01*
Y30743D01*
X23336D01*
X23296Y30703D01*
X23256Y30743D01*
X23216D01*
Y30703D01*
X23256Y30663D01*
X23216Y30623D01*
Y30583D01*
Y27983D02*
X23256D01*
X23296Y28023D01*
X23336Y27983D01*
X23376D01*
Y28023D01*
X23336Y28063D01*
X23376Y28103D01*
Y28143D01*
X23336D01*
X23296Y28103D01*
X23256Y28143D01*
X23216D01*
Y28103D01*
X23256Y28063D01*
X23216Y28023D01*
Y27983D01*
X22216Y34583D02*
X22256D01*
X22296Y34623D01*
X22336Y34583D01*
X22376D01*
Y34623D01*
X22336Y34663D01*
X22376Y34703D01*
Y34743D01*
X22336D01*
X22296Y34703D01*
X22256Y34743D01*
X22216D01*
Y34703D01*
X22256Y34663D01*
X22216Y34623D01*
Y34583D01*
Y35583D02*
X22256D01*
X22296Y35623D01*
X22336Y35583D01*
X22376D01*
Y35623D01*
X22336Y35663D01*
X22376Y35703D01*
Y35743D01*
X22336D01*
X22296Y35703D01*
X22256Y35743D01*
X22216D01*
Y35703D01*
X22256Y35663D01*
X22216Y35623D01*
Y35583D01*
Y31583D02*
X22256D01*
X22296Y31623D01*
X22336Y31583D01*
X22376D01*
Y31623D01*
X22336Y31663D01*
X22376Y31703D01*
Y31743D01*
X22336D01*
X22296Y31703D01*
X22256Y31743D01*
X22216D01*
Y31703D01*
X22256Y31663D01*
X22216Y31623D01*
Y31583D01*
Y32583D02*
X22256D01*
X22296Y32623D01*
X22336Y32583D01*
X22376D01*
Y32623D01*
X22336Y32663D01*
X22376Y32703D01*
Y32743D01*
X22336D01*
X22296Y32703D01*
X22256Y32743D01*
X22216D01*
Y32703D01*
X22256Y32663D01*
X22216Y32623D01*
Y32583D01*
Y30583D02*
X22256D01*
X22296Y30623D01*
X22336Y30583D01*
X22376D01*
Y30623D01*
X22336Y30663D01*
X22376Y30703D01*
Y30743D01*
X22336D01*
X22296Y30703D01*
X22256Y30743D01*
X22216D01*
Y30703D01*
X22256Y30663D01*
X22216Y30623D01*
Y30583D01*
Y25983D02*
X22256D01*
X22296Y26023D01*
X22336Y25983D01*
X22376D01*
Y26023D01*
X22336Y26063D01*
X22376Y26103D01*
Y26143D01*
X22336D01*
X22296Y26103D01*
X22256Y26143D01*
X22216D01*
Y26103D01*
X22256Y26063D01*
X22216Y26023D01*
Y25983D01*
Y26983D02*
X22256D01*
X22296Y27023D01*
X22336Y26983D01*
X22376D01*
Y27023D01*
X22336Y27063D01*
X22376Y27103D01*
Y27143D01*
X22336D01*
X22296Y27103D01*
X22256Y27143D01*
X22216D01*
Y27103D01*
X22256Y27063D01*
X22216Y27023D01*
Y26983D01*
Y24983D02*
X22256D01*
X22296Y25023D01*
X22336Y24983D01*
X22376D01*
Y25023D01*
X22336Y25063D01*
X22376Y25103D01*
Y25143D01*
X22336D01*
X22296Y25103D01*
X22256Y25143D01*
X22216D01*
Y25103D01*
X22256Y25063D01*
X22216Y25023D01*
Y24983D01*
Y28983D02*
X22256D01*
X22296Y29023D01*
X22336Y28983D01*
X22376D01*
Y29023D01*
X22336Y29063D01*
X22376Y29103D01*
Y29143D01*
X22336D01*
X22296Y29103D01*
X22256Y29143D01*
X22216D01*
Y29103D01*
X22256Y29063D01*
X22216Y29023D01*
Y28983D01*
Y27983D02*
X22256D01*
X22296Y28023D01*
X22336Y27983D01*
X22376D01*
Y28023D01*
X22336Y28063D01*
X22376Y28103D01*
Y28143D01*
X22336D01*
X22296Y28103D01*
X22256Y28143D01*
X22216D01*
Y28103D01*
X22256Y28063D01*
X22216Y28023D01*
Y27983D01*
X26216Y20973D02*
X26256D01*
X26296Y21013D01*
X26336Y20973D01*
X26376D01*
Y21013D01*
X26336Y21053D01*
X26376Y21093D01*
Y21133D01*
X26336D01*
X26296Y21093D01*
X26256Y21133D01*
X26216D01*
Y21093D01*
X26256Y21053D01*
X26216Y21013D01*
Y20973D01*
Y21973D02*
X26256D01*
X26296Y22013D01*
X26336Y21973D01*
X26376D01*
Y22013D01*
X26336Y22053D01*
X26376Y22093D01*
Y22133D01*
X26336D01*
X26296Y22093D01*
X26256Y22133D01*
X26216D01*
Y22093D01*
X26256Y22053D01*
X26216Y22013D01*
Y21973D01*
Y17973D02*
X26256D01*
X26296Y18013D01*
X26336Y17973D01*
X26376D01*
Y18013D01*
X26336Y18053D01*
X26376Y18093D01*
Y18133D01*
X26336D01*
X26296Y18093D01*
X26256Y18133D01*
X26216D01*
Y18093D01*
X26256Y18053D01*
X26216Y18013D01*
Y17973D01*
Y18973D02*
X26256D01*
X26296Y19013D01*
X26336Y18973D01*
X26376D01*
Y19013D01*
X26336Y19053D01*
X26376Y19093D01*
Y19133D01*
X26336D01*
X26296Y19093D01*
X26256Y19133D01*
X26216D01*
Y19093D01*
X26256Y19053D01*
X26216Y19013D01*
Y18973D01*
Y23973D02*
X26256D01*
X26296Y24013D01*
X26336Y23973D01*
X26376D01*
Y24013D01*
X26336Y24053D01*
X26376Y24093D01*
Y24133D01*
X26336D01*
X26296Y24093D01*
X26256Y24133D01*
X26216D01*
Y24093D01*
X26256Y24053D01*
X26216Y24013D01*
Y23973D01*
Y24973D02*
X26256D01*
X26296Y25013D01*
X26336Y24973D01*
X26376D01*
Y25013D01*
X26336Y25053D01*
X26376Y25093D01*
Y25133D01*
X26336D01*
X26296Y25093D01*
X26256Y25133D01*
X26216D01*
Y25093D01*
X26256Y25053D01*
X26216Y25013D01*
Y24973D01*
Y22973D02*
X26256D01*
X26296Y23013D01*
X26336Y22973D01*
X26376D01*
Y23013D01*
X26336Y23053D01*
X26376Y23093D01*
Y23133D01*
X26336D01*
X26296Y23093D01*
X26256Y23133D01*
X26216D01*
Y23093D01*
X26256Y23053D01*
X26216Y23013D01*
Y22973D01*
X25216D02*
X25256D01*
X25296Y23013D01*
X25336Y22973D01*
X25376D01*
Y23013D01*
X25336Y23053D01*
X25376Y23093D01*
Y23133D01*
X25336D01*
X25296Y23093D01*
X25256Y23133D01*
X25216D01*
Y23093D01*
X25256Y23053D01*
X25216Y23013D01*
Y22973D01*
Y23973D02*
X25256D01*
X25296Y24013D01*
X25336Y23973D01*
X25376D01*
Y24013D01*
X25336Y24053D01*
X25376Y24093D01*
Y24133D01*
X25336D01*
X25296Y24093D01*
X25256Y24133D01*
X25216D01*
Y24093D01*
X25256Y24053D01*
X25216Y24013D01*
Y23973D01*
X26216Y19973D02*
X26256D01*
X26296Y20013D01*
X26336Y19973D01*
X26376D01*
Y20013D01*
X26336Y20053D01*
X26376Y20093D01*
Y20133D01*
X26336D01*
X26296Y20093D01*
X26256Y20133D01*
X26216D01*
Y20093D01*
X26256Y20053D01*
X26216Y20013D01*
Y19973D01*
X25216Y21973D02*
X25256D01*
X25296Y22013D01*
X25336Y21973D01*
X25376D01*
Y22013D01*
X25336Y22053D01*
X25376Y22093D01*
Y22133D01*
X25336D01*
X25296Y22093D01*
X25256Y22133D01*
X25216D01*
Y22093D01*
X25256Y22053D01*
X25216Y22013D01*
Y21973D01*
Y19973D02*
X25256D01*
X25296Y20013D01*
X25336Y19973D01*
X25376D01*
Y20013D01*
X25336Y20053D01*
X25376Y20093D01*
Y20133D01*
X25336D01*
X25296Y20093D01*
X25256Y20133D01*
X25216D01*
Y20093D01*
X25256Y20053D01*
X25216Y20013D01*
Y19973D01*
Y20973D02*
X25256D01*
X25296Y21013D01*
X25336Y20973D01*
X25376D01*
Y21013D01*
X25336Y21053D01*
X25376Y21093D01*
Y21133D01*
X25336D01*
X25296Y21093D01*
X25256Y21133D01*
X25216D01*
Y21093D01*
X25256Y21053D01*
X25216Y21013D01*
Y20973D01*
Y18973D02*
X25256D01*
X25296Y19013D01*
X25336Y18973D01*
X25376D01*
Y19013D01*
X25336Y19053D01*
X25376Y19093D01*
Y19133D01*
X25336D01*
X25296Y19093D01*
X25256Y19133D01*
X25216D01*
Y19093D01*
X25256Y19053D01*
X25216Y19013D01*
Y18973D01*
X26216Y15973D02*
X26256D01*
X26296Y16013D01*
X26336Y15973D01*
X26376D01*
Y16013D01*
X26336Y16053D01*
X26376Y16093D01*
Y16133D01*
X26336D01*
X26296Y16093D01*
X26256Y16133D01*
X26216D01*
Y16093D01*
X26256Y16053D01*
X26216Y16013D01*
Y15973D01*
Y16973D02*
X26256D01*
X26296Y17013D01*
X26336Y16973D01*
X26376D01*
Y17013D01*
X26336Y17053D01*
X26376Y17093D01*
Y17133D01*
X26336D01*
X26296Y17093D01*
X26256Y17133D01*
X26216D01*
Y17093D01*
X26256Y17053D01*
X26216Y17013D01*
Y16973D01*
Y14973D02*
X26256D01*
X26296Y15013D01*
X26336Y14973D01*
X26376D01*
Y15013D01*
X26336Y15053D01*
X26376Y15093D01*
Y15133D01*
X26336D01*
X26296Y15093D01*
X26256Y15133D01*
X26216D01*
Y15093D01*
X26256Y15053D01*
X26216Y15013D01*
Y14973D01*
X25216Y16973D02*
X25256D01*
X25296Y17013D01*
X25336Y16973D01*
X25376D01*
Y17013D01*
X25336Y17053D01*
X25376Y17093D01*
Y17133D01*
X25336D01*
X25296Y17093D01*
X25256Y17133D01*
X25216D01*
Y17093D01*
X25256Y17053D01*
X25216Y17013D01*
Y16973D01*
Y17973D02*
X25256D01*
X25296Y18013D01*
X25336Y17973D01*
X25376D01*
Y18013D01*
X25336Y18053D01*
X25376Y18093D01*
Y18133D01*
X25336D01*
X25296Y18093D01*
X25256Y18133D01*
X25216D01*
Y18093D01*
X25256Y18053D01*
X25216Y18013D01*
Y17973D01*
Y15973D02*
X25256D01*
X25296Y16013D01*
X25336Y15973D01*
X25376D01*
Y16013D01*
X25336Y16053D01*
X25376Y16093D01*
Y16133D01*
X25336D01*
X25296Y16093D01*
X25256Y16133D01*
X25216D01*
Y16093D01*
X25256Y16053D01*
X25216Y16013D01*
Y15973D01*
X26216Y12973D02*
X26256D01*
X26296Y13013D01*
X26336Y12973D01*
X26376D01*
Y13013D01*
X26336Y13053D01*
X26376Y13093D01*
Y13133D01*
X26336D01*
X26296Y13093D01*
X26256Y13133D01*
X26216D01*
Y13093D01*
X26256Y13053D01*
X26216Y13013D01*
Y12973D01*
Y13973D02*
X26256D01*
X26296Y14013D01*
X26336Y13973D01*
X26376D01*
Y14013D01*
X26336Y14053D01*
X26376Y14093D01*
Y14133D01*
X26336D01*
X26296Y14093D01*
X26256Y14133D01*
X26216D01*
Y14093D01*
X26256Y14053D01*
X26216Y14013D01*
Y13973D01*
Y10973D02*
X26256D01*
X26296Y11013D01*
X26336Y10973D01*
X26376D01*
Y11013D01*
X26336Y11053D01*
X26376Y11093D01*
Y11133D01*
X26336D01*
X26296Y11093D01*
X26256Y11133D01*
X26216D01*
Y11093D01*
X26256Y11053D01*
X26216Y11013D01*
Y10973D01*
Y11973D02*
X26256D01*
X26296Y12013D01*
X26336Y11973D01*
X26376D01*
Y12013D01*
X26336Y12053D01*
X26376Y12093D01*
Y12133D01*
X26336D01*
X26296Y12093D01*
X26256Y12133D01*
X26216D01*
Y12093D01*
X26256Y12053D01*
X26216Y12013D01*
Y11973D01*
X25216Y13973D02*
X25256D01*
X25296Y14013D01*
X25336Y13973D01*
X25376D01*
Y14013D01*
X25336Y14053D01*
X25376Y14093D01*
Y14133D01*
X25336D01*
X25296Y14093D01*
X25256Y14133D01*
X25216D01*
Y14093D01*
X25256Y14053D01*
X25216Y14013D01*
Y13973D01*
Y14973D02*
X25256D01*
X25296Y15013D01*
X25336Y14973D01*
X25376D01*
Y15013D01*
X25336Y15053D01*
X25376Y15093D01*
Y15133D01*
X25336D01*
X25296Y15093D01*
X25256Y15133D01*
X25216D01*
Y15093D01*
X25256Y15053D01*
X25216Y15013D01*
Y14973D01*
Y11973D02*
X25256D01*
X25296Y12013D01*
X25336Y11973D01*
X25376D01*
Y12013D01*
X25336Y12053D01*
X25376Y12093D01*
Y12133D01*
X25336D01*
X25296Y12093D01*
X25256Y12133D01*
X25216D01*
Y12093D01*
X25256Y12053D01*
X25216Y12013D01*
Y11973D01*
X26216Y5973D02*
X26256D01*
X26296Y6013D01*
X26336Y5973D01*
X26376D01*
Y6013D01*
X26336Y6053D01*
X26376Y6093D01*
Y6133D01*
X26336D01*
X26296Y6093D01*
X26256Y6133D01*
X26216D01*
Y6093D01*
X26256Y6053D01*
X26216Y6013D01*
Y5973D01*
Y6973D02*
X26256D01*
X26296Y7013D01*
X26336Y6973D01*
X26376D01*
Y7013D01*
X26336Y7053D01*
X26376Y7093D01*
Y7133D01*
X26336D01*
X26296Y7093D01*
X26256Y7133D01*
X26216D01*
Y7093D01*
X26256Y7053D01*
X26216Y7013D01*
Y6973D01*
Y4973D02*
X26256D01*
X26296Y5013D01*
X26336Y4973D01*
X26376D01*
Y5013D01*
X26336Y5053D01*
X26376Y5093D01*
Y5133D01*
X26336D01*
X26296Y5093D01*
X26256Y5133D01*
X26216D01*
Y5093D01*
X26256Y5053D01*
X26216Y5013D01*
Y4973D01*
Y8973D02*
X26256D01*
X26296Y9013D01*
X26336Y8973D01*
X26376D01*
Y9013D01*
X26336Y9053D01*
X26376Y9093D01*
Y9133D01*
X26336D01*
X26296Y9093D01*
X26256Y9133D01*
X26216D01*
Y9093D01*
X26256Y9053D01*
X26216Y9013D01*
Y8973D01*
Y9973D02*
X26256D01*
X26296Y10013D01*
X26336Y9973D01*
X26376D01*
Y10013D01*
X26336Y10053D01*
X26376Y10093D01*
Y10133D01*
X26336D01*
X26296Y10093D01*
X26256Y10133D01*
X26216D01*
Y10093D01*
X26256Y10053D01*
X26216Y10013D01*
Y9973D01*
Y7973D02*
X26256D01*
X26296Y8013D01*
X26336Y7973D01*
X26376D01*
Y8013D01*
X26336Y8053D01*
X26376Y8093D01*
Y8133D01*
X26336D01*
X26296Y8093D01*
X26256Y8133D01*
X26216D01*
Y8093D01*
X26256Y8053D01*
X26216Y8013D01*
Y7973D01*
X25216Y6973D02*
X25256D01*
X25296Y7013D01*
X25336Y6973D01*
X25376D01*
Y7013D01*
X25336Y7053D01*
X25376Y7093D01*
Y7133D01*
X25336D01*
X25296Y7093D01*
X25256Y7133D01*
X25216D01*
Y7093D01*
X25256Y7053D01*
X25216Y7013D01*
Y6973D01*
Y7973D02*
X25256D01*
X25296Y8013D01*
X25336Y7973D01*
X25376D01*
Y8013D01*
X25336Y8053D01*
X25376Y8093D01*
Y8133D01*
X25336D01*
X25296Y8093D01*
X25256Y8133D01*
X25216D01*
Y8093D01*
X25256Y8053D01*
X25216Y8013D01*
Y7973D01*
Y4973D02*
X25256D01*
X25296Y5013D01*
X25336Y4973D01*
X25376D01*
Y5013D01*
X25336Y5053D01*
X25376Y5093D01*
Y5133D01*
X25336D01*
X25296Y5093D01*
X25256Y5133D01*
X25216D01*
Y5093D01*
X25256Y5053D01*
X25216Y5013D01*
Y4973D01*
Y5973D02*
X25256D01*
X25296Y6013D01*
X25336Y5973D01*
X25376D01*
Y6013D01*
X25336Y6053D01*
X25376Y6093D01*
Y6133D01*
X25336D01*
X25296Y6093D01*
X25256Y6133D01*
X25216D01*
Y6093D01*
X25256Y6053D01*
X25216Y6013D01*
Y5973D01*
Y9973D02*
X25256D01*
X25296Y10013D01*
X25336Y9973D01*
X25376D01*
Y10013D01*
X25336Y10053D01*
X25376Y10093D01*
Y10133D01*
X25336D01*
X25296Y10093D01*
X25256Y10133D01*
X25216D01*
Y10093D01*
X25256Y10053D01*
X25216Y10013D01*
Y9973D01*
Y12973D02*
X25256D01*
X25296Y13013D01*
X25336Y12973D01*
X25376D01*
Y13013D01*
X25336Y13053D01*
X25376Y13093D01*
Y13133D01*
X25336D01*
X25296Y13093D01*
X25256Y13133D01*
X25216D01*
Y13093D01*
X25256Y13053D01*
X25216Y13013D01*
Y12973D01*
Y8973D02*
X25256D01*
X25296Y9013D01*
X25336Y8973D01*
X25376D01*
Y9013D01*
X25336Y9053D01*
X25376Y9093D01*
Y9133D01*
X25336D01*
X25296Y9093D01*
X25256Y9133D01*
X25216D01*
Y9093D01*
X25256Y9053D01*
X25216Y9013D01*
Y8973D01*
Y24973D02*
X25256D01*
X25296Y25013D01*
X25336Y24973D01*
X25376D01*
Y25013D01*
X25336Y25053D01*
X25376Y25093D01*
Y25133D01*
X25336D01*
X25296Y25093D01*
X25256Y25133D01*
X25216D01*
Y25093D01*
X25256Y25053D01*
X25216Y25013D01*
Y24973D01*
X23216Y23983D02*
X23256D01*
X23296Y24023D01*
X23336Y23983D01*
X23376D01*
Y24023D01*
X23336Y24063D01*
X23376Y24103D01*
Y24143D01*
X23336D01*
X23296Y24103D01*
X23256Y24143D01*
X23216D01*
Y24103D01*
X23256Y24063D01*
X23216Y24023D01*
Y23983D01*
Y21983D02*
X23256D01*
X23296Y22023D01*
X23336Y21983D01*
X23376D01*
Y22023D01*
X23336Y22063D01*
X23376Y22103D01*
Y22143D01*
X23336D01*
X23296Y22103D01*
X23256Y22143D01*
X23216D01*
Y22103D01*
X23256Y22063D01*
X23216Y22023D01*
Y21983D01*
Y22983D02*
X23256D01*
X23296Y23023D01*
X23336Y22983D01*
X23376D01*
Y23023D01*
X23336Y23063D01*
X23376Y23103D01*
Y23143D01*
X23336D01*
X23296Y23103D01*
X23256Y23143D01*
X23216D01*
Y23103D01*
X23256Y23063D01*
X23216Y23023D01*
Y22983D01*
Y19983D02*
X23256D01*
X23296Y20023D01*
X23336Y19983D01*
X23376D01*
Y20023D01*
X23336Y20063D01*
X23376Y20103D01*
Y20143D01*
X23336D01*
X23296Y20103D01*
X23256Y20143D01*
X23216D01*
Y20103D01*
X23256Y20063D01*
X23216Y20023D01*
Y19983D01*
Y20983D02*
X23256D01*
X23296Y21023D01*
X23336Y20983D01*
X23376D01*
Y21023D01*
X23336Y21063D01*
X23376Y21103D01*
Y21143D01*
X23336D01*
X23296Y21103D01*
X23256Y21143D01*
X23216D01*
Y21103D01*
X23256Y21063D01*
X23216Y21023D01*
Y20983D01*
Y18983D02*
X23256D01*
X23296Y19023D01*
X23336Y18983D01*
X23376D01*
Y19023D01*
X23336Y19063D01*
X23376Y19103D01*
Y19143D01*
X23336D01*
X23296Y19103D01*
X23256Y19143D01*
X23216D01*
Y19103D01*
X23256Y19063D01*
X23216Y19023D01*
Y18983D01*
X22216Y22983D02*
X22256D01*
X22296Y23023D01*
X22336Y22983D01*
X22376D01*
Y23023D01*
X22336Y23063D01*
X22376Y23103D01*
Y23143D01*
X22336D01*
X22296Y23103D01*
X22256Y23143D01*
X22216D01*
Y23103D01*
X22256Y23063D01*
X22216Y23023D01*
Y22983D01*
Y23983D02*
X22256D01*
X22296Y24023D01*
X22336Y23983D01*
X22376D01*
Y24023D01*
X22336Y24063D01*
X22376Y24103D01*
Y24143D01*
X22336D01*
X22296Y24103D01*
X22256Y24143D01*
X22216D01*
Y24103D01*
X22256Y24063D01*
X22216Y24023D01*
Y23983D01*
Y21983D02*
X22256D01*
X22296Y22023D01*
X22336Y21983D01*
X22376D01*
Y22023D01*
X22336Y22063D01*
X22376Y22103D01*
Y22143D01*
X22336D01*
X22296Y22103D01*
X22256Y22143D01*
X22216D01*
Y22103D01*
X22256Y22063D01*
X22216Y22023D01*
Y21983D01*
X17216Y21163D02*
X17296Y21243D01*
X17376Y21163D01*
X17296Y21083D01*
X17216Y21163D01*
X22216Y20983D02*
X22256D01*
X22296Y21023D01*
X22336Y20983D01*
X22376D01*
Y21023D01*
X22336Y21063D01*
X22376Y21103D01*
Y21143D01*
X22336D01*
X22296Y21103D01*
X22256Y21143D01*
X22216D01*
Y21103D01*
X22256Y21063D01*
X22216Y21023D01*
Y20983D01*
Y18983D02*
X22256D01*
X22296Y19023D01*
X22336Y18983D01*
X22376D01*
Y19023D01*
X22336Y19063D01*
X22376Y19103D01*
Y19143D01*
X22336D01*
X22296Y19103D01*
X22256Y19143D01*
X22216D01*
Y19103D01*
X22256Y19063D01*
X22216Y19023D01*
Y18983D01*
Y19983D02*
X22256D01*
X22296Y20023D01*
X22336Y19983D01*
X22376D01*
Y20023D01*
X22336Y20063D01*
X22376Y20103D01*
Y20143D01*
X22336D01*
X22296Y20103D01*
X22256Y20143D01*
X22216D01*
Y20103D01*
X22256Y20063D01*
X22216Y20023D01*
Y19983D01*
Y17983D02*
X22256D01*
X22296Y18023D01*
X22336Y17983D01*
X22376D01*
Y18023D01*
X22336Y18063D01*
X22376Y18103D01*
Y18143D01*
X22336D01*
X22296Y18103D01*
X22256Y18143D01*
X22216D01*
Y18103D01*
X22256Y18063D01*
X22216Y18023D01*
Y17983D01*
X23216Y16983D02*
X23256D01*
X23296Y17023D01*
X23336Y16983D01*
X23376D01*
Y17023D01*
X23336Y17063D01*
X23376Y17103D01*
Y17143D01*
X23336D01*
X23296Y17103D01*
X23256Y17143D01*
X23216D01*
Y17103D01*
X23256Y17063D01*
X23216Y17023D01*
Y16983D01*
Y17983D02*
X23256D01*
X23296Y18023D01*
X23336Y17983D01*
X23376D01*
Y18023D01*
X23336Y18063D01*
X23376Y18103D01*
Y18143D01*
X23336D01*
X23296Y18103D01*
X23256Y18143D01*
X23216D01*
Y18103D01*
X23256Y18063D01*
X23216Y18023D01*
Y17983D01*
Y14983D02*
X23256D01*
X23296Y15023D01*
X23336Y14983D01*
X23376D01*
Y15023D01*
X23336Y15063D01*
X23376Y15103D01*
Y15143D01*
X23336D01*
X23296Y15103D01*
X23256Y15143D01*
X23216D01*
Y15103D01*
X23256Y15063D01*
X23216Y15023D01*
Y14983D01*
Y15983D02*
X23256D01*
X23296Y16023D01*
X23336Y15983D01*
X23376D01*
Y16023D01*
X23336Y16063D01*
X23376Y16103D01*
Y16143D01*
X23336D01*
X23296Y16103D01*
X23256Y16143D01*
X23216D01*
Y16103D01*
X23256Y16063D01*
X23216Y16023D01*
Y15983D01*
X22216D02*
X22256D01*
X22296Y16023D01*
X22336Y15983D01*
X22376D01*
Y16023D01*
X22336Y16063D01*
X22376Y16103D01*
Y16143D01*
X22336D01*
X22296Y16103D01*
X22256Y16143D01*
X22216D01*
Y16103D01*
X22256Y16063D01*
X22216Y16023D01*
Y15983D01*
Y16983D02*
X22256D01*
X22296Y17023D01*
X22336Y16983D01*
X22376D01*
Y17023D01*
X22336Y17063D01*
X22376Y17103D01*
Y17143D01*
X22336D01*
X22296Y17103D01*
X22256Y17143D01*
X22216D01*
Y17103D01*
X22256Y17063D01*
X22216Y17023D01*
Y16983D01*
Y14983D02*
X22256D01*
X22296Y15023D01*
X22336Y14983D01*
X22376D01*
Y15023D01*
X22336Y15063D01*
X22376Y15103D01*
Y15143D01*
X22336D01*
X22296Y15103D01*
X22256Y15143D01*
X22216D01*
Y15103D01*
X22256Y15063D01*
X22216Y15023D01*
Y14983D01*
X23216Y12983D02*
X23256D01*
X23296Y13023D01*
X23336Y12983D01*
X23376D01*
Y13023D01*
X23336Y13063D01*
X23376Y13103D01*
Y13143D01*
X23336D01*
X23296Y13103D01*
X23256Y13143D01*
X23216D01*
Y13103D01*
X23256Y13063D01*
X23216Y13023D01*
Y12983D01*
Y13983D02*
X23256D01*
X23296Y14023D01*
X23336Y13983D01*
X23376D01*
Y14023D01*
X23336Y14063D01*
X23376Y14103D01*
Y14143D01*
X23336D01*
X23296Y14103D01*
X23256Y14143D01*
X23216D01*
Y14103D01*
X23256Y14063D01*
X23216Y14023D01*
Y13983D01*
X25216Y10973D02*
X25256D01*
X25296Y11013D01*
X25336Y10973D01*
X25376D01*
Y11013D01*
X25336Y11053D01*
X25376Y11093D01*
Y11133D01*
X25336D01*
X25296Y11093D01*
X25256Y11133D01*
X25216D01*
Y11093D01*
X25256Y11053D01*
X25216Y11013D01*
Y10973D01*
X22216Y12983D02*
X22256D01*
X22296Y13023D01*
X22336Y12983D01*
X22376D01*
Y13023D01*
X22336Y13063D01*
X22376Y13103D01*
Y13143D01*
X22336D01*
X22296Y13103D01*
X22256Y13143D01*
X22216D01*
Y13103D01*
X22256Y13063D01*
X22216Y13023D01*
Y12983D01*
Y13983D02*
X22256D01*
X22296Y14023D01*
X22336Y13983D01*
X22376D01*
Y14023D01*
X22336Y14063D01*
X22376Y14103D01*
Y14143D01*
X22336D01*
X22296Y14103D01*
X22256Y14143D01*
X22216D01*
Y14103D01*
X22256Y14063D01*
X22216Y14023D01*
Y13983D01*
X22716Y11663D02*
X22796Y11743D01*
X22876Y11663D01*
X22796Y11583D01*
X22716Y11663D01*
X5216Y35973D02*
X5256D01*
X5296Y36013D01*
X5336Y35973D01*
X5376D01*
Y36013D01*
X5336Y36053D01*
X5376Y36093D01*
Y36133D01*
X5336D01*
X5296Y36093D01*
X5256Y36133D01*
X5216D01*
Y36093D01*
X5256Y36053D01*
X5216Y36013D01*
Y35973D01*
Y33973D02*
X5256D01*
X5296Y34013D01*
X5336Y33973D01*
X5376D01*
Y34013D01*
X5336Y34053D01*
X5376Y34093D01*
Y34133D01*
X5336D01*
X5296Y34093D01*
X5256Y34133D01*
X5216D01*
Y34093D01*
X5256Y34053D01*
X5216Y34013D01*
Y33973D01*
Y34973D02*
X5256D01*
X5296Y35013D01*
X5336Y34973D01*
X5376D01*
Y35013D01*
X5336Y35053D01*
X5376Y35093D01*
Y35133D01*
X5336D01*
X5296Y35093D01*
X5256Y35133D01*
X5216D01*
Y35093D01*
X5256Y35053D01*
X5216Y35013D01*
Y34973D01*
X4216Y32973D02*
X4256D01*
X4296Y33013D01*
X4336Y32973D01*
X4376D01*
Y33013D01*
X4336Y33053D01*
X4376Y33093D01*
Y33133D01*
X4336D01*
X4296Y33093D01*
X4256Y33133D01*
X4216D01*
Y33093D01*
X4256Y33053D01*
X4216Y33013D01*
Y32973D01*
Y33973D02*
X4256D01*
X4296Y34013D01*
X4336Y33973D01*
X4376D01*
Y34013D01*
X4336Y34053D01*
X4376Y34093D01*
Y34133D01*
X4336D01*
X4296Y34093D01*
X4256Y34133D01*
X4216D01*
Y34093D01*
X4256Y34053D01*
X4216Y34013D01*
Y33973D01*
X5216Y32973D02*
X5256D01*
X5296Y33013D01*
X5336Y32973D01*
X5376D01*
Y33013D01*
X5336Y33053D01*
X5376Y33093D01*
Y33133D01*
X5336D01*
X5296Y33093D01*
X5256Y33133D01*
X5216D01*
Y33093D01*
X5256Y33053D01*
X5216Y33013D01*
Y32973D01*
Y31973D02*
X5256D01*
X5296Y32013D01*
X5336Y31973D01*
X5376D01*
Y32013D01*
X5336Y32053D01*
X5376Y32093D01*
Y32133D01*
X5336D01*
X5296Y32093D01*
X5256Y32133D01*
X5216D01*
Y32093D01*
X5256Y32053D01*
X5216Y32013D01*
Y31973D01*
X4216Y41663D02*
X4296Y41743D01*
X4376Y41663D01*
X4296Y41583D01*
X4216Y41663D01*
Y34973D02*
X4256D01*
X4296Y35013D01*
X4336Y34973D01*
X4376D01*
Y35013D01*
X4336Y35053D01*
X4376Y35093D01*
Y35133D01*
X4336D01*
X4296Y35093D01*
X4256Y35133D01*
X4216D01*
Y35093D01*
X4256Y35053D01*
X4216Y35013D01*
Y34973D01*
Y35973D02*
X4256D01*
X4296Y36013D01*
X4336Y35973D01*
X4376D01*
Y36013D01*
X4336Y36053D01*
X4376Y36093D01*
Y36133D01*
X4336D01*
X4296Y36093D01*
X4256Y36133D01*
X4216D01*
Y36093D01*
X4256Y36053D01*
X4216Y36013D01*
Y35973D01*
Y31973D02*
X4256D01*
X4296Y32013D01*
X4336Y31973D01*
X4376D01*
Y32013D01*
X4336Y32053D01*
X4376Y32093D01*
Y32133D01*
X4336D01*
X4296Y32093D01*
X4256Y32133D01*
X4216D01*
Y32093D01*
X4256Y32053D01*
X4216Y32013D01*
Y31973D01*
X5216Y29973D02*
X5256D01*
X5296Y30013D01*
X5336Y29973D01*
X5376D01*
Y30013D01*
X5336Y30053D01*
X5376Y30093D01*
Y30133D01*
X5336D01*
X5296Y30093D01*
X5256Y30133D01*
X5216D01*
Y30093D01*
X5256Y30053D01*
X5216Y30013D01*
Y29973D01*
Y30973D02*
X5256D01*
X5296Y31013D01*
X5336Y30973D01*
X5376D01*
Y31013D01*
X5336Y31053D01*
X5376Y31093D01*
Y31133D01*
X5336D01*
X5296Y31093D01*
X5256Y31133D01*
X5216D01*
Y31093D01*
X5256Y31053D01*
X5216Y31013D01*
Y30973D01*
Y28973D02*
X5256D01*
X5296Y29013D01*
X5336Y28973D01*
X5376D01*
Y29013D01*
X5336Y29053D01*
X5376Y29093D01*
Y29133D01*
X5336D01*
X5296Y29093D01*
X5256Y29133D01*
X5216D01*
Y29093D01*
X5256Y29053D01*
X5216Y29013D01*
Y28973D01*
Y25973D02*
X5256D01*
X5296Y26013D01*
X5336Y25973D01*
X5376D01*
Y26013D01*
X5336Y26053D01*
X5376Y26093D01*
Y26133D01*
X5336D01*
X5296Y26093D01*
X5256Y26133D01*
X5216D01*
Y26093D01*
X5256Y26053D01*
X5216Y26013D01*
Y25973D01*
Y26973D02*
X5256D01*
X5296Y27013D01*
X5336Y26973D01*
X5376D01*
Y27013D01*
X5336Y27053D01*
X5376Y27093D01*
Y27133D01*
X5336D01*
X5296Y27093D01*
X5256Y27133D01*
X5216D01*
Y27093D01*
X5256Y27053D01*
X5216Y27013D01*
Y26973D01*
Y24973D02*
X5256D01*
X5296Y25013D01*
X5336Y24973D01*
X5376D01*
Y25013D01*
X5336Y25053D01*
X5376Y25093D01*
Y25133D01*
X5336D01*
X5296Y25093D01*
X5256Y25133D01*
X5216D01*
Y25093D01*
X5256Y25053D01*
X5216Y25013D01*
Y24973D01*
Y23973D02*
X5256D01*
X5296Y24013D01*
X5336Y23973D01*
X5376D01*
Y24013D01*
X5336Y24053D01*
X5376Y24093D01*
Y24133D01*
X5336D01*
X5296Y24093D01*
X5256Y24133D01*
X5216D01*
Y24093D01*
X5256Y24053D01*
X5216Y24013D01*
Y23973D01*
Y22973D02*
X5256D01*
X5296Y23013D01*
X5336Y22973D01*
X5376D01*
Y23013D01*
X5336Y23053D01*
X5376Y23093D01*
Y23133D01*
X5336D01*
X5296Y23093D01*
X5256Y23133D01*
X5216D01*
Y23093D01*
X5256Y23053D01*
X5216Y23013D01*
Y22973D01*
X4216D02*
X4256D01*
X4296Y23013D01*
X4336Y22973D01*
X4376D01*
Y23013D01*
X4336Y23053D01*
X4376Y23093D01*
Y23133D01*
X4336D01*
X4296Y23093D01*
X4256Y23133D01*
X4216D01*
Y23093D01*
X4256Y23053D01*
X4216Y23013D01*
Y22973D01*
X5216Y21973D02*
X5256D01*
X5296Y22013D01*
X5336Y21973D01*
X5376D01*
Y22013D01*
X5336Y22053D01*
X5376Y22093D01*
Y22133D01*
X5336D01*
X5296Y22093D01*
X5256Y22133D01*
X5216D01*
Y22093D01*
X5256Y22053D01*
X5216Y22013D01*
Y21973D01*
X4216Y29973D02*
X4256D01*
X4296Y30013D01*
X4336Y29973D01*
X4376D01*
Y30013D01*
X4336Y30053D01*
X4376Y30093D01*
Y30133D01*
X4336D01*
X4296Y30093D01*
X4256Y30133D01*
X4216D01*
Y30093D01*
X4256Y30053D01*
X4216Y30013D01*
Y29973D01*
Y30973D02*
X4256D01*
X4296Y31013D01*
X4336Y30973D01*
X4376D01*
Y31013D01*
X4336Y31053D01*
X4376Y31093D01*
Y31133D01*
X4336D01*
X4296Y31093D01*
X4256Y31133D01*
X4216D01*
Y31093D01*
X4256Y31053D01*
X4216Y31013D01*
Y30973D01*
Y28973D02*
X4256D01*
X4296Y29013D01*
X4336Y28973D01*
X4376D01*
Y29013D01*
X4336Y29053D01*
X4376Y29093D01*
Y29133D01*
X4336D01*
X4296Y29093D01*
X4256Y29133D01*
X4216D01*
Y29093D01*
X4256Y29053D01*
X4216Y29013D01*
Y28973D01*
Y26973D02*
X4256D01*
X4296Y27013D01*
X4336Y26973D01*
X4376D01*
Y27013D01*
X4336Y27053D01*
X4376Y27093D01*
Y27133D01*
X4336D01*
X4296Y27093D01*
X4256Y27133D01*
X4216D01*
Y27093D01*
X4256Y27053D01*
X4216Y27013D01*
Y26973D01*
Y24973D02*
X4256D01*
X4296Y25013D01*
X4336Y24973D01*
X4376D01*
Y25013D01*
X4336Y25053D01*
X4376Y25093D01*
Y25133D01*
X4336D01*
X4296Y25093D01*
X4256Y25133D01*
X4216D01*
Y25093D01*
X4256Y25053D01*
X4216Y25013D01*
Y24973D01*
Y25973D02*
X4256D01*
X4296Y26013D01*
X4336Y25973D01*
X4376D01*
Y26013D01*
X4336Y26053D01*
X4376Y26093D01*
Y26133D01*
X4336D01*
X4296Y26093D01*
X4256Y26133D01*
X4216D01*
Y26093D01*
X4256Y26053D01*
X4216Y26013D01*
Y25973D01*
Y23973D02*
X4256D01*
X4296Y24013D01*
X4336Y23973D01*
X4376D01*
Y24013D01*
X4336Y24053D01*
X4376Y24093D01*
Y24133D01*
X4336D01*
X4296Y24093D01*
X4256Y24133D01*
X4216D01*
Y24093D01*
X4256Y24053D01*
X4216Y24013D01*
Y23973D01*
X2216Y38973D02*
X2256D01*
X2296Y39013D01*
X2336Y38973D01*
X2376D01*
Y39013D01*
X2336Y39053D01*
X2376Y39093D01*
Y39133D01*
X2336D01*
X2296Y39093D01*
X2256Y39133D01*
X2216D01*
Y39093D01*
X2256Y39053D01*
X2216Y39013D01*
Y38973D01*
Y39973D02*
X2256D01*
X2296Y40013D01*
X2336Y39973D01*
X2376D01*
Y40013D01*
X2336Y40053D01*
X2376Y40093D01*
Y40133D01*
X2336D01*
X2296Y40093D01*
X2256Y40133D01*
X2216D01*
Y40093D01*
X2256Y40053D01*
X2216Y40013D01*
Y39973D01*
Y36973D02*
X2256D01*
X2296Y37013D01*
X2336Y36973D01*
X2376D01*
Y37013D01*
X2336Y37053D01*
X2376Y37093D01*
Y37133D01*
X2336D01*
X2296Y37093D01*
X2256Y37133D01*
X2216D01*
Y37093D01*
X2256Y37053D01*
X2216Y37013D01*
Y36973D01*
X1216Y38973D02*
X1256D01*
X1296Y39013D01*
X1336Y38973D01*
X1376D01*
Y39013D01*
X1336Y39053D01*
X1376Y39093D01*
Y39133D01*
X1336D01*
X1296Y39093D01*
X1256Y39133D01*
X1216D01*
Y39093D01*
X1256Y39053D01*
X1216Y39013D01*
Y38973D01*
Y39973D02*
X1256D01*
X1296Y40013D01*
X1336Y39973D01*
X1376D01*
Y40013D01*
X1336Y40053D01*
X1376Y40093D01*
Y40133D01*
X1336D01*
X1296Y40093D01*
X1256Y40133D01*
X1216D01*
Y40093D01*
X1256Y40053D01*
X1216Y40013D01*
Y39973D01*
X2216Y37973D02*
X2256D01*
X2296Y38013D01*
X2336Y37973D01*
X2376D01*
Y38013D01*
X2336Y38053D01*
X2376Y38093D01*
Y38133D01*
X2336D01*
X2296Y38093D01*
X2256Y38133D01*
X2216D01*
Y38093D01*
X2256Y38053D01*
X2216Y38013D01*
Y37973D01*
Y35973D02*
X2256D01*
X2296Y36013D01*
X2336Y35973D01*
X2376D01*
Y36013D01*
X2336Y36053D01*
X2376Y36093D01*
Y36133D01*
X2336D01*
X2296Y36093D01*
X2256Y36133D01*
X2216D01*
Y36093D01*
X2256Y36053D01*
X2216Y36013D01*
Y35973D01*
Y34973D02*
X2256D01*
X2296Y35013D01*
X2336Y34973D01*
X2376D01*
Y35013D01*
X2336Y35053D01*
X2376Y35093D01*
Y35133D01*
X2336D01*
X2296Y35093D01*
X2256Y35133D01*
X2216D01*
Y35093D01*
X2256Y35053D01*
X2216Y35013D01*
Y34973D01*
X1216D02*
X1256D01*
X1296Y35013D01*
X1336Y34973D01*
X1376D01*
Y35013D01*
X1336Y35053D01*
X1376Y35093D01*
Y35133D01*
X1336D01*
X1296Y35093D01*
X1256Y35133D01*
X1216D01*
Y35093D01*
X1256Y35053D01*
X1216Y35013D01*
Y34973D01*
Y35973D02*
X1256D01*
X1296Y36013D01*
X1336Y35973D01*
X1376D01*
Y36013D01*
X1336Y36053D01*
X1376Y36093D01*
Y36133D01*
X1336D01*
X1296Y36093D01*
X1256Y36133D01*
X1216D01*
Y36093D01*
X1256Y36053D01*
X1216Y36013D01*
Y35973D01*
Y33973D02*
X1256D01*
X1296Y34013D01*
X1336Y33973D01*
X1376D01*
Y34013D01*
X1336Y34053D01*
X1376Y34093D01*
Y34133D01*
X1336D01*
X1296Y34093D01*
X1256Y34133D01*
X1216D01*
Y34093D01*
X1256Y34053D01*
X1216Y34013D01*
Y33973D01*
Y37973D02*
X1256D01*
X1296Y38013D01*
X1336Y37973D01*
X1376D01*
Y38013D01*
X1336Y38053D01*
X1376Y38093D01*
Y38133D01*
X1336D01*
X1296Y38093D01*
X1256Y38133D01*
X1216D01*
Y38093D01*
X1256Y38053D01*
X1216Y38013D01*
Y37973D01*
Y36973D02*
X1256D01*
X1296Y37013D01*
X1336Y36973D01*
X1376D01*
Y37013D01*
X1336Y37053D01*
X1376Y37093D01*
Y37133D01*
X1336D01*
X1296Y37093D01*
X1256Y37133D01*
X1216D01*
Y37093D01*
X1256Y37053D01*
X1216Y37013D01*
Y36973D01*
X2216Y29973D02*
X2256D01*
X2296Y30013D01*
X2336Y29973D01*
X2376D01*
Y30013D01*
X2336Y30053D01*
X2376Y30093D01*
Y30133D01*
X2336D01*
X2296Y30093D01*
X2256Y30133D01*
X2216D01*
Y30093D01*
X2256Y30053D01*
X2216Y30013D01*
Y29973D01*
Y30973D02*
X2256D01*
X2296Y31013D01*
X2336Y30973D01*
X2376D01*
Y31013D01*
X2336Y31053D01*
X2376Y31093D01*
Y31133D01*
X2336D01*
X2296Y31093D01*
X2256Y31133D01*
X2216D01*
Y31093D01*
X2256Y31053D01*
X2216Y31013D01*
Y30973D01*
Y27973D02*
X2256D01*
X2296Y28013D01*
X2336Y27973D01*
X2376D01*
Y28013D01*
X2336Y28053D01*
X2376Y28093D01*
Y28133D01*
X2336D01*
X2296Y28093D01*
X2256Y28133D01*
X2216D01*
Y28093D01*
X2256Y28053D01*
X2216Y28013D01*
Y27973D01*
Y28973D02*
X2256D01*
X2296Y29013D01*
X2336Y28973D01*
X2376D01*
Y29013D01*
X2336Y29053D01*
X2376Y29093D01*
Y29133D01*
X2336D01*
X2296Y29093D01*
X2256Y29133D01*
X2216D01*
Y29093D01*
X2256Y29053D01*
X2216Y29013D01*
Y28973D01*
Y32973D02*
X2256D01*
X2296Y33013D01*
X2336Y32973D01*
X2376D01*
Y33013D01*
X2336Y33053D01*
X2376Y33093D01*
Y33133D01*
X2336D01*
X2296Y33093D01*
X2256Y33133D01*
X2216D01*
Y33093D01*
X2256Y33053D01*
X2216Y33013D01*
Y32973D01*
Y33973D02*
X2256D01*
X2296Y34013D01*
X2336Y33973D01*
X2376D01*
Y34013D01*
X2336Y34053D01*
X2376Y34093D01*
Y34133D01*
X2336D01*
X2296Y34093D01*
X2256Y34133D01*
X2216D01*
Y34093D01*
X2256Y34053D01*
X2216Y34013D01*
Y33973D01*
Y31973D02*
X2256D01*
X2296Y32013D01*
X2336Y31973D01*
X2376D01*
Y32013D01*
X2336Y32053D01*
X2376Y32093D01*
Y32133D01*
X2336D01*
X2296Y32093D01*
X2256Y32133D01*
X2216D01*
Y32093D01*
X2256Y32053D01*
X2216Y32013D01*
Y31973D01*
Y26973D02*
X2256D01*
X2296Y27013D01*
X2336Y26973D01*
X2376D01*
Y27013D01*
X2336Y27053D01*
X2376Y27093D01*
Y27133D01*
X2336D01*
X2296Y27093D01*
X2256Y27133D01*
X2216D01*
Y27093D01*
X2256Y27053D01*
X2216Y27013D01*
Y26973D01*
Y23973D02*
X2256D01*
X2296Y24013D01*
X2336Y23973D01*
X2376D01*
Y24013D01*
X2336Y24053D01*
X2376Y24093D01*
Y24133D01*
X2336D01*
X2296Y24093D01*
X2256Y24133D01*
X2216D01*
Y24093D01*
X2256Y24053D01*
X2216Y24013D01*
Y23973D01*
Y24973D02*
X2256D01*
X2296Y25013D01*
X2336Y24973D01*
X2376D01*
Y25013D01*
X2336Y25053D01*
X2376Y25093D01*
Y25133D01*
X2336D01*
X2296Y25093D01*
X2256Y25133D01*
X2216D01*
Y25093D01*
X2256Y25053D01*
X2216Y25013D01*
Y24973D01*
Y22973D02*
X2256D01*
X2296Y23013D01*
X2336Y22973D01*
X2376D01*
Y23013D01*
X2336Y23053D01*
X2376Y23093D01*
Y23133D01*
X2336D01*
X2296Y23093D01*
X2256Y23133D01*
X2216D01*
Y23093D01*
X2256Y23053D01*
X2216Y23013D01*
Y22973D01*
X1216Y28973D02*
X1256D01*
X1296Y29013D01*
X1336Y28973D01*
X1376D01*
Y29013D01*
X1336Y29053D01*
X1376Y29093D01*
Y29133D01*
X1336D01*
X1296Y29093D01*
X1256Y29133D01*
X1216D01*
Y29093D01*
X1256Y29053D01*
X1216Y29013D01*
Y28973D01*
Y29973D02*
X1256D01*
X1296Y30013D01*
X1336Y29973D01*
X1376D01*
Y30013D01*
X1336Y30053D01*
X1376Y30093D01*
Y30133D01*
X1336D01*
X1296Y30093D01*
X1256Y30133D01*
X1216D01*
Y30093D01*
X1256Y30053D01*
X1216Y30013D01*
Y29973D01*
Y26973D02*
X1256D01*
X1296Y27013D01*
X1336Y26973D01*
X1376D01*
Y27013D01*
X1336Y27053D01*
X1376Y27093D01*
Y27133D01*
X1336D01*
X1296Y27093D01*
X1256Y27133D01*
X1216D01*
Y27093D01*
X1256Y27053D01*
X1216Y27013D01*
Y26973D01*
Y27973D02*
X1256D01*
X1296Y28013D01*
X1336Y27973D01*
X1376D01*
Y28013D01*
X1336Y28053D01*
X1376Y28093D01*
Y28133D01*
X1336D01*
X1296Y28093D01*
X1256Y28133D01*
X1216D01*
Y28093D01*
X1256Y28053D01*
X1216Y28013D01*
Y27973D01*
Y31973D02*
X1256D01*
X1296Y32013D01*
X1336Y31973D01*
X1376D01*
Y32013D01*
X1336Y32053D01*
X1376Y32093D01*
Y32133D01*
X1336D01*
X1296Y32093D01*
X1256Y32133D01*
X1216D01*
Y32093D01*
X1256Y32053D01*
X1216Y32013D01*
Y31973D01*
Y32973D02*
X1256D01*
X1296Y33013D01*
X1336Y32973D01*
X1376D01*
Y33013D01*
X1336Y33053D01*
X1376Y33093D01*
Y33133D01*
X1336D01*
X1296Y33093D01*
X1256Y33133D01*
X1216D01*
Y33093D01*
X1256Y33053D01*
X1216Y33013D01*
Y32973D01*
Y30973D02*
X1256D01*
X1296Y31013D01*
X1336Y30973D01*
X1376D01*
Y31013D01*
X1336Y31053D01*
X1376Y31093D01*
Y31133D01*
X1336D01*
X1296Y31093D01*
X1256Y31133D01*
X1216D01*
Y31093D01*
X1256Y31053D01*
X1216Y31013D01*
Y30973D01*
X2216Y25973D02*
X2256D01*
X2296Y26013D01*
X2336Y25973D01*
X2376D01*
Y26013D01*
X2336Y26053D01*
X2376Y26093D01*
Y26133D01*
X2336D01*
X2296Y26093D01*
X2256Y26133D01*
X2216D01*
Y26093D01*
X2256Y26053D01*
X2216Y26013D01*
Y25973D01*
X1216D02*
X1256D01*
X1296Y26013D01*
X1336Y25973D01*
X1376D01*
Y26013D01*
X1336Y26053D01*
X1376Y26093D01*
Y26133D01*
X1336D01*
X1296Y26093D01*
X1256Y26133D01*
X1216D01*
Y26093D01*
X1256Y26053D01*
X1216Y26013D01*
Y25973D01*
X2216Y21973D02*
X2256D01*
X2296Y22013D01*
X2336Y21973D01*
X2376D01*
Y22013D01*
X2336Y22053D01*
X2376Y22093D01*
Y22133D01*
X2336D01*
X2296Y22093D01*
X2256Y22133D01*
X2216D01*
Y22093D01*
X2256Y22053D01*
X2216Y22013D01*
Y21973D01*
X1216Y23973D02*
X1256D01*
X1296Y24013D01*
X1336Y23973D01*
X1376D01*
Y24013D01*
X1336Y24053D01*
X1376Y24093D01*
Y24133D01*
X1336D01*
X1296Y24093D01*
X1256Y24133D01*
X1216D01*
Y24093D01*
X1256Y24053D01*
X1216Y24013D01*
Y23973D01*
Y24973D02*
X1256D01*
X1296Y25013D01*
X1336Y24973D01*
X1376D01*
Y25013D01*
X1336Y25053D01*
X1376Y25093D01*
Y25133D01*
X1336D01*
X1296Y25093D01*
X1256Y25133D01*
X1216D01*
Y25093D01*
X1256Y25053D01*
X1216Y25013D01*
Y24973D01*
Y22973D02*
X1256D01*
X1296Y23013D01*
X1336Y22973D01*
X1376D01*
Y23013D01*
X1336Y23053D01*
X1376Y23093D01*
Y23133D01*
X1336D01*
X1296Y23093D01*
X1256Y23133D01*
X1216D01*
Y23093D01*
X1256Y23053D01*
X1216Y23013D01*
Y22973D01*
X5216Y19973D02*
X5256D01*
X5296Y20013D01*
X5336Y19973D01*
X5376D01*
Y20013D01*
X5336Y20053D01*
X5376Y20093D01*
Y20133D01*
X5336D01*
X5296Y20093D01*
X5256Y20133D01*
X5216D01*
Y20093D01*
X5256Y20053D01*
X5216Y20013D01*
Y19973D01*
Y20973D02*
X5256D01*
X5296Y21013D01*
X5336Y20973D01*
X5376D01*
Y21013D01*
X5336Y21053D01*
X5376Y21093D01*
Y21133D01*
X5336D01*
X5296Y21093D01*
X5256Y21133D01*
X5216D01*
Y21093D01*
X5256Y21053D01*
X5216Y21013D01*
Y20973D01*
Y17973D02*
X5256D01*
X5296Y18013D01*
X5336Y17973D01*
X5376D01*
Y18013D01*
X5336Y18053D01*
X5376Y18093D01*
Y18133D01*
X5336D01*
X5296Y18093D01*
X5256Y18133D01*
X5216D01*
Y18093D01*
X5256Y18053D01*
X5216Y18013D01*
Y17973D01*
Y18973D02*
X5256D01*
X5296Y19013D01*
X5336Y18973D01*
X5376D01*
Y19013D01*
X5336Y19053D01*
X5376Y19093D01*
Y19133D01*
X5336D01*
X5296Y19093D01*
X5256Y19133D01*
X5216D01*
Y19093D01*
X5256Y19053D01*
X5216Y19013D01*
Y18973D01*
Y14973D02*
X5256D01*
X5296Y15013D01*
X5336Y14973D01*
X5376D01*
Y15013D01*
X5336Y15053D01*
X5376Y15093D01*
Y15133D01*
X5336D01*
X5296Y15093D01*
X5256Y15133D01*
X5216D01*
Y15093D01*
X5256Y15053D01*
X5216Y15013D01*
Y14973D01*
Y13973D02*
X5256D01*
X5296Y14013D01*
X5336Y13973D01*
X5376D01*
Y14013D01*
X5336Y14053D01*
X5376Y14093D01*
Y14133D01*
X5336D01*
X5296Y14093D01*
X5256Y14133D01*
X5216D01*
Y14093D01*
X5256Y14053D01*
X5216Y14013D01*
Y13973D01*
Y12973D02*
X5256D01*
X5296Y13013D01*
X5336Y12973D01*
X5376D01*
Y13013D01*
X5336Y13053D01*
X5376Y13093D01*
Y13133D01*
X5336D01*
X5296Y13093D01*
X5256Y13133D01*
X5216D01*
Y13093D01*
X5256Y13053D01*
X5216Y13013D01*
Y12973D01*
X4216Y20973D02*
X4256D01*
X4296Y21013D01*
X4336Y20973D01*
X4376D01*
Y21013D01*
X4336Y21053D01*
X4376Y21093D01*
Y21133D01*
X4336D01*
X4296Y21093D01*
X4256Y21133D01*
X4216D01*
Y21093D01*
X4256Y21053D01*
X4216Y21013D01*
Y20973D01*
Y21973D02*
X4256D01*
X4296Y22013D01*
X4336Y21973D01*
X4376D01*
Y22013D01*
X4336Y22053D01*
X4376Y22093D01*
Y22133D01*
X4336D01*
X4296Y22093D01*
X4256Y22133D01*
X4216D01*
Y22093D01*
X4256Y22053D01*
X4216Y22013D01*
Y21973D01*
Y17973D02*
X4256D01*
X4296Y18013D01*
X4336Y17973D01*
X4376D01*
Y18013D01*
X4336Y18053D01*
X4376Y18093D01*
Y18133D01*
X4336D01*
X4296Y18093D01*
X4256Y18133D01*
X4216D01*
Y18093D01*
X4256Y18053D01*
X4216Y18013D01*
Y17973D01*
Y19973D02*
X4256D01*
X4296Y20013D01*
X4336Y19973D01*
X4376D01*
Y20013D01*
X4336Y20053D01*
X4376Y20093D01*
Y20133D01*
X4336D01*
X4296Y20093D01*
X4256Y20133D01*
X4216D01*
Y20093D01*
X4256Y20053D01*
X4216Y20013D01*
Y19973D01*
Y16973D02*
X4256D01*
X4296Y17013D01*
X4336Y16973D01*
X4376D01*
Y17013D01*
X4336Y17053D01*
X4376Y17093D01*
Y17133D01*
X4336D01*
X4296Y17093D01*
X4256Y17133D01*
X4216D01*
Y17093D01*
X4256Y17053D01*
X4216Y17013D01*
Y16973D01*
X5216D02*
X5256D01*
X5296Y17013D01*
X5336Y16973D01*
X5376D01*
Y17013D01*
X5336Y17053D01*
X5376Y17093D01*
Y17133D01*
X5336D01*
X5296Y17093D01*
X5256Y17133D01*
X5216D01*
Y17093D01*
X5256Y17053D01*
X5216Y17013D01*
Y16973D01*
Y15973D02*
X5256D01*
X5296Y16013D01*
X5336Y15973D01*
X5376D01*
Y16013D01*
X5336Y16053D01*
X5376Y16093D01*
Y16133D01*
X5336D01*
X5296Y16093D01*
X5256Y16133D01*
X5216D01*
Y16093D01*
X5256Y16053D01*
X5216Y16013D01*
Y15973D01*
X4216Y14973D02*
X4256D01*
X4296Y15013D01*
X4336Y14973D01*
X4376D01*
Y15013D01*
X4336Y15053D01*
X4376Y15093D01*
Y15133D01*
X4336D01*
X4296Y15093D01*
X4256Y15133D01*
X4216D01*
Y15093D01*
X4256Y15053D01*
X4216Y15013D01*
Y14973D01*
Y15973D02*
X4256D01*
X4296Y16013D01*
X4336Y15973D01*
X4376D01*
Y16013D01*
X4336Y16053D01*
X4376Y16093D01*
Y16133D01*
X4336D01*
X4296Y16093D01*
X4256Y16133D01*
X4216D01*
Y16093D01*
X4256Y16053D01*
X4216Y16013D01*
Y15973D01*
Y13973D02*
X4256D01*
X4296Y14013D01*
X4336Y13973D01*
X4376D01*
Y14013D01*
X4336Y14053D01*
X4376Y14093D01*
Y14133D01*
X4336D01*
X4296Y14093D01*
X4256Y14133D01*
X4216D01*
Y14093D01*
X4256Y14053D01*
X4216Y14013D01*
Y13973D01*
X4716Y11663D02*
X4796Y11743D01*
X4876Y11663D01*
X4796Y11583D01*
X4716Y11663D01*
X4216Y12973D02*
X4256D01*
X4296Y13013D01*
X4336Y12973D01*
X4376D01*
Y13013D01*
X4336Y13053D01*
X4376Y13093D01*
Y13133D01*
X4336D01*
X4296Y13093D01*
X4256Y13133D01*
X4216D01*
Y13093D01*
X4256Y13053D01*
X4216Y13013D01*
Y12973D01*
X2216Y19973D02*
X2256D01*
X2296Y20013D01*
X2336Y19973D01*
X2376D01*
Y20013D01*
X2336Y20053D01*
X2376Y20093D01*
Y20133D01*
X2336D01*
X2296Y20093D01*
X2256Y20133D01*
X2216D01*
Y20093D01*
X2256Y20053D01*
X2216Y20013D01*
Y19973D01*
Y20973D02*
X2256D01*
X2296Y21013D01*
X2336Y20973D01*
X2376D01*
Y21013D01*
X2336Y21053D01*
X2376Y21093D01*
Y21133D01*
X2336D01*
X2296Y21093D01*
X2256Y21133D01*
X2216D01*
Y21093D01*
X2256Y21053D01*
X2216Y21013D01*
Y20973D01*
X4216Y18973D02*
X4256D01*
X4296Y19013D01*
X4336Y18973D01*
X4376D01*
Y19013D01*
X4336Y19053D01*
X4376Y19093D01*
Y19133D01*
X4336D01*
X4296Y19093D01*
X4256Y19133D01*
X4216D01*
Y19093D01*
X4256Y19053D01*
X4216Y19013D01*
Y18973D01*
X2216D02*
X2256D01*
X2296Y19013D01*
X2336Y18973D01*
X2376D01*
Y19013D01*
X2336Y19053D01*
X2376Y19093D01*
Y19133D01*
X2336D01*
X2296Y19093D01*
X2256Y19133D01*
X2216D01*
Y19093D01*
X2256Y19053D01*
X2216Y19013D01*
Y18973D01*
Y16973D02*
X2256D01*
X2296Y17013D01*
X2336Y16973D01*
X2376D01*
Y17013D01*
X2336Y17053D01*
X2376Y17093D01*
Y17133D01*
X2336D01*
X2296Y17093D01*
X2256Y17133D01*
X2216D01*
Y17093D01*
X2256Y17053D01*
X2216Y17013D01*
Y16973D01*
Y17973D02*
X2256D01*
X2296Y18013D01*
X2336Y17973D01*
X2376D01*
Y18013D01*
X2336Y18053D01*
X2376Y18093D01*
Y18133D01*
X2336D01*
X2296Y18093D01*
X2256Y18133D01*
X2216D01*
Y18093D01*
X2256Y18053D01*
X2216Y18013D01*
Y17973D01*
Y15973D02*
X2256D01*
X2296Y16013D01*
X2336Y15973D01*
X2376D01*
Y16013D01*
X2336Y16053D01*
X2376Y16093D01*
Y16133D01*
X2336D01*
X2296Y16093D01*
X2256Y16133D01*
X2216D01*
Y16093D01*
X2256Y16053D01*
X2216Y16013D01*
Y15973D01*
X1216Y17973D02*
X1256D01*
X1296Y18013D01*
X1336Y17973D01*
X1376D01*
Y18013D01*
X1336Y18053D01*
X1376Y18093D01*
Y18133D01*
X1336D01*
X1296Y18093D01*
X1256Y18133D01*
X1216D01*
Y18093D01*
X1256Y18053D01*
X1216Y18013D01*
Y17973D01*
Y18973D02*
X1256D01*
X1296Y19013D01*
X1336Y18973D01*
X1376D01*
Y19013D01*
X1336Y19053D01*
X1376Y19093D01*
Y19133D01*
X1336D01*
X1296Y19093D01*
X1256Y19133D01*
X1216D01*
Y19093D01*
X1256Y19053D01*
X1216Y19013D01*
Y18973D01*
Y15973D02*
X1256D01*
X1296Y16013D01*
X1336Y15973D01*
X1376D01*
Y16013D01*
X1336Y16053D01*
X1376Y16093D01*
Y16133D01*
X1336D01*
X1296Y16093D01*
X1256Y16133D01*
X1216D01*
Y16093D01*
X1256Y16053D01*
X1216Y16013D01*
Y15973D01*
Y16973D02*
X1256D01*
X1296Y17013D01*
X1336Y16973D01*
X1376D01*
Y17013D01*
X1336Y17053D01*
X1376Y17093D01*
Y17133D01*
X1336D01*
X1296Y17093D01*
X1256Y17133D01*
X1216D01*
Y17093D01*
X1256Y17053D01*
X1216Y17013D01*
Y16973D01*
Y20973D02*
X1256D01*
X1296Y21013D01*
X1336Y20973D01*
X1376D01*
Y21013D01*
X1336Y21053D01*
X1376Y21093D01*
Y21133D01*
X1336D01*
X1296Y21093D01*
X1256Y21133D01*
X1216D01*
Y21093D01*
X1256Y21053D01*
X1216Y21013D01*
Y20973D01*
Y21973D02*
X1256D01*
X1296Y22013D01*
X1336Y21973D01*
X1376D01*
Y22013D01*
X1336Y22053D01*
X1376Y22093D01*
Y22133D01*
X1336D01*
X1296Y22093D01*
X1256Y22133D01*
X1216D01*
Y22093D01*
X1256Y22053D01*
X1216Y22013D01*
Y21973D01*
Y19973D02*
X1256D01*
X1296Y20013D01*
X1336Y19973D01*
X1376D01*
Y20013D01*
X1336Y20053D01*
X1376Y20093D01*
Y20133D01*
X1336D01*
X1296Y20093D01*
X1256Y20133D01*
X1216D01*
Y20093D01*
X1256Y20053D01*
X1216Y20013D01*
Y19973D01*
X2216Y13973D02*
X2256D01*
X2296Y14013D01*
X2336Y13973D01*
X2376D01*
Y14013D01*
X2336Y14053D01*
X2376Y14093D01*
Y14133D01*
X2336D01*
X2296Y14093D01*
X2256Y14133D01*
X2216D01*
Y14093D01*
X2256Y14053D01*
X2216Y14013D01*
Y13973D01*
Y14973D02*
X2256D01*
X2296Y15013D01*
X2336Y14973D01*
X2376D01*
Y15013D01*
X2336Y15053D01*
X2376Y15093D01*
Y15133D01*
X2336D01*
X2296Y15093D01*
X2256Y15133D01*
X2216D01*
Y15093D01*
X2256Y15053D01*
X2216Y15013D01*
Y14973D01*
Y11973D02*
X2256D01*
X2296Y12013D01*
X2336Y11973D01*
X2376D01*
Y12013D01*
X2336Y12053D01*
X2376Y12093D01*
Y12133D01*
X2336D01*
X2296Y12093D01*
X2256Y12133D01*
X2216D01*
Y12093D01*
X2256Y12053D01*
X2216Y12013D01*
Y11973D01*
Y12973D02*
X2256D01*
X2296Y13013D01*
X2336Y12973D01*
X2376D01*
Y13013D01*
X2336Y13053D01*
X2376Y13093D01*
Y13133D01*
X2336D01*
X2296Y13093D01*
X2256Y13133D01*
X2216D01*
Y13093D01*
X2256Y13053D01*
X2216Y13013D01*
Y12973D01*
Y10973D02*
X2256D01*
X2296Y11013D01*
X2336Y10973D01*
X2376D01*
Y11013D01*
X2336Y11053D01*
X2376Y11093D01*
Y11133D01*
X2336D01*
X2296Y11093D01*
X2256Y11133D01*
X2216D01*
Y11093D01*
X2256Y11053D01*
X2216Y11013D01*
Y10973D01*
X1216Y11973D02*
X1256D01*
X1296Y12013D01*
X1336Y11973D01*
X1376D01*
Y12013D01*
X1336Y12053D01*
X1376Y12093D01*
Y12133D01*
X1336D01*
X1296Y12093D01*
X1256Y12133D01*
X1216D01*
Y12093D01*
X1256Y12053D01*
X1216Y12013D01*
Y11973D01*
X2216Y9973D02*
X2256D01*
X2296Y10013D01*
X2336Y9973D01*
X2376D01*
Y10013D01*
X2336Y10053D01*
X2376Y10093D01*
Y10133D01*
X2336D01*
X2296Y10093D01*
X2256Y10133D01*
X2216D01*
Y10093D01*
X2256Y10053D01*
X2216Y10013D01*
Y9973D01*
Y7973D02*
X2256D01*
X2296Y8013D01*
X2336Y7973D01*
X2376D01*
Y8013D01*
X2336Y8053D01*
X2376Y8093D01*
Y8133D01*
X2336D01*
X2296Y8093D01*
X2256Y8133D01*
X2216D01*
Y8093D01*
X2256Y8053D01*
X2216Y8013D01*
Y7973D01*
Y8973D02*
X2256D01*
X2296Y9013D01*
X2336Y8973D01*
X2376D01*
Y9013D01*
X2336Y9053D01*
X2376Y9093D01*
Y9133D01*
X2336D01*
X2296Y9093D01*
X2256Y9133D01*
X2216D01*
Y9093D01*
X2256Y9053D01*
X2216Y9013D01*
Y8973D01*
Y6973D02*
X2256D01*
X2296Y7013D01*
X2336Y6973D01*
X2376D01*
Y7013D01*
X2336Y7053D01*
X2376Y7093D01*
Y7133D01*
X2336D01*
X2296Y7093D01*
X2256Y7133D01*
X2216D01*
Y7093D01*
X2256Y7053D01*
X2216Y7013D01*
Y6973D01*
Y4973D02*
X2256D01*
X2296Y5013D01*
X2336Y4973D01*
X2376D01*
Y5013D01*
X2336Y5053D01*
X2376Y5093D01*
Y5133D01*
X2336D01*
X2296Y5093D01*
X2256Y5133D01*
X2216D01*
Y5093D01*
X2256Y5053D01*
X2216Y5013D01*
Y4973D01*
Y5973D02*
X2256D01*
X2296Y6013D01*
X2336Y5973D01*
X2376D01*
Y6013D01*
X2336Y6053D01*
X2376Y6093D01*
Y6133D01*
X2336D01*
X2296Y6093D01*
X2256Y6133D01*
X2216D01*
Y6093D01*
X2256Y6053D01*
X2216Y6013D01*
Y5973D01*
X1216Y4973D02*
X1256D01*
X1296Y5013D01*
X1336Y4973D01*
X1376D01*
Y5013D01*
X1336Y5053D01*
X1376Y5093D01*
Y5133D01*
X1336D01*
X1296Y5093D01*
X1256Y5133D01*
X1216D01*
Y5093D01*
X1256Y5053D01*
X1216Y5013D01*
Y4973D01*
Y9973D02*
X1256D01*
X1296Y10013D01*
X1336Y9973D01*
X1376D01*
Y10013D01*
X1336Y10053D01*
X1376Y10093D01*
Y10133D01*
X1336D01*
X1296Y10093D01*
X1256Y10133D01*
X1216D01*
Y10093D01*
X1256Y10053D01*
X1216Y10013D01*
Y9973D01*
Y10973D02*
X1256D01*
X1296Y11013D01*
X1336Y10973D01*
X1376D01*
Y11013D01*
X1336Y11053D01*
X1376Y11093D01*
Y11133D01*
X1336D01*
X1296Y11093D01*
X1256Y11133D01*
X1216D01*
Y11093D01*
X1256Y11053D01*
X1216Y11013D01*
Y10973D01*
Y8973D02*
X1256D01*
X1296Y9013D01*
X1336Y8973D01*
X1376D01*
Y9013D01*
X1336Y9053D01*
X1376Y9093D01*
Y9133D01*
X1336D01*
X1296Y9093D01*
X1256Y9133D01*
X1216D01*
Y9093D01*
X1256Y9053D01*
X1216Y9013D01*
Y8973D01*
Y13973D02*
X1256D01*
X1296Y14013D01*
X1336Y13973D01*
X1376D01*
Y14013D01*
X1336Y14053D01*
X1376Y14093D01*
Y14133D01*
X1336D01*
X1296Y14093D01*
X1256Y14133D01*
X1216D01*
Y14093D01*
X1256Y14053D01*
X1216Y14013D01*
Y13973D01*
Y14973D02*
X1256D01*
X1296Y15013D01*
X1336Y14973D01*
X1376D01*
Y15013D01*
X1336Y15053D01*
X1376Y15093D01*
Y15133D01*
X1336D01*
X1296Y15093D01*
X1256Y15133D01*
X1216D01*
Y15093D01*
X1256Y15053D01*
X1216Y15013D01*
Y14973D01*
Y12973D02*
X1256D01*
X1296Y13013D01*
X1336Y12973D01*
X1376D01*
Y13013D01*
X1336Y13053D01*
X1376Y13093D01*
Y13133D01*
X1336D01*
X1296Y13093D01*
X1256Y13133D01*
X1216D01*
Y13093D01*
X1256Y13053D01*
X1216Y13013D01*
Y12973D01*
Y6973D02*
X1256D01*
X1296Y7013D01*
X1336Y6973D01*
X1376D01*
Y7013D01*
X1336Y7053D01*
X1376Y7093D01*
Y7133D01*
X1336D01*
X1296Y7093D01*
X1256Y7133D01*
X1216D01*
Y7093D01*
X1256Y7053D01*
X1216Y7013D01*
Y6973D01*
Y7973D02*
X1256D01*
X1296Y8013D01*
X1336Y7973D01*
X1376D01*
Y8013D01*
X1336Y8053D01*
X1376Y8093D01*
Y8133D01*
X1336D01*
X1296Y8093D01*
X1256Y8133D01*
X1216D01*
Y8093D01*
X1256Y8053D01*
X1216Y8013D01*
Y7973D01*
Y5973D02*
X1256D01*
X1296Y6013D01*
X1336Y5973D01*
X1376D01*
Y6013D01*
X1336Y6053D01*
X1376Y6093D01*
Y6133D01*
X1336D01*
X1296Y6093D01*
X1256Y6133D01*
X1216D01*
Y6093D01*
X1256Y6053D01*
X1216Y6013D01*
Y5973D01*
X19647Y39001D02*
Y39161D01*
X19807D01*
Y39001D01*
X19647D01*
X19687Y39041D02*
Y39121D01*
X19767D01*
Y39041D01*
X19687D01*
X8553Y25874D02*
Y25834D01*
X8633D01*
Y25874D01*
X8673D01*
Y25954D01*
X8633D01*
Y25994D01*
X8553D01*
Y25954D01*
X8513D01*
Y25874D01*
X8553D01*
Y29031D02*
Y28991D01*
X8633D01*
Y29031D01*
X8673D01*
Y29111D01*
X8633D01*
Y29151D01*
X8553D01*
Y29111D01*
X8513D01*
Y29031D01*
X8553D01*
Y27453D02*
Y27413D01*
X8633D01*
Y27453D01*
X8673D01*
Y27533D01*
X8633D01*
Y27573D01*
X8553D01*
Y27533D01*
X8513D01*
Y27453D01*
X8553D01*
Y24296D02*
Y24256D01*
X8633D01*
Y24296D01*
X8673D01*
Y24376D01*
X8633D01*
Y24416D01*
X8553D01*
Y24376D01*
X8513D01*
Y24296D01*
X8553D01*
Y30610D02*
Y30570D01*
X8633D01*
Y30610D01*
X8673D01*
Y30690D01*
X8633D01*
Y30730D01*
X8553D01*
Y30690D01*
X8513D01*
Y30610D01*
X8553D01*
X6770Y40026D02*
X6690Y40186D01*
X6850D01*
X6770Y40026D01*
Y40066D02*
X6730Y40146D01*
X6810D01*
X6770Y40066D01*
X8738Y40026D02*
X8658Y40186D01*
X8818D01*
X8738Y40026D01*
Y40066D02*
X8698Y40146D01*
X8778D01*
X8738Y40066D01*
X15979Y27403D02*
Y27563D01*
X16139D01*
Y27403D01*
X15979D01*
X16019Y27443D02*
Y27523D01*
X16099D01*
Y27443D01*
X16019D01*
X20663Y23542D02*
Y23702D01*
X20823D01*
Y23542D01*
X20663D01*
X20703Y23582D02*
Y23662D01*
X20783D01*
Y23582D01*
X20703D01*
X17388Y28599D02*
Y28759D01*
X17548D01*
Y28599D01*
X17388D01*
X17428Y28639D02*
Y28719D01*
X17508D01*
Y28639D01*
X17428D01*
X20203Y28599D02*
Y28759D01*
X20363D01*
Y28599D01*
X20203D01*
X20243Y28639D02*
Y28719D01*
X20323D01*
Y28639D01*
X20243D01*
X18796Y27403D02*
Y27563D01*
X18956D01*
Y27403D01*
X18796D01*
X18836Y27443D02*
Y27523D01*
X18916D01*
Y27443D01*
X18836D01*
X20813Y32252D02*
Y32212D01*
X20893D01*
Y32252D01*
X20933D01*
Y32332D01*
X20893D01*
Y32372D01*
X20813D01*
Y32332D01*
X20773D01*
Y32252D01*
X20813D01*
X18963D02*
Y32212D01*
X19043D01*
Y32252D01*
X19083D01*
Y32332D01*
X19043D01*
Y32372D01*
X18963D01*
Y32332D01*
X18923D01*
Y32252D01*
X18963D01*
X6715Y35443D02*
Y35403D01*
X6795D01*
Y35443D01*
X6835D01*
Y35523D01*
X6795D01*
Y35563D01*
X6715D01*
Y35523D01*
X6675D01*
Y35443D01*
X6715D01*
X12741D02*
Y35403D01*
X12821D01*
Y35443D01*
X12861D01*
Y35523D01*
X12821D01*
Y35563D01*
X12741D01*
Y35523D01*
X12701D01*
Y35443D01*
X12741D01*
X12989Y31232D02*
Y31192D01*
X13069D01*
Y31232D01*
X13109D01*
Y31312D01*
X13069D01*
Y31352D01*
X12989D01*
Y31312D01*
X12949D01*
Y31232D01*
X12989D01*
X1652Y1148D02*
Y1308D01*
X1812D01*
Y1148D01*
X1652D01*
X1692Y1188D02*
Y1268D01*
X1772D01*
Y1188D01*
X1692D01*
X26176Y1193D02*
Y1353D01*
X26336D01*
Y1193D01*
X26176D01*
X26216Y1233D02*
Y1313D01*
X26296D01*
Y1233D01*
X26216D01*
X22835Y4369D02*
X22875Y4409D01*
X22915D01*
X22875Y4449D01*
X22915Y4489D01*
X22875D01*
X22835Y4529D01*
X22795Y4489D01*
X22755D01*
X22795Y4449D01*
X22755Y4409D01*
X22795D01*
X22835Y4369D01*
Y4409D02*
X22855Y4429D01*
X22875D01*
X22855Y4449D01*
X22875Y4469D01*
X22855D01*
X22835Y4489D01*
X22815Y4469D01*
X22795D01*
X22815Y4449D01*
X22795Y4429D01*
X22815D01*
X22835Y4409D01*
X23012Y5304D02*
X23052Y5344D01*
X23092D01*
X23052Y5384D01*
X23092Y5424D01*
X23052D01*
X23012Y5464D01*
X22972Y5424D01*
X22932D01*
X22972Y5384D01*
X22932Y5344D01*
X22972D01*
X23012Y5304D01*
Y5344D02*
X23032Y5364D01*
X23052D01*
X23032Y5384D01*
X23052Y5404D01*
X23032D01*
X23012Y5424D01*
X22992Y5404D01*
X22972D01*
X22992Y5384D01*
X22972Y5364D01*
X22992D01*
X23012Y5344D01*
X23324Y5869D02*
X23364Y5909D01*
X23404D01*
X23364Y5949D01*
X23404Y5989D01*
X23364D01*
X23324Y6029D01*
X23284Y5989D01*
X23244D01*
X23284Y5949D01*
X23244Y5909D01*
X23284D01*
X23324Y5869D01*
Y5909D02*
X23344Y5929D01*
X23364D01*
X23344Y5949D01*
X23364Y5969D01*
X23344D01*
X23324Y5989D01*
X23304Y5969D01*
X23284D01*
X23304Y5949D01*
X23284Y5929D01*
X23304D01*
X23324Y5909D01*
X23012Y4615D02*
X23052Y4655D01*
X23092D01*
X23052Y4695D01*
X23092Y4735D01*
X23052D01*
X23012Y4775D01*
X22972Y4735D01*
X22932D01*
X22972Y4695D01*
X22932Y4655D01*
X22972D01*
X23012Y4615D01*
Y4655D02*
X23032Y4675D01*
X23052D01*
X23032Y4695D01*
X23052Y4715D01*
X23032D01*
X23012Y4735D01*
X22992Y4715D01*
X22972D01*
X22992Y4695D01*
X22972Y4675D01*
X22992D01*
X23012Y4655D01*
X22463Y4035D02*
X22503Y4075D01*
X22543D01*
X22503Y4115D01*
X22543Y4155D01*
X22503D01*
X22463Y4195D01*
X22423Y4155D01*
X22383D01*
X22423Y4115D01*
X22383Y4075D01*
X22423D01*
X22463Y4035D01*
Y4075D02*
X22483Y4095D01*
X22503D01*
X22483Y4115D01*
X22503Y4135D01*
X22483D01*
X22463Y4155D01*
X22443Y4135D01*
X22423D01*
X22443Y4115D01*
X22423Y4095D01*
X22443D01*
X22463Y4075D01*
X23045Y4124D02*
X23085Y4164D01*
X23125D01*
X23085Y4204D01*
X23125Y4244D01*
X23085D01*
X23045Y4284D01*
X23005Y4244D01*
X22965D01*
X23005Y4204D01*
X22965Y4164D01*
X23005D01*
X23045Y4124D01*
Y4164D02*
X23065Y4184D01*
X23085D01*
X23065Y4204D01*
X23085Y4224D01*
X23065D01*
X23045Y4244D01*
X23025Y4224D01*
X23005D01*
X23025Y4204D01*
X23005Y4184D01*
X23025D01*
X23045Y4164D01*
X23252Y3898D02*
X23292Y3938D01*
X23332D01*
X23292Y3978D01*
X23332Y4018D01*
X23292D01*
X23252Y4058D01*
X23212Y4018D01*
X23172D01*
X23212Y3978D01*
X23172Y3938D01*
X23212D01*
X23252Y3898D01*
Y3938D02*
X23272Y3958D01*
X23292D01*
X23272Y3978D01*
X23292Y3998D01*
X23272D01*
X23252Y4018D01*
X23232Y3998D01*
X23212D01*
X23232Y3978D01*
X23212Y3958D01*
X23232D01*
X23252Y3938D01*
X22541Y3646D02*
X22581Y3686D01*
X22621D01*
X22581Y3726D01*
X22621Y3766D01*
X22581D01*
X22541Y3806D01*
X22501Y3766D01*
X22461D01*
X22501Y3726D01*
X22461Y3686D01*
X22501D01*
X22541Y3646D01*
Y3686D02*
X22561Y3706D01*
X22581D01*
X22561Y3726D01*
X22581Y3746D01*
X22561D01*
X22541Y3766D01*
X22521Y3746D01*
X22501D01*
X22521Y3726D01*
X22501Y3706D01*
X22521D01*
X22541Y3686D01*
X22963Y5000D02*
X23003Y5040D01*
X23043D01*
X23003Y5080D01*
X23043Y5120D01*
X23003D01*
X22963Y5160D01*
X22923Y5120D01*
X22883D01*
X22923Y5080D01*
X22883Y5040D01*
X22923D01*
X22963Y5000D01*
Y5040D02*
X22983Y5060D01*
X23003D01*
X22983Y5080D01*
X23003Y5100D01*
X22983D01*
X22963Y5120D01*
X22943Y5100D01*
X22923D01*
X22943Y5080D01*
X22923Y5060D01*
X22943D01*
X22963Y5040D01*
X14695Y6642D02*
X14735Y6682D01*
X14775D01*
X14735Y6722D01*
X14775Y6762D01*
X14735D01*
X14695Y6802D01*
X14655Y6762D01*
X14615D01*
X14655Y6722D01*
X14615Y6682D01*
X14655D01*
X14695Y6642D01*
Y6682D02*
X14715Y6702D01*
X14735D01*
X14715Y6722D01*
X14735Y6742D01*
X14715D01*
X14695Y6762D01*
X14675Y6742D01*
X14655D01*
X14675Y6722D01*
X14655Y6702D01*
X14675D01*
X14695Y6682D01*
X14390Y6583D02*
X14430Y6623D01*
X14470D01*
X14430Y6663D01*
X14470Y6703D01*
X14430D01*
X14390Y6743D01*
X14350Y6703D01*
X14310D01*
X14350Y6663D01*
X14310Y6623D01*
X14350D01*
X14390Y6583D01*
Y6623D02*
X14410Y6643D01*
X14430D01*
X14410Y6663D01*
X14430Y6683D01*
X14410D01*
X14390Y6703D01*
X14370Y6683D01*
X14350D01*
X14370Y6663D01*
X14350Y6643D01*
X14370D01*
X14390Y6623D01*
X14906Y7327D02*
X14946Y7367D01*
X14986D01*
X14946Y7407D01*
X14986Y7447D01*
X14946D01*
X14906Y7487D01*
X14866Y7447D01*
X14826D01*
X14866Y7407D01*
X14826Y7367D01*
X14866D01*
X14906Y7327D01*
Y7367D02*
X14926Y7387D01*
X14946D01*
X14926Y7407D01*
X14946Y7427D01*
X14926D01*
X14906Y7447D01*
X14886Y7427D01*
X14866D01*
X14886Y7407D01*
X14866Y7387D01*
X14886D01*
X14906Y7367D01*
X10856Y24359D02*
X10896Y24399D01*
X10936D01*
X10896Y24439D01*
X10936Y24479D01*
X10896D01*
X10856Y24519D01*
X10816Y24479D01*
X10776D01*
X10816Y24439D01*
X10776Y24399D01*
X10816D01*
X10856Y24359D01*
Y24399D02*
X10876Y24419D01*
X10896D01*
X10876Y24439D01*
X10896Y24459D01*
X10876D01*
X10856Y24479D01*
X10836Y24459D01*
X10816D01*
X10836Y24439D01*
X10816Y24419D01*
X10836D01*
X10856Y24399D01*
X12333Y25570D02*
X12373Y25610D01*
X12413D01*
X12373Y25650D01*
X12413Y25690D01*
X12373D01*
X12333Y25730D01*
X12293Y25690D01*
X12253D01*
X12293Y25650D01*
X12253Y25610D01*
X12293D01*
X12333Y25570D01*
Y25610D02*
X12353Y25630D01*
X12373D01*
X12353Y25650D01*
X12373Y25670D01*
X12353D01*
X12333Y25690D01*
X12313Y25670D01*
X12293D01*
X12313Y25650D01*
X12293Y25630D01*
X12313D01*
X12333Y25610D01*
X8191Y31898D02*
X8231Y31938D01*
X8271D01*
X8231Y31978D01*
X8271Y32018D01*
X8231D01*
X8191Y32058D01*
X8151Y32018D01*
X8111D01*
X8151Y31978D01*
X8111Y31938D01*
X8151D01*
X8191Y31898D01*
Y31938D02*
X8211Y31958D01*
X8231D01*
X8211Y31978D01*
X8231Y31998D01*
X8211D01*
X8191Y32018D01*
X8171Y31998D01*
X8151D01*
X8171Y31978D01*
X8151Y31958D01*
X8171D01*
X8191Y31938D01*
X10167Y23778D02*
X10207Y23818D01*
X10247D01*
X10207Y23858D01*
X10247Y23898D01*
X10207D01*
X10167Y23938D01*
X10127Y23898D01*
X10087D01*
X10127Y23858D01*
X10087Y23818D01*
X10127D01*
X10167Y23778D01*
Y23818D02*
X10187Y23838D01*
X10207D01*
X10187Y23858D01*
X10207Y23878D01*
X10187D01*
X10167Y23898D01*
X10147Y23878D01*
X10127D01*
X10147Y23858D01*
X10127Y23838D01*
X10147D01*
X10167Y23818D01*
X14801Y20045D02*
X14721Y20205D01*
X14881D01*
X14801Y20045D01*
Y19322D02*
X14721Y19482D01*
X14881D01*
X14801Y19322D01*
Y20767D02*
X14721Y20927D01*
X14881D01*
X14801Y20767D01*
X14079D02*
X13999Y20927D01*
X14159D01*
X14079Y20767D01*
Y19322D02*
X13999Y19482D01*
X14159D01*
X14079Y19322D01*
X15162Y20406D02*
X15082Y20566D01*
X15242D01*
X15162Y20406D01*
X13718D02*
X13638Y20566D01*
X13798D01*
X13718Y20406D01*
X14440D02*
X14360Y20566D01*
X14520D01*
X14440Y20406D01*
X15162Y19683D02*
X15082Y19843D01*
X15242D01*
X15162Y19683D01*
X13718D02*
X13638Y19843D01*
X13798D01*
X13718Y19683D01*
X14440D02*
X14360Y19843D01*
X14520D01*
X14440Y19683D01*
X14079Y20045D02*
X13999Y20205D01*
X14159D01*
X14079Y20045D01*
X11047Y22164D02*
X11087Y22204D01*
X11127D01*
X11087Y22244D01*
X11127Y22284D01*
X11087D01*
X11047Y22324D01*
X11007Y22284D01*
X10967D01*
X11007Y22244D01*
X10967Y22204D01*
X11007D01*
X11047Y22164D01*
Y22204D02*
X11067Y22224D01*
X11087D01*
X11067Y22244D01*
X11087Y22264D01*
X11067D01*
X11047Y22284D01*
X11027Y22264D01*
X11007D01*
X11027Y22244D01*
X11007Y22224D01*
X11027D01*
X11047Y22204D01*
X9802Y18402D02*
X9842Y18442D01*
X9882D01*
X9842Y18482D01*
X9882Y18522D01*
X9842D01*
X9802Y18562D01*
X9762Y18522D01*
X9722D01*
X9762Y18482D01*
X9722Y18442D01*
X9762D01*
X9802Y18402D01*
Y18442D02*
X9822Y18462D01*
X9842D01*
X9822Y18482D01*
X9842Y18502D01*
X9822D01*
X9802Y18522D01*
X9782Y18502D01*
X9762D01*
X9782Y18482D01*
X9762Y18462D01*
X9782D01*
X9802Y18442D01*
X14293Y22008D02*
X14333Y22048D01*
X14373D01*
X14333Y22088D01*
X14373Y22128D01*
X14333D01*
X14293Y22168D01*
X14253Y22128D01*
X14213D01*
X14253Y22088D01*
X14213Y22048D01*
X14253D01*
X14293Y22008D01*
Y22048D02*
X14313Y22068D01*
X14333D01*
X14313Y22088D01*
X14333Y22108D01*
X14313D01*
X14293Y22128D01*
X14273Y22108D01*
X14253D01*
X14273Y22088D01*
X14253Y22068D01*
X14273D01*
X14293Y22048D01*
X12127Y24343D02*
X12167Y24383D01*
X12207D01*
X12167Y24423D01*
X12207Y24463D01*
X12167D01*
X12127Y24503D01*
X12087Y24463D01*
X12047D01*
X12087Y24423D01*
X12047Y24383D01*
X12087D01*
X12127Y24343D01*
Y24383D02*
X12147Y24403D01*
X12167D01*
X12147Y24423D01*
X12167Y24443D01*
X12147D01*
X12127Y24463D01*
X12107Y24443D01*
X12087D01*
X12107Y24423D01*
X12087Y24403D01*
X12107D01*
X12127Y24383D01*
X10030Y17455D02*
X10070Y17495D01*
X10110D01*
X10070Y17535D01*
X10110Y17575D01*
X10070D01*
X10030Y17615D01*
X9990Y17575D01*
X9950D01*
X9990Y17535D01*
X9950Y17495D01*
X9990D01*
X10030Y17455D01*
Y17495D02*
X10050Y17515D01*
X10070D01*
X10050Y17535D01*
X10070Y17555D01*
X10050D01*
X10030Y17575D01*
X10010Y17555D01*
X9990D01*
X10010Y17535D01*
X9990Y17515D01*
X10010D01*
X10030Y17495D01*
X17392Y23217D02*
X17432Y23257D01*
X17472D01*
X17432Y23297D01*
X17472Y23337D01*
X17432D01*
X17392Y23377D01*
X17352Y23337D01*
X17312D01*
X17352Y23297D01*
X17312Y23257D01*
X17352D01*
X17392Y23217D01*
Y23257D02*
X17412Y23277D01*
X17432D01*
X17412Y23297D01*
X17432Y23317D01*
X17412D01*
X17392Y23337D01*
X17372Y23317D01*
X17352D01*
X17372Y23297D01*
X17352Y23277D01*
X17372D01*
X17392Y23257D01*
X16901Y17683D02*
X16941Y17723D01*
X16981D01*
X16941Y17763D01*
X16981Y17803D01*
X16941D01*
X16901Y17843D01*
X16861Y17803D01*
X16821D01*
X16861Y17763D01*
X16821Y17723D01*
X16861D01*
X16901Y17683D01*
Y17723D02*
X16921Y17743D01*
X16941D01*
X16921Y17763D01*
X16941Y17783D01*
X16921D01*
X16901Y17803D01*
X16881Y17783D01*
X16861D01*
X16881Y17763D01*
X16861Y17743D01*
X16881D01*
X16901Y17723D01*
X10168Y17726D02*
X10208Y17766D01*
X10248D01*
X10208Y17806D01*
X10248Y17846D01*
X10208D01*
X10168Y17886D01*
X10128Y17846D01*
X10088D01*
X10128Y17806D01*
X10088Y17766D01*
X10128D01*
X10168Y17726D01*
Y17766D02*
X10188Y17786D01*
X10208D01*
X10188Y17806D01*
X10208Y17826D01*
X10188D01*
X10168Y17846D01*
X10148Y17826D01*
X10128D01*
X10148Y17806D01*
X10128Y17786D01*
X10148D01*
X10168Y17766D01*
X17402Y17667D02*
X17442Y17707D01*
X17482D01*
X17442Y17747D01*
X17482Y17787D01*
X17442D01*
X17402Y17827D01*
X17362Y17787D01*
X17322D01*
X17362Y17747D01*
X17322Y17707D01*
X17362D01*
X17402Y17667D01*
Y17707D02*
X17422Y17727D01*
X17442D01*
X17422Y17747D01*
X17442Y17767D01*
X17422D01*
X17402Y17787D01*
X17382Y17767D01*
X17362D01*
X17382Y17747D01*
X17362Y17727D01*
X17382D01*
X17402Y17707D01*
X18543Y7135D02*
X18583Y7175D01*
X18623D01*
X18583Y7215D01*
X18623Y7255D01*
X18583D01*
X18543Y7295D01*
X18503Y7255D01*
X18463D01*
X18503Y7215D01*
X18463Y7175D01*
X18503D01*
X18543Y7135D01*
Y7175D02*
X18563Y7195D01*
X18583D01*
X18563Y7215D01*
X18583Y7235D01*
X18563D01*
X18543Y7255D01*
X18523Y7235D01*
X18503D01*
X18523Y7215D01*
X18503Y7195D01*
X18523D01*
X18543Y7175D01*
X18848Y6957D02*
X18888Y6997D01*
X18928D01*
X18888Y7037D01*
X18928Y7077D01*
X18888D01*
X18848Y7117D01*
X18808Y7077D01*
X18768D01*
X18808Y7037D01*
X18768Y6997D01*
X18808D01*
X18848Y6957D01*
Y6997D02*
X18868Y7017D01*
X18888D01*
X18868Y7037D01*
X18888Y7057D01*
X18868D01*
X18848Y7077D01*
X18828Y7057D01*
X18808D01*
X18828Y7037D01*
X18808Y7017D01*
X18828D01*
X18848Y6997D01*
X18547Y5243D02*
X18587Y5283D01*
X18627D01*
X18587Y5323D01*
X18627Y5363D01*
X18587D01*
X18547Y5403D01*
X18507Y5363D01*
X18467D01*
X18507Y5323D01*
X18467Y5283D01*
X18507D01*
X18547Y5243D01*
Y5283D02*
X18567Y5303D01*
X18587D01*
X18567Y5323D01*
X18587Y5343D01*
X18567D01*
X18547Y5363D01*
X18527Y5343D01*
X18507D01*
X18527Y5323D01*
X18507Y5303D01*
X18527D01*
X18547Y5283D01*
Y6061D02*
X18587Y6101D01*
X18627D01*
X18587Y6141D01*
X18627Y6181D01*
X18587D01*
X18547Y6221D01*
X18507Y6181D01*
X18467D01*
X18507Y6141D01*
X18467Y6101D01*
X18507D01*
X18547Y6061D01*
Y6101D02*
X18567Y6121D01*
X18587D01*
X18567Y6141D01*
X18587Y6161D01*
X18567D01*
X18547Y6181D01*
X18527Y6161D01*
X18507D01*
X18527Y6141D01*
X18507Y6121D01*
X18527D01*
X18547Y6101D01*
Y5619D02*
X18587Y5659D01*
X18627D01*
X18587Y5699D01*
X18627Y5739D01*
X18587D01*
X18547Y5779D01*
X18507Y5739D01*
X18467D01*
X18507Y5699D01*
X18467Y5659D01*
X18507D01*
X18547Y5619D01*
Y5659D02*
X18567Y5679D01*
X18587D01*
X18567Y5699D01*
X18587Y5719D01*
X18567D01*
X18547Y5739D01*
X18527Y5719D01*
X18507D01*
X18527Y5699D01*
X18507Y5679D01*
X18527D01*
X18547Y5659D01*
Y6424D02*
X18587Y6464D01*
X18627D01*
X18587Y6504D01*
X18627Y6544D01*
X18587D01*
X18547Y6584D01*
X18507Y6544D01*
X18467D01*
X18507Y6504D01*
X18467Y6464D01*
X18507D01*
X18547Y6424D01*
Y6464D02*
X18567Y6484D01*
X18587D01*
X18567Y6504D01*
X18587Y6524D01*
X18567D01*
X18547Y6544D01*
X18527Y6524D01*
X18507D01*
X18527Y6504D01*
X18507Y6484D01*
X18527D01*
X18547Y6464D01*
X13954Y7263D02*
X13994Y7303D01*
X14034D01*
X13994Y7343D01*
X14034Y7383D01*
X13994D01*
X13954Y7423D01*
X13914Y7383D01*
X13874D01*
X13914Y7343D01*
X13874Y7303D01*
X13914D01*
X13954Y7263D01*
Y7303D02*
X13974Y7323D01*
X13994D01*
X13974Y7343D01*
X13994Y7363D01*
X13974D01*
X13954Y7383D01*
X13934Y7363D01*
X13914D01*
X13934Y7343D01*
X13914Y7323D01*
X13934D01*
X13954Y7303D01*
X15119Y8315D02*
X15159Y8355D01*
X15199D01*
X15159Y8395D01*
X15199Y8435D01*
X15159D01*
X15119Y8475D01*
X15079Y8435D01*
X15039D01*
X15079Y8395D01*
X15039Y8355D01*
X15079D01*
X15119Y8315D01*
Y8355D02*
X15139Y8375D01*
X15159D01*
X15139Y8395D01*
X15159Y8415D01*
X15139D01*
X15119Y8435D01*
X15099Y8415D01*
X15079D01*
X15099Y8395D01*
X15079Y8375D01*
X15099D01*
X15119Y8355D01*
X15115Y7908D02*
X15155Y7948D01*
X15195D01*
X15155Y7988D01*
X15195Y8028D01*
X15155D01*
X15115Y8068D01*
X15075Y8028D01*
X15035D01*
X15075Y7988D01*
X15035Y7948D01*
X15075D01*
X15115Y7908D01*
Y7948D02*
X15135Y7968D01*
X15155D01*
X15135Y7988D01*
X15155Y8008D01*
X15135D01*
X15115Y8028D01*
X15095Y8008D01*
X15075D01*
X15095Y7988D01*
X15075Y7968D01*
X15095D01*
X15115Y7948D01*
X5602Y5104D02*
X5642Y5144D01*
X5682D01*
X5642Y5184D01*
X5682Y5224D01*
X5642D01*
X5602Y5264D01*
X5562Y5224D01*
X5522D01*
X5562Y5184D01*
X5522Y5144D01*
X5562D01*
X5602Y5104D01*
Y5144D02*
X5622Y5164D01*
X5642D01*
X5622Y5184D01*
X5642Y5204D01*
X5622D01*
X5602Y5224D01*
X5582Y5204D01*
X5562D01*
X5582Y5184D01*
X5562Y5164D01*
X5582D01*
X5602Y5144D01*
X21885Y3651D02*
X21925Y3691D01*
X21965D01*
X21925Y3731D01*
X21965Y3771D01*
X21925D01*
X21885Y3811D01*
X21845Y3771D01*
X21805D01*
X21845Y3731D01*
X21805Y3691D01*
X21845D01*
X21885Y3651D01*
Y3691D02*
X21905Y3711D01*
X21925D01*
X21905Y3731D01*
X21925Y3751D01*
X21905D01*
X21885Y3771D01*
X21865Y3751D01*
X21845D01*
X21865Y3731D01*
X21845Y3711D01*
X21865D01*
X21885Y3691D01*
X14618Y38371D02*
X14658Y38411D01*
X14698D01*
X14658Y38451D01*
X14698Y38491D01*
X14658D01*
X14618Y38531D01*
X14578Y38491D01*
X14538D01*
X14578Y38451D01*
X14538Y38411D01*
X14578D01*
X14618Y38371D01*
Y38411D02*
X14638Y38431D01*
X14658D01*
X14638Y38451D01*
X14658Y38471D01*
X14638D01*
X14618Y38491D01*
X14598Y38471D01*
X14578D01*
X14598Y38451D01*
X14578Y38431D01*
X14598D01*
X14618Y38411D01*
X9537Y21270D02*
X9577Y21310D01*
X9617D01*
X9577Y21350D01*
X9617Y21390D01*
X9577D01*
X9537Y21430D01*
X9497Y21390D01*
X9457D01*
X9497Y21350D01*
X9457Y21310D01*
X9497D01*
X9537Y21270D01*
Y21310D02*
X9557Y21330D01*
X9577D01*
X9557Y21350D01*
X9577Y21370D01*
X9557D01*
X9537Y21390D01*
X9517Y21370D01*
X9497D01*
X9517Y21350D01*
X9497Y21330D01*
X9517D01*
X9537Y21310D01*
X5999Y6357D02*
X6039Y6397D01*
X6079D01*
X6039Y6437D01*
X6079Y6477D01*
X6039D01*
X5999Y6517D01*
X5959Y6477D01*
X5919D01*
X5959Y6437D01*
X5919Y6397D01*
X5959D01*
X5999Y6357D01*
Y6397D02*
X6019Y6417D01*
X6039D01*
X6019Y6437D01*
X6039Y6457D01*
X6019D01*
X5999Y6477D01*
X5979Y6457D01*
X5959D01*
X5979Y6437D01*
X5959Y6417D01*
X5979D01*
X5999Y6397D01*
X23327Y6209D02*
X23367Y6249D01*
X23407D01*
X23367Y6289D01*
X23407Y6329D01*
X23367D01*
X23327Y6369D01*
X23287Y6329D01*
X23247D01*
X23287Y6289D01*
X23247Y6249D01*
X23287D01*
X23327Y6209D01*
Y6249D02*
X23347Y6269D01*
X23367D01*
X23347Y6289D01*
X23367Y6309D01*
X23347D01*
X23327Y6329D01*
X23307Y6309D01*
X23287D01*
X23307Y6289D01*
X23287Y6269D01*
X23307D01*
X23327Y6249D01*
X22304Y7002D02*
X22344Y7042D01*
X22384D01*
X22344Y7082D01*
X22384Y7122D01*
X22344D01*
X22304Y7162D01*
X22264Y7122D01*
X22224D01*
X22264Y7082D01*
X22224Y7042D01*
X22264D01*
X22304Y7002D01*
Y7042D02*
X22324Y7062D01*
X22344D01*
X22324Y7082D01*
X22344Y7102D01*
X22324D01*
X22304Y7122D01*
X22284Y7102D01*
X22264D01*
X22284Y7082D01*
X22264Y7062D01*
X22284D01*
X22304Y7042D01*
X17057Y4959D02*
X17097Y4999D01*
X17137D01*
X17097Y5039D01*
X17137Y5079D01*
X17097D01*
X17057Y5119D01*
X17017Y5079D01*
X16977D01*
X17017Y5039D01*
X16977Y4999D01*
X17017D01*
X17057Y4959D01*
Y4999D02*
X17077Y5019D01*
X17097D01*
X17077Y5039D01*
X17097Y5059D01*
X17077D01*
X17057Y5079D01*
X17037Y5059D01*
X17017D01*
X17037Y5039D01*
X17017Y5019D01*
X17037D01*
X17057Y4999D01*
X17175Y4329D02*
X17215Y4369D01*
X17255D01*
X17215Y4409D01*
X17255Y4449D01*
X17215D01*
X17175Y4489D01*
X17135Y4449D01*
X17095D01*
X17135Y4409D01*
X17095Y4369D01*
X17135D01*
X17175Y4329D01*
Y4369D02*
X17195Y4389D01*
X17215D01*
X17195Y4409D01*
X17215Y4429D01*
X17195D01*
X17175Y4449D01*
X17155Y4429D01*
X17135D01*
X17155Y4409D01*
X17135Y4389D01*
X17155D01*
X17175Y4369D01*
X13625Y39422D02*
X13665Y39462D01*
X13705D01*
X13665Y39502D01*
X13705Y39542D01*
X13665D01*
X13625Y39582D01*
X13585Y39542D01*
X13545D01*
X13585Y39502D01*
X13545Y39462D01*
X13585D01*
X13625Y39422D01*
Y39462D02*
X13645Y39482D01*
X13665D01*
X13645Y39502D01*
X13665Y39522D01*
X13645D01*
X13625Y39542D01*
X13605Y39522D01*
X13585D01*
X13605Y39502D01*
X13585Y39482D01*
X13605D01*
X13625Y39462D01*
X15211Y39462D02*
X15251Y39502D01*
X15291D01*
X15251Y39542D01*
X15291Y39582D01*
X15251D01*
X15211Y39622D01*
X15171Y39582D01*
X15131D01*
X15171Y39542D01*
X15131Y39502D01*
X15171D01*
X15211Y39462D01*
Y39502D02*
X15231Y39522D01*
X15251D01*
X15231Y39542D01*
X15251Y39562D01*
X15231D01*
X15211Y39582D01*
X15191Y39562D01*
X15171D01*
X15191Y39542D01*
X15171Y39522D01*
X15191D01*
X15211Y39502D01*
Y39128D02*
X15251Y39168D01*
X15291D01*
X15251Y39208D01*
X15291Y39248D01*
X15251D01*
X15211Y39288D01*
X15171Y39248D01*
X15131D01*
X15171Y39208D01*
X15131Y39168D01*
X15171D01*
X15211Y39128D01*
Y39168D02*
X15231Y39188D01*
X15251D01*
X15231Y39208D01*
X15251Y39228D01*
X15231D01*
X15211Y39248D01*
X15191Y39228D01*
X15171D01*
X15191Y39208D01*
X15171Y39188D01*
X15191D01*
X15211Y39168D01*
X7864Y3463D02*
X7904Y3503D01*
X7944D01*
X7904Y3543D01*
X7944Y3583D01*
X7904D01*
X7864Y3623D01*
X7824Y3583D01*
X7784D01*
X7824Y3543D01*
X7784Y3503D01*
X7824D01*
X7864Y3463D01*
Y3503D02*
X7884Y3523D01*
X7904D01*
X7884Y3543D01*
X7904Y3563D01*
X7884D01*
X7864Y3583D01*
X7844Y3563D01*
X7824D01*
X7844Y3543D01*
X7824Y3523D01*
X7844D01*
X7864Y3503D01*
X7392Y580D02*
X7432Y620D01*
X7472D01*
X7432Y660D01*
X7472Y700D01*
X7432D01*
X7392Y740D01*
X7352Y700D01*
X7312D01*
X7352Y660D01*
X7312Y620D01*
X7352D01*
X7392Y580D01*
Y620D02*
X7412Y640D01*
X7432D01*
X7412Y660D01*
X7432Y680D01*
X7412D01*
X7392Y700D01*
X7372Y680D01*
X7352D01*
X7372Y660D01*
X7352Y640D01*
X7372D01*
X7392Y620D01*
X5502Y580D02*
X5542Y620D01*
X5582D01*
X5542Y660D01*
X5582Y700D01*
X5542D01*
X5502Y740D01*
X5462Y700D01*
X5422D01*
X5462Y660D01*
X5422Y620D01*
X5462D01*
X5502Y580D01*
Y620D02*
X5522Y640D01*
X5542D01*
X5522Y660D01*
X5542Y680D01*
X5522D01*
X5502Y700D01*
X5482Y680D01*
X5462D01*
X5482Y660D01*
X5462Y640D01*
X5482D01*
X5502Y620D01*
X11317Y867D02*
X11357Y907D01*
X11397D01*
X11357Y947D01*
X11397Y987D01*
X11357D01*
X11317Y1027D01*
X11277Y987D01*
X11237D01*
X11277Y947D01*
X11237Y907D01*
X11277D01*
X11317Y867D01*
Y907D02*
X11337Y927D01*
X11357D01*
X11337Y947D01*
X11357Y967D01*
X11337D01*
X11317Y987D01*
X11297Y967D01*
X11277D01*
X11297Y947D01*
X11277Y927D01*
X11297D01*
X11317Y907D01*
X6031Y2667D02*
X6071Y2707D01*
X6111D01*
X6071Y2747D01*
X6111Y2787D01*
X6071D01*
X6031Y2827D01*
X5991Y2787D01*
X5951D01*
X5991Y2747D01*
X5951Y2707D01*
X5991D01*
X6031Y2667D01*
Y2707D02*
X6051Y2727D01*
X6071D01*
X6051Y2747D01*
X6071Y2767D01*
X6051D01*
X6031Y2787D01*
X6011Y2767D01*
X5991D01*
X6011Y2747D01*
X5991Y2727D01*
X6011D01*
X6031Y2707D01*
X6795Y3110D02*
X6835Y3150D01*
X6875D01*
X6835Y3190D01*
X6875Y3230D01*
X6835D01*
X6795Y3270D01*
X6755Y3230D01*
X6715D01*
X6755Y3190D01*
X6715Y3150D01*
X6755D01*
X6795Y3110D01*
Y3150D02*
X6815Y3170D01*
X6835D01*
X6815Y3190D01*
X6835Y3210D01*
X6815D01*
X6795Y3230D01*
X6775Y3210D01*
X6755D01*
X6775Y3190D01*
X6755Y3170D01*
X6775D01*
X6795Y3150D01*
X6780Y2401D02*
X6820Y2441D01*
X6860D01*
X6820Y2481D01*
X6860Y2521D01*
X6820D01*
X6780Y2561D01*
X6740Y2521D01*
X6700D01*
X6740Y2481D01*
X6700Y2441D01*
X6740D01*
X6780Y2401D01*
Y2441D02*
X6800Y2461D01*
X6820D01*
X6800Y2481D01*
X6820Y2501D01*
X6800D01*
X6780Y2521D01*
X6760Y2501D01*
X6740D01*
X6760Y2481D01*
X6740Y2461D01*
X6760D01*
X6780Y2441D01*
X8169Y3158D02*
X8209Y3198D01*
X8249D01*
X8209Y3238D01*
X8249Y3278D01*
X8209D01*
X8169Y3318D01*
X8129Y3278D01*
X8089D01*
X8129Y3238D01*
X8089Y3198D01*
X8129D01*
X8169Y3158D01*
Y3198D02*
X8189Y3218D01*
X8209D01*
X8189Y3238D01*
X8209Y3258D01*
X8189D01*
X8169Y3278D01*
X8149Y3258D01*
X8129D01*
X8149Y3238D01*
X8129Y3218D01*
X8149D01*
X8169Y3198D01*
X7864Y3158D02*
X7904Y3198D01*
X7944D01*
X7904Y3238D01*
X7944Y3278D01*
X7904D01*
X7864Y3318D01*
X7824Y3278D01*
X7784D01*
X7824Y3238D01*
X7784Y3198D01*
X7824D01*
X7864Y3158D01*
Y3198D02*
X7884Y3218D01*
X7904D01*
X7884Y3238D01*
X7904Y3258D01*
X7884D01*
X7864Y3278D01*
X7844Y3258D01*
X7824D01*
X7844Y3238D01*
X7824Y3218D01*
X7844D01*
X7864Y3198D01*
X7795Y5727D02*
X7715Y5887D01*
X7875D01*
X7795Y5727D01*
Y5294D02*
X7715Y5454D01*
X7875D01*
X7795Y5294D01*
Y4861D02*
X7715Y5021D01*
X7875D01*
X7795Y4861D01*
Y4428D02*
X7715Y4588D01*
X7875D01*
X7795Y4428D01*
X7362Y5727D02*
X7282Y5887D01*
X7442D01*
X7362Y5727D01*
Y4428D02*
X7282Y4588D01*
X7442D01*
X7362Y4428D01*
X6929Y5727D02*
X6849Y5887D01*
X7009D01*
X6929Y5727D01*
X6496D02*
X6416Y5887D01*
X6576D01*
X6496Y5727D01*
Y5294D02*
X6416Y5454D01*
X6576D01*
X6496Y5294D01*
Y4861D02*
X6416Y5021D01*
X6576D01*
X6496Y4861D01*
Y4428D02*
X6416Y4588D01*
X6576D01*
X6496Y4428D01*
X6929D02*
X6849Y4588D01*
X7009D01*
X6929Y4428D01*
X7362Y4861D02*
X7282Y5021D01*
X7442D01*
X7362Y4861D01*
Y5294D02*
X7282Y5454D01*
X7442D01*
X7362Y5294D01*
X6929Y4861D02*
X6849Y5021D01*
X7009D01*
X6929Y4861D01*
X6949Y5294D02*
X6869Y5454D01*
X7029D01*
X6949Y5294D01*
X5591Y5698D02*
X5631Y5738D01*
X5671D01*
X5631Y5778D01*
X5671Y5818D01*
X5631D01*
X5591Y5858D01*
X5551Y5818D01*
X5511D01*
X5551Y5778D01*
X5511Y5738D01*
X5551D01*
X5591Y5698D01*
Y5738D02*
X5611Y5758D01*
X5631D01*
X5611Y5778D01*
X5631Y5798D01*
X5611D01*
X5591Y5818D01*
X5571Y5798D01*
X5551D01*
X5571Y5778D01*
X5551Y5758D01*
X5571D01*
X5591Y5738D01*
X5682Y6285D02*
X5722Y6325D01*
X5762D01*
X5722Y6365D01*
X5762Y6405D01*
X5722D01*
X5682Y6445D01*
X5642Y6405D01*
X5602D01*
X5642Y6365D01*
X5602Y6325D01*
X5642D01*
X5682Y6285D01*
Y6325D02*
X5702Y6345D01*
X5722D01*
X5702Y6365D01*
X5722Y6385D01*
X5702D01*
X5682Y6405D01*
X5662Y6385D01*
X5642D01*
X5662Y6365D01*
X5642Y6345D01*
X5662D01*
X5682Y6325D01*
X7512Y7161D02*
X7552Y7201D01*
X7592D01*
X7552Y7241D01*
X7592Y7281D01*
X7552D01*
X7512Y7321D01*
X7472Y7281D01*
X7432D01*
X7472Y7241D01*
X7432Y7201D01*
X7472D01*
X7512Y7161D01*
Y7201D02*
X7532Y7221D01*
X7552D01*
X7532Y7241D01*
X7552Y7261D01*
X7532D01*
X7512Y7281D01*
X7492Y7261D01*
X7472D01*
X7492Y7241D01*
X7472Y7221D01*
X7492D01*
X7512Y7201D01*
X5622Y4452D02*
X5662Y4492D01*
X5702D01*
X5662Y4532D01*
X5702Y4572D01*
X5662D01*
X5622Y4612D01*
X5582Y4572D01*
X5542D01*
X5582Y4532D01*
X5542Y4492D01*
X5582D01*
X5622Y4452D01*
Y4492D02*
X5642Y4512D01*
X5662D01*
X5642Y4532D01*
X5662Y4552D01*
X5642D01*
X5622Y4572D01*
X5602Y4552D01*
X5582D01*
X5602Y4532D01*
X5582Y4512D01*
X5602D01*
X5622Y4492D01*
X7798Y6745D02*
X7838Y6785D01*
X7878D01*
X7838Y6825D01*
X7878Y6865D01*
X7838D01*
X7798Y6905D01*
X7758Y6865D01*
X7718D01*
X7758Y6825D01*
X7718Y6785D01*
X7758D01*
X7798Y6745D01*
Y6785D02*
X7818Y6805D01*
X7838D01*
X7818Y6825D01*
X7838Y6845D01*
X7818D01*
X7798Y6865D01*
X7778Y6845D01*
X7758D01*
X7778Y6825D01*
X7758Y6805D01*
X7778D01*
X7798Y6785D01*
X8996Y4526D02*
X9036Y4566D01*
X9076D01*
X9036Y4606D01*
X9076Y4646D01*
X9036D01*
X8996Y4686D01*
X8956Y4646D01*
X8916D01*
X8956Y4606D01*
X8916Y4566D01*
X8956D01*
X8996Y4526D01*
Y4566D02*
X9016Y4586D01*
X9036D01*
X9016Y4606D01*
X9036Y4626D01*
X9016D01*
X8996Y4646D01*
X8976Y4626D01*
X8956D01*
X8976Y4606D01*
X8956Y4586D01*
X8976D01*
X8996Y4566D01*
X7567Y7663D02*
X7607Y7703D01*
X7647D01*
X7607Y7743D01*
X7647Y7783D01*
X7607D01*
X7567Y7823D01*
X7527Y7783D01*
X7487D01*
X7527Y7743D01*
X7487Y7703D01*
X7527D01*
X7567Y7663D01*
Y7703D02*
X7587Y7723D01*
X7607D01*
X7587Y7743D01*
X7607Y7763D01*
X7587D01*
X7567Y7783D01*
X7547Y7763D01*
X7527D01*
X7547Y7743D01*
X7527Y7723D01*
X7547D01*
X7567Y7703D01*
X25187Y3109D02*
X25227Y3149D01*
X25267D01*
X25227Y3189D01*
X25267Y3229D01*
X25227D01*
X25187Y3269D01*
X25147Y3229D01*
X25107D01*
X25147Y3189D01*
X25107Y3149D01*
X25147D01*
X25187Y3109D01*
Y3149D02*
X25207Y3169D01*
X25227D01*
X25207Y3189D01*
X25227Y3209D01*
X25207D01*
X25187Y3229D01*
X25167Y3209D01*
X25147D01*
X25167Y3189D01*
X25147Y3169D01*
X25167D01*
X25187Y3149D01*
X9380Y2282D02*
X9420Y2322D01*
X9460D01*
X9420Y2362D01*
X9460Y2402D01*
X9420D01*
X9380Y2442D01*
X9340Y2402D01*
X9300D01*
X9340Y2362D01*
X9300Y2322D01*
X9340D01*
X9380Y2282D01*
Y2322D02*
X9400Y2342D01*
X9420D01*
X9400Y2362D01*
X9420Y2382D01*
X9400D01*
X9380Y2402D01*
X9360Y2382D01*
X9340D01*
X9360Y2362D01*
X9340Y2342D01*
X9360D01*
X9380Y2322D01*
X10990Y3691D02*
X11030Y3731D01*
X11070D01*
X11030Y3771D01*
X11070Y3811D01*
X11030D01*
X10990Y3851D01*
X10950Y3811D01*
X10910D01*
X10950Y3771D01*
X10910Y3731D01*
X10950D01*
X10990Y3691D01*
Y3731D02*
X11010Y3751D01*
X11030D01*
X11010Y3771D01*
X11030Y3791D01*
X11010D01*
X10990Y3811D01*
X10970Y3791D01*
X10950D01*
X10970Y3771D01*
X10950Y3751D01*
X10970D01*
X10990Y3731D01*
Y3287D02*
X11030Y3327D01*
X11070D01*
X11030Y3367D01*
X11070Y3407D01*
X11030D01*
X10990Y3447D01*
X10950Y3407D01*
X10910D01*
X10950Y3367D01*
X10910Y3327D01*
X10950D01*
X10990Y3287D01*
Y3327D02*
X11010Y3347D01*
X11030D01*
X11010Y3367D01*
X11030Y3387D01*
X11010D01*
X10990Y3407D01*
X10970Y3387D01*
X10950D01*
X10970Y3367D01*
X10950Y3347D01*
X10970D01*
X10990Y3327D01*
Y2890D02*
X11030Y2930D01*
X11070D01*
X11030Y2970D01*
X11070Y3010D01*
X11030D01*
X10990Y3050D01*
X10950Y3010D01*
X10910D01*
X10950Y2970D01*
X10910Y2930D01*
X10950D01*
X10990Y2890D01*
Y2930D02*
X11010Y2950D01*
X11030D01*
X11010Y2970D01*
X11030Y2990D01*
X11010D01*
X10990Y3010D01*
X10970Y2990D01*
X10950D01*
X10970Y2970D01*
X10950Y2950D01*
X10970D01*
X10990Y2930D01*
X12001Y13376D02*
X12041Y13416D01*
X12081D01*
X12041Y13456D01*
X12081Y13496D01*
X12041D01*
X12001Y13536D01*
X11961Y13496D01*
X11921D01*
X11961Y13456D01*
X11921Y13416D01*
X11961D01*
X12001Y13376D01*
Y13416D02*
X12021Y13436D01*
X12041D01*
X12021Y13456D01*
X12041Y13476D01*
X12021D01*
X12001Y13496D01*
X11981Y13476D01*
X11961D01*
X11981Y13456D01*
X11961Y13436D01*
X11981D01*
X12001Y13416D01*
X9407Y8735D02*
X9447Y8775D01*
X9487D01*
X9447Y8815D01*
X9487Y8855D01*
X9447D01*
X9407Y8895D01*
X9367Y8855D01*
X9327D01*
X9367Y8815D01*
X9327Y8775D01*
X9367D01*
X9407Y8735D01*
Y8775D02*
X9427Y8795D01*
X9447D01*
X9427Y8815D01*
X9447Y8835D01*
X9427D01*
X9407Y8855D01*
X9387Y8835D01*
X9367D01*
X9387Y8815D01*
X9367Y8795D01*
X9387D01*
X9407Y8775D01*
X8411Y12022D02*
X8451Y12062D01*
X8491D01*
X8451Y12102D01*
X8491Y12142D01*
X8451D01*
X8411Y12182D01*
X8371Y12142D01*
X8331D01*
X8371Y12102D01*
X8331Y12062D01*
X8371D01*
X8411Y12022D01*
Y12062D02*
X8431Y12082D01*
X8451D01*
X8431Y12102D01*
X8451Y12122D01*
X8431D01*
X8411Y12142D01*
X8391Y12122D01*
X8371D01*
X8391Y12102D01*
X8371Y12082D01*
X8391D01*
X8411Y12062D01*
X5496Y7059D02*
X5536Y7099D01*
X5576D01*
X5536Y7139D01*
X5576Y7179D01*
X5536D01*
X5496Y7219D01*
X5456Y7179D01*
X5416D01*
X5456Y7139D01*
X5416Y7099D01*
X5456D01*
X5496Y7059D01*
Y7099D02*
X5516Y7119D01*
X5536D01*
X5516Y7139D01*
X5536Y7159D01*
X5516D01*
X5496Y7179D01*
X5476Y7159D01*
X5456D01*
X5476Y7139D01*
X5456Y7119D01*
X5476D01*
X5496Y7099D01*
X8819Y9822D02*
X8859Y9862D01*
X8899D01*
X8859Y9902D01*
X8899Y9942D01*
X8859D01*
X8819Y9982D01*
X8779Y9942D01*
X8739D01*
X8779Y9902D01*
X8739Y9862D01*
X8779D01*
X8819Y9822D01*
Y9862D02*
X8839Y9882D01*
X8859D01*
X8839Y9902D01*
X8859Y9922D01*
X8839D01*
X8819Y9942D01*
X8799Y9922D01*
X8779D01*
X8799Y9902D01*
X8779Y9882D01*
X8799D01*
X8819Y9862D01*
X8858Y5125D02*
X8898Y5165D01*
X8938D01*
X8898Y5205D01*
X8938Y5245D01*
X8898D01*
X8858Y5285D01*
X8818Y5245D01*
X8778D01*
X8818Y5205D01*
X8778Y5165D01*
X8818D01*
X8858Y5125D01*
Y5165D02*
X8878Y5185D01*
X8898D01*
X8878Y5205D01*
X8898Y5225D01*
X8878D01*
X8858Y5245D01*
X8838Y5225D01*
X8818D01*
X8838Y5205D01*
X8818Y5185D01*
X8838D01*
X8858Y5165D01*
X15330Y15351D02*
X15370Y15391D01*
X15410D01*
X15370Y15431D01*
X15410Y15471D01*
X15370D01*
X15330Y15511D01*
X15290Y15471D01*
X15250D01*
X15290Y15431D01*
X15250Y15391D01*
X15290D01*
X15330Y15351D01*
Y15391D02*
X15350Y15411D01*
X15370D01*
X15350Y15431D01*
X15370Y15451D01*
X15350D01*
X15330Y15471D01*
X15310Y15451D01*
X15290D01*
X15310Y15431D01*
X15290Y15411D01*
X15310D01*
X15330Y15391D01*
X20778Y16820D02*
X20818Y16860D01*
X20858D01*
X20818Y16900D01*
X20858Y16940D01*
X20818D01*
X20778Y16980D01*
X20738Y16940D01*
X20698D01*
X20738Y16900D01*
X20698Y16860D01*
X20738D01*
X20778Y16820D01*
Y16860D02*
X20798Y16880D01*
X20818D01*
X20798Y16900D01*
X20818Y16920D01*
X20798D01*
X20778Y16940D01*
X20758Y16920D01*
X20738D01*
X20758Y16900D01*
X20738Y16880D01*
X20758D01*
X20778Y16860D01*
X14882Y13345D02*
X14922Y13385D01*
X14962D01*
X14922Y13425D01*
X14962Y13465D01*
X14922D01*
X14882Y13505D01*
X14842Y13465D01*
X14802D01*
X14842Y13425D01*
X14802Y13385D01*
X14842D01*
X14882Y13345D01*
Y13385D02*
X14902Y13405D01*
X14922D01*
X14902Y13425D01*
X14922Y13445D01*
X14902D01*
X14882Y13465D01*
X14862Y13445D01*
X14842D01*
X14862Y13425D01*
X14842Y13405D01*
X14862D01*
X14882Y13385D01*
X14902Y13749D02*
X14942Y13789D01*
X14982D01*
X14942Y13829D01*
X14982Y13869D01*
X14942D01*
X14902Y13909D01*
X14862Y13869D01*
X14822D01*
X14862Y13829D01*
X14822Y13789D01*
X14862D01*
X14902Y13749D01*
Y13789D02*
X14922Y13809D01*
X14942D01*
X14922Y13829D01*
X14942Y13849D01*
X14922D01*
X14902Y13869D01*
X14882Y13849D01*
X14862D01*
X14882Y13829D01*
X14862Y13809D01*
X14882D01*
X14902Y13789D01*
X18909Y11301D02*
X18949Y11341D01*
X18989D01*
X18949Y11381D01*
X18989Y11421D01*
X18949D01*
X18909Y11461D01*
X18869Y11421D01*
X18829D01*
X18869Y11381D01*
X18829Y11341D01*
X18869D01*
X18909Y11301D01*
Y11341D02*
X18929Y11361D01*
X18949D01*
X18929Y11381D01*
X18949Y11401D01*
X18929D01*
X18909Y11421D01*
X18889Y11401D01*
X18869D01*
X18889Y11381D01*
X18869Y11361D01*
X18889D01*
X18909Y11341D01*
X18445Y11081D02*
X18485Y11121D01*
X18525D01*
X18485Y11161D01*
X18525Y11201D01*
X18485D01*
X18445Y11241D01*
X18405Y11201D01*
X18365D01*
X18405Y11161D01*
X18365Y11121D01*
X18405D01*
X18445Y11081D01*
Y11121D02*
X18465Y11141D01*
X18485D01*
X18465Y11161D01*
X18485Y11181D01*
X18465D01*
X18445Y11201D01*
X18425Y11181D01*
X18405D01*
X18425Y11161D01*
X18405Y11141D01*
X18425D01*
X18445Y11121D01*
X11978Y16178D02*
X12018Y16218D01*
X12058D01*
X12018Y16258D01*
X12058Y16298D01*
X12018D01*
X11978Y16338D01*
X11938Y16298D01*
X11898D01*
X11938Y16258D01*
X11898Y16218D01*
X11938D01*
X11978Y16178D01*
Y16218D02*
X11998Y16238D01*
X12018D01*
X11998Y16258D01*
X12018Y16278D01*
X11998D01*
X11978Y16298D01*
X11958Y16278D01*
X11938D01*
X11958Y16258D01*
X11938Y16238D01*
X11958D01*
X11978Y16218D01*
X8793Y1192D02*
X8833Y1232D01*
X8873D01*
X8833Y1272D01*
X8873Y1312D01*
X8833D01*
X8793Y1352D01*
X8753Y1312D01*
X8713D01*
X8753Y1272D01*
X8713Y1232D01*
X8753D01*
X8793Y1192D01*
Y1232D02*
X8813Y1252D01*
X8833D01*
X8813Y1272D01*
X8833Y1292D01*
X8813D01*
X8793Y1312D01*
X8773Y1292D01*
X8753D01*
X8773Y1272D01*
X8753Y1252D01*
X8773D01*
X8793Y1232D01*
X8411Y1192D02*
X8451Y1232D01*
X8491D01*
X8451Y1272D01*
X8491Y1312D01*
X8451D01*
X8411Y1352D01*
X8371Y1312D01*
X8331D01*
X8371Y1272D01*
X8331Y1232D01*
X8371D01*
X8411Y1192D01*
Y1232D02*
X8431Y1252D01*
X8451D01*
X8431Y1272D01*
X8451Y1292D01*
X8431D01*
X8411Y1312D01*
X8391Y1292D01*
X8371D01*
X8391Y1272D01*
X8371Y1252D01*
X8391D01*
X8411Y1232D01*
X7392Y1140D02*
X7432Y1180D01*
X7472D01*
X7432Y1220D01*
X7472Y1260D01*
X7432D01*
X7392Y1300D01*
X7352Y1260D01*
X7312D01*
X7352Y1220D01*
X7312Y1180D01*
X7352D01*
X7392Y1140D01*
Y1180D02*
X7412Y1200D01*
X7432D01*
X7412Y1220D01*
X7432Y1240D01*
X7412D01*
X7392Y1260D01*
X7372Y1240D01*
X7352D01*
X7372Y1220D01*
X7352Y1200D01*
X7372D01*
X7392Y1180D01*
X5502Y1124D02*
X5542Y1164D01*
X5582D01*
X5542Y1204D01*
X5582Y1244D01*
X5542D01*
X5502Y1284D01*
X5462Y1244D01*
X5422D01*
X5462Y1204D01*
X5422Y1164D01*
X5462D01*
X5502Y1124D01*
Y1164D02*
X5522Y1184D01*
X5542D01*
X5522Y1204D01*
X5542Y1224D01*
X5522D01*
X5502Y1244D01*
X5482Y1224D01*
X5462D01*
X5482Y1204D01*
X5462Y1184D01*
X5482D01*
X5502Y1164D01*
X9075Y2282D02*
X9115Y2322D01*
X9155D01*
X9115Y2362D01*
X9155Y2402D01*
X9115D01*
X9075Y2442D01*
X9035Y2402D01*
X8995D01*
X9035Y2362D01*
X8995Y2322D01*
X9035D01*
X9075Y2282D01*
Y2322D02*
X9095Y2342D01*
X9115D01*
X9095Y2362D01*
X9115Y2382D01*
X9095D01*
X9075Y2402D01*
X9055Y2382D01*
X9035D01*
X9055Y2362D01*
X9035Y2342D01*
X9055D01*
X9075Y2322D01*
X8023Y2200D02*
X8063Y2239D01*
X8103D01*
X8063Y2280D01*
X8103Y2319D01*
X8063D01*
X8023Y2359D01*
X7983Y2319D01*
X7943D01*
X7983Y2280D01*
X7943Y2239D01*
X7983D01*
X8023Y2200D01*
Y2239D02*
X8043Y2260D01*
X8063D01*
X8043Y2280D01*
X8063Y2299D01*
X8043D01*
X8023Y2319D01*
X8003Y2299D01*
X7983D01*
X8003Y2280D01*
X7983Y2260D01*
X8003D01*
X8023Y2239D01*
X7618Y2185D02*
X7658Y2225D01*
X7698D01*
X7658Y2265D01*
X7698Y2305D01*
X7658D01*
X7618Y2345D01*
X7578Y2305D01*
X7538D01*
X7578Y2265D01*
X7538Y2225D01*
X7578D01*
X7618Y2185D01*
Y2225D02*
X7638Y2245D01*
X7658D01*
X7638Y2265D01*
X7658Y2285D01*
X7638D01*
X7618Y2305D01*
X7598Y2285D01*
X7578D01*
X7598Y2265D01*
X7578Y2245D01*
X7598D01*
X7618Y2225D01*
X7214Y2185D02*
X7254Y2225D01*
X7294D01*
X7254Y2265D01*
X7294Y2305D01*
X7254D01*
X7214Y2345D01*
X7174Y2305D01*
X7134D01*
X7174Y2265D01*
X7134Y2225D01*
X7174D01*
X7214Y2185D01*
Y2225D02*
X7234Y2245D01*
X7254D01*
X7234Y2265D01*
X7254Y2285D01*
X7234D01*
X7214Y2305D01*
X7194Y2285D01*
X7174D01*
X7194Y2265D01*
X7174Y2245D01*
X7194D01*
X7214Y2225D01*
X4922Y2737D02*
X4962Y2777D01*
X5002D01*
X4962Y2817D01*
X5002Y2857D01*
X4962D01*
X4922Y2897D01*
X4882Y2857D01*
X4842D01*
X4882Y2817D01*
X4842Y2777D01*
X4882D01*
X4922Y2737D01*
Y2777D02*
X4942Y2797D01*
X4962D01*
X4942Y2817D01*
X4962Y2837D01*
X4942D01*
X4922Y2857D01*
X4902Y2837D01*
X4882D01*
X4902Y2817D01*
X4882Y2797D01*
X4902D01*
X4922Y2777D01*
X4530Y3742D02*
X4570Y3782D01*
X4610D01*
X4570Y3822D01*
X4610Y3862D01*
X4570D01*
X4530Y3902D01*
X4490Y3862D01*
X4450D01*
X4490Y3822D01*
X4450Y3782D01*
X4490D01*
X4530Y3742D01*
Y3782D02*
X4550Y3802D01*
X4570D01*
X4550Y3822D01*
X4570Y3842D01*
X4550D01*
X4530Y3862D01*
X4510Y3842D01*
X4490D01*
X4510Y3822D01*
X4490Y3802D01*
X4510D01*
X4530Y3782D01*
X6311Y21657D02*
X6351Y21697D01*
X6391D01*
X6351Y21737D01*
X6391Y21777D01*
X6351D01*
X6311Y21817D01*
X6271Y21777D01*
X6231D01*
X6271Y21737D01*
X6231Y21697D01*
X6271D01*
X6311Y21657D01*
Y21697D02*
X6331Y21717D01*
X6351D01*
X6331Y21737D01*
X6351Y21757D01*
X6331D01*
X6311Y21777D01*
X6291Y21757D01*
X6271D01*
X6291Y21737D01*
X6271Y21717D01*
X6291D01*
X6311Y21697D01*
X9452Y19617D02*
X9492Y19657D01*
X9532D01*
X9492Y19697D01*
X9532Y19737D01*
X9492D01*
X9452Y19777D01*
X9412Y19737D01*
X9372D01*
X9412Y19697D01*
X9372Y19657D01*
X9412D01*
X9452Y19617D01*
Y19657D02*
X9472Y19677D01*
X9492D01*
X9472Y19697D01*
X9492Y19717D01*
X9472D01*
X9452Y19737D01*
X9432Y19717D01*
X9412D01*
X9432Y19697D01*
X9412Y19677D01*
X9432D01*
X9452Y19657D01*
X6311Y19295D02*
X6351Y19335D01*
X6391D01*
X6351Y19375D01*
X6391Y19415D01*
X6351D01*
X6311Y19455D01*
X6271Y19415D01*
X6231D01*
X6271Y19375D01*
X6231Y19335D01*
X6271D01*
X6311Y19295D01*
Y19335D02*
X6331Y19355D01*
X6351D01*
X6331Y19375D01*
X6351Y19395D01*
X6331D01*
X6311Y19415D01*
X6291Y19395D01*
X6271D01*
X6291Y19375D01*
X6271Y19355D01*
X6291D01*
X6311Y19335D01*
Y20083D02*
X6351Y20123D01*
X6391D01*
X6351Y20163D01*
X6391Y20203D01*
X6351D01*
X6311Y20243D01*
X6271Y20203D01*
X6231D01*
X6271Y20163D01*
X6231Y20123D01*
X6271D01*
X6311Y20083D01*
Y20123D02*
X6331Y20143D01*
X6351D01*
X6331Y20163D01*
X6351Y20183D01*
X6331D01*
X6311Y20203D01*
X6291Y20183D01*
X6271D01*
X6291Y20163D01*
X6271Y20143D01*
X6291D01*
X6311Y20123D01*
Y20870D02*
X6351Y20910D01*
X6391D01*
X6351Y20950D01*
X6391Y20990D01*
X6351D01*
X6311Y21030D01*
X6271Y20990D01*
X6231D01*
X6271Y20950D01*
X6231Y20910D01*
X6271D01*
X6311Y20870D01*
Y20910D02*
X6331Y20930D01*
X6351D01*
X6331Y20950D01*
X6351Y20970D01*
X6331D01*
X6311Y20990D01*
X6291Y20970D01*
X6271D01*
X6291Y20950D01*
X6271Y20930D01*
X6291D01*
X6311Y20910D01*
X9825Y6513D02*
X9865Y6553D01*
X9905D01*
X9865Y6593D01*
X9905Y6633D01*
X9865D01*
X9825Y6673D01*
X9785Y6633D01*
X9745D01*
X9785Y6593D01*
X9745Y6553D01*
X9785D01*
X9825Y6513D01*
Y6553D02*
X9845Y6573D01*
X9865D01*
X9845Y6593D01*
X9865Y6613D01*
X9845D01*
X9825Y6633D01*
X9805Y6613D01*
X9785D01*
X9805Y6593D01*
X9785Y6573D01*
X9805D01*
X9825Y6553D01*
X20625Y3635D02*
X20665Y3675D01*
X20705D01*
X20665Y3715D01*
X20705Y3755D01*
X20665D01*
X20625Y3795D01*
X20585Y3755D01*
X20545D01*
X20585Y3715D01*
X20545Y3675D01*
X20585D01*
X20625Y3635D01*
Y3675D02*
X20645Y3695D01*
X20665D01*
X20645Y3715D01*
X20665Y3735D01*
X20645D01*
X20625Y3755D01*
X20605Y3735D01*
X20585D01*
X20605Y3715D01*
X20585Y3695D01*
X20605D01*
X20625Y3675D01*
X15732Y2385D02*
X15772Y2425D01*
X15812D01*
X15772Y2465D01*
X15812Y2505D01*
X15772D01*
X15732Y2545D01*
X15692Y2505D01*
X15652D01*
X15692Y2465D01*
X15652Y2425D01*
X15692D01*
X15732Y2385D01*
Y2425D02*
X15752Y2445D01*
X15772D01*
X15752Y2465D01*
X15772Y2485D01*
X15752D01*
X15732Y2505D01*
X15712Y2485D01*
X15692D01*
X15712Y2465D01*
X15692Y2445D01*
X15712D01*
X15732Y2425D01*
X14587Y2386D02*
X14627Y2426D01*
X14667D01*
X14627Y2466D01*
X14667Y2506D01*
X14627D01*
X14587Y2546D01*
X14547Y2506D01*
X14507D01*
X14547Y2466D01*
X14507Y2426D01*
X14547D01*
X14587Y2386D01*
Y2426D02*
X14607Y2446D01*
X14627D01*
X14607Y2466D01*
X14627Y2486D01*
X14607D01*
X14587Y2506D01*
X14567Y2486D01*
X14547D01*
X14567Y2466D01*
X14547Y2446D01*
X14567D01*
X14587Y2426D01*
X20459Y2378D02*
X20499Y2418D01*
X20539D01*
X20499Y2458D01*
X20539Y2498D01*
X20499D01*
X20459Y2538D01*
X20419Y2498D01*
X20379D01*
X20419Y2458D01*
X20379Y2418D01*
X20419D01*
X20459Y2378D01*
Y2418D02*
X20479Y2438D01*
X20499D01*
X20479Y2458D01*
X20499Y2478D01*
X20479D01*
X20459Y2498D01*
X20439Y2478D01*
X20419D01*
X20439Y2458D01*
X20419Y2438D01*
X20439D01*
X20459Y2418D01*
X21603Y2376D02*
X21643Y2416D01*
X21683D01*
X21643Y2456D01*
X21683Y2496D01*
X21643D01*
X21603Y2536D01*
X21563Y2496D01*
X21523D01*
X21563Y2456D01*
X21523Y2416D01*
X21563D01*
X21603Y2376D01*
Y2416D02*
X21623Y2436D01*
X21643D01*
X21623Y2456D01*
X21643Y2476D01*
X21623D01*
X21603Y2496D01*
X21583Y2476D01*
X21563D01*
X21583Y2456D01*
X21563Y2436D01*
X21583D01*
X21603Y2416D01*
X18898Y3591D02*
X18938Y3631D01*
X18978D01*
X18938Y3671D01*
X18978Y3711D01*
X18938D01*
X18898Y3751D01*
X18858Y3711D01*
X18818D01*
X18858Y3671D01*
X18818Y3631D01*
X18858D01*
X18898Y3591D01*
Y3631D02*
X18918Y3651D01*
X18938D01*
X18918Y3671D01*
X18938Y3691D01*
X18918D01*
X18898Y3711D01*
X18878Y3691D01*
X18858D01*
X18878Y3671D01*
X18858Y3651D01*
X18878D01*
X18898Y3631D01*
X14458Y8948D02*
X14498Y8988D01*
X14538D01*
X14498Y9028D01*
X14538Y9068D01*
X14498D01*
X14458Y9108D01*
X14418Y9068D01*
X14378D01*
X14418Y9028D01*
X14378Y8988D01*
X14418D01*
X14458Y8948D01*
Y8988D02*
X14478Y9008D01*
X14498D01*
X14478Y9028D01*
X14498Y9048D01*
X14478D01*
X14458Y9068D01*
X14438Y9048D01*
X14418D01*
X14438Y9028D01*
X14418Y9008D01*
X14438D01*
X14458Y8988D01*
X15398Y13135D02*
X15438Y13175D01*
X15478D01*
X15438Y13215D01*
X15478Y13255D01*
X15438D01*
X15398Y13295D01*
X15358Y13255D01*
X15318D01*
X15358Y13215D01*
X15318Y13175D01*
X15358D01*
X15398Y13135D01*
Y13175D02*
X15418Y13195D01*
X15438D01*
X15418Y13215D01*
X15438Y13235D01*
X15418D01*
X15398Y13255D01*
X15378Y13235D01*
X15358D01*
X15378Y13215D01*
X15358Y13195D01*
X15378D01*
X15398Y13175D01*
X15846Y7282D02*
X15886Y7322D01*
X15926D01*
X15886Y7362D01*
X15926Y7402D01*
X15886D01*
X15846Y7442D01*
X15806Y7402D01*
X15766D01*
X15806Y7362D01*
X15766Y7322D01*
X15806D01*
X15846Y7282D01*
Y7322D02*
X15866Y7342D01*
X15886D01*
X15866Y7362D01*
X15886Y7382D01*
X15866D01*
X15846Y7402D01*
X15826Y7382D01*
X15806D01*
X15826Y7362D01*
X15806Y7342D01*
X15826D01*
X15846Y7322D01*
X13638Y16178D02*
X13678Y16218D01*
X13718D01*
X13678Y16258D01*
X13718Y16298D01*
X13678D01*
X13638Y16338D01*
X13598Y16298D01*
X13558D01*
X13598Y16258D01*
X13558Y16218D01*
X13598D01*
X13638Y16178D01*
Y16218D02*
X13658Y16238D01*
X13678D01*
X13658Y16258D01*
X13678Y16278D01*
X13658D01*
X13638Y16298D01*
X13618Y16278D01*
X13598D01*
X13618Y16258D01*
X13598Y16238D01*
X13618D01*
X13638Y16218D01*
X10169Y15980D02*
X10209Y16020D01*
X10249D01*
X10209Y16060D01*
X10249Y16100D01*
X10209D01*
X10169Y16140D01*
X10129Y16100D01*
X10089D01*
X10129Y16060D01*
X10089Y16020D01*
X10129D01*
X10169Y15980D01*
Y16020D02*
X10189Y16040D01*
X10209D01*
X10189Y16060D01*
X10209Y16080D01*
X10189D01*
X10169Y16100D01*
X10149Y16080D01*
X10129D01*
X10149Y16060D01*
X10129Y16040D01*
X10149D01*
X10169Y16020D01*
X10728Y25911D02*
X10768Y25951D01*
X10808D01*
X10768Y25991D01*
X10808Y26031D01*
X10768D01*
X10728Y26071D01*
X10688Y26031D01*
X10648D01*
X10688Y25991D01*
X10648Y25951D01*
X10688D01*
X10728Y25911D01*
Y25951D02*
X10748Y25971D01*
X10768D01*
X10748Y25991D01*
X10768Y26011D01*
X10748D01*
X10728Y26031D01*
X10708Y26011D01*
X10688D01*
X10708Y25991D01*
X10688Y25971D01*
X10708D01*
X10728Y25951D01*
X10408Y25911D02*
X10448Y25951D01*
X10488D01*
X10448Y25991D01*
X10488Y26031D01*
X10448D01*
X10408Y26071D01*
X10368Y26031D01*
X10328D01*
X10368Y25991D01*
X10328Y25951D01*
X10368D01*
X10408Y25911D01*
Y25951D02*
X10428Y25971D01*
X10448D01*
X10428Y25991D01*
X10448Y26011D01*
X10428D01*
X10408Y26031D01*
X10388Y26011D01*
X10368D01*
X10388Y25991D01*
X10368Y25971D01*
X10388D01*
X10408Y25951D01*
X10089Y25911D02*
X10129Y25951D01*
X10169D01*
X10129Y25991D01*
X10169Y26031D01*
X10129D01*
X10089Y26071D01*
X10049Y26031D01*
X10009D01*
X10049Y25991D01*
X10009Y25951D01*
X10049D01*
X10089Y25911D01*
Y25951D02*
X10109Y25971D01*
X10129D01*
X10109Y25991D01*
X10129Y26011D01*
X10109D01*
X10089Y26031D01*
X10069Y26011D01*
X10049D01*
X10069Y25991D01*
X10049Y25971D01*
X10069D01*
X10089Y25951D01*
X12903Y26466D02*
X12943Y26506D01*
X12983D01*
X12943Y26546D01*
X12983Y26586D01*
X12943D01*
X12903Y26626D01*
X12863Y26586D01*
X12823D01*
X12863Y26546D01*
X12823Y26506D01*
X12863D01*
X12903Y26466D01*
Y26506D02*
X12923Y26526D01*
X12943D01*
X12923Y26546D01*
X12943Y26566D01*
X12923D01*
X12903Y26586D01*
X12883Y26566D01*
X12863D01*
X12883Y26546D01*
X12863Y26526D01*
X12883D01*
X12903Y26506D01*
X11447Y28965D02*
X11487Y29005D01*
X11527D01*
X11487Y29045D01*
X11527Y29085D01*
X11487D01*
X11447Y29125D01*
X11407Y29085D01*
X11367D01*
X11407Y29045D01*
X11367Y29005D01*
X11407D01*
X11447Y28965D01*
Y29005D02*
X11467Y29025D01*
X11487D01*
X11467Y29045D01*
X11487Y29065D01*
X11467D01*
X11447Y29085D01*
X11427Y29065D01*
X11407D01*
X11427Y29045D01*
X11407Y29025D01*
X11427D01*
X11447Y29005D01*
X11752Y28965D02*
X11792Y29005D01*
X11832D01*
X11792Y29045D01*
X11832Y29085D01*
X11792D01*
X11752Y29125D01*
X11712Y29085D01*
X11672D01*
X11712Y29045D01*
X11672Y29005D01*
X11712D01*
X11752Y28965D01*
Y29005D02*
X11772Y29025D01*
X11792D01*
X11772Y29045D01*
X11792Y29065D01*
X11772D01*
X11752Y29085D01*
X11732Y29065D01*
X11712D01*
X11732Y29045D01*
X11712Y29025D01*
X11732D01*
X11752Y29005D01*
X12055Y28964D02*
X12095Y29004D01*
X12135D01*
X12095Y29044D01*
X12135Y29084D01*
X12095D01*
X12055Y29124D01*
X12015Y29084D01*
X11975D01*
X12015Y29044D01*
X11975Y29004D01*
X12015D01*
X12055Y28964D01*
Y29004D02*
X12075Y29024D01*
X12095D01*
X12075Y29044D01*
X12095Y29064D01*
X12075D01*
X12055Y29084D01*
X12035Y29064D01*
X12015D01*
X12035Y29044D01*
X12015Y29024D01*
X12035D01*
X12055Y29004D01*
X12057Y28660D02*
X12097Y28700D01*
X12137D01*
X12097Y28740D01*
X12137Y28780D01*
X12097D01*
X12057Y28820D01*
X12017Y28780D01*
X11977D01*
X12017Y28740D01*
X11977Y28700D01*
X12017D01*
X12057Y28660D01*
Y28700D02*
X12077Y28720D01*
X12097D01*
X12077Y28740D01*
X12097Y28760D01*
X12077D01*
X12057Y28780D01*
X12037Y28760D01*
X12017D01*
X12037Y28740D01*
X12017Y28720D01*
X12037D01*
X12057Y28700D01*
Y28355D02*
X12097Y28395D01*
X12137D01*
X12097Y28435D01*
X12137Y28475D01*
X12097D01*
X12057Y28515D01*
X12017Y28475D01*
X11977D01*
X12017Y28435D01*
X11977Y28395D01*
X12017D01*
X12057Y28355D01*
Y28395D02*
X12077Y28415D01*
X12097D01*
X12077Y28435D01*
X12097Y28455D01*
X12077D01*
X12057Y28475D01*
X12037Y28455D01*
X12017D01*
X12037Y28435D01*
X12017Y28415D01*
X12037D01*
X12057Y28395D01*
X11378Y30459D02*
X11418Y30499D01*
X11458D01*
X11418Y30539D01*
X11458Y30579D01*
X11418D01*
X11378Y30619D01*
X11338Y30579D01*
X11298D01*
X11338Y30539D01*
X11298Y30499D01*
X11338D01*
X11378Y30459D01*
Y30499D02*
X11398Y30519D01*
X11418D01*
X11398Y30539D01*
X11418Y30559D01*
X11398D01*
X11378Y30579D01*
X11358Y30559D01*
X11338D01*
X11358Y30539D01*
X11338Y30519D01*
X11358D01*
X11378Y30499D01*
X14948Y11975D02*
X14988Y12015D01*
X15028D01*
X14988Y12055D01*
X15028Y12095D01*
X14988D01*
X14948Y12135D01*
X14908Y12095D01*
X14868D01*
X14908Y12055D01*
X14868Y12015D01*
X14908D01*
X14948Y11975D01*
Y12015D02*
X14968Y12035D01*
X14988D01*
X14968Y12055D01*
X14988Y12075D01*
X14968D01*
X14948Y12095D01*
X14928Y12075D01*
X14908D01*
X14928Y12055D01*
X14908Y12035D01*
X14928D01*
X14948Y12015D01*
Y11625D02*
X14988Y11665D01*
X15028D01*
X14988Y11705D01*
X15028Y11745D01*
X14988D01*
X14948Y11785D01*
X14908Y11745D01*
X14868D01*
X14908Y11705D01*
X14868Y11665D01*
X14908D01*
X14948Y11625D01*
Y11665D02*
X14968Y11685D01*
X14988D01*
X14968Y11705D01*
X14988Y11725D01*
X14968D01*
X14948Y11745D01*
X14928Y11725D01*
X14908D01*
X14928Y11705D01*
X14908Y11685D01*
X14928D01*
X14948Y11665D01*
X18778Y15407D02*
X18818Y15447D01*
X18858D01*
X18818Y15487D01*
X18858Y15527D01*
X18818D01*
X18778Y15567D01*
X18738Y15527D01*
X18698D01*
X18738Y15487D01*
X18698Y15447D01*
X18738D01*
X18778Y15407D01*
Y15447D02*
X18798Y15467D01*
X18818D01*
X18798Y15487D01*
X18818Y15507D01*
X18798D01*
X18778Y15527D01*
X18758Y15507D01*
X18738D01*
X18758Y15487D01*
X18738Y15467D01*
X18758D01*
X18778Y15447D01*
X21017Y10856D02*
X21057Y10896D01*
X21097D01*
X21057Y10936D01*
X21097Y10976D01*
X21057D01*
X21017Y11016D01*
X20977Y10976D01*
X20937D01*
X20977Y10936D01*
X20937Y10896D01*
X20977D01*
X21017Y10856D01*
Y10896D02*
X21037Y10916D01*
X21057D01*
X21037Y10936D01*
X21057Y10956D01*
X21037D01*
X21017Y10976D01*
X20997Y10956D01*
X20977D01*
X20997Y10936D01*
X20977Y10916D01*
X20997D01*
X21017Y10896D01*
X21235Y10316D02*
X21275Y10356D01*
X21315D01*
X21275Y10396D01*
X21315Y10436D01*
X21275D01*
X21235Y10476D01*
X21195Y10436D01*
X21155D01*
X21195Y10396D01*
X21155Y10356D01*
X21195D01*
X21235Y10316D01*
Y10356D02*
X21255Y10376D01*
X21275D01*
X21255Y10396D01*
X21275Y10416D01*
X21255D01*
X21235Y10436D01*
X21215Y10416D01*
X21195D01*
X21215Y10396D01*
X21195Y10376D01*
X21215D01*
X21235Y10356D01*
X20557Y15749D02*
X20597Y15789D01*
X20637D01*
X20597Y15829D01*
X20637Y15869D01*
X20597D01*
X20557Y15909D01*
X20517Y15869D01*
X20477D01*
X20517Y15829D01*
X20477Y15789D01*
X20517D01*
X20557Y15749D01*
Y15789D02*
X20577Y15809D01*
X20597D01*
X20577Y15829D01*
X20597Y15849D01*
X20577D01*
X20557Y15869D01*
X20537Y15849D01*
X20517D01*
X20537Y15829D01*
X20517Y15809D01*
X20537D01*
X20557Y15789D01*
X13166Y7695D02*
X13206Y7735D01*
X13246D01*
X13206Y7775D01*
X13246Y7815D01*
X13206D01*
X13166Y7855D01*
X13126Y7815D01*
X13086D01*
X13126Y7775D01*
X13086Y7735D01*
X13126D01*
X13166Y7695D01*
Y7735D02*
X13186Y7755D01*
X13206D01*
X13186Y7775D01*
X13206Y7795D01*
X13186D01*
X13166Y7815D01*
X13146Y7795D01*
X13126D01*
X13146Y7775D01*
X13126Y7755D01*
X13146D01*
X13166Y7735D01*
X10945Y27282D02*
X10985Y27322D01*
X11025D01*
X10985Y27362D01*
X11025Y27402D01*
X10985D01*
X10945Y27442D01*
X10905Y27402D01*
X10865D01*
X10905Y27362D01*
X10865Y27322D01*
X10905D01*
X10945Y27282D01*
Y27322D02*
X10965Y27342D01*
X10985D01*
X10965Y27362D01*
X10985Y27382D01*
X10965D01*
X10945Y27402D01*
X10925Y27382D01*
X10905D01*
X10925Y27362D01*
X10905Y27342D01*
X10925D01*
X10945Y27322D01*
X10630Y27282D02*
X10670Y27322D01*
X10710D01*
X10670Y27362D01*
X10710Y27402D01*
X10670D01*
X10630Y27442D01*
X10590Y27402D01*
X10550D01*
X10590Y27362D01*
X10550Y27322D01*
X10590D01*
X10630Y27282D01*
Y27322D02*
X10650Y27342D01*
X10670D01*
X10650Y27362D01*
X10670Y27382D01*
X10650D01*
X10630Y27402D01*
X10610Y27382D01*
X10590D01*
X10610Y27362D01*
X10590Y27342D01*
X10610D01*
X10630Y27322D01*
X11171Y27833D02*
X11211Y27873D01*
X11251D01*
X11211Y27913D01*
X11251Y27953D01*
X11211D01*
X11171Y27993D01*
X11131Y27953D01*
X11091D01*
X11131Y27913D01*
X11091Y27873D01*
X11131D01*
X11171Y27833D01*
Y27873D02*
X11191Y27893D01*
X11211D01*
X11191Y27913D01*
X11211Y27933D01*
X11191D01*
X11171Y27953D01*
X11151Y27933D01*
X11131D01*
X11151Y27913D01*
X11131Y27893D01*
X11151D01*
X11171Y27873D01*
Y27518D02*
X11211Y27558D01*
X11251D01*
X11211Y27598D01*
X11251Y27638D01*
X11211D01*
X11171Y27678D01*
X11131Y27638D01*
X11091D01*
X11131Y27598D01*
X11091Y27558D01*
X11131D01*
X11171Y27518D01*
Y27558D02*
X11191Y27578D01*
X11211D01*
X11191Y27598D01*
X11211Y27618D01*
X11191D01*
X11171Y27638D01*
X11151Y27618D01*
X11131D01*
X11151Y27598D01*
X11131Y27578D01*
X11151D01*
X11171Y27558D01*
X11476Y27239D02*
X11516Y27279D01*
X11556D01*
X11516Y27319D01*
X11556Y27359D01*
X11516D01*
X11476Y27399D01*
X11436Y27359D01*
X11396D01*
X11436Y27319D01*
X11396Y27279D01*
X11436D01*
X11476Y27239D01*
Y27279D02*
X11496Y27299D01*
X11516D01*
X11496Y27319D01*
X11516Y27339D01*
X11496D01*
X11476Y27359D01*
X11456Y27339D01*
X11436D01*
X11456Y27319D01*
X11436Y27299D01*
X11456D01*
X11476Y27279D01*
X17534Y9723D02*
X17574Y9763D01*
X17614D01*
X17574Y9803D01*
X17614Y9843D01*
X17574D01*
X17534Y9883D01*
X17494Y9843D01*
X17454D01*
X17494Y9803D01*
X17454Y9763D01*
X17494D01*
X17534Y9723D01*
Y9763D02*
X17554Y9783D01*
X17574D01*
X17554Y9803D01*
X17574Y9823D01*
X17554D01*
X17534Y9843D01*
X17514Y9823D01*
X17494D01*
X17514Y9803D01*
X17494Y9783D01*
X17514D01*
X17534Y9763D01*
X16485Y12473D02*
X16525Y12513D01*
X16565D01*
X16525Y12553D01*
X16565Y12593D01*
X16525D01*
X16485Y12633D01*
X16445Y12593D01*
X16405D01*
X16445Y12553D01*
X16405Y12513D01*
X16445D01*
X16485Y12473D01*
Y12513D02*
X16505Y12533D01*
X16525D01*
X16505Y12553D01*
X16525Y12573D01*
X16505D01*
X16485Y12593D01*
X16465Y12573D01*
X16445D01*
X16465Y12553D01*
X16445Y12533D01*
X16465D01*
X16485Y12513D01*
X16718Y24768D02*
X16758Y24808D01*
X16798D01*
X16758Y24848D01*
X16798Y24888D01*
X16758D01*
X16718Y24928D01*
X16678Y24888D01*
X16638D01*
X16678Y24848D01*
X16638Y24808D01*
X16678D01*
X16718Y24768D01*
Y24808D02*
X16738Y24828D01*
X16758D01*
X16738Y24848D01*
X16758Y24868D01*
X16738D01*
X16718Y24888D01*
X16698Y24868D01*
X16678D01*
X16698Y24848D01*
X16678Y24828D01*
X16698D01*
X16718Y24808D01*
X12593Y22376D02*
X12633Y22416D01*
X12673D01*
X12633Y22456D01*
X12673Y22496D01*
X12633D01*
X12593Y22536D01*
X12553Y22496D01*
X12513D01*
X12553Y22456D01*
X12513Y22416D01*
X12553D01*
X12593Y22376D01*
Y22416D02*
X12613Y22436D01*
X12633D01*
X12613Y22456D01*
X12633Y22476D01*
X12613D01*
X12593Y22496D01*
X12573Y22476D01*
X12553D01*
X12573Y22456D01*
X12553Y22436D01*
X12573D01*
X12593Y22416D01*
X13941Y22950D02*
X13981Y22990D01*
X14021D01*
X13981Y23030D01*
X14021Y23070D01*
X13981D01*
X13941Y23110D01*
X13901Y23070D01*
X13861D01*
X13901Y23030D01*
X13861Y22990D01*
X13901D01*
X13941Y22950D01*
Y22990D02*
X13961Y23010D01*
X13981D01*
X13961Y23030D01*
X13981Y23050D01*
X13961D01*
X13941Y23070D01*
X13921Y23050D01*
X13901D01*
X13921Y23030D01*
X13901Y23010D01*
X13921D01*
X13941Y22990D01*
X15973Y26294D02*
X16013Y26334D01*
X16053D01*
X16013Y26374D01*
X16053Y26414D01*
X16013D01*
X15973Y26454D01*
X15933Y26414D01*
X15893D01*
X15933Y26374D01*
X15893Y26334D01*
X15933D01*
X15973Y26294D01*
Y26334D02*
X15993Y26354D01*
X16013D01*
X15993Y26374D01*
X16013Y26394D01*
X15993D01*
X15973Y26414D01*
X15953Y26394D01*
X15933D01*
X15953Y26374D01*
X15933Y26354D01*
X15953D01*
X15973Y26334D01*
X16961Y4105D02*
X17001Y4145D01*
X17041D01*
X17001Y4185D01*
X17041Y4225D01*
X17001D01*
X16961Y4265D01*
X16921Y4225D01*
X16881D01*
X16921Y4185D01*
X16881Y4145D01*
X16921D01*
X16961Y4105D01*
Y4145D02*
X16981Y4165D01*
X17001D01*
X16981Y4185D01*
X17001Y4205D01*
X16981D01*
X16961Y4225D01*
X16941Y4205D01*
X16921D01*
X16941Y4185D01*
X16921Y4165D01*
X16941D01*
X16961Y4145D01*
X16418Y3611D02*
X16458Y3651D01*
X16498D01*
X16458Y3691D01*
X16498Y3731D01*
X16458D01*
X16418Y3771D01*
X16378Y3731D01*
X16338D01*
X16378Y3691D01*
X16338Y3651D01*
X16378D01*
X16418Y3611D01*
Y3651D02*
X16438Y3671D01*
X16458D01*
X16438Y3691D01*
X16458Y3711D01*
X16438D01*
X16418Y3731D01*
X16398Y3711D01*
X16378D01*
X16398Y3691D01*
X16378Y3671D01*
X16398D01*
X16418Y3651D01*
X16926Y3620D02*
X16966Y3660D01*
X17006D01*
X16966Y3700D01*
X17006Y3740D01*
X16966D01*
X16926Y3780D01*
X16886Y3740D01*
X16846D01*
X16886Y3700D01*
X16846Y3660D01*
X16886D01*
X16926Y3620D01*
Y3660D02*
X16946Y3680D01*
X16966D01*
X16946Y3700D01*
X16966Y3720D01*
X16946D01*
X16926Y3740D01*
X16906Y3720D01*
X16886D01*
X16906Y3700D01*
X16886Y3680D01*
X16906D01*
X16926Y3660D01*
X16556Y4064D02*
X16596Y4104D01*
X16636D01*
X16596Y4144D01*
X16636Y4184D01*
X16596D01*
X16556Y4224D01*
X16516Y4184D01*
X16476D01*
X16516Y4144D01*
X16476Y4104D01*
X16516D01*
X16556Y4064D01*
Y4104D02*
X16576Y4124D01*
X16596D01*
X16576Y4144D01*
X16596Y4164D01*
X16576D01*
X16556Y4184D01*
X16536Y4164D01*
X16516D01*
X16536Y4144D01*
X16516Y4124D01*
X16536D01*
X16556Y4104D01*
X11332Y21487D02*
X11372Y21527D01*
X11412D01*
X11372Y21567D01*
X11412Y21607D01*
X11372D01*
X11332Y21647D01*
X11292Y21607D01*
X11252D01*
X11292Y21567D01*
X11252Y21527D01*
X11292D01*
X11332Y21487D01*
Y21527D02*
X11352Y21547D01*
X11372D01*
X11352Y21567D01*
X11372Y21587D01*
X11352D01*
X11332Y21607D01*
X11312Y21587D01*
X11292D01*
X11312Y21567D01*
X11292Y21547D01*
X11312D01*
X11332Y21527D01*
X10789Y13452D02*
X10829Y13492D01*
X10869D01*
X10829Y13532D01*
X10869Y13572D01*
X10829D01*
X10789Y13612D01*
X10749Y13572D01*
X10709D01*
X10749Y13532D01*
X10709Y13492D01*
X10749D01*
X10789Y13452D01*
Y13492D02*
X10809Y13512D01*
X10829D01*
X10809Y13532D01*
X10829Y13552D01*
X10809D01*
X10789Y13572D01*
X10769Y13552D01*
X10749D01*
X10769Y13532D01*
X10749Y13512D01*
X10769D01*
X10789Y13492D01*
X12025Y10589D02*
X12065Y10629D01*
X12105D01*
X12065Y10669D01*
X12105Y10709D01*
X12065D01*
X12025Y10749D01*
X11985Y10709D01*
X11945D01*
X11985Y10669D01*
X11945Y10629D01*
X11985D01*
X12025Y10589D01*
Y10629D02*
X12045Y10649D01*
X12065D01*
X12045Y10669D01*
X12065Y10689D01*
X12045D01*
X12025Y10709D01*
X12005Y10689D01*
X11985D01*
X12005Y10669D01*
X11985Y10649D01*
X12005D01*
X12025Y10629D01*
X10939Y14889D02*
X10979Y14929D01*
X11019D01*
X10979Y14969D01*
X11019Y15009D01*
X10979D01*
X10939Y15049D01*
X10899Y15009D01*
X10859D01*
X10899Y14969D01*
X10859Y14929D01*
X10899D01*
X10939Y14889D01*
Y14929D02*
X10959Y14949D01*
X10979D01*
X10959Y14969D01*
X10979Y14989D01*
X10959D01*
X10939Y15009D01*
X10919Y14989D01*
X10899D01*
X10919Y14969D01*
X10899Y14949D01*
X10919D01*
X10939Y14929D01*
X16114Y25381D02*
X16154Y25421D01*
X16194D01*
X16154Y25461D01*
X16194Y25501D01*
X16154D01*
X16114Y25541D01*
X16074Y25501D01*
X16034D01*
X16074Y25461D01*
X16034Y25421D01*
X16074D01*
X16114Y25381D01*
Y25421D02*
X16134Y25441D01*
X16154D01*
X16134Y25461D01*
X16154Y25481D01*
X16134D01*
X16114Y25501D01*
X16094Y25481D01*
X16074D01*
X16094Y25461D01*
X16074Y25441D01*
X16094D01*
X16114Y25421D01*
X17588Y25146D02*
X17628Y25186D01*
X17668D01*
X17628Y25226D01*
X17668Y25266D01*
X17628D01*
X17588Y25306D01*
X17548Y25266D01*
X17508D01*
X17548Y25226D01*
X17508Y25186D01*
X17548D01*
X17588Y25146D01*
Y25186D02*
X17608Y25206D01*
X17628D01*
X17608Y25226D01*
X17628Y25246D01*
X17608D01*
X17588Y25266D01*
X17568Y25246D01*
X17548D01*
X17568Y25226D01*
X17548Y25206D01*
X17568D01*
X17588Y25186D01*
X15690Y33293D02*
X15730Y33333D01*
X15770D01*
X15730Y33373D01*
X15770Y33413D01*
X15730D01*
X15690Y33453D01*
X15650Y33413D01*
X15610D01*
X15650Y33373D01*
X15610Y33333D01*
X15650D01*
X15690Y33293D01*
Y33333D02*
X15710Y33353D01*
X15730D01*
X15710Y33373D01*
X15730Y33393D01*
X15710D01*
X15690Y33413D01*
X15670Y33393D01*
X15650D01*
X15670Y33373D01*
X15650Y33353D01*
X15670D01*
X15690Y33333D01*
X17283Y35107D02*
X17323Y35147D01*
X17363D01*
X17323Y35187D01*
X17363Y35227D01*
X17323D01*
X17283Y35267D01*
X17243Y35227D01*
X17203D01*
X17243Y35187D01*
X17203Y35147D01*
X17243D01*
X17283Y35107D01*
Y35147D02*
X17303Y35167D01*
X17323D01*
X17303Y35187D01*
X17323Y35207D01*
X17303D01*
X17283Y35227D01*
X17263Y35207D01*
X17243D01*
X17263Y35187D01*
X17243Y35167D01*
X17263D01*
X17283Y35147D01*
X17590Y26200D02*
X17630Y26240D01*
X17670D01*
X17630Y26280D01*
X17670Y26320D01*
X17630D01*
X17590Y26360D01*
X17550Y26320D01*
X17510D01*
X17550Y26280D01*
X17510Y26240D01*
X17550D01*
X17590Y26200D01*
Y26240D02*
X17610Y26260D01*
X17630D01*
X17610Y26280D01*
X17630Y26300D01*
X17610D01*
X17590Y26320D01*
X17570Y26300D01*
X17550D01*
X17570Y26280D01*
X17550Y26260D01*
X17570D01*
X17590Y26240D01*
X19794Y10032D02*
X19834Y10072D01*
X19874D01*
X19834Y10112D01*
X19874Y10152D01*
X19834D01*
X19794Y10192D01*
X19754Y10152D01*
X19714D01*
X19754Y10112D01*
X19714Y10072D01*
X19754D01*
X19794Y10032D01*
Y10072D02*
X19814Y10092D01*
X19834D01*
X19814Y10112D01*
X19834Y10132D01*
X19814D01*
X19794Y10152D01*
X19774Y10132D01*
X19754D01*
X19774Y10112D01*
X19754Y10092D01*
X19774D01*
X19794Y10072D01*
X21225Y9669D02*
X21265Y9709D01*
X21305D01*
X21265Y9749D01*
X21305Y9789D01*
X21265D01*
X21225Y9829D01*
X21185Y9789D01*
X21145D01*
X21185Y9749D01*
X21145Y9709D01*
X21185D01*
X21225Y9669D01*
Y9709D02*
X21245Y9729D01*
X21265D01*
X21245Y9749D01*
X21265Y9769D01*
X21245D01*
X21225Y9789D01*
X21205Y9769D01*
X21185D01*
X21205Y9749D01*
X21185Y9729D01*
X21205D01*
X21225Y9709D01*
X16088Y12734D02*
X16128Y12774D01*
X16168D01*
X16128Y12814D01*
X16168Y12854D01*
X16128D01*
X16088Y12894D01*
X16048Y12854D01*
X16008D01*
X16048Y12814D01*
X16008Y12774D01*
X16048D01*
X16088Y12734D01*
Y12774D02*
X16108Y12794D01*
X16128D01*
X16108Y12814D01*
X16128Y12834D01*
X16108D01*
X16088Y12854D01*
X16068Y12834D01*
X16048D01*
X16068Y12814D01*
X16048Y12794D01*
X16068D01*
X16088Y12774D01*
X6207Y16480D02*
X6247Y16520D01*
X6287D01*
X6247Y16560D01*
X6287Y16600D01*
X6247D01*
X6207Y16640D01*
X6167Y16600D01*
X6127D01*
X6167Y16560D01*
X6127Y16520D01*
X6167D01*
X6207Y16480D01*
Y16520D02*
X6227Y16540D01*
X6247D01*
X6227Y16560D01*
X6247Y16580D01*
X6227D01*
X6207Y16600D01*
X6187Y16580D01*
X6167D01*
X6187Y16560D01*
X6167Y16540D01*
X6187D01*
X6207Y16520D01*
X6224Y3643D02*
X6264Y3683D01*
X6304D01*
X6264Y3723D01*
X6304Y3763D01*
X6264D01*
X6224Y3803D01*
X6184Y3763D01*
X6144D01*
X6184Y3723D01*
X6144Y3683D01*
X6184D01*
X6224Y3643D01*
Y3683D02*
X6244Y3703D01*
X6264D01*
X6244Y3723D01*
X6264Y3743D01*
X6244D01*
X6224Y3763D01*
X6204Y3743D01*
X6184D01*
X6204Y3723D01*
X6184Y3703D01*
X6204D01*
X6224Y3683D01*
X6229Y17480D02*
X6269Y17520D01*
X6309D01*
X6269Y17560D01*
X6309Y17600D01*
X6269D01*
X6229Y17640D01*
X6189Y17600D01*
X6149D01*
X6189Y17560D01*
X6149Y17520D01*
X6189D01*
X6229Y17480D01*
Y17520D02*
X6249Y17540D01*
X6269D01*
X6249Y17560D01*
X6269Y17580D01*
X6249D01*
X6229Y17600D01*
X6209Y17580D01*
X6189D01*
X6209Y17560D01*
X6189Y17540D01*
X6209D01*
X6229Y17520D01*
X9056Y3882D02*
X9096Y3922D01*
X9136D01*
X9096Y3962D01*
X9136Y4002D01*
X9096D01*
X9056Y4042D01*
X9016Y4002D01*
X8976D01*
X9016Y3962D01*
X8976Y3922D01*
X9016D01*
X9056Y3882D01*
Y3922D02*
X9076Y3942D01*
X9096D01*
X9076Y3962D01*
X9096Y3982D01*
X9076D01*
X9056Y4002D01*
X9036Y3982D01*
X9016D01*
X9036Y3962D01*
X9016Y3942D01*
X9036D01*
X9056Y3922D01*
X17294Y24811D02*
X17334Y24851D01*
X17374D01*
X17334Y24891D01*
X17374Y24931D01*
X17334D01*
X17294Y24971D01*
X17254Y24931D01*
X17214D01*
X17254Y24891D01*
X17214Y24851D01*
X17254D01*
X17294Y24811D01*
Y24851D02*
X17314Y24871D01*
X17334D01*
X17314Y24891D01*
X17334Y24911D01*
X17314D01*
X17294Y24931D01*
X17274Y24911D01*
X17254D01*
X17274Y24891D01*
X17254Y24871D01*
X17274D01*
X17294Y24851D01*
X9401Y29934D02*
X9441Y29974D01*
X9481D01*
X9441Y30014D01*
X9481Y30054D01*
X9441D01*
X9401Y30094D01*
X9361Y30054D01*
X9321D01*
X9361Y30014D01*
X9321Y29974D01*
X9361D01*
X9401Y29934D01*
Y29974D02*
X9421Y29994D01*
X9441D01*
X9421Y30014D01*
X9441Y30034D01*
X9421D01*
X9401Y30054D01*
X9381Y30034D01*
X9361D01*
X9381Y30014D01*
X9361Y29994D01*
X9381D01*
X9401Y29974D01*
X9386Y29572D02*
X9426Y29612D01*
X9466D01*
X9426Y29652D01*
X9466Y29692D01*
X9426D01*
X9386Y29732D01*
X9346Y29692D01*
X9306D01*
X9346Y29652D01*
X9306Y29612D01*
X9346D01*
X9386Y29572D01*
Y29612D02*
X9406Y29632D01*
X9426D01*
X9406Y29652D01*
X9426Y29672D01*
X9406D01*
X9386Y29692D01*
X9366Y29672D01*
X9346D01*
X9366Y29652D01*
X9346Y29632D01*
X9366D01*
X9386Y29612D01*
X3652Y5540D02*
X3692Y5580D01*
X3732D01*
X3692Y5620D01*
X3732Y5660D01*
X3692D01*
X3652Y5700D01*
X3612Y5660D01*
X3572D01*
X3612Y5620D01*
X3572Y5580D01*
X3612D01*
X3652Y5540D01*
Y5580D02*
X3672Y5600D01*
X3692D01*
X3672Y5620D01*
X3692Y5640D01*
X3672D01*
X3652Y5660D01*
X3632Y5640D01*
X3612D01*
X3632Y5620D01*
X3612Y5600D01*
X3632D01*
X3652Y5580D01*
X4394Y5660D02*
X4434Y5700D01*
X4474D01*
X4434Y5740D01*
X4474Y5780D01*
X4434D01*
X4394Y5820D01*
X4354Y5780D01*
X4314D01*
X4354Y5740D01*
X4314Y5700D01*
X4354D01*
X4394Y5660D01*
Y5700D02*
X4414Y5720D01*
X4434D01*
X4414Y5740D01*
X4434Y5760D01*
X4414D01*
X4394Y5780D01*
X4374Y5760D01*
X4354D01*
X4374Y5740D01*
X4354Y5720D01*
X4374D01*
X4394Y5700D01*
X3752Y4292D02*
X3792Y4332D01*
X3832D01*
X3792Y4372D01*
X3832Y4412D01*
X3792D01*
X3752Y4452D01*
X3712Y4412D01*
X3672D01*
X3712Y4372D01*
X3672Y4332D01*
X3712D01*
X3752Y4292D01*
Y4332D02*
X3772Y4352D01*
X3792D01*
X3772Y4372D01*
X3792Y4392D01*
X3772D01*
X3752Y4412D01*
X3732Y4392D01*
X3712D01*
X3732Y4372D01*
X3712Y4352D01*
X3732D01*
X3752Y4332D01*
X14550Y34225D02*
X14590Y34265D01*
X14630D01*
X14590Y34305D01*
X14630Y34345D01*
X14590D01*
X14550Y34385D01*
X14510Y34345D01*
X14470D01*
X14510Y34305D01*
X14470Y34265D01*
X14510D01*
X14550Y34225D01*
Y34265D02*
X14570Y34285D01*
X14590D01*
X14570Y34305D01*
X14590Y34325D01*
X14570D01*
X14550Y34345D01*
X14530Y34325D01*
X14510D01*
X14530Y34305D01*
X14510Y34285D01*
X14530D01*
X14550Y34265D01*
X14958Y29090D02*
X14998Y29130D01*
X15038D01*
X14998Y29170D01*
X15038Y29210D01*
X14998D01*
X14958Y29250D01*
X14918Y29210D01*
X14878D01*
X14918Y29170D01*
X14878Y29130D01*
X14918D01*
X14958Y29090D01*
Y29130D02*
X14978Y29150D01*
X14998D01*
X14978Y29170D01*
X14998Y29190D01*
X14978D01*
X14958Y29210D01*
X14938Y29190D01*
X14918D01*
X14938Y29170D01*
X14918Y29150D01*
X14938D01*
X14958Y29130D01*
Y28165D02*
X14998Y28205D01*
X15038D01*
X14998Y28245D01*
X15038Y28285D01*
X14998D01*
X14958Y28325D01*
X14918Y28285D01*
X14878D01*
X14918Y28245D01*
X14878Y28205D01*
X14918D01*
X14958Y28165D01*
Y28205D02*
X14978Y28225D01*
X14998D01*
X14978Y28245D01*
X14998Y28265D01*
X14978D01*
X14958Y28285D01*
X14938Y28265D01*
X14918D01*
X14938Y28245D01*
X14918Y28225D01*
X14938D01*
X14958Y28205D01*
X15072Y34066D02*
X15112Y34106D01*
X15152D01*
X15112Y34146D01*
X15152Y34186D01*
X15112D01*
X15072Y34226D01*
X15032Y34186D01*
X14992D01*
X15032Y34146D01*
X14992Y34106D01*
X15032D01*
X15072Y34066D01*
Y34106D02*
X15092Y34126D01*
X15112D01*
X15092Y34146D01*
X15112Y34166D01*
X15092D01*
X15072Y34186D01*
X15052Y34166D01*
X15032D01*
X15052Y34146D01*
X15032Y34126D01*
X15052D01*
X15072Y34106D01*
X15071Y33602D02*
X15111Y33642D01*
X15151D01*
X15111Y33682D01*
X15151Y33722D01*
X15111D01*
X15071Y33762D01*
X15031Y33722D01*
X14991D01*
X15031Y33682D01*
X14991Y33642D01*
X15031D01*
X15071Y33602D01*
Y33642D02*
X15091Y33662D01*
X15111D01*
X15091Y33682D01*
X15111Y33702D01*
X15091D01*
X15071Y33722D01*
X15051Y33702D01*
X15031D01*
X15051Y33682D01*
X15031Y33662D01*
X15051D01*
X15071Y33642D01*
X16102Y25738D02*
X16142Y25778D01*
X16182D01*
X16142Y25818D01*
X16182Y25858D01*
X16142D01*
X16102Y25898D01*
X16062Y25858D01*
X16022D01*
X16062Y25818D01*
X16022Y25778D01*
X16062D01*
X16102Y25738D01*
Y25778D02*
X16122Y25798D01*
X16142D01*
X16122Y25818D01*
X16142Y25838D01*
X16122D01*
X16102Y25858D01*
X16082Y25838D01*
X16062D01*
X16082Y25818D01*
X16062Y25798D01*
X16082D01*
X16102Y25778D01*
X15270Y12637D02*
X15310Y12677D01*
X15350D01*
X15310Y12717D01*
X15350Y12757D01*
X15310D01*
X15270Y12797D01*
X15230Y12757D01*
X15190D01*
X15230Y12717D01*
X15190Y12677D01*
X15230D01*
X15270Y12637D01*
Y12677D02*
X15290Y12697D01*
X15310D01*
X15290Y12717D01*
X15310Y12737D01*
X15290D01*
X15270Y12757D01*
X15250Y12737D01*
X15230D01*
X15250Y12717D01*
X15230Y12697D01*
X15250D01*
X15270Y12677D01*
X12805Y21132D02*
X12845Y21172D01*
X12885D01*
X12845Y21212D01*
X12885Y21252D01*
X12845D01*
X12805Y21292D01*
X12765Y21252D01*
X12725D01*
X12765Y21212D01*
X12725Y21172D01*
X12765D01*
X12805Y21132D01*
Y21172D02*
X12825Y21192D01*
X12845D01*
X12825Y21212D01*
X12845Y21232D01*
X12825D01*
X12805Y21252D01*
X12785Y21232D01*
X12765D01*
X12785Y21212D01*
X12765Y21192D01*
X12785D01*
X12805Y21172D01*
X4406Y6148D02*
X4446Y6188D01*
X4486D01*
X4446Y6228D01*
X4486Y6268D01*
X4446D01*
X4406Y6308D01*
X4366Y6268D01*
X4326D01*
X4366Y6228D01*
X4326Y6188D01*
X4366D01*
X4406Y6148D01*
Y6188D02*
X4426Y6208D01*
X4446D01*
X4426Y6228D01*
X4446Y6248D01*
X4426D01*
X4406Y6268D01*
X4386Y6248D01*
X4366D01*
X4386Y6228D01*
X4366Y6208D01*
X4386D01*
X4406Y6188D01*
X7430Y10149D02*
X7470Y10189D01*
X7510D01*
X7470Y10229D01*
X7510Y10269D01*
X7470D01*
X7430Y10309D01*
X7390Y10269D01*
X7350D01*
X7390Y10229D01*
X7350Y10189D01*
X7390D01*
X7430Y10149D01*
Y10189D02*
X7450Y10209D01*
X7470D01*
X7450Y10229D01*
X7470Y10249D01*
X7450D01*
X7430Y10269D01*
X7410Y10249D01*
X7390D01*
X7410Y10229D01*
X7390Y10209D01*
X7410D01*
X7430Y10189D01*
X8865Y7035D02*
X8905Y7075D01*
X8945D01*
X8905Y7115D01*
X8945Y7155D01*
X8905D01*
X8865Y7195D01*
X8825Y7155D01*
X8785D01*
X8825Y7115D01*
X8785Y7075D01*
X8825D01*
X8865Y7035D01*
Y7075D02*
X8885Y7095D01*
X8905D01*
X8885Y7115D01*
X8905Y7135D01*
X8885D01*
X8865Y7155D01*
X8845Y7135D01*
X8825D01*
X8845Y7115D01*
X8825Y7095D01*
X8845D01*
X8865Y7075D01*
X8856Y6649D02*
X8896Y6689D01*
X8936D01*
X8896Y6729D01*
X8936Y6769D01*
X8896D01*
X8856Y6809D01*
X8816Y6769D01*
X8776D01*
X8816Y6729D01*
X8776Y6689D01*
X8816D01*
X8856Y6649D01*
Y6689D02*
X8876Y6709D01*
X8896D01*
X8876Y6729D01*
X8896Y6749D01*
X8876D01*
X8856Y6769D01*
X8836Y6749D01*
X8816D01*
X8836Y6729D01*
X8816Y6709D01*
X8836D01*
X8856Y6689D01*
X3715Y4913D02*
X3755Y4953D01*
X3795D01*
X3755Y4993D01*
X3795Y5033D01*
X3755D01*
X3715Y5073D01*
X3675Y5033D01*
X3635D01*
X3675Y4993D01*
X3635Y4953D01*
X3675D01*
X3715Y4913D01*
Y4953D02*
X3735Y4973D01*
X3755D01*
X3735Y4993D01*
X3755Y5013D01*
X3735D01*
X3715Y5033D01*
X3695Y5013D01*
X3675D01*
X3695Y4993D01*
X3675Y4973D01*
X3695D01*
X3715Y4953D01*
X3465Y3959D02*
X3505Y3999D01*
X3545D01*
X3505Y4039D01*
X3545Y4079D01*
X3505D01*
X3465Y4119D01*
X3425Y4079D01*
X3385D01*
X3425Y4039D01*
X3385Y3999D01*
X3425D01*
X3465Y3959D01*
Y3999D02*
X3485Y4019D01*
X3505D01*
X3485Y4039D01*
X3505Y4059D01*
X3485D01*
X3465Y4079D01*
X3445Y4059D01*
X3425D01*
X3445Y4039D01*
X3425Y4019D01*
X3445D01*
X3465Y3999D01*
X3394Y5158D02*
X3434Y5198D01*
X3474D01*
X3434Y5238D01*
X3474Y5278D01*
X3434D01*
X3394Y5318D01*
X3354Y5278D01*
X3314D01*
X3354Y5238D01*
X3314Y5198D01*
X3354D01*
X3394Y5158D01*
Y5198D02*
X3414Y5218D01*
X3434D01*
X3414Y5238D01*
X3434Y5258D01*
X3414D01*
X3394Y5278D01*
X3374Y5258D01*
X3354D01*
X3374Y5238D01*
X3354Y5218D01*
X3374D01*
X3394Y5198D01*
X3407Y4527D02*
X3447Y4567D01*
X3487D01*
X3447Y4607D01*
X3487Y4647D01*
X3447D01*
X3407Y4687D01*
X3367Y4647D01*
X3327D01*
X3367Y4607D01*
X3327Y4567D01*
X3367D01*
X3407Y4527D01*
Y4567D02*
X3427Y4587D01*
X3447D01*
X3427Y4607D01*
X3447Y4627D01*
X3427D01*
X3407Y4647D01*
X3387Y4627D01*
X3367D01*
X3387Y4607D01*
X3367Y4587D01*
X3387D01*
X3407Y4567D01*
X4792Y6866D02*
X4832Y6906D01*
X4872D01*
X4832Y6946D01*
X4872Y6986D01*
X4832D01*
X4792Y7026D01*
X4752Y6986D01*
X4712D01*
X4752Y6946D01*
X4712Y6906D01*
X4752D01*
X4792Y6866D01*
Y6906D02*
X4812Y6926D01*
X4832D01*
X4812Y6946D01*
X4832Y6966D01*
X4812D01*
X4792Y6986D01*
X4772Y6966D01*
X4752D01*
X4772Y6946D01*
X4752Y6926D01*
X4772D01*
X4792Y6906D01*
X17243Y5209D02*
X17283Y5249D01*
X17323D01*
X17283Y5289D01*
X17323Y5329D01*
X17283D01*
X17243Y5369D01*
X17203Y5329D01*
X17163D01*
X17203Y5289D01*
X17163Y5249D01*
X17203D01*
X17243Y5209D01*
Y5249D02*
X17263Y5269D01*
X17283D01*
X17263Y5289D01*
X17283Y5309D01*
X17263D01*
X17243Y5329D01*
X17223Y5309D01*
X17203D01*
X17223Y5289D01*
X17203Y5269D01*
X17223D01*
X17243Y5249D01*
X18135Y5156D02*
X18175Y5196D01*
X18215D01*
X18175Y5236D01*
X18215Y5276D01*
X18175D01*
X18135Y5316D01*
X18095Y5276D01*
X18055D01*
X18095Y5236D01*
X18055Y5196D01*
X18095D01*
X18135Y5156D01*
Y5196D02*
X18155Y5216D01*
X18175D01*
X18155Y5236D01*
X18175Y5256D01*
X18155D01*
X18135Y5276D01*
X18115Y5256D01*
X18095D01*
X18115Y5236D01*
X18095Y5216D01*
X18115D01*
X18135Y5196D01*
X16993Y4581D02*
X17033Y4621D01*
X17073D01*
X17033Y4661D01*
X17073Y4701D01*
X17033D01*
X16993Y4741D01*
X16953Y4701D01*
X16913D01*
X16953Y4661D01*
X16913Y4621D01*
X16953D01*
X16993Y4581D01*
Y4621D02*
X17013Y4641D01*
X17033D01*
X17013Y4661D01*
X17033Y4681D01*
X17013D01*
X16993Y4701D01*
X16973Y4681D01*
X16953D01*
X16973Y4661D01*
X16953Y4641D01*
X16973D01*
X16993Y4621D01*
X9075Y2833D02*
X9115Y2873D01*
X9155D01*
X9115Y2913D01*
X9155Y2953D01*
X9115D01*
X9075Y2993D01*
X9035Y2953D01*
X8995D01*
X9035Y2913D01*
X8995Y2873D01*
X9035D01*
X9075Y2833D01*
Y2873D02*
X9095Y2893D01*
X9115D01*
X9095Y2913D01*
X9115Y2933D01*
X9095D01*
X9075Y2953D01*
X9055Y2933D01*
X9035D01*
X9055Y2913D01*
X9035Y2893D01*
X9055D01*
X9075Y2873D01*
X9913Y5123D02*
X9953Y5163D01*
X9993D01*
X9953Y5203D01*
X9993Y5243D01*
X9953D01*
X9913Y5283D01*
X9873Y5243D01*
X9833D01*
X9873Y5203D01*
X9833Y5163D01*
X9873D01*
X9913Y5123D01*
Y5163D02*
X9933Y5183D01*
X9953D01*
X9933Y5203D01*
X9953Y5223D01*
X9933D01*
X9913Y5243D01*
X9893Y5223D01*
X9873D01*
X9893Y5203D01*
X9873Y5183D01*
X9893D01*
X9913Y5163D01*
X14907Y5135D02*
X14947Y5175D01*
X14987D01*
X14947Y5215D01*
X14987Y5255D01*
X14947D01*
X14907Y5295D01*
X14867Y5255D01*
X14827D01*
X14867Y5215D01*
X14827Y5175D01*
X14867D01*
X14907Y5135D01*
Y5175D02*
X14927Y5195D01*
X14947D01*
X14927Y5215D01*
X14947Y5235D01*
X14927D01*
X14907Y5255D01*
X14887Y5235D01*
X14867D01*
X14887Y5215D01*
X14867Y5195D01*
X14887D01*
X14907Y5175D01*
Y5686D02*
X14947Y5726D01*
X14987D01*
X14947Y5766D01*
X14987Y5806D01*
X14947D01*
X14907Y5846D01*
X14867Y5806D01*
X14827D01*
X14867Y5766D01*
X14827Y5726D01*
X14867D01*
X14907Y5686D01*
Y5726D02*
X14927Y5746D01*
X14947D01*
X14927Y5766D01*
X14947Y5786D01*
X14927D01*
X14907Y5806D01*
X14887Y5786D01*
X14867D01*
X14887Y5766D01*
X14867Y5746D01*
X14887D01*
X14907Y5726D01*
X15459Y5686D02*
X15499Y5726D01*
X15539D01*
X15499Y5766D01*
X15539Y5806D01*
X15499D01*
X15459Y5846D01*
X15419Y5806D01*
X15379D01*
X15419Y5766D01*
X15379Y5726D01*
X15419D01*
X15459Y5686D01*
Y5726D02*
X15479Y5746D01*
X15499D01*
X15479Y5766D01*
X15499Y5786D01*
X15479D01*
X15459Y5806D01*
X15439Y5786D01*
X15419D01*
X15439Y5766D01*
X15419Y5746D01*
X15439D01*
X15459Y5726D01*
Y5135D02*
X15499Y5175D01*
X15539D01*
X15499Y5215D01*
X15539Y5255D01*
X15499D01*
X15459Y5295D01*
X15419Y5255D01*
X15379D01*
X15419Y5215D01*
X15379Y5175D01*
X15419D01*
X15459Y5135D01*
Y5175D02*
X15479Y5195D01*
X15499D01*
X15479Y5215D01*
X15499Y5235D01*
X15479D01*
X15459Y5255D01*
X15439Y5235D01*
X15419D01*
X15439Y5215D01*
X15419Y5195D01*
X15439D01*
X15459Y5175D01*
X17778Y34189D02*
X17698Y34349D01*
X17858D01*
X17778Y34189D01*
Y33756D02*
X17698Y33916D01*
X17858D01*
X17778Y33756D01*
X17345Y34189D02*
X17265Y34349D01*
X17425D01*
X17345Y34189D01*
Y33756D02*
X17265Y33916D01*
X17425D01*
X17345Y33756D01*
X24262Y4257D02*
X24302Y4297D01*
X24342D01*
X24302Y4337D01*
X24342Y4377D01*
X24302D01*
X24262Y4417D01*
X24222Y4377D01*
X24182D01*
X24222Y4337D01*
X24182Y4297D01*
X24222D01*
X24262Y4257D01*
Y4297D02*
X24282Y4317D01*
X24302D01*
X24282Y4337D01*
X24302Y4357D01*
X24282D01*
X24262Y4377D01*
X24242Y4357D01*
X24222D01*
X24242Y4337D01*
X24222Y4317D01*
X24242D01*
X24262Y4297D01*
X14316Y10181D02*
X14356Y10221D01*
X14396D01*
X14356Y10261D01*
X14396Y10301D01*
X14356D01*
X14316Y10341D01*
X14276Y10301D01*
X14236D01*
X14276Y10261D01*
X14236Y10221D01*
X14276D01*
X14316Y10181D01*
Y10221D02*
X14336Y10241D01*
X14356D01*
X14336Y10261D01*
X14356Y10281D01*
X14336D01*
X14316Y10301D01*
X14296Y10281D01*
X14276D01*
X14296Y10261D01*
X14276Y10241D01*
X14296D01*
X14316Y10221D01*
X14314Y9653D02*
X14354Y9693D01*
X14394D01*
X14354Y9733D01*
X14394Y9773D01*
X14354D01*
X14314Y9813D01*
X14274Y9773D01*
X14234D01*
X14274Y9733D01*
X14234Y9693D01*
X14274D01*
X14314Y9653D01*
Y9693D02*
X14334Y9713D01*
X14354D01*
X14334Y9733D01*
X14354Y9753D01*
X14334D01*
X14314Y9773D01*
X14294Y9753D01*
X14274D01*
X14294Y9733D01*
X14274Y9713D01*
X14294D01*
X14314Y9693D01*
X21901Y5686D02*
X21941Y5726D01*
X21981D01*
X21941Y5766D01*
X21981Y5806D01*
X21941D01*
X21901Y5846D01*
X21861Y5806D01*
X21821D01*
X21861Y5766D01*
X21821Y5726D01*
X21861D01*
X21901Y5686D01*
Y5726D02*
X21921Y5746D01*
X21941D01*
X21921Y5766D01*
X21941Y5786D01*
X21921D01*
X21901Y5806D01*
X21881Y5786D01*
X21861D01*
X21881Y5766D01*
X21861Y5746D01*
X21881D01*
X21901Y5726D01*
Y5135D02*
X21941Y5175D01*
X21981D01*
X21941Y5215D01*
X21981Y5255D01*
X21941D01*
X21901Y5295D01*
X21861Y5255D01*
X21821D01*
X21861Y5215D01*
X21821Y5175D01*
X21861D01*
X21901Y5135D01*
Y5175D02*
X21921Y5195D01*
X21941D01*
X21921Y5215D01*
X21941Y5235D01*
X21921D01*
X21901Y5255D01*
X21881Y5235D01*
X21861D01*
X21881Y5215D01*
X21861Y5195D01*
X21881D01*
X21901Y5175D01*
Y4584D02*
X21941Y4624D01*
X21981D01*
X21941Y4664D01*
X21981Y4704D01*
X21941D01*
X21901Y4744D01*
X21861Y4704D01*
X21821D01*
X21861Y4664D01*
X21821Y4624D01*
X21861D01*
X21901Y4584D01*
Y4624D02*
X21921Y4644D01*
X21941D01*
X21921Y4664D01*
X21941Y4684D01*
X21921D01*
X21901Y4704D01*
X21881Y4684D01*
X21861D01*
X21881Y4664D01*
X21861Y4644D01*
X21881D01*
X21901Y4624D01*
X21349Y4584D02*
X21389Y4624D01*
X21429D01*
X21389Y4664D01*
X21429Y4704D01*
X21389D01*
X21349Y4744D01*
X21309Y4704D01*
X21269D01*
X21309Y4664D01*
X21269Y4624D01*
X21309D01*
X21349Y4584D01*
Y4624D02*
X21369Y4644D01*
X21389D01*
X21369Y4664D01*
X21389Y4684D01*
X21369D01*
X21349Y4704D01*
X21329Y4684D01*
X21309D01*
X21329Y4664D01*
X21309Y4644D01*
X21329D01*
X21349Y4624D01*
X20798Y4584D02*
X20838Y4624D01*
X20878D01*
X20838Y4664D01*
X20878Y4704D01*
X20838D01*
X20798Y4744D01*
X20758Y4704D01*
X20718D01*
X20758Y4664D01*
X20718Y4624D01*
X20758D01*
X20798Y4584D01*
Y4624D02*
X20818Y4644D01*
X20838D01*
X20818Y4664D01*
X20838Y4684D01*
X20818D01*
X20798Y4704D01*
X20778Y4684D01*
X20758D01*
X20778Y4664D01*
X20758Y4644D01*
X20778D01*
X20798Y4624D01*
Y5135D02*
X20838Y5175D01*
X20878D01*
X20838Y5215D01*
X20878Y5255D01*
X20838D01*
X20798Y5295D01*
X20758Y5255D01*
X20718D01*
X20758Y5215D01*
X20718Y5175D01*
X20758D01*
X20798Y5135D01*
Y5175D02*
X20818Y5195D01*
X20838D01*
X20818Y5215D01*
X20838Y5235D01*
X20818D01*
X20798Y5255D01*
X20778Y5235D01*
X20758D01*
X20778Y5215D01*
X20758Y5195D01*
X20778D01*
X20798Y5175D01*
Y5686D02*
X20838Y5726D01*
X20878D01*
X20838Y5766D01*
X20878Y5806D01*
X20838D01*
X20798Y5846D01*
X20758Y5806D01*
X20718D01*
X20758Y5766D01*
X20718Y5726D01*
X20758D01*
X20798Y5686D01*
Y5726D02*
X20818Y5746D01*
X20838D01*
X20818Y5766D01*
X20838Y5786D01*
X20818D01*
X20798Y5806D01*
X20778Y5786D01*
X20758D01*
X20778Y5766D01*
X20758Y5746D01*
X20778D01*
X20798Y5726D01*
X21349Y5686D02*
X21389Y5726D01*
X21429D01*
X21389Y5766D01*
X21429Y5806D01*
X21389D01*
X21349Y5846D01*
X21309Y5806D01*
X21269D01*
X21309Y5766D01*
X21269Y5726D01*
X21309D01*
X21349Y5686D01*
Y5726D02*
X21369Y5746D01*
X21389D01*
X21369Y5766D01*
X21389Y5786D01*
X21369D01*
X21349Y5806D01*
X21329Y5786D01*
X21309D01*
X21329Y5766D01*
X21309Y5746D01*
X21329D01*
X21349Y5726D01*
Y5135D02*
X21389Y5175D01*
X21429D01*
X21389Y5215D01*
X21429Y5255D01*
X21389D01*
X21349Y5295D01*
X21309Y5255D01*
X21269D01*
X21309Y5215D01*
X21269Y5175D01*
X21309D01*
X21349Y5135D01*
Y5175D02*
X21369Y5195D01*
X21389D01*
X21369Y5215D01*
X21389Y5235D01*
X21369D01*
X21349Y5255D01*
X21329Y5235D01*
X21309D01*
X21329Y5215D01*
X21309Y5195D01*
X21329D01*
X21349Y5175D01*
X16010Y5686D02*
X16050Y5726D01*
X16090D01*
X16050Y5766D01*
X16090Y5806D01*
X16050D01*
X16010Y5846D01*
X15970Y5806D01*
X15930D01*
X15970Y5766D01*
X15930Y5726D01*
X15970D01*
X16010Y5686D01*
Y5726D02*
X16030Y5746D01*
X16050D01*
X16030Y5766D01*
X16050Y5786D01*
X16030D01*
X16010Y5806D01*
X15990Y5786D01*
X15970D01*
X15990Y5766D01*
X15970Y5746D01*
X15990D01*
X16010Y5726D01*
Y5135D02*
X16050Y5175D01*
X16090D01*
X16050Y5215D01*
X16090Y5255D01*
X16050D01*
X16010Y5295D01*
X15970Y5255D01*
X15930D01*
X15970Y5215D01*
X15930Y5175D01*
X15970D01*
X16010Y5135D01*
Y5175D02*
X16030Y5195D01*
X16050D01*
X16030Y5215D01*
X16050Y5235D01*
X16030D01*
X16010Y5255D01*
X15990Y5235D01*
X15970D01*
X15990Y5215D01*
X15970Y5195D01*
X15990D01*
X16010Y5175D01*
Y4584D02*
X16050Y4624D01*
X16090D01*
X16050Y4664D01*
X16090Y4704D01*
X16050D01*
X16010Y4744D01*
X15970Y4704D01*
X15930D01*
X15970Y4664D01*
X15930Y4624D01*
X15970D01*
X16010Y4584D01*
Y4624D02*
X16030Y4644D01*
X16050D01*
X16030Y4664D01*
X16050Y4684D01*
X16030D01*
X16010Y4704D01*
X15990Y4684D01*
X15970D01*
X15990Y4664D01*
X15970Y4644D01*
X15990D01*
X16010Y4624D01*
X15459Y4584D02*
X15499Y4624D01*
X15539D01*
X15499Y4664D01*
X15539Y4704D01*
X15499D01*
X15459Y4744D01*
X15419Y4704D01*
X15379D01*
X15419Y4664D01*
X15379Y4624D01*
X15419D01*
X15459Y4584D01*
Y4624D02*
X15479Y4644D01*
X15499D01*
X15479Y4664D01*
X15499Y4684D01*
X15479D01*
X15459Y4704D01*
X15439Y4684D01*
X15419D01*
X15439Y4664D01*
X15419Y4644D01*
X15439D01*
X15459Y4624D01*
X14907Y4584D02*
X14947Y4624D01*
X14987D01*
X14947Y4664D01*
X14987Y4704D01*
X14947D01*
X14907Y4744D01*
X14867Y4704D01*
X14827D01*
X14867Y4664D01*
X14827Y4624D01*
X14867D01*
X14907Y4584D01*
Y4624D02*
X14927Y4644D01*
X14947D01*
X14927Y4664D01*
X14947Y4684D01*
X14927D01*
X14907Y4704D01*
X14887Y4684D01*
X14867D01*
X14887Y4664D01*
X14867Y4644D01*
X14887D01*
X14907Y4624D01*
X21826Y7096D02*
X21866Y7136D01*
X21906D01*
X21866Y7176D01*
X21906Y7216D01*
X21866D01*
X21826Y7256D01*
X21786Y7216D01*
X21746D01*
X21786Y7176D01*
X21746Y7136D01*
X21786D01*
X21826Y7096D01*
Y7136D02*
X21846Y7156D01*
X21866D01*
X21846Y7176D01*
X21866Y7196D01*
X21846D01*
X21826Y7216D01*
X21806Y7196D01*
X21786D01*
X21806Y7176D01*
X21786Y7156D01*
X21806D01*
X21826Y7136D01*
X22518Y6666D02*
X22558Y6706D01*
X22598D01*
X22558Y6746D01*
X22598Y6786D01*
X22558D01*
X22518Y6826D01*
X22478Y6786D01*
X22438D01*
X22478Y6746D01*
X22438Y6706D01*
X22478D01*
X22518Y6666D01*
Y6706D02*
X22538Y6726D01*
X22558D01*
X22538Y6746D01*
X22558Y6766D01*
X22538D01*
X22518Y6786D01*
X22498Y6766D01*
X22478D01*
X22498Y6746D01*
X22478Y6726D01*
X22498D01*
X22518Y6706D01*
X22718Y6889D02*
X22758Y6929D01*
X22798D01*
X22758Y6969D01*
X22798Y7009D01*
X22758D01*
X22718Y7049D01*
X22678Y7009D01*
X22638D01*
X22678Y6969D01*
X22638Y6929D01*
X22678D01*
X22718Y6889D01*
Y6929D02*
X22738Y6949D01*
X22758D01*
X22738Y6969D01*
X22758Y6989D01*
X22738D01*
X22718Y7009D01*
X22698Y6989D01*
X22678D01*
X22698Y6969D01*
X22678Y6949D01*
X22698D01*
X22718Y6929D01*
X22924Y6643D02*
X22964Y6683D01*
X23004D01*
X22964Y6723D01*
X23004Y6763D01*
X22964D01*
X22924Y6803D01*
X22884Y6763D01*
X22844D01*
X22884Y6723D01*
X22844Y6683D01*
X22884D01*
X22924Y6643D01*
Y6683D02*
X22944Y6703D01*
X22964D01*
X22944Y6723D01*
X22964Y6743D01*
X22944D01*
X22924Y6763D01*
X22904Y6743D01*
X22884D01*
X22904Y6723D01*
X22884Y6703D01*
X22904D01*
X22924Y6683D01*
X24368Y8762D02*
X24408Y8802D01*
X24448D01*
X24408Y8842D01*
X24448Y8882D01*
X24408D01*
X24368Y8922D01*
X24328Y8882D01*
X24288D01*
X24328Y8842D01*
X24288Y8802D01*
X24328D01*
X24368Y8762D01*
Y8802D02*
X24388Y8822D01*
X24408D01*
X24388Y8842D01*
X24408Y8862D01*
X24388D01*
X24368Y8882D01*
X24348Y8862D01*
X24328D01*
X24348Y8842D01*
X24328Y8822D01*
X24348D01*
X24368Y8802D01*
X23796Y3753D02*
X23836Y3793D01*
X23876D01*
X23836Y3833D01*
X23876Y3873D01*
X23836D01*
X23796Y3913D01*
X23756Y3873D01*
X23716D01*
X23756Y3833D01*
X23716Y3793D01*
X23756D01*
X23796Y3753D01*
Y3793D02*
X23816Y3813D01*
X23836D01*
X23816Y3833D01*
X23836Y3853D01*
X23816D01*
X23796Y3873D01*
X23776Y3853D01*
X23756D01*
X23776Y3833D01*
X23756Y3813D01*
X23776D01*
X23796Y3793D01*
X23143Y9207D02*
X23183Y9247D01*
X23223D01*
X23183Y9287D01*
X23223Y9327D01*
X23183D01*
X23143Y9367D01*
X23103Y9327D01*
X23063D01*
X23103Y9287D01*
X23063Y9247D01*
X23103D01*
X23143Y9207D01*
Y9247D02*
X23163Y9267D01*
X23183D01*
X23163Y9287D01*
X23183Y9307D01*
X23163D01*
X23143Y9327D01*
X23123Y9307D01*
X23103D01*
X23123Y9287D01*
X23103Y9267D01*
X23123D01*
X23143Y9247D01*
X21202Y11130D02*
X21242Y11170D01*
X21282D01*
X21242Y11210D01*
X21282Y11250D01*
X21242D01*
X21202Y11290D01*
X21162Y11250D01*
X21122D01*
X21162Y11210D01*
X21122Y11170D01*
X21162D01*
X21202Y11130D01*
Y11170D02*
X21222Y11190D01*
X21242D01*
X21222Y11210D01*
X21242Y11230D01*
X21222D01*
X21202Y11250D01*
X21182Y11230D01*
X21162D01*
X21182Y11210D01*
X21162Y11190D01*
X21182D01*
X21202Y11170D01*
X20667Y30446D02*
X20707Y30486D01*
X20747D01*
X20707Y30526D01*
X20747Y30566D01*
X20707D01*
X20667Y30606D01*
X20627Y30566D01*
X20587D01*
X20627Y30526D01*
X20587Y30486D01*
X20627D01*
X20667Y30446D01*
Y30486D02*
X20687Y30506D01*
X20707D01*
X20687Y30526D01*
X20707Y30546D01*
X20687D01*
X20667Y30566D01*
X20647Y30546D01*
X20627D01*
X20647Y30526D01*
X20627Y30506D01*
X20647D01*
X20667Y30486D01*
X18911Y13116D02*
X18951Y13156D01*
X18991D01*
X18951Y13196D01*
X18991Y13236D01*
X18951D01*
X18911Y13276D01*
X18871Y13236D01*
X18831D01*
X18871Y13196D01*
X18831Y13156D01*
X18871D01*
X18911Y13116D01*
Y13156D02*
X18931Y13176D01*
X18951D01*
X18931Y13196D01*
X18951Y13216D01*
X18931D01*
X18911Y13236D01*
X18891Y13216D01*
X18871D01*
X18891Y13196D01*
X18871Y13176D01*
X18891D01*
X18911Y13156D01*
X19402Y13141D02*
X19442Y13182D01*
X19482D01*
X19442Y13221D01*
X19482Y13261D01*
X19442D01*
X19402Y13302D01*
X19362Y13261D01*
X19322D01*
X19362Y13221D01*
X19322Y13182D01*
X19362D01*
X19402Y13141D01*
Y13182D02*
X19422Y13202D01*
X19442D01*
X19422Y13221D01*
X19442Y13241D01*
X19422D01*
X19402Y13261D01*
X19382Y13241D01*
X19362D01*
X19382Y13221D01*
X19362Y13202D01*
X19382D01*
X19402Y13182D01*
X20059Y13105D02*
X20099Y13145D01*
X20139D01*
X20099Y13185D01*
X20139Y13225D01*
X20099D01*
X20059Y13265D01*
X20019Y13225D01*
X19979D01*
X20019Y13185D01*
X19979Y13145D01*
X20019D01*
X20059Y13105D01*
Y13145D02*
X20079Y13165D01*
X20099D01*
X20079Y13185D01*
X20099Y13205D01*
X20079D01*
X20059Y13225D01*
X20039Y13205D01*
X20019D01*
X20039Y13185D01*
X20019Y13165D01*
X20039D01*
X20059Y13145D01*
X16054Y3641D02*
X16094Y3681D01*
X16134D01*
X16094Y3721D01*
X16134Y3761D01*
X16094D01*
X16054Y3801D01*
X16014Y3761D01*
X15974D01*
X16014Y3721D01*
X15974Y3681D01*
X16014D01*
X16054Y3641D01*
Y3681D02*
X16074Y3701D01*
X16094D01*
X16074Y3721D01*
X16094Y3741D01*
X16074D01*
X16054Y3761D01*
X16034Y3741D01*
X16014D01*
X16034Y3721D01*
X16014Y3701D01*
X16034D01*
X16054Y3681D01*
X14695Y3621D02*
X14735Y3661D01*
X14775D01*
X14735Y3701D01*
X14775Y3741D01*
X14735D01*
X14695Y3781D01*
X14655Y3741D01*
X14615D01*
X14655Y3701D01*
X14615Y3661D01*
X14655D01*
X14695Y3621D01*
Y3661D02*
X14715Y3681D01*
X14735D01*
X14715Y3701D01*
X14735Y3721D01*
X14715D01*
X14695Y3741D01*
X14675Y3721D01*
X14655D01*
X14675Y3701D01*
X14655Y3681D01*
X14675D01*
X14695Y3661D01*
X23547Y10156D02*
X23587Y10196D01*
X23627D01*
X23587Y10236D01*
X23627Y10276D01*
X23587D01*
X23547Y10316D01*
X23507Y10276D01*
X23467D01*
X23507Y10236D01*
X23467Y10196D01*
X23507D01*
X23547Y10156D01*
Y10196D02*
X23567Y10216D01*
X23587D01*
X23567Y10236D01*
X23587Y10256D01*
X23567D01*
X23547Y10276D01*
X23527Y10256D01*
X23507D01*
X23527Y10236D01*
X23507Y10216D01*
X23527D01*
X23547Y10196D01*
X24024Y10874D02*
X24064Y10914D01*
X24104D01*
X24064Y10954D01*
X24104Y10994D01*
X24064D01*
X24024Y11034D01*
X23984Y10994D01*
X23944D01*
X23984Y10954D01*
X23944Y10914D01*
X23984D01*
X24024Y10874D01*
Y10914D02*
X24044Y10934D01*
X24064D01*
X24044Y10954D01*
X24064Y10974D01*
X24044D01*
X24024Y10994D01*
X24004Y10974D01*
X23984D01*
X24004Y10954D01*
X23984Y10934D01*
X24004D01*
X24024Y10914D01*
X23954Y5380D02*
X23994Y5420D01*
X24034D01*
X23994Y5460D01*
X24034Y5500D01*
X23994D01*
X23954Y5540D01*
X23914Y5500D01*
X23874D01*
X23914Y5460D01*
X23874Y5420D01*
X23914D01*
X23954Y5380D01*
Y5420D02*
X23974Y5440D01*
X23994D01*
X23974Y5460D01*
X23994Y5480D01*
X23974D01*
X23954Y5500D01*
X23934Y5480D01*
X23914D01*
X23934Y5460D01*
X23914Y5440D01*
X23934D01*
X23954Y5420D01*
X19849Y9622D02*
X19889Y9662D01*
X19929D01*
X19889Y9702D01*
X19929Y9742D01*
X19889D01*
X19849Y9782D01*
X19809Y9742D01*
X19769D01*
X19809Y9702D01*
X19769Y9662D01*
X19809D01*
X19849Y9622D01*
Y9662D02*
X19869Y9682D01*
X19889D01*
X19869Y9702D01*
X19889Y9722D01*
X19869D01*
X19849Y9742D01*
X19829Y9722D01*
X19809D01*
X19829Y9702D01*
X19809Y9682D01*
X19829D01*
X19849Y9662D01*
X24077Y3335D02*
X24117Y3375D01*
X24157D01*
X24117Y3415D01*
X24157Y3455D01*
X24117D01*
X24077Y3495D01*
X24037Y3455D01*
X23997D01*
X24037Y3415D01*
X23997Y3375D01*
X24037D01*
X24077Y3335D01*
Y3375D02*
X24097Y3395D01*
X24117D01*
X24097Y3415D01*
X24117Y3435D01*
X24097D01*
X24077Y3455D01*
X24057Y3435D01*
X24037D01*
X24057Y3415D01*
X24037Y3395D01*
X24057D01*
X24077Y3375D01*
X24520Y5078D02*
X24560Y5118D01*
X24600D01*
X24560Y5158D01*
X24600Y5198D01*
X24560D01*
X24520Y5238D01*
X24480Y5198D01*
X24440D01*
X24480Y5158D01*
X24440Y5118D01*
X24480D01*
X24520Y5078D01*
Y5118D02*
X24540Y5138D01*
X24560D01*
X24540Y5158D01*
X24560Y5178D01*
X24540D01*
X24520Y5198D01*
X24500Y5178D01*
X24480D01*
X24500Y5158D01*
X24480Y5138D01*
X24500D01*
X24520Y5118D01*
X23381Y3403D02*
X23421Y3443D01*
X23461D01*
X23421Y3483D01*
X23461Y3523D01*
X23421D01*
X23381Y3563D01*
X23341Y3523D01*
X23301D01*
X23341Y3483D01*
X23301Y3443D01*
X23341D01*
X23381Y3403D01*
Y3443D02*
X23401Y3463D01*
X23421D01*
X23401Y3483D01*
X23421Y3503D01*
X23401D01*
X23381Y3523D01*
X23361Y3503D01*
X23341D01*
X23361Y3483D01*
X23341Y3463D01*
X23361D01*
X23381Y3443D01*
X23954Y4150D02*
X23994Y4190D01*
X24034D01*
X23994Y4230D01*
X24034Y4270D01*
X23994D01*
X23954Y4310D01*
X23914Y4270D01*
X23874D01*
X23914Y4230D01*
X23874Y4190D01*
X23914D01*
X23954Y4150D01*
Y4190D02*
X23974Y4210D01*
X23994D01*
X23974Y4230D01*
X23994Y4250D01*
X23974D01*
X23954Y4270D01*
X23934Y4250D01*
X23914D01*
X23934Y4230D01*
X23914Y4210D01*
X23934D01*
X23954Y4190D01*
X21545Y6698D02*
X21585Y6738D01*
X21625D01*
X21585Y6778D01*
X21625Y6818D01*
X21585D01*
X21545Y6858D01*
X21505Y6818D01*
X21465D01*
X21505Y6778D01*
X21465Y6738D01*
X21505D01*
X21545Y6698D01*
Y6738D02*
X21565Y6758D01*
X21585D01*
X21565Y6778D01*
X21585Y6798D01*
X21565D01*
X21545Y6818D01*
X21525Y6798D01*
X21505D01*
X21525Y6778D01*
X21505Y6758D01*
X21525D01*
X21545Y6738D01*
X21956Y6780D02*
X21996Y6820D01*
X22036D01*
X21996Y6860D01*
X22036Y6900D01*
X21996D01*
X21956Y6940D01*
X21916Y6900D01*
X21876D01*
X21916Y6860D01*
X21876Y6820D01*
X21916D01*
X21956Y6780D01*
Y6820D02*
X21976Y6840D01*
X21996D01*
X21976Y6860D01*
X21996Y6880D01*
X21976D01*
X21956Y6900D01*
X21936Y6880D01*
X21916D01*
X21936Y6860D01*
X21916Y6840D01*
X21936D01*
X21956Y6820D01*
X20281Y6643D02*
X20321Y6683D01*
X20361D01*
X20321Y6723D01*
X20361Y6763D01*
X20321D01*
X20281Y6803D01*
X20241Y6763D01*
X20201D01*
X20241Y6723D01*
X20201Y6683D01*
X20241D01*
X20281Y6643D01*
Y6683D02*
X20301Y6703D01*
X20321D01*
X20301Y6723D01*
X20321Y6743D01*
X20301D01*
X20281Y6763D01*
X20261Y6743D01*
X20241D01*
X20261Y6723D01*
X20241Y6703D01*
X20261D01*
X20281Y6683D01*
X19136Y8853D02*
X19176Y8893D01*
X19216D01*
X19176Y8933D01*
X19216Y8973D01*
X19176D01*
X19136Y9013D01*
X19096Y8973D01*
X19056D01*
X19096Y8933D01*
X19056Y8893D01*
X19096D01*
X19136Y8853D01*
Y8893D02*
X19156Y8913D01*
X19176D01*
X19156Y8933D01*
X19176Y8953D01*
X19156D01*
X19136Y8973D01*
X19116Y8953D01*
X19096D01*
X19116Y8933D01*
X19096Y8913D01*
X19116D01*
X19136Y8893D01*
X21265Y7580D02*
X21305Y7620D01*
X21345D01*
X21305Y7660D01*
X21345Y7700D01*
X21305D01*
X21265Y7740D01*
X21225Y7700D01*
X21185D01*
X21225Y7660D01*
X21185Y7620D01*
X21225D01*
X21265Y7580D01*
Y7620D02*
X21285Y7640D01*
X21305D01*
X21285Y7660D01*
X21305Y7680D01*
X21285D01*
X21265Y7700D01*
X21245Y7680D01*
X21225D01*
X21245Y7660D01*
X21225Y7640D01*
X21245D01*
X21265Y7620D01*
X23954Y4968D02*
X23994Y5008D01*
X24034D01*
X23994Y5048D01*
X24034Y5088D01*
X23994D01*
X23954Y5128D01*
X23914Y5088D01*
X23874D01*
X23914Y5048D01*
X23874Y5008D01*
X23914D01*
X23954Y4968D01*
Y5008D02*
X23974Y5028D01*
X23994D01*
X23974Y5048D01*
X23994Y5068D01*
X23974D01*
X23954Y5088D01*
X23934Y5068D01*
X23914D01*
X23934Y5048D01*
X23914Y5028D01*
X23934D01*
X23954Y5008D01*
Y4547D02*
X23994Y4587D01*
X24034D01*
X23994Y4627D01*
X24034Y4667D01*
X23994D01*
X23954Y4707D01*
X23914Y4667D01*
X23874D01*
X23914Y4627D01*
X23874Y4587D01*
X23914D01*
X23954Y4547D01*
Y4587D02*
X23974Y4607D01*
X23994D01*
X23974Y4627D01*
X23994Y4647D01*
X23974D01*
X23954Y4667D01*
X23934Y4647D01*
X23914D01*
X23934Y4627D01*
X23914Y4607D01*
X23934D01*
X23954Y4587D01*
X17570Y10604D02*
X17610Y10644D01*
X17650D01*
X17610Y10684D01*
X17650Y10724D01*
X17610D01*
X17570Y10764D01*
X17530Y10724D01*
X17490D01*
X17530Y10684D01*
X17490Y10644D01*
X17530D01*
X17570Y10604D01*
Y10644D02*
X17590Y10664D01*
X17610D01*
X17590Y10684D01*
X17610Y10704D01*
X17590D01*
X17570Y10724D01*
X17550Y10704D01*
X17530D01*
X17550Y10684D01*
X17530Y10664D01*
X17550D01*
X17570Y10644D01*
X17915Y10960D02*
X17955Y11000D01*
X17995D01*
X17955Y11040D01*
X17995Y11080D01*
X17955D01*
X17915Y11120D01*
X17875Y11080D01*
X17835D01*
X17875Y11040D01*
X17835Y11000D01*
X17875D01*
X17915Y10960D01*
Y11000D02*
X17935Y11020D01*
X17955D01*
X17935Y11040D01*
X17955Y11060D01*
X17935D01*
X17915Y11080D01*
X17895Y11060D01*
X17875D01*
X17895Y11040D01*
X17875Y11020D01*
X17895D01*
X17915Y11000D01*
X18973Y10445D02*
X19013Y10485D01*
X19053D01*
X19013Y10525D01*
X19053Y10565D01*
X19013D01*
X18973Y10605D01*
X18933Y10565D01*
X18893D01*
X18933Y10525D01*
X18893Y10485D01*
X18933D01*
X18973Y10445D01*
Y10485D02*
X18993Y10505D01*
X19013D01*
X18993Y10525D01*
X19013Y10545D01*
X18993D01*
X18973Y10565D01*
X18953Y10545D01*
X18933D01*
X18953Y10525D01*
X18933Y10505D01*
X18953D01*
X18973Y10485D01*
X17638Y12425D02*
X17678Y12465D01*
X17718D01*
X17678Y12505D01*
X17718Y12545D01*
X17678D01*
X17638Y12585D01*
X17598Y12545D01*
X17558D01*
X17598Y12505D01*
X17558Y12465D01*
X17598D01*
X17638Y12425D01*
Y12465D02*
X17658Y12485D01*
X17678D01*
X17658Y12505D01*
X17678Y12525D01*
X17658D01*
X17638Y12545D01*
X17618Y12525D01*
X17598D01*
X17618Y12505D01*
X17598Y12485D01*
X17618D01*
X17638Y12465D01*
X18015Y13108D02*
X18055Y13148D01*
X18095D01*
X18055Y13188D01*
X18095Y13228D01*
X18055D01*
X18015Y13268D01*
X17975Y13228D01*
X17935D01*
X17975Y13188D01*
X17935Y13148D01*
X17975D01*
X18015Y13108D01*
Y13148D02*
X18035Y13168D01*
X18055D01*
X18035Y13188D01*
X18055Y13208D01*
X18035D01*
X18015Y13228D01*
X17995Y13208D01*
X17975D01*
X17995Y13188D01*
X17975Y13168D01*
X17995D01*
X18015Y13148D01*
X17411Y13102D02*
X17451Y13142D01*
X17491D01*
X17451Y13182D01*
X17491Y13222D01*
X17451D01*
X17411Y13262D01*
X17371Y13222D01*
X17331D01*
X17371Y13182D01*
X17331Y13142D01*
X17371D01*
X17411Y13102D01*
Y13142D02*
X17431Y13162D01*
X17451D01*
X17431Y13182D01*
X17451Y13202D01*
X17431D01*
X17411Y13222D01*
X17391Y13202D01*
X17371D01*
X17391Y13182D01*
X17371Y13162D01*
X17391D01*
X17411Y13142D01*
X19264Y6768D02*
X19304Y6808D01*
X19344D01*
X19304Y6848D01*
X19344Y6888D01*
X19304D01*
X19264Y6928D01*
X19224Y6888D01*
X19184D01*
X19224Y6848D01*
X19184Y6808D01*
X19224D01*
X19264Y6768D01*
Y6808D02*
X19284Y6828D01*
X19304D01*
X19284Y6848D01*
X19304Y6868D01*
X19284D01*
X19264Y6888D01*
X19244Y6868D01*
X19224D01*
X19244Y6848D01*
X19224Y6828D01*
X19244D01*
X19264Y6808D01*
X21614Y10630D02*
X21654Y10670D01*
X21694D01*
X21654Y10710D01*
X21694Y10750D01*
X21654D01*
X21614Y10790D01*
X21574Y10750D01*
X21534D01*
X21574Y10710D01*
X21534Y10670D01*
X21574D01*
X21614Y10630D01*
Y10670D02*
X21634Y10690D01*
X21654D01*
X21634Y10710D01*
X21654Y10730D01*
X21634D01*
X21614Y10750D01*
X21594Y10730D01*
X21574D01*
X21594Y10710D01*
X21574Y10690D01*
X21594D01*
X21614Y10670D01*
X25006Y2772D02*
X25046Y2812D01*
X25086D01*
X25046Y2852D01*
X25086Y2892D01*
X25046D01*
X25006Y2932D01*
X24966Y2892D01*
X24926D01*
X24966Y2852D01*
X24926Y2812D01*
X24966D01*
X25006Y2772D01*
Y2812D02*
X25026Y2832D01*
X25046D01*
X25026Y2852D01*
X25046Y2872D01*
X25026D01*
X25006Y2892D01*
X24986Y2872D01*
X24966D01*
X24986Y2852D01*
X24966Y2832D01*
X24986D01*
X25006Y2812D01*
X24662Y2843D02*
X24702Y2883D01*
X24742D01*
X24702Y2923D01*
X24742Y2963D01*
X24702D01*
X24662Y3003D01*
X24622Y2963D01*
X24582D01*
X24622Y2923D01*
X24582Y2883D01*
X24622D01*
X24662Y2843D01*
Y2883D02*
X24682Y2903D01*
X24702D01*
X24682Y2923D01*
X24702Y2943D01*
X24682D01*
X24662Y2963D01*
X24642Y2943D01*
X24622D01*
X24642Y2923D01*
X24622Y2903D01*
X24642D01*
X24662Y2883D01*
X12638Y6424D02*
X12678Y6464D01*
X12718D01*
X12678Y6504D01*
X12718Y6544D01*
X12678D01*
X12638Y6584D01*
X12598Y6544D01*
X12558D01*
X12598Y6504D01*
X12558Y6464D01*
X12598D01*
X12638Y6424D01*
Y6464D02*
X12658Y6484D01*
X12678D01*
X12658Y6504D01*
X12678Y6524D01*
X12658D01*
X12638Y6544D01*
X12618Y6524D01*
X12598D01*
X12618Y6504D01*
X12598Y6484D01*
X12618D01*
X12638Y6464D01*
X16673Y6613D02*
X16713Y6653D01*
X16753D01*
X16713Y6693D01*
X16753Y6733D01*
X16713D01*
X16673Y6773D01*
X16633Y6733D01*
X16593D01*
X16633Y6693D01*
X16593Y6653D01*
X16633D01*
X16673Y6613D01*
Y6653D02*
X16693Y6673D01*
X16713D01*
X16693Y6693D01*
X16713Y6713D01*
X16693D01*
X16673Y6733D01*
X16653Y6713D01*
X16633D01*
X16653Y6693D01*
X16633Y6673D01*
X16653D01*
X16673Y6653D01*
X20512Y10931D02*
X20552Y10971D01*
X20592D01*
X20552Y11011D01*
X20592Y11051D01*
X20552D01*
X20512Y11091D01*
X20472Y11051D01*
X20432D01*
X20472Y11011D01*
X20432Y10971D01*
X20472D01*
X20512Y10931D01*
Y10971D02*
X20532Y10991D01*
X20552D01*
X20532Y11011D01*
X20552Y11031D01*
X20532D01*
X20512Y11051D01*
X20492Y11031D01*
X20472D01*
X20492Y11011D01*
X20472Y10991D01*
X20492D01*
X20512Y10971D01*
X18824Y9325D02*
X18864Y9365D01*
X18904D01*
X18864Y9405D01*
X18904Y9445D01*
X18864D01*
X18824Y9485D01*
X18784Y9445D01*
X18744D01*
X18784Y9405D01*
X18744Y9365D01*
X18784D01*
X18824Y9325D01*
Y9365D02*
X18844Y9385D01*
X18864D01*
X18844Y9405D01*
X18864Y9425D01*
X18844D01*
X18824Y9445D01*
X18804Y9425D01*
X18784D01*
X18804Y9405D01*
X18784Y9385D01*
X18804D01*
X18824Y9365D01*
X17340Y8131D02*
X17380Y8171D01*
X17420D01*
X17380Y8211D01*
X17420Y8251D01*
X17380D01*
X17340Y8291D01*
X17300Y8251D01*
X17260D01*
X17300Y8211D01*
X17260Y8171D01*
X17300D01*
X17340Y8131D01*
Y8171D02*
X17360Y8191D01*
X17380D01*
X17360Y8211D01*
X17380Y8231D01*
X17360D01*
X17340Y8251D01*
X17320Y8231D01*
X17300D01*
X17320Y8211D01*
X17300Y8191D01*
X17320D01*
X17340Y8171D01*
X20023Y12068D02*
X20063Y12108D01*
X20103D01*
X20063Y12148D01*
X20103Y12188D01*
X20063D01*
X20023Y12228D01*
X19983Y12188D01*
X19943D01*
X19983Y12148D01*
X19943Y12108D01*
X19983D01*
X20023Y12068D01*
Y12108D02*
X20043Y12128D01*
X20063D01*
X20043Y12148D01*
X20063Y12168D01*
X20043D01*
X20023Y12188D01*
X20003Y12168D01*
X19983D01*
X20003Y12148D01*
X19983Y12128D01*
X20003D01*
X20023Y12108D01*
X20332Y11895D02*
X20372Y11935D01*
X20412D01*
X20372Y11975D01*
X20412Y12015D01*
X20372D01*
X20332Y12055D01*
X20292Y12015D01*
X20252D01*
X20292Y11975D01*
X20252Y11935D01*
X20292D01*
X20332Y11895D01*
Y11935D02*
X20352Y11955D01*
X20372D01*
X20352Y11975D01*
X20372Y11995D01*
X20352D01*
X20332Y12015D01*
X20312Y11995D01*
X20292D01*
X20312Y11975D01*
X20292Y11955D01*
X20312D01*
X20332Y11935D01*
X20641Y6633D02*
X20681Y6673D01*
X20721D01*
X20681Y6713D01*
X20721Y6753D01*
X20681D01*
X20641Y6793D01*
X20601Y6753D01*
X20561D01*
X20601Y6713D01*
X20561Y6673D01*
X20601D01*
X20641Y6633D01*
Y6673D02*
X20661Y6693D01*
X20681D01*
X20661Y6713D01*
X20681Y6733D01*
X20661D01*
X20641Y6753D01*
X20621Y6733D01*
X20601D01*
X20621Y6713D01*
X20601Y6693D01*
X20621D01*
X20641Y6673D01*
X17534Y24595D02*
X17574Y24635D01*
X17614D01*
X17574Y24675D01*
X17614Y24715D01*
X17574D01*
X17534Y24755D01*
X17494Y24715D01*
X17454D01*
X17494Y24675D01*
X17454Y24635D01*
X17494D01*
X17534Y24595D01*
Y24635D02*
X17554Y24655D01*
X17574D01*
X17554Y24675D01*
X17574Y24695D01*
X17554D01*
X17534Y24715D01*
X17514Y24695D01*
X17494D01*
X17514Y24675D01*
X17494Y24655D01*
X17514D01*
X17534Y24635D01*
X16849Y1881D02*
X16889Y1921D01*
X16929D01*
X16889Y1961D01*
X16929Y2001D01*
X16889D01*
X16849Y2041D01*
X16809Y2001D01*
X16769D01*
X16809Y1961D01*
X16769Y1921D01*
X16809D01*
X16849Y1881D01*
Y1921D02*
X16869Y1941D01*
X16889D01*
X16869Y1961D01*
X16889Y1981D01*
X16869D01*
X16849Y2001D01*
X16829Y1981D01*
X16809D01*
X16829Y1961D01*
X16809Y1941D01*
X16829D01*
X16849Y1921D01*
X16020Y1881D02*
X16060Y1921D01*
X16100D01*
X16060Y1961D01*
X16100Y2001D01*
X16060D01*
X16020Y2041D01*
X15980Y2001D01*
X15940D01*
X15980Y1961D01*
X15940Y1921D01*
X15980D01*
X16020Y1881D01*
Y1921D02*
X16040Y1941D01*
X16060D01*
X16040Y1961D01*
X16060Y1981D01*
X16040D01*
X16020Y2001D01*
X16000Y1981D01*
X15980D01*
X16000Y1961D01*
X15980Y1941D01*
X16000D01*
X16020Y1921D01*
X18974Y2641D02*
X19014Y2681D01*
X19054D01*
X19014Y2721D01*
X19054Y2761D01*
X19014D01*
X18974Y2801D01*
X18934Y2761D01*
X18894D01*
X18934Y2721D01*
X18894Y2681D01*
X18934D01*
X18974Y2641D01*
Y2681D02*
X18994Y2701D01*
X19014D01*
X18994Y2721D01*
X19014Y2741D01*
X18994D01*
X18974Y2761D01*
X18954Y2741D01*
X18934D01*
X18954Y2721D01*
X18934Y2701D01*
X18954D01*
X18974Y2681D01*
Y1775D02*
X19014Y1815D01*
X19054D01*
X19014Y1855D01*
X19054Y1895D01*
X19014D01*
X18974Y1935D01*
X18934Y1895D01*
X18894D01*
X18934Y1855D01*
X18894Y1815D01*
X18934D01*
X18974Y1775D01*
Y1815D02*
X18994Y1835D01*
X19014D01*
X18994Y1855D01*
X19014Y1875D01*
X18994D01*
X18974Y1895D01*
X18954Y1875D01*
X18934D01*
X18954Y1855D01*
X18934Y1835D01*
X18954D01*
X18974Y1815D01*
X18756Y2425D02*
X18796Y2465D01*
X18836D01*
X18796Y2505D01*
X18836Y2545D01*
X18796D01*
X18756Y2585D01*
X18716Y2545D01*
X18676D01*
X18716Y2505D01*
X18676Y2465D01*
X18716D01*
X18756Y2425D01*
Y2465D02*
X18776Y2485D01*
X18796D01*
X18776Y2505D01*
X18796Y2525D01*
X18776D01*
X18756Y2545D01*
X18736Y2525D01*
X18716D01*
X18736Y2505D01*
X18716Y2485D01*
X18736D01*
X18756Y2465D01*
X18974Y2202D02*
X19014Y2242D01*
X19054D01*
X19014Y2282D01*
X19054Y2322D01*
X19014D01*
X18974Y2362D01*
X18934Y2322D01*
X18894D01*
X18934Y2282D01*
X18894Y2242D01*
X18934D01*
X18974Y2202D01*
Y2242D02*
X18994Y2262D01*
X19014D01*
X18994Y2282D01*
X19014Y2302D01*
X18994D01*
X18974Y2322D01*
X18954Y2302D01*
X18934D01*
X18954Y2282D01*
X18934Y2262D01*
X18954D01*
X18974Y2242D01*
X18756Y1992D02*
X18796Y2032D01*
X18836D01*
X18796Y2072D01*
X18836Y2112D01*
X18796D01*
X18756Y2152D01*
X18716Y2112D01*
X18676D01*
X18716Y2072D01*
X18676Y2032D01*
X18716D01*
X18756Y1992D01*
Y2032D02*
X18776Y2052D01*
X18796D01*
X18776Y2072D01*
X18796Y2092D01*
X18776D01*
X18756Y2112D01*
X18736Y2092D01*
X18716D01*
X18736Y2072D01*
X18716Y2052D01*
X18736D01*
X18756Y2032D01*
X18766Y1524D02*
X18806Y1564D01*
X18846D01*
X18806Y1604D01*
X18846Y1644D01*
X18806D01*
X18766Y1684D01*
X18726Y1644D01*
X18686D01*
X18726Y1604D01*
X18686Y1564D01*
X18726D01*
X18766Y1524D01*
Y1564D02*
X18786Y1584D01*
X18806D01*
X18786Y1604D01*
X18806Y1624D01*
X18786D01*
X18766Y1644D01*
X18746Y1624D01*
X18726D01*
X18746Y1604D01*
X18726Y1584D01*
X18746D01*
X18766Y1564D01*
X18735Y691D02*
X18775Y731D01*
X18815D01*
X18775Y771D01*
X18815Y811D01*
X18775D01*
X18735Y851D01*
X18695Y811D01*
X18655D01*
X18695Y771D01*
X18655Y731D01*
X18695D01*
X18735Y691D01*
Y731D02*
X18755Y751D01*
X18775D01*
X18755Y771D01*
X18775Y791D01*
X18755D01*
X18735Y811D01*
X18715Y791D01*
X18695D01*
X18715Y771D01*
X18695Y751D01*
X18715D01*
X18735Y731D01*
X17252Y1881D02*
X17292Y1921D01*
X17332D01*
X17292Y1961D01*
X17332Y2001D01*
X17292D01*
X17252Y2041D01*
X17212Y2001D01*
X17172D01*
X17212Y1961D01*
X17172Y1921D01*
X17212D01*
X17252Y1881D01*
Y1921D02*
X17272Y1941D01*
X17292D01*
X17272Y1961D01*
X17292Y1981D01*
X17272D01*
X17252Y2001D01*
X17232Y1981D01*
X17212D01*
X17232Y1961D01*
X17212Y1941D01*
X17232D01*
X17252Y1921D01*
X16440Y1881D02*
X16480Y1921D01*
X16520D01*
X16480Y1961D01*
X16520Y2001D01*
X16480D01*
X16440Y2041D01*
X16400Y2001D01*
X16360D01*
X16400Y1961D01*
X16360Y1921D01*
X16400D01*
X16440Y1881D01*
Y1921D02*
X16460Y1941D01*
X16480D01*
X16460Y1961D01*
X16480Y1981D01*
X16460D01*
X16440Y2001D01*
X16420Y1981D01*
X16400D01*
X16420Y1961D01*
X16400Y1941D01*
X16420D01*
X16440Y1921D01*
X16074Y15390D02*
X16114Y15430D01*
X16154D01*
X16114Y15470D01*
X16154Y15510D01*
X16114D01*
X16074Y15550D01*
X16034Y15510D01*
X15994D01*
X16034Y15470D01*
X15994Y15430D01*
X16034D01*
X16074Y15390D01*
Y15430D02*
X16094Y15450D01*
X16114D01*
X16094Y15470D01*
X16114Y15490D01*
X16094D01*
X16074Y15510D01*
X16054Y15490D01*
X16034D01*
X16054Y15470D01*
X16034Y15450D01*
X16054D01*
X16074Y15430D01*
X18054Y32870D02*
X18094Y32910D01*
X18134D01*
X18094Y32950D01*
X18134Y32990D01*
X18094D01*
X18054Y33030D01*
X18014Y32990D01*
X17974D01*
X18014Y32950D01*
X17974Y32910D01*
X18014D01*
X18054Y32870D01*
Y32910D02*
X18074Y32930D01*
X18094D01*
X18074Y32950D01*
X18094Y32970D01*
X18074D01*
X18054Y32990D01*
X18034Y32970D01*
X18014D01*
X18034Y32950D01*
X18014Y32930D01*
X18034D01*
X18054Y32910D01*
X16458Y33677D02*
X16498Y33717D01*
X16538D01*
X16498Y33757D01*
X16538Y33797D01*
X16498D01*
X16458Y33837D01*
X16418Y33797D01*
X16378D01*
X16418Y33757D01*
X16378Y33717D01*
X16418D01*
X16458Y33677D01*
Y33717D02*
X16478Y33737D01*
X16498D01*
X16478Y33757D01*
X16498Y33777D01*
X16478D01*
X16458Y33797D01*
X16438Y33777D01*
X16418D01*
X16438Y33757D01*
X16418Y33737D01*
X16438D01*
X16458Y33717D01*
X16695Y35416D02*
X16735Y35456D01*
X16775D01*
X16735Y35496D01*
X16775Y35536D01*
X16735D01*
X16695Y35576D01*
X16655Y35536D01*
X16615D01*
X16655Y35496D01*
X16615Y35456D01*
X16655D01*
X16695Y35416D01*
Y35456D02*
X16715Y35476D01*
X16735D01*
X16715Y35496D01*
X16735Y35516D01*
X16715D01*
X16695Y35536D01*
X16675Y35516D01*
X16655D01*
X16675Y35496D01*
X16655Y35476D01*
X16675D01*
X16695Y35456D01*
X17857Y35086D02*
X17897Y35126D01*
X17937D01*
X17897Y35166D01*
X17937Y35206D01*
X17897D01*
X17857Y35246D01*
X17817Y35206D01*
X17777D01*
X17817Y35166D01*
X17777Y35126D01*
X17817D01*
X17857Y35086D01*
Y35126D02*
X17877Y35146D01*
X17897D01*
X17877Y35166D01*
X17897Y35186D01*
X17877D01*
X17857Y35206D01*
X17837Y35186D01*
X17817D01*
X17837Y35166D01*
X17817Y35146D01*
X17837D01*
X17857Y35126D01*
X7904Y13094D02*
X7944Y13134D01*
X7984D01*
X7944Y13174D01*
X7984Y13214D01*
X7944D01*
X7904Y13254D01*
X7864Y13214D01*
X7824D01*
X7864Y13174D01*
X7824Y13134D01*
X7864D01*
X7904Y13094D01*
Y13134D02*
X7924Y13154D01*
X7944D01*
X7924Y13174D01*
X7944Y13194D01*
X7924D01*
X7904Y13214D01*
X7884Y13194D01*
X7864D01*
X7884Y13174D01*
X7864Y13154D01*
X7884D01*
X7904Y13134D01*
X19758Y30929D02*
X19798Y30969D01*
X19838D01*
X19798Y31009D01*
X19838Y31049D01*
X19798D01*
X19758Y31089D01*
X19718Y31049D01*
X19678D01*
X19718Y31009D01*
X19678Y30969D01*
X19718D01*
X19758Y30929D01*
Y30969D02*
X19778Y30989D01*
X19798D01*
X19778Y31009D01*
X19798Y31029D01*
X19778D01*
X19758Y31049D01*
X19738Y31029D01*
X19718D01*
X19738Y31009D01*
X19718Y30989D01*
X19738D01*
X19758Y30969D01*
X18935Y29854D02*
X18975Y29894D01*
X19015D01*
X18975Y29934D01*
X19015Y29974D01*
X18975D01*
X18935Y30014D01*
X18895Y29974D01*
X18855D01*
X18895Y29934D01*
X18855Y29894D01*
X18895D01*
X18935Y29854D01*
Y29894D02*
X18955Y29914D01*
X18975D01*
X18955Y29934D01*
X18975Y29954D01*
X18955D01*
X18935Y29974D01*
X18915Y29954D01*
X18895D01*
X18915Y29934D01*
X18895Y29914D01*
X18915D01*
X18935Y29894D01*
X13286Y40315D02*
X13326Y40355D01*
X13366D01*
X13326Y40395D01*
X13366Y40435D01*
X13326D01*
X13286Y40475D01*
X13246Y40435D01*
X13206D01*
X13246Y40395D01*
X13206Y40355D01*
X13246D01*
X13286Y40315D01*
Y40355D02*
X13306Y40375D01*
X13326D01*
X13306Y40395D01*
X13326Y40415D01*
X13306D01*
X13286Y40435D01*
X13266Y40415D01*
X13246D01*
X13266Y40395D01*
X13246Y40375D01*
X13266D01*
X13286Y40355D01*
X17545Y3404D02*
X17585Y3444D01*
X17625D01*
X17585Y3484D01*
X17625Y3524D01*
X17585D01*
X17545Y3564D01*
X17505Y3524D01*
X17465D01*
X17505Y3484D01*
X17465Y3444D01*
X17505D01*
X17545Y3404D01*
Y3444D02*
X17565Y3464D01*
X17585D01*
X17565Y3484D01*
X17585Y3504D01*
X17565D01*
X17545Y3524D01*
X17525Y3504D01*
X17505D01*
X17525Y3484D01*
X17505Y3464D01*
X17525D01*
X17545Y3444D01*
X17554Y10950D02*
X17594Y10990D01*
X17634D01*
X17594Y11030D01*
X17634Y11070D01*
X17594D01*
X17554Y11110D01*
X17514Y11070D01*
X17474D01*
X17514Y11030D01*
X17474Y10990D01*
X17514D01*
X17554Y10950D01*
Y10990D02*
X17574Y11010D01*
X17594D01*
X17574Y11030D01*
X17594Y11050D01*
X17574D01*
X17554Y11070D01*
X17534Y11050D01*
X17514D01*
X17534Y11030D01*
X17514Y11010D01*
X17534D01*
X17554Y10990D01*
X20837Y9223D02*
X20877Y9263D01*
X20917D01*
X20877Y9303D01*
X20917Y9343D01*
X20877D01*
X20837Y9383D01*
X20797Y9343D01*
X20757D01*
X20797Y9303D01*
X20757Y9263D01*
X20797D01*
X20837Y9223D01*
Y9263D02*
X20857Y9283D01*
X20877D01*
X20857Y9303D01*
X20877Y9323D01*
X20857D01*
X20837Y9343D01*
X20817Y9323D01*
X20797D01*
X20817Y9303D01*
X20797Y9283D01*
X20817D01*
X20837Y9263D01*
X20100Y15393D02*
X20140Y15433D01*
X20180D01*
X20140Y15473D01*
X20180Y15513D01*
X20140D01*
X20100Y15553D01*
X20060Y15513D01*
X20020D01*
X20060Y15473D01*
X20020Y15433D01*
X20060D01*
X20100Y15393D01*
Y15433D02*
X20120Y15453D01*
X20140D01*
X20120Y15473D01*
X20140Y15493D01*
X20120D01*
X20100Y15513D01*
X20080Y15493D01*
X20060D01*
X20080Y15473D01*
X20060Y15453D01*
X20080D01*
X20100Y15433D01*
X19420Y15395D02*
X19460Y15435D01*
X19500D01*
X19460Y15475D01*
X19500Y15515D01*
X19460D01*
X19420Y15555D01*
X19380Y15515D01*
X19340D01*
X19380Y15475D01*
X19340Y15435D01*
X19380D01*
X19420Y15395D01*
Y15435D02*
X19440Y15455D01*
X19460D01*
X19440Y15475D01*
X19460Y15495D01*
X19440D01*
X19420Y15515D01*
X19400Y15495D01*
X19380D01*
X19400Y15475D01*
X19380Y15455D01*
X19400D01*
X19420Y15435D01*
X21620Y584D02*
X21660Y624D01*
X21700D01*
X21660Y664D01*
X21700Y704D01*
X21660D01*
X21620Y744D01*
X21580Y704D01*
X21540D01*
X21580Y664D01*
X21540Y624D01*
X21580D01*
X21620Y584D01*
Y624D02*
X21640Y644D01*
X21660D01*
X21640Y664D01*
X21660Y684D01*
X21640D01*
X21620Y704D01*
X21600Y684D01*
X21580D01*
X21600Y664D01*
X21580Y644D01*
X21600D01*
X21620Y624D01*
X19538Y1142D02*
X19578Y1182D01*
X19618D01*
X19578Y1222D01*
X19618Y1262D01*
X19578D01*
X19538Y1302D01*
X19498Y1262D01*
X19458D01*
X19498Y1222D01*
X19458Y1182D01*
X19498D01*
X19538Y1142D01*
Y1182D02*
X19558Y1202D01*
X19578D01*
X19558Y1222D01*
X19578Y1242D01*
X19558D01*
X19538Y1262D01*
X19518Y1242D01*
X19498D01*
X19518Y1222D01*
X19498Y1202D01*
X19518D01*
X19538Y1182D01*
Y584D02*
X19578Y624D01*
X19618D01*
X19578Y664D01*
X19618Y704D01*
X19578D01*
X19538Y744D01*
X19498Y704D01*
X19458D01*
X19498Y664D01*
X19458Y624D01*
X19498D01*
X19538Y584D01*
Y624D02*
X19558Y644D01*
X19578D01*
X19558Y664D01*
X19578Y684D01*
X19558D01*
X19538Y704D01*
X19518Y684D01*
X19498D01*
X19518Y664D01*
X19498Y644D01*
X19518D01*
X19538Y624D01*
X24679Y663D02*
X24719Y703D01*
X24759D01*
X24719Y743D01*
X24759Y783D01*
X24719D01*
X24679Y823D01*
X24639Y783D01*
X24599D01*
X24639Y743D01*
X24599Y703D01*
X24639D01*
X24679Y663D01*
Y703D02*
X24699Y723D01*
X24719D01*
X24699Y743D01*
X24719Y763D01*
X24699D01*
X24679Y783D01*
X24659Y763D01*
X24639D01*
X24659Y743D01*
X24639Y723D01*
X24659D01*
X24679Y703D01*
X21620Y1142D02*
X21660Y1182D01*
X21700D01*
X21660Y1222D01*
X21700Y1262D01*
X21660D01*
X21620Y1302D01*
X21580Y1262D01*
X21540D01*
X21580Y1222D01*
X21540Y1182D01*
X21580D01*
X21620Y1142D01*
Y1182D02*
X21640Y1202D01*
X21660D01*
X21640Y1222D01*
X21660Y1242D01*
X21640D01*
X21620Y1262D01*
X21600Y1242D01*
X21580D01*
X21600Y1222D01*
X21580Y1202D01*
X21600D01*
X21620Y1182D01*
X18172Y4572D02*
X18212Y4612D01*
X18252D01*
X18212Y4652D01*
X18252Y4692D01*
X18212D01*
X18172Y4732D01*
X18132Y4692D01*
X18092D01*
X18132Y4652D01*
X18092Y4612D01*
X18132D01*
X18172Y4572D01*
Y4612D02*
X18192Y4632D01*
X18212D01*
X18192Y4652D01*
X18212Y4672D01*
X18192D01*
X18172Y4692D01*
X18152Y4672D01*
X18132D01*
X18152Y4652D01*
X18132Y4632D01*
X18152D01*
X18172Y4612D01*
X15218Y37866D02*
X15258Y37906D01*
X15298D01*
X15258Y37946D01*
X15298Y37986D01*
X15258D01*
X15218Y38026D01*
X15178Y37986D01*
X15138D01*
X15178Y37946D01*
X15138Y37906D01*
X15178D01*
X15218Y37866D01*
Y37906D02*
X15238Y37926D01*
X15258D01*
X15238Y37946D01*
X15258Y37966D01*
X15238D01*
X15218Y37986D01*
X15198Y37966D01*
X15178D01*
X15198Y37946D01*
X15178Y37926D01*
X15198D01*
X15218Y37906D01*
X15818Y38371D02*
X15858Y38411D01*
X15898D01*
X15858Y38451D01*
X15898Y38491D01*
X15858D01*
X15818Y38531D01*
X15778Y38491D01*
X15738D01*
X15778Y38451D01*
X15738Y38411D01*
X15778D01*
X15818Y38371D01*
Y38411D02*
X15838Y38431D01*
X15858D01*
X15838Y38451D01*
X15858Y38471D01*
X15838D01*
X15818Y38491D01*
X15798Y38471D01*
X15778D01*
X15798Y38451D01*
X15778Y38431D01*
X15798D01*
X15818Y38411D01*
Y37866D02*
X15858Y37906D01*
X15898D01*
X15858Y37946D01*
X15898Y37986D01*
X15858D01*
X15818Y38026D01*
X15778Y37986D01*
X15738D01*
X15778Y37946D01*
X15738Y37906D01*
X15778D01*
X15818Y37866D01*
Y37906D02*
X15838Y37926D01*
X15858D01*
X15838Y37946D01*
X15858Y37966D01*
X15838D01*
X15818Y37986D01*
X15798Y37966D01*
X15778D01*
X15798Y37946D01*
X15778Y37926D01*
X15798D01*
X15818Y37906D01*
X16211Y40950D02*
X16251Y40990D01*
X16291D01*
X16251Y41030D01*
X16291Y41070D01*
X16251D01*
X16211Y41110D01*
X16171Y41070D01*
X16131D01*
X16171Y41030D01*
X16131Y40990D01*
X16171D01*
X16211Y40950D01*
Y40990D02*
X16231Y41010D01*
X16251D01*
X16231Y41030D01*
X16251Y41050D01*
X16231D01*
X16211Y41070D01*
X16191Y41050D01*
X16171D01*
X16191Y41030D01*
X16171Y41010D01*
X16191D01*
X16211Y40990D01*
X14618Y37866D02*
X14658Y37906D01*
X14698D01*
X14658Y37946D01*
X14698Y37986D01*
X14658D01*
X14618Y38026D01*
X14578Y37986D01*
X14538D01*
X14578Y37946D01*
X14538Y37906D01*
X14578D01*
X14618Y37866D01*
Y37906D02*
X14638Y37926D01*
X14658D01*
X14638Y37946D01*
X14658Y37966D01*
X14638D01*
X14618Y37986D01*
X14598Y37966D01*
X14578D01*
X14598Y37946D01*
X14578Y37926D01*
X14598D01*
X14618Y37906D01*
X16192Y35538D02*
X16232Y35578D01*
X16272D01*
X16232Y35618D01*
X16272Y35658D01*
X16232D01*
X16192Y35698D01*
X16152Y35658D01*
X16112D01*
X16152Y35618D01*
X16112Y35578D01*
X16152D01*
X16192Y35538D01*
Y35578D02*
X16212Y35598D01*
X16232D01*
X16212Y35618D01*
X16232Y35638D01*
X16212D01*
X16192Y35658D01*
X16172Y35638D01*
X16152D01*
X16172Y35618D01*
X16152Y35598D01*
X16172D01*
X16192Y35578D01*
X15859Y35206D02*
X15899Y35246D01*
X15939D01*
X15899Y35286D01*
X15939Y35326D01*
X15899D01*
X15859Y35366D01*
X15819Y35326D01*
X15779D01*
X15819Y35286D01*
X15779Y35246D01*
X15819D01*
X15859Y35206D01*
Y35246D02*
X15879Y35266D01*
X15899D01*
X15879Y35286D01*
X15899Y35306D01*
X15879D01*
X15859Y35326D01*
X15839Y35306D01*
X15819D01*
X15839Y35286D01*
X15819Y35266D01*
X15839D01*
X15859Y35246D01*
X8315Y36740D02*
X8355Y36780D01*
X8395D01*
X8355Y36820D01*
X8395Y36860D01*
X8355D01*
X8315Y36900D01*
X8275Y36860D01*
X8235D01*
X8275Y36820D01*
X8235Y36780D01*
X8275D01*
X8315Y36740D01*
Y36780D02*
X8335Y36800D01*
X8355D01*
X8335Y36820D01*
X8355Y36840D01*
X8335D01*
X8315Y36860D01*
X8295Y36840D01*
X8275D01*
X8295Y36820D01*
X8275Y36800D01*
X8295D01*
X8315Y36780D01*
X8820Y36740D02*
X8860Y36780D01*
X8900D01*
X8860Y36820D01*
X8900Y36860D01*
X8860D01*
X8820Y36900D01*
X8780Y36860D01*
X8740D01*
X8780Y36820D01*
X8740Y36780D01*
X8780D01*
X8820Y36740D01*
Y36780D02*
X8840Y36800D01*
X8860D01*
X8840Y36820D01*
X8860Y36840D01*
X8840D01*
X8820Y36860D01*
X8800Y36840D01*
X8780D01*
X8800Y36820D01*
X8780Y36800D01*
X8800D01*
X8820Y36780D01*
Y37940D02*
X8860Y37980D01*
X8900D01*
X8860Y38020D01*
X8900Y38060D01*
X8860D01*
X8820Y38100D01*
X8780Y38060D01*
X8740D01*
X8780Y38020D01*
X8740Y37980D01*
X8780D01*
X8820Y37940D01*
Y37980D02*
X8840Y38000D01*
X8860D01*
X8840Y38020D01*
X8860Y38040D01*
X8840D01*
X8820Y38060D01*
X8800Y38040D01*
X8780D01*
X8800Y38020D01*
X8780Y38000D01*
X8800D01*
X8820Y37980D01*
X8315Y37940D02*
X8355Y37980D01*
X8395D01*
X8355Y38020D01*
X8395Y38060D01*
X8355D01*
X8315Y38100D01*
X8275Y38060D01*
X8235D01*
X8275Y38020D01*
X8235Y37980D01*
X8275D01*
X8315Y37940D01*
Y37980D02*
X8335Y38000D01*
X8355D01*
X8335Y38020D01*
X8355Y38040D01*
X8335D01*
X8315Y38060D01*
X8295Y38040D01*
X8275D01*
X8295Y38020D01*
X8275Y38000D01*
X8295D01*
X8315Y37980D01*
X8820Y37340D02*
X8860Y37380D01*
X8900D01*
X8860Y37420D01*
X8900Y37460D01*
X8860D01*
X8820Y37500D01*
X8780Y37460D01*
X8740D01*
X8780Y37420D01*
X8740Y37380D01*
X8780D01*
X8820Y37340D01*
Y37380D02*
X8840Y37400D01*
X8860D01*
X8840Y37420D01*
X8860Y37440D01*
X8840D01*
X8820Y37460D01*
X8800Y37440D01*
X8780D01*
X8800Y37420D01*
X8780Y37400D01*
X8800D01*
X8820Y37380D01*
X12536Y32267D02*
X12576Y32307D01*
X12616D01*
X12576Y32347D01*
X12616Y32387D01*
X12576D01*
X12536Y32427D01*
X12496Y32387D01*
X12456D01*
X12496Y32347D01*
X12456Y32307D01*
X12496D01*
X12536Y32267D01*
Y32307D02*
X12556Y32327D01*
X12576D01*
X12556Y32347D01*
X12576Y32367D01*
X12556D01*
X12536Y32387D01*
X12516Y32367D01*
X12496D01*
X12516Y32347D01*
X12496Y32327D01*
X12516D01*
X12536Y32307D01*
X12176Y32856D02*
X12216Y32896D01*
X12256D01*
X12216Y32936D01*
X12256Y32976D01*
X12216D01*
X12176Y33016D01*
X12136Y32976D01*
X12096D01*
X12136Y32936D01*
X12096Y32896D01*
X12136D01*
X12176Y32856D01*
Y32896D02*
X12196Y32916D01*
X12216D01*
X12196Y32936D01*
X12216Y32956D01*
X12196D01*
X12176Y32976D01*
X12156Y32956D01*
X12136D01*
X12156Y32936D01*
X12136Y32916D01*
X12156D01*
X12176Y32896D01*
X15904Y31662D02*
X15944Y31702D01*
X15984D01*
X15944Y31742D01*
X15984Y31782D01*
X15944D01*
X15904Y31822D01*
X15864Y31782D01*
X15824D01*
X15864Y31742D01*
X15824Y31702D01*
X15864D01*
X15904Y31662D01*
Y31702D02*
X15924Y31722D01*
X15944D01*
X15924Y31742D01*
X15944Y31762D01*
X15924D01*
X15904Y31782D01*
X15884Y31762D01*
X15864D01*
X15884Y31742D01*
X15864Y31722D01*
X15884D01*
X15904Y31702D01*
X21947Y1915D02*
X21987Y1955D01*
X22027D01*
X21987Y1995D01*
X22027Y2035D01*
X21987D01*
X21947Y2075D01*
X21907Y2035D01*
X21867D01*
X21907Y1995D01*
X21867Y1955D01*
X21907D01*
X21947Y1915D01*
Y1955D02*
X21967Y1975D01*
X21987D01*
X21967Y1995D01*
X21987Y2015D01*
X21967D01*
X21947Y2035D01*
X21927Y2015D01*
X21907D01*
X21927Y1995D01*
X21907Y1975D01*
X21927D01*
X21947Y1955D01*
X22335Y1915D02*
X22375Y1955D01*
X22415D01*
X22375Y1995D01*
X22415Y2035D01*
X22375D01*
X22335Y2075D01*
X22295Y2035D01*
X22255D01*
X22295Y1995D01*
X22255Y1955D01*
X22295D01*
X22335Y1915D01*
Y1955D02*
X22355Y1975D01*
X22375D01*
X22355Y1995D01*
X22375Y2015D01*
X22355D01*
X22335Y2035D01*
X22315Y2015D01*
X22295D01*
X22315Y1995D01*
X22295Y1975D01*
X22315D01*
X22335Y1955D01*
X22733Y1914D02*
X22773Y1954D01*
X22813D01*
X22773Y1994D01*
X22813Y2034D01*
X22773D01*
X22733Y2074D01*
X22693Y2034D01*
X22653D01*
X22693Y1994D01*
X22653Y1954D01*
X22693D01*
X22733Y1914D01*
Y1954D02*
X22753Y1974D01*
X22773D01*
X22753Y1994D01*
X22773Y2014D01*
X22753D01*
X22733Y2034D01*
X22713Y2014D01*
X22693D01*
X22713Y1994D01*
X22693Y1974D01*
X22713D01*
X22733Y1954D01*
X23137Y1905D02*
X23177Y1945D01*
X23217D01*
X23177Y1985D01*
X23217Y2025D01*
X23177D01*
X23137Y2065D01*
X23097Y2025D01*
X23057D01*
X23097Y1985D01*
X23057Y1945D01*
X23097D01*
X23137Y1905D01*
Y1945D02*
X23157Y1965D01*
X23177D01*
X23157Y1985D01*
X23177Y2005D01*
X23157D01*
X23137Y2025D01*
X23117Y2005D01*
X23097D01*
X23117Y1985D01*
X23097Y1965D01*
X23117D01*
X23137Y1945D01*
X13740Y588D02*
X13780Y628D01*
X13820D01*
X13780Y668D01*
X13820Y708D01*
X13780D01*
X13740Y748D01*
X13700Y708D01*
X13660D01*
X13700Y668D01*
X13660Y628D01*
X13700D01*
X13740Y588D01*
Y628D02*
X13760Y648D01*
X13780D01*
X13760Y668D01*
X13780Y688D01*
X13760D01*
X13740Y708D01*
X13720Y688D01*
X13700D01*
X13720Y668D01*
X13700Y648D01*
X13720D01*
X13740Y628D01*
Y1132D02*
X13780Y1172D01*
X13820D01*
X13780Y1212D01*
X13820Y1252D01*
X13780D01*
X13740Y1292D01*
X13700Y1252D01*
X13660D01*
X13700Y1212D01*
X13660Y1172D01*
X13700D01*
X13740Y1132D01*
Y1172D02*
X13760Y1192D01*
X13780D01*
X13760Y1212D01*
X13780Y1232D01*
X13760D01*
X13740Y1252D01*
X13720Y1232D01*
X13700D01*
X13720Y1212D01*
X13700Y1192D01*
X13720D01*
X13740Y1172D01*
X15630Y1148D02*
X15670Y1188D01*
X15710D01*
X15670Y1228D01*
X15710Y1268D01*
X15670D01*
X15630Y1308D01*
X15590Y1268D01*
X15550D01*
X15590Y1228D01*
X15550Y1188D01*
X15590D01*
X15630Y1148D01*
Y1188D02*
X15650Y1208D01*
X15670D01*
X15650Y1228D01*
X15670Y1248D01*
X15650D01*
X15630Y1268D01*
X15610Y1248D01*
X15590D01*
X15610Y1228D01*
X15590Y1208D01*
X15610D01*
X15630Y1188D01*
Y588D02*
X15670Y628D01*
X15710D01*
X15670Y668D01*
X15710Y708D01*
X15670D01*
X15630Y748D01*
X15590Y708D01*
X15550D01*
X15590Y668D01*
X15550Y628D01*
X15590D01*
X15630Y588D01*
Y628D02*
X15650Y648D01*
X15670D01*
X15650Y668D01*
X15670Y688D01*
X15650D01*
X15630Y708D01*
X15610Y688D01*
X15590D01*
X15610Y668D01*
X15590Y648D01*
X15610D01*
X15630Y628D01*
X14466Y2770D02*
X14506Y2810D01*
X14546D01*
X14506Y2850D01*
X14546Y2890D01*
X14506D01*
X14466Y2930D01*
X14426Y2890D01*
X14386D01*
X14426Y2850D01*
X14386Y2810D01*
X14426D01*
X14466Y2770D01*
Y2810D02*
X14486Y2830D01*
X14506D01*
X14486Y2850D01*
X14506Y2870D01*
X14486D01*
X14466Y2890D01*
X14446Y2870D01*
X14426D01*
X14446Y2850D01*
X14426Y2830D01*
X14446D01*
X14466Y2810D01*
X12943Y3614D02*
X12983Y3654D01*
X13023D01*
X12983Y3694D01*
X13023Y3734D01*
X12983D01*
X12943Y3774D01*
X12903Y3734D01*
X12863D01*
X12903Y3694D01*
X12863Y3654D01*
X12903D01*
X12943Y3614D01*
Y3654D02*
X12963Y3674D01*
X12983D01*
X12963Y3694D01*
X12983Y3714D01*
X12963D01*
X12943Y3734D01*
X12923Y3714D01*
X12903D01*
X12923Y3694D01*
X12903Y3674D01*
X12923D01*
X12943Y3654D01*
X12638Y6001D02*
X12678Y6041D01*
X12718D01*
X12678Y6081D01*
X12718Y6121D01*
X12678D01*
X12638Y6161D01*
X12598Y6121D01*
X12558D01*
X12598Y6081D01*
X12558Y6041D01*
X12598D01*
X12638Y6001D01*
Y6041D02*
X12658Y6061D01*
X12678D01*
X12658Y6081D01*
X12678Y6101D01*
X12658D01*
X12638Y6121D01*
X12618Y6101D01*
X12598D01*
X12618Y6081D01*
X12598Y6061D01*
X12618D01*
X12638Y6041D01*
Y5619D02*
X12678Y5659D01*
X12718D01*
X12678Y5699D01*
X12718Y5739D01*
X12678D01*
X12638Y5779D01*
X12598Y5739D01*
X12558D01*
X12598Y5699D01*
X12558Y5659D01*
X12598D01*
X12638Y5619D01*
Y5659D02*
X12658Y5679D01*
X12678D01*
X12658Y5699D01*
X12678Y5719D01*
X12658D01*
X12638Y5739D01*
X12618Y5719D01*
X12598D01*
X12618Y5699D01*
X12598Y5679D01*
X12618D01*
X12638Y5659D01*
Y5226D02*
X12678Y5266D01*
X12718D01*
X12678Y5306D01*
X12718Y5346D01*
X12678D01*
X12638Y5386D01*
X12598Y5346D01*
X12558D01*
X12598Y5306D01*
X12558Y5266D01*
X12598D01*
X12638Y5226D01*
Y5266D02*
X12658Y5286D01*
X12678D01*
X12658Y5306D01*
X12678Y5326D01*
X12658D01*
X12638Y5346D01*
X12618Y5326D01*
X12598D01*
X12618Y5306D01*
X12598Y5286D01*
X12618D01*
X12638Y5266D01*
X16744Y15390D02*
X16784Y15430D01*
X16824D01*
X16784Y15470D01*
X16824Y15510D01*
X16784D01*
X16744Y15550D01*
X16704Y15510D01*
X16664D01*
X16704Y15470D01*
X16664Y15430D01*
X16704D01*
X16744Y15390D01*
Y15430D02*
X16764Y15450D01*
X16784D01*
X16764Y15470D01*
X16784Y15490D01*
X16764D01*
X16744Y15510D01*
X16724Y15490D01*
X16704D01*
X16724Y15470D01*
X16704Y15450D01*
X16724D01*
X16744Y15430D01*
X17400Y15390D02*
X17440Y15430D01*
X17480D01*
X17440Y15470D01*
X17480Y15510D01*
X17440D01*
X17400Y15550D01*
X17360Y15510D01*
X17320D01*
X17360Y15470D01*
X17320Y15430D01*
X17360D01*
X17400Y15390D01*
Y15430D02*
X17420Y15450D01*
X17440D01*
X17420Y15470D01*
X17440Y15490D01*
X17420D01*
X17400Y15510D01*
X17380Y15490D01*
X17360D01*
X17380Y15470D01*
X17360Y15450D01*
X17380D01*
X17400Y15430D01*
X18067Y15390D02*
X18107Y15430D01*
X18147D01*
X18107Y15470D01*
X18147Y15510D01*
X18107D01*
X18067Y15550D01*
X18027Y15510D01*
X17987D01*
X18027Y15470D01*
X17987Y15430D01*
X18027D01*
X18067Y15390D01*
Y15430D02*
X18087Y15450D01*
X18107D01*
X18087Y15470D01*
X18107Y15490D01*
X18087D01*
X18067Y15510D01*
X18047Y15490D01*
X18027D01*
X18047Y15470D01*
X18027Y15450D01*
X18047D01*
X18067Y15430D01*
X16860Y34760D02*
X16900Y34800D01*
X16940D01*
X16900Y34840D01*
X16940Y34880D01*
X16900D01*
X16860Y34920D01*
X16820Y34880D01*
X16780D01*
X16820Y34840D01*
X16780Y34800D01*
X16820D01*
X16860Y34760D01*
Y34800D02*
X16880Y34820D01*
X16900D01*
X16880Y34840D01*
X16900Y34860D01*
X16880D01*
X16860Y34880D01*
X16840Y34860D01*
X16820D01*
X16840Y34840D01*
X16820Y34820D01*
X16840D01*
X16860Y34800D01*
X16540Y34760D02*
X16580Y34800D01*
X16620D01*
X16580Y34840D01*
X16620Y34880D01*
X16580D01*
X16540Y34920D01*
X16500Y34880D01*
X16460D01*
X16500Y34840D01*
X16460Y34800D01*
X16500D01*
X16540Y34760D01*
Y34800D02*
X16560Y34820D01*
X16580D01*
X16560Y34840D01*
X16580Y34860D01*
X16560D01*
X16540Y34880D01*
X16520Y34860D01*
X16500D01*
X16520Y34840D01*
X16500Y34820D01*
X16520D01*
X16540Y34800D01*
X13629Y34225D02*
X13669Y34265D01*
X13709D01*
X13669Y34305D01*
X13709Y34345D01*
X13669D01*
X13629Y34385D01*
X13589Y34345D01*
X13549D01*
X13589Y34305D01*
X13549Y34265D01*
X13589D01*
X13629Y34225D01*
Y34265D02*
X13649Y34285D01*
X13669D01*
X13649Y34305D01*
X13669Y34325D01*
X13649D01*
X13629Y34345D01*
X13609Y34325D01*
X13589D01*
X13609Y34305D01*
X13589Y34285D01*
X13609D01*
X13629Y34265D01*
X12772Y28165D02*
X12812Y28205D01*
X12852D01*
X12812Y28245D01*
X12852Y28285D01*
X12812D01*
X12772Y28325D01*
X12732Y28285D01*
X12692D01*
X12732Y28245D01*
X12692Y28205D01*
X12732D01*
X12772Y28165D01*
Y28205D02*
X12792Y28225D01*
X12812D01*
X12792Y28245D01*
X12812Y28265D01*
X12792D01*
X12772Y28285D01*
X12752Y28265D01*
X12732D01*
X12752Y28245D01*
X12732Y28225D01*
X12752D01*
X12772Y28205D01*
Y27236D02*
X12812Y27276D01*
X12852D01*
X12812Y27316D01*
X12852Y27356D01*
X12812D01*
X12772Y27396D01*
X12732Y27356D01*
X12692D01*
X12732Y27316D01*
X12692Y27276D01*
X12732D01*
X12772Y27236D01*
Y27276D02*
X12792Y27296D01*
X12812D01*
X12792Y27316D01*
X12812Y27336D01*
X12792D01*
X12772Y27356D01*
X12752Y27336D01*
X12732D01*
X12752Y27316D01*
X12732Y27296D01*
X12752D01*
X12772Y27276D01*
X15904Y30277D02*
X15944Y30317D01*
X15984D01*
X15944Y30357D01*
X15984Y30397D01*
X15944D01*
X15904Y30437D01*
X15864Y30397D01*
X15824D01*
X15864Y30357D01*
X15824Y30317D01*
X15864D01*
X15904Y30277D01*
Y30317D02*
X15924Y30337D01*
X15944D01*
X15924Y30357D01*
X15944Y30377D01*
X15924D01*
X15904Y30397D01*
X15884Y30377D01*
X15864D01*
X15884Y30357D01*
X15864Y30337D01*
X15884D01*
X15904Y30317D01*
X20110Y30900D02*
X20150Y30940D01*
X20190D01*
X20150Y30980D01*
X20190Y31020D01*
X20150D01*
X20110Y31060D01*
X20070Y31020D01*
X20030D01*
X20070Y30980D01*
X20030Y30940D01*
X20070D01*
X20110Y30900D01*
Y30940D02*
X20130Y30960D01*
X20150D01*
X20130Y30980D01*
X20150Y31000D01*
X20130D01*
X20110Y31020D01*
X20090Y31000D01*
X20070D01*
X20090Y30980D01*
X20070Y30960D01*
X20090D01*
X20110Y30940D01*
X19156Y30257D02*
X19196Y30297D01*
X19236D01*
X19196Y30337D01*
X19236Y30377D01*
X19196D01*
X19156Y30417D01*
X19116Y30377D01*
X19076D01*
X19116Y30337D01*
X19076Y30297D01*
X19116D01*
X19156Y30257D01*
Y30297D02*
X19176Y30317D01*
X19196D01*
X19176Y30337D01*
X19196Y30357D01*
X19176D01*
X19156Y30377D01*
X19136Y30357D01*
X19116D01*
X19136Y30337D01*
X19116Y30317D01*
X19136D01*
X19156Y30297D01*
X20501Y9239D02*
X20541Y9279D01*
X20581D01*
X20541Y9319D01*
X20581Y9359D01*
X20541D01*
X20501Y9399D01*
X20461Y9359D01*
X20421D01*
X20461Y9319D01*
X20421Y9279D01*
X20461D01*
X20501Y9239D01*
Y9279D02*
X20521Y9299D01*
X20541D01*
X20521Y9319D01*
X20541Y9339D01*
X20521D01*
X20501Y9359D01*
X20481Y9339D01*
X20461D01*
X20481Y9319D01*
X20461Y9299D01*
X20481D01*
X20501Y9279D01*
X8904Y12023D02*
X8944Y12063D01*
X8984D01*
X8944Y12103D01*
X8984Y12143D01*
X8944D01*
X8904Y12183D01*
X8864Y12143D01*
X8824D01*
X8864Y12103D01*
X8824Y12063D01*
X8864D01*
X8904Y12023D01*
Y12063D02*
X8924Y12083D01*
X8944D01*
X8924Y12103D01*
X8944Y12123D01*
X8924D01*
X8904Y12143D01*
X8884Y12123D01*
X8864D01*
X8884Y12103D01*
X8864Y12083D01*
X8884D01*
X8904Y12063D01*
X16549Y33204D02*
X16589Y33244D01*
X16629D01*
X16589Y33284D01*
X16629Y33324D01*
X16589D01*
X16549Y33364D01*
X16509Y33324D01*
X16469D01*
X16509Y33284D01*
X16469Y33244D01*
X16509D01*
X16549Y33204D01*
Y33244D02*
X16569Y33264D01*
X16589D01*
X16569Y33284D01*
X16589Y33304D01*
X16569D01*
X16549Y33324D01*
X16529Y33304D01*
X16509D01*
X16529Y33284D01*
X16509Y33264D01*
X16529D01*
X16549Y33244D01*
X18151Y4198D02*
X18191Y4238D01*
X18231D01*
X18191Y4278D01*
X18231Y4318D01*
X18191D01*
X18151Y4358D01*
X18111Y4318D01*
X18071D01*
X18111Y4278D01*
X18071Y4238D01*
X18111D01*
X18151Y4198D01*
Y4238D02*
X18171Y4258D01*
X18191D01*
X18171Y4278D01*
X18191Y4298D01*
X18171D01*
X18151Y4318D01*
X18131Y4298D01*
X18111D01*
X18131Y4278D01*
X18111Y4258D01*
X18131D01*
X18151Y4238D01*
X17864Y3770D02*
X17904Y3810D01*
X17944D01*
X17904Y3850D01*
X17944Y3890D01*
X17904D01*
X17864Y3930D01*
X17824Y3890D01*
X17784D01*
X17824Y3850D01*
X17784Y3810D01*
X17824D01*
X17864Y3770D01*
Y3810D02*
X17884Y3830D01*
X17904D01*
X17884Y3850D01*
X17904Y3870D01*
X17884D01*
X17864Y3890D01*
X17844Y3870D01*
X17824D01*
X17844Y3850D01*
X17824Y3830D01*
X17844D01*
X17864Y3810D01*
X20373Y2905D02*
X20413Y2945D01*
X20453D01*
X20413Y2985D01*
X20453Y3025D01*
X20413D01*
X20373Y3065D01*
X20333Y3025D01*
X20293D01*
X20333Y2985D01*
X20293Y2945D01*
X20333D01*
X20373Y2905D01*
Y2945D02*
X20393Y2965D01*
X20413D01*
X20393Y2985D01*
X20413Y3005D01*
X20393D01*
X20373Y3025D01*
X20353Y3005D01*
X20333D01*
X20353Y2985D01*
X20333Y2965D01*
X20353D01*
X20373Y2945D01*
X25018Y2326D02*
X25058Y2366D01*
X25098D01*
X25058Y2406D01*
X25098Y2446D01*
X25058D01*
X25018Y2486D01*
X24978Y2446D01*
X24938D01*
X24978Y2406D01*
X24938Y2366D01*
X24978D01*
X25018Y2326D01*
Y2366D02*
X25038Y2386D01*
X25058D01*
X25038Y2406D01*
X25058Y2426D01*
X25038D01*
X25018Y2446D01*
X24998Y2426D01*
X24978D01*
X24998Y2406D01*
X24978Y2386D01*
X24998D01*
X25018Y2366D01*
X25015Y1896D02*
X25055Y1936D01*
X25095D01*
X25055Y1976D01*
X25095Y2016D01*
X25055D01*
X25015Y2056D01*
X24975Y2016D01*
X24935D01*
X24975Y1976D01*
X24935Y1936D01*
X24975D01*
X25015Y1896D01*
Y1936D02*
X25035Y1956D01*
X25055D01*
X25035Y1976D01*
X25055Y1996D01*
X25035D01*
X25015Y2016D01*
X24995Y1996D01*
X24975D01*
X24995Y1976D01*
X24975Y1956D01*
X24995D01*
X25015Y1936D01*
X24666Y1702D02*
X24706Y1742D01*
X24746D01*
X24706Y1782D01*
X24746Y1822D01*
X24706D01*
X24666Y1862D01*
X24626Y1822D01*
X24586D01*
X24626Y1782D01*
X24586Y1742D01*
X24626D01*
X24666Y1702D01*
Y1742D02*
X24686Y1762D01*
X24706D01*
X24686Y1782D01*
X24706Y1802D01*
X24686D01*
X24666Y1822D01*
X24646Y1802D01*
X24626D01*
X24646Y1782D01*
X24626Y1762D01*
X24646D01*
X24666Y1742D01*
Y2124D02*
X24706Y2164D01*
X24746D01*
X24706Y2204D01*
X24746Y2244D01*
X24706D01*
X24666Y2284D01*
X24626Y2244D01*
X24586D01*
X24626Y2204D01*
X24586Y2164D01*
X24626D01*
X24666Y2124D01*
Y2164D02*
X24686Y2184D01*
X24706D01*
X24686Y2204D01*
X24706Y2224D01*
X24686D01*
X24666Y2244D01*
X24646Y2224D01*
X24626D01*
X24646Y2204D01*
X24626Y2184D01*
X24646D01*
X24666Y2164D01*
X24671Y2525D02*
X24711Y2565D01*
X24751D01*
X24711Y2605D01*
X24751Y2645D01*
X24711D01*
X24671Y2685D01*
X24631Y2645D01*
X24591D01*
X24631Y2605D01*
X24591Y2565D01*
X24631D01*
X24671Y2525D01*
Y2565D02*
X24691Y2585D01*
X24711D01*
X24691Y2605D01*
X24711Y2625D01*
X24691D01*
X24671Y2645D01*
X24651Y2625D01*
X24631D01*
X24651Y2605D01*
X24631Y2585D01*
X24651D01*
X24671Y2565D01*
X15722Y9401D02*
X15762Y9441D01*
X15802D01*
X15762Y9481D01*
X15802Y9521D01*
X15762D01*
X15722Y9561D01*
X15682Y9521D01*
X15642D01*
X15682Y9481D01*
X15642Y9441D01*
X15682D01*
X15722Y9401D01*
Y9441D02*
X15742Y9461D01*
X15762D01*
X15742Y9481D01*
X15762Y9501D01*
X15742D01*
X15722Y9521D01*
X15702Y9501D01*
X15682D01*
X15702Y9481D01*
X15682Y9461D01*
X15702D01*
X15722Y9441D01*
X16740Y13102D02*
X16780Y13142D01*
X16820D01*
X16780Y13182D01*
X16820Y13222D01*
X16780D01*
X16740Y13262D01*
X16700Y13222D01*
X16660D01*
X16700Y13182D01*
X16660Y13142D01*
X16700D01*
X16740Y13102D01*
Y13142D02*
X16760Y13162D01*
X16780D01*
X16760Y13182D01*
X16780Y13202D01*
X16760D01*
X16740Y13222D01*
X16720Y13202D01*
X16700D01*
X16720Y13182D01*
X16700Y13162D01*
X16720D01*
X16740Y13142D01*
X16074Y13095D02*
X16114Y13135D01*
X16154D01*
X16114Y13175D01*
X16154Y13215D01*
X16114D01*
X16074Y13255D01*
X16034Y13215D01*
X15994D01*
X16034Y13175D01*
X15994Y13135D01*
X16034D01*
X16074Y13095D01*
Y13135D02*
X16094Y13155D01*
X16114D01*
X16094Y13175D01*
X16114Y13195D01*
X16094D01*
X16074Y13215D01*
X16054Y13195D01*
X16034D01*
X16054Y13175D01*
X16034Y13155D01*
X16054D01*
X16074Y13135D01*
X16498Y11508D02*
X16538Y11548D01*
X16578D01*
X16538Y11588D01*
X16578Y11628D01*
X16538D01*
X16498Y11668D01*
X16458Y11628D01*
X16418D01*
X16458Y11588D01*
X16418Y11548D01*
X16458D01*
X16498Y11508D01*
Y11548D02*
X16518Y11568D01*
X16538D01*
X16518Y11588D01*
X16538Y11608D01*
X16518D01*
X16498Y11628D01*
X16478Y11608D01*
X16458D01*
X16478Y11588D01*
X16458Y11568D01*
X16478D01*
X16498Y11548D01*
X16511Y11064D02*
X16551Y11104D01*
X16591D01*
X16551Y11144D01*
X16591Y11184D01*
X16551D01*
X16511Y11224D01*
X16471Y11184D01*
X16431D01*
X16471Y11144D01*
X16431Y11104D01*
X16471D01*
X16511Y11064D01*
Y11104D02*
X16531Y11124D01*
X16551D01*
X16531Y11144D01*
X16551Y11164D01*
X16531D01*
X16511Y11184D01*
X16491Y11164D01*
X16471D01*
X16491Y11144D01*
X16471Y11124D01*
X16491D01*
X16511Y11104D01*
Y11908D02*
X16551Y11948D01*
X16591D01*
X16551Y11988D01*
X16591Y12028D01*
X16551D01*
X16511Y12068D01*
X16471Y12028D01*
X16431D01*
X16471Y11988D01*
X16431Y11948D01*
X16471D01*
X16511Y11908D01*
Y11948D02*
X16531Y11968D01*
X16551D01*
X16531Y11988D01*
X16551Y12008D01*
X16531D01*
X16511Y12028D01*
X16491Y12008D01*
X16471D01*
X16491Y11988D01*
X16471Y11968D01*
X16491D01*
X16511Y11948D01*
X20145Y8884D02*
X20185Y8924D01*
X20225D01*
X20185Y8964D01*
X20225Y9004D01*
X20185D01*
X20145Y9044D01*
X20105Y9004D01*
X20065D01*
X20105Y8964D01*
X20065Y8924D01*
X20105D01*
X20145Y8884D01*
Y8924D02*
X20165Y8944D01*
X20185D01*
X20165Y8964D01*
X20185Y8984D01*
X20165D01*
X20145Y9004D01*
X20125Y8984D01*
X20105D01*
X20125Y8964D01*
X20105Y8944D01*
X20125D01*
X20145Y8924D01*
X17238Y12482D02*
X17278Y12522D01*
X17318D01*
X17278Y12562D01*
X17318Y12602D01*
X17278D01*
X17238Y12642D01*
X17198Y12602D01*
X17158D01*
X17198Y12562D01*
X17158Y12522D01*
X17198D01*
X17238Y12482D01*
Y12522D02*
X17258Y12542D01*
X17278D01*
X17258Y12562D01*
X17278Y12582D01*
X17258D01*
X17238Y12602D01*
X17218Y12582D01*
X17198D01*
X17218Y12562D01*
X17198Y12542D01*
X17218D01*
X17238Y12522D01*
X11285Y25911D02*
X11325Y25951D01*
X11365D01*
X11325Y25991D01*
X11365Y26031D01*
X11325D01*
X11285Y26071D01*
X11245Y26031D01*
X11205D01*
X11245Y25991D01*
X11205Y25951D01*
X11245D01*
X11285Y25911D01*
Y25951D02*
X11305Y25971D01*
X11325D01*
X11305Y25991D01*
X11325Y26011D01*
X11305D01*
X11285Y26031D01*
X11265Y26011D01*
X11245D01*
X11265Y25991D01*
X11245Y25971D01*
X11265D01*
X11285Y25951D01*
X11604Y25911D02*
X11644Y25951D01*
X11684D01*
X11644Y25991D01*
X11684Y26031D01*
X11644D01*
X11604Y26071D01*
X11564Y26031D01*
X11524D01*
X11564Y25991D01*
X11524Y25951D01*
X11564D01*
X11604Y25911D01*
Y25951D02*
X11624Y25971D01*
X11644D01*
X11624Y25991D01*
X11644Y26011D01*
X11624D01*
X11604Y26031D01*
X11584Y26011D01*
X11564D01*
X11584Y25991D01*
X11564Y25971D01*
X11584D01*
X11604Y25951D01*
Y25271D02*
X11644Y25311D01*
X11684D01*
X11644Y25351D01*
X11684Y25391D01*
X11644D01*
X11604Y25431D01*
X11564Y25391D01*
X11524D01*
X11564Y25351D01*
X11524Y25311D01*
X11564D01*
X11604Y25271D01*
Y25311D02*
X11624Y25331D01*
X11644D01*
X11624Y25351D01*
X11644Y25371D01*
X11624D01*
X11604Y25391D01*
X11584Y25371D01*
X11564D01*
X11584Y25351D01*
X11564Y25331D01*
X11584D01*
X11604Y25311D01*
Y25591D02*
X11644Y25631D01*
X11684D01*
X11644Y25671D01*
X11684Y25711D01*
X11644D01*
X11604Y25751D01*
X11564Y25711D01*
X11524D01*
X11564Y25671D01*
X11524Y25631D01*
X11564D01*
X11604Y25591D01*
Y25631D02*
X11624Y25651D01*
X11644D01*
X11624Y25671D01*
X11644Y25691D01*
X11624D01*
X11604Y25711D01*
X11584Y25691D01*
X11564D01*
X11584Y25671D01*
X11564Y25651D01*
X11584D01*
X11604Y25631D01*
X11870Y29566D02*
X11910Y29606D01*
X11950D01*
X11910Y29646D01*
X11950Y29686D01*
X11910D01*
X11870Y29726D01*
X11830Y29686D01*
X11790D01*
X11830Y29646D01*
X11790Y29606D01*
X11830D01*
X11870Y29566D01*
Y29606D02*
X11890Y29626D01*
X11910D01*
X11890Y29646D01*
X11910Y29666D01*
X11890D01*
X11870Y29686D01*
X11850Y29666D01*
X11830D01*
X11850Y29646D01*
X11830Y29626D01*
X11850D01*
X11870Y29606D01*
X19845Y7263D02*
X19885Y7303D01*
X19925D01*
X19885Y7343D01*
X19925Y7383D01*
X19885D01*
X19845Y7423D01*
X19805Y7383D01*
X19765D01*
X19805Y7343D01*
X19765Y7303D01*
X19805D01*
X19845Y7263D01*
Y7303D02*
X19865Y7323D01*
X19885D01*
X19865Y7343D01*
X19885Y7363D01*
X19865D01*
X19845Y7383D01*
X19825Y7363D01*
X19805D01*
X19825Y7343D01*
X19805Y7323D01*
X19825D01*
X19845Y7303D01*
X11870Y29900D02*
X11910Y29940D01*
X11950D01*
X11910Y29980D01*
X11950Y30020D01*
X11910D01*
X11870Y30060D01*
X11830Y30020D01*
X11790D01*
X11830Y29980D01*
X11790Y29940D01*
X11830D01*
X11870Y29900D01*
Y29940D02*
X11890Y29960D01*
X11910D01*
X11890Y29980D01*
X11910Y30000D01*
X11890D01*
X11870Y30020D01*
X11850Y30000D01*
X11830D01*
X11850Y29980D01*
X11830Y29960D01*
X11850D01*
X11870Y29940D01*
X9813Y27509D02*
X9853Y27549D01*
X9893D01*
X9853Y27589D01*
X9893Y27629D01*
X9853D01*
X9813Y27669D01*
X9773Y27629D01*
X9733D01*
X9773Y27589D01*
X9733Y27549D01*
X9773D01*
X9813Y27509D01*
Y27549D02*
X9833Y27569D01*
X9853D01*
X9833Y27589D01*
X9853Y27609D01*
X9833D01*
X9813Y27629D01*
X9793Y27609D01*
X9773D01*
X9793Y27589D01*
X9773Y27569D01*
X9793D01*
X9813Y27549D01*
X10128Y27223D02*
X10168Y27263D01*
X10208D01*
X10168Y27303D01*
X10208Y27343D01*
X10168D01*
X10128Y27383D01*
X10088Y27343D01*
X10048D01*
X10088Y27303D01*
X10048Y27263D01*
X10088D01*
X10128Y27223D01*
Y27263D02*
X10148Y27283D01*
X10168D01*
X10148Y27303D01*
X10168Y27323D01*
X10148D01*
X10128Y27343D01*
X10108Y27323D01*
X10088D01*
X10108Y27303D01*
X10088Y27283D01*
X10108D01*
X10128Y27263D01*
X9813Y27203D02*
X9853Y27243D01*
X9893D01*
X9853Y27283D01*
X9893Y27323D01*
X9853D01*
X9813Y27363D01*
X9773Y27323D01*
X9733D01*
X9773Y27283D01*
X9733Y27243D01*
X9773D01*
X9813Y27203D01*
Y27243D02*
X9833Y27263D01*
X9853D01*
X9833Y27283D01*
X9853Y27303D01*
X9833D01*
X9813Y27323D01*
X9793Y27303D01*
X9773D01*
X9793Y27283D01*
X9773Y27263D01*
X9793D01*
X9813Y27243D01*
X9813Y27812D02*
X9853Y27852D01*
X9893D01*
X9853Y27892D01*
X9893Y27932D01*
X9853D01*
X9813Y27972D01*
X9773Y27932D01*
X9733D01*
X9773Y27892D01*
X9733Y27852D01*
X9773D01*
X9813Y27812D01*
Y27852D02*
X9833Y27872D01*
X9853D01*
X9833Y27892D01*
X9853Y27912D01*
X9833D01*
X9813Y27932D01*
X9793Y27912D01*
X9773D01*
X9793Y27892D01*
X9773Y27872D01*
X9793D01*
X9813Y27852D01*
X16460Y6842D02*
X16500Y6882D01*
X16540D01*
X16500Y6922D01*
X16540Y6962D01*
X16500D01*
X16460Y7002D01*
X16420Y6962D01*
X16380D01*
X16420Y6922D01*
X16380Y6882D01*
X16420D01*
X16460Y6842D01*
Y6882D02*
X16480Y6902D01*
X16500D01*
X16480Y6922D01*
X16500Y6942D01*
X16480D01*
X16460Y6962D01*
X16440Y6942D01*
X16420D01*
X16440Y6922D01*
X16420Y6902D01*
X16440D01*
X16460Y6882D01*
X16048Y6867D02*
X16088Y6907D01*
X16128D01*
X16088Y6947D01*
X16128Y6987D01*
X16088D01*
X16048Y7027D01*
X16008Y6987D01*
X15968D01*
X16008Y6947D01*
X15968Y6907D01*
X16008D01*
X16048Y6867D01*
Y6907D02*
X16068Y6927D01*
X16088D01*
X16068Y6947D01*
X16088Y6967D01*
X16068D01*
X16048Y6987D01*
X16028Y6967D01*
X16008D01*
X16028Y6947D01*
X16008Y6927D01*
X16028D01*
X16048Y6907D01*
X15305Y6654D02*
X15345Y6694D01*
X15385D01*
X15345Y6734D01*
X15385Y6774D01*
X15345D01*
X15305Y6814D01*
X15265Y6774D01*
X15225D01*
X15265Y6734D01*
X15225Y6694D01*
X15265D01*
X15305Y6654D01*
Y6694D02*
X15325Y6714D01*
X15345D01*
X15325Y6734D01*
X15345Y6754D01*
X15325D01*
X15305Y6774D01*
X15285Y6754D01*
X15265D01*
X15285Y6734D01*
X15265Y6714D01*
X15285D01*
X15305Y6694D01*
X10089Y25271D02*
X10129Y25311D01*
X10169D01*
X10129Y25351D01*
X10169Y25391D01*
X10129D01*
X10089Y25431D01*
X10049Y25391D01*
X10009D01*
X10049Y25351D01*
X10009Y25311D01*
X10049D01*
X10089Y25271D01*
Y25311D02*
X10109Y25331D01*
X10129D01*
X10109Y25351D01*
X10129Y25371D01*
X10109D01*
X10089Y25391D01*
X10069Y25371D01*
X10049D01*
X10069Y25351D01*
X10049Y25331D01*
X10069D01*
X10089Y25311D01*
Y25591D02*
X10129Y25631D01*
X10169D01*
X10129Y25671D01*
X10169Y25711D01*
X10129D01*
X10089Y25751D01*
X10049Y25711D01*
X10009D01*
X10049Y25671D01*
X10009Y25631D01*
X10049D01*
X10089Y25591D01*
Y25631D02*
X10109Y25651D01*
X10129D01*
X10109Y25671D01*
X10129Y25691D01*
X10109D01*
X10089Y25711D01*
X10069Y25691D01*
X10049D01*
X10069Y25671D01*
X10049Y25651D01*
X10069D01*
X10089Y25631D01*
X16934Y6842D02*
X16974Y6882D01*
X17014D01*
X16974Y6922D01*
X17014Y6962D01*
X16974D01*
X16934Y7002D01*
X16894Y6962D01*
X16854D01*
X16894Y6922D01*
X16854Y6882D01*
X16894D01*
X16934Y6842D01*
Y6882D02*
X16954Y6902D01*
X16974D01*
X16954Y6922D01*
X16974Y6942D01*
X16954D01*
X16934Y6962D01*
X16914Y6942D01*
X16894D01*
X16914Y6922D01*
X16894Y6902D01*
X16914D01*
X16934Y6882D01*
X17411Y6859D02*
X17451Y6899D01*
X17491D01*
X17451Y6939D01*
X17491Y6979D01*
X17451D01*
X17411Y7019D01*
X17371Y6979D01*
X17331D01*
X17371Y6939D01*
X17331Y6899D01*
X17371D01*
X17411Y6859D01*
Y6899D02*
X17431Y6919D01*
X17451D01*
X17431Y6939D01*
X17451Y6959D01*
X17431D01*
X17411Y6979D01*
X17391Y6959D01*
X17371D01*
X17391Y6939D01*
X17371Y6919D01*
X17391D01*
X17411Y6899D01*
X17923Y6879D02*
X17963Y6919D01*
X18003D01*
X17963Y6959D01*
X18003Y6999D01*
X17963D01*
X17923Y7039D01*
X17883Y6999D01*
X17843D01*
X17883Y6959D01*
X17843Y6919D01*
X17883D01*
X17923Y6879D01*
Y6919D02*
X17943Y6939D01*
X17963D01*
X17943Y6959D01*
X17963Y6979D01*
X17943D01*
X17923Y6999D01*
X17903Y6979D01*
X17883D01*
X17903Y6959D01*
X17883Y6939D01*
X17903D01*
X17923Y6919D01*
X17186Y6611D02*
X17226Y6651D01*
X17266D01*
X17226Y6691D01*
X17266Y6731D01*
X17226D01*
X17186Y6771D01*
X17146Y6731D01*
X17106D01*
X17146Y6691D01*
X17106Y6651D01*
X17146D01*
X17186Y6611D01*
Y6651D02*
X17206Y6671D01*
X17226D01*
X17206Y6691D01*
X17226Y6711D01*
X17206D01*
X17186Y6731D01*
X17166Y6711D01*
X17146D01*
X17166Y6691D01*
X17146Y6671D01*
X17166D01*
X17186Y6651D01*
X17909Y5823D02*
X17949Y5863D01*
X17989D01*
X17949Y5903D01*
X17989Y5943D01*
X17949D01*
X17909Y5983D01*
X17869Y5943D01*
X17829D01*
X17869Y5903D01*
X17829Y5863D01*
X17869D01*
X17909Y5823D01*
Y5863D02*
X17929Y5883D01*
X17949D01*
X17929Y5903D01*
X17949Y5923D01*
X17929D01*
X17909Y5943D01*
X17889Y5923D01*
X17869D01*
X17889Y5903D01*
X17869Y5883D01*
X17889D01*
X17909Y5863D01*
X17669Y6653D02*
X17709Y6693D01*
X17749D01*
X17709Y6733D01*
X17749Y6773D01*
X17709D01*
X17669Y6813D01*
X17629Y6773D01*
X17589D01*
X17629Y6733D01*
X17589Y6693D01*
X17629D01*
X17669Y6653D01*
Y6693D02*
X17689Y6713D01*
X17709D01*
X17689Y6733D01*
X17709Y6753D01*
X17689D01*
X17669Y6773D01*
X17649Y6753D01*
X17629D01*
X17649Y6733D01*
X17629Y6713D01*
X17649D01*
X17669Y6693D01*
X17536Y5817D02*
X17576Y5857D01*
X17616D01*
X17576Y5897D01*
X17616Y5937D01*
X17576D01*
X17536Y5977D01*
X17496Y5937D01*
X17456D01*
X17496Y5897D01*
X17456Y5857D01*
X17496D01*
X17536Y5817D01*
Y5857D02*
X17556Y5877D01*
X17576D01*
X17556Y5897D01*
X17576Y5917D01*
X17556D01*
X17536Y5937D01*
X17516Y5917D01*
X17496D01*
X17516Y5897D01*
X17496Y5877D01*
X17516D01*
X17536Y5857D01*
D243*
X12501Y41886D02*
G03*
X12501Y41886I-80J0D01*
G01*
X15257D02*
G03*
X15257Y41886I-80J0D01*
G01*
X6640Y27916D02*
G03*
X6640Y27916I-80J0D01*
G01*
Y26916D02*
G03*
X6640Y26916I-80J0D01*
G01*
Y25916D02*
G03*
X6640Y25916I-80J0D01*
G01*
X9001Y35483D02*
G03*
X9001Y35483I-80J0D01*
G01*
X10001D02*
G03*
X10001Y35483I-80J0D01*
G01*
X11001D02*
G03*
X11001Y35483I-80J0D01*
G01*
D244*
X6600Y27916D02*
G03*
X6600Y27916I-40J0D01*
G01*
Y26916D02*
G03*
X6600Y26916I-40J0D01*
G01*
Y25916D02*
G03*
X6600Y25916I-40J0D01*
G01*
X8961Y35483D02*
G03*
X8961Y35483I-40J0D01*
G01*
X9961D02*
G03*
X9961Y35483I-40J0D01*
G01*
X10961D02*
G03*
X10961Y35483I-40J0D01*
G01*
M02*
